# Blender 5.0.0
# www.blender.org
mtllib BathroomWashing_Wood049_0.mtl
o BathroomWashing_Wood049_0
v 7.997475 1.378977 1.795597
v 7.997475 1.329579 1.795597
v 7.997475 1.329579 2.405804
v 7.997475 1.378977 2.405804
v 7.997475 2.763449 2.405803
v 9.145189 1.329579 2.405804
v 9.145189 1.329579 1.795597
v 9.145189 1.378978 1.795597
v 8.210901 1.378977 1.795597
v 8.210901 1.378977 2.405804
v 8.210901 1.329579 2.405804
v 8.210901 1.329579 1.795597
v 7.997475 2.763449 1.795597
v 8.925308 1.378978 1.795597
v 8.925308 1.329579 1.795597
v 8.925308 1.329579 2.405804
v 8.017304 2.743694 2.405803
v 8.925308 2.743694 1.795597
v 8.210901 2.743694 1.795597
v 8.210901 2.743694 2.405803
v 9.145189 2.743694 1.795597
v 9.145189 2.743694 2.405803
v 7.997475 2.743694 1.795597
v 9.123438 2.743694 2.405803
v 9.123438 2.743694 1.795597
v 8.948209 2.743694 2.405803
v 8.210901 0.145523 1.795597
v 8.210901 0.145523 2.405804
v 8.193124 2.743694 1.795597
v 8.193124 2.743694 2.405803
v 8.210901 1.918096 1.795597
v 8.925308 0.145523 2.405804
v 8.210901 1.948665 1.795597
v 8.948209 1.378978 1.795597
v 8.948209 1.918097 1.795597
v 8.948209 1.948665 1.795597
v 8.948209 1.948665 2.405803
v 8.948209 2.743694 1.795597
v 8.948209 2.763449 2.405803
v 8.193124 1.329579 1.795597
v 8.925308 1.918096 2.405803
v 8.925308 1.918097 1.795597
v 8.193124 0.145523 1.795597
v 8.925308 2.743694 2.405803
v 8.925308 1.948665 2.405803
v 8.193124 1.329579 2.405804
v 8.193124 0.145523 2.405804
v 8.925308 1.948665 1.795597
v 8.193124 1.918096 1.795597
v 8.193124 1.378977 2.405804
v 8.210901 2.763449 1.795597
v 8.193124 2.763449 1.795597
v 8.193124 2.763449 2.405803
v 8.210901 2.763449 2.405803
v 8.193124 1.948665 1.795597
v 8.193124 1.378977 1.795597
v 8.193124 1.948665 2.405803
v 8.193124 1.918097 2.405803
v 8.017304 2.743694 1.795597
v 8.210901 1.948665 2.405803
v 8.210901 1.918097 2.405803
v 8.017304 1.378977 1.795597
v 8.017304 0.145523 1.795597
v 8.017304 1.329579 1.795597
v 8.948209 1.918096 2.405803
v 9.145189 1.378977 2.405804
v 9.145189 0.145523 2.405804
v 9.145189 0.145523 1.795597
v 8.017304 1.329579 2.405804
v 8.017304 1.378977 2.405804
v 9.123438 2.763449 2.405803
v 8.017304 0.145523 2.405804
v 7.997475 2.743694 2.405803
v 9.123438 2.763449 1.795597
v 9.145189 2.763449 1.795597
v 9.145189 2.763449 2.405803
v 8.017304 2.763449 2.405803
v 8.017304 2.763449 1.795597
v 7.997475 0.145523 2.405804
v 7.997475 0.145523 1.795597
v 9.123438 0.145523 2.405804
v 9.123438 1.329579 2.405804
v 9.123438 0.145523 1.795597
v 8.948209 1.378977 2.405804
v 9.123438 1.378977 2.405804
v 9.123438 1.378978 1.795597
v 8.948209 1.329579 2.405804
v 9.123438 1.329579 1.795597
v 8.948209 0.145523 1.795597
v 8.948209 1.329579 1.795597
v 8.925308 0.145523 1.795597
v 8.925308 2.763449 1.795597
v 8.948209 0.145523 2.405804
v 8.948209 2.763449 1.795597
v 8.925308 2.763449 2.405803
v 8.925308 1.378977 2.405804
v 7.997475 1.329579 2.405804
v 7.997475 1.378977 1.795597
v 9.145189 1.329579 1.795597
v 9.145189 1.378977 2.405804
v 8.210901 1.329579 2.405804
v 8.210901 1.378977 1.795597
v 8.925308 1.329579 1.795597
v 8.925308 1.378977 2.405804
v 9.145189 1.378977 2.405804
v 9.145189 1.378978 1.795597
v 9.145189 1.378977 2.405804
v 9.145189 2.743694 1.795597
v 9.145189 1.329579 2.405804
v 9.145189 1.329579 1.795597
v 9.145189 0.145523 1.795597
v 9.145189 1.329579 2.405804
v 7.997475 1.378977 2.405804
v 7.997475 1.378977 1.795597
v 7.997475 1.378977 2.405804
v 7.997475 2.743694 1.795597
v 7.997475 1.329579 2.405804
v 7.997475 1.329579 1.795597
v 7.997475 1.329579 2.405804
v 7.997475 0.145523 1.795597
v 8.210901 1.329579 2.405804
v 8.210901 1.329579 1.795597
v 8.210901 1.329579 2.405804
v 8.210901 0.145523 1.795597
v 8.925308 1.329579 1.795597
v 8.925308 1.329579 2.405804
v 8.925308 0.145523 1.795597
v 8.925308 1.329579 2.405804
v 8.017304 1.329579 2.405804
v 8.193124 1.329579 1.795597
v 8.193124 1.329579 2.405804
v 8.193124 1.329579 1.795597
v 8.193124 1.329579 2.405804
v 8.193124 0.145523 1.795597
v 8.193124 0.145523 1.795597
v 8.193124 0.145523 2.405804
v 8.210901 0.145523 2.405804
v 8.210901 0.145523 1.795597
v 8.193124 0.145523 1.795597
v 8.210901 0.145523 2.405804
v 8.193124 0.145523 2.405804
v 8.193124 1.329579 2.405804
v 8.210901 1.329579 2.405804
v 8.210901 0.145523 2.405804
v 8.193124 0.145523 2.405804
v 8.210901 1.329579 2.405804
v 8.193124 1.329579 2.405804
v 8.210901 1.378977 2.405804
v 8.210901 1.329579 2.405804
v 8.193124 1.329579 2.405804
v 8.210901 1.378977 2.405804
v 8.193124 2.763449 2.405803
v 8.210901 2.763449 1.795597
v 8.193124 1.378977 2.405804
v 8.017304 1.378977 1.795597
v 8.193124 1.378977 2.405804
v 8.017304 1.378977 2.405804
v 8.017304 1.378977 1.795597
v 8.017304 1.378977 2.405804
v 8.017304 2.743694 1.795597
v 8.017304 1.329579 2.405804
v 8.017304 1.329579 1.795597
v 8.017304 1.329579 2.405804
v 8.017304 0.145523 1.795597
v 8.017304 1.329579 2.405804
v 7.997475 1.329579 2.405804
v 7.997475 1.378977 2.405804
v 8.017304 1.378977 2.405804
v 8.017304 1.329579 2.405804
v 7.997475 1.378977 2.405804
v 8.017304 0.145523 2.405804
v 7.997475 0.145523 2.405804
v 7.997475 1.329579 2.405804
v 8.017304 1.329579 2.405804
v 8.017304 0.145523 2.405804
v 7.997475 1.329579 2.405804
v 8.017304 1.378977 2.405804
v 7.997475 1.378977 2.405804
v 7.997475 2.743694 2.405803
v 8.017304 2.743694 2.405803
v 8.017304 1.378977 2.405804
v 7.997475 2.743694 2.405803
v 8.017304 2.763449 2.405803
v 7.997475 2.763449 1.795597
v 8.017304 0.145523 1.795597
v 7.997475 0.145523 1.795597
v 7.997475 0.145523 2.405804
v 8.017304 0.145523 2.405804
v 8.017304 0.145523 1.795597
v 7.997475 0.145523 2.405804
v 9.123438 1.378977 2.405804
v 8.948209 1.378978 1.795597
v 8.948209 0.145523 1.795597
v 8.948209 1.329579 2.405804
v 8.948209 0.145523 2.405804
v 8.948209 0.145523 1.795597
v 8.925308 0.145523 1.795597
v 8.925308 0.145523 2.405804
v 8.948209 0.145523 2.405804
v 8.925308 0.145523 1.795597
v 8.948209 1.378977 2.405804
v 8.948209 1.329579 2.405804
v 8.925308 1.329579 2.405804
v 8.925308 1.378977 2.405804
v 8.948209 1.378977 2.405804
v 8.925308 1.329579 2.405804
v 8.948209 2.763449 1.795597
v 8.925308 2.763449 2.405803
v 8.948209 1.329579 2.405804
v 8.948209 0.145523 2.405804
v 8.925308 0.145523 2.405804
v 8.925308 1.329579 2.405804
v 8.948209 1.329579 2.405804
v 8.925308 0.145523 2.405804
v 8.948209 1.329579 1.795597
v 8.948209 1.329579 2.405804
v 9.123438 1.329579 1.795597
v 8.948209 1.329579 2.405804
v 9.123438 1.378977 2.405804
v 9.123438 1.378978 1.795597
v 9.123438 1.378977 2.405804
v 9.123438 2.743694 1.795597
v 9.123438 1.329579 1.795597
v 9.123438 1.329579 2.405804
v 9.123438 0.145523 1.795597
v 9.123438 1.329579 2.405804
v 9.123438 1.329579 2.405804
v 9.145189 1.329579 2.405804
v 9.145189 0.145523 2.405804
v 9.123438 0.145523 2.405804
v 9.123438 1.329579 2.405804
v 9.145189 0.145523 2.405804
v 9.123438 2.763449 1.795597
v 9.145189 2.763449 2.405803
v 9.123438 0.145523 2.405804
v 9.145189 0.145523 2.405804
v 9.145189 0.145523 1.795597
v 9.123438 0.145523 1.795597
v 9.123438 0.145523 2.405804
v 9.145189 0.145523 1.795597
v 9.123438 2.763449 2.405803
v 9.145189 2.763449 2.405803
v 9.145189 2.743694 2.405803
v 9.123438 2.743694 2.405803
v 9.123438 2.763449 2.405803
v 9.145189 2.743694 2.405803
v 9.123438 1.378977 2.405804
v 9.145189 1.378977 2.405804
v 9.145189 1.329579 2.405804
v 9.123438 1.329579 2.405804
v 9.123438 1.378977 2.405804
v 9.145189 1.329579 2.405804
v 8.948209 1.918096 2.405803
v 8.925308 1.948665 2.405803
v 8.948209 1.948665 2.405803
v 8.948209 1.918096 2.405803
v 8.948209 1.948665 2.405803
v 8.948209 1.918097 1.795597
v 8.925308 1.918096 2.405803
v 8.925308 1.918096 2.405803
v 8.210901 1.918096 1.795597
v 8.210901 1.918097 2.405803
v 8.193124 1.948665 2.405803
v 8.210901 1.918097 2.405803
v 8.193124 1.948665 2.405803
v 8.193124 1.918097 2.405803
v 8.193124 1.948665 1.795597
v 8.193124 1.918097 2.405803
v 8.925308 1.948665 2.405803
v 8.210901 1.948665 2.405803
v 8.925308 1.948665 1.795597
v 8.210901 1.948665 2.405803
v 8.925308 1.948665 2.405803
v 8.925308 1.948665 1.795597
v 8.925308 1.948665 2.405803
v 8.925308 2.743694 1.795597
v 8.925308 1.378977 2.405804
v 8.925308 1.378978 1.795597
v 8.925308 1.918097 1.795597
v 8.925308 1.918096 2.405803
v 8.925308 1.378977 2.405804
v 8.925308 1.918097 1.795597
v 8.948209 2.763449 2.405803
v 8.925308 2.743694 2.405803
v 8.925308 2.763449 2.405803
v 8.948209 2.763449 2.405803
v 8.925308 2.743694 2.405803
v 8.948209 1.918096 2.405803
v 8.948209 1.378977 2.405804
v 8.925308 1.378977 2.405804
v 8.925308 1.918096 2.405803
v 8.948209 1.918096 2.405803
v 8.925308 1.378977 2.405804
v 8.948209 1.948665 2.405803
v 8.948209 2.743694 2.405803
v 8.948209 1.948665 1.795597
v 8.948209 1.948665 2.405803
v 8.948209 2.743694 1.795597
v 8.948209 1.378977 2.405804
v 8.948209 1.918096 2.405803
v 8.948209 1.918097 1.795597
v 8.948209 1.378978 1.795597
v 8.948209 1.378977 2.405804
v 8.948209 1.918097 1.795597
v 8.210901 1.948665 2.405803
v 8.210901 1.948665 1.795597
v 8.210901 1.948665 2.405803
v 8.210901 2.743694 1.795597
v 8.210901 1.378977 2.405804
v 8.210901 1.918097 2.405803
v 8.210901 1.918096 1.795597
v 8.210901 1.378977 1.795597
v 8.210901 1.378977 2.405804
v 8.210901 1.918096 1.795597
v 8.193124 1.378977 2.405804
v 8.193124 1.918097 2.405803
v 8.210901 1.918097 2.405803
v 8.210901 1.378977 2.405804
v 8.193124 1.378977 2.405804
v 8.210901 1.918097 2.405803
v 8.193124 1.948665 2.405803
v 8.210901 2.743694 2.405803
v 8.210901 1.948665 2.405803
v 8.193124 1.948665 2.405803
v 8.210901 2.743694 2.405803
v 8.193124 1.948665 2.405803
v 8.193124 1.948665 1.795597
v 8.193124 2.743694 2.405803
v 8.193124 1.948665 2.405803
v 8.193124 2.743694 1.795597
v 8.193124 1.378977 2.405804
v 8.193124 1.378977 1.795597
v 8.193124 1.918096 1.795597
v 8.193124 1.918097 2.405803
v 8.193124 1.378977 2.405804
v 8.193124 1.918096 1.795597
v 9.123438 2.743694 1.795597
v 8.948209 2.743694 1.795597
v 8.948209 2.743694 2.405803
v 9.123438 2.743694 2.405803
v 9.123438 2.743694 1.795597
v 8.948209 2.743694 2.405803
v 8.948209 2.743694 2.405803
v 8.948209 1.948665 2.405803
v 8.925308 1.948665 2.405803
v 8.925308 2.743694 2.405803
v 8.948209 2.743694 2.405803
v 8.925308 1.948665 2.405803
v 8.925308 2.763449 1.795597
v 8.925308 2.763449 2.405803
v 8.210901 2.763449 2.405803
v 8.210901 2.763449 1.795597
v 8.925308 2.763449 1.795597
v 8.210901 2.763449 2.405803
v 9.123438 2.743694 2.405803
v 9.145189 2.743694 2.405803
v 9.145189 1.378977 2.405804
v 9.123438 1.378977 2.405804
v 9.123438 2.743694 2.405803
v 9.145189 1.378977 2.405804
v 9.123438 2.763449 2.405803
v 8.948209 2.763449 2.405803
v 8.948209 2.763449 1.795597
v 9.123438 2.763449 1.795597
v 9.123438 2.763449 2.405803
v 8.948209 2.763449 1.795597
v 9.145189 2.743694 2.405803
v 9.145189 2.763449 2.405803
v 9.145189 2.763449 1.795597
v 9.145189 2.743694 1.795597
v 9.145189 2.743694 2.405803
v 9.145189 2.763449 1.795597
v 8.017304 2.763449 2.405803
v 8.017304 2.763449 1.795597
v 8.193124 2.763449 1.795597
v 8.193124 2.763449 2.405803
v 8.017304 2.763449 2.405803
v 8.193124 2.763449 1.795597
v 8.193124 2.743694 2.405803
v 8.193124 2.763449 2.405803
v 8.210901 2.763449 2.405803
v 8.210901 2.743694 2.405803
v 8.193124 2.743694 2.405803
v 8.210901 2.763449 2.405803
v 8.210901 2.743694 1.795597
v 8.210901 2.743694 2.405803
v 8.925308 2.743694 2.405803
v 8.925308 2.743694 1.795597
v 8.210901 2.743694 1.795597
v 8.925308 2.743694 2.405803
v 8.017304 2.743694 2.405803
v 7.997475 2.743694 2.405803
v 7.997475 2.763449 2.405803
v 8.017304 2.763449 2.405803
v 8.017304 2.743694 2.405803
v 7.997475 2.763449 2.405803
v 8.017304 2.743694 2.405803
v 8.193124 2.743694 2.405803
v 8.193124 2.743694 1.795597
v 8.017304 2.743694 1.795597
v 8.017304 2.743694 2.405803
v 8.193124 2.743694 1.795597
v 7.997475 2.743694 2.405803
v 7.997475 2.743694 1.795597
v 7.997475 2.763449 1.795597
v 7.997475 2.763449 2.405803
v 7.997475 2.743694 2.405803
v 7.997475 2.763449 1.795597
vn -1.0000 -0.0000 -0.0000
vn -0.0000 -1.0000 -0.0000
vn -0.0000 -0.0000 1.0000
vn -0.0000 1.0000 -0.0000
vn 1.0000 -0.0000 -0.0000
vt 1.033691 -1.947205
vt -0.102457 -1.910400
vt -0.102457 -1.947205
vt 1.033691 -1.910400
vt -0.199772 -0.621368
vt -0.527130 0.514786
vt -0.527130 -0.621368
vt -0.199772 0.514786
vt -0.564056 -1.947205
vt -0.527130 -1.910400
vt -0.527130 -1.947205
vt -0.564056 -1.910400
vt 1.163483 0.514786
vt -0.166672 -0.621368
vt 1.163483 -0.621368
vt -0.166672 0.514786
vt -0.166672 -1.947205
vt -0.199772 -1.910400
vt -0.166672 -1.910400
vt -0.199772 -1.947205
vt 1.206146 -0.621368
vt 1.532410 0.514786
vt 1.532410 -0.621368
vt 1.206146 0.514786
vt 1.572906 0.630585
vt 1.532410 -1.910400
vt 1.532410 0.630585
vt 1.572906 -1.910400
vt 1.163483 -0.430115
vt 1.206146 -1.910400
vt 1.163483 -1.910400
vt 1.206146 -0.430115
vt 1.033691 -0.373199
vt -0.102457 0.630585
vt -0.102457 -0.373199
vt 1.033691 0.630585
vt -0.102457 -0.430115
vt 1.033691 -0.430115
vt -0.199772 -0.430115
vt -0.166672 -0.430115
vt -0.166672 -0.373199
vt -0.199772 0.630585
vt -0.166672 0.630585
vt -0.199772 -0.373199
vt 1.163483 0.630585
vt 1.206146 -0.373199
vt 1.163483 -0.373199
vt 1.206146 0.630585
vt 1.206146 -1.947205
vt 1.163483 -1.947205
vt 1.572906 0.722565
vt 1.532410 0.722565
vt 1.532410 -1.947205
vt 1.572906 -1.947205
vt 1.572906 -0.621368
vt 1.572906 0.514786
vt 1.572906 2.927185
vt 1.532410 2.927185
vt -0.102457 0.722565
vt 1.033691 2.927185
vt -0.102457 2.927185
vt 1.033691 0.722565
vt 1.163483 2.927185
vt 1.206146 0.722565
vt 1.163483 0.722565
vt 1.206146 2.927185
vt -0.564056 0.514786
vt -0.564056 -0.621368
vt -0.527130 0.630585
vt -0.564056 0.630585
vt -0.564056 0.722565
vt -0.527130 2.927185
vt -0.527130 0.722565
vt -0.564056 2.927185
vt -0.199772 0.722565
vt -0.166672 0.722565
vt -0.199772 2.927185
vt -0.166672 2.927185
s 0
usemtl Wood049
f 408/1/1 407/2/1 406/3/1
f 405/1/1 404/4/1 403/2/1
f 402/5/2 401/6/2 400/7/2
f 399/5/2 398/8/2 397/6/2
f 396/9/3 395/10/3 394/11/3
f 393/9/3 392/12/3 391/10/3
f 390/13/2 389/14/2 388/15/2
f 387/13/2 386/16/2 385/14/2
f 384/17/3 383/18/3 382/19/3
f 381/17/3 380/20/3 379/18/3
f 378/5/4 377/6/4 376/8/4
f 375/5/4 374/7/4 373/6/4
f 372/1/5 371/2/5 370/4/5
f 369/1/5 368/3/5 367/2/5
f 366/21/4 365/22/4 364/23/4
f 363/21/4 362/24/4 361/22/4
f 360/25/3 359/26/3 358/27/3
f 357/25/3 356/28/3 355/26/3
f 354/16/4 353/15/4 352/14/4
f 351/16/4 350/13/4 349/15/4
f 348/29/3 347/30/3 346/31/3
f 345/29/3 344/32/3 343/30/3
f 342/24/2 341/23/2 340/22/2
f 339/24/2 338/21/2 337/23/2
f 336/33/1 335/34/1 334/35/1
f 333/33/1 332/36/1 331/34/1
f 330/4/1 329/37/1 328/2/1
f 29/4/1 327/38/1 326/37/1
f 325/19/3 324/39/3 323/40/3
f 322/19/3 30/18/3 321/39/3
f 320/41/3 319/42/3 318/43/3
f 317/41/3 316/44/3 315/42/3
f 314/33/5 313/34/5 312/36/5
f 311/33/5 310/35/5 309/34/5
f 308/4/5 307/37/5 306/38/5
f 19/4/5 20/2/5 305/37/5
f 304/33/5 303/34/5 302/36/5
f 301/33/5 300/35/5 299/34/5
f 298/4/5 297/37/5 296/38/5
f 38/4/5 295/2/5 294/37/5
f 293/45/3 292/46/3 291/47/3
f 290/45/3 289/48/3 288/46/3
f 287/31/3 286/49/3 285/50/3
f 284/31/3 26/30/3 283/49/3
f 282/33/1 281/34/1 280/35/1
f 279/33/1 278/36/1 277/34/1
f 276/4/1 275/37/1 44/2/1
f 18/4/1 274/38/1 273/37/1
f 272/16/4 271/15/4 33/14/4
f 270/16/4 269/13/4 48/15/4
f 268/35/1 267/38/1 49/33/1
f 266/35/1 265/37/1 55/38/1
f 264/41/3 263/39/3 58/44/3
f 262/41/3 60/40/3 57/39/3
f 261/14/2 260/13/2 61/16/2
f 31/14/2 42/15/2 259/13/2
f 258/33/5 257/37/5 256/35/5
f 35/33/5 36/38/5 255/37/5
f 254/29/3 253/46/3 37/32/3
f 45/29/3 41/47/3 65/46/3
f 252/51/3 251/27/3 250/52/3
f 249/51/3 248/25/3 247/27/3
f 246/28/3 245/53/3 244/26/3
f 243/28/3 242/54/3 241/53/3
f 240/55/2 239/22/2 238/23/2
f 237/55/2 236/56/2 235/22/2
f 234/56/4 233/23/4 71/22/4
f 76/56/4 75/55/4 74/23/4
f 232/57/3 231/52/3 230/58/3
f 229/57/3 228/51/3 227/52/3
f 226/59/1 225/60/1 81/61/1
f 224/59/1 223/62/1 83/60/1
f 222/4/1 221/34/1 24/2/1
f 25/4/1 220/36/1 219/34/1
f 218/24/2 217/23/2 82/22/2
f 216/24/2 215/21/2 88/23/2
f 214/63/3 213/64/3 212/65/3
f 211/63/3 210/66/3 209/64/3
f 208/13/4 207/21/4 92/15/4
f 95/13/4 39/24/4 94/21/4
f 206/65/3 205/48/3 204/45/3
f 203/65/3 202/64/3 201/48/3
f 200/15/2 199/24/2 198/13/2
f 197/15/2 196/21/2 195/24/2
f 194/59/5 193/60/5 90/62/5
f 87/59/5 93/61/5 89/60/5
f 192/21/4 191/22/4 86/23/4
f 34/21/4 84/24/4 85/22/4
f 190/67/2 189/7/2 188/6/2
f 187/67/2 186/68/2 185/7/2
f 184/68/4 183/6/4 78/7/4
f 13/68/4 5/67/4 77/6/4
f 182/12/3 181/69/3 180/10/3
f 179/12/3 178/70/3 177/69/3
f 176/71/3 175/72/3 174/73/3
f 173/71/3 172/74/3 171/72/3
f 170/70/3 169/73/3 168/69/3
f 167/70/3 166/71/3 165/73/3
f 164/60/5 163/59/5 72/61/5
f 63/60/5 162/62/5 161/59/5
f 160/4/5 159/34/5 158/36/5
f 59/4/5 17/2/5 157/34/5
f 156/8/4 155/7/4 70/6/4
f 154/8/4 56/5/4 62/7/4
f 153/14/4 152/8/4 54/16/4
f 51/14/4 52/5/4 53/8/4
f 151/43/3 150/75/3 149/76/3
f 148/43/3 50/42/3 147/75/3
f 146/76/3 145/77/3 144/78/3
f 143/76/3 142/75/3 141/77/3
f 140/16/2 139/5/2 138/14/2
f 137/16/2 136/8/2 135/5/2
f 134/60/1 133/59/1 132/62/1
f 43/60/1 47/61/1 131/59/1
f 130/5/2 129/6/2 64/7/2
f 40/5/2 46/8/2 69/6/2
f 128/59/1 127/60/1 32/61/1
f 126/59/1 125/62/1 91/60/1
f 124/60/5 123/59/5 28/61/5
f 27/60/5 122/62/5 121/59/5
f 120/60/1 119/59/1 118/62/1
f 80/60/1 79/61/1 117/59/1
f 116/4/1 115/34/1 73/2/1
f 23/4/1 114/36/1 113/34/1
f 112/59/5 111/60/5 110/62/5
f 109/59/5 67/61/5 68/60/5
f 108/4/5 107/34/5 106/36/5
f 21/4/5 22/2/5 105/34/5
f 104/34/1 103/62/1 16/59/1
f 96/34/1 14/36/1 15/62/1
f 102/36/5 101/59/5 12/62/5
f 9/36/5 10/34/5 11/59/5
f 100/34/5 99/62/5 8/36/5
f 66/34/5 6/59/5 7/62/5
f 98/36/1 97/59/1 4/34/1
f 1/36/1 2/62/1 3/59/1
