# Blender 5.0.0
# www.blender.org
mtllib BathroomFurnitures_M_1_Mat3d66_1341339_11_7439_001_0.mtl
o BathroomFurnitures_M_1_Mat3d66_1341339_11_7439.001_0
v 7.378072 1.798883 1.703941
v 7.378072 1.798883 1.703478
v 7.340272 1.798883 1.703478
v 7.340272 1.798883 1.703941
v 7.340272 1.750099 1.703941
v 7.378072 1.750099 1.703941
v 7.340272 1.750099 1.703478
v 7.378072 1.750099 1.703478
v 7.340272 1.798883 1.703478
v 7.378072 1.798883 1.703941
v 7.378072 1.798883 1.703941
v 7.340272 1.798883 1.703941
v 7.378072 1.798883 1.703941
v 7.340272 1.750099 1.703941
v 7.378072 1.798883 1.703478
v 7.340272 1.798883 1.703478
v 7.340272 1.750099 1.703478
v 7.378072 1.798883 1.703478
v 7.378072 1.798883 1.703478
v 7.378072 1.750099 1.703478
v 7.378072 1.750099 1.703941
v 7.378072 1.798883 1.703941
v 7.378072 1.798883 1.703478
v 7.378072 1.750099 1.703941
v 7.378072 1.750099 1.703478
v 7.340272 1.750099 1.703478
v 7.340272 1.750099 1.703941
v 7.378072 1.750099 1.703941
v 7.378072 1.750099 1.703478
v 7.340272 1.750099 1.703941
v 7.340272 1.798883 1.703941
v 7.340272 1.750099 1.703941
v 7.340272 1.750099 1.703478
v 7.340272 1.798883 1.703478
v 7.340272 1.798883 1.703941
v 7.340272 1.750099 1.703478
vn -1.0000 -0.0000 -0.0000
vn -0.0000 -1.0000 -0.0000
vn 1.0000 -0.0000 -0.0000
vn 1.0000 -0.0000 0.0005
vn -0.0000 -0.0000 -1.0000
vn -0.0000 -0.0000 1.0000
vn -0.0000 1.0000 -0.0000
vt 0.000510 0.999500
vt 0.000510 0.000504
vt 0.000500 0.000504
vt 0.000500 0.999500
vt 0.291519 1.000032
vt 1.900513 0.980315
vt 1.900482 0.999969
vt 0.291519 0.980315
vt 0.999496 0.999500
vt 0.999496 0.000504
vt -1.900513 1.000032
vt -0.291527 0.980315
vt -0.291519 1.000032
vt -1.900513 0.980315
s 0
usemtl M_1_Mat3d66_1341339_11_7439.001
f 36/1/1 35/2/1 34/3/1
f 33/1/1 32/4/1 31/2/1
f 30/5/2 29/6/2 28/7/2
f 27/5/2 26/8/2 25/6/2
f 24/9/3 23/10/3 22/10/3
f 21/9/3 20/9/4 19/10/3
f 18/10/5 17/4/5 16/3/5
f 15/10/5 8/9/5 7/4/5
f 14/4/6 13/10/6 12/3/6
f 5/4/6 6/9/6 11/10/6
f 10/11/7 9/12/7 4/13/7
f 1/11/7 2/14/7 3/12/7
