# Blender 5.0.0
# www.blender.org
mtllib Circle_002_Circle_004_Dupli_32_decorations_0.mtl
o Circle.002|Circle.004|Dupli|32_decorations_0
v -4.498065 1.453838 0.416088
v -4.498941 1.454020 0.417176
v -4.498788 1.461827 0.416376
v -4.497539 1.461566 0.414824
v -4.495794 1.453689 0.417210
v -4.495321 1.459116 0.416786
v -4.495615 1.459253 0.418062
v -4.496109 1.453835 0.418575
v -4.497372 1.454018 0.419170
v -4.496796 1.459424 0.418618
v -4.497974 1.459501 0.418036
v -4.498632 1.454101 0.418547
v -4.495541 1.461356 0.414845
v -4.494299 1.461354 0.416425
v -4.496665 1.453690 0.416103
v -4.494748 1.461562 0.418372
v -4.494929 1.463019 0.417981
v -4.495333 1.464016 0.417489
v -4.496290 1.464155 0.417940
v -4.496395 1.463232 0.418672
v -4.498217 1.463235 0.416357
v -4.497479 1.464157 0.416428
v -4.496816 1.464018 0.415604
v -4.497200 1.463023 0.415094
v -4.498348 1.461942 0.418333
v -4.495754 1.463907 0.415616
v -4.495094 1.463906 0.416454
v -4.494564 1.462850 0.416397
v -4.497859 1.463328 0.417950
v -4.497245 1.464218 0.417468
v -4.495574 1.462852 0.415112
v -4.498263 1.459426 0.416754
v -4.498643 1.460332 0.416569
v -4.497561 1.460107 0.415226
v -4.497445 1.459255 0.415737
v -4.496550 1.461824 0.419221
v -4.495832 1.459924 0.415245
v -4.494757 1.459923 0.416611
v -4.496135 1.459117 0.415751
v -4.498261 1.460432 0.418263
v -4.495145 1.460103 0.418297
v -4.496705 1.460329 0.419032
v -4.496135 1.459117 0.415751
v -4.498065 1.453838 0.416088
v -4.495615 1.459253 0.418062
v -4.495794 1.453689 0.417210
v -4.497974 1.459501 0.418036
v -4.497372 1.454018 0.419170
v -4.497445 1.459255 0.415737
v -4.498065 1.453838 0.416088
v -4.497445 1.459255 0.415737
v -4.498941 1.454020 0.417176
v -4.495321 1.459116 0.416786
v -4.496135 1.459117 0.415751
v -4.496665 1.453690 0.416103
v -4.495794 1.453689 0.417210
v -4.495321 1.459116 0.416786
v -4.496665 1.453690 0.416103
v -4.496796 1.459424 0.418618
v -4.495615 1.459253 0.418062
v -4.496109 1.453835 0.418575
v -4.497372 1.454018 0.419170
v -4.496796 1.459424 0.418618
v -4.496109 1.453835 0.418575
v -4.498263 1.459426 0.416754
v -4.497974 1.459501 0.418036
v -4.498632 1.454101 0.418547
v -4.498941 1.454020 0.417176
v -4.498263 1.459426 0.416754
v -4.498632 1.454101 0.418547
v -4.496290 1.464155 0.417940
v -4.494929 1.463019 0.417981
v -4.496816 1.464018 0.415604
v -4.498217 1.463235 0.416357
v -4.495094 1.463906 0.416454
v -4.495574 1.462852 0.415112
v -4.497479 1.464157 0.416428
v -4.498217 1.463235 0.416357
v -4.497479 1.464157 0.416428
v -4.497859 1.463328 0.417950
v -4.495754 1.463907 0.415616
v -4.496816 1.464018 0.415604
v -4.497200 1.463023 0.415094
v -4.495574 1.462852 0.415112
v -4.495754 1.463907 0.415616
v -4.497200 1.463023 0.415094
v -4.495333 1.464016 0.417489
v -4.495094 1.463906 0.416454
v -4.494564 1.462850 0.416397
v -4.494929 1.463019 0.417981
v -4.495333 1.464016 0.417489
v -4.494564 1.462850 0.416397
v -4.498263 1.459426 0.416754
v -4.497445 1.459255 0.415737
v -4.497561 1.460107 0.415226
v -4.498263 1.459426 0.416754
v -4.496135 1.459117 0.415751
v -4.495321 1.459116 0.416786
v -4.494757 1.459923 0.416611
v -4.496135 1.459117 0.415751
v -4.495615 1.459253 0.418062
v -4.496796 1.459424 0.418618
v -4.496705 1.460329 0.419032
v -4.495615 1.459253 0.418062
v -4.498643 1.460332 0.416569
v -4.497974 1.459501 0.418036
v -4.498263 1.459426 0.416754
v -4.498643 1.460332 0.416569
v -4.497974 1.459501 0.418036
v -4.495832 1.459924 0.415245
v -4.497561 1.460107 0.415226
v -4.497445 1.459255 0.415737
v -4.496135 1.459117 0.415751
v -4.495832 1.459924 0.415245
v -4.497445 1.459255 0.415737
v -4.495145 1.460103 0.418297
v -4.494757 1.459923 0.416611
v -4.495321 1.459116 0.416786
v -4.495615 1.459253 0.418062
v -4.495145 1.460103 0.418297
v -4.495321 1.459116 0.416786
v -4.498261 1.460432 0.418263
v -4.496705 1.460329 0.419032
v -4.496796 1.459424 0.418618
v -4.497974 1.459501 0.418036
v -4.498261 1.460432 0.418263
v -4.496796 1.459424 0.418618
v -4.496705 1.460329 0.419032
v -4.498261 1.460432 0.418263
v -4.498348 1.461942 0.418333
v -4.496705 1.460329 0.419032
v -4.497859 1.463328 0.417950
v -4.496395 1.463232 0.418672
v -4.496550 1.461824 0.419221
v -4.498348 1.461942 0.418333
v -4.497859 1.463328 0.417950
v -4.496550 1.461824 0.419221
v -4.496550 1.461824 0.419221
v -4.495145 1.460103 0.418297
v -4.496705 1.460329 0.419032
v -4.496550 1.461824 0.419221
v -4.495145 1.460103 0.418297
v -4.496395 1.463232 0.418672
v -4.494929 1.463019 0.417981
v -4.494748 1.461562 0.418372
v -4.496550 1.461824 0.419221
v -4.496395 1.463232 0.418672
v -4.494748 1.461562 0.418372
v -4.494748 1.461562 0.418372
v -4.494757 1.459923 0.416611
v -4.495145 1.460103 0.418297
v -4.494748 1.461562 0.418372
v -4.494757 1.459923 0.416611
v -4.494929 1.463019 0.417981
v -4.494564 1.462850 0.416397
v -4.494299 1.461354 0.416425
v -4.494748 1.461562 0.418372
v -4.494929 1.463019 0.417981
v -4.494299 1.461354 0.416425
v -4.494299 1.461354 0.416425
v -4.495832 1.459924 0.415245
v -4.494757 1.459923 0.416611
v -4.494299 1.461354 0.416425
v -4.495832 1.459924 0.415245
v -4.494564 1.462850 0.416397
v -4.495574 1.462852 0.415112
v -4.495541 1.461356 0.414845
v -4.494299 1.461354 0.416425
v -4.494564 1.462850 0.416397
v -4.495541 1.461356 0.414845
v -4.495541 1.461356 0.414845
v -4.497561 1.460107 0.415226
v -4.495832 1.459924 0.415245
v -4.495541 1.461356 0.414845
v -4.497561 1.460107 0.415226
v -4.495574 1.462852 0.415112
v -4.497200 1.463023 0.415094
v -4.497539 1.461566 0.414824
v -4.495541 1.461356 0.414845
v -4.495574 1.462852 0.415112
v -4.497539 1.461566 0.414824
v -4.497539 1.461566 0.414824
v -4.498643 1.460332 0.416569
v -4.497561 1.460107 0.415226
v -4.497539 1.461566 0.414824
v -4.498643 1.460332 0.416569
v -4.497200 1.463023 0.415094
v -4.498217 1.463235 0.416357
v -4.498788 1.461827 0.416376
v -4.497539 1.461566 0.414824
v -4.497200 1.463023 0.415094
v -4.498788 1.461827 0.416376
v -4.498788 1.461827 0.416376
v -4.498348 1.461942 0.418333
v -4.498261 1.460432 0.418263
v -4.498643 1.460332 0.416569
v -4.498788 1.461827 0.416376
v -4.498261 1.460432 0.418263
v -4.498217 1.463235 0.416357
v -4.497859 1.463328 0.417950
v -4.498348 1.461942 0.418333
v -4.498788 1.461827 0.416376
v -4.498217 1.463235 0.416357
v -4.498348 1.461942 0.418333
v -4.497245 1.464218 0.417468
v -4.496290 1.464155 0.417940
v -4.496395 1.463232 0.418672
v -4.497859 1.463328 0.417950
v -4.497245 1.464218 0.417468
v -4.496395 1.463232 0.418672
v -4.495333 1.464016 0.417489
v -4.496290 1.464155 0.417940
v -4.495094 1.463906 0.416454
v -4.497245 1.464218 0.417468
v -4.495094 1.463906 0.416454
v -4.496290 1.464155 0.417940
v -4.495754 1.463907 0.415616
v -4.495094 1.463906 0.416454
v -4.497245 1.464218 0.417468
v -4.497479 1.464157 0.416428
v -4.495754 1.463907 0.415616
v -4.497245 1.464218 0.417468
v -4.496816 1.464018 0.415604
v -4.495754 1.463907 0.415616
v -4.497479 1.464157 0.416428
v -4.496109 1.453835 0.418575
v -4.495794 1.453689 0.417210
v -4.497372 1.454018 0.419170
v -4.498632 1.454101 0.418547
v -4.497372 1.454018 0.419170
v -4.495794 1.453689 0.417210
v -4.496665 1.453690 0.416103
v -4.498632 1.454101 0.418547
v -4.495794 1.453689 0.417210
v -4.498941 1.454020 0.417176
v -4.498632 1.454101 0.418547
v -4.496665 1.453690 0.416103
v -4.498065 1.453838 0.416088
v -4.498941 1.454020 0.417176
v -4.496665 1.453690 0.416103
vn -0.1054 -0.9911 0.0817
vn -0.4594 0.8658 -0.1985
vn 0.3314 0.7510 -0.5711
vn -0.1552 0.8023 -0.5764
vn -0.3521 0.8937 0.2782
vn 0.3314 0.7510 -0.5712
vn -0.4594 0.8658 -0.1984
vn -0.3522 0.8937 0.2781
vn 0.6340 0.7505 -0.1866
vn 0.0858 0.8649 0.4945
vn 0.0858 0.8650 0.4945
vn 0.5247 0.8012 0.2877
vn 0.0410 0.4797 0.8765
vn -0.3521 0.8937 0.2781
vn -0.6679 0.5263 0.5262
vn 0.0858 0.8650 0.4944
vn -0.7743 0.1707 0.6094
vn -0.8417 0.4810 -0.2454
vn -0.9644 0.1213 -0.2352
vn -0.7742 0.1707 0.6094
vn -0.6680 0.5262 0.5262
vn -0.8416 0.4811 -0.2454
vn -0.7687 -0.2089 0.6046
vn -0.9478 -0.2554 -0.1911
vn -0.3492 0.3783 -0.8573
vn -0.4253 0.0088 -0.9050
vn -0.8416 0.4810 -0.2454
vn -0.9477 -0.2554 -0.1911
vn -0.4400 -0.3614 -0.8221
vn -0.4253 0.0087 -0.9050
vn 0.4386 0.2952 -0.8488
vn 0.4370 -0.0822 -0.8957
vn -0.3492 0.3782 -0.8573
vn -0.4399 -0.3615 -0.8221
vn 0.3724 -0.4470 -0.8133
vn 0.4371 -0.0822 -0.8957
vn 0.9285 0.2944 -0.2262
vn 0.9733 -0.0830 -0.2142
vn 0.9285 0.2945 -0.2263
vn 0.3724 -0.4471 -0.8133
vn 0.9732 -0.0830 -0.2142
vn 0.8776 -0.4478 -0.1714
vn 0.9732 -0.0829 -0.2143
vn 0.7516 0.3766 0.5415
vn 0.7796 0.0069 0.6263
vn 0.8775 -0.4479 -0.1713
vn 0.6951 -0.3631 0.6204
vn 0.0411 0.4797 0.8765
vn 0.0019 0.1198 0.9928
vn 0.7516 0.3766 0.5416
vn 0.0411 0.4798 0.8764
vn 0.6951 -0.3632 0.6205
vn -0.0375 -0.2567 0.9658
vn 0.0018 0.1198 0.9928
vn 0.0019 0.1199 0.9928
vn -0.0375 -0.2568 0.9657
vn -0.7687 -0.2088 0.6046
vn -0.0296 -0.1793 0.9834
vn -0.7793 -0.1302 0.6130
vn -0.0296 -0.1793 0.9833
vn 0.9088 -0.3752 -0.1826
vn 0.7217 -0.2884 0.6293
vn -0.4422 -0.2866 -0.8499
vn 0.3908 -0.3744 -0.8409
vn -0.4399 -0.3614 -0.8221
vn -0.7793 -0.1301 0.6130
vn -0.9629 -0.1779 -0.2028
vn 0.7217 -0.2883 0.6293
vn 0.8775 -0.4478 -0.1714
vn 0.3725 -0.4471 -0.8133
vn -0.9629 -0.1779 -0.2029
vn 0.5247 0.8012 0.2876
vn 0.6339 0.7505 -0.1866
vn -0.3491 0.3783 -0.8573
vn -0.1553 0.8023 -0.5764
vn -0.1552 0.8022 -0.5765
vn 0.0411 0.4797 0.8764
vn -0.7766 0.1525 0.6112
vn -0.9668 0.1030 -0.2338
vn 0.7780 -0.0114 0.6281
vn -0.0000 0.1016 0.9948
vn 0.4354 -0.1006 -0.8946
vn 0.9718 -0.1013 -0.2129
vn 0.4354 -0.1005 -0.8946
vn -0.4275 -0.0096 -0.9040
vn -0.0001 0.1015 0.9948
vn -0.7766 0.1525 0.6113
vn -0.0001 0.1016 0.9948
vn 0.9718 -0.1014 -0.2128
vn 0.9718 -0.1013 -0.2128
vn 0.4353 -0.1005 -0.8946
vt 0.530319 0.635056
vt 0.522446 0.641335
vt 0.524872 0.636299
vt 0.524872 0.646370
vt 0.534683 0.638535
vt 0.530319 0.647614
vt 0.534683 0.644127
vt 0.508789 0.671494
vt 0.513626 0.669548
vt 0.511276 0.672157
vt 0.507889 0.669609
vt 0.511566 0.666756
vt 0.507935 0.667854
vt 0.509277 0.666748
vt 0.506302 0.666855
vt 0.505722 0.669838
vt 0.502487 0.669685
vt 0.506897 0.673050
vt 0.503479 0.674789
vt 0.497520 0.669067
vt 0.497810 0.676537
vt 0.510727 0.675606
vt 0.507721 0.680244
vt 0.501465 0.684982
vt 0.518890 0.674767
vt 0.518692 0.686485
vt 0.509125 0.696274
vt 0.518890 0.658051
vt 0.512238 0.663902
vt 0.511536 0.659698
vt 0.517990 0.665543
vt 0.515472 0.651657
vt 0.509323 0.655174
vt 0.508469 0.664742
vt 0.506836 0.661980
vt 0.504074 0.658463
vt 0.503784 0.665283
vt 0.499901 0.662933
vt 0.495453 0.660286
vt 0.491707 0.668175
vt 0.506927 0.651588
vt 0.501038 0.654999
vt 0.494583 0.688484
vt 0.500031 0.699394
vt 0.491287 0.678001
vt 0.512177 0.648293
vt 0.627350 0.642853
vt 0.649124 0.647896
vt 0.627441 0.648445
vt 0.649033 0.642670
vt 0.627441 0.631676
vt 0.649033 0.637444
vt 0.627350 0.637268
vt 0.649124 0.632225
vt 0.627914 0.620506
vt 0.649292 0.626999
vt 0.627625 0.626091
vt 0.649551 0.621780
vt 0.649292 0.653114
vt 0.627625 0.654030
vt 0.649551 0.658333
vt 0.627914 0.659607
s 0
usemtl decorations
f 240/1/1 239/2/1 238/3/1
f 237/1/1 236/4/1 235/2/1
f 234/5/1 233/4/1 232/1/1
f 231/5/1 230/6/1 229/4/1
f 228/6/1 227/5/1 226/7/1
s 1
f 225/8/2 224/9/3 223/10/4
f 222/11/5 221/9/6 220/8/7
f 219/11/8 218/12/9 217/9/6
f 216/13/10 215/12/9 214/11/8
f 213/12/9 212/13/11 211/14/12
f 210/15/13 209/11/14 208/16/15
f 207/15/13 206/13/16 205/11/14
f 204/17/17 203/18/18 202/19/19
f 201/17/20 200/16/21 199/18/22
f 198/20/23 197/19/19 196/21/24
f 195/20/23 194/17/20 193/19/19
f 192/19/19 191/22/25 190/23/26
f 189/19/19 188/18/27 187/22/25
f 186/21/28 185/23/26 184/24/29
f 183/21/24 3/19/19 182/23/26
f 181/23/30 180/25/31 179/26/32
f 178/23/26 177/22/33 176/25/31
f 175/24/34 174/26/32 173/27/35
f 172/24/34 4/23/30 171/26/32
f 170/28/36 169/29/37 168/30/38
f 167/28/36 166/31/31 165/29/39
f 164/32/40 163/30/41 162/33/42
f 161/32/40 13/28/36 160/30/43
f 159/30/38 158/34/44 157/35/45
f 156/30/38 155/29/37 154/34/44
f 153/33/46 152/35/45 151/36/47
f 150/33/46 14/30/38 149/35/45
f 148/35/45 147/15/48 146/37/49
f 145/35/45 144/34/50 143/15/51
f 142/36/52 141/37/49 140/38/53
f 139/36/52 16/35/45 138/37/49
f 137/37/54 136/16/21 135/17/17
f 134/37/55 133/15/48 132/16/15
f 131/38/56 130/17/17 129/20/57
f 128/38/56 36/37/49 25/17/17
f 127/39/58 126/20/57 125/40/59
f 124/39/60 123/38/56 122/20/57
f 121/41/61 120/36/47 119/42/62
f 118/41/61 117/33/46 116/36/47
f 115/43/63 114/27/35 113/44/64
f 112/43/63 111/24/65 110/27/35
f 109/40/66 108/21/24 107/45/67
f 106/40/66 40/20/23 105/21/24
f 104/42/68 103/38/56 102/39/60
f 101/42/62 41/36/47 42/38/56
f 100/46/64 99/33/69 98/41/61
f 97/46/64 37/32/70 38/33/69
f 96/45/71 95/24/29 94/43/63
f 93/45/67 33/21/24 34/24/29
f 92/29/37 91/14/72 90/34/50
f 89/29/37 88/12/73 87/14/12
f 86/22/74 85/9/6 84/25/31
f 83/22/74 82/10/75 81/9/6
f 80/16/21 79/8/2 78/18/22
f 29/16/21 30/11/5 77/8/2
f 76/31/31 75/12/9 28/29/39
f 31/31/31 26/9/3 27/12/73
f 74/18/18 73/10/76 24/22/25
f 21/18/18 22/8/2 23/10/75
f 72/34/50 71/13/11 20/15/77
f 17/34/50 18/14/12 19/13/16
f 70/47/78 69/48/67 68/49/79
f 67/47/78 66/50/59 65/48/67
f 64/51/80 63/52/58 62/53/81
f 61/51/80 60/54/62 59/52/60
f 58/55/82 57/56/61 56/57/83
f 55/55/84 54/58/64 53/56/61
f 52/49/79 51/59/63 50/60/85
f 2/49/79 32/48/67 49/59/63
f 48/53/86 47/50/66 12/47/87
f 9/53/88 10/52/58 11/50/66
f 46/57/89 45/54/68 8/51/80
f 5/57/90 6/56/61 7/54/62
f 44/60/85 43/61/64 15/62/91
f 1/60/85 35/59/63 39/61/64
