# Blender 5.0.0
# www.blender.org
mtllib Circle_005_Circle_003_Dupli_89_decorations_0.mtl
o Circle.005|Circle.003|Dupli|89_decorations_0
v -4.376804 0.868025 0.916083
v -4.378095 0.868224 0.916610
v -4.376467 0.875641 0.918595
v -4.374626 0.875357 0.917843
v -4.375550 0.866996 0.918034
v -4.374186 0.872020 0.919697
v -4.375103 0.871968 0.920641
v -4.376531 0.866941 0.919043
v -4.377876 0.867355 0.918984
v -4.376359 0.872355 0.920585
v -4.377010 0.872889 0.919573
v -4.378572 0.867926 0.917901
v -4.373010 0.874577 0.918748
v -4.372836 0.873890 0.920627
v -4.375672 0.867478 0.916716
v -4.374236 0.873811 0.922067
v -4.373975 0.875307 0.922141
v -4.373906 0.876457 0.921873
v -4.374925 0.876770 0.921829
v -4.375536 0.875787 0.922072
v -4.375791 0.876796 0.919316
v -4.375092 0.877429 0.920030
v -4.374114 0.877278 0.919630
v -4.374292 0.876565 0.918704
v -4.377147 0.875216 0.920437
v -4.373255 0.876864 0.920111
v -4.373163 0.876498 0.921109
v -4.372836 0.875370 0.920969
v -4.376344 0.876450 0.920815
v -4.375453 0.877203 0.921008
v -4.372977 0.875930 0.919440
v -4.376565 0.873167 0.918366
v -4.376656 0.874162 0.918331
v -4.375062 0.873916 0.917681
v -4.375358 0.872981 0.917873
v -4.376154 0.874402 0.921982
v -4.373663 0.873241 0.918463
v -4.373513 0.872646 0.920090
v -4.374300 0.872470 0.918466
v -4.377244 0.873794 0.919926
v -4.374724 0.872578 0.921337
v -4.376385 0.873089 0.921263
v -4.374300 0.872470 0.918466
v -4.376804 0.868025 0.916083
v -4.375103 0.871968 0.920641
v -4.375550 0.866996 0.918034
v -4.377010 0.872889 0.919573
v -4.377876 0.867355 0.918984
v -4.375358 0.872981 0.917873
v -4.376804 0.868025 0.916083
v -4.375358 0.872981 0.917873
v -4.378095 0.868224 0.916610
v -4.374186 0.872020 0.919697
v -4.374300 0.872470 0.918466
v -4.375672 0.867478 0.916716
v -4.375550 0.866996 0.918034
v -4.374186 0.872020 0.919697
v -4.375672 0.867478 0.916716
v -4.376359 0.872355 0.920585
v -4.375103 0.871968 0.920641
v -4.376531 0.866941 0.919043
v -4.377876 0.867355 0.918984
v -4.376359 0.872355 0.920585
v -4.376531 0.866941 0.919043
v -4.376565 0.873167 0.918366
v -4.377010 0.872889 0.919573
v -4.378572 0.867926 0.917901
v -4.378095 0.868224 0.916610
v -4.376565 0.873167 0.918366
v -4.378572 0.867926 0.917901
v -4.374925 0.876770 0.921829
v -4.373975 0.875307 0.922141
v -4.374114 0.877278 0.919630
v -4.375791 0.876796 0.919316
v -4.373163 0.876498 0.921109
v -4.372977 0.875930 0.919440
v -4.375092 0.877429 0.920030
v -4.375791 0.876796 0.919316
v -4.375092 0.877429 0.920030
v -4.376344 0.876450 0.920815
v -4.373255 0.876864 0.920111
v -4.374114 0.877278 0.919630
v -4.374292 0.876565 0.918704
v -4.372977 0.875930 0.919440
v -4.373255 0.876864 0.920111
v -4.374292 0.876565 0.918704
v -4.373906 0.876457 0.921873
v -4.373163 0.876498 0.921109
v -4.372836 0.875370 0.920969
v -4.373975 0.875307 0.922141
v -4.373906 0.876457 0.921873
v -4.372836 0.875370 0.920969
v -4.376565 0.873167 0.918366
v -4.375358 0.872981 0.917873
v -4.375062 0.873916 0.917681
v -4.376565 0.873167 0.918366
v -4.374300 0.872470 0.918466
v -4.374186 0.872020 0.919697
v -4.373513 0.872646 0.920090
v -4.374300 0.872470 0.918466
v -4.375103 0.871968 0.920641
v -4.376359 0.872355 0.920585
v -4.376385 0.873089 0.921263
v -4.375103 0.871968 0.920641
v -4.376656 0.874162 0.918331
v -4.377010 0.872889 0.919573
v -4.376565 0.873167 0.918366
v -4.376656 0.874162 0.918331
v -4.377010 0.872889 0.919573
v -4.373663 0.873241 0.918463
v -4.375062 0.873916 0.917681
v -4.375358 0.872981 0.917873
v -4.374300 0.872470 0.918466
v -4.373663 0.873241 0.918463
v -4.375358 0.872981 0.917873
v -4.374724 0.872578 0.921337
v -4.373513 0.872646 0.920090
v -4.374186 0.872020 0.919697
v -4.375103 0.871968 0.920641
v -4.374724 0.872578 0.921337
v -4.374186 0.872020 0.919697
v -4.377244 0.873794 0.919926
v -4.376385 0.873089 0.921263
v -4.376359 0.872355 0.920585
v -4.377010 0.872889 0.919573
v -4.377244 0.873794 0.919926
v -4.376359 0.872355 0.920585
v -4.376385 0.873089 0.921263
v -4.377244 0.873794 0.919926
v -4.377147 0.875216 0.920437
v -4.376385 0.873089 0.921263
v -4.376344 0.876450 0.920815
v -4.375536 0.875787 0.922072
v -4.376154 0.874402 0.921982
v -4.377147 0.875216 0.920437
v -4.376344 0.876450 0.920815
v -4.376154 0.874402 0.921982
v -4.376154 0.874402 0.921982
v -4.374724 0.872578 0.921337
v -4.376385 0.873089 0.921263
v -4.376154 0.874402 0.921982
v -4.374724 0.872578 0.921337
v -4.375536 0.875787 0.922072
v -4.373975 0.875307 0.922141
v -4.374236 0.873811 0.922067
v -4.376154 0.874402 0.921982
v -4.375536 0.875787 0.922072
v -4.374236 0.873811 0.922067
v -4.374236 0.873811 0.922067
v -4.373513 0.872646 0.920090
v -4.374724 0.872578 0.921337
v -4.374236 0.873811 0.922067
v -4.373513 0.872646 0.920090
v -4.373975 0.875307 0.922141
v -4.372836 0.875370 0.920969
v -4.372836 0.873890 0.920627
v -4.374236 0.873811 0.922067
v -4.373975 0.875307 0.922141
v -4.372836 0.873890 0.920627
v -4.372836 0.873890 0.920627
v -4.373663 0.873241 0.918463
v -4.373513 0.872646 0.920090
v -4.372836 0.873890 0.920627
v -4.373663 0.873241 0.918463
v -4.372836 0.875370 0.920969
v -4.372977 0.875930 0.919440
v -4.373010 0.874577 0.918748
v -4.372836 0.873890 0.920627
v -4.372836 0.875370 0.920969
v -4.373010 0.874577 0.918748
v -4.373010 0.874577 0.918748
v -4.375062 0.873916 0.917681
v -4.373663 0.873241 0.918463
v -4.373010 0.874577 0.918748
v -4.375062 0.873916 0.917681
v -4.372977 0.875930 0.919440
v -4.374292 0.876565 0.918704
v -4.374626 0.875357 0.917843
v -4.373010 0.874577 0.918748
v -4.372977 0.875930 0.919440
v -4.374626 0.875357 0.917843
v -4.374626 0.875357 0.917843
v -4.376656 0.874162 0.918331
v -4.375062 0.873916 0.917681
v -4.374626 0.875357 0.917843
v -4.376656 0.874162 0.918331
v -4.374292 0.876565 0.918704
v -4.375791 0.876796 0.919316
v -4.376467 0.875641 0.918595
v -4.374626 0.875357 0.917843
v -4.374292 0.876565 0.918704
v -4.376467 0.875641 0.918595
v -4.376467 0.875641 0.918595
v -4.377147 0.875216 0.920437
v -4.377244 0.873794 0.919926
v -4.376656 0.874162 0.918331
v -4.376467 0.875641 0.918595
v -4.377244 0.873794 0.919926
v -4.375791 0.876796 0.919316
v -4.376344 0.876450 0.920815
v -4.377147 0.875216 0.920437
v -4.376467 0.875641 0.918595
v -4.375791 0.876796 0.919316
v -4.377147 0.875216 0.920437
v -4.375453 0.877203 0.921008
v -4.374925 0.876770 0.921829
v -4.375536 0.875787 0.922072
v -4.376344 0.876450 0.920815
v -4.375453 0.877203 0.921008
v -4.375536 0.875787 0.922072
v -4.373906 0.876457 0.921873
v -4.374925 0.876770 0.921829
v -4.373163 0.876498 0.921109
v -4.375453 0.877203 0.921008
v -4.373163 0.876498 0.921109
v -4.374925 0.876770 0.921829
v -4.373255 0.876864 0.920111
v -4.373163 0.876498 0.921109
v -4.375453 0.877203 0.921008
v -4.375092 0.877429 0.920030
v -4.373255 0.876864 0.920111
v -4.375453 0.877203 0.921008
v -4.374114 0.877278 0.919630
v -4.373255 0.876864 0.920111
v -4.375092 0.877429 0.920030
v -4.376531 0.866941 0.919043
v -4.375550 0.866996 0.918034
v -4.377876 0.867355 0.918984
v -4.378572 0.867926 0.917901
v -4.377876 0.867355 0.918984
v -4.375550 0.866996 0.918034
v -4.375672 0.867478 0.916716
v -4.378572 0.867926 0.917901
v -4.375550 0.866996 0.918034
v -4.378095 0.868224 0.916610
v -4.378572 0.867926 0.917901
v -4.375672 0.867478 0.916716
v -4.376804 0.868025 0.916083
v -4.378095 0.868224 0.916610
v -4.375672 0.867478 0.916716
vn -0.2672 -0.9126 -0.3093
vn -0.1548 0.9832 -0.0971
vn 0.6871 0.7240 -0.0599
vn 0.2936 0.9139 -0.2802
vn -0.3205 0.8796 0.3516
vn 0.6871 0.7241 -0.0600
vn -0.1549 0.9832 -0.0971
vn -0.3205 0.8796 0.3515
vn 0.7294 0.5565 0.3978
vn -0.0787 0.6812 0.7278
vn 0.7294 0.5565 0.3979
vn -0.0787 0.6813 0.7278
vn 0.3886 0.5375 0.7484
vn -0.3756 0.2552 0.8910
vn -0.7671 0.5763 0.2818
vn -0.0786 0.6813 0.7278
vn -0.9490 0.2575 0.1819
vn -0.4989 0.7439 -0.4445
vn -0.6554 0.4411 -0.6131
vn -0.9490 0.2576 0.1820
vn -0.4989 0.7440 -0.4445
vn -0.9936 -0.0978 0.0560
vn -0.7171 0.0752 -0.6929
vn -0.6554 0.4412 -0.6131
vn 0.2271 0.6319 -0.7410
vn 0.1393 0.3185 -0.9376
vn -0.4989 0.7439 -0.4446
vn -0.7170 0.0751 -0.6930
vn 0.0316 -0.0404 -0.9987
vn 0.8642 0.3245 -0.3845
vn 0.8367 -0.0180 -0.5473
vn 0.6886 -0.3574 -0.6310
vn 0.8367 -0.0181 -0.5473
vn 0.9327 0.0532 0.3567
vn 0.9117 -0.3149 0.2639
vn 0.8642 0.3245 -0.3844
vn 0.9327 0.0533 0.3567
vn 0.6886 -0.3574 -0.6309
vn 0.9117 -0.3150 0.2639
vn 0.7592 -0.6371 0.1333
vn 0.3810 0.0224 0.9243
vn 0.3077 -0.3487 0.8853
vn 0.1902 -0.6689 0.7186
vn -0.3755 0.2551 0.8910
vn -0.5204 -0.0939 0.8488
vn 0.3809 0.0224 0.9243
vn -0.3755 0.2552 0.8910
vn -0.5898 -0.4289 0.6842
vn -0.5204 -0.0939 0.8487
vn -0.9490 0.2576 0.1819
vn -0.5203 -0.0939 0.8488
vn -0.5899 -0.4289 0.6842
vn -0.9936 -0.0977 0.0560
vn -0.5822 -0.3624 0.7278
vn -0.9962 -0.0229 0.0836
vn 0.8011 -0.5759 0.1629
vn 0.2177 -0.6086 0.7631
vn 0.7592 -0.6371 0.1332
vn 0.0551 0.0359 -0.9978
vn 0.7287 -0.2891 -0.6208
vn 0.0550 0.0359 -0.9978
vn -0.9962 -0.0228 0.0837
vn -0.7127 0.1544 -0.6843
vn -0.9962 -0.0229 0.0837
vn 0.2177 -0.6085 0.7631
vn -0.7126 0.1544 -0.6843
vn 0.3885 0.5374 0.7485
vn 0.2935 0.9139 -0.2803
vn -0.7671 0.5763 0.2817
vn -0.7672 0.5763 0.2817
vn 0.2936 0.9139 -0.2803
vn 0.2935 0.9139 -0.2802
vn -0.9544 0.2408 0.1763
vn -0.6607 0.4245 -0.6191
vn -0.9544 0.2409 0.1763
vn 0.3029 -0.3658 0.8800
vn -0.5255 -0.1108 0.8435
vn 0.3029 -0.3657 0.8801
vn 0.8323 -0.0349 -0.5533
vn 0.9072 -0.3320 0.2583
vn -0.6607 0.4245 -0.6192
vn 0.0550 0.0360 -0.9978
vn 0.1344 0.3018 -0.9439
vn -0.5256 -0.1108 0.8435
vn -0.9962 -0.0228 0.0836
vn 0.9072 -0.3319 0.2584
vn 0.1344 0.3017 -0.9439
vn 0.8322 -0.0349 -0.5533
vn 0.1344 0.3018 -0.9438
vt 0.530319 0.611839
vt 0.522446 0.618118
vt 0.524872 0.613083
vt 0.524872 0.623154
vt 0.534683 0.615326
vt 0.530319 0.624397
vt 0.534683 0.620918
vt 0.537079 0.671494
vt 0.541916 0.669548
vt 0.539566 0.672157
vt 0.536179 0.669609
vt 0.539856 0.666756
vt 0.536224 0.667854
vt 0.537567 0.666748
vt 0.534592 0.666855
vt 0.534012 0.669838
vt 0.530777 0.669685
vt 0.535187 0.673050
vt 0.531769 0.674789
vt 0.525803 0.669067
vt 0.526108 0.676537
vt 0.539017 0.675606
vt 0.536011 0.680244
vt 0.529755 0.684982
vt 0.547180 0.674767
vt 0.546982 0.686485
vt 0.537415 0.696274
vt 0.547180 0.658051
vt 0.540527 0.663902
vt 0.539825 0.659698
vt 0.546280 0.665543
vt 0.543762 0.651657
vt 0.537613 0.655174
vt 0.536758 0.664742
vt 0.535126 0.661980
vt 0.532364 0.658463
vt 0.532074 0.665283
vt 0.528198 0.662933
vt 0.523743 0.660286
vt 0.519989 0.668175
vt 0.535217 0.651588
vt 0.529327 0.654999
vt 0.522873 0.688484
vt 0.528320 0.699394
vt 0.519577 0.678001
vt 0.540466 0.648293
vt 0.604446 0.642853
vt 0.626221 0.647896
vt 0.604553 0.648445
vt 0.626144 0.642670
vt 0.604553 0.631676
vt 0.626144 0.637444
vt 0.604446 0.637268
vt 0.626221 0.632225
vt 0.605011 0.620506
vt 0.626404 0.626999
vt 0.604736 0.626091
vt 0.626663 0.621780
vt 0.626404 0.653114
vt 0.604736 0.654030
vt 0.626663 0.658333
vt 0.605011 0.659607
s 0
usemtl decorations
f 240/1/1 239/2/1 238/3/1
f 237/1/1 236/4/1 235/2/1
f 234/5/1 233/4/1 232/1/1
f 231/5/1 230/6/1 229/4/1
f 228/6/1 227/5/1 226/7/1
s 1
f 225/8/2 224/9/3 223/10/4
f 222/11/5 221/9/6 220/8/7
f 219/11/8 218/12/9 217/9/3
f 216/13/10 215/12/9 214/11/8
f 213/12/11 212/13/12 211/14/13
f 210/15/14 209/11/8 208/16/15
f 207/15/14 206/13/16 205/11/8
f 204/17/17 203/18/18 202/19/19
f 201/17/20 200/16/15 199/18/21
f 198/20/22 197/19/19 196/21/23
f 195/20/22 194/17/20 193/19/24
f 192/19/19 191/22/25 190/23/26
f 189/19/19 188/18/27 187/22/25
f 186/21/28 185/23/26 184/24/29
f 183/21/28 3/19/19 182/23/26
f 181/23/26 180/25/30 179/26/31
f 178/23/26 177/22/25 176/25/30
f 175/24/29 174/26/31 173/27/32
f 172/24/29 4/23/26 171/26/31
f 170/28/33 169/29/34 168/30/35
f 167/28/33 166/31/36 165/29/37
f 164/32/38 163/30/39 162/33/40
f 161/32/38 13/28/31 160/30/35
f 159/30/35 158/34/41 157/35/42
f 156/30/35 155/29/34 154/34/41
f 153/33/40 152/35/42 151/36/43
f 150/33/40 14/30/35 149/35/42
f 148/35/42 147/15/44 146/37/45
f 145/35/42 144/34/46 143/15/47
f 142/36/43 141/37/45 140/38/48
f 139/36/43 16/35/42 138/37/45
f 137/37/49 136/16/15 135/17/50
f 134/37/51 133/15/14 132/16/15
f 131/38/52 130/17/50 129/20/53
f 128/38/52 36/37/51 25/17/50
f 127/39/54 126/20/53 125/40/55
f 124/39/54 123/38/52 122/20/53
f 121/41/56 120/36/43 119/42/57
f 118/41/56 117/33/58 116/36/43
f 115/43/59 114/27/32 113/44/60
f 112/43/61 111/24/29 110/27/32
f 109/40/62 108/21/23 107/45/63
f 106/40/64 40/20/22 105/21/23
f 104/42/65 103/38/48 102/39/54
f 101/42/65 41/36/43 42/38/48
f 100/46/60 99/33/58 98/41/56
f 97/46/60 37/32/38 38/33/58
f 96/45/66 95/24/29 94/43/61
f 93/45/66 33/21/23 34/24/29
f 92/29/34 91/14/13 90/34/41
f 89/29/34 88/12/9 87/14/67
f 86/22/25 85/9/6 84/25/30
f 83/22/25 82/10/68 81/9/6
f 80/16/69 79/8/2 78/18/21
f 29/16/70 30/11/5 77/8/2
f 76/31/36 75/12/9 28/29/37
f 31/31/36 26/9/6 27/12/9
f 74/18/27 73/10/71 24/22/25
f 21/18/27 22/8/2 23/10/72
f 72/34/46 71/13/12 20/15/14
f 17/34/46 18/14/13 19/13/16
f 70/47/73 69/48/66 68/49/74
f 67/47/75 66/50/64 65/48/63
f 64/51/76 63/52/54 62/53/77
f 61/51/78 60/54/65 59/52/54
f 58/55/79 57/56/56 56/57/80
f 55/55/79 54/58/60 53/56/56
f 52/49/81 51/59/82 50/60/83
f 2/49/74 32/48/66 49/59/61
f 48/53/84 47/50/85 12/47/73
f 9/53/84 10/52/54 11/50/55
f 46/57/80 45/54/65 8/51/76
f 5/57/86 6/56/56 7/54/57
f 44/60/87 43/61/60 15/62/88
f 1/60/89 35/59/61 39/61/60
