# Blender 5.0.0
# www.blender.org
mtllib Circle_002_Circle_003_Dupli_41_decorations_0.mtl
o Circle.002|Circle.003|Dupli|41_decorations_0
v -4.296456 2.001516 0.582723
v -4.297827 2.001440 0.582408
v -4.298686 2.009224 0.582930
v -4.296731 2.009332 0.583380
v -4.296432 2.001130 0.585231
v -4.296987 2.006514 0.585981
v -4.298262 2.006355 0.586265
v -4.297796 2.000959 0.585535
v -4.298902 2.000993 0.584663
v -4.299295 2.006387 0.585450
v -4.299308 2.006587 0.584148
v -4.298915 2.001208 0.583271
v -4.295845 2.009135 0.585172
v -4.296696 2.008782 0.586958
v -4.295835 2.001378 0.583979
v -4.298642 2.008538 0.587392
v -4.298681 2.010045 0.587199
v -4.298630 2.011125 0.586719
v -4.299468 2.011151 0.586058
v -4.299964 2.010085 0.586186
v -4.298717 2.010603 0.583568
v -4.298654 2.011489 0.584349
v -4.297615 2.011547 0.584588
v -4.297125 2.010691 0.583934
v -4.300238 2.008893 0.584162
v -4.297144 2.011442 0.585540
v -4.297596 2.011255 0.586488
v -4.297097 2.010244 0.586846
v -4.299980 2.010334 0.584570
v -4.299478 2.011313 0.585003
v -4.296405 2.010531 0.585392
v -4.298291 2.006804 0.583341
v -4.298481 2.007726 0.583004
v -4.296789 2.007819 0.583394
v -4.297010 2.006875 0.583636
v -4.300219 2.008587 0.586147
v -4.296022 2.007649 0.584945
v -4.296759 2.007343 0.586491
v -4.296429 2.006746 0.584811
v -4.299825 2.007439 0.584071
v -4.298444 2.007132 0.586867
v -4.299809 2.007175 0.585790
v -4.296429 2.006746 0.584811
v -4.296456 2.001516 0.582723
v -4.298262 2.006355 0.586265
v -4.296432 2.001130 0.585231
v -4.299308 2.006587 0.584148
v -4.298902 2.000993 0.584663
v -4.297010 2.006875 0.583636
v -4.296456 2.001516 0.582723
v -4.297010 2.006875 0.583636
v -4.297827 2.001440 0.582408
v -4.296987 2.006514 0.585981
v -4.296429 2.006746 0.584811
v -4.295835 2.001378 0.583979
v -4.296432 2.001130 0.585231
v -4.296987 2.006514 0.585981
v -4.295835 2.001378 0.583979
v -4.299295 2.006387 0.585450
v -4.298262 2.006355 0.586265
v -4.297796 2.000959 0.585535
v -4.298902 2.000993 0.584663
v -4.299295 2.006387 0.585450
v -4.297796 2.000959 0.585535
v -4.298291 2.006804 0.583341
v -4.299308 2.006587 0.584148
v -4.298915 2.001208 0.583271
v -4.297827 2.001440 0.582408
v -4.298291 2.006804 0.583341
v -4.298915 2.001208 0.583271
v -4.299468 2.011151 0.586058
v -4.298681 2.010045 0.587199
v -4.297615 2.011547 0.584588
v -4.298717 2.010603 0.583568
v -4.297596 2.011255 0.586488
v -4.296405 2.010531 0.585392
v -4.298654 2.011489 0.584349
v -4.298717 2.010603 0.583568
v -4.298654 2.011489 0.584349
v -4.299980 2.010334 0.584570
v -4.297144 2.011442 0.585540
v -4.297615 2.011547 0.584588
v -4.297125 2.010691 0.583934
v -4.296405 2.010531 0.585392
v -4.297144 2.011442 0.585540
v -4.297125 2.010691 0.583934
v -4.298630 2.011125 0.586719
v -4.297596 2.011255 0.586488
v -4.297097 2.010244 0.586846
v -4.298681 2.010045 0.587199
v -4.298630 2.011125 0.586719
v -4.297097 2.010244 0.586846
v -4.298291 2.006804 0.583341
v -4.297010 2.006875 0.583636
v -4.296789 2.007819 0.583394
v -4.298291 2.006804 0.583341
v -4.296429 2.006746 0.584811
v -4.296987 2.006514 0.585981
v -4.296759 2.007343 0.586491
v -4.296429 2.006746 0.584811
v -4.298262 2.006355 0.586265
v -4.299295 2.006387 0.585450
v -4.299809 2.007175 0.585790
v -4.298262 2.006355 0.586265
v -4.298481 2.007726 0.583004
v -4.299308 2.006587 0.584148
v -4.298291 2.006804 0.583341
v -4.298481 2.007726 0.583004
v -4.299308 2.006587 0.584148
v -4.296022 2.007649 0.584945
v -4.296789 2.007819 0.583394
v -4.297010 2.006875 0.583636
v -4.296429 2.006746 0.584811
v -4.296022 2.007649 0.584945
v -4.297010 2.006875 0.583636
v -4.298444 2.007132 0.586867
v -4.296759 2.007343 0.586491
v -4.296987 2.006514 0.585981
v -4.298262 2.006355 0.586265
v -4.298444 2.007132 0.586867
v -4.296987 2.006514 0.585981
v -4.299825 2.007439 0.584071
v -4.299809 2.007175 0.585790
v -4.299295 2.006387 0.585450
v -4.299308 2.006587 0.584148
v -4.299825 2.007439 0.584071
v -4.299295 2.006387 0.585450
v -4.299809 2.007175 0.585790
v -4.299825 2.007439 0.584071
v -4.300238 2.008893 0.584162
v -4.299809 2.007175 0.585790
v -4.299980 2.010334 0.584570
v -4.299964 2.010085 0.586186
v -4.300219 2.008587 0.586147
v -4.300238 2.008893 0.584162
v -4.299980 2.010334 0.584570
v -4.300219 2.008587 0.586147
v -4.300219 2.008587 0.586147
v -4.298444 2.007132 0.586867
v -4.299809 2.007175 0.585790
v -4.300219 2.008587 0.586147
v -4.298444 2.007132 0.586867
v -4.299964 2.010085 0.586186
v -4.298681 2.010045 0.587199
v -4.298642 2.008538 0.587392
v -4.300219 2.008587 0.586147
v -4.299964 2.010085 0.586186
v -4.298642 2.008538 0.587392
v -4.298642 2.008538 0.587392
v -4.296759 2.007343 0.586491
v -4.298444 2.007132 0.586867
v -4.298642 2.008538 0.587392
v -4.296759 2.007343 0.586491
v -4.298681 2.010045 0.587199
v -4.297097 2.010244 0.586846
v -4.296696 2.008782 0.586958
v -4.298642 2.008538 0.587392
v -4.298681 2.010045 0.587199
v -4.296696 2.008782 0.586958
v -4.296696 2.008782 0.586958
v -4.296022 2.007649 0.584945
v -4.296759 2.007343 0.586491
v -4.296696 2.008782 0.586958
v -4.296022 2.007649 0.584945
v -4.297097 2.010244 0.586846
v -4.296405 2.010531 0.585392
v -4.295845 2.009135 0.585172
v -4.296696 2.008782 0.586958
v -4.297097 2.010244 0.586846
v -4.295845 2.009135 0.585172
v -4.295845 2.009135 0.585172
v -4.296789 2.007819 0.583394
v -4.296022 2.007649 0.584945
v -4.295845 2.009135 0.585172
v -4.296789 2.007819 0.583394
v -4.296405 2.010531 0.585392
v -4.297125 2.010691 0.583934
v -4.296731 2.009332 0.583380
v -4.295845 2.009135 0.585172
v -4.296405 2.010531 0.585392
v -4.296731 2.009332 0.583380
v -4.296731 2.009332 0.583380
v -4.298481 2.007726 0.583004
v -4.296789 2.007819 0.583394
v -4.296731 2.009332 0.583380
v -4.298481 2.007726 0.583004
v -4.297125 2.010691 0.583934
v -4.298717 2.010603 0.583568
v -4.298686 2.009224 0.582930
v -4.296731 2.009332 0.583380
v -4.297125 2.010691 0.583934
v -4.298686 2.009224 0.582930
v -4.298686 2.009224 0.582930
v -4.300238 2.008893 0.584162
v -4.299825 2.007439 0.584071
v -4.298481 2.007726 0.583004
v -4.298686 2.009224 0.582930
v -4.299825 2.007439 0.584071
v -4.298717 2.010603 0.583568
v -4.299980 2.010334 0.584570
v -4.300238 2.008893 0.584162
v -4.298686 2.009224 0.582930
v -4.298717 2.010603 0.583568
v -4.300238 2.008893 0.584162
v -4.299478 2.011313 0.585003
v -4.299468 2.011151 0.586058
v -4.299964 2.010085 0.586186
v -4.299980 2.010334 0.584570
v -4.299478 2.011313 0.585003
v -4.299964 2.010085 0.586186
v -4.298630 2.011125 0.586719
v -4.299468 2.011151 0.586058
v -4.297596 2.011255 0.586488
v -4.299478 2.011313 0.585003
v -4.297596 2.011255 0.586488
v -4.299468 2.011151 0.586058
v -4.297144 2.011442 0.585540
v -4.297596 2.011255 0.586488
v -4.299478 2.011313 0.585003
v -4.298654 2.011489 0.584349
v -4.297144 2.011442 0.585540
v -4.299478 2.011313 0.585003
v -4.297615 2.011547 0.584588
v -4.297144 2.011442 0.585540
v -4.298654 2.011489 0.584349
v -4.297796 2.000959 0.585535
v -4.296432 2.001130 0.585231
v -4.298902 2.000993 0.584663
v -4.298915 2.001208 0.583271
v -4.298902 2.000993 0.584663
v -4.296432 2.001130 0.585231
v -4.295835 2.001378 0.583979
v -4.298915 2.001208 0.583271
v -4.296432 2.001130 0.585231
v -4.297827 2.001440 0.582408
v -4.298915 2.001208 0.583271
v -4.295835 2.001378 0.583979
v -4.296456 2.001516 0.582723
v -4.297827 2.001440 0.582408
v -4.295835 2.001378 0.583979
vn 0.0894 -0.9843 -0.1522
vn -0.2041 0.8852 -0.4181
vn 0.4878 0.8635 0.1281
vn 0.2720 0.9115 -0.3086
vn -0.5822 0.8044 -0.1181
vn 0.4878 0.8635 0.1280
vn -0.5822 0.8044 -0.1182
vn 0.2806 0.7775 0.5629
vn -0.5774 0.7301 0.3655
vn 0.2806 0.7774 0.5629
vn -0.5775 0.7301 0.3654
vn -0.1935 0.7181 0.6685
vn -0.8518 0.2676 0.4503
vn -0.8595 0.3881 -0.3326
vn -0.8519 0.2676 0.4502
vn -0.9043 0.0222 -0.4264
vn -0.2475 0.5187 -0.8183
vn -0.2343 0.1653 -0.9580
vn -0.9043 0.0223 -0.4264
vn -0.8595 0.3880 -0.3327
vn -0.2475 0.5188 -0.8183
vn -0.8185 -0.3462 -0.4585
vn -0.1874 -0.2114 -0.9593
vn -0.2343 0.1654 -0.9580
vn 0.5234 0.5614 -0.6410
vn 0.6095 0.2119 -0.7639
vn -0.2474 0.5187 -0.8183
vn -0.1873 -0.2114 -0.9593
vn 0.6095 0.2120 -0.7639
vn 0.6076 -0.1674 -0.7764
vn 0.8727 0.4837 0.0658
vn 0.9919 0.1270 0.0098
vn 0.5235 0.5613 -0.6410
vn 0.8727 0.4838 0.0658
vn 0.6076 -0.1675 -0.7764
vn 0.9677 -0.2475 -0.0475
vn 0.6096 0.2119 -0.7639
vn 0.9919 0.1269 0.0098
vn 0.5373 0.3444 0.7699
vn 0.6247 -0.0255 0.7804
vn 0.5373 0.3444 0.7698
vn 0.6247 -0.0256 0.7804
vn 0.6219 -0.3912 0.6784
vn 0.6248 -0.0255 0.7804
vn -0.2301 0.2483 0.9410
vn -0.2154 -0.1308 0.9677
vn 0.6218 -0.3912 0.6784
vn -0.1696 -0.4903 0.8549
vn -0.2154 -0.1309 0.9677
vn -0.8959 -0.1096 0.4306
vn -0.2302 0.2482 0.9410
vn -0.8518 0.2677 0.4503
vn -0.1696 -0.4904 0.8548
vn -0.8106 -0.4703 0.3489
vn -0.8959 -0.1095 0.4306
vn -0.8106 -0.4704 0.3489
vn -0.8958 -0.1095 0.4306
vn -0.8388 -0.3988 0.3706
vn -0.8469 -0.2716 -0.4572
vn -0.8388 -0.3989 0.3706
vn 0.6301 -0.3177 0.7086
vn -0.1696 -0.4904 0.8549
vn -0.1815 -0.4194 0.8895
vn 0.6155 -0.0883 -0.7832
vn 0.9677 -0.2475 -0.0476
vn 0.9847 -0.1704 -0.0358
vn 0.6154 -0.0883 -0.7832
vn -0.8469 -0.2715 -0.4572
vn -0.1997 -0.1334 -0.9707
vn -0.1814 -0.4194 0.8895
vn 0.9847 -0.1703 -0.0358
vn 0.9847 -0.1704 -0.0359
vn -0.1997 -0.1333 -0.9707
vn -0.2301 0.2482 0.9410
vn 0.5373 0.3443 0.7699
vn 0.2806 0.7775 0.5628
vn -0.1935 0.7180 0.6686
vn 0.5235 0.5614 -0.6410
vn 0.4877 0.8636 0.1280
vn 0.8727 0.4838 0.0659
vn -0.2474 0.5187 -0.8184
vn 0.2721 0.9115 -0.3086
vn -0.2302 0.2483 0.9409
vn -0.2302 0.2482 0.9409
vn -0.9031 0.0040 -0.4295
vn -0.2328 0.1472 -0.9613
vn -0.9031 0.0041 -0.4295
vn -0.2139 -0.1491 0.9654
vn -0.8947 -0.1278 0.4281
vn 0.9940 0.1088 0.0071
vn 0.6268 -0.0438 0.7780
vn 0.9940 0.1089 0.0071
vn -0.2327 0.1472 -0.9613
vn 0.6115 0.1938 -0.7671
vn -0.8947 -0.1278 0.4280
vn -0.9031 0.0040 -0.4294
vn 0.6267 -0.0438 0.7780
vn 0.6267 -0.0437 0.7780
vn 0.9847 -0.1703 -0.0359
vn 0.9940 0.1088 0.0070
vn 0.6115 0.1939 -0.7671
vt 0.530319 0.611839
vt 0.522446 0.618118
vt 0.524872 0.613083
vt 0.524872 0.623154
vt 0.534683 0.615326
vt 0.530319 0.624397
vt 0.534683 0.620918
vt 0.537079 0.671494
vt 0.541916 0.669548
vt 0.539566 0.672157
vt 0.536179 0.669609
vt 0.539856 0.666756
vt 0.536224 0.667854
vt 0.537567 0.666748
vt 0.534592 0.666855
vt 0.534012 0.669838
vt 0.530777 0.669685
vt 0.535187 0.673050
vt 0.531769 0.674789
vt 0.525803 0.669067
vt 0.526108 0.676537
vt 0.539017 0.675606
vt 0.536011 0.680244
vt 0.529755 0.684982
vt 0.547180 0.674767
vt 0.546982 0.686485
vt 0.537415 0.696274
vt 0.547180 0.658051
vt 0.540527 0.663902
vt 0.539825 0.659698
vt 0.546280 0.665543
vt 0.543762 0.651657
vt 0.537613 0.655174
vt 0.536758 0.664742
vt 0.535126 0.661980
vt 0.532364 0.658463
vt 0.532074 0.665283
vt 0.528198 0.662933
vt 0.523743 0.660286
vt 0.519989 0.668175
vt 0.535217 0.651588
vt 0.529327 0.654999
vt 0.522873 0.688484
vt 0.528320 0.699394
vt 0.519577 0.678001
vt 0.540466 0.648293
vt 0.604446 0.642853
vt 0.626221 0.647896
vt 0.604553 0.648445
vt 0.626144 0.642670
vt 0.604553 0.631676
vt 0.626144 0.637444
vt 0.604446 0.637268
vt 0.626221 0.632225
vt 0.605011 0.620506
vt 0.626404 0.626999
vt 0.604736 0.626091
vt 0.626663 0.621780
vt 0.626404 0.653114
vt 0.604736 0.654030
vt 0.626663 0.658333
vt 0.605011 0.659607
s 0
usemtl decorations
f 240/1/1 239/2/1 238/3/1
f 237/1/1 236/4/1 235/2/1
f 234/5/1 233/4/1 232/1/1
f 231/5/1 230/6/1 229/4/1
f 228/6/1 227/5/1 226/7/1
s 1
f 225/8/2 224/9/3 223/10/4
f 222/11/5 221/9/6 220/8/2
f 219/11/7 218/12/8 217/9/3
f 216/13/9 215/12/8 214/11/7
f 213/12/10 212/13/11 211/14/12
f 210/15/13 209/11/5 208/16/14
f 207/15/15 206/13/9 205/11/5
f 204/17/16 203/18/17 202/19/18
f 201/17/19 200/16/20 199/18/21
f 198/20/22 197/19/18 196/21/23
f 195/20/22 194/17/16 193/19/24
f 192/19/18 191/22/25 190/23/26
f 189/19/18 188/18/27 187/22/25
f 186/21/28 185/23/29 184/24/30
f 183/21/28 3/19/18 182/23/29
f 181/23/26 180/25/31 179/26/32
f 178/23/26 177/22/33 176/25/34
f 175/24/35 174/26/32 173/27/36
f 172/24/35 4/23/37 171/26/32
f 170/28/38 169/29/39 168/30/40
f 167/28/32 166/31/31 165/29/41
f 164/32/36 163/30/42 162/33/43
f 161/32/36 13/28/32 160/30/44
f 159/30/40 158/34/45 157/35/46
f 156/30/40 155/29/39 154/34/45
f 153/33/47 152/35/46 151/36/48
f 150/33/47 14/30/40 149/35/46
f 148/35/49 147/15/13 146/37/50
f 145/35/49 144/34/51 143/15/52
f 142/36/53 141/37/50 140/38/54
f 139/36/53 16/35/46 138/37/50
f 137/37/50 136/16/20 135/17/16
f 134/37/55 133/15/13 132/16/14
f 131/38/56 130/17/16 129/20/22
f 128/38/56 36/37/57 25/17/16
f 127/39/58 126/20/22 125/40/59
f 124/39/60 123/38/54 122/20/22
f 121/41/61 120/36/62 119/42/63
f 118/41/61 117/33/43 116/36/62
f 115/43/64 114/27/65 113/44/66
f 112/43/67 111/24/35 110/27/65
f 109/40/68 108/21/23 107/45/69
f 106/40/68 40/20/22 105/21/23
f 104/42/63 103/38/54 102/39/60
f 101/42/70 41/36/62 42/38/54
f 100/46/71 99/33/43 98/41/61
f 97/46/72 37/32/36 38/33/43
f 96/45/73 95/24/35 94/43/64
f 93/45/73 33/21/23 34/24/35
f 92/29/39 91/14/12 90/34/74
f 89/29/75 88/12/76 87/14/77
f 86/22/78 85/9/6 84/25/34
f 83/22/78 82/10/4 81/9/79
f 80/16/20 79/8/2 78/18/21
f 29/16/20 30/11/5 77/8/2
f 76/31/80 75/12/8 28/29/41
f 31/31/80 26/9/79 27/12/8
f 74/18/81 73/10/82 24/22/25
f 21/18/81 22/8/2 23/10/4
f 72/34/83 71/13/9 20/15/52
f 17/34/84 18/14/12 19/13/9
f 70/47/85 69/48/73 68/49/86
f 67/47/87 66/50/59 65/48/73
f 64/51/88 63/52/58 62/53/89
f 61/51/88 60/54/63 59/52/60
f 58/55/90 57/56/61 56/57/91
f 55/55/92 54/58/72 53/56/61
f 52/49/93 51/59/67 50/60/94
f 2/49/93 32/48/69 49/59/67
f 48/53/95 47/50/68 12/47/96
f 9/53/95 10/52/58 11/50/59
f 46/57/97 45/54/63 8/51/88
f 5/57/98 6/56/61 7/54/63
f 44/60/94 43/61/99 15/62/100
f 1/60/101 35/59/67 39/61/99
