# Blender 5.0.0
# www.blender.org
mtllib Circle_002_Circle_004_Dupli_256_decorations_0.mtl
o Circle.002|Circle.004|Dupli|256_decorations_0
v -4.356077 1.185138 0.371505
v -4.355261 1.185797 0.372445
v -4.359428 1.182999 0.378480
v -4.360593 1.182059 0.377139
v -4.357770 1.186921 0.370879
v -4.360960 1.185213 0.374974
v -4.360588 1.186241 0.375708
v -4.357372 1.188021 0.371664
v -4.356299 1.188109 0.372572
v -4.359585 1.186323 0.376557
v -4.358707 1.185398 0.376881
v -4.355360 1.187119 0.372919
v -4.362186 1.182773 0.376145
v -4.363008 1.184604 0.376246
v -4.357194 1.185638 0.370809
v -4.362440 1.186172 0.377366
v -4.363075 1.185364 0.378485
v -4.363305 1.184517 0.379278
v -4.362492 1.184584 0.379966
v -4.361830 1.185466 0.379539
v -4.360624 1.182782 0.379391
v -4.361705 1.182832 0.379870
v -4.362324 1.182333 0.379158
v -4.361572 1.182017 0.378301
v -4.359569 1.184886 0.379157
v -4.363170 1.182712 0.378630
v -4.363606 1.183684 0.378684
v -4.363538 1.184088 0.377574
v -4.360739 1.184317 0.379942
v -4.361780 1.183834 0.380229
v -4.362869 1.182598 0.377492
v -4.358614 1.184162 0.376438
v -4.358773 1.183627 0.377267
v -4.359781 1.182813 0.376107
v -4.359378 1.183546 0.375560
v -4.360909 1.186298 0.378661
v -4.361160 1.183432 0.375247
v -4.361872 1.185016 0.375334
v -4.360422 1.184014 0.374908
v -4.358895 1.185260 0.377854
v -4.361380 1.186374 0.376303
v -4.360055 1.186482 0.377424
v -4.360422 1.184014 0.374908
v -4.356077 1.185138 0.371505
v -4.360588 1.186241 0.375708
v -4.357770 1.186921 0.370879
v -4.358707 1.185398 0.376881
v -4.356299 1.188109 0.372572
v -4.359378 1.183546 0.375560
v -4.356077 1.185138 0.371505
v -4.359378 1.183546 0.375560
v -4.355261 1.185797 0.372445
v -4.360960 1.185213 0.374974
v -4.360422 1.184014 0.374908
v -4.357194 1.185638 0.370809
v -4.357770 1.186921 0.370879
v -4.360960 1.185213 0.374974
v -4.357194 1.185638 0.370809
v -4.359585 1.186323 0.376557
v -4.360588 1.186241 0.375708
v -4.357372 1.188021 0.371664
v -4.356299 1.188109 0.372572
v -4.359585 1.186323 0.376557
v -4.357372 1.188021 0.371664
v -4.358614 1.184162 0.376438
v -4.358707 1.185398 0.376881
v -4.355360 1.187119 0.372919
v -4.355261 1.185797 0.372445
v -4.358614 1.184162 0.376438
v -4.355360 1.187119 0.372919
v -4.362492 1.184584 0.379966
v -4.363075 1.185364 0.378485
v -4.362324 1.182333 0.379158
v -4.360624 1.182782 0.379391
v -4.363606 1.183684 0.378684
v -4.362869 1.182598 0.377492
v -4.361705 1.182832 0.379870
v -4.360624 1.182782 0.379391
v -4.361705 1.182832 0.379870
v -4.360739 1.184317 0.379942
v -4.363170 1.182712 0.378630
v -4.362324 1.182333 0.379158
v -4.361572 1.182017 0.378301
v -4.362869 1.182598 0.377492
v -4.363170 1.182712 0.378630
v -4.361572 1.182017 0.378301
v -4.363305 1.184517 0.379278
v -4.363606 1.183684 0.378684
v -4.363538 1.184088 0.377574
v -4.363075 1.185364 0.378485
v -4.363305 1.184517 0.379278
v -4.363538 1.184088 0.377574
v -4.358614 1.184162 0.376438
v -4.359378 1.183546 0.375560
v -4.359781 1.182813 0.376107
v -4.358614 1.184162 0.376438
v -4.360422 1.184014 0.374908
v -4.360960 1.185213 0.374974
v -4.361872 1.185016 0.375334
v -4.360422 1.184014 0.374908
v -4.360588 1.186241 0.375708
v -4.359585 1.186323 0.376557
v -4.360055 1.186482 0.377424
v -4.360588 1.186241 0.375708
v -4.358773 1.183627 0.377267
v -4.358707 1.185398 0.376881
v -4.358614 1.184162 0.376438
v -4.358773 1.183627 0.377267
v -4.358707 1.185398 0.376881
v -4.361160 1.183432 0.375247
v -4.359781 1.182813 0.376107
v -4.359378 1.183546 0.375560
v -4.360422 1.184014 0.374908
v -4.361160 1.183432 0.375247
v -4.359378 1.183546 0.375560
v -4.361380 1.186374 0.376303
v -4.361872 1.185016 0.375334
v -4.360960 1.185213 0.374974
v -4.360588 1.186241 0.375708
v -4.361380 1.186374 0.376303
v -4.360960 1.185213 0.374974
v -4.358895 1.185260 0.377854
v -4.360055 1.186482 0.377424
v -4.359585 1.186323 0.376557
v -4.358707 1.185398 0.376881
v -4.358895 1.185260 0.377854
v -4.359585 1.186323 0.376557
v -4.360055 1.186482 0.377424
v -4.358895 1.185260 0.377854
v -4.359569 1.184886 0.379157
v -4.360055 1.186482 0.377424
v -4.360739 1.184317 0.379942
v -4.361830 1.185466 0.379539
v -4.360909 1.186298 0.378661
v -4.359569 1.184886 0.379157
v -4.360739 1.184317 0.379942
v -4.360909 1.186298 0.378661
v -4.360909 1.186298 0.378661
v -4.361380 1.186374 0.376303
v -4.360055 1.186482 0.377424
v -4.360909 1.186298 0.378661
v -4.361380 1.186374 0.376303
v -4.361830 1.185466 0.379539
v -4.363075 1.185364 0.378485
v -4.362440 1.186172 0.377366
v -4.360909 1.186298 0.378661
v -4.361830 1.185466 0.379539
v -4.362440 1.186172 0.377366
v -4.362440 1.186172 0.377366
v -4.361872 1.185016 0.375334
v -4.361380 1.186374 0.376303
v -4.362440 1.186172 0.377366
v -4.361872 1.185016 0.375334
v -4.363075 1.185364 0.378485
v -4.363538 1.184088 0.377574
v -4.363008 1.184604 0.376246
v -4.362440 1.186172 0.377366
v -4.363075 1.185364 0.378485
v -4.363008 1.184604 0.376246
v -4.363008 1.184604 0.376246
v -4.361160 1.183432 0.375247
v -4.361872 1.185016 0.375334
v -4.363008 1.184604 0.376246
v -4.361160 1.183432 0.375247
v -4.363538 1.184088 0.377574
v -4.362869 1.182598 0.377492
v -4.362186 1.182773 0.376145
v -4.363008 1.184604 0.376246
v -4.363538 1.184088 0.377574
v -4.362186 1.182773 0.376145
v -4.362186 1.182773 0.376145
v -4.359781 1.182813 0.376107
v -4.361160 1.183432 0.375247
v -4.362186 1.182773 0.376145
v -4.359781 1.182813 0.376107
v -4.362869 1.182598 0.377492
v -4.361572 1.182017 0.378301
v -4.360593 1.182059 0.377139
v -4.362186 1.182773 0.376145
v -4.362869 1.182598 0.377492
v -4.360593 1.182059 0.377139
v -4.360593 1.182059 0.377139
v -4.358773 1.183627 0.377267
v -4.359781 1.182813 0.376107
v -4.360593 1.182059 0.377139
v -4.358773 1.183627 0.377267
v -4.361572 1.182017 0.378301
v -4.360624 1.182782 0.379391
v -4.359428 1.182999 0.378480
v -4.360593 1.182059 0.377139
v -4.361572 1.182017 0.378301
v -4.359428 1.182999 0.378480
v -4.359428 1.182999 0.378480
v -4.359569 1.184886 0.379157
v -4.358895 1.185260 0.377854
v -4.358773 1.183627 0.377267
v -4.359428 1.182999 0.378480
v -4.358895 1.185260 0.377854
v -4.360624 1.182782 0.379391
v -4.360739 1.184317 0.379942
v -4.359569 1.184886 0.379157
v -4.359428 1.182999 0.378480
v -4.360624 1.182782 0.379391
v -4.359569 1.184886 0.379157
v -4.361780 1.183834 0.380229
v -4.362492 1.184584 0.379966
v -4.361830 1.185466 0.379539
v -4.360739 1.184317 0.379942
v -4.361780 1.183834 0.380229
v -4.361830 1.185466 0.379539
v -4.363305 1.184517 0.379278
v -4.362492 1.184584 0.379966
v -4.363606 1.183684 0.378684
v -4.361780 1.183834 0.380229
v -4.363606 1.183684 0.378684
v -4.362492 1.184584 0.379966
v -4.363170 1.182712 0.378630
v -4.363606 1.183684 0.378684
v -4.361780 1.183834 0.380229
v -4.361705 1.182832 0.379870
v -4.363170 1.182712 0.378630
v -4.361780 1.183834 0.380229
v -4.362324 1.182333 0.379158
v -4.363170 1.182712 0.378630
v -4.361705 1.182832 0.379870
v -4.357372 1.188021 0.371664
v -4.357770 1.186921 0.370879
v -4.356299 1.188109 0.372572
v -4.355360 1.187119 0.372919
v -4.356299 1.188109 0.372572
v -4.357770 1.186921 0.370879
v -4.357194 1.185638 0.370809
v -4.355360 1.187119 0.372919
v -4.357770 1.186921 0.370879
v -4.355261 1.185797 0.372445
v -4.355360 1.187119 0.372919
v -4.357194 1.185638 0.370809
v -4.356077 1.185138 0.371505
v -4.355261 1.185797 0.372445
v -4.357194 1.185638 0.370809
vn 0.5993 0.3097 -0.7382
vn -0.0726 -0.5619 0.8240
vn -0.7444 -0.6169 0.2556
vn -0.3563 -0.7908 0.4977
vn -0.1070 -0.1024 0.9890
vn -0.0726 -0.5618 0.8241
vn -0.1069 -0.1025 0.9890
vn -0.9446 -0.1711 0.2801
vn -0.4334 0.2415 0.8682
vn -0.1069 -0.1024 0.9890
vn -0.9446 -0.1710 0.2801
vn -0.4334 0.2415 0.8683
vn -0.8062 0.2110 0.5528
vn -0.1450 0.6787 0.7200
vn 0.3835 0.1219 0.9155
vn -0.1449 0.6787 0.7200
vn 0.6650 0.2601 0.7001
vn 0.4391 -0.6219 0.6484
vn 0.7257 -0.5540 0.4079
vn 0.6649 0.2601 0.7002
vn 0.3836 0.1219 0.9154
vn 0.4391 -0.6219 0.6485
vn 0.8499 0.3606 0.3842
vn 0.7257 -0.5541 0.4079
vn 0.9072 -0.4064 0.1090
vn 0.7257 -0.5540 0.4080
vn -0.0202 -0.9926 0.1201
vn 0.2230 -0.9598 -0.1705
vn 0.9072 -0.4064 0.1089
vn 0.2230 -0.9598 -0.1704
vn 0.4336 -0.7887 -0.4359
vn -0.6484 -0.7110 -0.2719
vn -0.4647 -0.6516 -0.5995
vn -0.0202 -0.9926 0.1200
vn -0.6485 -0.7111 -0.2719
vn 0.4336 -0.7886 -0.4360
vn -0.2143 -0.4983 -0.8401
vn -0.4648 -0.6516 -0.5995
vn -0.9726 0.0107 -0.2322
vn -0.8196 0.1384 -0.5560
vn -0.6485 -0.7110 -0.2719
vn -0.8195 0.1384 -0.5561
vn -0.5485 0.2459 -0.7992
vn -0.8196 0.1383 -0.5560
vn -0.8195 0.1384 -0.5560
vn -0.7486 0.6292 0.2092
vn -0.5743 0.8154 -0.0729
vn -0.9726 0.0108 -0.2322
vn -0.3175 0.8837 -0.3440
vn -0.5742 0.8154 -0.0729
vn -0.1450 0.6787 0.7199
vn 0.0864 0.8696 0.4862
vn -0.7485 0.6292 0.2092
vn -0.3174 0.8837 -0.3440
vn 0.3048 0.9347 0.1827
vn 0.0863 0.8695 0.4862
vn 0.3049 0.9347 0.1827
vn 0.8499 0.3605 0.3843
vn 0.0863 0.8696 0.4862
vn 0.2619 0.9322 0.2499
vn 0.8499 0.3606 0.3843
vn 0.8207 0.3435 0.4566
vn -0.6133 0.2259 -0.7569
vn -0.3763 0.8799 -0.2901
vn 0.3938 -0.8350 -0.3844
vn -0.2143 -0.4984 -0.8401
vn -0.2705 -0.5372 -0.7989
vn 0.3938 -0.8349 -0.3844
vn 0.8207 0.3434 0.4566
vn 0.8794 -0.4429 0.1743
vn -0.2705 -0.5373 -0.7988
vn -0.6132 0.2259 -0.7569
vn -0.2705 -0.5373 -0.7989
vn 0.8794 -0.4430 0.1743
vn 0.3938 -0.8349 -0.3845
vn -0.8062 0.2109 0.5528
vn -0.0203 -0.9926 0.1200
vn -0.0727 -0.5618 0.8240
vn -0.0727 -0.5618 0.8241
vn -0.7485 0.6292 0.2093
vn 0.6764 0.2660 0.6869
vn 0.7372 -0.5486 0.3945
vn 0.6763 0.2659 0.6869
vn -0.5635 0.8216 -0.0865
vn 0.0975 0.8758 0.4728
vn -0.4539 -0.6462 -0.6135
vn -0.8089 0.1441 -0.5700
vn -0.4540 -0.6462 -0.6135
vn 0.2342 -0.9546 -0.1842
vn 0.7371 -0.5486 0.3945
vn 0.0975 0.8757 0.4728
vn 0.6763 0.2660 0.6869
vn 0.0975 0.8757 0.4729
vn -0.8089 0.1442 -0.5700
vt 0.530319 0.635056
vt 0.522446 0.641335
vt 0.524872 0.636299
vt 0.524872 0.646370
vt 0.534683 0.638535
vt 0.530319 0.647614
vt 0.534683 0.644127
vt 0.508789 0.671494
vt 0.513626 0.669548
vt 0.511276 0.672157
vt 0.507889 0.669609
vt 0.511566 0.666756
vt 0.507935 0.667854
vt 0.509277 0.666748
vt 0.506302 0.666855
vt 0.505722 0.669838
vt 0.502487 0.669685
vt 0.506897 0.673050
vt 0.503479 0.674789
vt 0.497520 0.669067
vt 0.497810 0.676537
vt 0.510727 0.675606
vt 0.507721 0.680244
vt 0.501465 0.684982
vt 0.518890 0.674767
vt 0.518692 0.686485
vt 0.509125 0.696274
vt 0.518890 0.658051
vt 0.512238 0.663902
vt 0.511536 0.659698
vt 0.517990 0.665543
vt 0.515472 0.651657
vt 0.509323 0.655174
vt 0.508469 0.664742
vt 0.506836 0.661980
vt 0.504074 0.658463
vt 0.503784 0.665283
vt 0.499901 0.662933
vt 0.495453 0.660286
vt 0.491707 0.668175
vt 0.506927 0.651588
vt 0.501038 0.654999
vt 0.494583 0.688484
vt 0.500031 0.699394
vt 0.491287 0.678001
vt 0.512177 0.648293
vt 0.627350 0.642853
vt 0.649124 0.647896
vt 0.627441 0.648445
vt 0.649033 0.642670
vt 0.627441 0.631676
vt 0.649033 0.637444
vt 0.627350 0.637268
vt 0.649124 0.632225
vt 0.627914 0.620506
vt 0.649292 0.626999
vt 0.627625 0.626091
vt 0.649551 0.621780
vt 0.649292 0.653114
vt 0.627625 0.654030
vt 0.649551 0.658333
vt 0.627914 0.659607
s 0
usemtl decorations
f 240/1/1 239/2/1 238/3/1
f 237/1/1 236/4/1 235/2/1
f 234/5/1 233/4/1 232/1/1
f 231/5/1 230/6/1 229/4/1
f 228/6/1 227/5/1 226/7/1
s 1
f 225/8/2 224/9/3 223/10/4
f 222/11/5 221/9/3 220/8/6
f 219/11/7 218/12/8 217/9/3
f 216/13/9 215/12/8 214/11/10
f 213/12/11 212/13/12 211/14/13
f 210/15/14 209/11/10 208/16/15
f 207/15/16 206/13/9 205/11/5
f 204/17/17 203/18/18 202/19/19
f 201/17/20 200/16/21 199/18/22
f 198/20/23 197/19/24 196/21/25
f 195/20/23 194/17/20 193/19/26
f 192/19/19 191/22/27 190/23/28
f 189/19/19 188/18/18 187/22/27
f 186/21/29 185/23/30 184/24/31
f 183/21/29 3/19/19 182/23/30
f 181/23/28 180/25/32 179/26/33
f 178/23/28 177/22/34 176/25/35
f 175/24/36 174/26/33 173/27/37
f 172/24/36 4/23/28 171/26/33
f 170/28/38 169/29/39 168/30/40
f 167/28/38 166/31/41 165/29/39
f 164/32/37 163/30/42 162/33/43
f 161/32/37 13/28/38 160/30/44
f 159/30/45 158/34/46 157/35/47
f 156/30/40 155/29/48 154/34/46
f 153/33/43 152/35/47 151/36/49
f 150/33/43 14/30/45 149/35/47
f 148/35/50 147/15/51 146/37/52
f 145/35/50 144/34/53 143/15/14
f 142/36/54 141/37/52 140/38/55
f 139/36/54 16/35/47 138/37/52
f 137/37/52 136/16/21 135/17/20
f 134/37/56 133/15/14 132/16/15
f 131/38/57 130/17/20 129/20/58
f 128/38/57 36/37/59 25/17/20
f 127/39/60 126/20/61 125/40/62
f 124/39/60 123/38/57 122/20/61
f 121/41/63 120/36/49 119/42/64
f 118/41/63 117/33/43 116/36/49
f 115/43/65 114/27/66 113/44/67
f 112/43/68 111/24/31 110/27/66
f 109/40/69 108/21/25 107/45/70
f 106/40/62 40/20/23 105/21/25
f 104/42/64 103/38/57 102/39/60
f 101/42/64 41/36/49 42/38/57
f 100/46/71 99/33/43 98/41/72
f 97/46/73 37/32/37 38/33/43
f 96/45/74 95/24/31 94/43/75
f 93/45/74 33/21/29 34/24/31
f 92/29/48 91/14/76 90/34/46
f 89/29/48 88/12/8 87/14/13
f 86/22/77 85/9/3 84/25/41
f 83/22/34 82/10/4 81/9/3
f 80/16/21 79/8/78 78/18/22
f 29/16/21 30/11/5 77/8/79
f 76/31/41 75/12/8 28/29/39
f 31/31/41 26/9/3 27/12/8
f 74/18/18 73/10/4 24/22/27
f 21/18/18 22/8/79 23/10/4
f 72/34/80 71/13/9 20/15/14
f 17/34/80 18/14/13 19/13/9
f 70/47/81 69/48/74 68/49/82
f 67/47/83 66/50/62 65/48/74
f 64/51/84 63/52/60 62/53/85
f 61/51/84 60/54/64 59/52/60
f 58/55/86 57/56/63 56/57/87
f 55/55/88 54/58/73 53/56/72
f 52/49/82 51/59/65 50/60/89
f 2/49/90 32/48/74 49/59/68
f 48/53/91 47/50/69 12/47/92
f 9/53/93 10/52/60 11/50/62
f 46/57/94 45/54/64 8/51/84
f 5/57/94 6/56/63 7/54/64
f 44/60/89 43/61/71 15/62/86
f 1/60/89 35/59/75 39/61/73
