# Blender 5.0.0
# www.blender.org
mtllib Circle_005_Circle_003_Dupli_37_decorations_0.mtl
o Circle.005|Circle.003|Dupli|37_decorations_0
v -4.275812 1.448709 0.667653
v -4.275723 1.447723 0.666651
v -4.274932 1.453111 0.660998
v -4.275058 1.454517 0.662427
v -4.278316 1.449029 0.667910
v -4.278141 1.452872 0.664029
v -4.278636 1.452025 0.663152
v -4.278846 1.448123 0.666972
v -4.278157 1.447253 0.666105
v -4.277991 1.451212 0.662341
v -4.276692 1.451046 0.662207
v -4.276767 1.447075 0.665962
v -4.276705 1.455347 0.663227
v -4.278631 1.454974 0.662795
v -4.276966 1.449290 0.668213
v -4.279387 1.453681 0.661456
v -4.278929 1.454734 0.660461
v -4.278257 1.455457 0.659809
v -4.277734 1.454798 0.659152
v -4.278128 1.453724 0.659454
v -4.275303 1.454270 0.660088
v -4.275891 1.455154 0.659565
v -4.275958 1.455901 0.660325
v -4.275406 1.455415 0.661251
v -4.276421 1.452187 0.660015
v -4.276832 1.456342 0.660749
v -4.277855 1.456144 0.660520
v -4.278314 1.455786 0.661550
v -4.276515 1.453518 0.659288
v -4.276681 1.454663 0.659043
v -4.276746 1.456089 0.661902
v -4.275717 1.451651 0.662852
v -4.275249 1.452140 0.662115
v -4.275358 1.453357 0.663353
v -4.275799 1.452573 0.663788
v -4.278403 1.452440 0.660219
v -4.276783 1.454075 0.664045
v -4.278450 1.453752 0.663671
v -4.276878 1.453116 0.664312
v -4.276537 1.451340 0.661265
v -4.279105 1.452633 0.662512
v -4.278254 1.451559 0.661441
v -4.276878 1.453116 0.664312
v -4.275812 1.448709 0.667653
v -4.278636 1.452025 0.663152
v -4.278316 1.449029 0.667910
v -4.276692 1.451046 0.662207
v -4.278157 1.447253 0.666105
v -4.275799 1.452573 0.663788
v -4.275812 1.448709 0.667653
v -4.275799 1.452573 0.663788
v -4.275723 1.447723 0.666651
v -4.278141 1.452872 0.664029
v -4.276878 1.453116 0.664312
v -4.276966 1.449290 0.668213
v -4.278316 1.449029 0.667910
v -4.278141 1.452872 0.664029
v -4.276966 1.449290 0.668213
v -4.277991 1.451212 0.662341
v -4.278636 1.452025 0.663152
v -4.278846 1.448123 0.666972
v -4.278157 1.447253 0.666105
v -4.277991 1.451212 0.662341
v -4.278846 1.448123 0.666972
v -4.275717 1.451651 0.662852
v -4.276692 1.451046 0.662207
v -4.276767 1.447075 0.665962
v -4.275723 1.447723 0.666651
v -4.275717 1.451651 0.662852
v -4.276767 1.447075 0.665962
v -4.277734 1.454798 0.659152
v -4.278929 1.454734 0.660461
v -4.275958 1.455901 0.660325
v -4.275303 1.454270 0.660088
v -4.277855 1.456144 0.660520
v -4.276746 1.456089 0.661902
v -4.275891 1.455154 0.659565
v -4.275303 1.454270 0.660088
v -4.275891 1.455154 0.659565
v -4.276515 1.453518 0.659288
v -4.276832 1.456342 0.660749
v -4.275958 1.455901 0.660325
v -4.275406 1.455415 0.661251
v -4.276746 1.456089 0.661902
v -4.276832 1.456342 0.660749
v -4.275406 1.455415 0.661251
v -4.278257 1.455457 0.659809
v -4.277855 1.456144 0.660520
v -4.278314 1.455786 0.661550
v -4.278929 1.454734 0.660461
v -4.278257 1.455457 0.659809
v -4.278314 1.455786 0.661550
v -4.275717 1.451651 0.662852
v -4.275799 1.452573 0.663788
v -4.275358 1.453357 0.663353
v -4.275717 1.451651 0.662852
v -4.276878 1.453116 0.664312
v -4.278141 1.452872 0.664029
v -4.278450 1.453752 0.663671
v -4.276878 1.453116 0.664312
v -4.278636 1.452025 0.663152
v -4.277991 1.451212 0.662341
v -4.278254 1.451559 0.661441
v -4.278636 1.452025 0.663152
v -4.275249 1.452140 0.662115
v -4.276692 1.451046 0.662207
v -4.275717 1.451651 0.662852
v -4.275249 1.452140 0.662115
v -4.276692 1.451046 0.662207
v -4.276783 1.454075 0.664045
v -4.275358 1.453357 0.663353
v -4.275799 1.452573 0.663788
v -4.276878 1.453116 0.664312
v -4.276783 1.454075 0.664045
v -4.275799 1.452573 0.663788
v -4.279105 1.452633 0.662512
v -4.278450 1.453752 0.663671
v -4.278141 1.452872 0.664029
v -4.278636 1.452025 0.663152
v -4.279105 1.452633 0.662512
v -4.278141 1.452872 0.664029
v -4.276537 1.451340 0.661265
v -4.278254 1.451559 0.661441
v -4.277991 1.451212 0.662341
v -4.276692 1.451046 0.662207
v -4.276537 1.451340 0.661265
v -4.277991 1.451212 0.662341
v -4.278254 1.451559 0.661441
v -4.276537 1.451340 0.661265
v -4.276421 1.452187 0.660015
v -4.278254 1.451559 0.661441
v -4.276515 1.453518 0.659288
v -4.278128 1.453724 0.659454
v -4.278403 1.452440 0.660219
v -4.276421 1.452187 0.660015
v -4.276515 1.453518 0.659288
v -4.278403 1.452440 0.660219
v -4.278403 1.452440 0.660219
v -4.279105 1.452633 0.662512
v -4.278254 1.451559 0.661441
v -4.278403 1.452440 0.660219
v -4.279105 1.452633 0.662512
v -4.278128 1.453724 0.659454
v -4.278929 1.454734 0.660461
v -4.279387 1.453681 0.661456
v -4.278403 1.452440 0.660219
v -4.278128 1.453724 0.659454
v -4.279387 1.453681 0.661456
v -4.279387 1.453681 0.661456
v -4.278450 1.453752 0.663671
v -4.279105 1.452633 0.662512
v -4.279387 1.453681 0.661456
v -4.278450 1.453752 0.663671
v -4.278929 1.454734 0.660461
v -4.278314 1.455786 0.661550
v -4.278631 1.454974 0.662795
v -4.279387 1.453681 0.661456
v -4.278929 1.454734 0.660461
v -4.278631 1.454974 0.662795
v -4.278631 1.454974 0.662795
v -4.276783 1.454075 0.664045
v -4.278450 1.453752 0.663671
v -4.278631 1.454974 0.662795
v -4.276783 1.454075 0.664045
v -4.278314 1.455786 0.661550
v -4.276746 1.456089 0.661902
v -4.276705 1.455347 0.663227
v -4.278631 1.454974 0.662795
v -4.278314 1.455786 0.661550
v -4.276705 1.455347 0.663227
v -4.276705 1.455347 0.663227
v -4.275358 1.453357 0.663353
v -4.276783 1.454075 0.664045
v -4.276705 1.455347 0.663227
v -4.275358 1.453357 0.663353
v -4.276746 1.456089 0.661902
v -4.275406 1.455415 0.661251
v -4.275058 1.454517 0.662427
v -4.276705 1.455347 0.663227
v -4.276746 1.456089 0.661902
v -4.275058 1.454517 0.662427
v -4.275058 1.454517 0.662427
v -4.275249 1.452140 0.662115
v -4.275358 1.453357 0.663353
v -4.275058 1.454517 0.662427
v -4.275249 1.452140 0.662115
v -4.275406 1.455415 0.661251
v -4.275303 1.454270 0.660088
v -4.274932 1.453111 0.660998
v -4.275058 1.454517 0.662427
v -4.275406 1.455415 0.661251
v -4.274932 1.453111 0.660998
v -4.274932 1.453111 0.660998
v -4.276421 1.452187 0.660015
v -4.276537 1.451340 0.661265
v -4.275249 1.452140 0.662115
v -4.274932 1.453111 0.660998
v -4.276537 1.451340 0.661265
v -4.275303 1.454270 0.660088
v -4.276515 1.453518 0.659288
v -4.276421 1.452187 0.660015
v -4.274932 1.453111 0.660998
v -4.275303 1.454270 0.660088
v -4.276421 1.452187 0.660015
v -4.276681 1.454663 0.659043
v -4.277734 1.454798 0.659152
v -4.278128 1.453724 0.659454
v -4.276515 1.453518 0.659288
v -4.276681 1.454663 0.659043
v -4.278128 1.453724 0.659454
v -4.278257 1.455457 0.659809
v -4.277734 1.454798 0.659152
v -4.277855 1.456144 0.660520
v -4.276681 1.454663 0.659043
v -4.277855 1.456144 0.660520
v -4.277734 1.454798 0.659152
v -4.276832 1.456342 0.660749
v -4.277855 1.456144 0.660520
v -4.276681 1.454663 0.659043
v -4.275891 1.455154 0.659565
v -4.276832 1.456342 0.660749
v -4.276681 1.454663 0.659043
v -4.275958 1.455901 0.660325
v -4.276832 1.456342 0.660749
v -4.275891 1.455154 0.659565
v -4.278846 1.448123 0.666972
v -4.278316 1.449029 0.667910
v -4.278157 1.447253 0.666105
v -4.276767 1.447075 0.665962
v -4.278157 1.447253 0.666105
v -4.278316 1.449029 0.667910
v -4.276966 1.449290 0.668213
v -4.276767 1.447075 0.665962
v -4.278316 1.449029 0.667910
v -4.275723 1.447723 0.666651
v -4.276767 1.447075 0.665962
v -4.276966 1.449290 0.668213
v -4.275812 1.448709 0.667653
v -4.275723 1.447723 0.666651
v -4.276966 1.449290 0.668213
vn -0.0192 -0.7136 0.7003
vn 0.5382 0.4335 -0.7228
vn 0.1064 0.9779 -0.1799
vn 0.5074 0.7760 -0.3747
vn 0.1756 0.2083 -0.9622
vn 0.1065 0.9779 -0.1799
vn 0.1757 0.2084 -0.9621
vn -0.3627 0.8872 -0.2852
vn -0.3072 0.2701 -0.9125
vn -0.3072 0.2700 -0.9125
vn -0.5468 0.5722 -0.6113
vn -0.5152 -0.2256 -0.8268
vn 0.2665 -0.3255 -0.9072
vn -0.5152 -0.2257 -0.8268
vn 0.1756 0.2084 -0.9621
vn 0.2839 -0.6482 -0.7066
vn 0.8535 0.0390 -0.5197
vn 0.9264 -0.2491 -0.2825
vn 0.2838 -0.6481 -0.7067
vn 0.2603 -0.8768 -0.4044
vn 0.9264 -0.2491 -0.2824
vn 0.8655 -0.5008 -0.0049
vn 0.2603 -0.8767 -0.4045
vn 0.2839 -0.6481 -0.7066
vn 0.8037 0.5935 0.0439
vn 0.8719 0.3578 0.3345
vn 0.8535 0.0390 -0.5196
vn 0.8655 -0.5008 -0.0048
vn 0.8719 0.3578 0.3344
vn 0.8142 0.0709 0.5763
vn 0.8718 0.3578 0.3345
vn 0.1546 0.9203 0.3593
vn 0.1613 0.7156 0.6796
vn 0.8037 0.5935 0.0440
vn 0.1546 0.9204 0.3592
vn 0.8141 0.0709 0.5763
vn 0.1448 0.4080 0.9014
vn -0.6050 0.7735 0.1888
vn -0.6701 0.5549 0.4930
vn 0.1546 0.9204 0.3593
vn -0.6701 0.5549 0.4931
vn -0.6384 0.2566 0.7257
vn -0.9031 0.2636 -0.3391
vn -0.9964 -0.0034 -0.0848
vn -0.6384 0.2565 0.7257
vn -0.9458 -0.2693 0.1813
vn -0.5153 -0.2256 -0.8268
vn -0.5718 -0.5388 -0.6187
vn -0.9031 0.2635 -0.3391
vn -0.9458 -0.2694 0.1813
vn -0.5459 -0.7737 -0.3216
vn -0.5718 -0.5387 -0.6187
vn -0.5581 -0.7329 -0.3892
vn 0.2602 -0.8767 -0.4045
vn 0.2685 -0.8385 -0.4741
vn -0.5581 -0.7329 -0.3891
vn -0.6530 0.3236 0.6847
vn -0.9458 -0.2693 0.1814
vn -0.9682 -0.2157 0.1266
vn 0.8365 0.1332 0.5316
vn 0.1501 0.4788 0.8650
vn 0.8655 -0.5009 -0.0049
vn 0.8891 -0.4531 -0.0643
vn 0.2602 -0.8768 -0.4044
vn 0.1501 0.4789 0.8650
vn -0.6530 0.3235 0.6847
vn 0.8891 -0.4531 -0.0644
vn 0.8364 0.1332 0.5316
vn -0.6051 0.7735 0.1888
vn -0.5468 0.5721 -0.6113
vn 0.8036 0.5935 0.0439
vn 0.5075 0.7760 -0.3747
vn 0.2666 -0.3255 -0.9072
vn 0.1545 0.9204 0.3592
vn 0.5074 0.7760 -0.3746
vn 0.2837 -0.6617 -0.6940
vn 0.9265 -0.2625 -0.2697
vn 0.2837 -0.6616 -0.6941
vn -0.9973 -0.0166 -0.0719
vn -0.5725 -0.5522 -0.6060
vn 0.1610 0.7028 0.6929
vn -0.6708 0.5420 0.5063
vn 0.9265 -0.2625 -0.2696
vn 0.8720 0.3447 0.3476
vn 0.9265 -0.2624 -0.2697
vn -0.5725 -0.5523 -0.6060
vn 0.2836 -0.6617 -0.6941
vn -0.5725 -0.5522 -0.6061
vn -0.6708 0.5420 0.5062
vn 0.8720 0.3448 0.3476
vn 0.1502 0.4788 0.8650
vt 0.530319 0.611839
vt 0.522446 0.618118
vt 0.524872 0.613083
vt 0.524872 0.623154
vt 0.534683 0.615326
vt 0.530319 0.624397
vt 0.534683 0.620918
vt 0.537079 0.671494
vt 0.541916 0.669548
vt 0.539566 0.672157
vt 0.536179 0.669609
vt 0.539856 0.666756
vt 0.536224 0.667854
vt 0.537567 0.666748
vt 0.534592 0.666855
vt 0.534012 0.669838
vt 0.530777 0.669685
vt 0.535187 0.673050
vt 0.531769 0.674789
vt 0.525803 0.669067
vt 0.526108 0.676537
vt 0.539017 0.675606
vt 0.536011 0.680244
vt 0.529755 0.684982
vt 0.547180 0.674767
vt 0.546982 0.686485
vt 0.537415 0.696274
vt 0.547180 0.658051
vt 0.540527 0.663902
vt 0.539825 0.659698
vt 0.546280 0.665543
vt 0.543762 0.651657
vt 0.537613 0.655174
vt 0.536758 0.664742
vt 0.535126 0.661980
vt 0.532364 0.658463
vt 0.532074 0.665283
vt 0.528198 0.662933
vt 0.523743 0.660286
vt 0.519989 0.668175
vt 0.535217 0.651588
vt 0.529327 0.654999
vt 0.522873 0.688484
vt 0.528320 0.699394
vt 0.519577 0.678001
vt 0.540466 0.648293
vt 0.604446 0.642853
vt 0.626221 0.647896
vt 0.604553 0.648445
vt 0.626144 0.642670
vt 0.604553 0.631676
vt 0.626144 0.637444
vt 0.604446 0.637268
vt 0.626221 0.632225
vt 0.605011 0.620506
vt 0.626404 0.626999
vt 0.604736 0.626091
vt 0.626663 0.621780
vt 0.626404 0.653114
vt 0.604736 0.654030
vt 0.626663 0.658333
vt 0.605011 0.659607
s 0
usemtl decorations
f 240/1/1 239/2/1 238/3/1
f 237/1/1 236/4/1 235/2/1
f 234/5/1 233/4/1 232/1/1
f 231/5/1 230/6/1 229/4/1
f 228/6/1 227/5/1 226/7/1
s 1
f 225/8/2 224/9/3 223/10/4
f 222/11/5 221/9/6 220/8/2
f 219/11/7 218/12/8 217/9/3
f 216/13/9 215/12/8 214/11/7
f 213/12/8 212/13/10 211/14/11
f 210/15/12 209/11/7 208/16/13
f 207/15/14 206/13/9 205/11/15
f 204/17/16 203/18/17 202/19/18
f 201/17/19 200/16/13 199/18/17
f 198/20/20 197/19/21 196/21/22
f 195/20/23 194/17/24 193/19/18
f 192/19/18 191/22/25 190/23/26
f 189/19/18 188/18/27 187/22/25
f 186/21/28 185/23/29 184/24/30
f 183/21/28 3/19/18 182/23/29
f 181/23/31 180/25/32 179/26/33
f 178/23/26 177/22/34 176/25/35
f 175/24/36 174/26/33 173/27/37
f 172/24/36 4/23/31 171/26/33
f 170/28/33 169/29/38 168/30/39
f 167/28/33 166/31/40 165/29/38
f 164/32/37 163/30/41 162/33/42
f 161/32/37 13/28/33 160/30/39
f 159/30/39 158/34/43 157/35/44
f 156/30/39 155/29/38 154/34/43
f 153/33/45 152/35/44 151/36/46
f 150/33/45 14/30/39 149/35/44
f 148/35/44 147/15/47 146/37/48
f 145/35/44 144/34/49 143/15/47
f 142/36/50 141/37/48 140/38/51
f 139/36/50 16/35/44 138/37/48
f 137/37/48 136/16/13 135/17/24
f 134/37/52 133/15/12 132/16/13
f 131/38/51 130/17/24 129/20/23
f 128/38/51 36/37/52 25/17/24
f 127/39/53 126/20/54 125/40/55
f 124/39/56 123/38/51 122/20/54
f 121/41/57 120/36/58 119/42/59
f 118/41/57 117/33/45 116/36/58
f 115/43/60 114/27/37 113/44/61
f 112/43/60 111/24/36 110/27/37
f 109/40/55 108/21/62 107/45/63
f 106/40/55 40/20/64 105/21/62
f 104/42/59 103/38/51 102/39/56
f 101/42/59 41/36/46 42/38/51
f 100/46/65 99/33/42 98/41/66
f 97/46/61 37/32/37 38/33/42
f 96/45/67 95/24/30 94/43/68
f 93/45/67 33/21/22 34/24/30
f 92/29/38 91/14/11 90/34/43
f 89/29/69 88/12/8 87/14/70
f 86/22/71 85/9/6 84/25/35
f 83/22/71 82/10/72 81/9/6
f 80/16/73 79/8/2 78/18/17
f 29/16/73 30/11/5 77/8/2
f 76/31/35 75/12/8 28/29/38
f 31/31/74 26/9/6 27/12/8
f 74/18/27 73/10/75 24/22/25
f 21/18/27 22/8/2 23/10/4
f 72/34/49 71/13/9 20/15/12
f 17/34/49 18/14/11 19/13/9
f 70/47/76 69/48/67 68/49/77
f 67/47/78 66/50/55 65/48/67
f 64/51/79 63/52/53 62/53/80
f 61/51/79 60/54/59 59/52/56
f 58/55/81 57/56/57 56/57/82
f 55/55/81 54/58/61 53/56/66
f 52/49/83 51/59/60 50/60/84
f 2/49/85 32/48/63 49/59/60
f 48/53/86 47/50/55 12/47/87
f 9/53/88 10/52/56 11/50/55
f 46/57/82 45/54/59 8/51/79
f 5/57/89 6/56/57 7/54/59
f 44/60/90 43/61/65 15/62/81
f 1/60/90 35/59/60 39/61/91
