# Blender 5.0.0
# www.blender.org
mtllib Circle_002_Circle_003_Dupli_109_decorations_0.mtl
o Circle.002|Circle.003|Dupli|109_decorations_0
v -4.211539 0.534471 0.378705
v -4.211641 0.533134 0.379134
v -4.216181 0.535112 0.385223
v -4.216036 0.537020 0.384612
v -4.209377 0.535247 0.379784
v -4.212224 0.536787 0.384187
v -4.211819 0.535715 0.384837
v -4.208945 0.534101 0.380479
v -4.209560 0.532837 0.380556
v -4.212395 0.534533 0.384909
v -4.213516 0.534131 0.384350
v -4.210760 0.532406 0.379958
v -4.214600 0.538363 0.385024
v -4.212952 0.538128 0.386150
v -4.210532 0.535412 0.378995
v -4.212335 0.536493 0.387142
v -4.213447 0.536884 0.388101
v -4.214510 0.537114 0.388566
v -4.214977 0.536156 0.388624
v -4.214161 0.535416 0.388190
v -4.216577 0.535760 0.386539
v -4.216553 0.536380 0.387546
v -4.216476 0.537394 0.387222
v -4.216459 0.537313 0.386042
v -4.214924 0.534074 0.386398
v -4.215713 0.538107 0.387441
v -4.214838 0.537982 0.388039
v -4.213949 0.538215 0.387294
v -4.215554 0.534916 0.387495
v -4.215886 0.535829 0.388171
v -4.215290 0.538406 0.386378
v -4.214340 0.534811 0.383580
v -4.215176 0.534827 0.384127
v -4.215051 0.536479 0.383598
v -4.214245 0.536061 0.383179
v -4.213212 0.534689 0.387252
v -4.213807 0.537641 0.383955
v -4.212381 0.537437 0.384930
v -4.213303 0.536941 0.383450
v -4.214088 0.533929 0.385144
v -4.211847 0.536022 0.385788
v -4.212606 0.534461 0.385884
v -4.213303 0.536941 0.383450
v -4.211539 0.534471 0.378705
v -4.211819 0.535715 0.384837
v -4.209377 0.535247 0.379784
v -4.213516 0.534131 0.384350
v -4.209560 0.532837 0.380556
v -4.214245 0.536061 0.383179
v -4.211539 0.534471 0.378705
v -4.214245 0.536061 0.383179
v -4.211641 0.533134 0.379134
v -4.212224 0.536787 0.384187
v -4.213303 0.536941 0.383450
v -4.210532 0.535412 0.378995
v -4.209377 0.535247 0.379784
v -4.212224 0.536787 0.384187
v -4.210532 0.535412 0.378995
v -4.212395 0.534533 0.384909
v -4.211819 0.535715 0.384837
v -4.208945 0.534101 0.380479
v -4.209560 0.532837 0.380556
v -4.212395 0.534533 0.384909
v -4.208945 0.534101 0.380479
v -4.214340 0.534811 0.383580
v -4.213516 0.534131 0.384350
v -4.210760 0.532406 0.379958
v -4.211641 0.533134 0.379134
v -4.214340 0.534811 0.383580
v -4.210760 0.532406 0.379958
v -4.214977 0.536156 0.388624
v -4.213447 0.536884 0.388101
v -4.216476 0.537394 0.387222
v -4.216577 0.535760 0.386539
v -4.214838 0.537982 0.388039
v -4.215290 0.538406 0.386378
v -4.216553 0.536380 0.387546
v -4.216577 0.535760 0.386539
v -4.216553 0.536380 0.387546
v -4.215554 0.534916 0.387495
v -4.215713 0.538107 0.387441
v -4.216476 0.537394 0.387222
v -4.216459 0.537313 0.386042
v -4.215290 0.538406 0.386378
v -4.215713 0.538107 0.387441
v -4.216459 0.537313 0.386042
v -4.214510 0.537114 0.388566
v -4.214838 0.537982 0.388039
v -4.213949 0.538215 0.387294
v -4.213447 0.536884 0.388101
v -4.214510 0.537114 0.388566
v -4.213949 0.538215 0.387294
v -4.214340 0.534811 0.383580
v -4.214245 0.536061 0.383179
v -4.215051 0.536479 0.383598
v -4.214340 0.534811 0.383580
v -4.213303 0.536941 0.383450
v -4.212224 0.536787 0.384187
v -4.212381 0.537437 0.384930
v -4.213303 0.536941 0.383450
v -4.211819 0.535715 0.384837
v -4.212395 0.534533 0.384909
v -4.212606 0.534461 0.385884
v -4.211819 0.535715 0.384837
v -4.215176 0.534827 0.384127
v -4.213516 0.534131 0.384350
v -4.214340 0.534811 0.383580
v -4.215176 0.534827 0.384127
v -4.213516 0.534131 0.384350
v -4.213807 0.537641 0.383955
v -4.215051 0.536479 0.383598
v -4.214245 0.536061 0.383179
v -4.213303 0.536941 0.383450
v -4.213807 0.537641 0.383955
v -4.214245 0.536061 0.383179
v -4.211847 0.536022 0.385788
v -4.212381 0.537437 0.384930
v -4.212224 0.536787 0.384187
v -4.211819 0.535715 0.384837
v -4.211847 0.536022 0.385788
v -4.212224 0.536787 0.384187
v -4.214088 0.533929 0.385144
v -4.212606 0.534461 0.385884
v -4.212395 0.534533 0.384909
v -4.213516 0.534131 0.384350
v -4.214088 0.533929 0.385144
v -4.212395 0.534533 0.384909
v -4.212606 0.534461 0.385884
v -4.214088 0.533929 0.385144
v -4.214924 0.534074 0.386398
v -4.212606 0.534461 0.385884
v -4.215554 0.534916 0.387495
v -4.214161 0.535416 0.388190
v -4.213212 0.534689 0.387252
v -4.214924 0.534074 0.386398
v -4.215554 0.534916 0.387495
v -4.213212 0.534689 0.387252
v -4.213212 0.534689 0.387252
v -4.211847 0.536022 0.385788
v -4.212606 0.534461 0.385884
v -4.213212 0.534689 0.387252
v -4.211847 0.536022 0.385788
v -4.214161 0.535416 0.388190
v -4.213447 0.536884 0.388101
v -4.212335 0.536493 0.387142
v -4.213212 0.534689 0.387252
v -4.214161 0.535416 0.388190
v -4.212335 0.536493 0.387142
v -4.212335 0.536493 0.387142
v -4.212381 0.537437 0.384930
v -4.211847 0.536022 0.385788
v -4.212335 0.536493 0.387142
v -4.212381 0.537437 0.384930
v -4.213447 0.536884 0.388101
v -4.213949 0.538215 0.387294
v -4.212952 0.538128 0.386150
v -4.212335 0.536493 0.387142
v -4.213447 0.536884 0.388101
v -4.212952 0.538128 0.386150
v -4.212952 0.538128 0.386150
v -4.213807 0.537641 0.383955
v -4.212381 0.537437 0.384930
v -4.212952 0.538128 0.386150
v -4.213807 0.537641 0.383955
v -4.213949 0.538215 0.387294
v -4.215290 0.538406 0.386378
v -4.214600 0.538363 0.385024
v -4.212952 0.538128 0.386150
v -4.213949 0.538215 0.387294
v -4.214600 0.538363 0.385024
v -4.214600 0.538363 0.385024
v -4.215051 0.536479 0.383598
v -4.213807 0.537641 0.383955
v -4.214600 0.538363 0.385024
v -4.215051 0.536479 0.383598
v -4.215290 0.538406 0.386378
v -4.216459 0.537313 0.386042
v -4.216036 0.537020 0.384612
v -4.214600 0.538363 0.385024
v -4.215290 0.538406 0.386378
v -4.216036 0.537020 0.384612
v -4.216036 0.537020 0.384612
v -4.215176 0.534827 0.384127
v -4.215051 0.536479 0.383598
v -4.216036 0.537020 0.384612
v -4.215176 0.534827 0.384127
v -4.216459 0.537313 0.386042
v -4.216577 0.535760 0.386539
v -4.216181 0.535112 0.385223
v -4.216036 0.537020 0.384612
v -4.216459 0.537313 0.386042
v -4.216181 0.535112 0.385223
v -4.216181 0.535112 0.385223
v -4.214924 0.534074 0.386398
v -4.214088 0.533929 0.385144
v -4.215176 0.534827 0.384127
v -4.216181 0.535112 0.385223
v -4.214088 0.533929 0.385144
v -4.216577 0.535760 0.386539
v -4.215554 0.534916 0.387495
v -4.214924 0.534074 0.386398
v -4.216181 0.535112 0.385223
v -4.216577 0.535760 0.386539
v -4.214924 0.534074 0.386398
v -4.215886 0.535829 0.388171
v -4.214977 0.536156 0.388624
v -4.214161 0.535416 0.388190
v -4.215554 0.534916 0.387495
v -4.215886 0.535829 0.388171
v -4.214161 0.535416 0.388190
v -4.214510 0.537114 0.388566
v -4.214977 0.536156 0.388624
v -4.214838 0.537982 0.388039
v -4.215886 0.535829 0.388171
v -4.214838 0.537982 0.388039
v -4.214977 0.536156 0.388624
v -4.215713 0.538107 0.387441
v -4.214838 0.537982 0.388039
v -4.215886 0.535829 0.388171
v -4.216553 0.536380 0.387546
v -4.215713 0.538107 0.387441
v -4.215886 0.535829 0.388171
v -4.216476 0.537394 0.387222
v -4.215713 0.538107 0.387441
v -4.216553 0.536380 0.387546
v -4.208945 0.534101 0.380479
v -4.209377 0.535247 0.379784
v -4.209560 0.532837 0.380556
v -4.210760 0.532406 0.379958
v -4.209560 0.532837 0.380556
v -4.209377 0.535247 0.379784
v -4.210532 0.535412 0.378995
v -4.210760 0.532406 0.379958
v -4.209377 0.535247 0.379784
v -4.211641 0.533134 0.379134
v -4.210760 0.532406 0.379958
v -4.210532 0.535412 0.378995
v -4.211539 0.534471 0.378705
v -4.211641 0.533134 0.379134
v -4.210532 0.535412 0.378995
vn 0.5096 -0.2973 -0.8075
vn -0.8740 -0.0361 0.4845
vn -0.4888 0.7555 0.4362
vn -0.8388 0.4286 0.3356
vn -0.5679 -0.2889 0.7707
vn -0.4888 0.7555 0.4361
vn -0.8740 -0.0362 0.4845
vn -0.5680 -0.2888 0.7707
vn -0.0876 0.6983 0.7104
vn -0.1511 -0.1392 0.9787
vn 0.0627 0.3001 0.9518
vn 0.2287 -0.5015 0.8344
vn -0.4462 -0.7437 0.4977
vn -0.2800 -0.9357 0.2145
vn -0.9417 -0.3347 0.0344
vn -0.8224 -0.4879 -0.2925
vn -0.2800 -0.9357 0.2146
vn -0.4462 -0.7438 0.4977
vn -0.0737 -0.9923 -0.0991
vn -0.8224 -0.4879 -0.2926
vn -0.5847 -0.5705 -0.5768
vn -0.0737 -0.9923 -0.0990
vn -0.8225 -0.4879 -0.2925
vn -0.8847 0.4178 -0.2066
vn -0.7600 0.3358 -0.5564
vn -0.9417 -0.3346 0.0344
vn -0.5847 -0.5704 -0.5768
vn -0.7601 0.3358 -0.5564
vn -0.5260 0.2054 -0.8253
vn -0.3181 0.9470 -0.0440
vn -0.1398 0.9151 -0.3783
vn -0.8847 0.4178 -0.2067
vn -0.3181 0.9470 -0.0439
vn -0.5259 0.2055 -0.8254
vn 0.0583 0.7512 -0.6575
vn -0.1397 0.9151 -0.3783
vn 0.3314 0.8545 0.4000
vn 0.5711 0.8138 0.1077
vn 0.3314 0.8545 0.4001
vn 0.0584 0.7512 -0.6575
vn 0.5712 0.8137 0.1077
vn 0.7281 0.6557 -0.1997
vn 0.5712 0.8138 0.1077
vn 0.5747 0.2099 0.7910
vn 0.8375 0.1081 0.5356
vn 0.3315 0.8545 0.4000
vn 0.5748 0.2099 0.7910
vn 0.9791 -0.0090 0.2034
vn 0.8376 0.1080 0.5356
vn 0.4587 -0.6705 0.5831
vn 0.8376 0.1081 0.5356
vn 0.5748 0.2098 0.7909
vn 0.2287 -0.5014 0.8344
vn 0.9791 -0.0091 0.2034
vn 0.6222 -0.7425 0.2482
vn 0.4587 -0.6705 0.5832
vn -0.4462 -0.7437 0.4978
vn 0.6222 -0.7425 0.2481
vn -0.0738 -0.9923 -0.0990
vn 0.5948 -0.7362 0.3229
vn -0.0737 -0.9924 -0.0990
vn -0.1188 -0.9924 -0.0331
vn -0.0738 -0.9924 -0.0990
vn 0.7034 0.6976 -0.1363
vn 0.9608 0.0159 0.2770
vn 0.7034 0.6976 -0.1364
vn 0.7281 0.6557 -0.1998
vn -0.5825 0.2359 -0.7779
vn 0.0167 0.7954 -0.6058
vn -0.5259 0.2055 -0.8253
vn -0.6427 -0.5598 -0.5230
vn 0.9607 0.0159 0.2770
vn 0.0166 0.7955 -0.6058
vn 0.7035 0.6975 -0.1364
vn 0.0166 0.7954 -0.6058
vn -0.6428 -0.5598 -0.5230
vn 0.3315 0.8544 0.4001
vn -0.0877 0.6983 0.7104
vn -0.8847 0.4179 -0.2066
vn -0.9417 -0.3347 0.0343
vn 0.5747 0.2098 0.7910
vn 0.5748 0.2098 0.7910
vn -0.2708 -0.9417 0.1997
vn -0.8134 -0.4936 -0.3076
vn -0.2708 -0.9417 0.1998
vn 0.8474 0.1026 0.5209
vn 0.4684 -0.6763 0.5685
vn 0.8474 0.1026 0.5210
vn -0.1304 0.9101 -0.3934
vn 0.7035 0.6975 -0.1363
vn 0.5808 0.8087 0.0928
vn -0.8134 -0.4936 -0.3077
vn -0.5825 0.2359 -0.7778
vn -0.7510 0.3304 -0.5716
vn -0.8135 -0.4936 -0.3076
vn -0.2707 -0.9417 0.1998
vn 0.4683 -0.6763 0.5685
vn 0.5809 0.8087 0.0928
vn -0.7510 0.3305 -0.5717
vn -0.7510 0.3305 -0.5716
vt 0.530319 0.611839
vt 0.522446 0.618118
vt 0.524872 0.613083
vt 0.524872 0.623154
vt 0.534683 0.615326
vt 0.530319 0.624397
vt 0.534683 0.620918
vt 0.537079 0.671494
vt 0.541916 0.669548
vt 0.539566 0.672157
vt 0.536179 0.669609
vt 0.539856 0.666756
vt 0.536224 0.667854
vt 0.537567 0.666748
vt 0.534592 0.666855
vt 0.534012 0.669838
vt 0.530777 0.669685
vt 0.535187 0.673050
vt 0.531769 0.674789
vt 0.525803 0.669067
vt 0.526108 0.676537
vt 0.539017 0.675606
vt 0.536011 0.680244
vt 0.529755 0.684982
vt 0.547180 0.674767
vt 0.546982 0.686485
vt 0.537415 0.696274
vt 0.547180 0.658051
vt 0.540527 0.663902
vt 0.539825 0.659698
vt 0.546280 0.665543
vt 0.543762 0.651657
vt 0.537613 0.655174
vt 0.536758 0.664742
vt 0.535126 0.661980
vt 0.532364 0.658463
vt 0.532074 0.665283
vt 0.528198 0.662933
vt 0.523743 0.660286
vt 0.519989 0.668175
vt 0.535217 0.651588
vt 0.529327 0.654999
vt 0.522873 0.688484
vt 0.528320 0.699394
vt 0.519577 0.678001
vt 0.540466 0.648293
vt 0.604446 0.642853
vt 0.626221 0.647896
vt 0.604553 0.648445
vt 0.626144 0.642670
vt 0.604553 0.631676
vt 0.626144 0.637444
vt 0.604446 0.637268
vt 0.626221 0.632225
vt 0.605011 0.620506
vt 0.626404 0.626999
vt 0.604736 0.626091
vt 0.626663 0.621780
vt 0.626404 0.653114
vt 0.604736 0.654030
vt 0.626663 0.658333
vt 0.605011 0.659607
s 0
usemtl decorations
f 240/1/1 239/2/1 238/3/1
f 237/1/1 236/4/1 235/2/1
f 234/5/1 233/4/1 232/1/1
f 231/5/1 230/6/1 229/4/1
f 228/6/1 227/5/1 226/7/1
s 1
f 225/8/2 224/9/3 223/10/4
f 222/11/5 221/9/6 220/8/7
f 219/11/8 218/12/9 217/9/3
f 216/13/10 215/12/9 214/11/8
f 213/12/9 212/13/10 211/14/11
f 210/15/12 209/11/8 208/16/13
f 207/15/12 206/13/10 205/11/8
f 204/17/14 203/18/15 202/19/16
f 201/17/17 200/16/18 199/18/15
f 198/20/19 197/19/20 196/21/21
f 195/20/22 194/17/17 193/19/23
f 192/19/16 191/22/24 190/23/25
f 189/19/16 188/18/26 187/22/24
f 186/21/27 185/23/28 184/24/29
f 183/21/27 3/19/16 182/23/28
f 181/23/25 180/25/30 179/26/31
f 178/23/25 177/22/32 176/25/33
f 175/24/34 174/26/31 173/27/35
f 172/24/34 4/23/25 171/26/31
f 170/28/36 169/29/37 168/30/38
f 167/28/31 166/31/33 165/29/39
f 164/32/40 163/30/41 162/33/42
f 161/32/40 13/28/31 160/30/38
f 159/30/43 158/34/44 157/35/45
f 156/30/38 155/29/46 154/34/47
f 153/33/42 152/35/45 151/36/48
f 150/33/42 14/30/41 149/35/45
f 148/35/49 147/15/12 146/37/50
f 145/35/51 144/34/52 143/15/53
f 142/36/54 141/37/50 140/38/55
f 139/36/54 16/35/45 138/37/50
f 137/37/50 136/16/18 135/17/17
f 134/37/56 133/15/12 132/16/57
f 131/38/58 130/17/17 129/20/59
f 128/38/58 36/37/56 25/17/17
f 127/39/60 126/20/61 125/40/62
f 124/39/60 123/38/55 122/20/63
f 121/41/64 120/36/48 119/42/65
f 118/41/66 117/33/67 116/36/48
f 115/43/68 114/27/35 113/44/69
f 112/43/68 111/24/70 110/27/35
f 109/40/62 108/21/21 107/45/71
f 106/40/62 40/20/22 105/21/21
f 104/42/72 103/38/55 102/39/60
f 101/42/72 41/36/48 42/38/55
f 100/46/73 99/33/67 98/41/74
f 97/46/75 37/32/40 38/33/67
f 96/45/76 95/24/70 94/43/68
f 93/45/76 33/21/21 34/24/70
f 92/29/77 91/14/11 90/34/47
f 89/29/77 88/12/78 87/14/11
f 86/22/79 85/9/3 84/25/33
f 83/22/79 82/10/4 81/9/3
f 80/16/18 79/8/2 78/18/15
f 29/16/18 30/11/5 77/8/2
f 76/31/33 75/12/9 28/29/39
f 31/31/33 26/9/3 27/12/78
f 74/18/15 73/10/4 24/22/24
f 21/18/80 22/8/2 23/10/4
f 72/34/81 71/13/10 20/15/12
f 17/34/82 18/14/11 19/13/10
f 70/47/83 69/48/76 68/49/84
f 67/47/85 66/50/62 65/48/76
f 64/51/86 63/52/60 62/53/87
f 61/51/88 60/54/72 59/52/60
f 58/55/89 57/56/90 56/57/91
f 55/55/89 54/58/75 53/56/74
f 52/49/92 51/59/93 50/60/94
f 2/49/95 32/48/71 49/59/68
f 48/53/87 47/50/62 12/47/96
f 9/53/97 10/52/60 11/50/62
f 46/57/98 45/54/72 8/51/86
f 5/57/98 6/56/90 7/54/72
f 44/60/99 43/61/73 15/62/89
f 1/60/100 35/59/68 39/61/75
