# Blender 5.0.0
# www.blender.org
mtllib Circle_005_Circle_001_Dupli_250_decorations_0.mtl
o Circle.005|Circle.001|Dupli|250_decorations_0
v -4.443461 1.042740 0.397235
v -4.444777 1.042262 0.397392
v -4.446881 1.044844 0.390284
v -4.445004 1.045526 0.390061
v -4.443556 1.045025 0.398335
v -4.445000 1.047186 0.393528
v -4.446252 1.047267 0.393928
v -4.444895 1.045112 0.398762
v -4.445926 1.044165 0.398616
v -4.447217 1.046381 0.393791
v -4.447167 1.045195 0.393221
v -4.445874 1.042896 0.398006
v -4.444229 1.047280 0.390660
v -4.445139 1.048786 0.391629
v -4.442918 1.043970 0.397655
v -4.447049 1.048910 0.392240
v -4.447310 1.049143 0.390761
v -4.447395 1.048994 0.389591
v -4.448176 1.048276 0.389480
v -4.448508 1.048043 0.390592
v -4.447173 1.045835 0.389170
v -4.447305 1.046835 0.388552
v -4.446309 1.047197 0.388434
v -4.445645 1.046389 0.388988
v -4.448446 1.045748 0.391161
v -4.445897 1.048129 0.388751
v -4.446381 1.048928 0.389266
v -4.445755 1.049043 0.390264
v -4.448447 1.046571 0.389883
v -4.448137 1.047315 0.389018
v -4.445014 1.047817 0.389475
v -4.446142 1.044603 0.392646
v -4.446450 1.044518 0.391699
v -4.444825 1.045108 0.391506
v -4.444912 1.045049 0.392500
v -4.448521 1.047558 0.392032
v -4.444154 1.046627 0.392024
v -4.444942 1.047931 0.392863
v -4.444404 1.046199 0.392892
v -4.447804 1.045301 0.392458
v -4.446596 1.048038 0.393392
v -4.447870 1.046867 0.393211
v -4.444404 1.046199 0.392892
v -4.443461 1.042740 0.397235
v -4.446252 1.047267 0.393928
v -4.443556 1.045025 0.398335
v -4.447167 1.045195 0.393221
v -4.445926 1.044165 0.398616
v -4.444912 1.045049 0.392500
v -4.443461 1.042740 0.397235
v -4.444912 1.045049 0.392500
v -4.444777 1.042262 0.397392
v -4.445000 1.047186 0.393528
v -4.444404 1.046199 0.392892
v -4.442918 1.043970 0.397655
v -4.443556 1.045025 0.398335
v -4.445000 1.047186 0.393528
v -4.442918 1.043970 0.397655
v -4.447217 1.046381 0.393791
v -4.446252 1.047267 0.393928
v -4.444895 1.045112 0.398762
v -4.445926 1.044165 0.398616
v -4.447217 1.046381 0.393791
v -4.444895 1.045112 0.398762
v -4.446142 1.044603 0.392646
v -4.447167 1.045195 0.393221
v -4.445874 1.042896 0.398006
v -4.444777 1.042262 0.397392
v -4.446142 1.044603 0.392646
v -4.445874 1.042896 0.398006
v -4.448176 1.048276 0.389480
v -4.447310 1.049143 0.390761
v -4.446309 1.047197 0.388434
v -4.447173 1.045835 0.389170
v -4.446381 1.048928 0.389266
v -4.445014 1.047817 0.389475
v -4.447305 1.046835 0.388552
v -4.447173 1.045835 0.389170
v -4.447305 1.046835 0.388552
v -4.448447 1.046571 0.389883
v -4.445897 1.048129 0.388751
v -4.446309 1.047197 0.388434
v -4.445645 1.046389 0.388988
v -4.445014 1.047817 0.389475
v -4.445897 1.048129 0.388751
v -4.445645 1.046389 0.388988
v -4.447395 1.048994 0.389591
v -4.446381 1.048928 0.389266
v -4.445755 1.049043 0.390264
v -4.447310 1.049143 0.390761
v -4.447395 1.048994 0.389591
v -4.445755 1.049043 0.390264
v -4.446142 1.044603 0.392646
v -4.444912 1.045049 0.392500
v -4.444825 1.045108 0.391506
v -4.446142 1.044603 0.392646
v -4.444404 1.046199 0.392892
v -4.445000 1.047186 0.393528
v -4.444942 1.047931 0.392863
v -4.444404 1.046199 0.392892
v -4.446252 1.047267 0.393928
v -4.447217 1.046381 0.393791
v -4.447870 1.046867 0.393211
v -4.446252 1.047267 0.393928
v -4.446450 1.044518 0.391699
v -4.447167 1.045195 0.393221
v -4.446142 1.044603 0.392646
v -4.446450 1.044518 0.391699
v -4.447167 1.045195 0.393221
v -4.444154 1.046627 0.392024
v -4.444825 1.045108 0.391506
v -4.444912 1.045049 0.392500
v -4.444404 1.046199 0.392892
v -4.444154 1.046627 0.392024
v -4.444912 1.045049 0.392500
v -4.446596 1.048038 0.393392
v -4.444942 1.047931 0.392863
v -4.445000 1.047186 0.393528
v -4.446252 1.047267 0.393928
v -4.446596 1.048038 0.393392
v -4.445000 1.047186 0.393528
v -4.447804 1.045301 0.392458
v -4.447870 1.046867 0.393211
v -4.447217 1.046381 0.393791
v -4.447167 1.045195 0.393221
v -4.447804 1.045301 0.392458
v -4.447217 1.046381 0.393791
v -4.447870 1.046867 0.393211
v -4.447804 1.045301 0.392458
v -4.448446 1.045748 0.391161
v -4.447870 1.046867 0.393211
v -4.448447 1.046571 0.389883
v -4.448508 1.048043 0.390592
v -4.448521 1.047558 0.392032
v -4.448446 1.045748 0.391161
v -4.448447 1.046571 0.389883
v -4.448521 1.047558 0.392032
v -4.448521 1.047558 0.392032
v -4.446596 1.048038 0.393392
v -4.447870 1.046867 0.393211
v -4.448521 1.047558 0.392032
v -4.446596 1.048038 0.393392
v -4.448508 1.048043 0.390592
v -4.447310 1.049143 0.390761
v -4.447049 1.048910 0.392240
v -4.448521 1.047558 0.392032
v -4.448508 1.048043 0.390592
v -4.447049 1.048910 0.392240
v -4.447049 1.048910 0.392240
v -4.444942 1.047931 0.392863
v -4.446596 1.048038 0.393392
v -4.447049 1.048910 0.392240
v -4.444942 1.047931 0.392863
v -4.447310 1.049143 0.390761
v -4.445755 1.049043 0.390264
v -4.445139 1.048786 0.391629
v -4.447049 1.048910 0.392240
v -4.447310 1.049143 0.390761
v -4.445139 1.048786 0.391629
v -4.445139 1.048786 0.391629
v -4.444154 1.046627 0.392024
v -4.444942 1.047931 0.392863
v -4.445139 1.048786 0.391629
v -4.444154 1.046627 0.392024
v -4.445755 1.049043 0.390264
v -4.445014 1.047817 0.389475
v -4.444229 1.047280 0.390660
v -4.445139 1.048786 0.391629
v -4.445755 1.049043 0.390264
v -4.444229 1.047280 0.390660
v -4.444229 1.047280 0.390660
v -4.444825 1.045108 0.391506
v -4.444154 1.046627 0.392024
v -4.444229 1.047280 0.390660
v -4.444825 1.045108 0.391506
v -4.445014 1.047817 0.389475
v -4.445645 1.046389 0.388988
v -4.445004 1.045526 0.390061
v -4.444229 1.047280 0.390660
v -4.445014 1.047817 0.389475
v -4.445004 1.045526 0.390061
v -4.445004 1.045526 0.390061
v -4.446450 1.044518 0.391699
v -4.444825 1.045108 0.391506
v -4.445004 1.045526 0.390061
v -4.446450 1.044518 0.391699
v -4.445645 1.046389 0.388988
v -4.447173 1.045835 0.389170
v -4.446881 1.044844 0.390284
v -4.445004 1.045526 0.390061
v -4.445645 1.046389 0.388988
v -4.446881 1.044844 0.390284
v -4.446881 1.044844 0.390284
v -4.448446 1.045748 0.391161
v -4.447804 1.045301 0.392458
v -4.446450 1.044518 0.391699
v -4.446881 1.044844 0.390284
v -4.447804 1.045301 0.392458
v -4.447173 1.045835 0.389170
v -4.448447 1.046571 0.389883
v -4.448446 1.045748 0.391161
v -4.446881 1.044844 0.390284
v -4.447173 1.045835 0.389170
v -4.448446 1.045748 0.391161
v -4.448137 1.047315 0.389018
v -4.448176 1.048276 0.389480
v -4.448508 1.048043 0.390592
v -4.448447 1.046571 0.389883
v -4.448137 1.047315 0.389018
v -4.448508 1.048043 0.390592
v -4.447395 1.048994 0.389591
v -4.448176 1.048276 0.389480
v -4.446381 1.048928 0.389266
v -4.448137 1.047315 0.389018
v -4.446381 1.048928 0.389266
v -4.448176 1.048276 0.389480
v -4.445897 1.048129 0.388751
v -4.446381 1.048928 0.389266
v -4.448137 1.047315 0.389018
v -4.447305 1.046835 0.388552
v -4.445897 1.048129 0.388751
v -4.448137 1.047315 0.389018
v -4.446309 1.047197 0.388434
v -4.445897 1.048129 0.388751
v -4.447305 1.046835 0.388552
v -4.444895 1.045112 0.398762
v -4.443556 1.045025 0.398335
v -4.445926 1.044165 0.398616
v -4.445874 1.042896 0.398006
v -4.445926 1.044165 0.398616
v -4.443556 1.045025 0.398335
v -4.442918 1.043970 0.397655
v -4.445874 1.042896 0.398006
v -4.443556 1.045025 0.398335
v -4.444777 1.042262 0.397392
v -4.445874 1.042896 0.398006
v -4.442918 1.043970 0.397655
v -4.443461 1.042740 0.397235
v -4.444777 1.042262 0.397392
v -4.442918 1.043970 0.397655
vn 0.2533 -0.4108 0.8758
vn -0.3099 -0.1737 -0.9348
vn 0.3359 0.4196 -0.8433
vn 0.1471 -0.0077 -0.9891
vn -0.6912 0.0466 -0.7212
vn 0.3359 0.4195 -0.8433
vn -0.3100 -0.1737 -0.9347
vn -0.6911 0.0465 -0.7212
vn 0.1142 0.7863 -0.6071
vn -0.7094 0.4872 -0.5093
vn 0.1142 0.7863 -0.6072
vn -0.3510 0.8164 -0.4585
vn -0.9133 0.4072 -0.0109
vn -0.8837 -0.3061 -0.3541
vn -0.6911 0.0466 -0.7212
vn -0.8637 -0.5032 -0.0293
vn -0.2665 -0.6628 -0.6998
vn -0.1882 -0.8935 -0.4078
vn -0.8637 -0.5031 -0.0294
vn -0.8837 -0.3062 -0.3540
vn -0.2666 -0.6628 -0.6998
vn -0.7192 -0.6272 0.2990
vn -0.1881 -0.8935 -0.4078
vn -0.0828 -0.9949 -0.0575
vn -0.1882 -0.8934 -0.4078
vn 0.4734 -0.3940 -0.7878
vn 0.6218 -0.5993 -0.5041
vn -0.0827 -0.9949 -0.0575
vn 0.6803 -0.7178 -0.1482
vn 0.7791 0.2976 -0.5517
vn 0.9564 0.1579 -0.2457
vn 0.4735 -0.3940 -0.7877
vn 0.9955 -0.0045 0.0952
vn 0.6219 -0.5993 -0.5041
vn 0.4202 0.8915 -0.1694
vn 0.5636 0.8078 0.1727
vn 0.7791 0.2977 -0.5517
vn 0.4202 0.8915 -0.1695
vn 0.9954 -0.0045 0.0952
vn 0.6254 0.6078 0.4894
vn 0.5635 0.8078 0.1727
vn -0.3330 0.9403 0.0712
vn -0.2609 0.8612 0.4362
vn -0.3330 0.9402 0.0712
vn 0.6253 0.6078 0.4894
vn -0.1513 0.6581 0.7376
vn -0.8961 0.2778 0.3462
vn -0.3330 0.9402 0.0713
vn -0.9132 0.4073 -0.0109
vn -0.1513 0.6580 0.7376
vn -0.7497 0.1085 0.6528
vn -0.8961 0.2777 0.3463
vn -0.7497 0.1084 0.6529
vn -0.8637 -0.5032 -0.0294
vn -0.7902 0.1460 0.5952
vn -0.7589 -0.6083 0.2324
vn 0.6198 0.6581 0.4276
vn -0.1766 0.7096 0.6821
vn 0.6761 -0.7012 -0.2262
vn 0.9993 0.0302 0.0234
vn -0.7589 -0.6083 0.2323
vn -0.1064 -0.9854 -0.1331
vn -0.7192 -0.6272 0.2991
vn -0.1064 -0.9854 -0.1332
vn -0.3511 0.8164 -0.4585
vn 0.4735 -0.3940 -0.7878
vn 0.1471 -0.0078 -0.9891
vn -0.8837 -0.3062 -0.3541
vn -0.2665 -0.6628 -0.6997
vn 0.4735 -0.3941 -0.7878
vn -0.3100 -0.1737 -0.9348
vn -0.8595 -0.5110 -0.0132
vn -0.1836 -0.9015 -0.3918
vn -0.2564 0.8540 0.4526
vn -0.8919 0.2703 0.3626
vn -0.2564 0.8541 0.4526
vn 0.9616 0.1504 -0.2296
vn 0.6197 0.6581 0.4276
vn 0.5686 0.8006 0.1890
vn 0.9616 0.1504 -0.2297
vn -0.1835 -0.9016 -0.3918
vn 0.6268 -0.6073 -0.4882
vn -0.1836 -0.9015 -0.3919
vn 0.5685 0.8006 0.1890
vn -0.1767 0.7096 0.6821
vn 0.5685 0.8007 0.1890
vn 0.6269 -0.6072 -0.4882
vn 0.9993 0.0302 0.0233
vt 0.543243 0.635056
vt 0.535370 0.641335
vt 0.537796 0.636299
vt 0.537796 0.646370
vt 0.547607 0.638535
vt 0.543243 0.647614
vt 0.547607 0.644127
vt 0.593674 0.671494
vt 0.598511 0.669548
vt 0.596146 0.672157
vt 0.592773 0.669609
vt 0.596436 0.666756
vt 0.592804 0.667854
vt 0.594147 0.666748
vt 0.591187 0.666855
vt 0.590591 0.669838
vt 0.587372 0.669685
vt 0.591782 0.673050
vt 0.588348 0.674789
vt 0.582382 0.669067
vt 0.582687 0.676537
vt 0.595596 0.675606
vt 0.592606 0.680244
vt 0.586334 0.684982
vt 0.603775 0.674767
vt 0.603561 0.686485
vt 0.594009 0.696274
vt 0.603775 0.658051
vt 0.597107 0.663902
vt 0.596405 0.659698
vt 0.602859 0.665543
vt 0.600342 0.651657
vt 0.594193 0.655174
vt 0.593353 0.664742
vt 0.591705 0.661980
vt 0.588959 0.658463
vt 0.588654 0.665283
vt 0.584778 0.662933
vt 0.580322 0.660286
vt 0.576584 0.668175
vt 0.591812 0.651588
vt 0.585907 0.654999
vt 0.579453 0.688484
vt 0.584915 0.699394
vt 0.576157 0.678001
vt 0.597061 0.648293
vt 0.627350 0.682632
vt 0.649124 0.687675
vt 0.627441 0.688225
vt 0.649033 0.682457
vt 0.627441 0.671455
vt 0.649033 0.677231
vt 0.627350 0.677048
vt 0.649124 0.672005
vt 0.627914 0.660294
vt 0.649292 0.666786
vt 0.627625 0.665871
vt 0.649551 0.661568
vt 0.649292 0.692902
vt 0.627625 0.693810
vt 0.649551 0.698120
vt 0.627914 0.699394
s 0
usemtl decorations
f 240/1/1 239/2/1 238/3/1
f 237/1/1 236/4/1 235/2/1
f 234/5/1 233/4/1 232/1/1
f 231/5/1 230/6/1 229/4/1
f 228/6/1 227/5/1 226/7/1
s 1
f 225/8/2 224/9/3 223/10/4
f 222/11/5 221/9/6 220/8/7
f 219/11/8 218/12/9 217/9/3
f 216/13/10 215/12/11 214/11/8
f 213/12/9 212/13/10 211/14/12
f 210/15/13 209/11/8 208/16/14
f 207/15/13 206/13/10 205/11/15
f 204/17/16 203/18/17 202/19/18
f 201/17/19 200/16/20 199/18/21
f 198/20/22 197/19/23 196/21/24
f 195/20/22 194/17/19 193/19/25
f 192/19/18 191/22/26 190/23/27
f 189/19/18 188/18/17 187/22/26
f 186/21/28 185/23/27 184/24/29
f 183/21/28 3/19/18 182/23/27
f 181/23/27 180/25/30 179/26/31
f 178/23/27 177/22/32 176/25/30
f 175/24/29 174/26/31 173/27/33
f 172/24/29 4/23/34 171/26/31
f 170/28/31 169/29/35 168/30/36
f 167/28/31 166/31/37 165/29/38
f 164/32/39 163/30/36 162/33/40
f 161/32/39 13/28/31 160/30/36
f 159/30/41 158/34/42 157/35/43
f 156/30/41 155/29/35 154/34/44
f 153/33/45 152/35/43 151/36/46
f 150/33/45 14/30/41 149/35/43
f 148/35/43 147/15/13 146/37/47
f 145/35/43 144/34/48 143/15/49
f 142/36/50 141/37/47 140/38/51
f 139/36/46 16/35/43 138/37/47
f 137/37/52 136/16/20 135/17/19
f 134/37/47 133/15/13 132/16/14
f 131/38/53 130/17/54 129/20/22
f 128/38/53 36/37/47 25/17/54
f 127/39/55 126/20/22 125/40/56
f 124/39/55 123/38/51 122/20/22
f 121/41/57 120/36/46 119/42/58
f 118/41/57 117/33/40 116/36/46
f 115/43/59 114/27/33 113/44/60
f 112/43/59 111/24/29 110/27/33
f 109/40/61 108/21/24 107/45/62
f 106/40/56 40/20/63 105/21/24
f 104/42/58 103/38/51 102/39/55
f 101/42/58 41/36/46 42/38/51
f 100/46/60 99/33/40 98/41/57
f 97/46/60 37/32/39 38/33/40
f 96/45/64 95/24/29 94/43/59
f 93/45/64 33/21/24 34/24/29
f 92/29/35 91/14/12 90/34/44
f 89/29/35 88/12/11 87/14/65
f 86/22/66 85/9/3 84/25/30
f 83/22/66 82/10/67 81/9/6
f 80/16/68 79/8/2 78/18/21
f 29/16/20 30/11/5 77/8/2
f 76/31/37 75/12/11 28/29/38
f 31/31/37 26/9/6 27/12/11
f 74/18/69 73/10/4 24/22/70
f 21/18/69 22/8/71 23/10/4
f 72/34/44 71/13/10 20/15/13
f 17/34/44 18/14/12 19/13/10
f 70/47/72 69/48/64 68/49/73
f 67/47/72 66/50/56 65/48/64
f 64/51/74 63/52/55 62/53/75
f 61/51/76 60/54/58 59/52/55
f 58/55/77 57/56/78 56/57/79
f 55/55/80 54/58/60 53/56/57
f 52/49/81 51/59/59 50/60/82
f 2/49/83 32/48/64 49/59/59
f 48/53/75 47/50/56 12/47/72
f 9/53/75 10/52/55 11/50/56
f 46/57/84 45/54/85 8/51/76
f 5/57/86 6/56/78 7/54/58
f 44/60/87 43/61/88 15/62/80
f 1/60/87 35/59/59 39/61/60
