# Blender 5.0.0
# www.blender.org
mtllib Circle_005_Circle_003_Dupli_161_decorations_0.mtl
o Circle.005|Circle.003|Dupli|161_decorations_0
v -4.368681 0.675799 0.357532
v -4.370007 0.675449 0.357208
v -4.372472 0.682861 0.357981
v -4.370582 0.683360 0.358442
v -4.368571 0.675345 0.360026
v -4.370237 0.680467 0.360949
v -4.371450 0.680035 0.361222
v -4.369868 0.674883 0.360318
v -4.370959 0.674715 0.359443
v -4.372469 0.679878 0.360403
v -4.372527 0.680113 0.359109
v -4.371020 0.674967 0.358058
v -4.369670 0.683294 0.360231
v -4.370423 0.682712 0.362001
v -4.368042 0.675753 0.358786
v -4.372275 0.682053 0.362418
v -4.372628 0.683524 0.362274
v -4.372806 0.684606 0.361830
v -4.373631 0.684478 0.361166
v -4.373894 0.683328 0.361257
v -4.372789 0.684182 0.358663
v -4.372910 0.685035 0.359473
v -4.371906 0.685300 0.359718
v -4.371250 0.684588 0.359039
v -4.373918 0.682172 0.359194
v -4.371422 0.685265 0.360668
v -4.371822 0.684956 0.361608
v -4.371121 0.684061 0.361934
v -4.373965 0.683621 0.359650
v -4.373678 0.684669 0.360117
v -4.370508 0.684534 0.360495
v -4.371579 0.680565 0.358314
v -4.371959 0.681437 0.358007
v -4.370323 0.681869 0.358407
v -4.370340 0.680892 0.358617
v -4.373830 0.681813 0.361169
v -4.369534 0.681812 0.359955
v -4.370186 0.681308 0.361487
v -4.369743 0.680849 0.359789
v -4.373210 0.680841 0.359057
v -4.371789 0.680737 0.361848
v -4.373135 0.680529 0.360767
v -4.369743 0.680849 0.359789
v -4.368681 0.675799 0.357532
v -4.371450 0.680035 0.361222
v -4.368571 0.675345 0.360026
v -4.372527 0.680113 0.359109
v -4.370959 0.674715 0.359443
v -4.370340 0.680892 0.358617
v -4.368681 0.675799 0.357532
v -4.370340 0.680892 0.358617
v -4.370007 0.675449 0.357208
v -4.370237 0.680467 0.360949
v -4.369743 0.680849 0.359789
v -4.368042 0.675753 0.358786
v -4.368571 0.675345 0.360026
v -4.370237 0.680467 0.360949
v -4.368042 0.675753 0.358786
v -4.372469 0.679878 0.360403
v -4.371450 0.680035 0.361222
v -4.369868 0.674883 0.360318
v -4.370959 0.674715 0.359443
v -4.372469 0.679878 0.360403
v -4.369868 0.674883 0.360318
v -4.371579 0.680565 0.358314
v -4.372527 0.680113 0.359109
v -4.371020 0.674967 0.358058
v -4.370007 0.675449 0.357208
v -4.371579 0.680565 0.358314
v -4.371020 0.674967 0.358058
v -4.373631 0.684478 0.361166
v -4.372628 0.683524 0.362274
v -4.371906 0.685300 0.359718
v -4.372789 0.684182 0.358663
v -4.371822 0.684956 0.361608
v -4.370508 0.684534 0.360495
v -4.372910 0.685035 0.359473
v -4.372789 0.684182 0.358663
v -4.372910 0.685035 0.359473
v -4.373965 0.683621 0.359650
v -4.371422 0.685265 0.360668
v -4.371906 0.685300 0.359718
v -4.371250 0.684588 0.359039
v -4.370508 0.684534 0.360495
v -4.371422 0.685265 0.360668
v -4.371250 0.684588 0.359039
v -4.372806 0.684606 0.361830
v -4.371822 0.684956 0.361608
v -4.371121 0.684061 0.361934
v -4.372628 0.683524 0.362274
v -4.372806 0.684606 0.361830
v -4.371121 0.684061 0.361934
v -4.371579 0.680565 0.358314
v -4.370340 0.680892 0.358617
v -4.370323 0.681869 0.358407
v -4.371579 0.680565 0.358314
v -4.369743 0.680849 0.359789
v -4.370237 0.680467 0.360949
v -4.370186 0.681308 0.361487
v -4.369743 0.680849 0.359789
v -4.371450 0.680035 0.361222
v -4.372469 0.679878 0.360403
v -4.373135 0.680529 0.360767
v -4.371450 0.680035 0.361222
v -4.371959 0.681437 0.358007
v -4.372527 0.680113 0.359109
v -4.371579 0.680565 0.358314
v -4.371959 0.681437 0.358007
v -4.372527 0.680113 0.359109
v -4.369534 0.681812 0.359955
v -4.370323 0.681869 0.358407
v -4.370340 0.680892 0.358617
v -4.369743 0.680849 0.359789
v -4.369534 0.681812 0.359955
v -4.370340 0.680892 0.358617
v -4.371789 0.680737 0.361848
v -4.370186 0.681308 0.361487
v -4.370237 0.680467 0.360949
v -4.371450 0.680035 0.361222
v -4.371789 0.680737 0.361848
v -4.370237 0.680467 0.360949
v -4.373210 0.680841 0.359057
v -4.373135 0.680529 0.360767
v -4.372469 0.679878 0.360403
v -4.372527 0.680113 0.359109
v -4.373210 0.680841 0.359057
v -4.372469 0.679878 0.360403
v -4.373135 0.680529 0.360767
v -4.373210 0.680841 0.359057
v -4.373918 0.682172 0.359194
v -4.373135 0.680529 0.360767
v -4.373965 0.683621 0.359650
v -4.373894 0.683328 0.361257
v -4.373830 0.681813 0.361169
v -4.373918 0.682172 0.359194
v -4.373965 0.683621 0.359650
v -4.373830 0.681813 0.361169
v -4.373830 0.681813 0.361169
v -4.371789 0.680737 0.361848
v -4.373135 0.680529 0.360767
v -4.373830 0.681813 0.361169
v -4.371789 0.680737 0.361848
v -4.373894 0.683328 0.361257
v -4.372628 0.683524 0.362274
v -4.372275 0.682053 0.362418
v -4.373830 0.681813 0.361169
v -4.373894 0.683328 0.361257
v -4.372275 0.682053 0.362418
v -4.372275 0.682053 0.362418
v -4.370186 0.681308 0.361487
v -4.371789 0.680737 0.361848
v -4.372275 0.682053 0.362418
v -4.370186 0.681308 0.361487
v -4.372628 0.683524 0.362274
v -4.371121 0.684061 0.361934
v -4.370423 0.682712 0.362001
v -4.372275 0.682053 0.362418
v -4.372628 0.683524 0.362274
v -4.370423 0.682712 0.362001
v -4.370423 0.682712 0.362001
v -4.369534 0.681812 0.359955
v -4.370186 0.681308 0.361487
v -4.370423 0.682712 0.362001
v -4.369534 0.681812 0.359955
v -4.371121 0.684061 0.361934
v -4.370508 0.684534 0.360495
v -4.369670 0.683294 0.360231
v -4.370423 0.682712 0.362001
v -4.371121 0.684061 0.361934
v -4.369670 0.683294 0.360231
v -4.369670 0.683294 0.360231
v -4.370323 0.681869 0.358407
v -4.369534 0.681812 0.359955
v -4.369670 0.683294 0.360231
v -4.370323 0.681869 0.358407
v -4.370508 0.684534 0.360495
v -4.371250 0.684588 0.359039
v -4.370582 0.683360 0.358442
v -4.369670 0.683294 0.360231
v -4.370508 0.684534 0.360495
v -4.370582 0.683360 0.358442
v -4.370582 0.683360 0.358442
v -4.371959 0.681437 0.358007
v -4.370323 0.681869 0.358407
v -4.370582 0.683360 0.358442
v -4.371959 0.681437 0.358007
v -4.371250 0.684588 0.359039
v -4.372789 0.684182 0.358663
v -4.372472 0.682861 0.357981
v -4.370582 0.683360 0.358442
v -4.371250 0.684588 0.359039
v -4.372472 0.682861 0.357981
v -4.372472 0.682861 0.357981
v -4.373918 0.682172 0.359194
v -4.373210 0.680841 0.359057
v -4.371959 0.681437 0.358007
v -4.372472 0.682861 0.357981
v -4.373210 0.680841 0.359057
v -4.372789 0.684182 0.358663
v -4.373965 0.683621 0.359650
v -4.373918 0.682172 0.359194
v -4.372472 0.682861 0.357981
v -4.372789 0.684182 0.358663
v -4.373918 0.682172 0.359194
v -4.373678 0.684669 0.360117
v -4.373631 0.684478 0.361166
v -4.373894 0.683328 0.361257
v -4.373965 0.683621 0.359650
v -4.373678 0.684669 0.360117
v -4.373894 0.683328 0.361257
v -4.372806 0.684606 0.361830
v -4.373631 0.684478 0.361166
v -4.371822 0.684956 0.361608
v -4.373678 0.684669 0.360117
v -4.371822 0.684956 0.361608
v -4.373631 0.684478 0.361166
v -4.371422 0.685265 0.360668
v -4.371822 0.684956 0.361608
v -4.373678 0.684669 0.360117
v -4.372910 0.685035 0.359473
v -4.371422 0.685265 0.360668
v -4.373678 0.684669 0.360117
v -4.371906 0.685300 0.359718
v -4.371422 0.685265 0.360668
v -4.372910 0.685035 0.359473
v -4.369868 0.674883 0.360318
v -4.368571 0.675345 0.360026
v -4.370959 0.674715 0.359443
v -4.371020 0.674967 0.358058
v -4.370959 0.674715 0.359443
v -4.368571 0.675345 0.360026
v -4.368042 0.675753 0.358786
v -4.371020 0.674967 0.358058
v -4.368571 0.675345 0.360026
v -4.370007 0.675449 0.357208
v -4.371020 0.674967 0.358058
v -4.368042 0.675753 0.358786
v -4.368681 0.675799 0.357532
v -4.370007 0.675449 0.357208
v -4.368042 0.675753 0.358786
vn 0.2927 -0.9383 -0.1839
vn -0.3856 0.8362 -0.3899
vn 0.2969 0.9417 0.1584
vn 0.0748 0.9578 -0.2774
vn -0.7378 0.6684 -0.0943
vn 0.2969 0.9417 0.1583
vn -0.3857 0.8362 -0.3899
vn -0.7377 0.6685 -0.0944
vn 0.1133 0.8000 0.5892
vn -0.7164 0.5809 0.3866
vn -0.7164 0.5809 0.3865
vn -0.3376 0.6394 0.6908
vn -0.8878 0.0688 0.4550
vn -0.9225 0.2106 -0.3236
vn -0.8879 0.0688 0.4550
vn -0.7163 0.5809 0.3866
vn -0.8900 -0.1533 -0.4295
vn -0.3524 0.4822 -0.8020
vn -0.2661 0.1441 -0.9531
vn -0.8900 -0.1532 -0.4294
vn -0.9224 0.2106 -0.3236
vn -0.3525 0.4822 -0.8020
vn -0.7292 -0.4943 -0.4732
vn -0.2660 0.1441 -0.9531
vn -0.1414 -0.2142 -0.9665
vn -0.2661 0.1442 -0.9531
vn 0.3930 0.6791 -0.6200
vn 0.5499 0.3596 -0.7539
vn -0.3524 0.4822 -0.8021
vn 0.6272 -0.0112 -0.7788
vn 0.7525 0.6530 0.0854
vn 0.9434 0.3310 0.0184
vn 0.6272 -0.0113 -0.7787
vn 0.9980 -0.0381 -0.0513
vn 0.6272 -0.0112 -0.7787
vn 0.5499 0.3596 -0.7538
vn 0.9435 0.3310 0.0184
vn 0.4554 0.4236 0.7831
vn 0.6182 0.0799 0.7819
vn 0.7525 0.6530 0.0855
vn 0.4554 0.4236 0.7830
vn 0.9980 -0.0382 -0.0513
vn 0.6916 -0.2747 0.6680
vn 0.6182 0.0800 0.7819
vn -0.2746 0.1636 0.9475
vn -0.1809 -0.2047 0.9620
vn 0.4554 0.4235 0.7831
vn -0.0612 -0.5428 0.8376
vn -0.8521 -0.3084 0.4228
vn -0.0613 -0.5428 0.8376
vn -0.6935 -0.6405 0.3298
vn -0.8521 -0.3085 0.4228
vn -0.8900 -0.1532 -0.4295
vn -0.6935 -0.6406 0.3297
vn -0.8521 -0.3084 0.4229
vn -0.7360 -0.5773 0.3537
vn -0.7292 -0.4943 -0.4731
vn -0.7726 -0.4273 -0.4696
vn -0.6935 -0.6405 0.3297
vn 0.6843 -0.2021 0.7006
vn -0.0876 -0.4771 0.8745
vn 0.6184 0.0681 -0.7829
vn 0.9985 0.0404 -0.0370
vn 0.6184 0.0680 -0.7829
vn -0.1415 -0.2142 -0.9665
vn -0.1699 -0.1402 -0.9754
vn -0.7292 -0.4944 -0.4732
vn -0.0876 -0.4770 0.8745
vn 0.9985 0.0405 -0.0370
vn 0.6843 -0.2022 0.7006
vn -0.1698 -0.1401 -0.9755
vn -0.3377 0.6394 0.6908
vn 0.3930 0.6791 -0.6199
vn 0.2968 0.9417 0.1583
vn 0.0748 0.9578 -0.2775
vn -0.9224 0.2106 -0.3237
vn -0.3856 0.8362 -0.3898
vn -0.2747 0.1636 0.9475
vn -0.8850 -0.1706 -0.4331
vn -0.1699 -0.1401 -0.9755
vn -0.2608 0.1268 -0.9570
vn -0.8851 -0.1706 -0.4331
vn -0.7726 -0.4274 -0.4696
vn -0.1756 -0.2222 0.9591
vn -0.8471 -0.3259 0.4197
vn -0.1756 -0.2221 0.9591
vn 0.9494 0.3138 0.0150
vn 0.6240 0.0626 0.7789
vn 0.9493 0.3139 0.0150
vn -0.2607 0.1268 -0.9570
vn 0.6183 0.0681 -0.7830
vn 0.5556 0.3424 -0.7577
vn -0.2608 0.1269 -0.9570
vn -0.1698 -0.1402 -0.9755
vn 0.6183 0.0680 -0.7830
vn -0.8471 -0.3259 0.4196
vn -0.8472 -0.3259 0.4197
vn 0.6239 0.0626 0.7790
vn 0.9494 0.3139 0.0150
vn 0.5556 0.3425 -0.7576
vn 0.6184 0.0680 -0.7830
vn 0.9985 0.0404 -0.0371
vt 0.530319 0.611839
vt 0.522446 0.618118
vt 0.524872 0.613083
vt 0.524872 0.623154
vt 0.534683 0.615326
vt 0.530319 0.624397
vt 0.534683 0.620918
vt 0.537079 0.671494
vt 0.541916 0.669548
vt 0.539566 0.672157
vt 0.536179 0.669609
vt 0.539856 0.666756
vt 0.536224 0.667854
vt 0.537567 0.666748
vt 0.534592 0.666855
vt 0.534012 0.669838
vt 0.530777 0.669685
vt 0.535187 0.673050
vt 0.531769 0.674789
vt 0.525803 0.669067
vt 0.526108 0.676537
vt 0.539017 0.675606
vt 0.536011 0.680244
vt 0.529755 0.684982
vt 0.547180 0.674767
vt 0.546982 0.686485
vt 0.537415 0.696274
vt 0.547180 0.658051
vt 0.540527 0.663902
vt 0.539825 0.659698
vt 0.546280 0.665543
vt 0.543762 0.651657
vt 0.537613 0.655174
vt 0.536758 0.664742
vt 0.535126 0.661980
vt 0.532364 0.658463
vt 0.532074 0.665283
vt 0.528198 0.662933
vt 0.523743 0.660286
vt 0.519989 0.668175
vt 0.535217 0.651588
vt 0.529327 0.654999
vt 0.522873 0.688484
vt 0.528320 0.699394
vt 0.519577 0.678001
vt 0.540466 0.648293
vt 0.604446 0.642853
vt 0.626221 0.647896
vt 0.604553 0.648445
vt 0.626144 0.642670
vt 0.604553 0.631676
vt 0.626144 0.637444
vt 0.604446 0.637268
vt 0.626221 0.632225
vt 0.605011 0.620506
vt 0.626404 0.626999
vt 0.604736 0.626091
vt 0.626663 0.621780
vt 0.626404 0.653114
vt 0.604736 0.654030
vt 0.626663 0.658333
vt 0.605011 0.659607
s 0
usemtl decorations
f 240/1/1 239/2/1 238/3/1
f 237/1/1 236/4/1 235/2/1
f 234/5/1 233/4/1 232/1/1
f 231/5/1 230/6/1 229/4/1
f 228/6/1 227/5/1 226/7/1
s 1
f 225/8/2 224/9/3 223/10/4
f 222/11/5 221/9/6 220/8/7
f 219/11/8 218/12/9 217/9/3
f 216/13/10 215/12/9 214/11/8
f 213/12/9 212/13/11 211/14/12
f 210/15/13 209/11/8 208/16/14
f 207/15/15 206/13/16 205/11/8
f 204/17/17 203/18/18 202/19/19
f 201/17/20 200/16/21 199/18/22
f 198/20/23 197/19/24 196/21/25
f 195/20/23 194/17/20 193/19/26
f 192/19/19 191/22/27 190/23/28
f 189/19/19 188/18/29 187/22/27
f 186/21/25 185/23/28 184/24/30
f 183/21/25 3/19/19 182/23/28
f 181/23/28 180/25/31 179/26/32
f 178/23/28 177/22/27 176/25/31
f 175/24/33 174/26/32 173/27/34
f 172/24/35 4/23/36 171/26/32
f 170/28/37 169/29/38 168/30/39
f 167/28/32 166/31/40 165/29/41
f 164/32/42 163/30/39 162/33/43
f 161/32/42 13/28/32 160/30/44
f 159/30/39 158/34/45 157/35/46
f 156/30/39 155/29/47 154/34/45
f 153/33/43 152/35/46 151/36/48
f 150/33/43 14/30/39 149/35/46
f 148/35/46 147/15/13 146/37/49
f 145/35/46 144/34/45 143/15/13
f 142/36/50 141/37/49 140/38/51
f 139/36/50 16/35/46 138/37/49
f 137/37/52 136/16/14 135/17/53
f 134/37/49 133/15/13 132/16/14
f 131/38/54 130/17/53 129/20/23
f 128/38/54 36/37/55 25/17/53
f 127/39/56 126/20/57 125/40/58
f 124/39/56 123/38/59 122/20/57
f 121/41/60 120/36/48 119/42/61
f 118/41/60 117/33/43 116/36/48
f 115/43/62 114/27/34 113/44/63
f 112/43/64 111/24/35 110/27/34
f 109/40/58 108/21/65 107/45/66
f 106/40/58 40/20/67 105/21/65
f 104/42/68 103/38/51 102/39/56
f 101/42/61 41/36/48 42/38/51
f 100/46/69 99/33/43 98/41/70
f 97/46/63 37/32/34 38/33/43
f 96/45/71 95/24/30 94/43/64
f 93/45/71 33/21/25 34/24/30
f 92/29/47 91/14/12 90/34/45
f 89/29/47 88/12/9 87/14/72
f 86/22/73 85/9/74 84/25/31
f 83/22/73 82/10/75 81/9/74
f 80/16/76 79/8/2 78/18/22
f 29/16/76 30/11/5 77/8/2
f 76/31/40 75/12/9 28/29/38
f 31/31/40 26/9/74 27/12/9
f 74/18/29 73/10/4 24/22/27
f 21/18/29 22/8/77 23/10/4
f 72/34/78 71/13/11 20/15/13
f 17/34/78 18/14/12 19/13/16
f 70/47/79 69/48/80 68/49/81
f 67/47/82 66/50/83 65/48/80
f 64/51/84 63/52/56 62/53/85
f 61/51/86 60/54/61 59/52/56
f 58/55/87 57/56/70 56/57/88
f 55/55/89 54/58/63 53/56/70
f 52/49/90 51/59/91 50/60/92
f 2/49/93 32/48/94 49/59/95
f 48/53/96 47/50/58 12/47/82
f 9/53/97 10/52/56 11/50/58
f 46/57/88 45/54/61 8/51/86
f 5/57/98 6/56/70 7/54/61
f 44/60/92 43/61/69 15/62/99
f 1/60/100 35/59/101 39/61/102
