# Blender 5.0.0
# www.blender.org
mtllib Circle_002_Circle_Dupli_203_decorations_0.mtl
o Circle.002|Circle|Dupli|203_decorations_0
v -4.311045 1.680285 0.707728
v -4.310321 1.679798 0.706622
v -4.316220 1.681368 0.701688
v -4.317253 1.682062 0.703266
v -4.312107 1.678184 0.708677
v -4.316410 1.678981 0.705404
v -4.315979 1.678041 0.704589
v -4.311645 1.677179 0.707805
v -4.310802 1.677307 0.706684
v -4.315190 1.678162 0.703541
v -4.314640 1.679252 0.703049
v -4.310213 1.678473 0.706158
v -4.318387 1.681037 0.704570
v -4.318768 1.679065 0.704619
v -4.311840 1.679566 0.708642
v -4.318109 1.677630 0.703375
v -4.319139 1.678234 0.702435
v -4.319723 1.678980 0.701726
v -4.319084 1.679077 0.700876
v -4.318161 1.678384 0.701134
v -4.317602 1.681276 0.701062
v -4.318719 1.680964 0.700830
v -4.319268 1.681333 0.701667
v -4.318442 1.681841 0.702346
v -4.316066 1.679477 0.701025
v -4.319870 1.680789 0.702360
v -4.320072 1.679741 0.702386
v -4.319675 1.679402 0.703447
v -4.317477 1.679737 0.700523
v -4.318637 1.679960 0.700477
v -4.319365 1.681006 0.703408
v -4.314741 1.680490 0.703484
v -4.315193 1.680947 0.702718
v -4.316087 1.681548 0.704083
v -4.315417 1.680945 0.704517
v -4.316907 1.677814 0.701776
v -4.317068 1.680660 0.705212
v -4.317398 1.678953 0.705255
v -4.316160 1.680274 0.705372
v -4.315060 1.679310 0.702144
v -4.316828 1.677712 0.704178
v -4.315787 1.677871 0.702794
v -4.316160 1.680274 0.705372
v -4.311045 1.680285 0.707728
v -4.315979 1.678041 0.704589
v -4.312107 1.678184 0.708677
v -4.314640 1.679252 0.703049
v -4.310802 1.677307 0.706684
v -4.315417 1.680945 0.704517
v -4.311045 1.680285 0.707728
v -4.315417 1.680945 0.704517
v -4.310321 1.679798 0.706622
v -4.316410 1.678981 0.705404
v -4.316160 1.680274 0.705372
v -4.311840 1.679566 0.708642
v -4.312107 1.678184 0.708677
v -4.316410 1.678981 0.705404
v -4.311840 1.679566 0.708642
v -4.315190 1.678162 0.703541
v -4.315979 1.678041 0.704589
v -4.311645 1.677179 0.707805
v -4.310802 1.677307 0.706684
v -4.315190 1.678162 0.703541
v -4.311645 1.677179 0.707805
v -4.314741 1.680490 0.703484
v -4.314640 1.679252 0.703049
v -4.310213 1.678473 0.706158
v -4.310321 1.679798 0.706622
v -4.314741 1.680490 0.703484
v -4.310213 1.678473 0.706158
v -4.319084 1.679077 0.700876
v -4.319139 1.678234 0.702435
v -4.319268 1.681333 0.701667
v -4.317602 1.681276 0.701062
v -4.320072 1.679741 0.702386
v -4.319365 1.681006 0.703408
v -4.318719 1.680964 0.700830
v -4.317602 1.681276 0.701062
v -4.318719 1.680964 0.700830
v -4.317477 1.679737 0.700523
v -4.319870 1.680789 0.702360
v -4.319268 1.681333 0.701667
v -4.318442 1.681841 0.702346
v -4.319365 1.681006 0.703408
v -4.319870 1.680789 0.702360
v -4.318442 1.681841 0.702346
v -4.319723 1.678980 0.701726
v -4.320072 1.679741 0.702386
v -4.319675 1.679402 0.703447
v -4.319139 1.678234 0.702435
v -4.319723 1.678980 0.701726
v -4.319675 1.679402 0.703447
v -4.314741 1.680490 0.703484
v -4.315417 1.680945 0.704517
v -4.316087 1.681548 0.704083
v -4.314741 1.680490 0.703484
v -4.316160 1.680274 0.705372
v -4.316410 1.678981 0.705404
v -4.317398 1.678953 0.705255
v -4.316160 1.680274 0.705372
v -4.315979 1.678041 0.704589
v -4.315190 1.678162 0.703541
v -4.315787 1.677871 0.702794
v -4.315979 1.678041 0.704589
v -4.315193 1.680947 0.702718
v -4.314640 1.679252 0.703049
v -4.314741 1.680490 0.703484
v -4.315193 1.680947 0.702718
v -4.314640 1.679252 0.703049
v -4.317068 1.680660 0.705212
v -4.316087 1.681548 0.704083
v -4.315417 1.680945 0.704517
v -4.316160 1.680274 0.705372
v -4.317068 1.680660 0.705212
v -4.315417 1.680945 0.704517
v -4.316828 1.677712 0.704178
v -4.317398 1.678953 0.705255
v -4.316410 1.678981 0.705404
v -4.315979 1.678041 0.704589
v -4.316828 1.677712 0.704178
v -4.316410 1.678981 0.705404
v -4.315060 1.679310 0.702144
v -4.315787 1.677871 0.702794
v -4.315190 1.678162 0.703541
v -4.314640 1.679252 0.703049
v -4.315060 1.679310 0.702144
v -4.315190 1.678162 0.703541
v -4.315787 1.677871 0.702794
v -4.315060 1.679310 0.702144
v -4.316066 1.679477 0.701025
v -4.315787 1.677871 0.702794
v -4.317477 1.679737 0.700523
v -4.318161 1.678384 0.701134
v -4.316907 1.677814 0.701776
v -4.316066 1.679477 0.701025
v -4.317477 1.679737 0.700523
v -4.316907 1.677814 0.701776
v -4.316907 1.677814 0.701776
v -4.316828 1.677712 0.704178
v -4.315787 1.677871 0.702794
v -4.316907 1.677814 0.701776
v -4.316828 1.677712 0.704178
v -4.318161 1.678384 0.701134
v -4.319139 1.678234 0.702435
v -4.318109 1.677630 0.703375
v -4.316907 1.677814 0.701776
v -4.318161 1.678384 0.701134
v -4.318109 1.677630 0.703375
v -4.318109 1.677630 0.703375
v -4.317398 1.678953 0.705255
v -4.316828 1.677712 0.704178
v -4.318109 1.677630 0.703375
v -4.317398 1.678953 0.705255
v -4.319139 1.678234 0.702435
v -4.319675 1.679402 0.703447
v -4.318768 1.679065 0.704619
v -4.318109 1.677630 0.703375
v -4.319139 1.678234 0.702435
v -4.318768 1.679065 0.704619
v -4.318768 1.679065 0.704619
v -4.317068 1.680660 0.705212
v -4.317398 1.678953 0.705255
v -4.318768 1.679065 0.704619
v -4.317068 1.680660 0.705212
v -4.319675 1.679402 0.703447
v -4.319365 1.681006 0.703408
v -4.318387 1.681037 0.704570
v -4.318768 1.679065 0.704619
v -4.319675 1.679402 0.703447
v -4.318387 1.681037 0.704570
v -4.318387 1.681037 0.704570
v -4.316087 1.681548 0.704083
v -4.317068 1.680660 0.705212
v -4.318387 1.681037 0.704570
v -4.316087 1.681548 0.704083
v -4.319365 1.681006 0.703408
v -4.318442 1.681841 0.702346
v -4.317253 1.682062 0.703266
v -4.318387 1.681037 0.704570
v -4.319365 1.681006 0.703408
v -4.317253 1.682062 0.703266
v -4.317253 1.682062 0.703266
v -4.315193 1.680947 0.702718
v -4.316087 1.681548 0.704083
v -4.317253 1.682062 0.703266
v -4.315193 1.680947 0.702718
v -4.318442 1.681841 0.702346
v -4.317602 1.681276 0.701062
v -4.316220 1.681368 0.701688
v -4.317253 1.682062 0.703266
v -4.318442 1.681841 0.702346
v -4.316220 1.681368 0.701688
v -4.316220 1.681368 0.701688
v -4.316066 1.679477 0.701025
v -4.315060 1.679310 0.702144
v -4.315193 1.680947 0.702718
v -4.316220 1.681368 0.701688
v -4.315060 1.679310 0.702144
v -4.317602 1.681276 0.701062
v -4.317477 1.679737 0.700523
v -4.316066 1.679477 0.701025
v -4.316220 1.681368 0.701688
v -4.317602 1.681276 0.701062
v -4.316066 1.679477 0.701025
v -4.318637 1.679960 0.700477
v -4.319084 1.679077 0.700876
v -4.318161 1.678384 0.701134
v -4.317477 1.679737 0.700523
v -4.318637 1.679960 0.700477
v -4.318161 1.678384 0.701134
v -4.319723 1.678980 0.701726
v -4.319084 1.679077 0.700876
v -4.320072 1.679741 0.702386
v -4.318637 1.679960 0.700477
v -4.320072 1.679741 0.702386
v -4.319084 1.679077 0.700876
v -4.319870 1.680789 0.702360
v -4.320072 1.679741 0.702386
v -4.318637 1.679960 0.700477
v -4.318719 1.680964 0.700830
v -4.319870 1.680789 0.702360
v -4.318637 1.679960 0.700477
v -4.319268 1.681333 0.701667
v -4.319870 1.680789 0.702360
v -4.318719 1.680964 0.700830
v -4.311645 1.677179 0.707805
v -4.312107 1.678184 0.708677
v -4.310802 1.677307 0.706684
v -4.310213 1.678473 0.706158
v -4.310802 1.677307 0.706684
v -4.312107 1.678184 0.708677
v -4.311840 1.679566 0.708642
v -4.310213 1.678473 0.706158
v -4.312107 1.678184 0.708677
v -4.310321 1.679798 0.706622
v -4.310213 1.678473 0.706158
v -4.311840 1.679566 0.708642
v -4.311045 1.680285 0.707728
v -4.310321 1.679798 0.706622
v -4.311840 1.679566 0.708642
vn 0.7991 -0.1400 0.5847
vn -0.3758 0.5025 -0.7786
vn -0.9034 0.4219 -0.0768
vn -0.6272 0.6715 -0.3945
vn -0.3383 0.0421 -0.9401
vn -0.3758 0.5025 -0.7787
vn -0.3383 0.0422 -0.9401
vn -0.9962 -0.0584 -0.0649
vn -0.5430 -0.3630 -0.7572
vn -0.5430 -0.3629 -0.7573
vn -0.8358 -0.4077 -0.3678
vn -0.1368 -0.7176 -0.6829
vn 0.1946 -0.0619 -0.9789
vn -0.5430 -0.3629 -0.7572
vn 0.5399 -0.1249 -0.8324
vn 0.1339 0.6835 -0.7175
vn 0.4734 0.6909 -0.5463
vn 0.5398 -0.1249 -0.8325
vn 0.1946 -0.0618 -0.9789
vn 0.1339 0.6835 -0.7176
vn 0.8066 -0.1699 -0.5661
vn 0.4734 0.6910 -0.5463
vn 0.7440 0.5987 -0.2966
vn 0.4733 0.6910 -0.5464
vn -0.2732 0.9572 -0.0956
vn 0.0277 0.9905 0.1345
vn 0.7440 0.5987 -0.2965
vn 0.3242 0.8809 0.3448
vn 0.7440 0.5988 -0.2965
vn -0.7202 0.5531 0.4188
vn -0.4616 0.5482 0.6975
vn -0.2732 0.9572 -0.0955
vn -0.7203 0.5531 0.4187
vn -0.1368 0.4642 0.8751
vn -0.4616 0.5481 0.6975
vn -0.8705 -0.2245 0.4380
vn -0.6261 -0.3029 0.7185
vn -0.6260 -0.3030 0.7185
vn -0.2918 -0.3376 0.8949
vn -0.6109 -0.7900 -0.0523
vn -0.3418 -0.9220 0.1819
vn -0.2917 -0.3376 0.8950
vn -0.0240 -0.9208 0.3894
vn -0.6261 -0.3030 0.7185
vn -0.3418 -0.9220 0.1818
vn -0.1368 -0.7176 -0.6828
vn 0.1770 -0.8427 -0.5084
vn -0.6108 -0.7900 -0.0523
vn -0.1369 -0.7176 -0.6829
vn -0.0239 -0.9208 0.3894
vn 0.4648 -0.8461 -0.2608
vn 0.1771 -0.8427 -0.5084
vn 0.5398 -0.1249 -0.8324
vn 0.4649 -0.8461 -0.2608
vn 0.8066 -0.1699 -0.5662
vn 0.4089 -0.8557 -0.3171
vn 0.7594 -0.1623 -0.6301
vn 0.4089 -0.8557 -0.3170
vn 0.4648 -0.8461 -0.2609
vn -0.3669 -0.3343 0.8681
vn -0.0923 -0.9323 0.3497
vn 0.2646 0.9152 0.3040
vn -0.2080 0.4878 0.8478
vn 0.2647 0.9152 0.3040
vn 0.6952 0.6258 -0.3537
vn -0.2080 0.4879 0.8478
vn -0.3668 -0.3343 0.8681
vn -0.8705 -0.2246 0.4380
vn -0.2733 0.9572 -0.0955
vn -0.7202 0.5531 0.4187
vn 0.1947 -0.0618 -0.9789
vn 0.1340 0.6835 -0.7175
vn -0.6272 0.6715 -0.3944
vn 0.5549 -0.1275 -0.8221
vn 0.4884 0.6887 -0.5358
vn -0.3272 -0.9251 0.1927
vn 0.1919 -0.8458 -0.4978
vn -0.4471 0.5458 0.7087
vn -0.3669 -0.3344 0.8681
vn -0.6116 -0.3057 0.7297
vn -0.4471 0.5458 0.7086
vn 0.4884 0.6888 -0.5358
vn 0.0425 0.9885 0.1454
vn 0.5549 -0.1276 -0.8221
vn 0.1919 -0.8458 -0.4979
vn -0.3272 -0.9251 0.1928
vn -0.4471 0.5459 0.7086
vt 0.543243 0.611839
vt 0.535370 0.618118
vt 0.537796 0.613083
vt 0.537796 0.623154
vt 0.547607 0.615326
vt 0.543243 0.624397
vt 0.547607 0.620918
vt 0.565384 0.671494
vt 0.570206 0.669548
vt 0.567856 0.672157
vt 0.564468 0.669609
vt 0.568146 0.666756
vt 0.564514 0.667854
vt 0.565857 0.666748
vt 0.562897 0.666855
vt 0.562302 0.669838
vt 0.559082 0.669685
vt 0.563492 0.673050
vt 0.560059 0.674789
vt 0.554092 0.669067
vt 0.554398 0.676537
vt 0.567307 0.675606
vt 0.564316 0.680244
vt 0.558044 0.684982
vt 0.575485 0.674767
vt 0.575272 0.686485
vt 0.565720 0.696274
vt 0.575485 0.658051
vt 0.568817 0.663902
vt 0.568115 0.659698
vt 0.574570 0.665543
vt 0.572052 0.651657
vt 0.565903 0.655174
vt 0.565063 0.664742
vt 0.563416 0.661980
vt 0.560669 0.658463
vt 0.560364 0.665283
vt 0.556488 0.662933
vt 0.552032 0.660286
vt 0.548294 0.668175
vt 0.563522 0.651588
vt 0.557617 0.654999
vt 0.551163 0.688484
vt 0.556610 0.699394
vt 0.547867 0.678001
vt 0.568756 0.648293
vt 0.604446 0.682632
vt 0.626221 0.687675
vt 0.604553 0.688225
vt 0.626144 0.682457
vt 0.604553 0.671455
vt 0.626144 0.677231
vt 0.604446 0.677048
vt 0.626221 0.672005
vt 0.605011 0.660294
vt 0.626404 0.666786
vt 0.604736 0.665871
vt 0.626663 0.661568
vt 0.626404 0.692902
vt 0.604736 0.693810
vt 0.626663 0.698120
vt 0.605011 0.699394
s 0
usemtl decorations
f 240/1/1 239/2/1 238/3/1
f 237/1/1 236/4/1 235/2/1
f 234/5/1 233/4/1 232/1/1
f 231/5/1 230/6/1 229/4/1
f 228/6/1 227/5/1 226/7/1
s 1
f 225/8/2 224/9/3 223/10/4
f 222/11/5 221/9/3 220/8/6
f 219/11/7 218/12/8 217/9/3
f 216/13/9 215/12/8 214/11/5
f 213/12/8 212/13/10 211/14/11
f 210/15/12 209/11/5 208/16/13
f 207/15/12 206/13/14 205/11/5
f 204/17/15 203/18/16 202/19/17
f 201/17/18 200/16/19 199/18/20
f 198/20/21 197/19/22 196/21/23
f 195/20/21 194/17/18 193/19/24
f 192/19/22 191/22/25 190/23/26
f 189/19/17 188/18/16 187/22/25
f 186/21/27 185/23/26 184/24/28
f 183/21/29 3/19/22 182/23/26
f 181/23/26 180/25/30 179/26/31
f 178/23/26 177/22/32 176/25/33
f 175/24/28 174/26/31 173/27/34
f 172/24/28 4/23/26 171/26/31
f 170/28/35 169/29/36 168/30/37
f 167/28/35 166/31/30 165/29/36
f 164/32/34 163/30/38 162/33/39
f 161/32/34 13/28/35 160/30/37
f 159/30/37 158/34/40 157/35/41
f 156/30/37 155/29/36 154/34/40
f 153/33/42 152/35/41 151/36/43
f 150/33/42 14/30/44 149/35/41
f 148/35/45 147/15/46 146/37/47
f 145/35/45 144/34/48 143/15/49
f 142/36/50 141/37/47 140/38/51
f 139/36/50 16/35/41 138/37/47
f 137/37/52 136/16/13 135/17/53
f 134/37/47 133/15/12 132/16/13
f 131/38/54 130/17/15 129/20/55
f 128/38/54 36/37/47 25/17/15
f 127/39/56 126/20/55 125/40/57
f 124/39/58 123/38/59 122/20/55
f 121/41/60 120/36/43 119/42/61
f 118/41/60 117/33/42 116/36/43
f 115/43/62 114/27/34 113/44/63
f 112/43/64 111/24/28 110/27/34
f 109/40/57 108/21/23 107/45/65
f 106/40/57 40/20/21 105/21/23
f 104/42/61 103/38/51 102/39/58
f 101/42/61 41/36/43 42/38/51
f 100/46/66 99/33/42 98/41/67
f 97/46/66 37/32/34 38/33/42
f 96/45/65 95/24/28 94/43/64
f 93/45/65 33/21/23 34/24/28
f 92/29/36 91/14/11 90/34/40
f 89/29/68 88/12/8 87/14/11
f 86/22/69 85/9/3 84/25/70
f 83/22/69 82/10/4 81/9/3
f 80/16/71 79/8/2 78/18/20
f 29/16/71 30/11/5 77/8/2
f 76/31/33 75/12/8 28/29/36
f 31/31/33 26/9/3 27/12/8
f 74/18/72 73/10/73 24/22/32
f 21/18/72 22/8/2 23/10/4
f 72/34/40 71/13/14 20/15/12
f 17/34/40 18/14/11 19/13/14
f 70/47/74 69/48/65 68/49/75
f 67/47/74 66/50/57 65/48/65
f 64/51/76 63/52/56 62/53/77
f 61/51/76 60/54/61 59/52/58
f 58/55/78 57/56/79 56/57/80
f 55/55/81 54/58/66 53/56/67
f 52/49/82 51/59/64 50/60/83
f 2/49/82 32/48/65 49/59/64
f 48/53/77 47/50/57 12/47/84
f 9/53/85 10/52/58 11/50/57
f 46/57/80 45/54/61 8/51/86
f 5/57/80 6/56/79 7/54/61
f 44/60/83 43/61/66 15/62/87
f 1/60/83 35/59/64 39/61/66
