# Blender 5.0.0
# www.blender.org
mtllib Circle_005_Circle_001_Dupli_282_decorations_0.mtl
o Circle.005|Circle.001|Dupli|282_decorations_0
v -4.521570 1.695947 0.743694
v -4.522910 1.696332 0.743888
v -4.521969 1.702852 0.739620
v -4.520056 1.702302 0.739343
v -4.520413 1.696867 0.745757
v -4.519541 1.701549 0.743077
v -4.520527 1.702122 0.743734
v -4.521468 1.697480 0.746460
v -4.522829 1.697562 0.746107
v -4.521800 1.702199 0.743404
v -4.522399 1.701721 0.742333
v -4.523470 1.697051 0.744962
v -4.518471 1.702642 0.740530
v -4.518406 1.703615 0.742286
v -4.520458 1.696185 0.744526
v -4.519911 1.704490 0.743290
v -4.519761 1.705553 0.742214
v -4.519751 1.706114 0.741172
v -4.520782 1.706176 0.740904
v -4.521341 1.705648 0.741803
v -4.521436 1.704220 0.739228
v -4.520844 1.705244 0.739223
v -4.519827 1.704952 0.739076
v -4.519879 1.703772 0.739002
v -4.522768 1.703877 0.741152
v -4.518986 1.705132 0.739707
v -4.518951 1.705649 0.740639
v -4.518537 1.704841 0.741397
v -4.522086 1.705054 0.740474
v -4.521268 1.705788 0.740037
v -4.518589 1.704049 0.739968
v -4.521876 1.701049 0.741330
v -4.522032 1.701665 0.740558
v -4.520377 1.701189 0.740319
v -4.520623 1.700689 0.741148
v -4.521852 1.704606 0.742785
v -4.519004 1.701483 0.741346
v -4.518949 1.702326 0.742866
v -4.519584 1.700911 0.741926
v -4.522724 1.702553 0.741884
v -4.520251 1.703083 0.743735
v -4.521932 1.703184 0.743298
v -4.519584 1.700911 0.741926
v -4.521570 1.695947 0.743694
v -4.520527 1.702122 0.743734
v -4.520413 1.696867 0.745757
v -4.522399 1.701721 0.742333
v -4.522829 1.697562 0.746107
v -4.520623 1.700689 0.741148
v -4.521570 1.695947 0.743694
v -4.520623 1.700689 0.741148
v -4.522910 1.696332 0.743888
v -4.519541 1.701549 0.743077
v -4.519584 1.700911 0.741926
v -4.520458 1.696185 0.744526
v -4.520413 1.696867 0.745757
v -4.519541 1.701549 0.743077
v -4.520458 1.696185 0.744526
v -4.521800 1.702199 0.743404
v -4.520527 1.702122 0.743734
v -4.521468 1.697480 0.746460
v -4.522829 1.697562 0.746107
v -4.521800 1.702199 0.743404
v -4.521468 1.697480 0.746460
v -4.521876 1.701049 0.741330
v -4.522399 1.701721 0.742333
v -4.523470 1.697051 0.744962
v -4.522910 1.696332 0.743888
v -4.521876 1.701049 0.741330
v -4.523470 1.697051 0.744962
v -4.520782 1.706176 0.740904
v -4.519761 1.705553 0.742214
v -4.519827 1.704952 0.739076
v -4.521436 1.704220 0.739228
v -4.518951 1.705649 0.740639
v -4.518589 1.704049 0.739968
v -4.520844 1.705244 0.739223
v -4.521436 1.704220 0.739228
v -4.520844 1.705244 0.739223
v -4.522086 1.705054 0.740474
v -4.518986 1.705132 0.739707
v -4.519827 1.704952 0.739076
v -4.519879 1.703772 0.739002
v -4.518589 1.704049 0.739968
v -4.518986 1.705132 0.739707
v -4.519879 1.703772 0.739002
v -4.519751 1.706114 0.741172
v -4.518951 1.705649 0.740639
v -4.518537 1.704841 0.741397
v -4.519761 1.705553 0.742214
v -4.519751 1.706114 0.741172
v -4.518537 1.704841 0.741397
v -4.521876 1.701049 0.741330
v -4.520623 1.700689 0.741148
v -4.520377 1.701189 0.740319
v -4.521876 1.701049 0.741330
v -4.519584 1.700911 0.741926
v -4.519541 1.701549 0.743077
v -4.518949 1.702326 0.742866
v -4.519584 1.700911 0.741926
v -4.520527 1.702122 0.743734
v -4.521800 1.702199 0.743404
v -4.521932 1.703184 0.743298
v -4.520527 1.702122 0.743734
v -4.522032 1.701665 0.740558
v -4.522399 1.701721 0.742333
v -4.521876 1.701049 0.741330
v -4.522032 1.701665 0.740558
v -4.522399 1.701721 0.742333
v -4.519004 1.701483 0.741346
v -4.520377 1.701189 0.740319
v -4.520623 1.700689 0.741148
v -4.519584 1.700911 0.741926
v -4.519004 1.701483 0.741346
v -4.520623 1.700689 0.741148
v -4.520251 1.703083 0.743735
v -4.518949 1.702326 0.742866
v -4.519541 1.701549 0.743077
v -4.520527 1.702122 0.743734
v -4.520251 1.703083 0.743735
v -4.519541 1.701549 0.743077
v -4.522724 1.702553 0.741884
v -4.521932 1.703184 0.743298
v -4.521800 1.702199 0.743404
v -4.522399 1.701721 0.742333
v -4.522724 1.702553 0.741884
v -4.521800 1.702199 0.743404
v -4.521932 1.703184 0.743298
v -4.522724 1.702553 0.741884
v -4.522768 1.703877 0.741152
v -4.521932 1.703184 0.743298
v -4.522086 1.705054 0.740474
v -4.521341 1.705648 0.741803
v -4.521852 1.704606 0.742785
v -4.522768 1.703877 0.741152
v -4.522086 1.705054 0.740474
v -4.521852 1.704606 0.742785
v -4.521852 1.704606 0.742785
v -4.520251 1.703083 0.743735
v -4.521932 1.703184 0.743298
v -4.521852 1.704606 0.742785
v -4.520251 1.703083 0.743735
v -4.521341 1.705648 0.741803
v -4.519761 1.705553 0.742214
v -4.519911 1.704490 0.743290
v -4.521852 1.704606 0.742785
v -4.521341 1.705648 0.741803
v -4.519911 1.704490 0.743290
v -4.519911 1.704490 0.743290
v -4.518949 1.702326 0.742866
v -4.520251 1.703083 0.743735
v -4.519911 1.704490 0.743290
v -4.518949 1.702326 0.742866
v -4.519761 1.705553 0.742214
v -4.518537 1.704841 0.741397
v -4.518406 1.703615 0.742286
v -4.519911 1.704490 0.743290
v -4.519761 1.705553 0.742214
v -4.518406 1.703615 0.742286
v -4.518406 1.703615 0.742286
v -4.519004 1.701483 0.741346
v -4.518949 1.702326 0.742866
v -4.518406 1.703615 0.742286
v -4.519004 1.701483 0.741346
v -4.518537 1.704841 0.741397
v -4.518589 1.704049 0.739968
v -4.518471 1.702642 0.740530
v -4.518406 1.703615 0.742286
v -4.518537 1.704841 0.741397
v -4.518471 1.702642 0.740530
v -4.518471 1.702642 0.740530
v -4.520377 1.701189 0.740319
v -4.519004 1.701483 0.741346
v -4.518471 1.702642 0.740530
v -4.520377 1.701189 0.740319
v -4.518589 1.704049 0.739968
v -4.519879 1.703772 0.739002
v -4.520056 1.702302 0.739343
v -4.518471 1.702642 0.740530
v -4.518589 1.704049 0.739968
v -4.520056 1.702302 0.739343
v -4.520056 1.702302 0.739343
v -4.522032 1.701665 0.740558
v -4.520377 1.701189 0.740319
v -4.520056 1.702302 0.739343
v -4.522032 1.701665 0.740558
v -4.519879 1.703772 0.739002
v -4.521436 1.704220 0.739228
v -4.521969 1.702852 0.739620
v -4.520056 1.702302 0.739343
v -4.519879 1.703772 0.739002
v -4.521969 1.702852 0.739620
v -4.521969 1.702852 0.739620
v -4.522768 1.703877 0.741152
v -4.522724 1.702553 0.741884
v -4.522032 1.701665 0.740558
v -4.521969 1.702852 0.739620
v -4.522724 1.702553 0.741884
v -4.521436 1.704220 0.739228
v -4.522086 1.705054 0.740474
v -4.522768 1.703877 0.741152
v -4.521969 1.702852 0.739620
v -4.521436 1.704220 0.739228
v -4.522768 1.703877 0.741152
v -4.521268 1.705788 0.740037
v -4.520782 1.706176 0.740904
v -4.521341 1.705648 0.741803
v -4.522086 1.705054 0.740474
v -4.521268 1.705788 0.740037
v -4.521341 1.705648 0.741803
v -4.519751 1.706114 0.741172
v -4.520782 1.706176 0.740904
v -4.518951 1.705649 0.740639
v -4.521268 1.705788 0.740037
v -4.518951 1.705649 0.740639
v -4.520782 1.706176 0.740904
v -4.518986 1.705132 0.739707
v -4.518951 1.705649 0.740639
v -4.521268 1.705788 0.740037
v -4.520844 1.705244 0.739223
v -4.518986 1.705132 0.739707
v -4.521268 1.705788 0.740037
v -4.519827 1.704952 0.739076
v -4.518986 1.705132 0.739707
v -4.520844 1.705244 0.739223
v -4.521468 1.697480 0.746460
v -4.520413 1.696867 0.745757
v -4.522829 1.697562 0.746107
v -4.523470 1.697051 0.744962
v -4.522829 1.697562 0.746107
v -4.520413 1.696867 0.745757
v -4.520458 1.696185 0.744526
v -4.523470 1.697051 0.744962
v -4.520413 1.696867 0.745757
v -4.522910 1.696332 0.743888
v -4.523470 1.697051 0.744962
v -4.520458 1.696185 0.744526
v -4.521570 1.695947 0.743694
v -4.522910 1.696332 0.743888
v -4.520458 1.696185 0.744526
vn -0.1769 -0.8580 0.4822
vn -0.2138 0.5547 -0.8041
vn 0.6381 0.5036 -0.5825
vn 0.2519 0.4208 -0.8715
vn -0.4086 0.8046 -0.4310
vn 0.6380 0.5036 -0.5825
vn -0.2139 0.5548 -0.8040
vn -0.4086 0.8045 -0.4311
vn 0.6537 0.7407 -0.1548
vn -0.1856 0.9821 -0.0333
vn 0.6538 0.7407 -0.1548
vn 0.6537 0.7407 -0.1547
vn 0.2872 0.9537 0.0896
vn -0.4648 0.7929 0.3940
vn -0.4085 0.8045 -0.4311
vn -0.8258 0.5056 -0.2499
vn -0.1855 0.9821 -0.0333
vn -0.4085 0.8046 -0.4310
vn -0.9763 0.2024 -0.0764
vn -0.5106 0.1011 -0.8538
vn -0.6313 -0.2401 -0.7374
vn -0.9763 0.2025 -0.0764
vn -0.8258 0.5055 -0.2499
vn -0.5106 0.1012 -0.8538
vn -0.9857 -0.1293 0.1079
vn -0.6313 -0.2402 -0.7374
vn -0.6607 -0.5463 -0.5149
vn 0.2434 -0.1157 -0.9630
vn 0.1941 -0.4775 -0.8569
vn -0.6607 -0.5463 -0.5148
vn 0.1169 -0.7699 -0.6274
vn 0.8686 0.0182 -0.4952
vn 0.8784 -0.3309 -0.3448
vn 0.2435 -0.1157 -0.9630
vn 0.8686 0.0183 -0.4952
vn 0.7615 -0.6317 -0.1450
vn 0.8941 0.4022 0.1973
vn 0.9063 0.0894 0.4131
vn 0.8940 0.4022 0.1973
vn 0.7615 -0.6317 -0.1449
vn 0.9063 0.0893 0.4132
vn 0.7878 -0.2358 0.5690
vn 0.3007 0.7470 0.5930
vn 0.2567 0.4667 0.8463
vn 0.7877 -0.2359 0.5691
vn 0.1758 0.1197 0.9771
vn 0.9063 0.0894 0.4132
vn -0.5811 0.5171 0.6284
vn 0.3006 0.7470 0.5930
vn -0.4647 0.7930 0.3940
vn -0.6134 0.1671 0.7719
vn -0.5812 0.5170 0.6284
vn -0.6141 0.2441 0.7506
vn -0.9958 -0.0599 0.0698
vn -0.6140 0.2440 0.7506
vn 0.8228 -0.1691 0.5427
vn 0.1759 0.1197 0.9771
vn 0.1953 0.1954 0.9611
vn 0.1349 -0.7167 -0.6842
vn 0.7959 -0.5751 -0.1895
vn -0.9958 -0.0598 0.0697
vn -0.6607 -0.5462 -0.5148
vn -0.6625 -0.4874 -0.5688
vn -0.9958 -0.0598 0.0698
vn 0.1953 0.1955 0.9611
vn 0.7959 -0.5750 -0.1896
vn 0.7878 -0.2359 0.5690
vn 0.8227 -0.1691 0.5427
vn 0.7959 -0.5751 -0.1896
vn 0.8940 0.4022 0.1974
vn 0.2872 0.9537 0.0897
vn -0.8258 0.5055 -0.2500
vn -0.2138 0.5548 -0.8041
vn -0.2138 0.5548 -0.8040
vn -0.4648 0.7930 0.3940
vn -0.9801 0.1867 -0.0675
vn -0.6349 -0.2561 -0.7289
vn 0.2535 0.4511 0.8557
vn -0.6140 0.2441 0.7506
vn -0.5847 0.5015 0.6377
vn 0.2535 0.4512 0.8557
vn 0.8756 -0.3469 -0.3360
vn 0.9035 0.0735 0.4222
vn 0.8756 -0.3469 -0.3361
vn 0.7958 -0.5751 -0.1896
vn -0.6349 -0.2562 -0.7289
vn 0.1909 -0.4936 -0.8485
vn 0.1348 -0.7167 -0.6842
vn 0.9035 0.0735 0.4223
vn 0.2536 0.4511 0.8557
vn 0.9035 0.0736 0.4223
vn 0.1909 -0.4937 -0.8484
vn 0.1910 -0.4936 -0.8485
vt 0.543243 0.635056
vt 0.535370 0.641335
vt 0.537796 0.636299
vt 0.537796 0.646370
vt 0.547607 0.638535
vt 0.543243 0.647614
vt 0.547607 0.644127
vt 0.593674 0.671494
vt 0.598511 0.669548
vt 0.596146 0.672157
vt 0.592773 0.669609
vt 0.596436 0.666756
vt 0.592804 0.667854
vt 0.594147 0.666748
vt 0.591187 0.666855
vt 0.590591 0.669838
vt 0.587372 0.669685
vt 0.591782 0.673050
vt 0.588348 0.674789
vt 0.582382 0.669067
vt 0.582687 0.676537
vt 0.595596 0.675606
vt 0.592606 0.680244
vt 0.586334 0.684982
vt 0.603775 0.674767
vt 0.603561 0.686485
vt 0.594009 0.696274
vt 0.603775 0.658051
vt 0.597107 0.663902
vt 0.596405 0.659698
vt 0.602859 0.665543
vt 0.600342 0.651657
vt 0.594193 0.655174
vt 0.593353 0.664742
vt 0.591705 0.661980
vt 0.588959 0.658463
vt 0.588654 0.665283
vt 0.584778 0.662933
vt 0.580322 0.660286
vt 0.576584 0.668175
vt 0.591812 0.651588
vt 0.585907 0.654999
vt 0.579453 0.688484
vt 0.584915 0.699394
vt 0.576157 0.678001
vt 0.597061 0.648293
vt 0.627350 0.682632
vt 0.649124 0.687675
vt 0.627441 0.688225
vt 0.649033 0.682457
vt 0.627441 0.671455
vt 0.649033 0.677231
vt 0.627350 0.677048
vt 0.649124 0.672005
vt 0.627914 0.660294
vt 0.649292 0.666786
vt 0.627625 0.665871
vt 0.649551 0.661568
vt 0.649292 0.692902
vt 0.627625 0.693810
vt 0.649551 0.698120
vt 0.627914 0.699394
s 0
usemtl decorations
f 240/1/1 239/2/1 238/3/1
f 237/1/1 236/4/1 235/2/1
f 234/5/1 233/4/1 232/1/1
f 231/5/1 230/6/1 229/4/1
f 228/6/1 227/5/1 226/7/1
s 1
f 225/8/2 224/9/3 223/10/4
f 222/11/5 221/9/6 220/8/7
f 219/11/8 218/12/9 217/9/3
f 216/13/10 215/12/11 214/11/8
f 213/12/12 212/13/10 211/14/13
f 210/15/14 209/11/15 208/16/16
f 207/15/14 206/13/17 205/11/18
f 204/17/19 203/18/20 202/19/21
f 201/17/22 200/16/23 199/18/24
f 198/20/25 197/19/26 196/21/27
f 195/20/25 194/17/22 193/19/21
f 192/19/21 191/22/28 190/23/29
f 189/19/21 188/18/20 187/22/28
f 186/21/30 185/23/29 184/24/31
f 183/21/27 3/19/21 182/23/29
f 181/23/29 180/25/32 179/26/33
f 178/23/29 177/22/34 176/25/35
f 175/24/31 174/26/33 173/27/36
f 172/24/31 4/23/29 171/26/33
f 170/28/33 169/29/37 168/30/38
f 167/28/33 166/31/35 165/29/39
f 164/32/40 163/30/41 162/33/42
f 161/32/40 13/28/33 160/30/38
f 159/30/38 158/34/43 157/35/44
f 156/30/38 155/29/39 154/34/43
f 153/33/45 152/35/44 151/36/46
f 150/33/45 14/30/47 149/35/44
f 148/35/44 147/15/14 146/37/48
f 145/35/44 144/34/49 143/15/50
f 142/36/46 141/37/48 140/38/51
f 139/36/46 16/35/44 138/37/48
f 137/37/52 136/16/23 135/17/22
f 134/37/48 133/15/14 132/16/16
f 131/38/51 130/17/22 129/20/25
f 128/38/51 36/37/48 25/17/22
f 127/39/53 126/20/25 125/40/54
f 124/39/55 123/38/51 122/20/25
f 121/41/56 120/36/57 119/42/58
f 118/41/56 117/33/45 116/36/57
f 115/43/59 114/27/36 113/44/60
f 112/43/59 111/24/31 110/27/36
f 109/40/61 108/21/62 107/45/63
f 106/40/64 40/20/25 105/21/62
f 104/42/65 103/38/51 102/39/55
f 101/42/58 41/36/46 42/38/51
f 100/46/66 99/33/67 98/41/68
f 97/46/69 37/32/36 38/33/67
f 96/45/63 95/24/31 94/43/59
f 93/45/63 33/21/27 34/24/31
f 92/29/70 91/14/13 90/34/43
f 89/29/70 88/12/9 87/14/71
f 86/22/34 85/9/6 84/25/35
f 83/22/34 82/10/4 81/9/6
f 80/16/72 79/8/73 78/18/24
f 29/16/72 30/11/5 77/8/74
f 76/31/35 75/12/9 28/29/39
f 31/31/35 26/9/6 27/12/9
f 74/18/20 73/10/4 24/22/28
f 21/18/20 22/8/74 23/10/4
f 72/34/49 71/13/10 20/15/75
f 17/34/49 18/14/13 19/13/17
f 70/47/76 69/48/63 68/49/77
f 67/47/76 66/50/64 65/48/63
f 64/51/78 63/52/79 62/53/80
f 61/51/81 60/54/58 59/52/55
f 58/55/82 57/56/68 56/57/83
f 55/55/84 54/58/85 53/56/68
f 52/49/86 51/59/59 50/60/87
f 2/49/77 32/48/63 49/59/88
f 48/53/80 47/50/61 12/47/76
f 9/53/80 10/52/79 11/50/54
f 46/57/89 45/54/65 8/51/90
f 5/57/91 6/56/68 7/54/58
f 44/60/92 43/61/66 15/62/84
f 1/60/93 35/59/88 39/61/85
