# Blender 5.0.0
# www.blender.org
mtllib Circle_005_Circle_Dupli_27_decorations_0.mtl
o Circle.005|Circle|Dupli|27_decorations_0
v -4.699045 0.539614 0.667800
v -4.698177 0.539349 0.668877
v -4.703710 0.541108 0.674160
v -4.704948 0.541486 0.672624
v -4.698514 0.542028 0.667228
v -4.702327 0.543627 0.670801
v -4.701394 0.543937 0.671676
v -4.697515 0.542360 0.668164
v -4.696950 0.541551 0.669169
v -4.700865 0.543181 0.672616
v -4.701141 0.541928 0.672913
v -4.697245 0.540211 0.669486
v -4.705162 0.543187 0.671576
v -4.704190 0.544931 0.671807
v -4.699195 0.540806 0.667066
v -4.702765 0.545404 0.673142
v -4.703942 0.545449 0.674101
v -4.704868 0.545140 0.674771
v -4.704440 0.544528 0.675533
v -4.703287 0.544510 0.675268
v -4.704711 0.541953 0.674930
v -4.705369 0.542859 0.675312
v -4.706027 0.543060 0.674496
v -4.705719 0.542261 0.673680
v -4.702380 0.542339 0.675029
v -4.706141 0.543963 0.673940
v -4.705625 0.544889 0.674062
v -4.705102 0.545064 0.673015
v -4.703629 0.542954 0.675637
v -4.704663 0.543512 0.675773
v -4.705893 0.543645 0.672828
v -4.702013 0.541122 0.672343
v -4.702652 0.540941 0.673090
v -4.703723 0.541268 0.671760
v -4.702824 0.541370 0.671336
v -4.701959 0.544250 0.674576
v -4.703908 0.542741 0.670853
v -4.703068 0.544250 0.671053
v -4.702964 0.542485 0.670650
v -4.701500 0.542006 0.673842
v -4.701834 0.544659 0.672208
v -4.701137 0.543661 0.673450
v -4.702964 0.542485 0.670650
v -4.699045 0.539614 0.667800
v -4.701394 0.543937 0.671676
v -4.698514 0.542028 0.667228
v -4.701141 0.541928 0.672913
v -4.696950 0.541551 0.669169
v -4.702824 0.541370 0.671336
v -4.699045 0.539614 0.667800
v -4.702824 0.541370 0.671336
v -4.698177 0.539349 0.668877
v -4.702327 0.543627 0.670801
v -4.702964 0.542485 0.670650
v -4.699195 0.540806 0.667066
v -4.698514 0.542028 0.667228
v -4.702327 0.543627 0.670801
v -4.699195 0.540806 0.667066
v -4.700865 0.543181 0.672616
v -4.701394 0.543937 0.671676
v -4.697515 0.542360 0.668164
v -4.696950 0.541551 0.669169
v -4.700865 0.543181 0.672616
v -4.697515 0.542360 0.668164
v -4.702013 0.541122 0.672343
v -4.701141 0.541928 0.672913
v -4.697245 0.540211 0.669486
v -4.698177 0.539349 0.668877
v -4.702013 0.541122 0.672343
v -4.697245 0.540211 0.669486
v -4.704440 0.544528 0.675533
v -4.703942 0.545449 0.674101
v -4.706027 0.543060 0.674496
v -4.704711 0.541953 0.674930
v -4.705625 0.544889 0.674062
v -4.705893 0.543645 0.672828
v -4.705369 0.542859 0.675312
v -4.704711 0.541953 0.674930
v -4.705369 0.542859 0.675312
v -4.703629 0.542954 0.675637
v -4.706141 0.543963 0.673940
v -4.706027 0.543060 0.674496
v -4.705719 0.542261 0.673680
v -4.705893 0.543645 0.672828
v -4.706141 0.543963 0.673940
v -4.705719 0.542261 0.673680
v -4.704868 0.545140 0.674771
v -4.705625 0.544889 0.674062
v -4.705102 0.545064 0.673015
v -4.703942 0.545449 0.674101
v -4.704868 0.545140 0.674771
v -4.705102 0.545064 0.673015
v -4.702013 0.541122 0.672343
v -4.702824 0.541370 0.671336
v -4.703723 0.541268 0.671760
v -4.702013 0.541122 0.672343
v -4.702964 0.542485 0.670650
v -4.702327 0.543627 0.670801
v -4.703068 0.544250 0.671053
v -4.702964 0.542485 0.670650
v -4.701394 0.543937 0.671676
v -4.700865 0.543181 0.672616
v -4.701137 0.543661 0.673450
v -4.701394 0.543937 0.671676
v -4.702652 0.540941 0.673090
v -4.701141 0.541928 0.672913
v -4.702013 0.541122 0.672343
v -4.702652 0.540941 0.673090
v -4.701141 0.541928 0.672913
v -4.703908 0.542741 0.670853
v -4.703723 0.541268 0.671760
v -4.702824 0.541370 0.671336
v -4.702964 0.542485 0.670650
v -4.703908 0.542741 0.670853
v -4.702824 0.541370 0.671336
v -4.701834 0.544659 0.672208
v -4.703068 0.544250 0.671053
v -4.702327 0.543627 0.670801
v -4.701394 0.543937 0.671676
v -4.701834 0.544659 0.672208
v -4.702327 0.543627 0.670801
v -4.701500 0.542006 0.673842
v -4.701137 0.543661 0.673450
v -4.700865 0.543181 0.672616
v -4.701141 0.541928 0.672913
v -4.701500 0.542006 0.673842
v -4.700865 0.543181 0.672616
v -4.701137 0.543661 0.673450
v -4.701500 0.542006 0.673842
v -4.702380 0.542339 0.675029
v -4.701137 0.543661 0.673450
v -4.703629 0.542954 0.675637
v -4.703287 0.544510 0.675268
v -4.701959 0.544250 0.674576
v -4.702380 0.542339 0.675029
v -4.703629 0.542954 0.675637
v -4.701959 0.544250 0.674576
v -4.701959 0.544250 0.674576
v -4.701834 0.544659 0.672208
v -4.701137 0.543661 0.673450
v -4.701959 0.544250 0.674576
v -4.701834 0.544659 0.672208
v -4.703287 0.544510 0.675268
v -4.703942 0.545449 0.674101
v -4.702765 0.545404 0.673142
v -4.701959 0.544250 0.674576
v -4.703287 0.544510 0.675268
v -4.702765 0.545404 0.673142
v -4.702765 0.545404 0.673142
v -4.703068 0.544250 0.671053
v -4.701834 0.544659 0.672208
v -4.702765 0.545404 0.673142
v -4.703068 0.544250 0.671053
v -4.703942 0.545449 0.674101
v -4.705102 0.545064 0.673015
v -4.704190 0.544931 0.671807
v -4.702765 0.545404 0.673142
v -4.703942 0.545449 0.674101
v -4.704190 0.544931 0.671807
v -4.704190 0.544931 0.671807
v -4.703908 0.542741 0.670853
v -4.703068 0.544250 0.671053
v -4.704190 0.544931 0.671807
v -4.703908 0.542741 0.670853
v -4.705102 0.545064 0.673015
v -4.705893 0.543645 0.672828
v -4.705162 0.543187 0.671576
v -4.704190 0.544931 0.671807
v -4.705102 0.545064 0.673015
v -4.705162 0.543187 0.671576
v -4.705162 0.543187 0.671576
v -4.703723 0.541268 0.671760
v -4.703908 0.542741 0.670853
v -4.705162 0.543187 0.671576
v -4.703723 0.541268 0.671760
v -4.705893 0.543645 0.672828
v -4.705719 0.542261 0.673680
v -4.704948 0.541486 0.672624
v -4.705162 0.543187 0.671576
v -4.705893 0.543645 0.672828
v -4.704948 0.541486 0.672624
v -4.704948 0.541486 0.672624
v -4.702652 0.540941 0.673090
v -4.703723 0.541268 0.671760
v -4.704948 0.541486 0.672624
v -4.702652 0.540941 0.673090
v -4.705719 0.542261 0.673680
v -4.704711 0.541953 0.674930
v -4.703710 0.541108 0.674160
v -4.704948 0.541486 0.672624
v -4.705719 0.542261 0.673680
v -4.703710 0.541108 0.674160
v -4.703710 0.541108 0.674160
v -4.702380 0.542339 0.675029
v -4.701500 0.542006 0.673842
v -4.702652 0.540941 0.673090
v -4.703710 0.541108 0.674160
v -4.701500 0.542006 0.673842
v -4.704711 0.541953 0.674930
v -4.703629 0.542954 0.675637
v -4.702380 0.542339 0.675029
v -4.703710 0.541108 0.674160
v -4.704711 0.541953 0.674930
v -4.702380 0.542339 0.675029
v -4.704663 0.543512 0.675773
v -4.704440 0.544528 0.675533
v -4.703287 0.544510 0.675268
v -4.703629 0.542954 0.675637
v -4.704663 0.543512 0.675773
v -4.703287 0.544510 0.675268
v -4.704868 0.545140 0.674771
v -4.704440 0.544528 0.675533
v -4.705625 0.544889 0.674062
v -4.704663 0.543512 0.675773
v -4.705625 0.544889 0.674062
v -4.704440 0.544528 0.675533
v -4.706141 0.543963 0.673940
v -4.705625 0.544889 0.674062
v -4.704663 0.543512 0.675773
v -4.705369 0.542859 0.675312
v -4.706141 0.543963 0.673940
v -4.704663 0.543512 0.675773
v -4.706027 0.543060 0.674496
v -4.706141 0.543963 0.673940
v -4.705369 0.542859 0.675312
v -4.697515 0.542360 0.668164
v -4.698514 0.542028 0.667228
v -4.696950 0.541551 0.669169
v -4.697245 0.540211 0.669486
v -4.696950 0.541551 0.669169
v -4.698514 0.542028 0.667228
v -4.699195 0.540806 0.667066
v -4.697245 0.540211 0.669486
v -4.698514 0.542028 0.667228
v -4.698177 0.539349 0.668877
v -4.697245 0.540211 0.669486
v -4.699195 0.540806 0.667066
v -4.699045 0.539614 0.667800
v -4.698177 0.539349 0.668877
v -4.699195 0.540806 0.667066
vn 0.7029 -0.3067 -0.6418
vn -0.6102 -0.2667 0.7460
vn -0.9638 0.2397 0.1167
vn -0.9117 -0.1747 0.3718
vn -0.2863 0.0329 0.9576
vn -0.9638 0.2396 0.1167
vn -0.2863 0.0328 0.9576
vn -0.7272 0.6643 0.1729
vn -0.1839 0.4984 0.8472
vn -0.7273 0.6642 0.1728
vn -0.3801 0.7794 0.4980
vn 0.3552 0.5220 0.7755
vn 0.1894 -0.2317 0.9542
vn -0.1840 0.4984 0.8472
vn 0.4948 -0.3791 0.7820
vn -0.3350 -0.7167 0.6116
vn -0.0792 -0.9100 0.4071
vn 0.4948 -0.3790 0.7820
vn -0.3350 -0.7167 0.6117
vn 0.7283 -0.4715 0.4973
vn -0.0792 -0.9100 0.4070
vn 0.1875 -0.9716 0.1441
vn -0.0793 -0.9099 0.4071
vn -0.8232 -0.5678 0.0058
vn -0.6136 -0.7469 -0.2561
vn 0.1875 -0.9716 0.1440
vn -0.3159 -0.8181 -0.4806
vn -0.9075 0.1030 -0.4072
vn -0.7059 -0.0127 -0.7082
vn -0.8232 -0.5678 0.0057
vn -0.3158 -0.8180 -0.4807
vn -0.4028 -0.1263 -0.9065
vn -0.7059 -0.0126 -0.7082
vn -0.5245 0.7905 -0.3163
vn -0.2867 0.7398 -0.6087
vn -0.0079 0.5826 -0.8128
vn 0.0374 0.9770 0.2100
vn 0.3284 0.9440 -0.0325
vn -0.0079 0.5825 -0.8128
vn 0.5716 0.7749 -0.2700
vn 0.3285 0.9440 -0.0325
vn 0.3552 0.5221 0.7754
vn 0.6762 0.4460 0.5864
vn 0.0374 0.9770 0.2101
vn 0.3551 0.5221 0.7754
vn 0.5716 0.7748 -0.2700
vn 0.8992 0.3058 0.3130
vn 0.8992 0.3057 0.3130
vn 0.8624 0.3395 0.3754
vn 0.6872 -0.4575 0.5643
vn 0.8625 0.3395 0.3754
vn -0.0677 0.6234 -0.7790
vn 0.5715 0.7749 -0.2700
vn 0.5265 0.8205 -0.2225
vn -0.3835 -0.8128 -0.4385
vn -0.4029 -0.1264 -0.9065
vn -0.4726 -0.1036 -0.8752
vn -0.3159 -0.8180 -0.4807
vn 0.6872 -0.4575 0.5644
vn 0.1328 -0.9703 0.2021
vn 0.5265 0.8206 -0.2224
vn 0.5265 0.8206 -0.2225
vn -0.4727 -0.1035 -0.8751
vn -0.0676 0.6234 -0.7790
vn -0.4726 -0.1036 -0.8751
vn 0.1327 -0.9703 0.2021
vn -0.3802 0.7794 0.4980
vn -0.7273 0.6642 0.1729
vn -0.8232 -0.5677 0.0058
vn -0.8232 -0.5677 0.0057
vn -0.9117 -0.1748 0.3718
vn 0.1894 -0.2318 0.9542
vn -0.3350 -0.7168 0.6116
vn 0.3551 0.5220 0.7755
vn 0.5080 -0.3850 0.7705
vn 0.1327 -0.9703 0.2022
vn -0.0663 -0.9161 0.3954
vn 0.5080 -0.3849 0.7706
vn 0.3416 0.9388 -0.0444
vn 0.6895 0.4406 0.5748
vn 0.3416 0.9388 -0.0443
vn 0.5265 0.8205 -0.2224
vn -0.6933 -0.0183 -0.7205
vn -0.2739 0.7345 -0.6209
vn -0.6933 -0.0183 -0.7204
vn -0.6009 -0.7530 -0.2681
vn 0.6896 0.4406 0.5748
vn 0.5080 -0.3849 0.7705
vn -0.2738 0.7345 -0.6209
vn -0.2739 0.7345 -0.6208
vn -0.6009 -0.7530 -0.2682
vn -0.4727 -0.1036 -0.8751
vn -0.3834 -0.8128 -0.4385
vt 0.543243 0.611839
vt 0.535370 0.618118
vt 0.537796 0.613083
vt 0.537796 0.623154
vt 0.547607 0.615326
vt 0.543243 0.624397
vt 0.547607 0.620918
vt 0.565384 0.671494
vt 0.570206 0.669548
vt 0.567856 0.672157
vt 0.564468 0.669609
vt 0.568146 0.666756
vt 0.564514 0.667854
vt 0.565857 0.666748
vt 0.562897 0.666855
vt 0.562302 0.669838
vt 0.559082 0.669685
vt 0.563492 0.673050
vt 0.560059 0.674789
vt 0.554092 0.669067
vt 0.554398 0.676537
vt 0.567307 0.675606
vt 0.564316 0.680244
vt 0.558044 0.684982
vt 0.575485 0.674767
vt 0.575272 0.686485
vt 0.565720 0.696274
vt 0.575485 0.658051
vt 0.568817 0.663902
vt 0.568115 0.659698
vt 0.574570 0.665543
vt 0.572052 0.651657
vt 0.565903 0.655174
vt 0.565063 0.664742
vt 0.563416 0.661980
vt 0.560669 0.658463
vt 0.560364 0.665283
vt 0.556488 0.662933
vt 0.552032 0.660286
vt 0.548294 0.668175
vt 0.563522 0.651588
vt 0.557617 0.654999
vt 0.551163 0.688484
vt 0.556610 0.699394
vt 0.547867 0.678001
vt 0.568756 0.648293
vt 0.604446 0.682632
vt 0.626221 0.687675
vt 0.604553 0.688225
vt 0.626144 0.682457
vt 0.604553 0.671455
vt 0.626144 0.677231
vt 0.604446 0.677048
vt 0.626221 0.672005
vt 0.605011 0.660294
vt 0.626404 0.666786
vt 0.604736 0.665871
vt 0.626663 0.661568
vt 0.626404 0.692902
vt 0.604736 0.693810
vt 0.626663 0.698120
vt 0.605011 0.699394
s 0
usemtl decorations
f 240/1/1 239/2/1 238/3/1
f 237/1/1 236/4/1 235/2/1
f 234/5/1 233/4/1 232/1/1
f 231/5/1 230/6/1 229/4/1
f 228/6/1 227/5/1 226/7/1
s 1
f 225/8/2 224/9/3 223/10/4
f 222/11/5 221/9/6 220/8/2
f 219/11/7 218/12/8 217/9/3
f 216/13/9 215/12/10 214/11/7
f 213/12/8 212/13/9 211/14/11
f 210/15/12 209/11/7 208/16/13
f 207/15/12 206/13/14 205/11/5
f 204/17/15 203/18/16 202/19/17
f 201/17/18 200/16/13 199/18/19
f 198/20/20 197/19/21 196/21/22
f 195/20/20 194/17/15 193/19/23
f 192/19/17 191/22/24 190/23/25
f 189/19/17 188/18/16 187/22/24
f 186/21/26 185/23/25 184/24/27
f 183/21/26 3/19/21 182/23/25
f 181/23/25 180/25/28 179/26/29
f 178/23/25 177/22/30 176/25/28
f 175/24/31 174/26/29 173/27/32
f 172/24/31 4/23/25 171/26/29
f 170/28/33 169/29/34 168/30/35
f 167/28/33 166/31/28 165/29/34
f 164/32/32 163/30/35 162/33/36
f 161/32/32 13/28/29 160/30/35
f 159/30/35 158/34/37 157/35/38
f 156/30/35 155/29/34 154/34/37
f 153/33/39 152/35/38 151/36/40
f 150/33/39 14/30/35 149/35/38
f 148/35/41 147/15/42 146/37/43
f 145/35/41 144/34/44 143/15/45
f 142/36/46 141/37/43 140/38/47
f 139/36/46 16/35/38 138/37/43
f 137/37/43 136/16/13 135/17/15
f 134/37/43 133/15/12 132/16/13
f 131/38/48 130/17/15 129/20/20
f 128/38/47 36/37/43 25/17/15
f 127/39/49 126/20/20 125/40/50
f 124/39/51 123/38/47 122/20/20
f 121/41/52 120/36/53 119/42/54
f 118/41/52 117/33/39 116/36/53
f 115/43/55 114/27/56 113/44/57
f 112/43/55 111/24/58 110/27/56
f 109/40/59 108/21/22 107/45/60
f 106/40/50 40/20/20 105/21/22
f 104/42/61 103/38/47 102/39/51
f 101/42/62 41/36/40 42/38/47
f 100/46/63 99/33/39 98/41/64
f 97/46/65 37/32/32 38/33/39
f 96/45/66 95/24/58 94/43/55
f 93/45/66 33/21/22 34/24/58
f 92/29/34 91/14/67 90/34/37
f 89/29/34 88/12/68 87/14/11
f 86/22/69 85/9/6 84/25/28
f 83/22/70 82/10/71 81/9/6
f 80/16/72 79/8/2 78/18/16
f 29/16/72 30/11/5 77/8/2
f 76/31/28 75/12/68 28/29/34
f 31/31/28 26/9/6 27/12/68
f 74/18/73 73/10/4 24/22/24
f 21/18/73 22/8/2 23/10/4
f 72/34/44 71/13/9 20/15/74
f 17/34/44 18/14/67 19/13/14
f 70/47/75 69/48/76 68/49/77
f 67/47/78 66/50/50 65/48/76
f 64/51/79 63/52/49 62/53/80
f 61/51/81 60/54/82 59/52/51
f 58/55/83 57/56/52 56/57/84
f 55/55/85 54/58/57 53/56/52
f 52/49/77 51/59/55 50/60/86
f 2/49/77 32/48/66 49/59/55
f 48/53/87 47/50/50 12/47/88
f 9/53/80 10/52/49 11/50/50
f 46/57/89 45/54/61 8/51/79
f 5/57/90 6/56/52 7/54/54
f 44/60/91 43/61/92 15/62/85
f 1/60/86 35/59/93 39/61/92
