# Blender 5.0.0
# www.blender.org
mtllib Circle_005_Circle_001_Dupli_178_decorations_0.mtl
o Circle.005|Circle.001|Dupli|178_decorations_0
v -4.663459 1.041883 0.690374
v -4.664028 1.041204 0.691469
v -4.658299 1.043555 0.696292
v -4.657486 1.044523 0.694730
v -4.662072 1.040079 0.689251
v -4.657844 1.041472 0.692420
v -4.658056 1.040421 0.693184
v -4.662299 1.038954 0.690069
v -4.663098 1.038856 0.691224
v -4.658803 1.040329 0.694264
v -4.659522 1.041265 0.694847
v -4.663867 1.039857 0.691847
v -4.656244 1.043808 0.693322
v -4.655508 1.041949 0.693128
v -4.662588 1.041382 0.689387
v -4.655832 1.040345 0.694294
v -4.654889 1.041074 0.695236
v -4.654421 1.041872 0.695974
v -4.655026 1.041797 0.696849
v -4.655817 1.040960 0.696578
v -4.656897 1.043686 0.696863
v -4.655731 1.043577 0.697035
v -4.655300 1.044091 0.696206
v -4.656235 1.044474 0.695591
v -4.658070 1.041633 0.696832
v -4.654640 1.043711 0.695458
v -4.654249 1.042724 0.695355
v -4.654625 1.042379 0.694287
v -4.656710 1.042122 0.697301
v -4.655610 1.042556 0.697322
v -4.655225 1.043892 0.694445
v -4.659672 1.042524 0.694494
v -4.659277 1.043011 0.695273
v -4.658574 1.043849 0.693921
v -4.659140 1.043158 0.693470
v -4.656972 1.040204 0.695942
v -4.657499 1.043230 0.692701
v -4.656862 1.041621 0.692533
v -4.658326 1.042690 0.692547
v -4.659079 1.041347 0.695739
v -4.657142 1.040232 0.693543
v -4.658129 1.040111 0.694970
v -4.658326 1.042690 0.692547
v -4.663459 1.041883 0.690374
v -4.658056 1.040421 0.693184
v -4.662072 1.040079 0.689251
v -4.659522 1.041265 0.694847
v -4.663098 1.038856 0.691224
v -4.659140 1.043158 0.693470
v -4.663459 1.041883 0.690374
v -4.659140 1.043158 0.693470
v -4.664028 1.041204 0.691469
v -4.657844 1.041472 0.692420
v -4.658326 1.042690 0.692547
v -4.662588 1.041382 0.689387
v -4.662072 1.040079 0.689251
v -4.657844 1.041472 0.692420
v -4.662588 1.041382 0.689387
v -4.658803 1.040329 0.694264
v -4.658056 1.040421 0.693184
v -4.662299 1.038954 0.690069
v -4.663098 1.038856 0.691224
v -4.658803 1.040329 0.694264
v -4.662299 1.038954 0.690069
v -4.659672 1.042524 0.694494
v -4.659522 1.041265 0.694847
v -4.663867 1.039857 0.691847
v -4.664028 1.041204 0.691469
v -4.659672 1.042524 0.694494
v -4.663867 1.039857 0.691847
v -4.655026 1.041797 0.696849
v -4.654889 1.041074 0.695236
v -4.655300 1.044091 0.696206
v -4.656897 1.043686 0.696863
v -4.654249 1.042724 0.695355
v -4.655225 1.043892 0.694445
v -4.655731 1.043577 0.697035
v -4.656897 1.043686 0.696863
v -4.655731 1.043577 0.697035
v -4.656710 1.042122 0.697301
v -4.654640 1.043711 0.695458
v -4.655300 1.044091 0.696206
v -4.656235 1.044474 0.695591
v -4.655225 1.043892 0.694445
v -4.654640 1.043711 0.695458
v -4.656235 1.044474 0.695591
v -4.654421 1.041872 0.695974
v -4.654249 1.042724 0.695355
v -4.654625 1.042379 0.694287
v -4.654889 1.041074 0.695236
v -4.654421 1.041872 0.695974
v -4.654625 1.042379 0.694287
v -4.659672 1.042524 0.694494
v -4.659140 1.043158 0.693470
v -4.658574 1.043849 0.693921
v -4.659672 1.042524 0.694494
v -4.658326 1.042690 0.692547
v -4.657844 1.041472 0.692420
v -4.656862 1.041621 0.692533
v -4.658326 1.042690 0.692547
v -4.658056 1.040421 0.693184
v -4.658803 1.040329 0.694264
v -4.658129 1.040111 0.694970
v -4.658056 1.040421 0.693184
v -4.659277 1.043011 0.695273
v -4.659522 1.041265 0.694847
v -4.659672 1.042524 0.694494
v -4.659277 1.043011 0.695273
v -4.659522 1.041265 0.694847
v -4.657499 1.043230 0.692701
v -4.658574 1.043849 0.693921
v -4.659140 1.043158 0.693470
v -4.658326 1.042690 0.692547
v -4.657499 1.043230 0.692701
v -4.659140 1.043158 0.693470
v -4.657142 1.040232 0.693543
v -4.656862 1.041621 0.692533
v -4.657844 1.041472 0.692420
v -4.658056 1.040421 0.693184
v -4.657142 1.040232 0.693543
v -4.657844 1.041472 0.692420
v -4.659079 1.041347 0.695739
v -4.658129 1.040111 0.694970
v -4.658803 1.040329 0.694264
v -4.659522 1.041265 0.694847
v -4.659079 1.041347 0.695739
v -4.658803 1.040329 0.694264
v -4.658129 1.040111 0.694970
v -4.659079 1.041347 0.695739
v -4.658070 1.041633 0.696832
v -4.658129 1.040111 0.694970
v -4.656710 1.042122 0.697301
v -4.655817 1.040960 0.696578
v -4.656972 1.040204 0.695942
v -4.658070 1.041633 0.696832
v -4.656710 1.042122 0.697301
v -4.656972 1.040204 0.695942
v -4.656972 1.040204 0.695942
v -4.657142 1.040232 0.693543
v -4.658129 1.040111 0.694970
v -4.656972 1.040204 0.695942
v -4.657142 1.040232 0.693543
v -4.655817 1.040960 0.696578
v -4.654889 1.041074 0.695236
v -4.655832 1.040345 0.694294
v -4.656972 1.040204 0.695942
v -4.655817 1.040960 0.696578
v -4.655832 1.040345 0.694294
v -4.655832 1.040345 0.694294
v -4.656862 1.041621 0.692533
v -4.657142 1.040232 0.693543
v -4.655832 1.040345 0.694294
v -4.656862 1.041621 0.692533
v -4.654889 1.041074 0.695236
v -4.654625 1.042379 0.694287
v -4.655508 1.041949 0.693128
v -4.655832 1.040345 0.694294
v -4.654889 1.041074 0.695236
v -4.655508 1.041949 0.693128
v -4.655508 1.041949 0.693128
v -4.657499 1.043230 0.692701
v -4.656862 1.041621 0.692533
v -4.655508 1.041949 0.693128
v -4.657499 1.043230 0.692701
v -4.654625 1.042379 0.694287
v -4.655225 1.043892 0.694445
v -4.656244 1.043808 0.693322
v -4.655508 1.041949 0.693128
v -4.654625 1.042379 0.694287
v -4.656244 1.043808 0.693322
v -4.656244 1.043808 0.693322
v -4.658574 1.043849 0.693921
v -4.657499 1.043230 0.692701
v -4.656244 1.043808 0.693322
v -4.658574 1.043849 0.693921
v -4.655225 1.043892 0.694445
v -4.656235 1.044474 0.695591
v -4.657486 1.044523 0.694730
v -4.656244 1.043808 0.693322
v -4.655225 1.043892 0.694445
v -4.657486 1.044523 0.694730
v -4.657486 1.044523 0.694730
v -4.659277 1.043011 0.695273
v -4.658574 1.043849 0.693921
v -4.657486 1.044523 0.694730
v -4.659277 1.043011 0.695273
v -4.656235 1.044474 0.695591
v -4.656897 1.043686 0.696863
v -4.658299 1.043555 0.696292
v -4.657486 1.044523 0.694730
v -4.656235 1.044474 0.695591
v -4.658299 1.043555 0.696292
v -4.658299 1.043555 0.696292
v -4.658070 1.041633 0.696832
v -4.659079 1.041347 0.695739
v -4.659277 1.043011 0.695273
v -4.658299 1.043555 0.696292
v -4.659079 1.041347 0.695739
v -4.656897 1.043686 0.696863
v -4.656710 1.042122 0.697301
v -4.658070 1.041633 0.696832
v -4.658299 1.043555 0.696292
v -4.656897 1.043686 0.696863
v -4.658070 1.041633 0.696832
v -4.655610 1.042556 0.697322
v -4.655026 1.041797 0.696849
v -4.655817 1.040960 0.696578
v -4.656710 1.042122 0.697301
v -4.655610 1.042556 0.697322
v -4.655817 1.040960 0.696578
v -4.654421 1.041872 0.695974
v -4.655026 1.041797 0.696849
v -4.654249 1.042724 0.695355
v -4.655610 1.042556 0.697322
v -4.654249 1.042724 0.695355
v -4.655026 1.041797 0.696849
v -4.654640 1.043711 0.695458
v -4.654249 1.042724 0.695355
v -4.655610 1.042556 0.697322
v -4.655731 1.043577 0.697035
v -4.654640 1.043711 0.695458
v -4.655610 1.042556 0.697322
v -4.655300 1.044091 0.696206
v -4.654640 1.043711 0.695458
v -4.655731 1.043577 0.697035
v -4.662299 1.038954 0.690069
v -4.662072 1.040079 0.689251
v -4.663098 1.038856 0.691224
v -4.663867 1.039857 0.691847
v -4.663098 1.038856 0.691224
v -4.662072 1.040079 0.689251
v -4.662588 1.041382 0.689387
v -4.663867 1.039857 0.691847
v -4.662072 1.040079 0.689251
v -4.664028 1.041204 0.691469
v -4.663867 1.039857 0.691847
v -4.662588 1.041382 0.689387
v -4.663459 1.041883 0.690374
v -4.664028 1.041204 0.691469
v -4.662588 1.041382 0.689387
vn -0.7857 -0.2522 -0.5649
vn 0.3121 0.5168 0.7972
vn 0.8124 0.5784 0.0738
vn 0.5099 0.7525 0.4169
vn 0.3678 0.0486 0.9286
vn 0.3120 0.5167 0.7973
vn 0.3678 0.0487 0.9286
vn 0.9917 0.1256 0.0266
vn 0.6352 -0.2992 0.7120
vn 0.6352 -0.2992 0.7121
vn 0.9129 -0.2650 0.3106
vn 0.2985 -0.7186 0.6280
vn -0.1343 -0.1554 0.9787
vn -0.4684 -0.2733 0.8402
vn -0.2246 0.6023 0.7660
vn -0.5671 0.5562 0.6075
vn -0.4683 -0.2733 0.8403
vn -0.7342 -0.3515 0.5808
vn -0.5672 0.5562 0.6074
vn -0.8273 0.4299 0.3616
vn 0.0957 0.9840 0.1502
vn -0.2165 0.9740 -0.0666
vn -0.8273 0.4299 0.3615
vn -0.4970 0.8235 -0.2735
vn -0.2165 0.9740 -0.0667
vn 0.5854 0.7022 -0.4052
vn 0.3195 0.6655 -0.6745
vn 0.0957 0.9840 0.1501
vn 0.5854 0.7023 -0.4051
vn -0.4971 0.8235 -0.2736
vn 0.0080 0.5329 -0.8461
vn -0.4971 0.8235 -0.2735
vn 0.3195 0.6655 -0.6746
vn 0.8758 -0.0308 -0.4818
vn 0.6373 -0.1369 -0.7583
vn 0.8758 -0.0308 -0.4817
vn 0.0079 0.5329 -0.8462
vn 0.6373 -0.1369 -0.7584
vn 0.3074 -0.2230 -0.9251
vn 0.6373 -0.1368 -0.7583
vn 0.7482 -0.6632 -0.0219
vn 0.4976 -0.8291 -0.2550
vn 0.8758 -0.0309 -0.4818
vn 0.3073 -0.2230 -0.9251
vn 0.1757 -0.8751 -0.4509
vn 0.4975 -0.8291 -0.2550
vn 0.2986 -0.7187 0.6280
vn 0.0055 -0.8898 0.4564
vn 0.7481 -0.6632 -0.0219
vn 0.2986 -0.7186 0.6280
vn -0.2878 -0.9323 0.2193
vn 0.0055 -0.8897 0.4564
vn -0.4683 -0.2732 0.8402
vn 0.0056 -0.8897 0.4564
vn -0.2879 -0.9322 0.2192
vn -0.7342 -0.3515 0.5809
vn 0.0056 -0.8898 0.4564
vn -0.2286 -0.9345 0.2727
vn -0.6863 -0.3390 0.6435
vn -0.2878 -0.9322 0.2193
vn 0.3818 -0.2073 -0.9007
vn 0.1757 -0.8751 -0.4510
vn 0.2467 -0.8759 -0.4145
vn 0.3817 -0.2073 -0.9007
vn -0.4430 0.8658 -0.2326
vn 0.0079 0.5329 -0.8461
vn 0.0747 0.5678 -0.8198
vn -0.4431 0.8658 -0.2326
vn -0.7818 0.4622 0.4186
vn 0.2468 -0.8759 -0.4145
vn -0.2286 -0.9346 0.2727
vn 0.0748 0.5678 -0.8197
vn 0.0747 0.5678 -0.8197
vn 0.0080 0.5329 -0.8462
vn -0.7817 0.4622 0.4186
vn 0.8758 -0.0309 -0.4817
vn 0.9128 -0.2650 0.3106
vn 0.0958 0.9840 0.1501
vn 0.8124 0.5784 0.0739
vn 0.5854 0.7022 -0.4051
vn 0.3121 0.5167 0.7972
vn -0.1344 -0.1554 0.9787
vn 0.5855 0.7022 -0.4051
vn 0.5855 0.7022 -0.4052
vn 0.5099 0.7525 0.4168
vn -0.2247 0.6023 0.7660
vn -0.4831 -0.2780 0.8302
vn -0.5820 0.5518 0.5973
vn -0.4831 -0.2780 0.8303
vn 0.4833 -0.8342 -0.2656
vn -0.0090 -0.8949 0.4462
vn 0.4833 -0.8342 -0.2655
vn 0.2468 -0.8760 -0.4145
vn 0.3052 0.6612 -0.6854
vn 0.6231 -0.1416 -0.7692
vn 0.3052 0.6612 -0.6853
vn -0.2312 0.9698 -0.0771
vn -0.5819 0.5518 0.5973
vn -0.4831 -0.2781 0.8302
vn 0.6232 -0.1416 -0.7692
vn -0.2312 0.9698 -0.0772
vn 0.0748 0.5679 -0.8197
vn -0.2312 0.9699 -0.0771
vn 0.0747 0.5679 -0.8197
vt 0.543243 0.635056
vt 0.535370 0.641335
vt 0.537796 0.636299
vt 0.537796 0.646370
vt 0.547607 0.638535
vt 0.543243 0.647614
vt 0.547607 0.644127
vt 0.593674 0.671494
vt 0.598511 0.669548
vt 0.596146 0.672157
vt 0.592773 0.669609
vt 0.596436 0.666756
vt 0.592804 0.667854
vt 0.594147 0.666748
vt 0.591187 0.666855
vt 0.590591 0.669838
vt 0.587372 0.669685
vt 0.591782 0.673050
vt 0.588348 0.674789
vt 0.582382 0.669067
vt 0.582687 0.676537
vt 0.595596 0.675606
vt 0.592606 0.680244
vt 0.586334 0.684982
vt 0.603775 0.674767
vt 0.603561 0.686485
vt 0.594009 0.696274
vt 0.603775 0.658051
vt 0.597107 0.663902
vt 0.596405 0.659698
vt 0.602859 0.665543
vt 0.600342 0.651657
vt 0.594193 0.655174
vt 0.593353 0.664742
vt 0.591705 0.661980
vt 0.588959 0.658463
vt 0.588654 0.665283
vt 0.584778 0.662933
vt 0.580322 0.660286
vt 0.576584 0.668175
vt 0.591812 0.651588
vt 0.585907 0.654999
vt 0.579453 0.688484
vt 0.584915 0.699394
vt 0.576157 0.678001
vt 0.597061 0.648293
vt 0.627350 0.682632
vt 0.649124 0.687675
vt 0.627441 0.688225
vt 0.649033 0.682457
vt 0.627441 0.671455
vt 0.649033 0.677231
vt 0.627350 0.677048
vt 0.649124 0.672005
vt 0.627914 0.660294
vt 0.649292 0.666786
vt 0.627625 0.665871
vt 0.649551 0.661568
vt 0.649292 0.692902
vt 0.627625 0.693810
vt 0.649551 0.698120
vt 0.627914 0.699394
s 0
usemtl decorations
f 240/1/1 239/2/1 238/3/1
f 237/1/1 236/4/1 235/2/1
f 234/5/1 233/4/1 232/1/1
f 231/5/1 230/6/1 229/4/1
f 228/6/1 227/5/1 226/7/1
s 1
f 225/8/2 224/9/3 223/10/4
f 222/11/5 221/9/3 220/8/6
f 219/11/7 218/12/8 217/9/3
f 216/13/9 215/12/8 214/11/7
f 213/12/8 212/13/10 211/14/11
f 210/15/12 209/11/7 208/16/13
f 207/15/12 206/13/9 205/11/7
f 204/17/14 203/18/15 202/19/16
f 201/17/17 200/16/13 199/18/15
f 198/20/18 197/19/19 196/21/20
f 195/20/18 194/17/17 193/19/16
f 192/19/16 191/22/21 190/23/22
f 189/19/16 188/18/15 187/22/21
f 186/21/23 185/23/22 184/24/24
f 183/21/23 3/19/16 182/23/22
f 181/23/25 180/25/26 179/26/27
f 178/23/25 177/22/28 176/25/29
f 175/24/30 174/26/27 173/27/31
f 172/24/32 4/23/25 171/26/27
f 170/28/33 169/29/34 168/30/35
f 167/28/33 166/31/26 165/29/36
f 164/32/37 163/30/38 162/33/39
f 161/32/37 13/28/27 160/30/40
f 159/30/35 158/34/41 157/35/42
f 156/30/35 155/29/43 154/34/41
f 153/33/44 152/35/42 151/36/45
f 150/33/44 14/30/35 149/35/42
f 148/35/46 147/15/47 146/37/48
f 145/35/42 144/34/49 143/15/50
f 142/36/45 141/37/48 140/38/51
f 139/36/45 16/35/42 138/37/48
f 137/37/52 136/16/13 135/17/53
f 134/37/54 133/15/50 132/16/13
f 131/38/55 130/17/53 129/20/56
f 128/38/55 36/37/57 25/17/53
f 127/39/58 126/20/56 125/40/59
f 124/39/58 123/38/60 122/20/56
f 121/41/61 120/36/62 119/42/63
f 118/41/64 117/33/44 116/36/62
f 115/43/65 114/27/66 113/44/67
f 112/43/68 111/24/24 110/27/66
f 109/40/59 108/21/20 107/45/69
f 106/40/59 40/20/18 105/21/20
f 104/42/70 103/38/51 102/39/71
f 101/42/70 41/36/45 42/38/51
f 100/46/72 99/33/44 98/41/64
f 97/46/73 37/32/74 38/33/44
f 96/45/75 95/24/24 94/43/68
f 93/45/75 33/21/23 34/24/24
f 92/29/76 91/14/11 90/34/49
f 89/29/43 88/12/8 87/14/77
f 86/22/78 85/9/79 84/25/80
f 83/22/28 82/10/4 81/9/79
f 80/16/13 79/8/81 78/18/15
f 29/16/82 30/11/5 77/8/81
f 76/31/83 75/12/8 28/29/36
f 31/31/84 26/9/79 27/12/8
f 74/18/15 73/10/85 24/22/21
f 21/18/86 22/8/81 23/10/4
f 72/34/49 71/13/9 20/15/50
f 17/34/49 18/14/11 19/13/9
f 70/47/87 69/48/75 68/49/88
f 67/47/89 66/50/59 65/48/69
f 64/51/90 63/52/58 62/53/91
f 61/51/92 60/54/93 59/52/71
f 58/55/94 57/56/61 56/57/95
f 55/55/96 54/58/73 53/56/64
f 52/49/88 51/59/65 50/60/97
f 2/49/98 32/48/69 49/59/68
f 48/53/91 47/50/59 12/47/99
f 9/53/91 10/52/58 11/50/59
f 46/57/95 45/54/93 8/51/90
f 5/57/100 6/56/64 7/54/70
f 44/60/101 43/61/102 15/62/96
f 1/60/103 35/59/68 39/61/104
