# Blender 5.0.0
# www.blender.org
mtllib Circle_005_Circle_001_Dupli_138_decorations_0.mtl
o Circle.005|Circle.001|Dupli|138_decorations_0
v -4.388376 2.101570 0.581943
v -4.387022 2.101912 0.581760
v -4.386637 2.105384 0.588789
v -4.388568 2.104896 0.589050
v -4.389599 2.103488 0.580819
v -4.389554 2.106191 0.585568
v -4.388570 2.106953 0.585137
v -4.388547 2.104304 0.580358
v -4.387159 2.104104 0.580489
v -4.387273 2.106766 0.585260
v -4.386639 2.105771 0.585843
v -4.386480 2.103039 0.581113
v -4.390205 2.105897 0.588452
v -4.390314 2.107633 0.587446
v -4.389523 2.102272 0.581524
v -4.388813 2.108796 0.586789
v -4.388708 2.109168 0.588258
v -4.388538 2.109118 0.589428
v -4.387486 2.108967 0.589527
v -4.387097 2.108936 0.588411
v -4.386938 2.106391 0.589886
v -4.387382 2.107306 0.590490
v -4.388408 2.107047 0.590629
v -4.388509 2.105995 0.590098
v -4.385864 2.106992 0.587866
v -4.389277 2.107579 0.590311
v -4.389335 2.108501 0.589777
v -4.389929 2.108222 0.588793
v -4.386309 2.107701 0.589135
v -4.386972 2.108160 0.590000
v -4.389841 2.106809 0.589612
v -4.387145 2.104717 0.586448
v -4.386829 2.104841 0.587389
v -4.388501 2.104419 0.587614
v -4.388411 2.104398 0.586619
v -4.386833 2.108511 0.586976
v -4.389918 2.105286 0.587097
v -4.390012 2.106788 0.586226
v -4.389482 2.105054 0.586227
v -4.386161 2.106234 0.586590
v -4.388713 2.107795 0.585657
v -4.386999 2.107549 0.585819
v -4.389482 2.105054 0.586227
v -4.388376 2.101570 0.581943
v -4.388570 2.106953 0.585137
v -4.389599 2.103488 0.580819
v -4.386639 2.105771 0.585843
v -4.387159 2.104104 0.580489
v -4.388411 2.104398 0.586619
v -4.388376 2.101570 0.581943
v -4.388411 2.104398 0.586619
v -4.387022 2.101912 0.581760
v -4.389554 2.106191 0.585568
v -4.389482 2.105054 0.586227
v -4.389523 2.102272 0.581524
v -4.389599 2.103488 0.580819
v -4.389554 2.106191 0.585568
v -4.389523 2.102272 0.581524
v -4.387273 2.106766 0.585260
v -4.388570 2.106953 0.585137
v -4.388547 2.104304 0.580358
v -4.387159 2.104104 0.580489
v -4.387273 2.106766 0.585260
v -4.388547 2.104304 0.580358
v -4.387145 2.104717 0.586448
v -4.386639 2.105771 0.585843
v -4.386480 2.103039 0.581113
v -4.387022 2.101912 0.581760
v -4.387145 2.104717 0.586448
v -4.386480 2.103039 0.581113
v -4.387486 2.108967 0.589527
v -4.388708 2.109168 0.588258
v -4.388408 2.107047 0.590629
v -4.386938 2.106391 0.589886
v -4.389335 2.108501 0.589777
v -4.389841 2.106809 0.589612
v -4.387382 2.107306 0.590490
v -4.386938 2.106391 0.589886
v -4.387382 2.107306 0.590490
v -4.386309 2.107701 0.589135
v -4.389277 2.107579 0.590311
v -4.388408 2.107047 0.590629
v -4.388509 2.105995 0.590098
v -4.389841 2.106809 0.589612
v -4.389277 2.107579 0.590311
v -4.388509 2.105995 0.590098
v -4.388538 2.109118 0.589428
v -4.389335 2.108501 0.589777
v -4.389929 2.108222 0.588793
v -4.388708 2.109168 0.588258
v -4.388538 2.109118 0.589428
v -4.389929 2.108222 0.588793
v -4.387145 2.104717 0.586448
v -4.388411 2.104398 0.586619
v -4.388501 2.104419 0.587614
v -4.387145 2.104717 0.586448
v -4.389482 2.105054 0.586227
v -4.389554 2.106191 0.585568
v -4.390012 2.106788 0.586226
v -4.389482 2.105054 0.586227
v -4.388570 2.106953 0.585137
v -4.387273 2.106766 0.585260
v -4.386999 2.107549 0.585819
v -4.388570 2.106953 0.585137
v -4.386829 2.104841 0.587389
v -4.386639 2.105771 0.585843
v -4.387145 2.104717 0.586448
v -4.386829 2.104841 0.587389
v -4.386639 2.105771 0.585843
v -4.389918 2.105286 0.587097
v -4.388501 2.104419 0.587614
v -4.388411 2.104398 0.586619
v -4.389482 2.105054 0.586227
v -4.389918 2.105286 0.587097
v -4.388411 2.104398 0.586619
v -4.388713 2.107795 0.585657
v -4.390012 2.106788 0.586226
v -4.389554 2.106191 0.585568
v -4.388570 2.106953 0.585137
v -4.388713 2.107795 0.585657
v -4.389554 2.106191 0.585568
v -4.386161 2.106234 0.586590
v -4.386999 2.107549 0.585819
v -4.387273 2.106766 0.585260
v -4.386639 2.105771 0.585843
v -4.386161 2.106234 0.586590
v -4.387273 2.106766 0.585260
v -4.386999 2.107549 0.585819
v -4.386161 2.106234 0.586590
v -4.385864 2.106992 0.587866
v -4.386999 2.107549 0.585819
v -4.386309 2.107701 0.589135
v -4.387097 2.108936 0.588411
v -4.386833 2.108511 0.586976
v -4.385864 2.106992 0.587866
v -4.386309 2.107701 0.589135
v -4.386833 2.108511 0.586976
v -4.386833 2.108511 0.586976
v -4.388713 2.107795 0.585657
v -4.386999 2.107549 0.585819
v -4.386833 2.108511 0.586976
v -4.388713 2.107795 0.585657
v -4.387097 2.108936 0.588411
v -4.388708 2.109168 0.588258
v -4.388813 2.108796 0.586789
v -4.386833 2.108511 0.586976
v -4.387097 2.108936 0.588411
v -4.388813 2.108796 0.586789
v -4.388813 2.108796 0.586789
v -4.390012 2.106788 0.586226
v -4.388713 2.107795 0.585657
v -4.388813 2.108796 0.586789
v -4.390012 2.106788 0.586226
v -4.388708 2.109168 0.588258
v -4.389929 2.108222 0.588793
v -4.390314 2.107633 0.587446
v -4.388813 2.108796 0.586789
v -4.388708 2.109168 0.588258
v -4.390314 2.107633 0.587446
v -4.390314 2.107633 0.587446
v -4.389918 2.105286 0.587097
v -4.390012 2.106788 0.586226
v -4.390314 2.107633 0.587446
v -4.389918 2.105286 0.587097
v -4.389929 2.108222 0.588793
v -4.389841 2.106809 0.589612
v -4.390205 2.105897 0.588452
v -4.390314 2.107633 0.587446
v -4.389929 2.108222 0.588793
v -4.390205 2.105897 0.588452
v -4.390205 2.105897 0.588452
v -4.388501 2.104419 0.587614
v -4.389918 2.105286 0.587097
v -4.390205 2.105897 0.588452
v -4.388501 2.104419 0.587614
v -4.389841 2.106809 0.589612
v -4.388509 2.105995 0.590098
v -4.388568 2.104896 0.589050
v -4.390205 2.105897 0.588452
v -4.389841 2.106809 0.589612
v -4.388568 2.104896 0.589050
v -4.388568 2.104896 0.589050
v -4.386829 2.104841 0.587389
v -4.388501 2.104419 0.587614
v -4.388568 2.104896 0.589050
v -4.386829 2.104841 0.587389
v -4.388509 2.105995 0.590098
v -4.386938 2.106391 0.589886
v -4.386637 2.105384 0.588789
v -4.388568 2.104896 0.589050
v -4.388509 2.105995 0.590098
v -4.386637 2.105384 0.588789
v -4.386637 2.105384 0.588789
v -4.385864 2.106992 0.587866
v -4.386161 2.106234 0.586590
v -4.386829 2.104841 0.587389
v -4.386637 2.105384 0.588789
v -4.386161 2.106234 0.586590
v -4.386938 2.106391 0.589886
v -4.386309 2.107701 0.589135
v -4.385864 2.106992 0.587866
v -4.386637 2.105384 0.588789
v -4.386938 2.106391 0.589886
v -4.385864 2.106992 0.587866
v -4.386972 2.108160 0.590000
v -4.387486 2.108967 0.589527
v -4.387097 2.108936 0.588411
v -4.386309 2.107701 0.589135
v -4.386972 2.108160 0.590000
v -4.387097 2.108936 0.588411
v -4.388538 2.109118 0.589428
v -4.387486 2.108967 0.589527
v -4.389335 2.108501 0.589777
v -4.386972 2.108160 0.590000
v -4.389335 2.108501 0.589777
v -4.387486 2.108967 0.589527
v -4.389277 2.107579 0.590311
v -4.389335 2.108501 0.589777
v -4.386972 2.108160 0.590000
v -4.387382 2.107306 0.590490
v -4.389277 2.107579 0.590311
v -4.386972 2.108160 0.590000
v -4.388408 2.107047 0.590629
v -4.389277 2.107579 0.590311
v -4.387382 2.107306 0.590490
v -4.388547 2.104304 0.580358
v -4.389599 2.103488 0.580819
v -4.387159 2.104104 0.580489
v -4.386480 2.103039 0.581113
v -4.387159 2.104104 0.580489
v -4.389599 2.103488 0.580819
v -4.389523 2.102272 0.581524
v -4.386480 2.103039 0.581113
v -4.389599 2.103488 0.580819
v -4.387022 2.101912 0.581760
v -4.386480 2.103039 0.581113
v -4.389523 2.102272 0.581524
v -4.388376 2.101570 0.581943
v -4.387022 2.101912 0.581760
v -4.389523 2.102272 0.581524
vn 0.0097 -0.5011 -0.8653
vn 0.3669 0.0511 0.9289
vn -0.5020 0.1763 0.8467
vn -0.1035 -0.0676 0.9923
vn 0.5551 0.4430 0.7040
vn -0.5020 0.1762 0.8467
vn 0.3669 0.0511 0.9288
vn 0.5551 0.4429 0.7041
vn -0.5285 0.5990 0.6016
vn 0.3192 0.8128 0.4873
vn -0.5285 0.5989 0.6017
vn 0.3193 0.8128 0.4873
vn -0.1630 0.8823 0.4417
vn 0.5258 0.8505 -0.0150
vn 0.9076 0.2517 0.3361
vn 0.5550 0.4429 0.7041
vn 0.9974 0.0705 0.0139
vn 0.6030 -0.3827 0.6999
vn 0.6640 -0.6238 0.4123
vn 0.9974 0.0706 0.0140
vn 0.9076 0.2516 0.3361
vn 0.6030 -0.3826 0.7000
vn 0.9432 -0.1205 -0.3096
vn 0.6291 -0.7745 0.0657
vn 0.6640 -0.6237 0.4124
vn -0.1586 -0.5748 0.8028
vn -0.1697 -0.8341 0.5248
vn 0.6030 -0.3827 0.7000
vn 0.6291 -0.7746 0.0656
vn -0.1696 -0.8341 0.5248
vn -0.1562 -0.9727 0.1717
vn -0.8038 -0.1802 0.5670
vn -0.8759 -0.4021 0.2667
vn -0.1587 -0.5748 0.8027
vn -0.8038 -0.1801 0.5670
vn -0.1563 -0.9727 0.1716
vn -0.8215 -0.5657 -0.0714
vn -0.8466 0.5042 0.1702
vn -0.9228 0.3470 -0.1675
vn -0.8466 0.5042 0.1703
vn -0.8215 -0.5657 -0.0715
vn -0.8657 0.1400 -0.4805
vn -0.2549 0.9629 -0.0887
vn -0.2751 0.8491 -0.4510
vn -0.8657 0.1400 -0.4806
vn -0.2555 0.6130 -0.7476
vn -0.2750 0.8491 -0.4511
vn 0.5795 0.7260 -0.3702
vn -0.2549 0.9629 -0.0888
vn 0.5258 0.8505 -0.0149
vn -0.2555 0.6130 -0.7477
vn 0.5495 0.4971 -0.6715
vn 0.5795 0.7260 -0.3703
vn 0.9076 0.2517 0.3360
vn 0.9974 0.0705 0.0140
vn 0.5495 0.4970 -0.6716
vn 0.9432 -0.1204 -0.3096
vn 0.5627 0.5521 -0.6152
vn 0.9664 -0.0810 -0.2441
vn 0.5627 0.5521 -0.6153
vn -0.8885 0.1860 -0.4194
vn -0.2556 0.6130 -0.7476
vn -0.2628 0.6710 -0.6933
vn -0.1611 -0.9549 0.2494
vn -0.8432 -0.5376 -0.0000
vn -0.1610 -0.9549 0.2493
vn 0.6443 -0.7517 0.1406
vn 0.5626 0.5521 -0.6153
vn -0.2629 0.6710 -0.6933
vn -0.8432 -0.5376 0.0001
vn -0.8657 0.1399 -0.4806
vn -0.8885 0.1860 -0.4195
vn -0.8215 -0.5656 -0.0715
vn 0.6443 -0.7517 0.1407
vn -0.1562 -0.9727 0.1716
vn -0.1611 -0.9549 0.2493
vn -0.1630 0.8822 0.4417
vn -0.1629 0.8823 0.4416
vn -0.1587 -0.5748 0.8028
vn 0.3669 0.0512 0.9289
vn 0.9981 0.0613 -0.0020
vn 0.6645 -0.6334 0.3965
vn 0.9663 -0.0810 -0.2441
vn -0.2750 0.8403 -0.4673
vn 0.5627 0.5522 -0.6153
vn 0.5799 0.7172 -0.3864
vn -0.2750 0.8403 -0.4672
vn -0.8762 -0.4115 0.2509
vn -0.8885 0.1861 -0.4194
vn -0.9231 0.3379 -0.1836
vn -0.1610 -0.9549 0.2494
vn -0.1695 -0.8439 0.5091
vn 0.6645 -0.6334 0.3966
vn 0.5800 0.7171 -0.3864
vn 0.5800 0.7172 -0.3864
vn -0.1696 -0.8439 0.5091
vn -0.8762 -0.4116 0.2509
vn -0.1696 -0.8438 0.5091
vt 0.543243 0.635056
vt 0.535370 0.641335
vt 0.537796 0.636299
vt 0.537796 0.646370
vt 0.547607 0.638535
vt 0.543243 0.647614
vt 0.547607 0.644127
vt 0.593674 0.671494
vt 0.598511 0.669548
vt 0.596146 0.672157
vt 0.592773 0.669609
vt 0.596436 0.666756
vt 0.592804 0.667854
vt 0.594147 0.666748
vt 0.591187 0.666855
vt 0.590591 0.669838
vt 0.587372 0.669685
vt 0.591782 0.673050
vt 0.588348 0.674789
vt 0.582382 0.669067
vt 0.582687 0.676537
vt 0.595596 0.675606
vt 0.592606 0.680244
vt 0.586334 0.684982
vt 0.603775 0.674767
vt 0.603561 0.686485
vt 0.594009 0.696274
vt 0.603775 0.658051
vt 0.597107 0.663902
vt 0.596405 0.659698
vt 0.602859 0.665543
vt 0.600342 0.651657
vt 0.594193 0.655174
vt 0.593353 0.664742
vt 0.591705 0.661980
vt 0.588959 0.658463
vt 0.588654 0.665283
vt 0.584778 0.662933
vt 0.580322 0.660286
vt 0.576584 0.668175
vt 0.591812 0.651588
vt 0.585907 0.654999
vt 0.579453 0.688484
vt 0.584915 0.699394
vt 0.576157 0.678001
vt 0.597061 0.648293
vt 0.627350 0.682632
vt 0.649124 0.687675
vt 0.627441 0.688225
vt 0.649033 0.682457
vt 0.627441 0.671455
vt 0.649033 0.677231
vt 0.627350 0.677048
vt 0.649124 0.672005
vt 0.627914 0.660294
vt 0.649292 0.666786
vt 0.627625 0.665871
vt 0.649551 0.661568
vt 0.649292 0.692902
vt 0.627625 0.693810
vt 0.649551 0.698120
vt 0.627914 0.699394
s 0
usemtl decorations
f 240/1/1 239/2/1 238/3/1
f 237/1/1 236/4/1 235/2/1
f 234/5/1 233/4/1 232/1/1
f 231/5/1 230/6/1 229/4/1
f 228/6/1 227/5/1 226/7/1
s 1
f 225/8/2 224/9/3 223/10/4
f 222/11/5 221/9/6 220/8/7
f 219/11/8 218/12/9 217/9/3
f 216/13/10 215/12/11 214/11/8
f 213/12/9 212/13/12 211/14/13
f 210/15/14 209/11/8 208/16/15
f 207/15/14 206/13/10 205/11/16
f 204/17/17 203/18/18 202/19/19
f 201/17/20 200/16/21 199/18/22
f 198/20/23 197/19/19 196/21/24
f 195/20/23 194/17/20 193/19/25
f 192/19/19 191/22/26 190/23/27
f 189/19/19 188/18/28 187/22/26
f 186/21/29 185/23/30 184/24/31
f 183/21/29 3/19/19 182/23/30
f 181/23/27 180/25/32 179/26/33
f 178/23/27 177/22/34 176/25/35
f 175/24/36 174/26/33 173/27/37
f 172/24/36 4/23/27 171/26/33
f 170/28/33 169/29/38 168/30/39
f 167/28/33 166/31/35 165/29/40
f 164/32/41 163/30/39 162/33/42
f 161/32/41 13/28/33 160/30/39
f 159/30/39 158/34/43 157/35/44
f 156/30/39 155/29/38 154/34/43
f 153/33/45 152/35/44 151/36/46
f 150/33/45 14/30/39 149/35/44
f 148/35/47 147/15/14 146/37/48
f 145/35/47 144/34/49 143/15/50
f 142/36/51 141/37/48 140/38/52
f 139/36/51 16/35/44 138/37/53
f 137/37/53 136/16/54 135/17/55
f 134/37/48 133/15/14 132/16/15
f 131/38/56 130/17/55 129/20/57
f 128/38/56 36/37/48 25/17/55
f 127/39/58 126/20/57 125/40/59
f 124/39/60 123/38/52 122/20/57
f 121/41/61 120/36/62 119/42/63
f 118/41/61 117/33/45 116/36/62
f 115/43/64 114/27/37 113/44/65
f 112/43/66 111/24/36 110/27/37
f 109/40/59 108/21/24 107/45/67
f 106/40/59 40/20/57 105/21/24
f 104/42/63 103/38/52 102/39/68
f 101/42/69 41/36/46 42/38/52
f 100/46/70 99/33/71 98/41/72
f 97/46/70 37/32/73 38/33/71
f 96/45/74 95/24/75 94/43/76
f 93/45/74 33/21/24 34/24/31
f 92/29/38 91/14/77 90/34/43
f 89/29/38 88/12/11 87/14/78
f 86/22/79 85/9/3 84/25/35
f 83/22/79 82/10/4 81/9/3
f 80/16/21 79/8/2 78/18/22
f 29/16/21 30/11/5 77/8/80
f 76/31/35 75/12/9 28/29/40
f 31/31/35 26/9/3 27/12/11
f 74/18/18 73/10/4 24/22/26
f 21/18/18 22/8/80 23/10/4
f 72/34/43 71/13/10 20/15/50
f 17/34/43 18/14/77 19/13/10
f 70/47/81 69/48/74 68/49/82
f 67/47/81 66/50/83 65/48/74
f 64/51/84 63/52/85 62/53/86
f 61/51/87 60/54/63 59/52/68
f 58/55/88 57/56/89 56/57/90
f 55/55/88 54/58/70 53/56/72
f 52/49/82 51/59/91 50/60/92
f 2/49/93 32/48/67 49/59/91
f 48/53/94 47/50/59 12/47/81
f 9/53/95 10/52/60 11/50/59
f 46/57/90 45/54/63 8/51/84
f 5/57/90 6/56/72 7/54/63
f 44/60/96 43/61/70 15/62/97
f 1/60/98 35/59/66 39/61/70
