# Blender 5.0.0
# www.blender.org
mtllib Circle_002_Circle_004_Dupli_92_decorations_0.mtl
o Circle.002|Circle.004|Dupli|92_decorations_0
v -4.281378 1.420642 0.646681
v -4.280737 1.420797 0.647926
v -4.275941 1.426335 0.645109
v -4.276855 1.426114 0.643333
v -4.280115 1.418706 0.645633
v -4.276594 1.422282 0.643470
v -4.275704 1.421980 0.644392
v -4.279163 1.418383 0.646619
v -4.278961 1.418985 0.647876
v -4.275515 1.422543 0.645567
v -4.276170 1.423547 0.646110
v -4.279662 1.420059 0.648458
v -4.276460 1.424787 0.641877
v -4.275054 1.423352 0.641838
v -4.281101 1.419712 0.645661
v -4.273695 1.422891 0.643244
v -4.273020 1.424155 0.642740
v -4.272786 1.425285 0.642479
v -4.272633 1.425742 0.643431
v -4.272786 1.424855 0.644199
v -4.274848 1.426958 0.644257
v -4.273979 1.427114 0.643469
v -4.274465 1.426997 0.642526
v -4.275591 1.426778 0.642812
v -4.274406 1.425283 0.645867
v -4.274255 1.426292 0.641753
v -4.273508 1.425530 0.641732
v -4.274126 1.424531 0.641595
v -4.273599 1.426102 0.644874
v -4.273164 1.426556 0.643872
v -4.275270 1.425698 0.641627
v -4.277176 1.424236 0.645613
v -4.276786 1.425154 0.645538
v -4.277577 1.424963 0.644001
v -4.277774 1.424092 0.644450
v -4.273407 1.423750 0.645038
v -4.277235 1.423814 0.642741
v -4.276018 1.422572 0.642707
v -4.277516 1.423222 0.643496
v -4.275458 1.424243 0.646194
v -4.274842 1.422173 0.643924
v -4.274592 1.422917 0.645476
v -4.277516 1.423222 0.643496
v -4.281378 1.420642 0.646681
v -4.275704 1.421980 0.644392
v -4.280115 1.418706 0.645633
v -4.276170 1.423547 0.646110
v -4.278961 1.418985 0.647876
v -4.277774 1.424092 0.644450
v -4.281378 1.420642 0.646681
v -4.277774 1.424092 0.644450
v -4.280737 1.420797 0.647926
v -4.276594 1.422282 0.643470
v -4.277516 1.423222 0.643496
v -4.281101 1.419712 0.645661
v -4.280115 1.418706 0.645633
v -4.276594 1.422282 0.643470
v -4.281101 1.419712 0.645661
v -4.275515 1.422543 0.645567
v -4.275704 1.421980 0.644392
v -4.279163 1.418383 0.646619
v -4.278961 1.418985 0.647876
v -4.275515 1.422543 0.645567
v -4.279163 1.418383 0.646619
v -4.277176 1.424236 0.645613
v -4.276170 1.423547 0.646110
v -4.279662 1.420059 0.648458
v -4.280737 1.420797 0.647926
v -4.277176 1.424236 0.645613
v -4.279662 1.420059 0.648458
v -4.272633 1.425742 0.643431
v -4.273020 1.424155 0.642740
v -4.274465 1.426997 0.642526
v -4.274848 1.426958 0.644257
v -4.273508 1.425530 0.641732
v -4.275270 1.425698 0.641627
v -4.273979 1.427114 0.643469
v -4.274848 1.426958 0.644257
v -4.273979 1.427114 0.643469
v -4.273599 1.426102 0.644874
v -4.274255 1.426292 0.641753
v -4.274465 1.426997 0.642526
v -4.275591 1.426778 0.642812
v -4.275270 1.425698 0.641627
v -4.274255 1.426292 0.641753
v -4.275591 1.426778 0.642812
v -4.272786 1.425285 0.642479
v -4.273508 1.425530 0.641732
v -4.274126 1.424531 0.641595
v -4.273020 1.424155 0.642740
v -4.272786 1.425285 0.642479
v -4.274126 1.424531 0.641595
v -4.277176 1.424236 0.645613
v -4.277774 1.424092 0.644450
v -4.277577 1.424963 0.644001
v -4.277176 1.424236 0.645613
v -4.277516 1.423222 0.643496
v -4.276594 1.422282 0.643470
v -4.276018 1.422572 0.642707
v -4.277516 1.423222 0.643496
v -4.275704 1.421980 0.644392
v -4.275515 1.422543 0.645567
v -4.274592 1.422917 0.645476
v -4.275704 1.421980 0.644392
v -4.276786 1.425154 0.645538
v -4.276170 1.423547 0.646110
v -4.277176 1.424236 0.645613
v -4.276786 1.425154 0.645538
v -4.276170 1.423547 0.646110
v -4.277235 1.423814 0.642741
v -4.277577 1.424963 0.644001
v -4.277774 1.424092 0.644450
v -4.277516 1.423222 0.643496
v -4.277235 1.423814 0.642741
v -4.277774 1.424092 0.644450
v -4.274842 1.422173 0.643924
v -4.276018 1.422572 0.642707
v -4.276594 1.422282 0.643470
v -4.275704 1.421980 0.644392
v -4.274842 1.422173 0.643924
v -4.276594 1.422282 0.643470
v -4.275458 1.424243 0.646194
v -4.274592 1.422917 0.645476
v -4.275515 1.422543 0.645567
v -4.276170 1.423547 0.646110
v -4.275458 1.424243 0.646194
v -4.275515 1.422543 0.645567
v -4.274592 1.422917 0.645476
v -4.275458 1.424243 0.646194
v -4.274406 1.425283 0.645867
v -4.274592 1.422917 0.645476
v -4.273599 1.426102 0.644874
v -4.272786 1.424855 0.644199
v -4.273407 1.423750 0.645038
v -4.274406 1.425283 0.645867
v -4.273599 1.426102 0.644874
v -4.273407 1.423750 0.645038
v -4.273407 1.423750 0.645038
v -4.274842 1.422173 0.643924
v -4.274592 1.422917 0.645476
v -4.273407 1.423750 0.645038
v -4.274842 1.422173 0.643924
v -4.272786 1.424855 0.644199
v -4.273020 1.424155 0.642740
v -4.273695 1.422891 0.643244
v -4.273407 1.423750 0.645038
v -4.272786 1.424855 0.644199
v -4.273695 1.422891 0.643244
v -4.273695 1.422891 0.643244
v -4.276018 1.422572 0.642707
v -4.274842 1.422173 0.643924
v -4.273695 1.422891 0.643244
v -4.276018 1.422572 0.642707
v -4.273020 1.424155 0.642740
v -4.274126 1.424531 0.641595
v -4.275054 1.423352 0.641838
v -4.273695 1.422891 0.643244
v -4.273020 1.424155 0.642740
v -4.275054 1.423352 0.641838
v -4.275054 1.423352 0.641838
v -4.277235 1.423814 0.642741
v -4.276018 1.422572 0.642707
v -4.275054 1.423352 0.641838
v -4.277235 1.423814 0.642741
v -4.274126 1.424531 0.641595
v -4.275270 1.425698 0.641627
v -4.276460 1.424787 0.641877
v -4.275054 1.423352 0.641838
v -4.274126 1.424531 0.641595
v -4.276460 1.424787 0.641877
v -4.276460 1.424787 0.641877
v -4.277577 1.424963 0.644001
v -4.277235 1.423814 0.642741
v -4.276460 1.424787 0.641877
v -4.277577 1.424963 0.644001
v -4.275270 1.425698 0.641627
v -4.275591 1.426778 0.642812
v -4.276855 1.426114 0.643333
v -4.276460 1.424787 0.641877
v -4.275270 1.425698 0.641627
v -4.276855 1.426114 0.643333
v -4.276855 1.426114 0.643333
v -4.276786 1.425154 0.645538
v -4.277577 1.424963 0.644001
v -4.276855 1.426114 0.643333
v -4.276786 1.425154 0.645538
v -4.275591 1.426778 0.642812
v -4.274848 1.426958 0.644257
v -4.275941 1.426335 0.645109
v -4.276855 1.426114 0.643333
v -4.275591 1.426778 0.642812
v -4.275941 1.426335 0.645109
v -4.275941 1.426335 0.645109
v -4.274406 1.425283 0.645867
v -4.275458 1.424243 0.646194
v -4.276786 1.425154 0.645538
v -4.275941 1.426335 0.645109
v -4.275458 1.424243 0.646194
v -4.274848 1.426958 0.644257
v -4.273599 1.426102 0.644874
v -4.274406 1.425283 0.645867
v -4.275941 1.426335 0.645109
v -4.274848 1.426958 0.644257
v -4.274406 1.425283 0.645867
v -4.273164 1.426556 0.643872
v -4.272633 1.425742 0.643431
v -4.272786 1.424855 0.644199
v -4.273599 1.426102 0.644874
v -4.273164 1.426556 0.643872
v -4.272786 1.424855 0.644199
v -4.272786 1.425285 0.642479
v -4.272633 1.425742 0.643431
v -4.273508 1.425530 0.641732
v -4.273164 1.426556 0.643872
v -4.273508 1.425530 0.641732
v -4.272633 1.425742 0.643431
v -4.274255 1.426292 0.641753
v -4.273508 1.425530 0.641732
v -4.273164 1.426556 0.643872
v -4.273979 1.427114 0.643469
v -4.274255 1.426292 0.641753
v -4.273164 1.426556 0.643872
v -4.274465 1.426997 0.642526
v -4.274255 1.426292 0.641753
v -4.273979 1.427114 0.643469
v -4.279163 1.418383 0.646619
v -4.280115 1.418706 0.645633
v -4.278961 1.418985 0.647876
v -4.279662 1.420059 0.648458
v -4.278961 1.418985 0.647876
v -4.280115 1.418706 0.645633
v -4.281101 1.419712 0.645661
v -4.279662 1.420059 0.648458
v -4.280115 1.418706 0.645633
v -4.280737 1.420797 0.647926
v -4.279662 1.420059 0.648458
v -4.281101 1.419712 0.645661
v -4.281378 1.420642 0.646681
v -4.280737 1.420797 0.647926
v -4.281101 1.419712 0.645661
vn -0.6450 -0.6437 0.4120
vn 0.3319 0.9433 -0.0113
vn 0.2056 0.5661 -0.7983
vn 0.1094 0.8895 -0.4437
vn 0.7057 0.6870 0.1735
vn 0.2056 0.5662 -0.7982
vn 0.3319 0.9432 -0.0113
vn 0.7056 0.6871 0.1735
vn 0.5481 0.2168 -0.8078
vn 0.9491 0.3137 -0.0286
vn 0.5480 0.2168 -0.8079
vn 0.7056 0.6870 0.1735
vn 0.9491 0.3138 -0.0286
vn 0.8790 0.1045 -0.4653
vn 0.9374 -0.0899 0.3364
vn 0.5433 0.5144 0.6635
vn 0.7056 0.6870 0.1734
vn 0.3309 0.2998 0.8948
vn -0.0617 0.9292 0.3644
vn -0.3313 0.7539 0.5674
vn 0.3310 0.2998 0.8947
vn 0.0712 0.0423 0.9966
vn -0.5527 0.4701 0.6881
vn -0.3313 0.7539 0.5673
vn -0.4220 0.8422 -0.3357
vn -0.7257 0.6586 -0.1990
vn -0.9242 0.3804 -0.0338
vn -0.2663 0.3188 -0.9096
vn -0.5553 0.0857 -0.8272
vn -0.4221 0.8421 -0.3357
vn -0.9242 0.3803 -0.0338
vn -0.7636 -0.1594 -0.6257
vn -0.5553 0.0856 -0.8273
vn 0.2881 -0.2468 -0.9252
vn 0.0517 -0.5334 -0.8443
vn -0.2663 0.3187 -0.9097
vn 0.2882 -0.2468 -0.9252
vn -0.7636 -0.1594 -0.6256
vn 0.0516 -0.5334 -0.8443
vn -0.1919 -0.7425 -0.6417
vn -0.5553 0.0857 -0.8273
vn 0.0517 -0.5333 -0.8443
vn 0.8239 -0.4287 -0.3707
vn 0.6381 -0.7325 -0.2373
vn -0.1919 -0.7426 -0.6417
vn 0.3606 -0.9301 -0.0699
vn 0.6381 -0.7325 -0.2372
vn 0.9374 -0.0900 0.3364
vn 0.7624 -0.3617 0.5367
vn 0.9374 -0.0899 0.3363
vn 0.3605 -0.9301 -0.0698
vn 0.7623 -0.3617 0.5367
vn 0.4777 -0.5808 0.6592
vn 0.7624 -0.3616 0.5366
vn 0.4776 -0.5808 0.6592
vn 0.0712 0.0424 0.9966
vn 0.7624 -0.3617 0.5366
vn 0.5444 -0.5410 0.6411
vn 0.1276 0.0980 0.9870
vn -0.1421 -0.7069 -0.6929
vn 0.3605 -0.9301 -0.0699
vn 0.4244 -0.8992 -0.1066
vn -0.8930 0.4446 -0.0696
vn -0.7637 -0.1593 -0.6256
vn -0.7284 -0.1089 -0.6765
vn 0.1277 0.0980 0.9870
vn -0.5121 0.5366 0.6707
vn -0.7284 -0.1088 -0.6765
vn -0.8931 0.4445 -0.0696
vn 0.2882 -0.2469 -0.9252
vn 0.5481 0.2169 -0.8078
vn -0.4220 0.8421 -0.3357
vn 0.5432 0.5144 0.6635
vn -0.2663 0.3188 -0.9097
vn -0.0618 0.9292 0.3644
vn 0.1093 0.8895 -0.4437
vn 0.3192 0.2881 0.9029
vn -0.5120 0.5366 0.6707
vn -0.3434 0.7424 0.5753
vn 0.3192 0.2881 0.9028
vn 0.6265 -0.7448 -0.2297
vn 0.7508 -0.3738 0.5445
vn 0.6265 -0.7448 -0.2298
vn -0.5675 0.0738 -0.8201
vn 0.0397 -0.5455 -0.8371
vn -0.5674 0.0738 -0.8201
vn -0.7284 -0.1089 -0.6764
vn -0.7380 0.6471 -0.1914
vn -0.3434 0.7424 0.5752
vn 0.7508 -0.3738 0.5446
vn 0.7509 -0.3737 0.5446
vn 0.0397 -0.5456 -0.8371
vn 0.0398 -0.5455 -0.8371
vn -0.7380 0.6470 -0.1915
vn -0.7380 0.6471 -0.1915
vt 0.530319 0.635056
vt 0.522446 0.641335
vt 0.524872 0.636299
vt 0.524872 0.646370
vt 0.534683 0.638535
vt 0.530319 0.647614
vt 0.534683 0.644127
vt 0.508789 0.671494
vt 0.513626 0.669548
vt 0.511276 0.672157
vt 0.507889 0.669609
vt 0.511566 0.666756
vt 0.507935 0.667854
vt 0.509277 0.666748
vt 0.506302 0.666855
vt 0.505722 0.669838
vt 0.502487 0.669685
vt 0.506897 0.673050
vt 0.503479 0.674789
vt 0.497520 0.669067
vt 0.497810 0.676537
vt 0.510727 0.675606
vt 0.507721 0.680244
vt 0.501465 0.684982
vt 0.518890 0.674767
vt 0.518692 0.686485
vt 0.509125 0.696274
vt 0.518890 0.658051
vt 0.512238 0.663902
vt 0.511536 0.659698
vt 0.517990 0.665543
vt 0.515472 0.651657
vt 0.509323 0.655174
vt 0.508469 0.664742
vt 0.506836 0.661980
vt 0.504074 0.658463
vt 0.503784 0.665283
vt 0.499901 0.662933
vt 0.495453 0.660286
vt 0.491707 0.668175
vt 0.506927 0.651588
vt 0.501038 0.654999
vt 0.494583 0.688484
vt 0.500031 0.699394
vt 0.491287 0.678001
vt 0.512177 0.648293
vt 0.627350 0.642853
vt 0.649124 0.647896
vt 0.627441 0.648445
vt 0.649033 0.642670
vt 0.627441 0.631676
vt 0.649033 0.637444
vt 0.627350 0.637268
vt 0.649124 0.632225
vt 0.627914 0.620506
vt 0.649292 0.626999
vt 0.627625 0.626091
vt 0.649551 0.621780
vt 0.649292 0.653114
vt 0.627625 0.654030
vt 0.649551 0.658333
vt 0.627914 0.659607
s 0
usemtl decorations
f 240/1/1 239/2/1 238/3/1
f 237/1/1 236/4/1 235/2/1
f 234/5/1 233/4/1 232/1/1
f 231/5/1 230/6/1 229/4/1
f 228/6/1 227/5/1 226/7/1
s 1
f 225/8/2 224/9/3 223/10/4
f 222/11/5 221/9/6 220/8/7
f 219/11/8 218/12/9 217/9/3
f 216/13/10 215/12/11 214/11/12
f 213/12/9 212/13/13 211/14/14
f 210/15/15 209/11/12 208/16/16
f 207/15/15 206/13/13 205/11/17
f 204/17/18 203/18/19 202/19/20
f 201/17/21 200/16/16 199/18/19
f 198/20/22 197/19/20 196/21/23
f 195/20/22 194/17/18 193/19/24
f 192/19/20 191/22/25 190/23/26
f 189/19/20 188/18/19 187/22/25
f 186/21/23 185/23/26 184/24/27
f 183/21/23 3/19/20 182/23/26
f 181/23/26 180/25/28 179/26/29
f 178/23/26 177/22/30 176/25/28
f 175/24/31 174/26/29 173/27/32
f 172/24/31 4/23/26 171/26/29
f 170/28/33 169/29/34 168/30/35
f 167/28/33 166/31/36 165/29/37
f 164/32/38 163/30/39 162/33/40
f 161/32/38 13/28/41 160/30/42
f 159/30/35 158/34/43 157/35/44
f 156/30/35 155/29/37 154/34/43
f 153/33/45 152/35/44 151/36/46
f 150/33/45 14/30/35 149/35/44
f 148/35/47 147/15/48 146/37/49
f 145/35/47 144/34/43 143/15/50
f 142/36/51 141/37/52 140/38/53
f 139/36/51 16/35/44 138/37/52
f 137/37/52 136/16/16 135/17/18
f 134/37/54 133/15/48 132/16/16
f 131/38/55 130/17/18 129/20/56
f 128/38/55 36/37/57 25/17/18
f 127/39/58 126/20/56 125/40/59
f 124/39/58 123/38/55 122/20/56
f 121/41/60 120/36/61 119/42/62
f 118/41/60 117/33/45 116/36/61
f 115/43/63 114/27/64 113/44/65
f 112/43/63 111/24/31 110/27/64
f 109/40/66 108/21/23 107/45/67
f 106/40/66 40/20/22 105/21/23
f 104/42/62 103/38/55 102/39/58
f 101/42/62 41/36/61 42/38/55
f 100/46/68 99/33/40 98/41/60
f 97/46/68 37/32/32 38/33/40
f 96/45/67 95/24/27 94/43/69
f 93/45/67 33/21/23 34/24/27
f 92/29/70 91/14/14 90/34/43
f 89/29/70 88/12/71 87/14/14
f 86/22/72 85/9/6 84/25/28
f 83/22/72 82/10/4 81/9/6
f 80/16/16 79/8/7 78/18/19
f 29/16/73 30/11/5 77/8/7
f 76/31/74 75/12/9 28/29/37
f 31/31/36 26/9/6 27/12/71
f 74/18/75 73/10/76 24/22/25
f 21/18/75 22/8/7 23/10/4
f 72/34/43 71/13/13 20/15/15
f 17/34/43 18/14/14 19/13/13
f 70/47/77 69/48/78 68/49/79
f 67/47/80 66/50/66 65/48/78
f 64/51/81 63/52/58 62/53/82
f 61/51/83 60/54/62 59/52/58
f 58/55/84 57/56/60 56/57/85
f 55/55/86 54/58/87 53/56/60
f 52/49/79 51/59/63 50/60/88
f 2/49/89 32/48/67 49/59/63
f 48/53/90 47/50/66 12/47/80
f 9/53/91 10/52/58 11/50/59
f 46/57/92 45/54/62 8/51/83
f 5/57/93 6/56/60 7/54/62
f 44/60/94 43/61/68 15/62/84
f 1/60/95 35/59/69 39/61/68
