# Blender 5.0.0
# www.blender.org
mtllib Circle_002_Circle_Dupli_263_decorations_0.mtl
o Circle.002|Circle|Dupli|263_decorations_0
v -4.476834 1.345306 0.818943
v -4.475833 1.345239 0.817955
v -4.470325 1.347775 0.822939
v -4.471753 1.347869 0.824349
v -4.477854 1.347598 0.818560
v -4.474188 1.349714 0.822016
v -4.473487 1.350181 0.821004
v -4.477104 1.348097 0.817478
v -4.476049 1.347478 0.816780
v -4.472501 1.349602 0.820352
v -4.471972 1.348413 0.820550
v -4.475483 1.346206 0.816992
v -4.473037 1.349367 0.824733
v -4.473208 1.351139 0.823803
v -4.477734 1.346355 0.819212
v -4.472139 1.351852 0.822258
v -4.471073 1.352039 0.823325
v -4.470262 1.351833 0.824162
v -4.469463 1.351364 0.823633
v -4.469849 1.351320 0.822515
v -4.469597 1.348721 0.823880
v -4.469299 1.349668 0.824523
v -4.470057 1.349718 0.825272
v -4.470760 1.348798 0.825027
v -4.469826 1.349154 0.821566
v -4.470739 1.350513 0.825476
v -4.470830 1.351454 0.824982
v -4.471943 1.351459 0.824582
v -4.469192 1.349843 0.822762
v -4.469034 1.350400 0.823794
v -4.471804 1.350016 0.825339
v -4.472298 1.347510 0.821450
v -4.471465 1.347446 0.821998
v -4.472701 1.347528 0.823218
v -4.473235 1.347572 0.822374
v -4.470634 1.350969 0.821263
v -4.473812 1.348825 0.823551
v -4.473960 1.350359 0.822746
v -4.474075 1.348553 0.822626
v -4.471034 1.348640 0.820809
v -4.473035 1.350976 0.821409
v -4.471732 1.350211 0.820547
v -4.474075 1.348553 0.822626
v -4.476834 1.345306 0.818943
v -4.473487 1.350181 0.821004
v -4.477854 1.347598 0.818560
v -4.471972 1.348413 0.820550
v -4.476049 1.347478 0.816780
v -4.473235 1.347572 0.822374
v -4.476834 1.345306 0.818943
v -4.473235 1.347572 0.822374
v -4.475833 1.345239 0.817955
v -4.474188 1.349714 0.822016
v -4.474075 1.348553 0.822626
v -4.477734 1.346355 0.819212
v -4.477854 1.347598 0.818560
v -4.474188 1.349714 0.822016
v -4.477734 1.346355 0.819212
v -4.472501 1.349602 0.820352
v -4.473487 1.350181 0.821004
v -4.477104 1.348097 0.817478
v -4.476049 1.347478 0.816780
v -4.472501 1.349602 0.820352
v -4.477104 1.348097 0.817478
v -4.472298 1.347510 0.821450
v -4.471972 1.348413 0.820550
v -4.475483 1.346206 0.816992
v -4.475833 1.345239 0.817955
v -4.472298 1.347510 0.821450
v -4.475483 1.346206 0.816992
v -4.469463 1.351364 0.823633
v -4.471073 1.352039 0.823325
v -4.470057 1.349718 0.825272
v -4.469597 1.348721 0.823880
v -4.470830 1.351454 0.824982
v -4.471804 1.350016 0.825339
v -4.469299 1.349668 0.824523
v -4.469597 1.348721 0.823880
v -4.469299 1.349668 0.824523
v -4.469192 1.349843 0.822762
v -4.470739 1.350513 0.825476
v -4.470057 1.349718 0.825272
v -4.470760 1.348798 0.825027
v -4.471804 1.350016 0.825339
v -4.470739 1.350513 0.825476
v -4.470760 1.348798 0.825027
v -4.470262 1.351833 0.824162
v -4.470830 1.351454 0.824982
v -4.471943 1.351459 0.824582
v -4.471073 1.352039 0.823325
v -4.470262 1.351833 0.824162
v -4.471943 1.351459 0.824582
v -4.472298 1.347510 0.821450
v -4.473235 1.347572 0.822374
v -4.472701 1.347528 0.823218
v -4.472298 1.347510 0.821450
v -4.474075 1.348553 0.822626
v -4.474188 1.349714 0.822016
v -4.473960 1.350359 0.822746
v -4.474075 1.348553 0.822626
v -4.473487 1.350181 0.821004
v -4.472501 1.349602 0.820352
v -4.471732 1.350211 0.820547
v -4.473487 1.350181 0.821004
v -4.471465 1.347446 0.821998
v -4.471972 1.348413 0.820550
v -4.472298 1.347510 0.821450
v -4.471465 1.347446 0.821998
v -4.471972 1.348413 0.820550
v -4.473812 1.348825 0.823551
v -4.472701 1.347528 0.823218
v -4.473235 1.347572 0.822374
v -4.474075 1.348553 0.822626
v -4.473812 1.348825 0.823551
v -4.473235 1.347572 0.822374
v -4.473035 1.350976 0.821409
v -4.473960 1.350359 0.822746
v -4.474188 1.349714 0.822016
v -4.473487 1.350181 0.821004
v -4.473035 1.350976 0.821409
v -4.474188 1.349714 0.822016
v -4.471034 1.348640 0.820809
v -4.471732 1.350211 0.820547
v -4.472501 1.349602 0.820352
v -4.471972 1.348413 0.820550
v -4.471034 1.348640 0.820809
v -4.472501 1.349602 0.820352
v -4.471732 1.350211 0.820547
v -4.471034 1.348640 0.820809
v -4.469826 1.349154 0.821566
v -4.471732 1.350211 0.820547
v -4.469192 1.349843 0.822762
v -4.469849 1.351320 0.822515
v -4.470634 1.350969 0.821263
v -4.469826 1.349154 0.821566
v -4.469192 1.349843 0.822762
v -4.470634 1.350969 0.821263
v -4.470634 1.350969 0.821263
v -4.473035 1.350976 0.821409
v -4.471732 1.350211 0.820547
v -4.470634 1.350969 0.821263
v -4.473035 1.350976 0.821409
v -4.469849 1.351320 0.822515
v -4.471073 1.352039 0.823325
v -4.472139 1.351852 0.822258
v -4.470634 1.350969 0.821263
v -4.469849 1.351320 0.822515
v -4.472139 1.351852 0.822258
v -4.472139 1.351852 0.822258
v -4.473960 1.350359 0.822746
v -4.473035 1.350976 0.821409
v -4.472139 1.351852 0.822258
v -4.473960 1.350359 0.822746
v -4.471073 1.352039 0.823325
v -4.471943 1.351459 0.824582
v -4.473208 1.351139 0.823803
v -4.472139 1.351852 0.822258
v -4.471073 1.352039 0.823325
v -4.473208 1.351139 0.823803
v -4.473208 1.351139 0.823803
v -4.473812 1.348825 0.823551
v -4.473960 1.350359 0.822746
v -4.473208 1.351139 0.823803
v -4.473812 1.348825 0.823551
v -4.471943 1.351459 0.824582
v -4.471804 1.350016 0.825339
v -4.473037 1.349367 0.824733
v -4.473208 1.351139 0.823803
v -4.471943 1.351459 0.824582
v -4.473037 1.349367 0.824733
v -4.473037 1.349367 0.824733
v -4.472701 1.347528 0.823218
v -4.473812 1.348825 0.823551
v -4.473037 1.349367 0.824733
v -4.472701 1.347528 0.823218
v -4.471804 1.350016 0.825339
v -4.470760 1.348798 0.825027
v -4.471753 1.347869 0.824349
v -4.473037 1.349367 0.824733
v -4.471804 1.350016 0.825339
v -4.471753 1.347869 0.824349
v -4.471753 1.347869 0.824349
v -4.471465 1.347446 0.821998
v -4.472701 1.347528 0.823218
v -4.471753 1.347869 0.824349
v -4.471465 1.347446 0.821998
v -4.470760 1.348798 0.825027
v -4.469597 1.348721 0.823880
v -4.470325 1.347775 0.822939
v -4.471753 1.347869 0.824349
v -4.470760 1.348798 0.825027
v -4.470325 1.347775 0.822939
v -4.470325 1.347775 0.822939
v -4.469826 1.349154 0.821566
v -4.471034 1.348640 0.820809
v -4.471465 1.347446 0.821998
v -4.470325 1.347775 0.822939
v -4.471034 1.348640 0.820809
v -4.469597 1.348721 0.823880
v -4.469192 1.349843 0.822762
v -4.469826 1.349154 0.821566
v -4.470325 1.347775 0.822939
v -4.469597 1.348721 0.823880
v -4.469826 1.349154 0.821566
v -4.469034 1.350400 0.823794
v -4.469463 1.351364 0.823633
v -4.469849 1.351320 0.822515
v -4.469192 1.349843 0.822762
v -4.469034 1.350400 0.823794
v -4.469849 1.351320 0.822515
v -4.470262 1.351833 0.824162
v -4.469463 1.351364 0.823633
v -4.470830 1.351454 0.824982
v -4.469034 1.350400 0.823794
v -4.470830 1.351454 0.824982
v -4.469463 1.351364 0.823633
v -4.470739 1.350513 0.825476
v -4.470830 1.351454 0.824982
v -4.469034 1.350400 0.823794
v -4.469299 1.349668 0.824523
v -4.470739 1.350513 0.825476
v -4.469034 1.350400 0.823794
v -4.470057 1.349718 0.825272
v -4.470739 1.350513 0.825476
v -4.469299 1.349668 0.824523
v -4.477104 1.348097 0.817478
v -4.477854 1.347598 0.818560
v -4.476049 1.347478 0.816780
v -4.475483 1.346206 0.816992
v -4.476049 1.347478 0.816780
v -4.477854 1.347598 0.818560
v -4.477734 1.346355 0.819212
v -4.475483 1.346206 0.816992
v -4.477854 1.347598 0.818560
v -4.475833 1.345239 0.817955
v -4.475483 1.346206 0.816992
v -4.477734 1.346355 0.819212
v -4.476834 1.345306 0.818943
v -4.475833 1.345239 0.817955
v -4.477734 1.346355 0.819212
vn -0.6572 -0.3992 -0.6393
vn 0.8437 -0.1471 0.5163
vn 0.1832 0.2407 0.9531
vn 0.4958 -0.1240 0.8595
vn 0.9650 0.1889 0.1818
vn 0.1832 0.2407 0.9532
vn 0.9650 0.1888 0.1818
vn 0.1415 0.6724 0.7266
vn 0.7684 0.6308 0.1080
vn 0.1415 0.6724 0.7265
vn 0.7684 0.6307 0.1080
vn 0.4019 0.8460 0.3504
vn 0.6336 0.6504 -0.4190
vn 0.9519 -0.0650 -0.2995
vn 0.7731 -0.2345 -0.5893
vn 0.7554 -0.6089 0.2420
vn 0.5581 -0.8297 0.0034
vn 0.7732 -0.2344 -0.5893
vn 0.9519 -0.0651 -0.2995
vn 0.7555 -0.6089 0.2420
vn 0.4832 -0.3698 -0.7936
vn 0.5581 -0.8298 0.0034
vn 0.2806 -0.9306 -0.2352
vn 0.7732 -0.2345 -0.5893
vn 0.5582 -0.8297 0.0035
vn 0.1922 -0.5715 0.7978
vn -0.0584 -0.7889 0.6118
vn -0.3002 -0.8920 0.3379
vn -0.3139 0.0189 0.9493
vn -0.6123 -0.1426 0.7776
vn 0.1921 -0.5716 0.7978
vn -0.3138 0.0189 0.9493
vn -0.3003 -0.8920 0.3378
vn -0.8220 -0.2832 0.4942
vn -0.0585 -0.7889 0.6118
vn -0.6124 -0.1425 0.7776
vn -0.3815 0.7178 0.5825
vn -0.6864 0.6224 0.3762
vn -0.8220 -0.2831 0.4941
vn -0.6864 0.6224 0.3761
vn -0.8917 0.4375 0.1159
vn -0.6123 -0.1425 0.7776
vn -0.6863 0.6224 0.3762
vn 0.0401 0.9988 -0.0264
vn -0.2248 0.9301 -0.2904
vn -0.8917 0.4375 0.1158
vn -0.4569 0.7273 -0.5120
vn -0.2248 0.9301 -0.2905
vn 0.6335 0.6505 -0.4190
vn 0.4247 0.5487 -0.7201
vn 0.0401 0.9988 -0.0265
vn -0.4569 0.7273 -0.5121
vn 0.1549 0.3681 -0.9168
vn 0.4247 0.5488 -0.7200
vn 0.6335 0.6504 -0.4190
vn 0.1549 0.3680 -0.9168
vn 0.4247 0.5488 -0.7201
vn 0.2146 0.4112 -0.8859
vn 0.4832 -0.3697 -0.7936
vn 0.5512 -0.3453 -0.7596
vn 0.1550 0.3681 -0.9168
vn -0.8587 0.4825 0.1730
vn -0.4570 0.7273 -0.5120
vn -0.4129 0.7796 -0.4709
vn -0.8587 0.4824 0.1730
vn -0.2521 -0.8808 0.4007
vn -0.8220 -0.2832 0.4941
vn -0.7872 -0.2565 0.5609
vn -0.2521 -0.8809 0.4007
vn 0.2807 -0.9305 -0.2352
vn 0.3435 -0.9204 -0.1870
vn -0.4128 0.7797 -0.4709
vn -0.7871 -0.2565 0.5609
vn -0.8917 0.4374 0.1159
vn -0.7871 -0.2566 0.5609
vn -0.2522 -0.8808 0.4006
vn -0.3815 0.7178 0.5824
vn 0.1921 -0.5715 0.7978
vn 0.4958 -0.1241 0.8595
vn 0.1833 0.2407 0.9531
vn 0.4958 -0.1240 0.8596
vn 0.7554 -0.6090 0.2420
vn 0.0402 0.9988 -0.0265
vn 0.7614 -0.2420 -0.6014
vn 0.3435 -0.9203 -0.1870
vn 0.5463 -0.8376 -0.0084
vn -0.2371 0.9232 -0.3025
vn 0.4128 0.5417 -0.7323
vn -0.2370 0.9232 -0.3024
vn -0.4128 0.7796 -0.4709
vn -0.6248 -0.1500 0.7662
vn -0.6989 0.6153 0.3646
vn -0.6248 -0.1499 0.7663
vn -0.7872 -0.2566 0.5609
vn 0.5462 -0.8376 -0.0084
vn -0.0706 -0.7967 0.6003
vn 0.5463 -0.8376 -0.0083
vn -0.2521 -0.8809 0.4006
vn 0.4128 0.5416 -0.7323
vn 0.7614 -0.2419 -0.6014
vn -0.6989 0.6154 0.3645
vn -0.2371 0.9232 -0.3024
vn -0.6989 0.6154 0.3646
vt 0.543243 0.611839
vt 0.535370 0.618118
vt 0.537796 0.613083
vt 0.537796 0.623154
vt 0.547607 0.615326
vt 0.543243 0.624397
vt 0.547607 0.620918
vt 0.565384 0.671494
vt 0.570206 0.669548
vt 0.567856 0.672157
vt 0.564468 0.669609
vt 0.568146 0.666756
vt 0.564514 0.667854
vt 0.565857 0.666748
vt 0.562897 0.666855
vt 0.562302 0.669838
vt 0.559082 0.669685
vt 0.563492 0.673050
vt 0.560059 0.674789
vt 0.554092 0.669067
vt 0.554398 0.676537
vt 0.567307 0.675606
vt 0.564316 0.680244
vt 0.558044 0.684982
vt 0.575485 0.674767
vt 0.575272 0.686485
vt 0.565720 0.696274
vt 0.575485 0.658051
vt 0.568817 0.663902
vt 0.568115 0.659698
vt 0.574570 0.665543
vt 0.572052 0.651657
vt 0.565903 0.655174
vt 0.565063 0.664742
vt 0.563416 0.661980
vt 0.560669 0.658463
vt 0.560364 0.665283
vt 0.556488 0.662933
vt 0.552032 0.660286
vt 0.548294 0.668175
vt 0.563522 0.651588
vt 0.557617 0.654999
vt 0.551163 0.688484
vt 0.556610 0.699394
vt 0.547867 0.678001
vt 0.568756 0.648293
vt 0.604446 0.682632
vt 0.626221 0.687675
vt 0.604553 0.688225
vt 0.626144 0.682457
vt 0.604553 0.671455
vt 0.626144 0.677231
vt 0.604446 0.677048
vt 0.626221 0.672005
vt 0.605011 0.660294
vt 0.626404 0.666786
vt 0.604736 0.665871
vt 0.626663 0.661568
vt 0.626404 0.692902
vt 0.604736 0.693810
vt 0.626663 0.698120
vt 0.605011 0.699394
s 0
usemtl decorations
f 240/1/1 239/2/1 238/3/1
f 237/1/1 236/4/1 235/2/1
f 234/5/1 233/4/1 232/1/1
f 231/5/1 230/6/1 229/4/1
f 228/6/1 227/5/1 226/7/1
s 1
f 225/8/2 224/9/3 223/10/4
f 222/11/5 221/9/6 220/8/2
f 219/11/7 218/12/8 217/9/3
f 216/13/9 215/12/8 214/11/7
f 213/12/10 212/13/11 211/14/12
f 210/15/13 209/11/7 208/16/14
f 207/15/13 206/13/9 205/11/7
f 204/17/15 203/18/16 202/19/17
f 201/17/18 200/16/19 199/18/20
f 198/20/21 197/19/22 196/21/23
f 195/20/21 194/17/24 193/19/25
f 192/19/17 191/22/26 190/23/27
f 189/19/17 188/18/16 187/22/26
f 186/21/23 185/23/27 184/24/28
f 183/21/23 3/19/17 182/23/27
f 181/23/27 180/25/29 179/26/30
f 178/23/27 177/22/31 176/25/32
f 175/24/33 174/26/30 173/27/34
f 172/24/28 4/23/35 171/26/30
f 170/28/36 169/29/37 168/30/38
f 167/28/36 166/31/29 165/29/37
f 164/32/39 163/30/40 162/33/41
f 161/32/39 13/28/42 160/30/43
f 159/30/38 158/34/44 157/35/45
f 156/30/38 155/29/37 154/34/44
f 153/33/46 152/35/45 151/36/47
f 150/33/41 14/30/40 149/35/45
f 148/35/48 147/15/49 146/37/50
f 145/35/48 144/34/51 143/15/49
f 142/36/52 141/37/50 140/38/53
f 139/36/52 16/35/45 138/37/50
f 137/37/50 136/16/19 135/17/15
f 134/37/54 133/15/55 132/16/14
f 131/38/56 130/17/15 129/20/21
f 128/38/56 36/37/57 25/17/15
f 127/39/58 126/20/59 125/40/60
f 124/39/58 123/38/61 122/20/59
f 121/41/62 120/36/63 119/42/64
f 118/41/65 117/33/41 116/36/63
f 115/43/66 114/27/67 113/44/68
f 112/43/69 111/24/28 110/27/67
f 109/40/60 108/21/70 107/45/71
f 106/40/60 40/20/21 105/21/70
f 104/42/72 103/38/53 102/39/58
f 101/42/64 41/36/47 42/38/53
f 100/46/73 99/33/74 98/41/65
f 97/46/75 37/32/39 38/33/74
f 96/45/71 95/24/28 94/43/76
f 93/45/71 33/21/23 34/24/28
f 92/29/77 91/14/12 90/34/44
f 89/29/77 88/12/8 87/14/12
f 86/22/78 85/9/3 84/25/32
f 83/22/78 82/10/79 81/9/80
f 80/16/19 79/8/2 78/18/20
f 29/16/19 30/11/5 77/8/2
f 76/31/32 75/12/8 28/29/37
f 31/31/32 26/9/80 27/12/8
f 74/18/16 73/10/81 24/22/26
f 21/18/82 22/8/2 23/10/4
f 72/34/83 71/13/9 20/15/55
f 17/34/83 18/14/12 19/13/9
f 70/47/84 69/48/85 68/49/86
f 67/47/84 66/50/60 65/48/85
f 64/51/87 63/52/58 62/53/88
f 61/51/89 60/54/90 59/52/58
f 58/55/91 57/56/62 56/57/92
f 55/55/93 54/58/94 53/56/65
f 52/49/95 51/59/69 50/60/96
f 2/49/97 32/48/71 49/59/98
f 48/53/99 47/50/60 12/47/100
f 9/53/88 10/52/58 11/50/60
f 46/57/101 45/54/90 8/51/102
f 5/57/103 6/56/62 7/54/64
f 44/60/96 43/61/73 15/62/91
f 1/60/96 35/59/98 39/61/75
