# Blender 5.0.0
# www.blender.org
mtllib Circle_005_Circle_Dupli_211_decorations_0.mtl
o Circle.005|Circle|Dupli|211_decorations_0
v -4.336971 1.846358 0.521240
v -4.337370 1.846165 0.519904
v -4.340269 1.853442 0.519405
v -4.339699 1.853717 0.521312
v -4.338933 1.845431 0.522555
v -4.341240 1.850383 0.522444
v -4.342067 1.849989 0.521498
v -4.339818 1.845009 0.521543
v -4.339653 1.845084 0.520146
v -4.341913 1.850059 0.520192
v -4.340895 1.850540 0.519510
v -4.338564 1.845598 0.519417
v -4.340692 1.853251 0.522995
v -4.342499 1.852395 0.523188
v -4.337667 1.846031 0.522420
v -4.343760 1.851793 0.521744
v -4.344014 1.853285 0.521605
v -4.343874 1.854441 0.521397
v -4.343750 1.854498 0.520338
v -4.343823 1.853372 0.519983
v -4.341173 1.854627 0.519701
v -4.342021 1.855317 0.520154
v -4.341718 1.855463 0.521167
v -4.340709 1.854851 0.521253
v -4.341971 1.852633 0.518710
v -4.342245 1.855215 0.522061
v -4.343205 1.854761 0.522163
v -4.342988 1.853774 0.522780
v -4.342559 1.853969 0.519136
v -4.342925 1.854887 0.519785
v -4.341517 1.854471 0.522623
v -4.339779 1.851070 0.519965
v -4.339836 1.852008 0.519624
v -4.339343 1.852246 0.521275
v -4.339406 1.851250 0.521215
v -4.343525 1.851900 0.519751
v -4.340202 1.851842 0.522732
v -4.341767 1.851101 0.522899
v -4.340056 1.850944 0.522318
v -4.341311 1.851308 0.519023
v -4.342858 1.850581 0.521649
v -4.342655 1.850673 0.519924
v -4.340056 1.850944 0.522318
v -4.336971 1.846358 0.521240
v -4.342067 1.849989 0.521498
v -4.338933 1.845431 0.522555
v -4.340895 1.850540 0.519510
v -4.339653 1.845084 0.520146
v -4.339406 1.851250 0.521215
v -4.336971 1.846358 0.521240
v -4.339406 1.851250 0.521215
v -4.337370 1.846165 0.519904
v -4.341240 1.850383 0.522444
v -4.340056 1.850944 0.522318
v -4.337667 1.846031 0.522420
v -4.338933 1.845431 0.522555
v -4.341240 1.850383 0.522444
v -4.337667 1.846031 0.522420
v -4.341913 1.850059 0.520192
v -4.342067 1.849989 0.521498
v -4.339818 1.845009 0.521543
v -4.339653 1.845084 0.520146
v -4.341913 1.850059 0.520192
v -4.339818 1.845009 0.521543
v -4.339779 1.851070 0.519965
v -4.340895 1.850540 0.519510
v -4.338564 1.845598 0.519417
v -4.337370 1.846165 0.519904
v -4.339779 1.851070 0.519965
v -4.338564 1.845598 0.519417
v -4.343750 1.854498 0.520338
v -4.344014 1.853285 0.521605
v -4.341718 1.855463 0.521167
v -4.341173 1.854627 0.519701
v -4.343205 1.854761 0.522163
v -4.341517 1.854471 0.522623
v -4.342021 1.855317 0.520154
v -4.341173 1.854627 0.519701
v -4.342021 1.855317 0.520154
v -4.342559 1.853969 0.519136
v -4.342245 1.855215 0.522061
v -4.341718 1.855463 0.521167
v -4.340709 1.854851 0.521253
v -4.341517 1.854471 0.522623
v -4.342245 1.855215 0.522061
v -4.340709 1.854851 0.521253
v -4.343874 1.854441 0.521397
v -4.343205 1.854761 0.522163
v -4.342988 1.853774 0.522780
v -4.344014 1.853285 0.521605
v -4.343874 1.854441 0.521397
v -4.342988 1.853774 0.522780
v -4.339779 1.851070 0.519965
v -4.339406 1.851250 0.521215
v -4.339343 1.852246 0.521275
v -4.339779 1.851070 0.519965
v -4.340056 1.850944 0.522318
v -4.341240 1.850383 0.522444
v -4.341767 1.851101 0.522899
v -4.340056 1.850944 0.522318
v -4.342067 1.849989 0.521498
v -4.341913 1.850059 0.520192
v -4.342655 1.850673 0.519924
v -4.342067 1.849989 0.521498
v -4.339836 1.852008 0.519624
v -4.340895 1.850540 0.519510
v -4.339779 1.851070 0.519965
v -4.339836 1.852008 0.519624
v -4.340895 1.850540 0.519510
v -4.340202 1.851842 0.522732
v -4.339343 1.852246 0.521275
v -4.339406 1.851250 0.521215
v -4.340056 1.850944 0.522318
v -4.340202 1.851842 0.522732
v -4.339406 1.851250 0.521215
v -4.342858 1.850581 0.521649
v -4.341767 1.851101 0.522899
v -4.341240 1.850383 0.522444
v -4.342067 1.849989 0.521498
v -4.342858 1.850581 0.521649
v -4.341240 1.850383 0.522444
v -4.341311 1.851308 0.519023
v -4.342655 1.850673 0.519924
v -4.341913 1.850059 0.520192
v -4.340895 1.850540 0.519510
v -4.341311 1.851308 0.519023
v -4.341913 1.850059 0.520192
v -4.342655 1.850673 0.519924
v -4.341311 1.851308 0.519023
v -4.341971 1.852633 0.518710
v -4.342655 1.850673 0.519924
v -4.342559 1.853969 0.519136
v -4.343823 1.853372 0.519983
v -4.343525 1.851900 0.519751
v -4.341971 1.852633 0.518710
v -4.342559 1.853969 0.519136
v -4.343525 1.851900 0.519751
v -4.343525 1.851900 0.519751
v -4.342858 1.850581 0.521649
v -4.342655 1.850673 0.519924
v -4.343525 1.851900 0.519751
v -4.342858 1.850581 0.521649
v -4.343823 1.853372 0.519983
v -4.344014 1.853285 0.521605
v -4.343760 1.851793 0.521744
v -4.343525 1.851900 0.519751
v -4.343823 1.853372 0.519983
v -4.343760 1.851793 0.521744
v -4.343760 1.851793 0.521744
v -4.341767 1.851101 0.522899
v -4.342858 1.850581 0.521649
v -4.343760 1.851793 0.521744
v -4.341767 1.851101 0.522899
v -4.344014 1.853285 0.521605
v -4.342988 1.853774 0.522780
v -4.342499 1.852395 0.523188
v -4.343760 1.851793 0.521744
v -4.344014 1.853285 0.521605
v -4.342499 1.852395 0.523188
v -4.342499 1.852395 0.523188
v -4.340202 1.851842 0.522732
v -4.341767 1.851101 0.522899
v -4.342499 1.852395 0.523188
v -4.340202 1.851842 0.522732
v -4.342988 1.853774 0.522780
v -4.341517 1.854471 0.522623
v -4.340692 1.853251 0.522995
v -4.342499 1.852395 0.523188
v -4.342988 1.853774 0.522780
v -4.340692 1.853251 0.522995
v -4.340692 1.853251 0.522995
v -4.339343 1.852246 0.521275
v -4.340202 1.851842 0.522732
v -4.340692 1.853251 0.522995
v -4.339343 1.852246 0.521275
v -4.341517 1.854471 0.522623
v -4.340709 1.854851 0.521253
v -4.339699 1.853717 0.521312
v -4.340692 1.853251 0.522995
v -4.341517 1.854471 0.522623
v -4.339699 1.853717 0.521312
v -4.339699 1.853717 0.521312
v -4.339836 1.852008 0.519624
v -4.339343 1.852246 0.521275
v -4.339699 1.853717 0.521312
v -4.339836 1.852008 0.519624
v -4.340709 1.854851 0.521253
v -4.341173 1.854627 0.519701
v -4.340269 1.853442 0.519405
v -4.339699 1.853717 0.521312
v -4.340709 1.854851 0.521253
v -4.340269 1.853442 0.519405
v -4.340269 1.853442 0.519405
v -4.341971 1.852633 0.518710
v -4.341311 1.851308 0.519023
v -4.339836 1.852008 0.519624
v -4.340269 1.853442 0.519405
v -4.341311 1.851308 0.519023
v -4.341173 1.854627 0.519701
v -4.342559 1.853969 0.519136
v -4.341971 1.852633 0.518710
v -4.340269 1.853442 0.519405
v -4.341173 1.854627 0.519701
v -4.341971 1.852633 0.518710
v -4.342925 1.854887 0.519785
v -4.343750 1.854498 0.520338
v -4.343823 1.853372 0.519983
v -4.342559 1.853969 0.519136
v -4.342925 1.854887 0.519785
v -4.343823 1.853372 0.519983
v -4.343874 1.854441 0.521397
v -4.343750 1.854498 0.520338
v -4.343205 1.854761 0.522163
v -4.342925 1.854887 0.519785
v -4.343205 1.854761 0.522163
v -4.343750 1.854498 0.520338
v -4.342245 1.855215 0.522061
v -4.343205 1.854761 0.522163
v -4.342925 1.854887 0.519785
v -4.342021 1.855317 0.520154
v -4.342245 1.855215 0.522061
v -4.342925 1.854887 0.519785
v -4.341718 1.855463 0.521167
v -4.342245 1.855215 0.522061
v -4.342021 1.855317 0.520154
v -4.339818 1.845009 0.521543
v -4.338933 1.845431 0.522555
v -4.339653 1.845084 0.520146
v -4.338564 1.845598 0.519417
v -4.339653 1.845084 0.520146
v -4.338933 1.845431 0.522555
v -4.337667 1.846031 0.522420
v -4.338564 1.845598 0.519417
v -4.338933 1.845431 0.522555
v -4.337370 1.846165 0.519904
v -4.338564 1.845598 0.519417
v -4.337667 1.846031 0.522420
v -4.336971 1.846358 0.521240
v -4.337370 1.846165 0.519904
v -4.337667 1.846031 0.522420
vn 0.4283 -0.9037 0.0022
vn 0.0129 0.9190 -0.3940
vn -0.0902 0.8723 0.4805
vn 0.1516 0.9859 0.0704
vn -0.4020 0.7220 -0.5631
vn -0.0901 0.8724 0.4805
vn 0.0128 0.9190 -0.3940
vn -0.4019 0.7221 -0.5631
vn -0.5304 0.6639 0.5273
vn -0.7803 0.5433 -0.3096
vn -0.5303 0.6639 0.5273
vn -0.5304 0.6638 0.5273
vn -0.7803 0.5433 -0.3097
vn -0.8375 0.5174 0.1756
vn -0.8655 0.0402 -0.4992
vn -0.2529 0.3296 -0.9096
vn -0.1016 -0.0088 -0.9948
vn 0.4186 0.6485 -0.6358
vn 0.6333 0.3403 -0.6950
vn -0.1017 -0.0088 -0.9948
vn 0.0640 -0.3454 -0.9363
vn 0.6334 0.3403 -0.6950
vn 0.7564 -0.0164 -0.6539
vn 0.0640 -0.3453 -0.9363
vn 0.6432 0.7568 0.1161
vn 0.8792 0.4589 0.1280
vn 0.7564 -0.0165 -0.6539
vn 0.9880 0.0952 0.1214
vn 0.2519 0.5729 0.7799
vn 0.4508 0.2576 0.8546
vn 0.6433 0.7568 0.1162
vn 0.2519 0.5730 0.7799
vn 0.5844 -0.0943 0.8059
vn -0.4608 0.2354 0.8557
vn -0.3292 -0.1119 0.9376
vn 0.5844 -0.0944 0.8059
vn -0.1504 -0.4424 0.8841
vn -0.3292 -0.1118 0.9376
vn -0.9581 -0.0016 0.2865
vn -0.8736 -0.3714 0.3145
vn -0.9581 -0.0017 0.2865
vn -0.1504 -0.4425 0.8841
vn -0.6632 -0.6869 0.2971
vn -0.8736 -0.3714 0.3144
vn -0.8656 0.0402 -0.4992
vn -0.7723 -0.3255 -0.5455
vn -0.8656 0.0403 -0.4992
vn -0.6632 -0.6870 0.2970
vn -0.5679 -0.6437 -0.5130
vn -0.6632 -0.6869 0.2970
vn -0.7723 -0.3255 -0.5456
vn -0.5678 -0.6437 -0.5131
vn -0.6185 -0.5834 -0.5263
vn 0.0639 -0.3453 -0.9363
vn 0.0293 -0.2775 -0.9603
vn -0.6185 -0.5835 -0.5263
vn -0.1906 -0.3771 0.9064
vn -0.7164 -0.6278 0.3044
vn -0.1905 -0.3771 0.9064
vn 0.9768 0.1743 0.1243
vn 0.5845 -0.0943 0.8059
vn 0.5630 -0.0202 0.8262
vn 0.9768 0.1742 0.1243
vn 0.7393 0.0597 -0.6707
vn 0.5630 -0.0201 0.8262
vn -0.4608 0.2353 0.8557
vn 0.6432 0.7568 0.1162
vn -0.0902 0.8724 0.4805
vn -0.0902 0.8724 0.4804
vn -0.2528 0.3296 -0.9096
vn -0.2528 0.3296 -0.9097
vn 0.2518 0.5730 0.7799
vn 0.1516 0.9859 0.0705
vn 0.4187 0.6485 -0.6358
vn -0.9581 -0.0017 0.2864
vn -0.0938 -0.0255 -0.9953
vn 0.6416 0.3238 -0.6954
vn -0.8661 -0.3883 0.3146
vn -0.7648 -0.3424 -0.5457
vn -0.8662 -0.3883 0.3146
vn 0.4590 0.2410 0.8551
vn -0.3214 -0.1286 0.9382
vn 0.4589 0.2410 0.8551
vn 0.6416 0.3238 -0.6953
vn 0.8876 0.4424 0.1281
vn -0.7648 -0.3424 -0.5458
vn -0.3215 -0.1287 0.9381
vn -0.8661 -0.3883 0.3147
vn -0.3215 -0.1286 0.9381
vt 0.543243 0.611839
vt 0.535370 0.618118
vt 0.537796 0.613083
vt 0.537796 0.623154
vt 0.547607 0.615326
vt 0.543243 0.624397
vt 0.547607 0.620918
vt 0.565384 0.671494
vt 0.570206 0.669548
vt 0.567856 0.672157
vt 0.564468 0.669609
vt 0.568146 0.666756
vt 0.564514 0.667854
vt 0.565857 0.666748
vt 0.562897 0.666855
vt 0.562302 0.669838
vt 0.559082 0.669685
vt 0.563492 0.673050
vt 0.560059 0.674789
vt 0.554092 0.669067
vt 0.554398 0.676537
vt 0.567307 0.675606
vt 0.564316 0.680244
vt 0.558044 0.684982
vt 0.575485 0.674767
vt 0.575272 0.686485
vt 0.565720 0.696274
vt 0.575485 0.658051
vt 0.568817 0.663902
vt 0.568115 0.659698
vt 0.574570 0.665543
vt 0.572052 0.651657
vt 0.565903 0.655174
vt 0.565063 0.664742
vt 0.563416 0.661980
vt 0.560669 0.658463
vt 0.560364 0.665283
vt 0.556488 0.662933
vt 0.552032 0.660286
vt 0.548294 0.668175
vt 0.563522 0.651588
vt 0.557617 0.654999
vt 0.551163 0.688484
vt 0.556610 0.699394
vt 0.547867 0.678001
vt 0.568756 0.648293
vt 0.604446 0.682632
vt 0.626221 0.687675
vt 0.604553 0.688225
vt 0.626144 0.682457
vt 0.604553 0.671455
vt 0.626144 0.677231
vt 0.604446 0.677048
vt 0.626221 0.672005
vt 0.605011 0.660294
vt 0.626404 0.666786
vt 0.604736 0.665871
vt 0.626663 0.661568
vt 0.626404 0.692902
vt 0.604736 0.693810
vt 0.626663 0.698120
vt 0.605011 0.699394
s 0
usemtl decorations
f 240/1/1 239/2/1 238/3/1
f 237/1/1 236/4/1 235/2/1
f 234/5/1 233/4/1 232/1/1
f 231/5/1 230/6/1 229/4/1
f 228/6/1 227/5/1 226/7/1
s 1
f 225/8/2 224/9/3 223/10/4
f 222/11/5 221/9/6 220/8/7
f 219/11/8 218/12/9 217/9/3
f 216/13/10 215/12/11 214/11/8
f 213/12/12 212/13/13 211/14/14
f 210/15/15 209/11/8 208/16/16
f 207/15/15 206/13/10 205/11/8
f 204/17/17 203/18/18 202/19/19
f 201/17/20 200/16/16 199/18/18
f 198/20/21 197/19/22 196/21/23
f 195/20/24 194/17/20 193/19/19
f 192/19/19 191/22/25 190/23/26
f 189/19/19 188/18/18 187/22/25
f 186/21/27 185/23/26 184/24/28
f 183/21/27 3/19/19 182/23/26
f 181/23/26 180/25/29 179/26/30
f 178/23/26 177/22/31 176/25/32
f 175/24/28 174/26/30 173/27/33
f 172/24/28 4/23/26 171/26/30
f 170/28/30 169/29/34 168/30/35
f 167/28/30 166/31/29 165/29/34
f 164/32/36 163/30/35 162/33/37
f 161/32/36 13/28/30 160/30/38
f 159/30/35 158/34/39 157/35/40
f 156/30/35 155/29/34 154/34/41
f 153/33/42 152/35/40 151/36/43
f 150/33/42 14/30/35 149/35/40
f 148/35/44 147/15/45 146/37/46
f 145/35/44 144/34/41 143/15/47
f 142/36/48 141/37/46 140/38/49
f 139/36/50 16/35/40 138/37/46
f 137/37/51 136/16/16 135/17/17
f 134/37/46 133/15/45 132/16/16
f 131/38/52 130/17/17 129/20/24
f 128/38/52 36/37/46 25/17/17
f 127/39/53 126/20/54 125/40/55
f 124/39/56 123/38/52 122/20/54
f 121/41/57 120/36/43 119/42/58
f 118/41/59 117/33/42 116/36/43
f 115/43/60 114/27/61 113/44/62
f 112/43/63 111/24/28 110/27/61
f 109/40/55 108/21/27 107/45/64
f 106/40/55 40/20/21 105/21/27
f 104/42/58 103/38/52 102/39/56
f 101/42/58 41/36/43 42/38/52
f 100/46/65 99/33/37 98/41/59
f 97/46/62 37/32/36 38/33/37
f 96/45/64 95/24/28 94/43/63
f 93/45/64 33/21/27 34/24/28
f 92/29/34 91/14/14 90/34/41
f 89/29/66 88/12/11 87/14/14
f 86/22/67 85/9/68 84/25/32
f 83/22/67 82/10/4 81/9/69
f 80/16/70 79/8/2 78/18/18
f 29/16/71 30/11/5 77/8/7
f 76/31/72 75/12/11 28/29/34
f 31/31/72 26/9/69 27/12/11
f 74/18/18 73/10/73 24/22/25
f 21/18/74 22/8/7 23/10/4
f 72/34/75 71/13/10 20/15/45
f 17/34/75 18/14/14 19/13/10
f 70/47/76 69/48/64 68/49/77
f 67/47/76 66/50/55 65/48/64
f 64/51/78 63/52/53 62/53/79
f 61/51/80 60/54/58 59/52/56
f 58/55/81 57/56/57 56/57/82
f 55/55/83 54/58/62 53/56/59
f 52/49/84 51/59/60 50/60/85
f 2/49/84 32/48/64 49/59/63
f 48/53/86 47/50/55 12/47/76
f 9/53/86 10/52/56 11/50/55
f 46/57/87 45/54/58 8/51/88
f 5/57/89 6/56/57 7/54/58
f 44/60/85 43/61/65 15/62/81
f 1/60/85 35/59/63 39/61/62
