# Blender 5.0.0
# www.blender.org
mtllib Circle_002_Circle_001_Dupli_126_decorations_0.mtl
o Circle.002|Circle.001|Dupli|126_decorations_0
v -4.227279 1.070198 0.461690
v -4.227100 1.069403 0.462838
v -4.224729 1.075554 0.467098
v -4.224984 1.076689 0.465460
v -4.225075 1.069920 0.460462
v -4.223094 1.074201 0.463221
v -4.222418 1.073394 0.464011
v -4.224352 1.069056 0.461307
v -4.224753 1.068487 0.462531
v -4.222793 1.072861 0.465155
v -4.223937 1.073005 0.465792
v -4.225976 1.068641 0.463212
v -4.223698 1.077017 0.463951
v -4.221840 1.076292 0.463708
v -4.226377 1.070428 0.460632
v -4.220809 1.075060 0.464914
v -4.220664 1.076313 0.465760
v -4.220899 1.077249 0.466445
v -4.221203 1.076818 0.467372
v -4.221129 1.075653 0.467181
v -4.223854 1.076716 0.467538
v -4.222981 1.077511 0.467605
v -4.223116 1.078114 0.466735
v -4.224061 1.077639 0.466204
v -4.223125 1.074467 0.467633
v -4.222434 1.078289 0.465934
v -4.221447 1.077904 0.465805
v -4.221503 1.077317 0.464779
v -4.222549 1.075832 0.467972
v -4.222129 1.076934 0.467889
v -4.223015 1.077907 0.464977
v -4.224987 1.073717 0.465442
v -4.225039 1.074393 0.466177
v -4.225260 1.075375 0.464759
v -4.225154 1.074461 0.464368
v -4.221381 1.074247 0.466661
v -4.224147 1.075660 0.463453
v -4.222538 1.075032 0.463243
v -4.224311 1.074676 0.463380
v -4.223651 1.073452 0.466639
v -4.221646 1.073965 0.464286
v -4.222141 1.073262 0.465798
v -4.224311 1.074676 0.463380
v -4.227279 1.070198 0.461690
v -4.222418 1.073394 0.464011
v -4.225075 1.069920 0.460462
v -4.223937 1.073005 0.465792
v -4.224753 1.068487 0.462531
v -4.225154 1.074461 0.464368
v -4.227279 1.070198 0.461690
v -4.225154 1.074461 0.464368
v -4.227100 1.069403 0.462838
v -4.223094 1.074201 0.463221
v -4.224311 1.074676 0.463380
v -4.226377 1.070428 0.460632
v -4.225075 1.069920 0.460462
v -4.223094 1.074201 0.463221
v -4.226377 1.070428 0.460632
v -4.222793 1.072861 0.465155
v -4.222418 1.073394 0.464011
v -4.224352 1.069056 0.461307
v -4.224753 1.068487 0.462531
v -4.222793 1.072861 0.465155
v -4.224352 1.069056 0.461307
v -4.224987 1.073717 0.465442
v -4.223937 1.073005 0.465792
v -4.225976 1.068641 0.463212
v -4.227100 1.069403 0.462838
v -4.224987 1.073717 0.465442
v -4.225976 1.068641 0.463212
v -4.221203 1.076818 0.467372
v -4.220664 1.076313 0.465760
v -4.223116 1.078114 0.466735
v -4.223854 1.076716 0.467538
v -4.221447 1.077904 0.465805
v -4.223015 1.077907 0.464977
v -4.222981 1.077511 0.467605
v -4.223854 1.076716 0.467538
v -4.222981 1.077511 0.467605
v -4.222549 1.075832 0.467972
v -4.222434 1.078289 0.465934
v -4.223116 1.078114 0.466735
v -4.224061 1.077639 0.466204
v -4.223015 1.077907 0.464977
v -4.222434 1.078289 0.465934
v -4.224061 1.077639 0.466204
v -4.220899 1.077249 0.466445
v -4.221447 1.077904 0.465805
v -4.221503 1.077317 0.464779
v -4.220664 1.076313 0.465760
v -4.220899 1.077249 0.466445
v -4.221503 1.077317 0.464779
v -4.224987 1.073717 0.465442
v -4.225154 1.074461 0.464368
v -4.225260 1.075375 0.464759
v -4.224987 1.073717 0.465442
v -4.224311 1.074676 0.463380
v -4.223094 1.074201 0.463221
v -4.222538 1.075032 0.463243
v -4.224311 1.074676 0.463380
v -4.222418 1.073394 0.464011
v -4.222793 1.072861 0.465155
v -4.222141 1.073262 0.465798
v -4.222418 1.073394 0.464011
v -4.225039 1.074393 0.466177
v -4.223937 1.073005 0.465792
v -4.224987 1.073717 0.465442
v -4.225039 1.074393 0.466177
v -4.223937 1.073005 0.465792
v -4.224147 1.075660 0.463453
v -4.225260 1.075375 0.464759
v -4.225154 1.074461 0.464368
v -4.224311 1.074676 0.463380
v -4.224147 1.075660 0.463453
v -4.225154 1.074461 0.464368
v -4.221646 1.073965 0.464286
v -4.222538 1.075032 0.463243
v -4.223094 1.074201 0.463221
v -4.222418 1.073394 0.464011
v -4.221646 1.073965 0.464286
v -4.223094 1.074201 0.463221
v -4.223651 1.073452 0.466639
v -4.222141 1.073262 0.465798
v -4.222793 1.072861 0.465155
v -4.223937 1.073005 0.465792
v -4.223651 1.073452 0.466639
v -4.222793 1.072861 0.465155
v -4.222141 1.073262 0.465798
v -4.223651 1.073452 0.466639
v -4.223125 1.074467 0.467633
v -4.222141 1.073262 0.465798
v -4.222549 1.075832 0.467972
v -4.221129 1.075653 0.467181
v -4.221381 1.074247 0.466661
v -4.223125 1.074467 0.467633
v -4.222549 1.075832 0.467972
v -4.221381 1.074247 0.466661
v -4.221381 1.074247 0.466661
v -4.221646 1.073965 0.464286
v -4.222141 1.073262 0.465798
v -4.221381 1.074247 0.466661
v -4.221646 1.073965 0.464286
v -4.221129 1.075653 0.467181
v -4.220664 1.076313 0.465760
v -4.220809 1.075060 0.464914
v -4.221381 1.074247 0.466661
v -4.221129 1.075653 0.467181
v -4.220809 1.075060 0.464914
v -4.220809 1.075060 0.464914
v -4.222538 1.075032 0.463243
v -4.221646 1.073965 0.464286
v -4.220809 1.075060 0.464914
v -4.222538 1.075032 0.463243
v -4.220664 1.076313 0.465760
v -4.221503 1.077317 0.464779
v -4.221840 1.076292 0.463708
v -4.220809 1.075060 0.464914
v -4.220664 1.076313 0.465760
v -4.221840 1.076292 0.463708
v -4.221840 1.076292 0.463708
v -4.224147 1.075660 0.463453
v -4.222538 1.075032 0.463243
v -4.221840 1.076292 0.463708
v -4.224147 1.075660 0.463453
v -4.221503 1.077317 0.464779
v -4.223015 1.077907 0.464977
v -4.223698 1.077017 0.463951
v -4.221840 1.076292 0.463708
v -4.221503 1.077317 0.464779
v -4.223698 1.077017 0.463951
v -4.223698 1.077017 0.463951
v -4.225260 1.075375 0.464759
v -4.224147 1.075660 0.463453
v -4.223698 1.077017 0.463951
v -4.225260 1.075375 0.464759
v -4.223015 1.077907 0.464977
v -4.224061 1.077639 0.466204
v -4.224984 1.076689 0.465460
v -4.223698 1.077017 0.463951
v -4.223015 1.077907 0.464977
v -4.224984 1.076689 0.465460
v -4.224984 1.076689 0.465460
v -4.225039 1.074393 0.466177
v -4.225260 1.075375 0.464759
v -4.224984 1.076689 0.465460
v -4.225039 1.074393 0.466177
v -4.224061 1.077639 0.466204
v -4.223854 1.076716 0.467538
v -4.224729 1.075554 0.467098
v -4.224984 1.076689 0.465460
v -4.224061 1.077639 0.466204
v -4.224729 1.075554 0.467098
v -4.224729 1.075554 0.467098
v -4.223125 1.074467 0.467633
v -4.223651 1.073452 0.466639
v -4.225039 1.074393 0.466177
v -4.224729 1.075554 0.467098
v -4.223651 1.073452 0.466639
v -4.223854 1.076716 0.467538
v -4.222549 1.075832 0.467972
v -4.223125 1.074467 0.467633
v -4.224729 1.075554 0.467098
v -4.223854 1.076716 0.467538
v -4.223125 1.074467 0.467633
v -4.222129 1.076934 0.467889
v -4.221203 1.076818 0.467372
v -4.221129 1.075653 0.467181
v -4.222549 1.075832 0.467972
v -4.222129 1.076934 0.467889
v -4.221129 1.075653 0.467181
v -4.220899 1.077249 0.466445
v -4.221203 1.076818 0.467372
v -4.221447 1.077904 0.465805
v -4.222129 1.076934 0.467889
v -4.221447 1.077904 0.465805
v -4.221203 1.076818 0.467372
v -4.222434 1.078289 0.465934
v -4.221447 1.077904 0.465805
v -4.222129 1.076934 0.467889
v -4.222981 1.077511 0.467605
v -4.222434 1.078289 0.465934
v -4.222129 1.076934 0.467889
v -4.223116 1.078114 0.466735
v -4.222434 1.078289 0.465934
v -4.222981 1.077511 0.467605
v -4.224352 1.069056 0.461307
v -4.225075 1.069920 0.460462
v -4.224753 1.068487 0.462531
v -4.225976 1.068641 0.463212
v -4.224753 1.068487 0.462531
v -4.225075 1.069920 0.460462
v -4.226377 1.070428 0.460632
v -4.225976 1.068641 0.463212
v -4.225075 1.069920 0.460462
v -4.227100 1.069403 0.462838
v -4.225976 1.068641 0.463212
v -4.226377 1.070428 0.460632
v -4.227279 1.070198 0.461690
v -4.227100 1.069403 0.462838
v -4.226377 1.070428 0.460632
vn -0.3718 -0.7892 -0.4888
vn -0.1292 0.6361 0.7607
vn 0.1220 0.9925 -0.0057
vn -0.1912 0.9124 0.3618
vn 0.2614 0.3715 0.8909
vn 0.1219 0.9925 -0.0057
vn -0.1291 0.6361 0.7608
vn 0.2613 0.3715 0.8909
vn 0.5745 0.8160 -0.0648
vn 0.6863 0.3179 0.6542
vn 0.5745 0.8159 -0.0648
vn 0.6862 0.3179 0.6542
vn 0.8256 0.5157 0.2289
vn 0.7657 -0.2183 0.6050
vn 0.0779 -0.1316 0.9882
vn 0.7657 -0.2184 0.6050
vn 0.6863 0.3180 0.6542
vn -0.0669 -0.4669 0.8818
vn -0.5544 0.2967 0.7776
vn -0.7589 0.0021 0.6512
vn -0.0668 -0.4668 0.8818
vn 0.0778 -0.1316 0.9882
vn -0.2017 -0.7341 0.6484
vn -0.8536 -0.2924 0.4311
vn -0.0669 -0.4668 0.8818
vn -0.6549 0.7442 0.1316
vn -0.8689 0.4919 -0.0558
vn -0.5544 0.2967 0.7775
vn -0.9572 0.1690 -0.2349
vn -0.1480 0.8738 -0.4632
vn -0.3140 0.6337 -0.7070
vn -0.9572 0.1690 -0.2350
vn -0.4344 0.3027 -0.8483
vn -0.8689 0.4919 -0.0559
vn -0.3139 0.6337 -0.7070
vn 0.5846 0.5880 -0.5590
vn 0.4879 0.3209 -0.8118
vn -0.1479 0.8738 -0.4632
vn -0.4344 0.3026 -0.8483
vn 0.3210 0.0080 -0.9471
vn 0.9913 0.1020 -0.0836
vn 0.9330 -0.2112 -0.2914
vn 0.5847 0.5880 -0.5590
vn 0.3210 0.0079 -0.9471
vn 0.7403 -0.4933 -0.4568
vn 0.6861 -0.5617 0.4623
vn 0.9913 0.1019 -0.0836
vn 0.5077 -0.8235 0.2532
vn 0.6861 -0.5617 0.4624
vn 0.0778 -0.1317 0.9882
vn 0.5076 -0.8235 0.2532
vn 0.5520 -0.7775 0.3011
vn -0.2016 -0.7341 0.6484
vn -0.1753 -0.6859 0.7063
vn 0.5520 -0.7776 0.3011
vn 0.3607 0.0750 -0.9297
vn 0.7403 -0.4932 -0.4568
vn 0.7906 -0.4389 -0.4270
vn 0.3606 0.0750 -0.9297
vn 0.3209 0.0079 -0.9471
vn -0.9500 0.2402 -0.1995
vn -0.4345 0.3027 -0.8483
vn -0.4140 0.3772 -0.8284
vn -0.1753 -0.6858 0.7063
vn -0.8536 -0.2924 0.4312
vn -0.8438 -0.2330 0.4835
vn 0.5521 -0.7775 0.3011
vn -0.4140 0.3773 -0.8284
vn 0.3209 0.0080 -0.9471
vn -0.8438 -0.2329 0.4835
vn 0.5847 0.5879 -0.5590
vn 0.5744 0.8160 -0.0648
vn -0.6548 0.7442 0.1316
vn 0.1220 0.9925 -0.0056
vn -0.1291 0.6361 0.7607
vn 0.0777 -0.1316 0.9882
vn -0.1912 0.9125 0.3618
vn 0.9913 0.1020 -0.0835
vn 0.9913 0.1019 -0.0835
vn -0.0738 -0.4817 0.8732
vn -0.8438 -0.2329 0.4836
vn -0.7662 -0.0125 0.6425
vn -0.0738 -0.4816 0.8733
vn 0.9266 -0.2259 -0.3005
vn 0.6796 -0.5766 0.4535
vn 0.9267 -0.2259 -0.3005
vn -0.3210 0.6195 -0.7164
vn 0.4813 0.3065 -0.8213
vn -0.8762 0.4775 -0.0649
vn 0.6796 -0.5766 0.4536
vn -0.0738 -0.4817 0.8733
vn 0.4813 0.3065 -0.8212
vn 0.9266 -0.2259 -0.3006
vt 0.543243 0.635056
vt 0.535370 0.641335
vt 0.537796 0.636299
vt 0.537796 0.646370
vt 0.547607 0.638535
vt 0.543243 0.647614
vt 0.547607 0.644127
vt 0.593674 0.671494
vt 0.598511 0.669548
vt 0.596146 0.672157
vt 0.592773 0.669609
vt 0.596436 0.666756
vt 0.592804 0.667854
vt 0.594147 0.666748
vt 0.591187 0.666855
vt 0.590591 0.669838
vt 0.587372 0.669685
vt 0.591782 0.673050
vt 0.588348 0.674789
vt 0.582382 0.669067
vt 0.582687 0.676537
vt 0.595596 0.675606
vt 0.592606 0.680244
vt 0.586334 0.684982
vt 0.603775 0.674767
vt 0.603561 0.686485
vt 0.594009 0.696274
vt 0.603775 0.658051
vt 0.597107 0.663902
vt 0.596405 0.659698
vt 0.602859 0.665543
vt 0.600342 0.651657
vt 0.594193 0.655174
vt 0.593353 0.664742
vt 0.591705 0.661980
vt 0.588959 0.658463
vt 0.588654 0.665283
vt 0.584778 0.662933
vt 0.580322 0.660286
vt 0.576584 0.668175
vt 0.591812 0.651588
vt 0.585907 0.654999
vt 0.579453 0.688484
vt 0.584915 0.699394
vt 0.576157 0.678001
vt 0.597061 0.648293
vt 0.627350 0.682632
vt 0.649124 0.687675
vt 0.627441 0.688225
vt 0.649033 0.682457
vt 0.627441 0.671455
vt 0.649033 0.677231
vt 0.627350 0.677048
vt 0.649124 0.672005
vt 0.627914 0.660294
vt 0.649292 0.666786
vt 0.627625 0.665871
vt 0.649551 0.661568
vt 0.649292 0.692902
vt 0.627625 0.693810
vt 0.649551 0.698120
vt 0.627914 0.699394
s 0
usemtl decorations
f 240/1/1 239/2/1 238/3/1
f 237/1/1 236/4/1 235/2/1
f 234/5/1 233/4/1 232/1/1
f 231/5/1 230/6/1 229/4/1
f 228/6/1 227/5/1 226/7/1
s 1
f 225/8/2 224/9/3 223/10/4
f 222/11/5 221/9/6 220/8/7
f 219/11/8 218/12/9 217/9/3
f 216/13/10 215/12/9 214/11/5
f 213/12/11 212/13/12 211/14/13
f 210/15/14 209/11/5 208/16/15
f 207/15/16 206/13/17 205/11/5
f 204/17/18 203/18/19 202/19/20
f 201/17/21 200/16/22 199/18/19
f 198/20/23 197/19/20 196/21/24
f 195/20/23 194/17/25 193/19/20
f 192/19/20 191/22/26 190/23/27
f 189/19/20 188/18/28 187/22/26
f 186/21/24 185/23/27 184/24/29
f 183/21/24 3/19/20 182/23/27
f 181/23/27 180/25/30 179/26/31
f 178/23/27 177/22/26 176/25/30
f 175/24/32 174/26/31 173/27/33
f 172/24/32 4/23/34 171/26/31
f 170/28/35 169/29/36 168/30/37
f 167/28/35 166/31/38 165/29/36
f 164/32/39 163/30/37 162/33/40
f 161/32/39 13/28/31 160/30/37
f 159/30/37 158/34/41 157/35/42
f 156/30/37 155/29/43 154/34/41
f 153/33/44 152/35/42 151/36/45
f 150/33/44 14/30/37 149/35/42
f 148/35/42 147/15/14 146/37/46
f 145/35/42 144/34/47 143/15/14
f 142/36/45 141/37/46 140/38/48
f 139/36/45 16/35/42 138/37/46
f 137/37/49 136/16/50 135/17/25
f 134/37/49 133/15/14 132/16/15
f 131/38/51 130/17/25 129/20/23
f 128/38/51 36/37/46 25/17/25
f 127/39/52 126/20/53 125/40/54
f 124/39/55 123/38/48 122/20/23
f 121/41/56 120/36/57 119/42/58
f 118/41/59 117/33/60 116/36/57
f 115/43/61 114/27/62 113/44/63
f 112/43/61 111/24/32 110/27/62
f 109/40/64 108/21/65 107/45/66
f 106/40/54 40/20/23 105/21/65
f 104/42/58 103/38/48 102/39/67
f 101/42/58 41/36/45 42/38/48
f 100/46/68 99/33/69 98/41/56
f 97/46/63 37/32/39 38/33/69
f 96/45/70 95/24/29 94/43/61
f 93/45/70 33/21/24 34/24/29
f 92/29/71 91/14/13 90/34/41
f 89/29/71 88/12/72 87/14/13
f 86/22/73 85/9/74 84/25/30
f 83/22/73 82/10/4 81/9/74
f 80/16/22 79/8/75 78/18/19
f 29/16/76 30/11/5 77/8/75
f 76/31/38 75/12/9 28/29/36
f 31/31/38 26/9/74 27/12/72
f 74/18/28 73/10/77 24/22/26
f 21/18/28 22/8/75 23/10/4
f 72/34/78 71/13/10 20/15/14
f 17/34/79 18/14/13 19/13/17
f 70/47/80 69/48/81 68/49/82
f 67/47/83 66/50/54 65/48/70
f 64/51/84 63/52/67 62/53/85
f 61/51/86 60/54/58 59/52/67
f 58/55/87 57/56/56 56/57/88
f 55/55/87 54/58/63 53/56/56
f 52/49/82 51/59/61 50/60/89
f 2/49/82 32/48/66 49/59/61
f 48/53/90 47/50/54 12/47/91
f 9/53/90 10/52/67 11/50/54
f 46/57/92 45/54/58 8/51/93
f 5/57/92 6/56/56 7/54/58
f 44/60/89 43/61/68 15/62/87
f 1/60/89 35/59/61 39/61/68
