# Blender 5.0.0
# www.blender.org
mtllib Circle_002_Circle_001_Dupli_6_decorations_0.mtl
o Circle.002|Circle.001|Dupli|6_decorations_0
v -4.229525 0.834753 0.441762
v -4.229832 0.834320 0.440458
v -4.225235 0.839802 0.437230
v -4.224797 0.840420 0.439091
v -4.231428 0.836347 0.442290
v -4.228490 0.840429 0.440154
v -4.229217 0.840393 0.439056
v -4.232205 0.836307 0.441117
v -4.231981 0.835566 0.439940
v -4.229008 0.839700 0.437956
v -4.228021 0.838873 0.437682
v -4.230926 0.834682 0.439647
v -4.225810 0.841707 0.440255
v -4.227511 0.842694 0.439845
v -4.230235 0.835655 0.442578
v -4.228620 0.842638 0.438170
v -4.227493 0.843496 0.437620
v -4.226434 0.843868 0.437247
v -4.226264 0.843306 0.436355
v -4.227233 0.842636 0.436254
v -4.224739 0.841188 0.436855
v -4.224636 0.842362 0.436747
v -4.224403 0.842690 0.437736
v -4.224382 0.841691 0.438369
v -4.226795 0.840318 0.436073
v -4.224941 0.843374 0.438354
v -4.225845 0.843898 0.438136
v -4.226591 0.843542 0.438982
v -4.226007 0.841609 0.435913
v -4.225464 0.842636 0.436133
v -4.225206 0.842738 0.439316
v -4.226999 0.838534 0.438440
v -4.226222 0.838880 0.437914
v -4.225842 0.839415 0.439525
v -4.226712 0.838939 0.439660
v -4.228301 0.841581 0.436491
v -4.226719 0.840529 0.440532
v -4.228192 0.841383 0.440178
v -4.227376 0.839783 0.440422
v -4.227572 0.839327 0.436913
v -4.229152 0.841335 0.438728
v -4.228876 0.840419 0.437275
v -4.227376 0.839783 0.440422
v -4.229525 0.834753 0.441762
v -4.229217 0.840393 0.439056
v -4.231428 0.836347 0.442290
v -4.228021 0.838873 0.437682
v -4.231981 0.835566 0.439940
v -4.226712 0.838939 0.439660
v -4.229525 0.834753 0.441762
v -4.226712 0.838939 0.439660
v -4.229832 0.834320 0.440458
v -4.228490 0.840429 0.440154
v -4.227376 0.839783 0.440422
v -4.230235 0.835655 0.442578
v -4.231428 0.836347 0.442290
v -4.228490 0.840429 0.440154
v -4.230235 0.835655 0.442578
v -4.229008 0.839700 0.437956
v -4.229217 0.840393 0.439056
v -4.232205 0.836307 0.441117
v -4.231981 0.835566 0.439940
v -4.229008 0.839700 0.437956
v -4.232205 0.836307 0.441117
v -4.226999 0.838534 0.438440
v -4.228021 0.838873 0.437682
v -4.230926 0.834682 0.439647
v -4.229832 0.834320 0.440458
v -4.226999 0.838534 0.438440
v -4.230926 0.834682 0.439647
v -4.226264 0.843306 0.436355
v -4.227493 0.843496 0.437620
v -4.224403 0.842690 0.437736
v -4.224739 0.841188 0.436855
v -4.225845 0.843898 0.438136
v -4.225206 0.842738 0.439316
v -4.224636 0.842362 0.436747
v -4.224739 0.841188 0.436855
v -4.224636 0.842362 0.436747
v -4.226007 0.841609 0.435913
v -4.224941 0.843374 0.438354
v -4.224403 0.842690 0.437736
v -4.224382 0.841691 0.438369
v -4.225206 0.842738 0.439316
v -4.224941 0.843374 0.438354
v -4.224382 0.841691 0.438369
v -4.226434 0.843868 0.437247
v -4.225845 0.843898 0.438136
v -4.226591 0.843542 0.438982
v -4.227493 0.843496 0.437620
v -4.226434 0.843868 0.437247
v -4.226591 0.843542 0.438982
v -4.226999 0.838534 0.438440
v -4.226712 0.838939 0.439660
v -4.225842 0.839415 0.439525
v -4.226999 0.838534 0.438440
v -4.227376 0.839783 0.440422
v -4.228490 0.840429 0.440154
v -4.228192 0.841383 0.440178
v -4.227376 0.839783 0.440422
v -4.229217 0.840393 0.439056
v -4.229008 0.839700 0.437956
v -4.228876 0.840419 0.437275
v -4.229217 0.840393 0.439056
v -4.226222 0.838880 0.437914
v -4.228021 0.838873 0.437682
v -4.226999 0.838534 0.438440
v -4.226222 0.838880 0.437914
v -4.228021 0.838873 0.437682
v -4.226719 0.840529 0.440532
v -4.225842 0.839415 0.439525
v -4.226712 0.838939 0.439660
v -4.227376 0.839783 0.440422
v -4.226719 0.840529 0.440532
v -4.226712 0.838939 0.439660
v -4.229152 0.841335 0.438728
v -4.228192 0.841383 0.440178
v -4.228490 0.840429 0.440154
v -4.229217 0.840393 0.439056
v -4.229152 0.841335 0.438728
v -4.228490 0.840429 0.440154
v -4.227572 0.839327 0.436913
v -4.228876 0.840419 0.437275
v -4.229008 0.839700 0.437956
v -4.228021 0.838873 0.437682
v -4.227572 0.839327 0.436913
v -4.229008 0.839700 0.437956
v -4.228876 0.840419 0.437275
v -4.227572 0.839327 0.436913
v -4.226795 0.840318 0.436073
v -4.228876 0.840419 0.437275
v -4.226007 0.841609 0.435913
v -4.227233 0.842636 0.436254
v -4.228301 0.841581 0.436491
v -4.226795 0.840318 0.436073
v -4.226007 0.841609 0.435913
v -4.228301 0.841581 0.436491
v -4.228301 0.841581 0.436491
v -4.229152 0.841335 0.438728
v -4.228876 0.840419 0.437275
v -4.228301 0.841581 0.436491
v -4.229152 0.841335 0.438728
v -4.227233 0.842636 0.436254
v -4.227493 0.843496 0.437620
v -4.228620 0.842638 0.438170
v -4.228301 0.841581 0.436491
v -4.227233 0.842636 0.436254
v -4.228620 0.842638 0.438170
v -4.228620 0.842638 0.438170
v -4.228192 0.841383 0.440178
v -4.229152 0.841335 0.438728
v -4.228620 0.842638 0.438170
v -4.228192 0.841383 0.440178
v -4.227493 0.843496 0.437620
v -4.226591 0.843542 0.438982
v -4.227511 0.842694 0.439845
v -4.228620 0.842638 0.438170
v -4.227493 0.843496 0.437620
v -4.227511 0.842694 0.439845
v -4.227511 0.842694 0.439845
v -4.226719 0.840529 0.440532
v -4.228192 0.841383 0.440178
v -4.227511 0.842694 0.439845
v -4.226719 0.840529 0.440532
v -4.226591 0.843542 0.438982
v -4.225206 0.842738 0.439316
v -4.225810 0.841707 0.440255
v -4.227511 0.842694 0.439845
v -4.226591 0.843542 0.438982
v -4.225810 0.841707 0.440255
v -4.225810 0.841707 0.440255
v -4.225842 0.839415 0.439525
v -4.226719 0.840529 0.440532
v -4.225810 0.841707 0.440255
v -4.225842 0.839415 0.439525
v -4.225206 0.842738 0.439316
v -4.224382 0.841691 0.438369
v -4.224797 0.840420 0.439091
v -4.225810 0.841707 0.440255
v -4.225206 0.842738 0.439316
v -4.224797 0.840420 0.439091
v -4.224797 0.840420 0.439091
v -4.226222 0.838880 0.437914
v -4.225842 0.839415 0.439525
v -4.224797 0.840420 0.439091
v -4.226222 0.838880 0.437914
v -4.224382 0.841691 0.438369
v -4.224739 0.841188 0.436855
v -4.225235 0.839802 0.437230
v -4.224797 0.840420 0.439091
v -4.224382 0.841691 0.438369
v -4.225235 0.839802 0.437230
v -4.225235 0.839802 0.437230
v -4.226795 0.840318 0.436073
v -4.227572 0.839327 0.436913
v -4.226222 0.838880 0.437914
v -4.225235 0.839802 0.437230
v -4.227572 0.839327 0.436913
v -4.224739 0.841188 0.436855
v -4.226007 0.841609 0.435913
v -4.226795 0.840318 0.436073
v -4.225235 0.839802 0.437230
v -4.224739 0.841188 0.436855
v -4.226795 0.840318 0.436073
v -4.225464 0.842636 0.436133
v -4.226264 0.843306 0.436355
v -4.227233 0.842636 0.436254
v -4.226007 0.841609 0.435913
v -4.225464 0.842636 0.436133
v -4.227233 0.842636 0.436254
v -4.226434 0.843868 0.437247
v -4.226264 0.843306 0.436355
v -4.225845 0.843898 0.438136
v -4.225464 0.842636 0.436133
v -4.225845 0.843898 0.438136
v -4.226264 0.843306 0.436355
v -4.224941 0.843374 0.438354
v -4.225845 0.843898 0.438136
v -4.225464 0.842636 0.436133
v -4.224636 0.842362 0.436747
v -4.224941 0.843374 0.438354
v -4.225464 0.842636 0.436133
v -4.224403 0.842690 0.437736
v -4.224941 0.843374 0.438354
v -4.224636 0.842362 0.436747
v -4.232205 0.836307 0.441117
v -4.231428 0.836347 0.442290
v -4.231981 0.835566 0.439940
v -4.230926 0.834682 0.439647
v -4.231981 0.835566 0.439940
v -4.231428 0.836347 0.442290
v -4.230235 0.835655 0.442578
v -4.230926 0.834682 0.439647
v -4.231428 0.836347 0.442290
v -4.229832 0.834320 0.440458
v -4.230926 0.834682 0.439647
v -4.230235 0.835655 0.442578
v -4.229525 0.834753 0.441762
v -4.229832 0.834320 0.440458
v -4.230235 0.835655 0.442578
vn -0.5311 -0.7588 0.3771
vn 0.8012 0.2597 -0.5391
vn 0.6612 0.7237 0.1975
vn 0.9079 0.4102 -0.0860
vn 0.4213 0.3856 -0.8209
vn 0.4214 0.3855 -0.8208
vn 0.2469 0.9641 0.0977
vn 0.0545 0.6929 -0.7189
vn 0.0546 0.6929 -0.7190
vn -0.0231 0.9504 -0.3102
vn -0.4050 0.4169 -0.8137
vn 0.4214 0.3856 -0.8208
vn 0.1889 -0.0806 -0.9787
vn 0.0546 0.6929 -0.7189
vn -0.0104 -0.3986 -0.9170
vn 0.8038 -0.2844 -0.5226
vn 0.6626 -0.6215 -0.4179
vn -0.0104 -0.3986 -0.9171
vn 0.1889 -0.0807 -0.9787
vn 0.8038 -0.2843 -0.5226
vn -0.2079 -0.6585 -0.7233
vn 0.6627 -0.6216 -0.4178
vn 0.4262 -0.8685 -0.2530
vn 0.6627 -0.6215 -0.4179
vn 0.9766 -0.0407 0.2111
vn 0.8518 -0.3549 0.3853
vn 0.4262 -0.8686 -0.2529
vn 0.8519 -0.3549 0.3852
vn 0.6044 -0.6173 0.5036
vn 0.6626 -0.6215 -0.4178
vn 0.5773 0.4668 0.6700
vn 0.4147 0.2007 0.8876
vn 0.9766 -0.0407 0.2112
vn 0.5773 0.4668 0.6699
vn 0.1926 -0.0940 0.9768
vn 0.4146 0.2007 0.8876
vn -0.0936 0.8560 0.5085
vn -0.3196 0.6267 0.7107
vn 0.5772 0.4668 0.6700
vn -0.0935 0.8560 0.5084
vn 0.1925 -0.0940 0.9768
vn -0.3196 0.6266 0.7108
vn -0.4991 0.3074 0.8102
vn -0.3195 0.6267 0.7107
vn -0.5307 0.8339 -0.1519
vn -0.7981 0.6024 -0.0120
vn -0.0936 0.8560 0.5084
vn -0.4992 0.3073 0.8102
vn -0.9499 0.2845 0.1293
vn -0.7981 0.6024 -0.0121
vn -0.4050 0.4170 -0.8137
vn -0.6605 0.1461 -0.7365
vn -0.5307 0.8338 -0.1519
vn -0.9499 0.2844 0.1293
vn -0.8203 -0.1453 -0.5532
vn -0.8203 -0.1454 -0.5531
vn -0.7961 -0.0848 -0.5992
vn -0.1681 -0.6110 -0.7736
vn -0.8203 -0.1454 -0.5532
vn -0.4668 0.3795 0.7988
vn -0.9291 0.3560 0.1006
vn 0.6648 -0.5687 0.4845
vn 0.2425 -0.0321 0.9696
vn -0.1681 -0.6109 -0.7736
vn 0.4820 -0.8263 -0.2914
vn -0.9290 0.3560 0.1006
vn 0.2425 -0.0320 0.9696
vn -0.4991 0.3073 0.8102
vn -0.4668 0.3794 0.7988
vn 0.6647 -0.5687 0.4845
vn -0.0232 0.9504 -0.3102
vn 0.9766 -0.0406 0.2111
vn 0.8012 0.2598 -0.5391
vn 0.9079 0.4102 -0.0859
vn -0.0202 -0.4129 -0.9106
vn 0.6532 -0.6359 -0.4111
vn -0.0202 -0.4128 -0.9106
vn -0.1682 -0.6109 -0.7736
vn -0.8084 0.5887 -0.0051
vn -0.6707 0.1322 -0.7299
vn -0.8083 0.5887 -0.0051
vn 0.4050 0.1868 0.8950
vn -0.3295 0.6130 0.7181
vn 0.4051 0.1868 0.8950
vn 0.6648 -0.5687 0.4844
vn 0.8425 -0.3691 0.3924
vn -0.6707 0.1321 -0.7299
vn -0.6706 0.1322 -0.7299
vn -0.3296 0.6130 0.7181
vn 0.8425 -0.3691 0.3925
vn 0.4051 0.1867 0.8950
vt 0.543243 0.635056
vt 0.535370 0.641335
vt 0.537796 0.636299
vt 0.537796 0.646370
vt 0.547607 0.638535
vt 0.543243 0.647614
vt 0.547607 0.644127
vt 0.593674 0.671494
vt 0.598511 0.669548
vt 0.596146 0.672157
vt 0.592773 0.669609
vt 0.596436 0.666756
vt 0.592804 0.667854
vt 0.594147 0.666748
vt 0.591187 0.666855
vt 0.590591 0.669838
vt 0.587372 0.669685
vt 0.591782 0.673050
vt 0.588348 0.674789
vt 0.582382 0.669067
vt 0.582687 0.676537
vt 0.595596 0.675606
vt 0.592606 0.680244
vt 0.586334 0.684982
vt 0.603775 0.674767
vt 0.603561 0.686485
vt 0.594009 0.696274
vt 0.603775 0.658051
vt 0.597107 0.663902
vt 0.596405 0.659698
vt 0.602859 0.665543
vt 0.600342 0.651657
vt 0.594193 0.655174
vt 0.593353 0.664742
vt 0.591705 0.661980
vt 0.588959 0.658463
vt 0.588654 0.665283
vt 0.584778 0.662933
vt 0.580322 0.660286
vt 0.576584 0.668175
vt 0.591812 0.651588
vt 0.585907 0.654999
vt 0.579453 0.688484
vt 0.584915 0.699394
vt 0.576157 0.678001
vt 0.597061 0.648293
vt 0.627350 0.682632
vt 0.649124 0.687675
vt 0.627441 0.688225
vt 0.649033 0.682457
vt 0.627441 0.671455
vt 0.649033 0.677231
vt 0.627350 0.677048
vt 0.649124 0.672005
vt 0.627914 0.660294
vt 0.649292 0.666786
vt 0.627625 0.665871
vt 0.649551 0.661568
vt 0.649292 0.692902
vt 0.627625 0.693810
vt 0.649551 0.698120
vt 0.627914 0.699394
s 0
usemtl decorations
f 240/1/1 239/2/1 238/3/1
f 237/1/1 236/4/1 235/2/1
f 234/5/1 233/4/1 232/1/1
f 231/5/1 230/6/1 229/4/1
f 228/6/1 227/5/1 226/7/1
s 1
f 225/8/2 224/9/3 223/10/4
f 222/11/5 221/9/3 220/8/2
f 219/11/6 218/12/7 217/9/3
f 216/13/8 215/12/7 214/11/6
f 213/12/7 212/13/9 211/14/10
f 210/15/11 209/11/12 208/16/13
f 207/15/11 206/13/14 205/11/12
f 204/17/15 203/18/16 202/19/17
f 201/17/18 200/16/19 199/18/20
f 198/20/21 197/19/22 196/21/23
f 195/20/21 194/17/18 193/19/24
f 192/19/17 191/22/25 190/23/26
f 189/19/17 188/18/20 187/22/25
f 186/21/27 185/23/28 184/24/29
f 183/21/27 3/19/30 182/23/28
f 181/23/26 180/25/31 179/26/32
f 178/23/26 177/22/33 176/25/34
f 175/24/29 174/26/32 173/27/35
f 172/24/29 4/23/26 171/26/32
f 170/28/36 169/29/37 168/30/38
f 167/28/36 166/31/39 165/29/40
f 164/32/41 163/30/42 162/33/43
f 161/32/41 13/28/32 160/30/44
f 159/30/38 158/34/45 157/35/46
f 156/30/38 155/29/47 154/34/45
f 153/33/48 152/35/46 151/36/49
f 150/33/48 14/30/38 149/35/50
f 148/35/50 147/15/51 146/37/52
f 145/35/50 144/34/53 143/15/51
f 142/36/54 141/37/52 140/38/55
f 139/36/54 16/35/50 138/37/52
f 137/37/52 136/16/19 135/17/18
f 134/37/52 133/15/51 132/16/13
f 131/38/56 130/17/18 129/20/21
f 128/38/56 36/37/52 25/17/18
f 127/39/57 126/20/21 125/40/58
f 124/39/57 123/38/59 122/20/21
f 121/41/60 120/36/49 119/42/61
f 118/41/60 117/33/48 116/36/49
f 115/43/62 114/27/35 113/44/63
f 112/43/62 111/24/29 110/27/35
f 109/40/64 108/21/23 107/45/65
f 106/40/64 40/20/21 105/21/23
f 104/42/66 103/38/59 102/39/57
f 101/42/66 41/36/49 42/38/59
f 100/46/67 99/33/68 98/41/69
f 97/46/63 37/32/41 38/33/68
f 96/45/65 95/24/29 94/43/70
f 93/45/65 33/21/23 34/24/29
f 92/29/47 91/14/10 90/34/45
f 89/29/47 88/12/7 87/14/71
f 86/22/72 85/9/3 84/25/31
f 83/22/25 82/10/4 81/9/3
f 80/16/19 79/8/73 78/18/20
f 29/16/19 30/11/5 77/8/73
f 76/31/31 75/12/7 28/29/40
f 31/31/39 26/9/3 27/12/7
f 74/18/16 73/10/74 24/22/25
f 21/18/16 22/8/73 23/10/4
f 72/34/53 71/13/9 20/15/51
f 17/34/53 18/14/10 19/13/14
f 70/47/75 69/48/65 68/49/76
f 67/47/77 66/50/78 65/48/65
f 64/51/79 63/52/57 62/53/80
f 61/51/81 60/54/61 59/52/57
f 58/55/82 57/56/60 56/57/83
f 55/55/84 54/58/63 53/56/69
f 52/49/76 51/59/85 50/60/86
f 2/49/76 32/48/65 49/59/85
f 48/53/87 47/50/64 12/47/77
f 9/53/88 10/52/57 11/50/58
f 46/57/89 45/54/61 8/51/81
f 5/57/83 6/56/60 7/54/61
f 44/60/90 43/61/63 15/62/91
f 1/60/86 35/59/70 39/61/63
