# Blender 5.0.0
# www.blender.org
mtllib Circle_002_Circle_001_Dupli_14_decorations_0.mtl
o Circle.002|Circle.001|Dupli|14_decorations_0
v -4.326461 1.399432 0.742927
v -4.325222 1.399025 0.742394
v -4.321904 1.405947 0.744031
v -4.323671 1.406527 0.744792
v -4.327710 1.400267 0.740882
v -4.325615 1.405241 0.741736
v -4.324746 1.405054 0.740766
v -4.326780 1.400067 0.739843
v -4.325478 1.399534 0.739921
v -4.323529 1.404557 0.740838
v -4.322881 1.404123 0.741899
v -4.324785 1.399071 0.741056
v -4.325251 1.407316 0.743832
v -4.325453 1.407719 0.741874
v -4.327568 1.399984 0.742254
v -4.324126 1.407433 0.740393
v -4.323461 1.408654 0.741007
v -4.322901 1.409381 0.741753
v -4.321915 1.408978 0.741812
v -4.321949 1.408036 0.741097
v -4.321653 1.407445 0.743968
v -4.321721 1.408592 0.743686
v -4.322659 1.408900 0.744090
v -4.323091 1.407917 0.744587
v -4.321280 1.406013 0.742123
v -4.323498 1.409318 0.743580
v -4.323606 1.409532 0.742540
v -4.324541 1.408886 0.742212
v -4.321145 1.407498 0.742415
v -4.321390 1.408626 0.742672
v -4.324376 1.408558 0.743805
v -4.323290 1.404081 0.743150
v -4.322651 1.404702 0.743603
v -4.324181 1.405204 0.744261
v -4.324448 1.404461 0.743648
v -4.322269 1.406674 0.740503
v -4.325548 1.405886 0.743430
v -4.325723 1.406235 0.741735
v -4.325483 1.404977 0.743019
v -4.322111 1.404759 0.741950
v -4.324574 1.405988 0.740453
v -4.322967 1.405331 0.740549
v -4.325483 1.404977 0.743019
v -4.326461 1.399432 0.742927
v -4.324746 1.405054 0.740766
v -4.327710 1.400267 0.740882
v -4.322881 1.404123 0.741899
v -4.325478 1.399534 0.739921
v -4.324448 1.404461 0.743648
v -4.326461 1.399432 0.742927
v -4.324448 1.404461 0.743648
v -4.325222 1.399025 0.742394
v -4.325615 1.405241 0.741736
v -4.325483 1.404977 0.743019
v -4.327568 1.399984 0.742254
v -4.327710 1.400267 0.740882
v -4.325615 1.405241 0.741736
v -4.327568 1.399984 0.742254
v -4.323529 1.404557 0.740838
v -4.324746 1.405054 0.740766
v -4.326780 1.400067 0.739843
v -4.325478 1.399534 0.739921
v -4.323529 1.404557 0.740838
v -4.326780 1.400067 0.739843
v -4.323290 1.404081 0.743150
v -4.322881 1.404123 0.741899
v -4.324785 1.399071 0.741056
v -4.325222 1.399025 0.742394
v -4.323290 1.404081 0.743150
v -4.324785 1.399071 0.741056
v -4.321915 1.408978 0.741812
v -4.323461 1.408654 0.741007
v -4.322659 1.408900 0.744090
v -4.321653 1.407445 0.743968
v -4.323606 1.409532 0.742540
v -4.324376 1.408558 0.743805
v -4.321721 1.408592 0.743686
v -4.321653 1.407445 0.743968
v -4.321721 1.408592 0.743686
v -4.321145 1.407498 0.742415
v -4.323498 1.409318 0.743580
v -4.322659 1.408900 0.744090
v -4.323091 1.407917 0.744587
v -4.324376 1.408558 0.743805
v -4.323498 1.409318 0.743580
v -4.323091 1.407917 0.744587
v -4.322901 1.409381 0.741753
v -4.323606 1.409532 0.742540
v -4.324541 1.408886 0.742212
v -4.323461 1.408654 0.741007
v -4.322901 1.409381 0.741753
v -4.324541 1.408886 0.742212
v -4.323290 1.404081 0.743150
v -4.324448 1.404461 0.743648
v -4.324181 1.405204 0.744261
v -4.323290 1.404081 0.743150
v -4.325483 1.404977 0.743019
v -4.325615 1.405241 0.741736
v -4.325723 1.406235 0.741735
v -4.325483 1.404977 0.743019
v -4.324746 1.405054 0.740766
v -4.323529 1.404557 0.740838
v -4.322967 1.405331 0.740549
v -4.324746 1.405054 0.740766
v -4.322651 1.404702 0.743603
v -4.322881 1.404123 0.741899
v -4.323290 1.404081 0.743150
v -4.322651 1.404702 0.743603
v -4.322881 1.404123 0.741899
v -4.325548 1.405886 0.743430
v -4.324181 1.405204 0.744261
v -4.324448 1.404461 0.743648
v -4.325483 1.404977 0.743019
v -4.325548 1.405886 0.743430
v -4.324448 1.404461 0.743648
v -4.324574 1.405988 0.740453
v -4.325723 1.406235 0.741735
v -4.325615 1.405241 0.741736
v -4.324746 1.405054 0.740766
v -4.324574 1.405988 0.740453
v -4.325615 1.405241 0.741736
v -4.322111 1.404759 0.741950
v -4.322967 1.405331 0.740549
v -4.323529 1.404557 0.740838
v -4.322881 1.404123 0.741899
v -4.322111 1.404759 0.741950
v -4.323529 1.404557 0.740838
v -4.322967 1.405331 0.740549
v -4.322111 1.404759 0.741950
v -4.321280 1.406013 0.742123
v -4.322967 1.405331 0.740549
v -4.321145 1.407498 0.742415
v -4.321949 1.408036 0.741097
v -4.322269 1.406674 0.740503
v -4.321280 1.406013 0.742123
v -4.321145 1.407498 0.742415
v -4.322269 1.406674 0.740503
v -4.322269 1.406674 0.740503
v -4.324574 1.405988 0.740453
v -4.322967 1.405331 0.740549
v -4.322269 1.406674 0.740503
v -4.324574 1.405988 0.740453
v -4.321949 1.408036 0.741097
v -4.323461 1.408654 0.741007
v -4.324126 1.407433 0.740393
v -4.322269 1.406674 0.740503
v -4.321949 1.408036 0.741097
v -4.324126 1.407433 0.740393
v -4.324126 1.407433 0.740393
v -4.325723 1.406235 0.741735
v -4.324574 1.405988 0.740453
v -4.324126 1.407433 0.740393
v -4.325723 1.406235 0.741735
v -4.323461 1.408654 0.741007
v -4.324541 1.408886 0.742212
v -4.325453 1.407719 0.741874
v -4.324126 1.407433 0.740393
v -4.323461 1.408654 0.741007
v -4.325453 1.407719 0.741874
v -4.325453 1.407719 0.741874
v -4.325548 1.405886 0.743430
v -4.325723 1.406235 0.741735
v -4.325453 1.407719 0.741874
v -4.325548 1.405886 0.743430
v -4.324541 1.408886 0.742212
v -4.324376 1.408558 0.743805
v -4.325251 1.407316 0.743832
v -4.325453 1.407719 0.741874
v -4.324541 1.408886 0.742212
v -4.325251 1.407316 0.743832
v -4.325251 1.407316 0.743832
v -4.324181 1.405204 0.744261
v -4.325548 1.405886 0.743430
v -4.325251 1.407316 0.743832
v -4.324181 1.405204 0.744261
v -4.324376 1.408558 0.743805
v -4.323091 1.407917 0.744587
v -4.323671 1.406527 0.744792
v -4.325251 1.407316 0.743832
v -4.324376 1.408558 0.743805
v -4.323671 1.406527 0.744792
v -4.323671 1.406527 0.744792
v -4.322651 1.404702 0.743603
v -4.324181 1.405204 0.744261
v -4.323671 1.406527 0.744792
v -4.322651 1.404702 0.743603
v -4.323091 1.407917 0.744587
v -4.321653 1.407445 0.743968
v -4.321904 1.405947 0.744031
v -4.323671 1.406527 0.744792
v -4.323091 1.407917 0.744587
v -4.321904 1.405947 0.744031
v -4.321904 1.405947 0.744031
v -4.321280 1.406013 0.742123
v -4.322111 1.404759 0.741950
v -4.322651 1.404702 0.743603
v -4.321904 1.405947 0.744031
v -4.322111 1.404759 0.741950
v -4.321653 1.407445 0.743968
v -4.321145 1.407498 0.742415
v -4.321280 1.406013 0.742123
v -4.321904 1.405947 0.744031
v -4.321653 1.407445 0.743968
v -4.321280 1.406013 0.742123
v -4.321390 1.408626 0.742672
v -4.321915 1.408978 0.741812
v -4.321949 1.408036 0.741097
v -4.321145 1.407498 0.742415
v -4.321390 1.408626 0.742672
v -4.321949 1.408036 0.741097
v -4.322901 1.409381 0.741753
v -4.321915 1.408978 0.741812
v -4.323606 1.409532 0.742540
v -4.321390 1.408626 0.742672
v -4.323606 1.409532 0.742540
v -4.321915 1.408978 0.741812
v -4.323498 1.409318 0.743580
v -4.323606 1.409532 0.742540
v -4.321390 1.408626 0.742672
v -4.321721 1.408592 0.743686
v -4.323498 1.409318 0.743580
v -4.321390 1.408626 0.742672
v -4.322659 1.408900 0.744090
v -4.323498 1.409318 0.743580
v -4.321721 1.408592 0.743686
v -4.326780 1.400067 0.739843
v -4.327710 1.400267 0.740882
v -4.325478 1.399534 0.739921
v -4.324785 1.399071 0.741056
v -4.325478 1.399534 0.739921
v -4.327710 1.400267 0.740882
v -4.327568 1.399984 0.742254
v -4.324785 1.399071 0.741056
v -4.327710 1.400267 0.740882
v -4.325222 1.399025 0.742394
v -4.324785 1.399071 0.741056
v -4.327568 1.399984 0.742254
v -4.326461 1.399432 0.742927
v -4.325222 1.399025 0.742394
v -4.327568 1.399984 0.742254
vn -0.3664 -0.9181 -0.1511
vn 0.6721 0.5496 0.4962
vn -0.1428 0.8828 0.4475
vn 0.2418 0.6908 0.6814
vn 0.8242 0.5655 0.0312
vn 0.6721 0.5496 0.4961
vn 0.8242 0.5655 0.0313
vn -0.1920 0.9810 -0.0293
vn 0.5834 0.7265 -0.3631
vn -0.1920 0.9810 -0.0294
vn 0.1312 0.9114 -0.3901
vn 0.6042 0.3233 -0.7283
vn 0.9940 0.0627 -0.0898
vn 0.8241 0.5655 0.0313
vn 0.9382 -0.3069 -0.1600
vn 0.7479 0.0370 0.6628
vn 0.6688 -0.3349 0.6637
vn 0.9382 -0.3068 -0.1601
vn 0.9940 0.0627 -0.0897
vn 0.7472 -0.6315 -0.2072
vn 0.6688 -0.3350 0.6637
vn 0.4934 -0.6580 0.5689
vn 0.0512 0.2657 0.9627
vn -0.0938 -0.0847 0.9920
vn 0.0512 0.2656 0.9627
vn -0.0937 -0.0847 0.9920
vn -0.2250 -0.4222 0.8781
vn -0.5714 0.5764 0.5841
vn -0.7753 0.2555 0.5776
vn -0.5714 0.5764 0.5842
vn -0.2250 -0.4223 0.8781
vn -0.8670 -0.1018 0.4877
vn -0.7754 0.2555 0.5775
vn -0.6512 0.7353 -0.1878
vn -0.8626 0.4294 -0.2674
vn -0.5715 0.5764 0.5841
vn -0.8671 -0.1018 0.4877
vn -0.9493 0.0621 -0.3083
vn -0.8626 0.4295 -0.2674
vn -0.1280 0.6227 -0.7719
vn -0.2899 0.3061 -0.9068
vn -0.6512 0.7353 -0.1879
vn -0.9493 0.0620 -0.3083
vn -0.4097 -0.0540 -0.9106
vn -0.2898 0.3061 -0.9068
vn 0.5116 -0.0215 -0.8590
vn 0.6042 0.3234 -0.7283
vn -0.4097 -0.0541 -0.9106
vn 0.3452 -0.3627 -0.8656
vn 0.5116 -0.0216 -0.8590
vn 0.9382 -0.3068 -0.1600
vn 0.3452 -0.3628 -0.8656
vn 0.7472 -0.6315 -0.2071
vn 0.5115 -0.0215 -0.8590
vn 0.3851 -0.2941 -0.8747
vn 0.7972 -0.5697 -0.1996
vn 0.3453 -0.3627 -0.8656
vn -0.9423 0.1415 -0.3034
vn -0.3891 0.0224 -0.9209
vn -0.9423 0.1415 -0.3033
vn -0.1997 -0.3551 0.9133
vn -0.8670 -0.1018 0.4878
vn -0.8580 -0.0266 0.5129
vn -0.1997 -0.3551 0.9132
vn 0.5370 -0.5969 0.5961
vn 0.3851 -0.2941 -0.8748
vn -0.8580 -0.0265 0.5129
vn -0.1997 -0.3552 0.9132
vn 0.2419 0.6908 0.6814
vn -0.1427 0.8828 0.4475
vn 0.9940 0.0626 -0.0897
vn 0.6721 0.5497 0.4961
vn -0.1279 0.6227 -0.7719
vn 0.9319 -0.3240 -0.1629
vn 0.6624 -0.3521 0.6612
vn 0.9319 -0.3239 -0.1629
vn -0.2968 0.2893 -0.9101
vn 0.5050 -0.0385 -0.8622
vn -0.2967 0.2893 -0.9101
vn -0.7825 0.2386 0.5750
vn -0.8699 0.4127 -0.2703
vn -0.7825 0.2387 0.5750
vn 0.6624 -0.3521 0.6613
vn -0.1996 -0.3551 0.9133
vn -0.1005 -0.1017 0.9897
vn -0.1996 -0.3551 0.9132
vn 0.5051 -0.0385 -0.8622
vn 0.9319 -0.3240 -0.1630
vn -0.8698 0.4127 -0.2704
vn -0.8698 0.4127 -0.2703
vn -0.1006 -0.1017 0.9897
vn -0.8580 -0.0265 0.5130
vn -0.7825 0.2386 0.5751
vt 0.543243 0.635056
vt 0.535370 0.641335
vt 0.537796 0.636299
vt 0.537796 0.646370
vt 0.547607 0.638535
vt 0.543243 0.647614
vt 0.547607 0.644127
vt 0.593674 0.671494
vt 0.598511 0.669548
vt 0.596146 0.672157
vt 0.592773 0.669609
vt 0.596436 0.666756
vt 0.592804 0.667854
vt 0.594147 0.666748
vt 0.591187 0.666855
vt 0.590591 0.669838
vt 0.587372 0.669685
vt 0.591782 0.673050
vt 0.588348 0.674789
vt 0.582382 0.669067
vt 0.582687 0.676537
vt 0.595596 0.675606
vt 0.592606 0.680244
vt 0.586334 0.684982
vt 0.603775 0.674767
vt 0.603561 0.686485
vt 0.594009 0.696274
vt 0.603775 0.658051
vt 0.597107 0.663902
vt 0.596405 0.659698
vt 0.602859 0.665543
vt 0.600342 0.651657
vt 0.594193 0.655174
vt 0.593353 0.664742
vt 0.591705 0.661980
vt 0.588959 0.658463
vt 0.588654 0.665283
vt 0.584778 0.662933
vt 0.580322 0.660286
vt 0.576584 0.668175
vt 0.591812 0.651588
vt 0.585907 0.654999
vt 0.579453 0.688484
vt 0.584915 0.699394
vt 0.576157 0.678001
vt 0.597061 0.648293
vt 0.627350 0.682632
vt 0.649124 0.687675
vt 0.627441 0.688225
vt 0.649033 0.682457
vt 0.627441 0.671455
vt 0.649033 0.677231
vt 0.627350 0.677048
vt 0.649124 0.672005
vt 0.627914 0.660294
vt 0.649292 0.666786
vt 0.627625 0.665871
vt 0.649551 0.661568
vt 0.649292 0.692902
vt 0.627625 0.693810
vt 0.649551 0.698120
vt 0.627914 0.699394
s 0
usemtl decorations
f 240/1/1 239/2/1 238/3/1
f 237/1/1 236/4/1 235/2/1
f 234/5/1 233/4/1 232/1/1
f 231/5/1 230/6/1 229/4/1
f 228/6/1 227/5/1 226/7/1
s 1
f 225/8/2 224/9/3 223/10/4
f 222/11/5 221/9/3 220/8/6
f 219/11/7 218/12/8 217/9/3
f 216/13/9 215/12/8 214/11/7
f 213/12/10 212/13/9 211/14/11
f 210/15/12 209/11/7 208/16/13
f 207/15/12 206/13/9 205/11/14
f 204/17/15 203/18/16 202/19/17
f 201/17/18 200/16/19 199/18/16
f 198/20/20 197/19/21 196/21/22
f 195/20/20 194/17/18 193/19/17
f 192/19/17 191/22/23 190/23/24
f 189/19/17 188/18/16 187/22/25
f 186/21/22 185/23/26 184/24/27
f 183/21/22 3/19/17 182/23/26
f 181/23/24 180/25/28 179/26/29
f 178/23/24 177/22/25 176/25/30
f 175/24/31 174/26/29 173/27/32
f 172/24/31 4/23/24 171/26/29
f 170/28/33 169/29/34 168/30/35
f 167/28/33 166/31/36 165/29/34
f 164/32/37 163/30/35 162/33/38
f 161/32/37 13/28/29 160/30/39
f 159/30/35 158/34/40 157/35/41
f 156/30/35 155/29/42 154/34/40
f 153/33/43 152/35/41 151/36/44
f 150/33/38 14/30/35 149/35/41
f 148/35/45 147/15/12 146/37/46
f 145/35/45 144/34/40 143/15/47
f 142/36/48 141/37/46 140/38/49
f 139/36/48 16/35/41 138/37/46
f 137/37/50 136/16/13 135/17/51
f 134/37/46 133/15/12 132/16/13
f 131/38/52 130/17/51 129/20/53
f 128/38/52 36/37/54 25/17/51
f 127/39/55 126/20/20 125/40/56
f 124/39/55 123/38/57 122/20/20
f 121/41/58 120/36/44 119/42/59
f 118/41/60 117/33/43 116/36/44
f 115/43/61 114/27/62 113/44/63
f 112/43/64 111/24/27 110/27/62
f 109/40/56 108/21/22 107/45/65
f 106/40/56 40/20/20 105/21/22
f 104/42/59 103/38/57 102/39/66
f 101/42/59 41/36/44 42/38/57
f 100/46/67 99/33/38 98/41/58
f 97/46/67 37/32/37 38/33/38
f 96/45/65 95/24/27 94/43/68
f 93/45/65 33/21/22 34/24/27
f 92/29/42 91/14/11 90/34/40
f 89/29/42 88/12/8 87/14/11
f 86/22/23 85/9/3 84/25/30
f 83/22/23 82/10/69 81/9/70
f 80/16/19 79/8/6 78/18/16
f 29/16/71 30/11/5 77/8/72
f 76/31/28 75/12/8 28/29/34
f 31/31/28 26/9/70 27/12/8
f 74/18/16 73/10/4 24/22/25
f 21/18/16 22/8/72 23/10/4
f 72/34/73 71/13/9 20/15/12
f 17/34/73 18/14/11 19/13/9
f 70/47/74 69/48/65 68/49/75
f 67/47/76 66/50/56 65/48/65
f 64/51/77 63/52/55 62/53/78
f 61/51/79 60/54/59 59/52/66
f 58/55/80 57/56/58 56/57/81
f 55/55/82 54/58/63 53/56/58
f 52/49/83 51/59/84 50/60/85
f 2/49/83 32/48/65 49/59/86
f 48/53/87 47/50/56 12/47/88
f 9/53/87 10/52/55 11/50/56
f 46/57/89 45/54/59 8/51/77
f 5/57/90 6/56/58 7/54/59
f 44/60/91 43/61/92 15/62/93
f 1/60/91 35/59/68 39/61/92
