# Blender 5.0.0
# www.blender.org
mtllib Circle_002_Circle_003_Dupli_153_decorations_0.mtl
o Circle.002|Circle.003|Dupli|153_decorations_0
v -4.208087 0.550651 0.494664
v -4.207862 0.550847 0.496041
v -4.205376 0.558203 0.494895
v -4.205696 0.557923 0.492931
v -4.205927 0.549567 0.493888
v -4.203873 0.554539 0.492930
v -4.203165 0.554472 0.494037
v -4.205169 0.549495 0.495073
v -4.205523 0.549920 0.496369
v -4.203495 0.554869 0.495248
v -4.204616 0.555432 0.495651
v -4.206721 0.550522 0.496799
v -4.204467 0.557110 0.491564
v -4.202615 0.556377 0.491824
v -4.207226 0.550081 0.493706
v -4.201533 0.556274 0.493515
v -4.201365 0.557766 0.493275
v -4.201581 0.558922 0.493145
v -4.201849 0.559244 0.494127
v -4.201776 0.558259 0.494779
v -4.204492 0.559335 0.494398
v -4.203622 0.559946 0.493878
v -4.203792 0.559797 0.492835
v -4.204752 0.559107 0.492800
v -4.203747 0.557739 0.495977
v -4.203140 0.559365 0.492110
v -4.202156 0.558976 0.492248
v -4.202245 0.557849 0.491899
v -4.203167 0.558957 0.495278
v -4.202757 0.559699 0.494453
v -4.203753 0.558446 0.491688
v -4.205682 0.555736 0.494942
v -4.205712 0.556732 0.495021
v -4.205989 0.556490 0.493321
v -4.205892 0.555552 0.493655
v -4.202037 0.556881 0.495363
v -4.204926 0.555786 0.492138
v -4.203322 0.555151 0.492363
v -4.205087 0.555020 0.492759
v -4.204303 0.556330 0.495958
v -4.202386 0.555063 0.493826
v -4.202823 0.555587 0.495426
v -4.205087 0.555020 0.492759
v -4.208087 0.550651 0.494664
v -4.203165 0.554472 0.494037
v -4.205927 0.549567 0.493888
v -4.204616 0.555432 0.495651
v -4.205523 0.549920 0.496369
v -4.205892 0.555552 0.493655
v -4.208087 0.550651 0.494664
v -4.205892 0.555552 0.493655
v -4.207862 0.550847 0.496041
v -4.203873 0.554539 0.492930
v -4.205087 0.555020 0.492759
v -4.207226 0.550081 0.493706
v -4.205927 0.549567 0.493888
v -4.203873 0.554539 0.492930
v -4.207226 0.550081 0.493706
v -4.203495 0.554869 0.495248
v -4.203165 0.554472 0.494037
v -4.205169 0.549495 0.495073
v -4.205523 0.549920 0.496369
v -4.203495 0.554869 0.495248
v -4.205169 0.549495 0.495073
v -4.205682 0.555736 0.494942
v -4.204616 0.555432 0.495651
v -4.206721 0.550522 0.496799
v -4.207862 0.550847 0.496041
v -4.205682 0.555736 0.494942
v -4.206721 0.550522 0.496799
v -4.201849 0.559244 0.494127
v -4.201365 0.557766 0.493275
v -4.203792 0.559797 0.492835
v -4.204492 0.559335 0.494398
v -4.202156 0.558976 0.492248
v -4.203753 0.558446 0.491688
v -4.203622 0.559946 0.493878
v -4.204492 0.559335 0.494398
v -4.203622 0.559946 0.493878
v -4.203167 0.558957 0.495278
v -4.203140 0.559365 0.492110
v -4.203792 0.559797 0.492835
v -4.204752 0.559107 0.492800
v -4.203753 0.558446 0.491688
v -4.203140 0.559365 0.492110
v -4.204752 0.559107 0.492800
v -4.201581 0.558922 0.493145
v -4.202156 0.558976 0.492248
v -4.202245 0.557849 0.491899
v -4.201365 0.557766 0.493275
v -4.201581 0.558922 0.493145
v -4.202245 0.557849 0.491899
v -4.205682 0.555736 0.494942
v -4.205892 0.555552 0.493655
v -4.205989 0.556490 0.493321
v -4.205682 0.555736 0.494942
v -4.205087 0.555020 0.492759
v -4.203873 0.554539 0.492930
v -4.203322 0.555151 0.492363
v -4.205087 0.555020 0.492759
v -4.203165 0.554472 0.494037
v -4.203495 0.554869 0.495248
v -4.202823 0.555587 0.495426
v -4.203165 0.554472 0.494037
v -4.205712 0.556732 0.495021
v -4.204616 0.555432 0.495651
v -4.205682 0.555736 0.494942
v -4.205712 0.556732 0.495021
v -4.204616 0.555432 0.495651
v -4.204926 0.555786 0.492138
v -4.205989 0.556490 0.493321
v -4.205892 0.555552 0.493655
v -4.205087 0.555020 0.492759
v -4.204926 0.555786 0.492138
v -4.205892 0.555552 0.493655
v -4.202386 0.555063 0.493826
v -4.203322 0.555151 0.492363
v -4.203873 0.554539 0.492930
v -4.203165 0.554472 0.494037
v -4.202386 0.555063 0.493826
v -4.203873 0.554539 0.492930
v -4.204303 0.556330 0.495958
v -4.202823 0.555587 0.495426
v -4.203495 0.554869 0.495248
v -4.204616 0.555432 0.495651
v -4.204303 0.556330 0.495958
v -4.203495 0.554869 0.495248
v -4.202823 0.555587 0.495426
v -4.204303 0.556330 0.495958
v -4.203747 0.557739 0.495977
v -4.202823 0.555587 0.495426
v -4.203167 0.558957 0.495278
v -4.201776 0.558259 0.494779
v -4.202037 0.556881 0.495363
v -4.203747 0.557739 0.495977
v -4.203167 0.558957 0.495278
v -4.202037 0.556881 0.495363
v -4.202037 0.556881 0.495363
v -4.202386 0.555063 0.493826
v -4.202823 0.555587 0.495426
v -4.202037 0.556881 0.495363
v -4.202386 0.555063 0.493826
v -4.201776 0.558259 0.494779
v -4.201365 0.557766 0.493275
v -4.201533 0.556274 0.493515
v -4.202037 0.556881 0.495363
v -4.201776 0.558259 0.494779
v -4.201533 0.556274 0.493515
v -4.201533 0.556274 0.493515
v -4.203322 0.555151 0.492363
v -4.202386 0.555063 0.493826
v -4.201533 0.556274 0.493515
v -4.203322 0.555151 0.492363
v -4.201365 0.557766 0.493275
v -4.202245 0.557849 0.491899
v -4.202615 0.556377 0.491824
v -4.201533 0.556274 0.493515
v -4.201365 0.557766 0.493275
v -4.202615 0.556377 0.491824
v -4.202615 0.556377 0.491824
v -4.204926 0.555786 0.492138
v -4.203322 0.555151 0.492363
v -4.202615 0.556377 0.491824
v -4.204926 0.555786 0.492138
v -4.202245 0.557849 0.491899
v -4.203753 0.558446 0.491688
v -4.204467 0.557110 0.491564
v -4.202615 0.556377 0.491824
v -4.202245 0.557849 0.491899
v -4.204467 0.557110 0.491564
v -4.204467 0.557110 0.491564
v -4.205989 0.556490 0.493321
v -4.204926 0.555786 0.492138
v -4.204467 0.557110 0.491564
v -4.205989 0.556490 0.493321
v -4.203753 0.558446 0.491688
v -4.204752 0.559107 0.492800
v -4.205696 0.557923 0.492931
v -4.204467 0.557110 0.491564
v -4.203753 0.558446 0.491688
v -4.205696 0.557923 0.492931
v -4.205696 0.557923 0.492931
v -4.205712 0.556732 0.495021
v -4.205989 0.556490 0.493321
v -4.205696 0.557923 0.492931
v -4.205712 0.556732 0.495021
v -4.204752 0.559107 0.492800
v -4.204492 0.559335 0.494398
v -4.205376 0.558203 0.494895
v -4.205696 0.557923 0.492931
v -4.204752 0.559107 0.492800
v -4.205376 0.558203 0.494895
v -4.205376 0.558203 0.494895
v -4.203747 0.557739 0.495977
v -4.204303 0.556330 0.495958
v -4.205712 0.556732 0.495021
v -4.205376 0.558203 0.494895
v -4.204303 0.556330 0.495958
v -4.204492 0.559335 0.494398
v -4.203167 0.558957 0.495278
v -4.203747 0.557739 0.495977
v -4.205376 0.558203 0.494895
v -4.204492 0.559335 0.494398
v -4.203747 0.557739 0.495977
v -4.202757 0.559699 0.494453
v -4.201849 0.559244 0.494127
v -4.201776 0.558259 0.494779
v -4.203167 0.558957 0.495278
v -4.202757 0.559699 0.494453
v -4.201776 0.558259 0.494779
v -4.201581 0.558922 0.493145
v -4.201849 0.559244 0.494127
v -4.202156 0.558976 0.492248
v -4.202757 0.559699 0.494453
v -4.202156 0.558976 0.492248
v -4.201849 0.559244 0.494127
v -4.203140 0.559365 0.492110
v -4.202156 0.558976 0.492248
v -4.202757 0.559699 0.494453
v -4.203622 0.559946 0.493878
v -4.203140 0.559365 0.492110
v -4.202757 0.559699 0.494453
v -4.203792 0.559797 0.492835
v -4.203140 0.559365 0.492110
v -4.203622 0.559946 0.493878
v -4.205169 0.549495 0.495073
v -4.205927 0.549567 0.493888
v -4.205523 0.549920 0.496369
v -4.206721 0.550522 0.496799
v -4.205523 0.549920 0.496369
v -4.205927 0.549567 0.493888
v -4.207226 0.550081 0.493706
v -4.206721 0.550522 0.496799
v -4.205927 0.549567 0.493888
v -4.207862 0.550847 0.496041
v -4.206721 0.550522 0.496799
v -4.207226 0.550081 0.493706
v -4.208087 0.550651 0.494664
v -4.207862 0.550847 0.496041
v -4.207226 0.550081 0.493706
vn -0.3845 -0.9031 0.1914
vn -0.1054 0.9863 0.1270
vn 0.1158 0.7202 -0.6840
vn -0.1834 0.9182 -0.3512
vn 0.2911 0.8733 0.3906
vn 0.1158 0.7203 -0.6840
vn -0.1054 0.9863 0.1271
vn 0.2910 0.8733 0.3906
vn 0.5669 0.5416 -0.6207
vn 0.7075 0.6643 0.2410
vn 0.5670 0.5416 -0.6207
vn 0.7075 0.6644 0.2411
vn 0.8303 0.5167 -0.2090
vn 0.7882 0.2367 0.5680
vn 0.1142 0.5750 0.8101
vn 0.7075 0.6644 0.2410
vn -0.0324 0.2601 0.9650
vn -0.5278 0.7579 0.3835
vn -0.7349 0.4603 0.4980
vn -0.0323 0.2601 0.9650
vn 0.1141 0.5750 0.8101
vn -0.5277 0.7579 0.3834
vn -0.1739 -0.0918 0.9805
vn -0.7350 0.4603 0.4979
vn -0.8358 0.0968 0.5405
vn -0.7349 0.4604 0.4980
vn -0.6541 0.6477 -0.3908
vn -0.8732 0.3396 -0.3495
vn -0.5278 0.7579 0.3834
vn -0.8358 0.0968 0.5404
vn -0.9660 -0.0169 -0.2579
vn -0.1697 0.3272 -0.9296
vn -0.3430 -0.0111 -0.9393
vn -0.6541 0.6476 -0.3908
vn -0.1697 0.3273 -0.9296
vn -0.9660 -0.0170 -0.2579
vn -0.4665 -0.3473 -0.8135
vn -0.3429 -0.0112 -0.9393
vn 0.5607 0.0380 -0.8272
vn 0.4565 -0.3277 -0.8272
vn -0.4665 -0.3474 -0.8135
vn 0.4564 -0.3278 -0.8272
vn 0.2866 -0.6456 -0.7079
vn -0.3430 -0.0112 -0.9393
vn 0.4564 -0.3277 -0.8272
vn 0.9870 -0.0023 -0.1607
vn 0.9231 -0.3719 -0.0976
vn 0.5607 0.0379 -0.8272
vn 0.2866 -0.6456 -0.7078
vn 0.7262 -0.6871 -0.0206
vn 0.7883 0.2367 0.5680
vn 0.7056 -0.1102 0.7000
vn 0.7883 0.2367 0.5679
vn 0.7262 -0.6872 -0.0205
vn 0.5213 -0.4407 0.7308
vn 0.7262 -0.6871 -0.0205
vn 0.1141 0.5750 0.8102
vn 0.5671 -0.3753 0.7332
vn -0.1738 -0.0918 0.9805
vn -0.1457 -0.0176 0.9892
vn 0.3265 -0.5854 -0.7421
vn 0.7773 -0.6281 -0.0373
vn -0.9580 0.0592 -0.2807
vn -0.4458 -0.2796 -0.8504
vn -0.8244 0.1758 0.5380
vn 0.7773 -0.6280 -0.0373
vn 0.5671 -0.3753 0.7331
vn 0.3265 -0.5855 -0.7420
vn 0.5607 0.0379 -0.8271
vn -0.1834 0.9182 -0.3511
vn 0.1158 0.7203 -0.6839
vn -0.1696 0.3273 -0.9296
vn -0.1696 0.3272 -0.9296
vn -0.0395 0.2435 0.9691
vn -0.7424 0.4438 0.5018
vn -0.0394 0.2436 0.9691
vn 0.9165 -0.3888 -0.0941
vn 0.6989 -0.1270 0.7039
vn 0.9165 -0.3887 -0.0941
vn -0.3502 -0.0279 -0.9363
vn 0.4496 -0.3446 -0.8241
vn -0.3502 -0.0278 -0.9363
vn -0.4458 -0.2796 -0.8503
vn 0.3265 -0.5855 -0.7421
vn -0.7425 0.4438 0.5017
vn -0.8808 0.3231 -0.3461
vn -0.7425 0.4439 0.5017
vn -0.0394 0.2435 0.9691
vn -0.8808 0.3231 -0.3462
vn -0.3502 -0.0278 -0.9362
vt 0.530319 0.611839
vt 0.522446 0.618118
vt 0.524872 0.613083
vt 0.524872 0.623154
vt 0.534683 0.615326
vt 0.530319 0.624397
vt 0.534683 0.620918
vt 0.537079 0.671494
vt 0.541916 0.669548
vt 0.539566 0.672157
vt 0.536179 0.669609
vt 0.539856 0.666756
vt 0.536224 0.667854
vt 0.537567 0.666748
vt 0.534592 0.666855
vt 0.534012 0.669838
vt 0.530777 0.669685
vt 0.535187 0.673050
vt 0.531769 0.674789
vt 0.525803 0.669067
vt 0.526108 0.676537
vt 0.539017 0.675606
vt 0.536011 0.680244
vt 0.529755 0.684982
vt 0.547180 0.674767
vt 0.546982 0.686485
vt 0.537415 0.696274
vt 0.547180 0.658051
vt 0.540527 0.663902
vt 0.539825 0.659698
vt 0.546280 0.665543
vt 0.543762 0.651657
vt 0.537613 0.655174
vt 0.536758 0.664742
vt 0.535126 0.661980
vt 0.532364 0.658463
vt 0.532074 0.665283
vt 0.528198 0.662933
vt 0.523743 0.660286
vt 0.519989 0.668175
vt 0.535217 0.651588
vt 0.529327 0.654999
vt 0.522873 0.688484
vt 0.528320 0.699394
vt 0.519577 0.678001
vt 0.540466 0.648293
vt 0.604446 0.642853
vt 0.626221 0.647896
vt 0.604553 0.648445
vt 0.626144 0.642670
vt 0.604553 0.631676
vt 0.626144 0.637444
vt 0.604446 0.637268
vt 0.626221 0.632225
vt 0.605011 0.620506
vt 0.626404 0.626999
vt 0.604736 0.626091
vt 0.626663 0.621780
vt 0.626404 0.653114
vt 0.604736 0.654030
vt 0.626663 0.658333
vt 0.605011 0.659607
s 0
usemtl decorations
f 240/1/1 239/2/1 238/3/1
f 237/1/1 236/4/1 235/2/1
f 234/5/1 233/4/1 232/1/1
f 231/5/1 230/6/1 229/4/1
f 228/6/1 227/5/1 226/7/1
s 1
f 225/8/2 224/9/3 223/10/4
f 222/11/5 221/9/6 220/8/7
f 219/11/8 218/12/9 217/9/3
f 216/13/10 215/12/9 214/11/5
f 213/12/11 212/13/12 211/14/13
f 210/15/14 209/11/5 208/16/15
f 207/15/14 206/13/16 205/11/5
f 204/17/17 203/18/18 202/19/19
f 201/17/20 200/16/21 199/18/22
f 198/20/23 197/19/24 196/21/25
f 195/20/23 194/17/20 193/19/26
f 192/19/19 191/22/27 190/23/28
f 189/19/19 188/18/29 187/22/27
f 186/21/30 185/23/28 184/24/31
f 183/21/30 3/19/19 182/23/28
f 181/23/28 180/25/32 179/26/33
f 178/23/28 177/22/34 176/25/35
f 175/24/36 174/26/33 173/27/37
f 172/24/36 4/23/28 171/26/33
f 170/28/38 169/29/39 168/30/40
f 167/28/38 166/31/32 165/29/39
f 164/32/41 163/30/42 162/33/43
f 161/32/41 13/28/44 160/30/45
f 159/30/40 158/34/46 157/35/47
f 156/30/40 155/29/48 154/34/46
f 153/33/49 152/35/47 151/36/50
f 150/33/49 14/30/40 149/35/47
f 148/35/47 147/15/51 146/37/52
f 145/35/47 144/34/46 143/15/53
f 142/36/54 141/37/52 140/38/55
f 139/36/56 16/35/47 138/37/52
f 137/37/52 136/16/57 135/17/20
f 134/37/52 133/15/51 132/16/15
f 131/38/55 130/17/20 129/20/23
f 128/38/55 36/37/52 25/17/20
f 127/39/58 126/20/59 125/40/60
f 124/39/58 123/38/55 122/20/59
f 121/41/61 120/36/50 119/42/62
f 118/41/61 117/33/49 116/36/50
f 115/43/63 114/27/37 113/44/64
f 112/43/63 111/24/31 110/27/37
f 109/40/60 108/21/25 107/45/65
f 106/40/60 40/20/23 105/21/25
f 104/42/66 103/38/55 102/39/67
f 101/42/62 41/36/50 42/38/55
f 100/46/64 99/33/43 98/41/68
f 97/46/64 37/32/37 38/33/43
f 96/45/65 95/24/31 94/43/63
f 93/45/65 33/21/25 34/24/31
f 92/29/69 91/14/13 90/34/46
f 89/29/69 88/12/9 87/14/13
f 86/22/27 85/9/6 84/25/35
f 83/22/34 82/10/70 81/9/71
f 80/16/21 79/8/2 78/18/29
f 29/16/57 30/11/5 77/8/2
f 76/31/72 75/12/9 28/29/39
f 31/31/73 26/9/71 27/12/9
f 74/18/29 73/10/4 24/22/27
f 21/18/29 22/8/2 23/10/4
f 72/34/46 71/13/12 20/15/51
f 17/34/46 18/14/13 19/13/16
f 70/47/74 69/48/65 68/49/75
f 67/47/76 66/50/60 65/48/65
f 64/51/77 63/52/67 62/53/78
f 61/51/79 60/54/66 59/52/67
f 58/55/80 57/56/61 56/57/81
f 55/55/82 54/58/83 53/56/84
f 52/49/85 51/59/63 50/60/86
f 2/49/87 32/48/65 49/59/63
f 48/53/78 47/50/60 12/47/88
f 9/53/78 10/52/67 11/50/60
f 46/57/81 45/54/66 8/51/79
f 5/57/81 6/56/68 7/54/62
f 44/60/89 43/61/64 15/62/90
f 1/60/89 35/59/63 39/61/64
