# Blender 5.0.0
# www.blender.org
mtllib Circle_005_Circle_Dupli_71_decorations_0.mtl
o Circle.005|Circle|Dupli|71_decorations_0
v -4.651791 0.779820 0.460281
v -4.651935 0.779338 0.461596
v -4.659341 0.781897 0.462045
v -4.659136 0.782585 0.460169
v -4.650748 0.782107 0.460629
v -4.655764 0.784253 0.460955
v -4.655657 0.784329 0.462265
v -4.650635 0.782190 0.462031
v -4.651008 0.781238 0.462999
v -4.656006 0.783440 0.463171
v -4.656547 0.782253 0.462990
v -4.651587 0.779968 0.462806
v -4.658382 0.784344 0.459555
v -4.657648 0.785848 0.460666
v -4.651263 0.781053 0.459850
v -4.657486 0.785966 0.462666
v -4.658987 0.786196 0.462586
v -4.660145 0.786044 0.462403
v -4.660428 0.785323 0.463137
v -4.659420 0.785091 0.463710
v -4.660496 0.782884 0.462081
v -4.661130 0.783883 0.462073
v -4.661021 0.784249 0.461077
v -4.660329 0.783445 0.460554
v -4.658844 0.782797 0.463771
v -4.660621 0.785182 0.460751
v -4.660231 0.785981 0.461341
v -4.659118 0.786100 0.460959
v -4.660091 0.783617 0.463485
v -4.660866 0.784361 0.462990
v -4.659716 0.784876 0.460054
v -4.656873 0.781663 0.461859
v -4.657865 0.781576 0.461945
v -4.657687 0.782172 0.460320
v -4.656738 0.782114 0.460630
v -4.658019 0.784608 0.464047
v -4.657035 0.783694 0.459789
v -4.656400 0.784996 0.460751
v -4.656245 0.783267 0.460227
v -4.657435 0.782355 0.463439
v -4.656260 0.785098 0.462481
v -4.656720 0.783922 0.463678
v -4.656245 0.783267 0.460227
v -4.651791 0.779820 0.460281
v -4.655657 0.784329 0.462265
v -4.650748 0.782107 0.460629
v -4.656547 0.782253 0.462990
v -4.651008 0.781238 0.462999
v -4.656738 0.782114 0.460630
v -4.651791 0.779820 0.460281
v -4.656738 0.782114 0.460630
v -4.651935 0.779338 0.461596
v -4.655764 0.784253 0.460955
v -4.656245 0.783267 0.460227
v -4.651263 0.781053 0.459850
v -4.650748 0.782107 0.460629
v -4.655764 0.784253 0.460955
v -4.651263 0.781053 0.459850
v -4.656006 0.783440 0.463171
v -4.655657 0.784329 0.462265
v -4.650635 0.782190 0.462031
v -4.651008 0.781238 0.462999
v -4.656006 0.783440 0.463171
v -4.650635 0.782190 0.462031
v -4.656873 0.781663 0.461859
v -4.656547 0.782253 0.462990
v -4.651587 0.779968 0.462806
v -4.651935 0.779338 0.461596
v -4.656873 0.781663 0.461859
v -4.651587 0.779968 0.462806
v -4.660428 0.785323 0.463137
v -4.658987 0.786196 0.462586
v -4.661021 0.784249 0.461077
v -4.660496 0.782884 0.462081
v -4.660231 0.785981 0.461341
v -4.659716 0.784876 0.460054
v -4.661130 0.783883 0.462073
v -4.660496 0.782884 0.462081
v -4.661130 0.783883 0.462073
v -4.660091 0.783617 0.463485
v -4.660621 0.785182 0.460751
v -4.661021 0.784249 0.461077
v -4.660329 0.783445 0.460554
v -4.659716 0.784876 0.460054
v -4.660621 0.785182 0.460751
v -4.660329 0.783445 0.460554
v -4.660145 0.786044 0.462403
v -4.660231 0.785981 0.461341
v -4.659118 0.786100 0.460959
v -4.658987 0.786196 0.462586
v -4.660145 0.786044 0.462403
v -4.659118 0.786100 0.460959
v -4.656873 0.781663 0.461859
v -4.656738 0.782114 0.460630
v -4.657687 0.782172 0.460320
v -4.656873 0.781663 0.461859
v -4.656245 0.783267 0.460227
v -4.655764 0.784253 0.460955
v -4.656400 0.784996 0.460751
v -4.656245 0.783267 0.460227
v -4.655657 0.784329 0.462265
v -4.656006 0.783440 0.463171
v -4.656720 0.783922 0.463678
v -4.655657 0.784329 0.462265
v -4.657865 0.781576 0.461945
v -4.656547 0.782253 0.462990
v -4.656873 0.781663 0.461859
v -4.657865 0.781576 0.461945
v -4.656547 0.782253 0.462990
v -4.657035 0.783694 0.459789
v -4.657687 0.782172 0.460320
v -4.656738 0.782114 0.460630
v -4.656245 0.783267 0.460227
v -4.657035 0.783694 0.459789
v -4.656738 0.782114 0.460630
v -4.656260 0.785098 0.462481
v -4.656400 0.784996 0.460751
v -4.655764 0.784253 0.460955
v -4.655657 0.784329 0.462265
v -4.656260 0.785098 0.462481
v -4.655764 0.784253 0.460955
v -4.657435 0.782355 0.463439
v -4.656720 0.783922 0.463678
v -4.656006 0.783440 0.463171
v -4.656547 0.782253 0.462990
v -4.657435 0.782355 0.463439
v -4.656006 0.783440 0.463171
v -4.656720 0.783922 0.463678
v -4.657435 0.782355 0.463439
v -4.658844 0.782797 0.463771
v -4.656720 0.783922 0.463678
v -4.660091 0.783617 0.463485
v -4.659420 0.785091 0.463710
v -4.658019 0.784608 0.464047
v -4.658844 0.782797 0.463771
v -4.660091 0.783617 0.463485
v -4.658019 0.784608 0.464047
v -4.658019 0.784608 0.464047
v -4.656260 0.785098 0.462481
v -4.656720 0.783922 0.463678
v -4.658019 0.784608 0.464047
v -4.656260 0.785098 0.462481
v -4.659420 0.785091 0.463710
v -4.658987 0.786196 0.462586
v -4.657486 0.785966 0.462666
v -4.658019 0.784608 0.464047
v -4.659420 0.785091 0.463710
v -4.657486 0.785966 0.462666
v -4.657486 0.785966 0.462666
v -4.656400 0.784996 0.460751
v -4.656260 0.785098 0.462481
v -4.657486 0.785966 0.462666
v -4.656400 0.784996 0.460751
v -4.658987 0.786196 0.462586
v -4.659118 0.786100 0.460959
v -4.657648 0.785848 0.460666
v -4.657486 0.785966 0.462666
v -4.658987 0.786196 0.462586
v -4.657648 0.785848 0.460666
v -4.657648 0.785848 0.460666
v -4.657035 0.783694 0.459789
v -4.656400 0.784996 0.460751
v -4.657648 0.785848 0.460666
v -4.657035 0.783694 0.459789
v -4.659118 0.786100 0.460959
v -4.659716 0.784876 0.460054
v -4.658382 0.784344 0.459555
v -4.657648 0.785848 0.460666
v -4.659118 0.786100 0.460959
v -4.658382 0.784344 0.459555
v -4.658382 0.784344 0.459555
v -4.657687 0.782172 0.460320
v -4.657035 0.783694 0.459789
v -4.658382 0.784344 0.459555
v -4.657687 0.782172 0.460320
v -4.659716 0.784876 0.460054
v -4.660329 0.783445 0.460554
v -4.659136 0.782585 0.460169
v -4.658382 0.784344 0.459555
v -4.659716 0.784876 0.460054
v -4.659136 0.782585 0.460169
v -4.659136 0.782585 0.460169
v -4.657865 0.781576 0.461945
v -4.657687 0.782172 0.460320
v -4.659136 0.782585 0.460169
v -4.657865 0.781576 0.461945
v -4.660329 0.783445 0.460554
v -4.660496 0.782884 0.462081
v -4.659341 0.781897 0.462045
v -4.659136 0.782585 0.460169
v -4.660329 0.783445 0.460554
v -4.659341 0.781897 0.462045
v -4.659341 0.781897 0.462045
v -4.658844 0.782797 0.463771
v -4.657435 0.782355 0.463439
v -4.657865 0.781576 0.461945
v -4.659341 0.781897 0.462045
v -4.657435 0.782355 0.463439
v -4.660496 0.782884 0.462081
v -4.660091 0.783617 0.463485
v -4.658844 0.782797 0.463771
v -4.659341 0.781897 0.462045
v -4.660496 0.782884 0.462081
v -4.658844 0.782797 0.463771
v -4.660866 0.784361 0.462990
v -4.660428 0.785323 0.463137
v -4.659420 0.785091 0.463710
v -4.660091 0.783617 0.463485
v -4.660866 0.784361 0.462990
v -4.659420 0.785091 0.463710
v -4.660145 0.786044 0.462403
v -4.660428 0.785323 0.463137
v -4.660231 0.785981 0.461341
v -4.660866 0.784361 0.462990
v -4.660231 0.785981 0.461341
v -4.660428 0.785323 0.463137
v -4.660621 0.785182 0.460751
v -4.660231 0.785981 0.461341
v -4.660866 0.784361 0.462990
v -4.661130 0.783883 0.462073
v -4.660621 0.785182 0.460751
v -4.660866 0.784361 0.462990
v -4.661021 0.784249 0.461077
v -4.660621 0.785182 0.460751
v -4.661130 0.783883 0.462073
v -4.650635 0.782190 0.462031
v -4.650748 0.782107 0.460629
v -4.651008 0.781238 0.462999
v -4.651587 0.779968 0.462806
v -4.651008 0.781238 0.462999
v -4.650748 0.782107 0.460629
v -4.651263 0.781053 0.459850
v -4.651587 0.779968 0.462806
v -4.650748 0.782107 0.460629
v -4.651935 0.779338 0.461596
v -4.651587 0.779968 0.462806
v -4.651263 0.781053 0.459850
v -4.651791 0.779820 0.460281
v -4.651935 0.779338 0.461596
v -4.651263 0.781053 0.459850
vn 0.9116 -0.4080 -0.0499
vn -0.9802 -0.1768 0.0897
vn -0.7465 0.4192 -0.5166
vn -0.9301 -0.0091 -0.3672
vn -0.8590 0.0425 0.5102
vn -0.7466 0.4192 -0.5167
vn -0.9801 -0.1768 0.0898
vn -0.8591 0.0424 0.5101
vn -0.5678 0.7856 -0.2460
vn -0.6580 0.4834 0.5774
vn -0.8590 0.0424 0.5101
vn -0.5283 0.8141 0.2409
vn -0.2184 0.4036 0.8885
vn -0.5440 -0.3103 0.7796
vn -0.8591 0.0425 0.5101
vn -0.2226 -0.5066 0.8330
vn -0.7401 -0.6652 0.0990
vn -0.4373 -0.8950 0.0880
vn -0.2227 -0.5065 0.8330
vn -0.7401 -0.6652 0.0991
vn 0.1303 -0.6294 0.7661
vn -0.0720 -0.9953 0.0643
vn -0.6591 -0.3938 -0.6408
vn -0.3486 -0.5979 -0.7218
vn -0.0719 -0.9953 0.0642
vn 0.0116 -0.7155 -0.6986
vn -0.0719 -0.9953 0.0643
vn -0.3619 0.2996 -0.8828
vn -0.0233 0.1611 -0.9867
vn -0.6590 -0.3938 -0.6408
vn -0.3619 0.2996 -0.8827
vn 0.0117 -0.7154 -0.6986
vn 0.3180 -0.0004 -0.9481
vn -0.0724 0.8928 -0.4447
vn 0.2935 0.8104 -0.5071
vn -0.0725 0.8928 -0.4447
vn 0.3181 -0.0004 -0.9481
vn 0.2935 0.8103 -0.5071
vn 0.6165 0.6112 -0.4964
vn 0.2935 0.8103 -0.5072
vn -0.0086 0.9391 0.3436
vn 0.3634 0.8610 0.3557
vn 0.6166 0.6112 -0.4963
vn 0.6823 0.6590 0.3165
vn 0.6165 0.6112 -0.4963
vn 0.3634 0.8610 0.3558
vn -0.2184 0.4037 0.8885
vn 0.1337 0.2750 0.9521
vn -0.2185 0.4037 0.8884
vn 0.6824 0.6589 0.3166
vn 0.4659 0.1069 0.8783
vn 0.6824 0.6589 0.3165
vn 0.1337 0.2749 0.9521
vn -0.2227 -0.5066 0.8330
vn 0.1336 0.2750 0.9521
vn 0.4660 0.1068 0.8783
vn 0.1302 -0.6294 0.7661
vn 0.4005 0.1441 0.9049
vn 0.0563 -0.6108 0.7898
vn 0.4659 0.1068 0.8783
vn 0.5549 0.6613 -0.5047
vn 0.6224 0.7103 0.3288
vn -0.0654 -0.6990 -0.7121
vn 0.3180 -0.0005 -0.9481
vn 0.2489 0.0341 -0.9679
vn -0.0653 -0.6990 -0.7121
vn 0.0116 -0.7154 -0.6986
vn -0.1510 -0.9860 0.0702
vn 0.2488 0.0341 -0.9680
vn 0.2488 0.0341 -0.9679
vn -0.1511 -0.9860 0.0702
vn -0.0724 0.8928 -0.4446
vn -0.5678 0.7855 -0.2460
vn -0.5283 0.8142 0.2409
vn -0.6591 -0.3937 -0.6408
vn -0.7466 0.4192 -0.5166
vn -0.6590 -0.3937 -0.6408
vn -0.5440 -0.3104 0.7796
vn -0.9802 -0.1767 0.0898
vn -0.7400 -0.6652 0.0990
vn -0.2185 0.4036 0.8885
vn -0.2059 -0.5144 0.8325
vn -0.4207 -0.9030 0.0871
vn -0.2060 -0.5144 0.8325
vn 0.3805 0.8539 0.3550
vn 0.1506 0.2676 0.9517
vn 0.3804 0.8539 0.3551
vn -0.0065 0.1537 -0.9881
vn 0.3105 0.8032 -0.5084
vn -0.3319 -0.6058 -0.7231
vn 0.1506 0.2675 0.9517
vn -0.2059 -0.5143 0.8325
vn 0.3105 0.8032 -0.5083
vn 0.3804 0.8540 0.3550
vn -0.0065 0.1536 -0.9881
vn -0.3320 -0.6058 -0.7231
vt 0.543243 0.611839
vt 0.535370 0.618118
vt 0.537796 0.613083
vt 0.537796 0.623154
vt 0.547607 0.615326
vt 0.543243 0.624397
vt 0.547607 0.620918
vt 0.565384 0.671494
vt 0.570206 0.669548
vt 0.567856 0.672157
vt 0.564468 0.669609
vt 0.568146 0.666756
vt 0.564514 0.667854
vt 0.565857 0.666748
vt 0.562897 0.666855
vt 0.562302 0.669838
vt 0.559082 0.669685
vt 0.563492 0.673050
vt 0.560059 0.674789
vt 0.554092 0.669067
vt 0.554398 0.676537
vt 0.567307 0.675606
vt 0.564316 0.680244
vt 0.558044 0.684982
vt 0.575485 0.674767
vt 0.575272 0.686485
vt 0.565720 0.696274
vt 0.575485 0.658051
vt 0.568817 0.663902
vt 0.568115 0.659698
vt 0.574570 0.665543
vt 0.572052 0.651657
vt 0.565903 0.655174
vt 0.565063 0.664742
vt 0.563416 0.661980
vt 0.560669 0.658463
vt 0.560364 0.665283
vt 0.556488 0.662933
vt 0.552032 0.660286
vt 0.548294 0.668175
vt 0.563522 0.651588
vt 0.557617 0.654999
vt 0.551163 0.688484
vt 0.556610 0.699394
vt 0.547867 0.678001
vt 0.568756 0.648293
vt 0.604446 0.682632
vt 0.626221 0.687675
vt 0.604553 0.688225
vt 0.626144 0.682457
vt 0.604553 0.671455
vt 0.626144 0.677231
vt 0.604446 0.677048
vt 0.626221 0.672005
vt 0.605011 0.660294
vt 0.626404 0.666786
vt 0.604736 0.665871
vt 0.626663 0.661568
vt 0.626404 0.692902
vt 0.604736 0.693810
vt 0.626663 0.698120
vt 0.605011 0.699394
s 0
usemtl decorations
f 240/1/1 239/2/1 238/3/1
f 237/1/1 236/4/1 235/2/1
f 234/5/1 233/4/1 232/1/1
f 231/5/1 230/6/1 229/4/1
f 228/6/1 227/5/1 226/7/1
s 1
f 225/8/2 224/9/3 223/10/4
f 222/11/5 221/9/6 220/8/7
f 219/11/8 218/12/9 217/9/3
f 216/13/10 215/12/9 214/11/11
f 213/12/9 212/13/10 211/14/12
f 210/15/13 209/11/8 208/16/14
f 207/15/13 206/13/10 205/11/15
f 204/17/16 203/18/17 202/19/18
f 201/17/19 200/16/14 199/18/20
f 198/20/21 197/19/18 196/21/22
f 195/20/21 194/17/19 193/19/18
f 192/19/18 191/22/23 190/23/24
f 189/19/18 188/18/17 187/22/23
f 186/21/25 185/23/24 184/24/26
f 183/21/27 3/19/18 182/23/24
f 181/23/24 180/25/28 179/26/29
f 178/23/24 177/22/30 176/25/31
f 175/24/32 174/26/29 173/27/33
f 172/24/32 4/23/24 171/26/29
f 170/28/29 169/29/34 168/30/35
f 167/28/29 166/31/28 165/29/36
f 164/32/37 163/30/38 162/33/39
f 161/32/37 13/28/29 160/30/40
f 159/30/35 158/34/41 157/35/42
f 156/30/35 155/29/34 154/34/41
f 153/33/43 152/35/42 151/36/44
f 150/33/45 14/30/35 149/35/42
f 148/35/46 147/15/47 146/37/48
f 145/35/46 144/34/41 143/15/49
f 142/36/50 141/37/48 140/38/51
f 139/36/52 16/35/42 138/37/48
f 137/37/53 136/16/14 135/17/54
f 134/37/55 133/15/13 132/16/14
f 131/38/56 130/17/54 129/20/57
f 128/38/56 36/37/48 25/17/54
f 127/39/58 126/20/57 125/40/59
f 124/39/58 123/38/60 122/20/57
f 121/41/61 120/36/44 119/42/62
f 118/41/61 117/33/43 116/36/44
f 115/43/63 114/27/64 113/44/65
f 112/43/66 111/24/67 110/27/64
f 109/40/59 108/21/27 107/45/68
f 106/40/59 40/20/21 105/21/27
f 104/42/62 103/38/51 102/39/58
f 101/42/62 41/36/44 42/38/51
f 100/46/69 99/33/39 98/41/61
f 97/46/70 37/32/33 38/33/39
f 96/45/71 95/24/67 94/43/66
f 93/45/68 33/21/27 34/24/67
f 92/29/72 91/14/12 90/34/41
f 89/29/72 88/12/73 87/14/74
f 86/22/75 85/9/76 84/25/28
f 83/22/77 82/10/4 81/9/76
f 80/16/78 79/8/2 78/18/20
f 29/16/78 30/11/5 77/8/79
f 76/31/31 75/12/9 28/29/36
f 31/31/31 26/9/76 27/12/73
f 74/18/80 73/10/4 24/22/23
f 21/18/80 22/8/79 23/10/4
f 72/34/41 71/13/10 20/15/81
f 17/34/41 18/14/12 19/13/10
f 70/47/82 69/48/71 68/49/83
f 67/47/84 66/50/59 65/48/68
f 64/51/85 63/52/58 62/53/86
f 61/51/87 60/54/62 59/52/58
f 58/55/88 57/56/61 56/57/89
f 55/55/88 54/58/70 53/56/61
f 52/49/83 51/59/63 50/60/90
f 2/49/83 32/48/68 49/59/63
f 48/53/91 47/50/59 12/47/92
f 9/53/86 10/52/58 11/50/59
f 46/57/93 45/54/62 8/51/94
f 5/57/93 6/56/61 7/54/62
f 44/60/90 43/61/69 15/62/95
f 1/60/96 35/59/66 39/61/69
