# Blender 5.0.0
# www.blender.org
mtllib Circle_005_Circle_003_Dupli_57_decorations_0.mtl
o Circle.005|Circle.003|Dupli|57_decorations_0
v -4.465065 1.194621 0.840178
v -4.464358 1.193420 0.839977
v -4.457864 1.196337 0.843283
v -4.458872 1.198050 0.843570
v -4.464751 1.195837 0.837972
v -4.460187 1.198093 0.839959
v -4.459455 1.197250 0.839262
v -4.463967 1.194935 0.837227
v -4.463477 1.193672 0.837610
v -4.458997 1.196069 0.839621
v -4.459159 1.195439 0.840765
v -4.463651 1.192997 0.838835
v -4.459122 1.199585 0.842297
v -4.458425 1.199784 0.840423
v -4.465240 1.195697 0.839286
v -4.457306 1.198498 0.839359
v -4.456200 1.198996 0.840274
v -4.455539 1.199225 0.841229
v -4.455168 1.198268 0.841519
v -4.455631 1.197529 0.840720
v -4.456654 1.197237 0.843468
v -4.455835 1.198077 0.843313
v -4.456371 1.198988 0.843465
v -4.457474 1.198632 0.843701
v -4.456856 1.195733 0.841653
v -4.456503 1.199802 0.842789
v -4.456133 1.199908 0.841793
v -4.457110 1.200042 0.841140
v -4.455833 1.196746 0.842141
v -4.455300 1.197757 0.842447
v -4.457677 1.199880 0.842665
v -4.459820 1.195834 0.841833
v -4.459095 1.195898 0.842518
v -4.459968 1.197382 0.842766
v -4.460481 1.196957 0.842021
v -4.456608 1.196695 0.839907
v -4.460184 1.198710 0.841664
v -4.459580 1.198883 0.840042
v -4.460644 1.197962 0.841187
v -4.458222 1.195377 0.841107
v -4.458612 1.197770 0.839121
v -4.458007 1.196209 0.839595
v -4.460644 1.197962 0.841187
v -4.465065 1.194621 0.840178
v -4.459455 1.197250 0.839262
v -4.464751 1.195837 0.837972
v -4.459159 1.195439 0.840765
v -4.463477 1.193672 0.837610
v -4.460481 1.196957 0.842021
v -4.465065 1.194621 0.840178
v -4.460481 1.196957 0.842021
v -4.464358 1.193420 0.839977
v -4.460187 1.198093 0.839959
v -4.460644 1.197962 0.841187
v -4.465240 1.195697 0.839286
v -4.464751 1.195837 0.837972
v -4.460187 1.198093 0.839959
v -4.465240 1.195697 0.839286
v -4.458997 1.196069 0.839621
v -4.459455 1.197250 0.839262
v -4.463967 1.194935 0.837227
v -4.463477 1.193672 0.837610
v -4.458997 1.196069 0.839621
v -4.463967 1.194935 0.837227
v -4.459820 1.195834 0.841833
v -4.459159 1.195439 0.840765
v -4.463651 1.192997 0.838835
v -4.464358 1.193420 0.839977
v -4.459820 1.195834 0.841833
v -4.463651 1.192997 0.838835
v -4.455168 1.198268 0.841519
v -4.456200 1.198996 0.840274
v -4.456371 1.198988 0.843465
v -4.456654 1.197237 0.843468
v -4.456133 1.199908 0.841793
v -4.457677 1.199880 0.842665
v -4.455835 1.198077 0.843313
v -4.456654 1.197237 0.843468
v -4.455835 1.198077 0.843313
v -4.455833 1.196746 0.842141
v -4.456503 1.199802 0.842789
v -4.456371 1.198988 0.843465
v -4.457474 1.198632 0.843701
v -4.457677 1.199880 0.842665
v -4.456503 1.199802 0.842789
v -4.457474 1.198632 0.843701
v -4.455539 1.199225 0.841229
v -4.456133 1.199908 0.841793
v -4.457110 1.200042 0.841140
v -4.456200 1.198996 0.840274
v -4.455539 1.199225 0.841229
v -4.457110 1.200042 0.841140
v -4.459820 1.195834 0.841833
v -4.460481 1.196957 0.842021
v -4.459968 1.197382 0.842766
v -4.459820 1.195834 0.841833
v -4.460644 1.197962 0.841187
v -4.460187 1.198093 0.839959
v -4.459580 1.198883 0.840042
v -4.460644 1.197962 0.841187
v -4.459455 1.197250 0.839262
v -4.458997 1.196069 0.839621
v -4.458007 1.196209 0.839595
v -4.459455 1.197250 0.839262
v -4.459095 1.195898 0.842518
v -4.459159 1.195439 0.840765
v -4.459820 1.195834 0.841833
v -4.459095 1.195898 0.842518
v -4.459159 1.195439 0.840765
v -4.460184 1.198710 0.841664
v -4.459968 1.197382 0.842766
v -4.460481 1.196957 0.842021
v -4.460644 1.197962 0.841187
v -4.460184 1.198710 0.841664
v -4.460481 1.196957 0.842021
v -4.458612 1.197770 0.839121
v -4.459580 1.198883 0.840042
v -4.460187 1.198093 0.839959
v -4.459455 1.197250 0.839262
v -4.458612 1.197770 0.839121
v -4.460187 1.198093 0.839959
v -4.458222 1.195377 0.841107
v -4.458007 1.196209 0.839595
v -4.458997 1.196069 0.839621
v -4.459159 1.195439 0.840765
v -4.458222 1.195377 0.841107
v -4.458997 1.196069 0.839621
v -4.458007 1.196209 0.839595
v -4.458222 1.195377 0.841107
v -4.456856 1.195733 0.841653
v -4.458007 1.196209 0.839595
v -4.455833 1.196746 0.842141
v -4.455631 1.197529 0.840720
v -4.456608 1.196695 0.839907
v -4.456856 1.195733 0.841653
v -4.455833 1.196746 0.842141
v -4.456608 1.196695 0.839907
v -4.456608 1.196695 0.839907
v -4.458612 1.197770 0.839121
v -4.458007 1.196209 0.839595
v -4.456608 1.196695 0.839907
v -4.458612 1.197770 0.839121
v -4.455631 1.197529 0.840720
v -4.456200 1.198996 0.840274
v -4.457306 1.198498 0.839359
v -4.456608 1.196695 0.839907
v -4.455631 1.197529 0.840720
v -4.457306 1.198498 0.839359
v -4.457306 1.198498 0.839359
v -4.459580 1.198883 0.840042
v -4.458612 1.197770 0.839121
v -4.457306 1.198498 0.839359
v -4.459580 1.198883 0.840042
v -4.456200 1.198996 0.840274
v -4.457110 1.200042 0.841140
v -4.458425 1.199784 0.840423
v -4.457306 1.198498 0.839359
v -4.456200 1.198996 0.840274
v -4.458425 1.199784 0.840423
v -4.458425 1.199784 0.840423
v -4.460184 1.198710 0.841664
v -4.459580 1.198883 0.840042
v -4.458425 1.199784 0.840423
v -4.460184 1.198710 0.841664
v -4.457110 1.200042 0.841140
v -4.457677 1.199880 0.842665
v -4.459122 1.199585 0.842297
v -4.458425 1.199784 0.840423
v -4.457110 1.200042 0.841140
v -4.459122 1.199585 0.842297
v -4.459122 1.199585 0.842297
v -4.459968 1.197382 0.842766
v -4.460184 1.198710 0.841664
v -4.459122 1.199585 0.842297
v -4.459968 1.197382 0.842766
v -4.457677 1.199880 0.842665
v -4.457474 1.198632 0.843701
v -4.458872 1.198050 0.843570
v -4.459122 1.199585 0.842297
v -4.457677 1.199880 0.842665
v -4.458872 1.198050 0.843570
v -4.458872 1.198050 0.843570
v -4.459095 1.195898 0.842518
v -4.459968 1.197382 0.842766
v -4.458872 1.198050 0.843570
v -4.459095 1.195898 0.842518
v -4.457474 1.198632 0.843701
v -4.456654 1.197237 0.843468
v -4.457864 1.196337 0.843283
v -4.458872 1.198050 0.843570
v -4.457474 1.198632 0.843701
v -4.457864 1.196337 0.843283
v -4.457864 1.196337 0.843283
v -4.456856 1.195733 0.841653
v -4.458222 1.195377 0.841107
v -4.459095 1.195898 0.842518
v -4.457864 1.196337 0.843283
v -4.458222 1.195377 0.841107
v -4.456654 1.197237 0.843468
v -4.455833 1.196746 0.842141
v -4.456856 1.195733 0.841653
v -4.457864 1.196337 0.843283
v -4.456654 1.197237 0.843468
v -4.456856 1.195733 0.841653
v -4.455300 1.197757 0.842447
v -4.455168 1.198268 0.841519
v -4.455631 1.197529 0.840720
v -4.455833 1.196746 0.842141
v -4.455300 1.197757 0.842447
v -4.455631 1.197529 0.840720
v -4.455539 1.199225 0.841229
v -4.455168 1.198268 0.841519
v -4.456133 1.199908 0.841793
v -4.455300 1.197757 0.842447
v -4.456133 1.199908 0.841793
v -4.455168 1.198268 0.841519
v -4.456503 1.199802 0.842789
v -4.456133 1.199908 0.841793
v -4.455300 1.197757 0.842447
v -4.455835 1.198077 0.843313
v -4.456503 1.199802 0.842789
v -4.455300 1.197757 0.842447
v -4.456371 1.198988 0.843465
v -4.456503 1.199802 0.842789
v -4.455835 1.198077 0.843313
v -4.463967 1.194935 0.837227
v -4.464751 1.195837 0.837972
v -4.463477 1.193672 0.837610
v -4.463651 1.192997 0.838835
v -4.463477 1.193672 0.837610
v -4.464751 1.195837 0.837972
v -4.465240 1.195697 0.839286
v -4.463651 1.192997 0.838835
v -4.464751 1.195837 0.837972
v -4.464358 1.193420 0.839977
v -4.463651 1.192997 0.838835
v -4.465240 1.195697 0.839286
v -4.465065 1.194621 0.840178
v -4.464358 1.193420 0.839977
v -4.465240 1.195697 0.839286
vn -0.8306 -0.4295 -0.3546
vn 0.6861 -0.0046 0.7275
vn 0.3797 0.7865 0.4871
vn 0.4406 0.4128 0.7972
vn 0.9316 -0.1515 0.3304
vn 0.3797 0.7864 0.4872
vn 0.6862 -0.0046 0.7274
vn 0.9316 -0.1515 0.3305
vn 0.5495 0.8349 0.0308
vn 0.9920 0.0828 -0.0949
vn 0.5495 0.8350 0.0308
vn 0.9920 0.0827 -0.0949
vn 0.8220 0.5218 -0.2283
vn 0.8346 -0.2649 -0.4830
vn 0.7368 -0.6442 0.2055
vn 0.4667 -0.8808 0.0800
vn 0.3394 -0.4064 0.8483
vn 0.0319 -0.6205 0.7836
vn 0.4668 -0.8807 0.0800
vn 0.7367 -0.6442 0.2056
vn 0.1299 -0.9899 -0.0569
vn 0.0318 -0.6205 0.7836
vn -0.2798 -0.7447 0.6059
vn -0.0582 0.2694 0.9613
vn -0.4034 0.1192 0.9072
vn -0.2799 -0.7447 0.6059
vn -0.6898 -0.0479 0.7224
vn -0.1568 0.8743 0.4593
vn -0.5113 0.7814 0.3578
vn -0.0583 0.2694 0.9613
vn -0.1567 0.8743 0.4594
vn -0.6899 -0.0479 0.7223
vn -0.7914 0.5760 0.2048
vn -0.6899 -0.0479 0.7224
vn -0.5113 0.7814 0.3577
vn 0.1180 0.9529 -0.2795
vn -0.2104 0.8674 -0.4509
vn 0.1181 0.9529 -0.2795
vn -0.7914 0.5760 0.2047
vn -0.2105 0.8674 -0.4509
vn -0.5080 0.6570 -0.5570
vn 0.5592 0.4459 -0.6989
vn 0.2725 0.3124 -0.9100
vn -0.5081 0.6569 -0.5571
vn -0.0531 0.1341 -0.9895
vn 0.8346 -0.2649 -0.4831
vn 0.5739 -0.4656 -0.6737
vn 0.5592 0.4458 -0.6989
vn 0.8346 -0.2648 -0.4830
vn 0.2309 -0.5987 -0.7670
vn 0.7367 -0.6442 0.2055
vn 0.4668 -0.8808 0.0800
vn 0.2308 -0.5988 -0.7669
vn 0.1300 -0.9899 -0.0569
vn 0.3071 -0.5776 -0.7563
vn 0.2036 -0.9786 -0.0283
vn -0.4505 0.7100 -0.5412
vn -0.0531 0.1342 -0.9895
vn 0.0159 0.1739 -0.9846
vn -0.6370 -0.0126 0.7708
vn -0.7411 0.6270 0.2400
vn -0.6370 -0.0127 0.7708
vn -0.6898 -0.0478 0.7224
vn 0.2037 -0.9786 -0.0283
vn -0.2165 -0.7273 0.6513
vn 0.0160 0.1740 -0.9846
vn 0.2308 -0.5987 -0.7669
vn 0.3071 -0.5776 -0.7564
vn -0.7411 0.6270 0.2401
vn -0.5081 0.6570 -0.5570
vn -0.4506 0.7100 -0.5412
vn -0.2165 -0.7272 0.6514
vn 0.1181 0.9528 -0.2796
vn 0.8220 0.5218 -0.2282
vn 0.1180 0.9528 -0.2796
vn 0.8220 0.5217 -0.2283
vn 0.4406 0.4127 0.7972
vn -0.1567 0.8743 0.4593
vn 0.4405 0.4128 0.7972
vn 0.3393 -0.4064 0.8483
vn 0.5593 0.4459 -0.6989
vn 0.4516 -0.8892 0.0735
vn 0.0165 -0.6288 0.7774
vn 0.4517 -0.8891 0.0735
vn -0.2165 -0.7272 0.6513
vn 0.2573 0.3046 -0.9171
vn 0.5588 -0.4737 -0.6807
vn 0.0160 0.1739 -0.9846
vn -0.5269 0.7739 0.3514
vn -0.2259 0.8599 -0.4577
vn -0.5268 0.7739 0.3514
vn 0.0165 -0.6287 0.7774
vn -0.6369 -0.0127 0.7708
vn -0.4190 0.1113 0.9011
vn 0.0165 -0.6287 0.7775
vn 0.5588 -0.4738 -0.6806
vn 0.4517 -0.8892 0.0735
vn 0.5589 -0.4738 -0.6806
vn -0.4190 0.1114 0.9011
vt 0.530319 0.611839
vt 0.522446 0.618118
vt 0.524872 0.613083
vt 0.524872 0.623154
vt 0.534683 0.615326
vt 0.530319 0.624397
vt 0.534683 0.620918
vt 0.537079 0.671494
vt 0.541916 0.669548
vt 0.539566 0.672157
vt 0.536179 0.669609
vt 0.539856 0.666756
vt 0.536224 0.667854
vt 0.537567 0.666748
vt 0.534592 0.666855
vt 0.534012 0.669838
vt 0.530777 0.669685
vt 0.535187 0.673050
vt 0.531769 0.674789
vt 0.525803 0.669067
vt 0.526108 0.676537
vt 0.539017 0.675606
vt 0.536011 0.680244
vt 0.529755 0.684982
vt 0.547180 0.674767
vt 0.546982 0.686485
vt 0.537415 0.696274
vt 0.547180 0.658051
vt 0.540527 0.663902
vt 0.539825 0.659698
vt 0.546280 0.665543
vt 0.543762 0.651657
vt 0.537613 0.655174
vt 0.536758 0.664742
vt 0.535126 0.661980
vt 0.532364 0.658463
vt 0.532074 0.665283
vt 0.528198 0.662933
vt 0.523743 0.660286
vt 0.519989 0.668175
vt 0.535217 0.651588
vt 0.529327 0.654999
vt 0.522873 0.688484
vt 0.528320 0.699394
vt 0.519577 0.678001
vt 0.540466 0.648293
vt 0.604446 0.642853
vt 0.626221 0.647896
vt 0.604553 0.648445
vt 0.626144 0.642670
vt 0.604553 0.631676
vt 0.626144 0.637444
vt 0.604446 0.637268
vt 0.626221 0.632225
vt 0.605011 0.620506
vt 0.626404 0.626999
vt 0.604736 0.626091
vt 0.626663 0.621780
vt 0.626404 0.653114
vt 0.604736 0.654030
vt 0.626663 0.658333
vt 0.605011 0.659607
s 0
usemtl decorations
f 240/1/1 239/2/1 238/3/1
f 237/1/1 236/4/1 235/2/1
f 234/5/1 233/4/1 232/1/1
f 231/5/1 230/6/1 229/4/1
f 228/6/1 227/5/1 226/7/1
s 1
f 225/8/2 224/9/3 223/10/4
f 222/11/5 221/9/6 220/8/7
f 219/11/8 218/12/9 217/9/3
f 216/13/10 215/12/11 214/11/5
f 213/12/9 212/13/12 211/14/13
f 210/15/14 209/11/5 208/16/15
f 207/15/14 206/13/10 205/11/5
f 204/17/16 203/18/17 202/19/18
f 201/17/19 200/16/20 199/18/17
f 198/20/21 197/19/22 196/21/23
f 195/20/21 194/17/19 193/19/18
f 192/19/18 191/22/24 190/23/25
f 189/19/18 188/18/17 187/22/24
f 186/21/26 185/23/25 184/24/27
f 183/21/23 3/19/22 182/23/25
f 181/23/25 180/25/28 179/26/29
f 178/23/25 177/22/30 176/25/31
f 175/24/32 174/26/29 173/27/33
f 172/24/34 4/23/25 171/26/29
f 170/28/35 169/29/36 168/30/37
f 167/28/35 166/31/28 165/29/38
f 164/32/39 163/30/40 162/33/41
f 161/32/39 13/28/29 160/30/37
f 159/30/37 158/34/42 157/35/43
f 156/30/37 155/29/36 154/34/42
f 153/33/44 152/35/43 151/36/45
f 150/33/44 14/30/37 149/35/43
f 148/35/43 147/15/46 146/37/47
f 145/35/43 144/34/48 143/15/49
f 142/36/45 141/37/47 140/38/50
f 139/36/45 16/35/43 138/37/47
f 137/37/47 136/16/51 135/17/52
f 134/37/47 133/15/14 132/16/15
f 131/38/53 130/17/52 129/20/54
f 128/38/53 36/37/47 25/17/52
f 127/39/55 126/20/54 125/40/56
f 124/39/55 123/38/53 122/20/54
f 121/41/57 120/36/58 119/42/59
f 118/41/57 117/33/44 116/36/58
f 115/43/60 114/27/33 113/44/61
f 112/43/62 111/24/63 110/27/33
f 109/40/64 108/21/23 107/45/65
f 106/40/56 40/20/21 105/21/23
f 104/42/66 103/38/67 102/39/68
f 101/42/66 41/36/45 42/38/67
f 100/46/69 99/33/70 98/41/71
f 97/46/69 37/32/39 38/33/70
f 96/45/72 95/24/63 94/43/62
f 93/45/72 33/21/23 34/24/63
f 92/29/73 91/14/74 90/34/42
f 89/29/75 88/12/9 87/14/76
f 86/22/24 85/9/3 84/25/31
f 83/22/24 82/10/77 81/9/6
f 80/16/20 79/8/7 78/18/17
f 29/16/20 30/11/5 77/8/7
f 76/31/78 75/12/9 28/29/38
f 31/31/78 26/9/6 27/12/9
f 74/18/17 73/10/79 24/22/24
f 21/18/80 22/8/7 23/10/4
f 72/34/81 71/13/10 20/15/14
f 17/34/81 18/14/74 19/13/10
f 70/47/82 69/48/72 68/49/83
f 67/47/84 66/50/56 65/48/85
f 64/51/86 63/52/68 62/53/87
f 61/51/86 60/54/88 59/52/68
f 58/55/89 57/56/57 56/57/90
f 55/55/91 54/58/69 53/56/71
f 52/49/92 51/59/93 50/60/94
f 2/49/95 32/48/85 49/59/62
f 48/53/96 47/50/56 12/47/97
f 9/53/98 10/52/68 11/50/56
f 46/57/90 45/54/88 8/51/86
f 5/57/90 6/56/57 7/54/59
f 44/60/94 43/61/69 15/62/89
f 1/60/99 35/59/62 39/61/69
