# Blender 5.0.0
# www.blender.org
mtllib Circle_002_Circle_004_Dupli_212_decorations_0.mtl
o Circle.002|Circle.004|Dupli|212_decorations_0
v -4.556164 1.867759 0.727603
v -4.555814 1.867169 0.728833
v -4.548541 1.870104 0.728512
v -4.549041 1.870945 0.726757
v -4.555722 1.865896 0.725937
v -4.550584 1.867686 0.725426
v -4.550154 1.866705 0.726192
v -4.555262 1.864846 0.726756
v -4.555090 1.864834 0.728154
v -4.549994 1.866693 0.727498
v -4.550223 1.867659 0.728363
v -4.555336 1.865867 0.729078
v -4.548983 1.870137 0.724918
v -4.548409 1.868288 0.724381
v -4.556123 1.867192 0.726314
v -4.547754 1.866790 0.725549
v -4.546486 1.867628 0.725589
v -4.545715 1.868502 0.725789
v -4.545585 1.868492 0.726848
v -4.546287 1.867613 0.727212
v -4.547127 1.870324 0.728001
v -4.546133 1.870262 0.727362
v -4.546399 1.870709 0.726430
v -4.547534 1.871009 0.726573
v -4.547859 1.868247 0.728862
v -4.546368 1.870280 0.725454
v -4.546063 1.869297 0.725168
v -4.547020 1.868846 0.724639
v -4.546572 1.868813 0.728285
v -4.545771 1.869276 0.727548
v -4.547486 1.870351 0.725076
v -4.550670 1.868876 0.728133
v -4.549901 1.869443 0.728428
v -4.550333 1.870171 0.726909
v -4.550998 1.869428 0.726983
v -4.547509 1.866772 0.727543
v -4.550283 1.869471 0.725317
v -4.549787 1.867871 0.724852
v -4.550960 1.868898 0.725779
v -4.549311 1.867835 0.728730
v -4.549219 1.866574 0.725863
v -4.549007 1.866559 0.727589
v -4.550960 1.868898 0.725779
v -4.556164 1.867759 0.727603
v -4.550154 1.866705 0.726192
v -4.555722 1.865896 0.725937
v -4.550223 1.867659 0.728363
v -4.555090 1.864834 0.728154
v -4.550998 1.869428 0.726983
v -4.556164 1.867759 0.727603
v -4.550998 1.869428 0.726983
v -4.555814 1.867169 0.728833
v -4.550584 1.867686 0.725426
v -4.550960 1.868898 0.725779
v -4.556123 1.867192 0.726314
v -4.555722 1.865896 0.725937
v -4.550584 1.867686 0.725426
v -4.556123 1.867192 0.726314
v -4.549994 1.866693 0.727498
v -4.550154 1.866705 0.726192
v -4.555262 1.864846 0.726756
v -4.555090 1.864834 0.728154
v -4.549994 1.866693 0.727498
v -4.555262 1.864846 0.726756
v -4.550670 1.868876 0.728133
v -4.550223 1.867659 0.728363
v -4.555336 1.865867 0.729078
v -4.555814 1.867169 0.728833
v -4.550670 1.868876 0.728133
v -4.555336 1.865867 0.729078
v -4.545585 1.868492 0.726848
v -4.546486 1.867628 0.725589
v -4.546399 1.870709 0.726430
v -4.547127 1.870324 0.728001
v -4.546063 1.869297 0.725168
v -4.547486 1.870351 0.725076
v -4.546133 1.870262 0.727362
v -4.547127 1.870324 0.728001
v -4.546133 1.870262 0.727362
v -4.546572 1.868813 0.728285
v -4.546368 1.870280 0.725454
v -4.546399 1.870709 0.726430
v -4.547534 1.871009 0.726573
v -4.547486 1.870351 0.725076
v -4.546368 1.870280 0.725454
v -4.547534 1.871009 0.726573
v -4.545715 1.868502 0.725789
v -4.546063 1.869297 0.725168
v -4.547020 1.868846 0.724639
v -4.546486 1.867628 0.725589
v -4.545715 1.868502 0.725789
v -4.547020 1.868846 0.724639
v -4.550670 1.868876 0.728133
v -4.550998 1.869428 0.726983
v -4.550333 1.870171 0.726909
v -4.550670 1.868876 0.728133
v -4.550960 1.868898 0.725779
v -4.550584 1.867686 0.725426
v -4.549787 1.867871 0.724852
v -4.550960 1.868898 0.725779
v -4.550154 1.866705 0.726192
v -4.549994 1.866693 0.727498
v -4.549007 1.866559 0.727589
v -4.550154 1.866705 0.726192
v -4.549901 1.869443 0.728428
v -4.550223 1.867659 0.728363
v -4.550670 1.868876 0.728133
v -4.549901 1.869443 0.728428
v -4.550223 1.867659 0.728363
v -4.550283 1.869471 0.725317
v -4.550333 1.870171 0.726909
v -4.550998 1.869428 0.726983
v -4.550960 1.868898 0.725779
v -4.550283 1.869471 0.725317
v -4.550998 1.869428 0.726983
v -4.549219 1.866574 0.725863
v -4.549787 1.867871 0.724852
v -4.550584 1.867686 0.725426
v -4.550154 1.866705 0.726192
v -4.549219 1.866574 0.725863
v -4.550584 1.867686 0.725426
v -4.549311 1.867835 0.728730
v -4.549007 1.866559 0.727589
v -4.549994 1.866693 0.727498
v -4.550223 1.867659 0.728363
v -4.549311 1.867835 0.728730
v -4.549994 1.866693 0.727498
v -4.549007 1.866559 0.727589
v -4.549311 1.867835 0.728730
v -4.547859 1.868247 0.728862
v -4.549007 1.866559 0.727589
v -4.546572 1.868813 0.728285
v -4.546287 1.867613 0.727212
v -4.547509 1.866772 0.727543
v -4.547859 1.868247 0.728862
v -4.546572 1.868813 0.728285
v -4.547509 1.866772 0.727543
v -4.547509 1.866772 0.727543
v -4.549219 1.866574 0.725863
v -4.549007 1.866559 0.727589
v -4.547509 1.866772 0.727543
v -4.549219 1.866574 0.725863
v -4.546287 1.867613 0.727212
v -4.546486 1.867628 0.725589
v -4.547754 1.866790 0.725549
v -4.547509 1.866772 0.727543
v -4.546287 1.867613 0.727212
v -4.547754 1.866790 0.725549
v -4.547754 1.866790 0.725549
v -4.549787 1.867871 0.724852
v -4.549219 1.866574 0.725863
v -4.547754 1.866790 0.725549
v -4.549787 1.867871 0.724852
v -4.546486 1.867628 0.725589
v -4.547020 1.868846 0.724639
v -4.548409 1.868288 0.724381
v -4.547754 1.866790 0.725549
v -4.546486 1.867628 0.725589
v -4.548409 1.868288 0.724381
v -4.548409 1.868288 0.724381
v -4.550283 1.869471 0.725317
v -4.549787 1.867871 0.724852
v -4.548409 1.868288 0.724381
v -4.550283 1.869471 0.725317
v -4.547020 1.868846 0.724639
v -4.547486 1.870351 0.725076
v -4.548983 1.870137 0.724918
v -4.548409 1.868288 0.724381
v -4.547020 1.868846 0.724639
v -4.548983 1.870137 0.724918
v -4.548983 1.870137 0.724918
v -4.550333 1.870171 0.726909
v -4.550283 1.869471 0.725317
v -4.548983 1.870137 0.724918
v -4.550333 1.870171 0.726909
v -4.547486 1.870351 0.725076
v -4.547534 1.871009 0.726573
v -4.549041 1.870945 0.726757
v -4.548983 1.870137 0.724918
v -4.547486 1.870351 0.725076
v -4.549041 1.870945 0.726757
v -4.549041 1.870945 0.726757
v -4.549901 1.869443 0.728428
v -4.550333 1.870171 0.726909
v -4.549041 1.870945 0.726757
v -4.549901 1.869443 0.728428
v -4.547534 1.871009 0.726573
v -4.547127 1.870324 0.728001
v -4.548541 1.870104 0.728512
v -4.549041 1.870945 0.726757
v -4.547534 1.871009 0.726573
v -4.548541 1.870104 0.728512
v -4.548541 1.870104 0.728512
v -4.547859 1.868247 0.728862
v -4.549311 1.867835 0.728730
v -4.549901 1.869443 0.728428
v -4.548541 1.870104 0.728512
v -4.549311 1.867835 0.728730
v -4.547127 1.870324 0.728001
v -4.546572 1.868813 0.728285
v -4.547859 1.868247 0.728862
v -4.548541 1.870104 0.728512
v -4.547127 1.870324 0.728001
v -4.547859 1.868247 0.728862
v -4.545771 1.869276 0.727548
v -4.545585 1.868492 0.726848
v -4.546287 1.867613 0.727212
v -4.546572 1.868813 0.728285
v -4.545771 1.869276 0.727548
v -4.546287 1.867613 0.727212
v -4.545715 1.868502 0.725789
v -4.545585 1.868492 0.726848
v -4.546063 1.869297 0.725168
v -4.545771 1.869276 0.727548
v -4.546063 1.869297 0.725168
v -4.545585 1.868492 0.726848
v -4.546368 1.870280 0.725454
v -4.546063 1.869297 0.725168
v -4.545771 1.869276 0.727548
v -4.546133 1.870262 0.727362
v -4.546368 1.870280 0.725454
v -4.545771 1.869276 0.727548
v -4.546399 1.870709 0.726430
v -4.546368 1.870280 0.725454
v -4.546133 1.870262 0.727362
v -4.555262 1.864846 0.726756
v -4.555722 1.865896 0.725937
v -4.555090 1.864834 0.728154
v -4.555336 1.865867 0.729078
v -4.555090 1.864834 0.728154
v -4.555722 1.865896 0.725937
v -4.556123 1.867192 0.726314
v -4.555336 1.865867 0.729078
v -4.555722 1.865896 0.725937
v -4.555814 1.867169 0.728833
v -4.555336 1.865867 0.729078
v -4.556123 1.867192 0.726314
v -4.556164 1.867759 0.727603
v -4.555814 1.867169 0.728833
v -4.556123 1.867192 0.726314
vn -0.9394 -0.3238 0.1124
vn 0.7169 0.5960 0.3616
vn 0.6095 0.6040 -0.5136
vn 0.5952 0.8009 -0.0658
vn 0.8831 0.1436 0.4468
vn 0.6095 0.6040 -0.5135
vn 0.7170 0.5960 0.3616
vn 0.8830 0.1437 0.4468
vn 0.7490 0.1536 -0.6445
vn 0.9684 -0.2155 0.1256
vn 0.9684 -0.2155 0.1257
vn 0.9088 -0.2111 -0.3600
vn 0.6952 -0.6496 0.3078
vn 0.5570 -0.0681 0.8277
vn 0.6951 -0.6496 0.3078
vn 0.8831 0.1437 0.4467
vn 0.2254 -0.2070 0.9520
vn 0.2881 0.6642 0.6898
vn -0.0688 0.5946 0.8011
vn 0.2255 -0.2070 0.9520
vn 0.2882 0.6642 0.6898
vn -0.1380 -0.3157 0.9388
vn -0.4152 0.4394 0.7966
vn -0.0687 0.5946 0.8011
vn 0.0911 0.9958 -0.0020
vn -0.2845 0.9577 0.0437
vn -0.4153 0.4394 0.7965
vn -0.2845 0.9577 0.0438
vn -0.6184 0.7814 0.0831
vn -0.4152 0.4394 0.7965
vn 0.1141 0.6771 -0.7270
vn -0.2593 0.6088 -0.7498
vn 0.0910 0.9958 -0.0021
vn 0.1141 0.6772 -0.7269
vn -0.6185 0.7814 0.0831
vn -0.5946 0.4528 -0.6644
vn -0.2593 0.6087 -0.7498
vn 0.3400 -0.0520 -0.9390
vn -0.0120 -0.1893 -0.9819
vn 0.3400 -0.0519 -0.9390
vn -0.5947 0.4527 -0.6644
vn -0.0120 -0.1893 -0.9818
vn -0.3617 -0.2990 -0.8830
vn -0.0120 -0.1892 -0.9819
vn 0.5986 -0.6424 -0.4785
vn 0.2710 -0.8356 -0.4778
vn -0.3617 -0.2991 -0.8830
vn -0.0950 -0.9080 -0.4082
vn 0.2710 -0.8357 -0.4777
vn 0.6952 -0.6497 0.3078
vn 0.3768 -0.8435 0.3829
vn 0.2710 -0.8356 -0.4777
vn 0.5986 -0.6425 -0.4785
vn 0.6952 -0.6496 0.3077
vn -0.0951 -0.9080 -0.4081
vn 0.3767 -0.8435 0.3829
vn 0.0046 -0.9154 0.4026
vn 0.5570 -0.0682 0.8277
vn 0.0045 -0.9154 0.4026
vn -0.1379 -0.3157 0.9388
vn 0.0843 -0.9112 0.4034
vn -0.0619 -0.2963 0.9531
vn 0.0842 -0.9112 0.4033
vn -0.2912 -0.2792 -0.9150
vn -0.0950 -0.9079 -0.4082
vn -0.0179 -0.9036 -0.4280
vn -0.2913 -0.2792 -0.9150
vn -0.3618 -0.2991 -0.8830
vn -0.5545 0.8287 0.0757
vn -0.5301 0.4917 -0.6908
vn -0.0618 -0.2963 0.9531
vn -0.3462 0.4780 0.8073
vn -0.1380 -0.3158 0.9387
vn -0.0178 -0.9036 -0.4281
vn -0.2913 -0.2793 -0.9150
vn -0.5946 0.4527 -0.6644
vn -0.3461 0.4780 0.8073
vn -0.5546 0.8287 0.0757
vn 0.7490 0.1537 -0.6445
vn 0.9087 -0.2111 -0.3600
vn 0.0911 0.9958 -0.0021
vn 0.5952 0.8009 -0.0657
vn 0.5569 -0.0681 0.8278
vn 0.1142 0.6771 -0.7270
vn 0.0910 0.9958 -0.0020
vn 0.2082 -0.2131 0.9546
vn -0.0862 0.5889 0.8036
vn 0.2083 -0.2130 0.9546
vn 0.2538 -0.8421 -0.4759
vn 0.0843 -0.9112 0.4033
vn 0.3596 -0.8499 0.3851
vn 0.2539 -0.8421 -0.4759
vn -0.0178 -0.9036 -0.4280
vn -0.2768 0.6031 -0.7481
vn -0.0294 -0.1953 -0.9803
vn -0.2767 0.6031 -0.7481
vn -0.5302 0.4917 -0.6908
vn -0.0862 0.5890 0.8036
vn -0.3021 0.9522 0.0459
vn -0.0862 0.5890 0.8035
vn 0.3596 -0.8499 0.3852
vn 0.2083 -0.2131 0.9546
vn -0.0294 -0.1954 -0.9803
vn -0.3021 0.9522 0.0458
vn -0.3020 0.9522 0.0458
vt 0.530319 0.635056
vt 0.522446 0.641335
vt 0.524872 0.636299
vt 0.524872 0.646370
vt 0.534683 0.638535
vt 0.530319 0.647614
vt 0.534683 0.644127
vt 0.508789 0.671494
vt 0.513626 0.669548
vt 0.511276 0.672157
vt 0.507889 0.669609
vt 0.511566 0.666756
vt 0.507935 0.667854
vt 0.509277 0.666748
vt 0.506302 0.666855
vt 0.505722 0.669838
vt 0.502487 0.669685
vt 0.506897 0.673050
vt 0.503479 0.674789
vt 0.497520 0.669067
vt 0.497810 0.676537
vt 0.510727 0.675606
vt 0.507721 0.680244
vt 0.501465 0.684982
vt 0.518890 0.674767
vt 0.518692 0.686485
vt 0.509125 0.696274
vt 0.518890 0.658051
vt 0.512238 0.663902
vt 0.511536 0.659698
vt 0.517990 0.665543
vt 0.515472 0.651657
vt 0.509323 0.655174
vt 0.508469 0.664742
vt 0.506836 0.661980
vt 0.504074 0.658463
vt 0.503784 0.665283
vt 0.499901 0.662933
vt 0.495453 0.660286
vt 0.491707 0.668175
vt 0.506927 0.651588
vt 0.501038 0.654999
vt 0.494583 0.688484
vt 0.500031 0.699394
vt 0.491287 0.678001
vt 0.512177 0.648293
vt 0.627350 0.642853
vt 0.649124 0.647896
vt 0.627441 0.648445
vt 0.649033 0.642670
vt 0.627441 0.631676
vt 0.649033 0.637444
vt 0.627350 0.637268
vt 0.649124 0.632225
vt 0.627914 0.620506
vt 0.649292 0.626999
vt 0.627625 0.626091
vt 0.649551 0.621780
vt 0.649292 0.653114
vt 0.627625 0.654030
vt 0.649551 0.658333
vt 0.627914 0.659607
s 0
usemtl decorations
f 240/1/1 239/2/1 238/3/1
f 237/1/1 236/4/1 235/2/1
f 234/5/1 233/4/1 232/1/1
f 231/5/1 230/6/1 229/4/1
f 228/6/1 227/5/1 226/7/1
s 1
f 225/8/2 224/9/3 223/10/4
f 222/11/5 221/9/6 220/8/7
f 219/11/8 218/12/9 217/9/3
f 216/13/10 215/12/9 214/11/8
f 213/12/9 212/13/11 211/14/12
f 210/15/13 209/11/8 208/16/14
f 207/15/15 206/13/10 205/11/16
f 204/17/17 203/18/18 202/19/19
f 201/17/20 200/16/14 199/18/21
f 198/20/22 197/19/19 196/21/23
f 195/20/22 194/17/20 193/19/24
f 192/19/19 191/22/25 190/23/26
f 189/19/19 188/18/18 187/22/25
f 186/21/27 185/23/28 184/24/29
f 183/21/30 3/19/19 182/23/28
f 181/23/26 180/25/31 179/26/32
f 178/23/26 177/22/33 176/25/34
f 175/24/35 174/26/32 173/27/36
f 172/24/35 4/23/26 171/26/32
f 170/28/37 169/29/38 168/30/39
f 167/28/37 166/31/31 165/29/40
f 164/32/41 163/30/42 162/33/43
f 161/32/41 13/28/32 160/30/44
f 159/30/39 158/34/45 157/35/46
f 156/30/39 155/29/38 154/34/45
f 153/33/47 152/35/46 151/36/48
f 150/33/47 14/30/39 149/35/46
f 148/35/49 147/15/50 146/37/51
f 145/35/52 144/34/53 143/15/54
f 142/36/55 141/37/56 140/38/57
f 139/36/55 16/35/46 138/37/56
f 137/37/56 136/16/58 135/17/20
f 134/37/51 133/15/13 132/16/14
f 131/38/59 130/17/20 129/20/60
f 128/38/59 36/37/51 25/17/20
f 127/39/61 126/20/60 125/40/62
f 124/39/63 123/38/59 122/20/60
f 121/41/64 120/36/65 119/42/66
f 118/41/67 117/33/68 116/36/65
f 115/43/69 114/27/36 113/44/70
f 112/43/69 111/24/35 110/27/36
f 109/40/71 108/21/23 107/45/72
f 106/40/71 40/20/73 105/21/23
f 104/42/74 103/38/59 102/39/63
f 101/42/74 41/36/48 42/38/59
f 100/46/70 99/33/43 98/41/75
f 97/46/70 37/32/76 38/33/43
f 96/45/77 95/24/29 94/43/78
f 93/45/77 33/21/23 34/24/29
f 92/29/38 91/14/12 90/34/45
f 89/29/38 88/12/79 87/14/80
f 86/22/81 85/9/6 84/25/34
f 83/22/33 82/10/82 81/9/6
f 80/16/14 79/8/7 78/18/21
f 29/16/83 30/11/5 77/8/7
f 76/31/84 75/12/9 28/29/40
f 31/31/31 26/9/6 27/12/79
f 74/18/18 73/10/4 24/22/85
f 21/18/18 22/8/7 23/10/82
f 72/34/45 71/13/10 20/15/13
f 17/34/45 18/14/12 19/13/10
f 70/47/86 69/48/77 68/49/87
f 67/47/88 66/50/62 65/48/77
f 64/51/89 63/52/90 62/53/91
f 61/51/92 60/54/93 59/52/63
f 58/55/94 57/56/75 56/57/95
f 55/55/96 54/58/97 53/56/75
f 52/49/98 51/59/69 50/60/99
f 2/49/100 32/48/72 49/59/69
f 48/53/101 47/50/71 12/47/102
f 9/53/101 10/52/90 11/50/62
f 46/57/103 45/54/93 8/51/89
f 5/57/95 6/56/75 7/54/66
f 44/60/104 43/61/70 15/62/94
f 1/60/105 35/59/78 39/61/70
