# Blender 5.0.0
# www.blender.org
mtllib Circle_002_Circle_001_Dupli_170_decorations_0.mtl
o Circle.002|Circle.001|Dupli|170_decorations_0
v -4.613292 0.903186 0.334206
v -4.612491 0.902031 0.334288
v -4.614264 0.899911 0.326942
v -4.615407 0.901559 0.326824
v -4.615499 0.902415 0.335194
v -4.617092 0.900853 0.330206
v -4.616852 0.899595 0.330511
v -4.615242 0.901069 0.335521
v -4.614055 0.900333 0.335343
v -4.615742 0.898907 0.330344
v -4.614597 0.899307 0.329832
v -4.612830 0.900761 0.334794
v -4.617316 0.901803 0.327399
v -4.618555 0.900458 0.328234
v -4.614631 0.903357 0.334609
v -4.618189 0.898538 0.328700
v -4.618311 0.898346 0.327197
v -4.618117 0.898398 0.326031
v -4.617218 0.897840 0.325897
v -4.616932 0.897492 0.326991
v -4.615117 0.899463 0.325767
v -4.616033 0.899126 0.325098
v -4.616640 0.900002 0.325035
v -4.616047 0.900804 0.325671
v -4.614748 0.898099 0.327664
v -4.617654 0.900131 0.325341
v -4.618311 0.899417 0.325784
v -4.618608 0.899909 0.326818
v -4.615511 0.897989 0.326354
v -4.616290 0.898164 0.325481
v -4.617601 0.901003 0.326139
v -4.614280 0.900494 0.329359
v -4.614096 0.900296 0.328396
v -4.615085 0.901722 0.328295
v -4.615029 0.901574 0.329282
v -4.616495 0.897488 0.328446
v -4.616738 0.901933 0.328793
v -4.617810 0.900770 0.329515
v -4.616281 0.901734 0.329659
v -4.614514 0.898728 0.329021
v -4.617493 0.899108 0.329918
v -4.616026 0.898199 0.329699
v -4.616281 0.901734 0.329659
v -4.613292 0.903186 0.334206
v -4.616852 0.899595 0.330511
v -4.615499 0.902415 0.335194
v -4.614597 0.899307 0.329832
v -4.614055 0.900333 0.335343
v -4.615029 0.901574 0.329282
v -4.613292 0.903186 0.334206
v -4.615029 0.901574 0.329282
v -4.612491 0.902031 0.334288
v -4.617092 0.900853 0.330206
v -4.616281 0.901734 0.329659
v -4.614631 0.903357 0.334609
v -4.615499 0.902415 0.335194
v -4.617092 0.900853 0.330206
v -4.614631 0.903357 0.334609
v -4.615742 0.898907 0.330344
v -4.616852 0.899595 0.330511
v -4.615242 0.901069 0.335521
v -4.614055 0.900333 0.335343
v -4.615742 0.898907 0.330344
v -4.615242 0.901069 0.335521
v -4.614280 0.900494 0.329359
v -4.614597 0.899307 0.329832
v -4.612830 0.900761 0.334794
v -4.612491 0.902031 0.334288
v -4.614280 0.900494 0.329359
v -4.612830 0.900761 0.334794
v -4.617218 0.897840 0.325897
v -4.618311 0.898346 0.327197
v -4.616640 0.900002 0.325035
v -4.615117 0.899463 0.325767
v -4.618311 0.899417 0.325784
v -4.617601 0.901003 0.326139
v -4.616033 0.899126 0.325098
v -4.615117 0.899463 0.325767
v -4.616033 0.899126 0.325098
v -4.615511 0.897989 0.326354
v -4.617654 0.900131 0.325341
v -4.616640 0.900002 0.325035
v -4.616047 0.900804 0.325671
v -4.617601 0.901003 0.326139
v -4.617654 0.900131 0.325341
v -4.616047 0.900804 0.325671
v -4.618117 0.898398 0.326031
v -4.618311 0.899417 0.325784
v -4.618608 0.899909 0.326818
v -4.618311 0.898346 0.327197
v -4.618117 0.898398 0.326031
v -4.618608 0.899909 0.326818
v -4.614280 0.900494 0.329359
v -4.615029 0.901574 0.329282
v -4.615085 0.901722 0.328295
v -4.614280 0.900494 0.329359
v -4.616281 0.901734 0.329659
v -4.617092 0.900853 0.330206
v -4.617810 0.900770 0.329515
v -4.616281 0.901734 0.329659
v -4.616852 0.899595 0.330511
v -4.615742 0.898907 0.330344
v -4.616026 0.898199 0.329699
v -4.616852 0.899595 0.330511
v -4.614096 0.900296 0.328396
v -4.614597 0.899307 0.329832
v -4.614280 0.900494 0.329359
v -4.614096 0.900296 0.328396
v -4.614597 0.899307 0.329832
v -4.616738 0.901933 0.328793
v -4.615085 0.901722 0.328295
v -4.615029 0.901574 0.329282
v -4.616281 0.901734 0.329659
v -4.616738 0.901933 0.328793
v -4.615029 0.901574 0.329282
v -4.617493 0.899108 0.329918
v -4.617810 0.900770 0.329515
v -4.617092 0.900853 0.330206
v -4.616852 0.899595 0.330511
v -4.617493 0.899108 0.329918
v -4.617092 0.900853 0.330206
v -4.614514 0.898728 0.329021
v -4.616026 0.898199 0.329699
v -4.615742 0.898907 0.330344
v -4.614597 0.899307 0.329832
v -4.614514 0.898728 0.329021
v -4.615742 0.898907 0.330344
v -4.616026 0.898199 0.329699
v -4.614514 0.898728 0.329021
v -4.614748 0.898099 0.327664
v -4.616026 0.898199 0.329699
v -4.615511 0.897989 0.326354
v -4.616932 0.897492 0.326991
v -4.616495 0.897488 0.328446
v -4.614748 0.898099 0.327664
v -4.615511 0.897989 0.326354
v -4.616495 0.897488 0.328446
v -4.616495 0.897488 0.328446
v -4.617493 0.899108 0.329918
v -4.616026 0.898199 0.329699
v -4.616495 0.897488 0.328446
v -4.617493 0.899108 0.329918
v -4.616932 0.897492 0.326991
v -4.618311 0.898346 0.327197
v -4.618189 0.898538 0.328700
v -4.616495 0.897488 0.328446
v -4.616932 0.897492 0.326991
v -4.618189 0.898538 0.328700
v -4.618189 0.898538 0.328700
v -4.617810 0.900770 0.329515
v -4.617493 0.899108 0.329918
v -4.618189 0.898538 0.328700
v -4.617810 0.900770 0.329515
v -4.618311 0.898346 0.327197
v -4.618608 0.899909 0.326818
v -4.618555 0.900458 0.328234
v -4.618189 0.898538 0.328700
v -4.618311 0.898346 0.327197
v -4.618555 0.900458 0.328234
v -4.618555 0.900458 0.328234
v -4.616738 0.901933 0.328793
v -4.617810 0.900770 0.329515
v -4.618555 0.900458 0.328234
v -4.616738 0.901933 0.328793
v -4.618608 0.899909 0.326818
v -4.617601 0.901003 0.326139
v -4.617316 0.901803 0.327399
v -4.618555 0.900458 0.328234
v -4.618608 0.899909 0.326818
v -4.617316 0.901803 0.327399
v -4.617316 0.901803 0.327399
v -4.615085 0.901722 0.328295
v -4.616738 0.901933 0.328793
v -4.617316 0.901803 0.327399
v -4.615085 0.901722 0.328295
v -4.617601 0.901003 0.326139
v -4.616047 0.900804 0.325671
v -4.615407 0.901559 0.326824
v -4.617316 0.901803 0.327399
v -4.617601 0.901003 0.326139
v -4.615407 0.901559 0.326824
v -4.615407 0.901559 0.326824
v -4.614096 0.900296 0.328396
v -4.615085 0.901722 0.328295
v -4.615407 0.901559 0.326824
v -4.614096 0.900296 0.328396
v -4.616047 0.900804 0.325671
v -4.615117 0.899463 0.325767
v -4.614264 0.899911 0.326942
v -4.615407 0.901559 0.326824
v -4.616047 0.900804 0.325671
v -4.614264 0.899911 0.326942
v -4.614264 0.899911 0.326942
v -4.614748 0.898099 0.327664
v -4.614514 0.898728 0.329021
v -4.614096 0.900296 0.328396
v -4.614264 0.899911 0.326942
v -4.614514 0.898728 0.329021
v -4.615117 0.899463 0.325767
v -4.615511 0.897989 0.326354
v -4.614748 0.898099 0.327664
v -4.614264 0.899911 0.326942
v -4.615117 0.899463 0.325767
v -4.614748 0.898099 0.327664
v -4.616290 0.898164 0.325481
v -4.617218 0.897840 0.325897
v -4.616932 0.897492 0.326991
v -4.615511 0.897989 0.326354
v -4.616290 0.898164 0.325481
v -4.616932 0.897492 0.326991
v -4.618117 0.898398 0.326031
v -4.617218 0.897840 0.325897
v -4.618311 0.899417 0.325784
v -4.616290 0.898164 0.325481
v -4.618311 0.899417 0.325784
v -4.617218 0.897840 0.325897
v -4.617654 0.900131 0.325341
v -4.618311 0.899417 0.325784
v -4.616290 0.898164 0.325481
v -4.616033 0.899126 0.325098
v -4.617654 0.900131 0.325341
v -4.616290 0.898164 0.325481
v -4.616640 0.900002 0.325035
v -4.617654 0.900131 0.325341
v -4.616033 0.899126 0.325098
v -4.615242 0.901069 0.335521
v -4.615499 0.902415 0.335194
v -4.614055 0.900333 0.335343
v -4.612830 0.900761 0.334794
v -4.614055 0.900333 0.335343
v -4.615499 0.902415 0.335194
v -4.614631 0.903357 0.334609
v -4.612830 0.900761 0.334794
v -4.615499 0.902415 0.335194
v -4.612491 0.902031 0.334288
v -4.612830 0.900761 0.334794
v -4.614631 0.903357 0.334609
v -4.613292 0.903186 0.334206
v -4.612491 0.902031 0.334288
v -4.614631 0.903357 0.334609
vn 0.3094 0.2795 0.9089
vn 0.2708 -0.1779 -0.9461
vn -0.4728 0.2827 -0.8346
vn -0.0076 0.2234 -0.9747
vn 0.1529 -0.6192 -0.7702
vn -0.4727 0.2827 -0.8346
vn 0.2708 -0.1780 -0.9460
vn 0.1529 -0.6191 -0.7703
vn -0.7742 -0.0447 -0.6313
vn -0.2725 -0.7679 -0.5797
vn -0.7743 -0.0447 -0.6313
vn -0.6851 -0.5123 -0.5179
vn -0.1538 -0.9836 -0.0942
vn 0.5349 -0.7428 -0.4028
vn 0.7121 -0.6987 -0.0691
vn 0.7258 -0.0285 -0.6873
vn 0.9210 0.0831 -0.3807
vn 0.7120 -0.6987 -0.0691
vn 0.5349 -0.7427 -0.4027
vn 0.7862 -0.5540 0.2739
vn 0.9210 0.0831 -0.3806
vn 0.9830 0.1825 -0.0196
vn 0.2750 0.6213 -0.7337
vn 0.4276 0.7944 -0.4314
vn 0.9830 0.1826 -0.0196
vn 0.4276 0.7944 -0.4315
vn 0.5182 0.8526 -0.0674
vn -0.4779 0.7174 -0.5069
vn -0.3966 0.8995 -0.1832
vn -0.4779 0.7174 -0.5070
vn 0.5182 0.8526 -0.0673
vn -0.2582 0.9516 0.1664
vn -0.3967 0.8995 -0.1831
vn -0.9661 0.1873 -0.1778
vn -0.9309 0.3194 0.1771
vn -0.3966 0.8995 -0.1831
vn -0.2583 0.9516 0.1665
vn -0.7616 0.4051 0.5058
vn -0.9309 0.3194 0.1770
vn -0.9309 0.3193 0.1771
vn -0.8219 -0.5697 0.0058
vn -0.7731 -0.5093 0.3781
vn -0.7616 0.4051 0.5059
vn -0.7731 -0.5093 0.3782
vn -0.6129 -0.3755 0.6952
vn -0.7730 -0.5093 0.3782
vn -0.0419 -0.9624 0.2686
vn -0.8218 -0.5697 0.0059
vn -0.1539 -0.9836 -0.0943
vn -0.6128 -0.3756 0.6953
vn -0.0418 -0.9624 0.2686
vn 0.0759 -0.8024 0.5920
vn -0.0419 -0.9624 0.2685
vn 0.0760 -0.8023 0.5920
vn 0.0517 -0.8464 0.5300
vn 0.7800 -0.5917 0.2038
vn -0.8072 0.3917 0.4416
vn -0.6546 -0.4088 0.6359
vn -0.8072 0.3917 0.4417
vn 0.5051 0.8506 -0.1462
vn -0.2910 0.9521 0.0937
vn 0.5051 0.8506 -0.1461
vn 0.7799 -0.5917 0.2038
vn 0.9818 0.1635 -0.0971
vn -0.6547 -0.4088 0.6358
vn -0.6547 -0.4088 0.6359
vn 0.0759 -0.8023 0.5920
vn -0.2910 0.9521 0.0936
vn 0.9817 0.1635 -0.0971
vn -0.6851 -0.5122 -0.5179
vn -0.9661 0.1873 -0.1777
vn -0.6851 -0.5123 -0.5178
vn 0.5350 -0.7427 -0.4027
vn -0.4779 0.7173 -0.5070
vn -0.4780 0.7173 -0.5069
vn 0.2707 -0.1780 -0.9461
vn -0.8218 -0.5697 0.0058
vn 0.7182 -0.6939 -0.0524
vn 0.9272 0.0883 -0.3640
vn -0.7677 -0.5044 0.3952
vn -0.0362 -0.9577 0.2855
vn -0.7677 -0.5045 0.3951
vn -0.3912 0.9051 -0.1664
vn -0.8072 0.3916 0.4417
vn -0.9257 0.3247 0.1940
vn -0.3912 0.9051 -0.1665
vn 0.9272 0.0884 -0.3640
vn 0.4336 0.8000 -0.4148
vn 0.9272 0.0883 -0.3641
vn 0.5052 0.8506 -0.1462
vn -0.0361 -0.9577 0.2855
vn 0.7181 -0.6939 -0.0524
vn -0.7677 -0.5044 0.3951
vn 0.4335 0.8000 -0.4148
vn -0.3911 0.9052 -0.1665
vn 0.4335 0.8000 -0.4149
vt 0.543243 0.635056
vt 0.535370 0.641335
vt 0.537796 0.636299
vt 0.537796 0.646370
vt 0.547607 0.638535
vt 0.543243 0.647614
vt 0.547607 0.644127
vt 0.593674 0.671494
vt 0.598511 0.669548
vt 0.596146 0.672157
vt 0.592773 0.669609
vt 0.596436 0.666756
vt 0.592804 0.667854
vt 0.594147 0.666748
vt 0.591187 0.666855
vt 0.590591 0.669838
vt 0.587372 0.669685
vt 0.591782 0.673050
vt 0.588348 0.674789
vt 0.582382 0.669067
vt 0.582687 0.676537
vt 0.595596 0.675606
vt 0.592606 0.680244
vt 0.586334 0.684982
vt 0.603775 0.674767
vt 0.603561 0.686485
vt 0.594009 0.696274
vt 0.603775 0.658051
vt 0.597107 0.663902
vt 0.596405 0.659698
vt 0.602859 0.665543
vt 0.600342 0.651657
vt 0.594193 0.655174
vt 0.593353 0.664742
vt 0.591705 0.661980
vt 0.588959 0.658463
vt 0.588654 0.665283
vt 0.584778 0.662933
vt 0.580322 0.660286
vt 0.576584 0.668175
vt 0.591812 0.651588
vt 0.585907 0.654999
vt 0.579453 0.688484
vt 0.584915 0.699394
vt 0.576157 0.678001
vt 0.597061 0.648293
vt 0.627350 0.682632
vt 0.649124 0.687675
vt 0.627441 0.688225
vt 0.649033 0.682457
vt 0.627441 0.671455
vt 0.649033 0.677231
vt 0.627350 0.677048
vt 0.649124 0.672005
vt 0.627914 0.660294
vt 0.649292 0.666786
vt 0.627625 0.665871
vt 0.649551 0.661568
vt 0.649292 0.692902
vt 0.627625 0.693810
vt 0.649551 0.698120
vt 0.627914 0.699394
s 0
usemtl decorations
f 240/1/1 239/2/1 238/3/1
f 237/1/1 236/4/1 235/2/1
f 234/5/1 233/4/1 232/1/1
f 231/5/1 230/6/1 229/4/1
f 228/6/1 227/5/1 226/7/1
s 1
f 225/8/2 224/9/3 223/10/4
f 222/11/5 221/9/6 220/8/7
f 219/11/8 218/12/9 217/9/3
f 216/13/10 215/12/9 214/11/8
f 213/12/11 212/13/10 211/14/12
f 210/15/13 209/11/8 208/16/14
f 207/15/13 206/13/10 205/11/8
f 204/17/15 203/18/16 202/19/17
f 201/17/18 200/16/19 199/18/16
f 198/20/20 197/19/21 196/21/22
f 195/20/20 194/17/18 193/19/17
f 192/19/17 191/22/23 190/23/24
f 189/19/17 188/18/16 187/22/23
f 186/21/25 185/23/26 184/24/27
f 183/21/25 3/19/17 182/23/26
f 181/23/24 180/25/28 179/26/29
f 178/23/24 177/22/23 176/25/30
f 175/24/31 174/26/29 173/27/32
f 172/24/31 4/23/24 171/26/29
f 170/28/33 169/29/34 168/30/35
f 167/28/36 166/31/28 165/29/34
f 164/32/37 163/30/35 162/33/38
f 161/32/37 13/28/29 160/30/39
f 159/30/40 158/34/41 157/35/42
f 156/30/40 155/29/34 154/34/41
f 153/33/43 152/35/44 151/36/45
f 150/33/43 14/30/40 149/35/44
f 148/35/46 147/15/13 146/37/47
f 145/35/46 144/34/48 143/15/49
f 142/36/50 141/37/51 140/38/52
f 139/36/50 16/35/46 138/37/51
f 137/37/51 136/16/19 135/17/15
f 134/37/53 133/15/13 132/16/14
f 131/38/54 130/17/15 129/20/20
f 128/38/54 36/37/53 25/17/15
f 127/39/55 126/20/20 125/40/56
f 124/39/55 123/38/54 122/20/20
f 121/41/57 120/36/45 119/42/58
f 118/41/59 117/33/43 116/36/45
f 115/43/60 114/27/32 113/44/61
f 112/43/62 111/24/27 110/27/32
f 109/40/63 108/21/22 107/45/64
f 106/40/63 40/20/20 105/21/22
f 104/42/65 103/38/52 102/39/55
f 101/42/66 41/36/45 42/38/67
f 100/46/68 99/33/38 98/41/59
f 97/46/68 37/32/37 38/33/38
f 96/45/69 95/24/27 94/43/62
f 93/45/64 33/21/25 34/24/27
f 92/29/34 91/14/70 90/34/41
f 89/29/71 88/12/9 87/14/72
f 86/22/23 85/9/6 84/25/30
f 83/22/23 82/10/4 81/9/6
f 80/16/73 79/8/2 78/18/16
f 29/16/73 30/11/5 77/8/2
f 76/31/74 75/12/9 28/29/34
f 31/31/75 26/9/6 27/12/9
f 74/18/16 73/10/4 24/22/23
f 21/18/16 22/8/76 23/10/4
f 72/34/77 71/13/10 20/15/13
f 17/34/48 18/14/12 19/13/10
f 70/47/78 69/48/64 68/49/79
f 67/47/78 66/50/63 65/48/64
f 64/51/80 63/52/55 62/53/81
f 61/51/82 60/54/66 59/52/55
f 58/55/83 57/56/84 56/57/85
f 55/55/86 54/58/61 53/56/59
f 52/49/87 51/59/60 50/60/88
f 2/49/89 32/48/64 49/59/90
f 48/53/91 47/50/56 12/47/92
f 9/53/81 10/52/55 11/50/56
f 46/57/85 45/54/66 8/51/93
f 5/57/85 6/56/84 7/54/58
f 44/60/94 43/61/68 15/62/95
f 1/60/96 35/59/62 39/61/68
