# Blender 5.0.0
# www.blender.org
mtllib Circle_002_Circle_003_Dupli_285_decorations_0.mtl
o Circle.002|Circle.003|Dupli|285_decorations_0
v -4.583042 1.832902 0.538177
v -4.581946 1.832141 0.538628
v -4.586396 1.828222 0.543771
v -4.587960 1.829308 0.543128
v -4.582885 1.835007 0.539585
v -4.586004 1.832607 0.543376
v -4.584943 1.832382 0.544122
v -4.581749 1.834766 0.540383
v -4.580910 1.833636 0.540397
v -4.584157 1.831325 0.544135
v -4.584239 1.830233 0.543405
v -4.580997 1.832467 0.539616
v -4.588555 1.831128 0.543736
v -4.587735 1.832312 0.545137
v -4.583460 1.834177 0.538603
v -4.586115 1.831968 0.546276
v -4.587064 1.831039 0.547014
v -4.587793 1.830146 0.547281
v -4.587157 1.829290 0.547291
v -4.586089 1.829726 0.547030
v -4.587293 1.827990 0.544976
v -4.587943 1.828157 0.545951
v -4.588773 1.828733 0.545609
v -4.588565 1.828874 0.544453
v -4.585042 1.828688 0.545181
v -4.589089 1.829700 0.545932
v -4.588654 1.830329 0.546676
v -4.588382 1.831318 0.546087
v -4.586191 1.828370 0.546123
v -4.587224 1.828404 0.546699
v -4.589050 1.830355 0.544948
v -4.585126 1.829927 0.542481
v -4.585574 1.829125 0.542876
v -4.586928 1.830065 0.542319
v -4.586151 1.830639 0.542060
v -4.584917 1.830355 0.546295
v -4.587443 1.831640 0.542845
v -4.586733 1.832665 0.544058
v -4.586542 1.831831 0.542458
v -4.584402 1.829528 0.544096
v -4.585331 1.832367 0.545043
v -4.584294 1.830971 0.545060
v -4.586542 1.831831 0.542458
v -4.583042 1.832902 0.538177
v -4.584943 1.832382 0.544122
v -4.582885 1.835007 0.539585
v -4.584239 1.830233 0.543405
v -4.580910 1.833636 0.540397
v -4.586151 1.830639 0.542060
v -4.583042 1.832902 0.538177
v -4.586151 1.830639 0.542060
v -4.581946 1.832141 0.538628
v -4.586004 1.832607 0.543376
v -4.586542 1.831831 0.542458
v -4.583460 1.834177 0.538603
v -4.582885 1.835007 0.539585
v -4.586004 1.832607 0.543376
v -4.583460 1.834177 0.538603
v -4.584157 1.831325 0.544135
v -4.584943 1.832382 0.544122
v -4.581749 1.834766 0.540383
v -4.580910 1.833636 0.540397
v -4.584157 1.831325 0.544135
v -4.581749 1.834766 0.540383
v -4.585126 1.829927 0.542481
v -4.584239 1.830233 0.543405
v -4.580997 1.832467 0.539616
v -4.581946 1.832141 0.538628
v -4.585126 1.829927 0.542481
v -4.580997 1.832467 0.539616
v -4.587157 1.829290 0.547291
v -4.587064 1.831039 0.547014
v -4.588773 1.828733 0.545609
v -4.587293 1.827990 0.544976
v -4.588654 1.830329 0.546676
v -4.589050 1.830355 0.544948
v -4.587943 1.828157 0.545951
v -4.587293 1.827990 0.544976
v -4.587943 1.828157 0.545951
v -4.586191 1.828370 0.546123
v -4.589089 1.829700 0.545932
v -4.588773 1.828733 0.545609
v -4.588565 1.828874 0.544453
v -4.589050 1.830355 0.544948
v -4.589089 1.829700 0.545932
v -4.588565 1.828874 0.544453
v -4.587793 1.830146 0.547281
v -4.588654 1.830329 0.546676
v -4.588382 1.831318 0.546087
v -4.587064 1.831039 0.547014
v -4.587793 1.830146 0.547281
v -4.588382 1.831318 0.546087
v -4.585126 1.829927 0.542481
v -4.586151 1.830639 0.542060
v -4.586928 1.830065 0.542319
v -4.585126 1.829927 0.542481
v -4.586542 1.831831 0.542458
v -4.586004 1.832607 0.543376
v -4.586733 1.832665 0.544058
v -4.586542 1.831831 0.542458
v -4.584943 1.832382 0.544122
v -4.584157 1.831325 0.544135
v -4.584294 1.830971 0.545060
v -4.584943 1.832382 0.544122
v -4.585574 1.829125 0.542876
v -4.584239 1.830233 0.543405
v -4.585126 1.829927 0.542481
v -4.585574 1.829125 0.542876
v -4.584239 1.830233 0.543405
v -4.587443 1.831640 0.542845
v -4.586928 1.830065 0.542319
v -4.586151 1.830639 0.542060
v -4.586542 1.831831 0.542458
v -4.587443 1.831640 0.542845
v -4.586151 1.830639 0.542060
v -4.585331 1.832367 0.545043
v -4.586733 1.832665 0.544058
v -4.586004 1.832607 0.543376
v -4.584943 1.832382 0.544122
v -4.585331 1.832367 0.545043
v -4.586004 1.832607 0.543376
v -4.584402 1.829528 0.544096
v -4.584294 1.830971 0.545060
v -4.584157 1.831325 0.544135
v -4.584239 1.830233 0.543405
v -4.584402 1.829528 0.544096
v -4.584157 1.831325 0.544135
v -4.584294 1.830971 0.545060
v -4.584402 1.829528 0.544096
v -4.585042 1.828688 0.545181
v -4.584294 1.830971 0.545060
v -4.586191 1.828370 0.546123
v -4.586089 1.829726 0.547030
v -4.584917 1.830355 0.546295
v -4.585042 1.828688 0.545181
v -4.586191 1.828370 0.546123
v -4.584917 1.830355 0.546295
v -4.584917 1.830355 0.546295
v -4.585331 1.832367 0.545043
v -4.584294 1.830971 0.545060
v -4.584917 1.830355 0.546295
v -4.585331 1.832367 0.545043
v -4.586089 1.829726 0.547030
v -4.587064 1.831039 0.547014
v -4.586115 1.831968 0.546276
v -4.584917 1.830355 0.546295
v -4.586089 1.829726 0.547030
v -4.586115 1.831968 0.546276
v -4.586115 1.831968 0.546276
v -4.586733 1.832665 0.544058
v -4.585331 1.832367 0.545043
v -4.586115 1.831968 0.546276
v -4.586733 1.832665 0.544058
v -4.587064 1.831039 0.547014
v -4.588382 1.831318 0.546087
v -4.587735 1.832312 0.545137
v -4.586115 1.831968 0.546276
v -4.587064 1.831039 0.547014
v -4.587735 1.832312 0.545137
v -4.587735 1.832312 0.545137
v -4.587443 1.831640 0.542845
v -4.586733 1.832665 0.544058
v -4.587735 1.832312 0.545137
v -4.587443 1.831640 0.542845
v -4.588382 1.831318 0.546087
v -4.589050 1.830355 0.544948
v -4.588555 1.831128 0.543736
v -4.587735 1.832312 0.545137
v -4.588382 1.831318 0.546087
v -4.588555 1.831128 0.543736
v -4.588555 1.831128 0.543736
v -4.586928 1.830065 0.542319
v -4.587443 1.831640 0.542845
v -4.588555 1.831128 0.543736
v -4.586928 1.830065 0.542319
v -4.589050 1.830355 0.544948
v -4.588565 1.828874 0.544453
v -4.587960 1.829308 0.543128
v -4.588555 1.831128 0.543736
v -4.589050 1.830355 0.544948
v -4.587960 1.829308 0.543128
v -4.587960 1.829308 0.543128
v -4.585574 1.829125 0.542876
v -4.586928 1.830065 0.542319
v -4.587960 1.829308 0.543128
v -4.585574 1.829125 0.542876
v -4.588565 1.828874 0.544453
v -4.587293 1.827990 0.544976
v -4.586396 1.828222 0.543771
v -4.587960 1.829308 0.543128
v -4.588565 1.828874 0.544453
v -4.586396 1.828222 0.543771
v -4.586396 1.828222 0.543771
v -4.585042 1.828688 0.545181
v -4.584402 1.829528 0.544096
v -4.585574 1.829125 0.542876
v -4.586396 1.828222 0.543771
v -4.584402 1.829528 0.544096
v -4.587293 1.827990 0.544976
v -4.586191 1.828370 0.546123
v -4.585042 1.828688 0.545181
v -4.586396 1.828222 0.543771
v -4.587293 1.827990 0.544976
v -4.585042 1.828688 0.545181
v -4.587224 1.828404 0.546699
v -4.587157 1.829290 0.547291
v -4.586089 1.829726 0.547030
v -4.586191 1.828370 0.546123
v -4.587224 1.828404 0.546699
v -4.586089 1.829726 0.547030
v -4.587793 1.830146 0.547281
v -4.587157 1.829290 0.547291
v -4.588654 1.830329 0.546676
v -4.587224 1.828404 0.546699
v -4.588654 1.830329 0.546676
v -4.587157 1.829290 0.547291
v -4.589089 1.829700 0.545932
v -4.588654 1.830329 0.546676
v -4.587224 1.828404 0.546699
v -4.587943 1.828157 0.545951
v -4.589089 1.829700 0.545932
v -4.587224 1.828404 0.546699
v -4.588773 1.828733 0.545609
v -4.589089 1.829700 0.545932
v -4.587943 1.828157 0.545951
v -4.581749 1.834766 0.540383
v -4.582885 1.835007 0.539585
v -4.580910 1.833636 0.540397
v -4.580997 1.832467 0.539616
v -4.580910 1.833636 0.540397
v -4.582885 1.835007 0.539585
v -4.583460 1.834177 0.538603
v -4.580997 1.832467 0.539616
v -4.582885 1.835007 0.539585
v -4.581946 1.832141 0.538628
v -4.580997 1.832467 0.539616
v -4.583460 1.834177 0.538603
v -4.583042 1.832902 0.538177
v -4.581946 1.832141 0.538628
v -4.583460 1.834177 0.538603
vn 0.5798 0.4224 -0.6968
vn -0.4111 -0.8507 0.3275
vn -0.9369 -0.1430 0.3190
vn -0.7918 -0.5863 0.1710
vn -0.0812 -0.7372 0.6708
vn -0.4110 -0.8507 0.3276
vn -0.0813 -0.7372 0.6707
vn -0.7370 0.1453 0.6601
vn -0.0508 -0.3312 0.9422
vn -0.0813 -0.7372 0.6708
vn -0.3426 0.0615 0.9374
vn 0.4563 -0.1439 0.8781
vn 0.4070 -0.8012 0.4388
vn -0.0509 -0.3312 0.9422
vn 0.6826 -0.7042 0.1953
vn -0.1269 -0.9850 -0.1169
vn 0.0982 -0.9055 -0.4129
vn 0.4070 -0.8012 0.4387
vn 0.8593 -0.5059 -0.0759
vn 0.3087 -0.6955 -0.6489
vn 0.0981 -0.9055 -0.4129
vn -0.7434 -0.5570 -0.3703
vn -0.5767 -0.4369 -0.6903
vn -0.7434 -0.5569 -0.3703
vn 0.3087 -0.6954 -0.6489
vn -0.5766 -0.4369 -0.6903
vn -0.3270 -0.2541 -0.9102
vn -0.5767 -0.4369 -0.6904
vn -0.9783 0.1607 -0.1308
vn -0.8338 0.3487 -0.4281
vn -0.7434 -0.5569 -0.3704
vn -0.3270 -0.2540 -0.9103
vn -0.5692 0.4860 -0.6632
vn -0.8337 0.3487 -0.4281
vn -0.6547 0.6275 0.4214
vn -0.4796 0.8596 0.1763
vn -0.9783 0.1608 -0.1308
vn -0.4795 0.8596 0.1763
vn -0.2355 0.9673 -0.0938
vn -0.0163 0.4920 0.8705
vn 0.2193 0.7112 0.6679
vn 0.4228 0.8276 0.3693
vn 0.2194 0.7112 0.6679
vn 0.4562 -0.1438 0.8782
vn 0.7365 0.0153 0.6763
vn -0.0162 0.4920 0.8705
vn 0.4229 0.8275 0.3693
vn 0.9100 0.1719 0.3773
vn 0.7365 0.0152 0.6763
vn 0.7364 0.0152 0.6763
vn 0.4562 -0.1439 0.8782
vn 0.9100 0.1719 0.3772
vn 0.6826 -0.7043 0.1953
vn 0.8592 -0.5059 -0.0759
vn 0.8840 0.1404 0.4458
vn 0.8319 -0.5545 -0.0188
vn 0.8840 0.1405 0.4458
vn -0.2906 0.9561 -0.0371
vn 0.3844 0.8128 0.4377
vn -0.3845 -0.2963 -0.8743
vn -0.6328 0.4626 -0.6210
vn -0.3270 -0.2540 -0.9102
vn 0.8319 -0.5546 -0.0188
vn 0.2675 -0.7489 -0.6063
vn -0.6328 0.4625 -0.6210
vn 0.2674 -0.7489 -0.6063
vn -0.3844 -0.2963 -0.8743
vn -0.6546 0.6276 0.4214
vn -0.3427 0.0615 0.9374
vn -0.7370 0.1452 0.6601
vn -0.3426 0.0615 0.9375
vn -0.7918 -0.5864 0.1710
vn -0.9369 -0.1431 0.3190
vn -0.9783 0.1607 -0.1307
vn -0.1269 -0.9850 -0.1170
vn -0.0163 0.4919 0.8705
vn 0.6936 -0.6968 0.1825
vn 0.2674 -0.7490 -0.6063
vn 0.1090 -0.8981 -0.4260
vn 0.8320 -0.5545 -0.0188
vn 0.2302 0.7194 0.6553
vn 0.8840 0.1404 0.4459
vn 0.7476 0.0231 0.6638
vn 0.2302 0.7194 0.6554
vn -0.8235 0.3567 -0.4412
vn -0.4691 0.8679 0.1635
vn 0.1089 -0.8981 -0.4260
vn -0.5662 -0.4294 -0.7036
vn 0.6937 -0.6968 0.1825
vn 0.7476 0.0230 0.6638
vn 0.8840 0.1405 0.4459
vn 0.2301 0.7194 0.6553
vn -0.4691 0.8679 0.1636
vn -0.5662 -0.4293 -0.7036
vn -0.5663 -0.4293 -0.7036
vt 0.530319 0.611839
vt 0.522446 0.618118
vt 0.524872 0.613083
vt 0.524872 0.623154
vt 0.534683 0.615326
vt 0.530319 0.624397
vt 0.534683 0.620918
vt 0.537079 0.671494
vt 0.541916 0.669548
vt 0.539566 0.672157
vt 0.536179 0.669609
vt 0.539856 0.666756
vt 0.536224 0.667854
vt 0.537567 0.666748
vt 0.534592 0.666855
vt 0.534012 0.669838
vt 0.530777 0.669685
vt 0.535187 0.673050
vt 0.531769 0.674789
vt 0.525803 0.669067
vt 0.526108 0.676537
vt 0.539017 0.675606
vt 0.536011 0.680244
vt 0.529755 0.684982
vt 0.547180 0.674767
vt 0.546982 0.686485
vt 0.537415 0.696274
vt 0.547180 0.658051
vt 0.540527 0.663902
vt 0.539825 0.659698
vt 0.546280 0.665543
vt 0.543762 0.651657
vt 0.537613 0.655174
vt 0.536758 0.664742
vt 0.535126 0.661980
vt 0.532364 0.658463
vt 0.532074 0.665283
vt 0.528198 0.662933
vt 0.523743 0.660286
vt 0.519989 0.668175
vt 0.535217 0.651588
vt 0.529327 0.654999
vt 0.522873 0.688484
vt 0.528320 0.699394
vt 0.519577 0.678001
vt 0.540466 0.648293
vt 0.604446 0.642853
vt 0.626221 0.647896
vt 0.604553 0.648445
vt 0.626144 0.642670
vt 0.604553 0.631676
vt 0.626144 0.637444
vt 0.604446 0.637268
vt 0.626221 0.632225
vt 0.605011 0.620506
vt 0.626404 0.626999
vt 0.604736 0.626091
vt 0.626663 0.621780
vt 0.626404 0.653114
vt 0.604736 0.654030
vt 0.626663 0.658333
vt 0.605011 0.659607
s 0
usemtl decorations
f 240/1/1 239/2/1 238/3/1
f 237/1/1 236/4/1 235/2/1
f 234/5/1 233/4/1 232/1/1
f 231/5/1 230/6/1 229/4/1
f 228/6/1 227/5/1 226/7/1
s 1
f 225/8/2 224/9/3 223/10/4
f 222/11/5 221/9/3 220/8/6
f 219/11/7 218/12/8 217/9/3
f 216/13/9 215/12/8 214/11/10
f 213/12/8 212/13/9 211/14/11
f 210/15/12 209/11/10 208/16/13
f 207/15/12 206/13/14 205/11/10
f 204/17/15 203/18/16 202/19/17
f 201/17/15 200/16/18 199/18/16
f 198/20/19 197/19/17 196/21/20
f 195/20/19 194/17/15 193/19/21
f 192/19/17 191/22/22 190/23/23
f 189/19/17 188/18/16 187/22/24
f 186/21/25 185/23/26 184/24/27
f 183/21/25 3/19/17 182/23/26
f 181/23/28 180/25/29 179/26/30
f 178/23/23 177/22/31 176/25/29
f 175/24/32 174/26/30 173/27/33
f 172/24/32 4/23/28 171/26/30
f 170/28/34 169/29/35 168/30/36
f 167/28/34 166/31/37 165/29/35
f 164/32/33 163/30/38 162/33/39
f 161/32/33 13/28/30 160/30/36
f 159/30/38 158/34/40 157/35/41
f 156/30/36 155/29/35 154/34/40
f 153/33/39 152/35/41 151/36/42
f 150/33/39 14/30/38 149/35/41
f 148/35/43 147/15/44 146/37/45
f 145/35/41 144/34/46 143/15/44
f 142/36/47 141/37/45 140/38/48
f 139/36/47 16/35/41 138/37/45
f 137/37/49 136/16/18 135/17/15
f 134/37/50 133/15/51 132/16/13
f 131/38/52 130/17/53 129/20/54
f 128/38/52 36/37/45 25/17/53
f 127/39/55 126/20/54 125/40/56
f 124/39/57 123/38/52 122/20/54
f 121/41/58 120/36/42 119/42/59
f 118/41/58 117/33/39 116/36/42
f 115/43/60 114/27/33 113/44/61
f 112/43/60 111/24/62 110/27/33
f 109/40/63 108/21/20 107/45/64
f 106/40/63 40/20/19 105/21/20
f 104/42/59 103/38/52 102/39/57
f 101/42/59 41/36/42 42/38/52
f 100/46/65 99/33/39 98/41/58
f 97/46/65 37/32/33 38/33/39
f 96/45/66 95/24/27 94/43/67
f 93/45/66 33/21/20 34/24/27
f 92/29/68 91/14/69 90/34/40
f 89/29/68 88/12/70 87/14/71
f 86/22/24 85/9/3 84/25/29
f 83/22/24 82/10/72 81/9/73
f 80/16/18 79/8/6 78/18/16
f 29/16/18 30/11/5 77/8/6
f 76/31/74 75/12/8 28/29/35
f 31/31/29 26/9/73 27/12/8
f 74/18/16 73/10/4 24/22/24
f 21/18/75 22/8/6 23/10/4
f 72/34/76 71/13/9 20/15/51
f 17/34/76 18/14/69 19/13/14
f 70/47/77 69/48/78 68/49/79
f 67/47/77 66/50/80 65/48/66
f 64/51/81 63/52/82 62/53/83
f 61/51/84 60/54/59 59/52/57
f 58/55/85 57/56/58 56/57/86
f 55/55/85 54/58/65 53/56/58
f 52/49/87 51/59/60 50/60/88
f 2/49/87 32/48/66 49/59/67
f 48/53/83 47/50/63 12/47/89
f 9/53/90 10/52/91 11/50/56
f 46/57/86 45/54/59 8/51/92
f 5/57/93 6/56/58 7/54/59
f 44/60/94 43/61/65 15/62/85
f 1/60/95 35/59/67 39/61/65
