# Blender 5.0.0
# www.blender.org
mtllib Circle_002_Circle_003_Dupli_173_decorations_0.mtl
o Circle.002|Circle.003|Dupli|173_decorations_0
v -4.706333 0.985527 0.613737
v -4.707590 0.985338 0.613129
v -4.711395 0.987906 0.619495
v -4.709603 0.988175 0.620363
v -4.705821 0.983235 0.614699
v -4.708366 0.984692 0.619310
v -4.709422 0.983986 0.618963
v -4.706951 0.982480 0.614328
v -4.708085 0.982895 0.613603
v -4.710482 0.984374 0.618285
v -4.710748 0.985563 0.617786
v -4.708369 0.984167 0.613069
v -4.708480 0.986840 0.621360
v -4.708873 0.984905 0.621735
v -4.705546 0.984591 0.614436
v -4.710484 0.983828 0.621206
v -4.711145 0.984616 0.622325
v -4.711593 0.985495 0.622977
v -4.712451 0.985810 0.622427
v -4.712461 0.985097 0.621483
v -4.711886 0.987934 0.620933
v -4.712076 0.987661 0.622069
v -4.711125 0.987804 0.622530
v -4.710428 0.988153 0.621640
v -4.712507 0.986234 0.619410
v -4.710528 0.987095 0.623059
v -4.710737 0.986067 0.623258
v -4.709833 0.985492 0.622756
v -4.712791 0.986574 0.620864
v -4.712667 0.986773 0.622023
v -4.709514 0.987066 0.622451
v -4.710019 0.986658 0.617842
v -4.710604 0.987274 0.618370
v -4.709053 0.987508 0.619121
v -4.708845 0.986835 0.618411
v -4.712102 0.984420 0.620171
v -4.708081 0.986352 0.619983
v -4.708420 0.984677 0.620308
v -4.708109 0.985960 0.619064
v -4.711566 0.985828 0.618295
v -4.709815 0.983745 0.619850
v -4.711215 0.984257 0.618954
v -4.708109 0.985960 0.619064
v -4.706333 0.985527 0.613737
v -4.709422 0.983986 0.618963
v -4.705821 0.983235 0.614699
v -4.710748 0.985563 0.617786
v -4.708085 0.982895 0.613603
v -4.708845 0.986835 0.618411
v -4.706333 0.985527 0.613737
v -4.708845 0.986835 0.618411
v -4.707590 0.985338 0.613129
v -4.708366 0.984692 0.619310
v -4.708109 0.985960 0.619064
v -4.705546 0.984591 0.614436
v -4.705821 0.983235 0.614699
v -4.708366 0.984692 0.619310
v -4.705546 0.984591 0.614436
v -4.710482 0.984374 0.618285
v -4.709422 0.983986 0.618963
v -4.706951 0.982480 0.614328
v -4.708085 0.982895 0.613603
v -4.710482 0.984374 0.618285
v -4.706951 0.982480 0.614328
v -4.710019 0.986658 0.617842
v -4.710748 0.985563 0.617786
v -4.708369 0.984167 0.613069
v -4.707590 0.985338 0.613129
v -4.710019 0.986658 0.617842
v -4.708369 0.984167 0.613069
v -4.712451 0.985810 0.622427
v -4.711145 0.984616 0.622325
v -4.711125 0.987804 0.622530
v -4.711886 0.987934 0.620933
v -4.710737 0.986067 0.623258
v -4.709514 0.987066 0.622451
v -4.712076 0.987661 0.622069
v -4.711886 0.987934 0.620933
v -4.712076 0.987661 0.622069
v -4.712791 0.986574 0.620864
v -4.710528 0.987095 0.623059
v -4.711125 0.987804 0.622530
v -4.710428 0.988153 0.621640
v -4.709514 0.987066 0.622451
v -4.710528 0.987095 0.623059
v -4.710428 0.988153 0.621640
v -4.711593 0.985495 0.622977
v -4.710737 0.986067 0.623258
v -4.709833 0.985492 0.622756
v -4.711145 0.984616 0.622325
v -4.711593 0.985495 0.622977
v -4.709833 0.985492 0.622756
v -4.710019 0.986658 0.617842
v -4.708845 0.986835 0.618411
v -4.709053 0.987508 0.619121
v -4.710019 0.986658 0.617842
v -4.708109 0.985960 0.619064
v -4.708366 0.984692 0.619310
v -4.708420 0.984677 0.620308
v -4.708109 0.985960 0.619064
v -4.709422 0.983986 0.618963
v -4.710482 0.984374 0.618285
v -4.711215 0.984257 0.618954
v -4.709422 0.983986 0.618963
v -4.710604 0.987274 0.618370
v -4.710748 0.985563 0.617786
v -4.710019 0.986658 0.617842
v -4.710604 0.987274 0.618370
v -4.710748 0.985563 0.617786
v -4.708081 0.986352 0.619983
v -4.709053 0.987508 0.619121
v -4.708845 0.986835 0.618411
v -4.708109 0.985960 0.619064
v -4.708081 0.986352 0.619983
v -4.708845 0.986835 0.618411
v -4.709815 0.983745 0.619850
v -4.708420 0.984677 0.620308
v -4.708366 0.984692 0.619310
v -4.709422 0.983986 0.618963
v -4.709815 0.983745 0.619850
v -4.708366 0.984692 0.619310
v -4.711566 0.985828 0.618295
v -4.711215 0.984257 0.618954
v -4.710482 0.984374 0.618285
v -4.710748 0.985563 0.617786
v -4.711566 0.985828 0.618295
v -4.710482 0.984374 0.618285
v -4.711215 0.984257 0.618954
v -4.711566 0.985828 0.618295
v -4.712507 0.986234 0.619410
v -4.711215 0.984257 0.618954
v -4.712791 0.986574 0.620864
v -4.712461 0.985097 0.621483
v -4.712102 0.984420 0.620171
v -4.712507 0.986234 0.619410
v -4.712791 0.986574 0.620864
v -4.712102 0.984420 0.620171
v -4.712102 0.984420 0.620171
v -4.709815 0.983745 0.619850
v -4.711215 0.984257 0.618954
v -4.712102 0.984420 0.620171
v -4.709815 0.983745 0.619850
v -4.712461 0.985097 0.621483
v -4.711145 0.984616 0.622325
v -4.710484 0.983828 0.621206
v -4.712102 0.984420 0.620171
v -4.712461 0.985097 0.621483
v -4.710484 0.983828 0.621206
v -4.710484 0.983828 0.621206
v -4.708420 0.984677 0.620308
v -4.709815 0.983745 0.619850
v -4.710484 0.983828 0.621206
v -4.708420 0.984677 0.620308
v -4.711145 0.984616 0.622325
v -4.709833 0.985492 0.622756
v -4.708873 0.984905 0.621735
v -4.710484 0.983828 0.621206
v -4.711145 0.984616 0.622325
v -4.708873 0.984905 0.621735
v -4.708873 0.984905 0.621735
v -4.708081 0.986352 0.619983
v -4.708420 0.984677 0.620308
v -4.708873 0.984905 0.621735
v -4.708081 0.986352 0.619983
v -4.709833 0.985492 0.622756
v -4.709514 0.987066 0.622451
v -4.708480 0.986840 0.621360
v -4.708873 0.984905 0.621735
v -4.709833 0.985492 0.622756
v -4.708480 0.986840 0.621360
v -4.708480 0.986840 0.621360
v -4.709053 0.987508 0.619121
v -4.708081 0.986352 0.619983
v -4.708480 0.986840 0.621360
v -4.709053 0.987508 0.619121
v -4.709514 0.987066 0.622451
v -4.710428 0.988153 0.621640
v -4.709603 0.988175 0.620363
v -4.708480 0.986840 0.621360
v -4.709514 0.987066 0.622451
v -4.709603 0.988175 0.620363
v -4.709603 0.988175 0.620363
v -4.710604 0.987274 0.618370
v -4.709053 0.987508 0.619121
v -4.709603 0.988175 0.620363
v -4.710604 0.987274 0.618370
v -4.710428 0.988153 0.621640
v -4.711886 0.987934 0.620933
v -4.711395 0.987906 0.619495
v -4.709603 0.988175 0.620363
v -4.710428 0.988153 0.621640
v -4.711395 0.987906 0.619495
v -4.711395 0.987906 0.619495
v -4.712507 0.986234 0.619410
v -4.711566 0.985828 0.618295
v -4.710604 0.987274 0.618370
v -4.711395 0.987906 0.619495
v -4.711566 0.985828 0.618295
v -4.711886 0.987934 0.620933
v -4.712791 0.986574 0.620864
v -4.712507 0.986234 0.619410
v -4.711395 0.987906 0.619495
v -4.711886 0.987934 0.620933
v -4.712507 0.986234 0.619410
v -4.712667 0.986773 0.622023
v -4.712451 0.985810 0.622427
v -4.712461 0.985097 0.621483
v -4.712791 0.986574 0.620864
v -4.712667 0.986773 0.622023
v -4.712461 0.985097 0.621483
v -4.711593 0.985495 0.622977
v -4.712451 0.985810 0.622427
v -4.710737 0.986067 0.623258
v -4.712667 0.986773 0.622023
v -4.710737 0.986067 0.623258
v -4.712451 0.985810 0.622427
v -4.710528 0.987095 0.623059
v -4.710737 0.986067 0.623258
v -4.712667 0.986773 0.622023
v -4.712076 0.987661 0.622069
v -4.710528 0.987095 0.623059
v -4.712667 0.986773 0.622023
v -4.711125 0.987804 0.622530
v -4.710528 0.987095 0.623059
v -4.712076 0.987661 0.622069
v -4.706951 0.982480 0.614328
v -4.705821 0.983235 0.614699
v -4.708085 0.982895 0.613603
v -4.708369 0.984167 0.613069
v -4.708085 0.982895 0.613603
v -4.705821 0.983235 0.614699
v -4.705546 0.984591 0.614436
v -4.708369 0.984167 0.613069
v -4.705821 0.983235 0.614699
v -4.707590 0.985338 0.613129
v -4.708369 0.984167 0.613069
v -4.705546 0.984591 0.614436
v -4.706333 0.985527 0.613737
v -4.707590 0.985338 0.613129
v -4.705546 0.984591 0.614436
vn 0.4522 -0.2572 -0.8540
vn -0.5934 0.6658 0.4523
vn 0.1164 0.4061 0.9064
vn -0.1570 0.7314 0.6636
vn -0.8642 0.2587 0.4315
vn 0.1164 0.4062 0.9064
vn -0.8642 0.2588 0.4314
vn 0.0209 -0.0650 0.9977
vn -0.7655 -0.1832 0.6168
vn -0.7655 -0.1831 0.6168
vn -0.3716 -0.3273 0.8688
vn -0.8193 -0.5354 0.2053
vn -0.8642 0.2588 0.4315
vn -0.9791 0.1801 -0.0947
vn -0.7655 -0.1831 0.6169
vn -0.8867 0.0919 -0.4530
vn -0.5407 0.8390 -0.0611
vn -0.4069 0.8132 -0.4161
vn -0.8868 0.0919 -0.4530
vn -0.9791 0.1801 -0.0948
vn -0.5407 0.8390 -0.0610
vn -0.6667 -0.0093 -0.7453
vn -0.4068 0.8132 -0.4161
vn -0.2146 0.6702 -0.7105
vn -0.4069 0.8132 -0.4160
vn 0.1659 0.9452 0.2811
vn 0.3665 0.9295 -0.0415
vn -0.5406 0.8390 -0.0611
vn -0.2145 0.6702 -0.7105
vn 0.5139 0.7797 -0.3577
vn 0.6086 0.4187 0.6741
vn 0.8511 0.3531 0.3886
vn 0.6085 0.4187 0.6741
vn 0.5140 0.7797 -0.3577
vn 0.9704 0.2367 0.0476
vn 0.4540 -0.3441 0.8219
vn 0.6818 -0.4818 0.5504
vn 0.4539 -0.3440 0.8219
vn 0.9704 0.2367 0.0475
vn 0.6819 -0.4818 0.5504
vn 0.8110 -0.5498 0.2000
vn 0.6818 -0.4818 0.5505
vn -0.1815 -0.7687 0.6134
vn -0.0137 -0.9466 0.3221
vn 0.4539 -0.3441 0.8219
vn -0.1815 -0.7687 0.6133
vn 0.8110 -0.5498 0.1999
vn 0.1557 -0.9877 -0.0151
vn -0.0137 -0.9466 0.3220
vn -0.8192 -0.5355 0.2053
vn -0.7118 -0.6913 -0.1245
vn -0.8192 -0.5354 0.2054
vn 0.1557 -0.9877 -0.0152
vn -0.5019 -0.7472 -0.4357
vn -0.7118 -0.6912 -0.1245
vn -0.7118 -0.6912 -0.1244
vn -0.8192 -0.5354 0.2053
vn -0.5018 -0.7471 -0.4358
vn -0.8868 0.0920 -0.4530
vn -0.5019 -0.7471 -0.4358
vn -0.5530 -0.7443 -0.3745
vn -0.7220 0.0123 -0.6918
vn 0.7933 -0.5420 0.2775
vn 0.1558 -0.9877 -0.0151
vn 0.1214 -0.9910 0.0569
vn 0.4887 0.8213 -0.2943
vn 0.9704 0.2368 0.0476
vn 0.9567 0.2645 0.1211
vn 0.4887 0.8213 -0.2944
vn -0.2584 0.7090 -0.6562
vn -0.7220 0.0122 -0.6918
vn 0.9567 0.2645 0.1212
vn 0.7933 -0.5420 0.2774
vn -0.2584 0.7090 -0.6561
vn -0.3716 -0.3272 0.8688
vn 0.1659 0.9452 0.2812
vn -0.8789 0.0872 -0.4690
vn -0.3987 0.8089 -0.4321
vn -0.8789 0.0873 -0.4690
vn -0.0054 -0.9519 0.3064
vn -0.7038 -0.6964 -0.1403
vn -0.0054 -0.9519 0.3065
vn 0.8599 0.3485 0.3730
vn 0.7932 -0.5420 0.2775
vn 0.6906 -0.4868 0.5349
vn 0.8599 0.3485 0.3731
vn 0.3750 0.9252 -0.0574
vn -0.3987 0.8089 -0.4320
vn -0.7038 -0.6964 -0.1404
vn 0.6905 -0.4868 0.5350
vn 0.3751 0.9252 -0.0574
vn 0.9567 0.2646 0.1212
vn 0.3751 0.9252 -0.0573
vn 0.9567 0.2646 0.1211
vt 0.530319 0.611839
vt 0.522446 0.618118
vt 0.524872 0.613083
vt 0.524872 0.623154
vt 0.534683 0.615326
vt 0.530319 0.624397
vt 0.534683 0.620918
vt 0.537079 0.671494
vt 0.541916 0.669548
vt 0.539566 0.672157
vt 0.536179 0.669609
vt 0.539856 0.666756
vt 0.536224 0.667854
vt 0.537567 0.666748
vt 0.534592 0.666855
vt 0.534012 0.669838
vt 0.530777 0.669685
vt 0.535187 0.673050
vt 0.531769 0.674789
vt 0.525803 0.669067
vt 0.526108 0.676537
vt 0.539017 0.675606
vt 0.536011 0.680244
vt 0.529755 0.684982
vt 0.547180 0.674767
vt 0.546982 0.686485
vt 0.537415 0.696274
vt 0.547180 0.658051
vt 0.540527 0.663902
vt 0.539825 0.659698
vt 0.546280 0.665543
vt 0.543762 0.651657
vt 0.537613 0.655174
vt 0.536758 0.664742
vt 0.535126 0.661980
vt 0.532364 0.658463
vt 0.532074 0.665283
vt 0.528198 0.662933
vt 0.523743 0.660286
vt 0.519989 0.668175
vt 0.535217 0.651588
vt 0.529327 0.654999
vt 0.522873 0.688484
vt 0.528320 0.699394
vt 0.519577 0.678001
vt 0.540466 0.648293
vt 0.604446 0.642853
vt 0.626221 0.647896
vt 0.604553 0.648445
vt 0.626144 0.642670
vt 0.604553 0.631676
vt 0.626144 0.637444
vt 0.604446 0.637268
vt 0.626221 0.632225
vt 0.605011 0.620506
vt 0.626404 0.626999
vt 0.604736 0.626091
vt 0.626663 0.621780
vt 0.626404 0.653114
vt 0.604736 0.654030
vt 0.626663 0.658333
vt 0.605011 0.659607
s 0
usemtl decorations
f 240/1/1 239/2/1 238/3/1
f 237/1/1 236/4/1 235/2/1
f 234/5/1 233/4/1 232/1/1
f 231/5/1 230/6/1 229/4/1
f 228/6/1 227/5/1 226/7/1
s 1
f 225/8/2 224/9/3 223/10/4
f 222/11/5 221/9/6 220/8/2
f 219/11/7 218/12/8 217/9/3
f 216/13/9 215/12/8 214/11/7
f 213/12/8 212/13/10 211/14/11
f 210/15/12 209/11/13 208/16/14
f 207/15/12 206/13/15 205/11/13
f 204/17/16 203/18/17 202/19/18
f 201/17/19 200/16/20 199/18/21
f 198/20/22 197/19/23 196/21/24
f 195/20/22 194/17/19 193/19/25
f 192/19/18 191/22/26 190/23/27
f 189/19/18 188/18/28 187/22/26
f 186/21/29 185/23/27 184/24/30
f 183/21/24 3/19/18 182/23/27
f 181/23/27 180/25/31 179/26/32
f 178/23/27 177/22/26 176/25/33
f 175/24/34 174/26/32 173/27/35
f 172/24/34 4/23/27 171/26/32
f 170/28/32 169/29/36 168/30/37
f 167/28/32 166/31/31 165/29/38
f 164/32/39 163/30/40 162/33/41
f 161/32/39 13/28/32 160/30/42
f 159/30/37 158/34/43 157/35/44
f 156/30/37 155/29/45 154/34/46
f 153/33/47 152/35/44 151/36/48
f 150/33/41 14/30/37 149/35/44
f 148/35/49 147/15/50 146/37/51
f 145/35/49 144/34/46 143/15/52
f 142/36/53 141/37/51 140/38/54
f 139/36/53 16/35/44 138/37/51
f 137/37/55 136/16/20 135/17/19
f 134/37/56 133/15/57 132/16/14
f 131/38/58 130/17/59 129/20/22
f 128/38/60 36/37/51 25/17/59
f 127/39/61 126/20/22 125/40/62
f 124/39/61 123/38/60 122/20/22
f 121/41/63 120/36/64 119/42/65
f 118/41/63 117/33/47 116/36/64
f 115/43/66 114/27/67 113/44/68
f 112/43/69 111/24/34 110/27/67
f 109/40/62 108/21/24 107/45/70
f 106/40/71 40/20/22 105/21/24
f 104/42/65 103/38/60 102/39/61
f 101/42/65 41/36/48 42/38/60
f 100/46/72 99/33/41 98/41/73
f 97/46/68 37/32/35 38/33/41
f 96/45/74 95/24/34 94/43/69
f 93/45/70 33/21/24 34/24/34
f 92/29/45 91/14/75 90/34/46
f 89/29/45 88/12/8 87/14/11
f 86/22/76 85/9/3 84/25/33
f 83/22/76 82/10/4 81/9/6
f 80/16/20 79/8/2 78/18/21
f 29/16/20 30/11/5 77/8/2
f 76/31/33 75/12/8 28/29/38
f 31/31/33 26/9/6 27/12/8
f 74/18/28 73/10/4 24/22/26
f 21/18/28 22/8/2 23/10/4
f 72/34/46 71/13/10 20/15/57
f 17/34/46 18/14/11 19/13/15
f 70/47/77 69/48/74 68/49/78
f 67/47/79 66/50/71 65/48/70
f 64/51/80 63/52/61 62/53/81
f 61/51/82 60/54/65 59/52/61
f 58/55/83 57/56/84 56/57/85
f 55/55/86 54/58/68 53/56/73
f 52/49/78 51/59/66 50/60/87
f 2/49/88 32/48/70 49/59/69
f 48/53/89 47/50/62 12/47/77
f 9/53/81 10/52/61 11/50/62
f 46/57/85 45/54/65 8/51/82
f 5/57/90 6/56/84 7/54/65
f 44/60/91 43/61/92 15/62/83
f 1/60/93 35/59/69 39/61/94
