# Blender 5.0.0
# www.blender.org
mtllib Circle_002_Circle_Dupli_191_decorations_0.mtl
o Circle.002|Circle|Dupli|191_decorations_0
v -4.281864 1.425306 0.624280
v -4.281501 1.424195 0.623493
v -4.282478 1.428219 0.616825
v -4.282995 1.429803 0.617948
v -4.284343 1.424932 0.624675
v -4.285407 1.427722 0.620098
v -4.285640 1.426598 0.619454
v -4.284593 1.423730 0.623986
v -4.283689 1.422932 0.623257
v -4.284796 1.425852 0.618773
v -4.283510 1.426045 0.618568
v -4.282314 1.423139 0.623038
v -4.284800 1.430271 0.618698
v -4.286532 1.429271 0.618511
v -4.283129 1.425634 0.624806
v -4.286888 1.427555 0.617527
v -4.286787 1.428453 0.616306
v -4.286377 1.429181 0.615468
v -4.285693 1.428576 0.614916
v -4.285738 1.427527 0.615460
v -4.283198 1.428994 0.615735
v -4.284035 1.429534 0.615095
v -4.284309 1.430375 0.615691
v -4.283619 1.430283 0.616648
v -4.283637 1.426712 0.616176
v -4.285268 1.430624 0.616090
v -4.286188 1.430092 0.615990
v -4.286498 1.429850 0.617106
v -4.284142 1.427767 0.615206
v -4.284650 1.428733 0.614750
v -4.285088 1.430664 0.617258
v -4.282751 1.427033 0.618994
v -4.282466 1.427464 0.618138
v -4.282914 1.428836 0.619109
v -4.283090 1.428071 0.619729
v -4.285599 1.426416 0.616488
v -4.284475 1.429241 0.619759
v -4.285975 1.428375 0.619597
v -4.284272 1.428378 0.620221
v -4.283469 1.426160 0.617576
v -4.286283 1.426890 0.618746
v -4.285168 1.425904 0.617846
v -4.284272 1.428378 0.620221
v -4.281864 1.425306 0.624280
v -4.285640 1.426598 0.619454
v -4.284343 1.424932 0.624675
v -4.283510 1.426045 0.618568
v -4.283689 1.422932 0.623257
v -4.283090 1.428071 0.619729
v -4.281864 1.425306 0.624280
v -4.283090 1.428071 0.619729
v -4.281501 1.424195 0.623493
v -4.285407 1.427722 0.620098
v -4.284272 1.428378 0.620221
v -4.283129 1.425634 0.624806
v -4.284343 1.424932 0.624675
v -4.285407 1.427722 0.620098
v -4.283129 1.425634 0.624806
v -4.284796 1.425852 0.618773
v -4.285640 1.426598 0.619454
v -4.284593 1.423730 0.623986
v -4.283689 1.422932 0.623257
v -4.284796 1.425852 0.618773
v -4.284593 1.423730 0.623986
v -4.282751 1.427033 0.618994
v -4.283510 1.426045 0.618568
v -4.282314 1.423139 0.623038
v -4.281501 1.424195 0.623493
v -4.282751 1.427033 0.618994
v -4.282314 1.423139 0.623038
v -4.285693 1.428576 0.614916
v -4.286787 1.428453 0.616306
v -4.284309 1.430375 0.615691
v -4.283198 1.428994 0.615735
v -4.286188 1.430092 0.615990
v -4.285088 1.430664 0.617258
v -4.284035 1.429534 0.615095
v -4.283198 1.428994 0.615735
v -4.284035 1.429534 0.615095
v -4.284142 1.427767 0.615206
v -4.285268 1.430624 0.616090
v -4.284309 1.430375 0.615691
v -4.283619 1.430283 0.616648
v -4.285088 1.430664 0.617258
v -4.285268 1.430624 0.616090
v -4.283619 1.430283 0.616648
v -4.286377 1.429181 0.615468
v -4.286188 1.430092 0.615990
v -4.286498 1.429850 0.617106
v -4.286787 1.428453 0.616306
v -4.286377 1.429181 0.615468
v -4.286498 1.429850 0.617106
v -4.282751 1.427033 0.618994
v -4.283090 1.428071 0.619729
v -4.282914 1.428836 0.619109
v -4.282751 1.427033 0.618994
v -4.284272 1.428378 0.620221
v -4.285407 1.427722 0.620098
v -4.285975 1.428375 0.619597
v -4.284272 1.428378 0.620221
v -4.285640 1.426598 0.619454
v -4.284796 1.425852 0.618773
v -4.285168 1.425904 0.617846
v -4.285640 1.426598 0.619454
v -4.282466 1.427464 0.618138
v -4.283510 1.426045 0.618568
v -4.282751 1.427033 0.618994
v -4.282466 1.427464 0.618138
v -4.283510 1.426045 0.618568
v -4.284475 1.429241 0.619759
v -4.282914 1.428836 0.619109
v -4.283090 1.428071 0.619729
v -4.284272 1.428378 0.620221
v -4.284475 1.429241 0.619759
v -4.283090 1.428071 0.619729
v -4.286283 1.426890 0.618746
v -4.285975 1.428375 0.619597
v -4.285407 1.427722 0.620098
v -4.285640 1.426598 0.619454
v -4.286283 1.426890 0.618746
v -4.285407 1.427722 0.620098
v -4.283469 1.426160 0.617576
v -4.285168 1.425904 0.617846
v -4.284796 1.425852 0.618773
v -4.283510 1.426045 0.618568
v -4.283469 1.426160 0.617576
v -4.284796 1.425852 0.618773
v -4.285168 1.425904 0.617846
v -4.283469 1.426160 0.617576
v -4.283637 1.426712 0.616176
v -4.285168 1.425904 0.617846
v -4.284142 1.427767 0.615206
v -4.285738 1.427527 0.615460
v -4.285599 1.426416 0.616488
v -4.283637 1.426712 0.616176
v -4.284142 1.427767 0.615206
v -4.285599 1.426416 0.616488
v -4.285599 1.426416 0.616488
v -4.286283 1.426890 0.618746
v -4.285168 1.425904 0.617846
v -4.285599 1.426416 0.616488
v -4.286283 1.426890 0.618746
v -4.285738 1.427527 0.615460
v -4.286787 1.428453 0.616306
v -4.286888 1.427555 0.617527
v -4.285599 1.426416 0.616488
v -4.285738 1.427527 0.615460
v -4.286888 1.427555 0.617527
v -4.286888 1.427555 0.617527
v -4.285975 1.428375 0.619597
v -4.286283 1.426890 0.618746
v -4.286888 1.427555 0.617527
v -4.285975 1.428375 0.619597
v -4.286787 1.428453 0.616306
v -4.286498 1.429850 0.617106
v -4.286532 1.429271 0.618511
v -4.286888 1.427555 0.617527
v -4.286787 1.428453 0.616306
v -4.286532 1.429271 0.618511
v -4.286532 1.429271 0.618511
v -4.284475 1.429241 0.619759
v -4.285975 1.428375 0.619597
v -4.286532 1.429271 0.618511
v -4.284475 1.429241 0.619759
v -4.286498 1.429850 0.617106
v -4.285088 1.430664 0.617258
v -4.284800 1.430271 0.618698
v -4.286532 1.429271 0.618511
v -4.286498 1.429850 0.617106
v -4.284800 1.430271 0.618698
v -4.284800 1.430271 0.618698
v -4.282914 1.428836 0.619109
v -4.284475 1.429241 0.619759
v -4.284800 1.430271 0.618698
v -4.282914 1.428836 0.619109
v -4.285088 1.430664 0.617258
v -4.283619 1.430283 0.616648
v -4.282995 1.429803 0.617948
v -4.284800 1.430271 0.618698
v -4.285088 1.430664 0.617258
v -4.282995 1.429803 0.617948
v -4.282995 1.429803 0.617948
v -4.282466 1.427464 0.618138
v -4.282914 1.428836 0.619109
v -4.282995 1.429803 0.617948
v -4.282466 1.427464 0.618138
v -4.283619 1.430283 0.616648
v -4.283198 1.428994 0.615735
v -4.282478 1.428219 0.616825
v -4.282995 1.429803 0.617948
v -4.283619 1.430283 0.616648
v -4.282478 1.428219 0.616825
v -4.282478 1.428219 0.616825
v -4.283637 1.426712 0.616176
v -4.283469 1.426160 0.617576
v -4.282466 1.427464 0.618138
v -4.282478 1.428219 0.616825
v -4.283469 1.426160 0.617576
v -4.283198 1.428994 0.615735
v -4.284142 1.427767 0.615206
v -4.283637 1.426712 0.616176
v -4.282478 1.428219 0.616825
v -4.283198 1.428994 0.615735
v -4.283637 1.426712 0.616176
v -4.284650 1.428733 0.614750
v -4.285693 1.428576 0.614916
v -4.285738 1.427527 0.615460
v -4.284142 1.427767 0.615206
v -4.284650 1.428733 0.614750
v -4.285738 1.427527 0.615460
v -4.286377 1.429181 0.615468
v -4.285693 1.428576 0.614916
v -4.286188 1.430092 0.615990
v -4.284650 1.428733 0.614750
v -4.286188 1.430092 0.615990
v -4.285693 1.428576 0.614916
v -4.285268 1.430624 0.616090
v -4.286188 1.430092 0.615990
v -4.284650 1.428733 0.614750
v -4.284035 1.429534 0.615095
v -4.285268 1.430624 0.616090
v -4.284650 1.428733 0.614750
v -4.284309 1.430375 0.615691
v -4.285268 1.430624 0.616090
v -4.284035 1.429534 0.615095
v -4.284593 1.423730 0.623986
v -4.284343 1.424932 0.624675
v -4.283689 1.422932 0.623257
v -4.282314 1.423139 0.623038
v -4.283689 1.422932 0.623257
v -4.284343 1.424932 0.624675
v -4.283129 1.425634 0.624806
v -4.282314 1.423139 0.623038
v -4.284343 1.424932 0.624675
v -4.281501 1.424195 0.623493
v -4.282314 1.423139 0.623038
v -4.283129 1.425634 0.624806
v -4.281864 1.425306 0.624280
v -4.281501 1.424195 0.623493
v -4.283129 1.425634 0.624806
vn 0.2100 -0.5186 0.8288
vn 0.3687 0.4035 -0.8374
vn -0.1968 0.9032 -0.3814
vn 0.2427 0.7892 -0.5641
vn 0.0865 0.0363 -0.9956
vn -0.1967 0.9032 -0.3814
vn 0.3687 0.4034 -0.8374
vn 0.0866 0.0364 -0.9956
vn -0.6186 0.6595 -0.4270
vn -0.3915 -0.0357 -0.9195
vn -0.3914 -0.0357 -0.9195
vn -0.7053 0.2417 -0.6665
vn -0.4387 -0.5394 -0.7188
vn 0.3351 -0.4229 -0.8419
vn -0.4386 -0.5394 -0.7187
vn -0.3915 -0.0356 -0.9195
vn 0.0865 0.0364 -0.9956
vn 0.4528 -0.6750 -0.5826
vn 0.7921 0.1714 -0.5859
vn 0.9529 -0.0244 -0.3024
vn 0.4527 -0.6750 -0.5827
vn 0.3352 -0.4229 -0.8419
vn 0.7920 0.1714 -0.5859
vn 0.5048 -0.8293 -0.2397
vn 0.9529 -0.0244 -0.3023
vn 0.9760 -0.2164 0.0243
vn 0.4527 -0.6750 -0.5826
vn 0.5880 0.7960 -0.1434
vn 0.7295 0.6593 0.1820
vn 0.7921 0.1715 -0.5858
vn 0.9760 -0.2164 0.0244
vn 0.7656 0.4277 0.4806
vn -0.1234 0.9806 0.1524
vn -0.0492 0.8613 0.5057
vn 0.5880 0.7961 -0.1433
vn -0.1234 0.9806 0.1523
vn 0.7656 0.4277 0.4807
vn 0.0320 0.6180 0.7855
vn -0.0492 0.8613 0.5058
vn -0.8064 0.5861 0.0786
vn -0.7968 0.4295 0.4250
vn 0.0320 0.6179 0.7856
vn -0.6723 0.2112 0.7095
vn -0.9467 -0.0903 -0.3091
vn -0.9504 -0.3110 0.0006
vn -0.6723 0.2111 0.7095
vn -0.8170 -0.4864 0.3097
vn -0.4387 -0.5394 -0.7187
vn -0.3943 -0.8025 -0.4478
vn -0.9467 -0.0904 -0.3091
vn -0.2932 -0.9494 -0.1127
vn -0.3942 -0.8025 -0.4478
vn 0.3351 -0.4229 -0.8420
vn -0.2931 -0.9494 -0.1127
vn 0.5048 -0.8292 -0.2397
vn -0.3183 -0.9296 -0.1858
vn 0.4999 -0.8064 -0.3160
vn -0.7072 0.2605 0.6573
vn -0.8555 -0.4548 0.2474
vn 0.7672 0.4825 0.4226
vn 0.0150 0.6776 0.7353
vn 0.4999 -0.8064 -0.3161
vn 0.9830 -0.1780 -0.0453
vn -0.8556 -0.4548 0.2473
vn -0.3184 -0.9296 -0.1858
vn -0.8556 -0.4548 0.2474
vn 0.0150 0.6776 0.7352
vn 0.9830 -0.1779 -0.0453
vn -0.8065 0.5860 0.0786
vn -0.7053 0.2416 -0.6665
vn 0.5880 0.7961 -0.1434
vn -0.1967 0.9032 -0.3815
vn 0.7921 0.1714 -0.5858
vn -0.3914 -0.0356 -0.9195
vn 0.4569 -0.6849 -0.5676
vn 0.9573 -0.0340 -0.2872
vn -0.9470 -0.3208 0.0159
vn -0.3907 -0.8125 -0.4327
vn -0.0454 0.8521 0.5213
vn -0.7933 0.4202 0.4406
vn -0.0454 0.8522 0.5213
vn 0.7672 0.4825 0.4225
vn 0.7338 0.6500 0.1974
vn -0.3906 -0.8125 -0.4327
vn 0.4568 -0.6849 -0.5676
vn -0.7933 0.4201 0.4406
vn -0.9470 -0.3208 0.0160
vn -0.7934 0.4202 0.4405
vn 0.7338 0.6501 0.1974
vt 0.543243 0.611839
vt 0.535370 0.618118
vt 0.537796 0.613083
vt 0.537796 0.623154
vt 0.547607 0.615326
vt 0.543243 0.624397
vt 0.547607 0.620918
vt 0.565384 0.671494
vt 0.570206 0.669548
vt 0.567856 0.672157
vt 0.564468 0.669609
vt 0.568146 0.666756
vt 0.564514 0.667854
vt 0.565857 0.666748
vt 0.562897 0.666855
vt 0.562302 0.669838
vt 0.559082 0.669685
vt 0.563492 0.673050
vt 0.560059 0.674789
vt 0.554092 0.669067
vt 0.554398 0.676537
vt 0.567307 0.675606
vt 0.564316 0.680244
vt 0.558044 0.684982
vt 0.575485 0.674767
vt 0.575272 0.686485
vt 0.565720 0.696274
vt 0.575485 0.658051
vt 0.568817 0.663902
vt 0.568115 0.659698
vt 0.574570 0.665543
vt 0.572052 0.651657
vt 0.565903 0.655174
vt 0.565063 0.664742
vt 0.563416 0.661980
vt 0.560669 0.658463
vt 0.560364 0.665283
vt 0.556488 0.662933
vt 0.552032 0.660286
vt 0.548294 0.668175
vt 0.563522 0.651588
vt 0.557617 0.654999
vt 0.551163 0.688484
vt 0.556610 0.699394
vt 0.547867 0.678001
vt 0.568756 0.648293
vt 0.604446 0.682632
vt 0.626221 0.687675
vt 0.604553 0.688225
vt 0.626144 0.682457
vt 0.604553 0.671455
vt 0.626144 0.677231
vt 0.604446 0.677048
vt 0.626221 0.672005
vt 0.605011 0.660294
vt 0.626404 0.666786
vt 0.604736 0.665871
vt 0.626663 0.661568
vt 0.626404 0.692902
vt 0.604736 0.693810
vt 0.626663 0.698120
vt 0.605011 0.699394
s 0
usemtl decorations
f 240/1/1 239/2/1 238/3/1
f 237/1/1 236/4/1 235/2/1
f 234/5/1 233/4/1 232/1/1
f 231/5/1 230/6/1 229/4/1
f 228/6/1 227/5/1 226/7/1
s 1
f 225/8/2 224/9/3 223/10/4
f 222/11/5 221/9/6 220/8/7
f 219/11/8 218/12/9 217/9/3
f 216/13/10 215/12/9 214/11/5
f 213/12/9 212/13/11 211/14/12
f 210/15/13 209/11/5 208/16/14
f 207/15/15 206/13/16 205/11/17
f 204/17/18 203/18/19 202/19/20
f 201/17/21 200/16/22 199/18/23
f 198/20/24 197/19/25 196/21/26
f 195/20/24 194/17/27 193/19/20
f 192/19/20 191/22/28 190/23/29
f 189/19/20 188/18/30 187/22/28
f 186/21/31 185/23/29 184/24/32
f 183/21/31 3/19/20 182/23/29
f 181/23/29 180/25/33 179/26/34
f 178/23/29 177/22/35 176/25/36
f 175/24/37 174/26/34 173/27/38
f 172/24/32 4/23/29 171/26/34
f 170/28/39 169/29/40 168/30/41
f 167/28/34 166/31/33 165/29/40
f 164/32/42 163/30/41 162/33/43
f 161/32/42 13/28/34 160/30/41
f 159/30/41 158/34/44 157/35/45
f 156/30/41 155/29/40 154/34/44
f 153/33/46 152/35/45 151/36/47
f 150/33/46 14/30/41 149/35/45
f 148/35/45 147/15/48 146/37/49
f 145/35/45 144/34/50 143/15/13
f 142/36/47 141/37/49 140/38/51
f 139/36/47 16/35/45 138/37/49
f 137/37/52 136/16/14 135/17/18
f 134/37/49 133/15/48 132/16/53
f 131/38/54 130/17/18 129/20/55
f 128/38/54 36/37/49 25/17/18
f 127/39/56 126/20/24 125/40/57
f 124/39/56 123/38/54 122/20/24
f 121/41/58 120/36/47 119/42/59
f 118/41/58 117/33/43 116/36/47
f 115/43/60 114/27/38 113/44/61
f 112/43/60 111/24/32 110/27/38
f 109/40/62 108/21/26 107/45/63
f 106/40/62 40/20/24 105/21/26
f 104/42/64 103/38/54 102/39/65
f 101/42/66 41/36/47 42/38/54
f 100/46/67 99/33/43 98/41/58
f 97/46/61 37/32/42 38/33/43
f 96/45/68 95/24/32 94/43/60
f 93/45/68 33/21/26 34/24/32
f 92/29/40 91/14/12 90/34/44
f 89/29/69 88/12/9 87/14/70
f 86/22/71 85/9/72 84/25/36
f 83/22/71 82/10/4 81/9/72
f 80/16/22 79/8/2 78/18/23
f 29/16/22 30/11/5 77/8/7
f 76/31/36 75/12/9 28/29/40
f 31/31/36 26/9/72 27/12/9
f 74/18/73 73/10/4 24/22/28
f 21/18/73 22/8/7 23/10/4
f 72/34/50 71/13/74 20/15/13
f 17/34/50 18/14/12 19/13/16
f 70/47/75 69/48/68 68/49/76
f 67/47/75 66/50/57 65/48/63
f 64/51/77 63/52/56 62/53/78
f 61/51/77 60/54/66 59/52/65
f 58/55/79 57/56/58 56/57/80
f 55/55/81 54/58/61 53/56/58
f 52/49/76 51/59/82 50/60/83
f 2/49/76 32/48/63 49/59/60
f 48/53/84 47/50/62 12/47/85
f 9/53/84 10/52/56 11/50/57
f 46/57/86 45/54/64 8/51/87
f 5/57/88 6/56/58 7/54/66
f 44/60/83 43/61/67 15/62/81
f 1/60/89 35/59/60 39/61/67
