# Blender 5.0.0
# www.blender.org
mtllib Circle_002_Circle_001_Dupli_130_decorations_0.mtl
o Circle.002|Circle.001|Dupli|130_decorations_0
v -4.729694 0.616478 0.548083
v -4.729503 0.615437 0.547154
v -4.735309 0.618055 0.542567
v -4.735583 0.619540 0.543893
v -4.731233 0.615424 0.549803
v -4.735527 0.617127 0.546883
v -4.735703 0.615910 0.546412
v -4.731422 0.614122 0.549299
v -4.730888 0.613548 0.548129
v -4.735204 0.615373 0.545318
v -4.734406 0.615920 0.544426
v -4.730034 0.614133 0.547174
v -4.736682 0.619531 0.545575
v -4.737779 0.618035 0.546347
v -4.730464 0.616472 0.549262
v -4.738048 0.616179 0.545628
v -4.738951 0.616895 0.544638
v -4.739348 0.617596 0.543771
v -4.738944 0.617160 0.542885
v -4.738331 0.616228 0.543280
v -4.736723 0.618422 0.542148
v -4.737894 0.618592 0.542146
v -4.738039 0.619381 0.542850
v -4.736946 0.619630 0.543226
v -4.736067 0.616194 0.542597
v -4.738623 0.619376 0.543743
v -4.739205 0.618582 0.544153
v -4.738732 0.618406 0.545223
v -4.737340 0.616908 0.542172
v -4.738297 0.617604 0.542162
v -4.737840 0.619623 0.544595
v -4.733909 0.617139 0.544407
v -4.734315 0.617520 0.543576
v -4.734552 0.618805 0.544724
v -4.734088 0.618112 0.545275
v -4.737286 0.615359 0.543959
v -4.735503 0.618798 0.546179
v -4.736453 0.617503 0.546848
v -4.734808 0.618107 0.546377
v -4.734971 0.615909 0.543602
v -4.736685 0.615896 0.546225
v -4.736026 0.615187 0.544781
v -4.734808 0.618107 0.546377
v -4.729694 0.616478 0.548083
v -4.735703 0.615910 0.546412
v -4.731233 0.615424 0.549803
v -4.734406 0.615920 0.544426
v -4.730888 0.613548 0.548129
v -4.734088 0.618112 0.545275
v -4.729694 0.616478 0.548083
v -4.734088 0.618112 0.545275
v -4.729503 0.615437 0.547154
v -4.735527 0.617127 0.546883
v -4.734808 0.618107 0.546377
v -4.730464 0.616472 0.549262
v -4.731233 0.615424 0.549803
v -4.735527 0.617127 0.546883
v -4.730464 0.616472 0.549262
v -4.735204 0.615373 0.545318
v -4.735703 0.615910 0.546412
v -4.731422 0.614122 0.549299
v -4.730888 0.613548 0.548129
v -4.735204 0.615373 0.545318
v -4.731422 0.614122 0.549299
v -4.733909 0.617139 0.544407
v -4.734406 0.615920 0.544426
v -4.730034 0.614133 0.547174
v -4.729503 0.615437 0.547154
v -4.733909 0.617139 0.544407
v -4.730034 0.614133 0.547174
v -4.738944 0.617160 0.542885
v -4.738951 0.616895 0.544638
v -4.738039 0.619381 0.542850
v -4.736723 0.618422 0.542148
v -4.739205 0.618582 0.544153
v -4.737840 0.619623 0.544595
v -4.737894 0.618592 0.542146
v -4.736723 0.618422 0.542148
v -4.737894 0.618592 0.542146
v -4.737340 0.616908 0.542172
v -4.738623 0.619376 0.543743
v -4.738039 0.619381 0.542850
v -4.736946 0.619630 0.543226
v -4.737840 0.619623 0.544595
v -4.738623 0.619376 0.543743
v -4.736946 0.619630 0.543226
v -4.739348 0.617596 0.543771
v -4.739205 0.618582 0.544153
v -4.738732 0.618406 0.545223
v -4.738951 0.616895 0.544638
v -4.739348 0.617596 0.543771
v -4.738732 0.618406 0.545223
v -4.733909 0.617139 0.544407
v -4.734088 0.618112 0.545275
v -4.734552 0.618805 0.544724
v -4.733909 0.617139 0.544407
v -4.734808 0.618107 0.546377
v -4.735527 0.617127 0.546883
v -4.736453 0.617503 0.546848
v -4.734808 0.618107 0.546377
v -4.735703 0.615910 0.546412
v -4.735204 0.615373 0.545318
v -4.736026 0.615187 0.544781
v -4.735703 0.615910 0.546412
v -4.734315 0.617520 0.543576
v -4.734406 0.615920 0.544426
v -4.733909 0.617139 0.544407
v -4.734315 0.617520 0.543576
v -4.734406 0.615920 0.544426
v -4.735503 0.618798 0.546179
v -4.734552 0.618805 0.544724
v -4.734088 0.618112 0.545275
v -4.734808 0.618107 0.546377
v -4.735503 0.618798 0.546179
v -4.734088 0.618112 0.545275
v -4.736685 0.615896 0.546225
v -4.736453 0.617503 0.546848
v -4.735527 0.617127 0.546883
v -4.735703 0.615910 0.546412
v -4.736685 0.615896 0.546225
v -4.735527 0.617127 0.546883
v -4.734971 0.615909 0.543602
v -4.736026 0.615187 0.544781
v -4.735204 0.615373 0.545318
v -4.734406 0.615920 0.544426
v -4.734971 0.615909 0.543602
v -4.735204 0.615373 0.545318
v -4.736026 0.615187 0.544781
v -4.734971 0.615909 0.543602
v -4.736067 0.616194 0.542597
v -4.736026 0.615187 0.544781
v -4.737340 0.616908 0.542172
v -4.738331 0.616228 0.543280
v -4.737286 0.615359 0.543959
v -4.736067 0.616194 0.542597
v -4.737340 0.616908 0.542172
v -4.737286 0.615359 0.543959
v -4.737286 0.615359 0.543959
v -4.736685 0.615896 0.546225
v -4.736026 0.615187 0.544781
v -4.737286 0.615359 0.543959
v -4.736685 0.615896 0.546225
v -4.738331 0.616228 0.543280
v -4.738951 0.616895 0.544638
v -4.738048 0.616179 0.545628
v -4.737286 0.615359 0.543959
v -4.738331 0.616228 0.543280
v -4.738048 0.616179 0.545628
v -4.738048 0.616179 0.545628
v -4.736453 0.617503 0.546848
v -4.736685 0.615896 0.546225
v -4.738048 0.616179 0.545628
v -4.736453 0.617503 0.546848
v -4.738951 0.616895 0.544638
v -4.738732 0.618406 0.545223
v -4.737779 0.618035 0.546347
v -4.738048 0.616179 0.545628
v -4.738951 0.616895 0.544638
v -4.737779 0.618035 0.546347
v -4.737779 0.618035 0.546347
v -4.735503 0.618798 0.546179
v -4.736453 0.617503 0.546848
v -4.737779 0.618035 0.546347
v -4.735503 0.618798 0.546179
v -4.738732 0.618406 0.545223
v -4.737840 0.619623 0.544595
v -4.736682 0.619531 0.545575
v -4.737779 0.618035 0.546347
v -4.738732 0.618406 0.545223
v -4.736682 0.619531 0.545575
v -4.736682 0.619531 0.545575
v -4.734552 0.618805 0.544724
v -4.735503 0.618798 0.546179
v -4.736682 0.619531 0.545575
v -4.734552 0.618805 0.544724
v -4.737840 0.619623 0.544595
v -4.736946 0.619630 0.543226
v -4.735583 0.619540 0.543893
v -4.736682 0.619531 0.545575
v -4.737840 0.619623 0.544595
v -4.735583 0.619540 0.543893
v -4.735583 0.619540 0.543893
v -4.734315 0.617520 0.543576
v -4.734552 0.618805 0.544724
v -4.735583 0.619540 0.543893
v -4.734315 0.617520 0.543576
v -4.736946 0.619630 0.543226
v -4.736723 0.618422 0.542148
v -4.735309 0.618055 0.542567
v -4.735583 0.619540 0.543893
v -4.736946 0.619630 0.543226
v -4.735309 0.618055 0.542567
v -4.735309 0.618055 0.542567
v -4.736067 0.616194 0.542597
v -4.734971 0.615909 0.543602
v -4.734315 0.617520 0.543576
v -4.735309 0.618055 0.542567
v -4.734971 0.615909 0.543602
v -4.736723 0.618422 0.542148
v -4.737340 0.616908 0.542172
v -4.736067 0.616194 0.542597
v -4.735309 0.618055 0.542567
v -4.736723 0.618422 0.542148
v -4.736067 0.616194 0.542597
v -4.738297 0.617604 0.542162
v -4.738944 0.617160 0.542885
v -4.738331 0.616228 0.543280
v -4.737340 0.616908 0.542172
v -4.738297 0.617604 0.542162
v -4.738331 0.616228 0.543280
v -4.739348 0.617596 0.543771
v -4.738944 0.617160 0.542885
v -4.739205 0.618582 0.544153
v -4.738297 0.617604 0.542162
v -4.739205 0.618582 0.544153
v -4.738944 0.617160 0.542885
v -4.738623 0.619376 0.543743
v -4.739205 0.618582 0.544153
v -4.738297 0.617604 0.542162
v -4.737894 0.618592 0.542146
v -4.738623 0.619376 0.543743
v -4.738297 0.617604 0.542162
v -4.738039 0.619381 0.542850
v -4.738623 0.619376 0.543743
v -4.737894 0.618592 0.542146
v -4.731422 0.614122 0.549299
v -4.731233 0.615424 0.549803
v -4.730888 0.613548 0.548129
v -4.730034 0.614133 0.547174
v -4.730888 0.613548 0.548129
v -4.731233 0.615424 0.549803
v -4.730464 0.616472 0.549262
v -4.730034 0.614133 0.547174
v -4.731233 0.615424 0.549803
v -4.729503 0.615437 0.547154
v -4.730034 0.614133 0.547174
v -4.730464 0.616472 0.549262
v -4.729694 0.616478 0.548083
v -4.729503 0.615437 0.547154
v -4.730464 0.616472 0.549262
vn 0.7951 -0.3157 0.5178
vn -0.3231 0.3822 -0.8658
vn -0.6573 0.7417 -0.1333
vn -0.3897 0.7438 -0.5430
vn -0.5077 -0.0710 -0.8586
vn -0.6573 0.7417 -0.1334
vn -0.3231 0.3821 -0.8658
vn -0.5076 -0.0709 -0.8587
vn -0.9244 0.3774 0.0547
vn -0.8044 -0.2743 -0.5269
vn -0.5076 -0.0710 -0.8586
vn -0.8044 -0.2743 -0.5270
vn -0.9899 -0.0748 -0.1205
vn -0.5637 -0.7374 -0.3721
vn -0.0834 -0.4082 -0.9091
vn 0.2340 -0.5759 -0.7833
vn 0.2155 0.3254 -0.9207
vn 0.5610 0.2271 -0.7960
vn 0.2339 -0.5759 -0.7833
vn -0.0833 -0.4082 -0.9091
vn 0.5170 -0.6603 -0.5448
vn 0.5611 0.2271 -0.7960
vn 0.8251 0.0962 -0.5568
vn 0.5610 0.2271 -0.7961
vn 0.1077 0.9110 -0.3982
vn 0.4430 0.8681 -0.2241
vn 0.8251 0.0962 -0.5567
vn 0.4430 0.8680 -0.2241
vn 0.7139 0.7000 -0.0180
vn -0.3256 0.9076 0.2651
vn -0.0312 0.8643 0.5019
vn 0.1077 0.9110 -0.3981
vn -0.3256 0.9076 0.2650
vn 0.7139 0.7000 -0.0179
vn 0.2671 0.6965 0.6660
vn 0.4430 0.8681 -0.2240
vn -0.0312 0.8643 0.5020
vn -0.7580 0.3178 0.5695
vn -0.5046 0.2188 0.8352
vn -0.7581 0.3178 0.5695
vn -0.1788 0.0884 0.9799
vn -0.0313 0.8643 0.5019
vn -0.5046 0.2188 0.8351
vn -0.8641 -0.4142 0.2859
vn -0.6207 -0.5826 0.5248
vn -0.8641 -0.4142 0.2860
vn -0.1788 0.0883 0.9799
vn -0.6206 -0.5826 0.5248
vn -0.2881 -0.6666 0.6875
vn -0.5638 -0.7374 -0.3721
vn -0.2920 -0.9362 -0.1955
vn -0.8641 -0.4143 0.2860
vn -0.5638 -0.7373 -0.3721
vn -0.2919 -0.9362 -0.1955
vn 0.0215 -0.9997 0.0090
vn -0.2919 -0.9362 -0.1956
vn -0.2920 -0.9362 -0.1956
vn 0.0216 -0.9997 0.0090
vn 0.5169 -0.6603 -0.5448
vn -0.0453 -0.9984 -0.0348
vn 0.4627 -0.6503 -0.6025
vn -0.0453 -0.9984 -0.0347
vn 0.0215 -0.9997 0.0089
vn -0.2508 0.1173 0.9609
vn -0.3628 -0.6568 0.6611
vn 0.6646 0.7446 -0.0623
vn 0.2065 0.7409 0.6390
vn 0.6647 0.7445 -0.0623
vn 0.4627 -0.6503 -0.6026
vn 0.7787 0.1253 -0.6148
vn -0.3629 -0.6568 0.6611
vn -0.3628 -0.6567 0.6611
vn 0.2065 0.7410 0.6390
vn -0.2507 0.1173 0.9609
vn 0.7786 0.1254 -0.6148
vn 0.6647 0.7445 -0.0622
vn 0.7787 0.1254 -0.6148
vn -0.7581 0.3177 0.5695
vn -0.9244 0.3774 0.0546
vn 0.1076 0.9110 -0.3981
vn -0.3896 0.7438 -0.5431
vn -0.0833 -0.4081 -0.9091
vn -0.3896 0.7438 -0.5430
vn 0.2156 0.3254 -0.9207
vn -0.8641 -0.4143 0.2859
vn 0.2488 -0.5820 -0.7742
vn 0.5760 0.2214 -0.7869
vn -0.6063 -0.5888 0.5346
vn -0.2774 -0.9426 -0.1860
vn -0.0166 0.8589 0.5118
vn -0.4902 0.2131 0.8452
vn -0.0166 0.8590 0.5118
vn 0.5761 0.2214 -0.7869
vn 0.4580 0.8627 -0.2146
vn -0.2774 -0.9426 -0.1861
vn 0.2488 -0.5821 -0.7742
vn -0.6063 -0.5887 0.5346
vn 0.4579 0.8627 -0.2146
vt 0.543243 0.635056
vt 0.535370 0.641335
vt 0.537796 0.636299
vt 0.537796 0.646370
vt 0.547607 0.638535
vt 0.543243 0.647614
vt 0.547607 0.644127
vt 0.593674 0.671494
vt 0.598511 0.669548
vt 0.596146 0.672157
vt 0.592773 0.669609
vt 0.596436 0.666756
vt 0.592804 0.667854
vt 0.594147 0.666748
vt 0.591187 0.666855
vt 0.590591 0.669838
vt 0.587372 0.669685
vt 0.591782 0.673050
vt 0.588348 0.674789
vt 0.582382 0.669067
vt 0.582687 0.676537
vt 0.595596 0.675606
vt 0.592606 0.680244
vt 0.586334 0.684982
vt 0.603775 0.674767
vt 0.603561 0.686485
vt 0.594009 0.696274
vt 0.603775 0.658051
vt 0.597107 0.663902
vt 0.596405 0.659698
vt 0.602859 0.665543
vt 0.600342 0.651657
vt 0.594193 0.655174
vt 0.593353 0.664742
vt 0.591705 0.661980
vt 0.588959 0.658463
vt 0.588654 0.665283
vt 0.584778 0.662933
vt 0.580322 0.660286
vt 0.576584 0.668175
vt 0.591812 0.651588
vt 0.585907 0.654999
vt 0.579453 0.688484
vt 0.584915 0.699394
vt 0.576157 0.678001
vt 0.597061 0.648293
vt 0.627350 0.682632
vt 0.649124 0.687675
vt 0.627441 0.688225
vt 0.649033 0.682457
vt 0.627441 0.671455
vt 0.649033 0.677231
vt 0.627350 0.677048
vt 0.649124 0.672005
vt 0.627914 0.660294
vt 0.649292 0.666786
vt 0.627625 0.665871
vt 0.649551 0.661568
vt 0.649292 0.692902
vt 0.627625 0.693810
vt 0.649551 0.698120
vt 0.627914 0.699394
s 0
usemtl decorations
f 240/1/1 239/2/1 238/3/1
f 237/1/1 236/4/1 235/2/1
f 234/5/1 233/4/1 232/1/1
f 231/5/1 230/6/1 229/4/1
f 228/6/1 227/5/1 226/7/1
s 1
f 225/8/2 224/9/3 223/10/4
f 222/11/5 221/9/6 220/8/7
f 219/11/8 218/12/9 217/9/3
f 216/13/10 215/12/9 214/11/11
f 213/12/9 212/13/12 211/14/13
f 210/15/14 209/11/11 208/16/15
f 207/15/14 206/13/10 205/11/5
f 204/17/16 203/18/17 202/19/18
f 201/17/19 200/16/20 199/18/17
f 198/20/21 197/19/22 196/21/23
f 195/20/21 194/17/19 193/19/24
f 192/19/18 191/22/25 190/23/26
f 189/19/18 188/18/17 187/22/25
f 186/21/27 185/23/28 184/24/29
f 183/21/27 3/19/18 182/23/28
f 181/23/26 180/25/30 179/26/31
f 178/23/26 177/22/32 176/25/33
f 175/24/34 174/26/31 173/27/35
f 172/24/34 4/23/36 171/26/31
f 170/28/37 169/29/38 168/30/39
f 167/28/37 166/31/30 165/29/40
f 164/32/35 163/30/39 162/33/41
f 161/32/35 13/28/42 160/30/43
f 159/30/39 158/34/44 157/35/45
f 156/30/39 155/29/40 154/34/46
f 153/33/47 152/35/48 151/36/49
f 150/33/47 14/30/39 149/35/48
f 148/35/48 147/15/50 146/37/51
f 145/35/48 144/34/52 143/15/53
f 142/36/49 141/37/54 140/38/55
f 139/36/49 16/35/48 138/37/54
f 137/37/56 136/16/20 135/17/16
f 134/37/57 133/15/50 132/16/15
f 131/38/58 130/17/16 129/20/59
f 128/38/55 36/37/51 25/17/16
f 127/39/60 126/20/59 125/40/61
f 124/39/62 123/38/63 122/20/59
f 121/41/64 120/36/49 119/42/65
f 118/41/64 117/33/47 116/36/49
f 115/43/66 114/27/35 113/44/67
f 112/43/68 111/24/34 110/27/35
f 109/40/69 108/21/23 107/45/70
f 106/40/61 40/20/21 105/21/23
f 104/42/71 103/38/55 102/39/62
f 101/42/72 41/36/49 42/38/55
f 100/46/73 99/33/41 98/41/74
f 97/46/73 37/32/35 38/33/41
f 96/45/75 95/24/34 94/43/76
f 93/45/77 33/21/27 34/24/34
f 92/29/78 91/14/13 90/34/46
f 89/29/78 88/12/79 87/14/13
f 86/22/80 85/9/6 84/25/33
f 83/22/32 82/10/81 81/9/6
f 80/16/82 79/8/2 78/18/17
f 29/16/82 30/11/5 77/8/7
f 76/31/30 75/12/9 28/29/40
f 31/31/30 26/9/6 27/12/79
f 74/18/17 73/10/83 24/22/25
f 21/18/84 22/8/7 23/10/4
f 72/34/85 71/13/12 20/15/50
f 17/34/85 18/14/13 19/13/10
f 70/47/86 69/48/75 68/49/87
f 67/47/86 66/50/61 65/48/77
f 64/51/88 63/52/62 62/53/89
f 61/51/88 60/54/65 59/52/62
f 58/55/90 57/56/64 56/57/91
f 55/55/92 54/58/73 53/56/74
f 52/49/93 51/59/66 50/60/94
f 2/49/87 32/48/77 49/59/68
f 48/53/95 47/50/61 12/47/96
f 9/53/95 10/52/62 11/50/61
f 46/57/91 45/54/65 8/51/97
f 5/57/91 6/56/64 7/54/65
f 44/60/94 43/61/73 15/62/92
f 1/60/98 35/59/76 39/61/73
