# Blender 5.0.0
# www.blender.org
mtllib Circle_005_Circle_003_Dupli_29_decorations_0.mtl
o Circle.005|Circle.003|Dupli|29_decorations_0
v -4.402617 1.439263 0.774735
v -4.402539 1.438247 0.773762
v -4.396796 1.441961 0.769911
v -4.396908 1.443410 0.771299
v -4.404472 1.440751 0.773850
v -4.400739 1.443600 0.771055
v -4.401094 1.442994 0.769942
v -4.404852 1.440103 0.772658
v -4.404331 1.438921 0.772097
v -4.400607 1.441889 0.769417
v -4.399645 1.441117 0.769876
v -4.403302 1.438095 0.772588
v -4.398135 1.445000 0.771354
v -4.399554 1.445533 0.770035
v -4.403478 1.440377 0.774774
v -4.400096 1.444609 0.768336
v -4.398797 1.445204 0.767819
v -4.397650 1.445448 0.767657
v -4.397256 1.444552 0.767231
v -4.398192 1.443832 0.767167
v -4.396111 1.443049 0.769101
v -4.395898 1.444041 0.768493
v -4.395957 1.444811 0.769230
v -4.396202 1.444228 0.770230
v -4.397884 1.441744 0.768236
v -4.396609 1.445655 0.769259
v -4.397362 1.445939 0.768559
v -4.398355 1.445956 0.769202
v -4.396997 1.442873 0.767738
v -4.396476 1.443926 0.767604
v -4.397201 1.445522 0.770275
v -4.398932 1.441259 0.770974
v -4.398008 1.441384 0.770611
v -4.398105 1.442638 0.771812
v -4.399005 1.442208 0.771883
v -4.399353 1.442923 0.767535
v -4.399167 1.444014 0.771860
v -4.400395 1.444476 0.770719
v -4.399809 1.443250 0.771919
v -4.398951 1.441197 0.769162
v -4.400865 1.443676 0.769248
v -4.400222 1.442217 0.768555
v -4.399809 1.443250 0.771919
v -4.402617 1.439263 0.774735
v -4.401094 1.442994 0.769942
v -4.404472 1.440751 0.773850
v -4.399645 1.441117 0.769876
v -4.404331 1.438921 0.772097
v -4.399005 1.442208 0.771883
v -4.402617 1.439263 0.774735
v -4.399005 1.442208 0.771883
v -4.402539 1.438247 0.773762
v -4.400739 1.443600 0.771055
v -4.399809 1.443250 0.771919
v -4.403478 1.440377 0.774774
v -4.404472 1.440751 0.773850
v -4.400739 1.443600 0.771055
v -4.403478 1.440377 0.774774
v -4.400607 1.441889 0.769417
v -4.401094 1.442994 0.769942
v -4.404852 1.440103 0.772658
v -4.404331 1.438921 0.772097
v -4.400607 1.441889 0.769417
v -4.404852 1.440103 0.772658
v -4.398932 1.441259 0.770974
v -4.399645 1.441117 0.769876
v -4.403302 1.438095 0.772588
v -4.402539 1.438247 0.773762
v -4.398932 1.441259 0.770974
v -4.403302 1.438095 0.772588
v -4.397256 1.444552 0.767231
v -4.398797 1.445204 0.767819
v -4.395957 1.444811 0.769230
v -4.396111 1.443049 0.769101
v -4.397362 1.445939 0.768559
v -4.397201 1.445522 0.770275
v -4.395898 1.444041 0.768493
v -4.396111 1.443049 0.769101
v -4.395898 1.444041 0.768493
v -4.396997 1.442873 0.767738
v -4.396609 1.445655 0.769259
v -4.395957 1.444811 0.769230
v -4.396202 1.444228 0.770230
v -4.397201 1.445522 0.770275
v -4.396609 1.445655 0.769259
v -4.396202 1.444228 0.770230
v -4.397650 1.445448 0.767657
v -4.397362 1.445939 0.768559
v -4.398355 1.445956 0.769202
v -4.398797 1.445204 0.767819
v -4.397650 1.445448 0.767657
v -4.398355 1.445956 0.769202
v -4.398932 1.441259 0.770974
v -4.399005 1.442208 0.771883
v -4.398105 1.442638 0.771812
v -4.398932 1.441259 0.770974
v -4.399809 1.443250 0.771919
v -4.400739 1.443600 0.771055
v -4.400395 1.444476 0.770719
v -4.399809 1.443250 0.771919
v -4.401094 1.442994 0.769942
v -4.400607 1.441889 0.769417
v -4.400222 1.442217 0.768555
v -4.401094 1.442994 0.769942
v -4.398008 1.441384 0.770611
v -4.399645 1.441117 0.769876
v -4.398932 1.441259 0.770974
v -4.398008 1.441384 0.770611
v -4.399645 1.441117 0.769876
v -4.399167 1.444014 0.771860
v -4.398105 1.442638 0.771812
v -4.399005 1.442208 0.771883
v -4.399809 1.443250 0.771919
v -4.399167 1.444014 0.771860
v -4.399005 1.442208 0.771883
v -4.400865 1.443676 0.769248
v -4.400395 1.444476 0.770719
v -4.400739 1.443600 0.771055
v -4.401094 1.442994 0.769942
v -4.400865 1.443676 0.769248
v -4.400739 1.443600 0.771055
v -4.398951 1.441197 0.769162
v -4.400222 1.442217 0.768555
v -4.400607 1.441889 0.769417
v -4.399645 1.441117 0.769876
v -4.398951 1.441197 0.769162
v -4.400607 1.441889 0.769417
v -4.400222 1.442217 0.768555
v -4.398951 1.441197 0.769162
v -4.397884 1.441744 0.768236
v -4.400222 1.442217 0.768555
v -4.396997 1.442873 0.767738
v -4.398192 1.443832 0.767167
v -4.399353 1.442923 0.767535
v -4.397884 1.441744 0.768236
v -4.396997 1.442873 0.767738
v -4.399353 1.442923 0.767535
v -4.399353 1.442923 0.767535
v -4.400865 1.443676 0.769248
v -4.400222 1.442217 0.768555
v -4.399353 1.442923 0.767535
v -4.400865 1.443676 0.769248
v -4.398192 1.443832 0.767167
v -4.398797 1.445204 0.767819
v -4.400096 1.444609 0.768336
v -4.399353 1.442923 0.767535
v -4.398192 1.443832 0.767167
v -4.400096 1.444609 0.768336
v -4.400096 1.444609 0.768336
v -4.400395 1.444476 0.770719
v -4.400865 1.443676 0.769248
v -4.400096 1.444609 0.768336
v -4.400395 1.444476 0.770719
v -4.398797 1.445204 0.767819
v -4.398355 1.445956 0.769202
v -4.399554 1.445533 0.770035
v -4.400096 1.444609 0.768336
v -4.398797 1.445204 0.767819
v -4.399554 1.445533 0.770035
v -4.399554 1.445533 0.770035
v -4.399167 1.444014 0.771860
v -4.400395 1.444476 0.770719
v -4.399554 1.445533 0.770035
v -4.399167 1.444014 0.771860
v -4.398355 1.445956 0.769202
v -4.397201 1.445522 0.770275
v -4.398135 1.445000 0.771354
v -4.399554 1.445533 0.770035
v -4.398355 1.445956 0.769202
v -4.398135 1.445000 0.771354
v -4.398135 1.445000 0.771354
v -4.398105 1.442638 0.771812
v -4.399167 1.444014 0.771860
v -4.398135 1.445000 0.771354
v -4.398105 1.442638 0.771812
v -4.397201 1.445522 0.770275
v -4.396202 1.444228 0.770230
v -4.396908 1.443410 0.771299
v -4.398135 1.445000 0.771354
v -4.397201 1.445522 0.770275
v -4.396908 1.443410 0.771299
v -4.396908 1.443410 0.771299
v -4.398008 1.441384 0.770611
v -4.398105 1.442638 0.771812
v -4.396908 1.443410 0.771299
v -4.398008 1.441384 0.770611
v -4.396202 1.444228 0.770230
v -4.396111 1.443049 0.769101
v -4.396796 1.441961 0.769911
v -4.396908 1.443410 0.771299
v -4.396202 1.444228 0.770230
v -4.396796 1.441961 0.769911
v -4.396796 1.441961 0.769911
v -4.397884 1.441744 0.768236
v -4.398951 1.441197 0.769162
v -4.398008 1.441384 0.770611
v -4.396796 1.441961 0.769911
v -4.398951 1.441197 0.769162
v -4.396111 1.443049 0.769101
v -4.396997 1.442873 0.767738
v -4.397884 1.441744 0.768236
v -4.396796 1.441961 0.769911
v -4.396111 1.443049 0.769101
v -4.397884 1.441744 0.768236
v -4.396476 1.443926 0.767604
v -4.397256 1.444552 0.767231
v -4.398192 1.443832 0.767167
v -4.396997 1.442873 0.767738
v -4.396476 1.443926 0.767604
v -4.398192 1.443832 0.767167
v -4.397650 1.445448 0.767657
v -4.397256 1.444552 0.767231
v -4.397362 1.445939 0.768559
v -4.396476 1.443926 0.767604
v -4.397362 1.445939 0.768559
v -4.397256 1.444552 0.767231
v -4.396609 1.445655 0.769259
v -4.397362 1.445939 0.768559
v -4.396476 1.443926 0.767604
v -4.395898 1.444041 0.768493
v -4.396609 1.445655 0.769259
v -4.396476 1.443926 0.767604
v -4.395957 1.444811 0.769230
v -4.396609 1.445655 0.769259
v -4.395898 1.444041 0.768493
v -4.404852 1.440103 0.772658
v -4.404472 1.440751 0.773850
v -4.404331 1.438921 0.772097
v -4.403302 1.438095 0.772588
v -4.404331 1.438921 0.772097
v -4.404472 1.440751 0.773850
v -4.403478 1.440377 0.774774
v -4.403302 1.438095 0.772588
v -4.404472 1.440751 0.773850
v -4.402539 1.438247 0.773762
v -4.403302 1.438095 0.772588
v -4.403478 1.440377 0.774774
v -4.402617 1.439263 0.774735
v -4.402539 1.438247 0.773762
v -4.403478 1.440377 0.774774
vn -0.6736 -0.5376 0.5072
vn 0.9443 0.0455 -0.3259
vn 0.6182 0.7856 0.0255
vn 0.9172 0.3983 0.0120
vn 0.6792 -0.0073 -0.7339
vn 0.6183 0.7855 0.0255
vn 0.6793 -0.0073 -0.7338
vn 0.2727 0.9155 -0.2957
vn 0.3216 0.2797 -0.9046
vn 0.3217 0.2797 -0.9046
vn 0.1407 0.6904 -0.7096
vn -0.1050 -0.0465 -0.9934
vn 0.4740 -0.5111 -0.7170
vn 0.2434 -0.7794 -0.5773
vn 0.9031 -0.4257 -0.0565
vn 0.7131 -0.6858 0.1455
vn 0.2434 -0.7793 -0.5774
vn 0.4740 -0.5112 -0.7169
vn 0.9031 -0.4257 -0.0566
vn -0.0220 -0.9347 -0.3547
vn 0.7131 -0.6858 0.1456
vn 0.4205 -0.8466 0.3263
vn 0.2434 -0.7794 -0.5774
vn 0.8592 0.1455 0.4905
vn 0.6650 -0.0606 0.7444
vn 0.3752 -0.2576 0.8904
vn 0.3753 0.7724 0.5124
vn 0.1353 0.6256 0.7683
vn 0.8591 0.1455 0.4906
vn 0.3751 -0.2576 0.8905
vn -0.1238 0.3889 0.9129
vn 0.3752 -0.2576 0.8905
vn 0.6650 -0.0605 0.7444
vn 0.1353 0.6257 0.7683
vn -0.1842 0.9829 -0.0075
vn -0.4770 0.8560 0.1992
vn -0.1841 0.9829 -0.0075
vn -0.4771 0.8560 0.1992
vn -0.7006 0.6059 0.3768
vn -0.3979 0.6185 -0.6776
vn -0.7110 0.4571 -0.5344
vn -0.7007 0.6059 0.3768
vn -0.9210 0.2301 -0.3142
vn -0.7110 0.4570 -0.5344
vn -0.3904 -0.2707 -0.8799
vn -0.3979 0.6184 -0.6777
vn -0.1050 -0.0464 -0.9934
vn -0.9211 0.2300 -0.3142
vn -0.6190 -0.4555 -0.6398
vn -0.3904 -0.2708 -0.8799
vn 0.4740 -0.5112 -0.7170
vn -0.3903 -0.2707 -0.8800
vn -0.6190 -0.4556 -0.6397
vn -0.0219 -0.9347 -0.3547
vn -0.3904 -0.2707 -0.8800
vn -0.5776 -0.4216 -0.6990
vn -0.0220 -0.9347 -0.3548
vn 0.0346 -0.9129 -0.4067
vn -0.6613 0.6669 0.3434
vn -0.8874 0.2815 -0.3652
vn 0.4418 -0.2185 0.8701
vn -0.1237 0.3889 0.9129
vn -0.0698 0.4443 0.8931
vn 0.3752 -0.2575 0.8905
vn 0.4882 -0.8226 0.2916
vn -0.8873 0.2815 -0.3652
vn -0.7006 0.6059 0.3769
vn -0.6614 0.6668 0.3434
vn 0.4883 -0.8225 0.2916
vn -0.1842 0.9829 -0.0076
vn 0.2728 0.9155 -0.2957
vn 0.8592 0.1456 0.4906
vn 0.6183 0.7855 0.0254
vn 0.3753 0.7724 0.5123
vn 0.9031 -0.4258 -0.0565
vn -0.3978 0.6184 -0.6777
vn 0.2311 -0.7897 -0.5683
vn 0.7010 -0.6961 0.1550
vn 0.0345 -0.9129 -0.4067
vn -0.7238 0.4473 -0.5253
vn -0.4031 -0.2808 -0.8710
vn -0.7238 0.4474 -0.5253
vn 0.1229 0.6161 0.7781
vn -0.6614 0.6669 0.3434
vn -0.4897 0.8465 0.2087
vn 0.1229 0.6161 0.7780
vn -0.0698 0.4443 0.8932
vn 0.6529 -0.0706 0.7542
vn -0.4030 -0.2808 -0.8710
vn 0.2310 -0.7897 -0.5683
vn -0.4030 -0.2808 -0.8711
vn 0.6529 -0.0705 0.7542
vn 0.1229 0.6160 0.7781
vt 0.530319 0.611839
vt 0.522446 0.618118
vt 0.524872 0.613083
vt 0.524872 0.623154
vt 0.534683 0.615326
vt 0.530319 0.624397
vt 0.534683 0.620918
vt 0.537079 0.671494
vt 0.541916 0.669548
vt 0.539566 0.672157
vt 0.536179 0.669609
vt 0.539856 0.666756
vt 0.536224 0.667854
vt 0.537567 0.666748
vt 0.534592 0.666855
vt 0.534012 0.669838
vt 0.530777 0.669685
vt 0.535187 0.673050
vt 0.531769 0.674789
vt 0.525803 0.669067
vt 0.526108 0.676537
vt 0.539017 0.675606
vt 0.536011 0.680244
vt 0.529755 0.684982
vt 0.547180 0.674767
vt 0.546982 0.686485
vt 0.537415 0.696274
vt 0.547180 0.658051
vt 0.540527 0.663902
vt 0.539825 0.659698
vt 0.546280 0.665543
vt 0.543762 0.651657
vt 0.537613 0.655174
vt 0.536758 0.664742
vt 0.535126 0.661980
vt 0.532364 0.658463
vt 0.532074 0.665283
vt 0.528198 0.662933
vt 0.523743 0.660286
vt 0.519989 0.668175
vt 0.535217 0.651588
vt 0.529327 0.654999
vt 0.522873 0.688484
vt 0.528320 0.699394
vt 0.519577 0.678001
vt 0.540466 0.648293
vt 0.604446 0.642853
vt 0.626221 0.647896
vt 0.604553 0.648445
vt 0.626144 0.642670
vt 0.604553 0.631676
vt 0.626144 0.637444
vt 0.604446 0.637268
vt 0.626221 0.632225
vt 0.605011 0.620506
vt 0.626404 0.626999
vt 0.604736 0.626091
vt 0.626663 0.621780
vt 0.626404 0.653114
vt 0.604736 0.654030
vt 0.626663 0.658333
vt 0.605011 0.659607
s 0
usemtl decorations
f 240/1/1 239/2/1 238/3/1
f 237/1/1 236/4/1 235/2/1
f 234/5/1 233/4/1 232/1/1
f 231/5/1 230/6/1 229/4/1
f 228/6/1 227/5/1 226/7/1
s 1
f 225/8/2 224/9/3 223/10/4
f 222/11/5 221/9/6 220/8/2
f 219/11/7 218/12/8 217/9/3
f 216/13/9 215/12/8 214/11/7
f 213/12/8 212/13/10 211/14/11
f 210/15/12 209/11/7 208/16/13
f 207/15/12 206/13/10 205/11/7
f 204/17/14 203/18/15 202/19/16
f 201/17/17 200/16/18 199/18/19
f 198/20/20 197/19/21 196/21/22
f 195/20/20 194/17/23 193/19/16
f 192/19/16 191/22/24 190/23/25
f 189/19/16 188/18/15 187/22/24
f 186/21/22 185/23/25 184/24/26
f 183/21/22 3/19/16 182/23/25
f 181/23/25 180/25/27 179/26/28
f 178/23/25 177/22/29 176/25/27
f 175/24/30 174/26/28 173/27/31
f 172/24/32 4/23/33 171/26/28
f 170/28/34 169/29/35 168/30/36
f 167/28/34 166/31/27 165/29/37
f 164/32/31 163/30/38 162/33/39
f 161/32/31 13/28/34 160/30/36
f 159/30/36 158/34/40 157/35/41
f 156/30/36 155/29/35 154/34/40
f 153/33/42 152/35/41 151/36/43
f 150/33/42 14/30/36 149/35/41
f 148/35/44 147/15/12 146/37/45
f 145/35/44 144/34/46 143/15/47
f 142/36/48 141/37/45 140/38/49
f 139/36/48 16/35/41 138/37/45
f 137/37/50 136/16/51 135/17/23
f 134/37/52 133/15/12 132/16/13
f 131/38/53 130/17/23 129/20/54
f 128/38/53 36/37/55 25/17/23
f 127/39/56 126/20/57 125/40/58
f 124/39/56 123/38/49 122/20/57
f 121/41/59 120/36/43 119/42/60
f 118/41/59 117/33/42 116/36/43
f 115/43/61 114/27/62 113/44/63
f 112/43/61 111/24/64 110/27/62
f 109/40/58 108/21/22 107/45/65
f 106/40/58 40/20/20 105/21/22
f 104/42/66 103/38/49 102/39/56
f 101/42/60 41/36/43 42/38/49
f 100/46/63 99/33/67 98/41/68
f 97/46/63 37/32/31 38/33/67
f 96/45/69 95/24/26 94/43/61
f 93/45/69 33/21/22 34/24/26
f 92/29/70 91/14/11 90/34/40
f 89/29/70 88/12/71 87/14/11
f 86/22/72 85/9/6 84/25/27
f 83/22/72 82/10/4 81/9/73
f 80/16/18 79/8/2 78/18/19
f 29/16/18 30/11/5 77/8/2
f 76/31/74 75/12/8 28/29/37
f 31/31/27 26/9/73 27/12/71
f 74/18/15 73/10/4 24/22/24
f 21/18/75 22/8/2 23/10/4
f 72/34/76 71/13/10 20/15/12
f 17/34/46 18/14/11 19/13/10
f 70/47/77 69/48/69 68/49/78
f 67/47/77 66/50/79 65/48/69
f 64/51/80 63/52/56 62/53/81
f 61/51/82 60/54/60 59/52/56
f 58/55/83 57/56/84 56/57/85
f 55/55/86 54/58/87 53/56/68
f 52/49/78 51/59/61 50/60/88
f 2/49/78 32/48/65 49/59/61
f 48/53/89 47/50/58 12/47/90
f 9/53/91 10/52/56 11/50/58
f 46/57/85 45/54/66 8/51/82
f 5/57/85 6/56/84 7/54/60
f 44/60/92 43/61/63 15/62/93
f 1/60/92 35/59/61 39/61/87
