# Blender 5.0.0
# www.blender.org
mtllib Circle_002_Circle_001_Dupli_274_decorations_0.mtl
o Circle.002|Circle.001|Dupli|274_decorations_0
v -4.607808 1.595473 0.732908
v -4.606435 1.595329 0.732630
v -4.604434 1.597376 0.739939
v -4.606393 1.597581 0.740335
v -4.608293 1.597843 0.732143
v -4.607009 1.599633 0.737144
v -4.605838 1.600045 0.736708
v -4.607040 1.598284 0.731676
v -4.605819 1.597584 0.731642
v -4.604696 1.599390 0.736676
v -4.604445 1.598160 0.737073
v -4.605550 1.596268 0.732067
v -4.607573 1.599178 0.740025
v -4.607085 1.600963 0.739243
v -4.608635 1.596592 0.732691
v -4.605297 1.601593 0.738577
v -4.604987 1.601685 0.740062
v -4.604787 1.601409 0.741195
v -4.603862 1.600878 0.741169
v -4.603570 1.600872 0.740023
v -4.604285 1.598254 0.741170
v -4.604329 1.599169 0.741918
v -4.605369 1.599279 0.742128
v -4.605879 1.598421 0.741493
v -4.603171 1.598716 0.739135
v -4.605996 1.600126 0.741964
v -4.605737 1.601075 0.741548
v -4.606442 1.601173 0.740604
v -4.603257 1.599344 0.740516
v -4.603658 1.599881 0.741491
v -4.606839 1.599720 0.741241
v -4.605272 1.597282 0.737600
v -4.604885 1.597147 0.738512
v -4.606581 1.597325 0.738855
v -4.606555 1.597417 0.737859
v -4.603555 1.600592 0.738529
v -4.607602 1.598707 0.738587
v -4.607180 1.600252 0.737909
v -4.607329 1.598463 0.737657
v -4.603792 1.598307 0.737816
v -4.605632 1.600797 0.737333
v -4.604125 1.599932 0.737291
v -4.607329 1.598463 0.737657
v -4.607808 1.595473 0.732908
v -4.605838 1.600045 0.736708
v -4.608293 1.597843 0.732143
v -4.604445 1.598160 0.737073
v -4.605819 1.597584 0.731642
v -4.606555 1.597417 0.737859
v -4.607808 1.595473 0.732908
v -4.606555 1.597417 0.737859
v -4.606435 1.595329 0.732630
v -4.607009 1.599633 0.737144
v -4.607329 1.598463 0.737657
v -4.608635 1.596592 0.732691
v -4.608293 1.597843 0.732143
v -4.607009 1.599633 0.737144
v -4.608635 1.596592 0.732691
v -4.604696 1.599390 0.736676
v -4.605838 1.600045 0.736708
v -4.607040 1.598284 0.731676
v -4.605819 1.597584 0.731642
v -4.604696 1.599390 0.736676
v -4.607040 1.598284 0.731676
v -4.605272 1.597282 0.737600
v -4.604445 1.598160 0.737073
v -4.605550 1.596268 0.732067
v -4.606435 1.595329 0.732630
v -4.605272 1.597282 0.737600
v -4.605550 1.596268 0.732067
v -4.603862 1.600878 0.741169
v -4.604987 1.601685 0.740062
v -4.605369 1.599279 0.742128
v -4.604285 1.598254 0.741170
v -4.605737 1.601075 0.741548
v -4.606839 1.599720 0.741241
v -4.604329 1.599169 0.741918
v -4.604285 1.598254 0.741170
v -4.604329 1.599169 0.741918
v -4.603257 1.599344 0.740516
v -4.605996 1.600126 0.741964
v -4.605369 1.599279 0.742128
v -4.605879 1.598421 0.741493
v -4.606839 1.599720 0.741241
v -4.605996 1.600126 0.741964
v -4.605879 1.598421 0.741493
v -4.604787 1.601409 0.741195
v -4.605737 1.601075 0.741548
v -4.606442 1.601173 0.740604
v -4.604987 1.601685 0.740062
v -4.604787 1.601409 0.741195
v -4.606442 1.601173 0.740604
v -4.605272 1.597282 0.737600
v -4.606555 1.597417 0.737859
v -4.606581 1.597325 0.738855
v -4.605272 1.597282 0.737600
v -4.607329 1.598463 0.737657
v -4.607009 1.599633 0.737144
v -4.607180 1.600252 0.737909
v -4.607329 1.598463 0.737657
v -4.605838 1.600045 0.736708
v -4.604696 1.599390 0.736676
v -4.604125 1.599932 0.737291
v -4.605838 1.600045 0.736708
v -4.604885 1.597147 0.738512
v -4.604445 1.598160 0.737073
v -4.605272 1.597282 0.737600
v -4.604885 1.597147 0.738512
v -4.604445 1.598160 0.737073
v -4.607602 1.598707 0.738587
v -4.606581 1.597325 0.738855
v -4.606555 1.597417 0.737859
v -4.607329 1.598463 0.737657
v -4.607602 1.598707 0.738587
v -4.606555 1.597417 0.737859
v -4.605632 1.600797 0.737333
v -4.607180 1.600252 0.737909
v -4.607009 1.599633 0.737144
v -4.605838 1.600045 0.736708
v -4.605632 1.600797 0.737333
v -4.607009 1.599633 0.737144
v -4.603792 1.598307 0.737816
v -4.604125 1.599932 0.737291
v -4.604696 1.599390 0.736676
v -4.604445 1.598160 0.737073
v -4.603792 1.598307 0.737816
v -4.604696 1.599390 0.736676
v -4.604125 1.599932 0.737291
v -4.603792 1.598307 0.737816
v -4.603171 1.598716 0.739135
v -4.604125 1.599932 0.737291
v -4.603257 1.599344 0.740516
v -4.603570 1.600872 0.740023
v -4.603555 1.600592 0.738529
v -4.603171 1.598716 0.739135
v -4.603257 1.599344 0.740516
v -4.603555 1.600592 0.738529
v -4.603555 1.600592 0.738529
v -4.605632 1.600797 0.737333
v -4.604125 1.599932 0.737291
v -4.603555 1.600592 0.738529
v -4.605632 1.600797 0.737333
v -4.603570 1.600872 0.740023
v -4.604987 1.601685 0.740062
v -4.605297 1.601593 0.738577
v -4.603555 1.600592 0.738529
v -4.603570 1.600872 0.740023
v -4.605297 1.601593 0.738577
v -4.605297 1.601593 0.738577
v -4.607180 1.600252 0.737909
v -4.605632 1.600797 0.737333
v -4.605297 1.601593 0.738577
v -4.607180 1.600252 0.737909
v -4.604987 1.601685 0.740062
v -4.606442 1.601173 0.740604
v -4.607085 1.600963 0.739243
v -4.605297 1.601593 0.738577
v -4.604987 1.601685 0.740062
v -4.607085 1.600963 0.739243
v -4.607085 1.600963 0.739243
v -4.607602 1.598707 0.738587
v -4.607180 1.600252 0.737909
v -4.607085 1.600963 0.739243
v -4.607602 1.598707 0.738587
v -4.606442 1.601173 0.740604
v -4.606839 1.599720 0.741241
v -4.607573 1.599178 0.740025
v -4.607085 1.600963 0.739243
v -4.606442 1.601173 0.740604
v -4.607573 1.599178 0.740025
v -4.607573 1.599178 0.740025
v -4.606581 1.597325 0.738855
v -4.607602 1.598707 0.738587
v -4.607573 1.599178 0.740025
v -4.606581 1.597325 0.738855
v -4.606839 1.599720 0.741241
v -4.605879 1.598421 0.741493
v -4.606393 1.597581 0.740335
v -4.607573 1.599178 0.740025
v -4.606839 1.599720 0.741241
v -4.606393 1.597581 0.740335
v -4.606393 1.597581 0.740335
v -4.604885 1.597147 0.738512
v -4.606581 1.597325 0.738855
v -4.606393 1.597581 0.740335
v -4.604885 1.597147 0.738512
v -4.605879 1.598421 0.741493
v -4.604285 1.598254 0.741170
v -4.604434 1.597376 0.739939
v -4.606393 1.597581 0.740335
v -4.605879 1.598421 0.741493
v -4.604434 1.597376 0.739939
v -4.604434 1.597376 0.739939
v -4.603171 1.598716 0.739135
v -4.603792 1.598307 0.737816
v -4.604885 1.597147 0.738512
v -4.604434 1.597376 0.739939
v -4.603792 1.598307 0.737816
v -4.604285 1.598254 0.741170
v -4.603257 1.599344 0.740516
v -4.603171 1.598716 0.739135
v -4.604434 1.597376 0.739939
v -4.604285 1.598254 0.741170
v -4.603171 1.598716 0.739135
v -4.603658 1.599881 0.741491
v -4.603862 1.600878 0.741169
v -4.603570 1.600872 0.740023
v -4.603257 1.599344 0.740516
v -4.603658 1.599881 0.741491
v -4.603570 1.600872 0.740023
v -4.604787 1.601409 0.741195
v -4.603862 1.600878 0.741169
v -4.605737 1.601075 0.741548
v -4.603658 1.599881 0.741491
v -4.605737 1.601075 0.741548
v -4.603862 1.600878 0.741169
v -4.605996 1.600126 0.741964
v -4.605737 1.601075 0.741548
v -4.603658 1.599881 0.741491
v -4.604329 1.599169 0.741918
v -4.605996 1.600126 0.741964
v -4.603658 1.599881 0.741491
v -4.605369 1.599279 0.742128
v -4.605996 1.600126 0.741964
v -4.604329 1.599169 0.741918
v -4.607040 1.598284 0.731676
v -4.608293 1.597843 0.732143
v -4.605819 1.597584 0.731642
v -4.605550 1.596268 0.732067
v -4.605819 1.597584 0.731642
v -4.608293 1.597843 0.732143
v -4.608635 1.596592 0.732691
v -4.605550 1.596268 0.732067
v -4.608293 1.597843 0.732143
v -4.606435 1.595329 0.732630
v -4.605550 1.596268 0.732067
v -4.608635 1.596592 0.732691
v -4.607808 1.595473 0.732908
v -4.606435 1.595329 0.732630
v -4.608635 1.596592 0.732691
vn -0.2206 -0.3403 -0.9141
vn 0.4072 -0.2189 0.8867
vn -0.3572 0.2201 0.9077
vn -0.0698 -0.1688 0.9832
vn 0.7149 0.1075 0.6909
vn -0.3572 0.2200 0.9078
vn 0.4073 -0.2189 0.8867
vn 0.7148 0.1075 0.6910
vn -0.2384 0.6548 0.7172
vn 0.6213 0.5646 0.5434
vn 0.7149 0.1075 0.6910
vn 0.6213 0.5645 0.5434
vn 0.1971 0.8081 0.5551
vn 0.8010 0.5979 0.0306
vn 0.9524 -0.1420 0.2696
vn 0.9523 -0.2947 -0.0788
vn 0.4545 -0.6705 0.5864
vn 0.4073 -0.8730 0.2681
vn 0.9524 -0.2946 -0.0787
vn 0.9524 -0.1421 0.2696
vn 0.4545 -0.6704 0.5865
vn 0.8149 -0.4045 -0.4151
vn 0.4073 -0.8731 0.2681
vn 0.3014 -0.9494 -0.0883
vn 0.9524 -0.2947 -0.0787
vn 0.4073 -0.8730 0.2682
vn -0.3179 -0.5894 0.7427
vn -0.4382 -0.7843 0.4391
vn 0.3014 -0.9494 -0.0884
vn -0.4381 -0.7843 0.4391
vn -0.4950 -0.8658 0.0728
vn -0.7831 0.0401 0.6206
vn -0.9474 -0.0953 0.3055
vn -0.3179 -0.5894 0.7426
vn -0.4951 -0.8658 0.0727
vn -0.9748 -0.2167 -0.0532
vn -0.9474 -0.0953 0.3054
vn -0.5909 0.7440 0.3121
vn -0.7370 0.6752 -0.0321
vn -0.7831 0.0401 0.6205
vn -0.5908 0.7440 0.3121
vn -0.7370 0.6752 -0.0322
vn -0.7765 0.5091 -0.3712
vn 0.1141 0.9922 0.0496
vn 0.0348 0.9469 -0.3196
vn -0.7765 0.5091 -0.3713
vn -0.0495 0.7651 -0.6420
vn -0.7369 0.6752 -0.0322
vn 0.7866 0.5153 -0.3403
vn 0.1142 0.9922 0.0495
vn 0.8010 0.5979 0.0307
vn 0.6587 0.3586 -0.6615
vn 0.7866 0.5152 -0.3403
vn 0.9525 -0.1421 0.2695
vn 0.9523 -0.2947 -0.0787
vn 0.7866 0.5153 -0.3402
vn 0.6587 0.3585 -0.6615
vn 0.6942 0.3964 -0.6008
vn 0.8543 -0.3860 -0.3482
vn 0.6941 0.3964 -0.6008
vn -0.7775 0.5509 -0.3032
vn -0.0321 0.8134 -0.5808
vn -0.4890 -0.8589 0.1521
vn -0.9809 -0.1934 0.0229
vn -0.4889 -0.8590 0.1521
vn 0.3278 -0.9447 -0.0132
vn 0.8149 -0.4045 -0.4152
vn -0.9809 -0.1933 0.0230
vn -0.9809 -0.1934 0.0230
vn 0.3278 -0.9447 -0.0131
vn -0.4890 -0.8590 0.1520
vn -0.2384 0.6548 0.7173
vn 0.1971 0.8081 0.5550
vn -0.3571 0.2200 0.9078
vn 0.4073 -0.2188 0.8867
vn 0.1142 0.9922 0.0496
vn 0.9488 -0.3011 -0.0957
vn 0.4034 -0.8798 0.2514
vn 0.9488 -0.3011 -0.0956
vn 0.8543 -0.3859 -0.3482
vn 0.0308 0.9411 -0.3367
vn 0.7829 0.5093 -0.3574
vn 0.0308 0.9411 -0.3366
vn -0.9520 -0.1016 0.2887
vn -0.7415 0.6692 -0.0491
vn -0.4424 -0.7911 0.4224
vn 0.7829 0.5093 -0.3573
vn -0.7414 0.6692 -0.0491
vn 0.0307 0.9411 -0.3366
vn -0.4425 -0.7911 0.4224
vn -0.4425 -0.7910 0.4225
vn -0.4889 -0.8590 0.1520
vt 0.543243 0.635056
vt 0.535370 0.641335
vt 0.537796 0.636299
vt 0.537796 0.646370
vt 0.547607 0.638535
vt 0.543243 0.647614
vt 0.547607 0.644127
vt 0.593674 0.671494
vt 0.598511 0.669548
vt 0.596146 0.672157
vt 0.592773 0.669609
vt 0.596436 0.666756
vt 0.592804 0.667854
vt 0.594147 0.666748
vt 0.591187 0.666855
vt 0.590591 0.669838
vt 0.587372 0.669685
vt 0.591782 0.673050
vt 0.588348 0.674789
vt 0.582382 0.669067
vt 0.582687 0.676537
vt 0.595596 0.675606
vt 0.592606 0.680244
vt 0.586334 0.684982
vt 0.603775 0.674767
vt 0.603561 0.686485
vt 0.594009 0.696274
vt 0.603775 0.658051
vt 0.597107 0.663902
vt 0.596405 0.659698
vt 0.602859 0.665543
vt 0.600342 0.651657
vt 0.594193 0.655174
vt 0.593353 0.664742
vt 0.591705 0.661980
vt 0.588959 0.658463
vt 0.588654 0.665283
vt 0.584778 0.662933
vt 0.580322 0.660286
vt 0.576584 0.668175
vt 0.591812 0.651588
vt 0.585907 0.654999
vt 0.579453 0.688484
vt 0.584915 0.699394
vt 0.576157 0.678001
vt 0.597061 0.648293
vt 0.627350 0.682632
vt 0.649124 0.687675
vt 0.627441 0.688225
vt 0.649033 0.682457
vt 0.627441 0.671455
vt 0.649033 0.677231
vt 0.627350 0.677048
vt 0.649124 0.672005
vt 0.627914 0.660294
vt 0.649292 0.666786
vt 0.627625 0.665871
vt 0.649551 0.661568
vt 0.649292 0.692902
vt 0.627625 0.693810
vt 0.649551 0.698120
vt 0.627914 0.699394
s 0
usemtl decorations
f 240/1/1 239/2/1 238/3/1
f 237/1/1 236/4/1 235/2/1
f 234/5/1 233/4/1 232/1/1
f 231/5/1 230/6/1 229/4/1
f 228/6/1 227/5/1 226/7/1
s 1
f 225/8/2 224/9/3 223/10/4
f 222/11/5 221/9/6 220/8/7
f 219/11/8 218/12/9 217/9/3
f 216/13/10 215/12/9 214/11/11
f 213/12/9 212/13/12 211/14/13
f 210/15/14 209/11/8 208/16/15
f 207/15/14 206/13/10 205/11/8
f 204/17/16 203/18/17 202/19/18
f 201/17/19 200/16/20 199/18/21
f 198/20/22 197/19/23 196/21/24
f 195/20/22 194/17/25 193/19/26
f 192/19/18 191/22/27 190/23/28
f 189/19/18 188/18/17 187/22/27
f 186/21/29 185/23/30 184/24/31
f 183/21/29 3/19/18 182/23/30
f 181/23/28 180/25/32 179/26/33
f 178/23/28 177/22/34 176/25/32
f 175/24/35 174/26/33 173/27/36
f 172/24/35 4/23/28 171/26/33
f 170/28/37 169/29/38 168/30/39
f 167/28/37 166/31/40 165/29/41
f 164/32/36 163/30/42 162/33/43
f 161/32/36 13/28/37 160/30/39
f 159/30/42 158/34/44 157/35/45
f 156/30/39 155/29/41 154/34/44
f 153/33/46 152/35/45 151/36/47
f 150/33/46 14/30/48 149/35/45
f 148/35/45 147/15/14 146/37/49
f 145/35/45 144/34/50 143/15/51
f 142/36/47 141/37/49 140/38/52
f 139/36/47 16/35/45 138/37/49
f 137/37/53 136/16/54 135/17/55
f 134/37/56 133/15/14 132/16/15
f 131/38/57 130/17/55 129/20/22
f 128/38/57 36/37/49 25/17/55
f 127/39/58 126/20/22 125/40/59
f 124/39/60 123/38/57 122/20/22
f 121/41/61 120/36/47 119/42/62
f 118/41/61 117/33/46 116/36/47
f 115/43/63 114/27/36 113/44/64
f 112/43/65 111/24/35 110/27/36
f 109/40/59 108/21/24 107/45/66
f 106/40/59 40/20/67 105/21/24
f 104/42/62 103/38/57 102/39/60
f 101/42/62 41/36/47 42/38/57
f 100/46/68 99/33/43 98/41/61
f 97/46/69 37/32/36 38/33/43
f 96/45/70 95/24/35 94/43/71
f 93/45/70 33/21/24 34/24/35
f 92/29/41 91/14/13 90/34/44
f 89/29/41 88/12/72 87/14/73
f 86/22/27 85/9/6 84/25/32
f 83/22/27 82/10/4 81/9/74
f 80/16/20 79/8/7 78/18/21
f 29/16/20 30/11/5 77/8/75
f 76/31/32 75/12/9 28/29/41
f 31/31/32 26/9/74 27/12/9
f 74/18/17 73/10/4 24/22/27
f 21/18/17 22/8/75 23/10/4
f 72/34/76 71/13/12 20/15/14
f 17/34/76 18/14/13 19/13/10
f 70/47/77 69/48/70 68/49/78
f 67/47/79 66/50/80 65/48/70
f 64/51/81 63/52/58 62/53/82
f 61/51/83 60/54/62 59/52/60
f 58/55/84 57/56/61 56/57/85
f 55/55/84 54/58/64 53/56/61
f 52/49/78 51/59/65 50/60/86
f 2/49/78 32/48/70 49/59/65
f 48/53/82 47/50/59 12/47/77
f 9/53/87 10/52/58 11/50/59
f 46/57/88 45/54/62 8/51/89
f 5/57/88 6/56/61 7/54/62
f 44/60/90 43/61/69 15/62/84
f 1/60/91 35/59/92 39/61/69
