# Blender 5.0.0
# www.blender.org
mtllib Circle_005_Circle_004_Dupli_76_decorations_0.mtl
o Circle.005|Circle.004|Dupli|76_decorations_0
v -4.520244 1.697821 0.744868
v -4.520668 1.697222 0.743667
v -4.523473 1.704016 0.740915
v -4.522868 1.704871 0.742629
v -4.522197 1.697396 0.746432
v -4.524436 1.702098 0.744779
v -4.525284 1.701440 0.744017
v -4.523103 1.696691 0.745616
v -4.522961 1.696315 0.744267
v -4.525151 1.701088 0.742755
v -4.524138 1.701309 0.741944
v -4.521877 1.696551 0.743399
v -4.523839 1.704982 0.744385
v -4.525655 1.704265 0.744860
v -4.520924 1.697899 0.746099
v -4.526948 1.703259 0.743696
v -4.527184 1.704634 0.743093
v -4.527032 1.705662 0.742527
v -4.526924 1.705377 0.741504
v -4.527019 1.704198 0.741526
v -4.524356 1.705250 0.740830
v -4.525187 1.706063 0.741050
v -4.524865 1.706518 0.741960
v -4.523864 1.705946 0.742225
v -4.525199 1.703060 0.740533
v -4.525381 1.706576 0.742893
v -4.526345 1.706195 0.743145
v -4.526131 1.705452 0.744040
v -4.525761 1.704472 0.740519
v -4.526103 1.705556 0.740847
v -4.524654 1.706036 0.743654
v -4.523007 1.701936 0.742194
v -4.523057 1.702718 0.741574
v -4.522533 1.703458 0.743058
v -4.522611 1.702496 0.743317
v -4.526745 1.702723 0.741771
v -4.523374 1.703554 0.744577
v -4.524945 1.702933 0.744988
v -4.523247 1.702569 0.744468
v -4.524551 1.701890 0.741243
v -4.526065 1.702063 0.743981
v -4.525889 1.701599 0.742315
v -4.523247 1.702569 0.744468
v -4.520244 1.697821 0.744868
v -4.525284 1.701440 0.744017
v -4.522197 1.697396 0.746432
v -4.524138 1.701309 0.741944
v -4.522961 1.696315 0.744267
v -4.522611 1.702496 0.743317
v -4.520244 1.697821 0.744868
v -4.522611 1.702496 0.743317
v -4.520668 1.697222 0.743667
v -4.524436 1.702098 0.744779
v -4.523247 1.702569 0.744468
v -4.520924 1.697899 0.746099
v -4.522197 1.697396 0.746432
v -4.524436 1.702098 0.744779
v -4.520924 1.697899 0.746099
v -4.525151 1.701088 0.742755
v -4.525284 1.701440 0.744017
v -4.523103 1.696691 0.745616
v -4.522961 1.696315 0.744267
v -4.525151 1.701088 0.742755
v -4.523103 1.696691 0.745616
v -4.523007 1.701936 0.742194
v -4.524138 1.701309 0.741944
v -4.521877 1.696551 0.743399
v -4.520668 1.697222 0.743667
v -4.523007 1.701936 0.742194
v -4.521877 1.696551 0.743399
v -4.526924 1.705377 0.741504
v -4.527184 1.704634 0.743093
v -4.524865 1.706518 0.741960
v -4.524356 1.705250 0.740830
v -4.526345 1.706195 0.743145
v -4.524654 1.706036 0.743654
v -4.525187 1.706063 0.741050
v -4.524356 1.705250 0.740830
v -4.525187 1.706063 0.741050
v -4.525761 1.704472 0.740519
v -4.525381 1.706576 0.742893
v -4.524865 1.706518 0.741960
v -4.523864 1.705946 0.742225
v -4.524654 1.706036 0.743654
v -4.525381 1.706576 0.742893
v -4.523864 1.705946 0.742225
v -4.527032 1.705662 0.742527
v -4.526345 1.706195 0.743145
v -4.526131 1.705452 0.744040
v -4.527184 1.704634 0.743093
v -4.527032 1.705662 0.742527
v -4.526131 1.705452 0.744040
v -4.523007 1.701936 0.742194
v -4.522611 1.702496 0.743317
v -4.522533 1.703458 0.743058
v -4.523007 1.701936 0.742194
v -4.523247 1.702569 0.744468
v -4.524436 1.702098 0.744779
v -4.524945 1.702933 0.744988
v -4.523247 1.702569 0.744468
v -4.525284 1.701440 0.744017
v -4.525151 1.701088 0.742755
v -4.525889 1.701599 0.742315
v -4.525284 1.701440 0.744017
v -4.523057 1.702718 0.741574
v -4.524138 1.701309 0.741944
v -4.523007 1.701936 0.742194
v -4.523057 1.702718 0.741574
v -4.524138 1.701309 0.741944
v -4.523374 1.703554 0.744577
v -4.522533 1.703458 0.743058
v -4.522611 1.702496 0.743317
v -4.523247 1.702569 0.744468
v -4.523374 1.703554 0.744577
v -4.522611 1.702496 0.743317
v -4.526065 1.702063 0.743981
v -4.524945 1.702933 0.744988
v -4.524436 1.702098 0.744779
v -4.525284 1.701440 0.744017
v -4.526065 1.702063 0.743981
v -4.524436 1.702098 0.744779
v -4.524551 1.701890 0.741243
v -4.525889 1.701599 0.742315
v -4.525151 1.701088 0.742755
v -4.524138 1.701309 0.741944
v -4.524551 1.701890 0.741243
v -4.525151 1.701088 0.742755
v -4.525889 1.701599 0.742315
v -4.524551 1.701890 0.741243
v -4.525199 1.703060 0.740533
v -4.525889 1.701599 0.742315
v -4.525761 1.704472 0.740519
v -4.527019 1.704198 0.741526
v -4.526745 1.702723 0.741771
v -4.525199 1.703060 0.740533
v -4.525761 1.704472 0.740519
v -4.526745 1.702723 0.741771
v -4.526745 1.702723 0.741771
v -4.526065 1.702063 0.743981
v -4.525889 1.701599 0.742315
v -4.526745 1.702723 0.741771
v -4.526065 1.702063 0.743981
v -4.527019 1.704198 0.741526
v -4.527184 1.704634 0.743093
v -4.526948 1.703259 0.743696
v -4.526745 1.702723 0.741771
v -4.527019 1.704198 0.741526
v -4.526948 1.703259 0.743696
v -4.526948 1.703259 0.743696
v -4.524945 1.702933 0.744988
v -4.526065 1.702063 0.743981
v -4.526948 1.703259 0.743696
v -4.524945 1.702933 0.744988
v -4.527184 1.704634 0.743093
v -4.526131 1.705452 0.744040
v -4.525655 1.704265 0.744860
v -4.526948 1.703259 0.743696
v -4.527184 1.704634 0.743093
v -4.525655 1.704265 0.744860
v -4.525655 1.704265 0.744860
v -4.523374 1.703554 0.744577
v -4.524945 1.702933 0.744988
v -4.525655 1.704265 0.744860
v -4.523374 1.703554 0.744577
v -4.526131 1.705452 0.744040
v -4.524654 1.706036 0.743654
v -4.523839 1.704982 0.744385
v -4.525655 1.704265 0.744860
v -4.526131 1.705452 0.744040
v -4.523839 1.704982 0.744385
v -4.523839 1.704982 0.744385
v -4.522533 1.703458 0.743058
v -4.523374 1.703554 0.744577
v -4.523839 1.704982 0.744385
v -4.522533 1.703458 0.743058
v -4.524654 1.706036 0.743654
v -4.523864 1.705946 0.742225
v -4.522868 1.704871 0.742629
v -4.523839 1.704982 0.744385
v -4.524654 1.706036 0.743654
v -4.522868 1.704871 0.742629
v -4.522868 1.704871 0.742629
v -4.523057 1.702718 0.741574
v -4.522533 1.703458 0.743058
v -4.522868 1.704871 0.742629
v -4.523057 1.702718 0.741574
v -4.523864 1.705946 0.742225
v -4.524356 1.705250 0.740830
v -4.523473 1.704016 0.740915
v -4.522868 1.704871 0.742629
v -4.523864 1.705946 0.742225
v -4.523473 1.704016 0.740915
v -4.523473 1.704016 0.740915
v -4.525199 1.703060 0.740533
v -4.524551 1.701890 0.741243
v -4.523057 1.702718 0.741574
v -4.523473 1.704016 0.740915
v -4.524551 1.701890 0.741243
v -4.524356 1.705250 0.740830
v -4.525761 1.704472 0.740519
v -4.525199 1.703060 0.740533
v -4.523473 1.704016 0.740915
v -4.524356 1.705250 0.740830
v -4.525199 1.703060 0.740533
v -4.526103 1.705556 0.740847
v -4.526924 1.705377 0.741504
v -4.527019 1.704198 0.741526
v -4.525761 1.704472 0.740519
v -4.526103 1.705556 0.740847
v -4.527019 1.704198 0.741526
v -4.527032 1.705662 0.742527
v -4.526924 1.705377 0.741504
v -4.526345 1.706195 0.743145
v -4.526103 1.705556 0.740847
v -4.526345 1.706195 0.743145
v -4.526924 1.705377 0.741504
v -4.525381 1.706576 0.742893
v -4.526345 1.706195 0.743145
v -4.526103 1.705556 0.740847
v -4.525187 1.706063 0.741050
v -4.525381 1.706576 0.742893
v -4.526103 1.705556 0.740847
v -4.524865 1.706518 0.741960
v -4.525381 1.706576 0.742893
v -4.525187 1.706063 0.741050
v -4.523103 1.696691 0.745616
v -4.522197 1.697396 0.746432
v -4.522961 1.696315 0.744267
v -4.521877 1.696551 0.743399
v -4.522961 1.696315 0.744267
v -4.522197 1.697396 0.746432
v -4.520924 1.697899 0.746099
v -4.521877 1.696551 0.743399
v -4.522197 1.697396 0.746432
v -4.520668 1.697222 0.743667
v -4.521877 1.696551 0.743399
v -4.520924 1.697899 0.746099
v -4.520244 1.697821 0.744868
v -4.520668 1.697222 0.743667
v -4.520924 1.697899 0.746099
vn 0.4158 -0.8639 0.2843
vn 0.0190 0.7460 -0.6657
vn -0.0701 0.9813 0.1794
vn 0.1663 0.9543 -0.2482
vn -0.4013 0.5131 -0.7587
vn 0.0189 0.7460 -0.6657
vn -0.4012 0.5132 -0.7587
vn -0.5123 0.8065 0.2951
vn -0.7779 0.4311 -0.4572
vn -0.7778 0.4311 -0.4573
vn -0.8273 0.5617 0.0117
vn -0.8731 -0.1045 -0.4762
vn -0.4013 0.5132 -0.7587
vn -0.2635 0.0283 -0.9642
vn -0.7778 0.4312 -0.4572
vn -0.1183 -0.3223 -0.9392
vn 0.4168 0.4053 -0.8136
vn 0.6263 0.0904 -0.7744
vn -0.1184 -0.3223 -0.9392
vn -0.2634 0.0283 -0.9643
vn 0.0436 -0.6259 -0.7787
vn 0.6263 0.0904 -0.7743
vn 0.7451 -0.2371 -0.6234
vn 0.0436 -0.6258 -0.7787
vn 0.6554 0.7426 -0.1377
vn 0.8875 0.4596 -0.0345
vn 0.4169 0.4053 -0.8136
vn 0.9911 0.1107 0.0735
vn 0.2727 0.7862 0.5545
vn 0.4685 0.5073 0.7233
vn 0.6555 0.7426 -0.1377
vn 0.9911 0.1107 0.0736
vn 0.5964 0.1557 0.7874
vn -0.4431 0.5033 0.7418
vn -0.3150 0.1977 0.9283
vn 0.2727 0.7862 0.5546
vn 0.5964 0.1556 0.7874
vn -0.3150 0.1976 0.9283
vn -0.1417 -0.1360 0.9805
vn -0.9531 0.1070 0.2831
vn -0.8733 -0.2363 0.4261
vn -0.4432 0.5033 0.7418
vn -0.1417 -0.1361 0.9805
vn -0.6676 -0.5448 0.5075
vn -0.3151 0.1976 0.9283
vn -0.7857 -0.4676 -0.4050
vn -0.9531 0.1069 0.2831
vn -0.8731 -0.1044 -0.4761
vn -0.5851 -0.7627 -0.2754
vn -0.7857 -0.4677 -0.4050
vn -0.2635 0.0283 -0.9643
vn -0.5851 -0.7628 -0.2754
vn 0.0436 -0.6258 -0.7788
vn -0.7857 -0.4676 -0.4049
vn -0.6352 -0.7089 -0.3066
vn 0.0095 -0.5685 -0.8226
vn -0.5851 -0.7628 -0.2755
vn -0.1806 -0.0663 0.9813
vn -0.7198 -0.4854 0.4963
vn 0.9811 0.1868 0.0514
vn 0.5965 0.1557 0.7874
vn 0.5764 0.2328 0.7833
vn 0.9811 0.1867 0.0514
vn 0.7288 -0.1699 -0.6633
vn -0.6352 -0.7089 -0.3065
vn 0.5764 0.2329 0.7833
vn 0.7288 -0.1699 -0.6634
vn -0.5123 0.8065 0.2950
vn -0.8273 0.5616 0.0117
vn -0.1107 -0.3384 -0.9345
vn 0.7287 -0.1699 -0.6634
vn 0.6343 0.0744 -0.7695
vn -0.8660 -0.2524 0.4316
vn -0.7784 -0.4839 -0.3999
vn -0.8661 -0.2524 0.4316
vn 0.4764 0.4916 0.7290
vn -0.3075 0.1818 0.9340
vn 0.4764 0.4916 0.7289
vn 0.9811 0.1868 0.0513
vn 0.8956 0.4438 -0.0293
vn 0.6343 0.0745 -0.7695
vn 0.9811 0.1867 0.0513
vn -0.7784 -0.4838 -0.3999
vn 0.8956 0.4438 -0.0292
vn 0.4765 0.4916 0.7289
vt 0.530319 0.635056
vt 0.522446 0.641335
vt 0.524872 0.636299
vt 0.524872 0.646370
vt 0.534683 0.638535
vt 0.530319 0.647614
vt 0.534683 0.644127
vt 0.508789 0.671494
vt 0.513626 0.669548
vt 0.511276 0.672157
vt 0.507889 0.669609
vt 0.511566 0.666756
vt 0.507935 0.667854
vt 0.509277 0.666748
vt 0.506302 0.666855
vt 0.505722 0.669838
vt 0.502487 0.669685
vt 0.506897 0.673050
vt 0.503479 0.674789
vt 0.497520 0.669067
vt 0.497810 0.676537
vt 0.510727 0.675606
vt 0.507721 0.680244
vt 0.501465 0.684982
vt 0.518890 0.674767
vt 0.518692 0.686485
vt 0.509125 0.696274
vt 0.518890 0.658051
vt 0.512238 0.663902
vt 0.511536 0.659698
vt 0.517990 0.665543
vt 0.515472 0.651657
vt 0.509323 0.655174
vt 0.508469 0.664742
vt 0.506836 0.661980
vt 0.504074 0.658463
vt 0.503784 0.665283
vt 0.499901 0.662933
vt 0.495453 0.660286
vt 0.491707 0.668175
vt 0.506927 0.651588
vt 0.501038 0.654999
vt 0.494583 0.688484
vt 0.500031 0.699394
vt 0.491287 0.678001
vt 0.512177 0.648293
vt 0.627350 0.642853
vt 0.649124 0.647896
vt 0.627441 0.648445
vt 0.649033 0.642670
vt 0.627441 0.631676
vt 0.649033 0.637444
vt 0.627350 0.637268
vt 0.649124 0.632225
vt 0.627914 0.620506
vt 0.649292 0.626999
vt 0.627625 0.626091
vt 0.649551 0.621780
vt 0.649292 0.653114
vt 0.627625 0.654030
vt 0.649551 0.658333
vt 0.627914 0.659607
s 0
usemtl decorations
f 240/1/1 239/2/1 238/3/1
f 237/1/1 236/4/1 235/2/1
f 234/5/1 233/4/1 232/1/1
f 231/5/1 230/6/1 229/4/1
f 228/6/1 227/5/1 226/7/1
s 1
f 225/8/2 224/9/3 223/10/4
f 222/11/5 221/9/3 220/8/6
f 219/11/7 218/12/8 217/9/3
f 216/13/9 215/12/8 214/11/7
f 213/12/8 212/13/10 211/14/11
f 210/15/12 209/11/13 208/16/14
f 207/15/12 206/13/15 205/11/13
f 204/17/16 203/18/17 202/19/18
f 201/17/19 200/16/20 199/18/17
f 198/20/21 197/19/22 196/21/23
f 195/20/24 194/17/19 193/19/18
f 192/19/22 191/22/25 190/23/26
f 189/19/18 188/18/27 187/22/25
f 186/21/23 185/23/26 184/24/28
f 183/21/23 3/19/22 182/23/26
f 181/23/26 180/25/29 179/26/30
f 178/23/26 177/22/31 176/25/29
f 175/24/32 174/26/30 173/27/33
f 172/24/32 4/23/26 171/26/30
f 170/28/30 169/29/34 168/30/35
f 167/28/30 166/31/36 165/29/34
f 164/32/37 163/30/38 162/33/39
f 161/32/37 13/28/30 160/30/35
f 159/30/35 158/34/40 157/35/41
f 156/30/35 155/29/42 154/34/40
f 153/33/43 152/35/41 151/36/44
f 150/33/43 14/30/45 149/35/41
f 148/35/41 147/15/12 146/37/46
f 145/35/41 144/34/47 143/15/48
f 142/36/44 141/37/46 140/38/49
f 139/36/44 16/35/41 138/37/46
f 137/37/50 136/16/51 135/17/16
f 134/37/46 133/15/12 132/16/14
f 131/38/52 130/17/16 129/20/53
f 128/38/52 36/37/54 25/17/16
f 127/39/55 126/20/53 125/40/56
f 124/39/55 123/38/57 122/20/53
f 121/41/58 120/36/44 119/42/59
f 118/41/58 117/33/43 116/36/44
f 115/43/60 114/27/61 113/44/62
f 112/43/63 111/24/32 110/27/61
f 109/40/56 108/21/23 107/45/64
f 106/40/56 40/20/21 105/21/23
f 104/42/59 103/38/49 102/39/65
f 101/42/59 41/36/44 42/38/49
f 100/46/66 99/33/39 98/41/58
f 97/46/66 37/32/33 38/33/39
f 96/45/67 95/24/32 94/43/63
f 93/45/67 33/21/23 34/24/32
f 92/29/42 91/14/11 90/34/40
f 89/29/42 88/12/68 87/14/69
f 86/22/25 85/9/3 84/25/29
f 83/22/25 82/10/4 81/9/3
f 80/16/20 79/8/6 78/18/17
f 29/16/20 30/11/5 77/8/6
f 76/31/29 75/12/8 28/29/34
f 31/31/29 26/9/3 27/12/68
f 74/18/27 73/10/4 24/22/25
f 21/18/27 22/8/6 23/10/4
f 72/34/47 71/13/10 20/15/12
f 17/34/47 18/14/11 19/13/15
f 70/47/70 69/48/71 68/49/72
f 67/47/70 66/50/56 65/48/71
f 64/51/73 63/52/55 62/53/74
f 61/51/75 60/54/59 59/52/65
f 58/55/76 57/56/58 56/57/77
f 55/55/78 54/58/62 53/56/58
f 52/49/72 51/59/79 50/60/80
f 2/49/81 32/48/64 49/59/82
f 48/53/74 47/50/56 12/47/70
f 9/53/83 10/52/55 11/50/56
f 46/57/77 45/54/59 8/51/73
f 5/57/77 6/56/58 7/54/59
f 44/60/84 43/61/66 15/62/85
f 1/60/84 35/59/63 39/61/66
