# Blender 5.0.0
# www.blender.org
mtllib Circle_002_Circle_003_Dupli_257_decorations_0.mtl
o Circle.002|Circle.003|Dupli|257_decorations_0
v -4.433059 1.199266 0.394520
v -4.433928 1.198199 0.394817
v -4.440008 1.201814 0.391413
v -4.438766 1.203336 0.390989
v -4.433133 1.200662 0.396639
v -4.437366 1.203429 0.394567
v -4.438197 1.202754 0.395334
v -4.434022 1.199939 0.397459
v -4.434701 1.198739 0.397173
v -4.438832 1.201632 0.395067
v -4.438793 1.200908 0.393968
v -4.434660 1.197965 0.395998
v -4.438261 1.204899 0.392146
v -4.438873 1.205327 0.394011
v -4.432704 1.200362 0.395331
v -4.440140 1.204297 0.395181
v -4.441185 1.204890 0.394250
v -4.441829 1.205148 0.393292
v -4.442344 1.204239 0.393076
v -4.441974 1.203496 0.393919
v -4.441077 1.202869 0.391183
v -4.441759 1.203830 0.391291
v -4.441099 1.204638 0.391066
v -4.440066 1.204108 0.390839
v -4.441051 1.201479 0.393097
v -4.440831 1.205469 0.391680
v -4.441156 1.205696 0.392671
v -4.440153 1.205728 0.393298
v -4.441926 1.202597 0.392554
v -4.442312 1.203652 0.392185
v -4.439655 1.205380 0.391780
v -4.438109 1.201127 0.392865
v -4.438835 1.201251 0.392188
v -4.437760 1.202569 0.391822
v -4.437296 1.202124 0.392587
v -4.441110 1.202584 0.394774
v -4.437323 1.203922 0.392823
v -4.437852 1.204292 0.394437
v -4.436965 1.203149 0.393345
v -4.439738 1.200962 0.393646
v -4.438950 1.203400 0.395450
v -4.439789 1.201918 0.395098
v -4.436965 1.203149 0.393345
v -4.433059 1.199266 0.394520
v -4.438197 1.202754 0.395334
v -4.433133 1.200662 0.396639
v -4.438793 1.200908 0.393968
v -4.434701 1.198739 0.397173
v -4.437296 1.202124 0.392587
v -4.433059 1.199266 0.394520
v -4.437296 1.202124 0.392587
v -4.433928 1.198199 0.394817
v -4.437366 1.203429 0.394567
v -4.436965 1.203149 0.393345
v -4.432704 1.200362 0.395331
v -4.433133 1.200662 0.396639
v -4.437366 1.203429 0.394567
v -4.432704 1.200362 0.395331
v -4.438832 1.201632 0.395067
v -4.438197 1.202754 0.395334
v -4.434022 1.199939 0.397459
v -4.434701 1.198739 0.397173
v -4.438832 1.201632 0.395067
v -4.434022 1.199939 0.397459
v -4.438109 1.201127 0.392865
v -4.438793 1.200908 0.393968
v -4.434660 1.197965 0.395998
v -4.433928 1.198199 0.394817
v -4.438109 1.201127 0.392865
v -4.434660 1.197965 0.395998
v -4.442344 1.204239 0.393076
v -4.441185 1.204890 0.394250
v -4.441099 1.204638 0.391066
v -4.441077 1.202869 0.391183
v -4.441156 1.205696 0.392671
v -4.439655 1.205380 0.391780
v -4.441759 1.203830 0.391291
v -4.441077 1.202869 0.391183
v -4.441759 1.203830 0.391291
v -4.441926 1.202597 0.392554
v -4.440831 1.205469 0.391680
v -4.441099 1.204638 0.391066
v -4.440066 1.204108 0.390839
v -4.439655 1.205380 0.391780
v -4.440831 1.205469 0.391680
v -4.440066 1.204108 0.390839
v -4.441829 1.205148 0.393292
v -4.441156 1.205696 0.392671
v -4.440153 1.205728 0.393298
v -4.441185 1.204890 0.394250
v -4.441829 1.205148 0.393292
v -4.440153 1.205728 0.393298
v -4.438109 1.201127 0.392865
v -4.437296 1.202124 0.392587
v -4.437760 1.202569 0.391822
v -4.438109 1.201127 0.392865
v -4.436965 1.203149 0.393345
v -4.437366 1.203429 0.394567
v -4.437852 1.204292 0.394437
v -4.436965 1.203149 0.393345
v -4.438197 1.202754 0.395334
v -4.438832 1.201632 0.395067
v -4.439789 1.201918 0.395098
v -4.438197 1.202754 0.395334
v -4.438835 1.201251 0.392188
v -4.438793 1.200908 0.393968
v -4.438109 1.201127 0.392865
v -4.438835 1.201251 0.392188
v -4.438793 1.200908 0.393968
v -4.437323 1.203922 0.392823
v -4.437760 1.202569 0.391822
v -4.437296 1.202124 0.392587
v -4.436965 1.203149 0.393345
v -4.437323 1.203922 0.392823
v -4.437296 1.202124 0.392587
v -4.438950 1.203400 0.395450
v -4.437852 1.204292 0.394437
v -4.437366 1.203429 0.394567
v -4.438197 1.202754 0.395334
v -4.438950 1.203400 0.395450
v -4.437366 1.203429 0.394567
v -4.439738 1.200962 0.393646
v -4.439789 1.201918 0.395098
v -4.438832 1.201632 0.395067
v -4.438793 1.200908 0.393968
v -4.439738 1.200962 0.393646
v -4.438832 1.201632 0.395067
v -4.439789 1.201918 0.395098
v -4.439738 1.200962 0.393646
v -4.441051 1.201479 0.393097
v -4.439789 1.201918 0.395098
v -4.441926 1.202597 0.392554
v -4.441974 1.203496 0.393919
v -4.441110 1.202584 0.394774
v -4.441051 1.201479 0.393097
v -4.441926 1.202597 0.392554
v -4.441110 1.202584 0.394774
v -4.441110 1.202584 0.394774
v -4.438950 1.203400 0.395450
v -4.439789 1.201918 0.395098
v -4.441110 1.202584 0.394774
v -4.438950 1.203400 0.395450
v -4.441974 1.203496 0.393919
v -4.441185 1.204890 0.394250
v -4.440140 1.204297 0.395181
v -4.441110 1.202584 0.394774
v -4.441974 1.203496 0.393919
v -4.440140 1.204297 0.395181
v -4.440140 1.204297 0.395181
v -4.437852 1.204292 0.394437
v -4.438950 1.203400 0.395450
v -4.440140 1.204297 0.395181
v -4.437852 1.204292 0.394437
v -4.441185 1.204890 0.394250
v -4.440153 1.205728 0.393298
v -4.438873 1.205327 0.394011
v -4.440140 1.204297 0.395181
v -4.441185 1.204890 0.394250
v -4.438873 1.205327 0.394011
v -4.438873 1.205327 0.394011
v -4.437323 1.203922 0.392823
v -4.437852 1.204292 0.394437
v -4.438873 1.205327 0.394011
v -4.437323 1.203922 0.392823
v -4.440153 1.205728 0.393298
v -4.439655 1.205380 0.391780
v -4.438261 1.204899 0.392146
v -4.438873 1.205327 0.394011
v -4.440153 1.205728 0.393298
v -4.438261 1.204899 0.392146
v -4.438261 1.204899 0.392146
v -4.437760 1.202569 0.391822
v -4.437323 1.203922 0.392823
v -4.438261 1.204899 0.392146
v -4.437760 1.202569 0.391822
v -4.439655 1.205380 0.391780
v -4.440066 1.204108 0.390839
v -4.438766 1.203336 0.390989
v -4.438261 1.204899 0.392146
v -4.439655 1.205380 0.391780
v -4.438766 1.203336 0.390989
v -4.438766 1.203336 0.390989
v -4.438835 1.201251 0.392188
v -4.437760 1.202569 0.391822
v -4.438766 1.203336 0.390989
v -4.438835 1.201251 0.392188
v -4.440066 1.204108 0.390839
v -4.441077 1.202869 0.391183
v -4.440008 1.201814 0.391413
v -4.438766 1.203336 0.390989
v -4.440066 1.204108 0.390839
v -4.440008 1.201814 0.391413
v -4.440008 1.201814 0.391413
v -4.441051 1.201479 0.393097
v -4.439738 1.200962 0.393646
v -4.438835 1.201251 0.392188
v -4.440008 1.201814 0.391413
v -4.439738 1.200962 0.393646
v -4.441077 1.202869 0.391183
v -4.441926 1.202597 0.392554
v -4.441051 1.201479 0.393097
v -4.440008 1.201814 0.391413
v -4.441077 1.202869 0.391183
v -4.441051 1.201479 0.393097
v -4.442312 1.203652 0.392185
v -4.442344 1.204239 0.393076
v -4.441974 1.203496 0.393919
v -4.441926 1.202597 0.392554
v -4.442312 1.203652 0.392185
v -4.441974 1.203496 0.393919
v -4.441829 1.205148 0.393292
v -4.442344 1.204239 0.393076
v -4.441156 1.205696 0.392671
v -4.442312 1.203652 0.392185
v -4.441156 1.205696 0.392671
v -4.442344 1.204239 0.393076
v -4.440831 1.205469 0.391680
v -4.441156 1.205696 0.392671
v -4.442312 1.203652 0.392185
v -4.441759 1.203830 0.391291
v -4.440831 1.205469 0.391680
v -4.442312 1.203652 0.392185
v -4.441099 1.204638 0.391066
v -4.440831 1.205469 0.391680
v -4.441759 1.203830 0.391291
v -4.434022 1.199939 0.397459
v -4.433133 1.200662 0.396639
v -4.434701 1.198739 0.397173
v -4.434660 1.197965 0.395998
v -4.434701 1.198739 0.397173
v -4.433133 1.200662 0.396639
v -4.432704 1.200362 0.395331
v -4.434660 1.197965 0.395998
v -4.433133 1.200662 0.396639
v -4.433928 1.198199 0.394817
v -4.434660 1.197965 0.395998
v -4.432704 1.200362 0.395331
v -4.433059 1.199266 0.394520
v -4.433928 1.198199 0.394817
v -4.432704 1.200362 0.395331
vn 0.7674 -0.5226 0.3714
vn -0.6979 0.0476 -0.7146
vn -0.2726 0.7990 -0.5360
vn -0.3956 0.4182 -0.8177
vn -0.9520 -0.0339 -0.3043
vn -0.6980 0.0475 -0.7146
vn -0.9519 -0.0339 -0.3044
vn -0.4216 0.9031 -0.0817
vn -0.9664 0.2352 0.1041
vn -0.9520 -0.0339 -0.3044
vn -0.4216 0.9031 -0.0816
vn -0.9664 0.2351 0.1041
vn -0.7303 0.6522 0.2032
vn -0.8517 -0.1048 0.5135
vn -0.8284 -0.5403 -0.1477
vn -0.5928 -0.8053 -0.0098
vn -0.4171 -0.4085 -0.8119
vn -0.1428 -0.6609 -0.7368
vn -0.5929 -0.8052 -0.0098
vn -0.8283 -0.5404 -0.1478
vn -0.4172 -0.4085 -0.8119
vn -0.2723 -0.9535 0.1293
vn -0.1427 -0.6608 -0.7368
vn 0.1517 -0.8175 -0.5556
vn -0.1428 -0.6608 -0.7368
vn 0.0723 0.1916 -0.9788
vn 0.3930 -0.0040 -0.9195
vn 0.1518 -0.8175 -0.5556
vn 0.6564 -0.1987 -0.7277
vn 0.2715 0.8081 -0.5228
vn 0.6110 0.6708 -0.4204
vn 0.0724 0.1916 -0.9788
vn 0.2714 0.8081 -0.5228
vn 0.6565 -0.1987 -0.7277
vn 0.8618 0.4370 -0.2575
vn 0.6110 0.6708 -0.4203
vn 0.0304 0.9766 0.2127
vn 0.3470 0.8553 0.3847
vn 0.0303 0.9767 0.2127
vn 0.8618 0.4370 -0.2574
vn 0.3471 0.8553 0.3847
vn 0.6131 0.6108 0.5009
vn -0.4695 0.5704 0.6739
vn -0.2001 0.4106 0.8896
vn 0.0303 0.9766 0.2128
vn 0.6132 0.6108 0.5010
vn 0.0977 0.1919 0.9765
vn -0.8517 -0.1047 0.5135
vn -0.6184 -0.3284 0.7140
vn -0.2964 -0.5042 0.8111
vn -0.6184 -0.3284 0.7139
vn -0.8283 -0.5404 -0.1477
vn -0.5929 -0.8052 -0.0099
vn -0.6185 -0.3284 0.7139
vn -0.2963 -0.5043 0.8111
vn -0.2723 -0.9535 0.1292
vn -0.3689 -0.4728 0.8002
vn -0.3442 -0.9334 0.1010
vn -0.2964 -0.5043 0.8111
vn 0.5637 0.6706 0.4822
vn 0.0352 0.2411 0.9699
vn 0.6081 -0.1594 -0.7777
vn 0.8187 0.4924 -0.2955
vn -0.3443 -0.9334 0.1010
vn 0.0906 -0.7940 -0.6011
vn -0.3443 -0.9334 0.1011
vn 0.0351 0.2411 0.9699
vn 0.6132 0.6108 0.5009
vn 0.0905 -0.7939 -0.6012
vn 0.0906 -0.7940 -0.6012
vn -0.7304 0.6521 0.2032
vn 0.0723 0.1917 -0.9788
vn -0.2727 0.7990 -0.5360
vn -0.6980 0.0476 -0.7146
vn 0.0303 0.9766 0.2127
vn -0.6980 0.0476 -0.7145
vn -0.4696 0.5704 0.6739
vn -0.5790 -0.8153 -0.0030
vn 0.0905 -0.7940 -0.6012
vn -0.1287 -0.6709 -0.7303
vn -0.3442 -0.9334 0.1011
vn -0.1861 0.4011 0.8969
vn -0.6045 -0.3382 0.7212
vn -0.1861 0.4012 0.8969
vn 0.6255 0.6615 -0.4137
vn 0.3614 0.8461 0.3917
vn -0.1286 -0.6709 -0.7303
vn 0.4074 -0.0137 -0.9132
vn -0.1287 -0.6708 -0.7304
vn -0.6046 -0.3382 0.7212
vn 0.3614 0.8461 0.3918
vn -0.1860 0.4012 0.8969
vn 0.4074 -0.0137 -0.9131
vn 0.4074 -0.0136 -0.9132
vt 0.530319 0.611839
vt 0.522446 0.618118
vt 0.524872 0.613083
vt 0.524872 0.623154
vt 0.534683 0.615326
vt 0.530319 0.624397
vt 0.534683 0.620918
vt 0.537079 0.671494
vt 0.541916 0.669548
vt 0.539566 0.672157
vt 0.536179 0.669609
vt 0.539856 0.666756
vt 0.536224 0.667854
vt 0.537567 0.666748
vt 0.534592 0.666855
vt 0.534012 0.669838
vt 0.530777 0.669685
vt 0.535187 0.673050
vt 0.531769 0.674789
vt 0.525803 0.669067
vt 0.526108 0.676537
vt 0.539017 0.675606
vt 0.536011 0.680244
vt 0.529755 0.684982
vt 0.547180 0.674767
vt 0.546982 0.686485
vt 0.537415 0.696274
vt 0.547180 0.658051
vt 0.540527 0.663902
vt 0.539825 0.659698
vt 0.546280 0.665543
vt 0.543762 0.651657
vt 0.537613 0.655174
vt 0.536758 0.664742
vt 0.535126 0.661980
vt 0.532364 0.658463
vt 0.532074 0.665283
vt 0.528198 0.662933
vt 0.523743 0.660286
vt 0.519989 0.668175
vt 0.535217 0.651588
vt 0.529327 0.654999
vt 0.522873 0.688484
vt 0.528320 0.699394
vt 0.519577 0.678001
vt 0.540466 0.648293
vt 0.604446 0.642853
vt 0.626221 0.647896
vt 0.604553 0.648445
vt 0.626144 0.642670
vt 0.604553 0.631676
vt 0.626144 0.637444
vt 0.604446 0.637268
vt 0.626221 0.632225
vt 0.605011 0.620506
vt 0.626404 0.626999
vt 0.604736 0.626091
vt 0.626663 0.621780
vt 0.626404 0.653114
vt 0.604736 0.654030
vt 0.626663 0.658333
vt 0.605011 0.659607
s 0
usemtl decorations
f 240/1/1 239/2/1 238/3/1
f 237/1/1 236/4/1 235/2/1
f 234/5/1 233/4/1 232/1/1
f 231/5/1 230/6/1 229/4/1
f 228/6/1 227/5/1 226/7/1
s 1
f 225/8/2 224/9/3 223/10/4
f 222/11/5 221/9/3 220/8/6
f 219/11/7 218/12/8 217/9/3
f 216/13/9 215/12/8 214/11/10
f 213/12/11 212/13/12 211/14/13
f 210/15/14 209/11/10 208/16/15
f 207/15/14 206/13/9 205/11/10
f 204/17/16 203/18/17 202/19/18
f 201/17/19 200/16/20 199/18/21
f 198/20/22 197/19/23 196/21/24
f 195/20/22 194/17/19 193/19/25
f 192/19/18 191/22/26 190/23/27
f 189/19/18 188/18/17 187/22/26
f 186/21/28 185/23/27 184/24/29
f 183/21/28 3/19/18 182/23/27
f 181/23/27 180/25/30 179/26/31
f 178/23/27 177/22/32 176/25/33
f 175/24/34 174/26/31 173/27/35
f 172/24/34 4/23/27 171/26/31
f 170/28/36 169/29/37 168/30/38
f 167/28/36 166/31/30 165/29/39
f 164/32/40 163/30/41 162/33/42
f 161/32/40 13/28/31 160/30/38
f 159/30/38 158/34/43 157/35/44
f 156/30/38 155/29/45 154/34/43
f 153/33/46 152/35/44 151/36/47
f 150/33/46 14/30/38 149/35/44
f 148/35/44 147/15/48 146/37/49
f 145/35/44 144/34/43 143/15/48
f 142/36/47 141/37/49 140/38/50
f 139/36/47 16/35/44 138/37/49
f 137/37/51 136/16/52 135/17/53
f 134/37/54 133/15/14 132/16/15
f 131/38/55 130/17/53 129/20/56
f 128/38/55 36/37/49 25/17/53
f 127/39/57 126/20/22 125/40/58
f 124/39/57 123/38/59 122/20/22
f 121/41/60 120/36/47 119/42/61
f 118/41/60 117/33/46 116/36/47
f 115/43/62 114/27/35 113/44/63
f 112/43/62 111/24/34 110/27/35
f 109/40/64 108/21/24 107/45/65
f 106/40/66 40/20/22 105/21/24
f 104/42/67 103/38/59 102/39/57
f 101/42/61 41/36/47 42/38/59
f 100/46/63 99/33/68 98/41/60
f 97/46/63 37/32/40 38/33/68
f 96/45/69 95/24/34 94/43/62
f 93/45/70 33/21/28 34/24/34
f 92/29/45 91/14/13 90/34/43
f 89/29/45 88/12/8 87/14/71
f 86/22/72 85/9/3 84/25/30
f 83/22/72 82/10/4 81/9/73
f 80/16/20 79/8/2 78/18/21
f 29/16/20 30/11/5 77/8/74
f 76/31/33 75/12/8 28/29/75
f 31/31/30 26/9/73 27/12/8
f 74/18/17 73/10/4 24/22/26
f 21/18/17 22/8/76 23/10/4
f 72/34/77 71/13/9 20/15/48
f 17/34/77 18/14/13 19/13/9
f 70/47/78 69/48/79 68/49/80
f 67/47/78 66/50/81 65/48/79
f 64/51/82 63/52/57 62/53/83
f 61/51/84 60/54/67 59/52/57
f 58/55/85 57/56/60 56/57/86
f 55/55/85 54/58/63 53/56/60
f 52/49/87 51/59/62 50/60/88
f 2/49/89 32/48/70 49/59/62
f 48/53/83 47/50/64 12/47/78
f 9/53/90 10/52/57 11/50/58
f 46/57/91 45/54/67 8/51/92
f 5/57/91 6/56/60 7/54/61
f 44/60/93 43/61/63 15/62/85
f 1/60/94 35/59/62 39/61/63
