# Blender 5.0.0
# www.blender.org
mtllib Circle_002_Circle_001_Dupli_198_decorations_0.mtl
o Circle.002|Circle.001|Dupli|198_decorations_0
v -4.630822 1.543295 0.664075
v -4.631883 1.542923 0.664924
v -4.627942 1.545164 0.671332
v -4.626429 1.545695 0.670121
v -4.629544 1.541122 0.663782
v -4.626567 1.542374 0.668190
v -4.627264 1.541525 0.668916
v -4.630289 1.540213 0.664558
v -4.631455 1.540452 0.665311
v -4.628354 1.541748 0.669620
v -4.629017 1.542875 0.669772
v -4.632164 1.541657 0.665474
v -4.624944 1.544551 0.669396
v -4.624606 1.542595 0.669703
v -4.629781 1.542493 0.663567
v -4.625669 1.541298 0.670810
v -4.625001 1.542026 0.671965
v -4.624674 1.542859 0.672739
v -4.625558 1.543040 0.673309
v -4.626355 1.542303 0.672839
v -4.626851 1.545172 0.672389
v -4.625881 1.544912 0.673015
v -4.625078 1.545194 0.672373
v -4.625619 1.545604 0.671404
v -4.628345 1.543359 0.672116
v -4.624289 1.544587 0.671988
v -4.624110 1.543548 0.672151
v -4.624136 1.543081 0.671064
v -4.627178 1.543703 0.673027
v -4.626095 1.543953 0.673432
v -4.624411 1.544674 0.670814
v -4.628753 1.544058 0.669258
v -4.628574 1.544608 0.670073
v -4.627264 1.545067 0.669025
v -4.627762 1.544406 0.668464
v -4.627333 1.541638 0.671884
v -4.625979 1.544077 0.668398
v -4.625687 1.542384 0.668663
v -4.626789 1.543657 0.667989
v -4.628922 1.543045 0.670752
v -4.626607 1.541261 0.669622
v -4.628047 1.541556 0.670551
v -4.626789 1.543657 0.667989
v -4.630822 1.543295 0.664075
v -4.627264 1.541525 0.668916
v -4.629544 1.541122 0.663782
v -4.629017 1.542875 0.669772
v -4.631455 1.540452 0.665311
v -4.627762 1.544406 0.668464
v -4.630822 1.543295 0.664075
v -4.627762 1.544406 0.668464
v -4.631883 1.542923 0.664924
v -4.626567 1.542374 0.668190
v -4.626789 1.543657 0.667989
v -4.629781 1.542493 0.663567
v -4.629544 1.541122 0.663782
v -4.626567 1.542374 0.668190
v -4.629781 1.542493 0.663567
v -4.628354 1.541748 0.669620
v -4.627264 1.541525 0.668916
v -4.630289 1.540213 0.664558
v -4.631455 1.540452 0.665311
v -4.628354 1.541748 0.669620
v -4.630289 1.540213 0.664558
v -4.628753 1.544058 0.669258
v -4.629017 1.542875 0.669772
v -4.632164 1.541657 0.665474
v -4.631883 1.542923 0.664924
v -4.628753 1.544058 0.669258
v -4.632164 1.541657 0.665474
v -4.625558 1.543040 0.673309
v -4.625001 1.542026 0.671965
v -4.625078 1.545194 0.672373
v -4.626851 1.545172 0.672389
v -4.624110 1.543548 0.672151
v -4.624411 1.544674 0.670814
v -4.625881 1.544912 0.673015
v -4.626851 1.545172 0.672389
v -4.625881 1.544912 0.673015
v -4.627178 1.543703 0.673027
v -4.624289 1.544587 0.671988
v -4.625078 1.545194 0.672373
v -4.625619 1.545604 0.671404
v -4.624411 1.544674 0.670814
v -4.624289 1.544587 0.671988
v -4.625619 1.545604 0.671404
v -4.624674 1.542859 0.672739
v -4.624110 1.543548 0.672151
v -4.624136 1.543081 0.671064
v -4.625001 1.542026 0.671965
v -4.624674 1.542859 0.672739
v -4.624136 1.543081 0.671064
v -4.628753 1.544058 0.669258
v -4.627762 1.544406 0.668464
v -4.627264 1.545067 0.669025
v -4.628753 1.544058 0.669258
v -4.626789 1.543657 0.667989
v -4.626567 1.542374 0.668190
v -4.625687 1.542384 0.668663
v -4.626789 1.543657 0.667989
v -4.627264 1.541525 0.668916
v -4.628354 1.541748 0.669620
v -4.628047 1.541556 0.670551
v -4.627264 1.541525 0.668916
v -4.628574 1.544608 0.670073
v -4.629017 1.542875 0.669772
v -4.628753 1.544058 0.669258
v -4.628574 1.544608 0.670073
v -4.629017 1.542875 0.669772
v -4.625979 1.544077 0.668398
v -4.627264 1.545067 0.669025
v -4.627762 1.544406 0.668464
v -4.626789 1.543657 0.667989
v -4.625979 1.544077 0.668398
v -4.627762 1.544406 0.668464
v -4.626607 1.541261 0.669622
v -4.625687 1.542384 0.668663
v -4.626567 1.542374 0.668190
v -4.627264 1.541525 0.668916
v -4.626607 1.541261 0.669622
v -4.626567 1.542374 0.668190
v -4.628922 1.543045 0.670752
v -4.628047 1.541556 0.670551
v -4.628354 1.541748 0.669620
v -4.629017 1.542875 0.669772
v -4.628922 1.543045 0.670752
v -4.628354 1.541748 0.669620
v -4.628047 1.541556 0.670551
v -4.628922 1.543045 0.670752
v -4.628345 1.543359 0.672116
v -4.628047 1.541556 0.670551
v -4.627178 1.543703 0.673027
v -4.626355 1.542303 0.672839
v -4.627333 1.541638 0.671884
v -4.628345 1.543359 0.672116
v -4.627178 1.543703 0.673027
v -4.627333 1.541638 0.671884
v -4.627333 1.541638 0.671884
v -4.626607 1.541261 0.669622
v -4.628047 1.541556 0.670551
v -4.627333 1.541638 0.671884
v -4.626607 1.541261 0.669622
v -4.626355 1.542303 0.672839
v -4.625001 1.542026 0.671965
v -4.625669 1.541298 0.670810
v -4.627333 1.541638 0.671884
v -4.626355 1.542303 0.672839
v -4.625669 1.541298 0.670810
v -4.625669 1.541298 0.670810
v -4.625687 1.542384 0.668663
v -4.626607 1.541261 0.669622
v -4.625669 1.541298 0.670810
v -4.625687 1.542384 0.668663
v -4.625001 1.542026 0.671965
v -4.624136 1.543081 0.671064
v -4.624606 1.542595 0.669703
v -4.625669 1.541298 0.670810
v -4.625001 1.542026 0.671965
v -4.624606 1.542595 0.669703
v -4.624606 1.542595 0.669703
v -4.625979 1.544077 0.668398
v -4.625687 1.542384 0.668663
v -4.624606 1.542595 0.669703
v -4.625979 1.544077 0.668398
v -4.624136 1.543081 0.671064
v -4.624411 1.544674 0.670814
v -4.624944 1.544551 0.669396
v -4.624606 1.542595 0.669703
v -4.624136 1.543081 0.671064
v -4.624944 1.544551 0.669396
v -4.624944 1.544551 0.669396
v -4.627264 1.545067 0.669025
v -4.625979 1.544077 0.668398
v -4.624944 1.544551 0.669396
v -4.627264 1.545067 0.669025
v -4.624411 1.544674 0.670814
v -4.625619 1.545604 0.671404
v -4.626429 1.545695 0.670121
v -4.624944 1.544551 0.669396
v -4.624411 1.544674 0.670814
v -4.626429 1.545695 0.670121
v -4.626429 1.545695 0.670121
v -4.628574 1.544608 0.670073
v -4.627264 1.545067 0.669025
v -4.626429 1.545695 0.670121
v -4.628574 1.544608 0.670073
v -4.625619 1.545604 0.671404
v -4.626851 1.545172 0.672389
v -4.627942 1.545164 0.671332
v -4.626429 1.545695 0.670121
v -4.625619 1.545604 0.671404
v -4.627942 1.545164 0.671332
v -4.627942 1.545164 0.671332
v -4.628345 1.543359 0.672116
v -4.628922 1.543045 0.670752
v -4.628574 1.544608 0.670073
v -4.627942 1.545164 0.671332
v -4.628922 1.543045 0.670752
v -4.626851 1.545172 0.672389
v -4.627178 1.543703 0.673027
v -4.628345 1.543359 0.672116
v -4.627942 1.545164 0.671332
v -4.626851 1.545172 0.672389
v -4.628345 1.543359 0.672116
v -4.626095 1.543953 0.673432
v -4.625558 1.543040 0.673309
v -4.626355 1.542303 0.672839
v -4.627178 1.543703 0.673027
v -4.626095 1.543953 0.673432
v -4.626355 1.542303 0.672839
v -4.624674 1.542859 0.672739
v -4.625558 1.543040 0.673309
v -4.624110 1.543548 0.672151
v -4.626095 1.543953 0.673432
v -4.624110 1.543548 0.672151
v -4.625558 1.543040 0.673309
v -4.624289 1.544587 0.671988
v -4.624110 1.543548 0.672151
v -4.626095 1.543953 0.673432
v -4.625881 1.544912 0.673015
v -4.624289 1.544587 0.671988
v -4.626095 1.543953 0.673432
v -4.625078 1.545194 0.672373
v -4.624289 1.544587 0.671988
v -4.625881 1.544912 0.673015
v -4.630289 1.540213 0.664558
v -4.629544 1.541122 0.663782
v -4.631455 1.540452 0.665311
v -4.632164 1.541657 0.665474
v -4.631455 1.540452 0.665311
v -4.629544 1.541122 0.663782
v -4.629781 1.542493 0.663567
v -4.632164 1.541657 0.665474
v -4.629544 1.541122 0.663782
v -4.631883 1.542923 0.664924
v -4.632164 1.541657 0.665474
v -4.629781 1.542493 0.663567
v -4.630822 1.543295 0.664075
v -4.631883 1.542923 0.664924
v -4.629781 1.542493 0.663567
vn -0.5604 -0.2219 -0.7979
vn 0.1035 0.5955 0.7967
vn 0.8337 0.4462 0.3254
vn 0.4720 0.7247 0.5019
vn 0.0056 0.1557 0.9878
vn 0.8336 0.4463 0.3254
vn 0.1035 0.5954 0.7967
vn 0.0055 0.1558 0.9878
vn 0.9160 -0.0303 0.4001
vn 0.2519 -0.2632 0.9313
vn 0.9160 -0.0302 0.4001
vn 0.6571 -0.3460 0.6697
vn -0.1128 -0.6322 0.7665
vn 0.0056 0.1558 0.9878
vn -0.5116 0.0460 0.8580
vn -0.7892 -0.0403 0.6128
vn -0.3530 0.7579 0.5486
vn -0.6155 0.7389 0.2743
vn -0.7891 -0.0403 0.6129
vn -0.5116 0.0461 0.8580
vn -0.3529 0.7579 0.5487
vn -0.9525 -0.1207 0.2797
vn -0.6155 0.7389 0.2742
vn -0.7889 0.6133 -0.0393
vn -0.7892 -0.0403 0.6129
vn 0.2437 0.9672 0.0714
vn 0.0376 0.9680 -0.2482
vn 0.0375 0.9680 -0.2481
vn -0.1736 0.8291 -0.5314
vn 0.8291 0.5164 -0.2144
vn 0.6783 0.4745 -0.5610
vn -0.1737 0.8291 -0.5315
vn 0.4300 0.3642 -0.8261
vn -0.1737 0.8291 -0.5314
vn 0.9624 -0.2551 -0.0935
vn 0.8243 -0.3699 -0.4286
vn 0.9624 -0.2550 -0.0935
vn 0.8242 -0.3699 -0.4287
vn 0.5675 -0.4313 -0.7014
vn 0.5433 -0.7663 0.3431
vn 0.3654 -0.9295 0.0492
vn 0.5674 -0.4313 -0.7014
vn 0.1353 -0.9584 -0.2512
vn 0.8243 -0.3700 -0.4286
vn 0.3654 -0.9296 0.0492
vn -0.1127 -0.6323 0.7665
vn -0.3526 -0.7828 0.5127
vn 0.5432 -0.7663 0.3431
vn 0.1352 -0.9584 -0.2513
vn -0.5411 -0.8202 0.1854
vn 0.1352 -0.9584 -0.2512
vn -0.3526 -0.7828 0.5128
vn -0.1128 -0.6323 0.7665
vn -0.5115 0.0460 0.8580
vn -0.5412 -0.8202 0.1853
vn -0.5412 -0.8202 0.1854
vn -0.5075 -0.8222 0.2578
vn -0.9525 -0.1208 0.2797
vn -0.9292 -0.1050 0.3544
vn -0.5075 -0.8222 0.2577
vn 0.6294 -0.4234 -0.6516
vn 0.1353 -0.9584 -0.2513
vn 0.1862 -0.9640 -0.1900
vn -0.1305 0.8690 -0.4773
vn 0.4300 0.3643 -0.8261
vn 0.4884 0.3923 -0.7795
vn -0.9291 -0.1050 0.3545
vn -0.7615 0.6476 0.0273
vn -0.9292 -0.1050 0.3545
vn -0.5074 -0.8222 0.2577
vn 0.4884 0.3923 -0.7794
vn 0.5675 -0.4312 -0.7014
vn 0.6294 -0.4235 -0.6516
vn -0.7614 0.6477 0.0274
vn 0.6570 -0.3460 0.6697
vn 0.4720 0.7248 0.5019
vn -0.3530 0.7579 0.5487
vn 0.0055 0.1557 0.9878
vn 0.1036 0.5954 0.7967
vn 0.8291 0.5164 -0.2143
vn -0.1127 -0.6322 0.7665
vn -0.8000 -0.0444 0.5984
vn -0.6262 0.7351 0.2596
vn -0.7999 -0.0444 0.5984
vn 0.3552 -0.9341 0.0345
vn -0.3631 -0.7873 0.4982
vn 0.3553 -0.9341 0.0345
vn 0.6684 0.4706 -0.5761
vn 0.8143 -0.3742 -0.4436
vn 0.6684 0.4706 -0.5760
vn -0.6262 0.7352 0.2596
vn 0.0272 0.9644 -0.2630
vn -0.7614 0.6477 0.0273
vn -0.1306 0.8690 -0.4773
vn -0.3632 -0.7873 0.4982
vn -0.7999 -0.0445 0.5984
vn -0.3631 -0.7873 0.4983
vn 0.8144 -0.3742 -0.4436
vn 0.0272 0.9644 -0.2631
vn 0.6683 0.4706 -0.5760
vt 0.543243 0.635056
vt 0.535370 0.641335
vt 0.537796 0.636299
vt 0.537796 0.646370
vt 0.547607 0.638535
vt 0.543243 0.647614
vt 0.547607 0.644127
vt 0.593674 0.671494
vt 0.598511 0.669548
vt 0.596146 0.672157
vt 0.592773 0.669609
vt 0.596436 0.666756
vt 0.592804 0.667854
vt 0.594147 0.666748
vt 0.591187 0.666855
vt 0.590591 0.669838
vt 0.587372 0.669685
vt 0.591782 0.673050
vt 0.588348 0.674789
vt 0.582382 0.669067
vt 0.582687 0.676537
vt 0.595596 0.675606
vt 0.592606 0.680244
vt 0.586334 0.684982
vt 0.603775 0.674767
vt 0.603561 0.686485
vt 0.594009 0.696274
vt 0.603775 0.658051
vt 0.597107 0.663902
vt 0.596405 0.659698
vt 0.602859 0.665543
vt 0.600342 0.651657
vt 0.594193 0.655174
vt 0.593353 0.664742
vt 0.591705 0.661980
vt 0.588959 0.658463
vt 0.588654 0.665283
vt 0.584778 0.662933
vt 0.580322 0.660286
vt 0.576584 0.668175
vt 0.591812 0.651588
vt 0.585907 0.654999
vt 0.579453 0.688484
vt 0.584915 0.699394
vt 0.576157 0.678001
vt 0.597061 0.648293
vt 0.627350 0.682632
vt 0.649124 0.687675
vt 0.627441 0.688225
vt 0.649033 0.682457
vt 0.627441 0.671455
vt 0.649033 0.677231
vt 0.627350 0.677048
vt 0.649124 0.672005
vt 0.627914 0.660294
vt 0.649292 0.666786
vt 0.627625 0.665871
vt 0.649551 0.661568
vt 0.649292 0.692902
vt 0.627625 0.693810
vt 0.649551 0.698120
vt 0.627914 0.699394
s 0
usemtl decorations
f 240/1/1 239/2/1 238/3/1
f 237/1/1 236/4/1 235/2/1
f 234/5/1 233/4/1 232/1/1
f 231/5/1 230/6/1 229/4/1
f 228/6/1 227/5/1 226/7/1
s 1
f 225/8/2 224/9/3 223/10/4
f 222/11/5 221/9/6 220/8/7
f 219/11/8 218/12/9 217/9/3
f 216/13/10 215/12/11 214/11/8
f 213/12/9 212/13/10 211/14/12
f 210/15/13 209/11/14 208/16/15
f 207/15/13 206/13/10 205/11/14
f 204/17/16 203/18/17 202/19/18
f 201/17/19 200/16/20 199/18/21
f 198/20/22 197/19/23 196/21/24
f 195/20/22 194/17/25 193/19/18
f 192/19/23 191/22/26 190/23/27
f 189/19/18 188/18/17 187/22/26
f 186/21/24 185/23/28 184/24/29
f 183/21/24 3/19/23 182/23/28
f 181/23/27 180/25/30 179/26/31
f 178/23/27 177/22/26 176/25/30
f 175/24/32 174/26/31 173/27/33
f 172/24/34 4/23/27 171/26/31
f 170/28/31 169/29/35 168/30/36
f 167/28/31 166/31/30 165/29/37
f 164/32/33 163/30/38 162/33/39
f 161/32/33 13/28/31 160/30/36
f 159/30/36 158/34/40 157/35/41
f 156/30/36 155/29/35 154/34/40
f 153/33/42 152/35/41 151/36/43
f 150/33/42 14/30/44 149/35/41
f 148/35/45 147/15/46 146/37/47
f 145/35/41 144/34/48 143/15/46
f 142/36/49 141/37/47 140/38/50
f 139/36/51 16/35/41 138/37/47
f 137/37/47 136/16/20 135/17/25
f 134/37/52 133/15/53 132/16/54
f 131/38/55 130/17/16 129/20/22
f 128/38/56 36/37/47 25/17/16
f 127/39/57 126/20/58 125/40/59
f 124/39/60 123/38/56 122/20/58
f 121/41/61 120/36/62 119/42/63
f 118/41/61 117/33/42 116/36/62
f 115/43/64 114/27/65 113/44/66
f 112/43/64 111/24/29 110/27/65
f 109/40/67 108/21/24 107/45/68
f 106/40/69 40/20/58 105/21/24
f 104/42/63 103/38/56 102/39/70
f 101/42/63 41/36/51 42/38/56
f 100/46/71 99/33/72 98/41/73
f 97/46/71 37/32/33 38/33/72
f 96/45/74 95/24/29 94/43/64
f 93/45/74 33/21/24 34/24/29
f 92/29/35 91/14/12 90/34/40
f 89/29/35 88/12/11 87/14/75
f 86/22/26 85/9/6 84/25/30
f 83/22/26 82/10/76 81/9/6
f 80/16/20 79/8/2 78/18/77
f 29/16/20 30/11/78 77/8/79
f 76/31/80 75/12/9 28/29/35
f 31/31/30 26/9/6 27/12/11
f 74/18/17 73/10/76 24/22/26
f 21/18/17 22/8/79 23/10/4
f 72/34/48 71/13/10 20/15/81
f 17/34/48 18/14/12 19/13/10
f 70/47/82 69/48/74 68/49/83
f 67/47/84 66/50/59 65/48/74
f 64/51/85 63/52/70 62/53/86
f 61/51/87 60/54/63 59/52/70
f 58/55/88 57/56/73 56/57/89
f 55/55/90 54/58/66 53/56/73
f 52/49/91 51/59/64 50/60/92
f 2/49/91 32/48/93 49/59/94
f 48/53/95 47/50/69 12/47/96
f 9/53/97 10/52/70 11/50/59
f 46/57/89 45/54/63 8/51/87
f 5/57/98 6/56/73 7/54/63
f 44/60/99 43/61/71 15/62/100
f 1/60/92 35/59/94 39/61/71
