# Blender 5.0.0
# www.blender.org
mtllib Circle_005_Circle_Dupli_83_decorations_0.mtl
o Circle.005|Circle|Dupli|83_decorations_0
v -4.328514 1.790095 0.694854
v -4.327535 1.789431 0.695617
v -4.323238 1.795959 0.696344
v -4.324636 1.796907 0.695255
v -4.327789 1.789621 0.692469
v -4.324708 1.794132 0.692597
v -4.323625 1.793401 0.692760
v -4.326631 1.788839 0.692643
v -4.326025 1.788423 0.693844
v -4.323058 1.793013 0.693883
v -4.323434 1.793259 0.695120
v -4.326427 1.788687 0.695168
v -4.324797 1.797028 0.693256
v -4.323601 1.796230 0.691852
v -4.328627 1.790180 0.693453
v -4.321948 1.795115 0.692101
v -4.321329 1.796453 0.692470
v -4.321074 1.797466 0.693025
v -4.320614 1.797151 0.693936
v -4.320625 1.795970 0.693865
v -4.322379 1.797139 0.695923
v -4.321759 1.797914 0.695279
v -4.322501 1.798417 0.694701
v -4.323515 1.797911 0.695037
v -4.321658 1.794897 0.695703
v -4.322587 1.798482 0.693639
v -4.321951 1.798058 0.692893
v -4.322673 1.797360 0.692268
v -4.321092 1.796275 0.695402
v -4.320919 1.797350 0.694938
v -4.323647 1.798009 0.693410
v -4.324471 1.793954 0.695540
v -4.324034 1.794710 0.696028
v -4.325243 1.795531 0.695085
v -4.325386 1.794576 0.694826
v -4.321083 1.794522 0.693814
v -4.325383 1.795635 0.693355
v -4.324347 1.794945 0.692140
v -4.325491 1.794655 0.693516
v -4.322665 1.793791 0.695473
v -4.322917 1.793980 0.692355
v -4.322168 1.793466 0.693838
v -4.325491 1.794655 0.693516
v -4.328514 1.790095 0.694854
v -4.323625 1.793401 0.692760
v -4.327789 1.789621 0.692469
v -4.323434 1.793259 0.695120
v -4.326025 1.788423 0.693844
v -4.325386 1.794576 0.694826
v -4.328514 1.790095 0.694854
v -4.325386 1.794576 0.694826
v -4.327535 1.789431 0.695617
v -4.324708 1.794132 0.692597
v -4.325491 1.794655 0.693516
v -4.328627 1.790180 0.693453
v -4.327789 1.789621 0.692469
v -4.324708 1.794132 0.692597
v -4.328627 1.790180 0.693453
v -4.323058 1.793013 0.693883
v -4.323625 1.793401 0.692760
v -4.326631 1.788839 0.692643
v -4.326025 1.788423 0.693844
v -4.323058 1.793013 0.693883
v -4.326631 1.788839 0.692643
v -4.324471 1.793954 0.695540
v -4.323434 1.793259 0.695120
v -4.326427 1.788687 0.695168
v -4.327535 1.789431 0.695617
v -4.324471 1.793954 0.695540
v -4.326427 1.788687 0.695168
v -4.320614 1.797151 0.693936
v -4.321329 1.796453 0.692470
v -4.322501 1.798417 0.694701
v -4.322379 1.797139 0.695923
v -4.321951 1.798058 0.692893
v -4.323647 1.798009 0.693410
v -4.321759 1.797914 0.695279
v -4.322379 1.797139 0.695923
v -4.321759 1.797914 0.695279
v -4.321092 1.796275 0.695402
v -4.322587 1.798482 0.693639
v -4.322501 1.798417 0.694701
v -4.323515 1.797911 0.695037
v -4.323647 1.798009 0.693410
v -4.322587 1.798482 0.693639
v -4.323515 1.797911 0.695037
v -4.321074 1.797466 0.693025
v -4.321951 1.798058 0.692893
v -4.322673 1.797360 0.692268
v -4.321329 1.796453 0.692470
v -4.321074 1.797466 0.693025
v -4.322673 1.797360 0.692268
v -4.324471 1.793954 0.695540
v -4.325386 1.794576 0.694826
v -4.325243 1.795531 0.695085
v -4.324471 1.793954 0.695540
v -4.325491 1.794655 0.693516
v -4.324708 1.794132 0.692597
v -4.324347 1.794945 0.692140
v -4.325491 1.794655 0.693516
v -4.323625 1.793401 0.692760
v -4.323058 1.793013 0.693883
v -4.322168 1.793466 0.693838
v -4.323625 1.793401 0.692760
v -4.324034 1.794710 0.696028
v -4.323434 1.793259 0.695120
v -4.324471 1.793954 0.695540
v -4.324034 1.794710 0.696028
v -4.323434 1.793259 0.695120
v -4.325383 1.795635 0.693355
v -4.325243 1.795531 0.695085
v -4.325386 1.794576 0.694826
v -4.325491 1.794655 0.693516
v -4.325383 1.795635 0.693355
v -4.325386 1.794576 0.694826
v -4.322917 1.793980 0.692355
v -4.324347 1.794945 0.692140
v -4.324708 1.794132 0.692597
v -4.323625 1.793401 0.692760
v -4.322917 1.793980 0.692355
v -4.324708 1.794132 0.692597
v -4.322665 1.793791 0.695473
v -4.322168 1.793466 0.693838
v -4.323058 1.793013 0.693883
v -4.323434 1.793259 0.695120
v -4.322665 1.793791 0.695473
v -4.323058 1.793013 0.693883
v -4.322168 1.793466 0.693838
v -4.322665 1.793791 0.695473
v -4.321658 1.794897 0.695703
v -4.322168 1.793466 0.693838
v -4.321092 1.796275 0.695402
v -4.320625 1.795970 0.693865
v -4.321083 1.794522 0.693814
v -4.321658 1.794897 0.695703
v -4.321092 1.796275 0.695402
v -4.321083 1.794522 0.693814
v -4.321083 1.794522 0.693814
v -4.322917 1.793980 0.692355
v -4.322168 1.793466 0.693838
v -4.321083 1.794522 0.693814
v -4.322917 1.793980 0.692355
v -4.320625 1.795970 0.693865
v -4.321329 1.796453 0.692470
v -4.321948 1.795115 0.692101
v -4.321083 1.794522 0.693814
v -4.320625 1.795970 0.693865
v -4.321948 1.795115 0.692101
v -4.321948 1.795115 0.692101
v -4.324347 1.794945 0.692140
v -4.322917 1.793980 0.692355
v -4.321948 1.795115 0.692101
v -4.324347 1.794945 0.692140
v -4.321329 1.796453 0.692470
v -4.322673 1.797360 0.692268
v -4.323601 1.796230 0.691852
v -4.321948 1.795115 0.692101
v -4.321329 1.796453 0.692470
v -4.323601 1.796230 0.691852
v -4.323601 1.796230 0.691852
v -4.325383 1.795635 0.693355
v -4.324347 1.794945 0.692140
v -4.323601 1.796230 0.691852
v -4.325383 1.795635 0.693355
v -4.322673 1.797360 0.692268
v -4.323647 1.798009 0.693410
v -4.324797 1.797028 0.693256
v -4.323601 1.796230 0.691852
v -4.322673 1.797360 0.692268
v -4.324797 1.797028 0.693256
v -4.324797 1.797028 0.693256
v -4.325243 1.795531 0.695085
v -4.325383 1.795635 0.693355
v -4.324797 1.797028 0.693256
v -4.325243 1.795531 0.695085
v -4.323647 1.798009 0.693410
v -4.323515 1.797911 0.695037
v -4.324636 1.796907 0.695255
v -4.324797 1.797028 0.693256
v -4.323647 1.798009 0.693410
v -4.324636 1.796907 0.695255
v -4.324636 1.796907 0.695255
v -4.324034 1.794710 0.696028
v -4.325243 1.795531 0.695085
v -4.324636 1.796907 0.695255
v -4.324034 1.794710 0.696028
v -4.323515 1.797911 0.695037
v -4.322379 1.797139 0.695923
v -4.323238 1.795959 0.696344
v -4.324636 1.796907 0.695255
v -4.323515 1.797911 0.695037
v -4.323238 1.795959 0.696344
v -4.323238 1.795959 0.696344
v -4.321658 1.794897 0.695703
v -4.322665 1.793791 0.695473
v -4.324034 1.794710 0.696028
v -4.323238 1.795959 0.696344
v -4.322665 1.793791 0.695473
v -4.322379 1.797139 0.695923
v -4.321092 1.796275 0.695402
v -4.321658 1.794897 0.695703
v -4.323238 1.795959 0.696344
v -4.322379 1.797139 0.695923
v -4.321658 1.794897 0.695703
v -4.320919 1.797350 0.694938
v -4.320614 1.797151 0.693936
v -4.320625 1.795970 0.693865
v -4.321092 1.796275 0.695402
v -4.320919 1.797350 0.694938
v -4.320625 1.795970 0.693865
v -4.321074 1.797466 0.693025
v -4.320614 1.797151 0.693936
v -4.321951 1.798058 0.692893
v -4.320919 1.797350 0.694938
v -4.321951 1.798058 0.692893
v -4.320614 1.797151 0.693936
v -4.322587 1.798482 0.693639
v -4.321951 1.798058 0.692893
v -4.320919 1.797350 0.694938
v -4.321759 1.797914 0.695279
v -4.322587 1.798482 0.693639
v -4.320919 1.797350 0.694938
v -4.322501 1.798417 0.694701
v -4.322587 1.798482 0.693639
v -4.321759 1.797914 0.695279
v -4.326631 1.788839 0.692643
v -4.327789 1.789621 0.692469
v -4.326025 1.788423 0.693844
v -4.326427 1.788687 0.695168
v -4.326025 1.788423 0.693844
v -4.327789 1.789621 0.692469
v -4.328627 1.790180 0.693453
v -4.326427 1.788687 0.695168
v -4.327789 1.789621 0.692469
v -4.327535 1.789431 0.695617
v -4.326427 1.788687 0.695168
v -4.328627 1.790180 0.693453
v -4.328514 1.790095 0.694854
v -4.327535 1.789431 0.695617
v -4.328627 1.790180 0.693453
vn -0.5589 -0.8292 -0.0051
vn 0.4021 0.7215 0.5637
vn 0.0226 0.9818 -0.1884
vn 0.0619 0.9524 0.2985
vn 0.7871 0.4629 0.4076
vn 0.7871 0.4630 0.4076
vn 0.3139 0.7876 -0.5302
vn 0.9270 0.3715 -0.0523
vn 0.9270 0.3715 -0.0522
vn 0.7164 0.5160 -0.4697
vn 0.9816 -0.1689 -0.0893
vn 0.7552 -0.0208 0.6552
vn 0.5980 -0.3619 0.7151
vn 0.1319 0.3978 0.9080
vn -0.0842 0.0963 0.9918
vn 0.5981 -0.3618 0.7151
vn 0.1319 0.3978 0.9079
vn 0.3549 -0.6502 0.6718
vn -0.2878 -0.2185 0.9324
vn -0.0842 0.0964 0.9918
vn -0.4189 0.7717 0.4786
vn -0.6871 0.5056 0.5218
vn 0.1318 0.3978 0.9080
vn -0.2879 -0.2186 0.9324
vn -0.8558 0.1670 0.4897
vn -0.4826 0.8193 -0.3096
vn -0.7567 0.5577 -0.3410
vn -0.4190 0.7717 0.4785
vn -0.4825 0.8193 -0.3096
vn -0.8558 0.1669 0.4896
vn -0.9213 0.2161 -0.3232
vn -0.7567 0.5577 -0.3411
vn -0.0110 0.5049 -0.8631
vn -0.2406 0.2136 -0.9468
vn -0.4825 0.8193 -0.3097
vn -0.2406 0.2135 -0.9468
vn -0.4351 -0.1081 -0.8939
vn 0.6406 0.0652 -0.7651
vn 0.4727 -0.2679 -0.8395
vn -0.0110 0.5048 -0.8631
vn 0.6406 0.0651 -0.7651
vn -0.4351 -0.1082 -0.8939
vn 0.2368 -0.5616 -0.7928
vn -0.2406 0.2135 -0.9469
vn 0.9816 -0.1689 -0.0894
vn 0.8459 -0.5239 -0.0999
vn 0.9816 -0.1688 -0.0894
vn 0.2368 -0.5617 -0.7927
vn 0.5884 -0.8028 -0.0960
vn 0.8459 -0.5239 -0.0998
vn 0.5980 -0.3618 0.7151
vn 0.5884 -0.8029 -0.0960
vn 0.3549 -0.6501 0.6718
vn 0.6507 -0.7530 -0.0980
vn 0.3550 -0.6502 0.6718
vn 0.4113 -0.5964 0.6893
vn -0.3987 -0.0406 -0.9162
vn 0.2902 -0.5056 -0.8125
vn -0.3988 -0.0406 -0.9162
vn -0.4351 -0.1082 -0.8938
vn -0.8302 0.2415 0.5025
vn -0.9213 0.2161 -0.3231
vn -0.8974 0.2919 -0.3309
vn -0.8558 0.1670 0.4896
vn -0.2878 -0.2186 0.9324
vn -0.2477 -0.1539 0.9565
vn -0.2477 -0.1538 0.9565
vn -0.0109 0.5048 -0.8632
vn -0.0110 0.5048 -0.8632
vn 0.7164 0.5159 -0.4697
vn -0.4189 0.7717 0.4785
vn 0.7551 -0.0208 0.6552
vn 0.0227 0.9818 -0.1884
vn 0.5880 -0.3774 0.7154
vn -0.0946 0.0810 0.9922
vn 0.5880 -0.3773 0.7154
vn 0.4626 -0.2834 -0.8400
vn 0.6507 -0.7529 -0.0980
vn 0.8360 -0.5395 -0.1001
vn 0.4627 -0.2833 -0.8400
vn -0.7675 0.5427 -0.3414
vn -0.2511 0.1983 -0.9474
vn -0.7674 0.5427 -0.3414
vn -0.8301 0.2415 0.5025
vn -0.6978 0.4905 0.5220
vn -0.0946 0.0811 0.9922
vn 0.8360 -0.5395 -0.1000
vn 0.5881 -0.3774 0.7154
vn 0.4626 -0.2833 -0.8401
vn -0.2510 0.1983 -0.9474
vn -0.6979 0.4905 0.5220
vn -0.7675 0.5427 -0.3413
vt 0.543243 0.611839
vt 0.535370 0.618118
vt 0.537796 0.613083
vt 0.537796 0.623154
vt 0.547607 0.615326
vt 0.543243 0.624397
vt 0.547607 0.620918
vt 0.565384 0.671494
vt 0.570206 0.669548
vt 0.567856 0.672157
vt 0.564468 0.669609
vt 0.568146 0.666756
vt 0.564514 0.667854
vt 0.565857 0.666748
vt 0.562897 0.666855
vt 0.562302 0.669838
vt 0.559082 0.669685
vt 0.563492 0.673050
vt 0.560059 0.674789
vt 0.554092 0.669067
vt 0.554398 0.676537
vt 0.567307 0.675606
vt 0.564316 0.680244
vt 0.558044 0.684982
vt 0.575485 0.674767
vt 0.575272 0.686485
vt 0.565720 0.696274
vt 0.575485 0.658051
vt 0.568817 0.663902
vt 0.568115 0.659698
vt 0.574570 0.665543
vt 0.572052 0.651657
vt 0.565903 0.655174
vt 0.565063 0.664742
vt 0.563416 0.661980
vt 0.560669 0.658463
vt 0.560364 0.665283
vt 0.556488 0.662933
vt 0.552032 0.660286
vt 0.548294 0.668175
vt 0.563522 0.651588
vt 0.557617 0.654999
vt 0.551163 0.688484
vt 0.556610 0.699394
vt 0.547867 0.678001
vt 0.568756 0.648293
vt 0.604446 0.682632
vt 0.626221 0.687675
vt 0.604553 0.688225
vt 0.626144 0.682457
vt 0.604553 0.671455
vt 0.626144 0.677231
vt 0.604446 0.677048
vt 0.626221 0.672005
vt 0.605011 0.660294
vt 0.626404 0.666786
vt 0.604736 0.665871
vt 0.626663 0.661568
vt 0.626404 0.692902
vt 0.604736 0.693810
vt 0.626663 0.698120
vt 0.605011 0.699394
s 0
usemtl decorations
f 240/1/1 239/2/1 238/3/1
f 237/1/1 236/4/1 235/2/1
f 234/5/1 233/4/1 232/1/1
f 231/5/1 230/6/1 229/4/1
f 228/6/1 227/5/1 226/7/1
s 1
f 225/8/2 224/9/3 223/10/4
f 222/11/5 221/9/3 220/8/2
f 219/11/6 218/12/7 217/9/3
f 216/13/8 215/12/7 214/11/5
f 213/12/7 212/13/9 211/14/10
f 210/15/11 209/11/6 208/16/12
f 207/15/11 206/13/8 205/11/6
f 204/17/13 203/18/14 202/19/15
f 201/17/16 200/16/12 199/18/17
f 198/20/18 197/19/15 196/21/19
f 195/20/18 194/17/16 193/19/20
f 192/19/15 191/22/21 190/23/22
f 189/19/15 188/18/23 187/22/21
f 186/21/24 185/23/22 184/24/25
f 183/21/19 3/19/15 182/23/22
f 181/23/22 180/25/26 179/26/27
f 178/23/22 177/22/28 176/25/29
f 175/24/30 174/26/27 173/27/31
f 172/24/30 4/23/22 171/26/27
f 170/28/32 169/29/33 168/30/34
f 167/28/32 166/31/35 165/29/33
f 164/32/31 163/30/36 162/33/37
f 161/32/31 13/28/27 160/30/34
f 159/30/36 158/34/38 157/35/39
f 156/30/34 155/29/40 154/34/41
f 153/33/42 152/35/39 151/36/43
f 150/33/42 14/30/44 149/35/39
f 148/35/39 147/15/45 146/37/46
f 145/35/39 144/34/41 143/15/47
f 142/36/48 141/37/46 140/38/49
f 139/36/48 16/35/39 138/37/46
f 137/37/50 136/16/12 135/17/51
f 134/37/46 133/15/47 132/16/12
f 131/38/52 130/17/51 129/20/53
f 128/38/52 36/37/46 25/17/51
f 127/39/54 126/20/55 125/40/56
f 124/39/54 123/38/49 122/20/55
f 121/41/57 120/36/43 119/42/58
f 118/41/59 117/33/60 116/36/43
f 115/43/61 114/27/62 113/44/63
f 112/43/61 111/24/64 110/27/62
f 109/40/56 108/21/65 107/45/66
f 106/40/56 40/20/18 105/21/65
f 104/42/58 103/38/49 102/39/54
f 101/42/58 41/36/43 42/38/49
f 100/46/63 99/33/37 98/41/59
f 97/46/63 37/32/31 38/33/37
f 96/45/67 95/24/64 94/43/61
f 93/45/67 33/21/19 34/24/25
f 92/29/68 91/14/10 90/34/41
f 89/29/69 88/12/7 87/14/70
f 86/22/71 85/9/3 84/25/29
f 83/22/28 82/10/4 81/9/3
f 80/16/72 79/8/2 78/18/17
f 29/16/72 30/11/5 77/8/2
f 76/31/35 75/12/7 28/29/33
f 31/31/35 26/9/73 27/12/7
f 74/18/23 73/10/4 24/22/21
f 21/18/23 22/8/2 23/10/4
f 72/34/41 71/13/8 20/15/47
f 17/34/41 18/14/10 19/13/8
f 70/47/74 69/48/67 68/49/75
f 67/47/76 66/50/56 65/48/67
f 64/51/77 63/52/78 62/53/79
f 61/51/80 60/54/58 59/52/54
f 58/55/81 57/56/57 56/57/82
f 55/55/83 54/58/63 53/56/59
f 52/49/75 51/59/84 50/60/85
f 2/49/86 32/48/66 49/59/84
f 48/53/87 47/50/56 12/47/88
f 9/53/87 10/52/54 11/50/56
f 46/57/82 45/54/58 8/51/89
f 5/57/90 6/56/57 7/54/58
f 44/60/91 43/61/63 15/62/92
f 1/60/85 35/59/61 39/61/63
