# Blender 5.0.0
# www.blender.org
mtllib Circle_005_Circle_004_Dupli_284_decorations_0.mtl
o Circle.005|Circle.004|Dupli|284_decorations_0
v -4.342514 1.763780 0.725881
v -4.342955 1.763067 0.727013
v -4.347615 1.768962 0.729282
v -4.346986 1.769979 0.727668
v -4.340372 1.764868 0.726699
v -4.343295 1.769171 0.728373
v -4.343213 1.768756 0.729620
v -4.340284 1.764424 0.728033
v -4.341167 1.763584 0.728738
v -4.344038 1.767971 0.730279
v -4.345150 1.767406 0.729855
v -4.342356 1.762980 0.728284
v -4.345345 1.771122 0.727468
v -4.343930 1.771531 0.728835
v -4.341364 1.764582 0.725742
v -4.343805 1.770897 0.730737
v -4.344906 1.771922 0.730953
v -4.345939 1.772497 0.730913
v -4.346608 1.771861 0.731447
v -4.345931 1.770946 0.731772
v -4.348007 1.770347 0.729769
v -4.347962 1.771469 0.730140
v -4.347628 1.772010 0.729283
v -4.347495 1.771175 0.728455
v -4.346761 1.768837 0.731096
v -4.346757 1.772617 0.729177
v -4.346005 1.772834 0.729902
v -4.345008 1.772438 0.729405
v -4.347311 1.770245 0.731245
v -4.347508 1.771403 0.731103
v -4.346159 1.772105 0.728293
v -4.345710 1.767488 0.728666
v -4.346579 1.767937 0.728873
v -4.346034 1.768817 0.727475
v -4.345297 1.768155 0.727608
v -4.345065 1.769698 0.731744
v -4.344614 1.769807 0.727303
v -4.343389 1.770160 0.728485
v -4.344222 1.768904 0.727478
v -4.345839 1.767829 0.730443
v -4.343281 1.769612 0.730132
v -4.344371 1.768574 0.731003
v -4.344222 1.768904 0.727478
v -4.342514 1.763780 0.725881
v -4.343213 1.768756 0.729620
v -4.340372 1.764868 0.726699
v -4.345150 1.767406 0.729855
v -4.341167 1.763584 0.728738
v -4.345297 1.768155 0.727608
v -4.342514 1.763780 0.725881
v -4.345297 1.768155 0.727608
v -4.342955 1.763067 0.727013
v -4.343295 1.769171 0.728373
v -4.344222 1.768904 0.727478
v -4.341364 1.764582 0.725742
v -4.340372 1.764868 0.726699
v -4.343295 1.769171 0.728373
v -4.341364 1.764582 0.725742
v -4.344038 1.767971 0.730279
v -4.343213 1.768756 0.729620
v -4.340284 1.764424 0.728033
v -4.341167 1.763584 0.728738
v -4.344038 1.767971 0.730279
v -4.340284 1.764424 0.728033
v -4.345710 1.767488 0.728666
v -4.345150 1.767406 0.729855
v -4.342356 1.762980 0.728284
v -4.342955 1.763067 0.727013
v -4.345710 1.767488 0.728666
v -4.342356 1.762980 0.728284
v -4.346608 1.771861 0.731447
v -4.344906 1.771922 0.730953
v -4.347628 1.772010 0.729283
v -4.348007 1.770347 0.729769
v -4.346005 1.772834 0.729902
v -4.346159 1.772105 0.728293
v -4.347962 1.771469 0.730140
v -4.348007 1.770347 0.729769
v -4.347962 1.771469 0.730140
v -4.347311 1.770245 0.731245
v -4.346757 1.772617 0.729177
v -4.347628 1.772010 0.729283
v -4.347495 1.771175 0.728455
v -4.346159 1.772105 0.728293
v -4.346757 1.772617 0.729177
v -4.347495 1.771175 0.728455
v -4.345939 1.772497 0.730913
v -4.346005 1.772834 0.729902
v -4.345008 1.772438 0.729405
v -4.344906 1.771922 0.730953
v -4.345939 1.772497 0.730913
v -4.345008 1.772438 0.729405
v -4.345710 1.767488 0.728666
v -4.345297 1.768155 0.727608
v -4.346034 1.768817 0.727475
v -4.345710 1.767488 0.728666
v -4.344222 1.768904 0.727478
v -4.343295 1.769171 0.728373
v -4.343389 1.770160 0.728485
v -4.344222 1.768904 0.727478
v -4.343213 1.768756 0.729620
v -4.344038 1.767971 0.730279
v -4.344371 1.768574 0.731003
v -4.343213 1.768756 0.729620
v -4.346579 1.767937 0.728873
v -4.345150 1.767406 0.729855
v -4.345710 1.767488 0.728666
v -4.346579 1.767937 0.728873
v -4.345150 1.767406 0.729855
v -4.344614 1.769807 0.727303
v -4.346034 1.768817 0.727475
v -4.345297 1.768155 0.727608
v -4.344222 1.768904 0.727478
v -4.344614 1.769807 0.727303
v -4.345297 1.768155 0.727608
v -4.343281 1.769612 0.730132
v -4.343389 1.770160 0.728485
v -4.343295 1.769171 0.728373
v -4.343213 1.768756 0.729620
v -4.343281 1.769612 0.730132
v -4.343295 1.769171 0.728373
v -4.345839 1.767829 0.730443
v -4.344371 1.768574 0.731003
v -4.344038 1.767971 0.730279
v -4.345150 1.767406 0.729855
v -4.345839 1.767829 0.730443
v -4.344038 1.767971 0.730279
v -4.344371 1.768574 0.731003
v -4.345839 1.767829 0.730443
v -4.346761 1.768837 0.731096
v -4.344371 1.768574 0.731003
v -4.347311 1.770245 0.731245
v -4.345931 1.770946 0.731772
v -4.345065 1.769698 0.731744
v -4.346761 1.768837 0.731096
v -4.347311 1.770245 0.731245
v -4.345065 1.769698 0.731744
v -4.345065 1.769698 0.731744
v -4.343281 1.769612 0.730132
v -4.344371 1.768574 0.731003
v -4.345065 1.769698 0.731744
v -4.343281 1.769612 0.730132
v -4.345931 1.770946 0.731772
v -4.344906 1.771922 0.730953
v -4.343805 1.770897 0.730737
v -4.345065 1.769698 0.731744
v -4.345931 1.770946 0.731772
v -4.343805 1.770897 0.730737
v -4.343805 1.770897 0.730737
v -4.343389 1.770160 0.728485
v -4.343281 1.769612 0.730132
v -4.343805 1.770897 0.730737
v -4.343389 1.770160 0.728485
v -4.344906 1.771922 0.730953
v -4.345008 1.772438 0.729405
v -4.343930 1.771531 0.728835
v -4.343805 1.770897 0.730737
v -4.344906 1.771922 0.730953
v -4.343930 1.771531 0.728835
v -4.343930 1.771531 0.728835
v -4.344614 1.769807 0.727303
v -4.343389 1.770160 0.728485
v -4.343930 1.771531 0.728835
v -4.344614 1.769807 0.727303
v -4.345008 1.772438 0.729405
v -4.346159 1.772105 0.728293
v -4.345345 1.771122 0.727468
v -4.343930 1.771531 0.728835
v -4.345008 1.772438 0.729405
v -4.345345 1.771122 0.727468
v -4.345345 1.771122 0.727468
v -4.346034 1.768817 0.727475
v -4.344614 1.769807 0.727303
v -4.345345 1.771122 0.727468
v -4.346034 1.768817 0.727475
v -4.346159 1.772105 0.728293
v -4.347495 1.771175 0.728455
v -4.346986 1.769979 0.727668
v -4.345345 1.771122 0.727468
v -4.346159 1.772105 0.728293
v -4.346986 1.769979 0.727668
v -4.346986 1.769979 0.727668
v -4.346579 1.767937 0.728873
v -4.346034 1.768817 0.727475
v -4.346986 1.769979 0.727668
v -4.346579 1.767937 0.728873
v -4.347495 1.771175 0.728455
v -4.348007 1.770347 0.729769
v -4.347615 1.768962 0.729282
v -4.346986 1.769979 0.727668
v -4.347495 1.771175 0.728455
v -4.347615 1.768962 0.729282
v -4.347615 1.768962 0.729282
v -4.346761 1.768837 0.731096
v -4.345839 1.767829 0.730443
v -4.346579 1.767937 0.728873
v -4.347615 1.768962 0.729282
v -4.345839 1.767829 0.730443
v -4.348007 1.770347 0.729769
v -4.347311 1.770245 0.731245
v -4.346761 1.768837 0.731096
v -4.347615 1.768962 0.729282
v -4.348007 1.770347 0.729769
v -4.346761 1.768837 0.731096
v -4.347508 1.771403 0.731103
v -4.346608 1.771861 0.731447
v -4.345931 1.770946 0.731772
v -4.347311 1.770245 0.731245
v -4.347508 1.771403 0.731103
v -4.345931 1.770946 0.731772
v -4.345939 1.772497 0.730913
v -4.346608 1.771861 0.731447
v -4.346005 1.772834 0.729902
v -4.347508 1.771403 0.731103
v -4.346005 1.772834 0.729902
v -4.346608 1.771861 0.731447
v -4.346757 1.772617 0.729177
v -4.346005 1.772834 0.729902
v -4.347508 1.771403 0.731103
v -4.347962 1.771469 0.730140
v -4.346757 1.772617 0.729177
v -4.347508 1.771403 0.731103
v -4.347628 1.772010 0.729283
v -4.346757 1.772617 0.729177
v -4.347962 1.771469 0.730140
v -4.340284 1.764424 0.728033
v -4.340372 1.764868 0.726699
v -4.341167 1.763584 0.728738
v -4.342356 1.762980 0.728284
v -4.341167 1.763584 0.728738
v -4.340372 1.764868 0.726699
v -4.341364 1.764582 0.725742
v -4.342356 1.762980 0.728284
v -4.340372 1.764868 0.726699
v -4.342955 1.763067 0.727013
v -4.342356 1.762980 0.728284
v -4.341364 1.764582 0.725742
v -4.342514 1.763780 0.725881
v -4.342955 1.763067 0.727013
v -4.341364 1.764582 0.725742
vn 0.5206 -0.7992 -0.3003
vn -0.9101 0.3715 0.1834
vn -0.3572 0.8976 -0.2582
vn -0.7568 0.6191 -0.2097
vn -0.7019 0.3411 0.6253
vn -0.3573 0.8976 -0.2582
vn -0.9101 0.3715 0.1835
vn -0.7020 0.3411 0.6252
vn -0.0126 0.9971 0.0746
vn -0.2890 0.5509 0.7830
vn -0.0126 0.9971 0.0745
vn -0.0125 0.9971 0.0746
vn -0.2890 0.5508 0.7830
vn 0.0178 0.8428 0.5379
vn 0.0158 0.1494 0.9886
vn -0.7019 0.3411 0.6252
vn -0.6528 -0.1901 0.7333
vn 0.0158 0.1494 0.9887
vn -0.5016 -0.5350 0.6798
vn -0.9899 -0.1410 0.0181
vn -0.8706 -0.4811 -0.1030
vn -0.5016 -0.5349 0.6799
vn -0.6528 -0.1902 0.7333
vn -0.9899 -0.1409 0.0181
vn -0.2784 -0.8021 0.5284
vn -0.8706 -0.4811 -0.1031
vn -0.6260 -0.7513 -0.2091
vn -0.5016 -0.5349 0.6798
vn -0.8706 -0.4810 -0.1030
vn -0.7416 0.2600 -0.6184
vn -0.5988 -0.0422 -0.7998
vn -0.9899 -0.1409 0.0180
vn -0.6259 -0.7513 -0.2092
vn -0.3699 -0.3378 -0.8655
vn -0.0949 0.7108 -0.6970
vn 0.1091 0.4512 -0.8857
vn -0.7415 0.2600 -0.6185
vn -0.0949 0.7108 -0.6969
vn -0.3699 -0.3379 -0.8655
vn 0.2970 0.1270 -0.9464
vn 0.1092 0.4512 -0.8857
vn 0.4633 0.8720 -0.1583
vn 0.7200 0.6276 -0.2961
vn -0.0948 0.7108 -0.6970
vn 0.4632 0.8720 -0.1583
vn 0.7200 0.6276 -0.2962
vn 0.8724 0.2932 -0.3910
vn 0.7199 0.6277 -0.2962
vn 0.5125 0.6222 0.5918
vn 0.7739 0.3542 0.5250
vn 0.8725 0.2931 -0.3910
vn 0.7739 0.3541 0.5250
vn 0.9232 0.0356 0.3826
vn 0.0158 0.1495 0.9886
vn 0.2302 -0.1632 0.9593
vn 0.5125 0.6221 0.5919
vn 0.9232 0.0355 0.3826
vn 0.2302 -0.1633 0.9593
vn 0.4111 -0.4518 0.7917
vn -0.5017 -0.5350 0.6798
vn 0.2302 -0.1632 0.9594
vn 0.4111 -0.4519 0.7917
vn -0.2784 -0.8020 0.5284
vn 0.3773 -0.3956 0.8373
vn -0.3296 -0.7547 0.5673
vn 0.3774 -0.3956 0.8373
vn 0.8505 0.3684 -0.3754
vn 0.9026 0.1042 0.4177
vn 0.8505 0.3684 -0.3755
vn -0.4234 -0.2787 -0.8620
vn 0.2969 0.1270 -0.9464
vn 0.2604 0.1979 -0.9450
vn -0.6860 -0.7027 -0.1890
vn -0.2783 -0.8021 0.5284
vn 0.9026 0.1042 0.4178
vn 0.2604 0.1980 -0.9450
vn 0.8505 0.3683 -0.3755
vn -0.6860 -0.7026 -0.1890
vn 0.4633 0.8719 -0.1583
vn 0.0179 0.8428 0.5379
vn -0.7415 0.2601 -0.6184
vn -0.7415 0.2601 -0.6185
vn -0.3573 0.8976 -0.2581
vn -0.6528 -0.1902 0.7332
vn -0.0948 0.7108 -0.6969
vn -0.9899 -0.1410 0.0180
vn -0.9898 -0.1410 0.0180
vn 0.5125 0.6222 0.5919
vn -0.4923 -0.5500 0.6746
vn -0.6860 -0.7026 -0.1889
vn -0.8614 -0.4961 -0.1086
vn -0.6860 -0.7027 -0.1889
vn 0.7839 0.3395 0.5198
vn 0.2400 -0.1781 0.9543
vn 0.7839 0.3396 0.5198
vn 0.1188 0.4367 -0.8917
vn 0.7300 0.6132 -0.3019
vn -0.8614 -0.4961 -0.1087
vn -0.4235 -0.2787 -0.8620
vn -0.5895 -0.0570 -0.8057
vn -0.4923 -0.5500 0.6747
vn 0.2399 -0.1781 0.9543
vn 0.7300 0.6132 -0.3018
vn -0.5895 -0.0570 -0.8058
vn 0.2603 0.1980 -0.9450
vt 0.530319 0.635056
vt 0.522446 0.641335
vt 0.524872 0.636299
vt 0.524872 0.646370
vt 0.534683 0.638535
vt 0.530319 0.647614
vt 0.534683 0.644127
vt 0.508789 0.671494
vt 0.513626 0.669548
vt 0.511276 0.672157
vt 0.507889 0.669609
vt 0.511566 0.666756
vt 0.507935 0.667854
vt 0.509277 0.666748
vt 0.506302 0.666855
vt 0.505722 0.669838
vt 0.502487 0.669685
vt 0.506897 0.673050
vt 0.503479 0.674789
vt 0.497520 0.669067
vt 0.497810 0.676537
vt 0.510727 0.675606
vt 0.507721 0.680244
vt 0.501465 0.684982
vt 0.518890 0.674767
vt 0.518692 0.686485
vt 0.509125 0.696274
vt 0.518890 0.658051
vt 0.512238 0.663902
vt 0.511536 0.659698
vt 0.517990 0.665543
vt 0.515472 0.651657
vt 0.509323 0.655174
vt 0.508469 0.664742
vt 0.506836 0.661980
vt 0.504074 0.658463
vt 0.503784 0.665283
vt 0.499901 0.662933
vt 0.495453 0.660286
vt 0.491707 0.668175
vt 0.506927 0.651588
vt 0.501038 0.654999
vt 0.494583 0.688484
vt 0.500031 0.699394
vt 0.491287 0.678001
vt 0.512177 0.648293
vt 0.627350 0.642853
vt 0.649124 0.647896
vt 0.627441 0.648445
vt 0.649033 0.642670
vt 0.627441 0.631676
vt 0.649033 0.637444
vt 0.627350 0.637268
vt 0.649124 0.632225
vt 0.627914 0.620506
vt 0.649292 0.626999
vt 0.627625 0.626091
vt 0.649551 0.621780
vt 0.649292 0.653114
vt 0.627625 0.654030
vt 0.649551 0.658333
vt 0.627914 0.659607
s 0
usemtl decorations
f 240/1/1 239/2/1 238/3/1
f 237/1/1 236/4/1 235/2/1
f 234/5/1 233/4/1 232/1/1
f 231/5/1 230/6/1 229/4/1
f 228/6/1 227/5/1 226/7/1
s 1
f 225/8/2 224/9/3 223/10/4
f 222/11/5 221/9/6 220/8/7
f 219/11/8 218/12/9 217/9/3
f 216/13/10 215/12/11 214/11/8
f 213/12/12 212/13/13 211/14/14
f 210/15/15 209/11/16 208/16/17
f 207/15/18 206/13/10 205/11/16
f 204/17/19 203/18/20 202/19/21
f 201/17/22 200/16/23 199/18/24
f 198/20/25 197/19/26 196/21/27
f 195/20/25 194/17/28 193/19/29
f 192/19/21 191/22/30 190/23/31
f 189/19/21 188/18/32 187/22/30
f 186/21/33 185/23/31 184/24/34
f 183/21/33 3/19/21 182/23/31
f 181/23/31 180/25/35 179/26/36
f 178/23/31 177/22/37 176/25/38
f 175/24/39 174/26/36 173/27/40
f 172/24/39 4/23/31 171/26/36
f 170/28/41 169/29/42 168/30/43
f 167/28/36 166/31/44 165/29/45
f 164/32/40 163/30/46 162/33/47
f 161/32/40 13/28/36 160/30/48
f 159/30/43 158/34/49 157/35/50
f 156/30/43 155/29/42 154/34/49
f 153/33/51 152/35/52 151/36/53
f 150/33/51 14/30/43 149/35/52
f 148/35/52 147/15/54 146/37/55
f 145/35/52 144/34/56 143/15/54
f 142/36/57 141/37/58 140/38/59
f 139/36/57 16/35/52 138/37/58
f 137/37/58 136/16/23 135/17/60
f 134/37/61 133/15/15 132/16/17
f 131/38/62 130/17/60 129/20/63
f 128/38/62 36/37/61 25/17/60
f 127/39/64 126/20/63 125/40/65
f 124/39/66 123/38/62 122/20/63
f 121/41/67 120/36/53 119/42/68
f 118/41/69 117/33/51 116/36/53
f 115/43/70 114/27/71 113/44/72
f 112/43/70 111/24/34 110/27/71
f 109/40/65 108/21/27 107/45/73
f 106/40/65 40/20/74 105/21/27
f 104/42/75 103/38/59 102/39/66
f 101/42/68 41/36/57 42/38/59
f 100/46/76 99/33/47 98/41/77
f 97/46/76 37/32/40 38/33/47
f 96/45/78 95/24/34 94/43/70
f 93/45/78 33/21/27 34/24/34
f 92/29/42 91/14/14 90/34/49
f 89/29/79 88/12/11 87/14/80
f 86/22/81 85/9/6 84/25/38
f 83/22/82 82/10/4 81/9/83
f 80/16/84 79/8/7 78/18/24
f 29/16/84 30/11/5 77/8/7
f 76/31/38 75/12/9 28/29/45
f 31/31/85 26/9/83 27/12/11
f 74/18/86 73/10/4 24/22/30
f 21/18/87 22/8/7 23/10/4
f 72/34/88 71/13/10 20/15/54
f 17/34/56 18/14/14 19/13/10
f 70/47/89 69/48/90 68/49/91
f 67/47/89 66/50/65 65/48/92
f 64/51/93 63/52/66 62/53/94
f 61/51/95 60/54/75 59/52/66
f 58/55/96 57/56/67 56/57/97
f 55/55/96 54/58/72 53/56/77
f 52/49/98 51/59/99 50/60/100
f 2/49/98 32/48/73 49/59/70
f 48/53/94 47/50/65 12/47/101
f 9/53/102 10/52/66 11/50/65
f 46/57/97 45/54/75 8/51/95
f 5/57/103 6/56/67 7/54/68
f 44/60/104 43/61/105 15/62/96
f 1/60/100 35/59/70 39/61/105
