# Blender 5.0.0
# www.blender.org
mtllib Circle_002_Circle_Dupli_295_decorations_0.mtl
o Circle.002|Circle|Dupli|295_decorations_0
v -4.318167 2.030253 0.541074
v -4.318173 2.029392 0.542188
v -4.322702 2.034287 0.546327
v -4.322692 2.035517 0.544738
v -4.316036 2.031591 0.541408
v -4.318882 2.035239 0.544317
v -4.318397 2.034742 0.545435
v -4.315517 2.031060 0.542605
v -4.316049 2.030039 0.543415
v -4.318894 2.033787 0.546193
v -4.319999 2.033093 0.546020
v -4.317231 2.029296 0.543230
v -4.321335 2.036913 0.544243
v -4.319653 2.037425 0.545215
v -4.317215 2.031232 0.540727
v -4.318913 2.036667 0.546922
v -4.320027 2.037488 0.547550
v -4.321093 2.037897 0.547860
v -4.321496 2.037123 0.548474
v -4.320644 2.036302 0.548491
v -4.323111 2.035551 0.547066
v -4.323105 2.036633 0.547544
v -4.323100 2.037286 0.546700
v -4.323103 2.036551 0.545772
v -4.321357 2.034150 0.547814
v -4.322380 2.038027 0.546437
v -4.321486 2.038299 0.546953
v -4.320630 2.038105 0.546161
v -4.322017 2.035439 0.548275
v -4.322392 2.036560 0.548333
v -4.321999 2.037688 0.545370
v -4.320880 2.033182 0.545046
v -4.321704 2.033472 0.545532
v -4.321695 2.034536 0.544156
v -4.320874 2.033988 0.544004
v -4.319671 2.035210 0.548078
v -4.320521 2.035745 0.543728
v -4.319065 2.036189 0.544569
v -4.319984 2.034903 0.543680
v -4.320540 2.033354 0.546819
v -4.318424 2.035532 0.546047
v -4.319080 2.034271 0.547048
v -4.319984 2.034903 0.543680
v -4.318167 2.030253 0.541074
v -4.318397 2.034742 0.545435
v -4.316036 2.031591 0.541408
v -4.319999 2.033093 0.546020
v -4.316049 2.030039 0.543415
v -4.320874 2.033988 0.544004
v -4.318167 2.030253 0.541074
v -4.320874 2.033988 0.544004
v -4.318173 2.029392 0.542188
v -4.318882 2.035239 0.544317
v -4.319984 2.034903 0.543680
v -4.317215 2.031232 0.540727
v -4.316036 2.031591 0.541408
v -4.318882 2.035239 0.544317
v -4.317215 2.031232 0.540727
v -4.318894 2.033787 0.546193
v -4.318397 2.034742 0.545435
v -4.315517 2.031060 0.542605
v -4.316049 2.030039 0.543415
v -4.318894 2.033787 0.546193
v -4.315517 2.031060 0.542605
v -4.320880 2.033182 0.545046
v -4.319999 2.033093 0.546020
v -4.317231 2.029296 0.543230
v -4.318173 2.029392 0.542188
v -4.320880 2.033182 0.545046
v -4.317231 2.029296 0.543230
v -4.321496 2.037123 0.548474
v -4.320027 2.037488 0.547550
v -4.323100 2.037286 0.546700
v -4.323111 2.035551 0.547066
v -4.321486 2.038299 0.546953
v -4.321999 2.037688 0.545370
v -4.323105 2.036633 0.547544
v -4.323111 2.035551 0.547066
v -4.323105 2.036633 0.547544
v -4.322017 2.035439 0.548275
v -4.322380 2.038027 0.546437
v -4.323100 2.037286 0.546700
v -4.323103 2.036551 0.545772
v -4.321999 2.037688 0.545370
v -4.322380 2.038027 0.546437
v -4.323103 2.036551 0.545772
v -4.321093 2.037897 0.547860
v -4.321486 2.038299 0.546953
v -4.320630 2.038105 0.546161
v -4.320027 2.037488 0.547550
v -4.321093 2.037897 0.547860
v -4.320630 2.038105 0.546161
v -4.320880 2.033182 0.545046
v -4.320874 2.033988 0.544004
v -4.321695 2.034536 0.544156
v -4.320880 2.033182 0.545046
v -4.319984 2.034903 0.543680
v -4.318882 2.035239 0.544317
v -4.319065 2.036189 0.544569
v -4.319984 2.034903 0.543680
v -4.318397 2.034742 0.545435
v -4.318894 2.033787 0.546193
v -4.319080 2.034271 0.547048
v -4.318397 2.034742 0.545435
v -4.321704 2.033472 0.545532
v -4.319999 2.033093 0.546020
v -4.320880 2.033182 0.545046
v -4.321704 2.033472 0.545532
v -4.319999 2.033093 0.546020
v -4.320521 2.035745 0.543728
v -4.321695 2.034536 0.544156
v -4.320874 2.033988 0.544004
v -4.319984 2.034903 0.543680
v -4.320521 2.035745 0.543728
v -4.320874 2.033988 0.544004
v -4.318424 2.035532 0.546047
v -4.319065 2.036189 0.544569
v -4.318882 2.035239 0.544317
v -4.318397 2.034742 0.545435
v -4.318424 2.035532 0.546047
v -4.318882 2.035239 0.544317
v -4.320540 2.033354 0.546819
v -4.319080 2.034271 0.547048
v -4.318894 2.033787 0.546193
v -4.319999 2.033093 0.546020
v -4.320540 2.033354 0.546819
v -4.318894 2.033787 0.546193
v -4.319080 2.034271 0.547048
v -4.320540 2.033354 0.546819
v -4.321357 2.034150 0.547814
v -4.319080 2.034271 0.547048
v -4.322017 2.035439 0.548275
v -4.320644 2.036302 0.548491
v -4.319671 2.035210 0.548078
v -4.321357 2.034150 0.547814
v -4.322017 2.035439 0.548275
v -4.319671 2.035210 0.548078
v -4.319671 2.035210 0.548078
v -4.318424 2.035532 0.546047
v -4.319080 2.034271 0.547048
v -4.319671 2.035210 0.548078
v -4.318424 2.035532 0.546047
v -4.320644 2.036302 0.548491
v -4.320027 2.037488 0.547550
v -4.318913 2.036667 0.546922
v -4.319671 2.035210 0.548078
v -4.320644 2.036302 0.548491
v -4.318913 2.036667 0.546922
v -4.318913 2.036667 0.546922
v -4.319065 2.036189 0.544569
v -4.318424 2.035532 0.546047
v -4.318913 2.036667 0.546922
v -4.319065 2.036189 0.544569
v -4.320027 2.037488 0.547550
v -4.320630 2.038105 0.546161
v -4.319653 2.037425 0.545215
v -4.318913 2.036667 0.546922
v -4.320027 2.037488 0.547550
v -4.319653 2.037425 0.545215
v -4.319653 2.037425 0.545215
v -4.320521 2.035745 0.543728
v -4.319065 2.036189 0.544569
v -4.319653 2.037425 0.545215
v -4.320521 2.035745 0.543728
v -4.320630 2.038105 0.546161
v -4.321999 2.037688 0.545370
v -4.321335 2.036913 0.544243
v -4.319653 2.037425 0.545215
v -4.320630 2.038105 0.546161
v -4.321335 2.036913 0.544243
v -4.321335 2.036913 0.544243
v -4.321695 2.034536 0.544156
v -4.320521 2.035745 0.543728
v -4.321335 2.036913 0.544243
v -4.321695 2.034536 0.544156
v -4.321999 2.037688 0.545370
v -4.323103 2.036551 0.545772
v -4.322692 2.035517 0.544738
v -4.321335 2.036913 0.544243
v -4.321999 2.037688 0.545370
v -4.322692 2.035517 0.544738
v -4.322692 2.035517 0.544738
v -4.321704 2.033472 0.545532
v -4.321695 2.034536 0.544156
v -4.322692 2.035517 0.544738
v -4.321704 2.033472 0.545532
v -4.323103 2.036551 0.545772
v -4.323111 2.035551 0.547066
v -4.322702 2.034287 0.546327
v -4.322692 2.035517 0.544738
v -4.323103 2.036551 0.545772
v -4.322702 2.034287 0.546327
v -4.322702 2.034287 0.546327
v -4.321357 2.034150 0.547814
v -4.320540 2.033354 0.546819
v -4.321704 2.033472 0.545532
v -4.322702 2.034287 0.546327
v -4.320540 2.033354 0.546819
v -4.323111 2.035551 0.547066
v -4.322017 2.035439 0.548275
v -4.321357 2.034150 0.547814
v -4.322702 2.034287 0.546327
v -4.323111 2.035551 0.547066
v -4.321357 2.034150 0.547814
v -4.322392 2.036560 0.548333
v -4.321496 2.037123 0.548474
v -4.320644 2.036302 0.548491
v -4.322017 2.035439 0.548275
v -4.322392 2.036560 0.548333
v -4.320644 2.036302 0.548491
v -4.321093 2.037897 0.547860
v -4.321496 2.037123 0.548474
v -4.321486 2.038299 0.546953
v -4.322392 2.036560 0.548333
v -4.321486 2.038299 0.546953
v -4.321496 2.037123 0.548474
v -4.322380 2.038027 0.546437
v -4.321486 2.038299 0.546953
v -4.322392 2.036560 0.548333
v -4.323105 2.036633 0.547544
v -4.322380 2.038027 0.546437
v -4.322392 2.036560 0.548333
v -4.323100 2.037286 0.546700
v -4.322380 2.038027 0.546437
v -4.323105 2.036633 0.547544
v -4.315517 2.031060 0.542605
v -4.316036 2.031591 0.541408
v -4.316049 2.030039 0.543415
v -4.317231 2.029296 0.543230
v -4.316049 2.030039 0.543415
v -4.316036 2.031591 0.541408
v -4.317215 2.031232 0.540727
v -4.317231 2.029296 0.543230
v -4.316036 2.031591 0.541408
v -4.318173 2.029392 0.542188
v -4.317231 2.029296 0.543230
v -4.317215 2.031232 0.540727
v -4.318167 2.030253 0.541074
v -4.318173 2.029392 0.542188
v -4.317215 2.031232 0.540727
vn 0.5104 -0.6816 -0.5242
vn -0.8596 0.2094 0.4660
vn -0.5267 0.8490 -0.0415
vn -0.8572 0.5088 0.0791
vn -0.5321 0.1762 0.8282
vn -0.8596 0.2094 0.4661
vn -0.5322 0.1762 0.8281
vn -0.1170 0.9737 0.1953
vn -0.1214 0.4342 0.8926
vn -0.1171 0.9737 0.1953
vn -0.5321 0.1762 0.8281
vn -0.1214 0.4341 0.8926
vn 0.0634 0.7891 0.6110
vn 0.2776 0.0697 0.9582
vn -0.3874 -0.3479 0.8538
vn -0.2153 -0.6596 0.7201
vn -0.9175 -0.2941 0.2676
vn -0.7956 -0.6007 0.0786
vn -0.2153 -0.6596 0.7202
vn -0.3874 -0.3479 0.8537
vn -0.0124 -0.8756 0.4828
vn -0.7956 -0.6007 0.0785
vn -0.5591 -0.8201 -0.1216
vn -0.0124 -0.8756 0.4829
vn -0.9137 0.1907 -0.3589
vn -0.7914 -0.0701 -0.6073
vn -0.9176 -0.2941 0.2676
vn -0.7914 -0.0701 -0.6072
vn -0.5552 -0.3202 -0.7676
vn -0.3787 0.7413 -0.5541
vn -0.2057 0.5327 -0.8209
vn -0.9137 0.1907 -0.3590
vn -0.3787 0.7414 -0.5541
vn -0.5551 -0.3203 -0.7677
vn -0.0034 0.2476 -0.9688
vn 0.2846 0.9433 -0.1709
vn 0.5203 0.7538 -0.4014
vn -0.3786 0.7414 -0.5541
vn -0.0034 0.2476 -0.9689
vn 0.6805 0.4559 -0.5737
vn 0.5202 0.7538 -0.4014
vn 0.5767 0.6445 0.5021
vn 0.8400 0.4266 0.3353
vn 0.5767 0.6444 0.5021
vn 0.6805 0.4558 -0.5737
vn 0.9817 0.1477 0.1203
vn 0.2777 0.0698 0.9581
vn 0.5126 -0.2024 0.8344
vn 0.5767 0.6444 0.5022
vn 0.2776 0.0698 0.9581
vn 0.9817 0.1476 0.1203
vn 0.6733 -0.4449 0.5905
vn 0.5126 -0.2025 0.8344
vn -0.3873 -0.3479 0.8538
vn 0.6471 -0.3985 0.6500
vn -0.0560 -0.8401 0.5396
vn 0.6545 0.5252 -0.5438
vn 0.9634 0.2092 0.1678
vn -0.6125 -0.2706 -0.7427
vn -0.0035 0.2476 -0.9688
vn -0.0468 0.3117 -0.9490
vn -0.5551 -0.3202 -0.7676
vn -0.5591 -0.8201 -0.1215
vn -0.6166 -0.7832 -0.0802
vn 0.6472 -0.3984 0.6499
vn 0.6546 0.5252 -0.5438
vn 0.2847 0.9433 -0.1708
vn 0.0633 0.7891 0.6110
vn -0.5267 0.8490 -0.0414
vn -0.3874 -0.3480 0.8537
vn -0.8596 0.2095 0.4661
vn -0.3787 0.7414 -0.5540
vn -0.5268 0.8490 -0.0414
vn -0.9175 -0.2942 0.2676
vn 0.2776 0.0698 0.9582
vn -0.2060 -0.6725 0.7108
vn -0.7866 -0.6136 0.0689
vn 0.8499 0.4142 0.3258
vn 0.6471 -0.3984 0.6500
vn 0.5224 -0.2151 0.8252
vn 0.6472 -0.3984 0.6500
vn -0.1964 0.5204 -0.8310
vn 0.5299 0.7416 -0.4114
vn -0.1964 0.5205 -0.8310
vn -0.7866 -0.6136 0.0688
vn -0.7824 -0.0827 -0.6173
vn 0.5223 -0.2151 0.8252
vn -0.2059 -0.6725 0.7108
vn 0.5300 0.7416 -0.4113
vt 0.543243 0.611839
vt 0.535370 0.618118
vt 0.537796 0.613083
vt 0.537796 0.623154
vt 0.547607 0.615326
vt 0.543243 0.624397
vt 0.547607 0.620918
vt 0.565384 0.671494
vt 0.570206 0.669548
vt 0.567856 0.672157
vt 0.564468 0.669609
vt 0.568146 0.666756
vt 0.564514 0.667854
vt 0.565857 0.666748
vt 0.562897 0.666855
vt 0.562302 0.669838
vt 0.559082 0.669685
vt 0.563492 0.673050
vt 0.560059 0.674789
vt 0.554092 0.669067
vt 0.554398 0.676537
vt 0.567307 0.675606
vt 0.564316 0.680244
vt 0.558044 0.684982
vt 0.575485 0.674767
vt 0.575272 0.686485
vt 0.565720 0.696274
vt 0.575485 0.658051
vt 0.568817 0.663902
vt 0.568115 0.659698
vt 0.574570 0.665543
vt 0.572052 0.651657
vt 0.565903 0.655174
vt 0.565063 0.664742
vt 0.563416 0.661980
vt 0.560669 0.658463
vt 0.560364 0.665283
vt 0.556488 0.662933
vt 0.552032 0.660286
vt 0.548294 0.668175
vt 0.563522 0.651588
vt 0.557617 0.654999
vt 0.551163 0.688484
vt 0.556610 0.699394
vt 0.547867 0.678001
vt 0.568756 0.648293
vt 0.604446 0.682632
vt 0.626221 0.687675
vt 0.604553 0.688225
vt 0.626144 0.682457
vt 0.604553 0.671455
vt 0.626144 0.677231
vt 0.604446 0.677048
vt 0.626221 0.672005
vt 0.605011 0.660294
vt 0.626404 0.666786
vt 0.604736 0.665871
vt 0.626663 0.661568
vt 0.626404 0.692902
vt 0.604736 0.693810
vt 0.626663 0.698120
vt 0.605011 0.699394
s 0
usemtl decorations
f 240/1/1 239/2/1 238/3/1
f 237/1/1 236/4/1 235/2/1
f 234/5/1 233/4/1 232/1/1
f 231/5/1 230/6/1 229/4/1
f 228/6/1 227/5/1 226/7/1
s 1
f 225/8/2 224/9/3 223/10/4
f 222/11/5 221/9/3 220/8/6
f 219/11/7 218/12/8 217/9/3
f 216/13/9 215/12/10 214/11/11
f 213/12/8 212/13/12 211/14/13
f 210/15/14 209/11/11 208/16/15
f 207/15/14 206/13/9 205/11/11
f 204/17/16 203/18/17 202/19/18
f 201/17/19 200/16/20 199/18/17
f 198/20/21 197/19/22 196/21/23
f 195/20/24 194/17/19 193/19/18
f 192/19/22 191/22/25 190/23/26
f 189/19/18 188/18/27 187/22/25
f 186/21/23 185/23/28 184/24/29
f 183/21/23 3/19/22 182/23/28
f 181/23/26 180/25/30 179/26/31
f 178/23/26 177/22/32 176/25/33
f 175/24/34 174/26/31 173/27/35
f 172/24/34 4/23/26 171/26/31
f 170/28/31 169/29/36 168/30/37
f 167/28/31 166/31/38 165/29/36
f 164/32/39 163/30/37 162/33/40
f 161/32/35 13/28/31 160/30/41
f 159/30/37 158/34/42 157/35/43
f 156/30/37 155/29/36 154/34/44
f 153/33/45 152/35/43 151/36/46
f 150/33/45 14/30/37 149/35/43
f 148/35/43 147/15/47 146/37/48
f 145/35/43 144/34/49 143/15/50
f 142/36/51 141/37/48 140/38/52
f 139/36/51 16/35/43 138/37/48
f 137/37/53 136/16/54 135/17/16
f 134/37/48 133/15/14 132/16/15
f 131/38/52 130/17/16 129/20/24
f 128/38/52 36/37/48 25/17/16
f 127/39/55 126/20/24 125/40/56
f 124/39/55 123/38/52 122/20/24
f 121/41/57 120/36/46 119/42/58
f 118/41/57 117/33/45 116/36/46
f 115/43/59 114/27/60 113/44/61
f 112/43/59 111/24/62 110/27/60
f 109/40/56 108/21/63 107/45/64
f 106/40/56 40/20/21 105/21/63
f 104/42/58 103/38/52 102/39/65
f 101/42/58 41/36/46 42/38/52
f 100/46/61 99/33/40 98/41/66
f 97/46/61 37/32/35 38/33/40
f 96/45/64 95/24/29 94/43/59
f 93/45/64 33/21/23 34/24/29
f 92/29/67 91/14/68 90/34/44
f 89/29/67 88/12/10 87/14/13
f 86/22/25 85/9/69 84/25/33
f 83/22/25 82/10/4 81/9/69
f 80/16/20 79/8/6 78/18/17
f 29/16/70 30/11/5 77/8/71
f 76/31/72 75/12/8 28/29/36
f 31/31/38 26/9/73 27/12/10
f 74/18/17 73/10/4 24/22/25
f 21/18/74 22/8/71 23/10/4
f 72/34/49 71/13/9 20/15/75
f 17/34/49 18/14/68 19/13/9
f 70/47/76 69/48/64 68/49/77
f 67/47/76 66/50/56 65/48/64
f 64/51/78 63/52/79 62/53/80
f 61/51/78 60/54/58 59/52/81
f 58/55/82 57/56/66 56/57/83
f 55/55/84 54/58/61 53/56/66
f 52/49/85 51/59/59 50/60/86
f 2/49/77 32/48/64 49/59/59
f 48/53/87 47/50/56 12/47/88
f 9/53/87 10/52/79 11/50/56
f 46/57/89 45/54/58 8/51/78
f 5/57/89 6/56/66 7/54/58
f 44/60/86 43/61/61 15/62/82
f 1/60/86 35/59/59 39/61/61
