# Blender 5.0.0
# www.blender.org
mtllib Circle_005_Circle_Dupli_267_decorations_0.mtl
o Circle.005|Circle|Dupli|267_decorations_0
v -4.612433 1.425427 0.642040
v -4.613600 1.425757 0.641323
v -4.609462 1.428793 0.635385
v -4.607797 1.428324 0.636407
v -4.612124 1.427430 0.643567
v -4.609151 1.429842 0.639668
v -4.610171 1.430612 0.639351
v -4.613215 1.428254 0.643228
v -4.614227 1.428023 0.642277
v -4.611117 1.430396 0.638461
v -4.611277 1.429357 0.637669
v -4.614398 1.426912 0.641429
v -4.606860 1.429386 0.637831
v -4.607357 1.431181 0.638586
v -4.611776 1.426172 0.643038
v -4.608913 1.432356 0.638103
v -4.608075 1.432637 0.636866
v -4.607485 1.432514 0.635848
v -4.608252 1.432339 0.635127
v -4.609251 1.432369 0.635762
v -4.608522 1.429738 0.634655
v -4.607777 1.430622 0.634405
v -4.606893 1.430373 0.634948
v -4.607167 1.429356 0.635486
v -4.610602 1.430441 0.635535
v -4.606395 1.430937 0.635704
v -4.606659 1.431890 0.636105
v -4.606809 1.431681 0.637260
v -4.609449 1.431079 0.634777
v -4.608382 1.431497 0.634485
v -4.606405 1.430221 0.636645
v -4.610531 1.428277 0.637570
v -4.610192 1.428339 0.636631
v -4.608751 1.427933 0.637516
v -4.609440 1.427970 0.638239
v -4.610357 1.432027 0.636745
v -4.607940 1.428853 0.638749
v -4.608370 1.430406 0.639402
v -4.608826 1.428666 0.639173
v -4.611178 1.429766 0.636762
v -4.609717 1.431423 0.638984
v -4.610967 1.431138 0.637809
v -4.608826 1.428666 0.639173
v -4.612433 1.425427 0.642040
v -4.610171 1.430612 0.639351
v -4.612124 1.427430 0.643567
v -4.611277 1.429357 0.637669
v -4.614227 1.428023 0.642277
v -4.609440 1.427970 0.638239
v -4.612433 1.425427 0.642040
v -4.609440 1.427970 0.638239
v -4.613600 1.425757 0.641323
v -4.609151 1.429842 0.639668
v -4.608826 1.428666 0.639173
v -4.611776 1.426172 0.643038
v -4.612124 1.427430 0.643567
v -4.609151 1.429842 0.639668
v -4.611776 1.426172 0.643038
v -4.611117 1.430396 0.638461
v -4.610171 1.430612 0.639351
v -4.613215 1.428254 0.643228
v -4.614227 1.428023 0.642277
v -4.611117 1.430396 0.638461
v -4.613215 1.428254 0.643228
v -4.610531 1.428277 0.637570
v -4.611277 1.429357 0.637669
v -4.614398 1.426912 0.641429
v -4.613600 1.425757 0.641323
v -4.610531 1.428277 0.637570
v -4.614398 1.426912 0.641429
v -4.608252 1.432339 0.635127
v -4.608075 1.432637 0.636866
v -4.606893 1.430373 0.634948
v -4.608522 1.429738 0.634655
v -4.606659 1.431890 0.636105
v -4.606405 1.430221 0.636645
v -4.607777 1.430622 0.634405
v -4.608522 1.429738 0.634655
v -4.607777 1.430622 0.634405
v -4.609449 1.431079 0.634777
v -4.606395 1.430937 0.635704
v -4.606893 1.430373 0.634948
v -4.607167 1.429356 0.635486
v -4.606405 1.430221 0.636645
v -4.606395 1.430937 0.635704
v -4.607167 1.429356 0.635486
v -4.607485 1.432514 0.635848
v -4.606659 1.431890 0.636105
v -4.606809 1.431681 0.637260
v -4.608075 1.432637 0.636866
v -4.607485 1.432514 0.635848
v -4.606809 1.431681 0.637260
v -4.610531 1.428277 0.637570
v -4.609440 1.427970 0.638239
v -4.608751 1.427933 0.637516
v -4.610531 1.428277 0.637570
v -4.608826 1.428666 0.639173
v -4.609151 1.429842 0.639668
v -4.608370 1.430406 0.639402
v -4.608826 1.428666 0.639173
v -4.610171 1.430612 0.639351
v -4.611117 1.430396 0.638461
v -4.610967 1.431138 0.637809
v -4.610171 1.430612 0.639351
v -4.610192 1.428339 0.636631
v -4.611277 1.429357 0.637669
v -4.610531 1.428277 0.637570
v -4.610192 1.428339 0.636631
v -4.611277 1.429357 0.637669
v -4.607940 1.428853 0.638749
v -4.608751 1.427933 0.637516
v -4.609440 1.427970 0.638239
v -4.608826 1.428666 0.639173
v -4.607940 1.428853 0.638749
v -4.609440 1.427970 0.638239
v -4.609717 1.431423 0.638984
v -4.608370 1.430406 0.639402
v -4.609151 1.429842 0.639668
v -4.610171 1.430612 0.639351
v -4.609717 1.431423 0.638984
v -4.609151 1.429842 0.639668
v -4.611178 1.429766 0.636762
v -4.610967 1.431138 0.637809
v -4.611117 1.430396 0.638461
v -4.611277 1.429357 0.637669
v -4.611178 1.429766 0.636762
v -4.611117 1.430396 0.638461
v -4.610967 1.431138 0.637809
v -4.611178 1.429766 0.636762
v -4.610602 1.430441 0.635535
v -4.610967 1.431138 0.637809
v -4.609449 1.431079 0.634777
v -4.609251 1.432369 0.635762
v -4.610357 1.432027 0.636745
v -4.610602 1.430441 0.635535
v -4.609449 1.431079 0.634777
v -4.610357 1.432027 0.636745
v -4.610357 1.432027 0.636745
v -4.609717 1.431423 0.638984
v -4.610967 1.431138 0.637809
v -4.610357 1.432027 0.636745
v -4.609717 1.431423 0.638984
v -4.609251 1.432369 0.635762
v -4.608075 1.432637 0.636866
v -4.608913 1.432356 0.638103
v -4.610357 1.432027 0.636745
v -4.609251 1.432369 0.635762
v -4.608913 1.432356 0.638103
v -4.608913 1.432356 0.638103
v -4.608370 1.430406 0.639402
v -4.609717 1.431423 0.638984
v -4.608913 1.432356 0.638103
v -4.608370 1.430406 0.639402
v -4.608075 1.432637 0.636866
v -4.606809 1.431681 0.637260
v -4.607357 1.431181 0.638586
v -4.608913 1.432356 0.638103
v -4.608075 1.432637 0.636866
v -4.607357 1.431181 0.638586
v -4.607357 1.431181 0.638586
v -4.607940 1.428853 0.638749
v -4.608370 1.430406 0.639402
v -4.607357 1.431181 0.638586
v -4.607940 1.428853 0.638749
v -4.606809 1.431681 0.637260
v -4.606405 1.430221 0.636645
v -4.606860 1.429386 0.637831
v -4.607357 1.431181 0.638586
v -4.606809 1.431681 0.637260
v -4.606860 1.429386 0.637831
v -4.606860 1.429386 0.637831
v -4.608751 1.427933 0.637516
v -4.607940 1.428853 0.638749
v -4.606860 1.429386 0.637831
v -4.608751 1.427933 0.637516
v -4.606405 1.430221 0.636645
v -4.607167 1.429356 0.635486
v -4.607797 1.428324 0.636407
v -4.606860 1.429386 0.637831
v -4.606405 1.430221 0.636645
v -4.607797 1.428324 0.636407
v -4.607797 1.428324 0.636407
v -4.610192 1.428339 0.636631
v -4.608751 1.427933 0.637516
v -4.607797 1.428324 0.636407
v -4.610192 1.428339 0.636631
v -4.607167 1.429356 0.635486
v -4.608522 1.429738 0.634655
v -4.609462 1.428793 0.635385
v -4.607797 1.428324 0.636407
v -4.607167 1.429356 0.635486
v -4.609462 1.428793 0.635385
v -4.609462 1.428793 0.635385
v -4.610602 1.430441 0.635535
v -4.611178 1.429766 0.636762
v -4.610192 1.428339 0.636631
v -4.609462 1.428793 0.635385
v -4.611178 1.429766 0.636762
v -4.608522 1.429738 0.634655
v -4.609449 1.431079 0.634777
v -4.610602 1.430441 0.635535
v -4.609462 1.428793 0.635385
v -4.608522 1.429738 0.634655
v -4.610602 1.430441 0.635535
v -4.608382 1.431497 0.634485
v -4.608252 1.432339 0.635127
v -4.609251 1.432369 0.635762
v -4.609449 1.431079 0.634777
v -4.608382 1.431497 0.634485
v -4.609251 1.432369 0.635762
v -4.607485 1.432514 0.635848
v -4.608252 1.432339 0.635127
v -4.606659 1.431890 0.636105
v -4.608382 1.431497 0.634485
v -4.606659 1.431890 0.636105
v -4.608252 1.432339 0.635127
v -4.606395 1.430937 0.635704
v -4.606659 1.431890 0.636105
v -4.608382 1.431497 0.634485
v -4.607777 1.430622 0.634405
v -4.606395 1.430937 0.635704
v -4.608382 1.431497 0.634485
v -4.606893 1.430373 0.634948
v -4.606395 1.430937 0.635704
v -4.607777 1.430622 0.634405
v -4.613215 1.428254 0.643228
v -4.612124 1.427430 0.643567
v -4.614227 1.428023 0.642277
v -4.614398 1.426912 0.641429
v -4.614227 1.428023 0.642277
v -4.612124 1.427430 0.643567
v -4.611776 1.426172 0.643038
v -4.614398 1.426912 0.641429
v -4.612124 1.427430 0.643567
v -4.613600 1.425757 0.641323
v -4.614398 1.426912 0.641429
v -4.611776 1.426172 0.643038
v -4.612433 1.425427 0.642040
v -4.613600 1.425757 0.641323
v -4.611776 1.426172 0.643038
vn -0.5559 -0.4483 0.7000
vn 0.2891 -0.0110 -0.9572
vn 0.9228 0.1335 -0.3614
vn 0.6945 -0.1253 -0.7084
vn 0.0116 0.3904 -0.9206
vn 0.9228 0.1335 -0.3615
vn 0.2890 -0.0110 -0.9573
vn 0.8018 0.5705 -0.1776
vn 0.0711 0.7766 -0.6260
vn 0.8018 0.5706 -0.1776
vn 0.0711 0.7765 -0.6260
vn 0.4228 0.8567 -0.2954
vn -0.4013 0.8408 -0.3633
vn -0.4976 0.2157 -0.8402
vn 0.0712 0.7766 -0.6260
vn -0.7721 0.0527 -0.6333
vn -0.0485 -0.4342 -0.8995
vn -0.2804 -0.6585 -0.6984
vn -0.7720 0.0528 -0.6334
vn -0.4976 0.2156 -0.8402
vn -0.0484 -0.4341 -0.8996
vn -0.9347 -0.1175 -0.3355
vn -0.2803 -0.6586 -0.6984
vn -0.4714 -0.7876 -0.3968
vn -0.2803 -0.6585 -0.6984
vn 0.6081 -0.6193 -0.4967
vn 0.4383 -0.8612 -0.2575
vn -0.0484 -0.4342 -0.8995
vn 0.2055 -0.9785 0.0185
vn 0.4383 -0.8612 -0.2574
vn 0.9776 -0.2003 0.0650
vn 0.8427 -0.4026 0.3575
vn 0.2055 -0.9785 0.0186
vn 0.5865 -0.5464 0.5978
vn 0.8427 -0.4025 0.3575
vn 0.7818 0.5073 0.3627
vn 0.6284 0.3719 0.6832
vn 0.7818 0.5073 0.3626
vn 0.5865 -0.5464 0.5979
vn 0.3847 0.1832 0.9047
vn 0.1682 0.9706 0.1720
vn -0.0433 0.8792 0.4746
vn 0.3846 0.1832 0.9047
vn -0.2481 0.6610 0.7081
vn -0.0434 0.8791 0.4746
vn -0.4013 0.8409 -0.3632
vn -0.6666 0.7371 -0.1114
vn -0.0434 0.8792 0.4746
vn 0.1681 0.9706 0.1720
vn -0.4012 0.8409 -0.3633
vn -0.2482 0.6610 0.7082
vn -0.8352 0.5272 0.1562
vn -0.4976 0.2157 -0.8401
vn -0.7720 0.0527 -0.6334
vn -0.6665 0.7371 -0.1114
vn -0.4013 0.8409 -0.3633
vn -0.8353 0.5272 0.1562
vn -0.9347 -0.1175 -0.3356
vn -0.7721 0.0527 -0.6334
vn -0.8094 0.5786 0.1008
vn -0.9113 -0.0825 -0.4034
vn -0.8094 0.5785 0.1008
vn 0.4415 0.2259 0.8684
vn -0.2481 0.6610 0.7082
vn -0.2073 0.7158 0.6668
vn 0.4415 0.2258 0.8684
vn 0.2579 -0.9653 -0.0403
vn 0.6485 -0.5223 0.5537
vn -0.9113 -0.0825 -0.4035
vn -0.4715 -0.7876 -0.3968
vn -0.4364 -0.7696 -0.4662
vn 0.6486 -0.5223 0.5537
vn 0.3847 0.1831 0.9047
vn -0.4363 -0.7696 -0.4662
vn 0.2579 -0.9653 -0.0402
vn 0.7817 0.5073 0.3627
vn 0.8018 0.5705 -0.1777
vn 0.4228 0.8568 -0.2954
vn 0.6081 -0.6192 -0.4967
vn 0.6945 -0.1253 -0.7085
vn 0.6946 -0.1253 -0.7084
vn 0.2891 -0.0109 -0.9572
vn -0.7827 0.0445 -0.6208
vn -0.4363 -0.7696 -0.4663
vn -0.2908 -0.6672 -0.6858
vn -0.0537 0.8713 0.4877
vn -0.6772 0.7292 -0.0985
vn -0.0536 0.8714 0.4877
vn 0.8329 -0.4110 0.3706
vn 0.6185 0.3638 0.6965
vn 0.4282 -0.8699 -0.2447
vn -0.2907 -0.6672 -0.6858
vn -0.0536 0.8713 0.4878
vn 0.4282 -0.8699 -0.2446
vn 0.8329 -0.4111 0.3706
vt 0.543243 0.611839
vt 0.535370 0.618118
vt 0.537796 0.613083
vt 0.537796 0.623154
vt 0.547607 0.615326
vt 0.543243 0.624397
vt 0.547607 0.620918
vt 0.565384 0.671494
vt 0.570206 0.669548
vt 0.567856 0.672157
vt 0.564468 0.669609
vt 0.568146 0.666756
vt 0.564514 0.667854
vt 0.565857 0.666748
vt 0.562897 0.666855
vt 0.562302 0.669838
vt 0.559082 0.669685
vt 0.563492 0.673050
vt 0.560059 0.674789
vt 0.554092 0.669067
vt 0.554398 0.676537
vt 0.567307 0.675606
vt 0.564316 0.680244
vt 0.558044 0.684982
vt 0.575485 0.674767
vt 0.575272 0.686485
vt 0.565720 0.696274
vt 0.575485 0.658051
vt 0.568817 0.663902
vt 0.568115 0.659698
vt 0.574570 0.665543
vt 0.572052 0.651657
vt 0.565903 0.655174
vt 0.565063 0.664742
vt 0.563416 0.661980
vt 0.560669 0.658463
vt 0.560364 0.665283
vt 0.556488 0.662933
vt 0.552032 0.660286
vt 0.548294 0.668175
vt 0.563522 0.651588
vt 0.557617 0.654999
vt 0.551163 0.688484
vt 0.556610 0.699394
vt 0.547867 0.678001
vt 0.568756 0.648293
vt 0.604446 0.682632
vt 0.626221 0.687675
vt 0.604553 0.688225
vt 0.626144 0.682457
vt 0.604553 0.671455
vt 0.626144 0.677231
vt 0.604446 0.677048
vt 0.626221 0.672005
vt 0.605011 0.660294
vt 0.626404 0.666786
vt 0.604736 0.665871
vt 0.626663 0.661568
vt 0.626404 0.692902
vt 0.604736 0.693810
vt 0.626663 0.698120
vt 0.605011 0.699394
s 0
usemtl decorations
f 240/1/1 239/2/1 238/3/1
f 237/1/1 236/4/1 235/2/1
f 234/5/1 233/4/1 232/1/1
f 231/5/1 230/6/1 229/4/1
f 228/6/1 227/5/1 226/7/1
s 1
f 225/8/2 224/9/3 223/10/4
f 222/11/5 221/9/6 220/8/7
f 219/11/5 218/12/8 217/9/3
f 216/13/9 215/12/8 214/11/5
f 213/12/10 212/13/11 211/14/12
f 210/15/13 209/11/5 208/16/14
f 207/15/13 206/13/15 205/11/5
f 204/17/16 203/18/17 202/19/18
f 201/17/19 200/16/20 199/18/21
f 198/20/22 197/19/23 196/21/24
f 195/20/22 194/17/19 193/19/25
f 192/19/18 191/22/26 190/23/27
f 189/19/18 188/18/28 187/22/26
f 186/21/24 185/23/27 184/24/29
f 183/21/24 3/19/18 182/23/27
f 181/23/30 180/25/31 179/26/32
f 178/23/27 177/22/26 176/25/31
f 175/24/33 174/26/32 173/27/34
f 172/24/33 4/23/30 171/26/32
f 170/28/35 169/29/36 168/30/37
f 167/28/35 166/31/31 165/29/38
f 164/32/39 163/30/37 162/33/40
f 161/32/39 13/28/32 160/30/37
f 159/30/37 158/34/41 157/35/42
f 156/30/37 155/29/36 154/34/41
f 153/33/43 152/35/42 151/36/44
f 150/33/43 14/30/37 149/35/42
f 148/35/45 147/15/46 146/37/47
f 145/35/48 144/34/49 143/15/50
f 142/36/51 141/37/47 140/38/52
f 139/36/51 16/35/42 138/37/47
f 137/37/47 136/16/53 135/17/54
f 134/37/55 133/15/56 132/16/14
f 131/38/57 130/17/54 129/20/58
f 128/38/57 36/37/55 25/17/59
f 127/39/60 126/20/58 125/40/61
f 124/39/62 123/38/57 122/20/58
f 121/41/63 120/36/64 119/42/65
f 118/41/66 117/33/43 116/36/64
f 115/43/67 114/27/34 113/44/68
f 112/43/67 111/24/33 110/27/34
f 109/40/69 108/21/70 107/45/71
f 106/40/61 40/20/22 105/21/70
f 104/42/65 103/38/57 102/39/60
f 101/42/65 41/36/64 42/38/57
f 100/46/72 99/33/73 98/41/66
f 97/46/72 37/32/39 38/33/73
f 96/45/74 95/24/33 94/43/75
f 93/45/74 33/21/24 34/24/33
f 92/29/76 91/14/12 90/34/41
f 89/29/76 88/12/77 87/14/78
f 86/22/79 85/9/6 84/25/31
f 83/22/26 82/10/80 81/9/6
f 80/16/20 79/8/2 78/18/21
f 29/16/20 30/11/5 77/8/2
f 76/31/31 75/12/8 28/29/38
f 31/31/31 26/9/6 27/12/77
f 74/18/28 73/10/81 24/22/26
f 21/18/17 22/8/82 23/10/4
f 72/34/49 71/13/9 20/15/50
f 17/34/49 18/14/12 19/13/15
f 70/47/83 69/48/84 68/49/85
f 67/47/83 66/50/61 65/48/74
f 64/51/86 63/52/60 62/53/87
f 61/51/88 60/54/65 59/52/60
f 58/55/89 57/56/63 56/57/90
f 55/55/89 54/58/68 53/56/63
f 52/49/85 51/59/67 50/60/91
f 2/49/92 32/48/74 49/59/67
f 48/53/87 47/50/69 12/47/83
f 9/53/87 10/52/60 11/50/61
f 46/57/90 45/54/65 8/51/93
f 5/57/90 6/56/63 7/54/65
f 44/60/94 43/61/72 15/62/95
f 1/60/91 35/59/67 39/61/72
