# Blender 5.0.0
# www.blender.org
mtllib Circle_002_Circle_Dupli_167_decorations_0.mtl
o Circle.002|Circle|Dupli|167_decorations_0
v -4.251633 0.825065 0.387567
v -4.252931 0.825117 0.387023
v -4.256177 0.826179 0.394090
v -4.254325 0.826104 0.394867
v -4.251251 0.822575 0.387874
v -4.253422 0.822943 0.392876
v -4.254547 0.822417 0.392438
v -4.252454 0.822013 0.387406
v -4.253590 0.822670 0.386894
v -4.255609 0.823032 0.391959
v -4.255807 0.824323 0.391800
v -4.253802 0.824052 0.386723
v -4.253258 0.824489 0.395407
v -4.253779 0.822552 0.395305
v -4.250885 0.823933 0.387946
v -4.255496 0.821750 0.394637
v -4.256032 0.822260 0.395965
v -4.256374 0.822967 0.396849
v -4.257234 0.823465 0.396461
v -4.257350 0.823023 0.395370
v -4.256586 0.825864 0.395520
v -4.256736 0.825319 0.396559
v -4.255752 0.825279 0.396971
v -4.255079 0.825803 0.396151
v -4.257419 0.824659 0.393663
v -4.255186 0.824422 0.397258
v -4.255462 0.823393 0.397204
v -4.254635 0.822912 0.396508
v -4.257596 0.824627 0.395172
v -4.257395 0.824512 0.396332
v -4.254211 0.824489 0.396591
v -4.254993 0.825320 0.392080
v -4.255499 0.825813 0.392787
v -4.253896 0.825748 0.393459
v -4.253780 0.825270 0.392588
v -4.257116 0.822687 0.393906
v -4.252973 0.824351 0.393927
v -4.253424 0.822673 0.393838
v -4.253081 0.824212 0.392943
v -4.256574 0.824497 0.392417
v -4.254910 0.821979 0.393260
v -4.256311 0.822791 0.392628
v -4.253081 0.824212 0.392943
v -4.251633 0.825065 0.387567
v -4.254547 0.822417 0.392438
v -4.251251 0.822575 0.387874
v -4.255807 0.824323 0.391800
v -4.253590 0.822670 0.386894
v -4.253780 0.825270 0.392588
v -4.251633 0.825065 0.387567
v -4.253780 0.825270 0.392588
v -4.252931 0.825117 0.387023
v -4.253422 0.822943 0.392876
v -4.253081 0.824212 0.392943
v -4.250885 0.823933 0.387946
v -4.251251 0.822575 0.387874
v -4.253422 0.822943 0.392876
v -4.250885 0.823933 0.387946
v -4.255609 0.823032 0.391959
v -4.254547 0.822417 0.392438
v -4.252454 0.822013 0.387406
v -4.253590 0.822670 0.386894
v -4.255609 0.823032 0.391959
v -4.252454 0.822013 0.387406
v -4.254993 0.825320 0.392080
v -4.255807 0.824323 0.391800
v -4.253802 0.824052 0.386723
v -4.252931 0.825117 0.387023
v -4.254993 0.825320 0.392080
v -4.253802 0.824052 0.386723
v -4.257234 0.823465 0.396461
v -4.256032 0.822260 0.395965
v -4.255752 0.825279 0.396971
v -4.256586 0.825864 0.395520
v -4.255462 0.823393 0.397204
v -4.254211 0.824489 0.396591
v -4.256736 0.825319 0.396559
v -4.256586 0.825864 0.395520
v -4.256736 0.825319 0.396559
v -4.257596 0.824627 0.395172
v -4.255186 0.824422 0.397258
v -4.255752 0.825279 0.396971
v -4.255079 0.825803 0.396151
v -4.254211 0.824489 0.396591
v -4.255186 0.824422 0.397258
v -4.255079 0.825803 0.396151
v -4.256374 0.822967 0.396849
v -4.255462 0.823393 0.397204
v -4.254635 0.822912 0.396508
v -4.256032 0.822260 0.395965
v -4.256374 0.822967 0.396849
v -4.254635 0.822912 0.396508
v -4.254993 0.825320 0.392080
v -4.253780 0.825270 0.392588
v -4.253896 0.825748 0.393459
v -4.254993 0.825320 0.392080
v -4.253081 0.824212 0.392943
v -4.253422 0.822943 0.392876
v -4.253424 0.822673 0.393838
v -4.253081 0.824212 0.392943
v -4.254547 0.822417 0.392438
v -4.255609 0.823032 0.391959
v -4.256311 0.822791 0.392628
v -4.254547 0.822417 0.392438
v -4.255499 0.825813 0.392787
v -4.255807 0.824323 0.391800
v -4.254993 0.825320 0.392080
v -4.255499 0.825813 0.392787
v -4.255807 0.824323 0.391800
v -4.252973 0.824351 0.393927
v -4.253896 0.825748 0.393459
v -4.253780 0.825270 0.392588
v -4.253081 0.824212 0.392943
v -4.252973 0.824351 0.393927
v -4.253780 0.825270 0.392588
v -4.254910 0.821979 0.393260
v -4.253424 0.822673 0.393838
v -4.253422 0.822943 0.392876
v -4.254547 0.822417 0.392438
v -4.254910 0.821979 0.393260
v -4.253422 0.822943 0.392876
v -4.256574 0.824497 0.392417
v -4.256311 0.822791 0.392628
v -4.255609 0.823032 0.391959
v -4.255807 0.824323 0.391800
v -4.256574 0.824497 0.392417
v -4.255609 0.823032 0.391959
v -4.256311 0.822791 0.392628
v -4.256574 0.824497 0.392417
v -4.257419 0.824659 0.393663
v -4.256311 0.822791 0.392628
v -4.257596 0.824627 0.395172
v -4.257350 0.823023 0.395370
v -4.257116 0.822687 0.393906
v -4.257419 0.824659 0.393663
v -4.257596 0.824627 0.395172
v -4.257116 0.822687 0.393906
v -4.257116 0.822687 0.393906
v -4.254910 0.821979 0.393260
v -4.256311 0.822791 0.392628
v -4.257116 0.822687 0.393906
v -4.254910 0.821979 0.393260
v -4.257350 0.823023 0.395370
v -4.256032 0.822260 0.395965
v -4.255496 0.821750 0.394637
v -4.257116 0.822687 0.393906
v -4.257350 0.823023 0.395370
v -4.255496 0.821750 0.394637
v -4.255496 0.821750 0.394637
v -4.253424 0.822673 0.393838
v -4.254910 0.821979 0.393260
v -4.255496 0.821750 0.394637
v -4.253424 0.822673 0.393838
v -4.256032 0.822260 0.395965
v -4.254635 0.822912 0.396508
v -4.253779 0.822552 0.395305
v -4.255496 0.821750 0.394637
v -4.256032 0.822260 0.395965
v -4.253779 0.822552 0.395305
v -4.253779 0.822552 0.395305
v -4.252973 0.824351 0.393927
v -4.253424 0.822673 0.393838
v -4.253779 0.822552 0.395305
v -4.252973 0.824351 0.393927
v -4.254635 0.822912 0.396508
v -4.254211 0.824489 0.396591
v -4.253258 0.824489 0.395407
v -4.253779 0.822552 0.395305
v -4.254635 0.822912 0.396508
v -4.253258 0.824489 0.395407
v -4.253258 0.824489 0.395407
v -4.253896 0.825748 0.393459
v -4.252973 0.824351 0.393927
v -4.253258 0.824489 0.395407
v -4.253896 0.825748 0.393459
v -4.254211 0.824489 0.396591
v -4.255079 0.825803 0.396151
v -4.254325 0.826104 0.394867
v -4.253258 0.824489 0.395407
v -4.254211 0.824489 0.396591
v -4.254325 0.826104 0.394867
v -4.254325 0.826104 0.394867
v -4.255499 0.825813 0.392787
v -4.253896 0.825748 0.393459
v -4.254325 0.826104 0.394867
v -4.255499 0.825813 0.392787
v -4.255079 0.825803 0.396151
v -4.256586 0.825864 0.395520
v -4.256177 0.826179 0.394090
v -4.254325 0.826104 0.394867
v -4.255079 0.825803 0.396151
v -4.256177 0.826179 0.394090
v -4.256177 0.826179 0.394090
v -4.257419 0.824659 0.393663
v -4.256574 0.824497 0.392417
v -4.255499 0.825813 0.392787
v -4.256177 0.826179 0.394090
v -4.256574 0.824497 0.392417
v -4.256586 0.825864 0.395520
v -4.257596 0.824627 0.395172
v -4.257419 0.824659 0.393663
v -4.256177 0.826179 0.394090
v -4.256586 0.825864 0.395520
v -4.257419 0.824659 0.393663
v -4.257395 0.824512 0.396332
v -4.257234 0.823465 0.396461
v -4.257350 0.823023 0.395370
v -4.257596 0.824627 0.395172
v -4.257395 0.824512 0.396332
v -4.257350 0.823023 0.395370
v -4.256374 0.822967 0.396849
v -4.257234 0.823465 0.396461
v -4.255462 0.823393 0.397204
v -4.257395 0.824512 0.396332
v -4.255462 0.823393 0.397204
v -4.257234 0.823465 0.396461
v -4.255186 0.824422 0.397258
v -4.255462 0.823393 0.397204
v -4.257395 0.824512 0.396332
v -4.256736 0.825319 0.396559
v -4.255186 0.824422 0.397258
v -4.257395 0.824512 0.396332
v -4.255752 0.825279 0.396971
v -4.255186 0.824422 0.397258
v -4.256736 0.825319 0.396559
v -4.252454 0.822013 0.387406
v -4.251251 0.822575 0.387874
v -4.253590 0.822670 0.386894
v -4.253802 0.824052 0.386723
v -4.253590 0.822670 0.386894
v -4.251251 0.822575 0.387874
v -4.250885 0.823933 0.387946
v -4.253802 0.824052 0.386723
v -4.251251 0.822575 0.387874
v -4.252931 0.825117 0.387023
v -4.253802 0.824052 0.386723
v -4.250885 0.823933 0.387946
v -4.251633 0.825065 0.387567
v -4.252931 0.825117 0.387023
v -4.250885 0.823933 0.387946
vn 0.3842 -0.0547 -0.9216
vn -0.5144 0.5613 0.6483
vn 0.1964 0.1497 0.9690
vn -0.0635 0.5430 0.8374
vn -0.8169 0.1910 0.5442
vn 0.1964 0.1498 0.9690
vn -0.8169 0.1911 0.5442
vn 0.0694 -0.3222 0.9441
vn -0.7431 -0.2891 0.6035
vn 0.0694 -0.3221 0.9441
vn -0.7432 -0.2890 0.6035
vn -0.3487 -0.5174 0.7814
vn -0.8463 -0.5188 0.1209
vn -0.9657 0.2584 0.0250
vn -0.7431 -0.2890 0.6035
vn -0.8999 0.2605 -0.3496
vn -0.4760 0.8579 0.1935
vn -0.3640 0.9167 -0.1651
vn -0.9000 0.2605 -0.3496
vn -0.7045 0.2250 -0.6731
vn -0.3639 0.9167 -0.1651
vn -0.1996 0.8431 -0.4993
vn 0.2540 0.8282 0.4996
vn 0.4352 0.8842 0.1699
vn -0.1995 0.8431 -0.4993
vn 0.4351 0.8842 0.1699
vn 0.5532 0.8125 -0.1837
vn 0.6748 0.1917 0.7127
vn 0.8957 0.1874 0.4032
vn 0.2541 0.8282 0.4996
vn 0.6747 0.1917 0.7127
vn 0.5533 0.8125 -0.1837
vn 0.9871 0.1561 0.0361
vn 0.8957 0.1873 0.4032
vn 0.4693 -0.5724 0.6724
vn 0.6708 -0.6489 0.3592
vn 0.6748 0.1916 0.7127
vn 0.4693 -0.5723 0.6725
vn 0.6708 -0.6489 0.3591
vn 0.7752 -0.6317 -0.0054
vn -0.2076 -0.8885 0.4091
vn -0.0702 -0.9950 0.0709
vn 0.7752 -0.6317 -0.0055
vn -0.0702 -0.9950 0.0708
vn 0.0771 -0.9578 -0.2770
vn -0.7693 -0.5903 -0.2446
vn -0.2077 -0.8886 0.4090
vn -0.8463 -0.5188 0.1210
vn 0.0771 -0.9578 -0.2771
vn -0.5814 -0.5765 -0.5741
vn -0.9657 0.2584 0.0249
vn -0.7693 -0.5903 -0.2445
vn -0.5814 -0.5765 -0.5742
vn -0.7692 -0.5903 -0.2445
vn -0.6287 -0.5865 -0.5106
vn -0.7550 0.2353 -0.6121
vn 0.7623 -0.6431 0.0726
vn 0.0772 -0.9578 -0.2770
vn 0.0465 -0.9775 -0.2059
vn 0.5348 0.8378 -0.1102
vn 0.9796 0.1647 0.1151
vn -0.7550 0.2353 -0.6120
vn -0.2372 0.8692 -0.4339
vn 0.9796 0.1647 0.1152
vn 0.7623 -0.6431 0.0725
vn -0.2372 0.8692 -0.4338
vn -0.3487 -0.5174 0.7815
vn -0.2076 -0.8886 0.4091
vn 0.0694 -0.3221 0.9442
vn -0.3487 -0.5175 0.7814
vn -0.0635 0.5430 0.8373
vn 0.1963 0.1498 0.9690
vn -0.9657 0.2585 0.0250
vn -0.9657 0.2585 0.0249
vn 0.6747 0.1916 0.7128
vn 0.6747 0.1916 0.7127
vn -0.4760 0.8579 0.1934
vn -0.2077 -0.8885 0.4091
vn -0.8933 0.2596 -0.3668
vn -0.3570 0.9161 -0.1822
vn -0.8934 0.2596 -0.3668
vn -0.0632 -0.9965 0.0538
vn -0.7625 -0.5916 -0.2617
vn -0.0632 -0.9965 0.0539
vn 0.9033 0.1864 0.3864
vn 0.7623 -0.6432 0.0726
vn 0.6783 -0.6502 0.3423
vn 0.9033 0.1864 0.3865
vn -0.3570 0.9162 -0.1822
vn 0.4425 0.8836 0.1529
vn 0.5347 0.8378 -0.1102
vn -0.7626 -0.5916 -0.2617
vn -0.7550 0.2354 -0.6120
vn 0.6782 -0.6502 0.3423
vn 0.9033 0.1865 0.3864
vn 0.4425 0.8836 0.1530
vn 0.5348 0.8378 -0.1103
vn 0.9796 0.1648 0.1152
vt 0.543243 0.611839
vt 0.535370 0.618118
vt 0.537796 0.613083
vt 0.537796 0.623154
vt 0.547607 0.615326
vt 0.543243 0.624397
vt 0.547607 0.620918
vt 0.565384 0.671494
vt 0.570206 0.669548
vt 0.567856 0.672157
vt 0.564468 0.669609
vt 0.568146 0.666756
vt 0.564514 0.667854
vt 0.565857 0.666748
vt 0.562897 0.666855
vt 0.562302 0.669838
vt 0.559082 0.669685
vt 0.563492 0.673050
vt 0.560059 0.674789
vt 0.554092 0.669067
vt 0.554398 0.676537
vt 0.567307 0.675606
vt 0.564316 0.680244
vt 0.558044 0.684982
vt 0.575485 0.674767
vt 0.575272 0.686485
vt 0.565720 0.696274
vt 0.575485 0.658051
vt 0.568817 0.663902
vt 0.568115 0.659698
vt 0.574570 0.665543
vt 0.572052 0.651657
vt 0.565903 0.655174
vt 0.565063 0.664742
vt 0.563416 0.661980
vt 0.560669 0.658463
vt 0.560364 0.665283
vt 0.556488 0.662933
vt 0.552032 0.660286
vt 0.548294 0.668175
vt 0.563522 0.651588
vt 0.557617 0.654999
vt 0.551163 0.688484
vt 0.556610 0.699394
vt 0.547867 0.678001
vt 0.568756 0.648293
vt 0.604446 0.682632
vt 0.626221 0.687675
vt 0.604553 0.688225
vt 0.626144 0.682457
vt 0.604553 0.671455
vt 0.626144 0.677231
vt 0.604446 0.677048
vt 0.626221 0.672005
vt 0.605011 0.660294
vt 0.626404 0.666786
vt 0.604736 0.665871
vt 0.626663 0.661568
vt 0.626404 0.692902
vt 0.604736 0.693810
vt 0.626663 0.698120
vt 0.605011 0.699394
s 0
usemtl decorations
f 240/1/1 239/2/1 238/3/1
f 237/1/1 236/4/1 235/2/1
f 234/5/1 233/4/1 232/1/1
f 231/5/1 230/6/1 229/4/1
f 228/6/1 227/5/1 226/7/1
s 1
f 225/8/2 224/9/3 223/10/4
f 222/11/5 221/9/6 220/8/2
f 219/11/7 218/12/8 217/9/3
f 216/13/9 215/12/10 214/11/7
f 213/12/8 212/13/11 211/14/12
f 210/15/13 209/11/5 208/16/14
f 207/15/13 206/13/15 205/11/5
f 204/17/16 203/18/17 202/19/18
f 201/17/19 200/16/14 199/18/17
f 198/20/20 197/19/21 196/21/22
f 195/20/20 194/17/19 193/19/18
f 192/19/18 191/22/23 190/23/24
f 189/19/18 188/18/17 187/22/23
f 186/21/25 185/23/26 184/24/27
f 183/21/25 3/19/21 182/23/26
f 181/23/24 180/25/28 179/26/29
f 178/23/24 177/22/30 176/25/31
f 175/24/32 174/26/29 173/27/33
f 172/24/32 4/23/24 171/26/29
f 170/28/34 169/29/35 168/30/36
f 167/28/34 166/31/37 165/29/38
f 164/32/33 163/30/39 162/33/40
f 161/32/33 13/28/29 160/30/36
f 159/30/36 158/34/41 157/35/42
f 156/30/36 155/29/35 154/34/41
f 153/33/43 152/35/44 151/36/45
f 150/33/43 14/30/36 149/35/44
f 148/35/44 147/15/13 146/37/46
f 145/35/44 144/34/47 143/15/48
f 142/36/49 141/37/46 140/38/50
f 139/36/45 16/35/44 138/37/46
f 137/37/46 136/16/51 135/17/19
f 134/37/52 133/15/13 132/16/14
f 131/38/53 130/17/19 129/20/20
f 128/38/53 36/37/54 25/17/19
f 127/39/55 126/20/20 125/40/56
f 124/39/55 123/38/50 122/20/20
f 121/41/57 120/36/58 119/42/59
f 118/41/57 117/33/43 116/36/58
f 115/43/60 114/27/33 113/44/61
f 112/43/60 111/24/32 110/27/33
f 109/40/62 108/21/22 107/45/63
f 106/40/62 40/20/20 105/21/22
f 104/42/59 103/38/50 102/39/55
f 101/42/59 41/36/45 42/38/50
f 100/46/64 99/33/40 98/41/65
f 97/46/64 37/32/33 38/33/40
f 96/45/66 95/24/32 94/43/60
f 93/45/63 33/21/22 34/24/32
f 92/29/35 91/14/67 90/34/68
f 89/29/35 88/12/69 87/14/70
f 86/22/30 85/9/6 84/25/31
f 83/22/30 82/10/71 81/9/72
f 80/16/73 79/8/2 78/18/17
f 29/16/74 30/11/5 77/8/2
f 76/31/75 75/12/10 28/29/38
f 31/31/76 26/9/72 27/12/69
f 74/18/17 73/10/71 24/22/23
f 21/18/77 22/8/2 23/10/4
f 72/34/78 71/13/11 20/15/13
f 17/34/78 18/14/12 19/13/15
f 70/47/79 69/48/66 68/49/80
f 67/47/81 66/50/56 65/48/63
f 64/51/82 63/52/55 62/53/83
f 61/51/84 60/54/59 59/52/55
f 58/55/85 57/56/86 56/57/87
f 55/55/88 54/58/61 53/56/65
f 52/49/89 51/59/60 50/60/90
f 2/49/89 32/48/63 49/59/91
f 48/53/92 47/50/93 12/47/81
f 9/53/92 10/52/55 11/50/56
f 46/57/94 45/54/59 8/51/82
f 5/57/94 6/56/57 7/54/59
f 44/60/90 43/61/64 15/62/95
f 1/60/96 35/59/97 39/61/98
