# Blender 5.0.0
# www.blender.org
mtllib Circle_002_Circle_004_Dupli_264_decorations_0.mtl
o Circle.002|Circle.004|Dupli|264_decorations_0
v -4.429823 1.345282 0.843948
v -4.431027 1.344739 0.844437
v -4.434693 1.345930 0.837599
v -4.432975 1.346705 0.836902
v -4.429955 1.347705 0.844691
v -4.432499 1.348916 0.840009
v -4.433655 1.348968 0.840638
v -4.431191 1.347760 0.845363
v -4.432124 1.346726 0.845572
v -4.434527 1.348001 0.840833
v -4.434459 1.346744 0.840447
v -4.432051 1.345381 0.845159
v -4.432294 1.348589 0.837063
v -4.433163 1.350162 0.837962
v -4.429346 1.346603 0.844061
v -4.434927 1.350240 0.838921
v -4.435484 1.350203 0.837508
v -4.435771 1.349855 0.836414
v -4.436477 1.349071 0.836572
v -4.436567 1.349002 0.837750
v -4.435294 1.346695 0.836432
v -4.435647 1.347565 0.835712
v -4.434734 1.347977 0.835342
v -4.433896 1.347326 0.835865
v -4.436153 1.346846 0.838630
v -4.434373 1.348977 0.835428
v -4.434834 1.349813 0.835905
v -4.434049 1.350139 0.836727
v -4.436482 1.347441 0.837271
v -4.436422 1.348052 0.836260
v -4.433342 1.348859 0.835996
v -4.433502 1.346143 0.839772
v -4.433971 1.345879 0.838930
v -4.432485 1.346550 0.838326
v -4.432376 1.346651 0.839315
v -4.436257 1.348765 0.839219
v -4.431896 1.348180 0.838466
v -4.432647 1.349542 0.839244
v -4.431931 1.347885 0.839420
v -4.435236 1.346672 0.839822
v -4.434174 1.349610 0.840074
v -4.435326 1.348333 0.840331
v -4.431931 1.347885 0.839420
v -4.429823 1.345282 0.843948
v -4.433655 1.348968 0.840638
v -4.429955 1.347705 0.844691
v -4.434459 1.346744 0.840447
v -4.432124 1.346726 0.845572
v -4.432376 1.346651 0.839315
v -4.429823 1.345282 0.843948
v -4.432376 1.346651 0.839315
v -4.431027 1.344739 0.844437
v -4.432499 1.348916 0.840009
v -4.431931 1.347885 0.839420
v -4.429346 1.346603 0.844061
v -4.429955 1.347705 0.844691
v -4.432499 1.348916 0.840009
v -4.429346 1.346603 0.844061
v -4.434527 1.348001 0.840833
v -4.433655 1.348968 0.840638
v -4.431191 1.347760 0.845363
v -4.432124 1.346726 0.845572
v -4.434527 1.348001 0.840833
v -4.431191 1.347760 0.845363
v -4.433502 1.346143 0.839772
v -4.434459 1.346744 0.840447
v -4.432051 1.345381 0.845159
v -4.431027 1.344739 0.844437
v -4.433502 1.346143 0.839772
v -4.432051 1.345381 0.845159
v -4.436477 1.349071 0.836572
v -4.435484 1.350203 0.837508
v -4.434734 1.347977 0.835342
v -4.435294 1.346695 0.836432
v -4.434834 1.349813 0.835905
v -4.433342 1.348859 0.835996
v -4.435647 1.347565 0.835712
v -4.435294 1.346695 0.836432
v -4.435647 1.347565 0.835712
v -4.436482 1.347441 0.837271
v -4.434373 1.348977 0.835428
v -4.434734 1.347977 0.835342
v -4.433896 1.347326 0.835865
v -4.433342 1.348859 0.835996
v -4.434373 1.348977 0.835428
v -4.433896 1.347326 0.835865
v -4.435771 1.349855 0.836414
v -4.434834 1.349813 0.835905
v -4.434049 1.350139 0.836727
v -4.435484 1.350203 0.837508
v -4.435771 1.349855 0.836414
v -4.434049 1.350139 0.836727
v -4.433502 1.346143 0.839772
v -4.432376 1.346651 0.839315
v -4.432485 1.346550 0.838326
v -4.433502 1.346143 0.839772
v -4.431931 1.347885 0.839420
v -4.432499 1.348916 0.840009
v -4.432647 1.349542 0.839244
v -4.431931 1.347885 0.839420
v -4.433655 1.348968 0.840638
v -4.434527 1.348001 0.840833
v -4.435326 1.348333 0.840331
v -4.433655 1.348968 0.840638
v -4.433971 1.345879 0.838930
v -4.434459 1.346744 0.840447
v -4.433502 1.346143 0.839772
v -4.433971 1.345879 0.838930
v -4.434459 1.346744 0.840447
v -4.431896 1.348180 0.838466
v -4.432485 1.346550 0.838326
v -4.432376 1.346651 0.839315
v -4.431931 1.347885 0.839420
v -4.431896 1.348180 0.838466
v -4.432376 1.346651 0.839315
v -4.434174 1.349610 0.840074
v -4.432647 1.349542 0.839244
v -4.432499 1.348916 0.840009
v -4.433655 1.348968 0.840638
v -4.434174 1.349610 0.840074
v -4.432499 1.348916 0.840009
v -4.435236 1.346672 0.839822
v -4.435326 1.348333 0.840331
v -4.434527 1.348001 0.840833
v -4.434459 1.346744 0.840447
v -4.435236 1.346672 0.839822
v -4.434527 1.348001 0.840833
v -4.435326 1.348333 0.840331
v -4.435236 1.346672 0.839822
v -4.436153 1.346846 0.838630
v -4.435326 1.348333 0.840331
v -4.436482 1.347441 0.837271
v -4.436567 1.349002 0.837750
v -4.436257 1.348765 0.839219
v -4.436153 1.346846 0.838630
v -4.436482 1.347441 0.837271
v -4.436257 1.348765 0.839219
v -4.436257 1.348765 0.839219
v -4.434174 1.349610 0.840074
v -4.435326 1.348333 0.840331
v -4.436257 1.348765 0.839219
v -4.434174 1.349610 0.840074
v -4.436567 1.349002 0.837750
v -4.435484 1.350203 0.837508
v -4.434927 1.350240 0.838921
v -4.436257 1.348765 0.839219
v -4.436567 1.349002 0.837750
v -4.434927 1.350240 0.838921
v -4.434927 1.350240 0.838921
v -4.432647 1.349542 0.839244
v -4.434174 1.349610 0.840074
v -4.434927 1.350240 0.838921
v -4.432647 1.349542 0.839244
v -4.435484 1.350203 0.837508
v -4.434049 1.350139 0.836727
v -4.433163 1.350162 0.837962
v -4.434927 1.350240 0.838921
v -4.435484 1.350203 0.837508
v -4.433163 1.350162 0.837962
v -4.433163 1.350162 0.837962
v -4.431896 1.348180 0.838466
v -4.432647 1.349542 0.839244
v -4.433163 1.350162 0.837962
v -4.431896 1.348180 0.838466
v -4.434049 1.350139 0.836727
v -4.433342 1.348859 0.835996
v -4.432294 1.348589 0.837063
v -4.433163 1.350162 0.837962
v -4.434049 1.350139 0.836727
v -4.432294 1.348589 0.837063
v -4.432294 1.348589 0.837063
v -4.432485 1.346550 0.838326
v -4.431896 1.348180 0.838466
v -4.432294 1.348589 0.837063
v -4.432485 1.346550 0.838326
v -4.433342 1.348859 0.835996
v -4.433896 1.347326 0.835865
v -4.432975 1.346705 0.836902
v -4.432294 1.348589 0.837063
v -4.433342 1.348859 0.835996
v -4.432975 1.346705 0.836902
v -4.432975 1.346705 0.836902
v -4.433971 1.345879 0.838930
v -4.432485 1.346550 0.838326
v -4.432975 1.346705 0.836902
v -4.433971 1.345879 0.838930
v -4.433896 1.347326 0.835865
v -4.435294 1.346695 0.836432
v -4.434693 1.345930 0.837599
v -4.432975 1.346705 0.836902
v -4.433896 1.347326 0.835865
v -4.434693 1.345930 0.837599
v -4.434693 1.345930 0.837599
v -4.436153 1.346846 0.838630
v -4.435236 1.346672 0.839822
v -4.433971 1.345879 0.838930
v -4.434693 1.345930 0.837599
v -4.435236 1.346672 0.839822
v -4.435294 1.346695 0.836432
v -4.436482 1.347441 0.837271
v -4.436153 1.346846 0.838630
v -4.434693 1.345930 0.837599
v -4.435294 1.346695 0.836432
v -4.436153 1.346846 0.838630
v -4.436422 1.348052 0.836260
v -4.436477 1.349071 0.836572
v -4.436567 1.349002 0.837750
v -4.436482 1.347441 0.837271
v -4.436422 1.348052 0.836260
v -4.436567 1.349002 0.837750
v -4.435771 1.349855 0.836414
v -4.436477 1.349071 0.836572
v -4.434834 1.349813 0.835905
v -4.436422 1.348052 0.836260
v -4.434834 1.349813 0.835905
v -4.436477 1.349071 0.836572
v -4.434373 1.348977 0.835428
v -4.434834 1.349813 0.835905
v -4.436422 1.348052 0.836260
v -4.435647 1.347565 0.835712
v -4.434373 1.348977 0.835428
v -4.436422 1.348052 0.836260
v -4.434734 1.347977 0.835342
v -4.434373 1.348977 0.835428
v -4.435647 1.347565 0.835712
v -4.431191 1.347760 0.845363
v -4.429955 1.347705 0.844691
v -4.432124 1.346726 0.845572
v -4.432051 1.345381 0.845159
v -4.432124 1.346726 0.845572
v -4.429955 1.347705 0.844691
v -4.429346 1.346603 0.844061
v -4.432051 1.345381 0.845159
v -4.429955 1.347705 0.844691
v -4.431027 1.344739 0.844437
v -4.432051 1.345381 0.845159
v -4.429346 1.346603 0.844061
v -4.429823 1.345282 0.843948
v -4.431027 1.344739 0.844437
v -4.429346 1.346603 0.844061
vn 0.4558 -0.2383 0.8576
vn -0.4594 -0.3504 -0.8162
vn 0.1246 0.2971 -0.9467
vn -0.0412 -0.1616 -0.9860
vn -0.8152 -0.1272 -0.5650
vn -0.4595 -0.3504 -0.8161
vn -0.8152 -0.1273 -0.5651
vn -0.0869 0.6803 -0.7278
vn -0.8406 0.3400 -0.4218
vn -0.0869 0.6802 -0.7278
vn -0.8152 -0.1272 -0.5651
vn -0.8406 0.3399 -0.4218
vn -0.5165 0.6993 -0.4942
vn -0.9374 0.3291 0.1138
vn -0.8964 -0.4272 -0.1182
vn -0.9374 0.3290 0.1138
vn -0.8405 0.3400 -0.4218
vn -0.7947 -0.5652 0.2214
vn -0.3204 -0.7887 -0.5247
vn -0.1644 -0.9607 -0.2237
vn -0.7948 -0.5651 0.2213
vn -0.8964 -0.4273 -0.1182
vn -0.3205 -0.7886 -0.5247
vn -0.5787 -0.6212 0.5284
vn -0.1643 -0.9607 -0.2237
vn 0.0152 -0.9939 0.1091
vn 0.3567 -0.4830 -0.7997
vn 0.5768 -0.6261 -0.5247
vn 0.0153 -0.9939 0.1092
vn 0.7134 -0.6787 -0.1744
vn 0.6252 0.2596 -0.7360
vn 0.8707 0.1868 -0.4550
vn 0.6251 0.2596 -0.7361
vn 0.7135 -0.6787 -0.1743
vn 0.9902 0.0871 -0.1088
vn 0.8707 0.1868 -0.4549
vn 0.2828 0.8800 -0.3817
vn 0.4959 0.8658 -0.0672
vn 0.6252 0.2597 -0.7360
vn 0.2827 0.8800 -0.3818
vn 0.9902 0.0871 -0.1087
vn 0.4959 0.8658 -0.0671
vn 0.6372 0.7267 0.2566
vn -0.4127 0.9109 -0.0036
vn -0.2653 0.8996 0.3469
vn 0.2827 0.8800 -0.3817
vn 0.6372 0.7267 0.2567
vn -0.0799 0.7586 0.6466
vn -0.8397 0.2628 0.4752
vn -0.4127 0.9109 -0.0035
vn -0.9374 0.3291 0.1137
vn -0.0799 0.7586 0.6467
vn -0.6210 0.1587 0.7675
vn -0.8397 0.2627 0.4753
vn -0.6210 0.1587 0.7676
vn -0.5787 -0.6213 0.5284
vn -0.6755 0.1829 0.7144
vn -0.6320 -0.6168 0.4691
vn -0.6754 0.1829 0.7144
vn 0.6147 0.7654 0.1904
vn -0.1206 0.7981 0.5904
vn 0.6147 0.7654 0.1905
vn 0.6929 -0.6757 -0.2515
vn 0.9768 0.1095 -0.1842
vn 0.7135 -0.6787 -0.1744
vn 0.0152 -0.9939 0.1092
vn -0.0230 -0.9990 0.0393
vn -0.1206 0.7981 0.5903
vn -0.0230 -0.9990 0.0392
vn 0.6930 -0.6757 -0.2515
vn -0.0231 -0.9990 0.0393
vn -0.5164 0.6993 -0.4942
vn 0.3567 -0.4829 -0.7997
vn -0.8963 -0.4273 -0.1182
vn -0.4595 -0.3504 -0.8162
vn 0.6251 0.2597 -0.7361
vn -0.7867 -0.5698 0.2373
vn -0.0231 -0.9990 0.0392
vn -0.1560 -0.9656 -0.2079
vn -0.7868 -0.5698 0.2373
vn -0.2571 0.8957 0.3629
vn -0.8317 0.2586 0.4913
vn 0.8796 0.1825 -0.4393
vn 0.5046 0.8618 -0.0513
vn 0.8796 0.1826 -0.4394
vn 0.5855 -0.6309 -0.5091
vn -0.1560 -0.9656 -0.2080
vn -0.8317 0.2585 0.4914
vn -0.6320 -0.6169 0.4691
vn -0.8317 0.2585 0.4913
vn -0.2570 0.8957 0.3629
vn 0.5856 -0.6308 -0.5091
vn 0.8796 0.1825 -0.4394
vt 0.530319 0.635056
vt 0.522446 0.641335
vt 0.524872 0.636299
vt 0.524872 0.646370
vt 0.534683 0.638535
vt 0.530319 0.647614
vt 0.534683 0.644127
vt 0.508789 0.671494
vt 0.513626 0.669548
vt 0.511276 0.672157
vt 0.507889 0.669609
vt 0.511566 0.666756
vt 0.507935 0.667854
vt 0.509277 0.666748
vt 0.506302 0.666855
vt 0.505722 0.669838
vt 0.502487 0.669685
vt 0.506897 0.673050
vt 0.503479 0.674789
vt 0.497520 0.669067
vt 0.497810 0.676537
vt 0.510727 0.675606
vt 0.507721 0.680244
vt 0.501465 0.684982
vt 0.518890 0.674767
vt 0.518692 0.686485
vt 0.509125 0.696274
vt 0.518890 0.658051
vt 0.512238 0.663902
vt 0.511536 0.659698
vt 0.517990 0.665543
vt 0.515472 0.651657
vt 0.509323 0.655174
vt 0.508469 0.664742
vt 0.506836 0.661980
vt 0.504074 0.658463
vt 0.503784 0.665283
vt 0.499901 0.662933
vt 0.495453 0.660286
vt 0.491707 0.668175
vt 0.506927 0.651588
vt 0.501038 0.654999
vt 0.494583 0.688484
vt 0.500031 0.699394
vt 0.491287 0.678001
vt 0.512177 0.648293
vt 0.627350 0.642853
vt 0.649124 0.647896
vt 0.627441 0.648445
vt 0.649033 0.642670
vt 0.627441 0.631676
vt 0.649033 0.637444
vt 0.627350 0.637268
vt 0.649124 0.632225
vt 0.627914 0.620506
vt 0.649292 0.626999
vt 0.627625 0.626091
vt 0.649551 0.621780
vt 0.649292 0.653114
vt 0.627625 0.654030
vt 0.649551 0.658333
vt 0.627914 0.659607
s 0
usemtl decorations
f 240/1/1 239/2/1 238/3/1
f 237/1/1 236/4/1 235/2/1
f 234/5/1 233/4/1 232/1/1
f 231/5/1 230/6/1 229/4/1
f 228/6/1 227/5/1 226/7/1
s 1
f 225/8/2 224/9/3 223/10/4
f 222/11/5 221/9/3 220/8/6
f 219/11/7 218/12/8 217/9/3
f 216/13/9 215/12/10 214/11/11
f 213/12/8 212/13/12 211/14/13
f 210/15/14 209/11/11 208/16/15
f 207/15/16 206/13/17 205/11/11
f 204/17/18 203/18/19 202/19/20
f 201/17/21 200/16/22 199/18/23
f 198/20/24 197/19/25 196/21/26
f 195/20/24 194/17/21 193/19/20
f 192/19/20 191/22/27 190/23/28
f 189/19/20 188/18/19 187/22/27
f 186/21/29 185/23/28 184/24/30
f 183/21/29 3/19/25 182/23/28
f 181/23/28 180/25/31 179/26/32
f 178/23/28 177/22/27 176/25/33
f 175/24/34 174/26/32 173/27/35
f 172/24/34 4/23/28 171/26/32
f 170/28/36 169/29/37 168/30/38
f 167/28/36 166/31/39 165/29/40
f 164/32/41 163/30/42 162/33/43
f 161/32/41 13/28/32 160/30/38
f 159/30/38 158/34/44 157/35/45
f 156/30/38 155/29/46 154/34/44
f 153/33/47 152/35/45 151/36/48
f 150/33/47 14/30/42 149/35/45
f 148/35/45 147/15/14 146/37/49
f 145/35/45 144/34/50 143/15/51
f 142/36/52 141/37/49 140/38/53
f 139/36/52 16/35/45 138/37/49
f 137/37/54 136/16/22 135/17/21
f 134/37/49 133/15/14 132/16/15
f 131/38/55 130/17/21 129/20/56
f 128/38/55 36/37/49 25/17/21
f 127/39/57 126/20/24 125/40/58
f 124/39/59 123/38/55 122/20/24
f 121/41/60 120/36/48 119/42/61
f 118/41/62 117/33/47 116/36/48
f 115/43/63 114/27/35 113/44/64
f 112/43/63 111/24/65 110/27/35
f 109/40/58 108/21/66 107/45/67
f 106/40/58 40/20/24 105/21/66
f 104/42/68 103/38/55 102/39/59
f 101/42/61 41/36/48 42/38/55
f 100/46/64 99/33/43 98/41/62
f 97/46/64 37/32/41 38/33/43
f 96/45/69 95/24/30 94/43/70
f 93/45/71 33/21/66 34/24/30
f 92/29/46 91/14/72 90/34/44
f 89/29/46 88/12/10 87/14/13
f 86/22/73 85/9/3 84/25/33
f 83/22/73 82/10/4 81/9/3
f 80/16/74 79/8/2 78/18/23
f 29/16/74 30/11/5 77/8/75
f 76/31/76 75/12/10 28/29/40
f 31/31/76 26/9/3 27/12/10
f 74/18/19 73/10/4 24/22/27
f 21/18/19 22/8/75 23/10/4
f 72/34/44 71/13/9 20/15/14
f 17/34/50 18/14/13 19/13/17
f 70/47/77 69/48/78 68/49/79
f 67/47/80 66/50/58 65/48/71
f 64/51/81 63/52/57 62/53/82
f 61/51/81 60/54/61 59/52/59
f 58/55/83 57/56/62 56/57/84
f 55/55/85 54/58/64 53/56/62
f 52/49/79 51/59/63 50/60/86
f 2/49/87 32/48/67 49/59/63
f 48/53/88 47/50/89 12/47/80
f 9/53/90 10/52/59 11/50/58
f 46/57/84 45/54/61 8/51/91
f 5/57/84 6/56/62 7/54/61
f 44/60/92 43/61/64 15/62/93
f 1/60/92 35/59/63 39/61/64
