# Blender 5.0.0
# www.blender.org
mtllib Circle_005_Circle_001_Dupli_86_decorations_0.mtl
o Circle.005|Circle.001|Dupli|86_decorations_0
v -4.572522 1.347726 0.374225
v -4.572989 1.346944 0.373150
v -4.567327 1.349565 0.368388
v -4.566661 1.350680 0.369920
v -4.573940 1.349823 0.374054
v -4.570181 1.351993 0.370733
v -4.570945 1.351747 0.369690
v -4.574757 1.349560 0.372938
v -4.574781 1.348415 0.372118
v -4.570968 1.350676 0.368924
v -4.570232 1.349588 0.369012
v -4.573995 1.347250 0.372213
v -4.567265 1.352509 0.370494
v -4.568684 1.353674 0.369677
v -4.572946 1.349007 0.374627
v -4.569849 1.353298 0.368084
v -4.568571 1.353590 0.367316
v -4.567472 1.353526 0.366885
v -4.567490 1.352659 0.366264
v -4.568600 1.352261 0.366365
v -4.566519 1.350553 0.367563
v -4.566133 1.351544 0.367046
v -4.565779 1.352136 0.367860
v -4.565977 1.351460 0.368810
v -4.568762 1.350003 0.367050
v -4.566099 1.353107 0.368164
v -4.566853 1.353726 0.367730
v -4.567623 1.353896 0.368612
v -4.567687 1.350909 0.366475
v -4.566894 1.351776 0.366335
v -4.566468 1.352948 0.369277
v -4.569293 1.349301 0.369888
v -4.568480 1.349229 0.369311
v -4.567904 1.350194 0.370637
v -4.568856 1.350032 0.370892
v -4.569884 1.351664 0.366915
v -4.568426 1.351777 0.371134
v -4.569654 1.352785 0.370427
v -4.569252 1.351230 0.371269
v -4.569722 1.349607 0.368153
v -4.570663 1.352459 0.369048
v -4.570693 1.351045 0.368036
v -4.569252 1.351230 0.371269
v -4.572522 1.347726 0.374225
v -4.570945 1.351747 0.369690
v -4.573940 1.349823 0.374054
v -4.570232 1.349588 0.369012
v -4.574781 1.348415 0.372118
v -4.568856 1.350032 0.370892
v -4.572522 1.347726 0.374225
v -4.568856 1.350032 0.370892
v -4.572989 1.346944 0.373150
v -4.570181 1.351993 0.370733
v -4.569252 1.351230 0.371269
v -4.572946 1.349007 0.374627
v -4.573940 1.349823 0.374054
v -4.570181 1.351993 0.370733
v -4.572946 1.349007 0.374627
v -4.570968 1.350676 0.368924
v -4.570945 1.351747 0.369690
v -4.574757 1.349560 0.372938
v -4.574781 1.348415 0.372118
v -4.570968 1.350676 0.368924
v -4.574757 1.349560 0.372938
v -4.569293 1.349301 0.369888
v -4.570232 1.349588 0.369012
v -4.573995 1.347250 0.372213
v -4.572989 1.346944 0.373150
v -4.569293 1.349301 0.369888
v -4.573995 1.347250 0.372213
v -4.567490 1.352659 0.366264
v -4.568571 1.353590 0.367316
v -4.565779 1.352136 0.367860
v -4.566519 1.350553 0.367563
v -4.566853 1.353726 0.367730
v -4.566468 1.352948 0.369277
v -4.566133 1.351544 0.367046
v -4.566519 1.350553 0.367563
v -4.566133 1.351544 0.367046
v -4.567687 1.350909 0.366475
v -4.566099 1.353107 0.368164
v -4.565779 1.352136 0.367860
v -4.565977 1.351460 0.368810
v -4.566468 1.352948 0.369277
v -4.566099 1.353107 0.368164
v -4.565977 1.351460 0.368810
v -4.567472 1.353526 0.366885
v -4.566853 1.353726 0.367730
v -4.567623 1.353896 0.368612
v -4.568571 1.353590 0.367316
v -4.567472 1.353526 0.366885
v -4.567623 1.353896 0.368612
v -4.569293 1.349301 0.369888
v -4.568856 1.350032 0.370892
v -4.567904 1.350194 0.370637
v -4.569293 1.349301 0.369888
v -4.569252 1.351230 0.371269
v -4.570181 1.351993 0.370733
v -4.569654 1.352785 0.370427
v -4.569252 1.351230 0.371269
v -4.570945 1.351747 0.369690
v -4.570968 1.350676 0.368924
v -4.570693 1.351045 0.368036
v -4.570945 1.351747 0.369690
v -4.568480 1.349229 0.369311
v -4.570232 1.349588 0.369012
v -4.569293 1.349301 0.369888
v -4.568480 1.349229 0.369311
v -4.570232 1.349588 0.369012
v -4.568426 1.351777 0.371134
v -4.567904 1.350194 0.370637
v -4.568856 1.350032 0.370892
v -4.569252 1.351230 0.371269
v -4.568426 1.351777 0.371134
v -4.568856 1.350032 0.370892
v -4.570663 1.352459 0.369048
v -4.569654 1.352785 0.370427
v -4.570181 1.351993 0.370733
v -4.570945 1.351747 0.369690
v -4.570663 1.352459 0.369048
v -4.570181 1.351993 0.370733
v -4.569722 1.349607 0.368153
v -4.570693 1.351045 0.368036
v -4.570968 1.350676 0.368924
v -4.570232 1.349588 0.369012
v -4.569722 1.349607 0.368153
v -4.570968 1.350676 0.368924
v -4.570693 1.351045 0.368036
v -4.569722 1.349607 0.368153
v -4.568762 1.350003 0.367050
v -4.570693 1.351045 0.368036
v -4.567687 1.350909 0.366475
v -4.568600 1.352261 0.366365
v -4.569884 1.351664 0.366915
v -4.568762 1.350003 0.367050
v -4.567687 1.350909 0.366475
v -4.569884 1.351664 0.366915
v -4.569884 1.351664 0.366915
v -4.570663 1.352459 0.369048
v -4.570693 1.351045 0.368036
v -4.569884 1.351664 0.366915
v -4.570663 1.352459 0.369048
v -4.568600 1.352261 0.366365
v -4.568571 1.353590 0.367316
v -4.569849 1.353298 0.368084
v -4.569884 1.351664 0.366915
v -4.568600 1.352261 0.366365
v -4.569849 1.353298 0.368084
v -4.569849 1.353298 0.368084
v -4.569654 1.352785 0.370427
v -4.570663 1.352459 0.369048
v -4.569849 1.353298 0.368084
v -4.569654 1.352785 0.370427
v -4.568571 1.353590 0.367316
v -4.567623 1.353896 0.368612
v -4.568684 1.353674 0.369677
v -4.569849 1.353298 0.368084
v -4.568571 1.353590 0.367316
v -4.568684 1.353674 0.369677
v -4.568684 1.353674 0.369677
v -4.568426 1.351777 0.371134
v -4.569654 1.352785 0.370427
v -4.568684 1.353674 0.369677
v -4.568426 1.351777 0.371134
v -4.567623 1.353896 0.368612
v -4.566468 1.352948 0.369277
v -4.567265 1.352509 0.370494
v -4.568684 1.353674 0.369677
v -4.567623 1.353896 0.368612
v -4.567265 1.352509 0.370494
v -4.567265 1.352509 0.370494
v -4.567904 1.350194 0.370637
v -4.568426 1.351777 0.371134
v -4.567265 1.352509 0.370494
v -4.567904 1.350194 0.370637
v -4.566468 1.352948 0.369277
v -4.565977 1.351460 0.368810
v -4.566661 1.350680 0.369920
v -4.567265 1.352509 0.370494
v -4.566468 1.352948 0.369277
v -4.566661 1.350680 0.369920
v -4.566661 1.350680 0.369920
v -4.568480 1.349229 0.369311
v -4.567904 1.350194 0.370637
v -4.566661 1.350680 0.369920
v -4.568480 1.349229 0.369311
v -4.565977 1.351460 0.368810
v -4.566519 1.350553 0.367563
v -4.567327 1.349565 0.368388
v -4.566661 1.350680 0.369920
v -4.565977 1.351460 0.368810
v -4.567327 1.349565 0.368388
v -4.567327 1.349565 0.368388
v -4.568762 1.350003 0.367050
v -4.569722 1.349607 0.368153
v -4.568480 1.349229 0.369311
v -4.567327 1.349565 0.368388
v -4.569722 1.349607 0.368153
v -4.566519 1.350553 0.367563
v -4.567687 1.350909 0.366475
v -4.568762 1.350003 0.367050
v -4.567327 1.349565 0.368388
v -4.566519 1.350553 0.367563
v -4.568762 1.350003 0.367050
v -4.566894 1.351776 0.366335
v -4.567490 1.352659 0.366264
v -4.568600 1.352261 0.366365
v -4.567687 1.350909 0.366475
v -4.566894 1.351776 0.366335
v -4.568600 1.352261 0.366365
v -4.567472 1.353526 0.366885
v -4.567490 1.352659 0.366264
v -4.566853 1.353726 0.367730
v -4.566894 1.351776 0.366335
v -4.566853 1.353726 0.367730
v -4.567490 1.352659 0.366264
v -4.566099 1.353107 0.368164
v -4.566853 1.353726 0.367730
v -4.566894 1.351776 0.366335
v -4.566133 1.351544 0.367046
v -4.566099 1.353107 0.368164
v -4.566894 1.351776 0.366335
v -4.565779 1.352136 0.367860
v -4.566099 1.353107 0.368164
v -4.566133 1.351544 0.367046
v -4.574757 1.349560 0.372938
v -4.573940 1.349823 0.374054
v -4.574781 1.348415 0.372118
v -4.573995 1.347250 0.372213
v -4.574781 1.348415 0.372118
v -4.573940 1.349823 0.374054
v -4.572946 1.349007 0.374627
v -4.573995 1.347250 0.372213
v -4.573940 1.349823 0.374054
v -4.572989 1.346944 0.373150
v -4.573995 1.347250 0.372213
v -4.572946 1.349007 0.374627
v -4.572522 1.347726 0.374225
v -4.572989 1.346944 0.373150
v -4.572946 1.349007 0.374627
vn -0.6851 -0.4142 0.5992
vn 0.8142 -0.1602 -0.5580
vn 0.8294 0.5568 -0.0450
vn 0.9764 0.1114 -0.1848
vn 0.4649 -0.0536 -0.8837
vn 0.8295 0.5567 -0.0450
vn 0.8142 -0.1602 -0.5581
vn 0.4650 -0.0537 -0.8837
vn 0.4839 0.8404 -0.2440
vn 0.1916 0.3509 -0.9166
vn 0.4840 0.8404 -0.2440
vn 0.4649 -0.0537 -0.8837
vn 0.2001 0.7488 -0.6319
vn -0.3262 0.1833 -0.9273
vn 0.1163 -0.4715 -0.8742
vn -0.1529 -0.6856 -0.7117
vn 0.6817 -0.6441 -0.3469
vn 0.4661 -0.8744 -0.1347
vn -0.1529 -0.6855 -0.7118
vn 0.1163 -0.4716 -0.8741
vn 0.6818 -0.6441 -0.3469
vn -0.3996 -0.8003 -0.4470
vn 0.4661 -0.8744 -0.1346
vn 0.1836 -0.9782 0.0967
vn 0.9445 -0.2044 0.2574
vn 0.7536 -0.3931 0.5268
vn 0.6818 -0.6441 -0.3468
vn 0.9444 -0.2044 0.2574
vn 0.1835 -0.9782 0.0967
vn 0.4544 -0.5248 0.7198
vn 0.7065 0.5166 0.4837
vn 0.4931 0.3961 0.7745
vn 0.9444 -0.2043 0.2575
vn 0.2090 0.2187 0.9531
vn 0.4931 0.3961 0.7746
vn 0.1471 0.9758 0.1616
vn -0.1191 0.8988 0.4219
vn 0.1472 0.9758 0.1616
vn 0.2090 0.2187 0.9532
vn -0.1192 0.8988 0.4219
vn -0.3677 0.6922 0.6210
vn -0.3124 0.8276 -0.4664
vn -0.6222 0.7364 -0.2655
vn -0.3678 0.6922 0.6210
vn -0.8417 0.5393 -0.0266
vn -0.6223 0.7364 -0.2655
vn -0.3262 0.1834 -0.9273
vn -0.6372 0.0313 -0.7700
vn -0.3125 0.8275 -0.4664
vn -0.8417 0.5392 -0.0266
vn -0.8558 -0.1249 -0.5019
vn -0.1529 -0.6856 -0.7118
vn -0.6372 0.0314 -0.7701
vn -0.8559 -0.1250 -0.5019
vn -0.3996 -0.8003 -0.4471
vn -0.6372 0.0314 -0.7700
vn -0.8195 -0.0931 -0.5655
vn -0.3517 -0.7855 -0.5092
vn -0.8195 -0.0931 -0.5654
vn -0.3190 0.7449 0.5859
vn -0.8050 0.5881 -0.0781
vn -0.3191 0.7449 0.5859
vn 0.5240 -0.5030 0.6873
vn 0.2091 0.2187 0.9531
vn 0.2724 0.2593 0.9266
vn -0.3516 -0.7855 -0.5092
vn 0.2462 -0.9680 0.0484
vn -0.8195 -0.0930 -0.5654
vn 0.2463 -0.9680 0.0483
vn 0.2000 0.7488 -0.6319
vn 0.9445 -0.2043 0.2574
vn 0.9444 -0.2043 0.2574
vn 0.4649 -0.0536 -0.8838
vn 0.8295 0.5567 -0.0451
vn 0.6817 -0.6442 -0.3468
vn -0.3124 0.8275 -0.4664
vn -0.1656 -0.6936 -0.7011
vn 0.4537 -0.8826 -0.1236
vn -0.6353 0.7291 -0.2546
vn -0.8195 -0.0930 -0.5655
vn -0.6503 0.0237 -0.7593
vn -0.6352 0.7292 -0.2546
vn 0.4807 0.3887 0.7860
vn -0.1318 0.8916 0.4333
vn 0.7413 -0.4010 0.5382
vn 0.4537 -0.8825 -0.1236
vn -0.6502 0.0237 -0.7594
vn -0.3516 -0.7856 -0.5092
vn -0.1657 -0.6936 -0.7011
vn -0.1319 0.8916 0.4332
vn -0.1318 0.8916 0.4332
vn 0.2725 0.2593 0.9266
vn 0.7414 -0.4009 0.5382
vt 0.543243 0.635056
vt 0.535370 0.641335
vt 0.537796 0.636299
vt 0.537796 0.646370
vt 0.547607 0.638535
vt 0.543243 0.647614
vt 0.547607 0.644127
vt 0.593674 0.671494
vt 0.598511 0.669548
vt 0.596146 0.672157
vt 0.592773 0.669609
vt 0.596436 0.666756
vt 0.592804 0.667854
vt 0.594147 0.666748
vt 0.591187 0.666855
vt 0.590591 0.669838
vt 0.587372 0.669685
vt 0.591782 0.673050
vt 0.588348 0.674789
vt 0.582382 0.669067
vt 0.582687 0.676537
vt 0.595596 0.675606
vt 0.592606 0.680244
vt 0.586334 0.684982
vt 0.603775 0.674767
vt 0.603561 0.686485
vt 0.594009 0.696274
vt 0.603775 0.658051
vt 0.597107 0.663902
vt 0.596405 0.659698
vt 0.602859 0.665543
vt 0.600342 0.651657
vt 0.594193 0.655174
vt 0.593353 0.664742
vt 0.591705 0.661980
vt 0.588959 0.658463
vt 0.588654 0.665283
vt 0.584778 0.662933
vt 0.580322 0.660286
vt 0.576584 0.668175
vt 0.591812 0.651588
vt 0.585907 0.654999
vt 0.579453 0.688484
vt 0.584915 0.699394
vt 0.576157 0.678001
vt 0.597061 0.648293
vt 0.627350 0.682632
vt 0.649124 0.687675
vt 0.627441 0.688225
vt 0.649033 0.682457
vt 0.627441 0.671455
vt 0.649033 0.677231
vt 0.627350 0.677048
vt 0.649124 0.672005
vt 0.627914 0.660294
vt 0.649292 0.666786
vt 0.627625 0.665871
vt 0.649551 0.661568
vt 0.649292 0.692902
vt 0.627625 0.693810
vt 0.649551 0.698120
vt 0.627914 0.699394
s 0
usemtl decorations
f 240/1/1 239/2/1 238/3/1
f 237/1/1 236/4/1 235/2/1
f 234/5/1 233/4/1 232/1/1
f 231/5/1 230/6/1 229/4/1
f 228/6/1 227/5/1 226/7/1
s 1
f 225/8/2 224/9/3 223/10/4
f 222/11/5 221/9/6 220/8/7
f 219/11/8 218/12/9 217/9/3
f 216/13/10 215/12/11 214/11/12
f 213/12/9 212/13/10 211/14/13
f 210/15/14 209/11/5 208/16/15
f 207/15/14 206/13/10 205/11/5
f 204/17/16 203/18/17 202/19/18
f 201/17/19 200/16/20 199/18/21
f 198/20/22 197/19/23 196/21/24
f 195/20/22 194/17/19 193/19/18
f 192/19/23 191/22/25 190/23/26
f 189/19/18 188/18/27 187/22/28
f 186/21/29 185/23/26 184/24/30
f 183/21/29 3/19/23 182/23/26
f 181/23/26 180/25/31 179/26/32
f 178/23/26 177/22/33 176/25/31
f 175/24/30 174/26/32 173/27/34
f 172/24/30 4/23/26 171/26/32
f 170/28/35 169/29/36 168/30/37
f 167/28/35 166/31/31 165/29/38
f 164/32/39 163/30/40 162/33/41
f 161/32/39 13/28/32 160/30/37
f 159/30/37 158/34/42 157/35/43
f 156/30/37 155/29/36 154/34/42
f 153/33/44 152/35/43 151/36/45
f 150/33/44 14/30/37 149/35/43
f 148/35/46 147/15/47 146/37/48
f 145/35/46 144/34/49 143/15/47
f 142/36/50 141/37/48 140/38/51
f 139/36/50 16/35/43 138/37/48
f 137/37/48 136/16/20 135/17/52
f 134/37/53 133/15/47 132/16/15
f 131/38/54 130/17/52 129/20/55
f 128/38/54 36/37/56 25/17/52
f 127/39/57 126/20/55 125/40/58
f 124/39/59 123/38/51 122/20/55
f 121/41/60 120/36/45 119/42/61
f 118/41/62 117/33/44 116/36/45
f 115/43/63 114/27/64 113/44/65
f 112/43/63 111/24/30 110/27/64
f 109/40/66 108/21/29 107/45/67
f 106/40/58 40/20/22 105/21/29
f 104/42/61 103/38/51 102/39/68
f 101/42/61 41/36/45 42/38/51
f 100/46/65 99/33/41 98/41/62
f 97/46/65 37/32/34 38/33/41
f 96/45/69 95/24/30 94/43/63
f 93/45/69 33/21/29 34/24/30
f 92/29/36 91/14/13 90/34/42
f 89/29/36 88/12/11 87/14/70
f 86/22/71 85/9/6 84/25/31
f 83/22/72 82/10/4 81/9/6
f 80/16/20 79/8/2 78/18/21
f 29/16/20 30/11/73 77/8/2
f 76/31/31 75/12/9 28/29/38
f 31/31/31 26/9/74 27/12/11
f 74/18/27 73/10/4 24/22/28
f 21/18/75 22/8/2 23/10/4
f 72/34/76 71/13/10 20/15/47
f 17/34/49 18/14/13 19/13/10
f 70/47/77 69/48/69 68/49/78
f 67/47/77 66/50/58 65/48/69
f 64/51/79 63/52/80 62/53/81
f 61/51/82 60/54/61 59/52/68
f 58/55/83 57/56/62 56/57/84
f 55/55/83 54/58/65 53/56/62
f 52/49/78 51/59/63 50/60/85
f 2/49/86 32/48/67 49/59/63
f 48/53/87 47/50/88 12/47/89
f 9/53/87 10/52/80 11/50/58
f 46/57/90 45/54/61 8/51/82
f 5/57/91 6/56/62 7/54/61
f 44/60/85 43/61/92 15/62/83
f 1/60/93 35/59/63 39/61/65
