# Blender 5.0.0
# www.blender.org
mtllib Circle_005_Circle_Dupli_223_decorations_0.mtl
o Circle.005|Circle|Dupli|223_decorations_0
v -4.365458 2.071408 0.614058
v -4.364676 2.071124 0.612921
v -4.369180 2.075623 0.608329
v -4.370295 2.076028 0.609951
v -4.367086 2.069463 0.614123
v -4.370501 2.072325 0.610959
v -4.370147 2.071610 0.609911
v -4.366707 2.068699 0.613003
v -4.365678 2.068952 0.612075
v -4.369184 2.071846 0.609044
v -4.368340 2.072855 0.609010
v -4.364774 2.070031 0.612039
v -4.371825 2.074973 0.610714
v -4.372619 2.073253 0.610044
v -4.366530 2.070669 0.614593
v -4.372077 2.072163 0.608445
v -4.372780 2.073275 0.607684
v -4.373063 2.074328 0.607227
v -4.372283 2.074520 0.606524
v -4.371586 2.073568 0.606607
v -4.370422 2.076090 0.607590
v -4.371524 2.076166 0.607165
v -4.372116 2.076381 0.608027
v -4.371330 2.076420 0.608909
v -4.369320 2.074063 0.607070
v -4.372929 2.075821 0.608432
v -4.373350 2.074908 0.608076
v -4.373221 2.074162 0.608985
v -4.370536 2.074821 0.606565
v -4.371598 2.075338 0.606497
v -4.372575 2.075562 0.609531
v -4.368248 2.073877 0.609835
v -4.368455 2.074651 0.609237
v -4.369421 2.075001 0.610641
v -4.368978 2.074143 0.610897
v -4.370609 2.072523 0.607122
v -4.370745 2.074089 0.611301
v -4.371432 2.072600 0.610721
v -4.369981 2.073452 0.611398
v -4.368577 2.073301 0.608147
v -4.370964 2.071656 0.609338
v -4.369693 2.071968 0.608192
v -4.369981 2.073452 0.611398
v -4.365458 2.071408 0.614058
v -4.370147 2.071610 0.609911
v -4.367086 2.069463 0.614123
v -4.368340 2.072855 0.609010
v -4.365678 2.068952 0.612075
v -4.368978 2.074143 0.610897
v -4.365458 2.071408 0.614058
v -4.368978 2.074143 0.610897
v -4.364676 2.071124 0.612921
v -4.370501 2.072325 0.610959
v -4.369981 2.073452 0.611398
v -4.366530 2.070669 0.614593
v -4.367086 2.069463 0.614123
v -4.370501 2.072325 0.610959
v -4.366530 2.070669 0.614593
v -4.369184 2.071846 0.609044
v -4.370147 2.071610 0.609911
v -4.366707 2.068699 0.613003
v -4.365678 2.068952 0.612075
v -4.369184 2.071846 0.609044
v -4.366707 2.068699 0.613003
v -4.368248 2.073877 0.609835
v -4.368340 2.072855 0.609010
v -4.364774 2.070031 0.612039
v -4.364676 2.071124 0.612921
v -4.368248 2.073877 0.609835
v -4.364774 2.070031 0.612039
v -4.372283 2.074520 0.606524
v -4.372780 2.073275 0.607684
v -4.372116 2.076381 0.608027
v -4.370422 2.076090 0.607590
v -4.373350 2.074908 0.608076
v -4.372575 2.075562 0.609531
v -4.371524 2.076166 0.607165
v -4.370422 2.076090 0.607590
v -4.371524 2.076166 0.607165
v -4.370536 2.074821 0.606565
v -4.372929 2.075821 0.608432
v -4.372116 2.076381 0.608027
v -4.371330 2.076420 0.608909
v -4.372575 2.075562 0.609531
v -4.372929 2.075821 0.608432
v -4.371330 2.076420 0.608909
v -4.373063 2.074328 0.607227
v -4.373350 2.074908 0.608076
v -4.373221 2.074162 0.608985
v -4.372780 2.073275 0.607684
v -4.373063 2.074328 0.607227
v -4.373221 2.074162 0.608985
v -4.368248 2.073877 0.609835
v -4.368978 2.074143 0.610897
v -4.369421 2.075001 0.610641
v -4.368248 2.073877 0.609835
v -4.369981 2.073452 0.611398
v -4.370501 2.072325 0.610959
v -4.371432 2.072600 0.610721
v -4.369981 2.073452 0.611398
v -4.370147 2.071610 0.609911
v -4.369184 2.071846 0.609044
v -4.369693 2.071968 0.608192
v -4.370147 2.071610 0.609911
v -4.368455 2.074651 0.609237
v -4.368340 2.072855 0.609010
v -4.368248 2.073877 0.609835
v -4.368455 2.074651 0.609237
v -4.368340 2.072855 0.609010
v -4.370745 2.074089 0.611301
v -4.369421 2.075001 0.610641
v -4.368978 2.074143 0.610897
v -4.369981 2.073452 0.611398
v -4.370745 2.074089 0.611301
v -4.368978 2.074143 0.610897
v -4.370964 2.071656 0.609338
v -4.371432 2.072600 0.610721
v -4.370501 2.072325 0.610959
v -4.370147 2.071610 0.609911
v -4.370964 2.071656 0.609338
v -4.370501 2.072325 0.610959
v -4.368577 2.073301 0.608147
v -4.369693 2.071968 0.608192
v -4.369184 2.071846 0.609044
v -4.368340 2.072855 0.609010
v -4.368577 2.073301 0.608147
v -4.369184 2.071846 0.609044
v -4.369693 2.071968 0.608192
v -4.368577 2.073301 0.608147
v -4.369320 2.074063 0.607070
v -4.369693 2.071968 0.608192
v -4.370536 2.074821 0.606565
v -4.371586 2.073568 0.606607
v -4.370609 2.072523 0.607122
v -4.369320 2.074063 0.607070
v -4.370536 2.074821 0.606565
v -4.370609 2.072523 0.607122
v -4.370609 2.072523 0.607122
v -4.370964 2.071656 0.609338
v -4.369693 2.071968 0.608192
v -4.370609 2.072523 0.607122
v -4.370964 2.071656 0.609338
v -4.371586 2.073568 0.606607
v -4.372780 2.073275 0.607684
v -4.372077 2.072163 0.608445
v -4.370609 2.072523 0.607122
v -4.371586 2.073568 0.606607
v -4.372077 2.072163 0.608445
v -4.372077 2.072163 0.608445
v -4.371432 2.072600 0.610721
v -4.370964 2.071656 0.609338
v -4.372077 2.072163 0.608445
v -4.371432 2.072600 0.610721
v -4.372780 2.073275 0.607684
v -4.373221 2.074162 0.608985
v -4.372619 2.073253 0.610044
v -4.372077 2.072163 0.608445
v -4.372780 2.073275 0.607684
v -4.372619 2.073253 0.610044
v -4.372619 2.073253 0.610044
v -4.370745 2.074089 0.611301
v -4.371432 2.072600 0.610721
v -4.372619 2.073253 0.610044
v -4.370745 2.074089 0.611301
v -4.373221 2.074162 0.608985
v -4.372575 2.075562 0.609531
v -4.371825 2.074973 0.610714
v -4.372619 2.073253 0.610044
v -4.373221 2.074162 0.608985
v -4.371825 2.074973 0.610714
v -4.371825 2.074973 0.610714
v -4.369421 2.075001 0.610641
v -4.370745 2.074089 0.611301
v -4.371825 2.074973 0.610714
v -4.369421 2.075001 0.610641
v -4.372575 2.075562 0.609531
v -4.371330 2.076420 0.608909
v -4.370295 2.076028 0.609951
v -4.371825 2.074973 0.610714
v -4.372575 2.075562 0.609531
v -4.370295 2.076028 0.609951
v -4.370295 2.076028 0.609951
v -4.368455 2.074651 0.609237
v -4.369421 2.075001 0.610641
v -4.370295 2.076028 0.609951
v -4.368455 2.074651 0.609237
v -4.371330 2.076420 0.608909
v -4.370422 2.076090 0.607590
v -4.369180 2.075623 0.608329
v -4.370295 2.076028 0.609951
v -4.371330 2.076420 0.608909
v -4.369180 2.075623 0.608329
v -4.369180 2.075623 0.608329
v -4.369320 2.074063 0.607070
v -4.368577 2.073301 0.608147
v -4.368455 2.074651 0.609237
v -4.369180 2.075623 0.608329
v -4.368577 2.073301 0.608147
v -4.370422 2.076090 0.607590
v -4.370536 2.074821 0.606565
v -4.369320 2.074063 0.607070
v -4.369180 2.075623 0.608329
v -4.370422 2.076090 0.607590
v -4.369320 2.074063 0.607070
v -4.371598 2.075338 0.606497
v -4.372283 2.074520 0.606524
v -4.371586 2.073568 0.606607
v -4.370536 2.074821 0.606565
v -4.371598 2.075338 0.606497
v -4.371586 2.073568 0.606607
v -4.373063 2.074328 0.607227
v -4.372283 2.074520 0.606524
v -4.373350 2.074908 0.608076
v -4.371598 2.075338 0.606497
v -4.373350 2.074908 0.608076
v -4.372283 2.074520 0.606524
v -4.372929 2.075821 0.608432
v -4.373350 2.074908 0.608076
v -4.371598 2.075338 0.606497
v -4.371524 2.076166 0.607165
v -4.372929 2.075821 0.608432
v -4.371598 2.075338 0.606497
v -4.372116 2.076381 0.608027
v -4.372929 2.075821 0.608432
v -4.371524 2.076166 0.607165
v -4.366707 2.068699 0.613003
v -4.367086 2.069463 0.614123
v -4.365678 2.068952 0.612075
v -4.364774 2.070031 0.612039
v -4.365678 2.068952 0.612075
v -4.367086 2.069463 0.614123
v -4.366530 2.070669 0.614593
v -4.364774 2.070031 0.612039
v -4.367086 2.069463 0.614123
v -4.364676 2.071124 0.612921
v -4.364774 2.070031 0.612039
v -4.366530 2.070669 0.614593
v -4.365458 2.071408 0.614058
v -4.364676 2.071124 0.612921
v -4.366530 2.070669 0.614593
vn 0.6398 -0.5167 0.5689
vn -0.1225 0.8002 -0.5871
vn -0.7667 0.6419 -0.0063
vn -0.3940 0.8988 -0.1922
vn -0.1566 0.4203 -0.8938
vn -0.7667 0.6420 -0.0063
vn -0.1224 0.8002 -0.5872
vn -0.1566 0.4204 -0.8937
vn -0.9600 0.2231 -0.1695
vn -0.4707 0.0454 -0.8811
vn -0.9600 0.2230 -0.1695
vn -0.4706 0.0454 -0.8812
vn -0.8282 -0.0425 -0.5588
vn -0.1677 -0.4066 -0.8981
vn 0.3407 0.2005 -0.9185
vn 0.6347 0.0082 -0.7727
vn 0.3961 0.8154 -0.4221
vn 0.6951 0.6813 -0.2294
vn 0.6346 0.0082 -0.7728
vn 0.3408 0.2005 -0.9185
vn 0.3960 0.8154 -0.4222
vn 0.8365 -0.1850 -0.5157
vn 0.8935 0.4491 -0.0039
vn 0.6951 0.6813 -0.2295
vn -0.0436 0.9751 0.2172
vn 0.2140 0.8561 0.4705
vn 0.3961 0.8155 -0.4221
vn 0.8935 0.4491 -0.0038
vn 0.2140 0.8561 0.4704
vn 0.4402 0.6138 0.6554
vn -0.6470 0.5593 0.5182
vn -0.4466 0.4009 0.7999
vn -0.0436 0.9751 0.2173
vn -0.6470 0.5594 0.5182
vn 0.4402 0.6137 0.6554
vn -0.1821 0.1850 0.9657
vn -0.9599 -0.1188 0.2541
vn -0.7890 -0.3414 0.5108
vn -0.1821 0.1849 0.9657
vn -0.5047 -0.5143 0.6934
vn -0.7891 -0.3413 0.5108
vn -0.7466 -0.5487 -0.3762
vn -0.5555 -0.8119 -0.1792
vn -0.9599 -0.1189 0.2541
vn -0.5046 -0.5144 0.6934
vn -0.2847 -0.9576 0.0434
vn -0.5555 -0.8120 -0.1792
vn 0.0781 -0.6564 -0.7504
vn -0.7465 -0.5487 -0.3762
vn -0.1678 -0.4066 -0.8981
vn 0.3121 -0.8111 -0.4947
vn 0.0781 -0.6563 -0.7504
vn 0.0780 -0.6563 -0.7504
vn 0.3122 -0.8111 -0.4947
vn 0.8365 -0.1850 -0.5158
vn 0.0780 -0.6564 -0.7504
vn 0.2659 -0.7878 -0.5555
vn 0.8035 -0.1459 -0.5771
vn 0.2659 -0.7879 -0.5555
vn -0.5717 -0.4836 0.6627
vn -0.2848 -0.9576 0.0434
vn -0.3462 -0.9382 -0.0037
vn -0.5717 -0.4836 0.6628
vn 0.3971 0.6731 0.6238
vn -0.2409 0.2334 0.9421
vn 0.8620 0.5042 -0.0522
vn 0.8365 -0.1851 -0.5157
vn -0.3462 -0.9381 -0.0037
vn -0.2409 0.2335 0.9420
vn 0.8619 0.5043 -0.0522
vn 0.3971 0.6731 0.6239
vn 0.8620 0.5043 -0.0522
vn -0.8282 -0.0424 -0.5588
vn -0.9599 0.2231 -0.1695
vn -0.8282 -0.0425 -0.5589
vn -0.3939 0.8988 -0.1922
vn -0.7667 0.6420 -0.0064
vn 0.3408 0.2006 -0.9185
vn -0.1225 0.8002 -0.5872
vn -0.7466 -0.5487 -0.3763
vn 0.6468 -0.0014 -0.7626
vn 0.8620 0.5043 -0.0523
vn 0.7074 0.6721 -0.2190
vn 0.6468 -0.0013 -0.7626
vn -0.5440 -0.8219 -0.1688
vn 0.0899 -0.6663 -0.7403
vn -0.4350 0.3915 0.8108
vn -0.7776 -0.3511 0.5216
vn -0.4350 0.3916 0.8108
vn -0.2409 0.2335 0.9421
vn 0.7073 0.6721 -0.2190
vn 0.2260 0.8470 0.4812
vn 0.3972 0.6731 0.6238
vn 0.0899 -0.6662 -0.7403
vn -0.3462 -0.9382 -0.0038
vn -0.7776 -0.3511 0.5215
vn 0.2259 0.8470 0.4813
vn 0.2259 0.8470 0.4812
vn 0.3972 0.6731 0.6239
vt 0.543243 0.611839
vt 0.535370 0.618118
vt 0.537796 0.613083
vt 0.537796 0.623154
vt 0.547607 0.615326
vt 0.543243 0.624397
vt 0.547607 0.620918
vt 0.565384 0.671494
vt 0.570206 0.669548
vt 0.567856 0.672157
vt 0.564468 0.669609
vt 0.568146 0.666756
vt 0.564514 0.667854
vt 0.565857 0.666748
vt 0.562897 0.666855
vt 0.562302 0.669838
vt 0.559082 0.669685
vt 0.563492 0.673050
vt 0.560059 0.674789
vt 0.554092 0.669067
vt 0.554398 0.676537
vt 0.567307 0.675606
vt 0.564316 0.680244
vt 0.558044 0.684982
vt 0.575485 0.674767
vt 0.575272 0.686485
vt 0.565720 0.696274
vt 0.575485 0.658051
vt 0.568817 0.663902
vt 0.568115 0.659698
vt 0.574570 0.665543
vt 0.572052 0.651657
vt 0.565903 0.655174
vt 0.565063 0.664742
vt 0.563416 0.661980
vt 0.560669 0.658463
vt 0.560364 0.665283
vt 0.556488 0.662933
vt 0.552032 0.660286
vt 0.548294 0.668175
vt 0.563522 0.651588
vt 0.557617 0.654999
vt 0.551163 0.688484
vt 0.556610 0.699394
vt 0.547867 0.678001
vt 0.568756 0.648293
vt 0.604446 0.682632
vt 0.626221 0.687675
vt 0.604553 0.688225
vt 0.626144 0.682457
vt 0.604553 0.671455
vt 0.626144 0.677231
vt 0.604446 0.677048
vt 0.626221 0.672005
vt 0.605011 0.660294
vt 0.626404 0.666786
vt 0.604736 0.665871
vt 0.626663 0.661568
vt 0.626404 0.692902
vt 0.604736 0.693810
vt 0.626663 0.698120
vt 0.605011 0.699394
s 0
usemtl decorations
f 240/1/1 239/2/1 238/3/1
f 237/1/1 236/4/1 235/2/1
f 234/5/1 233/4/1 232/1/1
f 231/5/1 230/6/1 229/4/1
f 228/6/1 227/5/1 226/7/1
s 1
f 225/8/2 224/9/3 223/10/4
f 222/11/5 221/9/6 220/8/7
f 219/11/8 218/12/9 217/9/3
f 216/13/10 215/12/9 214/11/8
f 213/12/11 212/13/12 211/14/13
f 210/15/14 209/11/8 208/16/15
f 207/15/14 206/13/10 205/11/8
f 204/17/16 203/18/17 202/19/18
f 201/17/19 200/16/20 199/18/21
f 198/20/22 197/19/18 196/21/23
f 195/20/22 194/17/19 193/19/24
f 192/19/18 191/22/25 190/23/26
f 189/19/18 188/18/27 187/22/25
f 186/21/28 185/23/29 184/24/30
f 183/21/23 3/19/18 182/23/29
f 181/23/26 180/25/31 179/26/32
f 178/23/26 177/22/33 176/25/34
f 175/24/35 174/26/32 173/27/36
f 172/24/35 4/23/26 171/26/32
f 170/28/32 169/29/37 168/30/38
f 167/28/32 166/31/31 165/29/37
f 164/32/39 163/30/38 162/33/40
f 161/32/39 13/28/32 160/30/41
f 159/30/38 158/34/42 157/35/43
f 156/30/38 155/29/44 154/34/42
f 153/33/45 152/35/43 151/36/46
f 150/33/45 14/30/38 149/35/47
f 148/35/47 147/15/14 146/37/48
f 145/35/47 144/34/49 143/15/50
f 142/36/46 141/37/48 140/38/51
f 139/36/46 16/35/47 138/37/48
f 137/37/52 136/16/20 135/17/16
f 134/37/53 133/15/14 132/16/15
f 131/38/54 130/17/16 129/20/55
f 128/38/54 36/37/56 25/17/16
f 127/39/57 126/20/55 125/40/58
f 124/39/59 123/38/54 122/20/55
f 121/41/60 120/36/61 119/42/62
f 118/41/63 117/33/45 116/36/61
f 115/43/64 114/27/36 113/44/65
f 112/43/64 111/24/35 110/27/36
f 109/40/58 108/21/23 107/45/66
f 106/40/58 40/20/67 105/21/23
f 104/42/68 103/38/51 102/39/59
f 101/42/62 41/36/46 42/38/51
f 100/46/69 99/33/40 98/41/63
f 97/46/69 37/32/39 38/33/40
f 96/45/70 95/24/35 94/43/71
f 93/45/72 33/21/23 34/24/35
f 92/29/44 91/14/73 90/34/42
f 89/29/44 88/12/74 87/14/75
f 86/22/33 85/9/6 84/25/34
f 83/22/33 82/10/76 81/9/77
f 80/16/78 79/8/2 78/18/21
f 29/16/78 30/11/5 77/8/2
f 76/31/31 75/12/9 28/29/37
f 31/31/31 26/9/77 27/12/74
f 74/18/17 73/10/4 24/22/25
f 21/18/17 22/8/79 23/10/4
f 72/34/80 71/13/10 20/15/14
f 17/34/80 18/14/73 19/13/10
f 70/47/81 69/48/82 68/49/83
f 67/47/84 66/50/58 65/48/82
f 64/51/85 63/52/57 62/53/86
f 61/51/85 60/54/62 59/52/59
f 58/55/87 57/56/60 56/57/88
f 55/55/89 54/58/90 53/56/60
f 52/49/91 51/59/64 50/60/92
f 2/49/91 32/48/72 49/59/93
f 48/53/86 47/50/58 12/47/81
f 9/53/94 10/52/59 11/50/58
f 46/57/88 45/54/95 8/51/85
f 5/57/96 6/56/60 7/54/62
f 44/60/97 43/61/69 15/62/89
f 1/60/98 35/59/99 39/61/69
