# Blender 5.0.0
# www.blender.org
mtllib Circle_002_Circle_Dupli_251_decorations_0.mtl
o Circle.002|Circle|Dupli|251_decorations_0
v -4.446878 1.045880 0.815215
v -4.448133 1.046486 0.815418
v -4.447403 1.050867 0.808947
v -4.445613 1.050003 0.808657
v -4.445325 1.047310 0.816623
v -4.444545 1.050567 0.812305
v -4.445359 1.051464 0.812821
v -4.446197 1.048269 0.817174
v -4.447586 1.048402 0.816990
v -4.446659 1.051588 0.812648
v -4.447464 1.050846 0.811918
v -4.448448 1.047608 0.816208
v -4.443830 1.050526 0.809422
v -4.443398 1.052043 0.810666
v -4.445629 1.046246 0.815751
v -4.444640 1.053412 0.811453
v -4.444588 1.053991 0.810049
v -4.444707 1.054138 0.808881
v -4.445760 1.054238 0.808741
v -4.446202 1.054145 0.809834
v -4.446836 1.051921 0.808010
v -4.446174 1.052787 0.807550
v -4.445223 1.052327 0.807396
v -4.445380 1.051217 0.807774
v -4.447853 1.052469 0.810074
v -4.444276 1.052605 0.807802
v -4.444046 1.053411 0.808463
v -4.443576 1.052877 0.809409
v -4.447202 1.053224 0.808927
v -4.446413 1.053637 0.808149
v -4.443929 1.051643 0.808396
v -4.447170 1.049797 0.811179
v -4.447403 1.050113 0.810260
v -4.445854 1.049365 0.810009
v -4.445997 1.049230 0.810989
v -4.446623 1.053601 0.811189
v -4.444310 1.049817 0.810671
v -4.443936 1.051131 0.811748
v -4.444829 1.049573 0.811490
v -4.447792 1.051499 0.811236
v -4.445012 1.052315 0.812429
v -4.446728 1.052479 0.812201
v -4.444829 1.049573 0.811490
v -4.446878 1.045880 0.815215
v -4.445359 1.051464 0.812821
v -4.445325 1.047310 0.816623
v -4.447464 1.050846 0.811918
v -4.447586 1.048402 0.816990
v -4.445997 1.049230 0.810989
v -4.446878 1.045880 0.815215
v -4.445997 1.049230 0.810989
v -4.448133 1.046486 0.815418
v -4.444545 1.050567 0.812305
v -4.444829 1.049573 0.811490
v -4.445629 1.046246 0.815751
v -4.445325 1.047310 0.816623
v -4.444545 1.050567 0.812305
v -4.445629 1.046246 0.815751
v -4.446659 1.051588 0.812648
v -4.445359 1.051464 0.812821
v -4.446197 1.048269 0.817174
v -4.447586 1.048402 0.816990
v -4.446659 1.051588 0.812648
v -4.446197 1.048269 0.817174
v -4.447170 1.049797 0.811179
v -4.447464 1.050846 0.811918
v -4.448448 1.047608 0.816208
v -4.448133 1.046486 0.815418
v -4.447170 1.049797 0.811179
v -4.448448 1.047608 0.816208
v -4.445760 1.054238 0.808741
v -4.444588 1.053991 0.810049
v -4.445223 1.052327 0.807396
v -4.446836 1.051921 0.808010
v -4.444046 1.053411 0.808463
v -4.443929 1.051643 0.808396
v -4.446174 1.052787 0.807550
v -4.446836 1.051921 0.808010
v -4.446174 1.052787 0.807550
v -4.447202 1.053224 0.808927
v -4.444276 1.052605 0.807802
v -4.445223 1.052327 0.807396
v -4.445380 1.051217 0.807774
v -4.443929 1.051643 0.808396
v -4.444276 1.052605 0.807802
v -4.445380 1.051217 0.807774
v -4.444707 1.054138 0.808881
v -4.444046 1.053411 0.808463
v -4.443576 1.052877 0.809409
v -4.444588 1.053991 0.810049
v -4.444707 1.054138 0.808881
v -4.443576 1.052877 0.809409
v -4.447170 1.049797 0.811179
v -4.445997 1.049230 0.810989
v -4.445854 1.049365 0.810009
v -4.447170 1.049797 0.811179
v -4.444829 1.049573 0.811490
v -4.444545 1.050567 0.812305
v -4.443936 1.051131 0.811748
v -4.444829 1.049573 0.811490
v -4.445359 1.051464 0.812821
v -4.446659 1.051588 0.812648
v -4.446728 1.052479 0.812201
v -4.445359 1.051464 0.812821
v -4.447403 1.050113 0.810260
v -4.447464 1.050846 0.811918
v -4.447170 1.049797 0.811179
v -4.447403 1.050113 0.810260
v -4.447464 1.050846 0.811918
v -4.444310 1.049817 0.810671
v -4.445854 1.049365 0.810009
v -4.445997 1.049230 0.810989
v -4.444829 1.049573 0.811490
v -4.444310 1.049817 0.810671
v -4.445997 1.049230 0.810989
v -4.445012 1.052315 0.812429
v -4.443936 1.051131 0.811748
v -4.444545 1.050567 0.812305
v -4.445359 1.051464 0.812821
v -4.445012 1.052315 0.812429
v -4.444545 1.050567 0.812305
v -4.447792 1.051499 0.811236
v -4.446728 1.052479 0.812201
v -4.446659 1.051588 0.812648
v -4.447464 1.050846 0.811918
v -4.447792 1.051499 0.811236
v -4.446659 1.051588 0.812648
v -4.446728 1.052479 0.812201
v -4.447792 1.051499 0.811236
v -4.447853 1.052469 0.810074
v -4.446728 1.052479 0.812201
v -4.447202 1.053224 0.808927
v -4.446202 1.054145 0.809834
v -4.446623 1.053601 0.811189
v -4.447853 1.052469 0.810074
v -4.447202 1.053224 0.808927
v -4.446623 1.053601 0.811189
v -4.446623 1.053601 0.811189
v -4.445012 1.052315 0.812429
v -4.446728 1.052479 0.812201
v -4.446623 1.053601 0.811189
v -4.445012 1.052315 0.812429
v -4.446202 1.054145 0.809834
v -4.444588 1.053991 0.810049
v -4.444640 1.053412 0.811453
v -4.446623 1.053601 0.811189
v -4.446202 1.054145 0.809834
v -4.444640 1.053412 0.811453
v -4.444640 1.053412 0.811453
v -4.443936 1.051131 0.811748
v -4.445012 1.052315 0.812429
v -4.444640 1.053412 0.811453
v -4.443936 1.051131 0.811748
v -4.444588 1.053991 0.810049
v -4.443576 1.052877 0.809409
v -4.443398 1.052043 0.810666
v -4.444640 1.053412 0.811453
v -4.444588 1.053991 0.810049
v -4.443398 1.052043 0.810666
v -4.443398 1.052043 0.810666
v -4.444310 1.049817 0.810671
v -4.443936 1.051131 0.811748
v -4.443398 1.052043 0.810666
v -4.444310 1.049817 0.810671
v -4.443576 1.052877 0.809409
v -4.443929 1.051643 0.808396
v -4.443830 1.050526 0.809422
v -4.443398 1.052043 0.810666
v -4.443576 1.052877 0.809409
v -4.443830 1.050526 0.809422
v -4.443830 1.050526 0.809422
v -4.445854 1.049365 0.810009
v -4.444310 1.049817 0.810671
v -4.443830 1.050526 0.809422
v -4.445854 1.049365 0.810009
v -4.443929 1.051643 0.808396
v -4.445380 1.051217 0.807774
v -4.445613 1.050003 0.808657
v -4.443830 1.050526 0.809422
v -4.443929 1.051643 0.808396
v -4.445613 1.050003 0.808657
v -4.445613 1.050003 0.808657
v -4.447403 1.050113 0.810260
v -4.445854 1.049365 0.810009
v -4.445613 1.050003 0.808657
v -4.447403 1.050113 0.810260
v -4.445380 1.051217 0.807774
v -4.446836 1.051921 0.808010
v -4.447403 1.050867 0.808947
v -4.445613 1.050003 0.808657
v -4.445380 1.051217 0.807774
v -4.447403 1.050867 0.808947
v -4.447403 1.050867 0.808947
v -4.447853 1.052469 0.810074
v -4.447792 1.051499 0.811236
v -4.447403 1.050113 0.810260
v -4.447403 1.050867 0.808947
v -4.447792 1.051499 0.811236
v -4.446836 1.051921 0.808010
v -4.447202 1.053224 0.808927
v -4.447853 1.052469 0.810074
v -4.447403 1.050867 0.808947
v -4.446836 1.051921 0.808010
v -4.447853 1.052469 0.810074
v -4.446413 1.053637 0.808149
v -4.445760 1.054238 0.808741
v -4.446202 1.054145 0.809834
v -4.447202 1.053224 0.808927
v -4.446413 1.053637 0.808149
v -4.446202 1.054145 0.809834
v -4.444707 1.054138 0.808881
v -4.445760 1.054238 0.808741
v -4.444046 1.053411 0.808463
v -4.446413 1.053637 0.808149
v -4.444046 1.053411 0.808463
v -4.445760 1.054238 0.808741
v -4.444276 1.052605 0.807802
v -4.444046 1.053411 0.808463
v -4.446413 1.053637 0.808149
v -4.446174 1.052787 0.807550
v -4.444276 1.052605 0.807802
v -4.446413 1.053637 0.808149
v -4.445223 1.052327 0.807396
v -4.444276 1.052605 0.807802
v -4.446174 1.052787 0.807550
v -4.446197 1.048269 0.817174
v -4.445325 1.047310 0.816623
v -4.447586 1.048402 0.816990
v -4.448448 1.047608 0.816208
v -4.447586 1.048402 0.816990
v -4.445325 1.047310 0.816623
v -4.445629 1.046246 0.815751
v -4.448448 1.047608 0.816208
v -4.445325 1.047310 0.816623
v -4.448133 1.046486 0.815418
v -4.448448 1.047608 0.816208
v -4.445629 1.046246 0.815751
v -4.446878 1.045880 0.815215
v -4.448133 1.046486 0.815418
v -4.445629 1.046246 0.815751
vn -0.1614 -0.5978 0.7852
vn -0.3002 0.2554 -0.9190
vn 0.5699 0.1723 -0.8034
vn 0.1357 0.0449 -0.9897
vn -0.4097 0.6455 -0.6445
vn -0.3003 0.2555 -0.9190
vn -0.4097 0.6454 -0.6446
vn 0.6753 0.5418 -0.5004
vn -0.1103 0.9212 -0.3730
vn 0.6753 0.5417 -0.5004
vn -0.4097 0.6455 -0.6446
vn -0.1103 0.9212 -0.3731
vn 0.3726 0.8751 -0.3089
vn -0.3286 0.9361 0.1254
vn -0.8133 0.4897 -0.3142
vn -0.9563 0.2915 -0.0228
vn -0.6361 -0.1417 -0.7585
vn -0.7623 -0.3996 -0.5092
vn -0.9563 0.2916 -0.0228
vn -0.9611 0.0516 0.2714
vn -0.7622 -0.3997 -0.5092
vn -0.7783 -0.5995 -0.1868
vn 0.0698 -0.4827 -0.8730
vn 0.0103 -0.7728 -0.6345
vn -0.6361 -0.1418 -0.7585
vn -0.0505 -0.9510 -0.3049
vn 0.0103 -0.7729 -0.6345
vn 0.7727 -0.2765 -0.5714
vn 0.7798 -0.5471 -0.3044
vn 0.7727 -0.2764 -0.5715
vn -0.0504 -0.9511 -0.3048
vn 0.6744 -0.7384 0.0061
vn 0.0104 -0.7729 -0.6345
vn 0.7798 -0.5471 -0.3043
vn 0.9434 0.3217 -0.0809
vn 0.9666 0.1077 0.2326
vn 0.7727 -0.2764 -0.5714
vn 0.6744 -0.7383 0.0062
vn 0.9666 0.1076 0.2326
vn 0.8504 -0.1216 0.5119
vn 0.9666 0.1077 0.2325
vn 0.4533 0.8614 0.2292
vn 0.4301 0.6984 0.5720
vn 0.9434 0.3217 -0.0808
vn 0.8503 -0.1216 0.5120
vn 0.4301 0.6984 0.5721
vn 0.3450 0.4349 0.8317
vn -0.3285 0.9361 0.1254
vn -0.4256 0.7802 0.4584
vn 0.4533 0.8614 0.2293
vn -0.3285 0.9362 0.1254
vn 0.3449 0.4349 0.8318
vn -0.4611 0.5120 0.7247
vn -0.4257 0.7802 0.4584
vn -0.4256 0.7802 0.4583
vn -0.4612 0.5120 0.7247
vn -0.9611 0.0517 0.2714
vn -0.4593 0.5757 0.6765
vn -0.9718 0.1036 0.2117
vn -0.4592 0.5757 0.6765
vn 0.8857 -0.0739 0.4584
vn 0.3674 0.4966 0.7863
vn 0.8857 -0.0740 0.4584
vn -0.0380 -0.9245 -0.3792
vn 0.7052 -0.7065 -0.0602
vn -0.0504 -0.9511 -0.3049
vn -0.9718 0.1037 0.2117
vn -0.7783 -0.5994 -0.1868
vn -0.7844 -0.5640 -0.2581
vn 0.3674 0.4967 0.7863
vn -0.4592 0.5757 0.6766
vn 0.3675 0.4967 0.7863
vn 0.3450 0.4349 0.8318
vn 0.7052 -0.7064 -0.0603
vn 0.8856 -0.0740 0.4584
vn 0.7052 -0.7065 -0.0603
vn -0.0505 -0.9511 -0.3049
vn -0.0380 -0.9246 -0.3791
vn 0.9434 0.3218 -0.0808
vn 0.6753 0.5418 -0.5005
vn 0.5699 0.1723 -0.8035
vn -0.3002 0.2555 -0.9190
vn -0.8133 0.4896 -0.3142
vn 0.1357 0.0448 -0.9897
vn -0.9598 0.2806 -0.0083
vn -0.7657 -0.4109 -0.4949
vn 0.4273 0.6877 0.5869
vn -0.4288 0.7696 0.4732
vn 0.4273 0.6878 0.5868
vn 0.7772 -0.5584 -0.2900
vn 0.9641 0.0966 0.2472
vn 0.7773 -0.5584 -0.2900
vn -0.7656 -0.4109 -0.4949
vn -0.0381 -0.9245 -0.3792
vn 0.0073 -0.7843 -0.6203
vn -0.7656 -0.4109 -0.4950
vn -0.4289 0.7696 0.4732
vn -0.9598 0.2807 -0.0083
vn -0.4288 0.7696 0.4731
vn 0.9641 0.0967 0.2472
vn 0.4274 0.6877 0.5869
vn 0.8856 -0.0739 0.4584
vn 0.0074 -0.7843 -0.6203
vn -0.0381 -0.9246 -0.3791
vt 0.543243 0.611839
vt 0.535370 0.618118
vt 0.537796 0.613083
vt 0.537796 0.623154
vt 0.547607 0.615326
vt 0.543243 0.624397
vt 0.547607 0.620918
vt 0.565384 0.671494
vt 0.570206 0.669548
vt 0.567856 0.672157
vt 0.564468 0.669609
vt 0.568146 0.666756
vt 0.564514 0.667854
vt 0.565857 0.666748
vt 0.562897 0.666855
vt 0.562302 0.669838
vt 0.559082 0.669685
vt 0.563492 0.673050
vt 0.560059 0.674789
vt 0.554092 0.669067
vt 0.554398 0.676537
vt 0.567307 0.675606
vt 0.564316 0.680244
vt 0.558044 0.684982
vt 0.575485 0.674767
vt 0.575272 0.686485
vt 0.565720 0.696274
vt 0.575485 0.658051
vt 0.568817 0.663902
vt 0.568115 0.659698
vt 0.574570 0.665543
vt 0.572052 0.651657
vt 0.565903 0.655174
vt 0.565063 0.664742
vt 0.563416 0.661980
vt 0.560669 0.658463
vt 0.560364 0.665283
vt 0.556488 0.662933
vt 0.552032 0.660286
vt 0.548294 0.668175
vt 0.563522 0.651588
vt 0.557617 0.654999
vt 0.551163 0.688484
vt 0.556610 0.699394
vt 0.547867 0.678001
vt 0.568756 0.648293
vt 0.604446 0.682632
vt 0.626221 0.687675
vt 0.604553 0.688225
vt 0.626144 0.682457
vt 0.604553 0.671455
vt 0.626144 0.677231
vt 0.604446 0.677048
vt 0.626221 0.672005
vt 0.605011 0.660294
vt 0.626404 0.666786
vt 0.604736 0.665871
vt 0.626663 0.661568
vt 0.626404 0.692902
vt 0.604736 0.693810
vt 0.626663 0.698120
vt 0.605011 0.699394
s 0
usemtl decorations
f 240/1/1 239/2/1 238/3/1
f 237/1/1 236/4/1 235/2/1
f 234/5/1 233/4/1 232/1/1
f 231/5/1 230/6/1 229/4/1
f 228/6/1 227/5/1 226/7/1
s 1
f 225/8/2 224/9/3 223/10/4
f 222/11/5 221/9/3 220/8/6
f 219/11/7 218/12/8 217/9/3
f 216/13/9 215/12/10 214/11/11
f 213/12/8 212/13/12 211/14/13
f 210/15/14 209/11/11 208/16/15
f 207/15/14 206/13/12 205/11/11
f 204/17/16 203/18/17 202/19/18
f 201/17/19 200/16/15 199/18/17
f 198/20/20 197/19/21 196/21/22
f 195/20/20 194/17/19 193/19/18
f 192/19/18 191/22/23 190/23/24
f 189/19/18 188/18/25 187/22/23
f 186/21/22 185/23/24 184/24/26
f 183/21/22 3/19/18 182/23/24
f 181/23/27 180/25/28 179/26/29
f 178/23/24 177/22/23 176/25/30
f 175/24/31 174/26/29 173/27/32
f 172/24/31 4/23/33 171/26/29
f 170/28/34 169/29/35 168/30/36
f 167/28/34 166/31/37 165/29/35
f 164/32/38 163/30/39 162/33/40
f 161/32/38 13/28/34 160/30/41
f 159/30/36 158/34/42 157/35/43
f 156/30/36 155/29/44 154/34/42
f 153/33/45 152/35/46 151/36/47
f 150/33/45 14/30/36 149/35/46
f 148/35/46 147/15/48 146/37/49
f 145/35/46 144/34/50 143/15/51
f 142/36/52 141/37/49 140/38/53
f 139/36/52 16/35/46 138/37/49
f 137/37/54 136/16/15 135/17/16
f 134/37/55 133/15/48 132/16/15
f 131/38/56 130/17/16 129/20/57
f 128/38/56 36/37/49 25/17/16
f 127/39/58 126/20/57 125/40/59
f 124/39/60 123/38/56 122/20/57
f 121/41/61 120/36/47 119/42/62
f 118/41/63 117/33/45 116/36/47
f 115/43/64 114/27/32 113/44/65
f 112/43/64 111/24/66 110/27/32
f 109/40/67 108/21/68 107/45/69
f 106/40/67 40/20/20 105/21/68
f 104/42/70 103/38/56 102/39/71
f 101/42/72 41/36/73 42/38/56
f 100/46/74 99/33/40 98/41/75
f 97/46/76 37/32/38 38/33/40
f 96/45/69 95/24/77 94/43/78
f 93/45/69 33/21/22 34/24/77
f 92/29/79 91/14/13 90/34/42
f 89/29/79 88/12/80 87/14/13
f 86/22/23 85/9/3 84/25/37
f 83/22/23 82/10/4 81/9/81
f 80/16/15 79/8/82 78/18/17
f 29/16/83 30/11/5 77/8/82
f 76/31/37 75/12/8 28/29/35
f 31/31/37 26/9/81 27/12/80
f 74/18/25 73/10/84 24/22/23
f 21/18/25 22/8/82 23/10/4
f 72/34/42 71/13/9 20/15/48
f 17/34/42 18/14/13 19/13/12
f 70/47/85 69/48/69 68/49/86
f 67/47/85 66/50/59 65/48/69
f 64/51/87 63/52/60 62/53/88
f 61/51/89 60/54/70 59/52/60
f 58/55/90 57/56/61 56/57/91
f 55/55/92 54/58/76 53/56/75
f 52/49/93 51/59/94 50/60/95
f 2/49/96 32/48/69 49/59/94
f 48/53/97 47/50/59 12/47/98
f 9/53/99 10/52/60 11/50/59
f 46/57/100 45/54/70 8/51/101
f 5/57/100 6/56/102 7/54/62
f 44/60/103 43/61/74 15/62/90
f 1/60/103 35/59/104 39/61/76
