# Blender 5.0.0
# www.blender.org
mtllib Circle_005_Circle_004_Dupli_40_decorations_0.mtl
o Circle.005|Circle.004|Dupli|40_decorations_0
v -4.424322 0.579183 0.892709
v -4.423698 0.579272 0.891449
v -4.420202 0.586046 0.893317
v -4.421091 0.585920 0.895115
v -4.426599 0.580222 0.892287
v -4.424514 0.585108 0.893568
v -4.424458 0.585431 0.892293
v -4.426538 0.580567 0.890923
v -4.425476 0.580381 0.890017
v -4.423465 0.585257 0.891446
v -4.422284 0.584719 0.891664
v -4.424212 0.579805 0.890251
v -4.422932 0.586523 0.895647
v -4.424339 0.587401 0.894513
v -4.425612 0.579606 0.893082
v -4.424253 0.587893 0.892567
v -4.423368 0.589016 0.893084
v -4.422472 0.589617 0.893569
v -4.421668 0.589477 0.892882
v -4.422135 0.588800 0.892031
v -4.420072 0.587512 0.893694
v -4.420321 0.588636 0.893967
v -4.420793 0.588569 0.894922
v -4.420795 0.587410 0.895157
v -4.420935 0.586807 0.891608
v -4.421771 0.588889 0.895204
v -4.422518 0.589356 0.894602
v -4.423438 0.588615 0.894667
v -4.420668 0.588131 0.892303
v -4.420710 0.589040 0.893059
v -4.422293 0.587901 0.895590
v -4.421803 0.584220 0.892784
v -4.421032 0.584827 0.892972
v -4.421802 0.584718 0.894528
v -4.422386 0.584137 0.893962
v -4.422738 0.587629 0.891274
v -4.423395 0.585240 0.894989
v -4.424613 0.586001 0.894008
v -4.423593 0.584533 0.894311
v -4.421667 0.585486 0.891493
v -4.424538 0.586427 0.892323
v -4.423227 0.586198 0.891204
v -4.423593 0.584533 0.894311
v -4.424322 0.579183 0.892709
v -4.424458 0.585431 0.892293
v -4.426599 0.580222 0.892287
v -4.422284 0.584719 0.891664
v -4.425476 0.580381 0.890017
v -4.422386 0.584137 0.893962
v -4.424322 0.579183 0.892709
v -4.422386 0.584137 0.893962
v -4.423698 0.579272 0.891449
v -4.424514 0.585108 0.893568
v -4.423593 0.584533 0.894311
v -4.425612 0.579606 0.893082
v -4.426599 0.580222 0.892287
v -4.424514 0.585108 0.893568
v -4.425612 0.579606 0.893082
v -4.423465 0.585257 0.891446
v -4.424458 0.585431 0.892293
v -4.426538 0.580567 0.890923
v -4.425476 0.580381 0.890017
v -4.423465 0.585257 0.891446
v -4.426538 0.580567 0.890923
v -4.421803 0.584220 0.892784
v -4.422284 0.584719 0.891664
v -4.424212 0.579805 0.890251
v -4.423698 0.579272 0.891449
v -4.421803 0.584220 0.892784
v -4.424212 0.579805 0.890251
v -4.421668 0.589477 0.892882
v -4.423368 0.589016 0.893084
v -4.420793 0.588569 0.894922
v -4.420072 0.587512 0.893694
v -4.422518 0.589356 0.894602
v -4.422293 0.587901 0.895590
v -4.420321 0.588636 0.893967
v -4.420072 0.587512 0.893694
v -4.420321 0.588636 0.893967
v -4.420668 0.588131 0.892303
v -4.421771 0.588889 0.895204
v -4.420793 0.588569 0.894922
v -4.420795 0.587410 0.895157
v -4.422293 0.587901 0.895590
v -4.421771 0.588889 0.895204
v -4.420795 0.587410 0.895157
v -4.422472 0.589617 0.893569
v -4.422518 0.589356 0.894602
v -4.423438 0.588615 0.894667
v -4.423368 0.589016 0.893084
v -4.422472 0.589617 0.893569
v -4.423438 0.588615 0.894667
v -4.421803 0.584220 0.892784
v -4.422386 0.584137 0.893962
v -4.421802 0.584718 0.894528
v -4.421803 0.584220 0.892784
v -4.423593 0.584533 0.894311
v -4.424514 0.585108 0.893568
v -4.424613 0.586001 0.894008
v -4.423593 0.584533 0.894311
v -4.424458 0.585431 0.892293
v -4.423465 0.585257 0.891446
v -4.423227 0.586198 0.891204
v -4.424458 0.585431 0.892293
v -4.421032 0.584827 0.892972
v -4.422284 0.584719 0.891664
v -4.421803 0.584220 0.892784
v -4.421032 0.584827 0.892972
v -4.422284 0.584719 0.891664
v -4.423395 0.585240 0.894989
v -4.421802 0.584718 0.894528
v -4.422386 0.584137 0.893962
v -4.423593 0.584533 0.894311
v -4.423395 0.585240 0.894989
v -4.422386 0.584137 0.893962
v -4.424538 0.586427 0.892323
v -4.424613 0.586001 0.894008
v -4.424514 0.585108 0.893568
v -4.424458 0.585431 0.892293
v -4.424538 0.586427 0.892323
v -4.424514 0.585108 0.893568
v -4.421667 0.585486 0.891493
v -4.423227 0.586198 0.891204
v -4.423465 0.585257 0.891446
v -4.422284 0.584719 0.891664
v -4.421667 0.585486 0.891493
v -4.423465 0.585257 0.891446
v -4.423227 0.586198 0.891204
v -4.421667 0.585486 0.891493
v -4.420935 0.586807 0.891608
v -4.423227 0.586198 0.891204
v -4.420668 0.588131 0.892303
v -4.422135 0.588800 0.892031
v -4.422738 0.587629 0.891274
v -4.420935 0.586807 0.891608
v -4.420668 0.588131 0.892303
v -4.422738 0.587629 0.891274
v -4.422738 0.587629 0.891274
v -4.424538 0.586427 0.892323
v -4.423227 0.586198 0.891204
v -4.422738 0.587629 0.891274
v -4.424538 0.586427 0.892323
v -4.422135 0.588800 0.892031
v -4.423368 0.589016 0.893084
v -4.424253 0.587893 0.892567
v -4.422738 0.587629 0.891274
v -4.422135 0.588800 0.892031
v -4.424253 0.587893 0.892567
v -4.424253 0.587893 0.892567
v -4.424613 0.586001 0.894008
v -4.424538 0.586427 0.892323
v -4.424253 0.587893 0.892567
v -4.424613 0.586001 0.894008
v -4.423368 0.589016 0.893084
v -4.423438 0.588615 0.894667
v -4.424339 0.587401 0.894513
v -4.424253 0.587893 0.892567
v -4.423368 0.589016 0.893084
v -4.424339 0.587401 0.894513
v -4.424339 0.587401 0.894513
v -4.423395 0.585240 0.894989
v -4.424613 0.586001 0.894008
v -4.424339 0.587401 0.894513
v -4.423395 0.585240 0.894989
v -4.423438 0.588615 0.894667
v -4.422293 0.587901 0.895590
v -4.422932 0.586523 0.895647
v -4.424339 0.587401 0.894513
v -4.423438 0.588615 0.894667
v -4.422932 0.586523 0.895647
v -4.422932 0.586523 0.895647
v -4.421802 0.584718 0.894528
v -4.423395 0.585240 0.894989
v -4.422932 0.586523 0.895647
v -4.421802 0.584718 0.894528
v -4.422293 0.587901 0.895590
v -4.420795 0.587410 0.895157
v -4.421091 0.585920 0.895115
v -4.422932 0.586523 0.895647
v -4.422293 0.587901 0.895590
v -4.421091 0.585920 0.895115
v -4.421091 0.585920 0.895115
v -4.421032 0.584827 0.892972
v -4.421802 0.584718 0.894528
v -4.421091 0.585920 0.895115
v -4.421032 0.584827 0.892972
v -4.420795 0.587410 0.895157
v -4.420072 0.587512 0.893694
v -4.420202 0.586046 0.893317
v -4.421091 0.585920 0.895115
v -4.420795 0.587410 0.895157
v -4.420202 0.586046 0.893317
v -4.420202 0.586046 0.893317
v -4.420935 0.586807 0.891608
v -4.421667 0.585486 0.891493
v -4.421032 0.584827 0.892972
v -4.420202 0.586046 0.893317
v -4.421667 0.585486 0.891493
v -4.420072 0.587512 0.893694
v -4.420668 0.588131 0.892303
v -4.420935 0.586807 0.891608
v -4.420202 0.586046 0.893317
v -4.420072 0.587512 0.893694
v -4.420935 0.586807 0.891608
v -4.420710 0.589040 0.893059
v -4.421668 0.589477 0.892882
v -4.422135 0.588800 0.892031
v -4.420668 0.588131 0.892303
v -4.420710 0.589040 0.893059
v -4.422135 0.588800 0.892031
v -4.422472 0.589617 0.893569
v -4.421668 0.589477 0.892882
v -4.422518 0.589356 0.894602
v -4.420710 0.589040 0.893059
v -4.422518 0.589356 0.894602
v -4.421668 0.589477 0.892882
v -4.421771 0.588889 0.895204
v -4.422518 0.589356 0.894602
v -4.420710 0.589040 0.893059
v -4.420321 0.588636 0.893967
v -4.421771 0.588889 0.895204
v -4.420710 0.589040 0.893059
v -4.420793 0.588569 0.894922
v -4.421771 0.588889 0.895204
v -4.420321 0.588636 0.893967
v -4.426538 0.580567 0.890923
v -4.426599 0.580222 0.892287
v -4.425476 0.580381 0.890017
v -4.424212 0.579805 0.890251
v -4.425476 0.580381 0.890017
v -4.426599 0.580222 0.892287
v -4.425612 0.579606 0.893082
v -4.424212 0.579805 0.890251
v -4.426599 0.580222 0.892287
v -4.423698 0.579272 0.891449
v -4.424212 0.579805 0.890251
v -4.425612 0.579606 0.893082
v -4.424322 0.579183 0.892709
v -4.423698 0.579272 0.891449
v -4.425612 0.579606 0.893082
vn -0.3648 -0.8987 -0.2435
vn 0.8258 0.5370 0.1725
vn 0.1609 0.6532 0.7399
vn 0.6093 0.5063 0.6102
vn 0.6472 0.7223 -0.2438
vn 0.6473 0.7222 -0.2437
vn -0.1818 0.8671 0.4638
vn 0.2083 0.9225 -0.3251
vn 0.6473 0.7222 -0.2438
vn -0.1607 0.9870 -0.0102
vn -0.0017 0.6587 -0.7524
vn 0.7090 0.3346 -0.6208
vn 0.2083 0.9225 -0.3250
vn 0.6473 0.7223 -0.2437
vn 0.6269 -0.0014 -0.7791
vn 0.9980 0.0346 0.0531
vn 0.9432 -0.3296 -0.0415
vn 0.6269 -0.0013 -0.7791
vn 0.7090 0.3345 -0.6208
vn 0.9980 0.0347 0.0531
vn 0.4545 -0.3365 -0.8248
vn 0.9432 -0.3296 -0.0414
vn 0.7525 -0.6457 -0.1298
vn 0.9432 -0.3295 -0.0415
vn 0.6476 -0.0151 0.7618
vn 0.5597 -0.3841 0.7343
vn 0.7524 -0.6457 -0.1298
vn 0.5597 -0.3840 0.7343
vn 0.3912 -0.6970 0.6010
vn -0.0783 0.2227 0.9717
vn -0.2349 -0.1237 0.9641
vn 0.6476 -0.0151 0.7619
vn 0.3911 -0.6970 0.6010
vn -0.2350 -0.1237 0.9641
vn -0.3574 -0.4517 0.8174
vn -0.6331 0.5690 0.5247
vn -0.8422 0.2554 0.4748
vn -0.0784 0.2227 0.9717
vn -0.6331 0.5691 0.5247
vn -0.3575 -0.4518 0.8174
vn -0.8422 0.2553 0.4748
vn -0.9295 -0.0946 0.3565
vn -0.3574 -0.4518 0.8174
vn -0.8422 0.2554 0.4749
vn -0.5990 0.7631 -0.2425
vn -0.8049 0.4678 -0.3651
vn -0.6332 0.5690 0.5247
vn -0.9295 -0.0947 0.3565
vn -0.8943 0.1055 -0.4348
vn -0.8049 0.4677 -0.3651
vn -0.8049 0.4677 -0.3652
vn -0.0018 0.6587 -0.7524
vn -0.1511 0.3535 -0.9232
vn -0.5991 0.7631 -0.2426
vn -0.8943 0.1054 -0.4348
vn -0.2784 -0.0021 -0.9605
vn -0.1511 0.3535 -0.9231
vn -0.2784 -0.0022 -0.9605
vn 0.4545 -0.3364 -0.8248
vn -0.2545 0.0739 -0.9642
vn 0.4970 -0.2689 -0.8251
vn -0.9222 -0.0208 0.3862
vn -0.8944 0.1055 -0.4347
vn -0.8861 0.1843 -0.4252
vn -0.9222 -0.0209 0.3862
vn 0.4320 -0.6385 0.6369
vn -0.3356 -0.3871 0.8588
vn 0.4970 -0.2688 -0.8251
vn 0.7525 -0.6457 -0.1299
vn 0.8025 -0.5860 -0.1126
vn 0.4544 -0.3365 -0.8248
vn -0.2546 0.0739 -0.9642
vn -0.8862 0.1843 -0.4252
vn -0.3356 -0.3870 0.8588
vn -0.9222 -0.0209 0.3861
vn -0.3575 -0.4517 0.8174
vn 0.8025 -0.5859 -0.1125
vn 0.4320 -0.6386 0.6369
vn -0.5990 0.7631 -0.2426
vn -0.1817 0.8671 0.4638
vn 0.6094 0.5063 0.6102
vn 0.1610 0.6532 0.7399
vn 0.8257 0.5370 0.1725
vn -0.0783 0.2228 0.9717
vn 0.6093 0.5063 0.6103
vn 0.6205 -0.0180 -0.7840
vn 0.9370 -0.3464 -0.0460
vn 0.6205 -0.0179 -0.7840
vn 0.4969 -0.2689 -0.8251
vn -0.8121 0.4514 -0.3699
vn -0.1579 0.3371 -0.9281
vn -0.2419 -0.1404 0.9601
vn -0.9222 -0.0208 0.3861
vn -0.8494 0.2389 0.4706
vn 0.5533 -0.4009 0.7302
vn 0.9370 -0.3464 -0.0459
vn -0.8121 0.4514 -0.3698
vn 0.5532 -0.4009 0.7302
vn -0.3355 -0.3870 0.8588
vn -0.2418 -0.1404 0.9601
vn -0.3355 -0.3871 0.8588
vt 0.530319 0.635056
vt 0.522446 0.641335
vt 0.524872 0.636299
vt 0.524872 0.646370
vt 0.534683 0.638535
vt 0.530319 0.647614
vt 0.534683 0.644127
vt 0.508789 0.671494
vt 0.513626 0.669548
vt 0.511276 0.672157
vt 0.507889 0.669609
vt 0.511566 0.666756
vt 0.507935 0.667854
vt 0.509277 0.666748
vt 0.506302 0.666855
vt 0.505722 0.669838
vt 0.502487 0.669685
vt 0.506897 0.673050
vt 0.503479 0.674789
vt 0.497520 0.669067
vt 0.497810 0.676537
vt 0.510727 0.675606
vt 0.507721 0.680244
vt 0.501465 0.684982
vt 0.518890 0.674767
vt 0.518692 0.686485
vt 0.509125 0.696274
vt 0.518890 0.658051
vt 0.512238 0.663902
vt 0.511536 0.659698
vt 0.517990 0.665543
vt 0.515472 0.651657
vt 0.509323 0.655174
vt 0.508469 0.664742
vt 0.506836 0.661980
vt 0.504074 0.658463
vt 0.503784 0.665283
vt 0.499901 0.662933
vt 0.495453 0.660286
vt 0.491707 0.668175
vt 0.506927 0.651588
vt 0.501038 0.654999
vt 0.494583 0.688484
vt 0.500031 0.699394
vt 0.491287 0.678001
vt 0.512177 0.648293
vt 0.627350 0.642853
vt 0.649124 0.647896
vt 0.627441 0.648445
vt 0.649033 0.642670
vt 0.627441 0.631676
vt 0.649033 0.637444
vt 0.627350 0.637268
vt 0.649124 0.632225
vt 0.627914 0.620506
vt 0.649292 0.626999
vt 0.627625 0.626091
vt 0.649551 0.621780
vt 0.649292 0.653114
vt 0.627625 0.654030
vt 0.649551 0.658333
vt 0.627914 0.659607
s 0
usemtl decorations
f 240/1/1 239/2/1 238/3/1
f 237/1/1 236/4/1 235/2/1
f 234/5/1 233/4/1 232/1/1
f 231/5/1 230/6/1 229/4/1
f 228/6/1 227/5/1 226/7/1
s 1
f 225/8/2 224/9/3 223/10/4
f 222/11/5 221/9/3 220/8/2
f 219/11/6 218/12/7 217/9/3
f 216/13/8 215/12/7 214/11/9
f 213/12/7 212/13/8 211/14/10
f 210/15/11 209/11/6 208/16/12
f 207/15/11 206/13/13 205/11/14
f 204/17/15 203/18/16 202/19/17
f 201/17/18 200/16/19 199/18/20
f 198/20/21 197/19/22 196/21/23
f 195/20/21 194/17/18 193/19/24
f 192/19/17 191/22/25 190/23/26
f 189/19/17 188/18/16 187/22/25
f 186/21/27 185/23/28 184/24/29
f 183/21/23 3/19/17 182/23/28
f 181/23/26 180/25/30 179/26/31
f 178/23/26 177/22/32 176/25/30
f 175/24/33 174/26/34 173/27/35
f 172/24/33 4/23/26 171/26/34
f 170/28/34 169/29/36 168/30/37
f 167/28/34 166/31/38 165/29/39
f 164/32/40 163/30/41 162/33/42
f 161/32/43 13/28/34 160/30/44
f 159/30/37 158/34/45 157/35/46
f 156/30/37 155/29/47 154/34/45
f 153/33/48 152/35/46 151/36/49
f 150/33/48 14/30/37 149/35/50
f 148/35/51 147/15/52 146/37/53
f 145/35/51 144/34/54 143/15/52
f 142/36/55 141/37/53 140/38/56
f 139/36/55 16/35/46 138/37/53
f 137/37/53 136/16/19 135/17/15
f 134/37/57 133/15/11 132/16/12
f 131/38/58 130/17/15 129/20/59
f 128/38/58 36/37/57 25/17/15
f 127/39/60 126/20/59 125/40/61
f 124/39/60 123/38/58 122/20/59
f 121/41/62 120/36/63 119/42/64
f 118/41/65 117/33/48 116/36/63
f 115/43/66 114/27/43 113/44/67
f 112/43/66 111/24/33 110/27/43
f 109/40/68 108/21/69 107/45/70
f 106/40/68 40/20/71 105/21/69
f 104/42/64 103/38/56 102/39/72
f 101/42/73 41/36/49 42/38/56
f 100/46/74 99/33/48 98/41/75
f 97/46/67 37/32/76 38/33/48
f 96/45/77 95/24/29 94/43/78
f 93/45/77 33/21/23 34/24/29
f 92/29/47 91/14/10 90/34/79
f 89/29/47 88/12/80 87/14/10
f 86/22/25 85/9/3 84/25/30
f 83/22/32 82/10/81 81/9/82
f 80/16/19 79/8/83 78/18/20
f 29/16/19 30/11/5 77/8/83
f 76/31/84 75/12/7 28/29/36
f 31/31/30 26/9/82 27/12/80
f 74/18/16 73/10/85 24/22/25
f 21/18/16 22/8/83 23/10/4
f 72/34/79 71/13/13 20/15/11
f 17/34/79 18/14/10 19/13/13
f 70/47/86 69/48/77 68/49/87
f 67/47/88 66/50/89 65/48/77
f 64/51/90 63/52/60 62/53/91
f 61/51/90 60/54/64 59/52/72
f 58/55/92 57/56/93 56/57/94
f 55/55/92 54/58/67 53/56/75
f 52/49/87 51/59/66 50/60/95
f 2/49/96 32/48/77 49/59/66
f 48/53/91 47/50/68 12/47/86
f 9/53/91 10/52/60 11/50/61
f 46/57/94 45/54/64 8/51/97
f 5/57/94 6/56/75 7/54/64
f 44/60/98 43/61/99 15/62/100
f 1/60/98 35/59/78 39/61/101
