# Blender 5.0.0
# www.blender.org
mtllib Circle_002_Circle_004_Dupli_152_decorations_0.mtl
o Circle.002|Circle.004|Dupli|152_decorations_0
v -4.200150 0.541980 0.602299
v -4.199399 0.542316 0.601156
v -4.201742 0.549801 0.601443
v -4.202813 0.549323 0.603074
v -4.202320 0.541110 0.601314
v -4.204305 0.546200 0.601402
v -4.204104 0.546313 0.600106
v -4.202106 0.541230 0.599927
v -4.200967 0.541714 0.599254
v -4.203041 0.546765 0.599476
v -4.201915 0.547217 0.599987
v -4.199763 0.542197 0.599800
v -4.204668 0.548557 0.603174
v -4.205910 0.548080 0.601669
v -4.201449 0.541443 0.602369
v -4.205604 0.548252 0.599690
v -4.205832 0.549728 0.599973
v -4.205713 0.550834 0.600376
v -4.204851 0.551200 0.599865
v -4.204511 0.550290 0.599191
v -4.202690 0.550988 0.601399
v -4.203662 0.551656 0.601306
v -4.204231 0.551402 0.602173
v -4.203562 0.550599 0.602726
v -4.202261 0.549632 0.599509
v -4.205216 0.550995 0.602226
v -4.205875 0.550742 0.601426
v -4.206082 0.549588 0.601583
v -4.203113 0.550851 0.599825
v -4.203938 0.551566 0.600280
v -4.205071 0.549976 0.602808
v -4.201574 0.547328 0.601254
v -4.201462 0.548316 0.601357
v -4.202389 0.547901 0.602769
v -4.202276 0.547014 0.602323
v -4.203980 0.548943 0.598729
v -4.203995 0.547239 0.602856
v -4.205070 0.546826 0.601553
v -4.203491 0.546512 0.602389
v -4.201912 0.548169 0.599683
v -4.204805 0.546975 0.599840
v -4.203399 0.547572 0.599008
v -4.203491 0.546512 0.602389
v -4.200150 0.541980 0.602299
v -4.204104 0.546313 0.600106
v -4.202320 0.541110 0.601314
v -4.201915 0.547217 0.599987
v -4.200967 0.541714 0.599254
v -4.202276 0.547014 0.602323
v -4.200150 0.541980 0.602299
v -4.202276 0.547014 0.602323
v -4.199399 0.542316 0.601156
v -4.204305 0.546200 0.601402
v -4.203491 0.546512 0.602389
v -4.201449 0.541443 0.602369
v -4.202320 0.541110 0.601314
v -4.204305 0.546200 0.601402
v -4.201449 0.541443 0.602369
v -4.203041 0.546765 0.599476
v -4.204104 0.546313 0.600106
v -4.202106 0.541230 0.599927
v -4.200967 0.541714 0.599254
v -4.203041 0.546765 0.599476
v -4.202106 0.541230 0.599927
v -4.201574 0.547328 0.601254
v -4.201915 0.547217 0.599987
v -4.199763 0.542197 0.599800
v -4.199399 0.542316 0.601156
v -4.201574 0.547328 0.601254
v -4.199763 0.542197 0.599800
v -4.204851 0.551200 0.599865
v -4.205832 0.549728 0.599973
v -4.204231 0.551402 0.602173
v -4.202690 0.550988 0.601399
v -4.205875 0.550742 0.601426
v -4.205071 0.549976 0.602808
v -4.203662 0.551656 0.601306
v -4.202690 0.550988 0.601399
v -4.203662 0.551656 0.601306
v -4.203113 0.550851 0.599825
v -4.205216 0.550995 0.602226
v -4.204231 0.551402 0.602173
v -4.203562 0.550599 0.602726
v -4.205071 0.549976 0.602808
v -4.205216 0.550995 0.602226
v -4.203562 0.550599 0.602726
v -4.205713 0.550834 0.600376
v -4.205875 0.550742 0.601426
v -4.206082 0.549588 0.601583
v -4.205832 0.549728 0.599973
v -4.205713 0.550834 0.600376
v -4.206082 0.549588 0.601583
v -4.201574 0.547328 0.601254
v -4.202276 0.547014 0.602323
v -4.202389 0.547901 0.602769
v -4.201574 0.547328 0.601254
v -4.203491 0.546512 0.602389
v -4.204305 0.546200 0.601402
v -4.205070 0.546826 0.601553
v -4.203491 0.546512 0.602389
v -4.204104 0.546313 0.600106
v -4.203041 0.546765 0.599476
v -4.203399 0.547572 0.599008
v -4.204104 0.546313 0.600106
v -4.201462 0.548316 0.601357
v -4.201915 0.547217 0.599987
v -4.201574 0.547328 0.601254
v -4.201462 0.548316 0.601357
v -4.201915 0.547217 0.599987
v -4.203995 0.547239 0.602856
v -4.202389 0.547901 0.602769
v -4.202276 0.547014 0.602323
v -4.203491 0.546512 0.602389
v -4.203995 0.547239 0.602856
v -4.202276 0.547014 0.602323
v -4.204805 0.546975 0.599840
v -4.205070 0.546826 0.601553
v -4.204305 0.546200 0.601402
v -4.204104 0.546313 0.600106
v -4.204805 0.546975 0.599840
v -4.204305 0.546200 0.601402
v -4.201912 0.548169 0.599683
v -4.203399 0.547572 0.599008
v -4.203041 0.546765 0.599476
v -4.201915 0.547217 0.599987
v -4.201912 0.548169 0.599683
v -4.203041 0.546765 0.599476
v -4.203399 0.547572 0.599008
v -4.201912 0.548169 0.599683
v -4.202261 0.549632 0.599509
v -4.203399 0.547572 0.599008
v -4.203113 0.550851 0.599825
v -4.204511 0.550290 0.599191
v -4.203980 0.548943 0.598729
v -4.202261 0.549632 0.599509
v -4.203113 0.550851 0.599825
v -4.203980 0.548943 0.598729
v -4.203980 0.548943 0.598729
v -4.204805 0.546975 0.599840
v -4.203399 0.547572 0.599008
v -4.203980 0.548943 0.598729
v -4.204805 0.546975 0.599840
v -4.204511 0.550290 0.599191
v -4.205832 0.549728 0.599973
v -4.205604 0.548252 0.599690
v -4.203980 0.548943 0.598729
v -4.204511 0.550290 0.599191
v -4.205604 0.548252 0.599690
v -4.205604 0.548252 0.599690
v -4.205070 0.546826 0.601553
v -4.204805 0.546975 0.599840
v -4.205604 0.548252 0.599690
v -4.205070 0.546826 0.601553
v -4.205832 0.549728 0.599973
v -4.206082 0.549588 0.601583
v -4.205910 0.548080 0.601669
v -4.205604 0.548252 0.599690
v -4.205832 0.549728 0.599973
v -4.205910 0.548080 0.601669
v -4.205910 0.548080 0.601669
v -4.203995 0.547239 0.602856
v -4.205070 0.546826 0.601553
v -4.205910 0.548080 0.601669
v -4.203995 0.547239 0.602856
v -4.206082 0.549588 0.601583
v -4.205071 0.549976 0.602808
v -4.204668 0.548557 0.603174
v -4.205910 0.548080 0.601669
v -4.206082 0.549588 0.601583
v -4.204668 0.548557 0.603174
v -4.204668 0.548557 0.603174
v -4.202389 0.547901 0.602769
v -4.203995 0.547239 0.602856
v -4.204668 0.548557 0.603174
v -4.202389 0.547901 0.602769
v -4.205071 0.549976 0.602808
v -4.203562 0.550599 0.602726
v -4.202813 0.549323 0.603074
v -4.204668 0.548557 0.603174
v -4.205071 0.549976 0.602808
v -4.202813 0.549323 0.603074
v -4.202813 0.549323 0.603074
v -4.201462 0.548316 0.601357
v -4.202389 0.547901 0.602769
v -4.202813 0.549323 0.603074
v -4.201462 0.548316 0.601357
v -4.203562 0.550599 0.602726
v -4.202690 0.550988 0.601399
v -4.201742 0.549801 0.601443
v -4.202813 0.549323 0.603074
v -4.203562 0.550599 0.602726
v -4.201742 0.549801 0.601443
v -4.201742 0.549801 0.601443
v -4.202261 0.549632 0.599509
v -4.201912 0.548169 0.599683
v -4.201462 0.548316 0.601357
v -4.201742 0.549801 0.601443
v -4.201912 0.548169 0.599683
v -4.202690 0.550988 0.601399
v -4.203113 0.550851 0.599825
v -4.202261 0.549632 0.599509
v -4.201742 0.549801 0.601443
v -4.202690 0.550988 0.601399
v -4.202261 0.549632 0.599509
v -4.203938 0.551566 0.600280
v -4.204851 0.551200 0.599865
v -4.204511 0.550290 0.599191
v -4.203113 0.550851 0.599825
v -4.203938 0.551566 0.600280
v -4.204511 0.550290 0.599191
v -4.205713 0.550834 0.600376
v -4.204851 0.551200 0.599865
v -4.205875 0.550742 0.601426
v -4.203938 0.551566 0.600280
v -4.205875 0.550742 0.601426
v -4.204851 0.551200 0.599865
v -4.205216 0.550995 0.602226
v -4.205875 0.550742 0.601426
v -4.203938 0.551566 0.600280
v -4.203662 0.551656 0.601306
v -4.205216 0.550995 0.602226
v -4.203938 0.551566 0.600280
v -4.204231 0.551402 0.602173
v -4.205216 0.550995 0.602226
v -4.203662 0.551656 0.601306
v -4.202106 0.541230 0.599927
v -4.202320 0.541110 0.601314
v -4.200967 0.541714 0.599254
v -4.199763 0.542197 0.599800
v -4.200967 0.541714 0.599254
v -4.202320 0.541110 0.601314
v -4.201449 0.541443 0.602369
v -4.199763 0.542197 0.599800
v -4.202320 0.541110 0.601314
v -4.199399 0.542316 0.601156
v -4.199763 0.542197 0.599800
v -4.201449 0.541443 0.602369
v -4.200150 0.541980 0.602299
v -4.199399 0.542316 0.601156
v -4.201449 0.541443 0.602369
vn 0.3805 -0.9245 -0.0214
vn 0.2001 0.9730 0.1155
vn -0.5125 0.6699 0.5371
vn -0.0607 0.8564 0.5127
vn 0.0736 0.9318 -0.3555
vn -0.5125 0.6699 0.5372
vn 0.2001 0.9730 0.1154
vn -0.8149 0.5539 0.1704
vn -0.3449 0.7639 -0.5454
vn -0.8150 0.5539 0.1704
vn -0.7404 0.5957 -0.3114
vn -0.2049 0.3779 -0.9029
vn 0.4726 0.6498 -0.5954
vn 0.6730 0.3331 -0.6604
vn 0.6774 0.7164 0.1670
vn 0.8971 0.4061 0.1740
vn 0.6729 0.3331 -0.6604
vn 0.4726 0.6497 -0.5954
vn 0.7759 -0.0311 -0.6301
vn 0.8971 0.4061 0.1741
vn 0.9870 0.0378 0.1560
vn 0.7759 -0.0310 -0.6301
vn 0.8971 0.4062 0.1741
vn 0.2551 0.5278 0.8101
vn 0.4349 0.1996 0.8781
vn 0.9870 0.0377 0.1561
vn 0.4349 0.1997 0.8781
vn 0.5516 -0.1568 0.8192
vn -0.4762 0.2258 0.8498
vn -0.3657 -0.1309 0.9215
vn 0.2551 0.5277 0.8102
vn -0.4762 0.2259 0.8498
vn -0.2026 -0.4681 0.8601
vn -0.9659 0.0380 0.2561
vn -0.9017 -0.3365 0.2716
vn -0.2026 -0.4682 0.8601
vn -0.7075 -0.6618 0.2479
vn -0.9017 -0.3364 0.2717
vn -0.8452 0.1057 -0.5239
vn -0.7695 -0.2624 -0.5822
vn -0.7075 -0.6619 0.2479
vn -0.5830 -0.5920 -0.5564
vn -0.7695 -0.2624 -0.5823
vn -0.2050 0.3779 -0.9029
vn -0.0688 0.0356 -0.9970
vn -0.2050 0.3780 -0.9028
vn -0.5830 -0.5920 -0.5565
vn -0.0687 0.0356 -0.9970
vn 0.0771 -0.3113 -0.9472
vn -0.0688 0.0357 -0.9970
vn 0.0772 -0.3113 -0.9472
vn 0.0469 -0.2408 -0.9694
vn 0.7634 0.0465 -0.6443
vn -0.7577 -0.6003 0.2560
vn -0.6301 -0.5287 -0.5688
vn 0.5333 -0.0824 0.8419
vn -0.2025 -0.4681 0.8601
vn -0.2399 -0.4017 0.8838
vn 0.5334 -0.0824 0.8419
vn 0.7633 0.0466 -0.6443
vn 0.9799 0.1170 0.1618
vn -0.2400 -0.4016 0.8838
vn -0.7075 -0.6618 0.2480
vn 0.9799 0.1171 0.1618
vn 0.9870 0.0377 0.1560
vn -0.8149 0.5540 0.1704
vn 0.2551 0.5278 0.8102
vn -0.5125 0.6700 0.5371
vn 0.4727 0.6497 -0.5953
vn 0.2000 0.9730 0.1154
vn 0.6804 0.3162 -0.6612
vn 0.9046 0.3892 0.1737
vn 0.6803 0.3162 -0.6611
vn 0.7633 0.0465 -0.6443
vn -0.7629 -0.2796 -0.5830
vn -0.0618 0.0185 -0.9979
vn -0.3589 -0.1481 0.9216
vn -0.8951 -0.3538 0.2714
vn -0.3589 -0.1480 0.9216
vn 0.9046 0.3892 0.1738
vn 0.4422 0.1826 0.8781
vn 0.9046 0.3893 0.1738
vn -0.0617 0.0185 -0.9979
vn 0.7634 0.0466 -0.6443
vn 0.6803 0.3162 -0.6612
vn -0.0618 0.0186 -0.9979
vn -0.7629 -0.2796 -0.5829
vn -0.8951 -0.3537 0.2714
vn -0.2399 -0.4016 0.8838
vn -0.3588 -0.1481 0.9216
vn 0.4421 0.1827 0.8781
vt 0.530319 0.635056
vt 0.522446 0.641335
vt 0.524872 0.636299
vt 0.524872 0.646370
vt 0.534683 0.638535
vt 0.530319 0.647614
vt 0.534683 0.644127
vt 0.508789 0.671494
vt 0.513626 0.669548
vt 0.511276 0.672157
vt 0.507889 0.669609
vt 0.511566 0.666756
vt 0.507935 0.667854
vt 0.509277 0.666748
vt 0.506302 0.666855
vt 0.505722 0.669838
vt 0.502487 0.669685
vt 0.506897 0.673050
vt 0.503479 0.674789
vt 0.497520 0.669067
vt 0.497810 0.676537
vt 0.510727 0.675606
vt 0.507721 0.680244
vt 0.501465 0.684982
vt 0.518890 0.674767
vt 0.518692 0.686485
vt 0.509125 0.696274
vt 0.518890 0.658051
vt 0.512238 0.663902
vt 0.511536 0.659698
vt 0.517990 0.665543
vt 0.515472 0.651657
vt 0.509323 0.655174
vt 0.508469 0.664742
vt 0.506836 0.661980
vt 0.504074 0.658463
vt 0.503784 0.665283
vt 0.499901 0.662933
vt 0.495453 0.660286
vt 0.491707 0.668175
vt 0.506927 0.651588
vt 0.501038 0.654999
vt 0.494583 0.688484
vt 0.500031 0.699394
vt 0.491287 0.678001
vt 0.512177 0.648293
vt 0.627350 0.642853
vt 0.649124 0.647896
vt 0.627441 0.648445
vt 0.649033 0.642670
vt 0.627441 0.631676
vt 0.649033 0.637444
vt 0.627350 0.637268
vt 0.649124 0.632225
vt 0.627914 0.620506
vt 0.649292 0.626999
vt 0.627625 0.626091
vt 0.649551 0.621780
vt 0.649292 0.653114
vt 0.627625 0.654030
vt 0.649551 0.658333
vt 0.627914 0.659607
s 0
usemtl decorations
f 240/1/1 239/2/1 238/3/1
f 237/1/1 236/4/1 235/2/1
f 234/5/1 233/4/1 232/1/1
f 231/5/1 230/6/1 229/4/1
f 228/6/1 227/5/1 226/7/1
s 1
f 225/8/2 224/9/3 223/10/4
f 222/11/5 221/9/6 220/8/7
f 219/11/5 218/12/8 217/9/3
f 216/13/9 215/12/8 214/11/5
f 213/12/10 212/13/9 211/14/11
f 210/15/12 209/11/5 208/16/13
f 207/15/12 206/13/9 205/11/5
f 204/17/14 203/18/15 202/19/16
f 201/17/17 200/16/18 199/18/15
f 198/20/19 197/19/20 196/21/21
f 195/20/22 194/17/17 193/19/23
f 192/19/16 191/22/24 190/23/25
f 189/19/16 188/18/15 187/22/24
f 186/21/26 185/23/27 184/24/28
f 183/21/26 3/19/20 182/23/27
f 181/23/25 180/25/29 179/26/30
f 178/23/25 177/22/31 176/25/32
f 175/24/28 174/26/30 173/27/33
f 172/24/28 4/23/25 171/26/30
f 170/28/30 169/29/34 168/30/35
f 167/28/30 166/31/29 165/29/34
f 164/32/36 163/30/35 162/33/37
f 161/32/36 13/28/30 160/30/38
f 159/30/35 158/34/39 157/35/40
f 156/30/35 155/29/34 154/34/39
f 153/33/41 152/35/40 151/36/42
f 150/33/37 14/30/35 149/35/40
f 148/35/43 147/15/44 146/37/45
f 145/35/40 144/34/39 143/15/46
f 142/36/47 141/37/48 140/38/49
f 139/36/47 16/35/40 138/37/48
f 137/37/48 136/16/18 135/17/14
f 134/37/50 133/15/44 132/16/13
f 131/38/51 130/17/14 129/20/22
f 128/38/51 36/37/45 25/17/14
f 127/39/52 126/20/22 125/40/53
f 124/39/52 123/38/51 122/20/22
f 121/41/54 120/36/42 119/42/55
f 118/41/54 117/33/41 116/36/42
f 115/43/56 114/27/57 113/44/58
f 112/43/59 111/24/28 110/27/57
f 109/40/60 108/21/21 107/45/61
f 106/40/60 40/20/19 105/21/21
f 104/42/55 103/38/49 102/39/52
f 101/42/55 41/36/42 42/38/49
f 100/46/62 99/33/63 98/41/54
f 97/46/58 37/32/36 38/33/63
f 96/45/64 95/24/28 94/43/56
f 93/45/64 33/21/65 34/24/28
f 92/29/34 91/14/11 90/34/39
f 89/29/34 88/12/66 87/14/11
f 86/22/67 85/9/6 84/25/32
f 83/22/67 82/10/4 81/9/68
f 80/16/69 79/8/7 78/18/15
f 29/16/69 30/11/5 77/8/7
f 76/31/32 75/12/8 28/29/34
f 31/31/32 26/9/68 27/12/8
f 74/18/15 73/10/4 24/22/67
f 21/18/15 22/8/70 23/10/4
f 72/34/39 71/13/9 20/15/46
f 17/34/39 18/14/11 19/13/9
f 70/47/71 69/48/64 68/49/72
f 67/47/73 66/50/74 65/48/64
f 64/51/75 63/52/52 62/53/76
f 61/51/75 60/54/55 59/52/52
f 58/55/77 57/56/54 56/57/78
f 55/55/79 54/58/58 53/56/54
f 52/49/80 51/59/59 50/60/81
f 2/49/82 32/48/61 49/59/59
f 48/53/83 47/50/84 12/47/85
f 9/53/86 10/52/52 11/50/84
f 46/57/78 45/54/55 8/51/87
f 5/57/88 6/56/54 7/54/55
f 44/60/81 43/61/89 15/62/90
f 1/60/91 35/59/59 39/61/89
