# Blender 5.0.0
# www.blender.org
mtllib Circle_002_Circle_Dupli_107_decorations_0.mtl
o Circle.002|Circle|Dupli|107_decorations_0
v -4.337610 1.893660 0.763755
v -4.338565 1.893239 0.764701
v -4.340407 1.900635 0.766577
v -4.339045 1.901235 0.765228
v -4.335448 1.893630 0.765084
v -4.336383 1.898806 0.766564
v -4.336776 1.898406 0.767755
v -4.335869 1.893202 0.766358
v -4.337169 1.892872 0.766788
v -4.337991 1.898098 0.768158
v -4.339113 1.898113 0.767469
v -4.338368 1.892889 0.766051
v -4.337065 1.901483 0.765470
v -4.335960 1.901192 0.767123
v -4.336223 1.893833 0.763926
v -4.336560 1.900581 0.768940
v -4.337092 1.902002 0.769035
v -4.337713 1.902992 0.768848
v -4.338697 1.902742 0.769175
v -4.338601 1.901619 0.769535
v -4.340222 1.902045 0.767112
v -4.339756 1.903020 0.767594
v -4.339032 1.903339 0.766877
v -4.339114 1.902534 0.766014
v -4.340127 1.900135 0.768503
v -4.337981 1.903470 0.767006
v -4.337394 1.903316 0.767883
v -4.336603 1.902499 0.767556
v -4.339994 1.901638 0.768679
v -4.339606 1.902754 0.768616
v -4.337503 1.902735 0.766211
v -4.339296 1.898441 0.766207
v -4.339888 1.899244 0.766281
v -4.338709 1.899763 0.765113
v -4.338404 1.898834 0.765323
v -4.338415 1.900111 0.769555
v -4.336996 1.899977 0.765323
v -4.336039 1.899726 0.766753
v -4.337107 1.898997 0.765482
v -4.339645 1.898811 0.767948
v -4.336559 1.899197 0.768327
v -4.338164 1.898790 0.768858
v -4.337107 1.898997 0.765482
v -4.337610 1.893660 0.763755
v -4.336776 1.898406 0.767755
v -4.335448 1.893630 0.765084
v -4.339113 1.898113 0.767469
v -4.337169 1.892872 0.766788
v -4.338404 1.898834 0.765323
v -4.337610 1.893660 0.763755
v -4.338404 1.898834 0.765323
v -4.338565 1.893239 0.764701
v -4.336383 1.898806 0.766564
v -4.337107 1.898997 0.765482
v -4.336223 1.893833 0.763926
v -4.335448 1.893630 0.765084
v -4.336383 1.898806 0.766564
v -4.336223 1.893833 0.763926
v -4.337991 1.898098 0.768158
v -4.336776 1.898406 0.767755
v -4.335869 1.893202 0.766358
v -4.337169 1.892872 0.766788
v -4.337991 1.898098 0.768158
v -4.335869 1.893202 0.766358
v -4.339296 1.898441 0.766207
v -4.339113 1.898113 0.767469
v -4.338368 1.892889 0.766051
v -4.338565 1.893239 0.764701
v -4.339296 1.898441 0.766207
v -4.338368 1.892889 0.766051
v -4.338697 1.902742 0.769175
v -4.337092 1.902002 0.769035
v -4.339032 1.903339 0.766877
v -4.340222 1.902045 0.767112
v -4.337394 1.903316 0.767883
v -4.337503 1.902735 0.766211
v -4.339756 1.903020 0.767594
v -4.340222 1.902045 0.767112
v -4.339756 1.903020 0.767594
v -4.339994 1.901638 0.768679
v -4.337981 1.903470 0.767006
v -4.339032 1.903339 0.766877
v -4.339114 1.902534 0.766014
v -4.337503 1.902735 0.766211
v -4.337981 1.903470 0.767006
v -4.339114 1.902534 0.766014
v -4.337713 1.902992 0.768848
v -4.337394 1.903316 0.767883
v -4.336603 1.902499 0.767556
v -4.337092 1.902002 0.769035
v -4.337713 1.902992 0.768848
v -4.336603 1.902499 0.767556
v -4.339296 1.898441 0.766207
v -4.338404 1.898834 0.765323
v -4.338709 1.899763 0.765113
v -4.339296 1.898441 0.766207
v -4.337107 1.898997 0.765482
v -4.336383 1.898806 0.766564
v -4.336039 1.899726 0.766753
v -4.337107 1.898997 0.765482
v -4.336776 1.898406 0.767755
v -4.337991 1.898098 0.768158
v -4.338164 1.898790 0.768858
v -4.336776 1.898406 0.767755
v -4.339888 1.899244 0.766281
v -4.339113 1.898113 0.767469
v -4.339296 1.898441 0.766207
v -4.339888 1.899244 0.766281
v -4.339113 1.898113 0.767469
v -4.336996 1.899977 0.765323
v -4.338709 1.899763 0.765113
v -4.338404 1.898834 0.765323
v -4.337107 1.898997 0.765482
v -4.336996 1.899977 0.765323
v -4.338404 1.898834 0.765323
v -4.336559 1.899197 0.768327
v -4.336039 1.899726 0.766753
v -4.336383 1.898806 0.766564
v -4.336776 1.898406 0.767755
v -4.336559 1.899197 0.768327
v -4.336383 1.898806 0.766564
v -4.339645 1.898811 0.767948
v -4.338164 1.898790 0.768858
v -4.337991 1.898098 0.768158
v -4.339113 1.898113 0.767469
v -4.339645 1.898811 0.767948
v -4.337991 1.898098 0.768158
v -4.338164 1.898790 0.768858
v -4.339645 1.898811 0.767948
v -4.340127 1.900135 0.768503
v -4.338164 1.898790 0.768858
v -4.339994 1.901638 0.768679
v -4.338601 1.901619 0.769535
v -4.338415 1.900111 0.769555
v -4.340127 1.900135 0.768503
v -4.339994 1.901638 0.768679
v -4.338415 1.900111 0.769555
v -4.338415 1.900111 0.769555
v -4.336559 1.899197 0.768327
v -4.338164 1.898790 0.768858
v -4.338415 1.900111 0.769555
v -4.336559 1.899197 0.768327
v -4.338601 1.901619 0.769535
v -4.337092 1.902002 0.769035
v -4.336560 1.900581 0.768940
v -4.338415 1.900111 0.769555
v -4.338601 1.901619 0.769535
v -4.336560 1.900581 0.768940
v -4.336560 1.900581 0.768940
v -4.336039 1.899726 0.766753
v -4.336559 1.899197 0.768327
v -4.336560 1.900581 0.768940
v -4.336039 1.899726 0.766753
v -4.337092 1.902002 0.769035
v -4.336603 1.902499 0.767556
v -4.335960 1.901192 0.767123
v -4.336560 1.900581 0.768940
v -4.337092 1.902002 0.769035
v -4.335960 1.901192 0.767123
v -4.335960 1.901192 0.767123
v -4.336996 1.899977 0.765323
v -4.336039 1.899726 0.766753
v -4.335960 1.901192 0.767123
v -4.336996 1.899977 0.765323
v -4.336603 1.902499 0.767556
v -4.337503 1.902735 0.766211
v -4.337065 1.901483 0.765470
v -4.335960 1.901192 0.767123
v -4.336603 1.902499 0.767556
v -4.337065 1.901483 0.765470
v -4.337065 1.901483 0.765470
v -4.338709 1.899763 0.765113
v -4.336996 1.899977 0.765323
v -4.337065 1.901483 0.765470
v -4.338709 1.899763 0.765113
v -4.337503 1.902735 0.766211
v -4.339114 1.902534 0.766014
v -4.339045 1.901235 0.765228
v -4.337065 1.901483 0.765470
v -4.337503 1.902735 0.766211
v -4.339045 1.901235 0.765228
v -4.339045 1.901235 0.765228
v -4.339888 1.899244 0.766281
v -4.338709 1.899763 0.765113
v -4.339045 1.901235 0.765228
v -4.339888 1.899244 0.766281
v -4.339114 1.902534 0.766014
v -4.340222 1.902045 0.767112
v -4.340407 1.900635 0.766577
v -4.339045 1.901235 0.765228
v -4.339114 1.902534 0.766014
v -4.340407 1.900635 0.766577
v -4.340407 1.900635 0.766577
v -4.340127 1.900135 0.768503
v -4.339645 1.898811 0.767948
v -4.339888 1.899244 0.766281
v -4.340407 1.900635 0.766577
v -4.339645 1.898811 0.767948
v -4.340222 1.902045 0.767112
v -4.339994 1.901638 0.768679
v -4.340127 1.900135 0.768503
v -4.340407 1.900635 0.766577
v -4.340222 1.902045 0.767112
v -4.340127 1.900135 0.768503
v -4.339606 1.902754 0.768616
v -4.338697 1.902742 0.769175
v -4.338601 1.901619 0.769535
v -4.339994 1.901638 0.768679
v -4.339606 1.902754 0.768616
v -4.338601 1.901619 0.769535
v -4.337713 1.902992 0.768848
v -4.338697 1.902742 0.769175
v -4.337394 1.903316 0.767883
v -4.339606 1.902754 0.768616
v -4.337394 1.903316 0.767883
v -4.338697 1.902742 0.769175
v -4.337981 1.903470 0.767006
v -4.337394 1.903316 0.767883
v -4.339606 1.902754 0.768616
v -4.339756 1.903020 0.767594
v -4.337981 1.903470 0.767006
v -4.339606 1.902754 0.768616
v -4.339032 1.903339 0.766877
v -4.337981 1.903470 0.767006
v -4.339756 1.903020 0.767594
v -4.335869 1.893202 0.766358
v -4.335448 1.893630 0.765084
v -4.337169 1.892872 0.766788
v -4.338368 1.892889 0.766051
v -4.337169 1.892872 0.766788
v -4.335448 1.893630 0.765084
v -4.336223 1.893833 0.763926
v -4.338368 1.892889 0.766051
v -4.335448 1.893630 0.765084
v -4.338565 1.893239 0.764701
v -4.338368 1.892889 0.766051
v -4.336223 1.893833 0.763926
v -4.337610 1.893660 0.763755
v -4.338565 1.893239 0.764701
v -4.336223 1.893833 0.763926
vn 0.1521 -0.9510 -0.2692
vn -0.6568 0.7532 0.0360
vn 0.1569 0.9596 -0.2335
vn -0.3251 0.8992 -0.2927
vn -0.5886 0.6313 0.5050
vn 0.1569 0.9596 -0.2336
vn -0.6569 0.7531 0.0360
vn -0.5886 0.6313 0.5049
vn 0.4261 0.8888 0.1689
vn -0.1717 0.6255 0.7611
vn 0.4261 0.8888 0.1688
vn 0.2799 0.7401 0.6115
vn -0.1367 0.1293 0.9821
vn -0.8116 0.1388 0.5675
vn -0.5886 0.6314 0.5050
vn -0.8262 -0.2371 0.5111
vn -0.9222 0.3359 -0.1917
vn -0.9472 -0.0211 -0.3199
vn -0.8262 -0.2370 0.5111
vn -0.8116 0.1387 0.5675
vn -0.9221 0.3360 -0.1917
vn -0.7216 -0.5781 0.3811
vn -0.9472 -0.0212 -0.3200
vn -0.8356 -0.3746 -0.4018
vn -0.3851 0.5725 -0.7238
vn -0.3593 0.2378 -0.9024
vn -0.9221 0.3360 -0.1918
vn -0.8355 -0.3747 -0.4019
vn -0.2818 -0.1307 -0.9505
vn -0.8355 -0.3746 -0.4019
vn -0.9472 -0.0211 -0.3200
vn 0.3953 0.6702 -0.6282
vn 0.4949 0.3447 -0.7977
vn -0.3850 0.5725 -0.7239
vn 0.3952 0.6702 -0.6282
vn -0.2817 -0.1308 -0.9505
vn 0.5229 -0.0300 -0.8519
vn 0.8312 0.5555 0.0233
vn 0.9720 0.2192 -0.0846
vn 0.8312 0.5556 0.0233
vn 0.5230 -0.0300 -0.8518
vn 0.9720 0.2191 -0.0846
vn 0.9724 -0.1482 -0.1801
vn 0.5945 0.3149 0.7399
vn 0.7129 -0.0443 0.6999
vn 0.5945 0.3148 0.7399
vn 0.9724 -0.1483 -0.1801
vn 0.7283 -0.3965 0.5589
vn 0.7129 -0.0444 0.6999
vn -0.1366 0.1293 0.9821
vn -0.0874 -0.2474 0.9650
vn 0.5944 0.3148 0.7400
vn -0.1366 0.1294 0.9821
vn -0.0256 -0.5877 0.8087
vn -0.0874 -0.2473 0.9650
vn -0.0256 -0.5878 0.8086
vn -0.7216 -0.5780 0.3811
vn -0.0392 -0.5221 0.8520
vn -0.7528 -0.5121 0.4136
vn 0.9842 -0.0714 -0.1618
vn 0.7283 -0.3964 0.5589
vn 0.7339 -0.3260 0.5959
vn 0.9842 -0.0714 -0.1619
vn -0.3018 -0.0534 -0.9519
vn 0.5233 0.0498 -0.8507
vn -0.3018 -0.0535 -0.9519
vn -0.2817 -0.1307 -0.9506
vn -0.8697 -0.3036 -0.3892
vn -0.7215 -0.5781 0.3811
vn 0.7339 -0.3259 0.5959
vn -0.0391 -0.5221 0.8520
vn 0.5233 0.0499 -0.8507
vn -0.8697 -0.3035 -0.3892
vn -0.2817 -0.1307 -0.9505
vn -0.3017 -0.0535 -0.9519
vn 0.2799 0.7400 0.6116
vn -0.9222 0.3360 -0.1917
vn -0.8116 0.1387 0.5674
vn 0.3953 0.6702 -0.6281
vn -0.9222 0.3359 -0.1918
vn -0.8238 -0.2548 0.5064
vn -0.9449 -0.0388 -0.3251
vn -0.8238 -0.2547 0.5064
vn 0.7160 -0.0620 0.6953
vn -0.0846 -0.2651 0.9605
vn 0.7160 -0.0619 0.6953
vn 0.4980 0.3273 -0.8030
vn 0.9753 0.2017 -0.0897
vn -0.3567 0.2203 -0.9079
vn -0.9449 -0.0387 -0.3251
vn -0.0846 -0.2650 0.9605
vn 0.9753 0.2017 -0.0896
vn 0.7161 -0.0619 0.6953
vn 0.4980 0.3273 -0.8031
vt 0.543243 0.611839
vt 0.535370 0.618118
vt 0.537796 0.613083
vt 0.537796 0.623154
vt 0.547607 0.615326
vt 0.543243 0.624397
vt 0.547607 0.620918
vt 0.565384 0.671494
vt 0.570206 0.669548
vt 0.567856 0.672157
vt 0.564468 0.669609
vt 0.568146 0.666756
vt 0.564514 0.667854
vt 0.565857 0.666748
vt 0.562897 0.666855
vt 0.562302 0.669838
vt 0.559082 0.669685
vt 0.563492 0.673050
vt 0.560059 0.674789
vt 0.554092 0.669067
vt 0.554398 0.676537
vt 0.567307 0.675606
vt 0.564316 0.680244
vt 0.558044 0.684982
vt 0.575485 0.674767
vt 0.575272 0.686485
vt 0.565720 0.696274
vt 0.575485 0.658051
vt 0.568817 0.663902
vt 0.568115 0.659698
vt 0.574570 0.665543
vt 0.572052 0.651657
vt 0.565903 0.655174
vt 0.565063 0.664742
vt 0.563416 0.661980
vt 0.560669 0.658463
vt 0.560364 0.665283
vt 0.556488 0.662933
vt 0.552032 0.660286
vt 0.548294 0.668175
vt 0.563522 0.651588
vt 0.557617 0.654999
vt 0.551163 0.688484
vt 0.556610 0.699394
vt 0.547867 0.678001
vt 0.568756 0.648293
vt 0.604446 0.682632
vt 0.626221 0.687675
vt 0.604553 0.688225
vt 0.626144 0.682457
vt 0.604553 0.671455
vt 0.626144 0.677231
vt 0.604446 0.677048
vt 0.626221 0.672005
vt 0.605011 0.660294
vt 0.626404 0.666786
vt 0.604736 0.665871
vt 0.626663 0.661568
vt 0.626404 0.692902
vt 0.604736 0.693810
vt 0.626663 0.698120
vt 0.605011 0.699394
s 0
usemtl decorations
f 240/1/1 239/2/1 238/3/1
f 237/1/1 236/4/1 235/2/1
f 234/5/1 233/4/1 232/1/1
f 231/5/1 230/6/1 229/4/1
f 228/6/1 227/5/1 226/7/1
s 1
f 225/8/2 224/9/3 223/10/4
f 222/11/5 221/9/6 220/8/7
f 219/11/8 218/12/9 217/9/3
f 216/13/10 215/12/11 214/11/5
f 213/12/9 212/13/10 211/14/12
f 210/15/13 209/11/5 208/16/14
f 207/15/13 206/13/10 205/11/15
f 204/17/16 203/18/17 202/19/18
f 201/17/19 200/16/20 199/18/21
f 198/20/22 197/19/23 196/21/24
f 195/20/22 194/17/19 193/19/18
f 192/19/23 191/22/25 190/23/26
f 189/19/18 188/18/27 187/22/25
f 186/21/28 185/23/26 184/24/29
f 183/21/30 3/19/31 182/23/26
f 181/23/26 180/25/32 179/26/33
f 178/23/26 177/22/34 176/25/35
f 175/24/36 174/26/33 173/27/37
f 172/24/36 4/23/26 171/26/33
f 170/28/33 169/29/38 168/30/39
f 167/28/33 166/31/32 165/29/40
f 164/32/41 163/30/42 162/33/43
f 161/32/41 13/28/33 160/30/39
f 159/30/39 158/34/44 157/35/45
f 156/30/39 155/29/38 154/34/46
f 153/33/47 152/35/45 151/36/48
f 150/33/47 14/30/39 149/35/45
f 148/35/49 147/15/50 146/37/51
f 145/35/49 144/34/52 143/15/53
f 142/36/48 141/37/51 140/38/54
f 139/36/48 16/35/45 138/37/51
f 137/37/51 136/16/20 135/17/16
f 134/37/55 133/15/13 132/16/14
f 131/38/56 130/17/16 129/20/57
f 128/38/56 36/37/55 25/17/16
f 127/39/58 126/20/57 125/40/59
f 124/39/58 123/38/54 122/20/57
f 121/41/60 120/36/61 119/42/62
f 118/41/63 117/33/47 116/36/61
f 115/43/64 114/27/37 113/44/65
f 112/43/66 111/24/67 110/27/37
f 109/40/59 108/21/24 107/45/68
f 106/40/59 40/20/69 105/21/24
f 104/42/70 103/38/54 102/39/71
f 101/42/70 41/36/48 42/38/54
f 100/46/72 99/33/43 98/41/60
f 97/46/72 37/32/41 38/33/43
f 96/45/73 95/24/74 94/43/75
f 93/45/73 33/21/24 34/24/74
f 92/29/38 91/14/12 90/34/46
f 89/29/38 88/12/11 87/14/76
f 86/22/34 85/9/3 84/25/35
f 83/22/34 82/10/4 81/9/3
f 80/16/20 79/8/2 78/18/77
f 29/16/78 30/11/5 77/8/2
f 76/31/79 75/12/9 28/29/38
f 31/31/79 26/9/3 27/12/11
f 74/18/80 73/10/4 24/22/25
f 21/18/80 22/8/2 23/10/4
f 72/34/52 71/13/10 20/15/13
f 17/34/52 18/14/12 19/13/10
f 70/47/81 69/48/73 68/49/82
f 67/47/83 66/50/59 65/48/68
f 64/51/84 63/52/58 62/53/85
f 61/51/86 60/54/70 59/52/71
f 58/55/87 57/56/60 56/57/88
f 55/55/87 54/58/65 53/56/60
f 52/49/82 51/59/64 50/60/89
f 2/49/90 32/48/68 49/59/66
f 48/53/85 47/50/59 12/47/81
f 9/53/91 10/52/58 11/50/59
f 46/57/92 45/54/70 8/51/93
f 5/57/92 6/56/60 7/54/62
f 44/60/89 43/61/72 15/62/94
f 1/60/89 35/59/66 39/61/72
