# Blender 5.0.0
# www.blender.org
mtllib Circle_002_Circle_004_Dupli_72_decorations_0.mtl
o Circle.002|Circle.004|Dupli|72_decorations_0
v -4.456276 2.115827 0.658171
v -4.456352 2.114692 0.657341
v -4.449535 2.116413 0.653852
v -4.449427 2.118032 0.655036
v -4.457620 2.117556 0.656889
v -4.453055 2.119051 0.654284
v -4.453437 2.118390 0.653212
v -4.458028 2.116848 0.655742
v -4.457757 2.115511 0.655393
v -4.453184 2.117140 0.652885
v -4.452487 2.116243 0.653551
v -4.457012 2.114551 0.656105
v -4.450232 2.119851 0.654749
v -4.451344 2.120499 0.653207
v -4.456840 2.117102 0.657970
v -4.451927 2.119489 0.651570
v -4.450478 2.119692 0.651159
v -4.449297 2.119643 0.651117
v -4.449092 2.118630 0.650853
v -4.450164 2.118140 0.650753
v -4.448532 2.117189 0.653015
v -4.448027 2.118010 0.652328
v -4.447969 2.118870 0.652957
v -4.448443 2.118507 0.653979
v -4.450476 2.116212 0.652088
v -4.448397 2.119835 0.652805
v -4.448987 2.120180 0.651986
v -4.450004 2.120514 0.652490
v -4.449298 2.117026 0.651579
v -4.448526 2.117903 0.651392
v -4.449099 2.119987 0.653745
v -4.451870 2.116374 0.654707
v -4.450913 2.116233 0.654453
v -4.450819 2.117635 0.655478
v -4.451798 2.117435 0.655483
v -4.451540 2.117581 0.651072
v -4.451516 2.119209 0.655230
v -4.452479 2.119770 0.653895
v -4.452326 2.118627 0.655295
v -4.451728 2.116059 0.652926
v -4.452983 2.118896 0.652479
v -4.452649 2.117244 0.652048
v -4.452326 2.118627 0.655295
v -4.456276 2.115827 0.658171
v -4.453437 2.118390 0.653212
v -4.457620 2.117556 0.656889
v -4.452487 2.116243 0.653551
v -4.457757 2.115511 0.655393
v -4.451798 2.117435 0.655483
v -4.456276 2.115827 0.658171
v -4.451798 2.117435 0.655483
v -4.456352 2.114692 0.657341
v -4.453055 2.119051 0.654284
v -4.452326 2.118627 0.655295
v -4.456840 2.117102 0.657970
v -4.457620 2.117556 0.656889
v -4.453055 2.119051 0.654284
v -4.456840 2.117102 0.657970
v -4.453184 2.117140 0.652885
v -4.453437 2.118390 0.653212
v -4.458028 2.116848 0.655742
v -4.457757 2.115511 0.655393
v -4.453184 2.117140 0.652885
v -4.458028 2.116848 0.655742
v -4.451870 2.116374 0.654707
v -4.452487 2.116243 0.653551
v -4.457012 2.114551 0.656105
v -4.456352 2.114692 0.657341
v -4.451870 2.116374 0.654707
v -4.457012 2.114551 0.656105
v -4.449092 2.118630 0.650853
v -4.450478 2.119692 0.651159
v -4.447969 2.118870 0.652957
v -4.448532 2.117189 0.653015
v -4.448987 2.120180 0.651986
v -4.449099 2.119987 0.653745
v -4.448027 2.118010 0.652328
v -4.448532 2.117189 0.653015
v -4.448027 2.118010 0.652328
v -4.449298 2.117026 0.651579
v -4.448397 2.119835 0.652805
v -4.447969 2.118870 0.652957
v -4.448443 2.118507 0.653979
v -4.449099 2.119987 0.653745
v -4.448397 2.119835 0.652805
v -4.448443 2.118507 0.653979
v -4.449297 2.119643 0.651117
v -4.448987 2.120180 0.651986
v -4.450004 2.120514 0.652490
v -4.450478 2.119692 0.651159
v -4.449297 2.119643 0.651117
v -4.450004 2.120514 0.652490
v -4.451870 2.116374 0.654707
v -4.451798 2.117435 0.655483
v -4.450819 2.117635 0.655478
v -4.451870 2.116374 0.654707
v -4.452326 2.118627 0.655295
v -4.453055 2.119051 0.654284
v -4.452479 2.119770 0.653895
v -4.452326 2.118627 0.655295
v -4.453437 2.118390 0.653212
v -4.453184 2.117140 0.652885
v -4.452649 2.117244 0.652048
v -4.453437 2.118390 0.653212
v -4.450913 2.116233 0.654453
v -4.452487 2.116243 0.653551
v -4.451870 2.116374 0.654707
v -4.450913 2.116233 0.654453
v -4.452487 2.116243 0.653551
v -4.451516 2.119209 0.655230
v -4.450819 2.117635 0.655478
v -4.451798 2.117435 0.655483
v -4.452326 2.118627 0.655295
v -4.451516 2.119209 0.655230
v -4.451798 2.117435 0.655483
v -4.452983 2.118896 0.652479
v -4.452479 2.119770 0.653895
v -4.453055 2.119051 0.654284
v -4.453437 2.118390 0.653212
v -4.452983 2.118896 0.652479
v -4.453055 2.119051 0.654284
v -4.451728 2.116059 0.652926
v -4.452649 2.117244 0.652048
v -4.453184 2.117140 0.652885
v -4.452487 2.116243 0.653551
v -4.451728 2.116059 0.652926
v -4.453184 2.117140 0.652885
v -4.452649 2.117244 0.652048
v -4.451728 2.116059 0.652926
v -4.450476 2.116212 0.652088
v -4.452649 2.117244 0.652048
v -4.449298 2.117026 0.651579
v -4.450164 2.118140 0.650753
v -4.451540 2.117581 0.651072
v -4.450476 2.116212 0.652088
v -4.449298 2.117026 0.651579
v -4.451540 2.117581 0.651072
v -4.451540 2.117581 0.651072
v -4.452983 2.118896 0.652479
v -4.452649 2.117244 0.652048
v -4.451540 2.117581 0.651072
v -4.452983 2.118896 0.652479
v -4.450164 2.118140 0.650753
v -4.450478 2.119692 0.651159
v -4.451927 2.119489 0.651570
v -4.451540 2.117581 0.651072
v -4.450164 2.118140 0.650753
v -4.451927 2.119489 0.651570
v -4.451927 2.119489 0.651570
v -4.452479 2.119770 0.653895
v -4.452983 2.118896 0.652479
v -4.451927 2.119489 0.651570
v -4.452479 2.119770 0.653895
v -4.450478 2.119692 0.651159
v -4.450004 2.120514 0.652490
v -4.451344 2.120499 0.653207
v -4.451927 2.119489 0.651570
v -4.450478 2.119692 0.651159
v -4.451344 2.120499 0.653207
v -4.451344 2.120499 0.653207
v -4.451516 2.119209 0.655230
v -4.452479 2.119770 0.653895
v -4.451344 2.120499 0.653207
v -4.451516 2.119209 0.655230
v -4.450004 2.120514 0.652490
v -4.449099 2.119987 0.653745
v -4.450232 2.119851 0.654749
v -4.451344 2.120499 0.653207
v -4.450004 2.120514 0.652490
v -4.450232 2.119851 0.654749
v -4.450232 2.119851 0.654749
v -4.450819 2.117635 0.655478
v -4.451516 2.119209 0.655230
v -4.450232 2.119851 0.654749
v -4.450819 2.117635 0.655478
v -4.449099 2.119987 0.653745
v -4.448443 2.118507 0.653979
v -4.449427 2.118032 0.655036
v -4.450232 2.119851 0.654749
v -4.449099 2.119987 0.653745
v -4.449427 2.118032 0.655036
v -4.449427 2.118032 0.655036
v -4.450913 2.116233 0.654453
v -4.450819 2.117635 0.655478
v -4.449427 2.118032 0.655036
v -4.450913 2.116233 0.654453
v -4.448443 2.118507 0.653979
v -4.448532 2.117189 0.653015
v -4.449535 2.116413 0.653852
v -4.449427 2.118032 0.655036
v -4.448443 2.118507 0.653979
v -4.449535 2.116413 0.653852
v -4.449535 2.116413 0.653852
v -4.450476 2.116212 0.652088
v -4.451728 2.116059 0.652926
v -4.450913 2.116233 0.654453
v -4.449535 2.116413 0.653852
v -4.451728 2.116059 0.652926
v -4.448532 2.117189 0.653015
v -4.449298 2.117026 0.651579
v -4.450476 2.116212 0.652088
v -4.449535 2.116413 0.653852
v -4.448532 2.117189 0.653015
v -4.450476 2.116212 0.652088
v -4.448526 2.117903 0.651392
v -4.449092 2.118630 0.650853
v -4.450164 2.118140 0.650753
v -4.449298 2.117026 0.651579
v -4.448526 2.117903 0.651392
v -4.450164 2.118140 0.650753
v -4.449297 2.119643 0.651117
v -4.449092 2.118630 0.650853
v -4.448987 2.120180 0.651986
v -4.448526 2.117903 0.651392
v -4.448987 2.120180 0.651986
v -4.449092 2.118630 0.650853
v -4.448397 2.119835 0.652805
v -4.448987 2.120180 0.651986
v -4.448526 2.117903 0.651392
v -4.448027 2.118010 0.652328
v -4.448397 2.119835 0.652805
v -4.448526 2.117903 0.651392
v -4.447969 2.118870 0.652957
v -4.448397 2.119835 0.652805
v -4.448027 2.118010 0.652328
v -4.458028 2.116848 0.655742
v -4.457620 2.117556 0.656889
v -4.457757 2.115511 0.655393
v -4.457012 2.114551 0.656105
v -4.457757 2.115511 0.655393
v -4.457620 2.117556 0.656889
v -4.456840 2.117102 0.657970
v -4.457012 2.114551 0.656105
v -4.457620 2.117556 0.656889
v -4.456352 2.114692 0.657341
v -4.457012 2.114551 0.656105
v -4.456840 2.117102 0.657970
v -4.456276 2.115827 0.658171
v -4.456352 2.114692 0.657341
v -4.456840 2.117102 0.657970
vn -0.8296 -0.2921 0.4758
vn 0.9542 -0.2175 -0.2054
vn 0.7847 0.6198 0.0130
vn 0.9807 0.1769 0.0830
vn 0.7250 -0.2664 -0.6351
vn 0.7847 0.6197 0.0131
vn 0.9542 -0.2175 -0.2055
vn 0.7251 -0.2664 -0.6350
vn 0.5137 0.7776 -0.3626
vn 0.4659 0.0670 -0.8823
vn 0.5137 0.7776 -0.3625
vn 0.4659 0.0669 -0.8823
vn 0.3718 0.5316 -0.7610
vn -0.0164 -0.1630 -0.9865
vn 0.7251 -0.2664 -0.6351
vn 0.4032 -0.7026 -0.5863
vn 0.1020 -0.8886 -0.4471
vn 0.7741 -0.6235 0.1093
vn 0.5081 -0.8020 0.3141
vn 0.1021 -0.8886 -0.4472
vn 0.4032 -0.7027 -0.5862
vn 0.7742 -0.6235 0.1092
vn -0.2133 -0.9461 -0.2437
vn 0.5081 -0.8019 0.3142
vn 0.1693 -0.8644 0.4734
vn 0.1021 -0.8886 -0.4471
vn 0.5082 -0.8019 0.3141
vn 0.5081 -0.8019 0.3141
vn 0.8172 0.0150 0.5762
vn 0.5552 -0.1031 0.8253
vn 0.7742 -0.6235 0.1093
vn 0.1692 -0.8644 0.4735
vn 0.2136 -0.2061 0.9549
vn 0.1692 -0.8644 0.4734
vn 0.4998 0.7320 0.4631
vn 0.2078 0.6817 0.7015
vn 0.8171 0.0150 0.5763
vn 0.4998 0.7319 0.4631
vn 0.2135 -0.2061 0.9550
vn 0.2078 0.6818 0.7015
vn -0.1137 0.5333 0.8383
vn 0.2077 0.6818 0.7015
vn 0.0610 0.9876 -0.1450
vn -0.2724 0.9615 0.0359
vn 0.4997 0.7320 0.4631
vn 0.0611 0.9875 -0.1450
vn -0.1138 0.5333 0.8383
vn -0.2725 0.9615 0.0359
vn -0.5661 0.7968 0.2112
vn -0.1138 0.5333 0.8382
vn -0.1686 0.5893 -0.7901
vn -0.5239 0.5255 -0.6703
vn 0.0610 0.9875 -0.1450
vn -0.8030 0.3861 -0.4540
vn -0.2724 0.9615 0.0358
vn -0.0164 -0.1629 -0.9865
vn -0.3572 -0.2978 -0.8853
vn -0.1687 0.5893 -0.7901
vn -0.3572 -0.2979 -0.8853
vn -0.6459 -0.3895 -0.6565
vn -0.3572 -0.2979 -0.8852
vn -0.6460 -0.3896 -0.6565
vn -0.2132 -0.9461 -0.2438
vn -0.5920 -0.3747 -0.7135
vn -0.2133 -0.9461 -0.2438
vn -0.1484 -0.9454 -0.2903
vn -0.5102 0.8418 0.1762
vn -0.7531 0.4207 -0.5059
vn -0.5102 0.8418 0.1763
vn 0.2893 -0.1865 0.9389
vn -0.0463 0.5716 0.8192
vn 0.2136 -0.2060 0.9550
vn -0.1483 -0.9454 -0.2903
vn 0.2438 -0.8617 0.4451
vn -0.7530 0.4207 -0.5059
vn -0.5661 0.7968 0.2113
vn 0.2439 -0.8616 0.4451
vn 0.3718 0.5316 -0.7611
vn 0.7847 0.6198 0.0131
vn 0.8171 0.0150 0.5762
vn 0.9807 0.1768 0.0830
vn 0.7847 0.6197 0.0130
vn -0.1686 0.5893 -0.7902
vn 0.0868 -0.8945 -0.4385
vn 0.4931 -0.8078 0.3231
vn 0.0868 -0.8945 -0.4386
vn -0.5395 0.5204 -0.6619
vn -0.3727 -0.3034 -0.8769
vn 0.1925 0.6767 0.7106
vn -0.2879 0.9566 0.0447
vn 0.1925 0.6768 0.7106
vn -0.0463 0.5716 0.8193
vn 0.5401 -0.1086 0.8345
vn 0.4931 -0.8077 0.3231
vn 0.2438 -0.8616 0.4451
vn 0.2893 -0.1866 0.9389
vn -0.3727 -0.3034 -0.8770
vn 0.5401 -0.1085 0.8346
vn -0.0462 0.5716 0.8192
vn 0.5401 -0.1085 0.8345
vt 0.530319 0.635056
vt 0.522446 0.641335
vt 0.524872 0.636299
vt 0.524872 0.646370
vt 0.534683 0.638535
vt 0.530319 0.647614
vt 0.534683 0.644127
vt 0.508789 0.671494
vt 0.513626 0.669548
vt 0.511276 0.672157
vt 0.507889 0.669609
vt 0.511566 0.666756
vt 0.507935 0.667854
vt 0.509277 0.666748
vt 0.506302 0.666855
vt 0.505722 0.669838
vt 0.502487 0.669685
vt 0.506897 0.673050
vt 0.503479 0.674789
vt 0.497520 0.669067
vt 0.497810 0.676537
vt 0.510727 0.675606
vt 0.507721 0.680244
vt 0.501465 0.684982
vt 0.518890 0.674767
vt 0.518692 0.686485
vt 0.509125 0.696274
vt 0.518890 0.658051
vt 0.512238 0.663902
vt 0.511536 0.659698
vt 0.517990 0.665543
vt 0.515472 0.651657
vt 0.509323 0.655174
vt 0.508469 0.664742
vt 0.506836 0.661980
vt 0.504074 0.658463
vt 0.503784 0.665283
vt 0.499901 0.662933
vt 0.495453 0.660286
vt 0.491707 0.668175
vt 0.506927 0.651588
vt 0.501038 0.654999
vt 0.494583 0.688484
vt 0.500031 0.699394
vt 0.491287 0.678001
vt 0.512177 0.648293
vt 0.627350 0.642853
vt 0.649124 0.647896
vt 0.627441 0.648445
vt 0.649033 0.642670
vt 0.627441 0.631676
vt 0.649033 0.637444
vt 0.627350 0.637268
vt 0.649124 0.632225
vt 0.627914 0.620506
vt 0.649292 0.626999
vt 0.627625 0.626091
vt 0.649551 0.621780
vt 0.649292 0.653114
vt 0.627625 0.654030
vt 0.649551 0.658333
vt 0.627914 0.659607
s 0
usemtl decorations
f 240/1/1 239/2/1 238/3/1
f 237/1/1 236/4/1 235/2/1
f 234/5/1 233/4/1 232/1/1
f 231/5/1 230/6/1 229/4/1
f 228/6/1 227/5/1 226/7/1
s 1
f 225/8/2 224/9/3 223/10/4
f 222/11/5 221/9/6 220/8/7
f 219/11/8 218/12/9 217/9/3
f 216/13/10 215/12/11 214/11/8
f 213/12/9 212/13/12 211/14/13
f 210/15/14 209/11/15 208/16/16
f 207/15/14 206/13/10 205/11/15
f 204/17/17 203/18/18 202/19/19
f 201/17/20 200/16/21 199/18/22
f 198/20/23 197/19/24 196/21/25
f 195/20/23 194/17/26 193/19/27
f 192/19/28 191/22/29 190/23/30
f 189/19/28 188/18/31 187/22/29
f 186/21/32 185/23/30 184/24/33
f 183/21/34 3/19/28 182/23/30
f 181/23/30 180/25/35 179/26/36
f 178/23/30 177/22/37 176/25/38
f 175/24/39 174/26/40 173/27/41
f 172/24/39 4/23/30 171/26/40
f 170/28/42 169/29/43 168/30/44
f 167/28/42 166/31/45 165/29/46
f 164/32/47 163/30/48 162/33/49
f 161/32/50 13/28/42 160/30/44
f 159/30/44 158/34/51 157/35/52
f 156/30/44 155/29/53 154/34/51
f 153/33/49 152/35/52 151/36/54
f 150/33/49 14/30/55 149/35/52
f 148/35/52 147/15/56 146/37/57
f 145/35/52 144/34/58 143/15/56
f 142/36/54 141/37/59 140/38/60
f 139/36/54 16/35/52 138/37/59
f 137/37/61 136/16/21 135/17/26
f 134/37/57 133/15/14 132/16/16
f 131/38/62 130/17/26 129/20/63
f 128/38/62 36/37/57 25/17/26
f 127/39/64 126/20/65 125/40/66
f 124/39/64 123/38/60 122/20/65
f 121/41/67 120/36/54 119/42/68
f 118/41/69 117/33/49 116/36/54
f 115/43/70 114/27/41 113/44/71
f 112/43/70 111/24/72 110/27/41
f 109/40/73 108/21/25 107/45/74
f 106/40/66 40/20/23 105/21/25
f 104/42/75 103/38/60 102/39/64
f 101/42/68 41/36/54 42/38/60
f 100/46/71 99/33/76 98/41/69
f 97/46/71 37/32/50 38/33/76
f 96/45/77 95/24/33 94/43/70
f 93/45/77 33/21/25 34/24/33
f 92/29/53 91/14/13 90/34/51
f 89/29/53 88/12/11 87/14/78
f 86/22/29 85/9/79 84/25/38
f 83/22/80 82/10/81 81/9/82
f 80/16/21 79/8/7 78/18/22
f 29/16/21 30/11/5 77/8/7
f 76/31/35 75/12/9 28/29/46
f 31/31/35 26/9/82 27/12/11
f 74/18/18 73/10/4 24/22/29
f 21/18/18 22/8/7 23/10/4
f 72/34/83 71/13/10 20/15/14
f 17/34/83 18/14/13 19/13/10
f 70/47/84 69/48/77 68/49/85
f 67/47/86 66/50/66 65/48/77
f 64/51/87 63/52/64 62/53/88
f 61/51/87 60/54/68 59/52/64
f 58/55/89 57/56/67 56/57/90
f 55/55/91 54/58/92 53/56/67
f 52/49/85 51/59/70 50/60/93
f 2/49/94 32/48/95 49/59/96
f 48/53/88 47/50/73 12/47/86
f 9/53/97 10/52/64 11/50/66
f 46/57/90 45/54/75 8/51/87
f 5/57/90 6/56/67 7/54/68
f 44/60/98 43/61/99 15/62/89
f 1/60/100 35/59/70 39/61/92
