# Blender 5.0.0
# www.blender.org
mtllib Circle_002_Circle_Dupli_135_decorations_0.mtl
o Circle.002|Circle|Dupli|135_decorations_0
v -4.659687 0.649910 0.714906
v -4.660180 0.649416 0.713683
v -4.659755 0.656491 0.710309
v -4.659052 0.657195 0.712054
v -4.661807 0.650416 0.716206
v -4.661812 0.655450 0.714080
v -4.662762 0.655105 0.713237
v -4.662823 0.650047 0.715304
v -4.662695 0.649526 0.714002
v -4.662642 0.654618 0.712020
v -4.661543 0.654356 0.711345
v -4.661519 0.649245 0.713281
v -4.660085 0.657830 0.713656
v -4.662076 0.657916 0.713909
v -4.660411 0.650355 0.716029
v -4.663527 0.657390 0.712622
v -4.663133 0.658689 0.711939
v -4.662526 0.659522 0.711358
v -4.662429 0.659127 0.710372
v -4.662984 0.658084 0.710427
v -4.660064 0.657957 0.710056
v -4.660523 0.659045 0.710129
v -4.660150 0.659419 0.711056
v -4.659492 0.658531 0.711477
v -4.661665 0.656246 0.709735
v -4.660698 0.659756 0.711907
v -4.661756 0.659802 0.712042
v -4.661952 0.659117 0.712986
v -4.661618 0.657758 0.709589
v -4.661538 0.658915 0.709825
v -4.660332 0.659047 0.712780
v -4.660291 0.654516 0.711721
v -4.659960 0.655197 0.711069
v -4.659351 0.655807 0.712580
v -4.659830 0.654977 0.712865
v -4.663343 0.656646 0.710765
v -4.660245 0.656357 0.713967
v -4.661969 0.656431 0.714186
v -4.660507 0.655393 0.713915
v -4.661613 0.654986 0.710573
v -4.663225 0.655976 0.713072
v -4.663066 0.655332 0.711464
v -4.660507 0.655393 0.713915
v -4.659687 0.649910 0.714906
v -4.662762 0.655105 0.713237
v -4.661807 0.650416 0.716206
v -4.661543 0.654356 0.711345
v -4.662695 0.649526 0.714002
v -4.659830 0.654977 0.712865
v -4.659687 0.649910 0.714906
v -4.659830 0.654977 0.712865
v -4.660180 0.649416 0.713683
v -4.661812 0.655450 0.714080
v -4.660507 0.655393 0.713915
v -4.660411 0.650355 0.716029
v -4.661807 0.650416 0.716206
v -4.661812 0.655450 0.714080
v -4.660411 0.650355 0.716029
v -4.662642 0.654618 0.712020
v -4.662762 0.655105 0.713237
v -4.662823 0.650047 0.715304
v -4.662695 0.649526 0.714002
v -4.662642 0.654618 0.712020
v -4.662823 0.650047 0.715304
v -4.660291 0.654516 0.711721
v -4.661543 0.654356 0.711345
v -4.661519 0.649245 0.713281
v -4.660180 0.649416 0.713683
v -4.660291 0.654516 0.711721
v -4.661519 0.649245 0.713281
v -4.662429 0.659127 0.710372
v -4.663133 0.658689 0.711939
v -4.660150 0.659419 0.711056
v -4.660064 0.657957 0.710056
v -4.661756 0.659802 0.712042
v -4.660332 0.659047 0.712780
v -4.660523 0.659045 0.710129
v -4.660064 0.657957 0.710056
v -4.660523 0.659045 0.710129
v -4.661618 0.657758 0.709589
v -4.660698 0.659756 0.711907
v -4.660150 0.659419 0.711056
v -4.659492 0.658531 0.711477
v -4.660332 0.659047 0.712780
v -4.660698 0.659756 0.711907
v -4.659492 0.658531 0.711477
v -4.662526 0.659522 0.711358
v -4.661756 0.659802 0.712042
v -4.661952 0.659117 0.712986
v -4.663133 0.658689 0.711939
v -4.662526 0.659522 0.711358
v -4.661952 0.659117 0.712986
v -4.660291 0.654516 0.711721
v -4.659830 0.654977 0.712865
v -4.659351 0.655807 0.712580
v -4.660291 0.654516 0.711721
v -4.660507 0.655393 0.713915
v -4.661812 0.655450 0.714080
v -4.661969 0.656431 0.714186
v -4.660507 0.655393 0.713915
v -4.662762 0.655105 0.713237
v -4.662642 0.654618 0.712020
v -4.663066 0.655332 0.711464
v -4.662762 0.655105 0.713237
v -4.659960 0.655197 0.711069
v -4.661543 0.654356 0.711345
v -4.660291 0.654516 0.711721
v -4.659960 0.655197 0.711069
v -4.661543 0.654356 0.711345
v -4.660245 0.656357 0.713967
v -4.659351 0.655807 0.712580
v -4.659830 0.654977 0.712865
v -4.660507 0.655393 0.713915
v -4.660245 0.656357 0.713967
v -4.659830 0.654977 0.712865
v -4.663225 0.655976 0.713072
v -4.661969 0.656431 0.714186
v -4.661812 0.655450 0.714080
v -4.662762 0.655105 0.713237
v -4.663225 0.655976 0.713072
v -4.661812 0.655450 0.714080
v -4.661613 0.654986 0.710573
v -4.663066 0.655332 0.711464
v -4.662642 0.654618 0.712020
v -4.661543 0.654356 0.711345
v -4.661613 0.654986 0.710573
v -4.662642 0.654618 0.712020
v -4.663066 0.655332 0.711464
v -4.661613 0.654986 0.710573
v -4.661665 0.656246 0.709735
v -4.663066 0.655332 0.711464
v -4.661618 0.657758 0.709589
v -4.662984 0.658084 0.710427
v -4.663343 0.656646 0.710765
v -4.661665 0.656246 0.709735
v -4.661618 0.657758 0.709589
v -4.663343 0.656646 0.710765
v -4.663343 0.656646 0.710765
v -4.663225 0.655976 0.713072
v -4.663066 0.655332 0.711464
v -4.663343 0.656646 0.710765
v -4.663225 0.655976 0.713072
v -4.662984 0.658084 0.710427
v -4.663133 0.658689 0.711939
v -4.663527 0.657390 0.712622
v -4.663343 0.656646 0.710765
v -4.662984 0.658084 0.710427
v -4.663527 0.657390 0.712622
v -4.663527 0.657390 0.712622
v -4.661969 0.656431 0.714186
v -4.663225 0.655976 0.713072
v -4.663527 0.657390 0.712622
v -4.661969 0.656431 0.714186
v -4.663133 0.658689 0.711939
v -4.661952 0.659117 0.712986
v -4.662076 0.657916 0.713909
v -4.663527 0.657390 0.712622
v -4.663133 0.658689 0.711939
v -4.662076 0.657916 0.713909
v -4.662076 0.657916 0.713909
v -4.660245 0.656357 0.713967
v -4.661969 0.656431 0.714186
v -4.662076 0.657916 0.713909
v -4.660245 0.656357 0.713967
v -4.661952 0.659117 0.712986
v -4.660332 0.659047 0.712780
v -4.660085 0.657830 0.713656
v -4.662076 0.657916 0.713909
v -4.661952 0.659117 0.712986
v -4.660085 0.657830 0.713656
v -4.660085 0.657830 0.713656
v -4.659351 0.655807 0.712580
v -4.660245 0.656357 0.713967
v -4.660085 0.657830 0.713656
v -4.659351 0.655807 0.712580
v -4.660332 0.659047 0.712780
v -4.659492 0.658531 0.711477
v -4.659052 0.657195 0.712054
v -4.660085 0.657830 0.713656
v -4.660332 0.659047 0.712780
v -4.659052 0.657195 0.712054
v -4.659052 0.657195 0.712054
v -4.659960 0.655197 0.711069
v -4.659351 0.655807 0.712580
v -4.659052 0.657195 0.712054
v -4.659960 0.655197 0.711069
v -4.659492 0.658531 0.711477
v -4.660064 0.657957 0.710056
v -4.659755 0.656491 0.710309
v -4.659052 0.657195 0.712054
v -4.659492 0.658531 0.711477
v -4.659755 0.656491 0.710309
v -4.659755 0.656491 0.710309
v -4.661665 0.656246 0.709735
v -4.661613 0.654986 0.710573
v -4.659960 0.655197 0.711069
v -4.659755 0.656491 0.710309
v -4.661613 0.654986 0.710573
v -4.660064 0.657957 0.710056
v -4.661618 0.657758 0.709589
v -4.661665 0.656246 0.709735
v -4.659755 0.656491 0.710309
v -4.660064 0.657957 0.710056
v -4.661665 0.656246 0.709735
v -4.661538 0.658915 0.709825
v -4.662429 0.659127 0.710372
v -4.662984 0.658084 0.710427
v -4.661618 0.657758 0.709589
v -4.661538 0.658915 0.709825
v -4.662984 0.658084 0.710427
v -4.662526 0.659522 0.711358
v -4.662429 0.659127 0.710372
v -4.661756 0.659802 0.712042
v -4.661538 0.658915 0.709825
v -4.661756 0.659802 0.712042
v -4.662429 0.659127 0.710372
v -4.660698 0.659756 0.711907
v -4.661756 0.659802 0.712042
v -4.661538 0.658915 0.709825
v -4.660523 0.659045 0.710129
v -4.660698 0.659756 0.711907
v -4.661538 0.658915 0.709825
v -4.660150 0.659419 0.711056
v -4.660698 0.659756 0.711907
v -4.660523 0.659045 0.710129
v -4.662823 0.650047 0.715304
v -4.661807 0.650416 0.716206
v -4.662695 0.649526 0.714002
v -4.661519 0.649245 0.713281
v -4.662695 0.649526 0.714002
v -4.661807 0.650416 0.716206
v -4.660411 0.650355 0.716029
v -4.661519 0.649245 0.713281
v -4.661807 0.650416 0.716206
v -4.660180 0.649416 0.713683
v -4.661519 0.649245 0.713281
v -4.660411 0.650355 0.716029
v -4.659687 0.649910 0.714906
v -4.660180 0.649416 0.713683
v -4.660411 0.650355 0.716029
vn 0.0070 -0.9282 0.3720
vn 0.3845 0.6177 -0.6860
vn 0.3042 0.9438 0.1292
vn 0.5558 0.7893 -0.2611
vn -0.0807 0.5581 -0.8258
vn 0.3845 0.6176 -0.6861
vn -0.0806 0.5581 -0.8258
vn -0.1808 0.9648 0.1908
vn -0.4894 0.6556 -0.5751
vn -0.1807 0.9648 0.1908
vn -0.5340 0.8366 -0.1227
vn -0.7858 0.1991 -0.5855
vn -0.1242 0.0415 -0.9914
vn -0.0807 0.5582 -0.8258
vn -0.1330 -0.3343 -0.9330
vn 0.6289 0.1377 -0.7652
vn 0.6913 -0.2288 -0.6854
vn -0.1330 -0.3342 -0.9331
vn -0.1241 0.0414 -0.9914
vn 0.6289 0.1378 -0.7652
vn -0.1227 -0.6611 -0.7402
vn 0.6538 -0.5617 -0.5069
vn 0.6913 -0.2287 -0.6854
vn 0.9062 0.4157 -0.0771
vn 0.9949 0.0754 0.0678
vn 0.6290 0.1377 -0.7651
vn 0.6539 -0.5617 -0.5069
vn 0.9949 0.0754 0.0677
vn 0.9398 -0.2752 0.2026
vn 0.4990 0.6658 0.5547
vn 0.5491 0.3492 0.7593
vn 0.9063 0.4156 -0.0770
vn 0.5490 0.3492 0.7593
vn 0.5198 -0.0172 0.8541
vn 0.9948 0.0754 0.0678
vn 0.5490 0.3492 0.7594
vn -0.2861 0.6999 0.6545
vn -0.3103 0.3865 0.8685
vn -0.2861 0.6999 0.6544
vn 0.5198 -0.0173 0.8541
vn -0.3104 0.3865 0.8685
vn -0.2898 0.0179 0.9569
vn -0.3103 0.3866 0.8685
vn -0.8579 0.4923 0.1470
vn -0.9363 0.1592 0.3131
vn -0.2862 0.6999 0.6544
vn -0.8579 0.4922 0.1470
vn -0.8794 -0.1962 0.4337
vn -0.9363 0.1591 0.3130
vn -0.7859 0.1992 -0.5854
vn -0.8574 -0.1616 -0.4887
vn -0.8580 0.4922 0.1470
vn -0.8794 -0.1963 0.4336
vn -0.8051 -0.4984 -0.3216
vn -0.9363 0.1592 0.3130
vn -0.8573 -0.1616 -0.4887
vn -0.8574 -0.1615 -0.4887
vn -0.7859 0.1991 -0.5855
vn -0.8261 -0.4324 -0.3614
vn -0.1264 -0.5992 -0.7906
vn -0.8261 -0.4324 -0.3613
vn -0.2978 0.0971 0.9497
vn -0.9024 -0.1226 0.4132
vn -0.2977 0.0970 0.9497
vn 0.9631 -0.2035 0.1762
vn 0.5199 -0.0172 0.8541
vn 0.5324 0.0610 0.8443
vn 0.6698 -0.4974 -0.5513
vn -0.9024 -0.1225 0.4132
vn 0.5325 0.0610 0.8443
vn -0.2897 0.0179 0.9569
vn -0.2978 0.0970 0.9497
vn 0.6699 -0.4973 -0.5513
vn 0.9631 -0.2035 0.1763
vn -0.5339 0.8366 -0.1227
vn -0.2862 0.6998 0.6544
vn -0.1807 0.9649 0.1907
vn -0.5340 0.8365 -0.1227
vn 0.3845 0.6177 -0.6861
vn 0.3042 0.9438 0.1291
vn 0.9063 0.4156 -0.0771
vn -0.7859 0.1992 -0.5855
vn -0.1329 -0.3516 -0.9267
vn 0.6698 -0.4973 -0.5514
vn 0.6918 -0.2461 -0.6789
vn -0.1329 -0.3515 -0.9267
vn -0.1264 -0.5992 -0.7905
vn 0.6698 -0.4973 -0.5513
vn -0.9367 0.1421 0.3201
vn -0.8577 -0.1788 -0.4821
vn -0.9367 0.1421 0.3200
vn -0.9024 -0.1226 0.4131
vn 0.5494 0.3322 0.7667
vn -0.3103 0.3696 0.8758
vn 0.5494 0.3323 0.7666
vn 0.9955 0.0582 0.0746
vn 0.6918 -0.2460 -0.6789
vn -0.1330 -0.3516 -0.9267
vn -0.3104 0.3695 0.8758
vn -0.9024 -0.1225 0.4131
vn -0.3104 0.3696 0.8758
vn 0.9955 0.0582 0.0747
vn 0.5325 0.0610 0.8442
vn 0.5495 0.3322 0.7666
vn 0.9955 0.0583 0.0747
vt 0.543243 0.611839
vt 0.535370 0.618118
vt 0.537796 0.613083
vt 0.537796 0.623154
vt 0.547607 0.615326
vt 0.543243 0.624397
vt 0.547607 0.620918
vt 0.565384 0.671494
vt 0.570206 0.669548
vt 0.567856 0.672157
vt 0.564468 0.669609
vt 0.568146 0.666756
vt 0.564514 0.667854
vt 0.565857 0.666748
vt 0.562897 0.666855
vt 0.562302 0.669838
vt 0.559082 0.669685
vt 0.563492 0.673050
vt 0.560059 0.674789
vt 0.554092 0.669067
vt 0.554398 0.676537
vt 0.567307 0.675606
vt 0.564316 0.680244
vt 0.558044 0.684982
vt 0.575485 0.674767
vt 0.575272 0.686485
vt 0.565720 0.696274
vt 0.575485 0.658051
vt 0.568817 0.663902
vt 0.568115 0.659698
vt 0.574570 0.665543
vt 0.572052 0.651657
vt 0.565903 0.655174
vt 0.565063 0.664742
vt 0.563416 0.661980
vt 0.560669 0.658463
vt 0.560364 0.665283
vt 0.556488 0.662933
vt 0.552032 0.660286
vt 0.548294 0.668175
vt 0.563522 0.651588
vt 0.557617 0.654999
vt 0.551163 0.688484
vt 0.556610 0.699394
vt 0.547867 0.678001
vt 0.568756 0.648293
vt 0.604446 0.682632
vt 0.626221 0.687675
vt 0.604553 0.688225
vt 0.626144 0.682457
vt 0.604553 0.671455
vt 0.626144 0.677231
vt 0.604446 0.677048
vt 0.626221 0.672005
vt 0.605011 0.660294
vt 0.626404 0.666786
vt 0.604736 0.665871
vt 0.626663 0.661568
vt 0.626404 0.692902
vt 0.604736 0.693810
vt 0.626663 0.698120
vt 0.605011 0.699394
s 0
usemtl decorations
f 240/1/1 239/2/1 238/3/1
f 237/1/1 236/4/1 235/2/1
f 234/5/1 233/4/1 232/1/1
f 231/5/1 230/6/1 229/4/1
f 228/6/1 227/5/1 226/7/1
s 1
f 225/8/2 224/9/3 223/10/4
f 222/11/5 221/9/3 220/8/6
f 219/11/7 218/12/8 217/9/3
f 216/13/9 215/12/10 214/11/7
f 213/12/8 212/13/9 211/14/11
f 210/15/12 209/11/7 208/16/13
f 207/15/12 206/13/9 205/11/14
f 204/17/15 203/18/16 202/19/17
f 201/17/18 200/16/19 199/18/20
f 198/20/21 197/19/17 196/21/22
f 195/20/21 194/17/18 193/19/23
f 192/19/17 191/22/24 190/23/25
f 189/19/17 188/18/26 187/22/24
f 186/21/27 185/23/28 184/24/29
f 183/21/27 3/19/17 182/23/28
f 181/23/25 180/25/30 179/26/31
f 178/23/25 177/22/32 176/25/30
f 175/24/29 174/26/33 173/27/34
f 172/24/29 4/23/35 171/26/33
f 170/28/36 169/29/37 168/30/38
f 167/28/36 166/31/30 165/29/39
f 164/32/40 163/30/41 162/33/42
f 161/32/34 13/28/36 160/30/43
f 159/30/41 158/34/44 157/35/45
f 156/30/38 155/29/46 154/34/47
f 153/33/42 152/35/45 151/36/48
f 150/33/42 14/30/41 149/35/45
f 148/35/49 147/15/50 146/37/51
f 145/35/49 144/34/52 143/15/50
f 142/36/53 141/37/51 140/38/54
f 139/36/53 16/35/55 138/37/51
f 137/37/56 136/16/19 135/17/18
f 134/37/57 133/15/58 132/16/13
f 131/38/54 130/17/18 129/20/21
f 128/38/54 36/37/51 25/17/18
f 127/39/59 126/20/21 125/40/60
f 124/39/61 123/38/54 122/20/21
f 121/41/62 120/36/48 119/42/63
f 118/41/64 117/33/42 116/36/48
f 115/43/65 114/27/66 113/44/67
f 112/43/65 111/24/29 110/27/66
f 109/40/60 108/21/22 107/45/68
f 106/40/60 40/20/21 105/21/22
f 104/42/69 103/38/54 102/39/61
f 101/42/69 41/36/48 42/38/54
f 100/46/70 99/33/71 98/41/72
f 97/46/70 37/32/34 38/33/71
f 96/45/73 95/24/29 94/43/74
f 93/45/73 33/21/22 34/24/29
f 92/29/46 91/14/75 90/34/52
f 89/29/76 88/12/77 87/14/78
f 86/22/24 85/9/3 84/25/30
f 83/22/24 82/10/4 81/9/3
f 80/16/19 79/8/2 78/18/20
f 29/16/19 30/11/5 77/8/79
f 76/31/30 75/12/8 28/29/39
f 31/31/30 26/9/80 27/12/77
f 74/18/26 73/10/4 24/22/81
f 21/18/26 22/8/79 23/10/4
f 72/34/52 71/13/9 20/15/82
f 17/34/52 18/14/11 19/13/9
f 70/47/83 69/48/84 68/49/85
f 67/47/86 66/50/87 65/48/88
f 64/51/89 63/52/61 62/53/90
f 61/51/91 60/54/92 59/52/61
f 58/55/93 57/56/72 56/57/94
f 55/55/95 54/58/70 53/56/72
f 52/49/85 51/59/65 50/60/96
f 2/49/97 32/48/68 49/59/65
f 48/53/90 47/50/60 12/47/98
f 9/53/90 10/52/61 11/50/60
f 46/57/99 45/54/100 8/51/89
f 5/57/101 6/56/72 7/54/63
f 44/60/102 43/61/103 15/62/104
f 1/60/105 35/59/65 39/61/103
