# Blender 5.0.0
# www.blender.org
mtllib Circle_005_Circle_003_Dupli_33_decorations_0.mtl
o Circle.005|Circle.003|Dupli|33_decorations_0
v -4.633404 1.890748 0.518672
v -4.632476 1.889796 0.519137
v -4.634018 1.891515 0.526639
v -4.635342 1.892873 0.525975
v -4.631960 1.892796 0.518271
v -4.632849 1.894332 0.523439
v -4.631649 1.893915 0.523782
v -4.630675 1.892349 0.518637
v -4.630288 1.891080 0.519109
v -4.631286 1.892728 0.524223
v -4.632036 1.891666 0.524431
v -4.631090 1.889944 0.519331
v -4.635014 1.894777 0.525425
v -4.633281 1.895794 0.525403
v -4.633174 1.892083 0.518286
v -4.631448 1.895158 0.525926
v -4.632004 1.895304 0.527333
v -4.632646 1.895158 0.528316
v -4.632352 1.894197 0.528673
v -4.631554 1.893830 0.527881
v -4.634095 1.892339 0.527913
v -4.634010 1.893223 0.528694
v -4.634714 1.893945 0.528342
v -4.635172 1.893444 0.527373
v -4.632039 1.891726 0.526916
v -4.634539 1.894956 0.528050
v -4.633619 1.895496 0.528038
v -4.633495 1.895822 0.526908
v -4.632484 1.892511 0.528139
v -4.632959 1.893335 0.528842
v -4.634905 1.894994 0.526926
v -4.633332 1.891528 0.524249
v -4.633658 1.891351 0.525177
v -4.634804 1.892526 0.524603
v -4.634200 1.892417 0.523814
v -4.630896 1.893347 0.526599
v -4.634520 1.894175 0.524127
v -4.633020 1.895055 0.524108
v -4.633985 1.893665 0.523454
v -4.631946 1.891534 0.525417
v -4.631434 1.894504 0.524560
v -4.630956 1.892937 0.525143
v -4.633985 1.893665 0.523454
v -4.633404 1.890748 0.518672
v -4.631649 1.893915 0.523782
v -4.631960 1.892796 0.518271
v -4.632036 1.891666 0.524431
v -4.630288 1.891080 0.519109
v -4.634200 1.892417 0.523814
v -4.633404 1.890748 0.518672
v -4.634200 1.892417 0.523814
v -4.632476 1.889796 0.519137
v -4.632849 1.894332 0.523439
v -4.633985 1.893665 0.523454
v -4.633174 1.892083 0.518286
v -4.631960 1.892796 0.518271
v -4.632849 1.894332 0.523439
v -4.633174 1.892083 0.518286
v -4.631286 1.892728 0.524223
v -4.631649 1.893915 0.523782
v -4.630675 1.892349 0.518637
v -4.630288 1.891080 0.519109
v -4.631286 1.892728 0.524223
v -4.630675 1.892349 0.518637
v -4.633332 1.891528 0.524249
v -4.632036 1.891666 0.524431
v -4.631090 1.889944 0.519331
v -4.632476 1.889796 0.519137
v -4.633332 1.891528 0.524249
v -4.631090 1.889944 0.519331
v -4.632352 1.894197 0.528673
v -4.632004 1.895304 0.527333
v -4.634714 1.893945 0.528342
v -4.634095 1.892339 0.527913
v -4.633619 1.895496 0.528038
v -4.634905 1.894994 0.526926
v -4.634010 1.893223 0.528694
v -4.634095 1.892339 0.527913
v -4.634010 1.893223 0.528694
v -4.632484 1.892511 0.528139
v -4.634539 1.894956 0.528050
v -4.634714 1.893945 0.528342
v -4.635172 1.893444 0.527373
v -4.634905 1.894994 0.526926
v -4.634539 1.894956 0.528050
v -4.635172 1.893444 0.527373
v -4.632646 1.895158 0.528316
v -4.633619 1.895496 0.528038
v -4.633495 1.895822 0.526908
v -4.632004 1.895304 0.527333
v -4.632646 1.895158 0.528316
v -4.633495 1.895822 0.526908
v -4.633332 1.891528 0.524249
v -4.634200 1.892417 0.523814
v -4.634804 1.892526 0.524603
v -4.633332 1.891528 0.524249
v -4.633985 1.893665 0.523454
v -4.632849 1.894332 0.523439
v -4.633020 1.895055 0.524108
v -4.633985 1.893665 0.523454
v -4.631649 1.893915 0.523782
v -4.631286 1.892728 0.524223
v -4.630956 1.892937 0.525143
v -4.631649 1.893915 0.523782
v -4.633658 1.891351 0.525177
v -4.632036 1.891666 0.524431
v -4.633332 1.891528 0.524249
v -4.633658 1.891351 0.525177
v -4.632036 1.891666 0.524431
v -4.634520 1.894175 0.524127
v -4.634804 1.892526 0.524603
v -4.634200 1.892417 0.523814
v -4.633985 1.893665 0.523454
v -4.634520 1.894175 0.524127
v -4.634200 1.892417 0.523814
v -4.631434 1.894504 0.524560
v -4.633020 1.895055 0.524108
v -4.632849 1.894332 0.523439
v -4.631649 1.893915 0.523782
v -4.631434 1.894504 0.524560
v -4.632849 1.894332 0.523439
v -4.631946 1.891534 0.525417
v -4.630956 1.892937 0.525143
v -4.631286 1.892728 0.524223
v -4.632036 1.891666 0.524431
v -4.631946 1.891534 0.525417
v -4.631286 1.892728 0.524223
v -4.630956 1.892937 0.525143
v -4.631946 1.891534 0.525417
v -4.632039 1.891726 0.526916
v -4.630956 1.892937 0.525143
v -4.632484 1.892511 0.528139
v -4.631554 1.893830 0.527881
v -4.630896 1.893347 0.526599
v -4.632039 1.891726 0.526916
v -4.632484 1.892511 0.528139
v -4.630896 1.893347 0.526599
v -4.630896 1.893347 0.526599
v -4.631434 1.894504 0.524560
v -4.630956 1.892937 0.525143
v -4.630896 1.893347 0.526599
v -4.631434 1.894504 0.524560
v -4.631554 1.893830 0.527881
v -4.632004 1.895304 0.527333
v -4.631448 1.895158 0.525926
v -4.630896 1.893347 0.526599
v -4.631554 1.893830 0.527881
v -4.631448 1.895158 0.525926
v -4.631448 1.895158 0.525926
v -4.633020 1.895055 0.524108
v -4.631434 1.894504 0.524560
v -4.631448 1.895158 0.525926
v -4.633020 1.895055 0.524108
v -4.632004 1.895304 0.527333
v -4.633495 1.895822 0.526908
v -4.633281 1.895794 0.525403
v -4.631448 1.895158 0.525926
v -4.632004 1.895304 0.527333
v -4.633281 1.895794 0.525403
v -4.633281 1.895794 0.525403
v -4.634520 1.894175 0.524127
v -4.633020 1.895055 0.524108
v -4.633281 1.895794 0.525403
v -4.634520 1.894175 0.524127
v -4.633495 1.895822 0.526908
v -4.634905 1.894994 0.526926
v -4.635014 1.894777 0.525425
v -4.633281 1.895794 0.525403
v -4.633495 1.895822 0.526908
v -4.635014 1.894777 0.525425
v -4.635014 1.894777 0.525425
v -4.634804 1.892526 0.524603
v -4.634520 1.894175 0.524127
v -4.635014 1.894777 0.525425
v -4.634804 1.892526 0.524603
v -4.634905 1.894994 0.526926
v -4.635172 1.893444 0.527373
v -4.635342 1.892873 0.525975
v -4.635014 1.894777 0.525425
v -4.634905 1.894994 0.526926
v -4.635342 1.892873 0.525975
v -4.635342 1.892873 0.525975
v -4.633658 1.891351 0.525177
v -4.634804 1.892526 0.524603
v -4.635342 1.892873 0.525975
v -4.633658 1.891351 0.525177
v -4.635172 1.893444 0.527373
v -4.634095 1.892339 0.527913
v -4.634018 1.891515 0.526639
v -4.635342 1.892873 0.525975
v -4.635172 1.893444 0.527373
v -4.634018 1.891515 0.526639
v -4.634018 1.891515 0.526639
v -4.632039 1.891726 0.526916
v -4.631946 1.891534 0.525417
v -4.633658 1.891351 0.525177
v -4.634018 1.891515 0.526639
v -4.631946 1.891534 0.525417
v -4.634095 1.892339 0.527913
v -4.632484 1.892511 0.528139
v -4.632039 1.891726 0.526916
v -4.634018 1.891515 0.526639
v -4.634095 1.892339 0.527913
v -4.632039 1.891726 0.526916
v -4.632959 1.893335 0.528842
v -4.632352 1.894197 0.528673
v -4.631554 1.893830 0.527881
v -4.632484 1.892511 0.528139
v -4.632959 1.893335 0.528842
v -4.631554 1.893830 0.527881
v -4.632646 1.895158 0.528316
v -4.632352 1.894197 0.528673
v -4.633619 1.895496 0.528038
v -4.632959 1.893335 0.528842
v -4.633619 1.895496 0.528038
v -4.632352 1.894197 0.528673
v -4.634539 1.894956 0.528050
v -4.633619 1.895496 0.528038
v -4.632959 1.893335 0.528842
v -4.634010 1.893223 0.528694
v -4.634539 1.894956 0.528050
v -4.632959 1.893335 0.528842
v -4.634714 1.893945 0.528342
v -4.634539 1.894956 0.528050
v -4.634010 1.893223 0.528694
v -4.630675 1.892349 0.518637
v -4.631960 1.892796 0.518271
v -4.630288 1.891080 0.519109
v -4.631090 1.889944 0.519331
v -4.630288 1.891080 0.519109
v -4.631960 1.892796 0.518271
v -4.633174 1.892083 0.518286
v -4.631090 1.889944 0.519331
v -4.631960 1.892796 0.518271
v -4.632476 1.889796 0.519137
v -4.631090 1.889944 0.519331
v -4.633174 1.892083 0.518286
v -4.633404 1.890748 0.518672
v -4.632476 1.889796 0.519137
v -4.633174 1.892083 0.518286
vn 0.1639 -0.2995 -0.9399
vn -0.3472 -0.2601 0.9010
vn -0.5896 0.5345 0.6055
vn -0.6695 0.0706 0.7394
vn 0.1348 -0.2087 0.9687
vn -0.5897 0.5344 0.6055
vn -0.3471 -0.2601 0.9010
vn 0.1347 -0.2087 0.9687
vn -0.1677 0.7821 0.6002
vn 0.4133 0.1861 0.8914
vn -0.1676 0.7821 0.6002
vn 0.4132 0.1861 0.8914
vn 0.2787 0.6270 0.7274
vn 0.8213 0.0231 0.5701
vn 0.3704 -0.6161 0.6952
vn 0.4724 -0.7969 0.3765
vn -0.4098 -0.6994 0.5856
vn -0.3815 -0.8880 0.2567
vn 0.4724 -0.7969 0.3766
vn 0.3704 -0.6161 0.6951
vn -0.4098 -0.6993 0.5857
vn 0.5062 -0.8624 0.0041
vn -0.3816 -0.8880 0.2567
vn -0.2983 -0.9482 -0.1088
vn -0.9317 -0.1639 0.3241
vn -0.9529 -0.3019 -0.0297
vn -0.4098 -0.6993 0.5856
vn -0.2984 -0.9482 -0.1088
vn -0.8365 -0.3961 -0.3785
vn -0.8025 0.5870 0.1072
vn -0.8113 0.5201 -0.2670
vn -0.9318 -0.1639 0.3240
vn -0.8024 0.5870 0.1073
vn -0.8365 -0.3961 -0.3786
vn -0.7032 0.3782 -0.6020
vn -0.1193 0.9880 0.0986
vn -0.0635 0.9589 -0.2764
vn -0.8024 0.5870 0.1072
vn -0.1193 0.9879 0.0986
vn -0.7031 0.3782 -0.6021
vn -0.0635 0.9589 -0.2765
vn 0.0013 0.7917 -0.6110
vn -0.7032 0.3782 -0.6021
vn -0.0636 0.9589 -0.2764
vn 0.6033 0.7370 0.3046
vn 0.7275 0.6842 -0.0510
vn -0.1192 0.9880 0.0986
vn 0.0013 0.7916 -0.6110
vn 0.7465 0.5329 -0.3986
vn 0.8213 0.0231 0.5700
vn 0.9660 -0.0972 0.2396
vn 0.6034 0.7370 0.3046
vn 0.8213 0.0232 0.5701
vn 0.7465 0.5328 -0.3986
vn 0.9711 -0.2032 -0.1248
vn 0.9660 -0.0972 0.2397
vn 0.9711 -0.2033 -0.1249
vn 0.5062 -0.8624 0.0042
vn 0.9819 -0.1831 -0.0483
vn 0.5051 -0.8590 0.0839
vn 0.9711 -0.2033 -0.1248
vn -0.0125 0.8372 -0.5468
vn 0.7464 0.5329 -0.3986
vn 0.7515 0.5718 -0.3291
vn -0.0126 0.8371 -0.5468
vn -0.8717 -0.3808 -0.3085
vn -0.7349 0.4132 -0.5377
vn 0.5051 -0.8590 0.0840
vn -0.2983 -0.9483 -0.1087
vn -0.3197 -0.9470 -0.0319
vn 0.5051 -0.8589 0.0839
vn 0.7515 0.5718 -0.3290
vn 0.0012 0.7916 -0.6110
vn -0.0125 0.8371 -0.5468
vn -0.7032 0.3783 -0.6021
vn -0.3198 -0.9469 -0.0318
vn -0.3198 -0.9470 -0.0319
vn 0.2787 0.6271 0.7274
vn -0.9317 -0.1639 0.3240
vn -0.5897 0.5345 0.6055
vn -0.5897 0.5344 0.6056
vn 0.3703 -0.6161 0.6951
vn 0.3703 -0.6162 0.6951
vn 0.1348 -0.2087 0.9686
vn -0.6696 0.0706 0.7394
vn 0.4757 -0.8029 0.3594
vn -0.3198 -0.9470 -0.0318
vn -0.3787 -0.8940 0.2394
vn 0.4757 -0.8028 0.3594
vn 0.5052 -0.8589 0.0839
vn 0.7309 0.6790 -0.0684
vn 0.9695 -0.1027 0.2224
vn 0.7309 0.6790 -0.0683
vn -0.8087 0.5149 -0.2845
vn -0.0606 0.9539 -0.2940
vn -0.9503 -0.3077 -0.0471
vn -0.3787 -0.8940 0.2395
vn 0.9695 -0.1028 0.2224
vn -0.0605 0.9539 -0.2940
vn -0.0605 0.9539 -0.2939
vn -0.9503 -0.3076 -0.0471
vn -0.7350 0.4132 -0.5377
vn -0.8087 0.5148 -0.2845
vt 0.530319 0.611839
vt 0.522446 0.618118
vt 0.524872 0.613083
vt 0.524872 0.623154
vt 0.534683 0.615326
vt 0.530319 0.624397
vt 0.534683 0.620918
vt 0.537079 0.671494
vt 0.541916 0.669548
vt 0.539566 0.672157
vt 0.536179 0.669609
vt 0.539856 0.666756
vt 0.536224 0.667854
vt 0.537567 0.666748
vt 0.534592 0.666855
vt 0.534012 0.669838
vt 0.530777 0.669685
vt 0.535187 0.673050
vt 0.531769 0.674789
vt 0.525803 0.669067
vt 0.526108 0.676537
vt 0.539017 0.675606
vt 0.536011 0.680244
vt 0.529755 0.684982
vt 0.547180 0.674767
vt 0.546982 0.686485
vt 0.537415 0.696274
vt 0.547180 0.658051
vt 0.540527 0.663902
vt 0.539825 0.659698
vt 0.546280 0.665543
vt 0.543762 0.651657
vt 0.537613 0.655174
vt 0.536758 0.664742
vt 0.535126 0.661980
vt 0.532364 0.658463
vt 0.532074 0.665283
vt 0.528198 0.662933
vt 0.523743 0.660286
vt 0.519989 0.668175
vt 0.535217 0.651588
vt 0.529327 0.654999
vt 0.522873 0.688484
vt 0.528320 0.699394
vt 0.519577 0.678001
vt 0.540466 0.648293
vt 0.604446 0.642853
vt 0.626221 0.647896
vt 0.604553 0.648445
vt 0.626144 0.642670
vt 0.604553 0.631676
vt 0.626144 0.637444
vt 0.604446 0.637268
vt 0.626221 0.632225
vt 0.605011 0.620506
vt 0.626404 0.626999
vt 0.604736 0.626091
vt 0.626663 0.621780
vt 0.626404 0.653114
vt 0.604736 0.654030
vt 0.626663 0.658333
vt 0.605011 0.659607
s 0
usemtl decorations
f 240/1/1 239/2/1 238/3/1
f 237/1/1 236/4/1 235/2/1
f 234/5/1 233/4/1 232/1/1
f 231/5/1 230/6/1 229/4/1
f 228/6/1 227/5/1 226/7/1
s 1
f 225/8/2 224/9/3 223/10/4
f 222/11/5 221/9/6 220/8/7
f 219/11/8 218/12/9 217/9/3
f 216/13/10 215/12/9 214/11/8
f 213/12/11 212/13/12 211/14/13
f 210/15/14 209/11/8 208/16/15
f 207/15/14 206/13/12 205/11/8
f 204/17/16 203/18/17 202/19/18
f 201/17/19 200/16/20 199/18/21
f 198/20/22 197/19/23 196/21/24
f 195/20/22 194/17/19 193/19/18
f 192/19/18 191/22/25 190/23/26
f 189/19/18 188/18/27 187/22/25
f 186/21/28 185/23/26 184/24/29
f 183/21/28 3/19/18 182/23/26
f 181/23/26 180/25/30 179/26/31
f 178/23/26 177/22/32 176/25/33
f 175/24/34 174/26/31 173/27/35
f 172/24/34 4/23/26 171/26/31
f 170/28/31 169/29/36 168/30/37
f 167/28/31 166/31/38 165/29/39
f 164/32/40 163/30/41 162/33/42
f 161/32/43 13/28/31 160/30/44
f 159/30/37 158/34/45 157/35/46
f 156/30/37 155/29/47 154/34/45
f 153/33/48 152/35/46 151/36/49
f 150/33/48 14/30/37 149/35/46
f 148/35/46 147/15/50 146/37/51
f 145/35/46 144/34/52 143/15/53
f 142/36/54 141/37/51 140/38/55
f 139/36/54 16/35/46 138/37/51
f 137/37/51 136/16/20 135/17/16
f 134/37/56 133/15/14 132/16/15
f 131/38/57 130/17/16 129/20/58
f 128/38/57 36/37/51 25/17/16
f 127/39/59 126/20/58 125/40/60
f 124/39/59 123/38/61 122/20/58
f 121/41/62 120/36/63 119/42/64
f 118/41/65 117/33/48 116/36/63
f 115/43/66 114/27/35 113/44/67
f 112/43/66 111/24/34 110/27/35
f 109/40/68 108/21/69 107/45/70
f 106/40/71 40/20/22 105/21/69
f 104/42/72 103/38/55 102/39/59
f 101/42/72 41/36/49 42/38/55
f 100/46/67 99/33/73 98/41/74
f 97/46/67 37/32/75 38/33/73
f 96/45/76 95/24/29 94/43/66
f 93/45/77 33/21/24 34/24/29
f 92/29/47 91/14/78 90/34/45
f 89/29/47 88/12/9 87/14/13
f 86/22/79 85/9/80 84/25/33
f 83/22/79 82/10/4 81/9/81
f 80/16/82 79/8/2 78/18/21
f 29/16/83 30/11/84 77/8/7
f 76/31/33 75/12/9 28/29/39
f 31/31/33 26/9/81 27/12/9
f 74/18/17 73/10/85 24/22/79
f 21/18/17 22/8/7 23/10/4
f 72/34/52 71/13/12 20/15/14
f 17/34/52 18/14/13 19/13/12
f 70/47/86 69/48/87 68/49/88
f 67/47/89 66/50/90 65/48/77
f 64/51/91 63/52/59 62/53/92
f 61/51/93 60/54/72 59/52/59
f 58/55/94 57/56/62 56/57/95
f 55/55/94 54/58/67 53/56/74
f 52/49/88 51/59/66 50/60/96
f 2/49/97 32/48/77 49/59/66
f 48/53/98 47/50/60 12/47/89
f 9/53/98 10/52/59 11/50/60
f 46/57/99 45/54/72 8/51/91
f 5/57/100 6/56/62 7/54/64
f 44/60/101 43/61/102 15/62/103
f 1/60/101 35/59/66 39/61/102
