# Blender 5.0.0
# www.blender.org
mtllib Circle_005_Circle_003_Dupli_265_decorations_0.mtl
o Circle.005|Circle.003|Dupli|265_decorations_0
v -4.596101 1.368916 0.423257
v -4.595475 1.369429 0.422104
v -4.591471 1.374736 0.426278
v -4.592365 1.374004 0.427921
v -4.598293 1.370193 0.423325
v -4.595842 1.374077 0.426286
v -4.595763 1.374852 0.425224
v -4.598208 1.371022 0.422189
v -4.597164 1.371118 0.421248
v -4.594787 1.374942 0.424345
v -4.593650 1.374279 0.424310
v -4.595948 1.370409 0.421211
v -4.594154 1.374489 0.428696
v -4.595492 1.375826 0.428018
v -4.597355 1.369256 0.423800
v -4.595371 1.377009 0.426398
v -4.594403 1.377789 0.427272
v -4.593463 1.378098 0.427921
v -4.592672 1.378171 0.427208
v -4.593191 1.377900 0.426180
v -4.591229 1.375940 0.427174
v -4.591392 1.376892 0.427857
v -4.591867 1.376503 0.428730
v -4.591957 1.375344 0.428512
v -4.592146 1.376135 0.425002
v -4.592817 1.376760 0.429141
v -4.593527 1.377470 0.428781
v -4.594501 1.376826 0.428590
v -4.591779 1.377077 0.426136
v -4.591751 1.377634 0.427179
v -4.593412 1.375738 0.429142
v -4.593208 1.373363 0.425145
v -4.592392 1.373799 0.425525
v -4.593165 1.373165 0.426948
v -4.593793 1.372883 0.426223
v -4.593882 1.377146 0.425056
v -4.594714 1.373585 0.427618
v -4.595872 1.374743 0.427031
v -4.594965 1.373201 0.426730
v -4.592977 1.375010 0.424421
v -4.595767 1.375766 0.425629
v -4.594479 1.375885 0.424467
v -4.594965 1.373201 0.426730
v -4.596101 1.368916 0.423257
v -4.595763 1.374852 0.425224
v -4.598293 1.370193 0.423325
v -4.593650 1.374279 0.424310
v -4.597164 1.371118 0.421248
v -4.593793 1.372883 0.426223
v -4.596101 1.368916 0.423257
v -4.593793 1.372883 0.426223
v -4.595475 1.369429 0.422104
v -4.595842 1.374077 0.426286
v -4.594965 1.373201 0.426730
v -4.597355 1.369256 0.423800
v -4.598293 1.370193 0.423325
v -4.595842 1.374077 0.426286
v -4.597355 1.369256 0.423800
v -4.594787 1.374942 0.424345
v -4.595763 1.374852 0.425224
v -4.598208 1.371022 0.422189
v -4.597164 1.371118 0.421248
v -4.594787 1.374942 0.424345
v -4.598208 1.371022 0.422189
v -4.593208 1.373363 0.425145
v -4.593650 1.374279 0.424310
v -4.595948 1.370409 0.421211
v -4.595475 1.369429 0.422104
v -4.593208 1.373363 0.425145
v -4.595948 1.370409 0.421211
v -4.592672 1.378171 0.427208
v -4.594403 1.377789 0.427272
v -4.591867 1.376503 0.428730
v -4.591229 1.375940 0.427174
v -4.593527 1.377470 0.428781
v -4.593412 1.375738 0.429142
v -4.591392 1.376892 0.427857
v -4.591229 1.375940 0.427174
v -4.591392 1.376892 0.427857
v -4.591779 1.377077 0.426136
v -4.592817 1.376760 0.429141
v -4.591867 1.376503 0.428730
v -4.591957 1.375344 0.428512
v -4.593412 1.375738 0.429142
v -4.592817 1.376760 0.429141
v -4.591957 1.375344 0.428512
v -4.593463 1.378098 0.427921
v -4.593527 1.377470 0.428781
v -4.594501 1.376826 0.428590
v -4.594403 1.377789 0.427272
v -4.593463 1.378098 0.427921
v -4.594501 1.376826 0.428590
v -4.593208 1.373363 0.425145
v -4.593793 1.372883 0.426223
v -4.593165 1.373165 0.426948
v -4.593208 1.373363 0.425145
v -4.594965 1.373201 0.426730
v -4.595842 1.374077 0.426286
v -4.595872 1.374743 0.427031
v -4.594965 1.373201 0.426730
v -4.595763 1.374852 0.425224
v -4.594787 1.374942 0.424345
v -4.594479 1.375885 0.424467
v -4.595763 1.374852 0.425224
v -4.592392 1.373799 0.425525
v -4.593650 1.374279 0.424310
v -4.593208 1.373363 0.425145
v -4.592392 1.373799 0.425525
v -4.593650 1.374279 0.424310
v -4.594714 1.373585 0.427618
v -4.593165 1.373165 0.426948
v -4.593793 1.372883 0.426223
v -4.594965 1.373201 0.426730
v -4.594714 1.373585 0.427618
v -4.593793 1.372883 0.426223
v -4.595767 1.375766 0.425629
v -4.595872 1.374743 0.427031
v -4.595842 1.374077 0.426286
v -4.595763 1.374852 0.425224
v -4.595767 1.375766 0.425629
v -4.595842 1.374077 0.426286
v -4.592977 1.375010 0.424421
v -4.594479 1.375885 0.424467
v -4.594787 1.374942 0.424345
v -4.593650 1.374279 0.424310
v -4.592977 1.375010 0.424421
v -4.594787 1.374942 0.424345
v -4.594479 1.375885 0.424467
v -4.592977 1.375010 0.424421
v -4.592146 1.376135 0.425002
v -4.594479 1.375885 0.424467
v -4.591779 1.377077 0.426136
v -4.593191 1.377900 0.426180
v -4.593882 1.377146 0.425056
v -4.592146 1.376135 0.425002
v -4.591779 1.377077 0.426136
v -4.593882 1.377146 0.425056
v -4.593882 1.377146 0.425056
v -4.595767 1.375766 0.425629
v -4.594479 1.375885 0.424467
v -4.593882 1.377146 0.425056
v -4.595767 1.375766 0.425629
v -4.593191 1.377900 0.426180
v -4.594403 1.377789 0.427272
v -4.595371 1.377009 0.426398
v -4.593882 1.377146 0.425056
v -4.593191 1.377900 0.426180
v -4.595371 1.377009 0.426398
v -4.595371 1.377009 0.426398
v -4.595872 1.374743 0.427031
v -4.595767 1.375766 0.425629
v -4.595371 1.377009 0.426398
v -4.595872 1.374743 0.427031
v -4.594403 1.377789 0.427272
v -4.594501 1.376826 0.428590
v -4.595492 1.375826 0.428018
v -4.595371 1.377009 0.426398
v -4.594403 1.377789 0.427272
v -4.595492 1.375826 0.428018
v -4.595492 1.375826 0.428018
v -4.594714 1.373585 0.427618
v -4.595872 1.374743 0.427031
v -4.595492 1.375826 0.428018
v -4.594714 1.373585 0.427618
v -4.594501 1.376826 0.428590
v -4.593412 1.375738 0.429142
v -4.594154 1.374489 0.428696
v -4.595492 1.375826 0.428018
v -4.594501 1.376826 0.428590
v -4.594154 1.374489 0.428696
v -4.594154 1.374489 0.428696
v -4.593165 1.373165 0.426948
v -4.594714 1.373585 0.427618
v -4.594154 1.374489 0.428696
v -4.593165 1.373165 0.426948
v -4.593412 1.375738 0.429142
v -4.591957 1.375344 0.428512
v -4.592365 1.374004 0.427921
v -4.594154 1.374489 0.428696
v -4.593412 1.375738 0.429142
v -4.592365 1.374004 0.427921
v -4.592365 1.374004 0.427921
v -4.592392 1.373799 0.425525
v -4.593165 1.373165 0.426948
v -4.592365 1.374004 0.427921
v -4.592392 1.373799 0.425525
v -4.591957 1.375344 0.428512
v -4.591229 1.375940 0.427174
v -4.591471 1.374736 0.426278
v -4.592365 1.374004 0.427921
v -4.591957 1.375344 0.428512
v -4.591471 1.374736 0.426278
v -4.591471 1.374736 0.426278
v -4.592146 1.376135 0.425002
v -4.592977 1.375010 0.424421
v -4.592392 1.373799 0.425525
v -4.591471 1.374736 0.426278
v -4.592977 1.375010 0.424421
v -4.591229 1.375940 0.427174
v -4.591779 1.377077 0.426136
v -4.592146 1.376135 0.425002
v -4.591471 1.374736 0.426278
v -4.591229 1.375940 0.427174
v -4.592146 1.376135 0.425002
v -4.591751 1.377634 0.427179
v -4.592672 1.378171 0.427208
v -4.593191 1.377900 0.426180
v -4.591779 1.377077 0.426136
v -4.591751 1.377634 0.427179
v -4.593191 1.377900 0.426180
v -4.593463 1.378098 0.427921
v -4.592672 1.378171 0.427208
v -4.593527 1.377470 0.428781
v -4.591751 1.377634 0.427179
v -4.593527 1.377470 0.428781
v -4.592672 1.378171 0.427208
v -4.592817 1.376760 0.429141
v -4.593527 1.377470 0.428781
v -4.591751 1.377634 0.427179
v -4.591392 1.376892 0.427857
v -4.592817 1.376760 0.429141
v -4.591751 1.377634 0.427179
v -4.591867 1.376503 0.428730
v -4.592817 1.376760 0.429141
v -4.591392 1.376892 0.427857
v -4.598208 1.371022 0.422189
v -4.598293 1.370193 0.423325
v -4.597164 1.371118 0.421248
v -4.595948 1.370409 0.421211
v -4.597164 1.371118 0.421248
v -4.598293 1.370193 0.423325
v -4.597355 1.369256 0.423800
v -4.595948 1.370409 0.421211
v -4.598293 1.370193 0.423325
v -4.595475 1.369429 0.422104
v -4.595948 1.370409 0.421211
v -4.597355 1.369256 0.423800
v -4.596101 1.368916 0.423257
v -4.595475 1.369429 0.422104
v -4.597355 1.369256 0.423800
vn -0.4323 -0.7126 -0.5525
vn 0.8644 0.3732 0.3371
vn 0.2109 0.3130 0.9260
vn 0.6468 0.1948 0.7374
vn 0.6999 0.7137 0.0265
vn 0.2110 0.3130 0.9260
vn 0.8644 0.3732 0.3370
vn 0.7000 0.7137 0.0265
vn -0.1148 0.6386 0.7609
vn 0.2773 0.9600 0.0395
vn 0.2774 0.9600 0.0395
vn -0.0853 0.9266 0.3664
vn 0.0474 0.8922 -0.4492
vn 0.7316 0.4935 -0.4703
vn 0.2773 0.9600 0.0396
vn 0.6240 0.2487 -0.7408
vn 0.9978 -0.0578 0.0324
vn 0.9154 -0.3547 -0.1904
vn 0.6240 0.2488 -0.7408
vn 0.9978 -0.0577 0.0325
vn 0.4266 -0.0315 -0.9039
vn 0.7011 -0.5999 -0.3854
vn 0.9154 -0.3546 -0.1904
vn 0.6455 -0.3465 0.6806
vn 0.5298 -0.6707 0.5191
vn 0.9978 -0.0578 0.0325
vn 0.7011 -0.6000 -0.3854
vn 0.3379 -0.8977 0.2829
vn -0.0600 -0.1553 0.9860
vn -0.2425 -0.4614 0.8534
vn -0.0599 -0.1553 0.9860
vn 0.3378 -0.8977 0.2829
vn -0.3897 -0.7005 0.5979
vn -0.5875 0.3719 0.7188
vn -0.8198 0.1156 0.5609
vn -0.5874 0.3719 0.7188
vn -0.8198 0.1156 0.5608
vn -0.9335 -0.1569 0.3223
vn -0.5396 0.8381 0.0801
vn -0.7675 0.6259 -0.1383
vn -0.5875 0.3719 0.7187
vn -0.9336 -0.1569 0.3222
vn -0.8843 0.3239 -0.3364
vn -0.7675 0.6259 -0.1384
vn 0.0473 0.8922 -0.4492
vn -0.1249 0.6852 -0.7176
vn -0.5397 0.8381 0.0800
vn 0.0474 0.8922 -0.4491
vn -0.8843 0.3238 -0.3364
vn -0.2790 0.3797 -0.8820
vn -0.1249 0.6851 -0.7176
vn 0.7316 0.4935 -0.4704
vn -0.2790 0.3796 -0.8821
vn -0.1250 0.6852 -0.7176
vn -0.2494 0.4497 -0.8577
vn 0.4266 -0.0314 -0.9039
vn 0.4741 0.0281 -0.8800
vn -0.2790 0.3797 -0.8821
vn -0.9206 -0.1004 0.3773
vn -0.8701 0.3925 -0.2981
vn 0.3831 -0.8601 0.3370
vn -0.3629 -0.6579 0.6599
vn 0.3830 -0.8601 0.3369
vn 0.4741 0.0282 -0.8800
vn 0.7555 -0.5548 -0.3484
vn -0.9206 -0.1005 0.3773
vn 0.7556 -0.5548 -0.3484
vn -0.0853 0.9265 0.3664
vn -0.5397 0.8381 0.0801
vn 0.7316 0.4934 -0.4703
vn 0.6999 0.7137 0.0264
vn -0.0600 -0.1553 0.9861
vn -0.5396 0.8381 0.0800
vn 0.6164 0.2357 -0.7514
vn 0.7556 -0.5547 -0.3484
vn 0.9079 -0.3680 -0.2007
vn 0.6164 0.2357 -0.7513
vn -0.7759 0.6131 -0.1487
vn -0.1330 0.6724 -0.7282
vn -0.2507 -0.4748 0.8436
vn -0.8282 0.1025 0.5510
vn -0.2506 -0.4748 0.8437
vn 0.9079 -0.3681 -0.2007
vn 0.5221 -0.6843 0.5091
vn 0.3831 -0.8601 0.3369
vn -0.1330 0.6723 -0.7282
vn 0.6163 0.2357 -0.7514
vn -0.8282 0.1025 0.5509
vn -0.7759 0.6131 -0.1486
vn -0.2506 -0.4748 0.8436
vt 0.530319 0.611839
vt 0.522446 0.618118
vt 0.524872 0.613083
vt 0.524872 0.623154
vt 0.534683 0.615326
vt 0.530319 0.624397
vt 0.534683 0.620918
vt 0.537079 0.671494
vt 0.541916 0.669548
vt 0.539566 0.672157
vt 0.536179 0.669609
vt 0.539856 0.666756
vt 0.536224 0.667854
vt 0.537567 0.666748
vt 0.534592 0.666855
vt 0.534012 0.669838
vt 0.530777 0.669685
vt 0.535187 0.673050
vt 0.531769 0.674789
vt 0.525803 0.669067
vt 0.526108 0.676537
vt 0.539017 0.675606
vt 0.536011 0.680244
vt 0.529755 0.684982
vt 0.547180 0.674767
vt 0.546982 0.686485
vt 0.537415 0.696274
vt 0.547180 0.658051
vt 0.540527 0.663902
vt 0.539825 0.659698
vt 0.546280 0.665543
vt 0.543762 0.651657
vt 0.537613 0.655174
vt 0.536758 0.664742
vt 0.535126 0.661980
vt 0.532364 0.658463
vt 0.532074 0.665283
vt 0.528198 0.662933
vt 0.523743 0.660286
vt 0.519989 0.668175
vt 0.535217 0.651588
vt 0.529327 0.654999
vt 0.522873 0.688484
vt 0.528320 0.699394
vt 0.519577 0.678001
vt 0.540466 0.648293
vt 0.604446 0.642853
vt 0.626221 0.647896
vt 0.604553 0.648445
vt 0.626144 0.642670
vt 0.604553 0.631676
vt 0.626144 0.637444
vt 0.604446 0.637268
vt 0.626221 0.632225
vt 0.605011 0.620506
vt 0.626404 0.626999
vt 0.604736 0.626091
vt 0.626663 0.621780
vt 0.626404 0.653114
vt 0.604736 0.654030
vt 0.626663 0.658333
vt 0.605011 0.659607
s 0
usemtl decorations
f 240/1/1 239/2/1 238/3/1
f 237/1/1 236/4/1 235/2/1
f 234/5/1 233/4/1 232/1/1
f 231/5/1 230/6/1 229/4/1
f 228/6/1 227/5/1 226/7/1
s 1
f 225/8/2 224/9/3 223/10/4
f 222/11/5 221/9/6 220/8/7
f 219/11/8 218/12/9 217/9/3
f 216/13/10 215/12/9 214/11/8
f 213/12/9 212/13/11 211/14/12
f 210/15/13 209/11/8 208/16/14
f 207/15/13 206/13/15 205/11/5
f 204/17/16 203/18/17 202/19/18
f 201/17/19 200/16/14 199/18/20
f 198/20/21 197/19/18 196/21/22
f 195/20/21 194/17/19 193/19/23
f 192/19/18 191/22/24 190/23/25
f 189/19/18 188/18/26 187/22/24
f 186/21/27 185/23/25 184/24/28
f 183/21/27 3/19/18 182/23/25
f 181/23/25 180/25/29 179/26/30
f 178/23/25 177/22/24 176/25/31
f 175/24/32 174/26/30 173/27/33
f 172/24/32 4/23/25 171/26/30
f 170/28/30 169/29/34 168/30/35
f 167/28/30 166/31/29 165/29/36
f 164/32/33 163/30/37 162/33/38
f 161/32/33 13/28/30 160/30/35
f 159/30/37 158/34/39 157/35/40
f 156/30/35 155/29/41 154/34/39
f 153/33/42 152/35/40 151/36/43
f 150/33/42 14/30/37 149/35/44
f 148/35/44 147/15/45 146/37/46
f 145/35/44 144/34/47 143/15/48
f 142/36/49 141/37/46 140/38/50
f 139/36/49 16/35/44 138/37/46
f 137/37/51 136/16/52 135/17/16
f 134/37/46 133/15/13 132/16/14
f 131/38/53 130/17/16 129/20/21
f 128/38/53 36/37/54 25/17/16
f 127/39/55 126/20/56 125/40/57
f 124/39/55 123/38/58 122/20/56
f 121/41/59 120/36/43 119/42/60
f 118/41/59 117/33/42 116/36/43
f 115/43/61 114/27/33 113/44/62
f 112/43/63 111/24/32 110/27/33
f 109/40/64 108/21/22 107/45/65
f 106/40/57 40/20/21 105/21/22
f 104/42/60 103/38/58 102/39/55
f 101/42/60 41/36/43 42/38/58
f 100/46/62 99/33/38 98/41/66
f 97/46/62 37/32/33 38/33/38
f 96/45/67 95/24/32 94/43/63
f 93/45/67 33/21/22 34/24/32
f 92/29/41 91/14/68 90/34/69
f 89/29/41 88/12/9 87/14/12
f 86/22/24 85/9/6 84/25/29
f 83/22/24 82/10/4 81/9/6
f 80/16/14 79/8/2 78/18/20
f 29/16/70 30/11/71 77/8/2
f 76/31/72 75/12/9 28/29/36
f 31/31/29 26/9/6 27/12/9
f 74/18/26 73/10/4 24/22/24
f 21/18/17 22/8/2 23/10/4
f 72/34/73 71/13/10 20/15/13
f 17/34/73 18/14/68 19/13/15
f 70/47/74 69/48/75 68/49/76
f 67/47/77 66/50/57 65/48/75
f 64/51/78 63/52/55 62/53/79
f 61/51/78 60/54/60 59/52/55
f 58/55/80 57/56/59 56/57/81
f 55/55/82 54/58/62 53/56/66
f 52/49/83 51/59/61 50/60/84
f 2/49/76 32/48/65 49/59/85
f 48/53/86 47/50/57 12/47/87
f 9/53/79 10/52/55 11/50/57
f 46/57/88 45/54/60 8/51/89
f 5/57/88 6/56/59 7/54/60
f 44/60/84 43/61/62 15/62/90
f 1/60/84 35/59/63 39/61/62
