# Blender 5.0.0
# www.blender.org
mtllib Circle_002_Circle_004_Dupli_156_decorations_0.mtl
o Circle.002|Circle.004|Dupli|156_decorations_0
v -4.519888 0.581069 0.311153
v -4.520368 0.580111 0.310239
v -4.527715 0.580788 0.312917
v -4.527031 0.582155 0.314221
v -4.519080 0.579646 0.313092
v -4.524078 0.579935 0.315281
v -4.524339 0.578711 0.314875
v -4.519359 0.578336 0.312657
v -4.519943 0.577919 0.311446
v -4.524885 0.578321 0.313742
v -4.525305 0.579059 0.312736
v -4.520391 0.578709 0.310369
v -4.526214 0.581860 0.316032
v -4.525877 0.580125 0.316987
v -4.519315 0.580863 0.312423
v -4.526276 0.578256 0.316367
v -4.527705 0.578650 0.316702
v -4.528761 0.579182 0.316698
v -4.529203 0.578866 0.315780
v -4.528382 0.578166 0.315295
v -4.528875 0.580711 0.313895
v -4.529525 0.580527 0.314866
v -4.529162 0.581253 0.315558
v -4.528319 0.581823 0.314956
v -4.527749 0.578787 0.313103
v -4.528728 0.581096 0.316520
v -4.528550 0.580175 0.317028
v -4.527380 0.580171 0.317207
v -4.528903 0.579083 0.314046
v -4.529544 0.579464 0.314965
v -4.527654 0.581583 0.316430
v -4.525282 0.580370 0.312614
v -4.526255 0.580594 0.312563
v -4.525663 0.581778 0.313692
v -4.524835 0.581266 0.313469
v -4.527109 0.577661 0.314638
v -4.524956 0.581523 0.315260
v -4.524665 0.580020 0.316086
v -4.524299 0.581073 0.314656
v -4.526285 0.578863 0.312724
v -4.525010 0.578403 0.315549
v -4.525731 0.577887 0.314053
v -4.524299 0.581073 0.314656
v -4.519888 0.581069 0.311153
v -4.524339 0.578711 0.314875
v -4.519080 0.579646 0.313092
v -4.525305 0.579059 0.312736
v -4.519943 0.577919 0.311446
v -4.524835 0.581266 0.313469
v -4.519888 0.581069 0.311153
v -4.524835 0.581266 0.313469
v -4.520368 0.580111 0.310239
v -4.524078 0.579935 0.315281
v -4.524299 0.581073 0.314656
v -4.519315 0.580863 0.312423
v -4.519080 0.579646 0.313092
v -4.524078 0.579935 0.315281
v -4.519315 0.580863 0.312423
v -4.524885 0.578321 0.313742
v -4.524339 0.578711 0.314875
v -4.519359 0.578336 0.312657
v -4.519943 0.577919 0.311446
v -4.524885 0.578321 0.313742
v -4.519359 0.578336 0.312657
v -4.525282 0.580370 0.312614
v -4.525305 0.579059 0.312736
v -4.520391 0.578709 0.310369
v -4.520368 0.580111 0.310239
v -4.525282 0.580370 0.312614
v -4.520391 0.578709 0.310369
v -4.529203 0.578866 0.315780
v -4.527705 0.578650 0.316702
v -4.529162 0.581253 0.315558
v -4.528875 0.580711 0.313895
v -4.528550 0.580175 0.317028
v -4.527654 0.581583 0.316430
v -4.529525 0.580527 0.314866
v -4.528875 0.580711 0.313895
v -4.529525 0.580527 0.314866
v -4.528903 0.579083 0.314046
v -4.528728 0.581096 0.316520
v -4.529162 0.581253 0.315558
v -4.528319 0.581823 0.314956
v -4.527654 0.581583 0.316430
v -4.528728 0.581096 0.316520
v -4.528319 0.581823 0.314956
v -4.528761 0.579182 0.316698
v -4.528550 0.580175 0.317028
v -4.527380 0.580171 0.317207
v -4.527705 0.578650 0.316702
v -4.528761 0.579182 0.316698
v -4.527380 0.580171 0.317207
v -4.525282 0.580370 0.312614
v -4.524835 0.581266 0.313469
v -4.525663 0.581778 0.313692
v -4.525282 0.580370 0.312614
v -4.524299 0.581073 0.314656
v -4.524078 0.579935 0.315281
v -4.524665 0.580020 0.316086
v -4.524299 0.581073 0.314656
v -4.524339 0.578711 0.314875
v -4.524885 0.578321 0.313742
v -4.525731 0.577887 0.314053
v -4.524339 0.578711 0.314875
v -4.526255 0.580594 0.312563
v -4.525305 0.579059 0.312736
v -4.525282 0.580370 0.312614
v -4.526255 0.580594 0.312563
v -4.525305 0.579059 0.312736
v -4.524956 0.581523 0.315260
v -4.525663 0.581778 0.313692
v -4.524835 0.581266 0.313469
v -4.524299 0.581073 0.314656
v -4.524956 0.581523 0.315260
v -4.524835 0.581266 0.313469
v -4.525010 0.578403 0.315549
v -4.524665 0.580020 0.316086
v -4.524078 0.579935 0.315281
v -4.524339 0.578711 0.314875
v -4.525010 0.578403 0.315549
v -4.524078 0.579935 0.315281
v -4.526285 0.578863 0.312724
v -4.525731 0.577887 0.314053
v -4.524885 0.578321 0.313742
v -4.525305 0.579059 0.312736
v -4.526285 0.578863 0.312724
v -4.524885 0.578321 0.313742
v -4.525731 0.577887 0.314053
v -4.526285 0.578863 0.312724
v -4.527749 0.578787 0.313103
v -4.525731 0.577887 0.314053
v -4.528903 0.579083 0.314046
v -4.528382 0.578166 0.315295
v -4.527109 0.577661 0.314638
v -4.527749 0.578787 0.313103
v -4.528903 0.579083 0.314046
v -4.527109 0.577661 0.314638
v -4.527109 0.577661 0.314638
v -4.525010 0.578403 0.315549
v -4.525731 0.577887 0.314053
v -4.527109 0.577661 0.314638
v -4.525010 0.578403 0.315549
v -4.528382 0.578166 0.315295
v -4.527705 0.578650 0.316702
v -4.526276 0.578256 0.316367
v -4.527109 0.577661 0.314638
v -4.528382 0.578166 0.315295
v -4.526276 0.578256 0.316367
v -4.526276 0.578256 0.316367
v -4.524665 0.580020 0.316086
v -4.525010 0.578403 0.315549
v -4.526276 0.578256 0.316367
v -4.524665 0.580020 0.316086
v -4.527705 0.578650 0.316702
v -4.527380 0.580171 0.317207
v -4.525877 0.580125 0.316987
v -4.526276 0.578256 0.316367
v -4.527705 0.578650 0.316702
v -4.525877 0.580125 0.316987
v -4.525877 0.580125 0.316987
v -4.524956 0.581523 0.315260
v -4.524665 0.580020 0.316086
v -4.525877 0.580125 0.316987
v -4.524956 0.581523 0.315260
v -4.527380 0.580171 0.317207
v -4.527654 0.581583 0.316430
v -4.526214 0.581860 0.316032
v -4.525877 0.580125 0.316987
v -4.527380 0.580171 0.317207
v -4.526214 0.581860 0.316032
v -4.526214 0.581860 0.316032
v -4.525663 0.581778 0.313692
v -4.524956 0.581523 0.315260
v -4.526214 0.581860 0.316032
v -4.525663 0.581778 0.313692
v -4.527654 0.581583 0.316430
v -4.528319 0.581823 0.314956
v -4.527031 0.582155 0.314221
v -4.526214 0.581860 0.316032
v -4.527654 0.581583 0.316430
v -4.527031 0.582155 0.314221
v -4.527031 0.582155 0.314221
v -4.526255 0.580594 0.312563
v -4.525663 0.581778 0.313692
v -4.527031 0.582155 0.314221
v -4.526255 0.580594 0.312563
v -4.528319 0.581823 0.314956
v -4.528875 0.580711 0.313895
v -4.527715 0.580788 0.312917
v -4.527031 0.582155 0.314221
v -4.528319 0.581823 0.314956
v -4.527715 0.580788 0.312917
v -4.527715 0.580788 0.312917
v -4.527749 0.578787 0.313103
v -4.526285 0.578863 0.312724
v -4.526255 0.580594 0.312563
v -4.527715 0.580788 0.312917
v -4.526285 0.578863 0.312724
v -4.528875 0.580711 0.313895
v -4.528903 0.579083 0.314046
v -4.527749 0.578787 0.313103
v -4.527715 0.580788 0.312917
v -4.528875 0.580711 0.313895
v -4.527749 0.578787 0.313103
v -4.529544 0.579464 0.314965
v -4.529203 0.578866 0.315780
v -4.528382 0.578166 0.315295
v -4.528903 0.579083 0.314046
v -4.529544 0.579464 0.314965
v -4.528382 0.578166 0.315295
v -4.528761 0.579182 0.316698
v -4.529203 0.578866 0.315780
v -4.528550 0.580175 0.317028
v -4.529544 0.579464 0.314965
v -4.528550 0.580175 0.317028
v -4.529203 0.578866 0.315780
v -4.528728 0.581096 0.316520
v -4.528550 0.580175 0.317028
v -4.529544 0.579464 0.314965
v -4.529525 0.580527 0.314866
v -4.528728 0.581096 0.316520
v -4.529544 0.579464 0.314965
v -4.529162 0.581253 0.315558
v -4.528728 0.581096 0.316520
v -4.529525 0.580527 0.314866
v -4.519359 0.578336 0.312657
v -4.519080 0.579646 0.313092
v -4.519943 0.577919 0.311446
v -4.520391 0.578709 0.310369
v -4.519943 0.577919 0.311446
v -4.519080 0.579646 0.313092
v -4.519315 0.580863 0.312423
v -4.520391 0.578709 0.310369
v -4.519080 0.579646 0.313092
v -4.520368 0.580111 0.310239
v -4.520391 0.578709 0.310369
v -4.519315 0.580863 0.312423
v -4.519888 0.581069 0.311153
v -4.520368 0.580111 0.310239
v -4.519315 0.580863 0.312423
vn 0.9068 -0.0544 -0.4181
vn -0.9587 0.2497 -0.1364
vn -0.5931 0.5108 0.6223
vn -0.7923 0.5826 0.1811
vn -0.9671 -0.2376 -0.0912
vn -0.5932 0.5108 0.6223
vn -0.9587 0.2496 -0.1364
vn -0.9671 -0.2375 -0.0912
vn -0.5113 0.0881 0.8549
vn -0.8111 -0.5120 0.2827
vn -0.8112 -0.5120 0.2827
vn -0.6083 -0.3671 0.7037
vn -0.4709 -0.8794 0.0693
vn -0.7234 -0.4352 -0.5360
vn -0.8112 -0.5119 0.2827
vn -0.9671 -0.2375 -0.0911
vn -0.4210 -0.4986 -0.7578
vn -0.7098 0.3535 -0.6092
vn -0.4062 0.3647 -0.8378
vn -0.4211 -0.4986 -0.7577
vn -0.7234 -0.4351 -0.5360
vn -0.7099 0.3535 -0.6092
vn -0.0584 -0.4900 -0.8698
vn -0.4062 0.3648 -0.8378
vn -0.0445 0.3233 -0.9452
vn -0.4062 0.3647 -0.8379
vn -0.4405 0.8927 -0.0952
vn -0.1113 0.9549 -0.2752
vn -0.7098 0.3536 -0.6092
vn -0.0444 0.3233 -0.9452
vn 0.2333 0.8793 -0.4152
vn -0.1180 0.7764 0.6191
vn 0.2416 0.8276 0.5067
vn -0.4404 0.8928 -0.0951
vn -0.1181 0.7764 0.6191
vn 0.2334 0.8793 -0.4152
vn 0.5658 0.7593 0.3213
vn 0.2417 0.8276 0.5067
vn 0.0146 0.0922 0.9956
vn 0.3867 0.0786 0.9188
vn 0.0145 0.0922 0.9956
vn 0.5659 0.7593 0.3213
vn 0.3868 0.0786 0.9188
vn 0.7025 0.0538 0.7096
vn 0.5658 0.7593 0.3214
vn 0.3867 0.0787 0.9188
vn -0.1425 -0.6447 0.7510
vn 0.2148 -0.7280 0.6510
vn 0.0146 0.0921 0.9956
vn 0.7026 0.0537 0.7096
vn 0.5405 -0.7061 0.4573
vn 0.2148 -0.7281 0.6510
vn -0.1447 -0.9849 -0.0951
vn -0.1425 -0.6448 0.7510
vn -0.4710 -0.8794 0.0694
vn 0.5406 -0.7062 0.4573
vn 0.2019 -0.9481 -0.2455
vn -0.1447 -0.9849 -0.0952
vn -0.4210 -0.4986 -0.7577
vn 0.2019 -0.9481 -0.2456
vn -0.0585 -0.4900 -0.8698
vn 0.1302 -0.9676 -0.2164
vn -0.1368 -0.4978 -0.8564
vn 0.6435 0.0597 0.7631
vn 0.5406 -0.7061 0.4574
vn 0.4775 -0.7195 0.5044
vn 0.7026 0.0538 0.7096
vn 0.1624 0.9063 -0.3903
vn 0.5658 0.7594 0.3213
vn 0.5034 0.7832 0.3649
vn 0.1625 0.9063 -0.3903
vn -0.0445 0.3233 -0.9453
vn -0.1224 0.3361 -0.9338
vn 0.4774 -0.7195 0.5044
vn 0.5406 -0.7061 0.4573
vn 0.5033 0.7833 0.3650
vn 0.5033 0.7833 0.3649
vn -0.6083 -0.3670 0.7037
vn -0.5113 0.0882 0.8549
vn -0.4404 0.8927 -0.0951
vn -0.7234 -0.4351 -0.5361
vn -0.7923 0.5827 0.1811
vn -0.4404 0.8927 -0.0952
vn -0.7098 0.3536 -0.6093
vn -0.1426 -0.6448 0.7510
vn -0.4710 -0.8794 0.0693
vn -0.4045 -0.4998 -0.7659
vn -0.1225 0.3361 -0.9338
vn -0.3896 0.3639 -0.8460
vn 0.2317 -0.7295 0.6436
vn -0.1280 -0.9864 -0.1029
vn 0.2316 -0.7295 0.6436
vn 0.2585 0.8270 0.4992
vn 0.4037 0.0777 0.9116
vn 0.2585 0.8270 0.4993
vn -0.0946 0.9544 -0.2831
vn 0.1624 0.9062 -0.3903
vn -0.4045 -0.4999 -0.7658
vn 0.2317 -0.7294 0.6436
vn -0.0946 0.9544 -0.2830
vn 0.1625 0.9062 -0.3903
vt 0.530319 0.635056
vt 0.522446 0.641335
vt 0.524872 0.636299
vt 0.524872 0.646370
vt 0.534683 0.638535
vt 0.530319 0.647614
vt 0.534683 0.644127
vt 0.508789 0.671494
vt 0.513626 0.669548
vt 0.511276 0.672157
vt 0.507889 0.669609
vt 0.511566 0.666756
vt 0.507935 0.667854
vt 0.509277 0.666748
vt 0.506302 0.666855
vt 0.505722 0.669838
vt 0.502487 0.669685
vt 0.506897 0.673050
vt 0.503479 0.674789
vt 0.497520 0.669067
vt 0.497810 0.676537
vt 0.510727 0.675606
vt 0.507721 0.680244
vt 0.501465 0.684982
vt 0.518890 0.674767
vt 0.518692 0.686485
vt 0.509125 0.696274
vt 0.518890 0.658051
vt 0.512238 0.663902
vt 0.511536 0.659698
vt 0.517990 0.665543
vt 0.515472 0.651657
vt 0.509323 0.655174
vt 0.508469 0.664742
vt 0.506836 0.661980
vt 0.504074 0.658463
vt 0.503784 0.665283
vt 0.499901 0.662933
vt 0.495453 0.660286
vt 0.491707 0.668175
vt 0.506927 0.651588
vt 0.501038 0.654999
vt 0.494583 0.688484
vt 0.500031 0.699394
vt 0.491287 0.678001
vt 0.512177 0.648293
vt 0.627350 0.642853
vt 0.649124 0.647896
vt 0.627441 0.648445
vt 0.649033 0.642670
vt 0.627441 0.631676
vt 0.649033 0.637444
vt 0.627350 0.637268
vt 0.649124 0.632225
vt 0.627914 0.620506
vt 0.649292 0.626999
vt 0.627625 0.626091
vt 0.649551 0.621780
vt 0.649292 0.653114
vt 0.627625 0.654030
vt 0.649551 0.658333
vt 0.627914 0.659607
s 0
usemtl decorations
f 240/1/1 239/2/1 238/3/1
f 237/1/1 236/4/1 235/2/1
f 234/5/1 233/4/1 232/1/1
f 231/5/1 230/6/1 229/4/1
f 228/6/1 227/5/1 226/7/1
s 1
f 225/8/2 224/9/3 223/10/4
f 222/11/5 221/9/6 220/8/7
f 219/11/8 218/12/9 217/9/3
f 216/13/10 215/12/9 214/11/8
f 213/12/9 212/13/11 211/14/12
f 210/15/13 209/11/8 208/16/14
f 207/15/13 206/13/15 205/11/16
f 204/17/17 203/18/18 202/19/19
f 201/17/20 200/16/21 199/18/22
f 198/20/23 197/19/24 196/21/25
f 195/20/23 194/17/20 193/19/19
f 192/19/26 191/22/27 190/23/28
f 189/19/19 188/18/29 187/22/27
f 186/21/30 185/23/28 184/24/31
f 183/21/30 3/19/19 182/23/28
f 181/23/28 180/25/32 179/26/33
f 178/23/28 177/22/34 176/25/35
f 175/24/36 174/26/33 173/27/37
f 172/24/36 4/23/28 171/26/33
f 170/28/38 169/29/39 168/30/40
f 167/28/38 166/31/32 165/29/41
f 164/32/42 163/30/43 162/33/44
f 161/32/45 13/28/33 160/30/46
f 159/30/40 158/34/47 157/35/48
f 156/30/40 155/29/49 154/34/47
f 153/33/50 152/35/48 151/36/51
f 150/33/44 14/30/40 149/35/48
f 148/35/52 147/15/13 146/37/53
f 145/35/52 144/34/54 143/15/55
f 142/36/56 141/37/53 140/38/57
f 139/36/56 16/35/48 138/37/53
f 137/37/58 136/16/14 135/17/59
f 134/37/53 133/15/13 132/16/14
f 131/38/60 130/17/59 129/20/61
f 128/38/60 36/37/53 25/17/59
f 127/39/62 126/20/61 125/40/63
f 124/39/62 123/38/60 122/20/61
f 121/41/64 120/36/65 119/42/66
f 118/41/64 117/33/67 116/36/65
f 115/43/68 114/27/69 113/44/70
f 112/43/71 111/24/36 110/27/69
f 109/40/63 108/21/72 107/45/73
f 106/40/63 40/20/23 105/21/72
f 104/42/74 103/38/57 102/39/62
f 101/42/74 41/36/75 42/38/57
f 100/46/76 99/33/44 98/41/64
f 97/46/77 37/32/45 38/33/44
f 96/45/73 95/24/36 94/43/71
f 93/45/73 33/21/30 34/24/36
f 92/29/49 91/14/78 90/34/47
f 89/29/49 88/12/79 87/14/12
f 86/22/80 85/9/6 84/25/35
f 83/22/80 82/10/4 81/9/6
f 80/16/81 79/8/7 78/18/22
f 29/16/81 30/11/5 77/8/7
f 76/31/35 75/12/9 28/29/41
f 31/31/35 26/9/6 27/12/9
f 74/18/29 73/10/82 24/22/83
f 21/18/84 22/8/7 23/10/4
f 72/34/85 71/13/11 20/15/86
f 17/34/85 18/14/78 19/13/15
f 70/47/87 69/48/88 68/49/89
f 67/47/87 66/50/63 65/48/73
f 64/51/90 63/52/62 62/53/91
f 61/51/92 60/54/74 59/52/62
f 58/55/93 57/56/64 56/57/94
f 55/55/95 54/58/77 53/56/64
f 52/49/89 51/59/68 50/60/96
f 2/49/89 32/48/73 49/59/97
f 48/53/91 47/50/63 12/47/98
f 9/53/91 10/52/62 11/50/63
f 46/57/94 45/54/74 8/51/99
f 5/57/94 6/56/64 7/54/66
f 44/60/96 43/61/77 15/62/93
f 1/60/100 35/59/101 39/61/77
