# Blender 5.0.0
# www.blender.org
mtllib Circle_005_Circle_004_Dupli_116_decorations_0.mtl
o Circle.005|Circle.004|Dupli|116_decorations_0
v -4.272226 1.496975 0.552493
v -4.271856 1.497037 0.553850
v -4.275689 1.503806 0.554896
v -4.276217 1.503717 0.552960
v -4.270240 1.498028 0.551317
v -4.272633 1.502914 0.551831
v -4.271828 1.503216 0.552828
v -4.269379 1.498351 0.552384
v -4.269573 1.498141 0.553763
v -4.272009 1.503019 0.554117
v -4.273039 1.502473 0.554727
v -4.270675 1.497556 0.554416
v -4.275191 1.504347 0.551351
v -4.273383 1.505220 0.551282
v -4.271507 1.497416 0.551366
v -4.272155 1.505681 0.552804
v -4.273156 1.506803 0.553025
v -4.274146 1.507403 0.553268
v -4.274293 1.507244 0.554313
v -4.273381 1.506559 0.554626
v -4.276032 1.505277 0.554728
v -4.276023 1.506408 0.554379
v -4.276303 1.506360 0.553351
v -4.276462 1.505205 0.553152
v -4.274004 1.504547 0.555703
v -4.275758 1.506695 0.552496
v -4.274798 1.507159 0.552459
v -4.274155 1.506428 0.551787
v -4.274661 1.505880 0.555384
v -4.275128 1.506801 0.554807
v -4.275627 1.505717 0.551843
v -4.274144 1.501988 0.554199
v -4.274843 1.502591 0.554581
v -4.275301 1.502514 0.552905
v -4.274490 1.501929 0.552930
v -4.272431 1.505381 0.554771
v -4.274412 1.503058 0.551513
v -4.272847 1.503815 0.551453
v -4.273817 1.502342 0.551876
v -4.273385 1.503231 0.555279
v -4.271784 1.504213 0.552770
v -4.272024 1.503953 0.554473
v -4.273817 1.502342 0.551876
v -4.272226 1.496975 0.552493
v -4.271828 1.503216 0.552828
v -4.270240 1.498028 0.551317
v -4.273039 1.502473 0.554727
v -4.269573 1.498141 0.553763
v -4.274490 1.501929 0.552930
v -4.272226 1.496975 0.552493
v -4.274490 1.501929 0.552930
v -4.271856 1.497037 0.553850
v -4.272633 1.502914 0.551831
v -4.273817 1.502342 0.551876
v -4.271507 1.497416 0.551366
v -4.270240 1.498028 0.551317
v -4.272633 1.502914 0.551831
v -4.271507 1.497416 0.551366
v -4.272009 1.503019 0.554117
v -4.271828 1.503216 0.552828
v -4.269379 1.498351 0.552384
v -4.269573 1.498141 0.553763
v -4.272009 1.503019 0.554117
v -4.269379 1.498351 0.552384
v -4.274144 1.501988 0.554199
v -4.273039 1.502473 0.554727
v -4.270675 1.497556 0.554416
v -4.271856 1.497037 0.553850
v -4.274144 1.501988 0.554199
v -4.270675 1.497556 0.554416
v -4.274293 1.507244 0.554313
v -4.273156 1.506803 0.553025
v -4.276303 1.506360 0.553351
v -4.276032 1.505277 0.554728
v -4.274798 1.507159 0.552459
v -4.275627 1.505717 0.551843
v -4.276023 1.506408 0.554379
v -4.276032 1.505277 0.554728
v -4.276023 1.506408 0.554379
v -4.274661 1.505880 0.555384
v -4.275758 1.506695 0.552496
v -4.276303 1.506360 0.553351
v -4.276462 1.505205 0.553152
v -4.275627 1.505717 0.551843
v -4.275758 1.506695 0.552496
v -4.276462 1.505205 0.553152
v -4.274146 1.507403 0.553268
v -4.274798 1.507159 0.552459
v -4.274155 1.506428 0.551787
v -4.273156 1.506803 0.553025
v -4.274146 1.507403 0.553268
v -4.274155 1.506428 0.551787
v -4.274144 1.501988 0.554199
v -4.274490 1.501929 0.552930
v -4.275301 1.502514 0.552905
v -4.274144 1.501988 0.554199
v -4.273817 1.502342 0.551876
v -4.272633 1.502914 0.551831
v -4.272847 1.503815 0.551453
v -4.273817 1.502342 0.551876
v -4.271828 1.503216 0.552828
v -4.272009 1.503019 0.554117
v -4.272024 1.503953 0.554473
v -4.271828 1.503216 0.552828
v -4.274843 1.502591 0.554581
v -4.273039 1.502473 0.554727
v -4.274144 1.501988 0.554199
v -4.274843 1.502591 0.554581
v -4.273039 1.502473 0.554727
v -4.274412 1.503058 0.551513
v -4.275301 1.502514 0.552905
v -4.274490 1.501929 0.552930
v -4.273817 1.502342 0.551876
v -4.274412 1.503058 0.551513
v -4.274490 1.501929 0.552930
v -4.271784 1.504213 0.552770
v -4.272847 1.503815 0.551453
v -4.272633 1.502914 0.551831
v -4.271828 1.503216 0.552828
v -4.271784 1.504213 0.552770
v -4.272633 1.502914 0.551831
v -4.273385 1.503231 0.555279
v -4.272024 1.503953 0.554473
v -4.272009 1.503019 0.554117
v -4.273039 1.502473 0.554727
v -4.273385 1.503231 0.555279
v -4.272009 1.503019 0.554117
v -4.272024 1.503953 0.554473
v -4.273385 1.503231 0.555279
v -4.274004 1.504547 0.555703
v -4.272024 1.503953 0.554473
v -4.274661 1.505880 0.555384
v -4.273381 1.506559 0.554626
v -4.272431 1.505381 0.554771
v -4.274004 1.504547 0.555703
v -4.274661 1.505880 0.555384
v -4.272431 1.505381 0.554771
v -4.272431 1.505381 0.554771
v -4.271784 1.504213 0.552770
v -4.272024 1.503953 0.554473
v -4.272431 1.505381 0.554771
v -4.271784 1.504213 0.552770
v -4.273381 1.506559 0.554626
v -4.273156 1.506803 0.553025
v -4.272155 1.505681 0.552804
v -4.272431 1.505381 0.554771
v -4.273381 1.506559 0.554626
v -4.272155 1.505681 0.552804
v -4.272155 1.505681 0.552804
v -4.272847 1.503815 0.551453
v -4.271784 1.504213 0.552770
v -4.272155 1.505681 0.552804
v -4.272847 1.503815 0.551453
v -4.273156 1.506803 0.553025
v -4.274155 1.506428 0.551787
v -4.273383 1.505220 0.551282
v -4.272155 1.505681 0.552804
v -4.273156 1.506803 0.553025
v -4.273383 1.505220 0.551282
v -4.273383 1.505220 0.551282
v -4.274412 1.503058 0.551513
v -4.272847 1.503815 0.551453
v -4.273383 1.505220 0.551282
v -4.274412 1.503058 0.551513
v -4.274155 1.506428 0.551787
v -4.275627 1.505717 0.551843
v -4.275191 1.504347 0.551351
v -4.273383 1.505220 0.551282
v -4.274155 1.506428 0.551787
v -4.275191 1.504347 0.551351
v -4.275191 1.504347 0.551351
v -4.275301 1.502514 0.552905
v -4.274412 1.503058 0.551513
v -4.275191 1.504347 0.551351
v -4.275301 1.502514 0.552905
v -4.275627 1.505717 0.551843
v -4.276462 1.505205 0.553152
v -4.276217 1.503717 0.552960
v -4.275191 1.504347 0.551351
v -4.275627 1.505717 0.551843
v -4.276217 1.503717 0.552960
v -4.276217 1.503717 0.552960
v -4.274843 1.502591 0.554581
v -4.275301 1.502514 0.552905
v -4.276217 1.503717 0.552960
v -4.274843 1.502591 0.554581
v -4.276462 1.505205 0.553152
v -4.276032 1.505277 0.554728
v -4.275689 1.503806 0.554896
v -4.276217 1.503717 0.552960
v -4.276462 1.505205 0.553152
v -4.275689 1.503806 0.554896
v -4.275689 1.503806 0.554896
v -4.274004 1.504547 0.555703
v -4.273385 1.503231 0.555279
v -4.274843 1.502591 0.554581
v -4.275689 1.503806 0.554896
v -4.273385 1.503231 0.555279
v -4.276032 1.505277 0.554728
v -4.274661 1.505880 0.555384
v -4.274004 1.504547 0.555703
v -4.275689 1.503806 0.554896
v -4.276032 1.505277 0.554728
v -4.274004 1.504547 0.555703
v -4.275128 1.506801 0.554807
v -4.274293 1.507244 0.554313
v -4.273381 1.506559 0.554626
v -4.274661 1.505880 0.555384
v -4.275128 1.506801 0.554807
v -4.273381 1.506559 0.554626
v -4.274146 1.507403 0.553268
v -4.274293 1.507244 0.554313
v -4.274798 1.507159 0.552459
v -4.275128 1.506801 0.554807
v -4.274798 1.507159 0.552459
v -4.274293 1.507244 0.554313
v -4.275758 1.506695 0.552496
v -4.274798 1.507159 0.552459
v -4.275128 1.506801 0.554807
v -4.276023 1.506408 0.554379
v -4.275758 1.506695 0.552496
v -4.275128 1.506801 0.554807
v -4.276303 1.506360 0.553351
v -4.275758 1.506695 0.552496
v -4.276023 1.506408 0.554379
v -4.269379 1.498351 0.552384
v -4.270240 1.498028 0.551317
v -4.269573 1.498141 0.553763
v -4.270675 1.497556 0.554416
v -4.269573 1.498141 0.553763
v -4.270240 1.498028 0.551317
v -4.271507 1.497416 0.551366
v -4.270675 1.497556 0.554416
v -4.270240 1.498028 0.551317
v -4.271856 1.497037 0.553850
v -4.270675 1.497556 0.554416
v -4.271507 1.497416 0.551366
v -4.272226 1.496975 0.552493
v -4.271856 1.497037 0.553850
v -4.271507 1.497416 0.551366
vn 0.4315 -0.8989 -0.0764
vn -0.7305 0.5317 0.4286
vn -0.6091 0.6633 -0.4348
vn -0.8591 0.5100 -0.0430
vn -0.3201 0.7120 0.6250
vn -0.6091 0.6633 -0.4347
vn -0.7304 0.5317 0.4286
vn -0.3202 0.7120 0.6250
vn -0.1688 0.8761 -0.4516
vn 0.0630 0.9151 0.3982
vn 0.0629 0.9151 0.3982
vn 0.1303 0.9882 -0.0809
vn 0.5027 0.6466 0.5737
vn -0.1174 0.3178 0.9409
vn 0.0629 0.9152 0.3982
vn -0.3201 0.7120 0.6249
vn 0.0479 -0.0198 0.9987
vn -0.7818 0.0258 0.6230
vn -0.6793 -0.3393 0.6508
vn 0.0479 -0.0197 0.9987
vn -0.1175 0.3177 0.9409
vn -0.7818 0.0259 0.6230
vn 0.2061 -0.3539 0.9123
vn -0.6793 -0.3393 0.6507
vn -0.4790 -0.6549 0.5845
vn -0.6793 -0.3392 0.6507
vn -0.9900 -0.0092 -0.1405
vn -0.9073 -0.3777 -0.1850
vn -0.6938 -0.6911 -0.2028
vn -0.5854 0.2388 -0.7748
vn -0.4643 -0.1061 -0.8793
vn -0.9900 -0.0093 -0.1405
vn -0.5854 0.2389 -0.7747
vn -0.6937 -0.6911 -0.2028
vn -0.2765 -0.4352 -0.8568
vn 0.1275 0.5834 -0.8022
vn 0.3159 0.2710 -0.9093
vn -0.5854 0.2389 -0.7748
vn 0.1274 0.5834 -0.8021
vn -0.2764 -0.4352 -0.8568
vn 0.3160 0.2709 -0.9093
vn 0.4586 -0.0800 -0.8851
vn 0.6117 0.7649 -0.2020
vn 0.8460 0.4696 -0.2523
vn 0.1275 0.5834 -0.8021
vn 0.4586 -0.0800 -0.8850
vn 0.9579 0.1072 -0.2662
vn 0.3160 0.2710 -0.9093
vn 0.8461 0.4696 -0.2523
vn 0.7267 0.3402 0.5968
vn 0.6117 0.7648 -0.2020
vn 0.5027 0.6467 0.5737
vn 0.9580 0.1071 -0.2662
vn 0.8456 -0.0147 0.5337
vn -0.1174 0.3177 0.9409
vn 0.7267 0.3403 0.5968
vn 0.8456 -0.0148 0.5337
vn 0.2060 -0.3539 0.9123
vn 0.7267 0.3402 0.5967
vn 0.8304 0.0610 0.5538
vn 0.1747 -0.2867 0.9419
vn 0.8304 0.0610 0.5537
vn 0.8455 -0.0148 0.5337
vn 0.4337 -0.0058 -0.9011
vn 0.9579 0.1071 -0.2662
vn 0.9457 0.1860 -0.2665
vn -0.7479 -0.6324 -0.2015
vn -0.3200 -0.3701 -0.8721
vn -0.7479 -0.6325 -0.2015
vn 0.1747 -0.2867 0.9420
vn -0.4790 -0.6549 0.5846
vn -0.5277 -0.5954 0.6059
vn 0.9457 0.1861 -0.2665
vn 0.8305 0.0610 0.5537
vn -0.3201 -0.3701 -0.8721
vn 0.4585 -0.0800 -0.8851
vn 0.4337 -0.0059 -0.9010
vn -0.5278 -0.5953 0.6059
vn -0.5277 -0.5953 0.6059
vn -0.1689 0.8761 -0.4516
vn -0.8591 0.5100 -0.0429
vn 0.0559 -0.0364 0.9978
vn -0.6717 -0.3561 0.6497
vn 0.8545 0.4532 -0.2538
vn 0.8304 0.0611 0.5537
vn 0.7351 0.3238 0.5956
vn 0.8545 0.4533 -0.2538
vn -0.4565 -0.1228 -0.8812
vn 0.4337 -0.0058 -0.9010
vn 0.3241 0.2545 -0.9112
vn -0.4565 -0.1227 -0.8812
vn -0.6717 -0.3561 0.6496
vn -0.7480 -0.6324 -0.2015
vn -0.8998 -0.3945 -0.1865
vn -0.7479 -0.6325 -0.2014
vn 0.7351 0.3238 0.5957
vn 0.8545 0.4532 -0.2539
vn 0.3241 0.2545 -0.9111
vn -0.8997 -0.3946 -0.1865
vn -0.4566 -0.1228 -0.8812
vt 0.530319 0.635056
vt 0.522446 0.641335
vt 0.524872 0.636299
vt 0.524872 0.646370
vt 0.534683 0.638535
vt 0.530319 0.647614
vt 0.534683 0.644127
vt 0.508789 0.671494
vt 0.513626 0.669548
vt 0.511276 0.672157
vt 0.507889 0.669609
vt 0.511566 0.666756
vt 0.507935 0.667854
vt 0.509277 0.666748
vt 0.506302 0.666855
vt 0.505722 0.669838
vt 0.502487 0.669685
vt 0.506897 0.673050
vt 0.503479 0.674789
vt 0.497520 0.669067
vt 0.497810 0.676537
vt 0.510727 0.675606
vt 0.507721 0.680244
vt 0.501465 0.684982
vt 0.518890 0.674767
vt 0.518692 0.686485
vt 0.509125 0.696274
vt 0.518890 0.658051
vt 0.512238 0.663902
vt 0.511536 0.659698
vt 0.517990 0.665543
vt 0.515472 0.651657
vt 0.509323 0.655174
vt 0.508469 0.664742
vt 0.506836 0.661980
vt 0.504074 0.658463
vt 0.503784 0.665283
vt 0.499901 0.662933
vt 0.495453 0.660286
vt 0.491707 0.668175
vt 0.506927 0.651588
vt 0.501038 0.654999
vt 0.494583 0.688484
vt 0.500031 0.699394
vt 0.491287 0.678001
vt 0.512177 0.648293
vt 0.627350 0.642853
vt 0.649124 0.647896
vt 0.627441 0.648445
vt 0.649033 0.642670
vt 0.627441 0.631676
vt 0.649033 0.637444
vt 0.627350 0.637268
vt 0.649124 0.632225
vt 0.627914 0.620506
vt 0.649292 0.626999
vt 0.627625 0.626091
vt 0.649551 0.621780
vt 0.649292 0.653114
vt 0.627625 0.654030
vt 0.649551 0.658333
vt 0.627914 0.659607
s 0
usemtl decorations
f 240/1/1 239/2/1 238/3/1
f 237/1/1 236/4/1 235/2/1
f 234/5/1 233/4/1 232/1/1
f 231/5/1 230/6/1 229/4/1
f 228/6/1 227/5/1 226/7/1
s 1
f 225/8/2 224/9/3 223/10/4
f 222/11/5 221/9/6 220/8/7
f 219/11/8 218/12/9 217/9/3
f 216/13/10 215/12/9 214/11/5
f 213/12/9 212/13/11 211/14/12
f 210/15/13 209/11/5 208/16/14
f 207/15/13 206/13/15 205/11/16
f 204/17/17 203/18/18 202/19/19
f 201/17/20 200/16/21 199/18/22
f 198/20/23 197/19/24 196/21/25
f 195/20/23 194/17/17 193/19/26
f 192/19/24 191/22/27 190/23/28
f 189/19/19 188/18/18 187/22/27
f 186/21/25 185/23/28 184/24/29
f 183/21/25 3/19/24 182/23/28
f 181/23/28 180/25/30 179/26/31
f 178/23/28 177/22/32 176/25/33
f 175/24/34 174/26/31 173/27/35
f 172/24/34 4/23/28 171/26/31
f 170/28/31 169/29/36 168/30/37
f 167/28/31 166/31/38 165/29/39
f 164/32/40 163/30/41 162/33/42
f 161/32/40 13/28/31 160/30/37
f 159/30/37 158/34/43 157/35/44
f 156/30/37 155/29/45 154/34/43
f 153/33/46 152/35/44 151/36/47
f 150/33/46 14/30/48 149/35/44
f 148/35/49 147/15/13 146/37/50
f 145/35/49 144/34/51 143/15/52
f 142/36/53 141/37/50 140/38/54
f 139/36/53 16/35/49 138/37/50
f 137/37/50 136/16/55 135/17/17
f 134/37/56 133/15/13 132/16/14
f 131/38/57 130/17/17 129/20/58
f 128/38/57 36/37/59 25/17/17
f 127/39/60 126/20/23 125/40/61
f 124/39/62 123/38/63 122/20/23
f 121/41/64 120/36/65 119/42/66
f 118/41/64 117/33/46 116/36/65
f 115/43/67 114/27/35 113/44/68
f 112/43/69 111/24/34 110/27/35
f 109/40/70 108/21/71 107/45/72
f 106/40/70 40/20/23 105/21/71
f 104/42/73 103/38/54 102/39/74
f 101/42/66 41/36/65 42/38/54
f 100/46/75 99/33/76 98/41/77
f 97/46/75 37/32/40 38/33/76
f 96/45/78 95/24/34 94/43/69
f 93/45/79 33/21/25 34/24/34
f 92/29/45 91/14/12 90/34/43
f 89/29/45 88/12/80 87/14/12
f 86/22/27 85/9/6 84/25/33
f 83/22/27 82/10/81 81/9/6
f 80/16/21 79/8/2 78/18/22
f 29/16/21 30/11/5 77/8/7
f 76/31/38 75/12/9 28/29/39
f 31/31/38 26/9/6 27/12/80
f 74/18/18 73/10/4 24/22/27
f 21/18/18 22/8/7 23/10/4
f 72/34/43 71/13/11 20/15/13
f 17/34/43 18/14/12 19/13/15
f 70/47/82 69/48/79 68/49/83
f 67/47/82 66/50/61 65/48/79
f 64/51/84 63/52/85 62/53/86
f 61/51/87 60/54/66 59/52/74
f 58/55/88 57/56/89 56/57/90
f 55/55/91 54/58/75 53/56/77
f 52/49/92 51/59/93 50/60/94
f 2/49/92 32/48/72 49/59/95
f 48/53/96 47/50/70 12/47/82
f 9/53/96 10/52/62 11/50/61
f 46/57/90 45/54/73 8/51/97
f 5/57/98 6/56/89 7/54/66
f 44/60/99 43/61/75 15/62/100
f 1/60/94 35/59/69 39/61/75
