# Blender 5.0.0
# www.blender.org
mtllib Circle_002_Circle_003_Dupli_33_decorations_0.mtl
o Circle.002|Circle.003|Dupli|33_decorations_0
v -4.317036 1.892485 0.740216
v -4.317886 1.891573 0.739561
v -4.314906 1.893380 0.732528
v -4.313693 1.894681 0.733462
v -4.318470 1.894571 0.740387
v -4.316576 1.896174 0.735518
v -4.317702 1.895803 0.734946
v -4.319675 1.894175 0.739775
v -4.320003 1.892928 0.739207
v -4.318008 1.894638 0.734415
v -4.317264 1.893555 0.734326
v -4.319207 1.891770 0.739112
v -4.314064 1.896585 0.733987
v -4.315739 1.897658 0.733707
v -4.317296 1.893819 0.740583
v -4.317458 1.897092 0.732833
v -4.316642 1.897246 0.731560
v -4.315830 1.897097 0.730713
v -4.316079 1.896153 0.730283
v -4.317022 1.895798 0.730901
v -4.314565 1.894225 0.731312
v -4.314475 1.895126 0.730551
v -4.313831 1.895817 0.731047
v -4.313578 1.895284 0.732072
v -4.316789 1.893661 0.731888
v -4.314028 1.896828 0.731325
v -4.314918 1.897398 0.731177
v -4.315244 1.897706 0.732271
v -4.316098 1.894454 0.730791
v -4.315475 1.895276 0.730210
v -4.313880 1.896833 0.732499
v -4.316030 1.893371 0.734746
v -4.315540 1.893201 0.733891
v -4.314490 1.894327 0.734700
v -4.315235 1.894223 0.735358
v -4.317925 1.895313 0.732024
v -4.314811 1.895975 0.735154
v -4.316261 1.896903 0.734912
v -4.315478 1.895471 0.735702
v -4.317170 1.893444 0.733337
v -4.317749 1.896414 0.734156
v -4.318153 1.894874 0.733455
v -4.315478 1.895471 0.735702
v -4.317036 1.892485 0.740216
v -4.317702 1.895803 0.734946
v -4.318470 1.894571 0.740387
v -4.317264 1.893555 0.734326
v -4.320003 1.892928 0.739207
v -4.315235 1.894223 0.735358
v -4.317036 1.892485 0.740216
v -4.315235 1.894223 0.735358
v -4.317886 1.891573 0.739561
v -4.316576 1.896174 0.735518
v -4.315478 1.895471 0.735702
v -4.317296 1.893819 0.740583
v -4.318470 1.894571 0.740387
v -4.316576 1.896174 0.735518
v -4.317296 1.893819 0.740583
v -4.318008 1.894638 0.734415
v -4.317702 1.895803 0.734946
v -4.319675 1.894175 0.739775
v -4.320003 1.892928 0.739207
v -4.318008 1.894638 0.734415
v -4.319675 1.894175 0.739775
v -4.316030 1.893371 0.734746
v -4.317264 1.893555 0.734326
v -4.319207 1.891770 0.739112
v -4.317886 1.891573 0.739561
v -4.316030 1.893371 0.734746
v -4.319207 1.891770 0.739112
v -4.316079 1.896153 0.730283
v -4.316642 1.897246 0.731560
v -4.313831 1.895817 0.731047
v -4.314565 1.894225 0.731312
v -4.314918 1.897398 0.731177
v -4.313880 1.896833 0.732499
v -4.314475 1.895126 0.730551
v -4.314565 1.894225 0.731312
v -4.314475 1.895126 0.730551
v -4.316098 1.894454 0.730791
v -4.314028 1.896828 0.731325
v -4.313831 1.895817 0.731047
v -4.313578 1.895284 0.732072
v -4.313880 1.896833 0.732499
v -4.314028 1.896828 0.731325
v -4.313578 1.895284 0.732072
v -4.315830 1.897097 0.730713
v -4.314918 1.897398 0.731177
v -4.315244 1.897706 0.732271
v -4.316642 1.897246 0.731560
v -4.315830 1.897097 0.730713
v -4.315244 1.897706 0.732271
v -4.316030 1.893371 0.734746
v -4.315235 1.894223 0.735358
v -4.314490 1.894327 0.734700
v -4.316030 1.893371 0.734746
v -4.315478 1.895471 0.735702
v -4.316576 1.896174 0.735518
v -4.316261 1.896903 0.734912
v -4.315478 1.895471 0.735702
v -4.317702 1.895803 0.734946
v -4.318008 1.894638 0.734415
v -4.318153 1.894874 0.733455
v -4.317702 1.895803 0.734946
v -4.315540 1.893201 0.733891
v -4.317264 1.893555 0.734326
v -4.316030 1.893371 0.734746
v -4.315540 1.893201 0.733891
v -4.317264 1.893555 0.734326
v -4.314811 1.895975 0.735154
v -4.314490 1.894327 0.734700
v -4.315235 1.894223 0.735358
v -4.315478 1.895471 0.735702
v -4.314811 1.895975 0.735154
v -4.315235 1.894223 0.735358
v -4.317749 1.896414 0.734156
v -4.316261 1.896903 0.734912
v -4.316576 1.896174 0.735518
v -4.317702 1.895803 0.734946
v -4.317749 1.896414 0.734156
v -4.316576 1.896174 0.735518
v -4.317170 1.893444 0.733337
v -4.318153 1.894874 0.733455
v -4.318008 1.894638 0.734415
v -4.317264 1.893555 0.734326
v -4.317170 1.893444 0.733337
v -4.318008 1.894638 0.734415
v -4.318153 1.894874 0.733455
v -4.317170 1.893444 0.733337
v -4.316789 1.893661 0.731888
v -4.318153 1.894874 0.733455
v -4.316098 1.894454 0.730791
v -4.317022 1.895798 0.730901
v -4.317925 1.895313 0.732024
v -4.316789 1.893661 0.731888
v -4.316098 1.894454 0.730791
v -4.317925 1.895313 0.732024
v -4.317925 1.895313 0.732024
v -4.317749 1.896414 0.734156
v -4.318153 1.894874 0.733455
v -4.317925 1.895313 0.732024
v -4.317749 1.896414 0.734156
v -4.317022 1.895798 0.730901
v -4.316642 1.897246 0.731560
v -4.317458 1.897092 0.732833
v -4.317925 1.895313 0.732024
v -4.317022 1.895798 0.730901
v -4.317458 1.897092 0.732833
v -4.317458 1.897092 0.732833
v -4.316261 1.896903 0.734912
v -4.317749 1.896414 0.734156
v -4.317458 1.897092 0.732833
v -4.316261 1.896903 0.734912
v -4.316642 1.897246 0.731560
v -4.315244 1.897706 0.732271
v -4.315739 1.897658 0.733707
v -4.317458 1.897092 0.732833
v -4.316642 1.897246 0.731560
v -4.315739 1.897658 0.733707
v -4.315739 1.897658 0.733707
v -4.314811 1.895975 0.735154
v -4.316261 1.896903 0.734912
v -4.315739 1.897658 0.733707
v -4.314811 1.895975 0.735154
v -4.315244 1.897706 0.732271
v -4.313880 1.896833 0.732499
v -4.314064 1.896585 0.733987
v -4.315739 1.897658 0.733707
v -4.315244 1.897706 0.732271
v -4.314064 1.896585 0.733987
v -4.314064 1.896585 0.733987
v -4.314490 1.894327 0.734700
v -4.314811 1.895975 0.735154
v -4.314064 1.896585 0.733987
v -4.314490 1.894327 0.734700
v -4.313880 1.896833 0.732499
v -4.313578 1.895284 0.732072
v -4.313693 1.894681 0.733462
v -4.314064 1.896585 0.733987
v -4.313880 1.896833 0.732499
v -4.313693 1.894681 0.733462
v -4.313693 1.894681 0.733462
v -4.315540 1.893201 0.733891
v -4.314490 1.894327 0.734700
v -4.313693 1.894681 0.733462
v -4.315540 1.893201 0.733891
v -4.313578 1.895284 0.732072
v -4.314565 1.894225 0.731312
v -4.314906 1.893380 0.732528
v -4.313693 1.894681 0.733462
v -4.313578 1.895284 0.732072
v -4.314906 1.893380 0.732528
v -4.314906 1.893380 0.732528
v -4.316789 1.893661 0.731888
v -4.317170 1.893444 0.733337
v -4.315540 1.893201 0.733891
v -4.314906 1.893380 0.732528
v -4.317170 1.893444 0.733337
v -4.314565 1.894225 0.731312
v -4.316098 1.894454 0.730791
v -4.316789 1.893661 0.731888
v -4.314906 1.893380 0.732528
v -4.314565 1.894225 0.731312
v -4.316789 1.893661 0.731888
v -4.315475 1.895276 0.730210
v -4.316079 1.896153 0.730283
v -4.317022 1.895798 0.730901
v -4.316098 1.894454 0.730791
v -4.315475 1.895276 0.730210
v -4.317022 1.895798 0.730901
v -4.315830 1.897097 0.730713
v -4.316079 1.896153 0.730283
v -4.314918 1.897398 0.731177
v -4.315475 1.895276 0.730210
v -4.314918 1.897398 0.731177
v -4.316079 1.896153 0.730283
v -4.314028 1.896828 0.731325
v -4.314918 1.897398 0.731177
v -4.315475 1.895276 0.730210
v -4.314475 1.895126 0.730551
v -4.314028 1.896828 0.731325
v -4.315475 1.895276 0.730210
v -4.313831 1.895817 0.731047
v -4.314028 1.896828 0.731325
v -4.314475 1.895126 0.730551
v -4.319675 1.894175 0.739775
v -4.318470 1.894571 0.740387
v -4.320003 1.892928 0.739207
v -4.319207 1.891770 0.739112
v -4.320003 1.892928 0.739207
v -4.318470 1.894571 0.740387
v -4.317296 1.893819 0.740583
v -4.319207 1.891770 0.739112
v -4.318470 1.894571 0.740387
v -4.317886 1.891573 0.739561
v -4.319207 1.891770 0.739112
v -4.317296 1.893819 0.740583
v -4.317036 1.892485 0.740216
v -4.317886 1.891573 0.739561
v -4.317296 1.893819 0.740583
vn -0.3472 -0.3115 0.8845
vn 0.5037 -0.2545 -0.8256
vn 0.7086 0.5260 -0.4703
vn 0.7990 0.0623 -0.5981
vn 0.0449 -0.1860 -0.9815
vn 0.7087 0.5260 -0.4703
vn 0.5036 -0.2545 -0.8256
vn 0.3006 0.7872 -0.5384
vn -0.2317 0.2163 -0.9484
vn 0.3005 0.7872 -0.5385
vn -0.2317 0.2162 -0.9485
vn -0.1180 0.6494 -0.7513
vn -0.6977 0.0607 -0.7138
vn -0.2498 -0.5904 -0.7674
vn -0.4155 -0.7738 -0.4782
vn 0.4928 -0.7014 -0.5150
vn 0.3975 -0.8951 -0.2020
vn -0.4155 -0.7737 -0.4783
vn -0.2498 -0.5905 -0.7674
vn -0.5209 -0.8451 -0.1206
vn 0.3975 -0.8951 -0.2019
vn 0.2450 -0.9594 0.1397
vn 0.9711 -0.1884 -0.1466
vn 0.9210 -0.3336 0.2012
vn 0.4928 -0.7014 -0.5149
vn 0.7381 -0.4305 0.5195
vn 0.9210 -0.3336 0.2013
vn 0.8248 0.5622 0.0603
vn 0.7608 0.4880 0.4277
vn 0.7381 -0.4304 0.5196
vn 0.7608 0.4880 0.4278
vn 0.5873 0.3436 0.7329
vn 0.1641 0.9852 -0.0500
vn 0.0377 0.9510 0.3069
vn 0.1642 0.9852 -0.0501
vn 0.5872 0.3436 0.7329
vn 0.0377 0.9510 0.3070
vn -0.0940 0.7797 0.6190
vn -0.5134 0.7620 -0.3946
vn -0.7040 0.7067 -0.0702
vn 0.1641 0.9852 -0.0501
vn -0.0940 0.7797 0.6191
vn -0.7927 0.5496 0.2638
vn -0.6977 0.0608 -0.7138
vn -0.9056 -0.0608 -0.4196
vn -0.6976 0.0608 -0.7139
vn -0.7927 0.5495 0.2638
vn -0.9056 -0.0609 -0.4196
vn -0.9827 -0.1734 -0.0654
vn -0.2499 -0.5905 -0.7674
vn -0.4154 -0.7737 -0.4783
vn -0.9056 -0.0608 -0.4197
vn -0.9827 -0.1735 -0.0654
vn -0.5209 -0.8451 -0.1207
vn -0.9782 -0.1515 -0.1421
vn -0.5047 -0.8401 -0.1987
vn -0.9782 -0.1515 -0.1420
vn -0.0670 0.8259 0.5598
vn -0.7834 0.5899 0.1955
vn 0.7863 -0.4150 0.4577
vn 0.5873 0.3435 0.7329
vn 0.6316 0.3787 0.6765
vn 0.7863 -0.4150 0.4578
vn 0.7381 -0.4304 0.5195
vn 0.2449 -0.9594 0.1397
vn 0.2806 -0.9574 0.0683
vn -0.7834 0.5900 0.1955
vn 0.2806 -0.9574 0.0682
vn -0.1179 0.6494 -0.7513
vn 0.3006 0.7872 -0.5385
vn 0.0448 -0.1860 -0.9815
vn 0.7990 0.0623 -0.5980
vn -0.4221 -0.7799 -0.4622
vn 0.3912 -0.9014 -0.1857
vn -0.7108 0.7013 -0.0539
vn -0.9125 -0.0666 -0.4035
vn 0.7548 0.4825 0.4443
vn 0.0313 0.9457 0.3235
vn 0.7548 0.4826 0.4443
vn 0.6316 0.3786 0.6765
vn 0.3913 -0.9013 -0.1857
vn 0.9150 -0.3396 0.2177
vn -0.9125 -0.0667 -0.4035
vn -0.5046 -0.8402 -0.1987
vn -0.9125 -0.0666 -0.4036
vn 0.0313 0.9457 0.3234
vn 0.9151 -0.3395 0.2177
vt 0.530319 0.611839
vt 0.522446 0.618118
vt 0.524872 0.613083
vt 0.524872 0.623154
vt 0.534683 0.615326
vt 0.530319 0.624397
vt 0.534683 0.620918
vt 0.537079 0.671494
vt 0.541916 0.669548
vt 0.539566 0.672157
vt 0.536179 0.669609
vt 0.539856 0.666756
vt 0.536224 0.667854
vt 0.537567 0.666748
vt 0.534592 0.666855
vt 0.534012 0.669838
vt 0.530777 0.669685
vt 0.535187 0.673050
vt 0.531769 0.674789
vt 0.525803 0.669067
vt 0.526108 0.676537
vt 0.539017 0.675606
vt 0.536011 0.680244
vt 0.529755 0.684982
vt 0.547180 0.674767
vt 0.546982 0.686485
vt 0.537415 0.696274
vt 0.547180 0.658051
vt 0.540527 0.663902
vt 0.539825 0.659698
vt 0.546280 0.665543
vt 0.543762 0.651657
vt 0.537613 0.655174
vt 0.536758 0.664742
vt 0.535126 0.661980
vt 0.532364 0.658463
vt 0.532074 0.665283
vt 0.528198 0.662933
vt 0.523743 0.660286
vt 0.519989 0.668175
vt 0.535217 0.651588
vt 0.529327 0.654999
vt 0.522873 0.688484
vt 0.528320 0.699394
vt 0.519577 0.678001
vt 0.540466 0.648293
vt 0.604446 0.642853
vt 0.626221 0.647896
vt 0.604553 0.648445
vt 0.626144 0.642670
vt 0.604553 0.631676
vt 0.626144 0.637444
vt 0.604446 0.637268
vt 0.626221 0.632225
vt 0.605011 0.620506
vt 0.626404 0.626999
vt 0.604736 0.626091
vt 0.626663 0.621780
vt 0.626404 0.653114
vt 0.604736 0.654030
vt 0.626663 0.658333
vt 0.605011 0.659607
s 0
usemtl decorations
f 240/1/1 239/2/1 238/3/1
f 237/1/1 236/4/1 235/2/1
f 234/5/1 233/4/1 232/1/1
f 231/5/1 230/6/1 229/4/1
f 228/6/1 227/5/1 226/7/1
s 1
f 225/8/2 224/9/3 223/10/4
f 222/11/5 221/9/6 220/8/7
f 219/11/5 218/12/8 217/9/3
f 216/13/9 215/12/8 214/11/5
f 213/12/10 212/13/11 211/14/12
f 210/15/13 209/11/5 208/16/14
f 207/15/13 206/13/9 205/11/5
f 204/17/15 203/18/16 202/19/17
f 201/17/18 200/16/19 199/18/16
f 198/20/20 197/19/21 196/21/22
f 195/20/20 194/17/18 193/19/17
f 192/19/17 191/22/23 190/23/24
f 189/19/17 188/18/25 187/22/23
f 186/21/22 185/23/24 184/24/26
f 183/21/22 3/19/17 182/23/24
f 181/23/27 180/25/28 179/26/29
f 178/23/24 177/22/23 176/25/28
f 175/24/30 174/26/31 173/27/32
f 172/24/30 4/23/27 171/26/31
f 170/28/31 169/29/33 168/30/34
f 167/28/31 166/31/28 165/29/35
f 164/32/36 163/30/37 162/33/38
f 161/32/36 13/28/31 160/30/34
f 159/30/34 158/34/39 157/35/40
f 156/30/34 155/29/41 154/34/39
f 153/33/42 152/35/40 151/36/43
f 150/33/42 14/30/34 149/35/40
f 148/35/40 147/15/44 146/37/45
f 145/35/40 144/34/39 143/15/46
f 142/36/47 141/37/48 140/38/49
f 139/36/43 16/35/40 138/37/48
f 137/37/48 136/16/50 135/17/51
f 134/37/52 133/15/44 132/16/14
f 131/38/53 130/17/51 129/20/54
f 128/38/53 36/37/52 25/17/51
f 127/39/55 126/20/54 125/40/56
f 124/39/57 123/38/53 122/20/54
f 121/41/58 120/36/43 119/42/59
f 118/41/58 117/33/42 116/36/43
f 115/43/60 114/27/61 113/44/62
f 112/43/63 111/24/64 110/27/61
f 109/40/56 108/21/65 107/45/66
f 106/40/56 40/20/20 105/21/65
f 104/42/67 103/38/53 102/39/57
f 101/42/67 41/36/43 42/38/53
f 100/46/62 99/33/42 98/41/58
f 97/46/62 37/32/36 38/33/42
f 96/45/68 95/24/26 94/43/63
f 93/45/66 33/21/22 34/24/26
f 92/29/41 91/14/69 90/34/39
f 89/29/41 88/12/70 87/14/12
f 86/22/23 85/9/3 84/25/28
f 83/22/23 82/10/4 81/9/6
f 80/16/19 79/8/7 78/18/16
f 29/16/19 30/11/71 77/8/7
f 76/31/28 75/12/70 28/29/35
f 31/31/28 26/9/6 27/12/70
f 74/18/25 73/10/72 24/22/23
f 21/18/25 22/8/7 23/10/4
f 72/34/39 71/13/9 20/15/46
f 17/34/39 18/14/69 19/13/9
f 70/47/73 69/48/68 68/49/74
f 67/47/73 66/50/56 65/48/68
f 64/51/75 63/52/55 62/53/76
f 61/51/75 60/54/59 59/52/57
f 58/55/77 57/56/58 56/57/78
f 55/55/79 54/58/80 53/56/58
f 52/49/81 51/59/60 50/60/82
f 2/49/81 32/48/66 49/59/60
f 48/53/83 47/50/84 12/47/73
f 9/53/85 10/52/55 11/50/56
f 46/57/78 45/54/59 8/51/75
f 5/57/86 6/56/58 7/54/59
f 44/60/82 43/61/62 15/62/77
f 1/60/87 35/59/63 39/61/80
