# Blender 5.0.0
# www.blender.org
mtllib Circle_002_Circle_Dupli_243_decorations_0.mtl
o Circle.002|Circle|Dupli|243_decorations_0
v -4.291533 0.817822 0.336253
v -4.292806 0.818411 0.336123
v -4.294270 0.814496 0.329479
v -4.292454 0.813656 0.329665
v -4.290006 0.819533 0.335167
v -4.290761 0.817035 0.330365
v -4.291598 0.817981 0.329993
v -4.290901 0.820544 0.334768
v -4.292299 0.820593 0.334932
v -4.292905 0.818027 0.330146
v -4.293697 0.817139 0.330710
v -4.293147 0.819644 0.335535
v -4.290676 0.814369 0.329058
v -4.290275 0.816097 0.328115
v -4.290287 0.818321 0.335828
v -4.291552 0.817540 0.327546
v -4.291904 0.816539 0.326458
v -4.292291 0.815577 0.325889
v -4.293350 0.815614 0.326013
v -4.293527 0.816597 0.326648
v -4.294115 0.814062 0.328031
v -4.293734 0.813960 0.326916
v -4.292769 0.813514 0.327014
v -4.292637 0.813379 0.328182
v -4.294756 0.816256 0.328640
v -4.291825 0.813892 0.326692
v -4.291612 0.814810 0.326191
v -4.290864 0.815365 0.326921
v -4.294511 0.815494 0.327348
v -4.293992 0.814895 0.326470
v -4.291191 0.813958 0.327688
v -4.293379 0.815986 0.331259
v -4.293855 0.815333 0.330671
v -4.292283 0.814606 0.330832
v -4.292189 0.815436 0.331381
v -4.293546 0.817611 0.327780
v -4.290744 0.815223 0.330306
v -4.290397 0.816719 0.329490
v -4.291024 0.815903 0.330983
v -4.294276 0.816856 0.329945
v -4.291502 0.817967 0.328998
v -4.293229 0.818029 0.329200
v -4.291024 0.815903 0.330983
v -4.291533 0.817822 0.336253
v -4.291598 0.817981 0.329993
v -4.290006 0.819533 0.335167
v -4.293697 0.817139 0.330710
v -4.292299 0.820593 0.334932
v -4.292189 0.815436 0.331381
v -4.291533 0.817822 0.336253
v -4.292189 0.815436 0.331381
v -4.292806 0.818411 0.336123
v -4.290761 0.817035 0.330365
v -4.291024 0.815903 0.330983
v -4.290287 0.818321 0.335828
v -4.290006 0.819533 0.335167
v -4.290761 0.817035 0.330365
v -4.290287 0.818321 0.335828
v -4.292905 0.818027 0.330146
v -4.291598 0.817981 0.329993
v -4.290901 0.820544 0.334768
v -4.292299 0.820593 0.334932
v -4.292905 0.818027 0.330146
v -4.290901 0.820544 0.334768
v -4.293379 0.815986 0.331259
v -4.293697 0.817139 0.330710
v -4.293147 0.819644 0.335535
v -4.292806 0.818411 0.336123
v -4.293379 0.815986 0.331259
v -4.293147 0.819644 0.335535
v -4.293350 0.815614 0.326013
v -4.291904 0.816539 0.326458
v -4.292769 0.813514 0.327014
v -4.294115 0.814062 0.328031
v -4.291612 0.814810 0.326191
v -4.291191 0.813958 0.327688
v -4.293734 0.813960 0.326916
v -4.294115 0.814062 0.328031
v -4.293734 0.813960 0.326916
v -4.294511 0.815494 0.327348
v -4.291825 0.813892 0.326692
v -4.292769 0.813514 0.327014
v -4.292637 0.813379 0.328182
v -4.291191 0.813958 0.327688
v -4.291825 0.813892 0.326692
v -4.292637 0.813379 0.328182
v -4.292291 0.815577 0.325889
v -4.291612 0.814810 0.326191
v -4.290864 0.815365 0.326921
v -4.291904 0.816539 0.326458
v -4.292291 0.815577 0.325889
v -4.290864 0.815365 0.326921
v -4.293379 0.815986 0.331259
v -4.292189 0.815436 0.331381
v -4.292283 0.814606 0.330832
v -4.293379 0.815986 0.331259
v -4.291024 0.815903 0.330983
v -4.290761 0.817035 0.330365
v -4.290397 0.816719 0.329490
v -4.291024 0.815903 0.330983
v -4.291598 0.817981 0.329993
v -4.292905 0.818027 0.330146
v -4.293229 0.818029 0.329200
v -4.291598 0.817981 0.329993
v -4.293855 0.815333 0.330671
v -4.293697 0.817139 0.330710
v -4.293379 0.815986 0.331259
v -4.293855 0.815333 0.330671
v -4.293697 0.817139 0.330710
v -4.290744 0.815223 0.330306
v -4.292283 0.814606 0.330832
v -4.292189 0.815436 0.331381
v -4.291024 0.815903 0.330983
v -4.290744 0.815223 0.330306
v -4.292189 0.815436 0.331381
v -4.291502 0.817967 0.328998
v -4.290397 0.816719 0.329490
v -4.290761 0.817035 0.330365
v -4.291598 0.817981 0.329993
v -4.291502 0.817967 0.328998
v -4.290761 0.817035 0.330365
v -4.294276 0.816856 0.329945
v -4.293229 0.818029 0.329200
v -4.292905 0.818027 0.330146
v -4.293697 0.817139 0.330710
v -4.294276 0.816856 0.329945
v -4.292905 0.818027 0.330146
v -4.293229 0.818029 0.329200
v -4.294276 0.816856 0.329945
v -4.294756 0.816256 0.328640
v -4.293229 0.818029 0.329200
v -4.294511 0.815494 0.327348
v -4.293527 0.816597 0.326648
v -4.293546 0.817611 0.327780
v -4.294756 0.816256 0.328640
v -4.294511 0.815494 0.327348
v -4.293546 0.817611 0.327780
v -4.293546 0.817611 0.327780
v -4.291502 0.817967 0.328998
v -4.293229 0.818029 0.329200
v -4.293546 0.817611 0.327780
v -4.291502 0.817967 0.328998
v -4.293527 0.816597 0.326648
v -4.291904 0.816539 0.326458
v -4.291552 0.817540 0.327546
v -4.293546 0.817611 0.327780
v -4.293527 0.816597 0.326648
v -4.291552 0.817540 0.327546
v -4.291552 0.817540 0.327546
v -4.290397 0.816719 0.329490
v -4.291502 0.817967 0.328998
v -4.291552 0.817540 0.327546
v -4.290397 0.816719 0.329490
v -4.291904 0.816539 0.326458
v -4.290864 0.815365 0.326921
v -4.290275 0.816097 0.328115
v -4.291552 0.817540 0.327546
v -4.291904 0.816539 0.326458
v -4.290275 0.816097 0.328115
v -4.290275 0.816097 0.328115
v -4.290744 0.815223 0.330306
v -4.290397 0.816719 0.329490
v -4.290275 0.816097 0.328115
v -4.290744 0.815223 0.330306
v -4.290864 0.815365 0.326921
v -4.291191 0.813958 0.327688
v -4.290676 0.814369 0.329058
v -4.290275 0.816097 0.328115
v -4.290864 0.815365 0.326921
v -4.290676 0.814369 0.329058
v -4.290676 0.814369 0.329058
v -4.292283 0.814606 0.330832
v -4.290744 0.815223 0.330306
v -4.290676 0.814369 0.329058
v -4.292283 0.814606 0.330832
v -4.291191 0.813958 0.327688
v -4.292637 0.813379 0.328182
v -4.292454 0.813656 0.329665
v -4.290676 0.814369 0.329058
v -4.291191 0.813958 0.327688
v -4.292454 0.813656 0.329665
v -4.292454 0.813656 0.329665
v -4.293855 0.815333 0.330671
v -4.292283 0.814606 0.330832
v -4.292454 0.813656 0.329665
v -4.293855 0.815333 0.330671
v -4.292637 0.813379 0.328182
v -4.294115 0.814062 0.328031
v -4.294270 0.814496 0.329479
v -4.292454 0.813656 0.329665
v -4.292637 0.813379 0.328182
v -4.294270 0.814496 0.329479
v -4.294270 0.814496 0.329479
v -4.294756 0.816256 0.328640
v -4.294276 0.816856 0.329945
v -4.293855 0.815333 0.330671
v -4.294270 0.814496 0.329479
v -4.294276 0.816856 0.329945
v -4.294115 0.814062 0.328031
v -4.294511 0.815494 0.327348
v -4.294756 0.816256 0.328640
v -4.294270 0.814496 0.329479
v -4.294115 0.814062 0.328031
v -4.294756 0.816256 0.328640
v -4.293992 0.814895 0.326470
v -4.293350 0.815614 0.326013
v -4.293527 0.816597 0.326648
v -4.294511 0.815494 0.327348
v -4.293992 0.814895 0.326470
v -4.293527 0.816597 0.326648
v -4.292291 0.815577 0.325889
v -4.293350 0.815614 0.326013
v -4.291612 0.814810 0.326191
v -4.293992 0.814895 0.326470
v -4.291612 0.814810 0.326191
v -4.293350 0.815614 0.326013
v -4.291825 0.813892 0.326692
v -4.291612 0.814810 0.326191
v -4.293992 0.814895 0.326470
v -4.293734 0.813960 0.326916
v -4.291825 0.813892 0.326692
v -4.293992 0.814895 0.326470
v -4.292769 0.813514 0.327014
v -4.291825 0.813892 0.326692
v -4.293734 0.813960 0.326916
v -4.290901 0.820544 0.334768
v -4.290006 0.819533 0.335167
v -4.292299 0.820593 0.334932
v -4.293147 0.819644 0.335535
v -4.292299 0.820593 0.334932
v -4.290006 0.819533 0.335167
v -4.290287 0.818321 0.335828
v -4.293147 0.819644 0.335535
v -4.290006 0.819533 0.335167
v -4.292806 0.818411 0.336123
v -4.293147 0.819644 0.335535
v -4.290287 0.818321 0.335828
v -4.291533 0.817822 0.336253
v -4.292806 0.818411 0.336123
v -4.290287 0.818321 0.335828
vn 0.1197 0.4539 0.8830
vn -0.5287 -0.6724 -0.5180
vn 0.3464 -0.7034 -0.6207
vn -0.0866 -0.8769 -0.4728
vn -0.6472 -0.2438 -0.7223
vn 0.3464 -0.7034 -0.6206
vn -0.5288 -0.6724 -0.5180
vn -0.6472 -0.2438 -0.7222
vn 0.4441 -0.2825 -0.8503
vn -0.3527 0.0861 -0.9318
vn -0.3528 0.0861 -0.9317
vn 0.1329 0.0689 -0.9887
vn -0.4599 0.5610 -0.6883
vn -0.9367 0.0270 -0.3492
vn -0.3527 0.0860 -0.9318
vn -0.9764 0.2152 -0.0210
vn -0.7449 -0.6669 -0.0184
vn -0.7665 -0.5443 0.3409
vn -0.9764 0.2152 -0.0211
vn -0.9367 0.0269 -0.3491
vn -0.7449 -0.6669 -0.0185
vn -0.8751 0.3720 0.3095
vn -0.7664 -0.5444 0.3409
vn -0.6774 -0.3435 0.6505
vn -0.9764 0.2151 -0.0211
vn -0.7665 -0.5444 0.3408
vn -0.0290 -0.9981 0.0548
vn 0.0172 -0.9069 0.4210
vn 0.0171 -0.9069 0.4210
vn 0.0608 -0.6850 0.7260
vn -0.7665 -0.5444 0.3409
vn 0.0172 -0.9069 0.4211
vn 0.6720 -0.7172 -0.1846
vn 0.7845 -0.5994 0.1590
vn 0.6719 -0.7172 -0.1846
vn 0.7837 -0.3954 0.4791
vn 0.8302 -0.0358 -0.5564
vn 0.9576 0.1465 -0.2479
vn 0.7837 -0.3953 0.4791
vn 0.9577 0.1465 -0.2479
vn 0.9468 0.3073 0.0958
vn 0.9576 0.1464 -0.2479
vn 0.3265 0.5330 -0.7806
vn 0.4063 0.7692 -0.4933
vn 0.8302 -0.0357 -0.5564
vn 0.4062 0.7692 -0.4933
vn 0.4273 0.8939 -0.1354
vn -0.4545 0.7997 -0.3924
vn 0.3264 0.5331 -0.7805
vn -0.4598 0.5610 -0.6884
vn -0.4545 0.7997 -0.3923
vn -0.3835 0.9227 -0.0403
vn -0.9367 0.0270 -0.3491
vn -0.3835 0.9227 -0.0402
vn -0.8752 0.3720 0.3094
vn -0.4544 0.7997 -0.3924
vn -0.4034 0.9076 -0.1161
vn -0.8751 0.3720 0.3094
vn -0.9075 0.3429 0.2425
vn 0.9607 0.2766 0.0233
vn 0.4274 0.8939 -0.1354
vn 0.4281 0.8781 -0.2136
vn 0.9607 0.2766 0.0234
vn 0.0522 -0.7409 0.6696
vn 0.7934 -0.4439 0.4165
vn -0.7048 -0.3907 0.5922
vn -0.9075 0.3430 0.2425
vn 0.4281 0.8781 -0.2137
vn 0.7934 -0.4439 0.4164
vn 0.9607 0.2767 0.0234
vn 0.0523 -0.7409 0.6696
vn 0.1329 0.0688 -0.9887
vn 0.3265 0.5331 -0.7806
vn -0.0290 -0.9981 0.0547
vn -0.0866 -0.8769 -0.4727
vn -0.6472 -0.2437 -0.7223
vn 0.6720 -0.7172 -0.1847
vn 0.3264 0.5331 -0.7806
vn -0.9747 0.2236 -0.0048
vn -0.7048 -0.3907 0.5921
vn -0.7647 -0.5362 0.3574
vn 0.4086 0.7780 -0.4772
vn -0.4034 0.9076 -0.1162
vn -0.4525 0.8085 -0.3762
vn 0.4086 0.7780 -0.4773
vn 0.4280 0.8781 -0.2137
vn 0.7872 -0.5913 0.1754
vn 0.9607 0.2767 0.0233
vn 0.9604 0.1549 -0.2317
vn -0.7646 -0.5363 0.3574
vn 0.0193 -0.8990 0.4376
vn -0.9747 0.2237 -0.0048
vn -0.4525 0.8085 -0.3763
vn 0.4087 0.7780 -0.4772
vn 0.0194 -0.8989 0.4376
vn 0.7871 -0.5913 0.1754
vn 0.0194 -0.8990 0.4376
vt 0.543243 0.611839
vt 0.535370 0.618118
vt 0.537796 0.613083
vt 0.537796 0.623154
vt 0.547607 0.615326
vt 0.543243 0.624397
vt 0.547607 0.620918
vt 0.565384 0.671494
vt 0.570206 0.669548
vt 0.567856 0.672157
vt 0.564468 0.669609
vt 0.568146 0.666756
vt 0.564514 0.667854
vt 0.565857 0.666748
vt 0.562897 0.666855
vt 0.562302 0.669838
vt 0.559082 0.669685
vt 0.563492 0.673050
vt 0.560059 0.674789
vt 0.554092 0.669067
vt 0.554398 0.676537
vt 0.567307 0.675606
vt 0.564316 0.680244
vt 0.558044 0.684982
vt 0.575485 0.674767
vt 0.575272 0.686485
vt 0.565720 0.696274
vt 0.575485 0.658051
vt 0.568817 0.663902
vt 0.568115 0.659698
vt 0.574570 0.665543
vt 0.572052 0.651657
vt 0.565903 0.655174
vt 0.565063 0.664742
vt 0.563416 0.661980
vt 0.560669 0.658463
vt 0.560364 0.665283
vt 0.556488 0.662933
vt 0.552032 0.660286
vt 0.548294 0.668175
vt 0.563522 0.651588
vt 0.557617 0.654999
vt 0.551163 0.688484
vt 0.556610 0.699394
vt 0.547867 0.678001
vt 0.568756 0.648293
vt 0.604446 0.682632
vt 0.626221 0.687675
vt 0.604553 0.688225
vt 0.626144 0.682457
vt 0.604553 0.671455
vt 0.626144 0.677231
vt 0.604446 0.677048
vt 0.626221 0.672005
vt 0.605011 0.660294
vt 0.626404 0.666786
vt 0.604736 0.665871
vt 0.626663 0.661568
vt 0.626404 0.692902
vt 0.604736 0.693810
vt 0.626663 0.698120
vt 0.605011 0.699394
s 0
usemtl decorations
f 240/1/1 239/2/1 238/3/1
f 237/1/1 236/4/1 235/2/1
f 234/5/1 233/4/1 232/1/1
f 231/5/1 230/6/1 229/4/1
f 228/6/1 227/5/1 226/7/1
s 1
f 225/8/2 224/9/3 223/10/4
f 222/11/5 221/9/6 220/8/7
f 219/11/8 218/12/9 217/9/3
f 216/13/10 215/12/9 214/11/5
f 213/12/9 212/13/11 211/14/12
f 210/15/13 209/11/5 208/16/14
f 207/15/13 206/13/15 205/11/5
f 204/17/16 203/18/17 202/19/18
f 201/17/19 200/16/20 199/18/21
f 198/20/22 197/19/23 196/21/24
f 195/20/22 194/17/25 193/19/26
f 192/19/18 191/22/27 190/23/28
f 189/19/18 188/18/17 187/22/27
f 186/21/24 185/23/29 184/24/30
f 183/21/24 3/19/31 182/23/29
f 181/23/32 180/25/33 179/26/34
f 178/23/28 177/22/27 176/25/35
f 175/24/30 174/26/34 173/27/36
f 172/24/30 4/23/32 171/26/34
f 170/28/34 169/29/37 168/30/38
f 167/28/34 166/31/33 165/29/37
f 164/32/39 163/30/40 162/33/41
f 161/32/39 13/28/34 160/30/42
f 159/30/38 158/34/43 157/35/44
f 156/30/38 155/29/45 154/34/43
f 153/33/41 152/35/46 151/36/47
f 150/33/41 14/30/38 149/35/46
f 148/35/46 147/15/13 146/37/48
f 145/35/46 144/34/49 143/15/50
f 142/36/47 141/37/51 140/38/52
f 139/36/47 16/35/46 138/37/51
f 137/37/51 136/16/53 135/17/25
f 134/37/48 133/15/13 132/16/14
f 131/38/54 130/17/25 129/20/55
f 128/38/52 36/37/56 25/17/25
f 127/39/57 126/20/58 125/40/59
f 124/39/57 123/38/52 122/20/58
f 121/41/60 120/36/61 119/42/62
f 118/41/63 117/33/41 116/36/61
f 115/43/64 114/27/36 113/44/65
f 112/43/64 111/24/30 110/27/36
f 109/40/59 108/21/24 107/45/66
f 106/40/67 40/20/22 105/21/24
f 104/42/68 103/38/52 102/39/57
f 101/42/68 41/36/47 42/38/52
f 100/46/69 99/33/41 98/41/70
f 97/46/65 37/32/39 38/33/41
f 96/45/66 95/24/30 94/43/71
f 93/45/66 33/21/24 34/24/30
f 92/29/45 91/14/72 90/34/73
f 89/29/45 88/12/9 87/14/12
f 86/22/74 85/9/3 84/25/35
f 83/22/27 82/10/75 81/9/3
f 80/16/20 79/8/7 78/18/21
f 29/16/20 30/11/76 77/8/7
f 76/31/77 75/12/9 28/29/37
f 31/31/33 26/9/3 27/12/9
f 74/18/17 73/10/75 24/22/27
f 21/18/17 22/8/7 23/10/4
f 72/34/78 71/13/10 20/15/13
f 17/34/78 18/14/72 19/13/15
f 70/47/79 69/48/80 68/49/81
f 67/47/79 66/50/67 65/48/66
f 64/51/82 63/52/83 62/53/84
f 61/51/85 60/54/86 59/52/57
f 58/55/87 57/56/88 56/57/89
f 55/55/87 54/58/65 53/56/70
f 52/49/90 51/59/64 50/60/91
f 2/49/90 32/48/66 49/59/64
f 48/53/84 47/50/59 12/47/92
f 9/53/93 10/52/57 11/50/59
f 46/57/89 45/54/86 8/51/94
f 5/57/89 6/56/70 7/54/62
f 44/60/95 43/61/69 15/62/96
f 1/60/97 35/59/64 39/61/65
