# Blender 5.0.0
# www.blender.org
mtllib Circle_002_Circle_004_Dupli_292_decorations_0.mtl
o Circle.002|Circle.004|Dupli|292_decorations_0
v -4.317956 1.892110 0.741038
v -4.317263 1.891971 0.739820
v -4.313255 1.898616 0.740999
v -4.314244 1.898813 0.742737
v -4.320102 1.893270 0.740338
v -4.317643 1.898091 0.741094
v -4.317490 1.898230 0.739794
v -4.319938 1.893418 0.738947
v -4.318852 1.893020 0.738143
v -4.316475 1.897858 0.739042
v -4.315361 1.897256 0.739406
v -4.317662 1.892376 0.738532
v -4.316047 1.899638 0.743066
v -4.317305 1.900469 0.741738
v -4.319220 1.892688 0.741269
v -4.317071 1.900680 0.739753
v -4.316114 1.901784 0.740173
v -4.315193 1.902368 0.740631
v -4.314371 1.902066 0.740022
v -4.314854 1.901322 0.739240
v -4.313008 1.900104 0.741187
v -4.313166 1.901271 0.741293
v -4.313692 1.901376 0.742215
v -4.313814 1.900264 0.742601
v -4.313824 1.899194 0.739161
v -4.314649 1.901814 0.742390
v -4.315317 1.902256 0.741685
v -4.316304 1.901612 0.741788
v -4.313471 1.900574 0.739691
v -4.313468 1.901579 0.740316
v -4.315280 1.900936 0.742868
v -4.314989 1.896877 0.740610
v -4.314175 1.897436 0.740766
v -4.315032 1.897608 0.742270
v -4.315637 1.897006 0.741749
v -4.315522 1.900113 0.738607
v -4.316592 1.898321 0.742554
v -4.317681 1.899041 0.741405
v -4.316818 1.897547 0.741964
v -4.314668 1.897937 0.739174
v -4.317479 1.899224 0.739687
v -4.316138 1.898733 0.738694
v -4.316818 1.897547 0.741964
v -4.317956 1.892110 0.741038
v -4.317490 1.898230 0.739794
v -4.320102 1.893270 0.740338
v -4.315361 1.897256 0.739406
v -4.318852 1.893020 0.738143
v -4.315637 1.897006 0.741749
v -4.317956 1.892110 0.741038
v -4.315637 1.897006 0.741749
v -4.317263 1.891971 0.739820
v -4.317643 1.898091 0.741094
v -4.316818 1.897547 0.741964
v -4.319220 1.892688 0.741269
v -4.320102 1.893270 0.740338
v -4.317643 1.898091 0.741094
v -4.319220 1.892688 0.741269
v -4.316475 1.897858 0.739042
v -4.317490 1.898230 0.739794
v -4.319938 1.893418 0.738947
v -4.318852 1.893020 0.738143
v -4.316475 1.897858 0.739042
v -4.319938 1.893418 0.738947
v -4.314989 1.896877 0.740610
v -4.315361 1.897256 0.739406
v -4.317662 1.892376 0.738532
v -4.317263 1.891971 0.739820
v -4.314989 1.896877 0.740610
v -4.317662 1.892376 0.738532
v -4.314371 1.902066 0.740022
v -4.316114 1.901784 0.740173
v -4.313692 1.901376 0.742215
v -4.313008 1.900104 0.741187
v -4.315317 1.902256 0.741685
v -4.315280 1.900936 0.742868
v -4.313166 1.901271 0.741293
v -4.313008 1.900104 0.741187
v -4.313166 1.901271 0.741293
v -4.313471 1.900574 0.739691
v -4.314649 1.901814 0.742390
v -4.313692 1.901376 0.742215
v -4.313814 1.900264 0.742601
v -4.315280 1.900936 0.742868
v -4.314649 1.901814 0.742390
v -4.313814 1.900264 0.742601
v -4.315193 1.902368 0.740631
v -4.315317 1.902256 0.741685
v -4.316304 1.901612 0.741788
v -4.316114 1.901784 0.740173
v -4.315193 1.902368 0.740631
v -4.316304 1.901612 0.741788
v -4.314989 1.896877 0.740610
v -4.315637 1.897006 0.741749
v -4.315032 1.897608 0.742270
v -4.314989 1.896877 0.740610
v -4.316818 1.897547 0.741964
v -4.317643 1.898091 0.741094
v -4.317681 1.899041 0.741405
v -4.316818 1.897547 0.741964
v -4.317490 1.898230 0.739794
v -4.316475 1.897858 0.739042
v -4.316138 1.898733 0.738694
v -4.317490 1.898230 0.739794
v -4.314175 1.897436 0.740766
v -4.315361 1.897256 0.739406
v -4.314989 1.896877 0.740610
v -4.314175 1.897436 0.740766
v -4.315361 1.897256 0.739406
v -4.316592 1.898321 0.742554
v -4.315032 1.897608 0.742270
v -4.315637 1.897006 0.741749
v -4.316818 1.897547 0.741964
v -4.316592 1.898321 0.742554
v -4.315637 1.897006 0.741749
v -4.317479 1.899224 0.739687
v -4.317681 1.899041 0.741405
v -4.317643 1.898091 0.741094
v -4.317490 1.898230 0.739794
v -4.317479 1.899224 0.739687
v -4.317643 1.898091 0.741094
v -4.314668 1.897937 0.739174
v -4.316138 1.898733 0.738694
v -4.316475 1.897858 0.739042
v -4.315361 1.897256 0.739406
v -4.314668 1.897937 0.739174
v -4.316475 1.897858 0.739042
v -4.316138 1.898733 0.738694
v -4.314668 1.897937 0.739174
v -4.313824 1.899194 0.739161
v -4.316138 1.898733 0.738694
v -4.313471 1.900574 0.739691
v -4.314854 1.901322 0.739240
v -4.315522 1.900113 0.738607
v -4.313824 1.899194 0.739161
v -4.313471 1.900574 0.739691
v -4.315522 1.900113 0.738607
v -4.315522 1.900113 0.738607
v -4.317479 1.899224 0.739687
v -4.316138 1.898733 0.738694
v -4.315522 1.900113 0.738607
v -4.317479 1.899224 0.739687
v -4.314854 1.901322 0.739240
v -4.316114 1.901784 0.740173
v -4.317071 1.900680 0.739753
v -4.315522 1.900113 0.738607
v -4.314854 1.901322 0.739240
v -4.317071 1.900680 0.739753
v -4.317071 1.900680 0.739753
v -4.317681 1.899041 0.741405
v -4.317479 1.899224 0.739687
v -4.317071 1.900680 0.739753
v -4.317681 1.899041 0.741405
v -4.316114 1.901784 0.740173
v -4.316304 1.901612 0.741788
v -4.317305 1.900469 0.741738
v -4.317071 1.900680 0.739753
v -4.316114 1.901784 0.740173
v -4.317305 1.900469 0.741738
v -4.317305 1.900469 0.741738
v -4.316592 1.898321 0.742554
v -4.317681 1.899041 0.741405
v -4.317305 1.900469 0.741738
v -4.316592 1.898321 0.742554
v -4.316304 1.901612 0.741788
v -4.315280 1.900936 0.742868
v -4.316047 1.899638 0.743066
v -4.317305 1.900469 0.741738
v -4.316304 1.901612 0.741788
v -4.316047 1.899638 0.743066
v -4.316047 1.899638 0.743066
v -4.315032 1.897608 0.742270
v -4.316592 1.898321 0.742554
v -4.316047 1.899638 0.743066
v -4.315032 1.897608 0.742270
v -4.315280 1.900936 0.742868
v -4.313814 1.900264 0.742601
v -4.314244 1.898813 0.742737
v -4.316047 1.899638 0.743066
v -4.315280 1.900936 0.742868
v -4.314244 1.898813 0.742737
v -4.314244 1.898813 0.742737
v -4.314175 1.897436 0.740766
v -4.315032 1.897608 0.742270
v -4.314244 1.898813 0.742737
v -4.314175 1.897436 0.740766
v -4.313814 1.900264 0.742601
v -4.313008 1.900104 0.741187
v -4.313255 1.898616 0.740999
v -4.314244 1.898813 0.742737
v -4.313814 1.900264 0.742601
v -4.313255 1.898616 0.740999
v -4.313255 1.898616 0.740999
v -4.313824 1.899194 0.739161
v -4.314668 1.897937 0.739174
v -4.314175 1.897436 0.740766
v -4.313255 1.898616 0.740999
v -4.314668 1.897937 0.739174
v -4.313008 1.900104 0.741187
v -4.313471 1.900574 0.739691
v -4.313824 1.899194 0.739161
v -4.313255 1.898616 0.740999
v -4.313008 1.900104 0.741187
v -4.313824 1.899194 0.739161
v -4.313468 1.901579 0.740316
v -4.314371 1.902066 0.740022
v -4.314854 1.901322 0.739240
v -4.313471 1.900574 0.739691
v -4.313468 1.901579 0.740316
v -4.314854 1.901322 0.739240
v -4.315193 1.902368 0.740631
v -4.314371 1.902066 0.740022
v -4.315317 1.902256 0.741685
v -4.313468 1.901579 0.740316
v -4.315317 1.902256 0.741685
v -4.314371 1.902066 0.740022
v -4.314649 1.901814 0.742390
v -4.315317 1.902256 0.741685
v -4.313468 1.901579 0.740316
v -4.313166 1.901271 0.741293
v -4.314649 1.901814 0.742390
v -4.313468 1.901579 0.740316
v -4.313692 1.901376 0.742215
v -4.314649 1.901814 0.742390
v -4.313166 1.901271 0.741293
v -4.319938 1.893418 0.738947
v -4.320102 1.893270 0.740338
v -4.318852 1.893020 0.738143
v -4.317662 1.892376 0.738532
v -4.318852 1.893020 0.738143
v -4.320102 1.893270 0.740338
v -4.319220 1.892688 0.741269
v -4.317662 1.892376 0.738532
v -4.320102 1.893270 0.740338
v -4.317263 1.891971 0.739820
v -4.317662 1.892376 0.738532
v -4.319220 1.892688 0.741269
v -4.317956 1.892110 0.741038
v -4.317263 1.891971 0.739820
v -4.319220 1.892688 0.741269
vn -0.4335 -0.8893 -0.1457
vn 0.8619 0.4835 0.1529
vn 0.1820 0.7325 0.6560
vn 0.6210 0.5316 0.5760
vn 0.7233 0.6244 -0.2949
vn 0.8619 0.4835 0.1528
vn 0.7234 0.6243 -0.2948
vn -0.1244 0.9348 0.3326
vn 0.3097 0.8481 -0.4299
vn 0.3098 0.8481 -0.4299
vn -0.0676 0.9863 -0.1507
vn 0.0988 0.5470 -0.8313
vn 0.7684 0.1848 -0.6127
vn 0.0988 0.5469 -0.8313
vn 0.7234 0.6244 -0.2948
vn 0.6639 -0.1615 -0.7302
vn 0.9928 -0.0433 0.1121
vn 0.9094 -0.4111 0.0631
vn 0.7685 0.1847 -0.6126
vn 0.4637 -0.4839 -0.7422
vn 0.6950 -0.7190 0.0052
vn 0.4637 -0.4838 -0.7422
vn 0.9094 -0.4110 0.0631
vn 0.6027 0.0346 0.7972
vn 0.4825 -0.3258 0.8130
vn 0.9927 -0.0433 0.1121
vn 0.2929 -0.6386 0.7116
vn -0.1080 0.3597 0.9268
vn -0.2955 0.0301 0.9549
vn -0.1079 0.3598 0.9268
vn 0.2928 -0.6387 0.7116
vn -0.4400 -0.3033 0.8452
vn 0.4825 -0.3258 0.8131
vn -0.6041 0.6873 0.4033
vn -0.8385 0.3887 0.3818
vn -0.1080 0.3598 0.9268
vn -0.6041 0.6874 0.4033
vn -0.4401 -0.3033 0.8452
vn -0.9516 0.0345 0.3054
vn -0.8385 0.3887 0.3819
vn -0.5121 0.7707 -0.3791
vn -0.7378 0.4799 -0.4746
vn -0.6041 0.6874 0.4032
vn -0.9516 0.0344 0.3053
vn -0.8568 0.1204 -0.5015
vn -0.9516 0.0345 0.3053
vn -0.7378 0.4799 -0.4747
vn 0.0987 0.5470 -0.8313
vn -0.0692 0.2351 -0.9695
vn -0.5121 0.7707 -0.3792
vn -0.8567 0.1204 -0.5015
vn -0.0692 0.2350 -0.9695
vn -0.2269 -0.1102 -0.9677
vn 0.7684 0.1847 -0.6127
vn -0.2269 -0.1103 -0.9677
vn 0.4638 -0.4838 -0.7422
vn -0.1958 -0.0377 -0.9799
vn 0.5123 -0.4208 -0.7487
vn -0.1959 -0.0377 -0.9799
vn -0.9390 0.1108 0.3255
vn -0.8568 0.1204 -0.5014
vn -0.8418 0.1988 -0.5019
vn -0.9390 0.1107 0.3255
vn 0.3370 -0.5795 0.7420
vn -0.4145 -0.2357 0.8790
vn 0.2928 -0.6386 0.7116
vn 0.5123 -0.4207 -0.7487
vn 0.6950 -0.7190 0.0051
vn 0.7494 -0.6619 0.0176
vn -0.8418 0.1989 -0.5019
vn -0.8418 0.1989 -0.5018
vn -0.4144 -0.2356 0.8790
vn -0.9391 0.1107 0.3254
vn -0.4144 -0.2357 0.8790
vn 0.7494 -0.6618 0.0176
vn -0.0676 0.9863 -0.1506
vn 0.1821 0.7325 0.6560
vn 0.9928 -0.0434 0.1121
vn 0.9927 -0.0434 0.1121
vn 0.6562 -0.1780 -0.7333
vn 0.9019 -0.4278 0.0604
vn 0.6563 -0.1780 -0.7332
vn 0.5122 -0.4207 -0.7487
vn -0.7462 0.4637 -0.4776
vn -0.0773 0.2188 -0.9727
vn -0.7462 0.4638 -0.4776
vn -0.3037 0.0137 0.9527
vn -0.9391 0.1108 0.3254
vn -0.8470 0.3725 0.3794
vn 0.9019 -0.4278 0.0605
vn 0.4748 -0.3425 0.8108
vn 0.9019 -0.4277 0.0605
vn -0.0772 0.2187 -0.9727
vn -0.0772 0.2188 -0.9727
vn -0.8470 0.3725 0.3793
vn 0.4747 -0.3425 0.8108
vn -0.4144 -0.2356 0.8791
vn -0.3036 0.0137 0.9527
vn 0.4747 -0.3424 0.8108
vt 0.530319 0.635056
vt 0.522446 0.641335
vt 0.524872 0.636299
vt 0.524872 0.646370
vt 0.534683 0.638535
vt 0.530319 0.647614
vt 0.534683 0.644127
vt 0.508789 0.671494
vt 0.513626 0.669548
vt 0.511276 0.672157
vt 0.507889 0.669609
vt 0.511566 0.666756
vt 0.507935 0.667854
vt 0.509277 0.666748
vt 0.506302 0.666855
vt 0.505722 0.669838
vt 0.502487 0.669685
vt 0.506897 0.673050
vt 0.503479 0.674789
vt 0.497520 0.669067
vt 0.497810 0.676537
vt 0.510727 0.675606
vt 0.507721 0.680244
vt 0.501465 0.684982
vt 0.518890 0.674767
vt 0.518692 0.686485
vt 0.509125 0.696274
vt 0.518890 0.658051
vt 0.512238 0.663902
vt 0.511536 0.659698
vt 0.517990 0.665543
vt 0.515472 0.651657
vt 0.509323 0.655174
vt 0.508469 0.664742
vt 0.506836 0.661980
vt 0.504074 0.658463
vt 0.503784 0.665283
vt 0.499901 0.662933
vt 0.495453 0.660286
vt 0.491707 0.668175
vt 0.506927 0.651588
vt 0.501038 0.654999
vt 0.494583 0.688484
vt 0.500031 0.699394
vt 0.491287 0.678001
vt 0.512177 0.648293
vt 0.627350 0.642853
vt 0.649124 0.647896
vt 0.627441 0.648445
vt 0.649033 0.642670
vt 0.627441 0.631676
vt 0.649033 0.637444
vt 0.627350 0.637268
vt 0.649124 0.632225
vt 0.627914 0.620506
vt 0.649292 0.626999
vt 0.627625 0.626091
vt 0.649551 0.621780
vt 0.649292 0.653114
vt 0.627625 0.654030
vt 0.649551 0.658333
vt 0.627914 0.659607
s 0
usemtl decorations
f 240/1/1 239/2/1 238/3/1
f 237/1/1 236/4/1 235/2/1
f 234/5/1 233/4/1 232/1/1
f 231/5/1 230/6/1 229/4/1
f 228/6/1 227/5/1 226/7/1
s 1
f 225/8/2 224/9/3 223/10/4
f 222/11/5 221/9/3 220/8/6
f 219/11/7 218/12/8 217/9/3
f 216/13/9 215/12/8 214/11/7
f 213/12/8 212/13/10 211/14/11
f 210/15/12 209/11/7 208/16/13
f 207/15/14 206/13/9 205/11/15
f 204/17/16 203/18/17 202/19/18
f 201/17/16 200/16/19 199/18/17
f 198/20/20 197/19/18 196/21/21
f 195/20/22 194/17/16 193/19/23
f 192/19/18 191/22/24 190/23/25
f 189/19/18 188/18/26 187/22/24
f 186/21/21 185/23/25 184/24/27
f 183/21/21 3/19/18 182/23/25
f 181/23/25 180/25/28 179/26/29
f 178/23/25 177/22/24 176/25/30
f 175/24/31 174/26/29 173/27/32
f 172/24/31 4/23/33 171/26/29
f 170/28/29 169/29/34 168/30/35
f 167/28/29 166/31/36 165/29/37
f 164/32/38 163/30/35 162/33/39
f 161/32/38 13/28/29 160/30/40
f 159/30/35 158/34/41 157/35/42
f 156/30/35 155/29/43 154/34/41
f 153/33/44 152/35/42 151/36/45
f 150/33/46 14/30/35 149/35/42
f 148/35/47 147/15/48 146/37/49
f 145/35/47 144/34/50 143/15/48
f 142/36/51 141/37/52 140/38/53
f 139/36/51 16/35/47 138/37/52
f 137/37/52 136/16/54 135/17/16
f 134/37/49 133/15/48 132/16/13
f 131/38/55 130/17/16 129/20/56
f 128/38/55 36/37/49 25/17/16
f 127/39/57 126/20/22 125/40/58
f 124/39/59 123/38/55 122/20/22
f 121/41/60 120/36/61 119/42/62
f 118/41/63 117/33/44 116/36/61
f 115/43/64 114/27/32 113/44/65
f 112/43/64 111/24/66 110/27/32
f 109/40/67 108/21/68 107/45/69
f 106/40/67 40/20/20 105/21/68
f 104/42/70 103/38/53 102/39/59
f 101/42/71 41/36/45 42/38/53
f 100/46/72 99/33/39 98/41/73
f 97/46/74 37/32/38 38/33/39
f 96/45/75 95/24/66 94/43/64
f 93/45/69 33/21/21 34/24/66
f 92/29/43 91/14/76 90/34/41
f 89/29/43 88/12/8 87/14/11
f 86/22/24 85/9/3 84/25/30
f 83/22/24 82/10/4 81/9/3
f 80/16/19 79/8/6 78/18/17
f 29/16/19 30/11/5 77/8/6
f 76/31/36 75/12/8 28/29/37
f 31/31/36 26/9/77 27/12/8
f 74/18/78 73/10/4 24/22/24
f 21/18/79 22/8/6 23/10/4
f 72/34/50 71/13/9 20/15/48
f 17/34/50 18/14/11 19/13/9
f 70/47/80 69/48/75 68/49/81
f 67/47/82 66/50/83 65/48/69
f 64/51/84 63/52/59 62/53/85
f 61/51/86 60/54/62 59/52/59
f 58/55/87 57/56/88 56/57/89
f 55/55/87 54/58/74 53/56/73
f 52/49/90 51/59/64 50/60/91
f 2/49/92 32/48/69 49/59/64
f 48/53/93 47/50/67 12/47/80
f 9/53/94 10/52/59 11/50/58
f 46/57/95 45/54/70 8/51/84
f 5/57/95 6/56/88 7/54/62
f 44/60/96 43/61/97 15/62/98
f 1/60/99 35/59/64 39/61/74
