# Blender 5.0.0
# www.blender.org
mtllib Circle_005_Circle_003_Dupli_293_decorations_0.mtl
o Circle.005|Circle.003|Dupli|293_decorations_0
v -4.634528 1.906555 0.582615
v -4.633660 1.905735 0.581869
v -4.627917 1.906474 0.587167
v -4.629155 1.907644 0.588232
v -4.634169 1.908845 0.581582
v -4.630128 1.909729 0.585153
v -4.629233 1.909491 0.584217
v -4.633212 1.908590 0.580581
v -4.632605 1.907367 0.580237
v -4.628665 1.908347 0.583896
v -4.628852 1.907159 0.584432
v -4.632804 1.906096 0.580810
v -4.629478 1.909619 0.588051
v -4.628642 1.910911 0.586759
v -4.634755 1.907939 0.582488
v -4.627277 1.910548 0.585330
v -4.626331 1.910469 0.586517
v -4.625795 1.910128 0.587515
v -4.625335 1.909201 0.587254
v -4.625626 1.909049 0.586118
v -4.626852 1.907153 0.588012
v -4.626135 1.907964 0.588491
v -4.626793 1.908585 0.589056
v -4.627860 1.908106 0.588879
v -4.626696 1.906990 0.585657
v -4.626964 1.909634 0.588960
v -4.626520 1.910321 0.588274
v -4.627442 1.910764 0.587680
v -4.625858 1.907573 0.586783
v -4.625486 1.908238 0.587689
v -4.628122 1.909713 0.588731
v -4.629653 1.906821 0.585421
v -4.629007 1.906508 0.586117
v -4.630079 1.907521 0.587039
v -4.630464 1.907588 0.586119
v -4.626411 1.908803 0.584840
v -4.630358 1.909230 0.586882
v -4.629635 1.910349 0.585764
v -4.630675 1.908882 0.586000
v -4.627950 1.906954 0.584810
v -4.628453 1.910034 0.584527
v -4.627704 1.908524 0.584103
v -4.630675 1.908882 0.586000
v -4.634528 1.906555 0.582615
v -4.629233 1.909491 0.584217
v -4.634169 1.908845 0.581582
v -4.628852 1.907159 0.584432
v -4.632605 1.907367 0.580237
v -4.630464 1.907588 0.586119
v -4.634528 1.906555 0.582615
v -4.630464 1.907588 0.586119
v -4.633660 1.905735 0.581869
v -4.630128 1.909729 0.585153
v -4.630675 1.908882 0.586000
v -4.634755 1.907939 0.582488
v -4.634169 1.908845 0.581582
v -4.630128 1.909729 0.585153
v -4.634755 1.907939 0.582488
v -4.628665 1.908347 0.583896
v -4.629233 1.909491 0.584217
v -4.633212 1.908590 0.580581
v -4.632605 1.907367 0.580237
v -4.628665 1.908347 0.583896
v -4.633212 1.908590 0.580581
v -4.629653 1.906821 0.585421
v -4.628852 1.907159 0.584432
v -4.632804 1.906096 0.580810
v -4.633660 1.905735 0.581869
v -4.629653 1.906821 0.585421
v -4.632804 1.906096 0.580810
v -4.625335 1.909201 0.587254
v -4.626331 1.910469 0.586517
v -4.626793 1.908585 0.589056
v -4.626852 1.907153 0.588012
v -4.626520 1.910321 0.588274
v -4.628122 1.909713 0.588731
v -4.626135 1.907964 0.588491
v -4.626852 1.907153 0.588012
v -4.626135 1.907964 0.588491
v -4.625858 1.907573 0.586783
v -4.626964 1.909634 0.588960
v -4.626793 1.908585 0.589056
v -4.627860 1.908106 0.588879
v -4.628122 1.909713 0.588731
v -4.626964 1.909634 0.588960
v -4.627860 1.908106 0.588879
v -4.625795 1.910128 0.587515
v -4.626520 1.910321 0.588274
v -4.627442 1.910764 0.587680
v -4.626331 1.910469 0.586517
v -4.625795 1.910128 0.587515
v -4.627442 1.910764 0.587680
v -4.629653 1.906821 0.585421
v -4.630464 1.907588 0.586119
v -4.630079 1.907521 0.587039
v -4.629653 1.906821 0.585421
v -4.630675 1.908882 0.586000
v -4.630128 1.909729 0.585153
v -4.629635 1.910349 0.585764
v -4.630675 1.908882 0.586000
v -4.629233 1.909491 0.584217
v -4.628665 1.908347 0.583896
v -4.627704 1.908524 0.584103
v -4.629233 1.909491 0.584217
v -4.629007 1.906508 0.586117
v -4.628852 1.907159 0.584432
v -4.629653 1.906821 0.585421
v -4.629007 1.906508 0.586117
v -4.628852 1.907159 0.584432
v -4.630358 1.909230 0.586882
v -4.630079 1.907521 0.587039
v -4.630464 1.907588 0.586119
v -4.630675 1.908882 0.586000
v -4.630358 1.909230 0.586882
v -4.630464 1.907588 0.586119
v -4.628453 1.910034 0.584527
v -4.629635 1.910349 0.585764
v -4.630128 1.909729 0.585153
v -4.629233 1.909491 0.584217
v -4.628453 1.910034 0.584527
v -4.630128 1.909729 0.585153
v -4.627950 1.906954 0.584810
v -4.627704 1.908524 0.584103
v -4.628665 1.908347 0.583896
v -4.628852 1.907159 0.584432
v -4.627950 1.906954 0.584810
v -4.628665 1.908347 0.583896
v -4.627704 1.908524 0.584103
v -4.627950 1.906954 0.584810
v -4.626696 1.906990 0.585657
v -4.627704 1.908524 0.584103
v -4.625858 1.907573 0.586783
v -4.625626 1.909049 0.586118
v -4.626411 1.908803 0.584840
v -4.626696 1.906990 0.585657
v -4.625858 1.907573 0.586783
v -4.626411 1.908803 0.584840
v -4.626411 1.908803 0.584840
v -4.628453 1.910034 0.584527
v -4.627704 1.908524 0.584103
v -4.626411 1.908803 0.584840
v -4.628453 1.910034 0.584527
v -4.625626 1.909049 0.586118
v -4.626331 1.910469 0.586517
v -4.627277 1.910548 0.585330
v -4.626411 1.908803 0.584840
v -4.625626 1.909049 0.586118
v -4.627277 1.910548 0.585330
v -4.627277 1.910548 0.585330
v -4.629635 1.910349 0.585764
v -4.628453 1.910034 0.584527
v -4.627277 1.910548 0.585330
v -4.629635 1.910349 0.585764
v -4.626331 1.910469 0.586517
v -4.627442 1.910764 0.587680
v -4.628642 1.910911 0.586759
v -4.627277 1.910548 0.585330
v -4.626331 1.910469 0.586517
v -4.628642 1.910911 0.586759
v -4.628642 1.910911 0.586759
v -4.630358 1.909230 0.586882
v -4.629635 1.910349 0.585764
v -4.628642 1.910911 0.586759
v -4.630358 1.909230 0.586882
v -4.627442 1.910764 0.587680
v -4.628122 1.909713 0.588731
v -4.629478 1.909619 0.588051
v -4.628642 1.910911 0.586759
v -4.627442 1.910764 0.587680
v -4.629478 1.909619 0.588051
v -4.629478 1.909619 0.588051
v -4.630079 1.907521 0.587039
v -4.630358 1.909230 0.586882
v -4.629478 1.909619 0.588051
v -4.630079 1.907521 0.587039
v -4.628122 1.909713 0.588731
v -4.627860 1.908106 0.588879
v -4.629155 1.907644 0.588232
v -4.629478 1.909619 0.588051
v -4.628122 1.909713 0.588731
v -4.629155 1.907644 0.588232
v -4.629155 1.907644 0.588232
v -4.629007 1.906508 0.586117
v -4.630079 1.907521 0.587039
v -4.629155 1.907644 0.588232
v -4.629007 1.906508 0.586117
v -4.627860 1.908106 0.588879
v -4.626852 1.907153 0.588012
v -4.627917 1.906474 0.587167
v -4.629155 1.907644 0.588232
v -4.627860 1.908106 0.588879
v -4.627917 1.906474 0.587167
v -4.627917 1.906474 0.587167
v -4.626696 1.906990 0.585657
v -4.627950 1.906954 0.584810
v -4.629007 1.906508 0.586117
v -4.627917 1.906474 0.587167
v -4.627950 1.906954 0.584810
v -4.626852 1.907153 0.588012
v -4.625858 1.907573 0.586783
v -4.626696 1.906990 0.585657
v -4.627917 1.906474 0.587167
v -4.626852 1.907153 0.588012
v -4.626696 1.906990 0.585657
v -4.625486 1.908238 0.587689
v -4.625335 1.909201 0.587254
v -4.625626 1.909049 0.586118
v -4.625858 1.907573 0.586783
v -4.625486 1.908238 0.587689
v -4.625626 1.909049 0.586118
v -4.625795 1.910128 0.587515
v -4.625335 1.909201 0.587254
v -4.626520 1.910321 0.588274
v -4.625486 1.908238 0.587689
v -4.626520 1.910321 0.588274
v -4.625335 1.909201 0.587254
v -4.626964 1.909634 0.588960
v -4.626520 1.910321 0.588274
v -4.625486 1.908238 0.587689
v -4.626135 1.907964 0.588491
v -4.626964 1.909634 0.588960
v -4.625486 1.908238 0.587689
v -4.626793 1.908585 0.589056
v -4.626964 1.909634 0.588960
v -4.626135 1.907964 0.588491
v -4.633212 1.908590 0.580581
v -4.634169 1.908845 0.581582
v -4.632605 1.907367 0.580237
v -4.632804 1.906096 0.580810
v -4.632605 1.907367 0.580237
v -4.634169 1.908845 0.581582
v -4.634755 1.907939 0.582488
v -4.632804 1.906096 0.580810
v -4.634169 1.908845 0.581582
v -4.633660 1.905735 0.581869
v -4.632804 1.906096 0.580810
v -4.634755 1.907939 0.582488
v -4.634528 1.906555 0.582615
v -4.633660 1.905735 0.581869
v -4.634755 1.907939 0.582488
vn -0.7337 -0.1802 -0.6551
vn 0.6114 -0.3964 0.6849
vn 0.2313 0.3696 0.9000
vn 0.3099 -0.1114 0.9442
vn 0.9089 -0.2708 0.3171
vn 0.2313 0.3695 0.9000
vn 0.9088 -0.2709 0.3172
vn 0.4348 0.6843 0.5854
vn 0.9782 0.1707 0.1181
vn 0.9089 -0.2708 0.3172
vn 0.7673 0.5958 0.2374
vn 0.9022 0.1090 -0.4174
vn 0.7899 -0.6058 -0.0950
vn 0.5645 -0.7369 -0.3719
vn 0.3083 -0.8091 0.5002
vn 0.0375 -0.9594 0.2797
vn 0.5646 -0.7368 -0.3719
vn 0.7899 -0.6059 -0.0950
vn 0.3084 -0.8091 0.5003
vn 0.2581 -0.7614 -0.5947
vn 0.0374 -0.9594 0.2797
vn -0.2384 -0.9710 0.0192
vn -0.1799 -0.3477 0.9202
vn -0.4970 -0.4543 0.7393
vn 0.3083 -0.8091 0.5003
vn -0.2385 -0.9710 0.0191
vn -0.4969 -0.4544 0.7393
vn -0.7418 -0.4952 0.4522
vn -0.3072 0.4309 0.8485
vn -0.6363 0.3980 0.6609
vn -0.3071 0.4309 0.8485
vn -0.7419 -0.4952 0.4521
vn -0.8731 0.3077 0.3783
vn -0.6363 0.3980 0.6608
vn 0.0224 0.9404 0.3393
vn -0.2755 0.9557 0.1035
vn -0.8731 0.3077 0.3782
vn -0.2756 0.9557 0.1034
vn -0.5332 0.8331 -0.1468
vn -0.2756 0.9557 0.1035
vn 0.5606 0.7972 -0.2241
vn 0.3136 0.7989 -0.5132
vn 0.0224 0.9404 0.3392
vn -0.5333 0.8331 -0.1469
vn 0.3136 0.7989 -0.5133
vn 0.0218 0.6854 -0.7278
vn 0.9021 0.1090 -0.4174
vn 0.6875 0.0456 -0.7248
vn 0.5606 0.7972 -0.2242
vn 0.9022 0.1091 -0.4174
vn 0.0217 0.6854 -0.7279
vn 0.6874 0.0456 -0.7248
vn 0.3740 -0.0242 -0.9271
vn 0.5646 -0.7369 -0.3719
vn 0.3739 -0.0242 -0.9272
vn 0.2582 -0.7614 -0.5947
vn 0.3739 -0.0242 -0.9271
vn 0.6875 0.0457 -0.7248
vn 0.4456 -0.0096 -0.8952
vn 0.3269 -0.7654 -0.5543
vn -0.4846 0.8696 -0.0951
vn 0.0217 0.6854 -0.7278
vn 0.0845 0.7181 -0.6908
vn -0.6985 -0.4925 0.5192
vn -0.8331 0.3308 0.4434
vn -0.6985 -0.4925 0.5191
vn -0.2384 -0.9710 0.0191
vn -0.1823 -0.9804 0.0751
vn -0.8330 0.3308 0.4434
vn -0.5333 0.8331 -0.1468
vn -0.4846 0.8695 -0.0951
vn -0.1823 -0.9804 0.0752
vn -0.7418 -0.4952 0.4521
vn 0.4348 0.6842 0.5854
vn 0.7898 -0.6059 -0.0950
vn 0.3098 -0.1114 0.9442
vn 0.3083 -0.8092 0.5002
vn 0.5513 -0.7406 -0.3842
vn -0.1822 -0.9804 0.0752
vn 0.0239 -0.9632 0.2677
vn -0.1822 -0.9804 0.0751
vn 0.3002 0.7960 -0.5257
vn 0.6742 0.0424 -0.7373
vn 0.3002 0.7960 -0.5256
vn -0.6502 0.3949 0.6491
vn -0.2893 0.9529 0.0914
vn -0.6501 0.3949 0.6491
vn -0.5108 -0.4580 0.7276
vn 0.0239 -0.9632 0.2678
vn 0.6742 0.0423 -0.7373
vn 0.3269 -0.7655 -0.5543
vn 0.6743 0.0423 -0.7373
vn -0.2892 0.9529 0.0914
vn -0.5108 -0.4579 0.7276
vt 0.530319 0.611839
vt 0.522446 0.618118
vt 0.524872 0.613083
vt 0.524872 0.623154
vt 0.534683 0.615326
vt 0.530319 0.624397
vt 0.534683 0.620918
vt 0.537079 0.671494
vt 0.541916 0.669548
vt 0.539566 0.672157
vt 0.536179 0.669609
vt 0.539856 0.666756
vt 0.536224 0.667854
vt 0.537567 0.666748
vt 0.534592 0.666855
vt 0.534012 0.669838
vt 0.530777 0.669685
vt 0.535187 0.673050
vt 0.531769 0.674789
vt 0.525803 0.669067
vt 0.526108 0.676537
vt 0.539017 0.675606
vt 0.536011 0.680244
vt 0.529755 0.684982
vt 0.547180 0.674767
vt 0.546982 0.686485
vt 0.537415 0.696274
vt 0.547180 0.658051
vt 0.540527 0.663902
vt 0.539825 0.659698
vt 0.546280 0.665543
vt 0.543762 0.651657
vt 0.537613 0.655174
vt 0.536758 0.664742
vt 0.535126 0.661980
vt 0.532364 0.658463
vt 0.532074 0.665283
vt 0.528198 0.662933
vt 0.523743 0.660286
vt 0.519989 0.668175
vt 0.535217 0.651588
vt 0.529327 0.654999
vt 0.522873 0.688484
vt 0.528320 0.699394
vt 0.519577 0.678001
vt 0.540466 0.648293
vt 0.604446 0.642853
vt 0.626221 0.647896
vt 0.604553 0.648445
vt 0.626144 0.642670
vt 0.604553 0.631676
vt 0.626144 0.637444
vt 0.604446 0.637268
vt 0.626221 0.632225
vt 0.605011 0.620506
vt 0.626404 0.626999
vt 0.604736 0.626091
vt 0.626663 0.621780
vt 0.626404 0.653114
vt 0.604736 0.654030
vt 0.626663 0.658333
vt 0.605011 0.659607
s 0
usemtl decorations
f 240/1/1 239/2/1 238/3/1
f 237/1/1 236/4/1 235/2/1
f 234/5/1 233/4/1 232/1/1
f 231/5/1 230/6/1 229/4/1
f 228/6/1 227/5/1 226/7/1
s 1
f 225/8/2 224/9/3 223/10/4
f 222/11/5 221/9/6 220/8/2
f 219/11/7 218/12/8 217/9/3
f 216/13/9 215/12/8 214/11/10
f 213/12/8 212/13/9 211/14/11
f 210/15/12 209/11/10 208/16/13
f 207/15/12 206/13/9 205/11/10
f 204/17/14 203/18/15 202/19/16
f 201/17/17 200/16/18 199/18/19
f 198/20/20 197/19/21 196/21/22
f 195/20/20 194/17/17 193/19/16
f 192/19/16 191/22/23 190/23/24
f 189/19/16 188/18/25 187/22/23
f 186/21/26 185/23/27 184/24/28
f 183/21/26 3/19/21 182/23/27
f 181/23/24 180/25/29 179/26/30
f 178/23/24 177/22/23 176/25/31
f 175/24/32 174/26/30 173/27/33
f 172/24/32 4/23/24 171/26/30
f 170/28/34 169/29/35 168/30/36
f 167/28/30 166/31/29 165/29/35
f 164/32/37 163/30/38 162/33/39
f 161/32/37 13/28/30 160/30/40
f 159/30/36 158/34/41 157/35/42
f 156/30/36 155/29/43 154/34/41
f 153/33/44 152/35/45 151/36/46
f 150/33/44 14/30/36 149/35/45
f 148/35/45 147/15/47 146/37/48
f 145/35/45 144/34/49 143/15/50
f 142/36/51 141/37/52 140/38/53
f 139/36/51 16/35/45 138/37/52
f 137/37/52 136/16/13 135/17/54
f 134/37/48 133/15/12 132/16/13
f 131/38/55 130/17/14 129/20/56
f 128/38/57 36/37/58 25/17/14
f 127/39/59 126/20/56 125/40/60
f 124/39/59 123/38/53 122/20/56
f 121/41/61 120/36/62 119/42/63
f 118/41/61 117/33/44 116/36/62
f 115/43/64 114/27/33 113/44/65
f 112/43/66 111/24/32 110/27/33
f 109/40/60 108/21/67 107/45/68
f 106/40/60 40/20/20 105/21/67
f 104/42/63 103/38/53 102/39/59
f 101/42/63 41/36/62 42/38/53
f 100/46/69 99/33/70 98/41/71
f 97/46/65 37/32/37 38/33/70
f 96/45/72 95/24/73 94/43/66
f 93/45/68 33/21/67 34/24/73
f 92/29/43 91/14/11 90/34/41
f 89/29/43 88/12/74 87/14/11
f 86/22/23 85/9/3 84/25/31
f 83/22/23 82/10/4 81/9/6
f 80/16/18 79/8/2 78/18/19
f 29/16/75 30/11/5 77/8/2
f 76/31/31 75/12/8 28/29/35
f 31/31/31 26/9/6 27/12/74
f 74/18/15 73/10/76 24/22/23
f 21/18/77 22/8/2 23/10/4
f 72/34/41 71/13/9 20/15/12
f 17/34/41 18/14/11 19/13/9
f 70/47/78 69/48/79 68/49/80
f 67/47/78 66/50/60 65/48/81
f 64/51/82 63/52/59 62/53/83
f 61/51/84 60/54/63 59/52/59
f 58/55/85 57/56/61 56/57/86
f 55/55/87 54/58/65 53/56/71
f 52/49/80 51/59/64 50/60/88
f 2/49/89 32/48/68 49/59/66
f 48/53/90 47/50/91 12/47/78
f 9/53/92 10/52/59 11/50/60
f 46/57/86 45/54/63 8/51/84
f 5/57/93 6/56/61 7/54/63
f 44/60/94 43/61/69 15/62/85
f 1/60/94 35/59/66 39/61/65
