# Blender 5.0.0
# www.blender.org
mtllib Circle_005_Circle_003_Dupli_49_decorations_0.mtl
o Circle.005|Circle.003|Dupli|49_decorations_0
v -4.662962 1.047512 0.761548
v -4.662925 1.046751 0.762732
v -4.656322 1.050251 0.765130
v -4.656375 1.051336 0.763440
v -4.661810 1.045998 0.759868
v -4.657024 1.048241 0.761257
v -4.656723 1.047180 0.761976
v -4.661488 1.044864 0.760638
v -4.661743 1.044627 0.762003
v -4.656961 1.046959 0.763252
v -4.657559 1.047745 0.764123
v -4.662383 1.045467 0.762935
v -4.655666 1.050858 0.761622
v -4.654730 1.049177 0.761044
v -4.662466 1.047177 0.760273
v -4.654271 1.047558 0.762142
v -4.653191 1.048473 0.762696
v -4.652631 1.049357 0.763246
v -4.652824 1.049178 0.764280
v -4.653486 1.048198 0.764280
v -4.654859 1.050664 0.765127
v -4.653720 1.050787 0.764833
v -4.653748 1.051364 0.763936
v -4.654902 1.051547 0.763752
v -4.655548 1.048420 0.765419
v -4.653372 1.051110 0.762970
v -4.652875 1.050217 0.762663
v -4.653564 1.049790 0.761802
v -4.654229 1.049173 0.765362
v -4.653309 1.049815 0.764987
v -4.654326 1.051158 0.762272
v -4.658067 1.048945 0.763934
v -4.657499 1.049511 0.764531
v -4.657545 1.050450 0.763068
v -4.658102 1.049656 0.762827
v -4.654635 1.047221 0.764090
v -4.656932 1.050036 0.761494
v -4.656121 1.048581 0.760994
v -4.657637 1.049343 0.761635
v -4.656829 1.047925 0.764781
v -4.655724 1.047180 0.761945
v -4.656039 1.046888 0.763630
v -4.657637 1.049343 0.761635
v -4.662962 1.047512 0.761548
v -4.656723 1.047180 0.761976
v -4.661810 1.045998 0.759868
v -4.657559 1.047745 0.764123
v -4.661743 1.044627 0.762003
v -4.658102 1.049656 0.762827
v -4.662962 1.047512 0.761548
v -4.658102 1.049656 0.762827
v -4.662925 1.046751 0.762732
v -4.657024 1.048241 0.761257
v -4.657637 1.049343 0.761635
v -4.662466 1.047177 0.760273
v -4.661810 1.045998 0.759868
v -4.657024 1.048241 0.761257
v -4.662466 1.047177 0.760273
v -4.656961 1.046959 0.763252
v -4.656723 1.047180 0.761976
v -4.661488 1.044864 0.760638
v -4.661743 1.044627 0.762003
v -4.656961 1.046959 0.763252
v -4.661488 1.044864 0.760638
v -4.658067 1.048945 0.763934
v -4.657559 1.047745 0.764123
v -4.662383 1.045467 0.762935
v -4.662925 1.046751 0.762732
v -4.658067 1.048945 0.763934
v -4.662383 1.045467 0.762935
v -4.652824 1.049178 0.764280
v -4.653191 1.048473 0.762696
v -4.653748 1.051364 0.763936
v -4.654859 1.050664 0.765127
v -4.652875 1.050217 0.762663
v -4.654326 1.051158 0.762272
v -4.653720 1.050787 0.764833
v -4.654859 1.050664 0.765127
v -4.653720 1.050787 0.764833
v -4.654229 1.049173 0.765362
v -4.653372 1.051110 0.762970
v -4.653748 1.051364 0.763936
v -4.654902 1.051547 0.763752
v -4.654326 1.051158 0.762272
v -4.653372 1.051110 0.762970
v -4.654902 1.051547 0.763752
v -4.652631 1.049357 0.763246
v -4.652875 1.050217 0.762663
v -4.653564 1.049790 0.761802
v -4.653191 1.048473 0.762696
v -4.652631 1.049357 0.763246
v -4.653564 1.049790 0.761802
v -4.658067 1.048945 0.763934
v -4.658102 1.049656 0.762827
v -4.657545 1.050450 0.763068
v -4.658067 1.048945 0.763934
v -4.657637 1.049343 0.761635
v -4.657024 1.048241 0.761257
v -4.656121 1.048581 0.760994
v -4.657637 1.049343 0.761635
v -4.656723 1.047180 0.761976
v -4.656961 1.046959 0.763252
v -4.656039 1.046888 0.763630
v -4.656723 1.047180 0.761976
v -4.657499 1.049511 0.764531
v -4.657559 1.047745 0.764123
v -4.658067 1.048945 0.763934
v -4.657499 1.049511 0.764531
v -4.657559 1.047745 0.764123
v -4.656932 1.050036 0.761494
v -4.657545 1.050450 0.763068
v -4.658102 1.049656 0.762827
v -4.657637 1.049343 0.761635
v -4.656932 1.050036 0.761494
v -4.658102 1.049656 0.762827
v -4.655724 1.047180 0.761945
v -4.656121 1.048581 0.760994
v -4.657024 1.048241 0.761257
v -4.656723 1.047180 0.761976
v -4.655724 1.047180 0.761945
v -4.657024 1.048241 0.761257
v -4.656829 1.047925 0.764781
v -4.656039 1.046888 0.763630
v -4.656961 1.046959 0.763252
v -4.657559 1.047745 0.764123
v -4.656829 1.047925 0.764781
v -4.656961 1.046959 0.763252
v -4.656039 1.046888 0.763630
v -4.656829 1.047925 0.764781
v -4.655548 1.048420 0.765419
v -4.656039 1.046888 0.763630
v -4.654229 1.049173 0.765362
v -4.653486 1.048198 0.764280
v -4.654635 1.047221 0.764090
v -4.655548 1.048420 0.765419
v -4.654229 1.049173 0.765362
v -4.654635 1.047221 0.764090
v -4.654635 1.047221 0.764090
v -4.655724 1.047180 0.761945
v -4.656039 1.046888 0.763630
v -4.654635 1.047221 0.764090
v -4.655724 1.047180 0.761945
v -4.653486 1.048198 0.764280
v -4.653191 1.048473 0.762696
v -4.654271 1.047558 0.762142
v -4.654635 1.047221 0.764090
v -4.653486 1.048198 0.764280
v -4.654271 1.047558 0.762142
v -4.654271 1.047558 0.762142
v -4.656121 1.048581 0.760994
v -4.655724 1.047180 0.761945
v -4.654271 1.047558 0.762142
v -4.656121 1.048581 0.760994
v -4.653191 1.048473 0.762696
v -4.653564 1.049790 0.761802
v -4.654730 1.049177 0.761044
v -4.654271 1.047558 0.762142
v -4.653191 1.048473 0.762696
v -4.654730 1.049177 0.761044
v -4.654730 1.049177 0.761044
v -4.656932 1.050036 0.761494
v -4.656121 1.048581 0.760994
v -4.654730 1.049177 0.761044
v -4.656932 1.050036 0.761494
v -4.653564 1.049790 0.761802
v -4.654326 1.051158 0.762272
v -4.655666 1.050858 0.761622
v -4.654730 1.049177 0.761044
v -4.653564 1.049790 0.761802
v -4.655666 1.050858 0.761622
v -4.655666 1.050858 0.761622
v -4.657545 1.050450 0.763068
v -4.656932 1.050036 0.761494
v -4.655666 1.050858 0.761622
v -4.657545 1.050450 0.763068
v -4.654326 1.051158 0.762272
v -4.654902 1.051547 0.763752
v -4.656375 1.051336 0.763440
v -4.655666 1.050858 0.761622
v -4.654326 1.051158 0.762272
v -4.656375 1.051336 0.763440
v -4.656375 1.051336 0.763440
v -4.657499 1.049511 0.764531
v -4.657545 1.050450 0.763068
v -4.656375 1.051336 0.763440
v -4.657499 1.049511 0.764531
v -4.654902 1.051547 0.763752
v -4.654859 1.050664 0.765127
v -4.656322 1.050251 0.765130
v -4.656375 1.051336 0.763440
v -4.654902 1.051547 0.763752
v -4.656322 1.050251 0.765130
v -4.656322 1.050251 0.765130
v -4.655548 1.048420 0.765419
v -4.656829 1.047925 0.764781
v -4.657499 1.049511 0.764531
v -4.656322 1.050251 0.765130
v -4.656829 1.047925 0.764781
v -4.654859 1.050664 0.765127
v -4.654229 1.049173 0.765362
v -4.655548 1.048420 0.765419
v -4.656322 1.050251 0.765130
v -4.654859 1.050664 0.765127
v -4.655548 1.048420 0.765419
v -4.653309 1.049815 0.764987
v -4.652824 1.049178 0.764280
v -4.653486 1.048198 0.764280
v -4.654229 1.049173 0.765362
v -4.653309 1.049815 0.764987
v -4.653486 1.048198 0.764280
v -4.652631 1.049357 0.763246
v -4.652824 1.049178 0.764280
v -4.652875 1.050217 0.762663
v -4.653309 1.049815 0.764987
v -4.652875 1.050217 0.762663
v -4.652824 1.049178 0.764280
v -4.653372 1.051110 0.762970
v -4.652875 1.050217 0.762663
v -4.653309 1.049815 0.764987
v -4.653720 1.050787 0.764833
v -4.653372 1.051110 0.762970
v -4.653309 1.049815 0.764987
v -4.653748 1.051364 0.763936
v -4.653372 1.051110 0.762970
v -4.653720 1.050787 0.764833
v -4.661488 1.044864 0.760638
v -4.661810 1.045998 0.759868
v -4.661743 1.044627 0.762003
v -4.662383 1.045467 0.762935
v -4.661743 1.044627 0.762003
v -4.661810 1.045998 0.759868
v -4.662466 1.047177 0.760273
v -4.662383 1.045467 0.762935
v -4.661810 1.045998 0.759868
v -4.662925 1.046751 0.762732
v -4.662383 1.045467 0.762935
v -4.662466 1.047177 0.760273
v -4.662962 1.047512 0.761548
v -4.662925 1.046751 0.762732
v -4.662466 1.047177 0.760273
vn -0.8812 -0.4098 -0.2355
vn 0.4945 0.5797 0.6476
vn 0.6541 0.7276 -0.2068
vn 0.4816 0.8440 0.2361
vn 0.6831 0.1337 0.7180
vn 0.4945 0.5797 0.6477
vn 0.6830 0.1337 0.7180
vn 0.8821 0.3181 -0.3475
vn 0.6541 0.7276 -0.2069
vn 0.9053 -0.1581 0.3942
vn 0.9053 -0.1581 0.3943
vn 0.9939 -0.0761 -0.0799
vn 0.6471 -0.6367 0.4195
vn 0.2873 -0.1642 0.9437
vn -0.0460 -0.3473 0.9366
vn -0.0181 0.5579 0.8297
vn -0.3801 0.4431 0.8119
vn -0.0459 -0.3473 0.9366
vn 0.2872 -0.1642 0.9437
vn -0.0180 0.5579 0.8297
vn -0.3720 -0.4800 0.7945
vn -0.6868 0.2646 0.6770
vn -0.0389 0.9858 0.1634
vn -0.4030 0.9115 0.0825
vn -0.6868 0.2646 0.6769
vn -0.4030 0.9115 0.0826
vn -0.7083 0.7058 -0.0101
vn 0.2403 0.7973 -0.5536
vn -0.0973 0.7052 -0.7023
vn 0.2404 0.7974 -0.5536
vn -0.7083 0.7058 -0.0102
vn -0.4203 0.5115 -0.7495
vn -0.0973 0.7051 -0.7024
vn 0.6095 0.1344 -0.7813
vn 0.3068 -0.0204 -0.9516
vn 0.2404 0.7973 -0.5536
vn -0.4203 0.5114 -0.7495
vn 0.3067 -0.0205 -0.9516
vn -0.0397 -0.1721 -0.9843
vn 0.7905 -0.5037 -0.3483
vn 0.5049 -0.7190 -0.4776
vn 0.7905 -0.5038 -0.3483
vn 0.5049 -0.7190 -0.4775
vn 0.1470 -0.8302 -0.5377
vn 0.5049 -0.7191 -0.4775
vn 0.6471 -0.6367 0.4194
vn 0.3479 -0.8645 0.3628
vn 0.1469 -0.8302 -0.5377
vn -0.0009 -0.9672 0.2539
vn 0.3480 -0.8645 0.3628
vn -0.0010 -0.9672 0.2539
vn 0.0737 -0.9571 0.2804
vn -0.3068 -0.4575 0.8346
vn 0.0737 -0.9571 0.2803
vn 0.0340 -0.1418 -0.9893
vn 0.1470 -0.8302 -0.5378
vn 0.2254 -0.8166 -0.5314
vn -0.0398 -0.1721 -0.9843
vn -0.6516 0.7585 0.0096
vn -0.3563 0.5592 -0.7486
vn -0.3067 -0.4575 0.8347
vn -0.6296 0.3060 0.7142
vn -0.3067 -0.4575 0.8346
vn -0.3563 0.5592 -0.7485
vn -0.6295 0.3060 0.7142
vn 0.9939 -0.0761 -0.0800
vn 0.6095 0.1343 -0.7813
vn 0.8821 0.3181 -0.3474
vn -0.0389 0.9858 0.1633
vn 0.7905 -0.5038 -0.3482
vn -0.0623 -0.3550 0.9328
vn -0.3966 0.4357 0.8080
vn -0.0622 -0.3550 0.9328
vn 0.4889 -0.7270 -0.4821
vn 0.3318 -0.8725 0.3586
vn -0.1136 0.6979 -0.7071
vn 0.2906 -0.0280 -0.9564
vn -0.1136 0.6980 -0.7071
vn -0.4195 0.9044 0.0783
vn -0.3966 0.4358 0.8080
vn -0.0623 -0.3551 0.9328
vn 0.2907 -0.0280 -0.9564
vn -0.4195 0.9044 0.0782
vt 0.530319 0.611839
vt 0.522446 0.618118
vt 0.524872 0.613083
vt 0.524872 0.623154
vt 0.534683 0.615326
vt 0.530319 0.624397
vt 0.534683 0.620918
vt 0.537079 0.671494
vt 0.541916 0.669548
vt 0.539566 0.672157
vt 0.536179 0.669609
vt 0.539856 0.666756
vt 0.536224 0.667854
vt 0.537567 0.666748
vt 0.534592 0.666855
vt 0.534012 0.669838
vt 0.530777 0.669685
vt 0.535187 0.673050
vt 0.531769 0.674789
vt 0.525803 0.669067
vt 0.526108 0.676537
vt 0.539017 0.675606
vt 0.536011 0.680244
vt 0.529755 0.684982
vt 0.547180 0.674767
vt 0.546982 0.686485
vt 0.537415 0.696274
vt 0.547180 0.658051
vt 0.540527 0.663902
vt 0.539825 0.659698
vt 0.546280 0.665543
vt 0.543762 0.651657
vt 0.537613 0.655174
vt 0.536758 0.664742
vt 0.535126 0.661980
vt 0.532364 0.658463
vt 0.532074 0.665283
vt 0.528198 0.662933
vt 0.523743 0.660286
vt 0.519989 0.668175
vt 0.535217 0.651588
vt 0.529327 0.654999
vt 0.522873 0.688484
vt 0.528320 0.699394
vt 0.519577 0.678001
vt 0.540466 0.648293
vt 0.604446 0.642853
vt 0.626221 0.647896
vt 0.604553 0.648445
vt 0.626144 0.642670
vt 0.604553 0.631676
vt 0.626144 0.637444
vt 0.604446 0.637268
vt 0.626221 0.632225
vt 0.605011 0.620506
vt 0.626404 0.626999
vt 0.604736 0.626091
vt 0.626663 0.621780
vt 0.626404 0.653114
vt 0.604736 0.654030
vt 0.626663 0.658333
vt 0.605011 0.659607
s 0
usemtl decorations
f 240/1/1 239/2/1 238/3/1
f 237/1/1 236/4/1 235/2/1
f 234/5/1 233/4/1 232/1/1
f 231/5/1 230/6/1 229/4/1
f 228/6/1 227/5/1 226/7/1
s 1
f 225/8/2 224/9/3 223/10/4
f 222/11/5 221/9/3 220/8/6
f 219/11/7 218/12/8 217/9/9
f 216/13/10 215/12/8 214/11/7
f 213/12/8 212/13/11 211/14/12
f 210/15/13 209/11/7 208/16/14
f 207/15/13 206/13/10 205/11/5
f 204/17/15 203/18/16 202/19/17
f 201/17/18 200/16/19 199/18/20
f 198/20/21 197/19/17 196/21/22
f 195/20/21 194/17/18 193/19/17
f 192/19/17 191/22/23 190/23/24
f 189/19/17 188/18/16 187/22/23
f 186/21/25 185/23/26 184/24/27
f 183/21/22 3/19/17 182/23/26
f 181/23/24 180/25/28 179/26/29
f 178/23/24 177/22/23 176/25/30
f 175/24/31 174/26/29 173/27/32
f 172/24/27 4/23/24 171/26/29
f 170/28/33 169/29/34 168/30/35
f 167/28/33 166/31/36 165/29/34
f 164/32/37 163/30/38 162/33/39
f 161/32/37 13/28/29 160/30/35
f 159/30/35 158/34/40 157/35/41
f 156/30/35 155/29/34 154/34/42
f 153/33/39 152/35/43 151/36/44
f 150/33/39 14/30/35 149/35/43
f 148/35/45 147/15/46 146/37/47
f 145/35/45 144/34/42 143/15/46
f 142/36/48 141/37/47 140/38/49
f 139/36/48 16/35/45 138/37/47
f 137/37/47 136/16/14 135/17/15
f 134/37/50 133/15/46 132/16/14
f 131/38/51 130/17/15 129/20/21
f 128/38/51 36/37/47 25/17/15
f 127/39/52 126/20/21 125/40/53
f 124/39/54 123/38/49 122/20/21
f 121/41/55 120/36/56 119/42/57
f 118/41/55 117/33/58 116/36/56
f 115/43/59 114/27/32 113/44/60
f 112/43/59 111/24/27 110/27/32
f 109/40/61 108/21/22 107/45/62
f 106/40/63 40/20/21 105/21/22
f 104/42/57 103/38/49 102/39/54
f 101/42/57 41/36/44 42/38/49
f 100/46/60 99/33/39 98/41/55
f 97/46/64 37/32/37 38/33/39
f 96/45/65 95/24/27 94/43/59
f 93/45/65 33/21/22 34/24/27
f 92/29/34 91/14/66 90/34/42
f 89/29/67 88/12/68 87/14/12
f 86/22/23 85/9/3 84/25/30
f 83/22/69 82/10/4 81/9/3
f 80/16/19 79/8/2 78/18/20
f 29/16/19 30/11/5 77/8/2
f 76/31/36 75/12/68 28/29/34
f 31/31/36 26/9/3 27/12/68
f 74/18/16 73/10/4 24/22/23
f 21/18/16 22/8/2 23/10/4
f 72/34/70 71/13/10 20/15/46
f 17/34/70 18/14/12 19/13/10
f 70/47/71 69/48/65 68/49/72
f 67/47/73 66/50/63 65/48/65
f 64/51/74 63/52/54 62/53/75
f 61/51/74 60/54/57 59/52/54
f 58/55/76 57/56/55 56/57/77
f 55/55/78 54/58/64 53/56/55
f 52/49/72 51/59/59 50/60/79
f 2/49/80 32/48/62 49/59/59
f 48/53/75 47/50/61 12/47/81
f 9/53/75 10/52/54 11/50/53
f 46/57/77 45/54/57 8/51/74
f 5/57/82 6/56/55 7/54/57
f 44/60/83 43/61/64 15/62/78
f 1/60/83 35/59/59 39/61/64
