# Blender 5.0.0
# www.blender.org
mtllib Circle_001_decorations_0.mtl
o Circle.001_decorations_0
v -4.326199 0.302200 0.286764
v -4.326783 0.302200 0.284204
v -4.325774 0.316781 0.283398
v -4.324940 0.316781 0.287052
v -4.330463 0.302200 0.288818
v -4.330378 0.312389 0.288640
v -4.331908 0.312389 0.286720
v -4.332100 0.302200 0.286764
v -4.331516 0.302200 0.284204
v -4.331362 0.312389 0.284326
v -4.329150 0.312389 0.283261
v -4.329150 0.302200 0.283064
v -4.327276 0.316781 0.289981
v -4.331023 0.316781 0.289981
v -4.327837 0.302200 0.288818
v -4.333360 0.316781 0.287052
v -4.332576 0.319499 0.286873
v -4.331386 0.321337 0.286601
v -4.330943 0.321337 0.284661
v -4.331897 0.319499 0.283900
v -4.326402 0.319499 0.283900
v -4.327357 0.321337 0.284661
v -4.326914 0.321337 0.286601
v -4.325724 0.319499 0.286873
v -4.329150 0.316781 0.281772
v -4.328155 0.321337 0.288157
v -4.330145 0.321337 0.288157
v -4.330674 0.319499 0.289257
v -4.329150 0.319499 0.282577
v -4.329150 0.321337 0.283797
v -4.327625 0.319499 0.289257
v -4.326938 0.312389 0.284326
v -4.326228 0.314017 0.283760
v -4.325506 0.314017 0.286922
v -4.326391 0.312389 0.286720
v -4.332526 0.316781 0.283398
v -4.327528 0.314017 0.289458
v -4.330771 0.314017 0.289458
v -4.327922 0.312389 0.288640
v -4.329150 0.314017 0.282353
v -4.332794 0.314017 0.286922
v -4.332072 0.314017 0.283760
v -4.327922 0.312389 0.288640
v -4.326199 0.302200 0.286764
v -4.331908 0.312389 0.286720
v -4.330463 0.302200 0.288818
v -4.329150 0.312389 0.283261
v -4.331516 0.302200 0.284204
v -4.326391 0.312389 0.286720
v -4.326199 0.302200 0.286764
v -4.326391 0.312389 0.286720
v -4.326783 0.302200 0.284204
v -4.330378 0.312389 0.288640
v -4.327922 0.312389 0.288640
v -4.327837 0.302200 0.288818
v -4.330463 0.302200 0.288818
v -4.330378 0.312389 0.288640
v -4.327837 0.302200 0.288818
v -4.331362 0.312389 0.284326
v -4.331908 0.312389 0.286720
v -4.332100 0.302200 0.286764
v -4.331516 0.302200 0.284204
v -4.331362 0.312389 0.284326
v -4.332100 0.302200 0.286764
v -4.326938 0.312389 0.284326
v -4.329150 0.312389 0.283261
v -4.329150 0.302200 0.283064
v -4.326783 0.302200 0.284204
v -4.326938 0.312389 0.284326
v -4.329150 0.302200 0.283064
v -4.330943 0.321337 0.284661
v -4.332576 0.319499 0.286873
v -4.326914 0.321337 0.286601
v -4.326402 0.319499 0.283900
v -4.330145 0.321337 0.288157
v -4.327625 0.319499 0.289257
v -4.327357 0.321337 0.284661
v -4.326402 0.319499 0.283900
v -4.327357 0.321337 0.284661
v -4.329150 0.319499 0.282577
v -4.328155 0.321337 0.288157
v -4.326914 0.321337 0.286601
v -4.325724 0.319499 0.286873
v -4.327625 0.319499 0.289257
v -4.328155 0.321337 0.288157
v -4.325724 0.319499 0.286873
v -4.331386 0.321337 0.286601
v -4.330145 0.321337 0.288157
v -4.330674 0.319499 0.289257
v -4.332576 0.319499 0.286873
v -4.331386 0.321337 0.286601
v -4.330674 0.319499 0.289257
v -4.326938 0.312389 0.284326
v -4.326391 0.312389 0.286720
v -4.325506 0.314017 0.286922
v -4.326938 0.312389 0.284326
v -4.327922 0.312389 0.288640
v -4.330378 0.312389 0.288640
v -4.330771 0.314017 0.289458
v -4.327922 0.312389 0.288640
v -4.331908 0.312389 0.286720
v -4.331362 0.312389 0.284326
v -4.332072 0.314017 0.283760
v -4.331908 0.312389 0.286720
v -4.326228 0.314017 0.283760
v -4.329150 0.312389 0.283261
v -4.326938 0.312389 0.284326
v -4.326228 0.314017 0.283760
v -4.329150 0.312389 0.283261
v -4.327528 0.314017 0.289458
v -4.325506 0.314017 0.286922
v -4.326391 0.312389 0.286720
v -4.327922 0.312389 0.288640
v -4.327528 0.314017 0.289458
v -4.326391 0.312389 0.286720
v -4.332794 0.314017 0.286922
v -4.330771 0.314017 0.289458
v -4.330378 0.312389 0.288640
v -4.331908 0.312389 0.286720
v -4.332794 0.314017 0.286922
v -4.330378 0.312389 0.288640
v -4.329150 0.314017 0.282353
v -4.332072 0.314017 0.283760
v -4.331362 0.312389 0.284326
v -4.329150 0.312389 0.283261
v -4.329150 0.314017 0.282353
v -4.331362 0.312389 0.284326
v -4.332072 0.314017 0.283760
v -4.329150 0.314017 0.282353
v -4.329150 0.316781 0.281772
v -4.332072 0.314017 0.283760
v -4.329150 0.319499 0.282577
v -4.331897 0.319499 0.283900
v -4.332526 0.316781 0.283398
v -4.329150 0.316781 0.281772
v -4.329150 0.319499 0.282577
v -4.332526 0.316781 0.283398
v -4.332526 0.316781 0.283398
v -4.332794 0.314017 0.286922
v -4.332072 0.314017 0.283760
v -4.332526 0.316781 0.283398
v -4.332794 0.314017 0.286922
v -4.331897 0.319499 0.283900
v -4.332576 0.319499 0.286873
v -4.333360 0.316781 0.287052
v -4.332526 0.316781 0.283398
v -4.331897 0.319499 0.283900
v -4.333360 0.316781 0.287052
v -4.333360 0.316781 0.287052
v -4.330771 0.314017 0.289458
v -4.332794 0.314017 0.286922
v -4.333360 0.316781 0.287052
v -4.330771 0.314017 0.289458
v -4.332576 0.319499 0.286873
v -4.330674 0.319499 0.289257
v -4.331023 0.316781 0.289981
v -4.333360 0.316781 0.287052
v -4.332576 0.319499 0.286873
v -4.331023 0.316781 0.289981
v -4.331023 0.316781 0.289981
v -4.327528 0.314017 0.289458
v -4.330771 0.314017 0.289458
v -4.331023 0.316781 0.289981
v -4.327528 0.314017 0.289458
v -4.330674 0.319499 0.289257
v -4.327625 0.319499 0.289257
v -4.327276 0.316781 0.289981
v -4.331023 0.316781 0.289981
v -4.330674 0.319499 0.289257
v -4.327276 0.316781 0.289981
v -4.327276 0.316781 0.289981
v -4.325506 0.314017 0.286922
v -4.327528 0.314017 0.289458
v -4.327276 0.316781 0.289981
v -4.325506 0.314017 0.286922
v -4.327625 0.319499 0.289257
v -4.325724 0.319499 0.286873
v -4.324940 0.316781 0.287052
v -4.327276 0.316781 0.289981
v -4.327625 0.319499 0.289257
v -4.324940 0.316781 0.287052
v -4.324940 0.316781 0.287052
v -4.326228 0.314017 0.283760
v -4.325506 0.314017 0.286922
v -4.324940 0.316781 0.287052
v -4.326228 0.314017 0.283760
v -4.325724 0.319499 0.286873
v -4.326402 0.319499 0.283900
v -4.325774 0.316781 0.283398
v -4.324940 0.316781 0.287052
v -4.325724 0.319499 0.286873
v -4.325774 0.316781 0.283398
v -4.325774 0.316781 0.283398
v -4.329150 0.316781 0.281772
v -4.329150 0.314017 0.282353
v -4.326228 0.314017 0.283760
v -4.325774 0.316781 0.283398
v -4.329150 0.314017 0.282353
v -4.326402 0.319499 0.283900
v -4.329150 0.319499 0.282577
v -4.329150 0.316781 0.281772
v -4.325774 0.316781 0.283398
v -4.326402 0.319499 0.283900
v -4.329150 0.316781 0.281772
v -4.329150 0.321337 0.283797
v -4.330943 0.321337 0.284661
v -4.331897 0.319499 0.283900
v -4.329150 0.319499 0.282577
v -4.329150 0.321337 0.283797
v -4.331897 0.319499 0.283900
v -4.331386 0.321337 0.286601
v -4.330943 0.321337 0.284661
v -4.330145 0.321337 0.288157
v -4.329150 0.321337 0.283797
v -4.330145 0.321337 0.288157
v -4.330943 0.321337 0.284661
v -4.328155 0.321337 0.288157
v -4.330145 0.321337 0.288157
v -4.329150 0.321337 0.283797
v -4.327357 0.321337 0.284661
v -4.328155 0.321337 0.288157
v -4.329150 0.321337 0.283797
v -4.326914 0.321337 0.286601
v -4.328155 0.321337 0.288157
v -4.327357 0.321337 0.284661
v -4.332100 0.302200 0.286764
v -4.330463 0.302200 0.288818
v -4.331516 0.302200 0.284204
v -4.329150 0.302200 0.283064
v -4.331516 0.302200 0.284204
v -4.330463 0.302200 0.288818
v -4.327837 0.302200 0.288818
v -4.329150 0.302200 0.283064
v -4.330463 0.302200 0.288818
v -4.326783 0.302200 0.284204
v -4.329150 0.302200 0.283064
v -4.327837 0.302200 0.288818
v -4.326199 0.302200 0.286764
v -4.326783 0.302200 0.284204
v -4.327837 0.302200 0.288818
vn -0.0000 -1.0000 -0.0000
vn 0.4409 0.8259 -0.3515
vn 0.2446 0.8259 0.5081
vn 0.5498 0.8259 0.1254
vn -0.0000 0.8259 -0.5639
vn 0.2447 0.8259 0.5080
vn 0.4409 0.8259 -0.3516
vn 0.0001 0.8259 -0.5639
vn -0.2447 0.8259 0.5080
vn -0.4409 0.8259 -0.3516
vn -0.4408 0.8259 -0.3516
vn -0.5498 0.8259 0.1254
vn -0.7137 0.4081 -0.5692
vn -0.0000 0.4082 -0.9129
vn -0.0000 0.0378 -0.9993
vn 0.7137 0.4081 -0.5692
vn 0.7813 0.0378 -0.6231
vn -0.0000 0.4081 -0.9129
vn 0.7137 0.4082 -0.5692
vn -0.0000 -0.3374 -0.9414
vn 0.7813 0.0378 -0.6230
vn 0.7360 -0.3373 -0.5869
vn 0.7813 0.0379 -0.6231
vn 0.8900 0.4082 0.2031
vn 0.9742 0.0378 0.2223
vn 0.7138 0.4081 -0.5692
vn 0.7360 -0.3374 -0.5869
vn 0.9742 0.0379 0.2223
vn 0.9178 -0.3373 0.2094
vn 0.3961 0.4081 0.8225
vn 0.4336 0.0378 0.9003
vn 0.8900 0.4081 0.2032
vn 0.3961 0.4082 0.8225
vn 0.9178 -0.3374 0.2095
vn 0.4084 -0.3373 0.8482
vn 0.9742 0.0378 0.2224
vn 0.4335 0.0378 0.9004
vn -0.3961 0.4081 0.8225
vn -0.4335 0.0378 0.9003
vn 0.4335 0.0378 0.9003
vn -0.3961 0.4082 0.8225
vn 0.4084 -0.3374 0.8482
vn -0.4336 0.0378 0.9003
vn -0.4084 -0.3373 0.8482
vn -0.4335 0.0379 0.9003
vn -0.8900 0.4082 0.2032
vn -0.9742 0.0378 0.2223
vn -0.4084 -0.3374 0.8481
vn -0.9178 -0.3373 0.2095
vn -0.7138 0.4081 -0.5692
vn -0.7813 0.0378 -0.6231
vn -0.8900 0.4081 0.2031
vn -0.7138 0.4082 -0.5692
vn -0.9178 -0.3374 0.2094
vn -0.7360 -0.3373 -0.5869
vn -0.7812 0.0378 -0.6231
vn -0.7813 0.0379 -0.6231
vn -0.7360 -0.3374 -0.5869
vn -0.0000 -0.3373 -0.9414
vn -0.7813 0.0378 -0.6230
vn -0.7547 -0.2612 -0.6019
vn -0.0000 -0.2612 -0.9653
vn -0.4188 -0.2611 0.8697
vn -0.9411 -0.2612 0.2148
vn -0.4188 -0.2612 0.8697
vn 0.9411 -0.2611 0.2148
vn 0.4085 -0.3373 0.8481
vn 0.4188 -0.2612 0.8697
vn 0.9411 -0.2612 0.2148
vn -0.0000 -0.2611 -0.9653
vn 0.7360 -0.3373 -0.5870
vn 0.7547 -0.2612 -0.6019
vn -0.9411 -0.2611 0.2148
vn -0.9178 -0.3374 0.2095
vn 0.4188 -0.2611 0.8697
vn -0.4084 -0.3374 0.8482
vn 0.7547 -0.2611 -0.6018
vn 0.9178 -0.3373 0.2095
vn -0.5497 0.8259 0.1254
vn -0.3962 0.4081 0.8225
vn -0.2446 0.8259 0.5080
vn -0.5498 0.8258 0.1254
vn 0.8900 0.4082 0.2032
vn 0.2446 0.8259 0.5080
vn 0.5498 0.8258 0.1254
vn 0.0001 0.4081 -0.9129
vn -0.0000 0.8258 -0.5639
vn 0.4408 0.8259 -0.3516
vn 0.5498 0.8258 0.1255
vn -0.8900 0.4082 0.2031
vn -0.7137 0.4082 -0.5692
vn -0.0000 0.0193 -0.9998
vn 0.7547 -0.2611 -0.6019
vn 0.7817 0.0193 -0.6234
vn -0.0000 0.0194 -0.9998
vn -0.9748 0.0193 0.2224
vn -0.7817 0.0193 -0.6234
vn -0.9748 0.0194 0.2224
vn 0.4337 0.0193 0.9008
vn -0.4189 -0.2612 0.8697
vn -0.4337 0.0193 0.9008
vn 0.4337 0.0194 0.9008
vn 0.9748 0.0193 0.2224
vn 0.7817 0.0194 -0.6234
vn -0.7817 0.0194 -0.6234
vn -0.4338 0.0193 0.9008
vn -0.9748 0.0193 0.2225
vn -0.4338 0.0194 0.9008
vn 0.9748 0.0193 0.2225
vn 0.4338 0.0193 0.9008
vn 0.9748 0.0194 0.2225
vt 0.543243 0.635056
vt 0.535370 0.641335
vt 0.537796 0.636299
vt 0.537796 0.646370
vt 0.547607 0.638535
vt 0.543243 0.647614
vt 0.547607 0.644127
vt 0.593674 0.671494
vt 0.598511 0.669548
vt 0.596146 0.672157
vt 0.592773 0.669609
vt 0.596436 0.666756
vt 0.592804 0.667854
vt 0.594147 0.666748
vt 0.591187 0.666855
vt 0.590591 0.669838
vt 0.587372 0.669685
vt 0.591782 0.673050
vt 0.588348 0.674789
vt 0.582382 0.669067
vt 0.582687 0.676537
vt 0.595596 0.675606
vt 0.592606 0.680244
vt 0.586334 0.684982
vt 0.603775 0.674767
vt 0.603561 0.686485
vt 0.594009 0.696274
vt 0.603775 0.658051
vt 0.597107 0.663902
vt 0.596405 0.659698
vt 0.602859 0.665543
vt 0.600342 0.651657
vt 0.594193 0.655174
vt 0.593353 0.664742
vt 0.591705 0.661980
vt 0.588959 0.658463
vt 0.588654 0.665283
vt 0.584778 0.662933
vt 0.580322 0.660286
vt 0.576584 0.668175
vt 0.591812 0.651588
vt 0.585907 0.654999
vt 0.579453 0.688484
vt 0.584915 0.699394
vt 0.576157 0.678001
vt 0.597061 0.648293
vt 0.627350 0.682632
vt 0.649124 0.687675
vt 0.627441 0.688225
vt 0.649033 0.682457
vt 0.627441 0.671455
vt 0.649033 0.677231
vt 0.627350 0.677048
vt 0.649124 0.672005
vt 0.627914 0.660294
vt 0.649292 0.666786
vt 0.627625 0.665871
vt 0.649551 0.661568
vt 0.649292 0.692902
vt 0.627625 0.693810
vt 0.649551 0.698120
vt 0.627914 0.699394
s 0
usemtl decorations
f 240/1/1 239/2/1 238/3/1
f 237/1/1 236/4/1 235/2/1
f 234/5/1 233/4/1 232/1/1
f 231/5/1 230/6/1 229/4/1
f 228/6/1 227/5/1 226/7/1
s 1
f 225/8/2 224/9/3 223/10/4
f 222/11/5 221/9/6 220/8/7
f 219/11/8 218/12/9 217/9/3
f 216/13/10 215/12/9 214/11/5
f 213/12/9 212/13/11 211/14/12
f 210/15/13 209/11/5 208/16/14
f 207/15/13 206/13/11 205/11/5
f 204/17/15 203/18/16 202/19/17
f 201/17/15 200/16/18 199/18/19
f 198/20/20 197/19/21 196/21/22
f 195/20/20 194/17/15 193/19/23
f 192/19/17 191/22/24 190/23/25
f 189/19/17 188/18/26 187/22/24
f 186/21/27 185/23/28 184/24/29
f 183/21/27 3/19/21 182/23/28
f 181/23/25 180/25/30 179/26/31
f 178/23/25 177/22/32 176/25/33
f 175/24/34 174/26/31 173/27/35
f 172/24/34 4/23/36 171/26/31
f 170/28/37 169/29/38 168/30/39
f 167/28/40 166/31/30 165/29/41
f 164/32/42 163/30/43 162/33/44
f 161/32/42 13/28/40 160/30/45
f 159/30/43 158/34/46 157/35/47
f 156/30/39 155/29/38 154/34/46
f 153/33/48 152/35/47 151/36/49
f 150/33/48 14/30/43 149/35/47
f 148/35/47 147/15/50 146/37/51
f 145/35/47 144/34/52 143/15/53
f 142/36/54 141/37/51 140/38/55
f 139/36/54 16/35/47 138/37/51
f 137/37/56 136/16/18 135/17/15
f 134/37/57 133/15/13 132/16/14
f 131/38/58 130/17/15 129/20/59
f 128/38/58 36/37/60 25/17/15
f 127/39/61 126/20/59 125/40/62
f 124/39/61 123/38/58 122/20/59
f 121/41/63 120/36/49 119/42/64
f 118/41/65 117/33/48 116/36/49
f 115/43/66 114/27/67 113/44/68
f 112/43/69 111/24/34 110/27/67
f 109/40/70 108/21/71 107/45/72
f 106/40/62 40/20/20 105/21/71
f 104/42/73 103/38/55 102/39/61
f 101/42/64 41/36/74 42/38/55
f 100/46/75 99/33/76 98/41/65
f 97/46/68 37/32/42 38/33/76
f 96/45/77 95/24/78 94/43/69
f 93/45/72 33/21/27 34/24/78
f 92/29/38 91/14/79 90/34/46
f 89/29/80 88/12/81 87/14/82
f 86/22/83 85/9/84 84/25/33
f 83/22/83 82/10/85 81/9/84
f 80/16/18 79/8/7 78/18/19
f 29/16/86 30/11/87 77/8/88
f 76/31/33 75/12/9 28/29/41
f 31/31/33 26/9/84 27/12/9
f 74/18/26 73/10/89 24/22/24
f 21/18/26 22/8/88 23/10/4
f 72/34/90 71/13/11 20/15/91
f 17/34/90 18/14/12 19/13/11
f 70/47/92 69/48/93 68/49/94
f 67/47/95 66/50/62 65/48/72
f 64/51/96 63/52/61 62/53/97
f 61/51/98 60/54/64 59/52/61
f 58/55/99 57/56/100 56/57/101
f 55/55/102 54/58/68 53/56/65
f 52/49/94 51/59/66 50/60/103
f 2/49/104 32/48/72 49/59/69
f 48/53/97 47/50/62 12/47/92
f 9/53/105 10/52/61 11/50/62
f 46/57/106 45/54/64 8/51/107
f 5/57/108 6/56/100 7/54/64
f 44/60/109 43/61/75 15/62/110
f 1/60/111 35/59/69 39/61/68
