# Blender 5.0.0
# www.blender.org
mtllib Circle_002_Circle_Dupli_71_decorations_0.mtl
o Circle.002|Circle|Dupli|71_decorations_0
v -4.306539 1.708105 0.566916
v -4.307043 1.707802 0.565637
v -4.303045 1.713695 0.562335
v -4.302327 1.714128 0.564161
v -4.308347 1.709591 0.567898
v -4.305809 1.713941 0.565776
v -4.306697 1.714000 0.564807
v -4.309298 1.709655 0.566860
v -4.309255 1.709044 0.565592
v -4.306658 1.713430 0.563621
v -4.305719 1.712659 0.563112
v -4.308252 1.708220 0.565047
v -4.303155 1.715264 0.565597
v -4.304906 1.716247 0.565561
v -4.307120 1.708901 0.567923
v -4.306262 1.716338 0.564081
v -4.305242 1.717275 0.563457
v -4.304256 1.717708 0.562966
v -4.304224 1.717246 0.562005
v -4.305192 1.716567 0.561984
v -4.302624 1.715124 0.562037
v -4.302547 1.716305 0.562039
v -4.302166 1.716535 0.563009
v -4.302039 1.715476 0.563522
v -4.304770 1.714291 0.561494
v -4.302606 1.717138 0.563771
v -4.303536 1.717660 0.563752
v -4.304138 1.717201 0.564661
v -4.304027 1.715609 0.561352
v -4.303463 1.716621 0.561593
v -4.302712 1.716401 0.564690
v -4.304590 1.712268 0.563663
v -4.303907 1.712685 0.563063
v -4.303285 1.713059 0.564643
v -4.304119 1.712552 0.564859
v -4.306201 1.715468 0.562271
v -4.304002 1.714042 0.565886
v -4.305518 1.714894 0.565855
v -4.304661 1.713296 0.565800
v -4.305399 1.713201 0.562335
v -4.306692 1.714972 0.564574
v -4.306639 1.714219 0.563007
v -4.304661 1.713296 0.565800
v -4.306539 1.708105 0.566916
v -4.306697 1.714000 0.564807
v -4.308347 1.709591 0.567898
v -4.305719 1.712659 0.563112
v -4.309255 1.709044 0.565592
v -4.304119 1.712552 0.564859
v -4.306539 1.708105 0.566916
v -4.304119 1.712552 0.564859
v -4.307043 1.707802 0.565637
v -4.305809 1.713941 0.565776
v -4.304661 1.713296 0.565800
v -4.307120 1.708901 0.567923
v -4.308347 1.709591 0.567898
v -4.305809 1.713941 0.565776
v -4.307120 1.708901 0.567923
v -4.306658 1.713430 0.563621
v -4.306697 1.714000 0.564807
v -4.309298 1.709655 0.566860
v -4.309255 1.709044 0.565592
v -4.306658 1.713430 0.563621
v -4.309298 1.709655 0.566860
v -4.304590 1.712268 0.563663
v -4.305719 1.712659 0.563112
v -4.308252 1.708220 0.565047
v -4.307043 1.707802 0.565637
v -4.304590 1.712268 0.563663
v -4.308252 1.708220 0.565047
v -4.304224 1.717246 0.562005
v -4.305242 1.717275 0.563457
v -4.302166 1.716535 0.563009
v -4.302624 1.715124 0.562037
v -4.303536 1.717660 0.563752
v -4.302712 1.716401 0.564690
v -4.302547 1.716305 0.562039
v -4.302624 1.715124 0.562037
v -4.302547 1.716305 0.562039
v -4.304027 1.715609 0.561352
v -4.302606 1.717138 0.563771
v -4.302166 1.716535 0.563009
v -4.302039 1.715476 0.563522
v -4.302712 1.716401 0.564690
v -4.302606 1.717138 0.563771
v -4.302039 1.715476 0.563522
v -4.304256 1.717708 0.562966
v -4.303536 1.717660 0.563752
v -4.304138 1.717201 0.564661
v -4.305242 1.717275 0.563457
v -4.304256 1.717708 0.562966
v -4.304138 1.717201 0.564661
v -4.304590 1.712268 0.563663
v -4.304119 1.712552 0.564859
v -4.303285 1.713059 0.564643
v -4.304590 1.712268 0.563663
v -4.304661 1.713296 0.565800
v -4.305809 1.713941 0.565776
v -4.305518 1.714894 0.565855
v -4.304661 1.713296 0.565800
v -4.306697 1.714000 0.564807
v -4.306658 1.713430 0.563621
v -4.306639 1.714219 0.563007
v -4.306697 1.714000 0.564807
v -4.303907 1.712685 0.563063
v -4.305719 1.712659 0.563112
v -4.304590 1.712268 0.563663
v -4.303907 1.712685 0.563063
v -4.305719 1.712659 0.563112
v -4.304002 1.714042 0.565886
v -4.303285 1.713059 0.564643
v -4.304119 1.712552 0.564859
v -4.304661 1.713296 0.565800
v -4.304002 1.714042 0.565886
v -4.304119 1.712552 0.564859
v -4.306692 1.714972 0.564574
v -4.305518 1.714894 0.565855
v -4.305809 1.713941 0.565776
v -4.306697 1.714000 0.564807
v -4.306692 1.714972 0.564574
v -4.305809 1.713941 0.565776
v -4.305399 1.713201 0.562335
v -4.306639 1.714219 0.563007
v -4.306658 1.713430 0.563621
v -4.305719 1.712659 0.563112
v -4.305399 1.713201 0.562335
v -4.306658 1.713430 0.563621
v -4.306639 1.714219 0.563007
v -4.305399 1.713201 0.562335
v -4.304770 1.714291 0.561494
v -4.306639 1.714219 0.563007
v -4.304027 1.715609 0.561352
v -4.305192 1.716567 0.561984
v -4.306201 1.715468 0.562271
v -4.304770 1.714291 0.561494
v -4.304027 1.715609 0.561352
v -4.306201 1.715468 0.562271
v -4.306201 1.715468 0.562271
v -4.306692 1.714972 0.564574
v -4.306639 1.714219 0.563007
v -4.306201 1.715468 0.562271
v -4.306692 1.714972 0.564574
v -4.305192 1.716567 0.561984
v -4.305242 1.717275 0.563457
v -4.306262 1.716338 0.564081
v -4.306201 1.715468 0.562271
v -4.305192 1.716567 0.561984
v -4.306262 1.716338 0.564081
v -4.306262 1.716338 0.564081
v -4.305518 1.714894 0.565855
v -4.306692 1.714972 0.564574
v -4.306262 1.716338 0.564081
v -4.305518 1.714894 0.565855
v -4.305242 1.717275 0.563457
v -4.304138 1.717201 0.564661
v -4.304906 1.716247 0.565561
v -4.306262 1.716338 0.564081
v -4.305242 1.717275 0.563457
v -4.304906 1.716247 0.565561
v -4.304906 1.716247 0.565561
v -4.304002 1.714042 0.565886
v -4.305518 1.714894 0.565855
v -4.304906 1.716247 0.565561
v -4.304002 1.714042 0.565886
v -4.304138 1.717201 0.564661
v -4.302712 1.716401 0.564690
v -4.303155 1.715264 0.565597
v -4.304906 1.716247 0.565561
v -4.304138 1.717201 0.564661
v -4.303155 1.715264 0.565597
v -4.303155 1.715264 0.565597
v -4.303285 1.713059 0.564643
v -4.304002 1.714042 0.565886
v -4.303155 1.715264 0.565597
v -4.303285 1.713059 0.564643
v -4.302712 1.716401 0.564690
v -4.302039 1.715476 0.563522
v -4.302327 1.714128 0.564161
v -4.303155 1.715264 0.565597
v -4.302712 1.716401 0.564690
v -4.302327 1.714128 0.564161
v -4.302327 1.714128 0.564161
v -4.303907 1.712685 0.563063
v -4.303285 1.713059 0.564643
v -4.302327 1.714128 0.564161
v -4.303907 1.712685 0.563063
v -4.302039 1.715476 0.563522
v -4.302624 1.715124 0.562037
v -4.303045 1.713695 0.562335
v -4.302327 1.714128 0.564161
v -4.302039 1.715476 0.563522
v -4.303045 1.713695 0.562335
v -4.303045 1.713695 0.562335
v -4.304770 1.714291 0.561494
v -4.305399 1.713201 0.562335
v -4.303907 1.712685 0.563063
v -4.303045 1.713695 0.562335
v -4.305399 1.713201 0.562335
v -4.302624 1.715124 0.562037
v -4.304027 1.715609 0.561352
v -4.304770 1.714291 0.561494
v -4.303045 1.713695 0.562335
v -4.302624 1.715124 0.562037
v -4.304770 1.714291 0.561494
v -4.303463 1.716621 0.561593
v -4.304224 1.717246 0.562005
v -4.305192 1.716567 0.561984
v -4.304027 1.715609 0.561352
v -4.303463 1.716621 0.561593
v -4.305192 1.716567 0.561984
v -4.304256 1.717708 0.562966
v -4.304224 1.717246 0.562005
v -4.303536 1.717660 0.563752
v -4.303463 1.716621 0.561593
v -4.303536 1.717660 0.563752
v -4.304224 1.717246 0.562005
v -4.302606 1.717138 0.563771
v -4.303536 1.717660 0.563752
v -4.303463 1.716621 0.561593
v -4.302547 1.716305 0.562039
v -4.302606 1.717138 0.563771
v -4.303463 1.716621 0.561593
v -4.302166 1.716535 0.563009
v -4.302606 1.717138 0.563771
v -4.302547 1.716305 0.562039
v -4.309298 1.709655 0.566860
v -4.308347 1.709591 0.567898
v -4.309255 1.709044 0.565592
v -4.308252 1.708220 0.565047
v -4.309255 1.709044 0.565592
v -4.308347 1.709591 0.567898
v -4.307120 1.708901 0.567923
v -4.308252 1.708220 0.565047
v -4.308347 1.709591 0.567898
v -4.307043 1.707802 0.565637
v -4.308252 1.708220 0.565047
v -4.307120 1.708901 0.567923
v -4.306539 1.708105 0.566916
v -4.307043 1.707802 0.565637
v -4.307120 1.708901 0.567923
vn -0.4602 -0.8060 0.3722
vn 0.7054 0.3329 -0.6258
vn 0.6786 0.7149 0.1684
vn 0.8804 0.4382 -0.1813
vn 0.2853 0.4781 -0.8307
vn 0.6787 0.7149 0.1684
vn 0.7053 0.3329 -0.6259
vn 0.2854 0.4781 -0.8307
vn 0.2521 0.9544 0.1597
vn -0.0633 0.7645 -0.6415
vn -0.0781 0.9765 -0.2007
vn -0.5300 0.4890 -0.6928
vn 0.0345 0.0253 -0.9991
vn -0.0633 0.7646 -0.6414
vn -0.1505 -0.3020 -0.9414
vn 0.7144 -0.2098 -0.6675
vn 0.5938 -0.5592 -0.5784
vn -0.1505 -0.3019 -0.9414
vn -0.3134 -0.5851 -0.7480
vn 0.5939 -0.5593 -0.5784
vn 0.3878 -0.8275 -0.4061
vn -0.1504 -0.3019 -0.9414
vn 0.5939 -0.5592 -0.5785
vn 0.5938 -0.5593 -0.5784
vn 0.9979 -0.0392 0.0523
vn 0.9041 -0.3725 0.2095
vn 0.7145 -0.2098 -0.6675
vn 0.3878 -0.8275 -0.4060
vn 0.9041 -0.3725 0.2094
vn 0.6801 -0.6516 0.3362
vn 0.6713 0.4086 0.6184
vn 0.5466 0.1177 0.8291
vn 0.9979 -0.0392 0.0524
vn 0.6713 0.4087 0.6183
vn 0.6800 -0.6516 0.3362
vn 0.3433 -0.1897 0.9199
vn 0.5465 0.1177 0.8291
vn -0.0193 0.7965 0.6044
vn -0.2093 0.5422 0.8137
vn 0.6713 0.4087 0.6184
vn -0.0193 0.7965 0.6043
vn 0.3432 -0.1898 0.9199
vn -0.2094 0.5422 0.8138
vn -0.3688 0.2102 0.9054
vn 0.3432 -0.1897 0.9199
vn -0.5539 0.8323 0.0209
vn -0.7946 0.5814 0.1750
vn -0.0194 0.7965 0.6043
vn -0.3689 0.2101 0.9054
vn -0.9202 0.2471 0.3037
vn -0.5300 0.4891 -0.6927
vn -0.7683 0.2057 -0.6061
vn -0.5540 0.8323 0.0208
vn -0.9202 0.2470 0.3037
vn -0.8955 -0.1068 -0.4321
vn -0.8955 -0.1069 -0.4321
vn -0.8792 -0.0413 -0.4747
vn -0.3134 -0.5850 -0.7480
vn -0.2823 -0.5316 -0.7985
vn -0.3392 0.2839 0.8969
vn -0.9045 0.3217 0.2799
vn -0.3392 0.2838 0.8969
vn 0.7363 -0.5998 0.3132
vn 0.3433 -0.1898 0.9199
vn 0.3910 -0.1263 0.9117
vn 0.6800 -0.6515 0.3362
vn -0.2823 -0.5316 -0.7986
vn 0.4366 -0.7802 -0.4479
vn -0.8792 -0.0413 -0.4746
vn 0.3910 -0.1262 0.9117
vn -0.3393 0.2838 0.8969
vn 0.4367 -0.7802 -0.4479
vn -0.0782 0.9765 -0.2007
vn 0.9979 -0.0391 0.0523
vn 0.9979 -0.0391 0.0524
vn 0.0345 0.0252 -0.9991
vn 0.7053 0.3329 -0.6258
vn 0.8804 0.4382 -0.1812
vn -0.5539 0.8323 0.0208
vn -0.5300 0.4891 -0.6928
vn -0.1590 -0.3170 -0.9350
vn 0.4367 -0.7802 -0.4480
vn 0.5856 -0.5745 -0.5719
vn 0.4366 -0.7802 -0.4480
vn -0.8035 0.5668 0.1819
vn -0.8792 -0.0412 -0.4747
vn -0.7773 0.1909 -0.5995
vn -0.9046 0.3217 0.2799
vn 0.5383 0.1029 0.8364
vn -0.3393 0.2838 0.8968
vn -0.2179 0.5276 0.8211
vn 0.5857 -0.5745 -0.5718
vn 0.8960 -0.3876 0.2164
vn 0.5857 -0.5744 -0.5718
vn -0.1591 -0.3170 -0.9350
vn -0.7772 0.1909 -0.5995
vn -0.2180 0.5276 0.8211
vn -0.8035 0.5668 0.1820
vn -0.2179 0.5276 0.8210
vn 0.8960 -0.3876 0.2165
vn 0.5384 0.1029 0.8364
vn 0.8961 -0.3876 0.2165
vt 0.543243 0.611839
vt 0.535370 0.618118
vt 0.537796 0.613083
vt 0.537796 0.623154
vt 0.547607 0.615326
vt 0.543243 0.624397
vt 0.547607 0.620918
vt 0.565384 0.671494
vt 0.570206 0.669548
vt 0.567856 0.672157
vt 0.564468 0.669609
vt 0.568146 0.666756
vt 0.564514 0.667854
vt 0.565857 0.666748
vt 0.562897 0.666855
vt 0.562302 0.669838
vt 0.559082 0.669685
vt 0.563492 0.673050
vt 0.560059 0.674789
vt 0.554092 0.669067
vt 0.554398 0.676537
vt 0.567307 0.675606
vt 0.564316 0.680244
vt 0.558044 0.684982
vt 0.575485 0.674767
vt 0.575272 0.686485
vt 0.565720 0.696274
vt 0.575485 0.658051
vt 0.568817 0.663902
vt 0.568115 0.659698
vt 0.574570 0.665543
vt 0.572052 0.651657
vt 0.565903 0.655174
vt 0.565063 0.664742
vt 0.563416 0.661980
vt 0.560669 0.658463
vt 0.560364 0.665283
vt 0.556488 0.662933
vt 0.552032 0.660286
vt 0.548294 0.668175
vt 0.563522 0.651588
vt 0.557617 0.654999
vt 0.551163 0.688484
vt 0.556610 0.699394
vt 0.547867 0.678001
vt 0.568756 0.648293
vt 0.604446 0.682632
vt 0.626221 0.687675
vt 0.604553 0.688225
vt 0.626144 0.682457
vt 0.604553 0.671455
vt 0.626144 0.677231
vt 0.604446 0.677048
vt 0.626221 0.672005
vt 0.605011 0.660294
vt 0.626404 0.666786
vt 0.604736 0.665871
vt 0.626663 0.661568
vt 0.626404 0.692902
vt 0.604736 0.693810
vt 0.626663 0.698120
vt 0.605011 0.699394
s 0
usemtl decorations
f 240/1/1 239/2/1 238/3/1
f 237/1/1 236/4/1 235/2/1
f 234/5/1 233/4/1 232/1/1
f 231/5/1 230/6/1 229/4/1
f 228/6/1 227/5/1 226/7/1
s 1
f 225/8/2 224/9/3 223/10/4
f 222/11/5 221/9/6 220/8/7
f 219/11/8 218/12/9 217/9/3
f 216/13/10 215/12/9 214/11/8
f 213/12/9 212/13/10 211/14/11
f 210/15/12 209/11/8 208/16/13
f 207/15/12 206/13/14 205/11/8
f 204/17/15 203/18/16 202/19/17
f 201/17/18 200/16/13 199/18/16
f 198/20/19 197/19/20 196/21/21
f 195/20/19 194/17/22 193/19/23
f 192/19/24 191/22/25 190/23/26
f 189/19/17 188/18/27 187/22/25
f 186/21/28 185/23/29 184/24/30
f 183/21/28 3/19/20 182/23/29
f 181/23/26 180/25/31 179/26/32
f 178/23/26 177/22/33 176/25/34
f 175/24/35 174/26/32 173/27/36
f 172/24/35 4/23/26 171/26/32
f 170/28/37 169/29/38 168/30/39
f 167/28/32 166/31/40 165/29/41
f 164/32/42 163/30/43 162/33/44
f 161/32/45 13/28/32 160/30/39
f 159/30/39 158/34/46 157/35/47
f 156/30/39 155/29/48 154/34/46
f 153/33/49 152/35/47 151/36/50
f 150/33/49 14/30/39 149/35/47
f 148/35/47 147/15/51 146/37/52
f 145/35/47 144/34/53 143/15/51
f 142/36/54 141/37/52 140/38/55
f 139/36/54 16/35/47 138/37/52
f 137/37/52 136/16/13 135/17/22
f 134/37/52 133/15/12 132/16/13
f 131/38/56 130/17/22 129/20/19
f 128/38/56 36/37/52 25/17/22
f 127/39/57 126/20/58 125/40/59
f 124/39/57 123/38/55 122/20/58
f 121/41/60 120/36/50 119/42/61
f 118/41/62 117/33/49 116/36/50
f 115/43/63 114/27/64 113/44/65
f 112/43/63 111/24/66 110/27/64
f 109/40/67 108/21/21 107/45/68
f 106/40/67 40/20/19 105/21/21
f 104/42/61 103/38/55 102/39/69
f 101/42/61 41/36/50 42/38/55
f 100/46/70 99/33/44 98/41/71
f 97/46/65 37/32/45 38/33/44
f 96/45/72 95/24/35 94/43/63
f 93/45/72 33/21/21 34/24/35
f 92/29/48 91/14/11 90/34/46
f 89/29/48 88/12/9 87/14/73
f 86/22/74 85/9/6 84/25/34
f 83/22/75 82/10/4 81/9/6
f 80/16/13 79/8/2 78/18/16
f 29/16/76 30/11/5 77/8/77
f 76/31/34 75/12/9 28/29/41
f 31/31/40 26/9/6 27/12/9
f 74/18/27 73/10/78 24/22/25
f 21/18/27 22/8/77 23/10/4
f 72/34/79 71/13/10 20/15/80
f 17/34/79 18/14/11 19/13/10
f 70/47/81 69/48/82 68/49/83
f 67/47/81 66/50/59 65/48/84
f 64/51/85 63/52/86 62/53/87
f 61/51/85 60/54/88 59/52/69
f 58/55/89 57/56/90 56/57/91
f 55/55/89 54/58/65 53/56/71
f 52/49/92 51/59/63 50/60/93
f 2/49/94 32/48/68 49/59/63
f 48/53/87 47/50/67 12/47/95
f 9/53/96 10/52/86 11/50/59
f 46/57/97 45/54/61 8/51/98
f 5/57/99 6/56/90 7/54/61
f 44/60/100 43/61/70 15/62/101
f 1/60/102 35/59/63 39/61/65
