# Blender 5.0.0
# www.blender.org
mtllib Circle_005_Circle_Dupli_259_decorations_0.mtl
o Circle.005|Circle|Dupli|259_decorations_0
v -4.249543 1.195483 0.694365
v -4.250171 1.195750 0.693133
v -4.244203 1.192659 0.689079
v -4.243307 1.192278 0.690836
v -4.248353 1.197665 0.694875
v -4.243985 1.195824 0.692156
v -4.244298 1.196577 0.691123
v -4.248687 1.198471 0.693770
v -4.249485 1.198146 0.692655
v -4.245043 1.196273 0.690081
v -4.245660 1.195140 0.689816
v -4.250145 1.196934 0.692372
v -4.242152 1.193495 0.691943
v -4.241609 1.195392 0.691565
v -4.248734 1.196336 0.695140
v -4.242085 1.196541 0.689987
v -4.241067 1.195663 0.689279
v -4.240517 1.194733 0.688797
v -4.241121 1.194487 0.687953
v -4.241993 1.195285 0.687985
v -4.242791 1.192504 0.688539
v -4.241642 1.192671 0.688314
v -4.241166 1.192470 0.689248
v -4.242062 1.192194 0.689970
v -4.244165 1.194349 0.687993
v -4.240552 1.193116 0.689836
v -4.240264 1.194123 0.689635
v -4.240680 1.194728 0.690563
v -4.242760 1.193879 0.687656
v -4.241621 1.193569 0.687738
v -4.241122 1.193184 0.690870
v -4.245685 1.194033 0.690527
v -4.245238 1.193380 0.689916
v -4.244462 1.193051 0.691438
v -4.245098 1.193784 0.691679
v -4.243223 1.196077 0.688398
v -4.243463 1.194104 0.692396
v -4.242992 1.195746 0.692069
v -4.244341 1.194581 0.692404
v -4.245205 1.194843 0.688977
v -4.243405 1.196740 0.690703
v -4.244390 1.196339 0.689327
v -4.244341 1.194581 0.692404
v -4.249543 1.195483 0.694365
v -4.244298 1.196577 0.691123
v -4.248353 1.197665 0.694875
v -4.245660 1.195140 0.689816
v -4.249485 1.198146 0.692655
v -4.245098 1.193784 0.691679
v -4.249543 1.195483 0.694365
v -4.245098 1.193784 0.691679
v -4.250171 1.195750 0.693133
v -4.243985 1.195824 0.692156
v -4.244341 1.194581 0.692404
v -4.248734 1.196336 0.695140
v -4.248353 1.197665 0.694875
v -4.243985 1.195824 0.692156
v -4.248734 1.196336 0.695140
v -4.245043 1.196273 0.690081
v -4.244298 1.196577 0.691123
v -4.248687 1.198471 0.693770
v -4.249485 1.198146 0.692655
v -4.245043 1.196273 0.690081
v -4.248687 1.198471 0.693770
v -4.245685 1.194033 0.690527
v -4.245660 1.195140 0.689816
v -4.250145 1.196934 0.692372
v -4.250171 1.195750 0.693133
v -4.245685 1.194033 0.690527
v -4.250145 1.196934 0.692372
v -4.241121 1.194487 0.687953
v -4.241067 1.195663 0.689279
v -4.241166 1.192470 0.689248
v -4.242791 1.192504 0.688539
v -4.240264 1.194123 0.689635
v -4.241122 1.193184 0.690870
v -4.241642 1.192671 0.688314
v -4.242791 1.192504 0.688539
v -4.241642 1.192671 0.688314
v -4.242760 1.193879 0.687656
v -4.240552 1.193116 0.689836
v -4.241166 1.192470 0.689248
v -4.242062 1.192194 0.689970
v -4.241122 1.193184 0.690870
v -4.240552 1.193116 0.689836
v -4.242062 1.192194 0.689970
v -4.240517 1.194733 0.688797
v -4.240264 1.194123 0.689635
v -4.240680 1.194728 0.690563
v -4.241067 1.195663 0.689279
v -4.240517 1.194733 0.688797
v -4.240680 1.194728 0.690563
v -4.245685 1.194033 0.690527
v -4.245098 1.193784 0.691679
v -4.244462 1.193051 0.691438
v -4.245685 1.194033 0.690527
v -4.244341 1.194581 0.692404
v -4.243985 1.195824 0.692156
v -4.242992 1.195746 0.692069
v -4.244341 1.194581 0.692404
v -4.244298 1.196577 0.691123
v -4.245043 1.196273 0.690081
v -4.244390 1.196339 0.689327
v -4.244298 1.196577 0.691123
v -4.245238 1.193380 0.689916
v -4.245660 1.195140 0.689816
v -4.245685 1.194033 0.690527
v -4.245238 1.193380 0.689916
v -4.245660 1.195140 0.689816
v -4.243463 1.194104 0.692396
v -4.244462 1.193051 0.691438
v -4.245098 1.193784 0.691679
v -4.244341 1.194581 0.692404
v -4.243463 1.194104 0.692396
v -4.245098 1.193784 0.691679
v -4.243405 1.196740 0.690703
v -4.242992 1.195746 0.692069
v -4.243985 1.195824 0.692156
v -4.244298 1.196577 0.691123
v -4.243405 1.196740 0.690703
v -4.243985 1.195824 0.692156
v -4.245205 1.194843 0.688977
v -4.244390 1.196339 0.689327
v -4.245043 1.196273 0.690081
v -4.245660 1.195140 0.689816
v -4.245205 1.194843 0.688977
v -4.245043 1.196273 0.690081
v -4.244390 1.196339 0.689327
v -4.245205 1.194843 0.688977
v -4.244165 1.194349 0.687993
v -4.244390 1.196339 0.689327
v -4.242760 1.193879 0.687656
v -4.241993 1.195285 0.687985
v -4.243223 1.196077 0.688398
v -4.244165 1.194349 0.687993
v -4.242760 1.193879 0.687656
v -4.243223 1.196077 0.688398
v -4.243223 1.196077 0.688398
v -4.243405 1.196740 0.690703
v -4.244390 1.196339 0.689327
v -4.243223 1.196077 0.688398
v -4.243405 1.196740 0.690703
v -4.241993 1.195285 0.687985
v -4.241067 1.195663 0.689279
v -4.242085 1.196541 0.689987
v -4.243223 1.196077 0.688398
v -4.241993 1.195285 0.687985
v -4.242085 1.196541 0.689987
v -4.242085 1.196541 0.689987
v -4.242992 1.195746 0.692069
v -4.243405 1.196740 0.690703
v -4.242085 1.196541 0.689987
v -4.242992 1.195746 0.692069
v -4.241067 1.195663 0.689279
v -4.240680 1.194728 0.690563
v -4.241609 1.195392 0.691565
v -4.242085 1.196541 0.689987
v -4.241067 1.195663 0.689279
v -4.241609 1.195392 0.691565
v -4.241609 1.195392 0.691565
v -4.243463 1.194104 0.692396
v -4.242992 1.195746 0.692069
v -4.241609 1.195392 0.691565
v -4.243463 1.194104 0.692396
v -4.240680 1.194728 0.690563
v -4.241122 1.193184 0.690870
v -4.242152 1.193495 0.691943
v -4.241609 1.195392 0.691565
v -4.240680 1.194728 0.690563
v -4.242152 1.193495 0.691943
v -4.242152 1.193495 0.691943
v -4.244462 1.193051 0.691438
v -4.243463 1.194104 0.692396
v -4.242152 1.193495 0.691943
v -4.244462 1.193051 0.691438
v -4.241122 1.193184 0.690870
v -4.242062 1.192194 0.689970
v -4.243307 1.192278 0.690836
v -4.242152 1.193495 0.691943
v -4.241122 1.193184 0.690870
v -4.243307 1.192278 0.690836
v -4.243307 1.192278 0.690836
v -4.245238 1.193380 0.689916
v -4.244462 1.193051 0.691438
v -4.243307 1.192278 0.690836
v -4.245238 1.193380 0.689916
v -4.242062 1.192194 0.689970
v -4.242791 1.192504 0.688539
v -4.244203 1.192659 0.689079
v -4.243307 1.192278 0.690836
v -4.242062 1.192194 0.689970
v -4.244203 1.192659 0.689079
v -4.244203 1.192659 0.689079
v -4.244165 1.194349 0.687993
v -4.245205 1.194843 0.688977
v -4.245238 1.193380 0.689916
v -4.244203 1.192659 0.689079
v -4.245205 1.194843 0.688977
v -4.242791 1.192504 0.688539
v -4.242760 1.193879 0.687656
v -4.244165 1.194349 0.687993
v -4.244203 1.192659 0.689079
v -4.242791 1.192504 0.688539
v -4.244165 1.194349 0.687993
v -4.241621 1.193569 0.687738
v -4.241121 1.194487 0.687953
v -4.241993 1.195285 0.687985
v -4.242760 1.193879 0.687656
v -4.241621 1.193569 0.687738
v -4.241993 1.195285 0.687985
v -4.240517 1.194733 0.688797
v -4.241121 1.194487 0.687953
v -4.240264 1.194123 0.689635
v -4.241621 1.193569 0.687738
v -4.240264 1.194123 0.689635
v -4.241121 1.194487 0.687953
v -4.240552 1.193116 0.689836
v -4.240264 1.194123 0.689635
v -4.241621 1.193569 0.687738
v -4.241642 1.192671 0.688314
v -4.240552 1.193116 0.689836
v -4.241621 1.193569 0.687738
v -4.241166 1.192470 0.689248
v -4.240552 1.193116 0.689836
v -4.241642 1.192671 0.688314
v -4.248687 1.198471 0.693770
v -4.248353 1.197665 0.694875
v -4.249485 1.198146 0.692655
v -4.250145 1.196934 0.692372
v -4.249485 1.198146 0.692655
v -4.248353 1.197665 0.694875
v -4.248734 1.196336 0.695140
v -4.250145 1.196934 0.692372
v -4.248353 1.197665 0.694875
v -4.250171 1.195750 0.693133
v -4.250145 1.196934 0.692372
v -4.248734 1.196336 0.695140
v -4.249543 1.195483 0.694365
v -4.250171 1.195750 0.693133
v -4.248734 1.196336 0.695140
vn -0.8107 0.3288 0.4843
vn 0.3678 -0.6953 -0.6174
vn 0.8671 -0.4916 0.0801
vn 0.5859 -0.7879 -0.1894
vn 0.3768 -0.2836 -0.8818
vn 0.3678 -0.6953 -0.6175
vn 0.3768 -0.2837 -0.8818
vn 0.9995 -0.0296 -0.0119
vn 0.6063 0.1372 -0.7833
vn 0.6063 0.1371 -0.7833
vn 0.8834 0.2502 -0.3962
vn 0.2285 0.5275 -0.8183
vn -0.1430 -0.1537 -0.9777
vn 0.3769 -0.2836 -0.8818
vn -0.4882 -0.0338 -0.8721
vn -0.1577 -0.8203 -0.5498
vn -0.5041 -0.7634 -0.4038
vn -0.4881 -0.0338 -0.8721
vn -0.1430 -0.1538 -0.9777
vn -0.7622 0.0908 -0.6409
vn -0.5042 -0.7634 -0.4037
vn -0.7773 -0.5966 -0.1997
vn 0.1956 -0.9702 0.1432
vn -0.1175 -0.9275 0.3549
vn -0.7773 -0.5966 -0.1996
vn -0.1175 -0.9275 0.3548
vn -0.4131 -0.7511 0.5149
vn -0.5041 -0.7634 -0.4037
vn 0.6507 -0.4906 0.5796
vn 0.3807 -0.4025 0.8325
vn 0.1956 -0.9702 0.1433
vn 0.6507 -0.4906 0.5795
vn -0.4131 -0.7511 0.5150
vn 0.0563 -0.2565 0.9649
vn 0.3807 -0.4024 0.8325
vn 0.8650 0.2574 0.4306
vn 0.6154 0.4162 0.6694
vn 0.6507 -0.4905 0.5796
vn 0.8651 0.2574 0.4306
vn 0.6153 0.4162 0.6694
vn 0.2773 0.5147 0.8113
vn 0.6772 0.7105 -0.1915
vn 0.4097 0.9122 -0.0115
vn 0.2772 0.5148 0.8113
vn 0.4096 0.9122 -0.0115
vn 0.0835 0.9819 0.1698
vn 0.4096 0.9122 -0.0116
vn 0.2285 0.5275 -0.8182
vn -0.0814 0.7119 -0.6976
vn 0.6771 0.7105 -0.1915
vn 0.2286 0.5275 -0.8182
vn -0.3791 0.7933 -0.4765
vn -0.0815 0.7118 -0.6976
vn -0.4881 -0.0339 -0.8721
vn -0.0814 0.7118 -0.6976
vn -0.3791 0.7932 -0.4765
vn -0.7622 0.0907 -0.6409
vn -0.3200 0.7855 -0.5297
vn -0.7622 0.0908 -0.6410
vn -0.7129 0.0652 -0.6983
vn 0.3531 0.5000 0.7908
vn 0.1543 0.9790 0.1330
vn 0.3531 0.4999 0.7908
vn 0.2772 0.5147 0.8113
vn -0.3548 -0.7981 0.4870
vn 0.0563 -0.2566 0.9649
vn 0.1264 -0.2909 0.9484
vn -0.7128 0.0652 -0.6983
vn -0.7284 -0.6395 -0.2458
vn 0.1544 0.9790 0.1330
vn 0.1265 -0.2909 0.9483
vn 0.3530 0.5000 0.7908
vn -0.7283 -0.6396 -0.2458
vn -0.7284 -0.6396 -0.2458
vn 0.8650 0.2575 0.4306
vn 0.9995 -0.0297 -0.0120
vn 0.8834 0.2503 -0.3962
vn -0.1431 -0.1538 -0.9777
vn 0.6508 -0.4905 0.5795
vn 0.6508 -0.4905 0.5796
vn -0.5034 -0.0278 -0.8636
vn -0.5194 -0.7577 -0.3950
vn -0.5033 -0.0278 -0.8636
vn 0.3948 0.9187 -0.0026
vn -0.0964 0.7183 -0.6890
vn 0.3949 0.9187 -0.0027
vn 0.3660 -0.3966 0.8419
vn 0.6007 0.4225 0.6788
vn -0.5194 -0.7578 -0.3950
vn -0.1326 -0.9219 0.3640
vn -0.3549 -0.7981 0.4870
vn -0.0965 0.7183 -0.6890
vn -0.7129 0.0651 -0.6983
vn 0.6007 0.4225 0.6787
vn 0.3949 0.9187 -0.0026
vn 0.1265 -0.2910 0.9483
vn -0.1325 -0.9219 0.3640
vn 0.1264 -0.2910 0.9483
vt 0.543243 0.611839
vt 0.535370 0.618118
vt 0.537796 0.613083
vt 0.537796 0.623154
vt 0.547607 0.615326
vt 0.543243 0.624397
vt 0.547607 0.620918
vt 0.565384 0.671494
vt 0.570206 0.669548
vt 0.567856 0.672157
vt 0.564468 0.669609
vt 0.568146 0.666756
vt 0.564514 0.667854
vt 0.565857 0.666748
vt 0.562897 0.666855
vt 0.562302 0.669838
vt 0.559082 0.669685
vt 0.563492 0.673050
vt 0.560059 0.674789
vt 0.554092 0.669067
vt 0.554398 0.676537
vt 0.567307 0.675606
vt 0.564316 0.680244
vt 0.558044 0.684982
vt 0.575485 0.674767
vt 0.575272 0.686485
vt 0.565720 0.696274
vt 0.575485 0.658051
vt 0.568817 0.663902
vt 0.568115 0.659698
vt 0.574570 0.665543
vt 0.572052 0.651657
vt 0.565903 0.655174
vt 0.565063 0.664742
vt 0.563416 0.661980
vt 0.560669 0.658463
vt 0.560364 0.665283
vt 0.556488 0.662933
vt 0.552032 0.660286
vt 0.548294 0.668175
vt 0.563522 0.651588
vt 0.557617 0.654999
vt 0.551163 0.688484
vt 0.556610 0.699394
vt 0.547867 0.678001
vt 0.568756 0.648293
vt 0.604446 0.682632
vt 0.626221 0.687675
vt 0.604553 0.688225
vt 0.626144 0.682457
vt 0.604553 0.671455
vt 0.626144 0.677231
vt 0.604446 0.677048
vt 0.626221 0.672005
vt 0.605011 0.660294
vt 0.626404 0.666786
vt 0.604736 0.665871
vt 0.626663 0.661568
vt 0.626404 0.692902
vt 0.604736 0.693810
vt 0.626663 0.698120
vt 0.605011 0.699394
s 0
usemtl decorations
f 240/1/1 239/2/1 238/3/1
f 237/1/1 236/4/1 235/2/1
f 234/5/1 233/4/1 232/1/1
f 231/5/1 230/6/1 229/4/1
f 228/6/1 227/5/1 226/7/1
s 1
f 225/8/2 224/9/3 223/10/4
f 222/11/5 221/9/3 220/8/6
f 219/11/7 218/12/8 217/9/3
f 216/13/9 215/12/8 214/11/5
f 213/12/8 212/13/10 211/14/11
f 210/15/12 209/11/5 208/16/13
f 207/15/12 206/13/9 205/11/14
f 204/17/15 203/18/16 202/19/17
f 201/17/18 200/16/19 199/18/16
f 198/20/20 197/19/21 196/21/22
f 195/20/20 194/17/18 193/19/17
f 192/19/17 191/22/23 190/23/24
f 189/19/17 188/18/16 187/22/23
f 186/21/25 185/23/26 184/24/27
f 183/21/25 3/19/28 182/23/26
f 181/23/24 180/25/29 179/26/30
f 178/23/24 177/22/31 176/25/32
f 175/24/33 174/26/30 173/27/34
f 172/24/33 4/23/24 171/26/30
f 170/28/35 169/29/36 168/30/37
f 167/28/35 166/31/38 165/29/39
f 164/32/34 163/30/40 162/33/41
f 161/32/34 13/28/30 160/30/37
f 159/30/37 158/34/42 157/35/43
f 156/30/37 155/29/36 154/34/42
f 153/33/44 152/35/45 151/36/46
f 150/33/41 14/30/37 149/35/45
f 148/35/47 147/15/48 146/37/49
f 145/35/47 144/34/50 143/15/51
f 142/36/46 141/37/49 140/38/52
f 139/36/46 16/35/47 138/37/49
f 137/37/53 136/16/13 135/17/54
f 134/37/55 133/15/12 132/16/13
f 131/38/56 130/17/54 129/20/57
f 128/38/56 36/37/49 25/17/54
f 127/39/58 126/20/59 125/40/60
f 124/39/58 123/38/56 122/20/59
f 121/41/61 120/36/46 119/42/62
f 118/41/63 117/33/64 116/36/46
f 115/43/65 114/27/66 113/44/67
f 112/43/65 111/24/33 110/27/66
f 109/40/68 108/21/22 107/45/69
f 106/40/60 40/20/20 105/21/22
f 104/42/70 103/38/56 102/39/58
f 101/42/70 41/36/46 42/38/56
f 100/46/71 99/33/41 98/41/72
f 97/46/67 37/32/34 38/33/41
f 96/45/73 95/24/33 94/43/65
f 93/45/74 33/21/22 34/24/33
f 92/29/75 91/14/11 90/34/42
f 89/29/75 88/12/76 87/14/77
f 86/22/31 85/9/3 84/25/29
f 83/22/31 82/10/4 81/9/3
f 80/16/19 79/8/6 78/18/16
f 29/16/78 30/11/5 77/8/6
f 76/31/79 75/12/8 28/29/39
f 31/31/80 26/9/3 27/12/76
f 74/18/16 73/10/4 24/22/23
f 21/18/16 22/8/6 23/10/4
f 72/34/42 71/13/9 20/15/12
f 17/34/42 18/14/11 19/13/9
f 70/47/81 69/48/73 68/49/82
f 67/47/83 66/50/60 65/48/74
f 64/51/84 63/52/58 62/53/85
f 61/51/86 60/54/70 59/52/58
f 58/55/87 57/56/61 56/57/88
f 55/55/87 54/58/67 53/56/72
f 52/49/89 51/59/65 50/60/90
f 2/49/89 32/48/74 49/59/91
f 48/53/92 47/50/93 12/47/83
f 9/53/85 10/52/58 11/50/60
f 46/57/94 45/54/70 8/51/95
f 5/57/94 6/56/61 7/54/62
f 44/60/90 43/61/96 15/62/87
f 1/60/97 35/59/91 39/61/98
