# Blender 5.0.0
# www.blender.org
mtllib Circle_005_Circle_Dupli_47_decorations_0.mtl
o Circle.005|Circle|Dupli|47_decorations_0
v -4.380840 1.635435 0.418097
v -4.380984 1.634316 0.417254
v -4.386771 1.637734 0.413199
v -4.386566 1.639331 0.414402
v -4.382295 1.634833 0.420087
v -4.386551 1.637166 0.417577
v -4.387022 1.635981 0.417249
v -4.382798 1.633566 0.419736
v -4.382554 1.632817 0.418569
v -4.386794 1.635281 0.416158
v -4.386039 1.635593 0.415125
v -4.381747 1.633151 0.417464
v -4.387398 1.639660 0.416201
v -4.388640 1.638473 0.417242
v -4.381424 1.635665 0.419358
v -4.389358 1.636664 0.416741
v -4.390238 1.637479 0.415808
v -4.390612 1.638185 0.414935
v -4.390427 1.637617 0.414050
v -4.389955 1.636610 0.414453
v -4.388133 1.638350 0.412926
v -4.389238 1.638753 0.413054
v -4.389129 1.639601 0.413693
v -4.387966 1.639650 0.413905
v -4.387858 1.636072 0.413499
v -4.389571 1.639776 0.414648
v -4.390231 1.639145 0.415201
v -4.389654 1.638951 0.416216
v -4.389018 1.636998 0.413170
v -4.389815 1.637870 0.413213
v -4.388643 1.639917 0.415369
v -4.385326 1.636683 0.414928
v -4.385765 1.637080 0.414123
v -4.385588 1.638462 0.415163
v -4.385192 1.637729 0.415716
v -4.389010 1.635596 0.415075
v -4.386308 1.638746 0.416721
v -4.387383 1.637719 0.417622
v -4.385737 1.637944 0.416895
v -4.386707 1.635641 0.414382
v -4.388004 1.636153 0.417188
v -4.387703 1.635228 0.415746
v -4.385737 1.637944 0.416895
v -4.380840 1.635435 0.418097
v -4.387022 1.635981 0.417249
v -4.382295 1.634833 0.420087
v -4.386039 1.635593 0.415125
v -4.382554 1.632817 0.418569
v -4.385192 1.637729 0.415716
v -4.380840 1.635435 0.418097
v -4.385192 1.637729 0.415716
v -4.380984 1.634316 0.417254
v -4.386551 1.637166 0.417577
v -4.385737 1.637944 0.416895
v -4.381424 1.635665 0.419358
v -4.382295 1.634833 0.420087
v -4.386551 1.637166 0.417577
v -4.381424 1.635665 0.419358
v -4.386794 1.635281 0.416158
v -4.387022 1.635981 0.417249
v -4.382798 1.633566 0.419736
v -4.382554 1.632817 0.418569
v -4.386794 1.635281 0.416158
v -4.382798 1.633566 0.419736
v -4.385326 1.636683 0.414928
v -4.386039 1.635593 0.415125
v -4.381747 1.633151 0.417464
v -4.380984 1.634316 0.417254
v -4.385326 1.636683 0.414928
v -4.381747 1.633151 0.417464
v -4.390427 1.637617 0.414050
v -4.390238 1.637479 0.415808
v -4.389129 1.639601 0.413693
v -4.388133 1.638350 0.412926
v -4.390231 1.639145 0.415201
v -4.388643 1.639917 0.415369
v -4.389238 1.638753 0.413054
v -4.388133 1.638350 0.412926
v -4.389238 1.638753 0.413054
v -4.389018 1.636998 0.413170
v -4.389571 1.639776 0.414648
v -4.389129 1.639601 0.413693
v -4.387966 1.639650 0.413905
v -4.388643 1.639917 0.415369
v -4.389571 1.639776 0.414648
v -4.387966 1.639650 0.413905
v -4.390612 1.638185 0.414935
v -4.390231 1.639145 0.415201
v -4.389654 1.638951 0.416216
v -4.390238 1.637479 0.415808
v -4.390612 1.638185 0.414935
v -4.389654 1.638951 0.416216
v -4.385326 1.636683 0.414928
v -4.385192 1.637729 0.415716
v -4.385588 1.638462 0.415163
v -4.385326 1.636683 0.414928
v -4.385737 1.637944 0.416895
v -4.386551 1.637166 0.417577
v -4.387383 1.637719 0.417622
v -4.385737 1.637944 0.416895
v -4.387022 1.635981 0.417249
v -4.386794 1.635281 0.416158
v -4.387703 1.635228 0.415746
v -4.387022 1.635981 0.417249
v -4.385765 1.637080 0.414123
v -4.386039 1.635593 0.415125
v -4.385326 1.636683 0.414928
v -4.385765 1.637080 0.414123
v -4.386039 1.635593 0.415125
v -4.386308 1.638746 0.416721
v -4.385588 1.638462 0.415163
v -4.385192 1.637729 0.415716
v -4.385737 1.637944 0.416895
v -4.386308 1.638746 0.416721
v -4.385192 1.637729 0.415716
v -4.388004 1.636153 0.417188
v -4.387383 1.637719 0.417622
v -4.386551 1.637166 0.417577
v -4.387022 1.635981 0.417249
v -4.388004 1.636153 0.417188
v -4.386551 1.637166 0.417577
v -4.386707 1.635641 0.414382
v -4.387703 1.635228 0.415746
v -4.386794 1.635281 0.416158
v -4.386039 1.635593 0.415125
v -4.386707 1.635641 0.414382
v -4.386794 1.635281 0.416158
v -4.387703 1.635228 0.415746
v -4.386707 1.635641 0.414382
v -4.387858 1.636072 0.413499
v -4.387703 1.635228 0.415746
v -4.389018 1.636998 0.413170
v -4.389955 1.636610 0.414453
v -4.389010 1.635596 0.415075
v -4.387858 1.636072 0.413499
v -4.389018 1.636998 0.413170
v -4.389010 1.635596 0.415075
v -4.389010 1.635596 0.415075
v -4.388004 1.636153 0.417188
v -4.387703 1.635228 0.415746
v -4.389010 1.635596 0.415075
v -4.388004 1.636153 0.417188
v -4.389955 1.636610 0.414453
v -4.390238 1.637479 0.415808
v -4.389358 1.636664 0.416741
v -4.389010 1.635596 0.415075
v -4.389955 1.636610 0.414453
v -4.389358 1.636664 0.416741
v -4.389358 1.636664 0.416741
v -4.387383 1.637719 0.417622
v -4.388004 1.636153 0.417188
v -4.389358 1.636664 0.416741
v -4.387383 1.637719 0.417622
v -4.390238 1.637479 0.415808
v -4.389654 1.638951 0.416216
v -4.388640 1.638473 0.417242
v -4.389358 1.636664 0.416741
v -4.390238 1.637479 0.415808
v -4.388640 1.638473 0.417242
v -4.388640 1.638473 0.417242
v -4.386308 1.638746 0.416721
v -4.387383 1.637719 0.417622
v -4.388640 1.638473 0.417242
v -4.386308 1.638746 0.416721
v -4.389654 1.638951 0.416216
v -4.388643 1.639917 0.415369
v -4.387398 1.639660 0.416201
v -4.388640 1.638473 0.417242
v -4.389654 1.638951 0.416216
v -4.387398 1.639660 0.416201
v -4.387398 1.639660 0.416201
v -4.385588 1.638462 0.415163
v -4.386308 1.638746 0.416721
v -4.387398 1.639660 0.416201
v -4.385588 1.638462 0.415163
v -4.388643 1.639917 0.415369
v -4.387966 1.639650 0.413905
v -4.386566 1.639331 0.414402
v -4.387398 1.639660 0.416201
v -4.388643 1.639917 0.415369
v -4.386566 1.639331 0.414402
v -4.386566 1.639331 0.414402
v -4.385765 1.637080 0.414123
v -4.385588 1.638462 0.415163
v -4.386566 1.639331 0.414402
v -4.385765 1.637080 0.414123
v -4.387966 1.639650 0.413905
v -4.388133 1.638350 0.412926
v -4.386771 1.637734 0.413199
v -4.386566 1.639331 0.414402
v -4.387966 1.639650 0.413905
v -4.386771 1.637734 0.413199
v -4.386771 1.637734 0.413199
v -4.387858 1.636072 0.413499
v -4.386707 1.635641 0.414382
v -4.385765 1.637080 0.414123
v -4.386771 1.637734 0.413199
v -4.386707 1.635641 0.414382
v -4.388133 1.638350 0.412926
v -4.389018 1.636998 0.413170
v -4.387858 1.636072 0.413499
v -4.386771 1.637734 0.413199
v -4.388133 1.638350 0.412926
v -4.387858 1.636072 0.413499
v -4.389815 1.637870 0.413213
v -4.390427 1.637617 0.414050
v -4.389955 1.636610 0.414453
v -4.389018 1.636998 0.413170
v -4.389815 1.637870 0.413213
v -4.389955 1.636610 0.414453
v -4.390612 1.638185 0.414935
v -4.390427 1.637617 0.414050
v -4.390231 1.639145 0.415201
v -4.389815 1.637870 0.413213
v -4.390231 1.639145 0.415201
v -4.390427 1.637617 0.414050
v -4.389571 1.639776 0.414648
v -4.390231 1.639145 0.415201
v -4.389815 1.637870 0.413213
v -4.389238 1.638753 0.413054
v -4.389571 1.639776 0.414648
v -4.389815 1.637870 0.413213
v -4.389129 1.639601 0.413693
v -4.389571 1.639776 0.414648
v -4.389238 1.638753 0.413054
v -4.382798 1.633566 0.419736
v -4.382295 1.634833 0.420087
v -4.382554 1.632817 0.418569
v -4.381747 1.633151 0.417464
v -4.382554 1.632817 0.418569
v -4.382295 1.634833 0.420087
v -4.381424 1.635665 0.419358
v -4.381747 1.633151 0.417464
v -4.382295 1.634833 0.420087
v -4.380984 1.634316 0.417254
v -4.381747 1.633151 0.417464
v -4.381424 1.635665 0.419358
v -4.380840 1.635435 0.418097
v -4.380984 1.634316 0.417254
v -4.381424 1.635665 0.419358
vn 0.7849 -0.4339 0.4423
vn -0.3627 0.3796 -0.8511
vn -0.5155 0.8484 -0.1201
vn -0.3128 0.7684 -0.5583
vn -0.6277 -0.0253 -0.7780
vn -0.5155 0.8485 -0.1201
vn -0.6276 -0.0252 -0.7781
vn -0.8181 0.5594 0.1334
vn -0.9081 -0.1413 -0.3942
vn -0.6276 -0.0253 -0.7781
vn -0.8181 0.5593 0.1334
vn -0.9081 -0.1413 -0.3943
vn -0.9928 0.1189 0.0114
vn -0.7410 -0.6318 -0.2274
vn -0.6277 -0.0252 -0.7781
vn -0.2871 -0.4439 -0.8488
vn 0.0068 -0.6634 -0.7483
vn 0.1419 0.2115 -0.9670
vn 0.4762 0.0541 -0.8776
vn -0.2870 -0.4439 -0.8488
vn 0.1418 0.2115 -0.9670
vn 0.2992 -0.7867 -0.5399
vn 0.4763 0.0541 -0.8776
vn 0.7414 -0.1108 -0.6618
vn 0.4762 0.0541 -0.8777
vn 0.2227 0.8411 -0.4930
vn 0.5648 0.7432 -0.3587
vn 0.1419 0.2116 -0.9670
vn 0.7415 -0.1108 -0.6618
vn 0.5647 0.7432 -0.3588
vn 0.8248 0.5383 -0.1730
vn -0.1054 0.9706 0.2164
vn 0.2056 0.8850 0.4177
vn 0.5647 0.7432 -0.3587
vn 0.2227 0.8411 -0.4929
vn -0.1054 0.9706 0.2163
vn 0.8248 0.5383 -0.1729
vn 0.2056 0.8850 0.4178
vn 0.4865 0.6719 0.5585
vn -0.5953 0.5026 0.6269
vn -0.3307 0.3727 0.8670
vn -0.5954 0.5026 0.6268
vn 0.4865 0.6718 0.5585
vn -0.0188 0.1893 0.9817
vn -0.3307 0.3728 0.8670
vn -0.8783 -0.2105 0.4293
vn -0.6404 -0.4079 0.6508
vn -0.5954 0.5026 0.6269
vn -0.0187 0.1893 0.9817
vn -0.6403 -0.4079 0.6508
vn -0.3105 -0.5461 0.7781
vn -0.4902 -0.8690 -0.0681
vn -0.8783 -0.2106 0.4293
vn -0.7411 -0.6317 -0.2274
vn -0.3104 -0.5461 0.7781
vn -0.4901 -0.8690 -0.0681
vn -0.1690 -0.9804 0.1009
vn -0.2871 -0.4440 -0.8488
vn -0.1689 -0.9805 0.1009
vn 0.2992 -0.7867 -0.5400
vn -0.1689 -0.9804 0.1009
vn -0.4902 -0.8690 -0.0680
vn -0.2398 -0.9686 0.0659
vn 0.2991 -0.7868 -0.5399
vn 0.2403 -0.7700 -0.5911
vn -0.0858 0.2309 0.9692
vn -0.3849 -0.5232 0.7604
vn 0.7792 0.5888 -0.2148
vn 0.4323 0.7257 0.5352
vn 0.2402 -0.7699 -0.5912
vn 0.6938 -0.0769 -0.7161
vn 0.2402 -0.7700 -0.5911
vn 0.2992 -0.7868 -0.5399
vn -0.3849 -0.5232 0.7603
vn -0.0858 0.2308 0.9692
vn 0.6937 -0.0769 -0.7161
vn -0.5954 0.5025 0.6269
vn -0.9928 0.1188 0.0114
vn 0.2226 0.8411 -0.4929
vn -0.2870 -0.4439 -0.8489
vn -0.6277 -0.0253 -0.7781
vn -0.3628 0.3796 -0.8511
vn -0.3128 0.7685 -0.5583
vn 0.0213 -0.6717 -0.7405
vn 0.4910 0.0461 -0.8699
vn -0.6262 -0.4162 0.6593
vn -0.4759 -0.8775 -0.0599
vn 0.2202 0.8774 0.4262
vn -0.3163 0.3649 0.8756
vn 0.4911 0.0462 -0.8699
vn 0.7792 0.5888 -0.2149
vn 0.5796 0.7355 -0.3508
vn 0.4910 0.0462 -0.8699
vn -0.4759 -0.8774 -0.0599
vn -0.3163 0.3649 0.8757
vn -0.6262 -0.4161 0.6593
vn -0.3164 0.3649 0.8756
vn 0.5796 0.7356 -0.3507
vn 0.4323 0.7258 0.5352
vn 0.5796 0.7356 -0.3508
vn 0.7792 0.5887 -0.2148
vt 0.543243 0.611839
vt 0.535370 0.618118
vt 0.537796 0.613083
vt 0.537796 0.623154
vt 0.547607 0.615326
vt 0.543243 0.624397
vt 0.547607 0.620918
vt 0.565384 0.671494
vt 0.570206 0.669548
vt 0.567856 0.672157
vt 0.564468 0.669609
vt 0.568146 0.666756
vt 0.564514 0.667854
vt 0.565857 0.666748
vt 0.562897 0.666855
vt 0.562302 0.669838
vt 0.559082 0.669685
vt 0.563492 0.673050
vt 0.560059 0.674789
vt 0.554092 0.669067
vt 0.554398 0.676537
vt 0.567307 0.675606
vt 0.564316 0.680244
vt 0.558044 0.684982
vt 0.575485 0.674767
vt 0.575272 0.686485
vt 0.565720 0.696274
vt 0.575485 0.658051
vt 0.568817 0.663902
vt 0.568115 0.659698
vt 0.574570 0.665543
vt 0.572052 0.651657
vt 0.565903 0.655174
vt 0.565063 0.664742
vt 0.563416 0.661980
vt 0.560669 0.658463
vt 0.560364 0.665283
vt 0.556488 0.662933
vt 0.552032 0.660286
vt 0.548294 0.668175
vt 0.563522 0.651588
vt 0.557617 0.654999
vt 0.551163 0.688484
vt 0.556610 0.699394
vt 0.547867 0.678001
vt 0.568756 0.648293
vt 0.604446 0.682632
vt 0.626221 0.687675
vt 0.604553 0.688225
vt 0.626144 0.682457
vt 0.604553 0.671455
vt 0.626144 0.677231
vt 0.604446 0.677048
vt 0.626221 0.672005
vt 0.605011 0.660294
vt 0.626404 0.666786
vt 0.604736 0.665871
vt 0.626663 0.661568
vt 0.626404 0.692902
vt 0.604736 0.693810
vt 0.626663 0.698120
vt 0.605011 0.699394
s 0
usemtl decorations
f 240/1/1 239/2/1 238/3/1
f 237/1/1 236/4/1 235/2/1
f 234/5/1 233/4/1 232/1/1
f 231/5/1 230/6/1 229/4/1
f 228/6/1 227/5/1 226/7/1
s 1
f 225/8/2 224/9/3 223/10/4
f 222/11/5 221/9/6 220/8/2
f 219/11/7 218/12/8 217/9/3
f 216/13/9 215/12/8 214/11/10
f 213/12/11 212/13/12 211/14/13
f 210/15/14 209/11/15 208/16/16
f 207/15/14 206/13/9 205/11/15
f 204/17/17 203/18/18 202/19/19
f 201/17/17 200/16/20 199/18/21
f 198/20/22 197/19/23 196/21/24
f 195/20/22 194/17/17 193/19/25
f 192/19/23 191/22/26 190/23/27
f 189/19/19 188/18/28 187/22/26
f 186/21/29 185/23/30 184/24/31
f 183/21/29 3/19/23 182/23/30
f 181/23/27 180/25/32 179/26/33
f 178/23/34 177/22/35 176/25/36
f 175/24/37 174/26/38 173/27/39
f 172/24/37 4/23/27 171/26/38
f 170/28/38 169/29/40 168/30/41
f 167/28/38 166/31/32 165/29/42
f 164/32/43 163/30/41 162/33/44
f 161/32/39 13/28/38 160/30/45
f 159/30/41 158/34/46 157/35/47
f 156/30/41 155/29/48 154/34/46
f 153/33/49 152/35/50 151/36/51
f 150/33/49 14/30/41 149/35/50
f 148/35/50 147/15/14 146/37/52
f 145/35/50 144/34/53 143/15/54
f 142/36/55 141/37/56 140/38/57
f 139/36/51 16/35/50 138/37/56
f 137/37/56 136/16/58 135/17/17
f 134/37/52 133/15/14 132/16/16
f 131/38/59 130/17/17 129/20/60
f 128/38/61 36/37/62 25/17/17
f 127/39/63 126/20/64 125/40/65
f 124/39/63 123/38/57 122/20/64
f 121/41/66 120/36/51 119/42/67
f 118/41/66 117/33/49 116/36/51
f 115/43/68 114/27/39 113/44/69
f 112/43/68 111/24/31 110/27/39
f 109/40/70 108/21/24 107/45/71
f 106/40/72 40/20/73 105/21/24
f 104/42/74 103/38/57 102/39/63
f 101/42/67 41/36/51 42/38/57
f 100/46/69 99/33/49 98/41/75
f 97/46/69 37/32/39 38/33/49
f 96/45/76 95/24/31 94/43/68
f 93/45/76 33/21/24 34/24/31
f 92/29/77 91/14/13 90/34/46
f 89/29/77 88/12/8 87/14/78
f 86/22/79 85/9/3 84/25/36
f 83/22/35 82/10/4 81/9/3
f 80/16/80 79/8/2 78/18/21
f 29/16/80 30/11/81 77/8/82
f 76/31/32 75/12/8 28/29/42
f 31/31/32 26/9/3 27/12/8
f 74/18/18 73/10/83 24/22/26
f 21/18/18 22/8/82 23/10/4
f 72/34/46 71/13/9 20/15/14
f 17/34/46 18/14/13 19/13/9
f 70/47/84 69/48/76 68/49/85
f 67/47/84 66/50/72 65/48/76
f 64/51/86 63/52/63 62/53/87
f 61/51/86 60/54/74 59/52/63
f 58/55/88 57/56/75 56/57/89
f 55/55/88 54/58/69 53/56/75
f 52/49/90 51/59/91 50/60/92
f 2/49/93 32/48/71 49/59/91
f 48/53/87 47/50/70 12/47/84
f 9/53/94 10/52/63 11/50/65
f 46/57/95 45/54/74 8/51/96
f 5/57/97 6/56/75 7/54/67
f 44/60/98 43/61/99 15/62/88
f 1/60/100 35/59/101 39/61/69
