# Blender 5.0.0
# www.blender.org
mtllib Circle_002_Circle_001_Dupli_150_decorations_0.mtl
o Circle.002|Circle.001|Dupli|150_decorations_0
v -4.338941 1.702896 0.497892
v -4.337649 1.702843 0.498449
v -4.338630 1.709707 0.502128
v -4.340474 1.709782 0.501334
v -4.338531 1.703928 0.495611
v -4.339195 1.708880 0.497823
v -4.337893 1.709070 0.497817
v -4.337138 1.704130 0.495604
v -4.336203 1.703834 0.496614
v -4.337018 1.708792 0.498761
v -4.337231 1.708257 0.499945
v -4.336430 1.703261 0.497880
v -4.341034 1.710470 0.499531
v -4.339890 1.711254 0.498078
v -4.339334 1.703378 0.496629
v -4.337901 1.711543 0.498069
v -4.338253 1.712696 0.498994
v -4.338628 1.713327 0.499922
v -4.337919 1.713102 0.500688
v -4.337168 1.712351 0.500167
v -4.338847 1.711202 0.502298
v -4.339015 1.712352 0.502078
v -4.339994 1.712391 0.501656
v -4.340347 1.711262 0.501651
v -4.336891 1.710303 0.501317
v -4.340292 1.712757 0.500699
v -4.339684 1.713173 0.499927
v -4.339871 1.712460 0.499002
v -4.337431 1.711686 0.501637
v -4.338091 1.712668 0.501647
v -4.340803 1.711822 0.500184
v -4.338370 1.707866 0.500477
v -4.338455 1.708475 0.501265
v -4.340051 1.708540 0.500577
v -4.339578 1.707915 0.499956
v -4.336567 1.711120 0.499510
v -4.340536 1.709136 0.499017
v -4.339545 1.709814 0.497760
v -4.339945 1.708366 0.498775
v -4.336950 1.708991 0.500563
v -4.337824 1.710065 0.497751
v -4.336669 1.709698 0.498999
v -4.339945 1.708366 0.498775
v -4.338941 1.702896 0.497892
v -4.337893 1.709070 0.497817
v -4.338531 1.703928 0.495611
v -4.337231 1.708257 0.499945
v -4.336203 1.703834 0.496614
v -4.339578 1.707915 0.499956
v -4.338941 1.702896 0.497892
v -4.339578 1.707915 0.499956
v -4.337649 1.702843 0.498449
v -4.339195 1.708880 0.497823
v -4.339945 1.708366 0.498775
v -4.339334 1.703378 0.496629
v -4.338531 1.703928 0.495611
v -4.339195 1.708880 0.497823
v -4.339334 1.703378 0.496629
v -4.337018 1.708792 0.498761
v -4.337893 1.709070 0.497817
v -4.337138 1.704130 0.495604
v -4.336203 1.703834 0.496614
v -4.337018 1.708792 0.498761
v -4.337138 1.704130 0.495604
v -4.338370 1.707866 0.500477
v -4.337231 1.708257 0.499945
v -4.336430 1.703261 0.497880
v -4.337649 1.702843 0.498449
v -4.338370 1.707866 0.500477
v -4.336430 1.703261 0.497880
v -4.337919 1.713102 0.500688
v -4.338253 1.712696 0.498994
v -4.339994 1.712391 0.501656
v -4.338847 1.711202 0.502298
v -4.339684 1.713173 0.499927
v -4.340803 1.711822 0.500184
v -4.339015 1.712352 0.502078
v -4.338847 1.711202 0.502298
v -4.339015 1.712352 0.502078
v -4.337431 1.711686 0.501637
v -4.340292 1.712757 0.500699
v -4.339994 1.712391 0.501656
v -4.340347 1.711262 0.501651
v -4.340803 1.711822 0.500184
v -4.340292 1.712757 0.500699
v -4.340347 1.711262 0.501651
v -4.338628 1.713327 0.499922
v -4.339684 1.713173 0.499927
v -4.339871 1.712460 0.499002
v -4.338253 1.712696 0.498994
v -4.338628 1.713327 0.499922
v -4.339871 1.712460 0.499002
v -4.338370 1.707866 0.500477
v -4.339578 1.707915 0.499956
v -4.340051 1.708540 0.500577
v -4.338370 1.707866 0.500477
v -4.339945 1.708366 0.498775
v -4.339195 1.708880 0.497823
v -4.339545 1.709814 0.497760
v -4.339945 1.708366 0.498775
v -4.337893 1.709070 0.497817
v -4.337018 1.708792 0.498761
v -4.336669 1.709698 0.498999
v -4.337893 1.709070 0.497817
v -4.338455 1.708475 0.501265
v -4.337231 1.708257 0.499945
v -4.338370 1.707866 0.500477
v -4.338455 1.708475 0.501265
v -4.337231 1.708257 0.499945
v -4.340536 1.709136 0.499017
v -4.340051 1.708540 0.500577
v -4.339578 1.707915 0.499956
v -4.339945 1.708366 0.498775
v -4.340536 1.709136 0.499017
v -4.339578 1.707915 0.499956
v -4.337824 1.710065 0.497751
v -4.339545 1.709814 0.497760
v -4.339195 1.708880 0.497823
v -4.337893 1.709070 0.497817
v -4.337824 1.710065 0.497751
v -4.339195 1.708880 0.497823
v -4.336950 1.708991 0.500563
v -4.336669 1.709698 0.498999
v -4.337018 1.708792 0.498761
v -4.337231 1.708257 0.499945
v -4.336950 1.708991 0.500563
v -4.337018 1.708792 0.498761
v -4.336669 1.709698 0.498999
v -4.336950 1.708991 0.500563
v -4.336891 1.710303 0.501317
v -4.336669 1.709698 0.498999
v -4.337431 1.711686 0.501637
v -4.337168 1.712351 0.500167
v -4.336567 1.711120 0.499510
v -4.336891 1.710303 0.501317
v -4.337431 1.711686 0.501637
v -4.336567 1.711120 0.499510
v -4.336567 1.711120 0.499510
v -4.337824 1.710065 0.497751
v -4.336669 1.709698 0.498999
v -4.336567 1.711120 0.499510
v -4.337824 1.710065 0.497751
v -4.337168 1.712351 0.500167
v -4.338253 1.712696 0.498994
v -4.337901 1.711543 0.498069
v -4.336567 1.711120 0.499510
v -4.337168 1.712351 0.500167
v -4.337901 1.711543 0.498069
v -4.337901 1.711543 0.498069
v -4.339545 1.709814 0.497760
v -4.337824 1.710065 0.497751
v -4.337901 1.711543 0.498069
v -4.339545 1.709814 0.497760
v -4.338253 1.712696 0.498994
v -4.339871 1.712460 0.499002
v -4.339890 1.711254 0.498078
v -4.337901 1.711543 0.498069
v -4.338253 1.712696 0.498994
v -4.339890 1.711254 0.498078
v -4.339890 1.711254 0.498078
v -4.340536 1.709136 0.499017
v -4.339545 1.709814 0.497760
v -4.339890 1.711254 0.498078
v -4.340536 1.709136 0.499017
v -4.339871 1.712460 0.499002
v -4.340803 1.711822 0.500184
v -4.341034 1.710470 0.499531
v -4.339890 1.711254 0.498078
v -4.339871 1.712460 0.499002
v -4.341034 1.710470 0.499531
v -4.341034 1.710470 0.499531
v -4.340051 1.708540 0.500577
v -4.340536 1.709136 0.499017
v -4.341034 1.710470 0.499531
v -4.340051 1.708540 0.500577
v -4.340803 1.711822 0.500184
v -4.340347 1.711262 0.501651
v -4.340474 1.709782 0.501334
v -4.341034 1.710470 0.499531
v -4.340803 1.711822 0.500184
v -4.340474 1.709782 0.501334
v -4.340474 1.709782 0.501334
v -4.338455 1.708475 0.501265
v -4.340051 1.708540 0.500577
v -4.340474 1.709782 0.501334
v -4.338455 1.708475 0.501265
v -4.340347 1.711262 0.501651
v -4.338847 1.711202 0.502298
v -4.338630 1.709707 0.502128
v -4.340474 1.709782 0.501334
v -4.340347 1.711262 0.501651
v -4.338630 1.709707 0.502128
v -4.338630 1.709707 0.502128
v -4.336891 1.710303 0.501317
v -4.336950 1.708991 0.500563
v -4.338455 1.708475 0.501265
v -4.338630 1.709707 0.502128
v -4.336950 1.708991 0.500563
v -4.338847 1.711202 0.502298
v -4.337431 1.711686 0.501637
v -4.336891 1.710303 0.501317
v -4.338630 1.709707 0.502128
v -4.338847 1.711202 0.502298
v -4.336891 1.710303 0.501317
v -4.338091 1.712668 0.501647
v -4.337919 1.713102 0.500688
v -4.337168 1.712351 0.500167
v -4.337431 1.711686 0.501637
v -4.338091 1.712668 0.501647
v -4.337168 1.712351 0.500167
v -4.338628 1.713327 0.499922
v -4.337919 1.713102 0.500688
v -4.339684 1.713173 0.499927
v -4.338091 1.712668 0.501647
v -4.339684 1.713173 0.499927
v -4.337919 1.713102 0.500688
v -4.340292 1.712757 0.500699
v -4.339684 1.713173 0.499927
v -4.338091 1.712668 0.501647
v -4.339015 1.712352 0.502078
v -4.340292 1.712757 0.500699
v -4.338091 1.712668 0.501647
v -4.339994 1.712391 0.501656
v -4.340292 1.712757 0.500699
v -4.339015 1.712352 0.502078
v -4.337138 1.704130 0.495604
v -4.338531 1.703928 0.495611
v -4.336203 1.703834 0.496614
v -4.336430 1.703261 0.497880
v -4.336203 1.703834 0.496614
v -4.338531 1.703928 0.495611
v -4.339334 1.703378 0.496629
v -4.336430 1.703261 0.497880
v -4.338531 1.703928 0.495611
v -4.337649 1.702843 0.498449
v -4.336430 1.703261 0.497880
v -4.339334 1.703378 0.496629
v -4.338941 1.702896 0.497892
v -4.337649 1.702843 0.498449
v -4.339334 1.703378 0.496629
vn 0.1308 -0.9119 -0.3890
vn -0.0741 0.5364 0.8407
vn -0.6596 0.7222 0.2082
vn -0.5231 0.5545 0.6472
vn 0.3495 0.6815 0.6430
vn -0.0740 0.5364 0.8407
vn 0.3494 0.6815 0.6431
vn -0.3808 0.9131 -0.1457
vn 0.4284 0.8805 0.2030
vn 0.3494 0.6815 0.6430
vn 0.4284 0.8805 0.2031
vn 0.1034 0.9836 -0.1480
vn 0.8151 0.5784 -0.0326
vn 0.6872 0.2563 0.6797
vn 0.8058 -0.0925 0.5850
vn 0.0017 0.0214 0.9998
vn 0.0554 -0.3495 0.9353
vn 0.8058 -0.0924 0.5850
vn 0.6872 0.2562 0.6797
vn 0.8079 -0.4273 0.4060
vn 0.0553 -0.3495 0.9353
vn 0.1009 -0.6694 0.7360
vn 0.8079 -0.4272 0.4060
vn -0.7253 0.0507 0.6865
vn -0.7405 -0.3174 0.5924
vn -0.7404 -0.3174 0.5924
vn -0.6488 -0.6392 0.4130
vn -0.9464 0.3221 -0.0242
vn -0.9824 -0.0204 -0.1855
vn -0.7254 0.0507 0.6865
vn -0.9464 0.3221 -0.0241
vn -0.8767 -0.3593 -0.3198
vn -0.9824 -0.0204 -0.1856
vn -0.4950 0.6312 -0.5971
vn -0.4883 0.3180 -0.8126
vn -0.8767 -0.3593 -0.3199
vn -0.4883 0.3180 -0.8127
vn -0.4113 -0.0405 -0.9106
vn -0.4884 0.3180 -0.8126
vn 0.2889 0.7453 -0.6008
vn 0.3698 0.4429 -0.8168
vn -0.4112 -0.0406 -0.9106
vn 0.3972 0.0771 -0.9145
vn 0.9457 0.2602 -0.1948
vn 0.2890 0.7453 -0.6009
vn 0.8151 0.5785 -0.0326
vn 0.9397 -0.0949 -0.3286
vn 0.9457 0.2602 -0.1947
vn 0.6873 0.2562 0.6797
vn 0.9457 0.2603 -0.1947
vn 0.9397 -0.0950 -0.3286
vn 0.9525 -0.0201 -0.3039
vn 0.8173 -0.3608 0.4493
vn 0.9397 -0.0950 -0.3285
vn -0.4328 0.0358 -0.9008
vn 0.3971 0.0771 -0.9145
vn 0.3962 0.1563 -0.9048
vn -0.4328 0.0357 -0.9008
vn -0.6764 -0.5781 0.4565
vn -0.9100 -0.2912 -0.2950
vn -0.6763 -0.5781 0.4564
vn 0.1010 -0.6694 0.7360
vn 0.0924 -0.6091 0.7877
vn 0.3962 0.1564 -0.9048
vn 0.3961 0.1563 -0.9048
vn -0.9101 -0.2911 -0.2950
vn -0.4113 -0.0406 -0.9106
vn -0.4327 0.0357 -0.9008
vn 0.2889 0.7453 -0.6009
vn -0.3808 0.9131 -0.1456
vn 0.1035 0.9836 -0.1480
vn 0.6872 0.2562 0.6798
vn 0.0017 0.0213 0.9998
vn -0.0740 0.5365 0.8407
vn 0.2890 0.7453 -0.6008
vn 0.8086 -0.1094 0.5781
vn 0.0578 -0.3666 0.9286
vn 0.8086 -0.1093 0.5781
vn 0.3725 0.4262 -0.8244
vn 0.9486 0.2435 -0.2021
vn 0.3725 0.4263 -0.8243
vn -0.9805 -0.0372 -0.1929
vn -0.4862 0.3013 -0.8202
vn -0.9101 -0.2912 -0.2950
vn -0.6763 -0.5781 0.4565
vn -0.7384 -0.3345 0.5856
vn 0.0578 -0.3665 0.9286
vn 0.9486 0.2435 -0.2020
vn -0.4862 0.3013 -0.8203
vn 0.3724 0.4263 -0.8244
vn -0.4862 0.3014 -0.8203
vn -0.7384 -0.3345 0.5855
vn -0.9805 -0.0372 -0.1928
vn -0.7384 -0.3344 0.5855
vt 0.543243 0.635056
vt 0.535370 0.641335
vt 0.537796 0.636299
vt 0.537796 0.646370
vt 0.547607 0.638535
vt 0.543243 0.647614
vt 0.547607 0.644127
vt 0.593674 0.671494
vt 0.598511 0.669548
vt 0.596146 0.672157
vt 0.592773 0.669609
vt 0.596436 0.666756
vt 0.592804 0.667854
vt 0.594147 0.666748
vt 0.591187 0.666855
vt 0.590591 0.669838
vt 0.587372 0.669685
vt 0.591782 0.673050
vt 0.588348 0.674789
vt 0.582382 0.669067
vt 0.582687 0.676537
vt 0.595596 0.675606
vt 0.592606 0.680244
vt 0.586334 0.684982
vt 0.603775 0.674767
vt 0.603561 0.686485
vt 0.594009 0.696274
vt 0.603775 0.658051
vt 0.597107 0.663902
vt 0.596405 0.659698
vt 0.602859 0.665543
vt 0.600342 0.651657
vt 0.594193 0.655174
vt 0.593353 0.664742
vt 0.591705 0.661980
vt 0.588959 0.658463
vt 0.588654 0.665283
vt 0.584778 0.662933
vt 0.580322 0.660286
vt 0.576584 0.668175
vt 0.591812 0.651588
vt 0.585907 0.654999
vt 0.579453 0.688484
vt 0.584915 0.699394
vt 0.576157 0.678001
vt 0.597061 0.648293
vt 0.627350 0.682632
vt 0.649124 0.687675
vt 0.627441 0.688225
vt 0.649033 0.682457
vt 0.627441 0.671455
vt 0.649033 0.677231
vt 0.627350 0.677048
vt 0.649124 0.672005
vt 0.627914 0.660294
vt 0.649292 0.666786
vt 0.627625 0.665871
vt 0.649551 0.661568
vt 0.649292 0.692902
vt 0.627625 0.693810
vt 0.649551 0.698120
vt 0.627914 0.699394
s 0
usemtl decorations
f 240/1/1 239/2/1 238/3/1
f 237/1/1 236/4/1 235/2/1
f 234/5/1 233/4/1 232/1/1
f 231/5/1 230/6/1 229/4/1
f 228/6/1 227/5/1 226/7/1
s 1
f 225/8/2 224/9/3 223/10/4
f 222/11/5 221/9/3 220/8/6
f 219/11/7 218/12/8 217/9/3
f 216/13/9 215/12/8 214/11/10
f 213/12/8 212/13/11 211/14/12
f 210/15/13 209/11/10 208/16/14
f 207/15/13 206/13/9 205/11/10
f 204/17/15 203/18/16 202/19/17
f 201/17/18 200/16/19 199/18/16
f 198/20/20 197/19/21 196/21/22
f 195/20/23 194/17/18 193/19/17
f 192/19/17 191/22/24 190/23/25
f 189/19/17 188/18/16 187/22/24
f 186/21/22 185/23/26 184/24/27
f 183/21/22 3/19/17 182/23/26
f 181/23/25 180/25/28 179/26/29
f 178/23/25 177/22/30 176/25/31
f 175/24/27 174/26/29 173/27/32
f 172/24/27 4/23/25 171/26/29
f 170/28/33 169/29/34 168/30/35
f 167/28/33 166/31/28 165/29/34
f 164/32/36 163/30/37 162/33/38
f 161/32/36 13/28/33 160/30/39
f 159/30/35 158/34/40 157/35/41
f 156/30/35 155/29/34 154/34/40
f 153/33/42 152/35/41 151/36/43
f 150/33/42 14/30/35 149/35/41
f 148/35/41 147/15/13 146/37/44
f 145/35/41 144/34/45 143/15/46
f 142/36/43 141/37/44 140/38/47
f 139/36/43 16/35/41 138/37/48
f 137/37/48 136/16/49 135/17/18
f 134/37/50 133/15/13 132/16/14
f 131/38/51 130/17/15 129/20/23
f 128/38/51 36/37/44 25/17/15
f 127/39/52 126/20/23 125/40/53
f 124/39/52 123/38/54 122/20/23
f 121/41/55 120/36/56 119/42/57
f 118/41/58 117/33/42 116/36/56
f 115/43/59 114/27/32 113/44/60
f 112/43/61 111/24/27 110/27/32
f 109/40/53 108/21/62 107/45/63
f 106/40/53 40/20/23 105/21/62
f 104/42/64 103/38/51 102/39/52
f 101/42/65 41/36/43 42/38/51
f 100/46/66 99/33/67 98/41/68
f 97/46/66 37/32/36 38/33/67
f 96/45/63 95/24/27 94/43/61
f 93/45/63 33/21/22 34/24/27
f 92/29/34 91/14/12 90/34/69
f 89/29/34 88/12/70 87/14/71
f 86/22/30 85/9/3 84/25/31
f 83/22/30 82/10/4 81/9/3
f 80/16/72 79/8/2 78/18/16
f 29/16/72 30/11/5 77/8/6
f 76/31/28 75/12/8 28/29/34
f 31/31/28 26/9/3 27/12/70
f 74/18/73 73/10/4 24/22/24
f 21/18/73 22/8/74 23/10/4
f 72/34/40 71/13/9 20/15/13
f 17/34/75 18/14/12 19/13/9
f 70/47/76 69/48/63 68/49/77
f 67/47/78 66/50/53 65/48/63
f 64/51/79 63/52/52 62/53/80
f 61/51/81 60/54/57 59/52/52
f 58/55/82 57/56/68 56/57/83
f 55/55/82 54/58/84 53/56/68
f 52/49/77 51/59/85 50/60/86
f 2/49/87 32/48/63 49/59/85
f 48/53/88 47/50/53 12/47/78
f 9/53/88 10/52/52 11/50/53
f 46/57/89 45/54/64 8/51/90
f 5/57/91 6/56/68 7/54/57
f 44/60/92 43/61/66 15/62/93
f 1/60/94 35/59/61 39/61/66
