# Blender 5.0.0
# www.blender.org
mtllib Circle_005_Circle_001_Dupli_54_decorations_0.mtl
o Circle.005|Circle.001|Dupli|54_decorations_0
v -4.404912 2.053375 0.693224
v -4.404395 2.052160 0.692736
v -4.397149 2.055124 0.692173
v -4.397887 2.056858 0.692870
v -4.405775 2.054507 0.691123
v -4.400856 2.056784 0.690430
v -4.400571 2.055909 0.689488
v -4.405470 2.053571 0.690116
v -4.404842 2.052317 0.690243
v -4.399984 2.054737 0.689608
v -4.399537 2.054150 0.690698
v -4.404364 2.051689 0.691409
v -4.398763 2.058348 0.691846
v -4.399117 2.058472 0.689872
v -4.405527 2.054420 0.692506
v -4.398683 2.057136 0.688435
v -4.397269 2.057655 0.688642
v -4.396217 2.057911 0.689119
v -4.395742 2.056961 0.689215
v -4.396540 2.056199 0.688790
v -4.396021 2.056017 0.691684
v -4.395403 2.056842 0.691104
v -4.395795 2.057763 0.691474
v -4.396622 2.057428 0.692251
v -4.397104 2.054451 0.690280
v -4.396260 2.058555 0.690930
v -4.396448 2.058620 0.689882
v -4.397623 2.058742 0.689811
v -4.395985 2.055470 0.690144
v -4.395379 2.056485 0.690099
v -4.397335 2.058641 0.691417
v -4.399566 2.054590 0.691938
v -4.398594 2.054672 0.692156
v -4.399233 2.056172 0.692759
v -4.400050 2.055726 0.692395
v -4.397787 2.055347 0.688617
v -4.399991 2.057462 0.691873
v -4.400298 2.057570 0.690164
v -4.400624 2.056703 0.691723
v -4.398555 2.054090 0.690518
v -4.399921 2.056414 0.688920
v -4.399146 2.054865 0.689078
v -4.400624 2.056703 0.691723
v -4.404912 2.053375 0.693224
v -4.400571 2.055909 0.689488
v -4.405775 2.054507 0.691123
v -4.399537 2.054150 0.690698
v -4.404842 2.052317 0.690243
v -4.400050 2.055726 0.692395
v -4.404912 2.053375 0.693224
v -4.400050 2.055726 0.692395
v -4.404395 2.052160 0.692736
v -4.400856 2.056784 0.690430
v -4.400624 2.056703 0.691723
v -4.405527 2.054420 0.692506
v -4.405775 2.054507 0.691123
v -4.400856 2.056784 0.690430
v -4.405527 2.054420 0.692506
v -4.399984 2.054737 0.689608
v -4.400571 2.055909 0.689488
v -4.405470 2.053571 0.690116
v -4.404842 2.052317 0.690243
v -4.399984 2.054737 0.689608
v -4.405470 2.053571 0.690116
v -4.399566 2.054590 0.691938
v -4.399537 2.054150 0.690698
v -4.404364 2.051689 0.691409
v -4.404395 2.052160 0.692736
v -4.399566 2.054590 0.691938
v -4.404364 2.051689 0.691409
v -4.395742 2.056961 0.689215
v -4.397269 2.057655 0.688642
v -4.395795 2.057763 0.691474
v -4.396021 2.056017 0.691684
v -4.396448 2.058620 0.689882
v -4.397335 2.058641 0.691417
v -4.395403 2.056842 0.691104
v -4.396021 2.056017 0.691684
v -4.395403 2.056842 0.691104
v -4.395985 2.055470 0.690144
v -4.396260 2.058555 0.690930
v -4.395795 2.057763 0.691474
v -4.396622 2.057428 0.692251
v -4.397335 2.058641 0.691417
v -4.396260 2.058555 0.690930
v -4.396622 2.057428 0.692251
v -4.396217 2.057911 0.689119
v -4.396448 2.058620 0.689882
v -4.397623 2.058742 0.689811
v -4.397269 2.057655 0.688642
v -4.396217 2.057911 0.689119
v -4.397623 2.058742 0.689811
v -4.399566 2.054590 0.691938
v -4.400050 2.055726 0.692395
v -4.399233 2.056172 0.692759
v -4.399566 2.054590 0.691938
v -4.400624 2.056703 0.691723
v -4.400856 2.056784 0.690430
v -4.400298 2.057570 0.690164
v -4.400624 2.056703 0.691723
v -4.400571 2.055909 0.689488
v -4.399984 2.054737 0.689608
v -4.399146 2.054865 0.689078
v -4.400571 2.055909 0.689488
v -4.398594 2.054672 0.692156
v -4.399537 2.054150 0.690698
v -4.399566 2.054590 0.691938
v -4.398594 2.054672 0.692156
v -4.399537 2.054150 0.690698
v -4.399991 2.057462 0.691873
v -4.399233 2.056172 0.692759
v -4.400050 2.055726 0.692395
v -4.400624 2.056703 0.691723
v -4.399991 2.057462 0.691873
v -4.400050 2.055726 0.692395
v -4.399921 2.056414 0.688920
v -4.400298 2.057570 0.690164
v -4.400856 2.056784 0.690430
v -4.400571 2.055909 0.689488
v -4.399921 2.056414 0.688920
v -4.400856 2.056784 0.690430
v -4.398555 2.054090 0.690518
v -4.399146 2.054865 0.689078
v -4.399984 2.054737 0.689608
v -4.399537 2.054150 0.690698
v -4.398555 2.054090 0.690518
v -4.399984 2.054737 0.689608
v -4.399146 2.054865 0.689078
v -4.398555 2.054090 0.690518
v -4.397104 2.054451 0.690280
v -4.399146 2.054865 0.689078
v -4.395985 2.055470 0.690144
v -4.396540 2.056199 0.688790
v -4.397787 2.055347 0.688617
v -4.397104 2.054451 0.690280
v -4.395985 2.055470 0.690144
v -4.397787 2.055347 0.688617
v -4.397787 2.055347 0.688617
v -4.399921 2.056414 0.688920
v -4.399146 2.054865 0.689078
v -4.397787 2.055347 0.688617
v -4.399921 2.056414 0.688920
v -4.396540 2.056199 0.688790
v -4.397269 2.057655 0.688642
v -4.398683 2.057136 0.688435
v -4.397787 2.055347 0.688617
v -4.396540 2.056199 0.688790
v -4.398683 2.057136 0.688435
v -4.398683 2.057136 0.688435
v -4.400298 2.057570 0.690164
v -4.399921 2.056414 0.688920
v -4.398683 2.057136 0.688435
v -4.400298 2.057570 0.690164
v -4.397269 2.057655 0.688642
v -4.397623 2.058742 0.689811
v -4.399117 2.058472 0.689872
v -4.398683 2.057136 0.688435
v -4.397269 2.057655 0.688642
v -4.399117 2.058472 0.689872
v -4.399117 2.058472 0.689872
v -4.399991 2.057462 0.691873
v -4.400298 2.057570 0.690164
v -4.399117 2.058472 0.689872
v -4.399991 2.057462 0.691873
v -4.397623 2.058742 0.689811
v -4.397335 2.058641 0.691417
v -4.398763 2.058348 0.691846
v -4.399117 2.058472 0.689872
v -4.397623 2.058742 0.689811
v -4.398763 2.058348 0.691846
v -4.398763 2.058348 0.691846
v -4.399233 2.056172 0.692759
v -4.399991 2.057462 0.691873
v -4.398763 2.058348 0.691846
v -4.399233 2.056172 0.692759
v -4.397335 2.058641 0.691417
v -4.396622 2.057428 0.692251
v -4.397887 2.056858 0.692870
v -4.398763 2.058348 0.691846
v -4.397335 2.058641 0.691417
v -4.397887 2.056858 0.692870
v -4.397887 2.056858 0.692870
v -4.398594 2.054672 0.692156
v -4.399233 2.056172 0.692759
v -4.397887 2.056858 0.692870
v -4.398594 2.054672 0.692156
v -4.396622 2.057428 0.692251
v -4.396021 2.056017 0.691684
v -4.397149 2.055124 0.692173
v -4.397887 2.056858 0.692870
v -4.396622 2.057428 0.692251
v -4.397149 2.055124 0.692173
v -4.397149 2.055124 0.692173
v -4.397104 2.054451 0.690280
v -4.398555 2.054090 0.690518
v -4.398594 2.054672 0.692156
v -4.397149 2.055124 0.692173
v -4.398555 2.054090 0.690518
v -4.396021 2.056017 0.691684
v -4.395985 2.055470 0.690144
v -4.397104 2.054451 0.690280
v -4.397149 2.055124 0.692173
v -4.396021 2.056017 0.691684
v -4.397104 2.054451 0.690280
v -4.395379 2.056485 0.690099
v -4.395742 2.056961 0.689215
v -4.396540 2.056199 0.688790
v -4.395985 2.055470 0.690144
v -4.395379 2.056485 0.690099
v -4.396540 2.056199 0.688790
v -4.396217 2.057911 0.689119
v -4.395742 2.056961 0.689215
v -4.396448 2.058620 0.689882
v -4.395379 2.056485 0.690099
v -4.396448 2.058620 0.689882
v -4.395742 2.056961 0.689215
v -4.396260 2.058555 0.690930
v -4.396448 2.058620 0.689882
v -4.395379 2.056485 0.690099
v -4.395403 2.056842 0.691104
v -4.396260 2.058555 0.690930
v -4.395379 2.056485 0.690099
v -4.395795 2.057763 0.691474
v -4.396260 2.058555 0.690930
v -4.395403 2.056842 0.691104
v -4.405470 2.053571 0.690116
v -4.405775 2.054507 0.691123
v -4.404842 2.052317 0.690243
v -4.404364 2.051689 0.691409
v -4.404842 2.052317 0.690243
v -4.405775 2.054507 0.691123
v -4.405527 2.054420 0.692506
v -4.404364 2.051689 0.691409
v -4.405775 2.054507 0.691123
v -4.404395 2.052160 0.692736
v -4.404364 2.051689 0.691409
v -4.405527 2.054420 0.692506
v -4.404912 2.053375 0.693224
v -4.404395 2.052160 0.692736
v -4.405527 2.054420 0.692506
vn -0.8916 -0.4330 0.1327
vn 0.9607 0.0142 0.2773
vn 0.5675 0.7994 0.1974
vn 0.7809 0.4364 0.4469
vn 0.9715 -0.1495 -0.1837
vn 0.5675 0.7993 0.1975
vn 0.9716 -0.1495 -0.1836
vn 0.4813 0.8295 -0.2833
vn 0.8053 0.0686 -0.5889
vn 0.4813 0.8296 -0.2833
vn 0.5871 0.5043 -0.6332
vn 0.4755 -0.2911 -0.8301
vn 0.7447 -0.6442 -0.1741
vn 0.4755 -0.2912 -0.8301
vn 0.4505 -0.8823 -0.1363
vn 0.7271 -0.3793 0.5722
vn 0.4313 -0.5922 0.6806
vn 0.4506 -0.8823 -0.1363
vn 0.7447 -0.6443 -0.1741
vn 0.7272 -0.3792 0.5722
vn 0.0919 -0.9926 -0.0789
vn 0.4313 -0.5922 0.6807
vn 0.0738 -0.7193 0.6907
vn 0.4314 -0.5921 0.6806
vn 0.4361 0.3044 0.8469
vn 0.1127 0.1562 0.9813
vn 0.7271 -0.3792 0.5723
vn 0.0737 -0.7193 0.6908
vn -0.2264 -0.0144 0.9739
vn 0.0906 0.8919 0.4430
vn -0.2654 0.7993 0.5392
vn 0.4360 0.3045 0.8469
vn -0.2265 -0.0144 0.9739
vn -0.2655 0.7993 0.5392
vn -0.5826 0.5915 0.5575
vn -0.0491 0.9409 -0.3352
vn -0.4183 0.8528 -0.3127
vn -0.0490 0.9409 -0.3352
vn -0.5826 0.5915 0.5574
vn -0.7266 0.6419 -0.2450
vn -0.4182 0.8528 -0.3126
vn 0.1223 0.4144 -0.9018
vn -0.2308 0.2765 -0.9329
vn -0.0490 0.9408 -0.3353
vn -0.7266 0.6419 -0.2451
vn -0.5499 0.0990 -0.8293
vn -0.2308 0.2764 -0.9329
vn 0.4755 -0.2911 -0.8302
vn 0.1559 -0.4957 -0.8544
vn 0.1223 0.4143 -0.9019
vn 0.4755 -0.2910 -0.8301
vn -0.5499 0.0989 -0.8293
vn -0.1857 -0.6284 -0.7554
vn 0.1560 -0.4957 -0.8544
vn -0.1857 -0.6285 -0.7553
vn -0.1148 -0.6078 -0.7858
vn 0.1698 -0.9812 -0.0921
vn -0.1857 -0.6285 -0.7554
vn -0.6695 0.6949 -0.2626
vn -0.4883 0.1382 -0.8616
vn -0.6695 0.6949 -0.2625
vn -0.1566 0.0220 0.9874
vn -0.5219 0.6432 0.5604
vn -0.2264 -0.0143 0.9739
vn 0.1512 -0.7009 0.6970
vn -0.4883 0.1382 -0.8617
vn -0.1148 -0.6077 -0.7858
vn -0.5218 0.6432 0.5604
vn -0.0491 0.9408 -0.3353
vn 0.4813 0.8295 -0.2832
vn 0.5871 0.5043 -0.6333
vn 0.4361 0.3045 0.8468
vn 0.5675 0.7993 0.1974
vn 0.7447 -0.6443 -0.1740
vn 0.9715 -0.1495 -0.1838
vn 0.7271 -0.3793 0.5723
vn 0.7809 0.4365 0.4469
vn 0.4343 -0.8908 -0.1339
vn 0.1513 -0.7009 0.6970
vn 0.4151 -0.6005 0.6835
vn 0.4344 -0.8907 -0.1339
vn -0.2474 0.2686 -0.9310
vn 0.1395 -0.5039 -0.8524
vn -0.2473 0.2686 -0.9310
vn -0.2821 0.7917 0.5419
vn -0.4350 0.8453 -0.3103
vn 0.4150 -0.6005 0.6835
vn 0.0963 0.1482 0.9843
vn 0.1395 -0.5040 -0.8524
vn 0.4343 -0.8907 -0.1339
vn 0.1396 -0.5040 -0.8524
vn -0.4350 0.8452 -0.3104
vn -0.2474 0.2686 -0.9309
vn -0.4350 0.8453 -0.3104
vn 0.0962 0.1482 0.9843
vn 0.0963 0.1483 0.9843
vt 0.543243 0.635056
vt 0.535370 0.641335
vt 0.537796 0.636299
vt 0.537796 0.646370
vt 0.547607 0.638535
vt 0.543243 0.647614
vt 0.547607 0.644127
vt 0.593674 0.671494
vt 0.598511 0.669548
vt 0.596146 0.672157
vt 0.592773 0.669609
vt 0.596436 0.666756
vt 0.592804 0.667854
vt 0.594147 0.666748
vt 0.591187 0.666855
vt 0.590591 0.669838
vt 0.587372 0.669685
vt 0.591782 0.673050
vt 0.588348 0.674789
vt 0.582382 0.669067
vt 0.582687 0.676537
vt 0.595596 0.675606
vt 0.592606 0.680244
vt 0.586334 0.684982
vt 0.603775 0.674767
vt 0.603561 0.686485
vt 0.594009 0.696274
vt 0.603775 0.658051
vt 0.597107 0.663902
vt 0.596405 0.659698
vt 0.602859 0.665543
vt 0.600342 0.651657
vt 0.594193 0.655174
vt 0.593353 0.664742
vt 0.591705 0.661980
vt 0.588959 0.658463
vt 0.588654 0.665283
vt 0.584778 0.662933
vt 0.580322 0.660286
vt 0.576584 0.668175
vt 0.591812 0.651588
vt 0.585907 0.654999
vt 0.579453 0.688484
vt 0.584915 0.699394
vt 0.576157 0.678001
vt 0.597061 0.648293
vt 0.627350 0.682632
vt 0.649124 0.687675
vt 0.627441 0.688225
vt 0.649033 0.682457
vt 0.627441 0.671455
vt 0.649033 0.677231
vt 0.627350 0.677048
vt 0.649124 0.672005
vt 0.627914 0.660294
vt 0.649292 0.666786
vt 0.627625 0.665871
vt 0.649551 0.661568
vt 0.649292 0.692902
vt 0.627625 0.693810
vt 0.649551 0.698120
vt 0.627914 0.699394
s 0
usemtl decorations
f 240/1/1 239/2/1 238/3/1
f 237/1/1 236/4/1 235/2/1
f 234/5/1 233/4/1 232/1/1
f 231/5/1 230/6/1 229/4/1
f 228/6/1 227/5/1 226/7/1
s 1
f 225/8/2 224/9/3 223/10/4
f 222/11/5 221/9/6 220/8/2
f 219/11/7 218/12/8 217/9/3
f 216/13/9 215/12/10 214/11/5
f 213/12/8 212/13/9 211/14/11
f 210/15/12 209/11/5 208/16/13
f 207/15/14 206/13/9 205/11/5
f 204/17/15 203/18/16 202/19/17
f 201/17/18 200/16/19 199/18/20
f 198/20/21 197/19/22 196/21/23
f 195/20/21 194/17/18 193/19/24
f 192/19/17 191/22/25 190/23/26
f 189/19/17 188/18/27 187/22/25
f 186/21/28 185/23/26 184/24/29
f 183/21/28 3/19/22 182/23/26
f 181/23/26 180/25/30 179/26/31
f 178/23/26 177/22/32 176/25/30
f 175/24/33 174/26/34 173/27/35
f 172/24/29 4/23/26 171/26/34
f 170/28/34 169/29/36 168/30/37
f 167/28/34 166/31/30 165/29/38
f 164/32/39 163/30/37 162/33/40
f 161/32/39 13/28/34 160/30/41
f 159/30/37 158/34/42 157/35/43
f 156/30/37 155/29/44 154/34/42
f 153/33/45 152/35/43 151/36/46
f 150/33/45 14/30/37 149/35/43
f 148/35/47 147/15/48 146/37/49
f 145/35/47 144/34/50 143/15/51
f 142/36/52 141/37/49 140/38/53
f 139/36/52 16/35/43 138/37/49
f 137/37/49 136/16/19 135/17/18
f 134/37/54 133/15/12 132/16/13
f 131/38/55 130/17/18 129/20/21
f 128/38/55 36/37/49 25/17/18
f 127/39/56 126/20/21 125/40/57
f 124/39/56 123/38/58 122/20/21
f 121/41/59 120/36/46 119/42/60
f 118/41/61 117/33/40 116/36/46
f 115/43/62 114/27/35 113/44/63
f 112/43/62 111/24/64 110/27/35
f 109/40/57 108/21/23 107/45/65
f 106/40/57 40/20/21 105/21/23
f 104/42/66 103/38/53 102/39/67
f 101/42/60 41/36/46 42/38/53
f 100/46/68 99/33/40 98/41/61
f 97/46/68 37/32/39 38/33/40
f 96/45/65 95/24/29 94/43/62
f 93/45/65 33/21/23 34/24/29
f 92/29/44 91/14/11 90/34/42
f 89/29/69 88/12/70 87/14/71
f 86/22/72 85/9/73 84/25/30
f 83/22/32 82/10/4 81/9/73
f 80/16/19 79/8/2 78/18/20
f 29/16/74 30/11/75 77/8/2
f 76/31/30 75/12/8 28/29/38
f 31/31/30 26/9/73 27/12/70
f 74/18/76 73/10/77 24/22/25
f 21/18/76 22/8/2 23/10/4
f 72/34/50 71/13/9 20/15/12
f 17/34/50 18/14/11 19/13/9
f 70/47/78 69/48/79 68/49/80
f 67/47/81 66/50/57 65/48/65
f 64/51/82 63/52/67 62/53/83
f 61/51/84 60/54/66 59/52/67
f 58/55/85 57/56/59 56/57/86
f 55/55/85 54/58/68 53/56/59
f 52/49/87 51/59/62 50/60/88
f 2/49/80 32/48/65 49/59/62
f 48/53/89 47/50/57 12/47/90
f 9/53/91 10/52/67 11/50/57
f 46/57/92 45/54/66 8/51/93
f 5/57/94 6/56/59 7/54/60
f 44/60/95 43/61/68 15/62/85
f 1/60/96 35/59/62 39/61/68
