# Blender 5.0.0
# www.blender.org
mtllib Circle_002_Circle_004_Dupli_136_decorations_0.mtl
o Circle.002|Circle.004|Dupli|136_decorations_0
v -4.432345 1.200198 0.397620
v -4.431934 1.199837 0.396322
v -4.429847 1.207208 0.394611
v -4.430434 1.207722 0.396463
v -4.434834 1.200603 0.397331
v -4.433761 1.205825 0.396132
v -4.433950 1.205582 0.394852
v -4.435037 1.200343 0.395962
v -4.434093 1.199954 0.394993
v -4.433067 1.205218 0.393946
v -4.431777 1.205008 0.394095
v -4.432712 1.199729 0.395153
v -4.432275 1.208208 0.397103
v -4.433984 1.208300 0.396051
v -4.433636 1.200539 0.398069
v -4.434275 1.207929 0.394098
v -4.433606 1.209284 0.393933
v -4.432813 1.210162 0.393941
v -4.432097 1.209867 0.393206
v -4.432509 1.208832 0.392808
v -4.430004 1.208697 0.394351
v -4.430462 1.209779 0.394214
v -4.430774 1.210052 0.395197
v -4.430481 1.209116 0.395858
v -4.430957 1.207053 0.392943
v -4.431752 1.210310 0.395537
v -4.432659 1.210359 0.394978
v -4.433370 1.209586 0.395523
v -4.430906 1.208571 0.392994
v -4.431051 1.209697 0.393328
v -4.431979 1.209511 0.396379
v -4.431049 1.205109 0.395188
v -4.430418 1.205848 0.394954
v -4.430926 1.206293 0.396557
v -4.431434 1.205446 0.396402
v -4.432927 1.207374 0.392715
v -4.432519 1.206714 0.397112
v -4.433999 1.206794 0.396201
v -4.432641 1.205765 0.396822
v -4.431378 1.205714 0.393510
v -4.434250 1.206472 0.394510
v -4.433084 1.205992 0.393313
v -4.432641 1.205765 0.396822
v -4.432345 1.200198 0.397620
v -4.433950 1.205582 0.394852
v -4.434834 1.200603 0.397331
v -4.431777 1.205008 0.394095
v -4.434093 1.199954 0.394993
v -4.431434 1.205446 0.396402
v -4.432345 1.200198 0.397620
v -4.431434 1.205446 0.396402
v -4.431934 1.199837 0.396322
v -4.433761 1.205825 0.396132
v -4.432641 1.205765 0.396822
v -4.433636 1.200539 0.398069
v -4.434834 1.200603 0.397331
v -4.433761 1.205825 0.396132
v -4.433636 1.200539 0.398069
v -4.433067 1.205218 0.393946
v -4.433950 1.205582 0.394852
v -4.435037 1.200343 0.395962
v -4.434093 1.199954 0.394993
v -4.433067 1.205218 0.393946
v -4.435037 1.200343 0.395962
v -4.431049 1.205109 0.395188
v -4.431777 1.205008 0.394095
v -4.432712 1.199729 0.395153
v -4.431934 1.199837 0.396322
v -4.431049 1.205109 0.395188
v -4.432712 1.199729 0.395153
v -4.432097 1.209867 0.393206
v -4.433606 1.209284 0.393933
v -4.430774 1.210052 0.395197
v -4.430004 1.208697 0.394351
v -4.432659 1.210359 0.394978
v -4.431979 1.209511 0.396379
v -4.430462 1.209779 0.394214
v -4.430004 1.208697 0.394351
v -4.430462 1.209779 0.394214
v -4.430906 1.208571 0.392994
v -4.431752 1.210310 0.395537
v -4.430774 1.210052 0.395197
v -4.430481 1.209116 0.395858
v -4.431979 1.209511 0.396379
v -4.431752 1.210310 0.395537
v -4.430481 1.209116 0.395858
v -4.432813 1.210162 0.393941
v -4.432659 1.210359 0.394978
v -4.433370 1.209586 0.395523
v -4.433606 1.209284 0.393933
v -4.432813 1.210162 0.393941
v -4.433370 1.209586 0.395523
v -4.431049 1.205109 0.395188
v -4.431434 1.205446 0.396402
v -4.430926 1.206293 0.396557
v -4.431049 1.205109 0.395188
v -4.432641 1.205765 0.396822
v -4.433761 1.205825 0.396132
v -4.433999 1.206794 0.396201
v -4.432641 1.205765 0.396822
v -4.433950 1.205582 0.394852
v -4.433067 1.205218 0.393946
v -4.433084 1.205992 0.393313
v -4.433950 1.205582 0.394852
v -4.430418 1.205848 0.394954
v -4.431777 1.205008 0.394095
v -4.431049 1.205109 0.395188
v -4.430418 1.205848 0.394954
v -4.431777 1.205008 0.394095
v -4.432519 1.206714 0.397112
v -4.430926 1.206293 0.396557
v -4.431434 1.205446 0.396402
v -4.432641 1.205765 0.396822
v -4.432519 1.206714 0.397112
v -4.431434 1.205446 0.396402
v -4.434250 1.206472 0.394510
v -4.433999 1.206794 0.396201
v -4.433761 1.205825 0.396132
v -4.433950 1.205582 0.394852
v -4.434250 1.206472 0.394510
v -4.433761 1.205825 0.396132
v -4.431378 1.205714 0.393510
v -4.433084 1.205992 0.393313
v -4.433067 1.205218 0.393946
v -4.431777 1.205008 0.394095
v -4.431378 1.205714 0.393510
v -4.433067 1.205218 0.393946
v -4.433084 1.205992 0.393313
v -4.431378 1.205714 0.393510
v -4.430957 1.207053 0.392943
v -4.433084 1.205992 0.393313
v -4.430906 1.208571 0.392994
v -4.432509 1.208832 0.392808
v -4.432927 1.207374 0.392715
v -4.430957 1.207053 0.392943
v -4.430906 1.208571 0.392994
v -4.432927 1.207374 0.392715
v -4.432927 1.207374 0.392715
v -4.434250 1.206472 0.394510
v -4.433084 1.205992 0.393313
v -4.432927 1.207374 0.392715
v -4.434250 1.206472 0.394510
v -4.432509 1.208832 0.392808
v -4.433606 1.209284 0.393933
v -4.434275 1.207929 0.394098
v -4.432927 1.207374 0.392715
v -4.432509 1.208832 0.392808
v -4.434275 1.207929 0.394098
v -4.434275 1.207929 0.394098
v -4.433999 1.206794 0.396201
v -4.434250 1.206472 0.394510
v -4.434275 1.207929 0.394098
v -4.433999 1.206794 0.396201
v -4.433606 1.209284 0.393933
v -4.433370 1.209586 0.395523
v -4.433984 1.208300 0.396051
v -4.434275 1.207929 0.394098
v -4.433606 1.209284 0.393933
v -4.433984 1.208300 0.396051
v -4.433984 1.208300 0.396051
v -4.432519 1.206714 0.397112
v -4.433999 1.206794 0.396201
v -4.433984 1.208300 0.396051
v -4.432519 1.206714 0.397112
v -4.433370 1.209586 0.395523
v -4.431979 1.209511 0.396379
v -4.432275 1.208208 0.397103
v -4.433984 1.208300 0.396051
v -4.433370 1.209586 0.395523
v -4.432275 1.208208 0.397103
v -4.432275 1.208208 0.397103
v -4.430926 1.206293 0.396557
v -4.432519 1.206714 0.397112
v -4.432275 1.208208 0.397103
v -4.430926 1.206293 0.396557
v -4.431979 1.209511 0.396379
v -4.430481 1.209116 0.395858
v -4.430434 1.207722 0.396463
v -4.432275 1.208208 0.397103
v -4.431979 1.209511 0.396379
v -4.430434 1.207722 0.396463
v -4.430434 1.207722 0.396463
v -4.430418 1.205848 0.394954
v -4.430926 1.206293 0.396557
v -4.430434 1.207722 0.396463
v -4.430418 1.205848 0.394954
v -4.430481 1.209116 0.395858
v -4.430004 1.208697 0.394351
v -4.429847 1.207208 0.394611
v -4.430434 1.207722 0.396463
v -4.430481 1.209116 0.395858
v -4.429847 1.207208 0.394611
v -4.429847 1.207208 0.394611
v -4.430957 1.207053 0.392943
v -4.431378 1.205714 0.393510
v -4.430418 1.205848 0.394954
v -4.429847 1.207208 0.394611
v -4.431378 1.205714 0.393510
v -4.430004 1.208697 0.394351
v -4.430906 1.208571 0.392994
v -4.430957 1.207053 0.392943
v -4.429847 1.207208 0.394611
v -4.430004 1.208697 0.394351
v -4.430957 1.207053 0.392943
v -4.431051 1.209697 0.393328
v -4.432097 1.209867 0.393206
v -4.432509 1.208832 0.392808
v -4.430906 1.208571 0.392994
v -4.431051 1.209697 0.393328
v -4.432509 1.208832 0.392808
v -4.432813 1.210162 0.393941
v -4.432097 1.209867 0.393206
v -4.432659 1.210359 0.394978
v -4.431051 1.209697 0.393328
v -4.432659 1.210359 0.394978
v -4.432097 1.209867 0.393206
v -4.431752 1.210310 0.395537
v -4.432659 1.210359 0.394978
v -4.431051 1.209697 0.393328
v -4.430462 1.209779 0.394214
v -4.431752 1.210310 0.395537
v -4.431051 1.209697 0.393328
v -4.430774 1.210052 0.395197
v -4.431752 1.210310 0.395537
v -4.430462 1.209779 0.394214
v -4.435037 1.200343 0.395962
v -4.434834 1.200603 0.397331
v -4.434093 1.199954 0.394993
v -4.432712 1.199729 0.395153
v -4.434093 1.199954 0.394993
v -4.434834 1.200603 0.397331
v -4.433636 1.200539 0.398069
v -4.432712 1.199729 0.395153
v -4.434834 1.200603 0.397331
v -4.431934 1.199837 0.396322
v -4.432712 1.199729 0.395153
v -4.433636 1.200539 0.398069
v -4.432345 1.200198 0.397620
v -4.431934 1.199837 0.396322
v -4.433636 1.200539 0.398069
vn -0.1808 -0.9610 0.2095
vn 0.6979 0.6775 -0.2324
vn 0.1065 0.9211 0.3746
vn 0.5550 0.8027 0.2185
vn 0.4277 0.6397 -0.6387
vn 0.1065 0.9210 0.3746
vn 0.4277 0.6397 -0.6386
vn -0.3097 0.9435 0.1183
vn -0.0521 0.7178 -0.6942
vn -0.0521 0.7178 -0.6943
vn -0.3803 0.8530 -0.3574
vn -0.2523 0.2695 -0.9294
vn 0.5245 0.1431 -0.8393
vn -0.0521 0.7179 -0.6942
vn 0.5002 -0.2364 -0.8330
vn 0.9619 0.2042 -0.1817
vn 0.9790 -0.1695 -0.1132
vn 0.4038 -0.5811 -0.7066
vn 0.9790 -0.1695 -0.1131
vn 0.8549 -0.5181 -0.0284
vn 0.9790 -0.1694 -0.1132
vn 0.7306 0.4069 0.5484
vn 0.7258 0.0524 0.6859
vn 0.9619 0.2042 -0.1816
vn 0.6163 -0.3090 0.7243
vn 0.0046 0.5985 0.8011
vn -0.0689 0.2622 0.9626
vn 0.7305 0.4069 0.5484
vn 0.0046 0.5986 0.8011
vn 0.6162 -0.3091 0.7244
vn -0.1323 -0.1114 0.9849
vn 0.6163 -0.3091 0.7244
vn 0.7258 0.0524 0.6860
vn -0.6693 0.6348 0.3862
vn -0.8065 0.3019 0.5084
vn -0.6692 0.6348 0.3862
vn -0.1324 -0.1115 0.9849
vn -0.8272 -0.0740 0.5571
vn -0.1324 -0.1114 0.9849
vn -0.7836 0.4885 -0.3839
vn -0.9316 0.1416 -0.3346
vn -0.6693 0.6348 0.3861
vn -0.7836 0.4884 -0.3839
vn -0.8272 -0.0741 0.5570
vn -0.9451 -0.2250 -0.2371
vn -0.9316 0.1416 -0.3347
vn -0.2523 0.2695 -0.9293
vn -0.3501 -0.0979 -0.9316
vn -0.7836 0.4884 -0.3840
vn -0.2523 0.2696 -0.9293
vn -0.3973 -0.4506 -0.7994
vn -0.3501 -0.0980 -0.9316
vn 0.5245 0.1430 -0.8393
vn -0.3972 -0.4507 -0.7994
vn -0.3920 -0.3807 -0.8375
vn 0.4294 -0.5144 -0.7423
vn -0.8329 0.0056 0.5534
vn -0.9538 -0.1493 -0.2609
vn -0.8272 -0.0741 0.5571
vn 0.6472 -0.2354 0.7250
vn -0.1204 -0.0328 0.9922
vn 0.6472 -0.2355 0.7250
vn 0.6163 -0.3090 0.7244
vn 0.8549 -0.5181 -0.0285
vn 0.8919 -0.4498 -0.0469
vn -0.9538 -0.1492 -0.2609
vn -0.8271 -0.0740 0.5571
vn -0.8329 0.0055 0.5534
vn -0.1203 -0.0328 0.9922
vn -0.3096 0.9435 0.1183
vn 0.1066 0.9211 0.3746
vn 0.5246 0.1431 -0.8393
vn 0.5246 0.1430 -0.8393
vn 0.6978 0.6775 -0.2324
vn 0.9619 0.2041 -0.1816
vn 0.4972 -0.2543 -0.8296
vn 0.9762 -0.1873 -0.1093
vn 0.4972 -0.2542 -0.8296
vn -0.9355 0.1239 -0.3310
vn -0.3537 -0.1157 -0.9282
vn -0.9355 0.1240 -0.3310
vn -0.0723 0.2445 0.9669
vn -0.8102 0.2843 0.5126
vn -0.0723 0.2446 0.9669
vn 0.6473 -0.2354 0.7250
vn 0.7228 0.0346 0.6902
vn 0.6473 -0.2355 0.7250
vn -0.3536 -0.1158 -0.9282
vn 0.4971 -0.2543 -0.8296
vn -0.3536 -0.1157 -0.9282
vn -0.8103 0.2843 0.5125
vn -0.9355 0.1239 -0.3309
vn -0.8102 0.2843 0.5125
vn 0.7228 0.0347 0.6902
vt 0.530319 0.635056
vt 0.522446 0.641335
vt 0.524872 0.636299
vt 0.524872 0.646370
vt 0.534683 0.638535
vt 0.530319 0.647614
vt 0.534683 0.644127
vt 0.508789 0.671494
vt 0.513626 0.669548
vt 0.511276 0.672157
vt 0.507889 0.669609
vt 0.511566 0.666756
vt 0.507935 0.667854
vt 0.509277 0.666748
vt 0.506302 0.666855
vt 0.505722 0.669838
vt 0.502487 0.669685
vt 0.506897 0.673050
vt 0.503479 0.674789
vt 0.497520 0.669067
vt 0.497810 0.676537
vt 0.510727 0.675606
vt 0.507721 0.680244
vt 0.501465 0.684982
vt 0.518890 0.674767
vt 0.518692 0.686485
vt 0.509125 0.696274
vt 0.518890 0.658051
vt 0.512238 0.663902
vt 0.511536 0.659698
vt 0.517990 0.665543
vt 0.515472 0.651657
vt 0.509323 0.655174
vt 0.508469 0.664742
vt 0.506836 0.661980
vt 0.504074 0.658463
vt 0.503784 0.665283
vt 0.499901 0.662933
vt 0.495453 0.660286
vt 0.491707 0.668175
vt 0.506927 0.651588
vt 0.501038 0.654999
vt 0.494583 0.688484
vt 0.500031 0.699394
vt 0.491287 0.678001
vt 0.512177 0.648293
vt 0.627350 0.642853
vt 0.649124 0.647896
vt 0.627441 0.648445
vt 0.649033 0.642670
vt 0.627441 0.631676
vt 0.649033 0.637444
vt 0.627350 0.637268
vt 0.649124 0.632225
vt 0.627914 0.620506
vt 0.649292 0.626999
vt 0.627625 0.626091
vt 0.649551 0.621780
vt 0.649292 0.653114
vt 0.627625 0.654030
vt 0.649551 0.658333
vt 0.627914 0.659607
s 0
usemtl decorations
f 240/1/1 239/2/1 238/3/1
f 237/1/1 236/4/1 235/2/1
f 234/5/1 233/4/1 232/1/1
f 231/5/1 230/6/1 229/4/1
f 228/6/1 227/5/1 226/7/1
s 1
f 225/8/2 224/9/3 223/10/4
f 222/11/5 221/9/6 220/8/2
f 219/11/7 218/12/8 217/9/3
f 216/13/9 215/12/8 214/11/7
f 213/12/8 212/13/10 211/14/11
f 210/15/12 209/11/7 208/16/13
f 207/15/12 206/13/14 205/11/7
f 204/17/15 203/18/16 202/19/17
f 201/17/15 200/16/13 199/18/16
f 198/20/18 197/19/19 196/21/20
f 195/20/18 194/17/15 193/19/21
f 192/19/17 191/22/22 190/23/23
f 189/19/17 188/18/24 187/22/22
f 186/21/20 185/23/23 184/24/25
f 183/21/20 3/19/19 182/23/23
f 181/23/23 180/25/26 179/26/27
f 178/23/23 177/22/28 176/25/29
f 175/24/30 174/26/27 173/27/31
f 172/24/32 4/23/33 171/26/27
f 170/28/27 169/29/34 168/30/35
f 167/28/27 166/31/26 165/29/36
f 164/32/37 163/30/35 162/33/38
f 161/32/39 13/28/27 160/30/35
f 159/30/35 158/34/40 157/35/41
f 156/30/35 155/29/42 154/34/43
f 153/33/44 152/35/41 151/36/45
f 150/33/44 14/30/35 149/35/41
f 148/35/46 147/15/47 146/37/48
f 145/35/46 144/34/49 143/15/50
f 142/36/45 141/37/48 140/38/51
f 139/36/45 16/35/41 138/37/48
f 137/37/52 136/16/53 135/17/15
f 134/37/48 133/15/47 132/16/13
f 131/38/54 130/17/15 129/20/18
f 128/38/54 36/37/48 25/17/15
f 127/39/55 126/20/18 125/40/56
f 124/39/55 123/38/54 122/20/18
f 121/41/57 120/36/45 119/42/58
f 118/41/57 117/33/59 116/36/45
f 115/43/60 114/27/31 113/44/61
f 112/43/62 111/24/63 110/27/31
f 109/40/56 108/21/64 107/45/65
f 106/40/56 40/20/18 105/21/64
f 104/42/66 103/38/51 102/39/55
f 101/42/58 41/36/45 42/38/51
f 100/46/61 99/33/67 98/41/68
f 97/46/69 37/32/39 38/33/67
f 96/45/65 95/24/63 94/43/62
f 93/45/65 33/21/20 34/24/63
f 92/29/42 91/14/11 90/34/43
f 89/29/42 88/12/70 87/14/11
f 86/22/28 85/9/3 84/25/29
f 83/22/28 82/10/4 81/9/71
f 80/16/72 79/8/2 78/18/16
f 29/16/73 30/11/5 77/8/74
f 76/31/29 75/12/8 28/29/36
f 31/31/29 26/9/71 27/12/8
f 74/18/24 73/10/4 24/22/22
f 21/18/75 22/8/74 23/10/4
f 72/34/49 71/13/9 20/15/50
f 17/34/49 18/14/11 19/13/14
f 70/47/76 69/48/65 68/49/77
f 67/47/78 66/50/56 65/48/65
f 64/51/79 63/52/55 62/53/80
f 61/51/81 60/54/58 59/52/55
f 58/55/82 57/56/57 56/57/83
f 55/55/84 54/58/69 53/56/68
f 52/49/77 51/59/85 50/60/86
f 2/49/77 32/48/65 49/59/87
f 48/53/88 47/50/56 12/47/89
f 9/53/90 10/52/55 11/50/56
f 46/57/91 45/54/58 8/51/92
f 5/57/93 6/56/68 7/54/58
f 44/60/86 43/61/69 15/62/84
f 1/60/94 35/59/62 39/61/69
