# Blender 5.0.0
# www.blender.org
mtllib Circle_002_Circle_004_Dupli__decorations_0.mtl
o Circle.002|Circle.004|Dupli|_decorations_0
v -4.345188 1.698898 0.475485
v -4.345499 1.698151 0.474332
v -4.351257 1.703089 0.472317
v -4.350814 1.704156 0.473961
v -4.346528 1.697728 0.477295
v -4.350742 1.701027 0.476192
v -4.351343 1.700058 0.475533
v -4.347169 1.696692 0.476589
v -4.347088 1.696382 0.475218
v -4.351266 1.699768 0.474251
v -4.350572 1.700375 0.473312
v -4.346345 1.697031 0.474213
v -4.351467 1.703887 0.475842
v -4.352725 1.702486 0.476544
v -4.345646 1.698710 0.476803
v -4.353641 1.701008 0.475537
v -4.354515 1.702145 0.475036
v -4.354892 1.703130 0.474499
v -4.354830 1.702895 0.473460
v -4.354421 1.701785 0.473444
v -4.352576 1.703839 0.472415
v -4.353626 1.704235 0.472789
v -4.353391 1.704801 0.473662
v -4.352215 1.704707 0.473753
v -4.352464 1.701492 0.472148
v -4.353737 1.704659 0.474661
v -4.354405 1.703915 0.475033
v -4.353770 1.703348 0.475855
v -4.353558 1.702539 0.472277
v -4.354267 1.703387 0.472699
v -4.352746 1.704488 0.475284
v -4.349781 1.701422 0.473423
v -4.350245 1.702099 0.472851
v -4.349861 1.703021 0.474274
v -4.349490 1.702121 0.474500
v -4.353524 1.700565 0.473581
v -4.350426 1.702789 0.475903
v -4.351515 1.701576 0.476510
v -4.349918 1.701945 0.475733
v -4.351289 1.700716 0.472705
v -4.352308 1.700297 0.475639
v -4.352207 1.699914 0.473945
v -4.349918 1.701945 0.475733
v -4.345188 1.698898 0.475485
v -4.351343 1.700058 0.475533
v -4.346528 1.697728 0.477295
v -4.350572 1.700375 0.473312
v -4.347088 1.696382 0.475218
v -4.349490 1.702121 0.474500
v -4.345188 1.698898 0.475485
v -4.349490 1.702121 0.474500
v -4.345499 1.698151 0.474332
v -4.350742 1.701027 0.476192
v -4.349918 1.701945 0.475733
v -4.345646 1.698710 0.476803
v -4.346528 1.697728 0.477295
v -4.350742 1.701027 0.476192
v -4.345646 1.698710 0.476803
v -4.351266 1.699768 0.474251
v -4.351343 1.700058 0.475533
v -4.347169 1.696692 0.476589
v -4.347088 1.696382 0.475218
v -4.351266 1.699768 0.474251
v -4.347169 1.696692 0.476589
v -4.349781 1.701422 0.473423
v -4.350572 1.700375 0.473312
v -4.346345 1.697031 0.474213
v -4.345499 1.698151 0.474332
v -4.349781 1.701422 0.473423
v -4.346345 1.697031 0.474213
v -4.354830 1.702895 0.473460
v -4.354515 1.702145 0.475036
v -4.353391 1.704801 0.473662
v -4.352576 1.703839 0.472415
v -4.354405 1.703915 0.475033
v -4.352746 1.704488 0.475284
v -4.353626 1.704235 0.472789
v -4.352576 1.703839 0.472415
v -4.353626 1.704235 0.472789
v -4.353558 1.702539 0.472277
v -4.353737 1.704659 0.474661
v -4.353391 1.704801 0.473662
v -4.352215 1.704707 0.473753
v -4.352746 1.704488 0.475284
v -4.353737 1.704659 0.474661
v -4.352215 1.704707 0.473753
v -4.354892 1.703130 0.474499
v -4.354405 1.703915 0.475033
v -4.353770 1.703348 0.475855
v -4.354515 1.702145 0.475036
v -4.354892 1.703130 0.474499
v -4.353770 1.703348 0.475855
v -4.349781 1.701422 0.473423
v -4.349490 1.702121 0.474500
v -4.349861 1.703021 0.474274
v -4.349781 1.701422 0.473423
v -4.349918 1.701945 0.475733
v -4.350742 1.701027 0.476192
v -4.351515 1.701576 0.476510
v -4.349918 1.701945 0.475733
v -4.351343 1.700058 0.475533
v -4.351266 1.699768 0.474251
v -4.352207 1.699914 0.473945
v -4.351343 1.700058 0.475533
v -4.350245 1.702099 0.472851
v -4.350572 1.700375 0.473312
v -4.349781 1.701422 0.473423
v -4.350245 1.702099 0.472851
v -4.350572 1.700375 0.473312
v -4.350426 1.702789 0.475903
v -4.349861 1.703021 0.474274
v -4.349490 1.702121 0.474500
v -4.349918 1.701945 0.475733
v -4.350426 1.702789 0.475903
v -4.349490 1.702121 0.474500
v -4.352308 1.700297 0.475639
v -4.351515 1.701576 0.476510
v -4.350742 1.701027 0.476192
v -4.351343 1.700058 0.475533
v -4.352308 1.700297 0.475639
v -4.350742 1.701027 0.476192
v -4.351289 1.700716 0.472705
v -4.352207 1.699914 0.473945
v -4.351266 1.699768 0.474251
v -4.350572 1.700375 0.473312
v -4.351289 1.700716 0.472705
v -4.351266 1.699768 0.474251
v -4.352207 1.699914 0.473945
v -4.351289 1.700716 0.472705
v -4.352464 1.701492 0.472148
v -4.352207 1.699914 0.473945
v -4.353558 1.702539 0.472277
v -4.354421 1.701785 0.473444
v -4.353524 1.700565 0.473581
v -4.352464 1.701492 0.472148
v -4.353558 1.702539 0.472277
v -4.353524 1.700565 0.473581
v -4.353524 1.700565 0.473581
v -4.352308 1.700297 0.475639
v -4.352207 1.699914 0.473945
v -4.353524 1.700565 0.473581
v -4.352308 1.700297 0.475639
v -4.354421 1.701785 0.473444
v -4.354515 1.702145 0.475036
v -4.353641 1.701008 0.475537
v -4.353524 1.700565 0.473581
v -4.354421 1.701785 0.473444
v -4.353641 1.701008 0.475537
v -4.353641 1.701008 0.475537
v -4.351515 1.701576 0.476510
v -4.352308 1.700297 0.475639
v -4.353641 1.701008 0.475537
v -4.351515 1.701576 0.476510
v -4.354515 1.702145 0.475036
v -4.353770 1.703348 0.475855
v -4.352725 1.702486 0.476544
v -4.353641 1.701008 0.475537
v -4.354515 1.702145 0.475036
v -4.352725 1.702486 0.476544
v -4.352725 1.702486 0.476544
v -4.350426 1.702789 0.475903
v -4.351515 1.701576 0.476510
v -4.352725 1.702486 0.476544
v -4.350426 1.702789 0.475903
v -4.353770 1.703348 0.475855
v -4.352746 1.704488 0.475284
v -4.351467 1.703887 0.475842
v -4.352725 1.702486 0.476544
v -4.353770 1.703348 0.475855
v -4.351467 1.703887 0.475842
v -4.351467 1.703887 0.475842
v -4.349861 1.703021 0.474274
v -4.350426 1.702789 0.475903
v -4.351467 1.703887 0.475842
v -4.349861 1.703021 0.474274
v -4.352746 1.704488 0.475284
v -4.352215 1.704707 0.473753
v -4.350814 1.704156 0.473961
v -4.351467 1.703887 0.475842
v -4.352746 1.704488 0.475284
v -4.350814 1.704156 0.473961
v -4.350814 1.704156 0.473961
v -4.350245 1.702099 0.472851
v -4.349861 1.703021 0.474274
v -4.350814 1.704156 0.473961
v -4.350245 1.702099 0.472851
v -4.352215 1.704707 0.473753
v -4.352576 1.703839 0.472415
v -4.351257 1.703089 0.472317
v -4.350814 1.704156 0.473961
v -4.352215 1.704707 0.473753
v -4.351257 1.703089 0.472317
v -4.351257 1.703089 0.472317
v -4.352464 1.701492 0.472148
v -4.351289 1.700716 0.472705
v -4.350245 1.702099 0.472851
v -4.351257 1.703089 0.472317
v -4.351289 1.700716 0.472705
v -4.352576 1.703839 0.472415
v -4.353558 1.702539 0.472277
v -4.352464 1.701492 0.472148
v -4.351257 1.703089 0.472317
v -4.352576 1.703839 0.472415
v -4.352464 1.701492 0.472148
v -4.354267 1.703387 0.472699
v -4.354830 1.702895 0.473460
v -4.354421 1.701785 0.473444
v -4.353558 1.702539 0.472277
v -4.354267 1.703387 0.472699
v -4.354421 1.701785 0.473444
v -4.354892 1.703130 0.474499
v -4.354830 1.702895 0.473460
v -4.354405 1.703915 0.475033
v -4.354267 1.703387 0.472699
v -4.354405 1.703915 0.475033
v -4.354830 1.702895 0.473460
v -4.353737 1.704659 0.474661
v -4.354405 1.703915 0.475033
v -4.354267 1.703387 0.472699
v -4.353626 1.704235 0.472789
v -4.353737 1.704659 0.474661
v -4.354267 1.703387 0.472699
v -4.353391 1.704801 0.473662
v -4.353737 1.704659 0.474661
v -4.353626 1.704235 0.472789
v -4.347169 1.696692 0.476589
v -4.346528 1.697728 0.477295
v -4.347088 1.696382 0.475218
v -4.346345 1.697031 0.474213
v -4.347088 1.696382 0.475218
v -4.346528 1.697728 0.477295
v -4.345646 1.698710 0.476803
v -4.346345 1.697031 0.474213
v -4.346528 1.697728 0.477295
v -4.345499 1.698151 0.474332
v -4.346345 1.697031 0.474213
v -4.345646 1.698710 0.476803
v -4.345188 1.698898 0.475485
v -4.345499 1.698151 0.474332
v -4.345646 1.698710 0.476803
vn 0.7752 -0.6046 0.1828
vn -0.3936 0.6714 -0.6280
vn -0.4446 0.8655 0.2306
vn -0.2855 0.9309 -0.2276
vn -0.6874 0.2821 -0.6692
vn -0.4446 0.8656 0.2305
vn -0.3936 0.6713 -0.6280
vn -0.6873 0.2822 -0.6693
vn -0.7510 0.5244 0.4014
vn -0.9457 0.0566 -0.3202
vn -0.6874 0.2822 -0.6693
vn -0.7510 0.5244 0.4013
vn -0.9456 0.0566 -0.3203
vn -0.9740 0.1643 0.1562
vn -0.8109 -0.4701 -0.3486
vn -0.6874 0.2822 -0.6692
vn -0.3928 -0.1048 -0.9136
vn -0.8108 -0.4701 -0.3486
vn -0.1128 -0.3620 -0.9253
vn 0.0829 0.5252 -0.8469
vn 0.4077 0.3276 -0.8523
vn -0.1129 -0.3620 -0.9253
vn -0.3927 -0.1048 -0.9137
vn 0.0828 0.5252 -0.8469
vn 0.1829 -0.5665 -0.8035
vn 0.4078 0.3277 -0.8523
vn 0.6733 0.0832 -0.7347
vn 0.4077 0.3277 -0.8523
vn 0.2578 0.9456 -0.1987
vn 0.5992 0.7878 -0.1427
vn 0.8537 0.5166 -0.0662
vn 0.0004 0.8397 0.5431
vn 0.3174 0.6719 0.6692
vn 0.2578 0.9456 -0.1986
vn 0.0003 0.8397 0.5430
vn 0.5882 0.4074 0.6986
vn 0.3174 0.6718 0.6692
vn -0.4956 0.2874 0.8196
vn -0.2255 0.0673 0.9719
vn 0.0003 0.8397 0.5431
vn -0.4957 0.2874 0.8196
vn 0.0767 -0.1621 0.9838
vn -0.2255 0.0674 0.9719
vn -0.8567 -0.2955 0.4228
vn -0.6207 -0.5708 0.5375
vn -0.4957 0.2873 0.8196
vn 0.0767 -0.1622 0.9838
vn -0.2956 -0.7632 0.5746
vn -0.5705 -0.7618 -0.3068
vn -0.8567 -0.2956 0.4228
vn -0.8109 -0.4700 -0.3486
vn -0.2484 -0.9432 -0.2208
vn -0.5706 -0.7618 -0.3068
vn -0.2483 -0.9432 -0.2208
vn 0.1828 -0.5665 -0.8035
vn -0.3203 -0.9159 -0.2420
vn 0.1218 -0.5296 -0.8394
vn 0.0129 -0.1150 0.9933
vn -0.3688 -0.7314 0.5737
vn 0.0768 -0.1622 0.9838
vn 0.8096 0.5810 -0.0834
vn 0.5374 0.4690 0.7009
vn 0.6733 0.0831 -0.7347
vn 0.6247 0.1365 -0.7689
vn -0.3688 -0.7313 0.5737
vn -0.3203 -0.9159 -0.2419
vn 0.0130 -0.1150 0.9933
vn 0.5881 0.4074 0.6986
vn 0.8097 0.5809 -0.0833
vn -0.4446 0.8655 0.2305
vn -0.2855 0.9310 -0.2276
vn -0.9456 0.0566 -0.3202
vn -0.0986 -0.3733 -0.9224
vn 0.4223 0.3166 -0.8494
vn -0.0986 -0.3733 -0.9225
vn 0.1218 -0.5297 -0.8394
vn -0.6067 -0.5823 0.5412
vn -0.3204 -0.9159 -0.2420
vn -0.5565 -0.7734 -0.3036
vn 0.3319 0.6610 0.6730
vn -0.2113 0.0562 0.9758
vn 0.4223 0.3167 -0.8493
vn 0.6139 0.7770 -0.1394
vn -0.0986 -0.3734 -0.9224
vn 0.5374 0.4691 0.7009
vn 0.3319 0.6610 0.6729
vn 0.8097 0.5809 -0.0834
vn 0.5374 0.4690 0.7008
vt 0.530319 0.635056
vt 0.522446 0.641335
vt 0.524872 0.636299
vt 0.524872 0.646370
vt 0.534683 0.638535
vt 0.530319 0.647614
vt 0.534683 0.644127
vt 0.508789 0.671494
vt 0.513626 0.669548
vt 0.511276 0.672157
vt 0.507889 0.669609
vt 0.511566 0.666756
vt 0.507935 0.667854
vt 0.509277 0.666748
vt 0.506302 0.666855
vt 0.505722 0.669838
vt 0.502487 0.669685
vt 0.506897 0.673050
vt 0.503479 0.674789
vt 0.497520 0.669067
vt 0.497810 0.676537
vt 0.510727 0.675606
vt 0.507721 0.680244
vt 0.501465 0.684982
vt 0.518890 0.674767
vt 0.518692 0.686485
vt 0.509125 0.696274
vt 0.518890 0.658051
vt 0.512238 0.663902
vt 0.511536 0.659698
vt 0.517990 0.665543
vt 0.515472 0.651657
vt 0.509323 0.655174
vt 0.508469 0.664742
vt 0.506836 0.661980
vt 0.504074 0.658463
vt 0.503784 0.665283
vt 0.499901 0.662933
vt 0.495453 0.660286
vt 0.491707 0.668175
vt 0.506927 0.651588
vt 0.501038 0.654999
vt 0.494583 0.688484
vt 0.500031 0.699394
vt 0.491287 0.678001
vt 0.512177 0.648293
vt 0.627350 0.642853
vt 0.649124 0.647896
vt 0.627441 0.648445
vt 0.649033 0.642670
vt 0.627441 0.631676
vt 0.649033 0.637444
vt 0.627350 0.637268
vt 0.649124 0.632225
vt 0.627914 0.620506
vt 0.649292 0.626999
vt 0.627625 0.626091
vt 0.649551 0.621780
vt 0.649292 0.653114
vt 0.627625 0.654030
vt 0.649551 0.658333
vt 0.627914 0.659607
s 0
usemtl decorations
f 240/1/1 239/2/1 238/3/1
f 237/1/1 236/4/1 235/2/1
f 234/5/1 233/4/1 232/1/1
f 231/5/1 230/6/1 229/4/1
f 228/6/1 227/5/1 226/7/1
s 1
f 225/8/2 224/9/3 223/10/4
f 222/11/5 221/9/6 220/8/7
f 219/11/8 218/12/9 217/9/3
f 216/13/10 215/12/9 214/11/11
f 213/12/12 212/13/13 211/14/14
f 210/15/15 209/11/16 208/16/17
f 207/15/18 206/13/10 205/11/16
f 204/17/19 203/18/20 202/19/21
f 201/17/22 200/16/23 199/18/24
f 198/20/25 197/19/26 196/21/27
f 195/20/25 194/17/22 193/19/28
f 192/19/21 191/22/29 190/23/30
f 189/19/21 188/18/20 187/22/29
f 186/21/27 185/23/30 184/24/31
f 183/21/27 3/19/28 182/23/30
f 181/23/30 180/25/32 179/26/33
f 178/23/30 177/22/34 176/25/35
f 175/24/31 174/26/33 173/27/36
f 172/24/31 4/23/30 171/26/33
f 170/28/37 169/29/38 168/30/39
f 167/28/37 166/31/40 165/29/41
f 164/32/36 163/30/39 162/33/42
f 161/32/36 13/28/33 160/30/43
f 159/30/39 158/34/44 157/35/45
f 156/30/39 155/29/46 154/34/44
f 153/33/47 152/35/45 151/36/48
f 150/33/47 14/30/39 149/35/45
f 148/35/45 147/15/15 146/37/49
f 145/35/45 144/34/50 143/15/51
f 142/36/48 141/37/49 140/38/52
f 139/36/48 16/35/45 138/37/49
f 137/37/49 136/16/23 135/17/19
f 134/37/53 133/15/15 132/16/17
f 131/38/54 130/17/19 129/20/55
f 128/38/54 36/37/53 25/17/19
f 127/39/56 126/20/55 125/40/57
f 124/39/56 123/38/54 122/20/55
f 121/41/58 120/36/48 119/42/59
f 118/41/58 117/33/60 116/36/48
f 115/43/61 114/27/36 113/44/62
f 112/43/61 111/24/31 110/27/36
f 109/40/57 108/21/63 107/45/64
f 106/40/57 40/20/25 105/21/63
f 104/42/65 103/38/52 102/39/66
f 101/42/65 41/36/48 42/38/52
f 100/46/62 99/33/42 98/41/67
f 97/46/62 37/32/68 38/33/42
f 96/45/64 95/24/31 94/43/69
f 93/45/64 33/21/27 34/24/31
f 92/29/46 91/14/14 90/34/44
f 89/29/46 88/12/12 87/14/14
f 86/22/34 85/9/70 84/25/35
f 83/22/34 82/10/4 81/9/6
f 80/16/23 79/8/7 78/18/24
f 29/16/23 30/11/5 77/8/7
f 76/31/35 75/12/12 28/29/41
f 31/31/40 26/9/6 27/12/12
f 74/18/20 73/10/71 24/22/29
f 21/18/20 22/8/7 23/10/4
f 72/34/44 71/13/72 20/15/15
f 17/34/44 18/14/14 19/13/10
f 70/47/73 69/48/64 68/49/74
f 67/47/75 66/50/76 65/48/64
f 64/51/77 63/52/78 62/53/79
f 61/51/77 60/54/59 59/52/66
f 58/55/80 57/56/58 56/57/81
f 55/55/80 54/58/62 53/56/67
f 52/49/82 51/59/61 50/60/83
f 2/49/82 32/48/64 49/59/61
f 48/53/79 47/50/57 12/47/84
f 9/53/79 10/52/56 11/50/57
f 46/57/81 45/54/59 8/51/77
f 5/57/81 6/56/58 7/54/59
f 44/60/83 43/61/85 15/62/86
f 1/60/83 35/59/87 39/61/88
