# Blender 5.0.0
# www.blender.org
mtllib Circle_005_Circle_004_Dupli_120_decorations_0.mtl
o Circle.005|Circle.004|Dupli|120_decorations_0
v -4.561212 2.034386 0.715427
v -4.562501 2.034104 0.715919
v -4.565259 2.041055 0.713533
v -4.563420 2.041456 0.712830
v -4.560018 2.035313 0.717465
v -4.561728 2.040317 0.716088
v -4.562657 2.040268 0.717019
v -4.561012 2.035260 0.718461
v -4.562341 2.034806 0.718353
v -4.563899 2.039843 0.716918
v -4.564518 2.039362 0.715860
v -4.563003 2.034291 0.717222
v -4.561844 2.042224 0.713812
v -4.561717 2.042779 0.715739
v -4.560107 2.034924 0.716115
v -4.563136 2.042704 0.717160
v -4.563684 2.043907 0.716411
v -4.564155 2.044601 0.715577
v -4.565162 2.044256 0.715495
v -4.565227 2.043379 0.716285
v -4.565413 2.042565 0.713460
v -4.565283 2.043725 0.713651
v -4.564306 2.043938 0.713277
v -4.563916 2.042892 0.712888
v -4.565976 2.041321 0.715392
v -4.563469 2.044346 0.713799
v -4.563402 2.044641 0.714822
v -4.562531 2.043968 0.715254
v -4.565996 2.042782 0.714972
v -4.565664 2.043867 0.714637
v -4.562634 2.043516 0.713687
v -4.564049 2.039187 0.714643
v -4.564620 2.039806 0.714105
v -4.563029 2.040154 0.713496
v -4.562844 2.039450 0.714182
v -4.565031 2.042055 0.717005
v -4.561665 2.040818 0.714346
v -4.561555 2.041299 0.716014
v -4.561811 2.039953 0.714825
v -4.565241 2.040037 0.715713
v -4.562782 2.041234 0.717244
v -4.564423 2.040672 0.717110
v -4.561811 2.039953 0.714825
v -4.561212 2.034386 0.715427
v -4.562657 2.040268 0.717019
v -4.560018 2.035313 0.717465
v -4.564518 2.039362 0.715860
v -4.562341 2.034806 0.718353
v -4.562844 2.039450 0.714182
v -4.561212 2.034386 0.715427
v -4.562844 2.039450 0.714182
v -4.562501 2.034104 0.715919
v -4.561728 2.040317 0.716088
v -4.561811 2.039953 0.714825
v -4.560107 2.034924 0.716115
v -4.560018 2.035313 0.717465
v -4.561728 2.040317 0.716088
v -4.560107 2.034924 0.716115
v -4.563899 2.039843 0.716918
v -4.562657 2.040268 0.717019
v -4.561012 2.035260 0.718461
v -4.562341 2.034806 0.718353
v -4.563899 2.039843 0.716918
v -4.561012 2.035260 0.718461
v -4.564049 2.039187 0.714643
v -4.564518 2.039362 0.715860
v -4.563003 2.034291 0.717222
v -4.562501 2.034104 0.715919
v -4.564049 2.039187 0.714643
v -4.563003 2.034291 0.717222
v -4.565162 2.044256 0.715495
v -4.563684 2.043907 0.716411
v -4.564306 2.043938 0.713277
v -4.565413 2.042565 0.713460
v -4.563402 2.044641 0.714822
v -4.562634 2.043516 0.713687
v -4.565283 2.043725 0.713651
v -4.565413 2.042565 0.713460
v -4.565283 2.043725 0.713651
v -4.565996 2.042782 0.714972
v -4.563469 2.044346 0.713799
v -4.564306 2.043938 0.713277
v -4.563916 2.042892 0.712888
v -4.562634 2.043516 0.713687
v -4.563469 2.044346 0.713799
v -4.563916 2.042892 0.712888
v -4.564155 2.044601 0.715577
v -4.563402 2.044641 0.714822
v -4.562531 2.043968 0.715254
v -4.563684 2.043907 0.716411
v -4.564155 2.044601 0.715577
v -4.562531 2.043968 0.715254
v -4.564049 2.039187 0.714643
v -4.562844 2.039450 0.714182
v -4.563029 2.040154 0.713496
v -4.564049 2.039187 0.714643
v -4.561811 2.039953 0.714825
v -4.561728 2.040317 0.716088
v -4.561555 2.041299 0.716014
v -4.561811 2.039953 0.714825
v -4.562657 2.040268 0.717019
v -4.563899 2.039843 0.716918
v -4.564423 2.040672 0.717110
v -4.562657 2.040268 0.717019
v -4.564620 2.039806 0.714105
v -4.564518 2.039362 0.715860
v -4.564049 2.039187 0.714643
v -4.564620 2.039806 0.714105
v -4.564518 2.039362 0.715860
v -4.561665 2.040818 0.714346
v -4.563029 2.040154 0.713496
v -4.562844 2.039450 0.714182
v -4.561811 2.039953 0.714825
v -4.561665 2.040818 0.714346
v -4.562844 2.039450 0.714182
v -4.562782 2.041234 0.717244
v -4.561555 2.041299 0.716014
v -4.561728 2.040317 0.716088
v -4.562657 2.040268 0.717019
v -4.562782 2.041234 0.717244
v -4.561728 2.040317 0.716088
v -4.565241 2.040037 0.715713
v -4.564423 2.040672 0.717110
v -4.563899 2.039843 0.716918
v -4.564518 2.039362 0.715860
v -4.565241 2.040037 0.715713
v -4.563899 2.039843 0.716918
v -4.564423 2.040672 0.717110
v -4.565241 2.040037 0.715713
v -4.565976 2.041321 0.715392
v -4.564423 2.040672 0.717110
v -4.565996 2.042782 0.714972
v -4.565227 2.043379 0.716285
v -4.565031 2.042055 0.717005
v -4.565976 2.041321 0.715392
v -4.565996 2.042782 0.714972
v -4.565031 2.042055 0.717005
v -4.565031 2.042055 0.717005
v -4.562782 2.041234 0.717244
v -4.564423 2.040672 0.717110
v -4.565031 2.042055 0.717005
v -4.562782 2.041234 0.717244
v -4.565227 2.043379 0.716285
v -4.563684 2.043907 0.716411
v -4.563136 2.042704 0.717160
v -4.565031 2.042055 0.717005
v -4.565227 2.043379 0.716285
v -4.563136 2.042704 0.717160
v -4.563136 2.042704 0.717160
v -4.561555 2.041299 0.716014
v -4.562782 2.041234 0.717244
v -4.563136 2.042704 0.717160
v -4.561555 2.041299 0.716014
v -4.563684 2.043907 0.716411
v -4.562531 2.043968 0.715254
v -4.561717 2.042779 0.715739
v -4.563136 2.042704 0.717160
v -4.563684 2.043907 0.716411
v -4.561717 2.042779 0.715739
v -4.561717 2.042779 0.715739
v -4.561665 2.040818 0.714346
v -4.561555 2.041299 0.716014
v -4.561717 2.042779 0.715739
v -4.561665 2.040818 0.714346
v -4.562531 2.043968 0.715254
v -4.562634 2.043516 0.713687
v -4.561844 2.042224 0.713812
v -4.561717 2.042779 0.715739
v -4.562531 2.043968 0.715254
v -4.561844 2.042224 0.713812
v -4.561844 2.042224 0.713812
v -4.563029 2.040154 0.713496
v -4.561665 2.040818 0.714346
v -4.561844 2.042224 0.713812
v -4.563029 2.040154 0.713496
v -4.562634 2.043516 0.713687
v -4.563916 2.042892 0.712888
v -4.563420 2.041456 0.712830
v -4.561844 2.042224 0.713812
v -4.562634 2.043516 0.713687
v -4.563420 2.041456 0.712830
v -4.563420 2.041456 0.712830
v -4.564620 2.039806 0.714105
v -4.563029 2.040154 0.713496
v -4.563420 2.041456 0.712830
v -4.564620 2.039806 0.714105
v -4.563916 2.042892 0.712888
v -4.565413 2.042565 0.713460
v -4.565259 2.041055 0.713533
v -4.563420 2.041456 0.712830
v -4.563916 2.042892 0.712888
v -4.565259 2.041055 0.713533
v -4.565259 2.041055 0.713533
v -4.565976 2.041321 0.715392
v -4.565241 2.040037 0.715713
v -4.564620 2.039806 0.714105
v -4.565259 2.041055 0.713533
v -4.565241 2.040037 0.715713
v -4.565413 2.042565 0.713460
v -4.565996 2.042782 0.714972
v -4.565976 2.041321 0.715392
v -4.565259 2.041055 0.713533
v -4.565413 2.042565 0.713460
v -4.565976 2.041321 0.715392
v -4.565664 2.043867 0.714637
v -4.565162 2.044256 0.715495
v -4.565227 2.043379 0.716285
v -4.565996 2.042782 0.714972
v -4.565664 2.043867 0.714637
v -4.565227 2.043379 0.716285
v -4.564155 2.044601 0.715577
v -4.565162 2.044256 0.715495
v -4.563402 2.044641 0.714822
v -4.565664 2.043867 0.714637
v -4.563402 2.044641 0.714822
v -4.565162 2.044256 0.715495
v -4.563469 2.044346 0.713799
v -4.563402 2.044641 0.714822
v -4.565664 2.043867 0.714637
v -4.565283 2.043725 0.713651
v -4.563469 2.044346 0.713799
v -4.565664 2.043867 0.714637
v -4.564306 2.043938 0.713277
v -4.563469 2.044346 0.713799
v -4.565283 2.043725 0.713651
v -4.561012 2.035260 0.718461
v -4.560018 2.035313 0.717465
v -4.562341 2.034806 0.718353
v -4.563003 2.034291 0.717222
v -4.562341 2.034806 0.718353
v -4.560018 2.035313 0.717465
v -4.560107 2.034924 0.716115
v -4.563003 2.034291 0.717222
v -4.560018 2.035313 0.717465
v -4.562501 2.034104 0.715919
v -4.563003 2.034291 0.717222
v -4.560107 2.034924 0.716115
v -4.561212 2.034386 0.715427
v -4.562501 2.034104 0.715919
v -4.560107 2.034924 0.716115
vn 0.2958 -0.9229 0.2465
vn -0.6072 0.5461 -0.5772
vn 0.2245 0.8308 -0.5093
vn -0.1594 0.6439 -0.7483
vn -0.7818 0.6110 -0.1246
vn -0.6072 0.5461 -0.5771
vn -0.7818 0.6110 -0.1247
vn 0.2554 0.9660 -0.0400
vn -0.5516 0.7897 0.2684
vn 0.2554 0.9660 -0.0401
vn -0.0900 0.9477 0.3061
vn -0.6183 0.4213 0.6635
vn -0.9909 0.1319 0.0272
vn -0.5516 0.7898 0.2684
vn -0.9636 -0.2331 0.1306
vn -0.7083 0.0268 -0.7054
vn -0.6544 -0.3481 -0.6713
vn -0.9637 -0.2330 0.1306
vn -0.7975 -0.5638 0.2149
vn -0.6543 -0.3481 -0.6713
vn -0.5061 -0.6721 -0.5405
vn -0.6544 -0.3480 -0.6713
vn 0.0167 0.1852 -0.9826
vn 0.1392 -0.1747 -0.9747
vn -0.5060 -0.6721 -0.5405
vn 0.2415 -0.5088 -0.8263
vn 0.1393 -0.1747 -0.9747
vn 0.6383 0.4877 -0.5956
vn 0.8196 0.1565 -0.5511
vn 0.6382 0.4878 -0.5956
vn 0.2416 -0.5089 -0.8263
vn 0.8824 -0.1968 -0.4273
vn 0.2416 -0.5088 -0.8263
vn 0.6883 0.7067 0.1641
vn 0.8743 0.3961 0.2804
vn 0.6882 0.7067 0.1641
vn 0.8825 -0.1968 -0.4272
vn 0.9340 0.0290 0.3561
vn 0.1291 0.6772 0.7244
vn 0.2622 0.3638 0.8938
vn 0.1291 0.6771 0.7244
vn 0.9340 0.0289 0.3561
vn 0.2622 0.3637 0.8938
vn 0.3574 -0.0015 0.9340
vn -0.6182 0.4213 0.6636
vn -0.5557 0.0837 0.8271
vn 0.1291 0.6771 0.7245
vn -0.6182 0.4214 0.6635
vn 0.3573 -0.0016 0.9340
vn -0.4132 -0.2653 0.8712
vn -0.5558 0.0837 0.8271
vn -0.5558 0.0838 0.8271
vn -0.6182 0.4213 0.6635
vn -0.4132 -0.2654 0.8711
vn -0.7975 -0.5637 0.2149
vn -0.5557 0.0838 0.8271
vn -0.4488 -0.1939 0.8723
vn -0.7975 -0.5637 0.2150
vn -0.8428 -0.4999 0.1995
vn -0.4488 -0.1939 0.8724
vn -0.4132 -0.2653 0.8711
vn 0.9326 0.1079 0.3443
vn 0.3414 0.0766 0.9368
vn 0.9327 0.1079 0.3443
vn 0.2226 -0.4435 -0.8682
vn 0.8798 -0.1236 -0.4590
vn -0.8428 -0.4998 0.1995
vn -0.5440 -0.6110 -0.5751
vn -0.7975 -0.5638 0.2150
vn 0.3414 0.0767 0.9368
vn 0.6882 0.7067 0.1642
vn -0.0901 0.9477 0.3061
vn 0.1290 0.6771 0.7245
vn -0.9587 -0.2502 0.1352
vn -0.5441 -0.6109 -0.5751
vn -0.6492 -0.3653 -0.6671
vn 0.2678 0.3469 0.8989
vn -0.4488 -0.1938 0.8724
vn -0.5505 0.0667 0.8321
vn 0.8255 0.1395 -0.5468
vn 0.8803 0.3793 0.2851
vn 0.1448 -0.1919 -0.9707
vn -0.5506 0.0667 0.8321
vn -0.5506 0.0668 0.8321
vn 0.8803 0.3792 0.2851
vn 0.8255 0.1395 -0.5469
vt 0.530319 0.635056
vt 0.522446 0.641335
vt 0.524872 0.636299
vt 0.524872 0.646370
vt 0.534683 0.638535
vt 0.530319 0.647614
vt 0.534683 0.644127
vt 0.508789 0.671494
vt 0.513626 0.669548
vt 0.511276 0.672157
vt 0.507889 0.669609
vt 0.511566 0.666756
vt 0.507935 0.667854
vt 0.509277 0.666748
vt 0.506302 0.666855
vt 0.505722 0.669838
vt 0.502487 0.669685
vt 0.506897 0.673050
vt 0.503479 0.674789
vt 0.497520 0.669067
vt 0.497810 0.676537
vt 0.510727 0.675606
vt 0.507721 0.680244
vt 0.501465 0.684982
vt 0.518890 0.674767
vt 0.518692 0.686485
vt 0.509125 0.696274
vt 0.518890 0.658051
vt 0.512238 0.663902
vt 0.511536 0.659698
vt 0.517990 0.665543
vt 0.515472 0.651657
vt 0.509323 0.655174
vt 0.508469 0.664742
vt 0.506836 0.661980
vt 0.504074 0.658463
vt 0.503784 0.665283
vt 0.499901 0.662933
vt 0.495453 0.660286
vt 0.491707 0.668175
vt 0.506927 0.651588
vt 0.501038 0.654999
vt 0.494583 0.688484
vt 0.500031 0.699394
vt 0.491287 0.678001
vt 0.512177 0.648293
vt 0.627350 0.642853
vt 0.649124 0.647896
vt 0.627441 0.648445
vt 0.649033 0.642670
vt 0.627441 0.631676
vt 0.649033 0.637444
vt 0.627350 0.637268
vt 0.649124 0.632225
vt 0.627914 0.620506
vt 0.649292 0.626999
vt 0.627625 0.626091
vt 0.649551 0.621780
vt 0.649292 0.653114
vt 0.627625 0.654030
vt 0.649551 0.658333
vt 0.627914 0.659607
s 0
usemtl decorations
f 240/1/1 239/2/1 238/3/1
f 237/1/1 236/4/1 235/2/1
f 234/5/1 233/4/1 232/1/1
f 231/5/1 230/6/1 229/4/1
f 228/6/1 227/5/1 226/7/1
s 1
f 225/8/2 224/9/3 223/10/4
f 222/11/5 221/9/3 220/8/6
f 219/11/7 218/12/8 217/9/3
f 216/13/9 215/12/10 214/11/7
f 213/12/8 212/13/9 211/14/11
f 210/15/12 209/11/7 208/16/13
f 207/15/12 206/13/14 205/11/5
f 204/17/15 203/18/16 202/19/17
f 201/17/18 200/16/13 199/18/16
f 198/20/19 197/19/20 196/21/21
f 195/20/19 194/17/18 193/19/22
f 192/19/17 191/22/23 190/23/24
f 189/19/17 188/18/16 187/22/23
f 186/21/25 185/23/24 184/24/26
f 183/21/25 3/19/17 182/23/24
f 181/23/27 180/25/28 179/26/29
f 178/23/24 177/22/23 176/25/30
f 175/24/31 174/26/29 173/27/32
f 172/24/33 4/23/27 171/26/29
f 170/28/29 169/29/34 168/30/35
f 167/28/29 166/31/28 165/29/36
f 164/32/37 163/30/35 162/33/38
f 161/32/37 13/28/29 160/30/35
f 159/30/35 158/34/39 157/35/40
f 156/30/35 155/29/36 154/34/41
f 153/33/42 152/35/43 151/36/44
f 150/33/42 14/30/35 149/35/43
f 148/35/43 147/15/45 146/37/46
f 145/35/43 144/34/47 143/15/48
f 142/36/49 141/37/46 140/38/50
f 139/36/49 16/35/43 138/37/51
f 137/37/51 136/16/13 135/17/18
f 134/37/52 133/15/53 132/16/13
f 131/38/54 130/17/18 129/20/55
f 128/38/54 36/37/56 25/17/18
f 127/39/57 126/20/58 125/40/59
f 124/39/60 123/38/61 122/20/58
f 121/41/62 120/36/44 119/42/63
f 118/41/64 117/33/42 116/36/44
f 115/43/65 114/27/32 113/44/66
f 112/43/65 111/24/26 110/27/32
f 109/40/67 108/21/21 107/45/68
f 106/40/59 40/20/69 105/21/21
f 104/42/70 103/38/61 102/39/60
f 101/42/63 41/36/44 42/38/61
f 100/46/66 99/33/42 98/41/62
f 97/46/66 37/32/37 38/33/42
f 96/45/68 95/24/26 94/43/65
f 93/45/68 33/21/21 34/24/26
f 92/29/36 91/14/11 90/34/41
f 89/29/71 88/12/10 87/14/72
f 86/22/23 85/9/3 84/25/30
f 83/22/23 82/10/4 81/9/3
f 80/16/13 79/8/6 78/18/16
f 29/16/13 30/11/5 77/8/6
f 76/31/30 75/12/8 28/29/36
f 31/31/30 26/9/3 27/12/10
f 74/18/16 73/10/4 24/22/23
f 21/18/16 22/8/6 23/10/4
f 72/34/73 71/13/9 20/15/53
f 17/34/73 18/14/11 19/13/14
f 70/47/74 69/48/75 68/49/76
f 67/47/74 66/50/59 65/48/68
f 64/51/77 63/52/78 62/53/79
f 61/51/77 60/54/63 59/52/60
f 58/55/80 57/56/62 56/57/81
f 55/55/80 54/58/66 53/56/62
f 52/49/76 51/59/65 50/60/82
f 2/49/76 32/48/68 49/59/65
f 48/53/83 47/50/59 12/47/74
f 9/53/84 10/52/78 11/50/59
f 46/57/85 45/54/63 8/51/77
f 5/57/81 6/56/62 7/54/63
f 44/60/82 43/61/66 15/62/86
f 1/60/82 35/59/65 39/61/66
