# Blender 5.0.0
# www.blender.org
mtllib Circle_005_Circle_001_Dupli_210_decorations_0.mtl
o Circle.005|Circle.001|Dupli|210_decorations_0
v -4.325488 1.833049 0.600153
v -4.326428 1.832005 0.600066
v -4.325802 1.830399 0.607724
v -4.324461 1.831890 0.607848
v -4.323314 1.831907 0.599512
v -4.322523 1.830646 0.604770
v -4.322900 1.829406 0.604541
v -4.323718 1.830581 0.599267
v -4.325009 1.830025 0.599356
v -4.324107 1.828887 0.604624
v -4.325235 1.829479 0.604956
v -4.326215 1.830659 0.599711
v -4.322484 1.831828 0.607496
v -4.321360 1.830260 0.606933
v -4.324102 1.833006 0.599907
v -4.321935 1.828367 0.606584
v -4.322010 1.828308 0.608100
v -4.322324 1.828497 0.609225
v -4.323302 1.828076 0.609292
v -4.323509 1.827663 0.608203
v -4.325157 1.829962 0.609028
v -4.324378 1.829576 0.609831
v -4.323665 1.830368 0.609897
v -4.324065 1.831175 0.609129
v -4.325498 1.828479 0.607217
v -4.322615 1.830335 0.609710
v -4.322018 1.829503 0.609411
v -4.321541 1.829849 0.608385
v -4.324909 1.828399 0.608616
v -4.324216 1.828557 0.609562
v -4.322456 1.831124 0.608843
v -4.325434 1.830737 0.605288
v -4.325751 1.830659 0.606233
v -4.324590 1.831949 0.606340
v -4.324555 1.831714 0.605369
v -4.323777 1.827574 0.606710
v -4.322878 1.831896 0.606036
v -4.321906 1.830539 0.605549
v -4.323259 1.831674 0.605139
v -4.325488 1.828997 0.605795
v -4.322404 1.828900 0.605246
v -4.323998 1.828214 0.605356
v -4.323259 1.831674 0.605139
v -4.325488 1.833049 0.600153
v -4.322900 1.829406 0.604541
v -4.323314 1.831907 0.599512
v -4.325235 1.829479 0.604956
v -4.325009 1.830025 0.599356
v -4.324555 1.831714 0.605369
v -4.325488 1.833049 0.600153
v -4.324555 1.831714 0.605369
v -4.326428 1.832005 0.600066
v -4.322523 1.830646 0.604770
v -4.323259 1.831674 0.605139
v -4.324102 1.833006 0.599907
v -4.323314 1.831907 0.599512
v -4.322523 1.830646 0.604770
v -4.324102 1.833006 0.599907
v -4.324107 1.828887 0.604624
v -4.322900 1.829406 0.604541
v -4.323718 1.830581 0.599267
v -4.325009 1.830025 0.599356
v -4.324107 1.828887 0.604624
v -4.323718 1.830581 0.599267
v -4.325434 1.830737 0.605288
v -4.325235 1.829479 0.604956
v -4.326215 1.830659 0.599711
v -4.326428 1.832005 0.600066
v -4.325434 1.830737 0.605288
v -4.326215 1.830659 0.599711
v -4.323302 1.828076 0.609292
v -4.322010 1.828308 0.608100
v -4.323665 1.830368 0.609897
v -4.325157 1.829962 0.609028
v -4.322018 1.829503 0.609411
v -4.322456 1.831124 0.608843
v -4.324378 1.829576 0.609831
v -4.325157 1.829962 0.609028
v -4.324378 1.829576 0.609831
v -4.324909 1.828399 0.608616
v -4.322615 1.830335 0.609710
v -4.323665 1.830368 0.609897
v -4.324065 1.831175 0.609129
v -4.322456 1.831124 0.608843
v -4.322615 1.830335 0.609710
v -4.324065 1.831175 0.609129
v -4.322324 1.828497 0.609225
v -4.322018 1.829503 0.609411
v -4.321541 1.829849 0.608385
v -4.322010 1.828308 0.608100
v -4.322324 1.828497 0.609225
v -4.321541 1.829849 0.608385
v -4.325434 1.830737 0.605288
v -4.324555 1.831714 0.605369
v -4.324590 1.831949 0.606340
v -4.325434 1.830737 0.605288
v -4.323259 1.831674 0.605139
v -4.322523 1.830646 0.604770
v -4.321906 1.830539 0.605549
v -4.323259 1.831674 0.605139
v -4.322900 1.829406 0.604541
v -4.324107 1.828887 0.604624
v -4.323998 1.828214 0.605356
v -4.322900 1.829406 0.604541
v -4.325751 1.830659 0.606233
v -4.325235 1.829479 0.604956
v -4.325434 1.830737 0.605288
v -4.325751 1.830659 0.606233
v -4.325235 1.829479 0.604956
v -4.322878 1.831896 0.606036
v -4.324590 1.831949 0.606340
v -4.324555 1.831714 0.605369
v -4.323259 1.831674 0.605139
v -4.322878 1.831896 0.606036
v -4.324555 1.831714 0.605369
v -4.322404 1.828900 0.605246
v -4.321906 1.830539 0.605549
v -4.322523 1.830646 0.604770
v -4.322900 1.829406 0.604541
v -4.322404 1.828900 0.605246
v -4.322523 1.830646 0.604770
v -4.325488 1.828997 0.605795
v -4.323998 1.828214 0.605356
v -4.324107 1.828887 0.604624
v -4.325235 1.829479 0.604956
v -4.325488 1.828997 0.605795
v -4.324107 1.828887 0.604624
v -4.323998 1.828214 0.605356
v -4.325488 1.828997 0.605795
v -4.325498 1.828479 0.607217
v -4.323998 1.828214 0.605356
v -4.324909 1.828399 0.608616
v -4.323509 1.827663 0.608203
v -4.323777 1.827574 0.606710
v -4.325498 1.828479 0.607217
v -4.324909 1.828399 0.608616
v -4.323777 1.827574 0.606710
v -4.323777 1.827574 0.606710
v -4.322404 1.828900 0.605246
v -4.323998 1.828214 0.605356
v -4.323777 1.827574 0.606710
v -4.322404 1.828900 0.605246
v -4.323509 1.827663 0.608203
v -4.322010 1.828308 0.608100
v -4.321935 1.828367 0.606584
v -4.323777 1.827574 0.606710
v -4.323509 1.827663 0.608203
v -4.321935 1.828367 0.606584
v -4.321935 1.828367 0.606584
v -4.321906 1.830539 0.605549
v -4.322404 1.828900 0.605246
v -4.321935 1.828367 0.606584
v -4.321906 1.830539 0.605549
v -4.322010 1.828308 0.608100
v -4.321541 1.829849 0.608385
v -4.321360 1.830260 0.606933
v -4.321935 1.828367 0.606584
v -4.322010 1.828308 0.608100
v -4.321360 1.830260 0.606933
v -4.321360 1.830260 0.606933
v -4.322878 1.831896 0.606036
v -4.321906 1.830539 0.605549
v -4.321360 1.830260 0.606933
v -4.322878 1.831896 0.606036
v -4.321541 1.829849 0.608385
v -4.322456 1.831124 0.608843
v -4.322484 1.831828 0.607496
v -4.321360 1.830260 0.606933
v -4.321541 1.829849 0.608385
v -4.322484 1.831828 0.607496
v -4.322484 1.831828 0.607496
v -4.324590 1.831949 0.606340
v -4.322878 1.831896 0.606036
v -4.322484 1.831828 0.607496
v -4.324590 1.831949 0.606340
v -4.322456 1.831124 0.608843
v -4.324065 1.831175 0.609129
v -4.324461 1.831890 0.607848
v -4.322484 1.831828 0.607496
v -4.322456 1.831124 0.608843
v -4.324461 1.831890 0.607848
v -4.324461 1.831890 0.607848
v -4.325751 1.830659 0.606233
v -4.324590 1.831949 0.606340
v -4.324461 1.831890 0.607848
v -4.325751 1.830659 0.606233
v -4.324065 1.831175 0.609129
v -4.325157 1.829962 0.609028
v -4.325802 1.830399 0.607724
v -4.324461 1.831890 0.607848
v -4.324065 1.831175 0.609129
v -4.325802 1.830399 0.607724
v -4.325802 1.830399 0.607724
v -4.325498 1.828479 0.607217
v -4.325488 1.828997 0.605795
v -4.325751 1.830659 0.606233
v -4.325802 1.830399 0.607724
v -4.325488 1.828997 0.605795
v -4.325157 1.829962 0.609028
v -4.324909 1.828399 0.608616
v -4.325498 1.828479 0.607217
v -4.325802 1.830399 0.607724
v -4.325157 1.829962 0.609028
v -4.325498 1.828479 0.607217
v -4.324216 1.828557 0.609562
v -4.323302 1.828076 0.609292
v -4.323509 1.827663 0.608203
v -4.324909 1.828399 0.608616
v -4.324216 1.828557 0.609562
v -4.323509 1.827663 0.608203
v -4.322324 1.828497 0.609225
v -4.323302 1.828076 0.609292
v -4.322018 1.829503 0.609411
v -4.324216 1.828557 0.609562
v -4.322018 1.829503 0.609411
v -4.323302 1.828076 0.609292
v -4.322615 1.830335 0.609710
v -4.322018 1.829503 0.609411
v -4.324216 1.828557 0.609562
v -4.324378 1.829576 0.609831
v -4.322615 1.830335 0.609710
v -4.324216 1.828557 0.609562
v -4.323665 1.830368 0.609897
v -4.322615 1.830335 0.609710
v -4.324378 1.829576 0.609831
v -4.323718 1.830581 0.599267
v -4.323314 1.831907 0.599512
v -4.325009 1.830025 0.599356
v -4.326215 1.830659 0.599711
v -4.325009 1.830025 0.599356
v -4.323314 1.831907 0.599512
v -4.324102 1.833006 0.599907
v -4.326215 1.830659 0.599711
v -4.323314 1.831907 0.599512
v -4.326428 1.832005 0.600066
v -4.326215 1.830659 0.599711
v -4.324102 1.833006 0.599907
v -4.325488 1.833049 0.600153
v -4.326428 1.832005 0.600066
v -4.324102 1.833006 0.599907
vn -0.1637 0.2272 -0.9600
vn -0.3971 -0.0485 0.9165
vn 0.4112 0.2993 0.8610
vn -0.0704 0.3144 0.9467
vn -0.3230 -0.5163 0.7931
vn 0.4112 0.2994 0.8610
vn -0.3971 -0.0486 0.9165
vn -0.3230 -0.5162 0.7932
vn 0.6849 -0.0824 0.7240
vn 0.0961 -0.7365 0.6696
vn -0.3230 -0.5163 0.7932
vn 0.5446 -0.5434 0.6388
vn 0.0035 -0.9813 0.1923
vn -0.6750 -0.6248 0.3924
vn -0.8058 -0.5910 0.0369
vn -0.7950 0.1324 0.5920
vn -0.9371 0.2378 0.2555
vn -0.8058 -0.5911 0.0369
vn -0.7950 0.1323 0.5921
vn -0.8202 -0.4720 -0.3233
vn -0.9371 0.2378 0.2554
vn -0.9439 0.3088 -0.1174
vn -0.2660 0.7200 0.6410
vn -0.3581 0.8811 0.3090
vn -0.2660 0.7200 0.6409
vn -0.9438 0.3088 -0.1174
vn -0.3582 0.8810 0.3090
vn -0.3984 0.9147 -0.0670
vn 0.5136 0.6957 0.5022
vn 0.4952 0.8544 0.1571
vn -0.2660 0.7201 0.6409
vn 0.5136 0.6957 0.5023
vn -0.3984 0.9148 -0.0671
vn 0.4055 0.8896 -0.2100
vn -0.3984 0.9148 -0.0670
vn 0.4953 0.8544 0.1571
vn 0.9567 0.0777 0.2804
vn 0.9803 0.1779 -0.0856
vn 0.4055 0.8896 -0.2101
vn 0.9803 0.1779 -0.0857
vn 0.8625 0.2524 -0.4387
vn 0.9803 0.1780 -0.0856
vn 0.7298 -0.6687 0.1425
vn 0.7318 -0.6391 -0.2366
vn 0.9567 0.0776 0.2804
vn 0.8624 0.2523 -0.4388
vn 0.6284 -0.5173 -0.5810
vn 0.7318 -0.6391 -0.2367
vn 0.0036 -0.9813 0.1923
vn -0.0631 -0.9813 -0.1821
vn 0.7297 -0.6687 0.1425
vn 0.6283 -0.5173 -0.5810
vn -0.1204 -0.8397 -0.5296
vn -0.0630 -0.9813 -0.1820
vn -0.1205 -0.8396 -0.5296
vn -0.1204 -0.8396 -0.5296
vn -0.0630 -0.9813 -0.1821
vn -0.1097 -0.8802 -0.4617
vn -0.8202 -0.4721 -0.3233
vn -0.8271 -0.5033 -0.2501
vn 0.8982 0.2395 -0.3685
vn 0.6582 -0.5497 -0.5144
vn 0.8624 0.2524 -0.4388
vn -0.3946 0.9187 0.0127
vn 0.4055 0.8897 -0.2100
vn 0.4297 0.8930 -0.1340
vn -0.3947 0.9187 0.0127
vn -0.9439 0.3087 -0.1174
vn -0.9540 0.2973 -0.0391
vn -0.8201 -0.4720 -0.3233
vn -0.1096 -0.8802 -0.4617
vn 0.8624 0.2524 -0.4387
vn 0.8982 0.2395 -0.3686
vn -0.9540 0.2973 -0.0390
vn -0.3946 0.9187 0.0126
vn 0.9568 0.0776 0.2803
vn 0.6848 -0.0824 0.7240
vn 0.4111 0.2993 0.8610
vn -0.7950 0.1323 0.5920
vn -0.6751 -0.6248 0.3924
vn -0.8093 -0.5871 0.0192
vn -0.9407 0.2421 0.2378
vn -0.8271 -0.5033 -0.2502
vn 0.7292 -0.6352 -0.2545
vn -0.1097 -0.8803 -0.4617
vn -0.0661 -0.9776 -0.1999
vn 0.4925 0.8591 0.1395
vn 0.9778 0.1823 -0.1034
vn 0.4925 0.8590 0.1395
vn 0.4296 0.8930 -0.1340
vn -0.9406 0.2421 0.2378
vn -0.3614 0.8857 0.2914
vn -0.9406 0.2421 0.2379
vn -0.8092 -0.5872 0.0192
vn 0.9778 0.1822 -0.1035
vn 0.9778 0.1822 -0.1034
vn -0.3613 0.8857 0.2914
vn -0.3947 0.9187 0.0126
vt 0.543243 0.635056
vt 0.535370 0.641335
vt 0.537796 0.636299
vt 0.537796 0.646370
vt 0.547607 0.638535
vt 0.543243 0.647614
vt 0.547607 0.644127
vt 0.593674 0.671494
vt 0.598511 0.669548
vt 0.596146 0.672157
vt 0.592773 0.669609
vt 0.596436 0.666756
vt 0.592804 0.667854
vt 0.594147 0.666748
vt 0.591187 0.666855
vt 0.590591 0.669838
vt 0.587372 0.669685
vt 0.591782 0.673050
vt 0.588348 0.674789
vt 0.582382 0.669067
vt 0.582687 0.676537
vt 0.595596 0.675606
vt 0.592606 0.680244
vt 0.586334 0.684982
vt 0.603775 0.674767
vt 0.603561 0.686485
vt 0.594009 0.696274
vt 0.603775 0.658051
vt 0.597107 0.663902
vt 0.596405 0.659698
vt 0.602859 0.665543
vt 0.600342 0.651657
vt 0.594193 0.655174
vt 0.593353 0.664742
vt 0.591705 0.661980
vt 0.588959 0.658463
vt 0.588654 0.665283
vt 0.584778 0.662933
vt 0.580322 0.660286
vt 0.576584 0.668175
vt 0.591812 0.651588
vt 0.585907 0.654999
vt 0.579453 0.688484
vt 0.584915 0.699394
vt 0.576157 0.678001
vt 0.597061 0.648293
vt 0.627350 0.682632
vt 0.649124 0.687675
vt 0.627441 0.688225
vt 0.649033 0.682457
vt 0.627441 0.671455
vt 0.649033 0.677231
vt 0.627350 0.677048
vt 0.649124 0.672005
vt 0.627914 0.660294
vt 0.649292 0.666786
vt 0.627625 0.665871
vt 0.649551 0.661568
vt 0.649292 0.692902
vt 0.627625 0.693810
vt 0.649551 0.698120
vt 0.627914 0.699394
s 0
usemtl decorations
f 240/1/1 239/2/1 238/3/1
f 237/1/1 236/4/1 235/2/1
f 234/5/1 233/4/1 232/1/1
f 231/5/1 230/6/1 229/4/1
f 228/6/1 227/5/1 226/7/1
s 1
f 225/8/2 224/9/3 223/10/4
f 222/11/5 221/9/6 220/8/7
f 219/11/8 218/12/9 217/9/3
f 216/13/10 215/12/9 214/11/11
f 213/12/9 212/13/10 211/14/12
f 210/15/13 209/11/11 208/16/14
f 207/15/13 206/13/10 205/11/11
f 204/17/15 203/18/16 202/19/17
f 201/17/18 200/16/14 199/18/19
f 198/20/20 197/19/21 196/21/22
f 195/20/20 194/17/15 193/19/17
f 192/19/17 191/22/23 190/23/24
f 189/19/17 188/18/16 187/22/25
f 186/21/26 185/23/27 184/24/28
f 183/21/22 3/19/17 182/23/27
f 181/23/24 180/25/29 179/26/30
f 178/23/24 177/22/31 176/25/32
f 175/24/33 174/26/30 173/27/34
f 172/24/35 4/23/24 171/26/30
f 170/28/36 169/29/37 168/30/38
f 167/28/36 166/31/29 165/29/37
f 164/32/39 163/30/40 162/33/41
f 161/32/39 13/28/36 160/30/42
f 159/30/38 158/34/43 157/35/44
f 156/30/38 155/29/45 154/34/43
f 153/33/46 152/35/44 151/36/47
f 150/33/46 14/30/40 149/35/44
f 148/35/48 147/15/49 146/37/50
f 145/35/48 144/34/51 143/15/49
f 142/36/52 141/37/50 140/38/53
f 139/36/52 16/35/44 138/37/50
f 137/37/50 136/16/14 135/17/15
f 134/37/54 133/15/13 132/16/14
f 131/38/55 130/17/15 129/20/20
f 128/38/56 36/37/57 25/17/15
f 127/39/58 126/20/59 125/40/60
f 124/39/58 123/38/53 122/20/59
f 121/41/61 120/36/47 119/42/62
f 118/41/61 117/33/63 116/36/47
f 115/43/64 114/27/65 113/44/66
f 112/43/67 111/24/35 110/27/65
f 109/40/60 108/21/68 107/45/69
f 106/40/60 40/20/70 105/21/68
f 104/42/62 103/38/53 102/39/71
f 101/42/62 41/36/47 42/38/53
f 100/46/66 99/33/72 98/41/73
f 97/46/66 37/32/34 38/33/72
f 96/45/74 95/24/35 94/43/75
f 93/45/74 33/21/22 34/24/35
f 92/29/45 91/14/12 90/34/43
f 89/29/76 88/12/77 87/14/12
f 86/22/25 85/9/3 84/25/32
f 83/22/25 82/10/4 81/9/78
f 80/16/14 79/8/7 78/18/79
f 29/16/80 30/11/5 77/8/7
f 76/31/32 75/12/9 28/29/37
f 31/31/29 26/9/78 27/12/77
f 74/18/16 73/10/4 24/22/25
f 21/18/16 22/8/7 23/10/4
f 72/34/51 71/13/10 20/15/49
f 17/34/51 18/14/12 19/13/10
f 70/47/81 69/48/74 68/49/82
f 67/47/81 66/50/83 65/48/74
f 64/51/84 63/52/85 62/53/86
f 61/51/84 60/54/62 59/52/71
f 58/55/87 57/56/61 56/57/88
f 55/55/89 54/58/90 53/56/73
f 52/49/91 51/59/67 50/60/92
f 2/49/93 32/48/69 49/59/67
f 48/53/86 47/50/60 12/47/94
f 9/53/86 10/52/58 11/50/60
f 46/57/95 45/54/62 8/51/84
f 5/57/96 6/56/61 7/54/62
f 44/60/97 43/61/66 15/62/87
f 1/60/97 35/59/98 39/61/90
