# Blender 5.0.0
# www.blender.org
mtllib Circle_005_Circle_004_Dupli_180_decorations_0.mtl
o Circle.005|Circle.004|Dupli|180_decorations_0
v -4.504454 1.176326 0.841423
v -4.503668 1.175557 0.842303
v -4.502769 1.181581 0.847253
v -4.503890 1.182680 0.845998
v -4.502753 1.177171 0.839740
v -4.501894 1.181531 0.842920
v -4.500767 1.181007 0.843354
v -4.501547 1.176610 0.840204
v -4.501338 1.175784 0.841325
v -4.500571 1.180235 0.844402
v -4.501453 1.179796 0.845276
v -4.502281 1.175315 0.842259
v -4.503309 1.183705 0.844370
v -4.501464 1.183885 0.843596
v -4.504046 1.177045 0.840283
v -4.499744 1.183085 0.844258
v -4.499864 1.184170 0.845315
v -4.500241 1.184825 0.846225
v -4.500082 1.184199 0.847074
v -4.499620 1.183211 0.846617
v -4.502326 1.182947 0.847752
v -4.501848 1.184027 0.847815
v -4.502443 1.184610 0.847149
v -4.503238 1.183840 0.846731
v -4.500791 1.181237 0.847190
v -4.502135 1.185154 0.846285
v -4.501154 1.185250 0.845873
v -4.501264 1.184821 0.844776
v -4.500716 1.182667 0.847701
v -4.500797 1.183844 0.847782
v -4.502765 1.184675 0.845406
v -4.502750 1.180022 0.845316
v -4.502851 1.180517 0.846179
v -4.503821 1.181468 0.845092
v -4.503484 1.180741 0.844494
v -4.499444 1.181906 0.845858
v -4.503318 1.182355 0.843684
v -4.501721 1.182511 0.843013
v -4.503104 1.181413 0.843428
v -4.501138 1.180220 0.846125
v -4.500232 1.181819 0.843586
v -4.499973 1.180799 0.844971
v -4.503104 1.181413 0.843428
v -4.504454 1.176326 0.841423
v -4.500767 1.181007 0.843354
v -4.502753 1.177171 0.839740
v -4.501453 1.179796 0.845276
v -4.501338 1.175784 0.841325
v -4.503484 1.180741 0.844494
v -4.504454 1.176326 0.841423
v -4.503484 1.180741 0.844494
v -4.503668 1.175557 0.842303
v -4.501894 1.181531 0.842920
v -4.503104 1.181413 0.843428
v -4.504046 1.177045 0.840283
v -4.502753 1.177171 0.839740
v -4.501894 1.181531 0.842920
v -4.504046 1.177045 0.840283
v -4.500571 1.180235 0.844402
v -4.500767 1.181007 0.843354
v -4.501547 1.176610 0.840204
v -4.501338 1.175784 0.841325
v -4.500571 1.180235 0.844402
v -4.501547 1.176610 0.840204
v -4.502750 1.180022 0.845316
v -4.501453 1.179796 0.845276
v -4.502281 1.175315 0.842259
v -4.503668 1.175557 0.842303
v -4.502750 1.180022 0.845316
v -4.502281 1.175315 0.842259
v -4.500082 1.184199 0.847074
v -4.499864 1.184170 0.845315
v -4.502443 1.184610 0.847149
v -4.502326 1.182947 0.847752
v -4.501154 1.185250 0.845873
v -4.502765 1.184675 0.845406
v -4.501848 1.184027 0.847815
v -4.502326 1.182947 0.847752
v -4.501848 1.184027 0.847815
v -4.500716 1.182667 0.847701
v -4.502135 1.185154 0.846285
v -4.502443 1.184610 0.847149
v -4.503238 1.183840 0.846731
v -4.502765 1.184675 0.845406
v -4.502135 1.185154 0.846285
v -4.503238 1.183840 0.846731
v -4.500241 1.184825 0.846225
v -4.501154 1.185250 0.845873
v -4.501264 1.184821 0.844776
v -4.499864 1.184170 0.845315
v -4.500241 1.184825 0.846225
v -4.501264 1.184821 0.844776
v -4.502750 1.180022 0.845316
v -4.503484 1.180741 0.844494
v -4.503821 1.181468 0.845092
v -4.502750 1.180022 0.845316
v -4.503104 1.181413 0.843428
v -4.501894 1.181531 0.842920
v -4.501721 1.182511 0.843013
v -4.503104 1.181413 0.843428
v -4.500767 1.181007 0.843354
v -4.500571 1.180235 0.844402
v -4.499973 1.180799 0.844971
v -4.500767 1.181007 0.843354
v -4.502851 1.180517 0.846179
v -4.501453 1.179796 0.845276
v -4.502750 1.180022 0.845316
v -4.502851 1.180517 0.846179
v -4.501453 1.179796 0.845276
v -4.503318 1.182355 0.843684
v -4.503821 1.181468 0.845092
v -4.503484 1.180741 0.844494
v -4.503104 1.181413 0.843428
v -4.503318 1.182355 0.843684
v -4.503484 1.180741 0.844494
v -4.500232 1.181819 0.843586
v -4.501721 1.182511 0.843013
v -4.501894 1.181531 0.842920
v -4.500767 1.181007 0.843354
v -4.500232 1.181819 0.843586
v -4.501894 1.181531 0.842920
v -4.501138 1.180220 0.846125
v -4.499973 1.180799 0.844971
v -4.500571 1.180235 0.844402
v -4.501453 1.179796 0.845276
v -4.501138 1.180220 0.846125
v -4.500571 1.180235 0.844402
v -4.499973 1.180799 0.844971
v -4.501138 1.180220 0.846125
v -4.500791 1.181237 0.847190
v -4.499973 1.180799 0.844971
v -4.500716 1.182667 0.847701
v -4.499620 1.183211 0.846617
v -4.499444 1.181906 0.845858
v -4.500791 1.181237 0.847190
v -4.500716 1.182667 0.847701
v -4.499444 1.181906 0.845858
v -4.499444 1.181906 0.845858
v -4.500232 1.181819 0.843586
v -4.499973 1.180799 0.844971
v -4.499444 1.181906 0.845858
v -4.500232 1.181819 0.843586
v -4.499620 1.183211 0.846617
v -4.499864 1.184170 0.845315
v -4.499744 1.183085 0.844258
v -4.499444 1.181906 0.845858
v -4.499620 1.183211 0.846617
v -4.499744 1.183085 0.844258
v -4.499744 1.183085 0.844258
v -4.501721 1.182511 0.843013
v -4.500232 1.181819 0.843586
v -4.499744 1.183085 0.844258
v -4.501721 1.182511 0.843013
v -4.499864 1.184170 0.845315
v -4.501264 1.184821 0.844776
v -4.501464 1.183885 0.843596
v -4.499744 1.183085 0.844258
v -4.499864 1.184170 0.845315
v -4.501464 1.183885 0.843596
v -4.501464 1.183885 0.843596
v -4.503318 1.182355 0.843684
v -4.501721 1.182511 0.843013
v -4.501464 1.183885 0.843596
v -4.503318 1.182355 0.843684
v -4.501264 1.184821 0.844776
v -4.502765 1.184675 0.845406
v -4.503309 1.183705 0.844370
v -4.501464 1.183885 0.843596
v -4.501264 1.184821 0.844776
v -4.503309 1.183705 0.844370
v -4.503309 1.183705 0.844370
v -4.503821 1.181468 0.845092
v -4.503318 1.182355 0.843684
v -4.503309 1.183705 0.844370
v -4.503821 1.181468 0.845092
v -4.502765 1.184675 0.845406
v -4.503238 1.183840 0.846731
v -4.503890 1.182680 0.845998
v -4.503309 1.183705 0.844370
v -4.502765 1.184675 0.845406
v -4.503890 1.182680 0.845998
v -4.503890 1.182680 0.845998
v -4.502851 1.180517 0.846179
v -4.503821 1.181468 0.845092
v -4.503890 1.182680 0.845998
v -4.502851 1.180517 0.846179
v -4.503238 1.183840 0.846731
v -4.502326 1.182947 0.847752
v -4.502769 1.181581 0.847253
v -4.503890 1.182680 0.845998
v -4.503238 1.183840 0.846731
v -4.502769 1.181581 0.847253
v -4.502769 1.181581 0.847253
v -4.500791 1.181237 0.847190
v -4.501138 1.180220 0.846125
v -4.502851 1.180517 0.846179
v -4.502769 1.181581 0.847253
v -4.501138 1.180220 0.846125
v -4.502326 1.182947 0.847752
v -4.500716 1.182667 0.847701
v -4.500791 1.181237 0.847190
v -4.502769 1.181581 0.847253
v -4.502326 1.182947 0.847752
v -4.500791 1.181237 0.847190
v -4.500797 1.183844 0.847782
v -4.500082 1.184199 0.847074
v -4.499620 1.183211 0.846617
v -4.500716 1.182667 0.847701
v -4.500797 1.183844 0.847782
v -4.499620 1.183211 0.846617
v -4.500241 1.184825 0.846225
v -4.500082 1.184199 0.847074
v -4.501154 1.185250 0.845873
v -4.500797 1.183844 0.847782
v -4.501154 1.185250 0.845873
v -4.500082 1.184199 0.847074
v -4.502135 1.185154 0.846285
v -4.501154 1.185250 0.845873
v -4.500797 1.183844 0.847782
v -4.501848 1.184027 0.847815
v -4.502135 1.185154 0.846285
v -4.500797 1.183844 0.847782
v -4.502443 1.184610 0.847149
v -4.502135 1.185154 0.846285
v -4.501848 1.184027 0.847815
v -4.501547 1.176610 0.840204
v -4.502753 1.177171 0.839740
v -4.501338 1.175784 0.841325
v -4.502281 1.175315 0.842259
v -4.501338 1.175784 0.841325
v -4.502753 1.177171 0.839740
v -4.504046 1.177045 0.840283
v -4.502281 1.175315 0.842259
v -4.502753 1.177171 0.839740
v -4.503668 1.175557 0.842303
v -4.502281 1.175315 0.842259
v -4.504046 1.177045 0.840283
v -4.504454 1.176326 0.841423
v -4.503668 1.175557 0.842303
v -4.504046 1.177045 0.840283
vn -0.1585 -0.8089 -0.5662
vn -0.1465 0.4242 0.8936
vn -0.2779 0.9413 0.1916
vn -0.4194 0.6916 0.5880
vn 0.3354 0.3404 0.8784
vn -0.2780 0.9413 0.1917
vn -0.1465 0.4242 0.8937
vn 0.3353 0.3404 0.8785
vn 0.1714 0.9852 0.0031
vn 0.6633 0.5033 0.5538
vn 0.1715 0.9852 0.0031
vn 0.6633 0.5033 0.5539
vn 0.5903 0.7903 0.1643
vn 0.9266 0.0634 0.3708
vn 0.3353 0.3404 0.8784
vn 0.3957 -0.2003 0.8963
vn 0.6632 0.5034 0.5538
vn 0.3683 -0.5501 0.7495
vn -0.3844 -0.0647 0.9209
vn -0.4856 -0.4015 0.7765
vn 0.3683 -0.5500 0.7495
vn -0.3844 -0.0646 0.9209
vn 0.2878 -0.8199 0.4949
vn -0.4856 -0.4016 0.7765
vn -0.5166 -0.6800 0.5203
vn -0.8263 0.3683 0.4261
vn -0.9693 0.0723 0.2349
vn -0.9723 -0.2335 0.0101
vn -0.5973 0.7725 -0.2156
vn -0.7186 0.5148 -0.4675
vn -0.8263 0.3683 0.4260
vn -0.5973 0.7725 -0.2155
vn -0.9723 -0.2336 0.0100
vn -0.7361 0.1833 -0.6516
vn -0.9693 0.0724 0.2349
vn -0.7186 0.5148 -0.4676
vn 0.1302 0.8436 -0.5209
vn 0.0777 0.5927 -0.8017
vn -0.7361 0.1832 -0.6516
vn 0.0777 0.5926 -0.8017
vn 0.0141 0.2566 -0.9664
vn 0.8084 0.5281 -0.2599
vn 0.8201 0.2472 -0.5161
vn 0.1303 0.8436 -0.5209
vn 0.0141 0.2565 -0.9664
vn 0.7134 -0.0688 -0.6973
vn 0.9266 0.0635 0.3707
vn 0.9494 -0.2613 0.1743
vn 0.8084 0.5281 -0.2600
vn 0.7134 -0.0689 -0.6973
vn 0.8353 -0.5478 -0.0470
vn 0.9494 -0.2614 0.1743
vn 0.9266 0.0635 0.3708
vn 0.8352 -0.5479 -0.0470
vn 0.2878 -0.8199 0.4950
vn 0.8699 -0.4933 -0.0001
vn 0.3086 -0.7722 0.5555
vn 0.8699 -0.4933 -0.0002
vn 0.0279 0.3317 -0.9430
vn 0.7450 -0.0020 -0.6671
vn -0.9836 -0.1709 0.0583
vn -0.7414 0.2565 -0.6202
vn 0.3086 -0.7721 0.5555
vn -0.5163 -0.6287 0.5815
vn 0.8353 -0.5479 -0.0470
vn 0.8699 -0.4932 -0.0002
vn 0.0279 0.3316 -0.9430
vn -0.9723 -0.2336 0.0101
vn 0.5904 0.7902 0.1643
vn -0.2779 0.9413 0.1917
vn -0.4195 0.6916 0.5880
vn 0.3956 -0.2003 0.8963
vn -0.5972 0.7725 -0.2156
vn 0.6632 0.5033 0.5538
vn 0.3655 -0.5653 0.7395
vn -0.5163 -0.6287 0.5816
vn -0.4888 -0.4167 0.7664
vn 0.8176 0.2324 -0.5268
vn 0.9470 -0.2764 0.1639
vn -0.7219 0.5001 -0.4783
vn 0.0748 0.5780 -0.8126
vn -0.7219 0.5002 -0.4783
vn -0.9728 0.0574 0.2246
vn 0.3656 -0.5653 0.7395
vn 0.9470 -0.2764 0.1640
vn 0.7450 -0.0020 -0.6670
vn -0.9728 0.0574 0.2245
vn -0.7414 0.2565 -0.6201
vn -0.9836 -0.1710 0.0583
vt 0.530319 0.635056
vt 0.522446 0.641335
vt 0.524872 0.636299
vt 0.524872 0.646370
vt 0.534683 0.638535
vt 0.530319 0.647614
vt 0.534683 0.644127
vt 0.508789 0.671494
vt 0.513626 0.669548
vt 0.511276 0.672157
vt 0.507889 0.669609
vt 0.511566 0.666756
vt 0.507935 0.667854
vt 0.509277 0.666748
vt 0.506302 0.666855
vt 0.505722 0.669838
vt 0.502487 0.669685
vt 0.506897 0.673050
vt 0.503479 0.674789
vt 0.497520 0.669067
vt 0.497810 0.676537
vt 0.510727 0.675606
vt 0.507721 0.680244
vt 0.501465 0.684982
vt 0.518890 0.674767
vt 0.518692 0.686485
vt 0.509125 0.696274
vt 0.518890 0.658051
vt 0.512238 0.663902
vt 0.511536 0.659698
vt 0.517990 0.665543
vt 0.515472 0.651657
vt 0.509323 0.655174
vt 0.508469 0.664742
vt 0.506836 0.661980
vt 0.504074 0.658463
vt 0.503784 0.665283
vt 0.499901 0.662933
vt 0.495453 0.660286
vt 0.491707 0.668175
vt 0.506927 0.651588
vt 0.501038 0.654999
vt 0.494583 0.688484
vt 0.500031 0.699394
vt 0.491287 0.678001
vt 0.512177 0.648293
vt 0.627350 0.642853
vt 0.649124 0.647896
vt 0.627441 0.648445
vt 0.649033 0.642670
vt 0.627441 0.631676
vt 0.649033 0.637444
vt 0.627350 0.637268
vt 0.649124 0.632225
vt 0.627914 0.620506
vt 0.649292 0.626999
vt 0.627625 0.626091
vt 0.649551 0.621780
vt 0.649292 0.653114
vt 0.627625 0.654030
vt 0.649551 0.658333
vt 0.627914 0.659607
s 0
usemtl decorations
f 240/1/1 239/2/1 238/3/1
f 237/1/1 236/4/1 235/2/1
f 234/5/1 233/4/1 232/1/1
f 231/5/1 230/6/1 229/4/1
f 228/6/1 227/5/1 226/7/1
s 1
f 225/8/2 224/9/3 223/10/4
f 222/11/5 221/9/6 220/8/7
f 219/11/8 218/12/9 217/9/3
f 216/13/10 215/12/9 214/11/8
f 213/12/11 212/13/12 211/14/13
f 210/15/14 209/11/15 208/16/16
f 207/15/14 206/13/17 205/11/5
f 204/17/18 203/18/19 202/19/20
f 201/17/21 200/16/16 199/18/22
f 198/20/23 197/19/24 196/21/25
f 195/20/23 194/17/21 193/19/20
f 192/19/24 191/22/26 190/23/27
f 189/19/20 188/18/22 187/22/26
f 186/21/25 185/23/27 184/24/28
f 183/21/25 3/19/20 182/23/27
f 181/23/27 180/25/29 179/26/30
f 178/23/27 177/22/31 176/25/32
f 175/24/33 174/26/30 173/27/34
f 172/24/33 4/23/35 171/26/30
f 170/28/36 169/29/37 168/30/38
f 167/28/36 166/31/29 165/29/37
f 164/32/39 163/30/40 162/33/41
f 161/32/34 13/28/30 160/30/38
f 159/30/40 158/34/42 157/35/43
f 156/30/38 155/29/44 154/34/42
f 153/33/45 152/35/43 151/36/46
f 150/33/45 14/30/40 149/35/43
f 148/35/43 147/15/47 146/37/48
f 145/35/43 144/34/49 143/15/47
f 142/36/50 141/37/48 140/38/51
f 139/36/50 16/35/43 138/37/48
f 137/37/52 136/16/16 135/17/21
f 134/37/48 133/15/53 132/16/16
f 131/38/54 130/17/18 129/20/55
f 128/38/54 36/37/48 25/17/18
f 127/39/56 126/20/23 125/40/57
f 124/39/58 123/38/54 122/20/23
f 121/41/59 120/36/46 119/42/60
f 118/41/59 117/33/45 116/36/46
f 115/43/61 114/27/34 113/44/62
f 112/43/61 111/24/28 110/27/34
f 109/40/63 108/21/25 107/45/64
f 106/40/63 40/20/23 105/21/25
f 104/42/60 103/38/65 102/39/66
f 101/42/60 41/36/46 42/38/65
f 100/46/62 99/33/41 98/41/67
f 97/46/62 37/32/34 38/33/41
f 96/45/64 95/24/68 94/43/61
f 93/45/64 33/21/25 34/24/68
f 92/29/44 91/14/13 90/34/49
f 89/29/44 88/12/9 87/14/69
f 86/22/26 85/9/70 84/25/29
f 83/22/26 82/10/71 81/9/70
f 80/16/72 79/8/2 78/18/22
f 29/16/72 30/11/5 77/8/2
f 76/31/73 75/12/9 28/29/37
f 31/31/73 26/9/70 27/12/9
f 74/18/19 73/10/71 24/22/26
f 21/18/19 22/8/2 23/10/4
f 72/34/42 71/13/12 20/15/53
f 17/34/42 18/14/13 19/13/74
f 70/47/75 69/48/76 68/49/77
f 67/47/75 66/50/57 65/48/64
f 64/51/78 63/52/66 62/53/79
f 61/51/78 60/54/60 59/52/66
f 58/55/80 57/56/59 56/57/81
f 55/55/82 54/58/62 53/56/67
f 52/49/77 51/59/61 50/60/83
f 2/49/77 32/48/64 49/59/61
f 48/53/79 47/50/63 12/47/84
f 9/53/85 10/52/66 11/50/57
f 46/57/81 45/54/86 8/51/78
f 5/57/81 6/56/59 7/54/60
f 44/60/87 43/61/88 15/62/80
f 1/60/87 35/59/89 39/61/88
