# Blender 5.0.0
# www.blender.org
mtllib Circle_002_Circle_003_Dupli_141_decorations_0.mtl
o Circle.002|Circle.003|Dupli|141_decorations_0
v -4.526268 2.135502 0.675658
v -4.527259 2.135749 0.674689
v -4.526906 2.143501 0.675863
v -4.525492 2.143149 0.677246
v -4.527628 2.135026 0.677748
v -4.527555 2.140366 0.678910
v -4.528795 2.140486 0.678486
v -4.528955 2.135156 0.677294
v -4.529414 2.135471 0.676000
v -4.529224 2.140781 0.677277
v -4.528519 2.141028 0.676193
v -4.528659 2.135735 0.674841
v -4.525726 2.142691 0.679189
v -4.527432 2.142471 0.680227
v -4.526433 2.135180 0.677020
v -4.529325 2.142655 0.679580
v -4.528996 2.144139 0.679621
v -4.528516 2.145197 0.679399
v -4.528864 2.145436 0.678419
v -4.529529 2.144505 0.678119
v -4.527028 2.144827 0.676596
v -4.527231 2.145646 0.677425
v -4.526480 2.145459 0.678160
v -4.525877 2.144540 0.677722
v -4.528903 2.143481 0.676080
v -4.526605 2.145216 0.679191
v -4.527511 2.145099 0.679743
v -4.527456 2.143988 0.680147
v -4.528653 2.144811 0.676773
v -4.528292 2.145635 0.677540
v -4.526067 2.144167 0.679302
v -4.527210 2.141041 0.676051
v -4.527033 2.141994 0.675806
v -4.525809 2.141689 0.677003
v -4.526283 2.140810 0.676957
v -4.529980 2.143105 0.677734
v -4.526012 2.141292 0.678684
v -4.527489 2.141102 0.679583
v -4.526437 2.140510 0.678230
v -4.528762 2.141976 0.675994
v -4.529127 2.141261 0.679023
v -4.529694 2.141651 0.677425
v -4.526437 2.140510 0.678230
v -4.526268 2.135502 0.675658
v -4.528795 2.140486 0.678486
v -4.527628 2.135026 0.677748
v -4.528519 2.141028 0.676193
v -4.529414 2.135471 0.676000
v -4.526283 2.140810 0.676957
v -4.526268 2.135502 0.675658
v -4.526283 2.140810 0.676957
v -4.527259 2.135749 0.674689
v -4.527555 2.140366 0.678910
v -4.526437 2.140510 0.678230
v -4.526433 2.135180 0.677020
v -4.527628 2.135026 0.677748
v -4.527555 2.140366 0.678910
v -4.526433 2.135180 0.677020
v -4.529224 2.140781 0.677277
v -4.528795 2.140486 0.678486
v -4.528955 2.135156 0.677294
v -4.529414 2.135471 0.676000
v -4.529224 2.140781 0.677277
v -4.528955 2.135156 0.677294
v -4.527210 2.141041 0.676051
v -4.528519 2.141028 0.676193
v -4.528659 2.135735 0.674841
v -4.527259 2.135749 0.674689
v -4.527210 2.141041 0.676051
v -4.528659 2.135735 0.674841
v -4.528864 2.145436 0.678419
v -4.528996 2.144139 0.679621
v -4.526480 2.145459 0.678160
v -4.527028 2.144827 0.676596
v -4.527511 2.145099 0.679743
v -4.526067 2.144167 0.679302
v -4.527231 2.145646 0.677425
v -4.527028 2.144827 0.676596
v -4.527231 2.145646 0.677425
v -4.528653 2.144811 0.676773
v -4.526605 2.145216 0.679191
v -4.526480 2.145459 0.678160
v -4.525877 2.144540 0.677722
v -4.526067 2.144167 0.679302
v -4.526605 2.145216 0.679191
v -4.525877 2.144540 0.677722
v -4.528516 2.145197 0.679399
v -4.527511 2.145099 0.679743
v -4.527456 2.143988 0.680147
v -4.528996 2.144139 0.679621
v -4.528516 2.145197 0.679399
v -4.527456 2.143988 0.680147
v -4.527210 2.141041 0.676051
v -4.526283 2.140810 0.676957
v -4.525809 2.141689 0.677003
v -4.527210 2.141041 0.676051
v -4.526437 2.140510 0.678230
v -4.527555 2.140366 0.678910
v -4.527489 2.141102 0.679583
v -4.526437 2.140510 0.678230
v -4.528795 2.140486 0.678486
v -4.529224 2.140781 0.677277
v -4.529694 2.141651 0.677425
v -4.528795 2.140486 0.678486
v -4.527033 2.141994 0.675806
v -4.528519 2.141028 0.676193
v -4.527210 2.141041 0.676051
v -4.527033 2.141994 0.675806
v -4.528519 2.141028 0.676193
v -4.526012 2.141292 0.678684
v -4.525809 2.141689 0.677003
v -4.526283 2.140810 0.676957
v -4.526437 2.140510 0.678230
v -4.526012 2.141292 0.678684
v -4.526283 2.140810 0.676957
v -4.529127 2.141261 0.679023
v -4.527489 2.141102 0.679583
v -4.527555 2.140366 0.678910
v -4.528795 2.140486 0.678486
v -4.529127 2.141261 0.679023
v -4.527555 2.140366 0.678910
v -4.528762 2.141976 0.675994
v -4.529694 2.141651 0.677425
v -4.529224 2.140781 0.677277
v -4.528519 2.141028 0.676193
v -4.528762 2.141976 0.675994
v -4.529224 2.140781 0.677277
v -4.529694 2.141651 0.677425
v -4.528762 2.141976 0.675994
v -4.528903 2.143481 0.676080
v -4.529694 2.141651 0.677425
v -4.528653 2.144811 0.676773
v -4.529529 2.144505 0.678119
v -4.529980 2.143105 0.677734
v -4.528903 2.143481 0.676080
v -4.528653 2.144811 0.676773
v -4.529980 2.143105 0.677734
v -4.529980 2.143105 0.677734
v -4.529127 2.141261 0.679023
v -4.529694 2.141651 0.677425
v -4.529980 2.143105 0.677734
v -4.529127 2.141261 0.679023
v -4.529529 2.144505 0.678119
v -4.528996 2.144139 0.679621
v -4.529325 2.142655 0.679580
v -4.529980 2.143105 0.677734
v -4.529529 2.144505 0.678119
v -4.529325 2.142655 0.679580
v -4.529325 2.142655 0.679580
v -4.527489 2.141102 0.679583
v -4.529127 2.141261 0.679023
v -4.529325 2.142655 0.679580
v -4.527489 2.141102 0.679583
v -4.528996 2.144139 0.679621
v -4.527456 2.143988 0.680147
v -4.527432 2.142471 0.680227
v -4.529325 2.142655 0.679580
v -4.528996 2.144139 0.679621
v -4.527432 2.142471 0.680227
v -4.527432 2.142471 0.680227
v -4.526012 2.141292 0.678684
v -4.527489 2.141102 0.679583
v -4.527432 2.142471 0.680227
v -4.526012 2.141292 0.678684
v -4.527456 2.143988 0.680147
v -4.526067 2.144167 0.679302
v -4.525726 2.142691 0.679189
v -4.527432 2.142471 0.680227
v -4.527456 2.143988 0.680147
v -4.525726 2.142691 0.679189
v -4.525726 2.142691 0.679189
v -4.525809 2.141689 0.677003
v -4.526012 2.141292 0.678684
v -4.525726 2.142691 0.679189
v -4.525809 2.141689 0.677003
v -4.526067 2.144167 0.679302
v -4.525877 2.144540 0.677722
v -4.525492 2.143149 0.677246
v -4.525726 2.142691 0.679189
v -4.526067 2.144167 0.679302
v -4.525492 2.143149 0.677246
v -4.525492 2.143149 0.677246
v -4.527033 2.141994 0.675806
v -4.525809 2.141689 0.677003
v -4.525492 2.143149 0.677246
v -4.527033 2.141994 0.675806
v -4.525877 2.144540 0.677722
v -4.527028 2.144827 0.676596
v -4.526906 2.143501 0.675863
v -4.525492 2.143149 0.677246
v -4.525877 2.144540 0.677722
v -4.526906 2.143501 0.675863
v -4.526906 2.143501 0.675863
v -4.528903 2.143481 0.676080
v -4.528762 2.141976 0.675994
v -4.527033 2.141994 0.675806
v -4.526906 2.143501 0.675863
v -4.528762 2.141976 0.675994
v -4.527028 2.144827 0.676596
v -4.528653 2.144811 0.676773
v -4.528903 2.143481 0.676080
v -4.526906 2.143501 0.675863
v -4.527028 2.144827 0.676596
v -4.528903 2.143481 0.676080
v -4.528292 2.145635 0.677540
v -4.528864 2.145436 0.678419
v -4.529529 2.144505 0.678119
v -4.528653 2.144811 0.676773
v -4.528292 2.145635 0.677540
v -4.529529 2.144505 0.678119
v -4.528516 2.145197 0.679399
v -4.528864 2.145436 0.678419
v -4.527511 2.145099 0.679743
v -4.528292 2.145635 0.677540
v -4.527511 2.145099 0.679743
v -4.528864 2.145436 0.678419
v -4.526605 2.145216 0.679191
v -4.527511 2.145099 0.679743
v -4.528292 2.145635 0.677540
v -4.527231 2.145646 0.677425
v -4.526605 2.145216 0.679191
v -4.528292 2.145635 0.677540
v -4.526480 2.145459 0.678160
v -4.526605 2.145216 0.679191
v -4.527231 2.145646 0.677425
v -4.528955 2.135156 0.677294
v -4.527628 2.135026 0.677748
v -4.529414 2.135471 0.676000
v -4.528659 2.135735 0.674841
v -4.529414 2.135471 0.676000
v -4.527628 2.135026 0.677748
v -4.526433 2.135180 0.677020
v -4.528659 2.135735 0.674841
v -4.527628 2.135026 0.677748
v -4.527259 2.135749 0.674689
v -4.528659 2.135735 0.674841
v -4.526433 2.135180 0.677020
v -4.526268 2.135502 0.675658
v -4.527259 2.135749 0.674689
v -4.526433 2.135180 0.677020
vn -0.0156 -0.9727 -0.2315
vn 0.2016 0.9235 -0.3264
vn 0.4888 0.7261 0.4835
vn 0.5459 0.8378 0.0105
vn -0.2849 0.9187 -0.2736
vn 0.4889 0.7261 0.4835
vn 0.2015 0.9235 -0.3264
vn -0.2848 0.9187 -0.2736
vn 0.0734 0.6726 0.7364
vn -0.5471 0.8270 0.1292
vn 0.0733 0.6726 0.7364
vn -0.3877 0.7175 0.5787
vn -0.9002 0.4354 -0.0058
vn -0.4757 0.5838 -0.6579
vn -0.5471 0.8270 0.1293
vn -0.2849 0.9187 -0.2735
vn -0.5271 0.2412 -0.8149
vn 0.3118 0.5915 -0.7435
vn 0.3349 0.2498 -0.9085
vn -0.5271 0.2413 -0.8148
vn -0.4757 0.5838 -0.6580
vn 0.3118 0.5916 -0.7435
vn -0.5023 -0.1356 -0.8540
vn 0.3350 0.2497 -0.9085
vn 0.3098 -0.1275 -0.9422
vn -0.5271 0.2413 -0.8149
vn 0.3349 0.2497 -0.9085
vn 0.8693 0.4529 -0.1981
vn 0.9452 0.0979 -0.3115
vn 0.3119 0.5915 -0.7435
vn 0.8693 0.4528 -0.1981
vn 0.3098 -0.1276 -0.9422
vn 0.8846 -0.2706 -0.3798
vn 0.7770 0.2720 0.5677
vn 0.8441 -0.1000 0.5267
vn 0.7770 0.2721 0.5677
vn 0.8846 -0.2707 -0.3798
vn 0.7894 -0.4570 0.4099
vn 0.8441 -0.1001 0.5268
vn 0.1044 0.1854 0.9771
vn 0.1079 -0.1949 0.9749
vn 0.8441 -0.1000 0.5268
vn 0.7894 -0.4571 0.4099
vn 0.0958 -0.5464 0.8321
vn 0.1079 -0.1948 0.9749
vn -0.6420 0.2581 0.7219
vn -0.7092 -0.1153 0.6955
vn 0.1043 0.1854 0.9771
vn 0.0958 -0.5464 0.8320
vn -0.6739 -0.4714 0.5689
vn -0.9918 0.0788 -0.1010
vn -0.6421 0.2581 0.7219
vn -0.9002 0.4354 -0.0057
vn -0.6739 -0.4714 0.5688
vn -0.9401 -0.2886 -0.1814
vn -0.9918 0.0788 -0.1011
vn -0.9401 -0.2886 -0.1815
vn -0.5023 -0.1355 -0.8540
vn -0.9627 -0.2134 -0.1665
vn -0.5024 -0.1355 -0.8540
vn -0.5138 -0.0566 -0.8561
vn -0.9627 -0.2135 -0.1665
vn 0.0995 -0.4778 0.8728
vn -0.6897 -0.4010 0.6029
vn 0.9084 -0.1950 -0.3698
vn 0.7894 -0.4570 0.4098
vn 0.8108 -0.3862 0.4399
vn -0.5138 -0.0565 -0.8561
vn 0.3097 -0.1275 -0.9422
vn 0.3189 -0.0484 -0.9466
vn -0.6897 -0.4009 0.6029
vn 0.0959 -0.5464 0.8320
vn 0.3189 -0.0483 -0.9465
vn 0.9084 -0.1951 -0.3698
vn 0.1043 0.1853 0.9771
vn 0.0734 0.6726 0.7363
vn 0.8693 0.4528 -0.1980
vn 0.5459 0.8378 0.0104
vn 0.4888 0.7262 0.4835
vn -0.5276 0.2234 -0.8196
vn 0.3348 0.2319 -0.9133
vn 0.3189 -0.0483 -0.9466
vn -0.7099 -0.1333 0.6916
vn -0.9926 0.0608 -0.1053
vn 0.8443 -0.1181 0.5228
vn 0.1077 -0.2130 0.9711
vn 0.8443 -0.1180 0.5228
vn 0.3349 0.2319 -0.9133
vn 0.9454 0.0799 -0.3160
vn 0.3189 -0.0484 -0.9465
vn -0.5277 0.2234 -0.8196
vn -0.9926 0.0609 -0.1053
vn 0.1076 -0.2130 0.9711
vn 0.1076 -0.2129 0.9711
vn 0.9454 0.0799 -0.3159
vn 0.8108 -0.3861 0.4399
vn 0.8443 -0.1181 0.5227
vn 0.9454 0.0800 -0.3159
vt 0.530319 0.611839
vt 0.522446 0.618118
vt 0.524872 0.613083
vt 0.524872 0.623154
vt 0.534683 0.615326
vt 0.530319 0.624397
vt 0.534683 0.620918
vt 0.537079 0.671494
vt 0.541916 0.669548
vt 0.539566 0.672157
vt 0.536179 0.669609
vt 0.539856 0.666756
vt 0.536224 0.667854
vt 0.537567 0.666748
vt 0.534592 0.666855
vt 0.534012 0.669838
vt 0.530777 0.669685
vt 0.535187 0.673050
vt 0.531769 0.674789
vt 0.525803 0.669067
vt 0.526108 0.676537
vt 0.539017 0.675606
vt 0.536011 0.680244
vt 0.529755 0.684982
vt 0.547180 0.674767
vt 0.546982 0.686485
vt 0.537415 0.696274
vt 0.547180 0.658051
vt 0.540527 0.663902
vt 0.539825 0.659698
vt 0.546280 0.665543
vt 0.543762 0.651657
vt 0.537613 0.655174
vt 0.536758 0.664742
vt 0.535126 0.661980
vt 0.532364 0.658463
vt 0.532074 0.665283
vt 0.528198 0.662933
vt 0.523743 0.660286
vt 0.519989 0.668175
vt 0.535217 0.651588
vt 0.529327 0.654999
vt 0.522873 0.688484
vt 0.528320 0.699394
vt 0.519577 0.678001
vt 0.540466 0.648293
vt 0.604446 0.642853
vt 0.626221 0.647896
vt 0.604553 0.648445
vt 0.626144 0.642670
vt 0.604553 0.631676
vt 0.626144 0.637444
vt 0.604446 0.637268
vt 0.626221 0.632225
vt 0.605011 0.620506
vt 0.626404 0.626999
vt 0.604736 0.626091
vt 0.626663 0.621780
vt 0.626404 0.653114
vt 0.604736 0.654030
vt 0.626663 0.658333
vt 0.605011 0.659607
s 0
usemtl decorations
f 240/1/1 239/2/1 238/3/1
f 237/1/1 236/4/1 235/2/1
f 234/5/1 233/4/1 232/1/1
f 231/5/1 230/6/1 229/4/1
f 228/6/1 227/5/1 226/7/1
s 1
f 225/8/2 224/9/3 223/10/4
f 222/11/5 221/9/6 220/8/7
f 219/11/8 218/12/9 217/9/3
f 216/13/10 215/12/9 214/11/5
f 213/12/11 212/13/10 211/14/12
f 210/15/13 209/11/5 208/16/14
f 207/15/13 206/13/15 205/11/16
f 204/17/17 203/18/18 202/19/19
f 201/17/20 200/16/21 199/18/22
f 198/20/23 197/19/24 196/21/25
f 195/20/23 194/17/26 193/19/19
f 192/19/27 191/22/28 190/23/29
f 189/19/19 188/18/30 187/22/31
f 186/21/32 185/23/29 184/24/33
f 183/21/32 3/19/24 182/23/29
f 181/23/29 180/25/34 179/26/35
f 178/23/29 177/22/31 176/25/36
f 175/24/37 174/26/35 173/27/38
f 172/24/37 4/23/29 171/26/35
f 170/28/39 169/29/40 168/30/41
f 167/28/42 166/31/34 165/29/40
f 164/32/43 163/30/41 162/33/44
f 161/32/38 13/28/42 160/30/45
f 159/30/41 158/34/46 157/35/47
f 156/30/41 155/29/48 154/34/46
f 153/33/49 152/35/47 151/36/50
f 150/33/49 14/30/41 149/35/47
f 148/35/47 147/15/13 146/37/51
f 145/35/47 144/34/52 143/15/53
f 142/36/54 141/37/51 140/38/55
f 139/36/54 16/35/47 138/37/51
f 137/37/56 136/16/14 135/17/17
f 134/37/51 133/15/13 132/16/14
f 131/38/57 130/17/17 129/20/58
f 128/38/57 36/37/51 25/17/17
f 127/39/59 126/20/60 125/40/61
f 124/39/62 123/38/57 122/20/60
f 121/41/63 120/36/50 119/42/64
f 118/41/63 117/33/49 116/36/50
f 115/43/65 114/27/66 113/44/67
f 112/43/65 111/24/33 110/27/38
f 109/40/68 108/21/69 107/45/70
f 106/40/68 40/20/23 105/21/69
f 104/42/71 103/38/57 102/39/62
f 101/42/71 41/36/50 42/38/57
f 100/46/67 99/33/72 98/41/63
f 97/46/67 37/32/38 38/33/72
f 96/45/73 95/24/33 94/43/74
f 93/45/73 33/21/69 34/24/33
f 92/29/48 91/14/12 90/34/46
f 89/29/75 88/12/76 87/14/12
f 86/22/77 85/9/6 84/25/36
f 83/22/77 82/10/78 81/9/3
f 80/16/21 79/8/2 78/18/22
f 29/16/21 30/11/5 77/8/7
f 76/31/36 75/12/9 28/29/40
f 31/31/36 26/9/79 27/12/76
f 74/18/18 73/10/4 24/22/31
f 21/18/18 22/8/7 23/10/4
f 72/34/52 71/13/10 20/15/13
f 17/34/52 18/14/12 19/13/15
f 70/47/80 69/48/73 68/49/81
f 67/47/80 66/50/61 65/48/82
f 64/51/83 63/52/59 62/53/84
f 61/51/83 60/54/71 59/52/62
f 58/55/85 57/56/63 56/57/86
f 55/55/87 54/58/67 53/56/63
f 52/49/88 51/59/65 50/60/89
f 2/49/88 32/48/90 49/59/65
f 48/53/84 47/50/68 12/47/91
f 9/53/92 10/52/62 11/50/68
f 46/57/93 45/54/71 8/51/83
f 5/57/94 6/56/63 7/54/64
f 44/60/95 43/61/96 15/62/97
f 1/60/98 35/59/74 39/61/67
