# Blender 5.0.0
# www.blender.org
mtllib Circle_005_Circle_001_Dupli_266_decorations_0.mtl
o Circle.005|Circle.001|Dupli|266_decorations_0
v -4.637953 1.407903 0.538771
v -4.637070 1.406892 0.539198
v -4.642466 1.403777 0.543972
v -4.643725 1.405218 0.543362
v -4.637387 1.409837 0.540313
v -4.641100 1.407980 0.543867
v -4.640144 1.407482 0.544623
v -4.636364 1.409304 0.541122
v -4.635796 1.408016 0.541083
v -4.639613 1.406278 0.544587
v -4.639906 1.405275 0.543787
v -4.636110 1.406943 0.540227
v -4.643927 1.407088 0.544070
v -4.642919 1.407978 0.545563
v -4.638094 1.409213 0.539267
v -4.641459 1.407218 0.546716
v -4.642617 1.406483 0.547371
v -4.643535 1.405761 0.547562
v -4.643105 1.404786 0.547533
v -4.641957 1.404988 0.547326
v -4.643436 1.403683 0.545137
v -4.644069 1.403934 0.546104
v -4.644739 1.404700 0.545780
v -4.644461 1.404856 0.544641
v -4.641096 1.403849 0.545440
v -4.644845 1.405692 0.546156
v -4.644310 1.406165 0.546949
v -4.643805 1.407101 0.546432
v -4.642322 1.403741 0.546332
v -4.643342 1.403972 0.546884
v -4.644625 1.406377 0.545217
v -4.640803 1.405227 0.542824
v -4.641431 1.404524 0.543156
v -4.642522 1.405771 0.542628
v -4.641629 1.406172 0.542425
v -4.640648 1.405380 0.546662
v -4.642696 1.407390 0.543241
v -4.641824 1.408160 0.544533
v -4.641761 1.407397 0.542889
v -4.640246 1.404586 0.544427
v -4.640561 1.407502 0.545531
v -4.639859 1.405912 0.545484
v -4.641761 1.407397 0.542889
v -4.637953 1.407903 0.538771
v -4.640144 1.407482 0.544623
v -4.637387 1.409837 0.540313
v -4.639906 1.405275 0.543787
v -4.635796 1.408016 0.541083
v -4.641629 1.406172 0.542425
v -4.637953 1.407903 0.538771
v -4.641629 1.406172 0.542425
v -4.637070 1.406892 0.539198
v -4.641100 1.407980 0.543867
v -4.641761 1.407397 0.542889
v -4.638094 1.409213 0.539267
v -4.637387 1.409837 0.540313
v -4.641100 1.407980 0.543867
v -4.638094 1.409213 0.539267
v -4.639613 1.406278 0.544587
v -4.640144 1.407482 0.544623
v -4.636364 1.409304 0.541122
v -4.635796 1.408016 0.541083
v -4.639613 1.406278 0.544587
v -4.636364 1.409304 0.541122
v -4.640803 1.405227 0.542824
v -4.639906 1.405275 0.543787
v -4.636110 1.406943 0.540227
v -4.637070 1.406892 0.539198
v -4.640803 1.405227 0.542824
v -4.636110 1.406943 0.540227
v -4.643105 1.404786 0.547533
v -4.642617 1.406483 0.547371
v -4.644739 1.404700 0.545780
v -4.643436 1.403683 0.545137
v -4.644310 1.406165 0.546949
v -4.644625 1.406377 0.545217
v -4.644069 1.403934 0.546104
v -4.643436 1.403683 0.545137
v -4.644069 1.403934 0.546104
v -4.642322 1.403741 0.546332
v -4.644845 1.405692 0.546156
v -4.644739 1.404700 0.545780
v -4.644461 1.404856 0.544641
v -4.644625 1.406377 0.545217
v -4.644845 1.405692 0.546156
v -4.644461 1.404856 0.544641
v -4.643535 1.405761 0.547562
v -4.644310 1.406165 0.546949
v -4.643805 1.407101 0.546432
v -4.642617 1.406483 0.547371
v -4.643535 1.405761 0.547562
v -4.643805 1.407101 0.546432
v -4.640803 1.405227 0.542824
v -4.641629 1.406172 0.542425
v -4.642522 1.405771 0.542628
v -4.640803 1.405227 0.542824
v -4.641761 1.407397 0.542889
v -4.641100 1.407980 0.543867
v -4.641824 1.408160 0.544533
v -4.641761 1.407397 0.542889
v -4.640144 1.407482 0.544623
v -4.639613 1.406278 0.544587
v -4.639859 1.405912 0.545484
v -4.640144 1.407482 0.544623
v -4.641431 1.404524 0.543156
v -4.639906 1.405275 0.543787
v -4.640803 1.405227 0.542824
v -4.641431 1.404524 0.543156
v -4.639906 1.405275 0.543787
v -4.642696 1.407390 0.543241
v -4.642522 1.405771 0.542628
v -4.641629 1.406172 0.542425
v -4.641761 1.407397 0.542889
v -4.642696 1.407390 0.543241
v -4.641629 1.406172 0.542425
v -4.640561 1.407502 0.545531
v -4.641824 1.408160 0.544533
v -4.641100 1.407980 0.543867
v -4.640144 1.407482 0.544623
v -4.640561 1.407502 0.545531
v -4.641100 1.407980 0.543867
v -4.640246 1.404586 0.544427
v -4.639859 1.405912 0.545484
v -4.639613 1.406278 0.544587
v -4.639906 1.405275 0.543787
v -4.640246 1.404586 0.544427
v -4.639613 1.406278 0.544587
v -4.639859 1.405912 0.545484
v -4.640246 1.404586 0.544427
v -4.641096 1.403849 0.545440
v -4.639859 1.405912 0.545484
v -4.642322 1.403741 0.546332
v -4.641957 1.404988 0.547326
v -4.640648 1.405380 0.546662
v -4.641096 1.403849 0.545440
v -4.642322 1.403741 0.546332
v -4.640648 1.405380 0.546662
v -4.640648 1.405380 0.546662
v -4.640561 1.407502 0.545531
v -4.639859 1.405912 0.545484
v -4.640648 1.405380 0.546662
v -4.640561 1.407502 0.545531
v -4.641957 1.404988 0.547326
v -4.642617 1.406483 0.547371
v -4.641459 1.407218 0.546716
v -4.640648 1.405380 0.546662
v -4.641957 1.404988 0.547326
v -4.641459 1.407218 0.546716
v -4.641459 1.407218 0.546716
v -4.641824 1.408160 0.544533
v -4.640561 1.407502 0.545531
v -4.641459 1.407218 0.546716
v -4.641824 1.408160 0.544533
v -4.642617 1.406483 0.547371
v -4.643805 1.407101 0.546432
v -4.642919 1.407978 0.545563
v -4.641459 1.407218 0.546716
v -4.642617 1.406483 0.547371
v -4.642919 1.407978 0.545563
v -4.642919 1.407978 0.545563
v -4.642696 1.407390 0.543241
v -4.641824 1.408160 0.544533
v -4.642919 1.407978 0.545563
v -4.642696 1.407390 0.543241
v -4.643805 1.407101 0.546432
v -4.644625 1.406377 0.545217
v -4.643927 1.407088 0.544070
v -4.642919 1.407978 0.545563
v -4.643805 1.407101 0.546432
v -4.643927 1.407088 0.544070
v -4.643927 1.407088 0.544070
v -4.642522 1.405771 0.542628
v -4.642696 1.407390 0.543241
v -4.643927 1.407088 0.544070
v -4.642522 1.405771 0.542628
v -4.644625 1.406377 0.545217
v -4.644461 1.404856 0.544641
v -4.643725 1.405218 0.543362
v -4.643927 1.407088 0.544070
v -4.644625 1.406377 0.545217
v -4.643725 1.405218 0.543362
v -4.643725 1.405218 0.543362
v -4.641431 1.404524 0.543156
v -4.642522 1.405771 0.542628
v -4.643725 1.405218 0.543362
v -4.641431 1.404524 0.543156
v -4.644461 1.404856 0.544641
v -4.643436 1.403683 0.545137
v -4.642466 1.403777 0.543972
v -4.643725 1.405218 0.543362
v -4.644461 1.404856 0.544641
v -4.642466 1.403777 0.543972
v -4.642466 1.403777 0.543972
v -4.641096 1.403849 0.545440
v -4.640246 1.404586 0.544427
v -4.641431 1.404524 0.543156
v -4.642466 1.403777 0.543972
v -4.640246 1.404586 0.544427
v -4.643436 1.403683 0.545137
v -4.642322 1.403741 0.546332
v -4.641096 1.403849 0.545440
v -4.642466 1.403777 0.543972
v -4.643436 1.403683 0.545137
v -4.641096 1.403849 0.545440
v -4.643342 1.403972 0.546884
v -4.643105 1.404786 0.547533
v -4.641957 1.404988 0.547326
v -4.642322 1.403741 0.546332
v -4.643342 1.403972 0.546884
v -4.641957 1.404988 0.547326
v -4.643535 1.405761 0.547562
v -4.643105 1.404786 0.547533
v -4.644310 1.406165 0.546949
v -4.643342 1.403972 0.546884
v -4.644310 1.406165 0.546949
v -4.643105 1.404786 0.547533
v -4.644845 1.405692 0.546156
v -4.644310 1.406165 0.546949
v -4.643342 1.403972 0.546884
v -4.644069 1.403934 0.546104
v -4.644845 1.405692 0.546156
v -4.643342 1.403972 0.546884
v -4.644739 1.404700 0.545780
v -4.644845 1.405692 0.546156
v -4.644069 1.403934 0.546104
v -4.636364 1.409304 0.541122
v -4.637387 1.409837 0.540313
v -4.635796 1.408016 0.541083
v -4.636110 1.406943 0.540227
v -4.635796 1.408016 0.541083
v -4.637387 1.409837 0.540313
v -4.638094 1.409213 0.539267
v -4.636110 1.406943 0.540227
v -4.637387 1.409837 0.540313
v -4.637070 1.406892 0.539198
v -4.636110 1.406943 0.540227
v -4.638094 1.409213 0.539267
v -4.637953 1.407903 0.538771
v -4.637070 1.406892 0.539198
v -4.638094 1.409213 0.539267
vn 0.6846 0.3216 -0.6542
vn -0.6008 -0.7551 0.2625
vn -0.9567 0.0513 0.2865
vn -0.9076 -0.4041 0.1140
vn -0.2672 -0.7375 0.6202
vn -0.6008 -0.7551 0.2626
vn -0.2673 -0.7375 0.6202
vn -0.7111 0.2680 0.6500
vn -0.1582 -0.3646 0.9176
vn -0.3557 0.0829 0.9309
vn 0.3797 -0.2916 0.8779
vn 0.2032 -0.8953 0.3965
vn 0.3798 -0.2916 0.8779
vn -0.1583 -0.3646 0.9176
vn 0.5024 -0.8485 0.1664
vn -0.3367 -0.9237 -0.1826
vn -0.0886 -0.8796 -0.4673
vn 0.2032 -0.8953 0.3964
vn -0.3367 -0.9237 -0.1825
vn 0.7286 -0.6794 -0.0873
vn -0.0887 -0.8796 -0.4674
vn 0.1718 -0.7087 -0.6843
vn -0.0887 -0.8796 -0.4673
vn -0.8335 -0.3554 -0.4230
vn -0.6324 -0.2576 -0.7306
vn -0.3404 -0.1227 -0.9322
vn -0.6324 -0.2575 -0.7306
vn -0.9130 0.3817 -0.1439
vn -0.7194 0.5493 -0.4250
vn -0.3404 -0.1226 -0.9323
vn -0.4224 0.6374 -0.6444
vn -0.7194 0.5494 -0.4250
vn -0.5154 0.7326 0.4446
vn -0.2842 0.9334 0.2192
vn -0.5154 0.7325 0.4447
vn -0.4224 0.6375 -0.6444
vn -0.0125 0.9992 -0.0375
vn -0.2843 0.9333 0.2192
vn 0.0599 0.4329 0.8994
vn 0.3455 0.6054 0.7170
vn -0.5154 0.7326 0.4447
vn -0.0124 0.9992 -0.0375
vn 0.3456 0.6054 0.7170
vn 0.5808 0.6903 0.4315
vn 0.3797 -0.2915 0.8780
vn 0.6956 -0.1876 0.6935
vn 0.5809 0.6902 0.4314
vn 0.9106 -0.0568 0.4094
vn 0.9106 -0.0568 0.4093
vn 0.7286 -0.6794 -0.0872
vn 0.8757 -0.0855 0.4751
vn 0.6891 -0.7239 -0.0340
vn -0.0708 0.9973 0.0170
vn 0.5376 0.6805 0.4978
vn -0.0707 0.9973 0.0170
vn -0.4071 -0.1530 -0.9005
vn -0.4911 0.6264 -0.6053
vn -0.3404 -0.1226 -0.9322
vn 0.1182 -0.7539 -0.6462
vn 0.7286 -0.6793 -0.0873
vn 0.5376 0.6805 0.4979
vn 0.5809 0.6903 0.4315
vn -0.4912 0.6264 -0.6053
vn -0.0707 0.9974 0.0170
vn 0.1181 -0.7540 -0.6462
vn 0.1182 -0.7540 -0.6462
vn -0.3558 0.0829 0.9309
vn -0.5153 0.7326 0.4447
vn -0.7111 0.2679 0.6500
vn -0.9567 0.0512 0.2865
vn -0.6008 -0.7550 0.2626
vn -0.9130 0.3817 -0.1438
vn -0.9076 -0.4040 0.1140
vn 0.0599 0.4329 0.8995
vn 0.5153 -0.8430 0.1544
vn -0.0760 -0.8741 -0.4797
vn 0.3584 0.6116 0.7053
vn 0.8757 -0.0855 0.4752
vn 0.7086 -0.1817 0.6818
vn -0.7071 0.5556 -0.4373
vn -0.2718 0.9398 0.2072
vn -0.7072 0.5556 -0.4373
vn -0.4071 -0.1531 -0.9005
vn -0.6201 -0.2518 -0.7431
vn -0.0761 -0.8741 -0.4797
vn 0.7086 -0.1818 0.6818
vn -0.2717 0.9398 0.2072
vn 0.3584 0.6117 0.7053
vn -0.6201 -0.2517 -0.7431
vn -0.6201 -0.2517 -0.7430
vt 0.543243 0.635056
vt 0.535370 0.641335
vt 0.537796 0.636299
vt 0.537796 0.646370
vt 0.547607 0.638535
vt 0.543243 0.647614
vt 0.547607 0.644127
vt 0.593674 0.671494
vt 0.598511 0.669548
vt 0.596146 0.672157
vt 0.592773 0.669609
vt 0.596436 0.666756
vt 0.592804 0.667854
vt 0.594147 0.666748
vt 0.591187 0.666855
vt 0.590591 0.669838
vt 0.587372 0.669685
vt 0.591782 0.673050
vt 0.588348 0.674789
vt 0.582382 0.669067
vt 0.582687 0.676537
vt 0.595596 0.675606
vt 0.592606 0.680244
vt 0.586334 0.684982
vt 0.603775 0.674767
vt 0.603561 0.686485
vt 0.594009 0.696274
vt 0.603775 0.658051
vt 0.597107 0.663902
vt 0.596405 0.659698
vt 0.602859 0.665543
vt 0.600342 0.651657
vt 0.594193 0.655174
vt 0.593353 0.664742
vt 0.591705 0.661980
vt 0.588959 0.658463
vt 0.588654 0.665283
vt 0.584778 0.662933
vt 0.580322 0.660286
vt 0.576584 0.668175
vt 0.591812 0.651588
vt 0.585907 0.654999
vt 0.579453 0.688484
vt 0.584915 0.699394
vt 0.576157 0.678001
vt 0.597061 0.648293
vt 0.627350 0.682632
vt 0.649124 0.687675
vt 0.627441 0.688225
vt 0.649033 0.682457
vt 0.627441 0.671455
vt 0.649033 0.677231
vt 0.627350 0.677048
vt 0.649124 0.672005
vt 0.627914 0.660294
vt 0.649292 0.666786
vt 0.627625 0.665871
vt 0.649551 0.661568
vt 0.649292 0.692902
vt 0.627625 0.693810
vt 0.649551 0.698120
vt 0.627914 0.699394
s 0
usemtl decorations
f 240/1/1 239/2/1 238/3/1
f 237/1/1 236/4/1 235/2/1
f 234/5/1 233/4/1 232/1/1
f 231/5/1 230/6/1 229/4/1
f 228/6/1 227/5/1 226/7/1
s 1
f 225/8/2 224/9/3 223/10/4
f 222/11/5 221/9/3 220/8/6
f 219/11/7 218/12/8 217/9/3
f 216/13/9 215/12/8 214/11/7
f 213/12/8 212/13/9 211/14/10
f 210/15/11 209/11/7 208/16/12
f 207/15/13 206/13/14 205/11/7
f 204/17/15 203/18/16 202/19/17
f 201/17/15 200/16/18 199/18/19
f 198/20/20 197/19/21 196/21/22
f 195/20/20 194/17/15 193/19/23
f 192/19/17 191/22/24 190/23/25
f 189/19/17 188/18/16 187/22/24
f 186/21/22 185/23/25 184/24/26
f 183/21/22 3/19/23 182/23/25
f 181/23/27 180/25/28 179/26/29
f 178/23/25 177/22/24 176/25/28
f 175/24/30 174/26/29 173/27/31
f 172/24/30 4/23/27 171/26/29
f 170/28/32 169/29/33 168/30/34
f 167/28/32 166/31/28 165/29/35
f 164/32/36 163/30/34 162/33/37
f 161/32/36 13/28/32 160/30/38
f 159/30/34 158/34/39 157/35/40
f 156/30/34 155/29/41 154/34/39
f 153/33/42 152/35/43 151/36/44
f 150/33/42 14/30/34 149/35/43
f 148/35/43 147/15/45 146/37/46
f 145/35/43 144/34/39 143/15/45
f 142/36/47 141/37/46 140/38/48
f 139/36/47 16/35/43 138/37/46
f 137/37/46 136/16/18 135/17/15
f 134/37/46 133/15/45 132/16/12
f 131/38/49 130/17/15 129/20/50
f 128/38/49 36/37/46 25/17/15
f 127/39/51 126/20/50 125/40/52
f 124/39/51 123/38/49 122/20/50
f 121/41/53 120/36/44 119/42/54
f 118/41/55 117/33/42 116/36/44
f 115/43/56 114/27/31 113/44/57
f 112/43/56 111/24/58 110/27/31
f 109/40/52 108/21/22 107/45/59
f 106/40/52 40/20/60 105/21/22
f 104/42/61 103/38/49 102/39/51
f 101/42/61 41/36/62 42/38/49
f 100/46/63 99/33/42 98/41/64
f 97/46/63 37/32/36 38/33/42
f 96/45/65 95/24/26 94/43/56
f 93/45/66 33/21/22 34/24/26
f 92/29/41 91/14/67 90/34/39
f 89/29/68 88/12/69 87/14/10
f 86/22/24 85/9/3 84/25/28
f 83/22/24 82/10/4 81/9/70
f 80/16/18 79/8/6 78/18/19
f 29/16/18 30/11/5 77/8/71
f 76/31/72 75/12/8 28/29/35
f 31/31/28 26/9/70 27/12/69
f 74/18/16 73/10/73 24/22/24
f 21/18/16 22/8/71 23/10/4
f 72/34/74 71/13/9 20/15/45
f 17/34/39 18/14/10 19/13/14
f 70/47/75 69/48/65 68/49/76
f 67/47/75 66/50/52 65/48/66
f 64/51/77 63/52/78 62/53/79
f 61/51/77 60/54/61 59/52/51
f 58/55/80 57/56/55 56/57/81
f 55/55/82 54/58/57 53/56/64
f 52/49/76 51/59/83 50/60/84
f 2/49/85 32/48/59 49/59/83
f 48/53/86 47/50/52 12/47/75
f 9/53/86 10/52/78 11/50/52
f 46/57/87 45/54/61 8/51/88
f 5/57/87 6/56/64 7/54/61
f 44/60/89 43/61/63 15/62/82
f 1/60/90 35/59/56 39/61/63
