# Blender 5.0.0
# www.blender.org
mtllib Circle_005_Circle_001_Dupli_66_decorations_0.mtl
o Circle.005|Circle.001|Dupli|66_decorations_0
v -4.458398 0.674040 0.347581
v -4.458504 0.672732 0.348092
v -4.465357 0.674326 0.351572
v -4.465205 0.676192 0.350843
v -4.456985 0.675216 0.349331
v -4.461559 0.676546 0.352009
v -4.461333 0.675595 0.352890
v -4.456743 0.674198 0.350274
v -4.457178 0.672859 0.350251
v -4.461739 0.674342 0.352869
v -4.462472 0.673732 0.351961
v -4.457962 0.672206 0.349280
v -4.464240 0.677770 0.351629
v -4.463190 0.677870 0.353339
v -4.457722 0.675145 0.348132
v -4.462844 0.676419 0.354685
v -4.464292 0.676685 0.355064
v -4.465471 0.676769 0.355034
v -4.465800 0.675754 0.355017
v -4.464796 0.675130 0.355038
v -4.466336 0.674982 0.352531
v -4.466805 0.675658 0.353381
v -4.466724 0.676649 0.352994
v -4.466212 0.676501 0.351938
v -4.464582 0.673576 0.353267
v -4.466212 0.677487 0.353411
v -4.465654 0.677540 0.354320
v -4.464572 0.677866 0.353969
v -4.465706 0.674372 0.353911
v -4.466394 0.675260 0.354281
v -4.465427 0.677784 0.352578
v -4.462979 0.674223 0.350850
v -4.463963 0.674139 0.351012
v -4.463830 0.675754 0.350381
v -4.462880 0.675446 0.350373
v -4.463464 0.674507 0.354653
v -4.462996 0.677120 0.351062
v -4.462087 0.677207 0.352542
v -4.462248 0.676480 0.350888
v -4.463292 0.673490 0.352479
v -4.461787 0.675950 0.353706
v -4.462324 0.674296 0.353679
v -4.462248 0.676480 0.350888
v -4.458398 0.674040 0.347581
v -4.461333 0.675595 0.352890
v -4.456985 0.675216 0.349331
v -4.462472 0.673732 0.351961
v -4.457178 0.672859 0.350251
v -4.462880 0.675446 0.350373
v -4.458398 0.674040 0.347581
v -4.462880 0.675446 0.350373
v -4.458504 0.672732 0.348092
v -4.461559 0.676546 0.352009
v -4.462248 0.676480 0.350888
v -4.457722 0.675145 0.348132
v -4.456985 0.675216 0.349331
v -4.461559 0.676546 0.352009
v -4.457722 0.675145 0.348132
v -4.461739 0.674342 0.352869
v -4.461333 0.675595 0.352890
v -4.456743 0.674198 0.350274
v -4.457178 0.672859 0.350251
v -4.461739 0.674342 0.352869
v -4.456743 0.674198 0.350274
v -4.462979 0.674223 0.350850
v -4.462472 0.673732 0.351961
v -4.457962 0.672206 0.349280
v -4.458504 0.672732 0.348092
v -4.462979 0.674223 0.350850
v -4.457962 0.672206 0.349280
v -4.465800 0.675754 0.355017
v -4.464292 0.676685 0.355064
v -4.466724 0.676649 0.352994
v -4.466336 0.674982 0.352531
v -4.465654 0.677540 0.354320
v -4.465427 0.677784 0.352578
v -4.466805 0.675658 0.353381
v -4.466336 0.674982 0.352531
v -4.466805 0.675658 0.353381
v -4.465706 0.674372 0.353911
v -4.466212 0.677487 0.353411
v -4.466724 0.676649 0.352994
v -4.466212 0.676501 0.351938
v -4.465427 0.677784 0.352578
v -4.466212 0.677487 0.353411
v -4.466212 0.676501 0.351938
v -4.465471 0.676769 0.355034
v -4.465654 0.677540 0.354320
v -4.464572 0.677866 0.353969
v -4.464292 0.676685 0.355064
v -4.465471 0.676769 0.355034
v -4.464572 0.677866 0.353969
v -4.462979 0.674223 0.350850
v -4.462880 0.675446 0.350373
v -4.463830 0.675754 0.350381
v -4.462979 0.674223 0.350850
v -4.462248 0.676480 0.350888
v -4.461559 0.676546 0.352009
v -4.462087 0.677207 0.352542
v -4.462248 0.676480 0.350888
v -4.461333 0.675595 0.352890
v -4.461739 0.674342 0.352869
v -4.462324 0.674296 0.353679
v -4.461333 0.675595 0.352890
v -4.463963 0.674139 0.351012
v -4.462472 0.673732 0.351961
v -4.462979 0.674223 0.350850
v -4.463963 0.674139 0.351012
v -4.462472 0.673732 0.351961
v -4.462996 0.677120 0.351062
v -4.463830 0.675754 0.350381
v -4.462880 0.675446 0.350373
v -4.462248 0.676480 0.350888
v -4.462996 0.677120 0.351062
v -4.462880 0.675446 0.350373
v -4.461787 0.675950 0.353706
v -4.462087 0.677207 0.352542
v -4.461559 0.676546 0.352009
v -4.461333 0.675595 0.352890
v -4.461787 0.675950 0.353706
v -4.461559 0.676546 0.352009
v -4.463292 0.673490 0.352479
v -4.462324 0.674296 0.353679
v -4.461739 0.674342 0.352869
v -4.462472 0.673732 0.351961
v -4.463292 0.673490 0.352479
v -4.461739 0.674342 0.352869
v -4.462324 0.674296 0.353679
v -4.463292 0.673490 0.352479
v -4.464582 0.673576 0.353267
v -4.462324 0.674296 0.353679
v -4.465706 0.674372 0.353911
v -4.464796 0.675130 0.355038
v -4.463464 0.674507 0.354653
v -4.464582 0.673576 0.353267
v -4.465706 0.674372 0.353911
v -4.463464 0.674507 0.354653
v -4.463464 0.674507 0.354653
v -4.461787 0.675950 0.353706
v -4.462324 0.674296 0.353679
v -4.463464 0.674507 0.354653
v -4.461787 0.675950 0.353706
v -4.464796 0.675130 0.355038
v -4.464292 0.676685 0.355064
v -4.462844 0.676419 0.354685
v -4.463464 0.674507 0.354653
v -4.464796 0.675130 0.355038
v -4.462844 0.676419 0.354685
v -4.462844 0.676419 0.354685
v -4.462087 0.677207 0.352542
v -4.461787 0.675950 0.353706
v -4.462844 0.676419 0.354685
v -4.462087 0.677207 0.352542
v -4.464292 0.676685 0.355064
v -4.464572 0.677866 0.353969
v -4.463190 0.677870 0.353339
v -4.462844 0.676419 0.354685
v -4.464292 0.676685 0.355064
v -4.463190 0.677870 0.353339
v -4.463190 0.677870 0.353339
v -4.462996 0.677120 0.351062
v -4.462087 0.677207 0.352542
v -4.463190 0.677870 0.353339
v -4.462996 0.677120 0.351062
v -4.464572 0.677866 0.353969
v -4.465427 0.677784 0.352578
v -4.464240 0.677770 0.351629
v -4.463190 0.677870 0.353339
v -4.464572 0.677866 0.353969
v -4.464240 0.677770 0.351629
v -4.464240 0.677770 0.351629
v -4.463830 0.675754 0.350381
v -4.462996 0.677120 0.351062
v -4.464240 0.677770 0.351629
v -4.463830 0.675754 0.350381
v -4.465427 0.677784 0.352578
v -4.466212 0.676501 0.351938
v -4.465205 0.676192 0.350843
v -4.464240 0.677770 0.351629
v -4.465427 0.677784 0.352578
v -4.465205 0.676192 0.350843
v -4.465205 0.676192 0.350843
v -4.463963 0.674139 0.351012
v -4.463830 0.675754 0.350381
v -4.465205 0.676192 0.350843
v -4.463963 0.674139 0.351012
v -4.466212 0.676501 0.351938
v -4.466336 0.674982 0.352531
v -4.465357 0.674326 0.351572
v -4.465205 0.676192 0.350843
v -4.466212 0.676501 0.351938
v -4.465357 0.674326 0.351572
v -4.465357 0.674326 0.351572
v -4.464582 0.673576 0.353267
v -4.463292 0.673490 0.352479
v -4.463963 0.674139 0.351012
v -4.465357 0.674326 0.351572
v -4.463292 0.673490 0.352479
v -4.466336 0.674982 0.352531
v -4.465706 0.674372 0.353911
v -4.464582 0.673576 0.353267
v -4.465357 0.674326 0.351572
v -4.466336 0.674982 0.352531
v -4.464582 0.673576 0.353267
v -4.466394 0.675260 0.354281
v -4.465800 0.675754 0.355017
v -4.464796 0.675130 0.355038
v -4.465706 0.674372 0.353911
v -4.466394 0.675260 0.354281
v -4.464796 0.675130 0.355038
v -4.465471 0.676769 0.355034
v -4.465800 0.675754 0.355017
v -4.465654 0.677540 0.354320
v -4.466394 0.675260 0.354281
v -4.465654 0.677540 0.354320
v -4.465800 0.675754 0.355017
v -4.466212 0.677487 0.353411
v -4.465654 0.677540 0.354320
v -4.466394 0.675260 0.354281
v -4.466805 0.675658 0.353381
v -4.466212 0.677487 0.353411
v -4.466394 0.675260 0.354281
v -4.466724 0.676649 0.352994
v -4.466212 0.677487 0.353411
v -4.466805 0.675658 0.353381
v -4.456743 0.674198 0.350274
v -4.456985 0.675216 0.349331
v -4.457178 0.672859 0.350251
v -4.457962 0.672206 0.349280
v -4.457178 0.672859 0.350251
v -4.456985 0.675216 0.349331
v -4.457722 0.675145 0.348132
v -4.457962 0.672206 0.349280
v -4.456985 0.675216 0.349331
v -4.458504 0.672732 0.348092
v -4.457962 0.672206 0.349280
v -4.457722 0.675145 0.348132
v -4.458398 0.674040 0.347581
v -4.458504 0.672732 0.348092
v -4.457722 0.675145 0.348132
vn 0.8294 -0.2606 -0.4942
vn -0.9847 -0.1458 0.0955
vn -0.7127 0.6928 0.1096
vn -0.9476 0.3086 -0.0820
vn -0.7960 -0.3284 0.5085
vn -0.7960 -0.3284 0.5084
vn -0.4569 0.7173 0.5260
vn -0.5237 -0.1016 0.8458
vn -0.5237 -0.1017 0.8458
vn -0.3728 0.3637 0.8537
vn -0.0775 -0.4067 0.9103
vn -0.5184 -0.7738 0.3641
vn -0.2282 -0.9536 0.1963
vn -0.8238 -0.4782 -0.3044
vn -0.5626 -0.6300 -0.5353
vn -0.2282 -0.9536 0.1964
vn -0.5184 -0.7738 0.3640
vn 0.0944 -0.9955 0.0006
vn -0.5626 -0.6300 -0.5354
vn -0.2207 -0.6907 -0.6887
vn 0.0943 -0.9955 0.0006
vn -0.7638 0.2576 -0.5918
vn -0.4969 0.1754 -0.8499
vn -0.8238 -0.4782 -0.3045
vn -0.2206 -0.6907 -0.6887
vn -0.4970 0.1754 -0.8499
vn -0.1588 0.0680 -0.9850
vn -0.3835 0.8795 -0.2816
vn -0.0807 0.8562 -0.5104
vn -0.3836 0.8795 -0.2816
vn -0.1587 0.0680 -0.9850
vn -0.0806 0.8562 -0.5104
vn 0.2333 0.7094 -0.6651
vn -0.0806 0.8562 -0.5103
vn 0.0307 0.9192 0.3925
vn 0.3727 0.8996 0.2275
vn 0.0306 0.9192 0.3925
vn 0.2334 0.7093 -0.6651
vn 0.6604 0.7503 0.0300
vn 0.1668 0.3469 0.9230
vn 0.5218 0.2730 0.8082
vn 0.6605 0.7502 0.0300
vn 0.8009 0.1600 0.5770
vn -0.0774 -0.4066 0.9103
vn 0.2544 -0.5517 0.7943
vn 0.1669 0.3468 0.9230
vn -0.0775 -0.4066 0.9103
vn 0.5490 -0.6169 0.5640
vn 0.2544 -0.5518 0.7943
vn -0.5183 -0.7738 0.3641
vn 0.2543 -0.5517 0.7943
vn 0.5490 -0.6169 0.5639
vn 0.0943 -0.9955 0.0007
vn 0.4926 -0.6106 0.6201
vn 0.0264 -0.9987 0.0426
vn 0.5489 -0.6169 0.5639
vn 0.6069 0.7914 0.0727
vn 0.7510 0.1862 0.6335
vn -0.2331 0.0919 -0.9681
vn 0.2333 0.7093 -0.6651
vn 0.1690 0.7494 -0.6401
vn -0.1588 0.0681 -0.9850
vn -0.2207 -0.6907 -0.6886
vn -0.2965 -0.6862 -0.6643
vn 0.0944 -0.9955 0.0007
vn 0.7509 0.1862 0.6336
vn 0.4926 -0.6105 0.6201
vn 0.7510 0.1862 0.6336
vn 0.1690 0.7495 -0.6401
vn 0.6070 0.7914 0.0727
vn 0.2334 0.7094 -0.6651
vn -0.2966 -0.6861 -0.6643
vn -0.2966 -0.6862 -0.6643
vn -0.3727 0.3637 0.8537
vn -0.7638 0.2577 -0.5918
vn -0.7128 0.6928 0.1096
vn -0.9476 0.3087 -0.0820
vn 0.1668 0.3468 0.9230
vn -0.2130 -0.9589 0.1873
vn -0.2966 -0.6862 -0.6642
vn -0.5476 -0.6352 -0.5448
vn -0.2131 -0.9589 0.1873
vn 0.5374 0.2683 0.7995
vn 0.4926 -0.6105 0.6202
vn 0.2698 -0.5568 0.7856
vn -0.0653 0.8518 -0.5197
vn 0.3882 0.8953 0.2185
vn -0.0654 0.8518 -0.5197
vn -0.5475 -0.6351 -0.5448
vn -0.4819 0.1706 -0.8595
vn -0.5476 -0.6351 -0.5448
vn -0.2331 0.0918 -0.9681
vn -0.2130 -0.9589 0.1874
vn 0.5374 0.2684 0.7995
vn -0.4818 0.1707 -0.8595
vn 0.1689 0.7495 -0.6401
vn -0.0654 0.8518 -0.5198
vn -0.4819 0.1707 -0.8595
vt 0.543243 0.635056
vt 0.535370 0.641335
vt 0.537796 0.636299
vt 0.537796 0.646370
vt 0.547607 0.638535
vt 0.543243 0.647614
vt 0.547607 0.644127
vt 0.593674 0.671494
vt 0.598511 0.669548
vt 0.596146 0.672157
vt 0.592773 0.669609
vt 0.596436 0.666756
vt 0.592804 0.667854
vt 0.594147 0.666748
vt 0.591187 0.666855
vt 0.590591 0.669838
vt 0.587372 0.669685
vt 0.591782 0.673050
vt 0.588348 0.674789
vt 0.582382 0.669067
vt 0.582687 0.676537
vt 0.595596 0.675606
vt 0.592606 0.680244
vt 0.586334 0.684982
vt 0.603775 0.674767
vt 0.603561 0.686485
vt 0.594009 0.696274
vt 0.603775 0.658051
vt 0.597107 0.663902
vt 0.596405 0.659698
vt 0.602859 0.665543
vt 0.600342 0.651657
vt 0.594193 0.655174
vt 0.593353 0.664742
vt 0.591705 0.661980
vt 0.588959 0.658463
vt 0.588654 0.665283
vt 0.584778 0.662933
vt 0.580322 0.660286
vt 0.576584 0.668175
vt 0.591812 0.651588
vt 0.585907 0.654999
vt 0.579453 0.688484
vt 0.584915 0.699394
vt 0.576157 0.678001
vt 0.597061 0.648293
vt 0.627350 0.682632
vt 0.649124 0.687675
vt 0.627441 0.688225
vt 0.649033 0.682457
vt 0.627441 0.671455
vt 0.649033 0.677231
vt 0.627350 0.677048
vt 0.649124 0.672005
vt 0.627914 0.660294
vt 0.649292 0.666786
vt 0.627625 0.665871
vt 0.649551 0.661568
vt 0.649292 0.692902
vt 0.627625 0.693810
vt 0.649551 0.698120
vt 0.627914 0.699394
s 0
usemtl decorations
f 240/1/1 239/2/1 238/3/1
f 237/1/1 236/4/1 235/2/1
f 234/5/1 233/4/1 232/1/1
f 231/5/1 230/6/1 229/4/1
f 228/6/1 227/5/1 226/7/1
s 1
f 225/8/2 224/9/3 223/10/4
f 222/11/5 221/9/3 220/8/2
f 219/11/6 218/12/7 217/9/3
f 216/13/8 215/12/7 214/11/6
f 213/12/7 212/13/9 211/14/10
f 210/15/11 209/11/6 208/16/12
f 207/15/11 206/13/8 205/11/6
f 204/17/13 203/18/14 202/19/15
f 201/17/16 200/16/17 199/18/14
f 198/20/18 197/19/19 196/21/20
f 195/20/21 194/17/16 193/19/15
f 192/19/15 191/22/22 190/23/23
f 189/19/15 188/18/24 187/22/22
f 186/21/25 185/23/26 184/24/27
f 183/21/25 3/19/15 182/23/26
f 181/23/23 180/25/28 179/26/29
f 178/23/23 177/22/22 176/25/30
f 175/24/31 174/26/32 173/27/33
f 172/24/31 4/23/23 171/26/32
f 170/28/34 169/29/35 168/30/36
f 167/28/34 166/31/28 165/29/37
f 164/32/38 163/30/36 162/33/39
f 161/32/38 13/28/34 160/30/36
f 159/30/36 158/34/40 157/35/41
f 156/30/36 155/29/35 154/34/40
f 153/33/42 152/35/41 151/36/43
f 150/33/42 14/30/36 149/35/41
f 148/35/41 147/15/44 146/37/45
f 145/35/41 144/34/46 143/15/47
f 142/36/43 141/37/45 140/38/48
f 139/36/43 16/35/41 138/37/45
f 137/37/49 136/16/50 135/17/16
f 134/37/51 133/15/11 132/16/12
f 131/38/52 130/17/16 129/20/53
f 128/38/52 36/37/45 25/17/16
f 127/39/54 126/20/53 125/40/55
f 124/39/54 123/38/56 122/20/53
f 121/41/57 120/36/43 119/42/58
f 118/41/57 117/33/42 116/36/43
f 115/43/59 114/27/60 113/44/61
f 112/43/59 111/24/62 110/27/60
f 109/40/55 108/21/63 107/45/64
f 106/40/55 40/20/65 105/21/63
f 104/42/66 103/38/48 102/39/67
f 101/42/68 41/36/43 42/38/48
f 100/46/69 99/33/39 98/41/70
f 97/46/69 37/32/71 38/33/39
f 96/45/72 95/24/27 94/43/59
f 93/45/73 33/21/20 34/24/27
f 92/29/35 91/14/10 90/34/40
f 89/29/35 88/12/7 87/14/74
f 86/22/75 85/9/3 84/25/30
f 83/22/75 82/10/4 81/9/76
f 80/16/17 79/8/2 78/18/14
f 29/16/17 30/11/5 77/8/2
f 76/31/30 75/12/7 28/29/37
f 31/31/28 26/9/76 27/12/7
f 74/18/24 73/10/77 24/22/22
f 21/18/24 22/8/2 23/10/4
f 72/34/78 71/13/8 20/15/47
f 17/34/78 18/14/10 19/13/8
f 70/47/79 69/48/80 68/49/81
f 67/47/82 66/50/55 65/48/80
f 64/51/83 63/52/84 62/53/85
f 61/51/83 60/54/68 59/52/67
f 58/55/86 57/56/57 56/57/87
f 55/55/88 54/58/61 53/56/57
f 52/49/89 51/59/59 50/60/90
f 2/49/91 32/48/64 49/59/92
f 48/53/85 47/50/55 12/47/93
f 9/53/85 10/52/84 11/50/55
f 46/57/87 45/54/68 8/51/94
f 5/57/87 6/56/57 7/54/68
f 44/60/95 43/61/96 15/62/97
f 1/60/98 35/59/92 39/61/61
