# Blender 5.0.0
# www.blender.org
mtllib Circle_002_Circle_004_Dupli_176_decorations_0.mtl
o Circle.002|Circle.004|Dupli|176_decorations_0
v -4.335882 1.053593 0.778749
v -4.334614 1.053341 0.779308
v -4.330936 1.055775 0.772815
v -4.332746 1.056135 0.772018
v -4.336539 1.051336 0.777795
v -4.334106 1.052707 0.773098
v -4.333072 1.051949 0.773399
v -4.335433 1.050525 0.778117
v -4.334254 1.050880 0.778801
v -4.331970 1.052281 0.774038
v -4.331629 1.053452 0.774533
v -4.333889 1.052133 0.779330
v -4.333968 1.054862 0.771058
v -4.333683 1.052914 0.770656
v -4.336739 1.052701 0.778076
v -4.332105 1.051758 0.771116
v -4.331451 1.052522 0.769977
v -4.330987 1.053385 0.769314
v -4.330094 1.053654 0.769832
v -4.330082 1.052934 0.770771
v -4.330500 1.055791 0.771359
v -4.330367 1.055518 0.770216
v -4.331327 1.055709 0.769793
v -4.331973 1.056084 0.770711
v -4.329903 1.054052 0.772847
v -4.331976 1.055033 0.769283
v -4.331825 1.053999 0.769069
v -4.332735 1.053463 0.769603
v -4.329659 1.054389 0.771386
v -4.329818 1.054603 0.770233
v -4.332967 1.055048 0.769929
v -4.332306 1.054581 0.774512
v -4.331714 1.055173 0.773966
v -4.333280 1.055485 0.773277
v -4.333492 1.054817 0.773990
v -4.330423 1.052265 0.772092
v -4.334337 1.054383 0.772446
v -4.334091 1.052697 0.772098
v -4.334292 1.053983 0.773361
v -4.330819 1.053682 0.773995
v -4.332725 1.051696 0.772496
v -4.331269 1.052135 0.773340
v -4.334292 1.053983 0.773361
v -4.335882 1.053593 0.778749
v -4.333072 1.051949 0.773399
v -4.336539 1.051336 0.777795
v -4.331629 1.053452 0.774533
v -4.334254 1.050880 0.778801
v -4.333492 1.054817 0.773990
v -4.335882 1.053593 0.778749
v -4.333492 1.054817 0.773990
v -4.334614 1.053341 0.779308
v -4.334106 1.052707 0.773098
v -4.334292 1.053983 0.773361
v -4.336739 1.052701 0.778076
v -4.336539 1.051336 0.777795
v -4.334106 1.052707 0.773098
v -4.336739 1.052701 0.778076
v -4.331970 1.052281 0.774038
v -4.333072 1.051949 0.773399
v -4.335433 1.050525 0.778117
v -4.334254 1.050880 0.778801
v -4.331970 1.052281 0.774038
v -4.335433 1.050525 0.778117
v -4.332306 1.054581 0.774512
v -4.331629 1.053452 0.774533
v -4.333889 1.052133 0.779330
v -4.334614 1.053341 0.779308
v -4.332306 1.054581 0.774512
v -4.333889 1.052133 0.779330
v -4.330094 1.053654 0.769832
v -4.331451 1.052522 0.769977
v -4.331327 1.055709 0.769793
v -4.330500 1.055791 0.771359
v -4.331825 1.053999 0.769069
v -4.332967 1.055048 0.769929
v -4.330367 1.055518 0.770216
v -4.330500 1.055791 0.771359
v -4.330367 1.055518 0.770216
v -4.329659 1.054389 0.771386
v -4.331976 1.055033 0.769283
v -4.331327 1.055709 0.769793
v -4.331973 1.056084 0.770711
v -4.332967 1.055048 0.769929
v -4.331976 1.055033 0.769283
v -4.331973 1.056084 0.770711
v -4.330987 1.053385 0.769314
v -4.331825 1.053999 0.769069
v -4.332735 1.053463 0.769603
v -4.331451 1.052522 0.769977
v -4.330987 1.053385 0.769314
v -4.332735 1.053463 0.769603
v -4.332306 1.054581 0.774512
v -4.333492 1.054817 0.773990
v -4.333280 1.055485 0.773277
v -4.332306 1.054581 0.774512
v -4.334292 1.053983 0.773361
v -4.334106 1.052707 0.773098
v -4.334091 1.052697 0.772098
v -4.334292 1.053983 0.773361
v -4.333072 1.051949 0.773399
v -4.331970 1.052281 0.774038
v -4.331269 1.052135 0.773340
v -4.333072 1.051949 0.773399
v -4.331714 1.055173 0.773966
v -4.331629 1.053452 0.774533
v -4.332306 1.054581 0.774512
v -4.331714 1.055173 0.773966
v -4.331629 1.053452 0.774533
v -4.334337 1.054383 0.772446
v -4.333280 1.055485 0.773277
v -4.333492 1.054817 0.773990
v -4.334292 1.053983 0.773361
v -4.334337 1.054383 0.772446
v -4.333492 1.054817 0.773990
v -4.332725 1.051696 0.772496
v -4.334091 1.052697 0.772098
v -4.334106 1.052707 0.773098
v -4.333072 1.051949 0.773399
v -4.332725 1.051696 0.772496
v -4.334106 1.052707 0.773098
v -4.330819 1.053682 0.773995
v -4.331269 1.052135 0.773340
v -4.331970 1.052281 0.774038
v -4.331629 1.053452 0.774533
v -4.330819 1.053682 0.773995
v -4.331970 1.052281 0.774038
v -4.331269 1.052135 0.773340
v -4.330819 1.053682 0.773995
v -4.329903 1.054052 0.772847
v -4.331269 1.052135 0.773340
v -4.329659 1.054389 0.771386
v -4.330082 1.052934 0.770771
v -4.330423 1.052265 0.772092
v -4.329903 1.054052 0.772847
v -4.329659 1.054389 0.771386
v -4.330423 1.052265 0.772092
v -4.330423 1.052265 0.772092
v -4.332725 1.051696 0.772496
v -4.331269 1.052135 0.773340
v -4.330423 1.052265 0.772092
v -4.332725 1.051696 0.772496
v -4.330082 1.052934 0.770771
v -4.331451 1.052522 0.769977
v -4.332105 1.051758 0.771116
v -4.330423 1.052265 0.772092
v -4.330082 1.052934 0.770771
v -4.332105 1.051758 0.771116
v -4.332105 1.051758 0.771116
v -4.334091 1.052697 0.772098
v -4.332725 1.051696 0.772496
v -4.332105 1.051758 0.771116
v -4.334091 1.052697 0.772098
v -4.331451 1.052522 0.769977
v -4.332735 1.053463 0.769603
v -4.333683 1.052914 0.770656
v -4.332105 1.051758 0.771116
v -4.331451 1.052522 0.769977
v -4.333683 1.052914 0.770656
v -4.333683 1.052914 0.770656
v -4.334337 1.054383 0.772446
v -4.334091 1.052697 0.772098
v -4.333683 1.052914 0.770656
v -4.334337 1.054383 0.772446
v -4.332735 1.053463 0.769603
v -4.332967 1.055048 0.769929
v -4.333968 1.054862 0.771058
v -4.333683 1.052914 0.770656
v -4.332735 1.053463 0.769603
v -4.333968 1.054862 0.771058
v -4.333968 1.054862 0.771058
v -4.333280 1.055485 0.773277
v -4.334337 1.054383 0.772446
v -4.333968 1.054862 0.771058
v -4.333280 1.055485 0.773277
v -4.332967 1.055048 0.769929
v -4.331973 1.056084 0.770711
v -4.332746 1.056135 0.772018
v -4.333968 1.054862 0.771058
v -4.332967 1.055048 0.769929
v -4.332746 1.056135 0.772018
v -4.332746 1.056135 0.772018
v -4.331714 1.055173 0.773966
v -4.333280 1.055485 0.773277
v -4.332746 1.056135 0.772018
v -4.331714 1.055173 0.773966
v -4.331973 1.056084 0.770711
v -4.330500 1.055791 0.771359
v -4.330936 1.055775 0.772815
v -4.332746 1.056135 0.772018
v -4.331973 1.056084 0.770711
v -4.330936 1.055775 0.772815
v -4.330936 1.055775 0.772815
v -4.329903 1.054052 0.772847
v -4.330819 1.053682 0.773995
v -4.331714 1.055173 0.773966
v -4.330936 1.055775 0.772815
v -4.330819 1.053682 0.773995
v -4.330500 1.055791 0.771359
v -4.329659 1.054389 0.771386
v -4.329903 1.054052 0.772847
v -4.330936 1.055775 0.772815
v -4.330500 1.055791 0.771359
v -4.329903 1.054052 0.772847
v -4.329818 1.054603 0.770233
v -4.330094 1.053654 0.769832
v -4.330082 1.052934 0.770771
v -4.329659 1.054389 0.771386
v -4.329818 1.054603 0.770233
v -4.330082 1.052934 0.770771
v -4.330987 1.053385 0.769314
v -4.330094 1.053654 0.769832
v -4.331825 1.053999 0.769069
v -4.329818 1.054603 0.770233
v -4.331825 1.053999 0.769069
v -4.330094 1.053654 0.769832
v -4.331976 1.055033 0.769283
v -4.331825 1.053999 0.769069
v -4.329818 1.054603 0.770233
v -4.330367 1.055518 0.770216
v -4.331976 1.055033 0.769283
v -4.329818 1.054603 0.770233
v -4.331327 1.055709 0.769793
v -4.331976 1.055033 0.769283
v -4.330367 1.055518 0.770216
v -4.335433 1.050525 0.778117
v -4.336539 1.051336 0.777795
v -4.334254 1.050880 0.778801
v -4.333889 1.052133 0.779330
v -4.334254 1.050880 0.778801
v -4.336539 1.051336 0.777795
v -4.336739 1.052701 0.778076
v -4.333889 1.052133 0.779330
v -4.336539 1.051336 0.777795
v -4.334614 1.053341 0.779308
v -4.333889 1.052133 0.779330
v -4.336739 1.052701 0.778076
v -4.335882 1.053593 0.778749
v -4.334614 1.053341 0.779308
v -4.336739 1.052701 0.778076
vn -0.4310 -0.2421 0.8693
vn 0.6066 0.6405 -0.4709
vn -0.1316 0.4182 -0.8988
vn 0.1661 0.7283 -0.6648
vn 0.8584 0.2209 -0.4629
vn -0.1315 0.4182 -0.8988
vn 0.6067 0.6405 -0.4709
vn 0.8584 0.2210 -0.4629
vn -0.0621 -0.0562 -0.9965
vn 0.7318 -0.2144 -0.6470
vn 0.7318 -0.2143 -0.6469
vn 0.3221 -0.3377 -0.8844
vn 0.7844 -0.5719 -0.2399
vn 0.9894 0.1328 0.0580
vn 0.7318 -0.2143 -0.6470
vn 0.9068 0.0464 0.4190
vn 0.5819 0.8120 0.0452
vn 0.4607 0.7898 0.4049
vn 0.9894 0.1329 0.0580
vn 0.5819 0.8120 0.0451
vn 0.6935 -0.0466 0.7190
vn 0.2732 0.6538 0.7056
vn -0.1314 0.9542 -0.2689
vn -0.3201 0.9454 0.0612
vn 0.5818 0.8120 0.0452
vn 0.2732 0.6538 0.7057
vn -0.3200 0.9454 0.0612
vn -0.4622 0.8003 0.3818
vn -0.6133 0.4522 -0.6476
vn -0.8475 0.3960 -0.3534
vn -0.6132 0.4522 -0.6476
vn -0.4623 0.8003 0.3819
vn -0.9592 0.2827 -0.0087
vn -0.8476 0.3959 -0.3534
vn -0.5009 -0.3158 -0.8058
vn -0.7245 -0.4447 -0.5266
vn -0.5009 -0.3158 -0.8059
vn -0.8433 -0.5093 -0.1719
vn 0.1211 -0.7716 -0.6245
vn -0.0436 -0.9437 -0.3280
vn -0.5009 -0.3159 -0.8058
vn -0.8433 -0.5093 -0.1718
vn -0.2018 -0.9793 0.0152
vn -0.0436 -0.9437 -0.3279
vn 0.7844 -0.5720 -0.2400
vn 0.6824 -0.7251 0.0928
vn 0.1212 -0.7717 -0.6244
vn -0.2018 -0.9793 0.0153
vn 0.4821 -0.7734 0.4116
vn 0.6824 -0.7251 0.0929
vn 0.7844 -0.5720 -0.2399
vn 0.4821 -0.7734 0.4117
vn 0.6935 -0.0466 0.7189
vn 0.5309 -0.7725 0.3485
vn 0.7476 -0.0273 0.6635
vn -0.8281 -0.5017 -0.2499
vn -0.2019 -0.9793 0.0152
vn -0.1704 -0.9837 -0.0580
vn -0.8282 -0.5017 -0.2499
vn -0.4375 0.8412 0.3178
vn -0.9470 0.3104 -0.0826
vn -0.4375 0.8412 0.3179
vn -0.4623 0.8003 0.3818
vn 0.7477 -0.0273 0.6635
vn 0.2733 0.6537 0.7057
vn 0.3167 0.6908 0.6500
vn -0.1704 -0.9837 -0.0581
vn -0.1705 -0.9837 -0.0581
vn -0.8433 -0.5092 -0.1718
vn 0.3167 0.6909 0.6499
vn 0.1211 -0.7716 -0.6244
vn -0.0621 -0.0561 -0.9965
vn 0.9894 0.1329 0.0581
vn 0.1212 -0.7716 -0.6244
vn 0.7844 -0.5719 -0.2400
vn 0.8993 0.0419 0.4353
vn 0.4530 0.7858 0.4212
vn 0.8993 0.0420 0.4353
vn -0.0516 -0.9487 -0.3121
vn 0.6747 -0.7300 0.1089
vn -0.0516 -0.9486 -0.3121
vn -0.8560 0.3916 -0.3375
vn -0.7329 -0.4494 -0.5108
vn -0.8560 0.3917 -0.3376
vn 0.4529 0.7858 0.4212
vn -0.3282 0.9415 0.0773
vn 0.6748 -0.7299 0.1090
vn 0.7477 -0.0272 0.6635
vn 0.6748 -0.7299 0.1089
vn -0.3282 0.9414 0.0773
vn -0.8560 0.3917 -0.3375
vt 0.530319 0.635056
vt 0.522446 0.641335
vt 0.524872 0.636299
vt 0.524872 0.646370
vt 0.534683 0.638535
vt 0.530319 0.647614
vt 0.534683 0.644127
vt 0.508789 0.671494
vt 0.513626 0.669548
vt 0.511276 0.672157
vt 0.507889 0.669609
vt 0.511566 0.666756
vt 0.507935 0.667854
vt 0.509277 0.666748
vt 0.506302 0.666855
vt 0.505722 0.669838
vt 0.502487 0.669685
vt 0.506897 0.673050
vt 0.503479 0.674789
vt 0.497520 0.669067
vt 0.497810 0.676537
vt 0.510727 0.675606
vt 0.507721 0.680244
vt 0.501465 0.684982
vt 0.518890 0.674767
vt 0.518692 0.686485
vt 0.509125 0.696274
vt 0.518890 0.658051
vt 0.512238 0.663902
vt 0.511536 0.659698
vt 0.517990 0.665543
vt 0.515472 0.651657
vt 0.509323 0.655174
vt 0.508469 0.664742
vt 0.506836 0.661980
vt 0.504074 0.658463
vt 0.503784 0.665283
vt 0.499901 0.662933
vt 0.495453 0.660286
vt 0.491707 0.668175
vt 0.506927 0.651588
vt 0.501038 0.654999
vt 0.494583 0.688484
vt 0.500031 0.699394
vt 0.491287 0.678001
vt 0.512177 0.648293
vt 0.627350 0.642853
vt 0.649124 0.647896
vt 0.627441 0.648445
vt 0.649033 0.642670
vt 0.627441 0.631676
vt 0.649033 0.637444
vt 0.627350 0.637268
vt 0.649124 0.632225
vt 0.627914 0.620506
vt 0.649292 0.626999
vt 0.627625 0.626091
vt 0.649551 0.621780
vt 0.649292 0.653114
vt 0.627625 0.654030
vt 0.649551 0.658333
vt 0.627914 0.659607
s 0
usemtl decorations
f 240/1/1 239/2/1 238/3/1
f 237/1/1 236/4/1 235/2/1
f 234/5/1 233/4/1 232/1/1
f 231/5/1 230/6/1 229/4/1
f 228/6/1 227/5/1 226/7/1
s 1
f 225/8/2 224/9/3 223/10/4
f 222/11/5 221/9/6 220/8/7
f 219/11/8 218/12/9 217/9/3
f 216/13/10 215/12/9 214/11/8
f 213/12/9 212/13/11 211/14/12
f 210/15/13 209/11/8 208/16/14
f 207/15/13 206/13/15 205/11/8
f 204/17/16 203/18/17 202/19/18
f 201/17/16 200/16/19 199/18/20
f 198/20/21 197/19/18 196/21/22
f 195/20/21 194/17/16 193/19/18
f 192/19/18 191/22/23 190/23/24
f 189/19/18 188/18/25 187/22/23
f 186/21/26 185/23/27 184/24/28
f 183/21/26 3/19/18 182/23/27
f 181/23/24 180/25/29 179/26/30
f 178/23/24 177/22/23 176/25/31
f 175/24/32 174/26/30 173/27/33
f 172/24/32 4/23/24 171/26/30
f 170/28/34 169/29/35 168/30/36
f 167/28/34 166/31/29 165/29/37
f 164/32/33 163/30/36 162/33/38
f 161/32/33 13/28/34 160/30/36
f 159/30/36 158/34/39 157/35/40
f 156/30/36 155/29/41 154/34/39
f 153/33/42 152/35/40 151/36/43
f 150/33/42 14/30/36 149/35/40
f 148/35/44 147/15/45 146/37/46
f 145/35/40 144/34/47 143/15/45
f 142/36/48 141/37/46 140/38/49
f 139/36/48 16/35/40 138/37/46
f 137/37/50 136/16/14 135/17/16
f 134/37/46 133/15/51 132/16/14
f 131/38/52 130/17/16 129/20/53
f 128/38/52 36/37/46 25/17/16
f 127/39/54 126/20/53 125/40/55
f 124/39/54 123/38/52 122/20/53
f 121/41/56 120/36/57 119/42/58
f 118/41/59 117/33/42 116/36/57
f 115/43/60 114/27/33 113/44/61
f 112/43/62 111/24/63 110/27/33
f 109/40/64 108/21/65 107/45/66
f 106/40/64 40/20/21 105/21/65
f 104/42/67 103/38/49 102/39/54
f 101/42/68 41/36/43 42/38/49
f 100/46/61 99/33/69 98/41/59
f 97/46/61 37/32/33 38/33/69
f 96/45/70 95/24/63 94/43/62
f 93/45/70 33/21/26 34/24/63
f 92/29/41 91/14/12 90/34/71
f 89/29/41 88/12/72 87/14/12
f 86/22/23 85/9/6 84/25/31
f 83/22/23 82/10/4 81/9/6
f 80/16/19 79/8/2 78/18/20
f 29/16/73 30/11/5 77/8/7
f 76/31/31 75/12/9 28/29/35
f 31/31/29 26/9/6 27/12/72
f 74/18/17 73/10/4 24/22/23
f 21/18/25 22/8/7 23/10/4
f 72/34/74 71/13/15 20/15/75
f 17/34/74 18/14/12 19/13/15
f 70/47/76 69/48/70 68/49/77
f 67/47/78 66/50/55 65/48/70
f 64/51/79 63/52/54 62/53/80
f 61/51/81 60/54/58 59/52/54
f 58/55/82 57/56/56 56/57/83
f 55/55/84 54/58/61 53/56/59
f 52/49/85 51/59/60 50/60/86
f 2/49/85 32/48/70 49/59/62
f 48/53/87 47/50/88 12/47/76
f 9/53/89 10/52/54 11/50/55
f 46/57/83 45/54/67 8/51/81
f 5/57/83 6/56/56 7/54/58
f 44/60/90 43/61/61 15/62/91
f 1/60/90 35/59/62 39/61/61
