# Blender 5.0.0
# www.blender.org
mtllib Circle_005_Circle_004_Dupli_248_decorations_0.mtl
o Circle.005|Circle.004|Dupli|248_decorations_0
v -4.154431 1.007914 0.542657
v -4.155639 1.008578 0.542370
v -4.154995 1.007063 0.534695
v -4.153272 1.006115 0.535106
v -4.152734 1.009801 0.542650
v -4.151994 1.009004 0.537295
v -4.152731 1.010061 0.537025
v -4.153523 1.010931 0.542361
v -4.154911 1.010997 0.542132
v -4.154029 1.010123 0.536811
v -4.154909 1.009144 0.536814
v -4.155853 1.009950 0.542136
v -4.151427 1.006892 0.535284
v -4.150851 1.008808 0.535096
v -4.153138 1.008458 0.542782
v -4.151977 1.010420 0.534683
v -4.151963 1.009837 0.533279
v -4.152132 1.009127 0.532348
v -4.153183 1.009177 0.532175
v -4.153574 1.009914 0.533014
v -4.154419 1.007105 0.533290
v -4.153735 1.007344 0.532355
v -4.152819 1.006841 0.532573
v -4.153017 1.006334 0.533624
v -4.155301 1.009020 0.534362
v -4.151840 1.007253 0.532667
v -4.151534 1.008271 0.532568
v -4.151047 1.008525 0.533615
v -4.154668 1.008698 0.533018
v -4.153897 1.008384 0.532178
v -4.151515 1.006966 0.533768
v -4.154709 1.007861 0.537033
v -4.154971 1.007454 0.536158
v -4.153479 1.006634 0.536513
v -4.153580 1.007240 0.537302
v -4.153957 1.010514 0.534356
v -4.151882 1.007306 0.536667
v -4.151383 1.008965 0.536504
v -4.152371 1.007749 0.537418
v -4.155235 1.009149 0.535869
v -4.152358 1.010360 0.536147
v -4.154072 1.010442 0.535864
v -4.152371 1.007749 0.537418
v -4.154431 1.007914 0.542657
v -4.152731 1.010061 0.537025
v -4.152734 1.009801 0.542650
v -4.154909 1.009144 0.536814
v -4.154911 1.010997 0.542132
v -4.153580 1.007240 0.537302
v -4.154431 1.007914 0.542657
v -4.153580 1.007240 0.537302
v -4.155639 1.008578 0.542370
v -4.151994 1.009004 0.537295
v -4.152371 1.007749 0.537418
v -4.153138 1.008458 0.542782
v -4.152734 1.009801 0.542650
v -4.151994 1.009004 0.537295
v -4.153138 1.008458 0.542782
v -4.154029 1.010123 0.536811
v -4.152731 1.010061 0.537025
v -4.153523 1.010931 0.542361
v -4.154911 1.010997 0.542132
v -4.154029 1.010123 0.536811
v -4.153523 1.010931 0.542361
v -4.154709 1.007861 0.537033
v -4.154909 1.009144 0.536814
v -4.155853 1.009950 0.542136
v -4.155639 1.008578 0.542370
v -4.154709 1.007861 0.537033
v -4.155853 1.009950 0.542136
v -4.153183 1.009177 0.532175
v -4.151963 1.009837 0.533279
v -4.152819 1.006841 0.532573
v -4.154419 1.007105 0.533290
v -4.151534 1.008271 0.532568
v -4.151515 1.006966 0.533768
v -4.153735 1.007344 0.532355
v -4.154419 1.007105 0.533290
v -4.153735 1.007344 0.532355
v -4.154668 1.008698 0.533018
v -4.151840 1.007253 0.532667
v -4.152819 1.006841 0.532573
v -4.153017 1.006334 0.533624
v -4.151515 1.006966 0.533768
v -4.151840 1.007253 0.532667
v -4.153017 1.006334 0.533624
v -4.152132 1.009127 0.532348
v -4.151534 1.008271 0.532568
v -4.151047 1.008525 0.533615
v -4.151963 1.009837 0.533279
v -4.152132 1.009127 0.532348
v -4.151047 1.008525 0.533615
v -4.154709 1.007861 0.537033
v -4.153580 1.007240 0.537302
v -4.153479 1.006634 0.536513
v -4.154709 1.007861 0.537033
v -4.152371 1.007749 0.537418
v -4.151994 1.009004 0.537295
v -4.151383 1.008965 0.536504
v -4.152371 1.007749 0.537418
v -4.152731 1.010061 0.537025
v -4.154029 1.010123 0.536811
v -4.154072 1.010442 0.535864
v -4.152731 1.010061 0.537025
v -4.154971 1.007454 0.536158
v -4.154909 1.009144 0.536814
v -4.154709 1.007861 0.537033
v -4.154971 1.007454 0.536158
v -4.154909 1.009144 0.536814
v -4.151882 1.007306 0.536667
v -4.153479 1.006634 0.536513
v -4.153580 1.007240 0.537302
v -4.152371 1.007749 0.537418
v -4.151882 1.007306 0.536667
v -4.153580 1.007240 0.537302
v -4.152358 1.010360 0.536147
v -4.151383 1.008965 0.536504
v -4.151994 1.009004 0.537295
v -4.152731 1.010061 0.537025
v -4.152358 1.010360 0.536147
v -4.151994 1.009004 0.537295
v -4.155235 1.009149 0.535869
v -4.154072 1.010442 0.535864
v -4.154029 1.010123 0.536811
v -4.154909 1.009144 0.536814
v -4.155235 1.009149 0.535869
v -4.154029 1.010123 0.536811
v -4.154072 1.010442 0.535864
v -4.155235 1.009149 0.535869
v -4.155301 1.009020 0.534362
v -4.154072 1.010442 0.535864
v -4.154668 1.008698 0.533018
v -4.153574 1.009914 0.533014
v -4.153957 1.010514 0.534356
v -4.155301 1.009020 0.534362
v -4.154668 1.008698 0.533018
v -4.153957 1.010514 0.534356
v -4.153957 1.010514 0.534356
v -4.152358 1.010360 0.536147
v -4.154072 1.010442 0.535864
v -4.153957 1.010514 0.534356
v -4.152358 1.010360 0.536147
v -4.153574 1.009914 0.533014
v -4.151963 1.009837 0.533279
v -4.151977 1.010420 0.534683
v -4.153957 1.010514 0.534356
v -4.153574 1.009914 0.533014
v -4.151977 1.010420 0.534683
v -4.151977 1.010420 0.534683
v -4.151383 1.008965 0.536504
v -4.152358 1.010360 0.536147
v -4.151977 1.010420 0.534683
v -4.151383 1.008965 0.536504
v -4.151963 1.009837 0.533279
v -4.151047 1.008525 0.533615
v -4.150851 1.008808 0.535096
v -4.151977 1.010420 0.534683
v -4.151963 1.009837 0.533279
v -4.150851 1.008808 0.535096
v -4.150851 1.008808 0.535096
v -4.151882 1.007306 0.536667
v -4.151383 1.008965 0.536504
v -4.150851 1.008808 0.535096
v -4.151882 1.007306 0.536667
v -4.151047 1.008525 0.533615
v -4.151515 1.006966 0.533768
v -4.151427 1.006892 0.535284
v -4.150851 1.008808 0.535096
v -4.151047 1.008525 0.533615
v -4.151427 1.006892 0.535284
v -4.151427 1.006892 0.535284
v -4.153479 1.006634 0.536513
v -4.151882 1.007306 0.536667
v -4.151427 1.006892 0.535284
v -4.153479 1.006634 0.536513
v -4.151515 1.006966 0.533768
v -4.153017 1.006334 0.533624
v -4.153272 1.006115 0.535106
v -4.151427 1.006892 0.535284
v -4.151515 1.006966 0.533768
v -4.153272 1.006115 0.535106
v -4.153272 1.006115 0.535106
v -4.154971 1.007454 0.536158
v -4.153479 1.006634 0.536513
v -4.153272 1.006115 0.535106
v -4.154971 1.007454 0.536158
v -4.153017 1.006334 0.533624
v -4.154419 1.007105 0.533290
v -4.154995 1.007063 0.534695
v -4.153272 1.006115 0.535106
v -4.153017 1.006334 0.533624
v -4.154995 1.007063 0.534695
v -4.154995 1.007063 0.534695
v -4.155301 1.009020 0.534362
v -4.155235 1.009149 0.535869
v -4.154971 1.007454 0.536158
v -4.154995 1.007063 0.534695
v -4.155235 1.009149 0.535869
v -4.154419 1.007105 0.533290
v -4.154668 1.008698 0.533018
v -4.155301 1.009020 0.534362
v -4.154995 1.007063 0.534695
v -4.154419 1.007105 0.533290
v -4.155301 1.009020 0.534362
v -4.153897 1.008384 0.532178
v -4.153183 1.009177 0.532175
v -4.153574 1.009914 0.533014
v -4.154668 1.008698 0.533018
v -4.153897 1.008384 0.532178
v -4.153574 1.009914 0.533014
v -4.152132 1.009127 0.532348
v -4.153183 1.009177 0.532175
v -4.151534 1.008271 0.532568
v -4.153897 1.008384 0.532178
v -4.151534 1.008271 0.532568
v -4.153183 1.009177 0.532175
v -4.151840 1.007253 0.532667
v -4.151534 1.008271 0.532568
v -4.153897 1.008384 0.532178
v -4.153735 1.007344 0.532355
v -4.151840 1.007253 0.532667
v -4.153897 1.008384 0.532178
v -4.152819 1.006841 0.532573
v -4.151840 1.007253 0.532667
v -4.153735 1.007344 0.532355
v -4.153523 1.010931 0.542361
v -4.152734 1.009801 0.542650
v -4.154911 1.010997 0.542132
v -4.155853 1.009950 0.542136
v -4.154911 1.010997 0.542132
v -4.152734 1.009801 0.542650
v -4.153138 1.008458 0.542782
v -4.155853 1.009950 0.542136
v -4.152734 1.009801 0.542650
v -4.155639 1.008578 0.542370
v -4.155853 1.009950 0.542136
v -4.153138 1.008458 0.542782
v -4.154431 1.007914 0.542657
v -4.155639 1.008578 0.542370
v -4.153138 1.008458 0.542782
vn -0.1544 0.1425 0.9777
vn -0.3313 -0.4445 -0.8322
vn 0.5377 -0.4860 -0.6890
vn 0.0884 -0.6752 -0.7323
vn -0.4056 0.0323 -0.9135
vn -0.3314 -0.4445 -0.8322
vn -0.4057 0.0322 -0.9135
vn 0.6780 -0.0195 -0.7348
vn -0.0785 0.3961 -0.9148
vn 0.4038 0.3731 -0.8353
vn -0.2705 0.7737 -0.5729
vn -0.8001 0.1846 -0.5707
vn -0.9390 0.2604 -0.2248
vn -0.6799 -0.5873 -0.4392
vn -0.8073 -0.5845 -0.0810
vn -0.9389 0.2604 -0.2249
vn -0.6798 -0.5872 -0.4393
vn -0.9421 0.2984 0.1528
vn -0.8073 -0.5846 -0.0810
vn -0.8181 -0.4976 0.2884
vn -0.9390 0.2604 -0.2249
vn -0.0002 -0.9607 -0.2775
vn -0.0634 -0.9934 0.0961
vn -0.6798 -0.5873 -0.4392
vn -0.0634 -0.9934 0.0960
vn -0.1173 -0.8827 0.4551
vn 0.7271 -0.6545 -0.2072
vn 0.7327 -0.6582 0.1730
vn 0.7270 -0.6545 -0.2073
vn -0.1172 -0.8826 0.4552
vn 0.6327 -0.5669 0.5276
vn -0.0633 -0.9934 0.0961
vn 0.7328 -0.6581 0.1730
vn 0.9543 0.1007 -0.2814
vn 0.9814 0.1685 0.0917
vn 0.9543 0.1007 -0.2815
vn 0.6327 -0.5668 0.5276
vn 0.9814 0.1685 0.0918
vn 0.8670 0.2119 0.4511
vn 0.5104 0.7363 -0.4442
vn 0.4955 0.8643 -0.0864
vn 0.9543 0.1008 -0.2814
vn 0.8669 0.2119 0.4511
vn 0.4092 0.8674 0.2832
vn 0.4954 0.8643 -0.0864
vn -0.2704 0.7737 -0.5729
vn -0.3592 0.9052 -0.2273
vn 0.5103 0.7364 -0.4442
vn -0.2704 0.7737 -0.5730
vn 0.4091 0.8674 0.2833
vn -0.3959 0.9059 0.1505
vn -0.9390 0.2603 -0.2249
vn -0.3592 0.9052 -0.2274
vn -0.8001 0.1846 -0.5708
vn -0.3959 0.9058 0.1506
vn -0.3930 0.9168 0.0715
vn -0.9530 0.2939 0.0738
vn -0.3929 0.9168 0.0715
vn 0.9021 0.2052 0.3796
vn 0.4092 0.8674 0.2833
vn 0.4326 0.8773 0.2076
vn 0.9021 0.2052 0.3797
vn -0.1071 -0.9172 0.3839
vn 0.6618 -0.5934 0.4581
vn -0.1071 -0.9171 0.3839
vn -0.8181 -0.4975 0.2884
vn -0.8258 -0.5222 0.2129
vn 0.4327 0.8773 0.2076
vn 0.6619 -0.5934 0.4581
vn 0.9021 0.2053 0.3797
vn -0.8258 -0.5223 0.2128
vn -0.1173 -0.8827 0.4552
vn 0.5104 0.7364 -0.4442
vn -0.0001 -0.9607 -0.2775
vn -0.8002 0.1846 -0.5707
vn -0.3313 -0.4445 -0.8323
vn 0.7271 -0.6545 -0.2073
vn 0.0885 -0.6752 -0.7323
vn -0.9423 0.2631 -0.2069
vn -0.8106 -0.5822 -0.0629
vn -0.9423 0.2631 -0.2070
vn -0.8258 -0.5222 0.2128
vn 0.4928 0.8674 -0.0684
vn -0.3622 0.9083 -0.2094
vn 0.7303 -0.6558 0.1911
vn 0.9791 0.1712 0.1099
vn 0.7303 -0.6559 0.1911
vn -0.8106 -0.5823 -0.0629
vn -0.1071 -0.9172 0.3838
vn -0.0663 -0.9912 0.1142
vn -0.8106 -0.5823 -0.0630
vn -0.1072 -0.9171 0.3839
vn -0.3622 0.9083 -0.2093
vn -0.9423 0.2632 -0.2069
vn 0.9791 0.1713 0.1099
vn 0.4929 0.8674 -0.0684
vn 0.9791 0.1712 0.1098
vn -0.0662 -0.9912 0.1142
vt 0.530319 0.635056
vt 0.522446 0.641335
vt 0.524872 0.636299
vt 0.524872 0.646370
vt 0.534683 0.638535
vt 0.530319 0.647614
vt 0.534683 0.644127
vt 0.508789 0.671494
vt 0.513626 0.669548
vt 0.511276 0.672157
vt 0.507889 0.669609
vt 0.511566 0.666756
vt 0.507935 0.667854
vt 0.509277 0.666748
vt 0.506302 0.666855
vt 0.505722 0.669838
vt 0.502487 0.669685
vt 0.506897 0.673050
vt 0.503479 0.674789
vt 0.497520 0.669067
vt 0.497810 0.676537
vt 0.510727 0.675606
vt 0.507721 0.680244
vt 0.501465 0.684982
vt 0.518890 0.674767
vt 0.518692 0.686485
vt 0.509125 0.696274
vt 0.518890 0.658051
vt 0.512238 0.663902
vt 0.511536 0.659698
vt 0.517990 0.665543
vt 0.515472 0.651657
vt 0.509323 0.655174
vt 0.508469 0.664742
vt 0.506836 0.661980
vt 0.504074 0.658463
vt 0.503784 0.665283
vt 0.499901 0.662933
vt 0.495453 0.660286
vt 0.491707 0.668175
vt 0.506927 0.651588
vt 0.501038 0.654999
vt 0.494583 0.688484
vt 0.500031 0.699394
vt 0.491287 0.678001
vt 0.512177 0.648293
vt 0.627350 0.642853
vt 0.649124 0.647896
vt 0.627441 0.648445
vt 0.649033 0.642670
vt 0.627441 0.631676
vt 0.649033 0.637444
vt 0.627350 0.637268
vt 0.649124 0.632225
vt 0.627914 0.620506
vt 0.649292 0.626999
vt 0.627625 0.626091
vt 0.649551 0.621780
vt 0.649292 0.653114
vt 0.627625 0.654030
vt 0.649551 0.658333
vt 0.627914 0.659607
s 0
usemtl decorations
f 240/1/1 239/2/1 238/3/1
f 237/1/1 236/4/1 235/2/1
f 234/5/1 233/4/1 232/1/1
f 231/5/1 230/6/1 229/4/1
f 228/6/1 227/5/1 226/7/1
s 1
f 225/8/2 224/9/3 223/10/4
f 222/11/5 221/9/3 220/8/6
f 219/11/7 218/12/8 217/9/3
f 216/13/9 215/12/8 214/11/5
f 213/12/8 212/13/9 211/14/10
f 210/15/11 209/11/5 208/16/12
f 207/15/11 206/13/9 205/11/5
f 204/17/13 203/18/14 202/19/15
f 201/17/16 200/16/12 199/18/17
f 198/20/18 197/19/19 196/21/20
f 195/20/18 194/17/21 193/19/19
f 192/19/15 191/22/22 190/23/23
f 189/19/15 188/18/24 187/22/22
f 186/21/20 185/23/25 184/24/26
f 183/21/20 3/19/19 182/23/25
f 181/23/23 180/25/27 179/26/28
f 178/23/23 177/22/22 176/25/29
f 175/24/30 174/26/28 173/27/31
f 172/24/30 4/23/32 171/26/28
f 170/28/33 169/29/34 168/30/35
f 167/28/33 166/31/27 165/29/36
f 164/32/37 163/30/38 162/33/39
f 161/32/31 13/28/28 160/30/35
f 159/30/35 158/34/40 157/35/41
f 156/30/35 155/29/42 154/34/40
f 153/33/43 152/35/41 151/36/44
f 150/33/43 14/30/35 149/35/41
f 148/35/45 147/15/46 146/37/47
f 145/35/45 144/34/48 143/15/49
f 142/36/50 141/37/47 140/38/51
f 139/36/50 16/35/45 138/37/47
f 137/37/47 136/16/12 135/17/52
f 134/37/53 133/15/11 132/16/54
f 131/38/55 130/17/52 129/20/18
f 128/38/55 36/37/47 25/17/52
f 127/39/56 126/20/18 125/40/57
f 124/39/58 123/38/51 122/20/18
f 121/41/59 120/36/60 119/42/61
f 118/41/62 117/33/43 116/36/60
f 115/43/63 114/27/31 113/44/64
f 112/43/65 111/24/30 110/27/31
f 109/40/57 108/21/66 107/45/67
f 106/40/57 40/20/18 105/21/66
f 104/42/68 103/38/51 102/39/58
f 101/42/68 41/36/60 42/38/51
f 100/46/69 99/33/39 98/41/70
f 97/46/64 37/32/31 38/33/39
f 96/45/71 95/24/72 94/43/65
f 93/45/71 33/21/20 34/24/72
f 92/29/42 91/14/10 90/34/73
f 89/29/42 88/12/8 87/14/10
f 86/22/74 85/9/3 84/25/29
f 83/22/74 82/10/4 81/9/3
f 80/16/12 79/8/2 78/18/17
f 29/16/75 30/11/5 77/8/76
f 76/31/77 75/12/8 28/29/36
f 31/31/77 26/9/3 27/12/8
f 74/18/14 73/10/78 24/22/22
f 21/18/14 22/8/76 23/10/4
f 72/34/48 71/13/9 20/15/11
f 17/34/48 18/14/10 19/13/9
f 70/47/79 69/48/71 68/49/80
f 67/47/81 66/50/57 65/48/82
f 64/51/83 63/52/58 62/53/84
f 61/51/83 60/54/61 59/52/58
f 58/55/85 57/56/70 56/57/86
f 55/55/87 54/58/64 53/56/70
f 52/49/88 51/59/89 50/60/90
f 2/49/91 32/48/67 49/59/92
f 48/53/93 47/50/57 12/47/94
f 9/53/84 10/52/58 11/50/57
f 46/57/95 45/54/61 8/51/96
f 5/57/97 6/56/70 7/54/61
f 44/60/98 43/61/64 15/62/87
f 1/60/98 35/59/92 39/61/64
