# Blender 5.0.0
# www.blender.org
mtllib Circle_005_Circle_001_Dupli_98_decorations_0.mtl
o Circle.005|Circle.001|Dupli|98_decorations_0
v -4.491389 1.843697 0.421311
v -4.490591 1.842713 0.420697
v -4.485086 1.843268 0.426264
v -4.486225 1.844673 0.427141
v -4.490695 1.845820 0.420105
v -4.486769 1.846555 0.423834
v -4.485863 1.846125 0.422982
v -4.489726 1.845359 0.419193
v -4.489257 1.844045 0.418998
v -4.485425 1.844897 0.422799
v -4.485785 1.843796 0.423425
v -4.489643 1.842867 0.419667
v -4.486290 1.846646 0.426766
v -4.485234 1.847701 0.425421
v -4.491435 1.845080 0.421048
v -4.483852 1.847044 0.424119
v -4.482986 1.846967 0.425366
v -4.482550 1.846661 0.426423
v -4.482195 1.845666 0.426275
v -4.482443 1.845442 0.425140
v -4.483991 1.843894 0.427112
v -4.483206 1.844656 0.427562
v -4.483810 1.845402 0.428027
v -4.484918 1.845037 0.427825
v -4.483733 1.843489 0.424796
v -4.483845 1.846449 0.427828
v -4.483284 1.847010 0.427114
v -4.484112 1.847501 0.426425
v -4.482890 1.844074 0.425917
v -4.482487 1.844773 0.426782
v -4.484971 1.846642 0.427520
v -4.486671 1.843651 0.424387
v -4.486107 1.843331 0.425148
v -4.487092 1.844547 0.425907
v -4.487417 1.844571 0.424962
v -4.483184 1.845170 0.423841
v -4.487150 1.846254 0.425582
v -4.486236 1.847167 0.424418
v -4.487461 1.845864 0.424716
v -4.484936 1.843522 0.423877
v -4.485039 1.846599 0.423291
v -4.484460 1.844977 0.423050
v -4.487461 1.845864 0.424716
v -4.491389 1.843697 0.421311
v -4.485863 1.846125 0.422982
v -4.490695 1.845820 0.420105
v -4.485785 1.843796 0.423425
v -4.489257 1.844045 0.418998
v -4.487417 1.844571 0.424962
v -4.491389 1.843697 0.421311
v -4.487417 1.844571 0.424962
v -4.490591 1.842713 0.420697
v -4.486769 1.846555 0.423834
v -4.487461 1.845864 0.424716
v -4.491435 1.845080 0.421048
v -4.490695 1.845820 0.420105
v -4.486769 1.846555 0.423834
v -4.491435 1.845080 0.421048
v -4.485425 1.844897 0.422799
v -4.485863 1.846125 0.422982
v -4.489726 1.845359 0.419193
v -4.489257 1.844045 0.418998
v -4.485425 1.844897 0.422799
v -4.489726 1.845359 0.419193
v -4.486671 1.843651 0.424387
v -4.485785 1.843796 0.423425
v -4.489643 1.842867 0.419667
v -4.490591 1.842713 0.420697
v -4.486671 1.843651 0.424387
v -4.489643 1.842867 0.419667
v -4.482195 1.845666 0.426275
v -4.482986 1.846967 0.425366
v -4.483810 1.845402 0.428027
v -4.483991 1.843894 0.427112
v -4.483284 1.847010 0.427114
v -4.484971 1.846642 0.427520
v -4.483206 1.844656 0.427562
v -4.483991 1.843894 0.427112
v -4.483206 1.844656 0.427562
v -4.482890 1.844074 0.425917
v -4.483845 1.846449 0.427828
v -4.483810 1.845402 0.428027
v -4.484918 1.845037 0.427825
v -4.484971 1.846642 0.427520
v -4.483845 1.846449 0.427828
v -4.484918 1.845037 0.427825
v -4.482550 1.846661 0.426423
v -4.483284 1.847010 0.427114
v -4.484112 1.847501 0.426425
v -4.482986 1.846967 0.425366
v -4.482550 1.846661 0.426423
v -4.484112 1.847501 0.426425
v -4.486671 1.843651 0.424387
v -4.487417 1.844571 0.424962
v -4.487092 1.844547 0.425907
v -4.486671 1.843651 0.424387
v -4.487461 1.845864 0.424716
v -4.486769 1.846555 0.423834
v -4.486236 1.847167 0.424418
v -4.487461 1.845864 0.424716
v -4.485863 1.846125 0.422982
v -4.485425 1.844897 0.422799
v -4.484460 1.844977 0.423050
v -4.485863 1.846125 0.422982
v -4.486107 1.843331 0.425148
v -4.485785 1.843796 0.423425
v -4.486671 1.843651 0.424387
v -4.486107 1.843331 0.425148
v -4.485785 1.843796 0.423425
v -4.487150 1.846254 0.425582
v -4.487092 1.844547 0.425907
v -4.487417 1.844571 0.424962
v -4.487461 1.845864 0.424716
v -4.487150 1.846254 0.425582
v -4.487417 1.844571 0.424962
v -4.485039 1.846599 0.423291
v -4.486236 1.847167 0.424418
v -4.486769 1.846555 0.423834
v -4.485863 1.846125 0.422982
v -4.485039 1.846599 0.423291
v -4.486769 1.846555 0.423834
v -4.484936 1.843522 0.423877
v -4.484460 1.844977 0.423050
v -4.485425 1.844897 0.422799
v -4.485785 1.843796 0.423425
v -4.484936 1.843522 0.423877
v -4.485425 1.844897 0.422799
v -4.484460 1.844977 0.423050
v -4.484936 1.843522 0.423877
v -4.483733 1.843489 0.424796
v -4.484460 1.844977 0.423050
v -4.482890 1.844074 0.425917
v -4.482443 1.845442 0.425140
v -4.483184 1.845170 0.423841
v -4.483733 1.843489 0.424796
v -4.482890 1.844074 0.425917
v -4.483184 1.845170 0.423841
v -4.483184 1.845170 0.423841
v -4.485039 1.846599 0.423291
v -4.484460 1.844977 0.423050
v -4.483184 1.845170 0.423841
v -4.485039 1.846599 0.423291
v -4.482443 1.845442 0.425140
v -4.482986 1.846967 0.425366
v -4.483852 1.847044 0.424119
v -4.483184 1.845170 0.423841
v -4.482443 1.845442 0.425140
v -4.483852 1.847044 0.424119
v -4.483852 1.847044 0.424119
v -4.486236 1.847167 0.424418
v -4.485039 1.846599 0.423291
v -4.483852 1.847044 0.424119
v -4.486236 1.847167 0.424418
v -4.482986 1.846967 0.425366
v -4.484112 1.847501 0.426425
v -4.485234 1.847701 0.425421
v -4.483852 1.847044 0.424119
v -4.482986 1.846967 0.425366
v -4.485234 1.847701 0.425421
v -4.485234 1.847701 0.425421
v -4.487150 1.846254 0.425582
v -4.486236 1.847167 0.424418
v -4.485234 1.847701 0.425421
v -4.487150 1.846254 0.425582
v -4.484112 1.847501 0.426425
v -4.484971 1.846642 0.427520
v -4.486290 1.846646 0.426766
v -4.485234 1.847701 0.425421
v -4.484112 1.847501 0.426425
v -4.486290 1.846646 0.426766
v -4.486290 1.846646 0.426766
v -4.487092 1.844547 0.425907
v -4.487150 1.846254 0.425582
v -4.486290 1.846646 0.426766
v -4.487092 1.844547 0.425907
v -4.484971 1.846642 0.427520
v -4.484918 1.845037 0.427825
v -4.486225 1.844673 0.427141
v -4.486290 1.846646 0.426766
v -4.484971 1.846642 0.427520
v -4.486225 1.844673 0.427141
v -4.486225 1.844673 0.427141
v -4.486107 1.843331 0.425148
v -4.487092 1.844547 0.425907
v -4.486225 1.844673 0.427141
v -4.486107 1.843331 0.425148
v -4.484918 1.845037 0.427825
v -4.483991 1.843894 0.427112
v -4.485086 1.843268 0.426264
v -4.486225 1.844673 0.427141
v -4.484918 1.845037 0.427825
v -4.485086 1.843268 0.426264
v -4.485086 1.843268 0.426264
v -4.483733 1.843489 0.424796
v -4.484936 1.843522 0.423877
v -4.486107 1.843331 0.425148
v -4.485086 1.843268 0.426264
v -4.484936 1.843522 0.423877
v -4.483991 1.843894 0.427112
v -4.482890 1.844074 0.425917
v -4.483733 1.843489 0.424796
v -4.485086 1.843268 0.426264
v -4.483991 1.843894 0.427112
v -4.483733 1.843489 0.424796
v -4.482487 1.844773 0.426782
v -4.482195 1.845666 0.426275
v -4.482443 1.845442 0.425140
v -4.482890 1.844074 0.425917
v -4.482487 1.844773 0.426782
v -4.482443 1.845442 0.425140
v -4.482550 1.846661 0.426423
v -4.482195 1.845666 0.426275
v -4.483284 1.847010 0.427114
v -4.482487 1.844773 0.426782
v -4.483284 1.847010 0.427114
v -4.482195 1.845666 0.426275
v -4.483845 1.846449 0.427828
v -4.483284 1.847010 0.427114
v -4.482487 1.844773 0.426782
v -4.483206 1.844656 0.427562
v -4.483845 1.846449 0.427828
v -4.482487 1.844773 0.426782
v -4.483810 1.845402 0.428027
v -4.483845 1.846449 0.427828
v -4.483206 1.844656 0.427562
v -4.489726 1.845359 0.419193
v -4.490695 1.845820 0.420105
v -4.489257 1.844045 0.418998
v -4.489643 1.842867 0.419667
v -4.489257 1.844045 0.418998
v -4.490695 1.845820 0.420105
v -4.491435 1.845080 0.421048
v -4.489643 1.842867 0.419667
v -4.490695 1.845820 0.420105
v -4.490591 1.842713 0.420697
v -4.489643 1.842867 0.419667
v -4.491435 1.845080 0.421048
v -4.491389 1.843697 0.421311
v -4.490591 1.842713 0.420697
v -4.491435 1.845080 0.421048
vn -0.7150 -0.1536 -0.6820
vn 0.5208 -0.3989 0.7547
vn 0.2277 0.4237 0.8767
vn 0.2437 -0.0569 0.9682
vn 0.8505 -0.3450 0.3970
vn 0.2277 0.4236 0.8768
vn 0.5209 -0.3989 0.7547
vn 0.8504 -0.3451 0.3971
vn 0.4848 0.6806 0.5493
vn 0.9843 0.0642 0.1646
vn 0.4849 0.6806 0.5492
vn 0.9843 0.0641 0.1646
vn 0.8216 0.5206 0.2323
vn 0.9294 -0.0389 -0.3671
vn 0.7128 -0.7014 0.0093
vn 0.8505 -0.3450 0.3971
vn 0.4877 -0.8306 -0.2688
vn 0.1791 -0.7886 0.5883
vn -0.0963 -0.9260 0.3650
vn 0.4878 -0.8306 -0.2688
vn 0.7127 -0.7014 0.0093
vn 0.1792 -0.7886 0.5883
vn 0.1928 -0.8397 -0.5076
vn -0.3574 -0.9297 0.0895
vn -0.2696 -0.2347 0.9339
vn -0.5875 -0.3198 0.7434
vn -0.3575 -0.9296 0.0895
vn -0.8201 -0.3586 0.4459
vn -0.2956 0.5431 0.7859
vn -0.6159 0.5316 0.5814
vn -0.2956 0.5431 0.7860
vn -0.8202 -0.3585 0.4459
vn -0.6159 0.5317 0.5813
vn -0.8469 0.4435 0.2933
vn 0.1207 0.9592 0.2557
vn -0.1602 0.9871 0.0010
vn 0.1208 0.9592 0.2558
vn -0.8469 0.4436 0.2932
vn -0.4176 0.8726 -0.2534
vn -0.1602 0.9871 0.0011
vn 0.6659 0.7002 -0.2574
vn 0.4365 0.7036 -0.5607
vn 0.1208 0.9592 0.2557
vn -0.4176 0.8726 -0.2535
vn 0.1446 0.6055 -0.7826
vn 0.9294 -0.0388 -0.3671
vn 0.7249 -0.1053 -0.6808
vn 0.4162 -0.1565 -0.8957
vn 0.7249 -0.1054 -0.6808
vn 0.7127 -0.7014 0.0092
vn 0.7249 -0.1053 -0.6807
vn 0.7128 -0.7013 0.0093
vn 0.1928 -0.8398 -0.5076
vn 0.4874 -0.1475 -0.8606
vn 0.2583 -0.8481 -0.4627
vn -0.3676 0.9078 -0.2021
vn 0.2088 0.6339 -0.7447
vn -0.4176 0.8725 -0.2535
vn -0.7804 -0.3546 0.5151
vn -0.8078 0.4678 0.3585
vn -0.7804 -0.3546 0.5150
vn -0.8201 -0.3585 0.4459
vn -0.3059 -0.9403 0.1495
vn 0.2089 0.6339 -0.7446
vn -0.8078 0.4678 0.3586
vn -0.3059 -0.9402 0.1496
vn -0.3574 -0.9296 0.0895
vn 0.8505 -0.3451 0.3970
vn -0.2955 0.5431 0.7859
vn 0.2437 -0.0568 0.9682
vn 0.6660 0.7002 -0.2574
vn 0.4748 -0.8339 -0.2815
vn -0.3059 -0.9403 0.1496
vn -0.1096 -0.9293 0.3526
vn 0.2583 -0.8480 -0.4627
vn 0.4236 0.7011 -0.5736
vn 0.7121 -0.1082 -0.6937
vn -0.6295 0.5291 0.5690
vn -0.1735 0.9848 -0.0116
vn -0.6294 0.5291 0.5690
vn -0.8079 0.4678 0.3585
vn -0.6010 -0.3228 0.7311
vn -0.3059 -0.9402 0.1495
vn -0.7804 -0.3547 0.5150
vn 0.4748 -0.8338 -0.2815
vn 0.2089 0.6339 -0.7447
vn -0.6010 -0.3228 0.7312
vt 0.543243 0.635056
vt 0.535370 0.641335
vt 0.537796 0.636299
vt 0.537796 0.646370
vt 0.547607 0.638535
vt 0.543243 0.647614
vt 0.547607 0.644127
vt 0.593674 0.671494
vt 0.598511 0.669548
vt 0.596146 0.672157
vt 0.592773 0.669609
vt 0.596436 0.666756
vt 0.592804 0.667854
vt 0.594147 0.666748
vt 0.591187 0.666855
vt 0.590591 0.669838
vt 0.587372 0.669685
vt 0.591782 0.673050
vt 0.588348 0.674789
vt 0.582382 0.669067
vt 0.582687 0.676537
vt 0.595596 0.675606
vt 0.592606 0.680244
vt 0.586334 0.684982
vt 0.603775 0.674767
vt 0.603561 0.686485
vt 0.594009 0.696274
vt 0.603775 0.658051
vt 0.597107 0.663902
vt 0.596405 0.659698
vt 0.602859 0.665543
vt 0.600342 0.651657
vt 0.594193 0.655174
vt 0.593353 0.664742
vt 0.591705 0.661980
vt 0.588959 0.658463
vt 0.588654 0.665283
vt 0.584778 0.662933
vt 0.580322 0.660286
vt 0.576584 0.668175
vt 0.591812 0.651588
vt 0.585907 0.654999
vt 0.579453 0.688484
vt 0.584915 0.699394
vt 0.576157 0.678001
vt 0.597061 0.648293
vt 0.627350 0.682632
vt 0.649124 0.687675
vt 0.627441 0.688225
vt 0.649033 0.682457
vt 0.627441 0.671455
vt 0.649033 0.677231
vt 0.627350 0.677048
vt 0.649124 0.672005
vt 0.627914 0.660294
vt 0.649292 0.666786
vt 0.627625 0.665871
vt 0.649551 0.661568
vt 0.649292 0.692902
vt 0.627625 0.693810
vt 0.649551 0.698120
vt 0.627914 0.699394
s 0
usemtl decorations
f 240/1/1 239/2/1 238/3/1
f 237/1/1 236/4/1 235/2/1
f 234/5/1 233/4/1 232/1/1
f 231/5/1 230/6/1 229/4/1
f 228/6/1 227/5/1 226/7/1
s 1
f 225/8/2 224/9/3 223/10/4
f 222/11/5 221/9/6 220/8/7
f 219/11/8 218/12/9 217/9/3
f 216/13/10 215/12/9 214/11/8
f 213/12/11 212/13/12 211/14/13
f 210/15/14 209/11/8 208/16/15
f 207/15/14 206/13/10 205/11/16
f 204/17/17 203/18/18 202/19/19
f 201/17/20 200/16/21 199/18/22
f 198/20/23 197/19/19 196/21/24
f 195/20/23 194/17/20 193/19/19
f 192/19/19 191/22/25 190/23/26
f 189/19/19 188/18/18 187/22/25
f 186/21/27 185/23/26 184/24/28
f 183/21/27 3/19/19 182/23/26
f 181/23/26 180/25/29 179/26/30
f 178/23/26 177/22/25 176/25/31
f 175/24/32 174/26/33 173/27/34
f 172/24/32 4/23/26 171/26/33
f 170/28/33 169/29/35 168/30/36
f 167/28/33 166/31/29 165/29/37
f 164/32/38 163/30/36 162/33/39
f 161/32/38 13/28/33 160/30/40
f 159/30/36 158/34/41 157/35/42
f 156/30/36 155/29/43 154/34/41
f 153/33/44 152/35/42 151/36/45
f 150/33/44 14/30/36 149/35/42
f 148/35/42 147/15/46 146/37/47
f 145/35/42 144/34/41 143/15/46
f 142/36/45 141/37/47 140/38/48
f 139/36/45 16/35/42 138/37/47
f 137/37/49 136/16/50 135/17/20
f 134/37/51 133/15/46 132/16/52
f 131/38/48 130/17/17 129/20/53
f 128/38/48 36/37/51 25/17/17
f 127/39/54 126/20/23 125/40/55
f 124/39/54 123/38/48 122/20/23
f 121/41/56 120/36/45 119/42/57
f 118/41/56 117/33/58 116/36/45
f 115/43/59 114/27/34 113/44/60
f 112/43/61 111/24/62 110/27/34
f 109/40/55 108/21/24 107/45/63
f 106/40/55 40/20/23 105/21/24
f 104/42/64 103/38/48 102/39/54
f 101/42/57 41/36/45 42/38/48
f 100/46/65 99/33/39 98/41/56
f 97/46/60 37/32/38 38/33/39
f 96/45/66 95/24/28 94/43/61
f 93/45/66 33/21/67 34/24/28
f 92/29/43 91/14/13 90/34/41
f 89/29/43 88/12/9 87/14/13
f 86/22/25 85/9/6 84/25/31
f 83/22/25 82/10/4 81/9/6
f 80/16/21 79/8/7 78/18/22
f 29/16/21 30/11/68 77/8/7
f 76/31/69 75/12/9 28/29/37
f 31/31/69 26/9/6 27/12/9
f 74/18/18 73/10/70 24/22/25
f 21/18/18 22/8/7 23/10/4
f 72/34/71 71/13/10 20/15/46
f 17/34/71 18/14/13 19/13/10
f 70/47/72 69/48/73 68/49/74
f 67/47/72 66/50/75 65/48/63
f 64/51/76 63/52/54 62/53/77
f 61/51/76 60/54/57 59/52/54
f 58/55/78 57/56/56 56/57/79
f 55/55/80 54/58/81 53/56/56
f 52/49/74 51/59/59 50/60/82
f 2/49/74 32/48/83 49/59/84
f 48/53/77 47/50/55 12/47/85
f 9/53/77 10/52/54 11/50/55
f 46/57/79 45/54/86 8/51/76
f 5/57/79 6/56/56 7/54/57
f 44/60/82 43/61/65 15/62/78
f 1/60/87 35/59/61 39/61/65
