# Blender 5.0.0
# www.blender.org
mtllib Circle_002_Circle_001_Dupli_190_decorations_0.mtl
o Circle.002|Circle.001|Dupli|190_decorations_0
v -4.311497 1.407261 0.723341
v -4.312582 1.406511 0.722847
v -4.313532 1.402800 0.729697
v -4.311985 1.403870 0.730403
v -4.309487 1.405886 0.722626
v -4.309818 1.403110 0.727321
v -4.310368 1.402092 0.726693
v -4.310076 1.404797 0.721954
v -4.311442 1.404535 0.721734
v -4.311645 1.401847 0.726488
v -4.312688 1.402561 0.726859
v -4.312557 1.405298 0.722131
v -4.310020 1.403473 0.730263
v -4.309118 1.401909 0.729382
v -4.310120 1.406983 0.723243
v -4.309957 1.400355 0.728424
v -4.310292 1.399907 0.729837
v -4.310749 1.399849 0.730927
v -4.311784 1.399650 0.730760
v -4.311878 1.399603 0.729582
v -4.313201 1.401896 0.730873
v -4.312647 1.401147 0.731603
v -4.311826 1.401715 0.731978
v -4.311942 1.402767 0.731448
v -4.313497 1.401070 0.728677
v -4.310782 1.401505 0.731903
v -4.310303 1.400674 0.731436
v -4.309608 1.401171 0.730617
v -4.313172 1.400488 0.730043
v -4.312629 1.400228 0.731061
v -4.310343 1.402444 0.731334
v -4.312711 1.403694 0.727528
v -4.313189 1.403435 0.728367
v -4.311849 1.404361 0.728978
v -4.311697 1.404395 0.727990
v -4.311906 1.399982 0.728110
v -4.310149 1.404018 0.728856
v -4.309368 1.402664 0.728094
v -4.310410 1.404135 0.727898
v -4.313159 1.401937 0.727483
v -4.310094 1.401319 0.727265
v -4.311781 1.400996 0.726993
v -4.310410 1.404135 0.727898
v -4.311497 1.407261 0.723341
v -4.310368 1.402092 0.726693
v -4.309487 1.405886 0.722626
v -4.312688 1.402561 0.726859
v -4.311442 1.404535 0.721734
v -4.311697 1.404395 0.727990
v -4.311497 1.407261 0.723341
v -4.311697 1.404395 0.727990
v -4.312582 1.406511 0.722847
v -4.309818 1.403110 0.727321
v -4.310410 1.404135 0.727898
v -4.310120 1.406983 0.723243
v -4.309487 1.405886 0.722626
v -4.309818 1.403110 0.727321
v -4.310120 1.406983 0.723243
v -4.311645 1.401847 0.726488
v -4.310368 1.402092 0.726693
v -4.310076 1.404797 0.721954
v -4.311442 1.404535 0.721734
v -4.311645 1.401847 0.726488
v -4.310076 1.404797 0.721954
v -4.312711 1.403694 0.727528
v -4.312688 1.402561 0.726859
v -4.312557 1.405298 0.722131
v -4.312582 1.406511 0.722847
v -4.312711 1.403694 0.727528
v -4.312557 1.405298 0.722131
v -4.311784 1.399650 0.730760
v -4.310292 1.399907 0.729837
v -4.311826 1.401715 0.731978
v -4.313201 1.401896 0.730873
v -4.310303 1.400674 0.731436
v -4.310343 1.402444 0.731334
v -4.312647 1.401147 0.731603
v -4.313201 1.401896 0.730873
v -4.312647 1.401147 0.731603
v -4.313172 1.400488 0.730043
v -4.310782 1.401505 0.731903
v -4.311826 1.401715 0.731978
v -4.311942 1.402767 0.731448
v -4.310343 1.402444 0.731334
v -4.310782 1.401505 0.731903
v -4.311942 1.402767 0.731448
v -4.310749 1.399849 0.730927
v -4.310303 1.400674 0.731436
v -4.309608 1.401171 0.730617
v -4.310292 1.399907 0.729837
v -4.310749 1.399849 0.730927
v -4.309608 1.401171 0.730617
v -4.312711 1.403694 0.727528
v -4.311697 1.404395 0.727990
v -4.311849 1.404361 0.728978
v -4.312711 1.403694 0.727528
v -4.310410 1.404135 0.727898
v -4.309818 1.403110 0.727321
v -4.309368 1.402664 0.728094
v -4.310410 1.404135 0.727898
v -4.310368 1.402092 0.726693
v -4.311645 1.401847 0.726488
v -4.311781 1.400996 0.726993
v -4.310368 1.402092 0.726693
v -4.313189 1.403435 0.728367
v -4.312688 1.402561 0.726859
v -4.312711 1.403694 0.727528
v -4.313189 1.403435 0.728367
v -4.312688 1.402561 0.726859
v -4.310149 1.404018 0.728856
v -4.311849 1.404361 0.728978
v -4.311697 1.404395 0.727990
v -4.310410 1.404135 0.727898
v -4.310149 1.404018 0.728856
v -4.311697 1.404395 0.727990
v -4.310094 1.401319 0.727265
v -4.309368 1.402664 0.728094
v -4.309818 1.403110 0.727321
v -4.310368 1.402092 0.726693
v -4.310094 1.401319 0.727265
v -4.309818 1.403110 0.727321
v -4.313159 1.401937 0.727483
v -4.311781 1.400996 0.726993
v -4.311645 1.401847 0.726488
v -4.312688 1.402561 0.726859
v -4.313159 1.401937 0.727483
v -4.311645 1.401847 0.726488
v -4.311781 1.400996 0.726993
v -4.313159 1.401937 0.727483
v -4.313497 1.401070 0.728677
v -4.311781 1.400996 0.726993
v -4.313172 1.400488 0.730043
v -4.311878 1.399603 0.729582
v -4.311906 1.399982 0.728110
v -4.313497 1.401070 0.728677
v -4.313172 1.400488 0.730043
v -4.311906 1.399982 0.728110
v -4.311906 1.399982 0.728110
v -4.310094 1.401319 0.727265
v -4.311781 1.400996 0.726993
v -4.311906 1.399982 0.728110
v -4.310094 1.401319 0.727265
v -4.311878 1.399603 0.729582
v -4.310292 1.399907 0.729837
v -4.309957 1.400355 0.728424
v -4.311906 1.399982 0.728110
v -4.311878 1.399603 0.729582
v -4.309957 1.400355 0.728424
v -4.309957 1.400355 0.728424
v -4.309368 1.402664 0.728094
v -4.310094 1.401319 0.727265
v -4.309957 1.400355 0.728424
v -4.309368 1.402664 0.728094
v -4.310292 1.399907 0.729837
v -4.309608 1.401171 0.730617
v -4.309118 1.401909 0.729382
v -4.309957 1.400355 0.728424
v -4.310292 1.399907 0.729837
v -4.309118 1.401909 0.729382
v -4.309118 1.401909 0.729382
v -4.310149 1.404018 0.728856
v -4.309368 1.402664 0.728094
v -4.309118 1.401909 0.729382
v -4.310149 1.404018 0.728856
v -4.309608 1.401171 0.730617
v -4.310343 1.402444 0.731334
v -4.310020 1.403473 0.730263
v -4.309118 1.401909 0.729382
v -4.309608 1.401171 0.730617
v -4.310020 1.403473 0.730263
v -4.310020 1.403473 0.730263
v -4.311849 1.404361 0.728978
v -4.310149 1.404018 0.728856
v -4.310020 1.403473 0.730263
v -4.311849 1.404361 0.728978
v -4.310343 1.402444 0.731334
v -4.311942 1.402767 0.731448
v -4.311985 1.403870 0.730403
v -4.310020 1.403473 0.730263
v -4.310343 1.402444 0.731334
v -4.311985 1.403870 0.730403
v -4.311985 1.403870 0.730403
v -4.313189 1.403435 0.728367
v -4.311849 1.404361 0.728978
v -4.311985 1.403870 0.730403
v -4.313189 1.403435 0.728367
v -4.311942 1.402767 0.731448
v -4.313201 1.401896 0.730873
v -4.313532 1.402800 0.729697
v -4.311985 1.403870 0.730403
v -4.311942 1.402767 0.731448
v -4.313532 1.402800 0.729697
v -4.313532 1.402800 0.729697
v -4.313497 1.401070 0.728677
v -4.313159 1.401937 0.727483
v -4.313189 1.403435 0.728367
v -4.313532 1.402800 0.729697
v -4.313159 1.401937 0.727483
v -4.313201 1.401896 0.730873
v -4.313172 1.400488 0.730043
v -4.313497 1.401070 0.728677
v -4.313532 1.402800 0.729697
v -4.313201 1.401896 0.730873
v -4.313497 1.401070 0.728677
v -4.312629 1.400228 0.731061
v -4.311784 1.399650 0.730760
v -4.311878 1.399603 0.729582
v -4.313172 1.400488 0.730043
v -4.312629 1.400228 0.731061
v -4.311878 1.399603 0.729582
v -4.310749 1.399849 0.730927
v -4.311784 1.399650 0.730760
v -4.310303 1.400674 0.731436
v -4.312629 1.400228 0.731061
v -4.310303 1.400674 0.731436
v -4.311784 1.399650 0.730760
v -4.310782 1.401505 0.731903
v -4.310303 1.400674 0.731436
v -4.312629 1.400228 0.731061
v -4.312647 1.401147 0.731603
v -4.310782 1.401505 0.731903
v -4.312629 1.400228 0.731061
v -4.311826 1.401715 0.731978
v -4.310782 1.401505 0.731903
v -4.312647 1.401147 0.731603
v -4.310076 1.404797 0.721954
v -4.309487 1.405886 0.722626
v -4.311442 1.404535 0.721734
v -4.312557 1.405298 0.722131
v -4.311442 1.404535 0.721734
v -4.309487 1.405886 0.722626
v -4.310120 1.406983 0.723243
v -4.312557 1.405298 0.722131
v -4.309487 1.405886 0.722626
v -4.312582 1.406511 0.722847
v -4.312557 1.405298 0.722131
v -4.310120 1.406983 0.723243
v -4.311497 1.407261 0.723341
v -4.312582 1.406511 0.722847
v -4.310120 1.406983 0.723243
vn 0.0412 0.5082 -0.8603
vn -0.5458 -0.2059 0.8122
vn 0.3095 -0.0421 0.9499
vn -0.1690 0.0545 0.9841
vn -0.5373 -0.6274 0.5636
vn 0.3095 -0.0421 0.9500
vn -0.5458 -0.2060 0.8122
vn -0.5373 -0.6273 0.5637
vn 0.5293 -0.4231 0.7354
vn -0.1498 -0.8924 0.4256
vn 0.5293 -0.4230 0.7355
vn -0.5373 -0.6274 0.5637
vn -0.1499 -0.8924 0.4257
vn 0.3249 -0.8015 0.5021
vn -0.2043 -0.9727 -0.1100
vn -0.8316 -0.5437 0.1134
vn -0.1498 -0.8924 0.4257
vn -0.8934 -0.3872 -0.2277
vn -0.8454 0.1386 0.5158
vn -0.9086 0.3595 0.2128
vn -0.8934 -0.3873 -0.2276
vn -0.8454 0.1385 0.5158
vn -0.8263 -0.1753 -0.5353
vn -0.9085 0.3595 0.2128
vn -0.8405 0.5282 -0.1204
vn -0.9086 0.3595 0.2129
vn -0.2353 0.5603 0.7942
vn -0.2407 0.8211 0.5175
vn -0.8405 0.5283 -0.1204
vn -0.2408 0.8211 0.5175
vn -0.2114 0.9631 0.1667
vn 0.5393 0.4039 0.7389
vn 0.6072 0.6499 0.4570
vn -0.2114 0.9631 0.1666
vn 0.5874 0.8018 0.1097
vn 0.6073 0.6499 0.4569
vn 0.8952 -0.2128 0.3916
vn 0.9967 -0.0251 0.0769
vn 0.6073 0.6499 0.4570
vn 0.5394 0.4039 0.7389
vn 0.5874 0.8018 0.1096
vn 0.9967 -0.0251 0.0768
vn 0.9543 0.1659 -0.2484
vn 0.5643 -0.8255 0.0139
vn 0.6345 -0.6958 -0.3367
vn 0.9543 0.1659 -0.2485
vn 0.6131 -0.4659 -0.6380
vn 0.6344 -0.6958 -0.3367
vn -0.2042 -0.9727 -0.1100
vn -0.2067 -0.8569 -0.4722
vn 0.5642 -0.8255 0.0138
vn -0.2042 -0.9727 -0.1099
vn 0.6130 -0.4659 -0.6381
vn -0.1793 -0.6178 -0.7657
vn 0.6130 -0.4659 -0.6380
vn -0.2068 -0.8569 -0.4722
vn -0.2067 -0.8569 -0.4721
vn -0.8316 -0.5437 0.1135
vn -0.1794 -0.6177 -0.7657
vn -0.1875 -0.6765 -0.7122
vn -0.8508 -0.2228 -0.4760
vn -0.1874 -0.6765 -0.7122
vn 0.9751 0.1270 -0.1818
vn 0.6252 -0.5208 -0.5813
vn 0.9751 0.1270 -0.1819
vn -0.2202 0.9445 0.2438
vn 0.5989 0.7791 0.1853
vn -0.8654 0.4986 -0.0506
vn -0.8262 -0.1753 -0.5353
vn -0.1793 -0.6177 -0.7657
vn 0.5989 0.7791 0.1854
vn 0.5988 0.7791 0.1854
vn 0.5875 0.8018 0.1096
vn -0.8654 0.4986 -0.0505
vn 0.8952 -0.2129 0.3916
vn -0.8316 -0.5436 0.1134
vn 0.5293 -0.4231 0.7355
vn 0.5642 -0.8255 0.0139
vn -0.8931 -0.3781 -0.2437
vn -0.9083 0.3691 0.1970
vn -0.8931 -0.3781 -0.2436
vn -0.8507 -0.2228 -0.4760
vn 0.6355 -0.6868 -0.3528
vn -0.2060 -0.8480 -0.4883
vn 0.6355 -0.6868 -0.3527
vn 0.6084 0.6597 0.4413
vn 0.9980 -0.0157 0.0610
vn 0.6084 0.6596 0.4413
vn 0.5988 0.7791 0.1853
vn -0.2203 0.9445 0.2438
vn -0.2401 0.8309 0.5019
vn -0.9083 0.3691 0.1971
vn -0.2061 -0.8480 -0.4883
vn 0.6356 -0.6867 -0.3528
vn -0.2401 0.8310 0.5019
vn 0.6083 0.6597 0.4413
vt 0.543243 0.635056
vt 0.535370 0.641335
vt 0.537796 0.636299
vt 0.537796 0.646370
vt 0.547607 0.638535
vt 0.543243 0.647614
vt 0.547607 0.644127
vt 0.593674 0.671494
vt 0.598511 0.669548
vt 0.596146 0.672157
vt 0.592773 0.669609
vt 0.596436 0.666756
vt 0.592804 0.667854
vt 0.594147 0.666748
vt 0.591187 0.666855
vt 0.590591 0.669838
vt 0.587372 0.669685
vt 0.591782 0.673050
vt 0.588348 0.674789
vt 0.582382 0.669067
vt 0.582687 0.676537
vt 0.595596 0.675606
vt 0.592606 0.680244
vt 0.586334 0.684982
vt 0.603775 0.674767
vt 0.603561 0.686485
vt 0.594009 0.696274
vt 0.603775 0.658051
vt 0.597107 0.663902
vt 0.596405 0.659698
vt 0.602859 0.665543
vt 0.600342 0.651657
vt 0.594193 0.655174
vt 0.593353 0.664742
vt 0.591705 0.661980
vt 0.588959 0.658463
vt 0.588654 0.665283
vt 0.584778 0.662933
vt 0.580322 0.660286
vt 0.576584 0.668175
vt 0.591812 0.651588
vt 0.585907 0.654999
vt 0.579453 0.688484
vt 0.584915 0.699394
vt 0.576157 0.678001
vt 0.597061 0.648293
vt 0.627350 0.682632
vt 0.649124 0.687675
vt 0.627441 0.688225
vt 0.649033 0.682457
vt 0.627441 0.671455
vt 0.649033 0.677231
vt 0.627350 0.677048
vt 0.649124 0.672005
vt 0.627914 0.660294
vt 0.649292 0.666786
vt 0.627625 0.665871
vt 0.649551 0.661568
vt 0.649292 0.692902
vt 0.627625 0.693810
vt 0.649551 0.698120
vt 0.627914 0.699394
s 0
usemtl decorations
f 240/1/1 239/2/1 238/3/1
f 237/1/1 236/4/1 235/2/1
f 234/5/1 233/4/1 232/1/1
f 231/5/1 230/6/1 229/4/1
f 228/6/1 227/5/1 226/7/1
s 1
f 225/8/2 224/9/3 223/10/4
f 222/11/5 221/9/6 220/8/7
f 219/11/8 218/12/9 217/9/3
f 216/13/10 215/12/11 214/11/12
f 213/12/9 212/13/13 211/14/14
f 210/15/15 209/11/12 208/16/16
f 207/15/15 206/13/17 205/11/12
f 204/17/18 203/18/19 202/19/20
f 201/17/21 200/16/16 199/18/22
f 198/20/23 197/19/24 196/21/25
f 195/20/23 194/17/21 193/19/26
f 192/19/20 191/22/27 190/23/28
f 189/19/20 188/18/19 187/22/27
f 186/21/29 185/23/30 184/24/31
f 183/21/29 3/19/24 182/23/30
f 181/23/28 180/25/32 179/26/33
f 178/23/28 177/22/27 176/25/32
f 175/24/34 174/26/33 173/27/35
f 172/24/34 4/23/28 171/26/33
f 170/28/36 169/29/37 168/30/38
f 167/28/39 166/31/40 165/29/37
f 164/32/41 163/30/42 162/33/43
f 161/32/41 13/28/39 160/30/38
f 159/30/38 158/34/44 157/35/45
f 156/30/38 155/29/37 154/34/44
f 153/33/46 152/35/45 151/36/47
f 150/33/46 14/30/38 149/35/45
f 148/35/48 147/15/49 146/37/50
f 145/35/45 144/34/51 143/15/52
f 142/36/53 141/37/50 140/38/54
f 139/36/55 16/35/45 138/37/50
f 137/37/56 136/16/16 135/17/21
f 134/37/57 133/15/49 132/16/58
f 131/38/59 130/17/21 129/20/23
f 128/38/59 36/37/50 25/17/21
f 127/39/60 126/20/23 125/40/61
f 124/39/62 123/38/59 122/20/23
f 121/41/63 120/36/47 119/42/64
f 118/41/65 117/33/46 116/36/47
f 115/43/66 114/27/35 113/44/67
f 112/43/66 111/24/31 110/27/35
f 109/40/61 108/21/25 107/45/68
f 106/40/61 40/20/69 105/21/25
f 104/42/64 103/38/70 102/39/62
f 101/42/64 41/36/47 42/38/70
f 100/46/71 99/33/43 98/41/65
f 97/46/72 37/32/73 38/33/43
f 96/45/74 95/24/31 94/43/66
f 93/45/74 33/21/25 34/24/31
f 92/29/75 91/14/14 90/34/44
f 89/29/75 88/12/11 87/14/14
f 86/22/27 85/9/6 84/25/32
f 83/22/27 82/10/4 81/9/6
f 80/16/76 79/8/7 78/18/22
f 29/16/76 30/11/5 77/8/7
f 76/31/40 75/12/77 28/29/37
f 31/31/40 26/9/6 27/12/11
f 74/18/19 73/10/4 24/22/27
f 21/18/19 22/8/7 23/10/4
f 72/34/78 71/13/17 20/15/49
f 17/34/51 18/14/14 19/13/17
f 70/47/79 69/48/74 68/49/80
f 67/47/81 66/50/82 65/48/74
f 64/51/83 63/52/62 62/53/84
f 61/51/85 60/54/64 59/52/62
f 58/55/86 57/56/65 56/57/87
f 55/55/88 54/58/89 53/56/65
f 52/49/80 51/59/90 50/60/91
f 2/49/92 32/48/74 49/59/90
f 48/53/93 47/50/61 12/47/79
f 9/53/93 10/52/62 11/50/61
f 46/57/87 45/54/64 8/51/94
f 5/57/87 6/56/65 7/54/64
f 44/60/95 43/61/72 15/62/96
f 1/60/91 35/59/66 39/61/72
