# Blender 5.0.0
# www.blender.org
mtllib Circle_002_Circle_003_Dupli_157_decorations_0.mtl
o Circle.002|Circle.003|Dupli|157_decorations_0
v -4.615273 0.587334 0.349919
v -4.614312 0.586829 0.349023
v -4.619696 0.585666 0.343431
v -4.621068 0.586387 0.344710
v -4.615917 0.585285 0.351271
v -4.619805 0.584182 0.347593
v -4.619055 0.583236 0.347067
v -4.615115 0.584274 0.350709
v -4.614185 0.584375 0.349656
v -4.618186 0.583330 0.346083
v -4.617852 0.584393 0.345382
v -4.613828 0.585512 0.348906
v -4.622087 0.585407 0.346137
v -4.621986 0.583464 0.346639
v -4.615988 0.586647 0.350920
v -4.620841 0.582021 0.345836
v -4.621850 0.582111 0.344703
v -4.622494 0.582502 0.343792
v -4.621790 0.582579 0.342994
v -4.620770 0.582228 0.343481
v -4.620918 0.585077 0.342746
v -4.621886 0.584438 0.342514
v -4.622615 0.584821 0.343193
v -4.622035 0.585664 0.343787
v -4.619005 0.583787 0.343264
v -4.623156 0.584301 0.343951
v -4.623103 0.583269 0.344218
v -4.622782 0.583286 0.345356
v -4.620356 0.583548 0.342610
v -4.621519 0.583440 0.342426
v -4.622864 0.584867 0.344948
v -4.618305 0.585625 0.345491
v -4.618746 0.585767 0.344606
v -4.619933 0.586391 0.345712
v -4.619204 0.586097 0.346329
v -4.619514 0.582165 0.344335
v -4.620815 0.585543 0.346948
v -4.620728 0.583861 0.347382
v -4.619871 0.585455 0.347265
v -4.618147 0.584140 0.344461
v -4.619737 0.582612 0.346688
v -4.618588 0.582736 0.345388
v -4.619871 0.585455 0.347265
v -4.615273 0.587334 0.349919
v -4.619055 0.583236 0.347067
v -4.615917 0.585285 0.351271
v -4.617852 0.584393 0.345382
v -4.614185 0.584375 0.349656
v -4.619204 0.586097 0.346329
v -4.615273 0.587334 0.349919
v -4.619204 0.586097 0.346329
v -4.614312 0.586829 0.349023
v -4.619805 0.584182 0.347593
v -4.619871 0.585455 0.347265
v -4.615988 0.586647 0.350920
v -4.615917 0.585285 0.351271
v -4.619805 0.584182 0.347593
v -4.615988 0.586647 0.350920
v -4.618186 0.583330 0.346083
v -4.619055 0.583236 0.347067
v -4.615115 0.584274 0.350709
v -4.614185 0.584375 0.349656
v -4.618186 0.583330 0.346083
v -4.615115 0.584274 0.350709
v -4.618305 0.585625 0.345491
v -4.617852 0.584393 0.345382
v -4.613828 0.585512 0.348906
v -4.614312 0.586829 0.349023
v -4.618305 0.585625 0.345491
v -4.613828 0.585512 0.348906
v -4.621790 0.582579 0.342994
v -4.621850 0.582111 0.344703
v -4.622615 0.584821 0.343193
v -4.620918 0.585077 0.342746
v -4.623103 0.583269 0.344218
v -4.622864 0.584867 0.344948
v -4.621886 0.584438 0.342514
v -4.620918 0.585077 0.342746
v -4.621886 0.584438 0.342514
v -4.620356 0.583548 0.342610
v -4.623156 0.584301 0.343951
v -4.622615 0.584821 0.343193
v -4.622035 0.585664 0.343787
v -4.622864 0.584867 0.344948
v -4.623156 0.584301 0.343951
v -4.622035 0.585664 0.343787
v -4.622494 0.582502 0.343792
v -4.623103 0.583269 0.344218
v -4.622782 0.583286 0.345356
v -4.621850 0.582111 0.344703
v -4.622494 0.582502 0.343792
v -4.622782 0.583286 0.345356
v -4.618305 0.585625 0.345491
v -4.619204 0.586097 0.346329
v -4.619933 0.586391 0.345712
v -4.618305 0.585625 0.345491
v -4.619871 0.585455 0.347265
v -4.619805 0.584182 0.347593
v -4.620728 0.583861 0.347382
v -4.619871 0.585455 0.347265
v -4.619055 0.583236 0.347067
v -4.618186 0.583330 0.346083
v -4.618588 0.582736 0.345388
v -4.619055 0.583236 0.347067
v -4.618746 0.585767 0.344606
v -4.617852 0.584393 0.345382
v -4.618305 0.585625 0.345491
v -4.618746 0.585767 0.344606
v -4.617852 0.584393 0.345382
v -4.620815 0.585543 0.346948
v -4.619933 0.586391 0.345712
v -4.619204 0.586097 0.346329
v -4.619871 0.585455 0.347265
v -4.620815 0.585543 0.346948
v -4.619204 0.586097 0.346329
v -4.619737 0.582612 0.346688
v -4.620728 0.583861 0.347382
v -4.619805 0.584182 0.347593
v -4.619055 0.583236 0.347067
v -4.619737 0.582612 0.346688
v -4.619805 0.584182 0.347593
v -4.618147 0.584140 0.344461
v -4.618588 0.582736 0.345388
v -4.618186 0.583330 0.346083
v -4.617852 0.584393 0.345382
v -4.618147 0.584140 0.344461
v -4.618186 0.583330 0.346083
v -4.618588 0.582736 0.345388
v -4.618147 0.584140 0.344461
v -4.619005 0.583787 0.343264
v -4.618588 0.582736 0.345388
v -4.620356 0.583548 0.342610
v -4.620770 0.582228 0.343481
v -4.619514 0.582165 0.344335
v -4.619005 0.583787 0.343264
v -4.620356 0.583548 0.342610
v -4.619514 0.582165 0.344335
v -4.619514 0.582165 0.344335
v -4.619737 0.582612 0.346688
v -4.618588 0.582736 0.345388
v -4.619514 0.582165 0.344335
v -4.619737 0.582612 0.346688
v -4.620770 0.582228 0.343481
v -4.621850 0.582111 0.344703
v -4.620841 0.582021 0.345836
v -4.619514 0.582165 0.344335
v -4.620770 0.582228 0.343481
v -4.620841 0.582021 0.345836
v -4.620841 0.582021 0.345836
v -4.620728 0.583861 0.347382
v -4.619737 0.582612 0.346688
v -4.620841 0.582021 0.345836
v -4.620728 0.583861 0.347382
v -4.621850 0.582111 0.344703
v -4.622782 0.583286 0.345356
v -4.621986 0.583464 0.346639
v -4.620841 0.582021 0.345836
v -4.621850 0.582111 0.344703
v -4.621986 0.583464 0.346639
v -4.621986 0.583464 0.346639
v -4.620815 0.585543 0.346948
v -4.620728 0.583861 0.347382
v -4.621986 0.583464 0.346639
v -4.620815 0.585543 0.346948
v -4.622782 0.583286 0.345356
v -4.622864 0.584867 0.344948
v -4.622087 0.585407 0.346137
v -4.621986 0.583464 0.346639
v -4.622782 0.583286 0.345356
v -4.622087 0.585407 0.346137
v -4.622087 0.585407 0.346137
v -4.619933 0.586391 0.345712
v -4.620815 0.585543 0.346948
v -4.622087 0.585407 0.346137
v -4.619933 0.586391 0.345712
v -4.622864 0.584867 0.344948
v -4.622035 0.585664 0.343787
v -4.621068 0.586387 0.344710
v -4.622087 0.585407 0.346137
v -4.622864 0.584867 0.344948
v -4.621068 0.586387 0.344710
v -4.621068 0.586387 0.344710
v -4.618746 0.585767 0.344606
v -4.619933 0.586391 0.345712
v -4.621068 0.586387 0.344710
v -4.618746 0.585767 0.344606
v -4.622035 0.585664 0.343787
v -4.620918 0.585077 0.342746
v -4.619696 0.585666 0.343431
v -4.621068 0.586387 0.344710
v -4.622035 0.585664 0.343787
v -4.619696 0.585666 0.343431
v -4.619696 0.585666 0.343431
v -4.619005 0.583787 0.343264
v -4.618147 0.584140 0.344461
v -4.618746 0.585767 0.344606
v -4.619696 0.585666 0.343431
v -4.618147 0.584140 0.344461
v -4.620918 0.585077 0.342746
v -4.620356 0.583548 0.342610
v -4.619005 0.583787 0.343264
v -4.619696 0.585666 0.343431
v -4.620918 0.585077 0.342746
v -4.619005 0.583787 0.343264
v -4.621519 0.583440 0.342426
v -4.621790 0.582579 0.342994
v -4.620770 0.582228 0.343481
v -4.620356 0.583548 0.342610
v -4.621519 0.583440 0.342426
v -4.620770 0.582228 0.343481
v -4.622494 0.582502 0.343792
v -4.621790 0.582579 0.342994
v -4.623103 0.583269 0.344218
v -4.621519 0.583440 0.342426
v -4.623103 0.583269 0.344218
v -4.621790 0.582579 0.342994
v -4.623156 0.584301 0.343951
v -4.623103 0.583269 0.344218
v -4.621519 0.583440 0.342426
v -4.621886 0.584438 0.342514
v -4.623156 0.584301 0.343951
v -4.621519 0.583440 0.342426
v -4.622615 0.584821 0.343193
v -4.623156 0.584301 0.343951
v -4.621886 0.584438 0.342514
v -4.615115 0.584274 0.350709
v -4.615917 0.585285 0.351271
v -4.614185 0.584375 0.349656
v -4.613828 0.585512 0.348906
v -4.614185 0.584375 0.349656
v -4.615917 0.585285 0.351271
v -4.615988 0.586647 0.350920
v -4.613828 0.585512 0.348906
v -4.615917 0.585285 0.351271
v -4.614312 0.586829 0.349023
v -4.613828 0.585512 0.348906
v -4.615988 0.586647 0.350920
v -4.615273 0.587334 0.349919
v -4.614312 0.586829 0.349023
v -4.615988 0.586647 0.350920
vn 0.7232 0.2075 0.6587
vn -0.3772 0.2032 -0.9036
vn -0.9595 0.1401 -0.2444
vn -0.7112 0.3787 -0.5922
vn -0.2088 -0.2546 -0.9442
vn -0.9595 0.1401 -0.2445
vn -0.3772 0.2031 -0.9036
vn -0.2088 -0.2545 -0.9443
vn -0.9349 -0.3331 -0.1224
vn -0.3329 -0.6496 -0.6835
vn -0.3329 -0.6495 -0.6836
vn -0.6561 -0.6845 -0.3178
vn 0.1328 -0.8588 -0.4948
vn 0.3337 -0.2193 -0.9168
vn -0.3330 -0.6495 -0.6835
vn -0.2089 -0.2545 -0.9442
vn 0.6610 -0.1551 -0.7341
vn 0.0611 0.5216 -0.8510
vn 0.3626 0.6558 -0.6621
vn 0.6610 -0.1552 -0.7342
vn 0.8924 -0.0688 -0.4459
vn 0.6113 0.6952 -0.3781
vn 0.3626 0.6558 -0.6622
vn -0.4798 0.8059 -0.3469
vn -0.2294 0.9671 -0.1103
vn -0.4798 0.8059 -0.3468
vn 0.6113 0.6953 -0.3780
vn 0.0536 0.9884 0.1418
vn -0.2294 0.9671 -0.1102
vn -0.8816 0.4196 0.2161
vn -0.6693 0.5442 0.5059
vn -0.4798 0.8060 -0.3468
vn -0.8816 0.4196 0.2160
vn 0.0537 0.9884 0.1419
vn -0.3608 0.5900 0.7223
vn 0.0536 0.9884 0.1419
vn -0.6693 0.5441 0.5060
vn -0.8419 -0.3465 0.4138
vn -0.6258 -0.2944 0.7223
vn -0.3607 0.5900 0.7223
vn -0.6257 -0.2944 0.7224
vn -0.3198 -0.1999 0.9262
vn -0.6693 0.5441 0.5059
vn -0.3905 -0.9154 0.0974
vn -0.1316 -0.9172 0.3761
vn -0.8418 -0.3465 0.4138
vn -0.3197 -0.1999 0.9262
vn 0.1457 -0.7867 0.5999
vn -0.1316 -0.9172 0.3760
vn 0.1327 -0.8589 -0.4947
vn 0.4410 -0.8552 -0.2722
vn -0.3904 -0.9155 0.0975
vn 0.1458 -0.7866 0.5999
vn 0.6852 -0.7283 -0.0107
vn 0.4411 -0.8552 -0.2722
vn 0.1328 -0.8588 -0.4947
vn 0.3336 -0.2193 -0.9168
vn 0.6852 -0.7282 -0.0107
vn 0.6610 -0.1551 -0.7342
vn 0.8924 -0.0688 -0.4460
vn 0.4410 -0.8552 -0.2721
vn 0.6413 -0.7643 -0.0668
vn 0.8538 -0.0881 -0.5131
vn 0.6414 -0.7643 -0.0668
vn -0.3892 -0.2226 0.8938
vn 0.1457 -0.7866 0.6000
vn 0.0882 -0.8242 0.5594
vn -0.3892 -0.2226 0.8939
vn -0.0063 0.9960 0.0896
vn -0.3608 0.5901 0.7223
vn -0.4312 0.5874 0.6848
vn 0.5656 0.6953 -0.4435
vn 0.0881 -0.8242 0.5593
vn 0.0881 -0.8242 0.5594
vn 0.5655 0.6953 -0.4435
vn -0.0063 0.9960 0.0897
vn 0.6113 0.6952 -0.3780
vn -0.6560 -0.6846 -0.3178
vn -0.7112 0.3788 -0.5922
vn 0.3337 -0.2192 -0.9168
vn -0.7113 0.3788 -0.5922
vn -0.3904 -0.9155 0.0974
vn 0.1327 -0.8588 -0.4947
vn 0.6747 -0.1514 -0.7224
vn 0.3762 0.6600 -0.6503
vn -0.1183 -0.9139 0.3884
vn 0.4546 -0.8519 -0.2601
vn -0.6563 0.5482 0.5184
vn -0.6127 -0.2907 0.7349
vn -0.4312 0.5875 0.6848
vn -0.2161 0.9714 -0.0982
vn 0.3761 0.6600 -0.6503
vn 0.4547 -0.8518 -0.2601
vn 0.4546 -0.8518 -0.2601
vn 0.0882 -0.8242 0.5593
vn -0.2161 0.9714 -0.0981
vn -0.6563 0.5483 0.5184
vn -0.2162 0.9714 -0.0981
vt 0.530319 0.611839
vt 0.522446 0.618118
vt 0.524872 0.613083
vt 0.524872 0.623154
vt 0.534683 0.615326
vt 0.530319 0.624397
vt 0.534683 0.620918
vt 0.537079 0.671494
vt 0.541916 0.669548
vt 0.539566 0.672157
vt 0.536179 0.669609
vt 0.539856 0.666756
vt 0.536224 0.667854
vt 0.537567 0.666748
vt 0.534592 0.666855
vt 0.534012 0.669838
vt 0.530777 0.669685
vt 0.535187 0.673050
vt 0.531769 0.674789
vt 0.525803 0.669067
vt 0.526108 0.676537
vt 0.539017 0.675606
vt 0.536011 0.680244
vt 0.529755 0.684982
vt 0.547180 0.674767
vt 0.546982 0.686485
vt 0.537415 0.696274
vt 0.547180 0.658051
vt 0.540527 0.663902
vt 0.539825 0.659698
vt 0.546280 0.665543
vt 0.543762 0.651657
vt 0.537613 0.655174
vt 0.536758 0.664742
vt 0.535126 0.661980
vt 0.532364 0.658463
vt 0.532074 0.665283
vt 0.528198 0.662933
vt 0.523743 0.660286
vt 0.519989 0.668175
vt 0.535217 0.651588
vt 0.529327 0.654999
vt 0.522873 0.688484
vt 0.528320 0.699394
vt 0.519577 0.678001
vt 0.540466 0.648293
vt 0.604446 0.642853
vt 0.626221 0.647896
vt 0.604553 0.648445
vt 0.626144 0.642670
vt 0.604553 0.631676
vt 0.626144 0.637444
vt 0.604446 0.637268
vt 0.626221 0.632225
vt 0.605011 0.620506
vt 0.626404 0.626999
vt 0.604736 0.626091
vt 0.626663 0.621780
vt 0.626404 0.653114
vt 0.604736 0.654030
vt 0.626663 0.658333
vt 0.605011 0.659607
s 0
usemtl decorations
f 240/1/1 239/2/1 238/3/1
f 237/1/1 236/4/1 235/2/1
f 234/5/1 233/4/1 232/1/1
f 231/5/1 230/6/1 229/4/1
f 228/6/1 227/5/1 226/7/1
s 1
f 225/8/2 224/9/3 223/10/4
f 222/11/5 221/9/6 220/8/7
f 219/11/8 218/12/9 217/9/3
f 216/13/10 215/12/9 214/11/8
f 213/12/9 212/13/11 211/14/12
f 210/15/13 209/11/8 208/16/14
f 207/15/13 206/13/15 205/11/16
f 204/17/17 203/18/18 202/19/19
f 201/17/20 200/16/14 199/18/18
f 198/20/21 197/19/19 196/21/22
f 195/20/21 194/17/20 193/19/23
f 192/19/19 191/22/24 190/23/25
f 189/19/19 188/18/18 187/22/26
f 186/21/27 185/23/25 184/24/28
f 183/21/27 3/19/19 182/23/25
f 181/23/29 180/25/30 179/26/31
f 178/23/25 177/22/32 176/25/33
f 175/24/34 174/26/31 173/27/35
f 172/24/36 4/23/29 171/26/31
f 170/28/37 169/29/38 168/30/39
f 167/28/37 166/31/30 165/29/38
f 164/32/40 163/30/41 162/33/42
f 161/32/40 13/28/43 160/30/39
f 159/30/39 158/34/44 157/35/45
f 156/30/39 155/29/46 154/34/44
f 153/33/47 152/35/45 151/36/48
f 150/33/47 14/30/39 149/35/45
f 148/35/49 147/15/50 146/37/51
f 145/35/49 144/34/52 143/15/50
f 142/36/53 141/37/51 140/38/54
f 139/36/53 16/35/49 138/37/55
f 137/37/55 136/16/14 135/17/20
f 134/37/51 133/15/56 132/16/57
f 131/38/58 130/17/59 129/20/60
f 128/38/58 36/37/61 25/17/59
f 127/39/62 126/20/21 125/40/63
f 124/39/64 123/38/54 122/20/21
f 121/41/65 120/36/66 119/42/67
f 118/41/68 117/33/47 116/36/66
f 115/43/69 114/27/70 113/44/71
f 112/43/69 111/24/36 110/27/70
f 109/40/63 108/21/22 107/45/72
f 106/40/63 40/20/21 105/21/22
f 104/42/73 103/38/54 102/39/62
f 101/42/74 41/36/66 42/38/54
f 100/46/71 99/33/42 98/41/68
f 97/46/71 37/32/35 38/33/42
f 96/45/75 95/24/28 94/43/76
f 93/45/72 33/21/77 34/24/28
f 92/29/46 91/14/12 90/34/44
f 89/29/46 88/12/9 87/14/78
f 86/22/26 85/9/6 84/25/33
f 83/22/26 82/10/79 81/9/6
f 80/16/80 79/8/7 78/18/18
f 29/16/80 30/11/5 77/8/7
f 76/31/30 75/12/9 28/29/38
f 31/31/30 26/9/6 27/12/9
f 74/18/18 73/10/81 24/22/26
f 21/18/18 22/8/7 23/10/4
f 72/34/82 71/13/11 20/15/83
f 17/34/82 18/14/12 19/13/15
f 70/47/84 69/48/72 68/49/85
f 67/47/84 66/50/63 65/48/72
f 64/51/86 63/52/62 62/53/87
f 61/51/86 60/54/67 59/52/62
f 58/55/88 57/56/68 56/57/89
f 55/55/88 54/58/90 53/56/68
f 52/49/85 51/59/69 50/60/91
f 2/49/92 32/48/72 49/59/69
f 48/53/93 47/50/63 12/47/84
f 9/53/94 10/52/62 11/50/63
f 46/57/89 45/54/95 8/51/86
f 5/57/89 6/56/68 7/54/67
f 44/60/96 43/61/90 15/62/97
f 1/60/98 35/59/69 39/61/90
