# Blender 5.0.0
# www.blender.org
mtllib Circle_002_Circle_Dupli_67_decorations_0.mtl
o Circle.002|Circle|Dupli|67_decorations_0
v -4.522804 2.133215 0.682336
v -4.521935 2.132331 0.683004
v -4.518235 2.138230 0.686627
v -4.519476 2.139491 0.685674
v -4.521646 2.133568 0.680106
v -4.518915 2.137770 0.682283
v -4.517835 2.137026 0.682393
v -4.520491 2.132771 0.680223
v -4.520080 2.131976 0.681309
v -4.517450 2.136282 0.683408
v -4.518050 2.136098 0.684565
v -4.520722 2.131779 0.682547
v -4.519293 2.140277 0.683833
v -4.517825 2.139995 0.682491
v -4.522676 2.133765 0.681047
v -4.516176 2.138859 0.682658
v -4.515713 2.139994 0.683557
v -4.515621 2.140761 0.684452
v -4.515309 2.140158 0.685275
v -4.515235 2.139070 0.684818
v -4.517388 2.139482 0.686786
v -4.516714 2.140427 0.686560
v -4.517373 2.141097 0.686054
v -4.518398 2.140508 0.686011
v -4.516505 2.137444 0.685974
v -4.517276 2.141514 0.685076
v -4.516496 2.141365 0.684364
v -4.517055 2.140918 0.683421
v -4.515981 2.138842 0.686255
v -4.515795 2.140010 0.686213
v -4.518250 2.141147 0.684513
v -4.519184 2.136614 0.684993
v -4.518886 2.137161 0.685774
v -4.519960 2.138252 0.684950
v -4.519997 2.137440 0.684368
v -4.515589 2.137723 0.684208
v -4.519802 2.138932 0.683357
v -4.518530 2.138689 0.682195
v -4.519877 2.137955 0.683163
v -4.517388 2.136480 0.685210
v -4.517103 2.137705 0.682339
v -4.516595 2.136722 0.683681
v -4.519877 2.137955 0.683163
v -4.522804 2.133215 0.682336
v -4.517835 2.137026 0.682393
v -4.521646 2.133568 0.680106
v -4.518050 2.136098 0.684565
v -4.520080 2.131976 0.681309
v -4.519997 2.137440 0.684368
v -4.522804 2.133215 0.682336
v -4.519997 2.137440 0.684368
v -4.521935 2.132331 0.683004
v -4.518915 2.137770 0.682283
v -4.519877 2.137955 0.683163
v -4.522676 2.133765 0.681047
v -4.521646 2.133568 0.680106
v -4.518915 2.137770 0.682283
v -4.522676 2.133765 0.681047
v -4.517450 2.136282 0.683408
v -4.517835 2.137026 0.682393
v -4.520491 2.132771 0.680223
v -4.520080 2.131976 0.681309
v -4.517450 2.136282 0.683408
v -4.520491 2.132771 0.680223
v -4.519184 2.136614 0.684993
v -4.518050 2.136098 0.684565
v -4.520722 2.131779 0.682547
v -4.521935 2.132331 0.683004
v -4.519184 2.136614 0.684993
v -4.520722 2.131779 0.682547
v -4.515309 2.140158 0.685275
v -4.515713 2.139994 0.683557
v -4.517373 2.141097 0.686054
v -4.517388 2.139482 0.686786
v -4.516496 2.141365 0.684364
v -4.518250 2.141147 0.684513
v -4.516714 2.140427 0.686560
v -4.517388 2.139482 0.686786
v -4.516714 2.140427 0.686560
v -4.515981 2.138842 0.686255
v -4.517276 2.141514 0.685076
v -4.517373 2.141097 0.686054
v -4.518398 2.140508 0.686011
v -4.518250 2.141147 0.684513
v -4.517276 2.141514 0.685076
v -4.518398 2.140508 0.686011
v -4.515621 2.140761 0.684452
v -4.516496 2.141365 0.684364
v -4.517055 2.140918 0.683421
v -4.515713 2.139994 0.683557
v -4.515621 2.140761 0.684452
v -4.517055 2.140918 0.683421
v -4.519184 2.136614 0.684993
v -4.519997 2.137440 0.684368
v -4.519960 2.138252 0.684950
v -4.519184 2.136614 0.684993
v -4.519877 2.137955 0.683163
v -4.518915 2.137770 0.682283
v -4.518530 2.138689 0.682195
v -4.519877 2.137955 0.683163
v -4.517835 2.137026 0.682393
v -4.517450 2.136282 0.683408
v -4.516595 2.136722 0.683681
v -4.517835 2.137026 0.682393
v -4.518886 2.137161 0.685774
v -4.518050 2.136098 0.684565
v -4.519184 2.136614 0.684993
v -4.518886 2.137161 0.685774
v -4.518050 2.136098 0.684565
v -4.519802 2.138932 0.683357
v -4.519960 2.138252 0.684950
v -4.519997 2.137440 0.684368
v -4.519877 2.137955 0.683163
v -4.519802 2.138932 0.683357
v -4.519997 2.137440 0.684368
v -4.517103 2.137705 0.682339
v -4.518530 2.138689 0.682195
v -4.518915 2.137770 0.682283
v -4.517835 2.137026 0.682393
v -4.517103 2.137705 0.682339
v -4.518915 2.137770 0.682283
v -4.517388 2.136480 0.685210
v -4.516595 2.136722 0.683681
v -4.517450 2.136282 0.683408
v -4.518050 2.136098 0.684565
v -4.517388 2.136480 0.685210
v -4.517450 2.136282 0.683408
v -4.516595 2.136722 0.683681
v -4.517388 2.136480 0.685210
v -4.516505 2.137444 0.685974
v -4.516595 2.136722 0.683681
v -4.515981 2.138842 0.686255
v -4.515235 2.139070 0.684818
v -4.515589 2.137723 0.684208
v -4.516505 2.137444 0.685974
v -4.515981 2.138842 0.686255
v -4.515589 2.137723 0.684208
v -4.515589 2.137723 0.684208
v -4.517103 2.137705 0.682339
v -4.516595 2.136722 0.683681
v -4.515589 2.137723 0.684208
v -4.517103 2.137705 0.682339
v -4.515235 2.139070 0.684818
v -4.515713 2.139994 0.683557
v -4.516176 2.138859 0.682658
v -4.515589 2.137723 0.684208
v -4.515235 2.139070 0.684818
v -4.516176 2.138859 0.682658
v -4.516176 2.138859 0.682658
v -4.518530 2.138689 0.682195
v -4.517103 2.137705 0.682339
v -4.516176 2.138859 0.682658
v -4.518530 2.138689 0.682195
v -4.515713 2.139994 0.683557
v -4.517055 2.140918 0.683421
v -4.517825 2.139995 0.682491
v -4.516176 2.138859 0.682658
v -4.515713 2.139994 0.683557
v -4.517825 2.139995 0.682491
v -4.517825 2.139995 0.682491
v -4.519802 2.138932 0.683357
v -4.518530 2.138689 0.682195
v -4.517825 2.139995 0.682491
v -4.519802 2.138932 0.683357
v -4.517055 2.140918 0.683421
v -4.518250 2.141147 0.684513
v -4.519293 2.140277 0.683833
v -4.517825 2.139995 0.682491
v -4.517055 2.140918 0.683421
v -4.519293 2.140277 0.683833
v -4.519293 2.140277 0.683833
v -4.519960 2.138252 0.684950
v -4.519802 2.138932 0.683357
v -4.519293 2.140277 0.683833
v -4.519960 2.138252 0.684950
v -4.518250 2.141147 0.684513
v -4.518398 2.140508 0.686011
v -4.519476 2.139491 0.685674
v -4.519293 2.140277 0.683833
v -4.518250 2.141147 0.684513
v -4.519476 2.139491 0.685674
v -4.519476 2.139491 0.685674
v -4.518886 2.137161 0.685774
v -4.519960 2.138252 0.684950
v -4.519476 2.139491 0.685674
v -4.518886 2.137161 0.685774
v -4.518398 2.140508 0.686011
v -4.517388 2.139482 0.686786
v -4.518235 2.138230 0.686627
v -4.519476 2.139491 0.685674
v -4.518398 2.140508 0.686011
v -4.518235 2.138230 0.686627
v -4.518235 2.138230 0.686627
v -4.516505 2.137444 0.685974
v -4.517388 2.136480 0.685210
v -4.518886 2.137161 0.685774
v -4.518235 2.138230 0.686627
v -4.517388 2.136480 0.685210
v -4.517388 2.139482 0.686786
v -4.515981 2.138842 0.686255
v -4.516505 2.137444 0.685974
v -4.518235 2.138230 0.686627
v -4.517388 2.139482 0.686786
v -4.516505 2.137444 0.685974
v -4.515795 2.140010 0.686213
v -4.515309 2.140158 0.685275
v -4.515235 2.139070 0.684818
v -4.515981 2.138842 0.686255
v -4.515795 2.140010 0.686213
v -4.515235 2.139070 0.684818
v -4.515621 2.140761 0.684452
v -4.515309 2.140158 0.685275
v -4.516496 2.141365 0.684364
v -4.515795 2.140010 0.686213
v -4.516496 2.141365 0.684364
v -4.515309 2.140158 0.685275
v -4.517276 2.141514 0.685076
v -4.516496 2.141365 0.684364
v -4.515795 2.140010 0.686213
v -4.516714 2.140427 0.686560
v -4.517276 2.141514 0.685076
v -4.515795 2.140010 0.686213
v -4.517373 2.141097 0.686054
v -4.517276 2.141514 0.685076
v -4.516714 2.140427 0.686560
v -4.520491 2.132771 0.680223
v -4.521646 2.133568 0.680106
v -4.520080 2.131976 0.681309
v -4.520722 2.131779 0.682547
v -4.520080 2.131976 0.681309
v -4.521646 2.133568 0.680106
v -4.522676 2.133765 0.681047
v -4.520722 2.131779 0.682547
v -4.521646 2.133568 0.680106
v -4.521935 2.132331 0.683004
v -4.520722 2.131779 0.682547
v -4.522676 2.133765 0.681047
v -4.522804 2.133215 0.682336
v -4.521935 2.132331 0.683004
v -4.522676 2.133765 0.681047
vn -0.4980 -0.7786 -0.3818
vn 0.2530 0.4897 0.8343
vn -0.0046 0.9880 0.1541
vn -0.0491 0.7967 0.6023
vn 0.6744 0.2981 0.6755
vn 0.2531 0.4897 0.8344
vn 0.6743 0.2981 0.6756
vn 0.3531 0.9195 -0.1727
vn 0.8976 0.3662 0.2454
vn 0.8976 0.3662 0.2455
vn 0.7546 0.6428 -0.1321
vn 0.9905 -0.1303 0.0428
vn 0.6293 -0.2406 0.7390
vn 0.9905 -0.1304 0.0428
vn 0.8975 0.3663 0.2454
vn 0.6744 0.2982 0.6755
vn 0.4851 -0.5818 0.6528
vn -0.0529 0.0695 0.9962
vn -0.2615 -0.2423 0.9343
vn 0.6292 -0.2406 0.7391
vn -0.0528 0.0696 0.9962
vn 0.2712 -0.8385 0.4726
vn -0.4321 -0.5186 0.7378
vn -0.2615 -0.2422 0.9343
vn -0.5420 0.5667 0.6205
vn -0.7970 0.3019 0.5231
vn -0.0529 0.0696 0.9962
vn -0.5421 0.5667 0.6205
vn -0.4322 -0.5186 0.7377
vn -0.9366 -0.0060 0.3504
vn -0.4701 0.8763 -0.1051
vn -0.7182 0.6408 -0.2712
vn -0.4700 0.8764 -0.1050
vn -0.9366 -0.0061 0.3504
vn -0.8623 0.3133 -0.3978
vn 0.1090 0.7654 -0.6342
vn -0.0844 0.5195 -0.8503
vn -0.4701 0.8764 -0.1051
vn 0.1090 0.7655 -0.6342
vn -0.8623 0.3133 -0.3979
vn -0.0844 0.5194 -0.8503
vn -0.2652 0.1990 -0.9434
vn 0.7590 0.3175 -0.5684
vn 0.6272 0.0290 -0.7783
vn -0.2652 0.1989 -0.9435
vn 0.4051 -0.2630 -0.8756
vn 0.9906 -0.1303 0.0427
vn 0.8806 -0.4611 -0.1093
vn 0.7590 0.3174 -0.5684
vn 0.4051 -0.2631 -0.8756
vn 0.6439 -0.7247 -0.2454
vn 0.6292 -0.2406 0.7390
vn 0.8806 -0.4610 -0.1093
vn 0.6438 -0.7248 -0.2454
vn 0.2713 -0.8385 0.4726
vn 0.8806 -0.4610 -0.1094
vn 0.7024 -0.6772 -0.2192
vn 0.3203 -0.7938 0.5170
vn 0.7024 -0.6772 -0.2193
vn 0.6438 -0.7247 -0.2454
vn -0.2297 0.2700 -0.9351
vn 0.4576 -0.2038 -0.8655
vn -0.9182 0.0598 0.3916
vn -0.8420 0.3872 -0.3756
vn 0.3204 -0.7938 0.5170
vn -0.4009 -0.4659 0.7888
vn 0.4576 -0.2037 -0.8655
vn -0.8420 0.3873 -0.3756
vn -0.2653 0.1989 -0.9434
vn -0.2297 0.2699 -0.9351
vn -0.4009 -0.4658 0.7889
vn 0.7546 0.6428 -0.1320
vn 0.1090 0.7654 -0.6343
vn 0.2531 0.4897 0.8343
vn -0.4700 0.8764 -0.1051
vn 0.7591 0.3174 -0.5684
vn 0.8976 0.3663 0.2455
vn 0.8976 0.3663 0.2454
vn 0.4761 -0.5965 0.6461
vn -0.2708 -0.2568 0.9277
vn 0.4762 -0.5965 0.6462
vn 0.6183 0.0146 -0.7858
vn 0.8719 -0.4757 -0.1165
vn 0.6184 0.0146 -0.7858
vn -0.7277 0.6268 -0.2784
vn -0.0937 0.5053 -0.8578
vn -0.2709 -0.2568 0.9277
vn -0.9182 0.0598 0.3917
vn -0.8066 0.2876 0.5164
vn -0.2709 -0.2567 0.9277
vn 0.4762 -0.5965 0.6461
vn 0.8719 -0.4757 -0.1164
vn -0.0936 0.5053 -0.8578
vn -0.8067 0.2876 0.5163
vn -0.7278 0.6268 -0.2784
vn -0.8066 0.2876 0.5163
vt 0.543243 0.611839
vt 0.535370 0.618118
vt 0.537796 0.613083
vt 0.537796 0.623154
vt 0.547607 0.615326
vt 0.543243 0.624397
vt 0.547607 0.620918
vt 0.565384 0.671494
vt 0.570206 0.669548
vt 0.567856 0.672157
vt 0.564468 0.669609
vt 0.568146 0.666756
vt 0.564514 0.667854
vt 0.565857 0.666748
vt 0.562897 0.666855
vt 0.562302 0.669838
vt 0.559082 0.669685
vt 0.563492 0.673050
vt 0.560059 0.674789
vt 0.554092 0.669067
vt 0.554398 0.676537
vt 0.567307 0.675606
vt 0.564316 0.680244
vt 0.558044 0.684982
vt 0.575485 0.674767
vt 0.575272 0.686485
vt 0.565720 0.696274
vt 0.575485 0.658051
vt 0.568817 0.663902
vt 0.568115 0.659698
vt 0.574570 0.665543
vt 0.572052 0.651657
vt 0.565903 0.655174
vt 0.565063 0.664742
vt 0.563416 0.661980
vt 0.560669 0.658463
vt 0.560364 0.665283
vt 0.556488 0.662933
vt 0.552032 0.660286
vt 0.548294 0.668175
vt 0.563522 0.651588
vt 0.557617 0.654999
vt 0.551163 0.688484
vt 0.556610 0.699394
vt 0.547867 0.678001
vt 0.568756 0.648293
vt 0.604446 0.682632
vt 0.626221 0.687675
vt 0.604553 0.688225
vt 0.626144 0.682457
vt 0.604553 0.671455
vt 0.626144 0.677231
vt 0.604446 0.677048
vt 0.626221 0.672005
vt 0.605011 0.660294
vt 0.626404 0.666786
vt 0.604736 0.665871
vt 0.626663 0.661568
vt 0.626404 0.692902
vt 0.604736 0.693810
vt 0.626663 0.698120
vt 0.605011 0.699394
s 0
usemtl decorations
f 240/1/1 239/2/1 238/3/1
f 237/1/1 236/4/1 235/2/1
f 234/5/1 233/4/1 232/1/1
f 231/5/1 230/6/1 229/4/1
f 228/6/1 227/5/1 226/7/1
s 1
f 225/8/2 224/9/3 223/10/4
f 222/11/5 221/9/3 220/8/6
f 219/11/7 218/12/8 217/9/3
f 216/13/9 215/12/8 214/11/5
f 213/12/8 212/13/10 211/14/11
f 210/15/12 209/11/5 208/16/13
f 207/15/14 206/13/15 205/11/16
f 204/17/17 203/18/18 202/19/19
f 201/17/17 200/16/20 199/18/21
f 198/20/22 197/19/19 196/21/23
f 195/20/22 194/17/17 193/19/24
f 192/19/19 191/22/25 190/23/26
f 189/19/19 188/18/27 187/22/28
f 186/21/29 185/23/26 184/24/30
f 183/21/29 3/19/19 182/23/26
f 181/23/26 180/25/31 179/26/32
f 178/23/26 177/22/28 176/25/33
f 175/24/34 174/26/32 173/27/35
f 172/24/34 4/23/26 171/26/32
f 170/28/32 169/29/36 168/30/37
f 167/28/32 166/31/38 165/29/39
f 164/32/40 163/30/41 162/33/42
f 161/32/40 13/28/32 160/30/37
f 159/30/37 158/34/43 157/35/44
f 156/30/37 155/29/36 154/34/43
f 153/33/45 152/35/44 151/36/46
f 150/33/45 14/30/41 149/35/44
f 148/35/44 147/15/47 146/37/48
f 145/35/44 144/34/49 143/15/47
f 142/36/50 141/37/48 140/38/51
f 139/36/50 16/35/44 138/37/48
f 137/37/48 136/16/52 135/17/17
f 134/37/53 133/15/47 132/16/13
f 131/38/54 130/17/17 129/20/55
f 128/38/54 36/37/56 25/17/17
f 127/39/57 126/20/55 125/40/58
f 124/39/59 123/38/60 122/20/55
f 121/41/61 120/36/46 119/42/62
f 118/41/61 117/33/45 116/36/46
f 115/43/63 114/27/35 113/44/64
f 112/43/63 111/24/30 110/27/35
f 109/40/65 108/21/23 107/45/66
f 106/40/65 40/20/22 105/21/23
f 104/42/67 103/38/60 102/39/59
f 101/42/67 41/36/50 42/38/60
f 100/46/68 99/33/69 98/41/70
f 97/46/68 37/32/40 38/33/69
f 96/45/71 95/24/30 94/43/63
f 93/45/71 33/21/23 34/24/30
f 92/29/36 91/14/72 90/34/43
f 89/29/73 88/12/8 87/14/11
f 86/22/28 85/9/3 84/25/38
f 83/22/28 82/10/4 81/9/3
f 80/16/20 79/8/74 78/18/21
f 29/16/20 30/11/5 77/8/74
f 76/31/75 75/12/8 28/29/39
f 31/31/75 26/9/3 27/12/8
f 74/18/18 73/10/4 24/22/28
f 21/18/18 22/8/74 23/10/4
f 72/34/76 71/13/77 20/15/47
f 17/34/76 18/14/72 19/13/78
f 70/47/79 69/48/71 68/49/80
f 67/47/81 66/50/58 65/48/71
f 64/51/82 63/52/59 62/53/83
f 61/51/84 60/54/62 59/52/59
f 58/55/85 57/56/61 56/57/86
f 55/55/85 54/58/64 53/56/70
f 52/49/87 51/59/88 50/60/89
f 2/49/90 32/48/71 49/59/88
f 48/53/83 47/50/58 12/47/91
f 9/53/92 10/52/59 11/50/58
f 46/57/93 45/54/62 8/51/82
f 5/57/93 6/56/61 7/54/62
f 44/60/94 43/61/68 15/62/95
f 1/60/96 35/59/63 39/61/68
