# Blender 5.0.0
# www.blender.org
mtllib Circle_002_Circle_Dupli_47_decorations_0.mtl
o Circle.002|Circle|Dupli|47_decorations_0
v -4.226339 1.040333 0.569605
v -4.226598 1.039976 0.568268
v -4.231190 1.046246 0.567165
v -4.230820 1.046756 0.569073
v -4.228082 1.039010 0.570891
v -4.231543 1.043204 0.570354
v -4.232187 1.042565 0.569400
v -4.228771 1.038326 0.569872
v -4.228549 1.038366 0.568482
v -4.231979 1.042602 0.568101
v -4.231075 1.043289 0.567434
v -4.227582 1.039100 0.567768
v -4.231762 1.046142 0.570739
v -4.233306 1.044868 0.570908
v -4.226999 1.039903 0.570773
v -4.234290 1.043892 0.569453
v -4.234900 1.045261 0.569205
v -4.235042 1.046402 0.568928
v -4.234873 1.046433 0.567874
v -4.234642 1.045308 0.567591
v -4.232378 1.047177 0.567344
v -4.233396 1.047652 0.567713
v -4.233199 1.047923 0.568726
v -4.232077 1.047592 0.568896
v -4.232593 1.044997 0.566452
v -4.233699 1.047598 0.569611
v -4.234519 1.046921 0.569700
v -4.234099 1.046056 0.570389
v -4.233519 1.046160 0.566763
v -4.234140 1.046989 0.567334
v -4.232843 1.047093 0.570252
v -4.230156 1.044107 0.567901
v -4.230426 1.044981 0.567498
v -4.230106 1.045422 0.569149
v -4.229914 1.044441 0.569152
v -4.233972 1.043949 0.567470
v -4.230921 1.044892 0.570591
v -4.232258 1.043788 0.570737
v -4.230531 1.044040 0.570243
v -4.231640 1.043900 0.566880
v -4.233109 1.042944 0.569478
v -4.232834 1.042993 0.567761
v -4.230531 1.044040 0.570243
v -4.226339 1.040333 0.569605
v -4.232187 1.042565 0.569400
v -4.228082 1.039010 0.570891
v -4.231075 1.043289 0.567434
v -4.228549 1.038366 0.568482
v -4.229914 1.044441 0.569152
v -4.226339 1.040333 0.569605
v -4.229914 1.044441 0.569152
v -4.226598 1.039976 0.568268
v -4.231543 1.043204 0.570354
v -4.230531 1.044040 0.570243
v -4.226999 1.039903 0.570773
v -4.228082 1.039010 0.570891
v -4.231543 1.043204 0.570354
v -4.226999 1.039903 0.570773
v -4.231979 1.042602 0.568101
v -4.232187 1.042565 0.569400
v -4.228771 1.038326 0.569872
v -4.228549 1.038366 0.568482
v -4.231979 1.042602 0.568101
v -4.228771 1.038326 0.569872
v -4.230156 1.044107 0.567901
v -4.231075 1.043289 0.567434
v -4.227582 1.039100 0.567768
v -4.226598 1.039976 0.568268
v -4.230156 1.044107 0.567901
v -4.227582 1.039100 0.567768
v -4.234873 1.046433 0.567874
v -4.234900 1.045261 0.569205
v -4.233199 1.047923 0.568726
v -4.232378 1.047177 0.567344
v -4.234519 1.046921 0.569700
v -4.232843 1.047093 0.570252
v -4.233396 1.047652 0.567713
v -4.232378 1.047177 0.567344
v -4.233396 1.047652 0.567713
v -4.233519 1.046160 0.566763
v -4.233699 1.047598 0.569611
v -4.233199 1.047923 0.568726
v -4.232077 1.047592 0.568896
v -4.232843 1.047093 0.570252
v -4.233699 1.047598 0.569611
v -4.232077 1.047592 0.568896
v -4.235042 1.046402 0.568928
v -4.234519 1.046921 0.569700
v -4.234099 1.046056 0.570389
v -4.234900 1.045261 0.569205
v -4.235042 1.046402 0.568928
v -4.234099 1.046056 0.570389
v -4.230156 1.044107 0.567901
v -4.229914 1.044441 0.569152
v -4.230106 1.045422 0.569149
v -4.230156 1.044107 0.567901
v -4.230531 1.044040 0.570243
v -4.231543 1.043204 0.570354
v -4.232258 1.043788 0.570737
v -4.230531 1.044040 0.570243
v -4.232187 1.042565 0.569400
v -4.231979 1.042602 0.568101
v -4.232834 1.042993 0.567761
v -4.232187 1.042565 0.569400
v -4.230426 1.044981 0.567498
v -4.231075 1.043289 0.567434
v -4.230156 1.044107 0.567901
v -4.230426 1.044981 0.567498
v -4.231075 1.043289 0.567434
v -4.230921 1.044892 0.570591
v -4.230106 1.045422 0.569149
v -4.229914 1.044441 0.569152
v -4.230531 1.044040 0.570243
v -4.230921 1.044892 0.570591
v -4.229914 1.044441 0.569152
v -4.233109 1.042944 0.569478
v -4.232258 1.043788 0.570737
v -4.231543 1.043204 0.570354
v -4.232187 1.042565 0.569400
v -4.233109 1.042944 0.569478
v -4.231543 1.043204 0.570354
v -4.231640 1.043900 0.566880
v -4.232834 1.042993 0.567761
v -4.231979 1.042602 0.568101
v -4.231075 1.043289 0.567434
v -4.231640 1.043900 0.566880
v -4.231979 1.042602 0.568101
v -4.232834 1.042993 0.567761
v -4.231640 1.043900 0.566880
v -4.232593 1.044997 0.566452
v -4.232834 1.042993 0.567761
v -4.233519 1.046160 0.566763
v -4.234642 1.045308 0.567591
v -4.233972 1.043949 0.567470
v -4.232593 1.044997 0.566452
v -4.233519 1.046160 0.566763
v -4.233972 1.043949 0.567470
v -4.233972 1.043949 0.567470
v -4.233109 1.042944 0.569478
v -4.232834 1.042993 0.567761
v -4.233972 1.043949 0.567470
v -4.233109 1.042944 0.569478
v -4.234642 1.045308 0.567591
v -4.234900 1.045261 0.569205
v -4.234290 1.043892 0.569453
v -4.233972 1.043949 0.567470
v -4.234642 1.045308 0.567591
v -4.234290 1.043892 0.569453
v -4.234290 1.043892 0.569453
v -4.232258 1.043788 0.570737
v -4.233109 1.042944 0.569478
v -4.234290 1.043892 0.569453
v -4.232258 1.043788 0.570737
v -4.234900 1.045261 0.569205
v -4.234099 1.046056 0.570389
v -4.233306 1.044868 0.570908
v -4.234290 1.043892 0.569453
v -4.234900 1.045261 0.569205
v -4.233306 1.044868 0.570908
v -4.233306 1.044868 0.570908
v -4.230921 1.044892 0.570591
v -4.232258 1.043788 0.570737
v -4.233306 1.044868 0.570908
v -4.230921 1.044892 0.570591
v -4.234099 1.046056 0.570389
v -4.232843 1.047093 0.570252
v -4.231762 1.046142 0.570739
v -4.233306 1.044868 0.570908
v -4.234099 1.046056 0.570389
v -4.231762 1.046142 0.570739
v -4.231762 1.046142 0.570739
v -4.230106 1.045422 0.569149
v -4.230921 1.044892 0.570591
v -4.231762 1.046142 0.570739
v -4.230106 1.045422 0.569149
v -4.232843 1.047093 0.570252
v -4.232077 1.047592 0.568896
v -4.230820 1.046756 0.569073
v -4.231762 1.046142 0.570739
v -4.232843 1.047093 0.570252
v -4.230820 1.046756 0.569073
v -4.230820 1.046756 0.569073
v -4.230426 1.044981 0.567498
v -4.230106 1.045422 0.569149
v -4.230820 1.046756 0.569073
v -4.230426 1.044981 0.567498
v -4.232077 1.047592 0.568896
v -4.232378 1.047177 0.567344
v -4.231190 1.046246 0.567165
v -4.230820 1.046756 0.569073
v -4.232077 1.047592 0.568896
v -4.231190 1.046246 0.567165
v -4.231190 1.046246 0.567165
v -4.232593 1.044997 0.566452
v -4.231640 1.043900 0.566880
v -4.230426 1.044981 0.567498
v -4.231190 1.046246 0.567165
v -4.231640 1.043900 0.566880
v -4.232378 1.047177 0.567344
v -4.233519 1.046160 0.566763
v -4.232593 1.044997 0.566452
v -4.231190 1.046246 0.567165
v -4.232378 1.047177 0.567344
v -4.232593 1.044997 0.566452
v -4.234140 1.046989 0.567334
v -4.234873 1.046433 0.567874
v -4.234642 1.045308 0.567591
v -4.233519 1.046160 0.566763
v -4.234140 1.046989 0.567334
v -4.234642 1.045308 0.567591
v -4.235042 1.046402 0.568928
v -4.234873 1.046433 0.567874
v -4.234519 1.046921 0.569700
v -4.234140 1.046989 0.567334
v -4.234519 1.046921 0.569700
v -4.234873 1.046433 0.567874
v -4.233699 1.047598 0.569611
v -4.234519 1.046921 0.569700
v -4.234140 1.046989 0.567334
v -4.233396 1.047652 0.567713
v -4.233699 1.047598 0.569611
v -4.234140 1.046989 0.567334
v -4.233199 1.047923 0.568726
v -4.233699 1.047598 0.569611
v -4.233396 1.047652 0.567713
v -4.228771 1.038326 0.569872
v -4.228082 1.039010 0.570891
v -4.228549 1.038366 0.568482
v -4.227582 1.039100 0.567768
v -4.228549 1.038366 0.568482
v -4.228082 1.039010 0.570891
v -4.226999 1.039903 0.570773
v -4.227582 1.039100 0.567768
v -4.228082 1.039010 0.570891
v -4.226598 1.039976 0.568268
v -4.227582 1.039100 0.567768
v -4.226999 1.039903 0.570773
v -4.226339 1.040333 0.569605
v -4.226598 1.039976 0.568268
v -4.226999 1.039903 0.570773
vn 0.6397 -0.7644 0.0804
vn -0.1942 0.8703 -0.4526
vn -0.3336 0.8451 0.4177
vn -0.1042 0.9945 0.0120
vn -0.5358 0.5661 -0.6264
vn -0.3335 0.8452 0.4177
vn -0.5358 0.5662 -0.6264
vn -0.7096 0.5348 0.4588
vn -0.8718 0.3110 -0.3785
vn -0.9491 0.2971 0.1044
vn -0.8172 -0.2065 -0.5382
vn -0.2733 0.2065 -0.9395
vn -0.8171 -0.2065 -0.5382
vn -0.0374 -0.0866 -0.9955
vn 0.2799 0.6989 -0.6582
vn 0.5679 0.4525 -0.6876
vn -0.0375 -0.0866 -0.9955
vn -0.2732 0.2065 -0.9395
vn 0.2798 0.6989 -0.6582
vn 0.2033 -0.3667 -0.9079
vn 0.5679 0.4525 -0.6875
vn 0.7736 0.1412 -0.6177
vn 0.4256 0.9000 0.0941
vn 0.7275 0.6726 0.1359
vn 0.2799 0.6989 -0.6581
vn 0.7737 0.1411 -0.6177
vn 0.7274 0.6726 0.1358
vn 0.9239 0.3485 0.1580
vn 0.0543 0.6583 0.7508
vn 0.3210 0.4080 0.8547
vn 0.0542 0.6583 0.7508
vn 0.9239 0.3484 0.1580
vn 0.3210 0.4079 0.8547
vn 0.5410 0.0992 0.8352
vn -0.5545 0.1558 0.8174
vn -0.3454 -0.1420 0.9276
vn -0.5546 0.1558 0.8174
vn -0.3454 -0.1421 0.9276
vn -0.0868 -0.4189 0.9039
vn -0.9424 -0.2290 0.2438
vn -0.7699 -0.5634 0.2997
vn -0.0868 -0.4190 0.9038
vn -0.4867 -0.8158 0.3123
vn -0.8172 -0.2065 -0.5381
vn -0.6329 -0.5387 -0.5562
vn -0.9424 -0.2291 0.2438
vn -0.3576 -0.7925 -0.4939
vn -0.6328 -0.5387 -0.5562
vn -0.6329 -0.5386 -0.5562
vn -0.3576 -0.7926 -0.4939
vn 0.2033 -0.3666 -0.9079
vn -0.4209 -0.7479 -0.5134
vn 0.1543 -0.3112 -0.9377
vn -0.4209 -0.7479 -0.5133
vn -0.3576 -0.7925 -0.4940
vn -0.1432 -0.3648 0.9200
vn -0.4867 -0.8158 0.3124
vn -0.5533 -0.7718 0.3135
vn -0.0867 -0.4190 0.9038
vn 0.8931 0.4221 0.1552
vn 0.5005 0.1665 0.8496
vn 0.8932 0.4221 0.1552
vn 0.1542 -0.3112 -0.9378
vn 0.7736 0.1411 -0.6177
vn 0.7391 0.2095 -0.6402
vn 0.2033 -0.3667 -0.9078
vn -0.5533 -0.7717 0.3135
vn 0.7390 0.2095 -0.6402
vn -0.5546 0.1557 0.8174
vn -0.9491 0.2971 0.1045
vn -0.9491 0.2970 0.1044
vn 0.4255 0.9000 0.0941
vn -0.3336 0.8452 0.4177
vn -0.1041 0.9945 0.0120
vn -0.3336 0.8452 0.4176
vn -0.0256 -0.1007 -0.9946
vn 0.7390 0.2095 -0.6403
vn 0.5800 0.4386 -0.6864
vn -0.0257 -0.1007 -0.9946
vn 0.1542 -0.3112 -0.9377
vn -0.7585 -0.5778 0.3013
vn -0.6214 -0.5531 -0.5549
vn -0.5533 -0.7718 0.3134
vn 0.3329 0.3940 0.8567
vn -0.1433 -0.3648 0.9200
vn -0.3337 -0.1562 0.9296
vn 0.5801 0.4386 -0.6864
vn 0.7397 0.6588 0.1374
vn -0.6214 -0.5531 -0.5550
vn 0.1543 -0.3112 -0.9378
vn -0.0257 -0.1008 -0.9946
vn -0.6214 -0.5530 -0.5550
vn -0.3337 -0.1563 0.9296
vn -0.7585 -0.5778 0.3014
vn -0.3338 -0.1562 0.9296
vn 0.5005 0.1666 0.8496
vn 0.3330 0.3940 0.8567
vt 0.543243 0.611839
vt 0.535370 0.618118
vt 0.537796 0.613083
vt 0.537796 0.623154
vt 0.547607 0.615326
vt 0.543243 0.624397
vt 0.547607 0.620918
vt 0.565384 0.671494
vt 0.570206 0.669548
vt 0.567856 0.672157
vt 0.564468 0.669609
vt 0.568146 0.666756
vt 0.564514 0.667854
vt 0.565857 0.666748
vt 0.562897 0.666855
vt 0.562302 0.669838
vt 0.559082 0.669685
vt 0.563492 0.673050
vt 0.560059 0.674789
vt 0.554092 0.669067
vt 0.554398 0.676537
vt 0.567307 0.675606
vt 0.564316 0.680244
vt 0.558044 0.684982
vt 0.575485 0.674767
vt 0.575272 0.686485
vt 0.565720 0.696274
vt 0.575485 0.658051
vt 0.568817 0.663902
vt 0.568115 0.659698
vt 0.574570 0.665543
vt 0.572052 0.651657
vt 0.565903 0.655174
vt 0.565063 0.664742
vt 0.563416 0.661980
vt 0.560669 0.658463
vt 0.560364 0.665283
vt 0.556488 0.662933
vt 0.552032 0.660286
vt 0.548294 0.668175
vt 0.563522 0.651588
vt 0.557617 0.654999
vt 0.551163 0.688484
vt 0.556610 0.699394
vt 0.547867 0.678001
vt 0.568756 0.648293
vt 0.604446 0.682632
vt 0.626221 0.687675
vt 0.604553 0.688225
vt 0.626144 0.682457
vt 0.604553 0.671455
vt 0.626144 0.677231
vt 0.604446 0.677048
vt 0.626221 0.672005
vt 0.605011 0.660294
vt 0.626404 0.666786
vt 0.604736 0.665871
vt 0.626663 0.661568
vt 0.626404 0.692902
vt 0.604736 0.693810
vt 0.626663 0.698120
vt 0.605011 0.699394
s 0
usemtl decorations
f 240/1/1 239/2/1 238/3/1
f 237/1/1 236/4/1 235/2/1
f 234/5/1 233/4/1 232/1/1
f 231/5/1 230/6/1 229/4/1
f 228/6/1 227/5/1 226/7/1
s 1
f 225/8/2 224/9/3 223/10/4
f 222/11/5 221/9/6 220/8/2
f 219/11/7 218/12/8 217/9/3
f 216/13/9 215/12/8 214/11/5
f 213/12/8 212/13/9 211/14/10
f 210/15/11 209/11/5 208/16/12
f 207/15/13 206/13/9 205/11/5
f 204/17/14 203/18/15 202/19/16
f 201/17/17 200/16/18 199/18/19
f 198/20/20 197/19/21 196/21/22
f 195/20/20 194/17/17 193/19/16
f 192/19/16 191/22/23 190/23/24
f 189/19/16 188/18/25 187/22/23
f 186/21/26 185/23/27 184/24/28
f 183/21/26 3/19/16 182/23/27
f 181/23/24 180/25/29 179/26/30
f 178/23/24 177/22/23 176/25/31
f 175/24/32 174/26/33 173/27/34
f 172/24/32 4/23/24 171/26/33
f 170/28/33 169/29/35 168/30/36
f 167/28/33 166/31/31 165/29/37
f 164/32/34 163/30/38 162/33/39
f 161/32/34 13/28/33 160/30/36
f 159/30/38 158/34/40 157/35/41
f 156/30/36 155/29/37 154/34/40
f 153/33/42 152/35/41 151/36/43
f 150/33/42 14/30/38 149/35/41
f 148/35/41 147/15/44 146/37/45
f 145/35/41 144/34/46 143/15/44
f 142/36/43 141/37/45 140/38/47
f 139/36/43 16/35/41 138/37/45
f 137/37/48 136/16/18 135/17/17
f 134/37/49 133/15/44 132/16/12
f 131/38/50 130/17/17 129/20/51
f 128/38/50 36/37/49 25/17/17
f 127/39/52 126/20/20 125/40/53
f 124/39/54 123/38/55 122/20/20
f 121/41/56 120/36/57 119/42/58
f 118/41/56 117/33/59 116/36/57
f 115/43/60 114/27/34 113/44/61
f 112/43/62 111/24/28 110/27/34
f 109/40/63 108/21/64 107/45/65
f 106/40/63 40/20/66 105/21/64
f 104/42/67 103/38/47 102/39/54
f 101/42/58 41/36/43 42/38/47
f 100/46/61 99/33/39 98/41/56
f 97/46/61 37/32/34 38/33/39
f 96/45/68 95/24/28 94/43/62
f 93/45/65 33/21/22 34/24/28
f 92/29/69 91/14/70 90/34/46
f 89/29/69 88/12/8 87/14/71
f 86/22/72 85/9/73 84/25/31
f 83/22/23 82/10/74 81/9/75
f 80/16/18 79/8/2 78/18/19
f 29/16/18 30/11/5 77/8/2
f 76/31/31 75/12/8 28/29/37
f 31/31/31 26/9/75 27/12/8
f 74/18/15 73/10/74 24/22/23
f 21/18/15 22/8/2 23/10/4
f 72/34/46 71/13/9 20/15/44
f 17/34/46 18/14/10 19/13/9
f 70/47/76 69/48/77 68/49/78
f 67/47/79 66/50/80 65/48/77
f 64/51/81 63/52/54 62/53/82
f 61/51/81 60/54/83 59/52/54
f 58/55/84 57/56/85 56/57/86
f 55/55/84 54/58/61 53/56/56
f 52/49/87 51/59/60 50/60/88
f 2/49/78 32/48/65 49/59/62
f 48/53/89 47/50/90 12/47/91
f 9/53/92 10/52/54 11/50/53
f 46/57/93 45/54/83 8/51/94
f 5/57/95 6/56/56 7/54/58
f 44/60/88 43/61/96 15/62/97
f 1/60/88 35/59/62 39/61/61
