# Blender 5.0.0
# www.blender.org
mtllib Circle_002_Circle_004_Dupli_132_decorations_0.mtl
o Circle.002|Circle.004|Dupli|132_decorations_0
v -4.723022 0.617336 0.597552
v -4.723961 0.616583 0.596821
v -4.729295 0.622330 0.597175
v -4.727955 0.623405 0.598217
v -4.723394 0.616546 0.599934
v -4.727149 0.620467 0.600560
v -4.728113 0.619580 0.600427
v -4.724425 0.615598 0.599793
v -4.725087 0.615189 0.598618
v -4.728731 0.619198 0.599330
v -4.728538 0.619608 0.598094
v -4.724880 0.615627 0.597296
v -4.727595 0.623382 0.600193
v -4.728486 0.622278 0.601616
v -4.722769 0.617320 0.598937
v -4.729958 0.620925 0.601414
v -4.730819 0.622165 0.601242
v -4.731292 0.623164 0.600820
v -4.731793 0.622854 0.599931
v -4.731587 0.621690 0.599879
v -4.730280 0.623309 0.597793
v -4.730940 0.623910 0.598569
v -4.730228 0.624481 0.599122
v -4.729189 0.624183 0.598641
v -4.730607 0.620967 0.597852
v -4.730037 0.624468 0.600172
v -4.730511 0.623882 0.600928
v -4.729622 0.623266 0.601407
v -4.731347 0.622199 0.598344
v -4.731637 0.623186 0.598929
v -4.728897 0.624164 0.600249
v -4.727679 0.620502 0.597650
v -4.728281 0.621211 0.597285
v -4.727121 0.622141 0.598187
v -4.726801 0.621206 0.598333
v -4.730901 0.620341 0.599738
v -4.726810 0.622121 0.599898
v -4.727581 0.621166 0.601130
v -4.726565 0.621190 0.599628
v -4.729416 0.620031 0.597871
v -4.728855 0.619994 0.600954
v -4.729671 0.619489 0.599504
v -4.726565 0.621190 0.599628
v -4.723022 0.617336 0.597552
v -4.728113 0.619580 0.600427
v -4.723394 0.616546 0.599934
v -4.728538 0.619608 0.598094
v -4.725087 0.615189 0.598618
v -4.726801 0.621206 0.598333
v -4.723022 0.617336 0.597552
v -4.726801 0.621206 0.598333
v -4.723961 0.616583 0.596821
v -4.727149 0.620467 0.600560
v -4.726565 0.621190 0.599628
v -4.722769 0.617320 0.598937
v -4.723394 0.616546 0.599934
v -4.727149 0.620467 0.600560
v -4.722769 0.617320 0.598937
v -4.728731 0.619198 0.599330
v -4.728113 0.619580 0.600427
v -4.724425 0.615598 0.599793
v -4.725087 0.615189 0.598618
v -4.728731 0.619198 0.599330
v -4.724425 0.615598 0.599793
v -4.727679 0.620502 0.597650
v -4.728538 0.619608 0.598094
v -4.724880 0.615627 0.597296
v -4.723961 0.616583 0.596821
v -4.727679 0.620502 0.597650
v -4.724880 0.615627 0.597296
v -4.731793 0.622854 0.599931
v -4.730819 0.622165 0.601242
v -4.730228 0.624481 0.599122
v -4.730280 0.623309 0.597793
v -4.730511 0.623882 0.600928
v -4.728897 0.624164 0.600249
v -4.730940 0.623910 0.598569
v -4.730280 0.623309 0.597793
v -4.730940 0.623910 0.598569
v -4.731347 0.622199 0.598344
v -4.730037 0.624468 0.600172
v -4.730228 0.624481 0.599122
v -4.729189 0.624183 0.598641
v -4.728897 0.624164 0.600249
v -4.730037 0.624468 0.600172
v -4.729189 0.624183 0.598641
v -4.731292 0.623164 0.600820
v -4.730511 0.623882 0.600928
v -4.729622 0.623266 0.601407
v -4.730819 0.622165 0.601242
v -4.731292 0.623164 0.600820
v -4.729622 0.623266 0.601407
v -4.727679 0.620502 0.597650
v -4.726801 0.621206 0.598333
v -4.727121 0.622141 0.598187
v -4.727679 0.620502 0.597650
v -4.726565 0.621190 0.599628
v -4.727149 0.620467 0.600560
v -4.727581 0.621166 0.601130
v -4.726565 0.621190 0.599628
v -4.728113 0.619580 0.600427
v -4.728731 0.619198 0.599330
v -4.729671 0.619489 0.599504
v -4.728113 0.619580 0.600427
v -4.728281 0.621211 0.597285
v -4.728538 0.619608 0.598094
v -4.727679 0.620502 0.597650
v -4.728281 0.621211 0.597285
v -4.728538 0.619608 0.598094
v -4.726810 0.622121 0.599898
v -4.727121 0.622141 0.598187
v -4.726801 0.621206 0.598333
v -4.726565 0.621190 0.599628
v -4.726810 0.622121 0.599898
v -4.726801 0.621206 0.598333
v -4.728855 0.619994 0.600954
v -4.727581 0.621166 0.601130
v -4.727149 0.620467 0.600560
v -4.728113 0.619580 0.600427
v -4.728855 0.619994 0.600954
v -4.727149 0.620467 0.600560
v -4.729416 0.620031 0.597871
v -4.729671 0.619489 0.599504
v -4.728731 0.619198 0.599330
v -4.728538 0.619608 0.598094
v -4.729416 0.620031 0.597871
v -4.728731 0.619198 0.599330
v -4.729671 0.619489 0.599504
v -4.729416 0.620031 0.597871
v -4.730607 0.620967 0.597852
v -4.729671 0.619489 0.599504
v -4.731347 0.622199 0.598344
v -4.731587 0.621690 0.599879
v -4.730901 0.620341 0.599738
v -4.730607 0.620967 0.597852
v -4.731347 0.622199 0.598344
v -4.730901 0.620341 0.599738
v -4.730901 0.620341 0.599738
v -4.728855 0.619994 0.600954
v -4.729671 0.619489 0.599504
v -4.730901 0.620341 0.599738
v -4.728855 0.619994 0.600954
v -4.731587 0.621690 0.599879
v -4.730819 0.622165 0.601242
v -4.729958 0.620925 0.601414
v -4.730901 0.620341 0.599738
v -4.731587 0.621690 0.599879
v -4.729958 0.620925 0.601414
v -4.729958 0.620925 0.601414
v -4.727581 0.621166 0.601130
v -4.728855 0.619994 0.600954
v -4.729958 0.620925 0.601414
v -4.727581 0.621166 0.601130
v -4.730819 0.622165 0.601242
v -4.729622 0.623266 0.601407
v -4.728486 0.622278 0.601616
v -4.729958 0.620925 0.601414
v -4.730819 0.622165 0.601242
v -4.728486 0.622278 0.601616
v -4.728486 0.622278 0.601616
v -4.726810 0.622121 0.599898
v -4.727581 0.621166 0.601130
v -4.728486 0.622278 0.601616
v -4.726810 0.622121 0.599898
v -4.729622 0.623266 0.601407
v -4.728897 0.624164 0.600249
v -4.727595 0.623382 0.600193
v -4.728486 0.622278 0.601616
v -4.729622 0.623266 0.601407
v -4.727595 0.623382 0.600193
v -4.727595 0.623382 0.600193
v -4.727121 0.622141 0.598187
v -4.726810 0.622121 0.599898
v -4.727595 0.623382 0.600193
v -4.727121 0.622141 0.598187
v -4.728897 0.624164 0.600249
v -4.729189 0.624183 0.598641
v -4.727955 0.623405 0.598217
v -4.727595 0.623382 0.600193
v -4.728897 0.624164 0.600249
v -4.727955 0.623405 0.598217
v -4.727955 0.623405 0.598217
v -4.728281 0.621211 0.597285
v -4.727121 0.622141 0.598187
v -4.727955 0.623405 0.598217
v -4.728281 0.621211 0.597285
v -4.729189 0.624183 0.598641
v -4.730280 0.623309 0.597793
v -4.729295 0.622330 0.597175
v -4.727955 0.623405 0.598217
v -4.729189 0.624183 0.598641
v -4.729295 0.622330 0.597175
v -4.729295 0.622330 0.597175
v -4.730607 0.620967 0.597852
v -4.729416 0.620031 0.597871
v -4.728281 0.621211 0.597285
v -4.729295 0.622330 0.597175
v -4.729416 0.620031 0.597871
v -4.730280 0.623309 0.597793
v -4.731347 0.622199 0.598344
v -4.730607 0.620967 0.597852
v -4.729295 0.622330 0.597175
v -4.730280 0.623309 0.597793
v -4.730607 0.620967 0.597852
v -4.731637 0.623186 0.598929
v -4.731793 0.622854 0.599931
v -4.731587 0.621690 0.599879
v -4.731347 0.622199 0.598344
v -4.731637 0.623186 0.598929
v -4.731587 0.621690 0.599879
v -4.731292 0.623164 0.600820
v -4.731793 0.622854 0.599931
v -4.730511 0.623882 0.600928
v -4.731637 0.623186 0.598929
v -4.730511 0.623882 0.600928
v -4.731793 0.622854 0.599931
v -4.730037 0.624468 0.600172
v -4.730511 0.623882 0.600928
v -4.731637 0.623186 0.598929
v -4.730940 0.623910 0.598569
v -4.730037 0.624468 0.600172
v -4.731637 0.623186 0.598929
v -4.730228 0.624481 0.599122
v -4.730037 0.624468 0.600172
v -4.730940 0.623910 0.598569
v -4.724425 0.615598 0.599793
v -4.723394 0.616546 0.599934
v -4.725087 0.615189 0.598618
v -4.724880 0.615627 0.597296
v -4.725087 0.615189 0.598618
v -4.723394 0.616546 0.599934
v -4.722769 0.617320 0.598937
v -4.724880 0.615627 0.597296
v -4.723394 0.616546 0.599934
v -4.723961 0.616583 0.596821
v -4.724880 0.615627 0.597296
v -4.722769 0.617320 0.598937
v -4.723022 0.617336 0.597552
v -4.723961 0.616583 0.596821
v -4.722769 0.617320 0.598937
vn 0.6808 -0.7204 -0.1325
vn -0.5716 0.6884 -0.4466
vn -0.1576 0.9444 0.2886
vn -0.2452 0.9501 -0.1928
vn -0.8909 0.3562 -0.2816
vn -0.1575 0.9444 0.2886
vn -0.5716 0.6883 -0.4466
vn -0.8909 0.3563 -0.2817
vn -0.3746 0.6756 0.6351
vn -0.9627 0.2039 0.1778
vn -0.3746 0.6756 0.6350
vn -0.3746 0.6755 0.6351
vn -0.9627 0.2039 0.1777
vn -0.7329 0.3460 0.5857
vn -0.9262 -0.3390 0.1647
vn -0.8100 -0.0924 -0.5790
vn -0.9262 -0.3391 0.1647
vn -0.9627 0.2040 0.1778
vn -0.8909 0.3563 -0.2816
vn -0.6082 -0.3958 -0.6881
vn -0.2931 0.4452 -0.8461
vn -0.0424 0.1928 -0.9803
vn -0.6083 -0.3957 -0.6880
vn -0.8100 -0.0924 -0.5791
vn -0.3190 -0.6415 -0.6976
vn 0.2140 -0.0871 -0.9729
vn -0.3191 -0.6415 -0.6976
vn -0.0425 0.1928 -0.9803
vn 0.2353 0.8690 -0.4353
vn 0.5360 0.6566 -0.5306
vn -0.2930 0.4452 -0.8461
vn 0.5359 0.6566 -0.5307
vn 0.7588 0.3499 -0.5493
vn 0.3773 0.8598 0.3441
vn 0.6914 0.6465 0.3224
vn 0.2354 0.8690 -0.4352
vn 0.3773 0.8598 0.3440
vn 0.7589 0.3498 -0.5493
vn 0.9052 0.3404 0.2543
vn 0.6914 0.6465 0.3225
vn 0.0259 0.4246 0.9050
vn 0.3068 0.1702 0.9364
vn 0.9053 0.3403 0.2544
vn 0.3068 0.1701 0.9364
vn 0.5429 -0.1084 0.8328
vn 0.3068 0.1701 0.9365
vn -0.5542 -0.1089 0.8252
vn -0.3283 -0.4139 0.8491
vn 0.0259 0.4245 0.9050
vn 0.5429 -0.1085 0.8327
vn -0.0553 -0.6586 0.7505
vn -0.7355 -0.6657 0.1261
vn -0.5542 -0.1090 0.8252
vn -0.9262 -0.3390 0.1648
vn -0.0553 -0.6587 0.7504
vn -0.4390 -0.8958 0.0694
vn -0.0553 -0.6586 0.7504
vn -0.7355 -0.6657 0.1260
vn -0.6082 -0.3957 -0.6881
vn -0.8101 -0.0924 -0.5790
vn -0.4389 -0.8959 0.0694
vn -0.5078 -0.8575 0.0823
vn -0.3849 -0.5967 -0.7041
vn -0.4389 -0.8958 0.0694
vn 0.4990 -0.0501 0.8652
vn -0.1144 -0.6143 0.7807
vn 0.4990 -0.0501 0.8651
vn 0.7204 0.4198 -0.5520
vn 0.8706 0.4101 0.2720
vn 0.7589 0.3499 -0.5493
vn 0.2140 -0.0871 -0.9730
vn 0.1617 -0.0283 -0.9864
vn -0.1144 -0.6143 0.7808
vn -0.5078 -0.8575 0.0824
vn 0.8705 0.4101 0.2720
vn 0.5430 -0.1084 0.8327
vn 0.4990 -0.0502 0.8651
vn 0.9052 0.3403 0.2544
vn 0.1617 -0.0282 -0.9864
vn 0.7205 0.4198 -0.5520
vn 0.0259 0.4245 0.9051
vn -0.7330 0.3460 0.5857
vn 0.2353 0.8690 -0.4352
vn -0.2452 0.9501 -0.1929
vn -0.5716 0.6884 -0.4465
vn -0.5960 -0.4093 -0.6909
vn -0.0298 0.1795 -0.9833
vn -0.5960 -0.4092 -0.6909
vn -0.3849 -0.5968 -0.7041
vn -0.3159 -0.4275 0.8470
vn -0.7233 -0.6794 0.1238
vn -0.3159 -0.4274 0.8471
vn 0.7044 0.6335 0.3202
vn 0.3196 0.1569 0.9345
vn 0.7043 0.6336 0.3202
vn 0.5488 0.6436 -0.5334
vn -0.0298 0.1796 -0.9833
vn -0.7233 -0.6794 0.1237
vn 0.3195 0.1569 0.9345
vn -0.3158 -0.4274 0.8471
vn 0.4990 -0.0502 0.8652
vn 0.5489 0.6436 -0.5334
vn 0.7043 0.6335 0.3202
vn 0.5488 0.6437 -0.5334
vt 0.530319 0.635056
vt 0.522446 0.641335
vt 0.524872 0.636299
vt 0.524872 0.646370
vt 0.534683 0.638535
vt 0.530319 0.647614
vt 0.534683 0.644127
vt 0.508789 0.671494
vt 0.513626 0.669548
vt 0.511276 0.672157
vt 0.507889 0.669609
vt 0.511566 0.666756
vt 0.507935 0.667854
vt 0.509277 0.666748
vt 0.506302 0.666855
vt 0.505722 0.669838
vt 0.502487 0.669685
vt 0.506897 0.673050
vt 0.503479 0.674789
vt 0.497520 0.669067
vt 0.497810 0.676537
vt 0.510727 0.675606
vt 0.507721 0.680244
vt 0.501465 0.684982
vt 0.518890 0.674767
vt 0.518692 0.686485
vt 0.509125 0.696274
vt 0.518890 0.658051
vt 0.512238 0.663902
vt 0.511536 0.659698
vt 0.517990 0.665543
vt 0.515472 0.651657
vt 0.509323 0.655174
vt 0.508469 0.664742
vt 0.506836 0.661980
vt 0.504074 0.658463
vt 0.503784 0.665283
vt 0.499901 0.662933
vt 0.495453 0.660286
vt 0.491707 0.668175
vt 0.506927 0.651588
vt 0.501038 0.654999
vt 0.494583 0.688484
vt 0.500031 0.699394
vt 0.491287 0.678001
vt 0.512177 0.648293
vt 0.627350 0.642853
vt 0.649124 0.647896
vt 0.627441 0.648445
vt 0.649033 0.642670
vt 0.627441 0.631676
vt 0.649033 0.637444
vt 0.627350 0.637268
vt 0.649124 0.632225
vt 0.627914 0.620506
vt 0.649292 0.626999
vt 0.627625 0.626091
vt 0.649551 0.621780
vt 0.649292 0.653114
vt 0.627625 0.654030
vt 0.649551 0.658333
vt 0.627914 0.659607
s 0
usemtl decorations
f 240/1/1 239/2/1 238/3/1
f 237/1/1 236/4/1 235/2/1
f 234/5/1 233/4/1 232/1/1
f 231/5/1 230/6/1 229/4/1
f 228/6/1 227/5/1 226/7/1
s 1
f 225/8/2 224/9/3 223/10/4
f 222/11/5 221/9/6 220/8/7
f 219/11/8 218/12/9 217/9/6
f 216/13/10 215/12/11 214/11/8
f 213/12/12 212/13/13 211/14/14
f 210/15/15 209/11/8 208/16/16
f 207/15/17 206/13/18 205/11/19
f 204/17/20 203/18/21 202/19/22
f 201/17/23 200/16/24 199/18/21
f 198/20/25 197/19/22 196/21/26
f 195/20/27 194/17/23 193/19/28
f 192/19/22 191/22/29 190/23/30
f 189/19/22 188/18/31 187/22/29
f 186/21/26 185/23/32 184/24/33
f 183/21/26 3/19/22 182/23/32
f 181/23/30 180/25/34 179/26/35
f 178/23/30 177/22/36 176/25/37
f 175/24/38 174/26/35 173/27/39
f 172/24/38 4/23/30 171/26/35
f 170/28/40 169/29/41 168/30/42
f 167/28/40 166/31/34 165/29/41
f 164/32/43 163/30/44 162/33/45
f 161/32/43 13/28/40 160/30/42
f 159/30/46 158/34/47 157/35/48
f 156/30/44 155/29/49 154/34/47
f 153/33/50 152/35/48 151/36/51
f 150/33/50 14/30/46 149/35/48
f 148/35/48 147/15/17 146/37/52
f 145/35/48 144/34/53 143/15/54
f 142/36/55 141/37/52 140/38/56
f 139/36/57 16/35/48 138/37/52
f 137/37/58 136/16/24 135/17/59
f 134/37/52 133/15/15 132/16/60
f 131/38/61 130/17/59 129/20/27
f 128/38/61 36/37/52 25/17/59
f 127/39/62 126/20/27 125/40/63
f 124/39/62 123/38/64 122/20/27
f 121/41/65 120/36/51 119/42/66
f 118/41/67 117/33/50 116/36/51
f 115/43/68 114/27/39 113/44/69
f 112/43/68 111/24/70 110/27/39
f 109/40/63 108/21/71 107/45/72
f 106/40/63 40/20/27 105/21/71
f 104/42/73 103/38/64 102/39/74
f 101/42/73 41/36/51 42/38/64
f 100/46/75 99/33/76 98/41/77
f 97/46/75 37/32/78 38/33/76
f 96/45/79 95/24/33 94/43/80
f 93/45/72 33/21/26 34/24/33
f 92/29/49 91/14/14 90/34/47
f 89/29/81 88/12/11 87/14/82
f 86/22/83 85/9/3 84/25/37
f 83/22/83 82/10/84 81/9/3
f 80/16/24 79/8/2 78/18/21
f 29/16/24 30/11/5 77/8/85
f 76/31/34 75/12/11 28/29/41
f 31/31/34 26/9/3 27/12/11
f 74/18/31 73/10/4 24/22/29
f 21/18/31 22/8/85 23/10/4
f 72/34/47 71/13/10 20/15/15
f 17/34/53 18/14/14 19/13/18
f 70/47/86 69/48/79 68/49/87
f 67/47/88 66/50/89 65/48/72
f 64/51/90 63/52/62 62/53/91
f 61/51/92 60/54/66 59/52/74
f 58/55/93 57/56/65 56/57/94
f 55/55/95 54/58/69 53/56/77
f 52/49/87 51/59/68 50/60/96
f 2/49/97 32/48/72 49/59/68
f 48/53/98 47/50/63 12/47/86
f 9/53/98 10/52/62 11/50/63
f 46/57/99 45/54/66 8/51/100
f 5/57/99 6/56/101 7/54/66
f 44/60/102 43/61/75 15/62/103
f 1/60/104 35/59/68 39/61/75
