# Blender 5.0.0
# www.blender.org
mtllib Circle_005_Circle_004_Dupli_292_decorations_0.mtl
o Circle.005|Circle.004|Dupli|292_decorations_0
v -4.636072 1.890801 0.531443
v -4.636343 1.890644 0.532816
v -4.640422 1.897345 0.533081
v -4.640035 1.897568 0.531121
v -4.633799 1.891929 0.531441
v -4.636301 1.896785 0.531584
v -4.636029 1.896899 0.532867
v -4.633508 1.892051 0.532814
v -4.634287 1.891647 0.533915
v -4.636757 1.896522 0.533897
v -4.637937 1.895936 0.533898
v -4.635549 1.891021 0.533916
v -4.638419 1.898383 0.530249
v -4.636792 1.899178 0.531119
v -4.634939 1.891372 0.530831
v -4.636378 1.899352 0.533077
v -4.637403 1.900472 0.533002
v -4.638413 1.901073 0.532871
v -4.639003 1.900766 0.533705
v -4.638307 1.900003 0.534281
v -4.640694 1.898839 0.533005
v -4.640561 1.900007 0.532872
v -4.640356 1.900125 0.531832
v -4.640378 1.899020 0.531411
v -4.639289 1.897883 0.534650
v -4.639497 1.900558 0.531369
v -4.638633 1.900980 0.531831
v -4.637739 1.900330 0.531409
v -4.639771 1.899276 0.534282
v -4.639959 1.900292 0.533706
v -4.639064 1.899683 0.530700
v -4.638679 1.895584 0.532869
v -4.639492 1.896154 0.532990
v -4.639157 1.896347 0.531295
v -4.638426 1.895730 0.531586
v -4.637489 1.898776 0.534649
v -4.637758 1.897052 0.530539
v -4.636350 1.897740 0.531292
v -4.637367 1.896265 0.531014
v -4.638511 1.896619 0.534349
v -4.635991 1.897891 0.532987
v -4.636953 1.897392 0.534348
v -4.637367 1.896265 0.531014
v -4.636072 1.890801 0.531443
v -4.636029 1.896899 0.532867
v -4.633799 1.891929 0.531441
v -4.637937 1.895936 0.533898
v -4.634287 1.891647 0.533915
v -4.638426 1.895730 0.531586
v -4.636072 1.890801 0.531443
v -4.638426 1.895730 0.531586
v -4.636343 1.890644 0.532816
v -4.636301 1.896785 0.531584
v -4.637367 1.896265 0.531014
v -4.634939 1.891372 0.530831
v -4.633799 1.891929 0.531441
v -4.636301 1.896785 0.531584
v -4.634939 1.891372 0.530831
v -4.636757 1.896522 0.533897
v -4.636029 1.896899 0.532867
v -4.633508 1.892051 0.532814
v -4.634287 1.891647 0.533915
v -4.636757 1.896522 0.533897
v -4.633508 1.892051 0.532814
v -4.638679 1.895584 0.532869
v -4.637937 1.895936 0.533898
v -4.635549 1.891021 0.533916
v -4.636343 1.890644 0.532816
v -4.638679 1.895584 0.532869
v -4.635549 1.891021 0.533916
v -4.639003 1.900766 0.533705
v -4.637403 1.900472 0.533002
v -4.640356 1.900125 0.531832
v -4.640694 1.898839 0.533005
v -4.638633 1.900980 0.531831
v -4.639064 1.899683 0.530700
v -4.640561 1.900007 0.532872
v -4.640694 1.898839 0.533005
v -4.640561 1.900007 0.532872
v -4.639771 1.899276 0.534282
v -4.639497 1.900558 0.531369
v -4.640356 1.900125 0.531832
v -4.640378 1.899020 0.531411
v -4.639064 1.899683 0.530700
v -4.639497 1.900558 0.531369
v -4.640378 1.899020 0.531411
v -4.638413 1.901073 0.532871
v -4.638633 1.900980 0.531831
v -4.637739 1.900330 0.531409
v -4.637403 1.900472 0.533002
v -4.638413 1.901073 0.532871
v -4.637739 1.900330 0.531409
v -4.638679 1.895584 0.532869
v -4.638426 1.895730 0.531586
v -4.639157 1.896347 0.531295
v -4.638679 1.895584 0.532869
v -4.637367 1.896265 0.531014
v -4.636301 1.896785 0.531584
v -4.636350 1.897740 0.531292
v -4.637367 1.896265 0.531014
v -4.636029 1.896899 0.532867
v -4.636757 1.896522 0.533897
v -4.636953 1.897392 0.534348
v -4.636029 1.896899 0.532867
v -4.639492 1.896154 0.532990
v -4.637937 1.895936 0.533898
v -4.638679 1.895584 0.532869
v -4.639492 1.896154 0.532990
v -4.637937 1.895936 0.533898
v -4.637758 1.897052 0.530539
v -4.639157 1.896347 0.531295
v -4.638426 1.895730 0.531586
v -4.637367 1.896265 0.531014
v -4.637758 1.897052 0.530539
v -4.638426 1.895730 0.531586
v -4.635991 1.897891 0.532987
v -4.636350 1.897740 0.531292
v -4.636301 1.896785 0.531584
v -4.636029 1.896899 0.532867
v -4.635991 1.897891 0.532987
v -4.636301 1.896785 0.531584
v -4.638511 1.896619 0.534349
v -4.636953 1.897392 0.534348
v -4.636757 1.896522 0.533897
v -4.637937 1.895936 0.533898
v -4.638511 1.896619 0.534349
v -4.636757 1.896522 0.533897
v -4.636953 1.897392 0.534348
v -4.638511 1.896619 0.534349
v -4.639289 1.897883 0.534650
v -4.636953 1.897392 0.534348
v -4.639771 1.899276 0.534282
v -4.638307 1.900003 0.534281
v -4.637489 1.898776 0.534649
v -4.639289 1.897883 0.534650
v -4.639771 1.899276 0.534282
v -4.637489 1.898776 0.534649
v -4.637489 1.898776 0.534649
v -4.635991 1.897891 0.532987
v -4.636953 1.897392 0.534348
v -4.637489 1.898776 0.534649
v -4.635991 1.897891 0.532987
v -4.638307 1.900003 0.534281
v -4.637403 1.900472 0.533002
v -4.636378 1.899352 0.533077
v -4.637489 1.898776 0.534649
v -4.638307 1.900003 0.534281
v -4.636378 1.899352 0.533077
v -4.636378 1.899352 0.533077
v -4.636350 1.897740 0.531292
v -4.635991 1.897891 0.532987
v -4.636378 1.899352 0.533077
v -4.636350 1.897740 0.531292
v -4.637403 1.900472 0.533002
v -4.637739 1.900330 0.531409
v -4.636792 1.899178 0.531119
v -4.636378 1.899352 0.533077
v -4.637403 1.900472 0.533002
v -4.636792 1.899178 0.531119
v -4.636792 1.899178 0.531119
v -4.637758 1.897052 0.530539
v -4.636350 1.897740 0.531292
v -4.636792 1.899178 0.531119
v -4.637758 1.897052 0.530539
v -4.637739 1.900330 0.531409
v -4.639064 1.899683 0.530700
v -4.638419 1.898383 0.530249
v -4.636792 1.899178 0.531119
v -4.637739 1.900330 0.531409
v -4.638419 1.898383 0.530249
v -4.638419 1.898383 0.530249
v -4.639157 1.896347 0.531295
v -4.637758 1.897052 0.530539
v -4.638419 1.898383 0.530249
v -4.639157 1.896347 0.531295
v -4.639064 1.899683 0.530700
v -4.640378 1.899020 0.531411
v -4.640035 1.897568 0.531121
v -4.638419 1.898383 0.530249
v -4.639064 1.899683 0.530700
v -4.640035 1.897568 0.531121
v -4.640035 1.897568 0.531121
v -4.639492 1.896154 0.532990
v -4.639157 1.896347 0.531295
v -4.640035 1.897568 0.531121
v -4.639492 1.896154 0.532990
v -4.640378 1.899020 0.531411
v -4.640694 1.898839 0.533005
v -4.640422 1.897345 0.533081
v -4.640035 1.897568 0.531121
v -4.640378 1.899020 0.531411
v -4.640422 1.897345 0.533081
v -4.640422 1.897345 0.533081
v -4.639289 1.897883 0.534650
v -4.638511 1.896619 0.534349
v -4.639492 1.896154 0.532990
v -4.640422 1.897345 0.533081
v -4.638511 1.896619 0.534349
v -4.640694 1.898839 0.533005
v -4.639771 1.899276 0.534282
v -4.639289 1.897883 0.534650
v -4.640422 1.897345 0.533081
v -4.640694 1.898839 0.533005
v -4.639289 1.897883 0.534650
v -4.639959 1.900292 0.533706
v -4.639003 1.900766 0.533705
v -4.638307 1.900003 0.534281
v -4.639771 1.899276 0.534282
v -4.639959 1.900292 0.533706
v -4.638307 1.900003 0.534281
v -4.638413 1.901073 0.532871
v -4.639003 1.900766 0.533705
v -4.638633 1.900980 0.531831
v -4.639959 1.900292 0.533706
v -4.638633 1.900980 0.531831
v -4.639003 1.900766 0.533705
v -4.639497 1.900558 0.531369
v -4.638633 1.900980 0.531831
v -4.639959 1.900292 0.533706
v -4.640561 1.900007 0.532872
v -4.639497 1.900558 0.531369
v -4.639959 1.900292 0.533706
v -4.640356 1.900125 0.531832
v -4.639497 1.900558 0.531369
v -4.640561 1.900007 0.532872
v -4.633508 1.892051 0.532814
v -4.633799 1.891929 0.531441
v -4.634287 1.891647 0.533915
v -4.635549 1.891021 0.533916
v -4.634287 1.891647 0.533915
v -4.633799 1.891929 0.531441
v -4.634939 1.891372 0.530831
v -4.635549 1.891021 0.533916
v -4.633799 1.891929 0.531441
v -4.636343 1.890644 0.532816
v -4.635549 1.891021 0.533916
v -4.634939 1.891372 0.530831
v -4.636072 1.890801 0.531443
v -4.636343 1.890644 0.532816
v -4.634939 1.891372 0.530831
vn 0.4445 -0.8957 -0.0141
vn -0.8587 0.4938 0.1374
vn -0.3709 0.7467 -0.5522
vn -0.7644 0.5480 -0.3396
vn -0.5827 0.6247 0.5198
vn -0.3709 0.7466 -0.5522
vn -0.8586 0.4938 0.1375
vn -0.5828 0.6247 0.5197
vn 0.0255 0.9400 -0.3402
vn -0.1444 0.8422 0.5194
vn 0.0254 0.9400 -0.3402
vn -0.5828 0.6247 0.5198
vn -0.1445 0.8422 0.5195
vn 0.1262 0.9825 0.1367
vn 0.1790 0.5315 0.8279
vn -0.5827 0.6247 0.5197
vn -0.5306 0.1794 0.8284
vn -0.3990 -0.1700 0.9011
vn -0.9773 -0.0326 0.2095
vn -0.8880 -0.4019 0.2236
vn -0.3990 -0.1699 0.9011
vn -0.9773 -0.0325 0.2095
vn -0.2101 -0.4942 0.8436
vn -0.8880 -0.4019 0.2235
vn -0.6707 -0.7127 0.2053
vn -0.8247 0.0553 -0.5629
vn -0.7210 -0.3058 -0.6219
vn -0.5134 -0.6221 -0.5911
vn -0.7209 -0.3058 -0.6219
vn -0.1877 0.3768 -0.9071
vn -0.0237 0.0461 -0.9987
vn -0.5133 -0.6222 -0.5911
vn 0.1435 -0.2906 -0.9460
vn -0.0236 0.0461 -0.9987
vn 0.4540 0.6898 -0.5639
vn 0.6787 0.3888 -0.6230
vn 0.6788 0.3888 -0.6230
vn 0.8052 0.0322 -0.5922
vn 0.6172 0.7587 0.2082
vn 0.8574 0.4642 0.2222
vn 0.4541 0.6898 -0.5639
vn 0.8052 0.0322 -0.5921
vn 0.9735 0.1032 0.2041
vn 0.1791 0.5315 0.8279
vn 0.3778 0.2155 0.9005
vn 0.6173 0.7587 0.2083
vn 0.1791 0.5316 0.8279
vn 0.5217 -0.1310 0.8430
vn 0.3777 0.2155 0.9005
vn -0.5305 0.1794 0.8285
vn 0.3777 0.2156 0.9005
vn -0.5305 0.1794 0.8284
vn 0.5217 -0.1311 0.8430
vn -0.2101 -0.4941 0.8436
vn 0.3778 0.2156 0.9005
vn 0.4972 -0.0585 0.8657
vn -0.2531 -0.4308 0.8662
vn 0.5216 -0.1310 0.8430
vn 0.7880 0.1090 -0.6060
vn 0.9606 0.1817 0.2105
vn 0.7880 0.1089 -0.6060
vn 0.8052 0.0321 -0.5921
vn -0.5641 -0.5620 -0.6049
vn 0.1095 -0.2221 -0.9689
vn -0.6707 -0.7127 0.2054
vn -0.7254 -0.6549 0.2118
vn 0.9606 0.1818 0.2105
vn 0.9606 0.1818 0.2104
vn 0.1094 -0.2221 -0.9689
vn -0.7255 -0.6549 0.2118
vn 0.1263 0.9825 0.1367
vn -0.8586 0.4938 0.1374
vn 0.6172 0.7587 0.2083
vn -0.3910 -0.1866 0.9013
vn -0.8802 -0.4187 0.2234
vn -0.3910 -0.1865 0.9013
vn 0.8661 0.4479 0.2221
vn 0.4972 -0.0584 0.8657
vn 0.3862 0.1991 0.9007
vn -0.0154 0.0296 -0.9994
vn 0.6873 0.3724 -0.6236
vn -0.0154 0.0297 -0.9994
vn -0.7131 -0.3225 -0.6224
vn 0.3861 0.1991 0.9007
vn 0.6873 0.3725 -0.6236
vn -0.7131 -0.3225 -0.6225
vt 0.530319 0.635056
vt 0.522446 0.641335
vt 0.524872 0.636299
vt 0.524872 0.646370
vt 0.534683 0.638535
vt 0.530319 0.647614
vt 0.534683 0.644127
vt 0.508789 0.671494
vt 0.513626 0.669548
vt 0.511276 0.672157
vt 0.507889 0.669609
vt 0.511566 0.666756
vt 0.507935 0.667854
vt 0.509277 0.666748
vt 0.506302 0.666855
vt 0.505722 0.669838
vt 0.502487 0.669685
vt 0.506897 0.673050
vt 0.503479 0.674789
vt 0.497520 0.669067
vt 0.497810 0.676537
vt 0.510727 0.675606
vt 0.507721 0.680244
vt 0.501465 0.684982
vt 0.518890 0.674767
vt 0.518692 0.686485
vt 0.509125 0.696274
vt 0.518890 0.658051
vt 0.512238 0.663902
vt 0.511536 0.659698
vt 0.517990 0.665543
vt 0.515472 0.651657
vt 0.509323 0.655174
vt 0.508469 0.664742
vt 0.506836 0.661980
vt 0.504074 0.658463
vt 0.503784 0.665283
vt 0.499901 0.662933
vt 0.495453 0.660286
vt 0.491707 0.668175
vt 0.506927 0.651588
vt 0.501038 0.654999
vt 0.494583 0.688484
vt 0.500031 0.699394
vt 0.491287 0.678001
vt 0.512177 0.648293
vt 0.627350 0.642853
vt 0.649124 0.647896
vt 0.627441 0.648445
vt 0.649033 0.642670
vt 0.627441 0.631676
vt 0.649033 0.637444
vt 0.627350 0.637268
vt 0.649124 0.632225
vt 0.627914 0.620506
vt 0.649292 0.626999
vt 0.627625 0.626091
vt 0.649551 0.621780
vt 0.649292 0.653114
vt 0.627625 0.654030
vt 0.649551 0.658333
vt 0.627914 0.659607
s 0
usemtl decorations
f 240/1/1 239/2/1 238/3/1
f 237/1/1 236/4/1 235/2/1
f 234/5/1 233/4/1 232/1/1
f 231/5/1 230/6/1 229/4/1
f 228/6/1 227/5/1 226/7/1
s 1
f 225/8/2 224/9/3 223/10/4
f 222/11/5 221/9/6 220/8/7
f 219/11/8 218/12/9 217/9/3
f 216/13/10 215/12/11 214/11/12
f 213/12/9 212/13/13 211/14/14
f 210/15/15 209/11/16 208/16/17
f 207/15/15 206/13/10 205/11/16
f 204/17/18 203/18/19 202/19/20
f 201/17/21 200/16/17 199/18/22
f 198/20/23 197/19/24 196/21/25
f 195/20/23 194/17/21 193/19/20
f 192/19/20 191/22/26 190/23/27
f 189/19/20 188/18/19 187/22/26
f 186/21/25 185/23/27 184/24/28
f 183/21/25 3/19/20 182/23/27
f 181/23/29 180/25/30 179/26/31
f 178/23/27 177/22/26 176/25/30
f 175/24/32 174/26/31 173/27/33
f 172/24/32 4/23/29 171/26/31
f 170/28/34 169/29/35 168/30/36
f 167/28/34 166/31/30 165/29/35
f 164/32/33 163/30/37 162/33/38
f 161/32/33 13/28/34 160/30/36
f 159/30/36 158/34/39 157/35/40
f 156/30/36 155/29/41 154/34/39
f 153/33/42 152/35/40 151/36/43
f 150/33/42 14/30/36 149/35/40
f 148/35/40 147/15/44 146/37/45
f 145/35/40 144/34/46 143/15/47
f 142/36/43 141/37/45 140/38/48
f 139/36/43 16/35/40 138/37/45
f 137/37/49 136/16/50 135/17/21
f 134/37/51 133/15/44 132/16/52
f 131/38/53 130/17/21 129/20/54
f 128/38/53 36/37/55 25/17/21
f 127/39/56 126/20/54 125/40/57
f 124/39/56 123/38/58 122/20/54
f 121/41/59 120/36/43 119/42/60
f 118/41/61 117/33/62 116/36/43
f 115/43/63 114/27/33 113/44/64
f 112/43/63 111/24/28 110/27/33
f 109/40/57 108/21/65 107/45/66
f 106/40/57 40/20/23 105/21/65
f 104/42/67 103/38/48 102/39/56
f 101/42/68 41/36/43 42/38/48
f 100/46/69 99/33/38 98/41/61
f 97/46/69 37/32/33 38/33/38
f 96/45/70 95/24/28 94/43/63
f 93/45/66 33/21/25 34/24/28
f 92/29/41 91/14/14 90/34/39
f 89/29/41 88/12/11 87/14/71
f 86/22/26 85/9/6 84/25/30
f 83/22/26 82/10/4 81/9/6
f 80/16/17 79/8/72 78/18/22
f 29/16/17 30/11/5 77/8/72
f 76/31/30 75/12/11 28/29/35
f 31/31/30 26/9/6 27/12/11
f 74/18/19 73/10/4 24/22/26
f 21/18/19 22/8/72 23/10/4
f 72/34/73 71/13/10 20/15/15
f 17/34/73 18/14/14 19/13/10
f 70/47/74 69/48/70 68/49/75
f 67/47/76 66/50/57 65/48/66
f 64/51/77 63/52/78 62/53/79
f 61/51/77 60/54/67 59/52/56
f 58/55/80 57/56/61 56/57/81
f 55/55/82 54/58/69 53/56/61
f 52/49/75 51/59/63 50/60/83
f 2/49/75 32/48/66 49/59/63
f 48/53/79 47/50/57 12/47/74
f 9/53/84 10/52/78 11/50/57
f 46/57/81 45/54/67 8/51/77
f 5/57/85 6/56/61 7/54/60
f 44/60/86 43/61/69 15/62/80
f 1/60/86 35/59/63 39/61/69
