# Blender 5.0.0
# www.blender.org
mtllib Circle_005_Circle_Dupli_59_decorations_0.mtl
o Circle.005|Circle|Dupli|59_decorations_0
v -4.366087 2.063589 0.627601
v -4.365517 2.063036 0.626438
v -4.368145 2.068936 0.621978
v -4.368959 2.069725 0.623637
v -4.368330 2.062409 0.627745
v -4.370519 2.066372 0.624686
v -4.370503 2.065583 0.623632
v -4.368313 2.061565 0.626619
v -4.367301 2.061413 0.625650
v -4.369558 2.065441 0.622727
v -4.368394 2.066053 0.622652
v -4.366057 2.062068 0.625570
v -4.370745 2.069327 0.624467
v -4.372158 2.068042 0.623843
v -4.367339 2.063310 0.628183
v -4.372134 2.066837 0.622235
v -4.372390 2.068137 0.621491
v -4.372268 2.069222 0.621035
v -4.371502 2.069106 0.620302
v -4.371216 2.067960 0.620367
v -4.369144 2.069845 0.621282
v -4.370150 2.070336 0.620898
v -4.370582 2.070755 0.621779
v -4.369807 2.070487 0.622632
v -4.368916 2.067554 0.620740
v -4.371531 2.070544 0.622220
v -4.372281 2.069861 0.621889
v -4.372410 2.069117 0.622800
v -4.369771 2.068721 0.620274
v -4.370559 2.069602 0.620241
v -4.371260 2.070163 0.623307
v -4.367889 2.066958 0.623464
v -4.367811 2.067756 0.622867
v -4.368515 2.068439 0.624303
v -4.368423 2.067475 0.624550
v -4.370691 2.066620 0.620854
v -4.370061 2.068095 0.625021
v -4.371284 2.066983 0.624481
v -4.369593 2.067215 0.625094
v -4.368478 2.066561 0.621795
v -4.371263 2.065940 0.623090
v -4.370014 2.065752 0.621894
v -4.369593 2.067215 0.625094
v -4.366087 2.063589 0.627601
v -4.370503 2.065583 0.623632
v -4.368330 2.062409 0.627745
v -4.368394 2.066053 0.622652
v -4.367301 2.061413 0.625650
v -4.368423 2.067475 0.624550
v -4.366087 2.063589 0.627601
v -4.368423 2.067475 0.624550
v -4.365517 2.063036 0.626438
v -4.370519 2.066372 0.624686
v -4.369593 2.067215 0.625094
v -4.367339 2.063310 0.628183
v -4.368330 2.062409 0.627745
v -4.370519 2.066372 0.624686
v -4.367339 2.063310 0.628183
v -4.369558 2.065441 0.622727
v -4.370503 2.065583 0.623632
v -4.368313 2.061565 0.626619
v -4.367301 2.061413 0.625650
v -4.369558 2.065441 0.622727
v -4.368313 2.061565 0.626619
v -4.367889 2.066958 0.623464
v -4.368394 2.066053 0.622652
v -4.366057 2.062068 0.625570
v -4.365517 2.063036 0.626438
v -4.367889 2.066958 0.623464
v -4.366057 2.062068 0.625570
v -4.371502 2.069106 0.620302
v -4.372390 2.068137 0.621491
v -4.370582 2.070755 0.621779
v -4.369144 2.069845 0.621282
v -4.372281 2.069861 0.621889
v -4.371260 2.070163 0.623307
v -4.370150 2.070336 0.620898
v -4.369144 2.069845 0.621282
v -4.370150 2.070336 0.620898
v -4.369771 2.068721 0.620274
v -4.371531 2.070544 0.622220
v -4.370582 2.070755 0.621779
v -4.369807 2.070487 0.622632
v -4.371260 2.070163 0.623307
v -4.371531 2.070544 0.622220
v -4.369807 2.070487 0.622632
v -4.372268 2.069222 0.621035
v -4.372281 2.069861 0.621889
v -4.372410 2.069117 0.622800
v -4.372390 2.068137 0.621491
v -4.372268 2.069222 0.621035
v -4.372410 2.069117 0.622800
v -4.367889 2.066958 0.623464
v -4.368423 2.067475 0.624550
v -4.368515 2.068439 0.624303
v -4.367889 2.066958 0.623464
v -4.369593 2.067215 0.625094
v -4.370519 2.066372 0.624686
v -4.371284 2.066983 0.624481
v -4.369593 2.067215 0.625094
v -4.370503 2.065583 0.623632
v -4.369558 2.065441 0.622727
v -4.370014 2.065752 0.621894
v -4.370503 2.065583 0.623632
v -4.367811 2.067756 0.622867
v -4.368394 2.066053 0.622652
v -4.367889 2.066958 0.623464
v -4.367811 2.067756 0.622867
v -4.368394 2.066053 0.622652
v -4.370061 2.068095 0.625021
v -4.368515 2.068439 0.624303
v -4.368423 2.067475 0.624550
v -4.369593 2.067215 0.625094
v -4.370061 2.068095 0.625021
v -4.368423 2.067475 0.624550
v -4.371263 2.065940 0.623090
v -4.371284 2.066983 0.624481
v -4.370519 2.066372 0.624686
v -4.370503 2.065583 0.623632
v -4.371263 2.065940 0.623090
v -4.370519 2.066372 0.624686
v -4.368478 2.066561 0.621795
v -4.370014 2.065752 0.621894
v -4.369558 2.065441 0.622727
v -4.368394 2.066053 0.622652
v -4.368478 2.066561 0.621795
v -4.369558 2.065441 0.622727
v -4.370014 2.065752 0.621894
v -4.368478 2.066561 0.621795
v -4.368916 2.067554 0.620740
v -4.370014 2.065752 0.621894
v -4.369771 2.068721 0.620274
v -4.371216 2.067960 0.620367
v -4.370691 2.066620 0.620854
v -4.368916 2.067554 0.620740
v -4.369771 2.068721 0.620274
v -4.370691 2.066620 0.620854
v -4.370691 2.066620 0.620854
v -4.371263 2.065940 0.623090
v -4.370014 2.065752 0.621894
v -4.370691 2.066620 0.620854
v -4.371263 2.065940 0.623090
v -4.371216 2.067960 0.620367
v -4.372390 2.068137 0.621491
v -4.372134 2.066837 0.622235
v -4.370691 2.066620 0.620854
v -4.371216 2.067960 0.620367
v -4.372134 2.066837 0.622235
v -4.372134 2.066837 0.622235
v -4.371284 2.066983 0.624481
v -4.371263 2.065940 0.623090
v -4.372134 2.066837 0.622235
v -4.371284 2.066983 0.624481
v -4.372390 2.068137 0.621491
v -4.372410 2.069117 0.622800
v -4.372158 2.068042 0.623843
v -4.372134 2.066837 0.622235
v -4.372390 2.068137 0.621491
v -4.372158 2.068042 0.623843
v -4.372158 2.068042 0.623843
v -4.370061 2.068095 0.625021
v -4.371284 2.066983 0.624481
v -4.372158 2.068042 0.623843
v -4.370061 2.068095 0.625021
v -4.372410 2.069117 0.622800
v -4.371260 2.070163 0.623307
v -4.370745 2.069327 0.624467
v -4.372158 2.068042 0.623843
v -4.372410 2.069117 0.622800
v -4.370745 2.069327 0.624467
v -4.370745 2.069327 0.624467
v -4.368515 2.068439 0.624303
v -4.370061 2.068095 0.625021
v -4.370745 2.069327 0.624467
v -4.368515 2.068439 0.624303
v -4.371260 2.070163 0.623307
v -4.369807 2.070487 0.622632
v -4.368959 2.069725 0.623637
v -4.370745 2.069327 0.624467
v -4.371260 2.070163 0.623307
v -4.368959 2.069725 0.623637
v -4.368959 2.069725 0.623637
v -4.367811 2.067756 0.622867
v -4.368515 2.068439 0.624303
v -4.368959 2.069725 0.623637
v -4.367811 2.067756 0.622867
v -4.369807 2.070487 0.622632
v -4.369144 2.069845 0.621282
v -4.368145 2.068936 0.621978
v -4.368959 2.069725 0.623637
v -4.369807 2.070487 0.622632
v -4.368145 2.068936 0.621978
v -4.368145 2.068936 0.621978
v -4.368916 2.067554 0.620740
v -4.368478 2.066561 0.621795
v -4.367811 2.067756 0.622867
v -4.368145 2.068936 0.621978
v -4.368478 2.066561 0.621795
v -4.369144 2.069845 0.621282
v -4.369771 2.068721 0.620274
v -4.368916 2.067554 0.620740
v -4.368145 2.068936 0.621978
v -4.369144 2.069845 0.621282
v -4.368916 2.067554 0.620740
v -4.370559 2.069602 0.620241
v -4.371502 2.069106 0.620302
v -4.371216 2.067960 0.620367
v -4.369771 2.068721 0.620274
v -4.370559 2.069602 0.620241
v -4.371216 2.067960 0.620367
v -4.372268 2.069222 0.621035
v -4.371502 2.069106 0.620302
v -4.372281 2.069861 0.621889
v -4.370559 2.069602 0.620241
v -4.372281 2.069861 0.621889
v -4.371502 2.069106 0.620302
v -4.371531 2.070544 0.622220
v -4.372281 2.069861 0.621889
v -4.370559 2.069602 0.620241
v -4.370150 2.070336 0.620898
v -4.371531 2.070544 0.622220
v -4.370559 2.069602 0.620241
v -4.370582 2.070755 0.621779
v -4.371531 2.070544 0.622220
v -4.370150 2.070336 0.620898
v -4.368313 2.061565 0.626619
v -4.368330 2.062409 0.627745
v -4.367301 2.061413 0.625650
v -4.366057 2.062068 0.625570
v -4.367301 2.061413 0.625650
v -4.368330 2.062409 0.627745
v -4.367339 2.063310 0.628183
v -4.366057 2.062068 0.625570
v -4.368330 2.062409 0.627745
v -4.365517 2.063036 0.626438
v -4.366057 2.062068 0.625570
v -4.367339 2.063310 0.628183
v -4.366087 2.063589 0.627601
v -4.365517 2.063036 0.626438
v -4.367339 2.063310 0.628183
vn 0.4167 -0.7245 0.5491
vn 0.1685 0.7901 -0.5894
vn -0.4648 0.8852 0.0167
vn -0.0298 0.9822 -0.1855
vn -0.0193 0.4535 -0.8911
vn -0.4648 0.8853 0.0167
vn 0.1685 0.7900 -0.5895
vn -0.0192 0.4536 -0.8910
vn -0.8089 0.5722 -0.1352
vn -0.4516 0.2260 -0.8631
vn -0.8089 0.5723 -0.1352
vn -0.0192 0.4535 -0.8910
vn -0.4515 0.2260 -0.8632
vn -0.8030 0.2789 -0.5268
vn -0.3440 -0.3070 -0.8874
vn 0.3559 0.0613 -0.9325
vn -0.3440 -0.3071 -0.8874
vn -0.4516 0.2261 -0.8631
vn -0.0193 0.4535 -0.8910
vn 0.5600 -0.2292 -0.7962
vn 0.6598 0.6061 -0.4443
vn 0.8926 0.3672 -0.2618
vn 0.5599 -0.2292 -0.7962
vn 0.6597 0.6061 -0.4443
vn 0.6829 -0.4862 -0.5452
vn 0.8926 0.3672 -0.2617
vn 0.9963 0.0757 -0.0418
vn 0.8925 0.3672 -0.2618
vn 0.3387 0.9172 0.2097
vn 0.5412 0.7077 0.4542
vn 0.6598 0.6061 -0.4442
vn 0.3388 0.9172 0.2097
vn 0.9963 0.0757 -0.0417
vn 0.5412 0.7077 0.4541
vn 0.6653 0.3965 0.6326
vn -0.3654 0.7603 0.5371
vn -0.2296 0.5359 0.8125
vn 0.3387 0.9172 0.2098
vn 0.6652 0.3964 0.6327
vn -0.0609 0.2347 0.9702
vn -0.9225 0.2535 0.2912
vn -0.8393 -0.0187 0.5433
vn -0.9225 0.2536 0.2912
vn -0.0609 0.2346 0.9702
vn -0.8393 -0.0188 0.5433
vn -0.6353 -0.2879 0.7166
vn -0.9130 -0.2214 -0.3427
vn -0.8289 -0.5387 -0.1506
vn -0.6255 -0.7777 0.0629
vn -0.8289 -0.5388 -0.1506
vn -0.3440 -0.3071 -0.8873
vn -0.2062 -0.6324 -0.7467
vn -0.9129 -0.2215 -0.3427
vn -0.3441 -0.3070 -0.8873
vn -0.6254 -0.7777 0.0629
vn -0.0389 -0.8659 -0.4987
vn -0.2061 -0.6324 -0.7467
vn -0.2062 -0.6323 -0.7468
vn -0.3440 -0.3070 -0.8873
vn 0.3558 0.0613 -0.9325
vn -0.0388 -0.8659 -0.4986
vn 0.6829 -0.4861 -0.5453
vn -0.2062 -0.6323 -0.7467
vn -0.0751 -0.8265 -0.5579
vn 0.6650 -0.4371 -0.6056
vn -0.0388 -0.8659 -0.4987
vn -0.6868 -0.2338 0.6883
vn -0.6767 -0.7361 0.0180
vn -0.6867 -0.2338 0.6883
vn -0.6352 -0.2879 0.7166
vn 0.6468 0.4680 0.6022
vn -0.0977 0.3020 0.9483
vn 0.6468 0.4679 0.6022
vn 0.6652 0.3965 0.6327
vn 0.6650 -0.4371 -0.6057
vn 0.9863 0.1390 -0.0893
vn -0.6767 -0.7360 0.0179
vn 0.9862 0.1390 -0.0894
vn 0.6653 0.3965 0.6327
vn 0.9863 0.1390 -0.0894
vn -0.8088 0.5723 -0.1352
vn -0.8030 0.2788 -0.5268
vn 0.1684 0.7901 -0.5894
vn 0.3560 0.0613 -0.9325
vn -0.9129 -0.2214 -0.3428
vn -0.4515 0.2260 -0.8631
vn -0.9129 -0.2215 -0.3428
vn 0.5680 -0.2427 -0.7864
vn 0.9007 0.3540 -0.2517
vn 0.5680 -0.2427 -0.7865
vn -0.8216 -0.5524 -0.1406
vn -0.1986 -0.6461 -0.7370
vn -0.6767 -0.7361 0.0179
vn -0.2220 0.5228 0.8230
vn -0.8320 -0.0321 0.5538
vn -0.2221 0.5228 0.8230
vn 0.9008 0.3540 -0.2517
vn 0.5492 0.6947 0.4645
vn 0.5679 -0.2427 -0.7865
vn -0.8321 -0.0322 0.5538
vn -0.8321 -0.0321 0.5537
vn 0.5492 0.6947 0.4646
vn -0.0977 0.3021 0.9483
vt 0.543243 0.611839
vt 0.535370 0.618118
vt 0.537796 0.613083
vt 0.537796 0.623154
vt 0.547607 0.615326
vt 0.543243 0.624397
vt 0.547607 0.620918
vt 0.565384 0.671494
vt 0.570206 0.669548
vt 0.567856 0.672157
vt 0.564468 0.669609
vt 0.568146 0.666756
vt 0.564514 0.667854
vt 0.565857 0.666748
vt 0.562897 0.666855
vt 0.562302 0.669838
vt 0.559082 0.669685
vt 0.563492 0.673050
vt 0.560059 0.674789
vt 0.554092 0.669067
vt 0.554398 0.676537
vt 0.567307 0.675606
vt 0.564316 0.680244
vt 0.558044 0.684982
vt 0.575485 0.674767
vt 0.575272 0.686485
vt 0.565720 0.696274
vt 0.575485 0.658051
vt 0.568817 0.663902
vt 0.568115 0.659698
vt 0.574570 0.665543
vt 0.572052 0.651657
vt 0.565903 0.655174
vt 0.565063 0.664742
vt 0.563416 0.661980
vt 0.560669 0.658463
vt 0.560364 0.665283
vt 0.556488 0.662933
vt 0.552032 0.660286
vt 0.548294 0.668175
vt 0.563522 0.651588
vt 0.557617 0.654999
vt 0.551163 0.688484
vt 0.556610 0.699394
vt 0.547867 0.678001
vt 0.568756 0.648293
vt 0.604446 0.682632
vt 0.626221 0.687675
vt 0.604553 0.688225
vt 0.626144 0.682457
vt 0.604553 0.671455
vt 0.626144 0.677231
vt 0.604446 0.677048
vt 0.626221 0.672005
vt 0.605011 0.660294
vt 0.626404 0.666786
vt 0.604736 0.665871
vt 0.626663 0.661568
vt 0.626404 0.692902
vt 0.604736 0.693810
vt 0.626663 0.698120
vt 0.605011 0.699394
s 0
usemtl decorations
f 240/1/1 239/2/1 238/3/1
f 237/1/1 236/4/1 235/2/1
f 234/5/1 233/4/1 232/1/1
f 231/5/1 230/6/1 229/4/1
f 228/6/1 227/5/1 226/7/1
s 1
f 225/8/2 224/9/3 223/10/4
f 222/11/5 221/9/6 220/8/7
f 219/11/8 218/12/9 217/9/3
f 216/13/10 215/12/11 214/11/12
f 213/12/9 212/13/13 211/14/14
f 210/15/15 209/11/12 208/16/16
f 207/15/17 206/13/18 205/11/19
f 204/17/20 203/18/21 202/19/22
f 201/17/23 200/16/16 199/18/24
f 198/20/25 197/19/26 196/21/27
f 195/20/25 194/17/23 193/19/28
f 192/19/26 191/22/29 190/23/30
f 189/19/22 188/18/31 187/22/32
f 186/21/33 185/23/34 184/24/35
f 183/21/33 3/19/26 182/23/34
f 181/23/30 180/25/36 179/26/37
f 178/23/30 177/22/38 176/25/36
f 175/24/39 174/26/37 173/27/40
f 172/24/39 4/23/30 171/26/37
f 170/28/37 169/29/41 168/30/42
f 167/28/37 166/31/36 165/29/43
f 164/32/44 163/30/45 162/33/46
f 161/32/44 13/28/37 160/30/42
f 159/30/42 158/34/47 157/35/48
f 156/30/42 155/29/41 154/34/47
f 153/33/46 152/35/48 151/36/49
f 150/33/46 14/30/45 149/35/48
f 148/35/50 147/15/51 146/37/52
f 145/35/48 144/34/53 143/15/54
f 142/36/55 141/37/52 140/38/56
f 139/36/55 16/35/48 138/37/52
f 137/37/57 136/16/16 135/17/20
f 134/37/58 133/15/59 132/16/60
f 131/38/61 130/17/20 129/20/62
f 128/38/61 36/37/63 25/17/20
f 127/39/64 126/20/62 125/40/65
f 124/39/64 123/38/66 122/20/62
f 121/41/67 120/36/49 119/42/68
f 118/41/69 117/33/70 116/36/49
f 115/43/71 114/27/40 113/44/72
f 112/43/73 111/24/74 110/27/40
f 109/40/75 108/21/27 107/45/76
f 106/40/65 40/20/25 105/21/27
f 104/42/77 103/38/66 102/39/64
f 101/42/68 41/36/49 42/38/66
f 100/46/72 99/33/46 98/41/69
f 97/46/72 37/32/44 38/33/46
f 96/45/78 95/24/79 94/43/73
f 93/45/80 33/21/33 34/24/79
f 92/29/41 91/14/14 90/34/47
f 89/29/41 88/12/81 87/14/82
f 86/22/38 85/9/6 84/25/36
f 83/22/38 82/10/4 81/9/6
f 80/16/16 79/8/83 78/18/24
f 29/16/84 30/11/5 77/8/83
f 76/31/36 75/12/11 28/29/43
f 31/31/36 26/9/6 27/12/81
f 74/18/31 73/10/4 24/22/32
f 21/18/31 22/8/83 23/10/4
f 72/34/85 71/13/86 20/15/15
f 17/34/87 18/14/14 19/13/18
f 70/47/88 69/48/78 68/49/89
f 67/47/90 66/50/65 65/48/80
f 64/51/91 63/52/64 62/53/92
f 61/51/91 60/54/93 59/52/64
f 58/55/94 57/56/67 56/57/95
f 55/55/96 54/58/72 53/56/69
f 52/49/97 51/59/71 50/60/98
f 2/49/89 32/48/76 49/59/73
f 48/53/92 47/50/65 12/47/99
f 9/53/92 10/52/64 11/50/65
f 46/57/100 45/54/93 8/51/91
f 5/57/101 6/56/67 7/54/68
f 44/60/102 43/61/103 15/62/94
f 1/60/98 35/59/73 39/61/72
