# Blender 5.0.0
# www.blender.org
mtllib Circle_002_Circle_003_Dupli_169_decorations_0.mtl
o Circle.002|Circle.003|Dupli|169_decorations_0
v -4.482308 0.886321 0.271300
v -4.483420 0.885512 0.271605
v -4.485278 0.889901 0.277842
v -4.483691 0.891055 0.277406
v -4.480397 0.885109 0.272447
v -4.481375 0.888019 0.276968
v -4.481973 0.886983 0.277519
v -4.481037 0.884001 0.273036
v -4.482400 0.883652 0.272998
v -4.483248 0.886657 0.277483
v -4.484240 0.887286 0.276887
v -4.483461 0.884325 0.272361
v -4.481771 0.890798 0.277941
v -4.480964 0.889325 0.279044
v -4.480963 0.886141 0.271675
v -4.481877 0.887745 0.279884
v -4.482366 0.888791 0.280872
v -4.482911 0.889723 0.281355
v -4.483944 0.889459 0.281325
v -4.483949 0.888385 0.280828
v -4.485133 0.890545 0.279211
v -4.484717 0.890868 0.280270
v -4.483875 0.891481 0.280039
v -4.483842 0.891484 0.278856
v -4.485336 0.888207 0.278920
v -4.482855 0.891345 0.280323
v -4.482426 0.890562 0.280908
v -4.481623 0.890077 0.280189
v -4.485181 0.889166 0.280088
v -4.484748 0.889968 0.280843
v -4.482280 0.891275 0.279291
v -4.484201 0.888396 0.276181
v -4.484768 0.889014 0.276726
v -4.483395 0.890012 0.276349
v -4.483162 0.889152 0.275895
v -4.483823 0.887247 0.279829
v -4.481733 0.889790 0.276812
v -4.481034 0.888515 0.277766
v -4.481904 0.888984 0.276246
v -4.484818 0.887547 0.277660
v -4.481824 0.887147 0.278494
v -4.483509 0.886716 0.278446
v -4.481904 0.888984 0.276246
v -4.482308 0.886321 0.271300
v -4.481973 0.886983 0.277519
v -4.480397 0.885109 0.272447
v -4.484240 0.887286 0.276887
v -4.482400 0.883652 0.272998
v -4.483162 0.889152 0.275895
v -4.482308 0.886321 0.271300
v -4.483162 0.889152 0.275895
v -4.483420 0.885512 0.271605
v -4.481375 0.888019 0.276968
v -4.481904 0.888984 0.276246
v -4.480963 0.886141 0.271675
v -4.480397 0.885109 0.272447
v -4.481375 0.888019 0.276968
v -4.480963 0.886141 0.271675
v -4.483248 0.886657 0.277483
v -4.481973 0.886983 0.277519
v -4.481037 0.884001 0.273036
v -4.482400 0.883652 0.272998
v -4.483248 0.886657 0.277483
v -4.481037 0.884001 0.273036
v -4.484201 0.888396 0.276181
v -4.484240 0.887286 0.276887
v -4.483461 0.884325 0.272361
v -4.483420 0.885512 0.271605
v -4.484201 0.888396 0.276181
v -4.483461 0.884325 0.272361
v -4.483944 0.889459 0.281325
v -4.482366 0.888791 0.280872
v -4.483875 0.891481 0.280039
v -4.485133 0.890545 0.279211
v -4.482426 0.890562 0.280908
v -4.482280 0.891275 0.279291
v -4.484717 0.890868 0.280270
v -4.485133 0.890545 0.279211
v -4.484717 0.890868 0.280270
v -4.485181 0.889166 0.280088
v -4.482855 0.891345 0.280323
v -4.483875 0.891481 0.280039
v -4.483842 0.891484 0.278856
v -4.482280 0.891275 0.279291
v -4.482855 0.891345 0.280323
v -4.483842 0.891484 0.278856
v -4.482911 0.889723 0.281355
v -4.482426 0.890562 0.280908
v -4.481623 0.890077 0.280189
v -4.482366 0.888791 0.280872
v -4.482911 0.889723 0.281355
v -4.481623 0.890077 0.280189
v -4.484201 0.888396 0.276181
v -4.483162 0.889152 0.275895
v -4.483395 0.890012 0.276349
v -4.484201 0.888396 0.276181
v -4.481904 0.888984 0.276246
v -4.481375 0.888019 0.276968
v -4.481034 0.888515 0.277766
v -4.481904 0.888984 0.276246
v -4.481973 0.886983 0.277519
v -4.483248 0.886657 0.277483
v -4.483509 0.886716 0.278446
v -4.481973 0.886983 0.277519
v -4.484768 0.889014 0.276726
v -4.484240 0.887286 0.276887
v -4.484201 0.888396 0.276181
v -4.484768 0.889014 0.276726
v -4.484240 0.887286 0.276887
v -4.481733 0.889790 0.276812
v -4.483395 0.890012 0.276349
v -4.483162 0.889152 0.275895
v -4.481904 0.888984 0.276246
v -4.481733 0.889790 0.276812
v -4.483162 0.889152 0.275895
v -4.481824 0.887147 0.278494
v -4.481034 0.888515 0.277766
v -4.481375 0.888019 0.276968
v -4.481973 0.886983 0.277519
v -4.481824 0.887147 0.278494
v -4.481375 0.888019 0.276968
v -4.484818 0.887547 0.277660
v -4.483509 0.886716 0.278446
v -4.483248 0.886657 0.277483
v -4.484240 0.887286 0.276887
v -4.484818 0.887547 0.277660
v -4.483248 0.886657 0.277483
v -4.483509 0.886716 0.278446
v -4.484818 0.887547 0.277660
v -4.485336 0.888207 0.278920
v -4.483509 0.886716 0.278446
v -4.485181 0.889166 0.280088
v -4.483949 0.888385 0.280828
v -4.483823 0.887247 0.279829
v -4.485336 0.888207 0.278920
v -4.485181 0.889166 0.280088
v -4.483823 0.887247 0.279829
v -4.483823 0.887247 0.279829
v -4.481824 0.887147 0.278494
v -4.483509 0.886716 0.278446
v -4.483823 0.887247 0.279829
v -4.481824 0.887147 0.278494
v -4.483949 0.888385 0.280828
v -4.482366 0.888791 0.280872
v -4.481877 0.887745 0.279884
v -4.483823 0.887247 0.279829
v -4.483949 0.888385 0.280828
v -4.481877 0.887745 0.279884
v -4.481877 0.887745 0.279884
v -4.481034 0.888515 0.277766
v -4.481824 0.887147 0.278494
v -4.481877 0.887745 0.279884
v -4.481034 0.888515 0.277766
v -4.482366 0.888791 0.280872
v -4.481623 0.890077 0.280189
v -4.480964 0.889325 0.279044
v -4.481877 0.887745 0.279884
v -4.482366 0.888791 0.280872
v -4.480964 0.889325 0.279044
v -4.480964 0.889325 0.279044
v -4.481733 0.889790 0.276812
v -4.481034 0.888515 0.277766
v -4.480964 0.889325 0.279044
v -4.481733 0.889790 0.276812
v -4.481623 0.890077 0.280189
v -4.482280 0.891275 0.279291
v -4.481771 0.890798 0.277941
v -4.480964 0.889325 0.279044
v -4.481623 0.890077 0.280189
v -4.481771 0.890798 0.277941
v -4.481771 0.890798 0.277941
v -4.483395 0.890012 0.276349
v -4.481733 0.889790 0.276812
v -4.481771 0.890798 0.277941
v -4.483395 0.890012 0.276349
v -4.482280 0.891275 0.279291
v -4.483842 0.891484 0.278856
v -4.483691 0.891055 0.277406
v -4.481771 0.890798 0.277941
v -4.482280 0.891275 0.279291
v -4.483691 0.891055 0.277406
v -4.483691 0.891055 0.277406
v -4.484768 0.889014 0.276726
v -4.483395 0.890012 0.276349
v -4.483691 0.891055 0.277406
v -4.484768 0.889014 0.276726
v -4.483842 0.891484 0.278856
v -4.485133 0.890545 0.279211
v -4.485278 0.889901 0.277842
v -4.483691 0.891055 0.277406
v -4.483842 0.891484 0.278856
v -4.485278 0.889901 0.277842
v -4.485278 0.889901 0.277842
v -4.485336 0.888207 0.278920
v -4.484818 0.887547 0.277660
v -4.484768 0.889014 0.276726
v -4.485278 0.889901 0.277842
v -4.484818 0.887547 0.277660
v -4.485133 0.890545 0.279211
v -4.485181 0.889166 0.280088
v -4.485336 0.888207 0.278920
v -4.485278 0.889901 0.277842
v -4.485133 0.890545 0.279211
v -4.485336 0.888207 0.278920
v -4.484748 0.889968 0.280843
v -4.483944 0.889459 0.281325
v -4.483949 0.888385 0.280828
v -4.485181 0.889166 0.280088
v -4.484748 0.889968 0.280843
v -4.483949 0.888385 0.280828
v -4.482911 0.889723 0.281355
v -4.483944 0.889459 0.281325
v -4.482426 0.890562 0.280908
v -4.484748 0.889968 0.280843
v -4.482426 0.890562 0.280908
v -4.483944 0.889459 0.281325
v -4.482855 0.891345 0.280323
v -4.482426 0.890562 0.280908
v -4.484748 0.889968 0.280843
v -4.484717 0.890868 0.280270
v -4.482855 0.891345 0.280323
v -4.484748 0.889968 0.280843
v -4.483875 0.891481 0.280039
v -4.482855 0.891345 0.280323
v -4.484717 0.890868 0.280270
v -4.481037 0.884001 0.273036
v -4.480397 0.885109 0.272447
v -4.482400 0.883652 0.272998
v -4.483461 0.884325 0.272361
v -4.482400 0.883652 0.272998
v -4.480397 0.885109 0.272447
v -4.480963 0.886141 0.271675
v -4.483461 0.884325 0.272361
v -4.480397 0.885109 0.272447
v -4.483420 0.885512 0.271605
v -4.483461 0.884325 0.272361
v -4.480963 0.886141 0.271675
v -4.482308 0.886321 0.271300
v -4.483420 0.885512 0.271605
v -4.480963 0.886141 0.271675
vn 0.1600 -0.5338 -0.8303
vn -0.6263 0.6159 0.4780
vn 0.2277 0.8343 0.5021
vn -0.2399 0.8967 0.3719
vn -0.6405 0.2032 0.7406
vn 0.2276 0.8343 0.5021
vn -0.6405 0.2032 0.7405
vn 0.4243 0.4756 0.7706
vn -0.2719 -0.0305 0.9618
vn -0.2720 -0.0305 0.9618
vn 0.2019 0.0907 0.9752
vn -0.2917 -0.5453 0.7859
vn -0.8884 -0.1669 0.4277
vn -0.9070 -0.4010 0.1285
vn -0.8653 0.5012 0.0026
vn -0.8818 0.3303 -0.3367
vn -0.9070 -0.4010 0.1286
vn -0.7948 -0.5769 -0.1886
vn -0.7710 0.1121 -0.6269
vn -0.2398 0.9560 -0.1692
vn -0.1971 0.8281 -0.5248
vn -0.2398 0.9559 -0.1692
vn -0.1260 0.5810 -0.8041
vn 0.5171 0.8549 0.0415
vn 0.6315 0.7175 -0.2941
vn -0.2398 0.9560 -0.1693
vn 0.5171 0.8549 0.0416
vn -0.1260 0.5809 -0.8041
vn 0.6545 0.4768 -0.5867
vn 0.6315 0.7174 -0.2941
vn 0.8355 0.2742 0.4762
vn 0.9799 0.0818 0.1818
vn 0.8355 0.2742 0.4763
vn 0.6546 0.4767 -0.5867
vn 0.9799 0.0818 0.1817
vn 0.9828 -0.1220 -0.1385
vn 0.9799 0.0819 0.1818
vn 0.4755 -0.3489 0.8075
vn 0.5859 -0.6003 0.5444
vn 0.8355 0.2741 0.4762
vn 0.9828 -0.1221 -0.1385
vn 0.6117 -0.7646 0.2031
vn 0.5859 -0.6003 0.5443
vn -0.2916 -0.5453 0.7859
vn -0.2538 -0.8151 0.5207
vn 0.4755 -0.3490 0.8075
vn -0.2916 -0.5452 0.7859
vn 0.6116 -0.7646 0.2031
vn -0.1794 -0.9670 0.1809
vn -0.2539 -0.8151 0.5207
vn -0.1794 -0.9670 0.1808
vn -0.7948 -0.5768 -0.1886
vn -0.1976 -0.9463 0.2558
vn -0.7948 -0.5769 -0.1885
vn -0.8285 -0.5463 -0.1230
vn -0.1795 -0.9670 0.1808
vn 0.9942 -0.0799 -0.0716
vn 0.6136 -0.7388 0.2786
vn -0.1427 0.6410 -0.7541
vn 0.6576 0.5341 -0.5313
vn -0.1428 0.6410 -0.7542
vn -0.8286 -0.5462 -0.1230
vn -0.8041 0.1601 -0.5725
vn 0.6136 -0.7388 0.2787
vn 0.6576 0.5342 -0.5312
vn 0.6576 0.5342 -0.5313
vn 0.6546 0.4768 -0.5867
vn -0.8041 0.1602 -0.5724
vn -0.1427 0.6410 -0.7542
vn 0.8355 0.2741 0.4763
vn 0.4242 0.4756 0.7706
vn -0.2400 0.8967 0.3718
vn -0.8884 -0.1669 0.4276
vn -0.2399 0.8968 0.3718
vn -0.8653 0.5012 0.0025
vn -0.6262 0.6159 0.4780
vn 0.4755 -0.3489 0.8076
vn -0.2917 -0.5452 0.7859
vn -0.9045 -0.4111 0.1133
vn -0.8042 0.1602 -0.5724
vn -0.8793 0.3206 -0.3522
vn -0.9046 -0.4110 0.1133
vn -0.8042 0.1601 -0.5724
vn 0.5892 -0.6105 0.5293
vn -0.2510 -0.8254 0.5056
vn 0.6348 0.7079 -0.3096
vn 0.9834 0.0720 0.1665
vn 0.6348 0.7080 -0.3095
vn -0.8793 0.3206 -0.3523
vn -0.1428 0.6410 -0.7541
vn -0.1943 0.8186 -0.5405
vn -0.8793 0.3207 -0.3522
vn -0.1942 0.8186 -0.5405
vn 0.6348 0.7080 -0.3096
vn -0.1943 0.8187 -0.5404
vt 0.530319 0.611839
vt 0.522446 0.618118
vt 0.524872 0.613083
vt 0.524872 0.623154
vt 0.534683 0.615326
vt 0.530319 0.624397
vt 0.534683 0.620918
vt 0.537079 0.671494
vt 0.541916 0.669548
vt 0.539566 0.672157
vt 0.536179 0.669609
vt 0.539856 0.666756
vt 0.536224 0.667854
vt 0.537567 0.666748
vt 0.534592 0.666855
vt 0.534012 0.669838
vt 0.530777 0.669685
vt 0.535187 0.673050
vt 0.531769 0.674789
vt 0.525803 0.669067
vt 0.526108 0.676537
vt 0.539017 0.675606
vt 0.536011 0.680244
vt 0.529755 0.684982
vt 0.547180 0.674767
vt 0.546982 0.686485
vt 0.537415 0.696274
vt 0.547180 0.658051
vt 0.540527 0.663902
vt 0.539825 0.659698
vt 0.546280 0.665543
vt 0.543762 0.651657
vt 0.537613 0.655174
vt 0.536758 0.664742
vt 0.535126 0.661980
vt 0.532364 0.658463
vt 0.532074 0.665283
vt 0.528198 0.662933
vt 0.523743 0.660286
vt 0.519989 0.668175
vt 0.535217 0.651588
vt 0.529327 0.654999
vt 0.522873 0.688484
vt 0.528320 0.699394
vt 0.519577 0.678001
vt 0.540466 0.648293
vt 0.604446 0.642853
vt 0.626221 0.647896
vt 0.604553 0.648445
vt 0.626144 0.642670
vt 0.604553 0.631676
vt 0.626144 0.637444
vt 0.604446 0.637268
vt 0.626221 0.632225
vt 0.605011 0.620506
vt 0.626404 0.626999
vt 0.604736 0.626091
vt 0.626663 0.621780
vt 0.626404 0.653114
vt 0.604736 0.654030
vt 0.626663 0.658333
vt 0.605011 0.659607
s 0
usemtl decorations
f 240/1/1 239/2/1 238/3/1
f 237/1/1 236/4/1 235/2/1
f 234/5/1 233/4/1 232/1/1
f 231/5/1 230/6/1 229/4/1
f 228/6/1 227/5/1 226/7/1
s 1
f 225/8/2 224/9/3 223/10/4
f 222/11/5 221/9/6 220/8/2
f 219/11/7 218/12/8 217/9/3
f 216/13/9 215/12/8 214/11/7
f 213/12/8 212/13/10 211/14/11
f 210/15/12 209/11/5 208/16/13
f 207/15/12 206/13/9 205/11/5
f 204/17/14 203/18/15 202/19/16
f 201/17/17 200/16/13 199/18/15
f 198/20/18 197/19/16 196/21/19
f 195/20/18 194/17/17 193/19/16
f 192/19/16 191/22/20 190/23/21
f 189/19/16 188/18/15 187/22/22
f 186/21/19 185/23/21 184/24/23
f 183/21/19 3/19/16 182/23/21
f 181/23/21 180/25/24 179/26/25
f 178/23/21 177/22/26 176/25/27
f 175/24/28 174/26/25 173/27/29
f 172/24/23 4/23/21 171/26/25
f 170/28/30 169/29/31 168/30/32
f 167/28/30 166/31/24 165/29/33
f 164/32/34 163/30/35 162/33/36
f 161/32/34 13/28/25 160/30/37
f 159/30/35 158/34/38 157/35/39
f 156/30/32 155/29/40 154/34/38
f 153/33/41 152/35/39 151/36/42
f 150/33/41 14/30/32 149/35/39
f 148/35/43 147/15/44 146/37/45
f 145/35/39 144/34/46 143/15/47
f 142/36/48 141/37/45 140/38/49
f 139/36/48 16/35/39 138/37/45
f 137/37/50 136/16/13 135/17/17
f 134/37/45 133/15/12 132/16/13
f 131/38/51 130/17/17 129/20/52
f 128/38/51 36/37/45 25/17/17
f 127/39/53 126/20/54 125/40/55
f 124/39/53 123/38/56 122/20/54
f 121/41/57 120/36/42 119/42/58
f 118/41/57 117/33/41 116/36/42
f 115/43/59 114/27/29 113/44/60
f 112/43/61 111/24/23 110/27/29
f 109/40/62 108/21/19 107/45/63
f 106/40/55 40/20/18 105/21/19
f 104/42/64 103/38/51 102/39/53
f 101/42/64 41/36/42 42/38/51
f 100/46/65 99/33/36 98/41/57
f 97/46/66 37/32/67 38/33/36
f 96/45/68 95/24/23 94/43/69
f 93/45/68 33/21/19 34/24/23
f 92/29/70 91/14/11 90/34/38
f 89/29/70 88/12/71 87/14/11
f 86/22/20 85/9/6 84/25/27
f 83/22/20 82/10/72 81/9/6
f 80/16/73 79/8/2 78/18/15
f 29/16/73 30/11/5 77/8/2
f 76/31/27 75/12/8 28/29/33
f 31/31/27 26/9/6 27/12/71
f 74/18/15 73/10/74 24/22/22
f 21/18/75 22/8/76 23/10/4
f 72/34/77 71/13/10 20/15/78
f 17/34/38 18/14/11 19/13/9
f 70/47/79 69/48/80 68/49/81
f 67/47/82 66/50/55 65/48/83
f 64/51/84 63/52/53 62/53/85
f 61/51/84 60/54/64 59/52/53
f 58/55/86 57/56/57 56/57/87
f 55/55/88 54/58/60 53/56/57
f 52/49/89 51/59/90 50/60/91
f 2/49/92 32/48/63 49/59/61
f 48/53/85 47/50/62 12/47/79
f 9/53/85 10/52/53 11/50/55
f 46/57/87 45/54/64 8/51/84
f 5/57/87 6/56/57 7/54/58
f 44/60/93 43/61/65 15/62/94
f 1/60/95 35/59/61 39/61/66
