# Blender 5.0.0
# www.blender.org
mtllib Circle_005_Circle_Dupli_239_decorations_0.mtl
o Circle.005|Circle|Dupli|239_decorations_0
v -4.677965 0.787521 0.477213
v -4.677953 0.787689 0.478611
v -4.685793 0.787674 0.478981
v -4.685810 0.787435 0.476986
v -4.677791 0.789904 0.476358
v -4.683244 0.790245 0.476445
v -4.683193 0.790952 0.477555
v -4.677737 0.790660 0.477545
v -4.677770 0.790206 0.478877
v -4.683225 0.790527 0.478801
v -4.683315 0.789291 0.479245
v -4.677866 0.788884 0.479352
v -4.685707 0.788841 0.475555
v -4.685562 0.790834 0.475765
v -4.677893 0.788507 0.476210
v -4.685484 0.791913 0.477459
v -4.686969 0.791592 0.477509
v -4.687999 0.791015 0.477587
v -4.688025 0.790671 0.478597
v -4.687008 0.791065 0.479057
v -4.687221 0.788142 0.478748
v -4.688163 0.788764 0.478395
v -4.688172 0.788637 0.477336
v -4.687234 0.787948 0.477125
v -4.685670 0.789379 0.480037
v -4.688118 0.789384 0.476576
v -4.688040 0.790442 0.476688
v -4.687032 0.790714 0.476131
v -4.687120 0.789529 0.479608
v -4.688097 0.789669 0.478957
v -4.687150 0.789092 0.475960
v -4.683396 0.788174 0.478552
v -4.684297 0.787828 0.478814
v -4.684311 0.787621 0.477087
v -4.683407 0.788018 0.477245
v -4.685533 0.791265 0.479360
v -4.684222 0.788839 0.475848
v -4.684096 0.790564 0.476031
v -4.683339 0.788939 0.476307
v -4.684190 0.789304 0.479728
v -4.684029 0.791497 0.477496
v -4.684071 0.790937 0.479142
v -4.683339 0.788939 0.476307
v -4.677965 0.787521 0.477213
v -4.683193 0.790952 0.477555
v -4.677791 0.789904 0.476358
v -4.683315 0.789291 0.479245
v -4.677770 0.790206 0.478877
v -4.683407 0.788018 0.477245
v -4.677965 0.787521 0.477213
v -4.683407 0.788018 0.477245
v -4.677953 0.787689 0.478611
v -4.683244 0.790245 0.476445
v -4.683339 0.788939 0.476307
v -4.677893 0.788507 0.476210
v -4.677791 0.789904 0.476358
v -4.683244 0.790245 0.476445
v -4.677893 0.788507 0.476210
v -4.683225 0.790527 0.478801
v -4.683193 0.790952 0.477555
v -4.677737 0.790660 0.477545
v -4.677770 0.790206 0.478877
v -4.683225 0.790527 0.478801
v -4.677737 0.790660 0.477545
v -4.683396 0.788174 0.478552
v -4.683315 0.789291 0.479245
v -4.677866 0.788884 0.479352
v -4.677953 0.787689 0.478611
v -4.683396 0.788174 0.478552
v -4.677866 0.788884 0.479352
v -4.688025 0.790671 0.478597
v -4.686969 0.791592 0.477509
v -4.688172 0.788637 0.477336
v -4.687221 0.788142 0.478748
v -4.688040 0.790442 0.476688
v -4.687150 0.789092 0.475960
v -4.688163 0.788764 0.478395
v -4.687221 0.788142 0.478748
v -4.688163 0.788764 0.478395
v -4.687120 0.789529 0.479608
v -4.688118 0.789384 0.476576
v -4.688172 0.788637 0.477336
v -4.687234 0.787948 0.477125
v -4.687150 0.789092 0.475960
v -4.688118 0.789384 0.476576
v -4.687234 0.787948 0.477125
v -4.687999 0.791015 0.477587
v -4.688040 0.790442 0.476688
v -4.687032 0.790714 0.476131
v -4.686969 0.791592 0.477509
v -4.687999 0.791015 0.477587
v -4.687032 0.790714 0.476131
v -4.683396 0.788174 0.478552
v -4.683407 0.788018 0.477245
v -4.684311 0.787621 0.477087
v -4.683396 0.788174 0.478552
v -4.683339 0.788939 0.476307
v -4.683244 0.790245 0.476445
v -4.684096 0.790564 0.476031
v -4.683339 0.788939 0.476307
v -4.683193 0.790952 0.477555
v -4.683225 0.790527 0.478801
v -4.684071 0.790937 0.479142
v -4.683193 0.790952 0.477555
v -4.684297 0.787828 0.478814
v -4.683315 0.789291 0.479245
v -4.683396 0.788174 0.478552
v -4.684297 0.787828 0.478814
v -4.683315 0.789291 0.479245
v -4.684222 0.788839 0.475848
v -4.684311 0.787621 0.477087
v -4.683407 0.788018 0.477245
v -4.683339 0.788939 0.476307
v -4.684222 0.788839 0.475848
v -4.683407 0.788018 0.477245
v -4.684029 0.791497 0.477496
v -4.684096 0.790564 0.476031
v -4.683244 0.790245 0.476445
v -4.683193 0.790952 0.477555
v -4.684029 0.791497 0.477496
v -4.683244 0.790245 0.476445
v -4.684190 0.789304 0.479728
v -4.684071 0.790937 0.479142
v -4.683225 0.790527 0.478801
v -4.683315 0.789291 0.479245
v -4.684190 0.789304 0.479728
v -4.683225 0.790527 0.478801
v -4.684071 0.790937 0.479142
v -4.684190 0.789304 0.479728
v -4.685670 0.789379 0.480037
v -4.684071 0.790937 0.479142
v -4.687120 0.789529 0.479608
v -4.687008 0.791065 0.479057
v -4.685533 0.791265 0.479360
v -4.685670 0.789379 0.480037
v -4.687120 0.789529 0.479608
v -4.685533 0.791265 0.479360
v -4.685533 0.791265 0.479360
v -4.684029 0.791497 0.477496
v -4.684071 0.790937 0.479142
v -4.685533 0.791265 0.479360
v -4.684029 0.791497 0.477496
v -4.687008 0.791065 0.479057
v -4.686969 0.791592 0.477509
v -4.685484 0.791913 0.477459
v -4.685533 0.791265 0.479360
v -4.687008 0.791065 0.479057
v -4.685484 0.791913 0.477459
v -4.685484 0.791913 0.477459
v -4.684096 0.790564 0.476031
v -4.684029 0.791497 0.477496
v -4.685484 0.791913 0.477459
v -4.684096 0.790564 0.476031
v -4.686969 0.791592 0.477509
v -4.687032 0.790714 0.476131
v -4.685562 0.790834 0.475765
v -4.685484 0.791913 0.477459
v -4.686969 0.791592 0.477509
v -4.685562 0.790834 0.475765
v -4.685562 0.790834 0.475765
v -4.684222 0.788839 0.475848
v -4.684096 0.790564 0.476031
v -4.685562 0.790834 0.475765
v -4.684222 0.788839 0.475848
v -4.687032 0.790714 0.476131
v -4.687150 0.789092 0.475960
v -4.685707 0.788841 0.475555
v -4.685562 0.790834 0.475765
v -4.687032 0.790714 0.476131
v -4.685707 0.788841 0.475555
v -4.685707 0.788841 0.475555
v -4.684311 0.787621 0.477087
v -4.684222 0.788839 0.475848
v -4.685707 0.788841 0.475555
v -4.684311 0.787621 0.477087
v -4.687150 0.789092 0.475960
v -4.687234 0.787948 0.477125
v -4.685810 0.787435 0.476986
v -4.685707 0.788841 0.475555
v -4.687150 0.789092 0.475960
v -4.685810 0.787435 0.476986
v -4.685810 0.787435 0.476986
v -4.684297 0.787828 0.478814
v -4.684311 0.787621 0.477087
v -4.685810 0.787435 0.476986
v -4.684297 0.787828 0.478814
v -4.687234 0.787948 0.477125
v -4.687221 0.788142 0.478748
v -4.685793 0.787674 0.478981
v -4.685810 0.787435 0.476986
v -4.687234 0.787948 0.477125
v -4.685793 0.787674 0.478981
v -4.685793 0.787674 0.478981
v -4.685670 0.789379 0.480037
v -4.684190 0.789304 0.479728
v -4.684297 0.787828 0.478814
v -4.685793 0.787674 0.478981
v -4.684190 0.789304 0.479728
v -4.687221 0.788142 0.478748
v -4.687120 0.789529 0.479608
v -4.685670 0.789379 0.480037
v -4.685793 0.787674 0.478981
v -4.687221 0.788142 0.478748
v -4.685670 0.789379 0.480037
v -4.688097 0.789669 0.478957
v -4.688025 0.790671 0.478597
v -4.687008 0.791065 0.479057
v -4.687120 0.789529 0.479608
v -4.688097 0.789669 0.478957
v -4.687008 0.791065 0.479057
v -4.687999 0.791015 0.477587
v -4.688025 0.790671 0.478597
v -4.688040 0.790442 0.476688
v -4.688097 0.789669 0.478957
v -4.688040 0.790442 0.476688
v -4.688025 0.790671 0.478597
v -4.688118 0.789384 0.476576
v -4.688040 0.790442 0.476688
v -4.688097 0.789669 0.478957
v -4.688163 0.788764 0.478395
v -4.688118 0.789384 0.476576
v -4.688097 0.789669 0.478957
v -4.688172 0.788637 0.477336
v -4.688118 0.789384 0.476576
v -4.688163 0.788764 0.478395
v -4.677737 0.790660 0.477545
v -4.677791 0.789904 0.476358
v -4.677770 0.790206 0.478877
v -4.677866 0.788884 0.479352
v -4.677770 0.790206 0.478877
v -4.677791 0.789904 0.476358
v -4.677893 0.788507 0.476210
v -4.677866 0.788884 0.479352
v -4.677791 0.789904 0.476358
v -4.677953 0.787689 0.478611
v -4.677866 0.788884 0.479352
v -4.677893 0.788507 0.476210
v -4.677965 0.787521 0.477213
v -4.677953 0.787689 0.478611
v -4.677893 0.788507 0.476210
vn 0.9974 -0.0726 0.0004
vn -0.8583 -0.4141 0.3031
vn -0.8372 -0.1297 -0.5312
vn -0.8623 -0.4723 -0.1827
vn -0.8282 0.0011 0.5604
vn -0.8282 0.0010 0.5604
vn -0.8020 0.3557 -0.4800
vn -0.7947 0.4605 0.3955
vn -0.8020 0.3556 -0.4800
vn -0.7830 0.6183 -0.0675
vn -0.3602 0.6781 0.6406
vn -0.4144 -0.0656 0.9077
vn -0.3601 0.6781 0.6407
vn -0.7947 0.4605 0.3954
vn -0.0457 -0.1016 0.9938
vn -0.4631 -0.7378 0.4912
vn -0.0991 -0.8372 0.5378
vn -0.0457 -0.1015 0.9938
vn -0.4144 -0.0657 0.9077
vn -0.4631 -0.7377 0.4912
vn 0.3290 -0.1227 0.9363
vn -0.0990 -0.8372 0.5378
vn 0.2787 -0.8158 0.5068
vn -0.4697 -0.8320 -0.2953
vn -0.1062 -0.9404 -0.3231
vn 0.2719 -0.9130 -0.3042
vn -0.4290 -0.2774 -0.8596
vn -0.0618 -0.3333 -0.9408
vn -0.4696 -0.8320 -0.2954
vn -0.4291 -0.2774 -0.8596
vn 0.2720 -0.9129 -0.3043
vn -0.0617 -0.3333 -0.9408
vn 0.3138 -0.3411 -0.8861
vn -0.3719 0.5083 -0.7767
vn 0.0008 0.5268 -0.8500
vn 0.3139 -0.3410 -0.8861
vn 0.3727 0.4692 -0.8006
vn 0.3138 -0.3410 -0.8861
vn 0.0007 0.5267 -0.8500
vn -0.3413 0.9336 -0.1091
vn 0.0343 0.9923 -0.1192
vn -0.3719 0.5084 -0.7767
vn 0.3728 0.4692 -0.8006
vn 0.0343 0.9923 -0.1191
vn 0.4043 0.9077 -0.1121
vn 0.0344 0.9923 -0.1191
vn -0.3601 0.6782 0.6406
vn 0.0136 0.7126 0.7014
vn -0.3412 0.9336 -0.1090
vn -0.3602 0.6782 0.6406
vn 0.4044 0.9077 -0.1120
vn 0.3848 0.6443 0.6609
vn 0.4044 0.9077 -0.1121
vn 0.0137 0.7126 0.7014
vn 0.3849 0.6443 0.6609
vn 0.3289 -0.1227 0.9364
vn 0.0136 0.7127 0.7014
vn 0.3101 0.6668 0.6777
vn 0.2528 -0.1197 0.9601
vn 0.2976 0.4873 -0.8210
vn 0.3301 0.9369 -0.1150
vn 0.2977 0.4873 -0.8210
vn 0.1943 -0.9300 -0.3120
vn 0.2373 -0.3436 -0.9087
vn 0.2527 -0.1197 0.9601
vn 0.2013 -0.8303 0.5197
vn 0.3300 0.9369 -0.1150
vn 0.2372 -0.3436 -0.9087
vn 0.3727 0.4691 -0.8006
vn 0.2977 0.4873 -0.8209
vn 0.2012 -0.8304 0.5196
vn 0.2720 -0.9129 -0.3042
vn 0.1944 -0.9300 -0.3120
vn 0.2012 -0.8303 0.5197
vn -0.7830 0.6183 -0.0676
vn -0.4697 -0.8320 -0.2954
vn -0.8373 -0.1297 -0.5312
vn -0.8583 -0.4140 0.3031
vn -0.4696 -0.8320 -0.2953
vn -0.3413 0.9336 -0.1090
vn -0.0273 -0.1030 0.9943
vn -0.0807 -0.8390 0.5381
vn 0.0528 0.9915 -0.1192
vn 0.0321 0.7117 0.7018
vn -0.0433 -0.3348 -0.9413
vn 0.0192 0.5257 -0.8505
vn -0.0434 -0.3348 -0.9413
vn 0.2373 -0.3436 -0.9086
vn -0.0806 -0.8390 0.5381
vn -0.0878 -0.9422 -0.3232
vn -0.0273 -0.1029 0.9943
vn 0.0320 0.7117 0.7018
vn -0.0878 -0.9422 -0.3233
vt 0.543243 0.611839
vt 0.535370 0.618118
vt 0.537796 0.613083
vt 0.537796 0.623154
vt 0.547607 0.615326
vt 0.543243 0.624397
vt 0.547607 0.620918
vt 0.565384 0.671494
vt 0.570206 0.669548
vt 0.567856 0.672157
vt 0.564468 0.669609
vt 0.568146 0.666756
vt 0.564514 0.667854
vt 0.565857 0.666748
vt 0.562897 0.666855
vt 0.562302 0.669838
vt 0.559082 0.669685
vt 0.563492 0.673050
vt 0.560059 0.674789
vt 0.554092 0.669067
vt 0.554398 0.676537
vt 0.567307 0.675606
vt 0.564316 0.680244
vt 0.558044 0.684982
vt 0.575485 0.674767
vt 0.575272 0.686485
vt 0.565720 0.696274
vt 0.575485 0.658051
vt 0.568817 0.663902
vt 0.568115 0.659698
vt 0.574570 0.665543
vt 0.572052 0.651657
vt 0.565903 0.655174
vt 0.565063 0.664742
vt 0.563416 0.661980
vt 0.560669 0.658463
vt 0.560364 0.665283
vt 0.556488 0.662933
vt 0.552032 0.660286
vt 0.548294 0.668175
vt 0.563522 0.651588
vt 0.557617 0.654999
vt 0.551163 0.688484
vt 0.556610 0.699394
vt 0.547867 0.678001
vt 0.568756 0.648293
vt 0.604446 0.682632
vt 0.626221 0.687675
vt 0.604553 0.688225
vt 0.626144 0.682457
vt 0.604553 0.671455
vt 0.626144 0.677231
vt 0.604446 0.677048
vt 0.626221 0.672005
vt 0.605011 0.660294
vt 0.626404 0.666786
vt 0.604736 0.665871
vt 0.626663 0.661568
vt 0.626404 0.692902
vt 0.604736 0.693810
vt 0.626663 0.698120
vt 0.605011 0.699394
s 0
usemtl decorations
f 240/1/1 239/2/1 238/3/1
f 237/1/1 236/4/1 235/2/1
f 234/5/1 233/4/1 232/1/1
f 231/5/1 230/6/1 229/4/1
f 228/6/1 227/5/1 226/7/1
s 1
f 225/8/2 224/9/3 223/10/4
f 222/11/5 221/9/3 220/8/2
f 219/11/6 218/12/7 217/9/3
f 216/13/8 215/12/9 214/11/6
f 213/12/7 212/13/8 211/14/10
f 210/15/11 209/11/6 208/16/12
f 207/15/13 206/13/14 205/11/5
f 204/17/15 203/18/16 202/19/17
f 201/17/18 200/16/19 199/18/20
f 198/20/21 197/19/22 196/21/23
f 195/20/21 194/17/15 193/19/17
f 192/19/17 191/22/24 190/23/25
f 189/19/17 188/18/16 187/22/24
f 186/21/23 185/23/25 184/24/26
f 183/21/23 3/19/17 182/23/25
f 181/23/25 180/25/27 179/26/28
f 178/23/25 177/22/29 176/25/30
f 175/24/31 174/26/32 173/27/33
f 172/24/31 4/23/25 171/26/32
f 170/28/32 169/29/34 168/30/35
f 167/28/32 166/31/27 165/29/34
f 164/32/36 163/30/35 162/33/37
f 161/32/38 13/28/32 160/30/39
f 159/30/35 158/34/40 157/35/41
f 156/30/35 155/29/42 154/34/40
f 153/33/43 152/35/44 151/36/45
f 150/33/43 14/30/35 149/35/44
f 148/35/46 147/15/47 146/37/48
f 145/35/46 144/34/49 143/15/50
f 142/36/51 141/37/48 140/38/52
f 139/36/53 16/35/44 138/37/48
f 137/37/54 136/16/19 135/17/15
f 134/37/48 133/15/50 132/16/12
f 131/38/55 130/17/15 129/20/56
f 128/38/55 36/37/57 25/17/15
f 127/39/58 126/20/56 125/40/59
f 124/39/58 123/38/52 122/20/56
f 121/41/60 120/36/45 119/42/61
f 118/41/62 117/33/43 116/36/45
f 115/43/63 114/27/33 113/44/64
f 112/43/63 111/24/31 110/27/33
f 109/40/65 108/21/23 107/45/66
f 106/40/65 40/20/21 105/21/23
f 104/42/67 103/38/52 102/39/58
f 101/42/61 41/36/45 42/38/52
f 100/46/68 99/33/69 98/41/70
f 97/46/64 37/32/38 38/33/69
f 96/45/71 95/24/72 94/43/73
f 93/45/74 33/21/23 34/24/72
f 92/29/42 91/14/75 90/34/40
f 89/29/42 88/12/9 87/14/10
f 86/22/76 85/9/3 84/25/30
f 83/22/29 82/10/4 81/9/77
f 80/16/19 79/8/2 78/18/20
f 29/16/19 30/11/5 77/8/78
f 76/31/30 75/12/9 28/29/34
f 31/31/30 26/9/77 27/12/9
f 74/18/16 73/10/4 24/22/79
f 21/18/16 22/8/78 23/10/4
f 72/34/80 71/13/8 20/15/11
f 17/34/80 18/14/75 19/13/14
f 70/47/81 69/48/74 68/49/82
f 67/47/81 66/50/59 65/48/74
f 64/51/83 63/52/58 62/53/84
f 61/51/83 60/54/61 59/52/58
f 58/55/85 57/56/70 56/57/86
f 55/55/87 54/58/88 53/56/70
f 52/49/89 51/59/63 50/60/90
f 2/49/82 32/48/66 49/59/63
f 48/53/84 47/50/65 12/47/91
f 9/53/92 10/52/58 11/50/59
f 46/57/86 45/54/61 8/51/83
f 5/57/86 6/56/70 7/54/61
f 44/60/93 43/61/68 15/62/85
f 1/60/93 35/59/73 39/61/88
