# Blender 5.0.0
# www.blender.org
mtllib Circle_002_Circle_004_Dupli_300_decorations_0.mtl
o Circle.002|Circle.004|Dupli|300_decorations_0
v -4.541016 2.131363 0.658191
v -4.541329 2.132212 0.657112
v -4.533902 2.134673 0.656495
v -4.533454 2.133462 0.658035
v -4.541554 2.132799 0.660214
v -4.536434 2.134708 0.660118
v -4.536852 2.135832 0.659576
v -4.542001 2.134002 0.659634
v -4.542120 2.134328 0.658269
v -4.536963 2.136137 0.658300
v -4.536684 2.135392 0.657251
v -4.541821 2.133531 0.657147
v -4.533597 2.133835 0.660004
v -4.534222 2.135510 0.660920
v -4.541115 2.131624 0.659572
v -4.534860 2.137227 0.660093
v -4.533378 2.137426 0.659819
v -4.532279 2.137300 0.659400
v -4.532369 2.137547 0.658366
v -4.533516 2.137804 0.658234
v -4.532598 2.135348 0.656891
v -4.531770 2.135944 0.657489
v -4.531532 2.135301 0.658307
v -4.532234 2.134362 0.658144
v -4.534603 2.136555 0.656545
v -4.531608 2.135499 0.659353
v -4.531940 2.136388 0.659839
v -4.532859 2.136029 0.660492
v -4.533169 2.136879 0.656931
v -4.532142 2.136943 0.657515
v -4.532350 2.134666 0.659746
v -4.536224 2.134159 0.657218
v -4.535336 2.134276 0.656776
v -4.534948 2.133228 0.658109
v -4.535931 2.133366 0.658227
v -4.535029 2.137692 0.658146
v -4.535071 2.133551 0.659813
v -4.535613 2.135001 0.660606
v -4.536025 2.133610 0.659518
v -4.535942 2.135905 0.656819
v -4.536165 2.136487 0.659890
v -4.536311 2.136889 0.658205
v -4.536025 2.133610 0.659518
v -4.541016 2.131363 0.658191
v -4.536852 2.135832 0.659576
v -4.541554 2.132799 0.660214
v -4.536684 2.135392 0.657251
v -4.542120 2.134328 0.658269
v -4.535931 2.133366 0.658227
v -4.541016 2.131363 0.658191
v -4.535931 2.133366 0.658227
v -4.541329 2.132212 0.657112
v -4.536434 2.134708 0.660118
v -4.536025 2.133610 0.659518
v -4.541115 2.131624 0.659572
v -4.541554 2.132799 0.660214
v -4.536434 2.134708 0.660118
v -4.541115 2.131624 0.659572
v -4.536963 2.136137 0.658300
v -4.536852 2.135832 0.659576
v -4.542001 2.134002 0.659634
v -4.542120 2.134328 0.658269
v -4.536963 2.136137 0.658300
v -4.542001 2.134002 0.659634
v -4.536224 2.134159 0.657218
v -4.536684 2.135392 0.657251
v -4.541821 2.133531 0.657147
v -4.541329 2.132212 0.657112
v -4.536224 2.134159 0.657218
v -4.541821 2.133531 0.657147
v -4.532369 2.137547 0.658366
v -4.533378 2.137426 0.659819
v -4.531532 2.135301 0.658307
v -4.532598 2.135348 0.656891
v -4.531940 2.136388 0.659839
v -4.532350 2.134666 0.659746
v -4.531770 2.135944 0.657489
v -4.532598 2.135348 0.656891
v -4.531770 2.135944 0.657489
v -4.533169 2.136879 0.656931
v -4.531608 2.135499 0.659353
v -4.531532 2.135301 0.658307
v -4.532234 2.134362 0.658144
v -4.532350 2.134666 0.659746
v -4.531608 2.135499 0.659353
v -4.532234 2.134362 0.658144
v -4.532279 2.137300 0.659400
v -4.531940 2.136388 0.659839
v -4.532859 2.136029 0.660492
v -4.533378 2.137426 0.659819
v -4.532279 2.137300 0.659400
v -4.532859 2.136029 0.660492
v -4.536224 2.134159 0.657218
v -4.535931 2.133366 0.658227
v -4.534948 2.133228 0.658109
v -4.536224 2.134159 0.657218
v -4.536025 2.133610 0.659518
v -4.536434 2.134708 0.660118
v -4.535613 2.135001 0.660606
v -4.536025 2.133610 0.659518
v -4.536852 2.135832 0.659576
v -4.536963 2.136137 0.658300
v -4.536311 2.136889 0.658205
v -4.536852 2.135832 0.659576
v -4.535336 2.134276 0.656776
v -4.536684 2.135392 0.657251
v -4.536224 2.134159 0.657218
v -4.535336 2.134276 0.656776
v -4.536684 2.135392 0.657251
v -4.535071 2.133551 0.659813
v -4.534948 2.133228 0.658109
v -4.535931 2.133366 0.658227
v -4.536025 2.133610 0.659518
v -4.535071 2.133551 0.659813
v -4.535931 2.133366 0.658227
v -4.536165 2.136487 0.659890
v -4.535613 2.135001 0.660606
v -4.536434 2.134708 0.660118
v -4.536852 2.135832 0.659576
v -4.536165 2.136487 0.659890
v -4.536434 2.134708 0.660118
v -4.535942 2.135905 0.656819
v -4.536311 2.136889 0.658205
v -4.536963 2.136137 0.658300
v -4.536684 2.135392 0.657251
v -4.535942 2.135905 0.656819
v -4.536963 2.136137 0.658300
v -4.536311 2.136889 0.658205
v -4.535942 2.135905 0.656819
v -4.534603 2.136555 0.656545
v -4.536311 2.136889 0.658205
v -4.533169 2.136879 0.656931
v -4.533516 2.137804 0.658234
v -4.535029 2.137692 0.658146
v -4.534603 2.136555 0.656545
v -4.533169 2.136879 0.656931
v -4.535029 2.137692 0.658146
v -4.535029 2.137692 0.658146
v -4.536165 2.136487 0.659890
v -4.536311 2.136889 0.658205
v -4.535029 2.137692 0.658146
v -4.536165 2.136487 0.659890
v -4.533516 2.137804 0.658234
v -4.533378 2.137426 0.659819
v -4.534860 2.137227 0.660093
v -4.535029 2.137692 0.658146
v -4.533516 2.137804 0.658234
v -4.534860 2.137227 0.660093
v -4.534860 2.137227 0.660093
v -4.535613 2.135001 0.660606
v -4.536165 2.136487 0.659890
v -4.534860 2.137227 0.660093
v -4.535613 2.135001 0.660606
v -4.533378 2.137426 0.659819
v -4.532859 2.136029 0.660492
v -4.534222 2.135510 0.660920
v -4.534860 2.137227 0.660093
v -4.533378 2.137426 0.659819
v -4.534222 2.135510 0.660920
v -4.534222 2.135510 0.660920
v -4.535071 2.133551 0.659813
v -4.535613 2.135001 0.660606
v -4.534222 2.135510 0.660920
v -4.535071 2.133551 0.659813
v -4.532859 2.136029 0.660492
v -4.532350 2.134666 0.659746
v -4.533597 2.133835 0.660004
v -4.534222 2.135510 0.660920
v -4.532859 2.136029 0.660492
v -4.533597 2.133835 0.660004
v -4.533597 2.133835 0.660004
v -4.534948 2.133228 0.658109
v -4.535071 2.133551 0.659813
v -4.533597 2.133835 0.660004
v -4.534948 2.133228 0.658109
v -4.532350 2.134666 0.659746
v -4.532234 2.134362 0.658144
v -4.533454 2.133462 0.658035
v -4.533597 2.133835 0.660004
v -4.532350 2.134666 0.659746
v -4.533454 2.133462 0.658035
v -4.533454 2.133462 0.658035
v -4.535336 2.134276 0.656776
v -4.534948 2.133228 0.658109
v -4.533454 2.133462 0.658035
v -4.535336 2.134276 0.656776
v -4.532234 2.134362 0.658144
v -4.532598 2.135348 0.656891
v -4.533902 2.134673 0.656495
v -4.533454 2.133462 0.658035
v -4.532234 2.134362 0.658144
v -4.533902 2.134673 0.656495
v -4.533902 2.134673 0.656495
v -4.534603 2.136555 0.656545
v -4.535942 2.135905 0.656819
v -4.535336 2.134276 0.656776
v -4.533902 2.134673 0.656495
v -4.535942 2.135905 0.656819
v -4.532598 2.135348 0.656891
v -4.533169 2.136879 0.656931
v -4.534603 2.136555 0.656545
v -4.533902 2.134673 0.656495
v -4.532598 2.135348 0.656891
v -4.534603 2.136555 0.656545
v -4.532142 2.136943 0.657515
v -4.532369 2.137547 0.658366
v -4.533516 2.137804 0.658234
v -4.533169 2.136879 0.656931
v -4.532142 2.136943 0.657515
v -4.533516 2.137804 0.658234
v -4.532279 2.137300 0.659400
v -4.532369 2.137547 0.658366
v -4.531940 2.136388 0.659839
v -4.532142 2.136943 0.657515
v -4.531940 2.136388 0.659839
v -4.532369 2.137547 0.658366
v -4.531608 2.135499 0.659353
v -4.531940 2.136388 0.659839
v -4.532142 2.136943 0.657515
v -4.531770 2.135944 0.657489
v -4.531608 2.135499 0.659353
v -4.532142 2.136943 0.657515
v -4.531532 2.135301 0.658307
v -4.531608 2.135499 0.659353
v -4.531770 2.135944 0.657489
v -4.542001 2.134002 0.659634
v -4.541554 2.132799 0.660214
v -4.542120 2.134328 0.658269
v -4.541821 2.133531 0.657147
v -4.542120 2.134328 0.658269
v -4.541554 2.132799 0.660214
v -4.541115 2.131624 0.659572
v -4.541821 2.133531 0.657147
v -4.541554 2.132799 0.660214
v -4.541329 2.132212 0.657112
v -4.541821 2.133531 0.657147
v -4.541115 2.131624 0.659572
v -4.541016 2.131363 0.658191
v -4.541329 2.132212 0.657112
v -4.541115 2.131624 0.659572
vn -0.9372 -0.3489 -0.0018
vn 0.8558 0.0709 -0.5124
vn 0.9301 -0.1331 0.3422
vn 0.9649 -0.2239 -0.1374
vn 0.6851 0.5294 -0.5004
vn 0.9301 -0.1332 0.3422
vn 0.6851 0.5293 -0.5004
vn 0.7778 0.2749 0.5652
vn 0.5813 0.8062 -0.1105
vn 0.7778 0.2748 0.5652
vn 0.5813 0.8061 -0.1105
vn 0.6225 0.6929 0.3638
vn 0.0706 0.9810 -0.1806
vn 0.2387 0.5329 -0.8118
vn 0.5813 0.8061 -0.1104
vn -0.1220 0.4406 -0.8894
vn 0.5150 -0.2093 -0.8312
vn 0.1805 -0.3717 -0.9106
vn -0.1220 0.4407 -0.8893
vn 0.5151 -0.2092 -0.8312
vn -0.4645 0.2849 -0.8385
vn 0.1805 -0.3718 -0.9106
vn -0.1794 -0.4804 -0.8585
vn -0.1220 0.4407 -0.8894
vn 0.1806 -0.3717 -0.9106
vn 0.6916 -0.6866 -0.2242
vn 0.3738 -0.8943 -0.2461
vn -0.1795 -0.4804 -0.8585
vn 0.3738 -0.8942 -0.2462
vn 0.0026 -0.9726 -0.2326
vn 0.6354 -0.5397 0.5523
vn 0.3122 -0.7334 0.6038
vn 0.6916 -0.6866 -0.2241
vn 0.6354 -0.5397 0.5522
vn 0.0025 -0.9726 -0.2325
vn -0.0554 -0.8211 0.5681
vn 0.3887 0.1208 0.9134
vn 0.0423 -0.0104 0.9991
vn 0.3888 0.1208 0.9134
vn 0.0422 -0.0104 0.9991
vn -0.3097 -0.1400 0.9405
vn 0.0423 -0.0104 0.9990
vn 0.1374 0.7976 0.5873
vn -0.2329 0.7304 0.6421
vn 0.3887 0.1209 0.9134
vn -0.3098 -0.1399 0.9405
vn -0.5689 0.5580 0.6042
vn -0.2329 0.7304 0.6420
vn 0.0706 0.9810 -0.1805
vn -0.3060 0.9312 -0.1984
vn 0.1374 0.7977 0.5873
vn -0.5689 0.5580 0.6041
vn -0.6377 0.7471 -0.1875
vn -0.3060 0.9311 -0.1984
vn -0.3059 0.9312 -0.1984
vn -0.6378 0.7470 -0.1875
vn -0.4644 0.2850 -0.8385
vn -0.3059 0.9312 -0.1983
vn -0.5745 0.7956 -0.1922
vn -0.3968 0.3218 -0.8596
vn -0.6378 0.7471 -0.1875
vn -0.2381 -0.1139 0.9645
vn -0.5039 0.6017 0.6197
vn -0.2382 -0.1139 0.9645
vn -0.3098 -0.1400 0.9405
vn 0.0821 -0.9677 -0.2383
vn 0.0226 -0.8124 0.5827
vn 0.0026 -0.9726 -0.2325
vn -0.3968 0.3218 -0.8597
vn -0.1795 -0.4803 -0.8585
vn -0.1046 -0.4630 -0.8802
vn -0.4645 0.2850 -0.8385
vn 0.0227 -0.8124 0.5827
vn 0.6226 0.6929 0.3638
vn 0.9649 -0.2239 -0.1375
vn 0.9302 -0.1331 0.3422
vn 0.8558 0.0710 -0.5123
vn 0.1374 0.7977 0.5872
vn -0.1394 0.4344 -0.8899
vn 0.1633 -0.3784 -0.9111
vn -0.1393 0.4344 -0.8899
vn -0.1046 -0.4629 -0.8802
vn -0.2503 0.7244 0.6423
vn -0.3234 0.9252 -0.1985
vn 0.2951 -0.7403 0.6041
vn 0.0250 -0.0169 0.9995
vn 0.2951 -0.7402 0.6041
vn 0.3566 -0.9012 -0.2463
vn -0.3235 0.9252 -0.1985
vn -0.1394 0.4344 -0.8898
vn -0.2503 0.7244 0.6424
vn 0.3567 -0.9012 -0.2463
vt 0.530319 0.635056
vt 0.522446 0.641335
vt 0.524872 0.636299
vt 0.524872 0.646370
vt 0.534683 0.638535
vt 0.530319 0.647614
vt 0.534683 0.644127
vt 0.508789 0.671494
vt 0.513626 0.669548
vt 0.511276 0.672157
vt 0.507889 0.669609
vt 0.511566 0.666756
vt 0.507935 0.667854
vt 0.509277 0.666748
vt 0.506302 0.666855
vt 0.505722 0.669838
vt 0.502487 0.669685
vt 0.506897 0.673050
vt 0.503479 0.674789
vt 0.497520 0.669067
vt 0.497810 0.676537
vt 0.510727 0.675606
vt 0.507721 0.680244
vt 0.501465 0.684982
vt 0.518890 0.674767
vt 0.518692 0.686485
vt 0.509125 0.696274
vt 0.518890 0.658051
vt 0.512238 0.663902
vt 0.511536 0.659698
vt 0.517990 0.665543
vt 0.515472 0.651657
vt 0.509323 0.655174
vt 0.508469 0.664742
vt 0.506836 0.661980
vt 0.504074 0.658463
vt 0.503784 0.665283
vt 0.499901 0.662933
vt 0.495453 0.660286
vt 0.491707 0.668175
vt 0.506927 0.651588
vt 0.501038 0.654999
vt 0.494583 0.688484
vt 0.500031 0.699394
vt 0.491287 0.678001
vt 0.512177 0.648293
vt 0.627350 0.642853
vt 0.649124 0.647896
vt 0.627441 0.648445
vt 0.649033 0.642670
vt 0.627441 0.631676
vt 0.649033 0.637444
vt 0.627350 0.637268
vt 0.649124 0.632225
vt 0.627914 0.620506
vt 0.649292 0.626999
vt 0.627625 0.626091
vt 0.649551 0.621780
vt 0.649292 0.653114
vt 0.627625 0.654030
vt 0.649551 0.658333
vt 0.627914 0.659607
s 0
usemtl decorations
f 240/1/1 239/2/1 238/3/1
f 237/1/1 236/4/1 235/2/1
f 234/5/1 233/4/1 232/1/1
f 231/5/1 230/6/1 229/4/1
f 228/6/1 227/5/1 226/7/1
s 1
f 225/8/2 224/9/3 223/10/4
f 222/11/5 221/9/6 220/8/2
f 219/11/7 218/12/8 217/9/3
f 216/13/9 215/12/10 214/11/7
f 213/12/8 212/13/11 211/14/12
f 210/15/13 209/11/7 208/16/14
f 207/15/13 206/13/15 205/11/5
f 204/17/16 203/18/17 202/19/18
f 201/17/19 200/16/14 199/18/20
f 198/20/21 197/19/22 196/21/23
f 195/20/21 194/17/24 193/19/25
f 192/19/18 191/22/26 190/23/27
f 189/19/18 188/18/17 187/22/26
f 186/21/28 185/23/29 184/24/30
f 183/21/28 3/19/18 182/23/29
f 181/23/27 180/25/31 179/26/32
f 178/23/27 177/22/33 176/25/34
f 175/24/35 174/26/32 173/27/36
f 172/24/35 4/23/27 171/26/32
f 170/28/32 169/29/37 168/30/38
f 167/28/32 166/31/31 165/29/39
f 164/32/36 163/30/40 162/33/41
f 161/32/36 13/28/32 160/30/42
f 159/30/38 158/34/43 157/35/44
f 156/30/38 155/29/45 154/34/43
f 153/33/46 152/35/44 151/36/47
f 150/33/46 14/30/38 149/35/44
f 148/35/48 147/15/49 146/37/50
f 145/35/48 144/34/51 143/15/49
f 142/36/52 141/37/50 140/38/53
f 139/36/52 16/35/48 138/37/50
f 137/37/54 136/16/14 135/17/16
f 134/37/55 133/15/49 132/16/14
f 131/38/56 130/17/16 129/20/57
f 128/38/56 36/37/58 25/17/16
f 127/39/59 126/20/57 125/40/60
f 124/39/59 123/38/61 122/20/57
f 121/41/62 120/36/47 119/42/63
f 118/41/64 117/33/65 116/36/47
f 115/43/66 114/27/36 113/44/67
f 112/43/66 111/24/68 110/27/36
f 109/40/69 108/21/70 107/45/71
f 106/40/60 40/20/72 105/21/70
f 104/42/63 103/38/61 102/39/59
f 101/42/63 41/36/47 42/38/61
f 100/46/73 99/33/41 98/41/64
f 97/46/67 37/32/36 38/33/41
f 96/45/71 95/24/68 94/43/66
f 93/45/71 33/21/28 34/24/68
f 92/29/45 91/14/74 90/34/43
f 89/29/45 88/12/10 87/14/12
f 86/22/33 85/9/3 84/25/34
f 83/22/33 82/10/75 81/9/76
f 80/16/14 79/8/2 78/18/20
f 29/16/14 30/11/5 77/8/77
f 76/31/31 75/12/8 28/29/39
f 31/31/31 26/9/76 27/12/8
f 74/18/17 73/10/4 24/22/26
f 21/18/17 22/8/77 23/10/4
f 72/34/78 71/13/11 20/15/49
f 17/34/78 18/14/74 19/13/11
f 70/47/79 69/48/71 68/49/80
f 67/47/81 66/50/60 65/48/82
f 64/51/83 63/52/59 62/53/84
f 61/51/83 60/54/63 59/52/59
f 58/55/85 57/56/64 56/57/86
f 55/55/87 54/58/67 53/56/64
f 52/49/80 51/59/66 50/60/88
f 2/49/80 32/48/71 49/59/66
f 48/53/89 47/50/69 12/47/90
f 9/53/84 10/52/59 11/50/69
f 46/57/86 45/54/63 8/51/91
f 5/57/86 6/56/64 7/54/63
f 44/60/88 43/61/73 15/62/85
f 1/60/92 35/59/66 39/61/67
