# Blender 5.0.0
# www.blender.org
mtllib Circle_002_Circle_003_Dupli_213_decorations_0.mtl
o Circle.002|Circle.003|Dupli|213_decorations_0
v -4.538967 1.858134 0.765323
v -4.539190 1.856785 0.764984
v -4.544076 1.858745 0.759162
v -4.543758 1.860669 0.759646
v -4.540658 1.858537 0.767172
v -4.544319 1.860008 0.763391
v -4.544917 1.858841 0.763500
v -4.541298 1.857288 0.767289
v -4.541059 1.856107 0.766560
v -4.544694 1.857736 0.762819
v -4.543817 1.857527 0.761860
v -4.540121 1.855883 0.765534
v -4.544691 1.861781 0.761036
v -4.546170 1.861244 0.762284
v -4.539620 1.858914 0.766297
v -4.547084 1.859463 0.762452
v -4.547759 1.859899 0.761162
v -4.547955 1.860214 0.760039
v -4.547774 1.859319 0.759486
v -4.547482 1.858528 0.760316
v -4.545312 1.859315 0.758485
v -4.546358 1.859833 0.758292
v -4.546189 1.860855 0.758549
v -4.545053 1.860880 0.758879
v -4.545404 1.857458 0.759947
v -4.546684 1.861446 0.759287
v -4.547470 1.861161 0.759950
v -4.547016 1.861349 0.761026
v -4.546393 1.858268 0.759124
v -4.547063 1.859150 0.758709
v -4.545812 1.861786 0.760010
v -4.542946 1.858370 0.761345
v -4.543254 1.858439 0.760396
v -4.542979 1.860105 0.760816
v -4.542738 1.859631 0.761662
v -4.546743 1.857778 0.761411
v -4.543786 1.861067 0.762019
v -4.545067 1.860603 0.763099
v -4.543349 1.860360 0.762573
v -4.544405 1.857326 0.761076
v -4.545858 1.859061 0.763244
v -4.545563 1.857602 0.762344
v -4.543349 1.860360 0.762573
v -4.538967 1.858134 0.765323
v -4.544917 1.858841 0.763500
v -4.540658 1.858537 0.767172
v -4.543817 1.857527 0.761860
v -4.541059 1.856107 0.766560
v -4.542738 1.859631 0.761662
v -4.538967 1.858134 0.765323
v -4.542738 1.859631 0.761662
v -4.539190 1.856785 0.764984
v -4.544319 1.860008 0.763391
v -4.543349 1.860360 0.762573
v -4.539620 1.858914 0.766297
v -4.540658 1.858537 0.767172
v -4.544319 1.860008 0.763391
v -4.539620 1.858914 0.766297
v -4.544694 1.857736 0.762819
v -4.544917 1.858841 0.763500
v -4.541298 1.857288 0.767289
v -4.541059 1.856107 0.766560
v -4.544694 1.857736 0.762819
v -4.541298 1.857288 0.767289
v -4.542946 1.858370 0.761345
v -4.543817 1.857527 0.761860
v -4.540121 1.855883 0.765534
v -4.539190 1.856785 0.764984
v -4.542946 1.858370 0.761345
v -4.540121 1.855883 0.765534
v -4.547774 1.859319 0.759486
v -4.547759 1.859899 0.761162
v -4.546189 1.860855 0.758549
v -4.545312 1.859315 0.758485
v -4.547470 1.861161 0.759950
v -4.545812 1.861786 0.760010
v -4.546358 1.859833 0.758292
v -4.545312 1.859315 0.758485
v -4.546358 1.859833 0.758292
v -4.546393 1.858268 0.759124
v -4.546684 1.861446 0.759287
v -4.546189 1.860855 0.758549
v -4.545053 1.860880 0.758879
v -4.545812 1.861786 0.760010
v -4.546684 1.861446 0.759287
v -4.545053 1.860880 0.758879
v -4.547955 1.860214 0.760039
v -4.547470 1.861161 0.759950
v -4.547016 1.861349 0.761026
v -4.547759 1.859899 0.761162
v -4.547955 1.860214 0.760039
v -4.547016 1.861349 0.761026
v -4.542946 1.858370 0.761345
v -4.542738 1.859631 0.761662
v -4.542979 1.860105 0.760816
v -4.542946 1.858370 0.761345
v -4.543349 1.860360 0.762573
v -4.544319 1.860008 0.763391
v -4.545067 1.860603 0.763099
v -4.543349 1.860360 0.762573
v -4.544917 1.858841 0.763500
v -4.544694 1.857736 0.762819
v -4.545563 1.857602 0.762344
v -4.544917 1.858841 0.763500
v -4.543254 1.858439 0.760396
v -4.543817 1.857527 0.761860
v -4.542946 1.858370 0.761345
v -4.543254 1.858439 0.760396
v -4.543817 1.857527 0.761860
v -4.543786 1.861067 0.762019
v -4.542979 1.860105 0.760816
v -4.542738 1.859631 0.761662
v -4.543349 1.860360 0.762573
v -4.543786 1.861067 0.762019
v -4.542738 1.859631 0.761662
v -4.545858 1.859061 0.763244
v -4.545067 1.860603 0.763099
v -4.544319 1.860008 0.763391
v -4.544917 1.858841 0.763500
v -4.545858 1.859061 0.763244
v -4.544319 1.860008 0.763391
v -4.544405 1.857326 0.761076
v -4.545563 1.857602 0.762344
v -4.544694 1.857736 0.762819
v -4.543817 1.857527 0.761860
v -4.544405 1.857326 0.761076
v -4.544694 1.857736 0.762819
v -4.545563 1.857602 0.762344
v -4.544405 1.857326 0.761076
v -4.545404 1.857458 0.759947
v -4.545563 1.857602 0.762344
v -4.546393 1.858268 0.759124
v -4.547482 1.858528 0.760316
v -4.546743 1.857778 0.761411
v -4.545404 1.857458 0.759947
v -4.546393 1.858268 0.759124
v -4.546743 1.857778 0.761411
v -4.546743 1.857778 0.761411
v -4.545858 1.859061 0.763244
v -4.545563 1.857602 0.762344
v -4.546743 1.857778 0.761411
v -4.545858 1.859061 0.763244
v -4.547482 1.858528 0.760316
v -4.547759 1.859899 0.761162
v -4.547084 1.859463 0.762452
v -4.546743 1.857778 0.761411
v -4.547482 1.858528 0.760316
v -4.547084 1.859463 0.762452
v -4.547084 1.859463 0.762452
v -4.545067 1.860603 0.763099
v -4.545858 1.859061 0.763244
v -4.547084 1.859463 0.762452
v -4.545067 1.860603 0.763099
v -4.547759 1.859899 0.761162
v -4.547016 1.861349 0.761026
v -4.546170 1.861244 0.762284
v -4.547084 1.859463 0.762452
v -4.547759 1.859899 0.761162
v -4.546170 1.861244 0.762284
v -4.546170 1.861244 0.762284
v -4.543786 1.861067 0.762019
v -4.545067 1.860603 0.763099
v -4.546170 1.861244 0.762284
v -4.543786 1.861067 0.762019
v -4.547016 1.861349 0.761026
v -4.545812 1.861786 0.760010
v -4.544691 1.861781 0.761036
v -4.546170 1.861244 0.762284
v -4.547016 1.861349 0.761026
v -4.544691 1.861781 0.761036
v -4.544691 1.861781 0.761036
v -4.542979 1.860105 0.760816
v -4.543786 1.861067 0.762019
v -4.544691 1.861781 0.761036
v -4.542979 1.860105 0.760816
v -4.545812 1.861786 0.760010
v -4.545053 1.860880 0.758879
v -4.543758 1.860669 0.759646
v -4.544691 1.861781 0.761036
v -4.545812 1.861786 0.760010
v -4.543758 1.860669 0.759646
v -4.543758 1.860669 0.759646
v -4.543254 1.858439 0.760396
v -4.542979 1.860105 0.760816
v -4.543758 1.860669 0.759646
v -4.543254 1.858439 0.760396
v -4.545053 1.860880 0.758879
v -4.545312 1.859315 0.758485
v -4.544076 1.858745 0.759162
v -4.543758 1.860669 0.759646
v -4.545053 1.860880 0.758879
v -4.544076 1.858745 0.759162
v -4.544076 1.858745 0.759162
v -4.545404 1.857458 0.759947
v -4.544405 1.857326 0.761076
v -4.543254 1.858439 0.760396
v -4.544076 1.858745 0.759162
v -4.544405 1.857326 0.761076
v -4.545312 1.859315 0.758485
v -4.546393 1.858268 0.759124
v -4.545404 1.857458 0.759947
v -4.544076 1.858745 0.759162
v -4.545312 1.859315 0.758485
v -4.545404 1.857458 0.759947
v -4.547063 1.859150 0.758709
v -4.547774 1.859319 0.759486
v -4.547482 1.858528 0.760316
v -4.546393 1.858268 0.759124
v -4.547063 1.859150 0.758709
v -4.547482 1.858528 0.760316
v -4.547955 1.860214 0.760039
v -4.547774 1.859319 0.759486
v -4.547470 1.861161 0.759950
v -4.547063 1.859150 0.758709
v -4.547470 1.861161 0.759950
v -4.547774 1.859319 0.759486
v -4.546684 1.861446 0.759287
v -4.547470 1.861161 0.759950
v -4.547063 1.859150 0.758709
v -4.546358 1.859833 0.758292
v -4.546684 1.861446 0.759287
v -4.547063 1.859150 0.758709
v -4.546189 1.860855 0.758549
v -4.546684 1.861446 0.759287
v -4.546358 1.859833 0.758292
v -4.541298 1.857288 0.767289
v -4.540658 1.858537 0.767172
v -4.541059 1.856107 0.766560
v -4.540121 1.855883 0.765534
v -4.541059 1.856107 0.766560
v -4.540658 1.858537 0.767172
v -4.539620 1.858914 0.766297
v -4.540121 1.855883 0.765534
v -4.540658 1.858537 0.767172
v -4.539190 1.856785 0.764984
v -4.540121 1.855883 0.765534
v -4.539620 1.858914 0.766297
v -4.538967 1.858134 0.765323
v -4.539190 1.856785 0.764984
v -4.539620 1.858914 0.766297
vn 0.6763 -0.2830 0.6801
vn -0.2317 0.0277 -0.9724
vn -0.3813 0.7671 -0.5159
vn -0.1543 0.4962 -0.8544
vn -0.5553 -0.2857 -0.7811
vn -0.3813 0.7671 -0.5160
vn -0.2317 0.0276 -0.9724
vn -0.5552 -0.2857 -0.7811
vn -0.7417 0.6363 -0.2119
vn -0.8812 -0.2079 -0.4246
vn -0.7417 0.6364 -0.2119
vn -0.9642 0.2024 -0.1713
vn -0.7984 -0.5995 -0.0556
vn -0.2707 -0.7254 -0.6328
vn -0.0197 -0.9098 -0.4145
vn 0.2531 -0.2182 -0.9425
vn 0.5535 -0.3545 -0.7536
vn -0.0198 -0.9098 -0.4146
vn 0.2530 -0.2181 -0.9425
vn 0.2337 -0.9626 -0.1369
vn 0.5536 -0.3545 -0.7536
vn 0.7737 -0.4395 -0.4563
vn -0.0197 -0.9098 -0.4146
vn 0.3784 0.5404 -0.7516
vn 0.6907 0.4758 -0.5445
vn 0.2531 -0.2181 -0.9425
vn 0.7738 -0.4395 -0.4562
vn 0.6907 0.4758 -0.5446
vn 0.9030 0.3427 -0.2593
vn 0.0110 0.9790 -0.2036
vn 0.2885 0.9559 0.0553
vn 0.3784 0.5404 -0.7515
vn 0.0109 0.9790 -0.2037
vn 0.9030 0.3427 -0.2592
vn 0.5240 0.7949 0.3057
vn -0.5726 0.7674 0.2886
vn -0.3502 0.7242 0.5940
vn 0.0109 0.9790 -0.2036
vn 0.5240 0.7949 0.3058
vn -0.0777 0.5767 0.8132
vn -0.3502 0.7243 0.5940
vn -0.9328 0.0649 0.3544
vn -0.7445 -0.0447 0.6661
vn -0.5726 0.7673 0.2886
vn -0.0776 0.5767 0.8133
vn -0.7445 -0.0448 0.6661
vn -0.4491 -0.1477 0.8812
vn -0.5974 -0.7719 0.2172
vn -0.9328 0.0648 0.3545
vn -0.7985 -0.5994 -0.0556
vn -0.4491 -0.1478 0.8812
vn -0.5974 -0.7720 0.2172
vn -0.3106 -0.8327 0.4583
vn -0.2707 -0.7255 -0.6328
vn -0.3105 -0.8328 0.4583
vn -0.3757 -0.8300 0.4123
vn 0.2336 -0.9626 -0.1369
vn 0.1823 -0.9631 -0.1980
vn -0.3106 -0.8328 0.4583
vn -0.1370 0.6153 0.7763
vn -0.5178 -0.1275 0.8459
vn 0.8686 0.3754 -0.3235
vn 0.5241 0.7949 0.3057
vn 0.4801 0.8391 0.2559
vn 0.7361 -0.4267 -0.5254
vn 0.2337 -0.9626 -0.1368
vn -0.5179 -0.1275 0.8459
vn -0.3757 -0.8299 0.4123
vn 0.4800 0.8391 0.2558
vn -0.0776 0.5767 0.8132
vn 0.4801 0.8391 0.2558
vn 0.7361 -0.4267 -0.5255
vn -0.7417 0.6363 -0.2120
vn -0.9642 0.2024 -0.1712
vn 0.3783 0.5404 -0.7515
vn -0.1543 0.4961 -0.8544
vn -0.2706 -0.7254 -0.6329
vn -0.2706 -0.7254 -0.6328
vn -0.2318 0.0277 -0.9724
vn -0.9328 0.0648 0.3544
vn -0.0072 -0.9155 -0.4022
vn 0.7360 -0.4267 -0.5255
vn 0.5663 -0.3599 -0.7414
vn -0.0072 -0.9155 -0.4023
vn -0.7324 -0.0501 0.6790
vn -0.3758 -0.8299 0.4123
vn -0.5852 -0.7776 0.2300
vn -0.7324 -0.0500 0.6790
vn 0.3012 0.9512 0.0679
vn -0.3378 0.7194 0.6069
vn 0.3011 0.9512 0.0679
vn 0.5664 -0.3599 -0.7414
vn 0.7036 0.4708 -0.5322
vn 0.8686 0.3753 -0.3235
vn -0.5852 -0.7776 0.2299
vn -0.0073 -0.9155 -0.4022
vn -0.3379 0.7194 0.6069
vt 0.530319 0.611839
vt 0.522446 0.618118
vt 0.524872 0.613083
vt 0.524872 0.623154
vt 0.534683 0.615326
vt 0.530319 0.624397
vt 0.534683 0.620918
vt 0.537079 0.671494
vt 0.541916 0.669548
vt 0.539566 0.672157
vt 0.536179 0.669609
vt 0.539856 0.666756
vt 0.536224 0.667854
vt 0.537567 0.666748
vt 0.534592 0.666855
vt 0.534012 0.669838
vt 0.530777 0.669685
vt 0.535187 0.673050
vt 0.531769 0.674789
vt 0.525803 0.669067
vt 0.526108 0.676537
vt 0.539017 0.675606
vt 0.536011 0.680244
vt 0.529755 0.684982
vt 0.547180 0.674767
vt 0.546982 0.686485
vt 0.537415 0.696274
vt 0.547180 0.658051
vt 0.540527 0.663902
vt 0.539825 0.659698
vt 0.546280 0.665543
vt 0.543762 0.651657
vt 0.537613 0.655174
vt 0.536758 0.664742
vt 0.535126 0.661980
vt 0.532364 0.658463
vt 0.532074 0.665283
vt 0.528198 0.662933
vt 0.523743 0.660286
vt 0.519989 0.668175
vt 0.535217 0.651588
vt 0.529327 0.654999
vt 0.522873 0.688484
vt 0.528320 0.699394
vt 0.519577 0.678001
vt 0.540466 0.648293
vt 0.604446 0.642853
vt 0.626221 0.647896
vt 0.604553 0.648445
vt 0.626144 0.642670
vt 0.604553 0.631676
vt 0.626144 0.637444
vt 0.604446 0.637268
vt 0.626221 0.632225
vt 0.605011 0.620506
vt 0.626404 0.626999
vt 0.604736 0.626091
vt 0.626663 0.621780
vt 0.626404 0.653114
vt 0.604736 0.654030
vt 0.626663 0.658333
vt 0.605011 0.659607
s 0
usemtl decorations
f 240/1/1 239/2/1 238/3/1
f 237/1/1 236/4/1 235/2/1
f 234/5/1 233/4/1 232/1/1
f 231/5/1 230/6/1 229/4/1
f 228/6/1 227/5/1 226/7/1
s 1
f 225/8/2 224/9/3 223/10/4
f 222/11/5 221/9/6 220/8/7
f 219/11/8 218/12/9 217/9/3
f 216/13/10 215/12/11 214/11/8
f 213/12/9 212/13/10 211/14/12
f 210/15/13 209/11/8 208/16/14
f 207/15/13 206/13/10 205/11/8
f 204/17/15 203/18/16 202/19/17
f 201/17/18 200/16/14 199/18/19
f 198/20/20 197/19/21 196/21/22
f 195/20/20 194/17/23 193/19/17
f 192/19/17 191/22/24 190/23/25
f 189/19/17 188/18/26 187/22/24
f 186/21/27 185/23/28 184/24/29
f 183/21/27 3/19/21 182/23/28
f 181/23/25 180/25/30 179/26/31
f 178/23/25 177/22/32 176/25/33
f 175/24/34 174/26/31 173/27/35
f 172/24/34 4/23/25 171/26/31
f 170/28/31 169/29/36 168/30/37
f 167/28/31 166/31/38 165/29/36
f 164/32/39 163/30/37 162/33/40
f 161/32/39 13/28/31 160/30/41
f 159/30/37 158/34/42 157/35/43
f 156/30/37 155/29/44 154/34/42
f 153/33/45 152/35/46 151/36/47
f 150/33/45 14/30/37 149/35/46
f 148/35/46 147/15/13 146/37/48
f 145/35/46 144/34/49 143/15/50
f 142/36/51 141/37/52 140/38/53
f 139/36/51 16/35/46 138/37/52
f 137/37/52 136/16/54 135/17/23
f 134/37/48 133/15/13 132/16/14
f 131/38/55 130/17/23 129/20/20
f 128/38/55 36/37/48 25/17/23
f 127/39/56 126/20/57 125/40/58
f 124/39/56 123/38/59 122/20/57
f 121/41/60 120/36/47 119/42/61
f 118/41/60 117/33/45 116/36/47
f 115/43/62 114/27/63 113/44/64
f 112/43/62 111/24/29 110/27/63
f 109/40/58 108/21/22 107/45/65
f 106/40/58 40/20/66 105/21/22
f 104/42/67 103/38/59 102/39/68
f 101/42/61 41/36/47 42/38/59
f 100/46/69 99/33/70 98/41/60
f 97/46/71 37/32/39 38/33/70
f 96/45/72 95/24/29 94/43/62
f 93/45/72 33/21/22 34/24/29
f 92/29/44 91/14/12 90/34/42
f 89/29/44 88/12/73 87/14/74
f 86/22/75 85/9/6 84/25/33
f 83/22/32 82/10/76 81/9/6
f 80/16/77 79/8/2 78/18/19
f 29/16/78 30/11/5 77/8/2
f 76/31/38 75/12/9 28/29/36
f 31/31/38 26/9/6 27/12/73
f 74/18/26 73/10/4 24/22/32
f 21/18/26 22/8/79 23/10/76
f 72/34/42 71/13/10 20/15/13
f 17/34/80 18/14/12 19/13/10
f 70/47/81 69/48/82 68/49/83
f 67/47/84 66/50/58 65/48/72
f 64/51/85 63/52/86 62/53/87
f 61/51/88 60/54/61 59/52/68
f 58/55/89 57/56/60 56/57/90
f 55/55/91 54/58/71 53/56/60
f 52/49/92 51/59/62 50/60/93
f 2/49/83 32/48/72 49/59/94
f 48/53/95 47/50/58 12/47/96
f 9/53/95 10/52/86 11/50/58
f 46/57/97 45/54/67 8/51/88
f 5/57/97 6/56/60 7/54/61
f 44/60/93 43/61/69 15/62/89
f 1/60/93 35/59/94 39/61/71
