# Blender 5.0.0
# www.blender.org
mtllib Circle_005_Circle_Dupli_131_decorations_0.mtl
o Circle.005|Circle|Dupli|131_decorations_0
v -4.482241 1.187352 0.839607
v -4.482498 1.186235 0.840425
v -4.490037 1.188232 0.841303
v -4.489671 1.189826 0.840136
v -4.481366 1.189071 0.841256
v -4.486496 1.190758 0.842092
v -4.486534 1.190111 0.843237
v -4.481407 1.188378 0.842482
v -4.481829 1.187058 0.842731
v -4.486929 1.188876 0.843470
v -4.487382 1.187984 0.842614
v -4.482314 1.186104 0.841815
v -4.488953 1.191627 0.840663
v -4.488423 1.192279 0.842489
v -4.481737 1.188614 0.839977
v -4.488481 1.191291 0.844237
v -4.489974 1.191545 0.844117
v -4.491097 1.191532 0.843745
v -4.491417 1.190531 0.843934
v -4.490464 1.190013 0.844406
v -4.491241 1.189057 0.841729
v -4.491924 1.189907 0.842187
v -4.491729 1.190754 0.841567
v -4.490942 1.190354 0.840779
v -4.489776 1.188046 0.843287
v -4.491348 1.191710 0.841847
v -4.491066 1.192056 0.842817
v -4.489927 1.192349 0.842694
v -4.491028 1.188905 0.843343
v -4.491785 1.189808 0.843240
v -4.490358 1.191819 0.841209
v -4.487554 1.188107 0.841315
v -4.488544 1.187999 0.841221
v -4.488226 1.189378 0.840211
v -4.487314 1.189151 0.840550
v -4.489083 1.189407 0.844593
v -4.487605 1.190937 0.840667
v -4.487146 1.191501 0.842247
v -4.486843 1.190331 0.840895
v -4.488317 1.187838 0.842938
v -4.487196 1.190646 0.843761
v -4.487718 1.189016 0.844068
v -4.486843 1.190331 0.840895
v -4.482241 1.187352 0.839607
v -4.486534 1.190111 0.843237
v -4.481366 1.189071 0.841256
v -4.487382 1.187984 0.842614
v -4.481829 1.187058 0.842731
v -4.487314 1.189151 0.840550
v -4.482241 1.187352 0.839607
v -4.487314 1.189151 0.840550
v -4.482498 1.186235 0.840425
v -4.486496 1.190758 0.842092
v -4.486843 1.190331 0.840895
v -4.481737 1.188614 0.839977
v -4.481366 1.189071 0.841256
v -4.486496 1.190758 0.842092
v -4.481737 1.188614 0.839977
v -4.486929 1.188876 0.843470
v -4.486534 1.190111 0.843237
v -4.481407 1.188378 0.842482
v -4.481829 1.187058 0.842731
v -4.486929 1.188876 0.843470
v -4.481407 1.188378 0.842482
v -4.487554 1.188107 0.841315
v -4.487382 1.187984 0.842614
v -4.482314 1.186104 0.841815
v -4.482498 1.186235 0.840425
v -4.487554 1.188107 0.841315
v -4.482314 1.186104 0.841815
v -4.491417 1.190531 0.843934
v -4.489974 1.191545 0.844117
v -4.491729 1.190754 0.841567
v -4.491241 1.189057 0.841729
v -4.491066 1.192056 0.842817
v -4.490358 1.191819 0.841209
v -4.491924 1.189907 0.842187
v -4.491241 1.189057 0.841729
v -4.491924 1.189907 0.842187
v -4.491028 1.188905 0.843343
v -4.491348 1.191710 0.841847
v -4.491729 1.190754 0.841567
v -4.490942 1.190354 0.840779
v -4.490358 1.191819 0.841209
v -4.491348 1.191710 0.841847
v -4.490942 1.190354 0.840779
v -4.491097 1.191532 0.843745
v -4.491066 1.192056 0.842817
v -4.489927 1.192349 0.842694
v -4.489974 1.191545 0.844117
v -4.491097 1.191532 0.843745
v -4.489927 1.192349 0.842694
v -4.487554 1.188107 0.841315
v -4.487314 1.189151 0.840550
v -4.488226 1.189378 0.840211
v -4.487554 1.188107 0.841315
v -4.486843 1.190331 0.840895
v -4.486496 1.190758 0.842092
v -4.487146 1.191501 0.842247
v -4.486843 1.190331 0.840895
v -4.486534 1.190111 0.843237
v -4.486929 1.188876 0.843470
v -4.487718 1.189016 0.844068
v -4.486534 1.190111 0.843237
v -4.488544 1.187999 0.841221
v -4.487382 1.187984 0.842614
v -4.487554 1.188107 0.841315
v -4.488544 1.187999 0.841221
v -4.487382 1.187984 0.842614
v -4.487605 1.190937 0.840667
v -4.488226 1.189378 0.840211
v -4.487314 1.189151 0.840550
v -4.486843 1.190331 0.840895
v -4.487605 1.190937 0.840667
v -4.487314 1.189151 0.840550
v -4.487196 1.190646 0.843761
v -4.487146 1.191501 0.842247
v -4.486496 1.190758 0.842092
v -4.486534 1.190111 0.843237
v -4.487196 1.190646 0.843761
v -4.486496 1.190758 0.842092
v -4.488317 1.187838 0.842938
v -4.487718 1.189016 0.844068
v -4.486929 1.188876 0.843470
v -4.487382 1.187984 0.842614
v -4.488317 1.187838 0.842938
v -4.486929 1.188876 0.843470
v -4.487718 1.189016 0.844068
v -4.488317 1.187838 0.842938
v -4.489776 1.188046 0.843287
v -4.487718 1.189016 0.844068
v -4.491028 1.188905 0.843343
v -4.490464 1.190013 0.844406
v -4.489083 1.189407 0.844593
v -4.489776 1.188046 0.843287
v -4.491028 1.188905 0.843343
v -4.489083 1.189407 0.844593
v -4.489083 1.189407 0.844593
v -4.487196 1.190646 0.843761
v -4.487718 1.189016 0.844068
v -4.489083 1.189407 0.844593
v -4.487196 1.190646 0.843761
v -4.490464 1.190013 0.844406
v -4.489974 1.191545 0.844117
v -4.488481 1.191291 0.844237
v -4.489083 1.189407 0.844593
v -4.490464 1.190013 0.844406
v -4.488481 1.191291 0.844237
v -4.488481 1.191291 0.844237
v -4.487146 1.191501 0.842247
v -4.487196 1.190646 0.843761
v -4.488481 1.191291 0.844237
v -4.487146 1.191501 0.842247
v -4.489974 1.191545 0.844117
v -4.489927 1.192349 0.842694
v -4.488423 1.192279 0.842489
v -4.488481 1.191291 0.844237
v -4.489974 1.191545 0.844117
v -4.488423 1.192279 0.842489
v -4.488423 1.192279 0.842489
v -4.487605 1.190937 0.840667
v -4.487146 1.191501 0.842247
v -4.488423 1.192279 0.842489
v -4.487605 1.190937 0.840667
v -4.489927 1.192349 0.842694
v -4.490358 1.191819 0.841209
v -4.488953 1.191627 0.840663
v -4.488423 1.192279 0.842489
v -4.489927 1.192349 0.842694
v -4.488953 1.191627 0.840663
v -4.488953 1.191627 0.840663
v -4.488226 1.189378 0.840211
v -4.487605 1.190937 0.840667
v -4.488953 1.191627 0.840663
v -4.488226 1.189378 0.840211
v -4.490358 1.191819 0.841209
v -4.490942 1.190354 0.840779
v -4.489671 1.189826 0.840136
v -4.488953 1.191627 0.840663
v -4.490358 1.191819 0.841209
v -4.489671 1.189826 0.840136
v -4.489671 1.189826 0.840136
v -4.488544 1.187999 0.841221
v -4.488226 1.189378 0.840211
v -4.489671 1.189826 0.840136
v -4.488544 1.187999 0.841221
v -4.490942 1.190354 0.840779
v -4.491241 1.189057 0.841729
v -4.490037 1.188232 0.841303
v -4.489671 1.189826 0.840136
v -4.490942 1.190354 0.840779
v -4.490037 1.188232 0.841303
v -4.490037 1.188232 0.841303
v -4.489776 1.188046 0.843287
v -4.488317 1.187838 0.842938
v -4.488544 1.187999 0.841221
v -4.490037 1.188232 0.841303
v -4.488317 1.187838 0.842938
v -4.491241 1.189057 0.841729
v -4.491028 1.188905 0.843343
v -4.489776 1.188046 0.843287
v -4.490037 1.188232 0.841303
v -4.491241 1.189057 0.841729
v -4.489776 1.188046 0.843287
v -4.491785 1.189808 0.843240
v -4.491417 1.190531 0.843934
v -4.490464 1.190013 0.844406
v -4.491028 1.188905 0.843343
v -4.491785 1.189808 0.843240
v -4.490464 1.190013 0.844406
v -4.491097 1.191532 0.843745
v -4.491417 1.190531 0.843934
v -4.491066 1.192056 0.842817
v -4.491785 1.189808 0.843240
v -4.491066 1.192056 0.842817
v -4.491417 1.190531 0.843934
v -4.491348 1.191710 0.841847
v -4.491066 1.192056 0.842817
v -4.491785 1.189808 0.843240
v -4.491924 1.189907 0.842187
v -4.491348 1.191710 0.841847
v -4.491785 1.189808 0.843240
v -4.491729 1.190754 0.841567
v -4.491348 1.191710 0.841847
v -4.491924 1.189907 0.842187
v -4.481407 1.188378 0.842482
v -4.481366 1.189071 0.841256
v -4.481829 1.187058 0.842731
v -4.482314 1.186104 0.841815
v -4.481829 1.187058 0.842731
v -4.481366 1.189071 0.841256
v -4.481737 1.188614 0.839977
v -4.482314 1.186104 0.841815
v -4.481366 1.189071 0.841256
v -4.482498 1.186235 0.840425
v -4.482314 1.186104 0.841815
v -4.481737 1.188614 0.839977
v -4.482241 1.187352 0.839607
v -4.482498 1.186235 0.840425
v -4.481737 1.188614 0.839977
vn 0.9324 -0.3270 -0.1538
vn -0.9731 -0.1850 -0.1369
vn -0.7090 0.6416 -0.2927
vn -0.8840 0.2030 -0.4212
vn -0.9094 -0.2305 0.3462
vn -0.9732 -0.1851 -0.1369
vn -0.9094 -0.2305 0.3461
vn -0.5800 0.8003 0.1518
vn -0.7408 0.1010 0.6641
vn -0.7408 0.1009 0.6641
vn -0.5942 0.5597 0.5777
vn -0.3331 -0.1403 0.9324
vn -0.6062 -0.6768 0.4176
vn -0.2822 -0.8746 0.3942
vn -0.7094 -0.6033 -0.3644
vn -0.3952 -0.7941 -0.4618
vn -0.2823 -0.8746 0.3942
vn -0.6062 -0.6769 0.4176
vn 0.0819 -0.9459 0.3140
vn -0.0245 -0.8700 -0.4924
vn -0.5650 0.0250 -0.8247
vn -0.2371 -0.1063 -0.9656
vn -0.2371 -0.1064 -0.9656
vn 0.1244 -0.2221 -0.9670
vn -0.2817 0.7350 -0.6168
vn 0.0730 0.6709 -0.7380
vn -0.5649 0.0250 -0.8248
vn 0.1245 -0.2221 -0.9670
vn 0.4165 0.5100 -0.7526
vn -0.2371 -0.1063 -0.9657
vn -0.0729 0.9920 0.1029
vn 0.3015 0.9522 0.0497
vn 0.4166 0.5100 -0.7525
vn 0.3016 0.9521 0.0497
vn 0.6318 0.7750 -0.0105
vn -0.0958 0.6025 0.7923
vn 0.2765 0.5258 0.8044
vn 0.6319 0.7750 -0.0105
vn 0.6082 0.3734 0.7005
vn 0.3015 0.9522 0.0498
vn 0.2765 0.5257 0.8045
vn -0.3331 -0.1402 0.9324
vn 0.0167 -0.2872 0.9577
vn -0.0958 0.6025 0.7924
vn 0.6083 0.3733 0.7005
vn 0.3635 -0.3925 0.8449
vn 0.0167 -0.2873 0.9577
vn 0.0166 -0.2872 0.9577
vn 0.3635 -0.3925 0.8448
vn 0.2937 -0.3748 0.8794
vn 0.0050 -0.9422 0.3350
vn 0.2937 -0.3748 0.8793
vn 0.5689 0.8224 0.0023
vn 0.5447 0.4105 0.7313
vn 0.0485 -0.2000 -0.9786
vn 0.3481 0.5507 -0.7587
vn 0.0486 -0.2000 -0.9786
vn 0.1244 -0.2221 -0.9671
vn 0.0049 -0.9422 0.3350
vn -0.1041 -0.8644 -0.4918
vn 0.0820 -0.9459 0.3140
vn 0.5446 0.4106 0.7313
vn 0.5447 0.4106 0.7313
vn 0.6082 0.3733 0.7005
vn -0.1042 -0.8644 -0.4919
vn -0.0729 0.9920 0.1030
vn -0.0728 0.9920 0.1030
vn -0.5941 0.5597 0.5777
vn -0.5650 0.0251 -0.8247
vn -0.6062 -0.6769 0.4175
vn -0.9732 -0.1850 -0.1369
vn -0.2817 0.7350 -0.6167
vn -0.8839 0.2031 -0.4212
vn -0.7093 -0.6033 -0.3644
vn -0.9732 -0.1850 -0.1368
vn -0.2651 -0.8811 0.3915
vn -0.1042 -0.8644 -0.4918
vn -0.3781 -0.8006 -0.4648
vn -0.2652 -0.8811 0.3916
vn 0.2939 0.5199 0.8021
vn 0.0339 -0.2934 0.9554
vn 0.2938 0.5200 0.8021
vn 0.0903 0.6652 -0.7412
vn 0.3189 0.9466 0.0469
vn -0.3781 -0.8006 -0.4649
vn -0.2200 -0.1125 -0.9690
vn -0.3782 -0.8005 -0.4649
vn 0.0486 -0.2001 -0.9786
vn -0.2651 -0.8811 0.3916
vn 0.3190 0.9466 0.0469
vn 0.2939 0.5200 0.8020
vn -0.2200 -0.1124 -0.9690
vt 0.543243 0.611839
vt 0.535370 0.618118
vt 0.537796 0.613083
vt 0.537796 0.623154
vt 0.547607 0.615326
vt 0.543243 0.624397
vt 0.547607 0.620918
vt 0.565384 0.671494
vt 0.570206 0.669548
vt 0.567856 0.672157
vt 0.564468 0.669609
vt 0.568146 0.666756
vt 0.564514 0.667854
vt 0.565857 0.666748
vt 0.562897 0.666855
vt 0.562302 0.669838
vt 0.559082 0.669685
vt 0.563492 0.673050
vt 0.560059 0.674789
vt 0.554092 0.669067
vt 0.554398 0.676537
vt 0.567307 0.675606
vt 0.564316 0.680244
vt 0.558044 0.684982
vt 0.575485 0.674767
vt 0.575272 0.686485
vt 0.565720 0.696274
vt 0.575485 0.658051
vt 0.568817 0.663902
vt 0.568115 0.659698
vt 0.574570 0.665543
vt 0.572052 0.651657
vt 0.565903 0.655174
vt 0.565063 0.664742
vt 0.563416 0.661980
vt 0.560669 0.658463
vt 0.560364 0.665283
vt 0.556488 0.662933
vt 0.552032 0.660286
vt 0.548294 0.668175
vt 0.563522 0.651588
vt 0.557617 0.654999
vt 0.551163 0.688484
vt 0.556610 0.699394
vt 0.547867 0.678001
vt 0.568756 0.648293
vt 0.604446 0.682632
vt 0.626221 0.687675
vt 0.604553 0.688225
vt 0.626144 0.682457
vt 0.604553 0.671455
vt 0.626144 0.677231
vt 0.604446 0.677048
vt 0.626221 0.672005
vt 0.605011 0.660294
vt 0.626404 0.666786
vt 0.604736 0.665871
vt 0.626663 0.661568
vt 0.626404 0.692902
vt 0.604736 0.693810
vt 0.626663 0.698120
vt 0.605011 0.699394
s 0
usemtl decorations
f 240/1/1 239/2/1 238/3/1
f 237/1/1 236/4/1 235/2/1
f 234/5/1 233/4/1 232/1/1
f 231/5/1 230/6/1 229/4/1
f 228/6/1 227/5/1 226/7/1
s 1
f 225/8/2 224/9/3 223/10/4
f 222/11/5 221/9/3 220/8/6
f 219/11/7 218/12/8 217/9/3
f 216/13/9 215/12/8 214/11/7
f 213/12/8 212/13/10 211/14/11
f 210/15/12 209/11/7 208/16/13
f 207/15/12 206/13/9 205/11/7
f 204/17/14 203/18/15 202/19/16
f 201/17/17 200/16/18 199/18/15
f 198/20/19 197/19/16 196/21/20
f 195/20/19 194/17/14 193/19/16
f 192/19/16 191/22/21 190/23/22
f 189/19/16 188/18/15 187/22/21
f 186/21/20 185/23/23 184/24/24
f 183/21/20 3/19/16 182/23/23
f 181/23/22 180/25/25 179/26/26
f 178/23/22 177/22/27 176/25/25
f 175/24/28 174/26/26 173/27/29
f 172/24/28 4/23/30 171/26/26
f 170/28/26 169/29/31 168/30/32
f 167/28/26 166/31/25 165/29/31
f 164/32/33 163/30/34 162/33/35
f 161/32/33 13/28/26 160/30/32
f 159/30/32 158/34/36 157/35/37
f 156/30/32 155/29/31 154/34/36
f 153/33/38 152/35/37 151/36/39
f 150/33/38 14/30/40 149/35/37
f 148/35/41 147/15/42 146/37/43
f 145/35/41 144/34/44 143/15/42
f 142/36/45 141/37/43 140/38/46
f 139/36/45 16/35/41 138/37/43
f 137/37/47 136/16/18 135/17/14
f 134/37/48 133/15/42 132/16/13
f 131/38/49 130/17/14 129/20/19
f 128/38/49 36/37/43 25/17/14
f 127/39/50 126/20/19 125/40/51
f 124/39/52 123/38/46 122/20/19
f 121/41/53 120/36/39 119/42/54
f 118/41/53 117/33/38 116/36/39
f 115/43/55 114/27/29 113/44/56
f 112/43/57 111/24/58 110/27/29
f 109/40/59 108/21/20 107/45/60
f 106/40/59 40/20/61 105/21/20
f 104/42/62 103/38/46 102/39/50
f 101/42/63 41/36/64 42/38/46
f 100/46/56 99/33/35 98/41/53
f 97/46/56 37/32/33 38/33/35
f 96/45/65 95/24/24 94/43/57
f 93/45/60 33/21/20 34/24/24
f 92/29/66 91/14/11 90/34/36
f 89/29/67 88/12/8 87/14/68
f 86/22/69 85/9/3 84/25/25
f 83/22/69 82/10/4 81/9/3
f 80/16/70 79/8/71 78/18/15
f 29/16/70 30/11/5 77/8/71
f 76/31/72 75/12/8 28/29/31
f 31/31/72 26/9/3 27/12/8
f 74/18/15 73/10/73 24/22/21
f 21/18/74 22/8/75 23/10/4
f 72/34/44 71/13/9 20/15/42
f 17/34/44 18/14/11 19/13/9
f 70/47/76 69/48/77 68/49/78
f 67/47/79 66/50/51 65/48/60
f 64/51/80 63/52/50 62/53/81
f 61/51/82 60/54/54 59/52/50
f 58/55/83 57/56/53 56/57/84
f 55/55/83 54/58/56 53/56/53
f 52/49/85 51/59/55 50/60/86
f 2/49/87 32/48/60 49/59/88
f 48/53/81 47/50/59 12/47/89
f 9/53/81 10/52/50 11/50/51
f 46/57/90 45/54/54 8/51/91
f 5/57/84 6/56/53 7/54/54
f 44/60/92 43/61/56 15/62/83
f 1/60/92 35/59/57 39/61/56
