# Blender 5.0.0
# www.blender.org
mtllib Circle_005_Circle_001_Dupli_62_decorations_0.mtl
o Circle.005|Circle.001|Dupli|62_decorations_0
v -4.380133 1.200878 0.776305
v -4.379705 1.200467 0.775028
v -4.374387 1.206226 0.774624
v -4.374997 1.206812 0.776446
v -4.382115 1.202374 0.775783
v -4.378708 1.206635 0.775462
v -4.378766 1.206596 0.774147
v -4.382177 1.202333 0.774377
v -4.381345 1.201634 0.773481
v -4.377988 1.205943 0.773310
v -4.376960 1.205166 0.773581
v -4.380245 1.200803 0.773771
v -4.376527 1.208023 0.776926
v -4.377825 1.208947 0.775702
v -4.381205 1.201727 0.776641
v -4.377913 1.208888 0.773695
v -4.376709 1.209808 0.773802
v -4.375629 1.210235 0.774026
v -4.374998 1.209705 0.773348
v -4.375743 1.208996 0.772763
v -4.373839 1.207642 0.774558
v -4.373756 1.208821 0.774520
v -4.374080 1.209133 0.775487
v -4.374336 1.208119 0.776041
v -4.375157 1.206706 0.772831
v -4.374892 1.209776 0.775742
v -4.375582 1.210266 0.775092
v -4.376637 1.209856 0.775435
v -4.374465 1.208032 0.773099
v -4.374165 1.209076 0.773567
v -4.375581 1.209104 0.776431
v -4.376455 1.204852 0.774755
v -4.375537 1.205244 0.774703
v -4.376065 1.205752 0.776281
v -4.376855 1.205236 0.775950
v -4.376726 1.207891 0.772418
v -4.377390 1.206800 0.776696
v -4.378513 1.207600 0.775636
v -4.377858 1.206029 0.776264
v -4.376204 1.205660 0.773151
v -4.378590 1.207548 0.773900
v -4.377562 1.206685 0.772794
v -4.377858 1.206029 0.776264
v -4.380133 1.200878 0.776305
v -4.378766 1.206596 0.774147
v -4.382115 1.202374 0.775783
v -4.376960 1.205166 0.773581
v -4.381345 1.201634 0.773481
v -4.376855 1.205236 0.775950
v -4.380133 1.200878 0.776305
v -4.376855 1.205236 0.775950
v -4.379705 1.200467 0.775028
v -4.378708 1.206635 0.775462
v -4.377858 1.206029 0.776264
v -4.381205 1.201727 0.776641
v -4.382115 1.202374 0.775783
v -4.378708 1.206635 0.775462
v -4.381205 1.201727 0.776641
v -4.377988 1.205943 0.773310
v -4.378766 1.206596 0.774147
v -4.382177 1.202333 0.774377
v -4.381345 1.201634 0.773481
v -4.377988 1.205943 0.773310
v -4.382177 1.202333 0.774377
v -4.376455 1.204852 0.774755
v -4.376960 1.205166 0.773581
v -4.380245 1.200803 0.773771
v -4.379705 1.200467 0.775028
v -4.376455 1.204852 0.774755
v -4.380245 1.200803 0.773771
v -4.374998 1.209705 0.773348
v -4.376709 1.209808 0.773802
v -4.374080 1.209133 0.775487
v -4.373839 1.207642 0.774558
v -4.375582 1.210266 0.775092
v -4.375581 1.209104 0.776431
v -4.373756 1.208821 0.774520
v -4.373839 1.207642 0.774558
v -4.373756 1.208821 0.774520
v -4.374465 1.208032 0.773099
v -4.374892 1.209776 0.775742
v -4.374080 1.209133 0.775487
v -4.374336 1.208119 0.776041
v -4.375581 1.209104 0.776431
v -4.374892 1.209776 0.775742
v -4.374336 1.208119 0.776041
v -4.375629 1.210235 0.774026
v -4.375582 1.210266 0.775092
v -4.376637 1.209856 0.775435
v -4.376709 1.209808 0.773802
v -4.375629 1.210235 0.774026
v -4.376637 1.209856 0.775435
v -4.376455 1.204852 0.774755
v -4.376855 1.205236 0.775950
v -4.376065 1.205752 0.776281
v -4.376455 1.204852 0.774755
v -4.377858 1.206029 0.776264
v -4.378708 1.206635 0.775462
v -4.378513 1.207600 0.775636
v -4.377858 1.206029 0.776264
v -4.378766 1.206596 0.774147
v -4.377988 1.205943 0.773310
v -4.377562 1.206685 0.772794
v -4.378766 1.206596 0.774147
v -4.375537 1.205244 0.774703
v -4.376960 1.205166 0.773581
v -4.376455 1.204852 0.774755
v -4.375537 1.205244 0.774703
v -4.376960 1.205166 0.773581
v -4.377390 1.206800 0.776696
v -4.376065 1.205752 0.776281
v -4.376855 1.205236 0.775950
v -4.377858 1.206029 0.776264
v -4.377390 1.206800 0.776696
v -4.376855 1.205236 0.775950
v -4.378590 1.207548 0.773900
v -4.378513 1.207600 0.775636
v -4.378708 1.206635 0.775462
v -4.378766 1.206596 0.774147
v -4.378590 1.207548 0.773900
v -4.378708 1.206635 0.775462
v -4.376204 1.205660 0.773151
v -4.377562 1.206685 0.772794
v -4.377988 1.205943 0.773310
v -4.376960 1.205166 0.773581
v -4.376204 1.205660 0.773151
v -4.377988 1.205943 0.773310
v -4.377562 1.206685 0.772794
v -4.376204 1.205660 0.773151
v -4.375157 1.206706 0.772831
v -4.377562 1.206685 0.772794
v -4.374465 1.208032 0.773099
v -4.375743 1.208996 0.772763
v -4.376726 1.207891 0.772418
v -4.375157 1.206706 0.772831
v -4.374465 1.208032 0.773099
v -4.376726 1.207891 0.772418
v -4.376726 1.207891 0.772418
v -4.378590 1.207548 0.773900
v -4.377562 1.206685 0.772794
v -4.376726 1.207891 0.772418
v -4.378590 1.207548 0.773900
v -4.375743 1.208996 0.772763
v -4.376709 1.209808 0.773802
v -4.377913 1.208888 0.773695
v -4.376726 1.207891 0.772418
v -4.375743 1.208996 0.772763
v -4.377913 1.208888 0.773695
v -4.377913 1.208888 0.773695
v -4.378513 1.207600 0.775636
v -4.378590 1.207548 0.773900
v -4.377913 1.208888 0.773695
v -4.378513 1.207600 0.775636
v -4.376709 1.209808 0.773802
v -4.376637 1.209856 0.775435
v -4.377825 1.208947 0.775702
v -4.377913 1.208888 0.773695
v -4.376709 1.209808 0.773802
v -4.377825 1.208947 0.775702
v -4.377825 1.208947 0.775702
v -4.377390 1.206800 0.776696
v -4.378513 1.207600 0.775636
v -4.377825 1.208947 0.775702
v -4.377390 1.206800 0.776696
v -4.376637 1.209856 0.775435
v -4.375581 1.209104 0.776431
v -4.376527 1.208023 0.776926
v -4.377825 1.208947 0.775702
v -4.376637 1.209856 0.775435
v -4.376527 1.208023 0.776926
v -4.376527 1.208023 0.776926
v -4.376065 1.205752 0.776281
v -4.377390 1.206800 0.776696
v -4.376527 1.208023 0.776926
v -4.376065 1.205752 0.776281
v -4.375581 1.209104 0.776431
v -4.374336 1.208119 0.776041
v -4.374997 1.206812 0.776446
v -4.376527 1.208023 0.776926
v -4.375581 1.209104 0.776431
v -4.374997 1.206812 0.776446
v -4.374997 1.206812 0.776446
v -4.375537 1.205244 0.774703
v -4.376065 1.205752 0.776281
v -4.374997 1.206812 0.776446
v -4.375537 1.205244 0.774703
v -4.374336 1.208119 0.776041
v -4.373839 1.207642 0.774558
v -4.374387 1.206226 0.774624
v -4.374997 1.206812 0.776446
v -4.374336 1.208119 0.776041
v -4.374387 1.206226 0.774624
v -4.374387 1.206226 0.774624
v -4.375157 1.206706 0.772831
v -4.376204 1.205660 0.773151
v -4.375537 1.205244 0.774703
v -4.374387 1.206226 0.774624
v -4.376204 1.205660 0.773151
v -4.373839 1.207642 0.774558
v -4.374465 1.208032 0.773099
v -4.375157 1.206706 0.772831
v -4.374387 1.206226 0.774624
v -4.373839 1.207642 0.774558
v -4.375157 1.206706 0.772831
v -4.374165 1.209076 0.773567
v -4.374998 1.209705 0.773348
v -4.375743 1.208996 0.772763
v -4.374465 1.208032 0.773099
v -4.374165 1.209076 0.773567
v -4.375743 1.208996 0.772763
v -4.375629 1.210235 0.774026
v -4.374998 1.209705 0.773348
v -4.375582 1.210266 0.775092
v -4.374165 1.209076 0.773567
v -4.375582 1.210266 0.775092
v -4.374998 1.209705 0.773348
v -4.374892 1.209776 0.775742
v -4.375582 1.210266 0.775092
v -4.374165 1.209076 0.773567
v -4.373756 1.208821 0.774520
v -4.374892 1.209776 0.775742
v -4.374165 1.209076 0.773567
v -4.374080 1.209133 0.775487
v -4.374892 1.209776 0.775742
v -4.373756 1.208821 0.774520
v -4.382177 1.202333 0.774377
v -4.382115 1.202374 0.775783
v -4.381345 1.201634 0.773481
v -4.380245 1.200803 0.773771
v -4.381345 1.201634 0.773481
v -4.382115 1.202374 0.775783
v -4.381205 1.201727 0.776641
v -4.380245 1.200803 0.773771
v -4.382115 1.202374 0.775783
v -4.379705 1.200467 0.775028
v -4.380245 1.200803 0.773771
v -4.381205 1.201727 0.776641
v -4.380133 1.200878 0.776305
v -4.379705 1.200467 0.775028
v -4.381205 1.201727 0.776641
vn -0.6101 -0.7907 0.0502
vn 0.9499 0.3082 -0.0510
vn 0.4288 0.7459 0.5097
vn 0.8015 0.4510 0.3928
vn 0.7625 0.4251 -0.4877
vn 0.7626 0.4251 -0.4876
vn 0.1127 0.9709 0.2115
vn 0.3803 0.7136 -0.5883
vn 0.3804 0.7136 -0.5883
vn 0.0912 0.9565 -0.2772
vn 0.0490 0.4208 -0.9058
vn 0.7625 0.4251 -0.4876
vn 0.6678 -0.0462 -0.7429
vn 0.7625 0.4252 -0.4876
vn 0.4815 -0.3740 -0.7927
vn 0.9712 -0.2355 -0.0360
vn 0.8136 -0.5811 -0.0189
vn 0.4815 -0.3739 -0.7927
vn 0.6678 -0.0463 -0.7429
vn 0.9712 -0.2354 -0.0360
vn 0.2260 -0.6473 -0.7280
vn 0.5389 -0.8424 0.0009
vn 0.7308 -0.0043 0.6825
vn 0.5505 -0.3282 0.7677
vn 0.7308 -0.0044 0.6825
vn 0.5389 -0.8424 0.0010
vn 0.5505 -0.3282 0.7676
vn 0.2910 -0.6041 0.7419
vn 0.1276 0.4730 0.8718
vn -0.1099 0.1944 0.9747
vn 0.5505 -0.3281 0.7677
vn 0.7308 -0.0044 0.6826
vn 0.1276 0.4731 0.8717
vn 0.2909 -0.6041 0.7419
vn -0.3310 -0.1117 0.9370
vn 0.5504 -0.3281 0.7677
vn -0.3842 0.8373 0.3891
vn -0.6700 0.5931 0.4464
vn -0.3311 -0.1118 0.9370
vn -0.8587 0.2638 0.4393
vn -0.4191 0.8141 -0.4020
vn -0.7083 0.5677 -0.4196
vn -0.3842 0.8373 0.3890
vn -0.8588 0.2638 0.4392
vn -0.8948 0.2399 -0.3765
vn -0.7083 0.5676 -0.4196
vn -0.1958 0.1373 -0.9710
vn -0.4192 0.8140 -0.4021
vn 0.0490 0.4209 -0.9058
vn -0.8948 0.2398 -0.3766
vn -0.4121 -0.1655 -0.8960
vn -0.1958 0.1372 -0.9710
vn -0.4121 -0.1656 -0.8960
vn 0.2260 -0.6472 -0.7280
vn -0.3708 -0.1028 -0.9230
vn 0.2835 -0.5967 -0.7507
vn -0.4120 -0.1656 -0.8960
vn -0.8289 0.3376 0.4461
vn -0.8658 0.3130 -0.3904
vn -0.8289 0.3375 0.4461
vn 0.3501 -0.5524 0.7565
vn -0.3310 -0.1118 0.9370
vn -0.2878 -0.0476 0.9565
vn 0.2835 -0.5966 -0.7508
vn 0.6043 -0.7968 -0.0033
vn 0.2835 -0.5967 -0.7508
vn -0.8658 0.3130 -0.3903
vn -0.2877 -0.0476 0.9565
vn -0.3311 -0.1117 0.9370
vn 0.6043 -0.7967 -0.0033
vn 0.0912 0.9565 -0.2771
vn 0.1128 0.9709 0.2115
vn 0.0911 0.9565 -0.2772
vn 0.7308 -0.0043 0.6826
vn 0.4289 0.7459 0.5096
vn 0.9499 0.3083 -0.0510
vn 0.8014 0.4510 0.3928
vn -0.4191 0.8141 -0.4021
vn 0.4705 -0.3888 -0.7921
vn 0.8027 -0.5960 -0.0180
vn 0.2834 -0.5967 -0.7508
vn -0.7200 0.5533 -0.4189
vn -0.2072 0.1228 -0.9706
vn -0.7199 0.5534 -0.4189
vn -0.1212 0.1799 0.9762
vn -0.6816 0.5788 0.4476
vn -0.1212 0.1800 0.9762
vn 0.8027 -0.5961 -0.0179
vn 0.5395 -0.3430 0.7690
vn 0.8028 -0.5960 -0.0180
vn -0.2072 0.1227 -0.9706
vn 0.4704 -0.3888 -0.7922
vn -0.6817 0.5788 0.4476
vn -0.7200 0.5534 -0.4189
vn 0.5395 -0.3429 0.7690
vt 0.543243 0.635056
vt 0.535370 0.641335
vt 0.537796 0.636299
vt 0.537796 0.646370
vt 0.547607 0.638535
vt 0.543243 0.647614
vt 0.547607 0.644127
vt 0.593674 0.671494
vt 0.598511 0.669548
vt 0.596146 0.672157
vt 0.592773 0.669609
vt 0.596436 0.666756
vt 0.592804 0.667854
vt 0.594147 0.666748
vt 0.591187 0.666855
vt 0.590591 0.669838
vt 0.587372 0.669685
vt 0.591782 0.673050
vt 0.588348 0.674789
vt 0.582382 0.669067
vt 0.582687 0.676537
vt 0.595596 0.675606
vt 0.592606 0.680244
vt 0.586334 0.684982
vt 0.603775 0.674767
vt 0.603561 0.686485
vt 0.594009 0.696274
vt 0.603775 0.658051
vt 0.597107 0.663902
vt 0.596405 0.659698
vt 0.602859 0.665543
vt 0.600342 0.651657
vt 0.594193 0.655174
vt 0.593353 0.664742
vt 0.591705 0.661980
vt 0.588959 0.658463
vt 0.588654 0.665283
vt 0.584778 0.662933
vt 0.580322 0.660286
vt 0.576584 0.668175
vt 0.591812 0.651588
vt 0.585907 0.654999
vt 0.579453 0.688484
vt 0.584915 0.699394
vt 0.576157 0.678001
vt 0.597061 0.648293
vt 0.627350 0.682632
vt 0.649124 0.687675
vt 0.627441 0.688225
vt 0.649033 0.682457
vt 0.627441 0.671455
vt 0.649033 0.677231
vt 0.627350 0.677048
vt 0.649124 0.672005
vt 0.627914 0.660294
vt 0.649292 0.666786
vt 0.627625 0.665871
vt 0.649551 0.661568
vt 0.649292 0.692902
vt 0.627625 0.693810
vt 0.649551 0.698120
vt 0.627914 0.699394
s 0
usemtl decorations
f 240/1/1 239/2/1 238/3/1
f 237/1/1 236/4/1 235/2/1
f 234/5/1 233/4/1 232/1/1
f 231/5/1 230/6/1 229/4/1
f 228/6/1 227/5/1 226/7/1
s 1
f 225/8/2 224/9/3 223/10/4
f 222/11/5 221/9/3 220/8/2
f 219/11/6 218/12/7 217/9/3
f 216/13/8 215/12/7 214/11/5
f 213/12/7 212/13/9 211/14/10
f 210/15/11 209/11/12 208/16/13
f 207/15/11 206/13/8 205/11/14
f 204/17/15 203/18/16 202/19/17
f 201/17/18 200/16/19 199/18/20
f 198/20/21 197/19/17 196/21/22
f 195/20/21 194/17/15 193/19/17
f 192/19/17 191/22/23 190/23/24
f 189/19/17 188/18/16 187/22/25
f 186/21/26 185/23/27 184/24/28
f 183/21/26 3/19/17 182/23/27
f 181/23/24 180/25/29 179/26/30
f 178/23/31 177/22/32 176/25/33
f 175/24/34 174/26/30 173/27/35
f 172/24/34 4/23/36 171/26/30
f 170/28/30 169/29/37 168/30/38
f 167/28/30 166/31/29 165/29/37
f 164/32/39 163/30/38 162/33/40
f 161/32/39 13/28/30 160/30/38
f 159/30/38 158/34/41 157/35/42
f 156/30/38 155/29/43 154/34/41
f 153/33/44 152/35/42 151/36/45
f 150/33/44 14/30/38 149/35/42
f 148/35/46 147/15/11 146/37/47
f 145/35/42 144/34/48 143/15/49
f 142/36/50 141/37/47 140/38/51
f 139/36/50 16/35/42 138/37/47
f 137/37/52 136/16/13 135/17/15
f 134/37/47 133/15/11 132/16/13
f 131/38/53 130/17/15 129/20/54
f 128/38/53 36/37/47 25/17/15
f 127/39/55 126/20/54 125/40/56
f 124/39/55 123/38/57 122/20/54
f 121/41/58 120/36/45 119/42/59
f 118/41/60 117/33/44 116/36/45
f 115/43/61 114/27/62 113/44/63
f 112/43/61 111/24/28 110/27/62
f 109/40/64 108/21/22 107/45/65
f 106/40/66 40/20/21 105/21/22
f 104/42/59 103/38/57 102/39/55
f 101/42/67 41/36/45 42/38/57
f 100/46/68 99/33/40 98/41/60
f 97/46/68 37/32/69 38/33/40
f 96/45/70 95/24/28 94/43/61
f 93/45/65 33/21/22 34/24/28
f 92/29/43 91/14/71 90/34/41
f 89/29/43 88/12/72 87/14/73
f 86/22/74 85/9/3 84/25/33
f 83/22/74 82/10/4 81/9/75
f 80/16/19 79/8/2 78/18/20
f 29/16/19 30/11/5 77/8/76
f 76/31/33 75/12/7 28/29/37
f 31/31/33 26/9/75 27/12/72
f 74/18/16 73/10/77 24/22/32
f 21/18/16 22/8/76 23/10/4
f 72/34/78 71/13/9 20/15/11
f 17/34/78 18/14/10 19/13/8
f 70/47/79 69/48/70 68/49/80
f 67/47/79 66/50/81 65/48/70
f 64/51/82 63/52/55 62/53/83
f 61/51/84 60/54/59 59/52/55
f 58/55/85 57/56/58 56/57/86
f 55/55/87 54/58/68 53/56/60
f 52/49/88 51/59/61 50/60/89
f 2/49/90 32/48/65 49/59/61
f 48/53/91 47/50/56 12/47/92
f 9/53/83 10/52/55 11/50/56
f 46/57/93 45/54/59 8/51/94
f 5/57/86 6/56/58 7/54/59
f 44/60/89 43/61/68 15/62/85
f 1/60/95 35/59/61 39/61/68
