# Blender 5.0.0
# www.blender.org
mtllib Circle_005_Circle_001_Dupli_150_decorations_0.mtl
o Circle.005|Circle.001|Dupli|150_decorations_0
v -4.690791 0.791498 0.487973
v -4.689416 0.791203 0.487898
v -4.687721 0.798363 0.485167
v -4.689682 0.798784 0.485274
v -4.691677 0.790624 0.485761
v -4.690667 0.795507 0.483524
v -4.689586 0.795029 0.482943
v -4.690521 0.790114 0.485140
v -4.689199 0.790093 0.485626
v -4.688351 0.795010 0.483398
v -4.687891 0.795463 0.484546
v -4.688708 0.790577 0.486854
v -4.691118 0.798417 0.483917
v -4.690947 0.797538 0.482118
v -4.691797 0.791240 0.487022
v -4.689297 0.796810 0.481232
v -4.688993 0.798282 0.481011
v -4.688739 0.799424 0.481191
v -4.687737 0.799408 0.481559
v -4.687459 0.798258 0.481576
v -4.687710 0.799546 0.484214
v -4.687901 0.800249 0.483281
v -4.688943 0.800472 0.483338
v -4.689307 0.799889 0.484300
v -4.686710 0.797471 0.483677
v -4.689706 0.800277 0.482617
v -4.689615 0.799811 0.481662
v -4.690336 0.798875 0.481733
v -4.686888 0.798821 0.483001
v -4.687365 0.799775 0.482489
v -4.690475 0.799590 0.483196
v -4.688553 0.796047 0.485522
v -4.688140 0.796957 0.485542
v -4.689838 0.797322 0.485634
v -4.689838 0.796323 0.485592
v -4.687412 0.796780 0.481926
v -4.691081 0.797004 0.484460
v -4.690933 0.796243 0.482903
v -4.690779 0.796082 0.484703
v -4.687265 0.796185 0.484252
v -4.689505 0.795613 0.482136
v -4.687873 0.795587 0.482736
v -4.690779 0.796082 0.484703
v -4.690791 0.791498 0.487973
v -4.689586 0.795029 0.482943
v -4.691677 0.790624 0.485761
v -4.687891 0.795463 0.484546
v -4.689199 0.790093 0.485626
v -4.689838 0.796323 0.485592
v -4.690791 0.791498 0.487973
v -4.689838 0.796323 0.485592
v -4.689416 0.791203 0.487898
v -4.690667 0.795507 0.483524
v -4.690779 0.796082 0.484703
v -4.691797 0.791240 0.487022
v -4.691677 0.790624 0.485761
v -4.690667 0.795507 0.483524
v -4.691797 0.791240 0.487022
v -4.688351 0.795010 0.483398
v -4.689586 0.795029 0.482943
v -4.690521 0.790114 0.485140
v -4.689199 0.790093 0.485626
v -4.688351 0.795010 0.483398
v -4.690521 0.790114 0.485140
v -4.688553 0.796047 0.485522
v -4.687891 0.795463 0.484546
v -4.688708 0.790577 0.486854
v -4.689416 0.791203 0.487898
v -4.688553 0.796047 0.485522
v -4.688708 0.790577 0.486854
v -4.687737 0.799408 0.481559
v -4.688993 0.798282 0.481011
v -4.688943 0.800472 0.483338
v -4.687710 0.799546 0.484214
v -4.689615 0.799811 0.481662
v -4.690475 0.799590 0.483196
v -4.687901 0.800249 0.483281
v -4.687710 0.799546 0.484214
v -4.687901 0.800249 0.483281
v -4.686888 0.798821 0.483001
v -4.689706 0.800277 0.482617
v -4.688943 0.800472 0.483338
v -4.689307 0.799889 0.484300
v -4.690475 0.799590 0.483196
v -4.689706 0.800277 0.482617
v -4.689307 0.799889 0.484300
v -4.688739 0.799424 0.481191
v -4.689615 0.799811 0.481662
v -4.690336 0.798875 0.481733
v -4.688993 0.798282 0.481011
v -4.688739 0.799424 0.481191
v -4.690336 0.798875 0.481733
v -4.688553 0.796047 0.485522
v -4.689838 0.796323 0.485592
v -4.689838 0.797322 0.485634
v -4.688553 0.796047 0.485522
v -4.690779 0.796082 0.484703
v -4.690667 0.795507 0.483524
v -4.690933 0.796243 0.482903
v -4.690779 0.796082 0.484703
v -4.689586 0.795029 0.482943
v -4.688351 0.795010 0.483398
v -4.687873 0.795587 0.482736
v -4.689586 0.795029 0.482943
v -4.688140 0.796957 0.485542
v -4.687891 0.795463 0.484546
v -4.688553 0.796047 0.485522
v -4.688140 0.796957 0.485542
v -4.687891 0.795463 0.484546
v -4.691081 0.797004 0.484460
v -4.689838 0.797322 0.485634
v -4.689838 0.796323 0.485592
v -4.690779 0.796082 0.484703
v -4.691081 0.797004 0.484460
v -4.689838 0.796323 0.485592
v -4.689505 0.795613 0.482136
v -4.690933 0.796243 0.482903
v -4.690667 0.795507 0.483524
v -4.689586 0.795029 0.482943
v -4.689505 0.795613 0.482136
v -4.690667 0.795507 0.483524
v -4.687265 0.796185 0.484252
v -4.687873 0.795587 0.482736
v -4.688351 0.795010 0.483398
v -4.687891 0.795463 0.484546
v -4.687265 0.796185 0.484252
v -4.688351 0.795010 0.483398
v -4.687873 0.795587 0.482736
v -4.687265 0.796185 0.484252
v -4.686710 0.797471 0.483677
v -4.687873 0.795587 0.482736
v -4.686888 0.798821 0.483001
v -4.687459 0.798258 0.481576
v -4.687412 0.796780 0.481926
v -4.686710 0.797471 0.483677
v -4.686888 0.798821 0.483001
v -4.687412 0.796780 0.481926
v -4.687412 0.796780 0.481926
v -4.689505 0.795613 0.482136
v -4.687873 0.795587 0.482736
v -4.687412 0.796780 0.481926
v -4.689505 0.795613 0.482136
v -4.687459 0.798258 0.481576
v -4.688993 0.798282 0.481011
v -4.689297 0.796810 0.481232
v -4.687412 0.796780 0.481926
v -4.687459 0.798258 0.481576
v -4.689297 0.796810 0.481232
v -4.689297 0.796810 0.481232
v -4.690933 0.796243 0.482903
v -4.689505 0.795613 0.482136
v -4.689297 0.796810 0.481232
v -4.690933 0.796243 0.482903
v -4.688993 0.798282 0.481011
v -4.690336 0.798875 0.481733
v -4.690947 0.797538 0.482118
v -4.689297 0.796810 0.481232
v -4.688993 0.798282 0.481011
v -4.690947 0.797538 0.482118
v -4.690947 0.797538 0.482118
v -4.691081 0.797004 0.484460
v -4.690933 0.796243 0.482903
v -4.690947 0.797538 0.482118
v -4.691081 0.797004 0.484460
v -4.690336 0.798875 0.481733
v -4.690475 0.799590 0.483196
v -4.691118 0.798417 0.483917
v -4.690947 0.797538 0.482118
v -4.690336 0.798875 0.481733
v -4.691118 0.798417 0.483917
v -4.691118 0.798417 0.483917
v -4.689838 0.797322 0.485634
v -4.691081 0.797004 0.484460
v -4.691118 0.798417 0.483917
v -4.689838 0.797322 0.485634
v -4.690475 0.799590 0.483196
v -4.689307 0.799889 0.484300
v -4.689682 0.798784 0.485274
v -4.691118 0.798417 0.483917
v -4.690475 0.799590 0.483196
v -4.689682 0.798784 0.485274
v -4.689682 0.798784 0.485274
v -4.688140 0.796957 0.485542
v -4.689838 0.797322 0.485634
v -4.689682 0.798784 0.485274
v -4.688140 0.796957 0.485542
v -4.689307 0.799889 0.484300
v -4.687710 0.799546 0.484214
v -4.687721 0.798363 0.485167
v -4.689682 0.798784 0.485274
v -4.689307 0.799889 0.484300
v -4.687721 0.798363 0.485167
v -4.687721 0.798363 0.485167
v -4.686710 0.797471 0.483677
v -4.687265 0.796185 0.484252
v -4.688140 0.796957 0.485542
v -4.687721 0.798363 0.485167
v -4.687265 0.796185 0.484252
v -4.687710 0.799546 0.484214
v -4.686888 0.798821 0.483001
v -4.686710 0.797471 0.483677
v -4.687721 0.798363 0.485167
v -4.687710 0.799546 0.484214
v -4.686710 0.797471 0.483677
v -4.687365 0.799775 0.482489
v -4.687737 0.799408 0.481559
v -4.687459 0.798258 0.481576
v -4.686888 0.798821 0.483001
v -4.687365 0.799775 0.482489
v -4.687459 0.798258 0.481576
v -4.688739 0.799424 0.481191
v -4.687737 0.799408 0.481559
v -4.689615 0.799811 0.481662
v -4.687365 0.799775 0.482489
v -4.689615 0.799811 0.481662
v -4.687737 0.799408 0.481559
v -4.689706 0.800277 0.482617
v -4.689615 0.799811 0.481662
v -4.687365 0.799775 0.482489
v -4.687901 0.800249 0.483281
v -4.689706 0.800277 0.482617
v -4.687365 0.799775 0.482489
v -4.688943 0.800472 0.483338
v -4.689706 0.800277 0.482617
v -4.687901 0.800249 0.483281
v -4.690521 0.790114 0.485140
v -4.691677 0.790624 0.485761
v -4.689199 0.790093 0.485626
v -4.688708 0.790577 0.486854
v -4.689199 0.790093 0.485626
v -4.691677 0.790624 0.485761
v -4.691797 0.791240 0.487022
v -4.688708 0.790577 0.486854
v -4.691677 0.790624 0.485761
v -4.689416 0.791203 0.487898
v -4.688708 0.790577 0.486854
v -4.691797 0.791240 0.487022
v -4.690791 0.791498 0.487973
v -4.689416 0.791203 0.487898
v -4.691797 0.791240 0.487022
vn -0.1685 -0.8919 0.4196
vn 0.4467 0.8890 0.1009
vn -0.3806 0.9020 -0.2036
vn -0.0310 0.9914 0.1269
vn 0.6929 0.6717 -0.2621
vn 0.4468 0.8889 0.1008
vn 0.6929 0.6718 -0.2620
vn -0.3388 0.6881 -0.6417
vn 0.5221 0.5034 -0.6885
vn -0.3389 0.6881 -0.6417
vn 0.6929 0.6717 -0.2620
vn -0.3388 0.6880 -0.6417
vn 0.0629 0.5106 -0.8575
vn 0.6887 -0.0136 -0.7249
vn 0.9653 0.2590 -0.0345
vn 0.5220 0.5034 -0.6885
vn 0.9877 -0.0813 0.1339
vn 0.5668 0.6106 0.5530
vn 0.5515 0.3037 0.7769
vn 0.9877 -0.0812 0.1338
vn 0.5668 0.6107 0.5530
vn 0.8676 -0.4092 0.2826
vn 0.4567 -0.0466 0.8884
vn -0.2066 0.7766 0.5951
vn -0.2951 0.4853 0.8230
vn 0.4566 -0.0466 0.8884
vn -0.2951 0.4854 0.8230
vn -0.3409 0.1245 0.9318
vn -0.7727 0.6319 0.0602
vn -0.9148 0.3269 0.2374
vn -0.2067 0.7766 0.5951
vn -0.7727 0.6319 0.0601
vn -0.9246 -0.0247 0.3801
vn -0.9148 0.3268 0.2374
vn -0.7051 0.2854 -0.6491
vn -0.8407 -0.0523 -0.5389
vn -0.7728 0.6319 0.0601
vn -0.7051 0.2855 -0.6491
vn -0.9246 -0.0248 0.3801
vn -0.8408 -0.0523 -0.5389
vn -0.8549 -0.3819 -0.3512
vn -0.8408 -0.0522 -0.5389
vn -0.0548 -0.0017 -0.9985
vn -0.1288 -0.3667 -0.9214
vn -0.8549 -0.3820 -0.3512
vn -0.1842 -0.6781 -0.7115
vn 0.6886 -0.0136 -0.7250
vn 0.6849 -0.3796 -0.6220
vn -0.0547 -0.0018 -0.9985
vn 0.6886 -0.0135 -0.7250
vn -0.1842 -0.6782 -0.7115
vn 0.5823 -0.6902 -0.4295
vn 0.6849 -0.3796 -0.6219
vn 0.9877 -0.0812 0.1339
vn 0.6849 -0.3795 -0.6220
vn 0.6887 -0.0136 -0.7250
vn 0.5823 -0.6903 -0.4294
vn 0.6115 -0.6322 -0.4759
vn 0.9039 -0.3440 0.2542
vn 0.6114 -0.6322 -0.4759
vn 0.5824 -0.6903 -0.4294
vn -0.8623 -0.3160 -0.3957
vn -0.1746 -0.6198 -0.7651
vn -0.8549 -0.3820 -0.3511
vn -0.3353 0.2033 0.9199
vn -0.9246 -0.0247 0.3802
vn -0.9338 0.0502 0.3542
vn 0.4826 0.0278 0.8754
vn 0.8676 -0.4093 0.2826
vn -0.1746 -0.6197 -0.7651
vn -0.9338 0.0503 0.3542
vn -0.8549 -0.3819 -0.3511
vn -0.8623 -0.3161 -0.3957
vn 0.4826 0.0279 0.8754
vn 0.0629 0.5107 -0.8575
vn -0.0309 0.9914 0.1269
vn 0.9653 0.2590 -0.0344
vn 0.4468 0.8890 0.1008
vn -0.3806 0.9021 -0.2036
vn 0.5668 0.6106 0.5531
vn -0.0547 -0.0017 -0.9985
vn 0.6887 -0.0135 -0.7250
vn 0.9851 -0.0978 0.1417
vn 0.5487 0.2873 0.7851
vn 0.9851 -0.0977 0.1417
vn -0.1319 -0.3834 -0.9141
vn 0.6821 -0.3963 -0.6146
vn -0.9184 0.3105 0.2452
vn -0.8443 -0.0688 -0.5314
vn -0.9184 0.3106 0.2452
vn -0.9338 0.0502 0.3543
vn -0.2984 0.4691 0.8312
vn 0.5487 0.2874 0.7851
vn -0.3352 0.2033 0.9199
vn 0.6821 -0.3963 -0.6145
vn 0.6822 -0.3962 -0.6145
vn -0.1320 -0.3834 -0.9141
vn -0.9184 0.3106 0.2453
vn -0.9338 0.0503 0.3543
vt 0.543243 0.635056
vt 0.535370 0.641335
vt 0.537796 0.636299
vt 0.537796 0.646370
vt 0.547607 0.638535
vt 0.543243 0.647614
vt 0.547607 0.644127
vt 0.593674 0.671494
vt 0.598511 0.669548
vt 0.596146 0.672157
vt 0.592773 0.669609
vt 0.596436 0.666756
vt 0.592804 0.667854
vt 0.594147 0.666748
vt 0.591187 0.666855
vt 0.590591 0.669838
vt 0.587372 0.669685
vt 0.591782 0.673050
vt 0.588348 0.674789
vt 0.582382 0.669067
vt 0.582687 0.676537
vt 0.595596 0.675606
vt 0.592606 0.680244
vt 0.586334 0.684982
vt 0.603775 0.674767
vt 0.603561 0.686485
vt 0.594009 0.696274
vt 0.603775 0.658051
vt 0.597107 0.663902
vt 0.596405 0.659698
vt 0.602859 0.665543
vt 0.600342 0.651657
vt 0.594193 0.655174
vt 0.593353 0.664742
vt 0.591705 0.661980
vt 0.588959 0.658463
vt 0.588654 0.665283
vt 0.584778 0.662933
vt 0.580322 0.660286
vt 0.576584 0.668175
vt 0.591812 0.651588
vt 0.585907 0.654999
vt 0.579453 0.688484
vt 0.584915 0.699394
vt 0.576157 0.678001
vt 0.597061 0.648293
vt 0.627350 0.682632
vt 0.649124 0.687675
vt 0.627441 0.688225
vt 0.649033 0.682457
vt 0.627441 0.671455
vt 0.649033 0.677231
vt 0.627350 0.677048
vt 0.649124 0.672005
vt 0.627914 0.660294
vt 0.649292 0.666786
vt 0.627625 0.665871
vt 0.649551 0.661568
vt 0.649292 0.692902
vt 0.627625 0.693810
vt 0.649551 0.698120
vt 0.627914 0.699394
s 0
usemtl decorations
f 240/1/1 239/2/1 238/3/1
f 237/1/1 236/4/1 235/2/1
f 234/5/1 233/4/1 232/1/1
f 231/5/1 230/6/1 229/4/1
f 228/6/1 227/5/1 226/7/1
s 1
f 225/8/2 224/9/3 223/10/4
f 222/11/5 221/9/3 220/8/6
f 219/11/7 218/12/8 217/9/3
f 216/13/9 215/12/10 214/11/11
f 213/12/12 212/13/9 211/14/13
f 210/15/14 209/11/7 208/16/15
f 207/15/14 206/13/16 205/11/7
f 204/17/17 203/18/18 202/19/19
f 201/17/20 200/16/15 199/18/21
f 198/20/22 197/19/19 196/21/23
f 195/20/22 194/17/20 193/19/19
f 192/19/19 191/22/24 190/23/25
f 189/19/19 188/18/21 187/22/24
f 186/21/26 185/23/27 184/24/28
f 183/21/26 3/19/19 182/23/27
f 181/23/25 180/25/29 179/26/30
f 178/23/25 177/22/31 176/25/32
f 175/24/28 174/26/30 173/27/33
f 172/24/28 4/23/25 171/26/30
f 170/28/34 169/29/35 168/30/36
f 167/28/30 166/31/37 165/29/38
f 164/32/39 163/30/40 162/33/41
f 161/32/39 13/28/30 160/30/42
f 159/30/36 158/34/43 157/35/44
f 156/30/36 155/29/35 154/34/43
f 153/33/45 152/35/44 151/36/46
f 150/33/45 14/30/36 149/35/44
f 148/35/44 147/15/47 146/37/48
f 145/35/44 144/34/49 143/15/50
f 142/36/51 141/37/48 140/38/52
f 139/36/51 16/35/44 138/37/48
f 137/37/53 136/16/15 135/17/54
f 134/37/55 133/15/56 132/16/15
f 131/38/57 130/17/54 129/20/22
f 128/38/57 36/37/48 25/17/54
f 127/39/58 126/20/22 125/40/59
f 124/39/60 123/38/61 122/20/22
f 121/41/62 120/36/46 119/42/63
f 118/41/62 117/33/64 116/36/46
f 115/43/65 114/27/66 113/44/67
f 112/43/65 111/24/28 110/27/66
f 109/40/59 108/21/23 107/45/68
f 106/40/59 40/20/69 105/21/23
f 104/42/70 103/38/57 102/39/60
f 101/42/63 41/36/46 42/38/57
f 100/46/71 99/33/72 98/41/73
f 97/46/67 37/32/39 38/33/72
f 96/45/74 95/24/28 94/43/65
f 93/45/68 33/21/23 34/24/28
f 92/29/35 91/14/75 90/34/43
f 89/29/35 88/12/8 87/14/13
f 86/22/31 85/9/3 84/25/32
f 83/22/31 82/10/76 81/9/3
f 80/16/77 79/8/78 78/18/21
f 29/16/77 30/11/5 77/8/78
f 76/31/32 75/12/8 28/29/38
f 31/31/32 26/9/79 27/12/8
f 74/18/18 73/10/4 24/22/24
f 21/18/80 22/8/78 23/10/4
f 72/34/81 71/13/9 20/15/82
f 17/34/49 18/14/13 19/13/16
f 70/47/83 69/48/74 68/49/84
f 67/47/85 66/50/59 65/48/68
f 64/51/86 63/52/58 62/53/87
f 61/51/86 60/54/63 59/52/60
f 58/55/88 57/56/62 56/57/89
f 55/55/90 54/58/91 53/56/73
f 52/49/84 51/59/65 50/60/92
f 2/49/93 32/48/68 49/59/94
f 48/53/95 47/50/59 12/47/83
f 9/53/96 10/52/60 11/50/59
f 46/57/89 45/54/63 8/51/97
f 5/57/89 6/56/73 7/54/63
f 44/60/92 43/61/71 15/62/98
f 1/60/92 35/59/65 39/61/99
