# Blender 5.0.0
# www.blender.org
mtllib Circle_002_Circle_Dupli_99_decorations_0.mtl
o Circle.002|Circle|Dupli|99_decorations_0
v -4.471951 1.852278 0.824997
v -4.473069 1.852720 0.825732
v -4.475003 1.857963 0.820220
v -4.473409 1.857333 0.819171
v -4.470058 1.853665 0.825962
v -4.471092 1.857522 0.822232
v -4.471699 1.858255 0.823142
v -4.470707 1.854448 0.826935
v -4.472071 1.854460 0.827286
v -4.472974 1.858266 0.823470
v -4.473957 1.857546 0.822970
v -4.473122 1.853690 0.826751
v -4.471497 1.857933 0.819318
v -4.470707 1.859311 0.820548
v -4.470612 1.852699 0.825099
v -4.471634 1.860429 0.821937
v -4.472134 1.861190 0.820720
v -4.472684 1.861475 0.819712
v -4.473717 1.861483 0.819978
v -4.473717 1.861203 0.821128
v -4.474875 1.859183 0.819323
v -4.474473 1.860165 0.818801
v -4.473627 1.859831 0.818244
v -4.473578 1.858670 0.818470
v -4.475079 1.859348 0.821674
v -4.472611 1.860149 0.818321
v -4.472192 1.860881 0.818975
v -4.471380 1.860280 0.819590
v -4.474937 1.860310 0.820506
v -4.474514 1.860900 0.819573
v -4.472023 1.859159 0.818589
v -4.473907 1.856639 0.822017
v -4.474480 1.857047 0.821307
v -4.473100 1.856502 0.820399
v -4.472863 1.856227 0.821330
v -4.473579 1.860445 0.822438
v -4.471445 1.857021 0.820525
v -4.470761 1.858214 0.821591
v -4.471610 1.856620 0.821426
v -4.474545 1.858246 0.822565
v -4.471563 1.859182 0.822793
v -4.473248 1.859196 0.823226
v -4.471610 1.856620 0.821426
v -4.471951 1.852278 0.824997
v -4.471699 1.858255 0.823142
v -4.470058 1.853665 0.825962
v -4.473957 1.857546 0.822970
v -4.472071 1.854460 0.827286
v -4.472863 1.856227 0.821330
v -4.471951 1.852278 0.824997
v -4.472863 1.856227 0.821330
v -4.473069 1.852720 0.825732
v -4.471092 1.857522 0.822232
v -4.471610 1.856620 0.821426
v -4.470612 1.852699 0.825099
v -4.470058 1.853665 0.825962
v -4.471092 1.857522 0.822232
v -4.470612 1.852699 0.825099
v -4.472974 1.858266 0.823470
v -4.471699 1.858255 0.823142
v -4.470707 1.854448 0.826935
v -4.472071 1.854460 0.827286
v -4.472974 1.858266 0.823470
v -4.470707 1.854448 0.826935
v -4.473907 1.856639 0.822017
v -4.473957 1.857546 0.822970
v -4.473122 1.853690 0.826751
v -4.473069 1.852720 0.825732
v -4.473907 1.856639 0.822017
v -4.473122 1.853690 0.826751
v -4.473717 1.861483 0.819978
v -4.472134 1.861190 0.820720
v -4.473627 1.859831 0.818244
v -4.474875 1.859183 0.819323
v -4.472192 1.860881 0.818975
v -4.472023 1.859159 0.818589
v -4.474473 1.860165 0.818801
v -4.474875 1.859183 0.819323
v -4.474473 1.860165 0.818801
v -4.474937 1.860310 0.820506
v -4.472611 1.860149 0.818321
v -4.473627 1.859831 0.818244
v -4.473578 1.858670 0.818470
v -4.472023 1.859159 0.818589
v -4.472611 1.860149 0.818321
v -4.473578 1.858670 0.818470
v -4.472684 1.861475 0.819712
v -4.472192 1.860881 0.818975
v -4.471380 1.860280 0.819590
v -4.472134 1.861190 0.820720
v -4.472684 1.861475 0.819712
v -4.471380 1.860280 0.819590
v -4.473907 1.856639 0.822017
v -4.472863 1.856227 0.821330
v -4.473100 1.856502 0.820399
v -4.473907 1.856639 0.822017
v -4.471610 1.856620 0.821426
v -4.471092 1.857522 0.822232
v -4.470761 1.858214 0.821591
v -4.471610 1.856620 0.821426
v -4.471699 1.858255 0.823142
v -4.472974 1.858266 0.823470
v -4.473248 1.859196 0.823226
v -4.471699 1.858255 0.823142
v -4.474480 1.857047 0.821307
v -4.473957 1.857546 0.822970
v -4.473907 1.856639 0.822017
v -4.474480 1.857047 0.821307
v -4.473957 1.857546 0.822970
v -4.471445 1.857021 0.820525
v -4.473100 1.856502 0.820399
v -4.472863 1.856227 0.821330
v -4.471610 1.856620 0.821426
v -4.471445 1.857021 0.820525
v -4.472863 1.856227 0.821330
v -4.471563 1.859182 0.822793
v -4.470761 1.858214 0.821591
v -4.471092 1.857522 0.822232
v -4.471699 1.858255 0.823142
v -4.471563 1.859182 0.822793
v -4.471092 1.857522 0.822232
v -4.474545 1.858246 0.822565
v -4.473248 1.859196 0.823226
v -4.472974 1.858266 0.823470
v -4.473957 1.857546 0.822970
v -4.474545 1.858246 0.822565
v -4.472974 1.858266 0.823470
v -4.473248 1.859196 0.823226
v -4.474545 1.858246 0.822565
v -4.475079 1.859348 0.821674
v -4.473248 1.859196 0.823226
v -4.474937 1.860310 0.820506
v -4.473717 1.861203 0.821128
v -4.473579 1.860445 0.822438
v -4.475079 1.859348 0.821674
v -4.474937 1.860310 0.820506
v -4.473579 1.860445 0.822438
v -4.473579 1.860445 0.822438
v -4.471563 1.859182 0.822793
v -4.473248 1.859196 0.823226
v -4.473579 1.860445 0.822438
v -4.471563 1.859182 0.822793
v -4.473717 1.861203 0.821128
v -4.472134 1.861190 0.820720
v -4.471634 1.860429 0.821937
v -4.473579 1.860445 0.822438
v -4.473717 1.861203 0.821128
v -4.471634 1.860429 0.821937
v -4.471634 1.860429 0.821937
v -4.470761 1.858214 0.821591
v -4.471563 1.859182 0.822793
v -4.471634 1.860429 0.821937
v -4.470761 1.858214 0.821591
v -4.472134 1.861190 0.820720
v -4.471380 1.860280 0.819590
v -4.470707 1.859311 0.820548
v -4.471634 1.860429 0.821937
v -4.472134 1.861190 0.820720
v -4.470707 1.859311 0.820548
v -4.470707 1.859311 0.820548
v -4.471445 1.857021 0.820525
v -4.470761 1.858214 0.821591
v -4.470707 1.859311 0.820548
v -4.471445 1.857021 0.820525
v -4.471380 1.860280 0.819590
v -4.472023 1.859159 0.818589
v -4.471497 1.857933 0.819318
v -4.470707 1.859311 0.820548
v -4.471380 1.860280 0.819590
v -4.471497 1.857933 0.819318
v -4.471497 1.857933 0.819318
v -4.473100 1.856502 0.820399
v -4.471445 1.857021 0.820525
v -4.471497 1.857933 0.819318
v -4.473100 1.856502 0.820399
v -4.472023 1.859159 0.818589
v -4.473578 1.858670 0.818470
v -4.473409 1.857333 0.819171
v -4.471497 1.857933 0.819318
v -4.472023 1.859159 0.818589
v -4.473409 1.857333 0.819171
v -4.473409 1.857333 0.819171
v -4.474480 1.857047 0.821307
v -4.473100 1.856502 0.820399
v -4.473409 1.857333 0.819171
v -4.474480 1.857047 0.821307
v -4.473578 1.858670 0.818470
v -4.474875 1.859183 0.819323
v -4.475003 1.857963 0.820220
v -4.473409 1.857333 0.819171
v -4.473578 1.858670 0.818470
v -4.475003 1.857963 0.820220
v -4.475003 1.857963 0.820220
v -4.475079 1.859348 0.821674
v -4.474545 1.858246 0.822565
v -4.474480 1.857047 0.821307
v -4.475003 1.857963 0.820220
v -4.474545 1.858246 0.822565
v -4.474875 1.859183 0.819323
v -4.474937 1.860310 0.820506
v -4.475079 1.859348 0.821674
v -4.475003 1.857963 0.820220
v -4.474875 1.859183 0.819323
v -4.475079 1.859348 0.821674
v -4.474514 1.860900 0.819573
v -4.473717 1.861483 0.819978
v -4.473717 1.861203 0.821128
v -4.474937 1.860310 0.820506
v -4.474514 1.860900 0.819573
v -4.473717 1.861203 0.821128
v -4.472684 1.861475 0.819712
v -4.473717 1.861483 0.819978
v -4.472192 1.860881 0.818975
v -4.474514 1.860900 0.819573
v -4.472192 1.860881 0.818975
v -4.473717 1.861483 0.819978
v -4.472611 1.860149 0.818321
v -4.472192 1.860881 0.818975
v -4.474514 1.860900 0.819573
v -4.474473 1.860165 0.818801
v -4.472611 1.860149 0.818321
v -4.474514 1.860900 0.819573
v -4.473627 1.859831 0.818244
v -4.472611 1.860149 0.818321
v -4.474473 1.860165 0.818801
v -4.470707 1.854448 0.826935
v -4.470058 1.853665 0.825962
v -4.472071 1.854460 0.827286
v -4.473122 1.853690 0.826751
v -4.472071 1.854460 0.827286
v -4.470058 1.853665 0.825962
v -4.470612 1.852699 0.825099
v -4.473122 1.853690 0.826751
v -4.470058 1.853665 0.825962
v -4.473069 1.852720 0.825732
v -4.473122 1.853690 0.826751
v -4.470612 1.852699 0.825099
v -4.471951 1.852278 0.824997
v -4.473069 1.852720 0.825732
v -4.470612 1.852699 0.825099
vn 0.1702 -0.7090 0.6844
vn -0.6316 0.3411 -0.6962
vn 0.2223 0.3340 -0.9160
vn -0.2434 0.1879 -0.9516
vn -0.6501 0.6785 -0.3421
vn -0.6316 0.3412 -0.6962
vn -0.6501 0.6784 -0.3422
vn 0.4147 0.6696 -0.6162
vn -0.2849 0.9458 -0.1561
vn 0.4147 0.6695 -0.6163
vn -0.2850 0.9457 -0.1561
vn 0.1889 0.9418 -0.2781
vn -0.3032 0.8726 0.3830
vn -0.8943 0.4399 0.0817
vn -0.6501 0.6785 -0.3422
vn -0.9093 0.1915 0.3694
vn -0.8644 -0.1063 -0.4914
vn -0.8766 -0.4062 -0.2580
vn -0.9093 0.1915 0.3693
vn -0.8944 0.4398 0.0817
vn -0.8644 -0.1062 -0.4914
vn -0.7931 -0.0841 0.6032
vn -0.7623 -0.6471 0.0122
vn -0.8766 -0.4062 -0.2581
vn -0.2359 -0.3544 -0.9049
vn -0.1886 -0.6779 -0.7106
vn -0.7623 -0.6472 0.0122
vn -0.1887 -0.6778 -0.7106
vn -0.1142 -0.9030 -0.4142
vn 0.5179 -0.1178 -0.8473
vn 0.6366 -0.4189 -0.6475
vn -0.2359 -0.3544 -0.9048
vn -0.1141 -0.9030 -0.4141
vn 0.6632 -0.6590 -0.3548
vn 0.8295 0.4254 -0.3620
vn 0.9775 0.1757 -0.1164
vn 0.5180 -0.1178 -0.8472
vn 0.8294 0.4254 -0.3621
vn 0.6632 -0.6590 -0.3547
vn 0.9844 -0.0989 0.1456
vn 0.9775 0.1757 -0.1165
vn 0.4640 0.8662 0.1854
vn 0.5775 0.6582 0.4829
vn 0.4640 0.8662 0.1855
vn 0.9844 -0.0989 0.1457
vn 0.6076 0.3556 0.7102
vn 0.5775 0.6582 0.4830
vn -0.3031 0.8726 0.3830
vn -0.2622 0.6652 0.6991
vn 0.6075 0.3556 0.7102
vn -0.1835 0.3623 0.9138
vn -0.8944 0.4398 0.0818
vn -0.9094 0.1915 0.3693
vn -0.1835 0.3622 0.9139
vn -0.7932 -0.0840 0.6032
vn -0.2026 0.4315 0.8790
vn -0.8277 -0.0261 0.5605
vn -0.2026 0.4315 0.8791
vn -0.1835 0.3622 0.9138
vn 0.9950 -0.0413 0.0913
vn 0.6086 0.4247 0.6703
vn -0.1315 -0.8659 -0.4827
vn 0.6656 -0.6157 -0.4218
vn -0.1142 -0.9030 -0.4141
vn -0.7961 -0.6035 -0.0455
vn 0.6086 0.4248 0.6702
vn 0.6086 0.4247 0.6702
vn 0.8295 0.4254 -0.3619
vn 0.4146 0.6695 -0.6163
vn 0.1889 0.9418 -0.2780
vn 0.2222 0.3340 -0.9160
vn 0.4146 0.6696 -0.6163
vn 0.8294 0.4254 -0.3620
vn 0.5180 -0.1178 -0.8473
vn -0.2434 0.1878 -0.9516
vn -0.2849 0.9457 -0.1561
vn -0.9067 0.1785 0.3822
vn -0.7961 -0.6034 -0.0455
vn -0.8739 -0.4195 -0.2455
vn 0.5809 0.6454 0.4959
vn -0.2592 0.6525 0.7121
vn 0.5809 0.6455 0.4959
vn 0.6086 0.4248 0.6703
vn 0.6401 -0.4322 -0.6352
vn 0.9812 0.1627 -0.1038
vn -0.8739 -0.4196 -0.2455
vn -0.1856 -0.6913 -0.6983
vn -0.2592 0.6524 0.7121
vn 0.5810 0.6454 0.4959
vn -0.1856 -0.6914 -0.6983
vn -0.1315 -0.8659 -0.4826
vt 0.543243 0.611839
vt 0.535370 0.618118
vt 0.537796 0.613083
vt 0.537796 0.623154
vt 0.547607 0.615326
vt 0.543243 0.624397
vt 0.547607 0.620918
vt 0.565384 0.671494
vt 0.570206 0.669548
vt 0.567856 0.672157
vt 0.564468 0.669609
vt 0.568146 0.666756
vt 0.564514 0.667854
vt 0.565857 0.666748
vt 0.562897 0.666855
vt 0.562302 0.669838
vt 0.559082 0.669685
vt 0.563492 0.673050
vt 0.560059 0.674789
vt 0.554092 0.669067
vt 0.554398 0.676537
vt 0.567307 0.675606
vt 0.564316 0.680244
vt 0.558044 0.684982
vt 0.575485 0.674767
vt 0.575272 0.686485
vt 0.565720 0.696274
vt 0.575485 0.658051
vt 0.568817 0.663902
vt 0.568115 0.659698
vt 0.574570 0.665543
vt 0.572052 0.651657
vt 0.565903 0.655174
vt 0.565063 0.664742
vt 0.563416 0.661980
vt 0.560669 0.658463
vt 0.560364 0.665283
vt 0.556488 0.662933
vt 0.552032 0.660286
vt 0.548294 0.668175
vt 0.563522 0.651588
vt 0.557617 0.654999
vt 0.551163 0.688484
vt 0.556610 0.699394
vt 0.547867 0.678001
vt 0.568756 0.648293
vt 0.604446 0.682632
vt 0.626221 0.687675
vt 0.604553 0.688225
vt 0.626144 0.682457
vt 0.604553 0.671455
vt 0.626144 0.677231
vt 0.604446 0.677048
vt 0.626221 0.672005
vt 0.605011 0.660294
vt 0.626404 0.666786
vt 0.604736 0.665871
vt 0.626663 0.661568
vt 0.626404 0.692902
vt 0.604736 0.693810
vt 0.626663 0.698120
vt 0.605011 0.699394
s 0
usemtl decorations
f 240/1/1 239/2/1 238/3/1
f 237/1/1 236/4/1 235/2/1
f 234/5/1 233/4/1 232/1/1
f 231/5/1 230/6/1 229/4/1
f 228/6/1 227/5/1 226/7/1
s 1
f 225/8/2 224/9/3 223/10/4
f 222/11/5 221/9/3 220/8/6
f 219/11/7 218/12/8 217/9/3
f 216/13/9 215/12/10 214/11/7
f 213/12/8 212/13/11 211/14/12
f 210/15/13 209/11/7 208/16/14
f 207/15/13 206/13/9 205/11/15
f 204/17/16 203/18/17 202/19/18
f 201/17/19 200/16/20 199/18/21
f 198/20/22 197/19/18 196/21/23
f 195/20/22 194/17/19 193/19/24
f 192/19/18 191/22/25 190/23/26
f 189/19/18 188/18/17 187/22/25
f 186/21/27 185/23/28 184/24/29
f 183/21/27 3/19/18 182/23/28
f 181/23/26 180/25/30 179/26/31
f 178/23/26 177/22/32 176/25/30
f 175/24/33 174/26/31 173/27/34
f 172/24/33 4/23/26 171/26/31
f 170/28/31 169/29/35 168/30/36
f 167/28/31 166/31/37 165/29/38
f 164/32/39 163/30/36 162/33/40
f 161/32/39 13/28/31 160/30/41
f 159/30/36 158/34/42 157/35/43
f 156/30/36 155/29/35 154/34/44
f 153/33/45 152/35/43 151/36/46
f 150/33/45 14/30/36 149/35/43
f 148/35/47 147/15/48 146/37/49
f 145/35/47 144/34/44 143/15/48
f 142/36/50 141/37/49 140/38/51
f 139/36/50 16/35/47 138/37/49
f 137/37/49 136/16/52 135/17/53
f 134/37/49 133/15/13 132/16/14
f 131/38/54 130/17/53 129/20/55
f 128/38/54 36/37/49 25/17/53
f 127/39/56 126/20/55 125/40/57
f 124/39/58 123/38/59 122/20/55
f 121/41/60 120/36/46 119/42/61
f 118/41/60 117/33/45 116/36/46
f 115/43/62 114/27/34 113/44/63
f 112/43/62 111/24/64 110/27/34
f 109/40/57 108/21/23 107/45/65
f 106/40/57 40/20/22 105/21/23
f 104/42/66 103/38/51 102/39/58
f 101/42/67 41/36/46 42/38/51
f 100/46/63 99/33/40 98/41/60
f 97/46/63 37/32/39 38/33/40
f 96/45/65 95/24/64 94/43/62
f 93/45/65 33/21/23 34/24/64
f 92/29/35 91/14/12 90/34/44
f 89/29/68 88/12/69 87/14/70
f 86/22/25 85/9/3 84/25/30
f 83/22/25 82/10/4 81/9/71
f 80/16/20 79/8/2 78/18/21
f 29/16/20 30/11/5 77/8/6
f 76/31/30 75/12/72 28/29/73
f 31/31/74 26/9/71 27/12/69
f 74/18/17 73/10/75 24/22/32
f 21/18/17 22/8/6 23/10/4
f 72/34/44 71/13/76 20/15/13
f 17/34/44 18/14/12 19/13/9
f 70/47/77 69/48/78 68/49/79
f 67/47/77 66/50/57 65/48/78
f 64/51/80 63/52/56 62/53/81
f 61/51/82 60/54/83 59/52/58
f 58/55/84 57/56/60 56/57/85
f 55/55/84 54/58/63 53/56/60
f 52/49/86 51/59/62 50/60/87
f 2/49/79 32/48/65 49/59/62
f 48/53/88 47/50/57 12/47/77
f 9/53/81 10/52/58 11/50/57
f 46/57/85 45/54/83 8/51/89
f 5/57/85 6/56/60 7/54/61
f 44/60/90 43/61/63 15/62/84
f 1/60/87 35/59/91 39/61/63
