# Blender 5.0.0
# www.blender.org
mtllib Circle_002_Circle_Dupli_255_decorations_0.mtl
o Circle.002|Circle|Dupli|255_decorations_0
v -4.244727 1.088539 0.441830
v -4.244349 1.088584 0.443186
v -4.248036 1.095423 0.444299
v -4.248576 1.095359 0.442365
v -4.242725 1.089560 0.440651
v -4.245014 1.094490 0.441211
v -4.244198 1.094768 0.442207
v -4.241852 1.089857 0.441715
v -4.242043 1.089641 0.443094
v -4.244377 1.094566 0.443495
v -4.245415 1.094037 0.444107
v -4.243155 1.089075 0.443748
v -4.247545 1.095978 0.440756
v -4.245720 1.096815 0.440683
v -4.244005 1.088973 0.440702
v -4.244474 1.097239 0.442202
v -4.245451 1.098380 0.442436
v -4.246427 1.098999 0.442688
v -4.246572 1.098835 0.443732
v -4.245673 1.098129 0.444037
v -4.248349 1.096902 0.444143
v -4.248319 1.098034 0.443802
v -4.248605 1.098000 0.442775
v -4.248788 1.096850 0.442569
v -4.246332 1.096123 0.445102
v -4.248058 1.098329 0.441920
v -4.247088 1.098774 0.441881
v -4.246464 1.098035 0.441200
v -4.246963 1.097471 0.444796
v -4.247414 1.098406 0.444228
v -4.247950 1.097354 0.441260
v -4.246531 1.093578 0.443581
v -4.247217 1.094193 0.443972
v -4.247684 1.094137 0.442297
v -4.246885 1.093536 0.442314
v -4.244747 1.096931 0.444168
v -4.246792 1.094673 0.440904
v -4.245212 1.095398 0.440841
v -4.246210 1.093942 0.441259
v -4.245742 1.094798 0.444666
v -4.244134 1.095765 0.442156
v -4.244370 1.095498 0.443858
v -4.246210 1.093942 0.441259
v -4.244727 1.088539 0.441830
v -4.244198 1.094768 0.442207
v -4.242725 1.089560 0.440651
v -4.245415 1.094037 0.444107
v -4.242043 1.089641 0.443094
v -4.246885 1.093536 0.442314
v -4.244727 1.088539 0.441830
v -4.246885 1.093536 0.442314
v -4.244349 1.088584 0.443186
v -4.245014 1.094490 0.441211
v -4.246210 1.093942 0.441259
v -4.244005 1.088973 0.440702
v -4.242725 1.089560 0.440651
v -4.245014 1.094490 0.441211
v -4.244005 1.088973 0.440702
v -4.244377 1.094566 0.443495
v -4.244198 1.094768 0.442207
v -4.241852 1.089857 0.441715
v -4.242043 1.089641 0.443094
v -4.244377 1.094566 0.443495
v -4.241852 1.089857 0.441715
v -4.246531 1.093578 0.443581
v -4.245415 1.094037 0.444107
v -4.243155 1.089075 0.443748
v -4.244349 1.088584 0.443186
v -4.246531 1.093578 0.443581
v -4.243155 1.089075 0.443748
v -4.246572 1.098835 0.443732
v -4.245451 1.098380 0.442436
v -4.248605 1.098000 0.442775
v -4.248349 1.096902 0.444143
v -4.247088 1.098774 0.441881
v -4.247950 1.097354 0.441260
v -4.248319 1.098034 0.443802
v -4.248349 1.096902 0.444143
v -4.248319 1.098034 0.443802
v -4.246963 1.097471 0.444796
v -4.248058 1.098329 0.441920
v -4.248605 1.098000 0.442775
v -4.248788 1.096850 0.442569
v -4.247950 1.097354 0.441260
v -4.248058 1.098329 0.441920
v -4.248788 1.096850 0.442569
v -4.246427 1.098999 0.442688
v -4.247088 1.098774 0.441881
v -4.246464 1.098035 0.441200
v -4.245451 1.098380 0.442436
v -4.246427 1.098999 0.442688
v -4.246464 1.098035 0.441200
v -4.246531 1.093578 0.443581
v -4.246885 1.093536 0.442314
v -4.247684 1.094137 0.442297
v -4.246531 1.093578 0.443581
v -4.246210 1.093942 0.441259
v -4.245014 1.094490 0.441211
v -4.245212 1.095398 0.440841
v -4.246210 1.093942 0.441259
v -4.244198 1.094768 0.442207
v -4.244377 1.094566 0.443495
v -4.244370 1.095498 0.443858
v -4.244198 1.094768 0.442207
v -4.247217 1.094193 0.443972
v -4.245415 1.094037 0.444107
v -4.246531 1.093578 0.443581
v -4.247217 1.094193 0.443972
v -4.245415 1.094037 0.444107
v -4.246792 1.094673 0.440904
v -4.247684 1.094137 0.442297
v -4.246885 1.093536 0.442314
v -4.246210 1.093942 0.441259
v -4.246792 1.094673 0.440904
v -4.246885 1.093536 0.442314
v -4.244134 1.095765 0.442156
v -4.245212 1.095398 0.440841
v -4.245014 1.094490 0.441211
v -4.244198 1.094768 0.442207
v -4.244134 1.095765 0.442156
v -4.245014 1.094490 0.441211
v -4.245742 1.094798 0.444666
v -4.244370 1.095498 0.443858
v -4.244377 1.094566 0.443495
v -4.245415 1.094037 0.444107
v -4.245742 1.094798 0.444666
v -4.244377 1.094566 0.443495
v -4.244370 1.095498 0.443858
v -4.245742 1.094798 0.444666
v -4.246332 1.096123 0.445102
v -4.244370 1.095498 0.443858
v -4.246963 1.097471 0.444796
v -4.245673 1.098129 0.444037
v -4.244747 1.096931 0.444168
v -4.246332 1.096123 0.445102
v -4.246963 1.097471 0.444796
v -4.244747 1.096931 0.444168
v -4.244747 1.096931 0.444168
v -4.244134 1.095765 0.442156
v -4.244370 1.095498 0.443858
v -4.244747 1.096931 0.444168
v -4.244134 1.095765 0.442156
v -4.245673 1.098129 0.444037
v -4.245451 1.098380 0.442436
v -4.244474 1.097239 0.442202
v -4.244747 1.096931 0.444168
v -4.245673 1.098129 0.444037
v -4.244474 1.097239 0.442202
v -4.244474 1.097239 0.442202
v -4.245212 1.095398 0.440841
v -4.244134 1.095765 0.442156
v -4.244474 1.097239 0.442202
v -4.245212 1.095398 0.440841
v -4.245451 1.098380 0.442436
v -4.246464 1.098035 0.441200
v -4.245720 1.096815 0.440683
v -4.244474 1.097239 0.442202
v -4.245451 1.098380 0.442436
v -4.245720 1.096815 0.440683
v -4.245720 1.096815 0.440683
v -4.246792 1.094673 0.440904
v -4.245212 1.095398 0.440841
v -4.245720 1.096815 0.440683
v -4.246792 1.094673 0.440904
v -4.246464 1.098035 0.441200
v -4.247950 1.097354 0.441260
v -4.247545 1.095978 0.440756
v -4.245720 1.096815 0.440683
v -4.246464 1.098035 0.441200
v -4.247545 1.095978 0.440756
v -4.247545 1.095978 0.440756
v -4.247684 1.094137 0.442297
v -4.246792 1.094673 0.440904
v -4.247545 1.095978 0.440756
v -4.247684 1.094137 0.442297
v -4.247950 1.097354 0.441260
v -4.248788 1.096850 0.442569
v -4.248576 1.095359 0.442365
v -4.247545 1.095978 0.440756
v -4.247950 1.097354 0.441260
v -4.248576 1.095359 0.442365
v -4.248576 1.095359 0.442365
v -4.247217 1.094193 0.443972
v -4.247684 1.094137 0.442297
v -4.248576 1.095359 0.442365
v -4.247217 1.094193 0.443972
v -4.248788 1.096850 0.442569
v -4.248349 1.096902 0.444143
v -4.248036 1.095423 0.444299
v -4.248576 1.095359 0.442365
v -4.248788 1.096850 0.442569
v -4.248036 1.095423 0.444299
v -4.248036 1.095423 0.444299
v -4.246332 1.096123 0.445102
v -4.245742 1.094798 0.444666
v -4.247217 1.094193 0.443972
v -4.248036 1.095423 0.444299
v -4.245742 1.094798 0.444666
v -4.248349 1.096902 0.444143
v -4.246963 1.097471 0.444796
v -4.246332 1.096123 0.445102
v -4.248036 1.095423 0.444299
v -4.248349 1.096902 0.444143
v -4.246332 1.096123 0.445102
v -4.247414 1.098406 0.444228
v -4.246572 1.098835 0.443732
v -4.245673 1.098129 0.444037
v -4.246963 1.097471 0.444796
v -4.247414 1.098406 0.444228
v -4.245673 1.098129 0.444037
v -4.246427 1.098999 0.442688
v -4.246572 1.098835 0.443732
v -4.247088 1.098774 0.441881
v -4.247414 1.098406 0.444228
v -4.247088 1.098774 0.441881
v -4.246572 1.098835 0.443732
v -4.248058 1.098329 0.441920
v -4.247088 1.098774 0.441881
v -4.247414 1.098406 0.444228
v -4.248319 1.098034 0.443802
v -4.248058 1.098329 0.441920
v -4.247414 1.098406 0.444228
v -4.248605 1.098000 0.442775
v -4.248058 1.098329 0.441920
v -4.248319 1.098034 0.443802
v -4.241852 1.089857 0.441715
v -4.242725 1.089560 0.440651
v -4.242043 1.089641 0.443094
v -4.243155 1.089075 0.443748
v -4.242043 1.089641 0.443094
v -4.242725 1.089560 0.440651
v -4.244005 1.088973 0.440702
v -4.243155 1.089075 0.443748
v -4.242725 1.089560 0.440651
v -4.244349 1.088584 0.443186
v -4.243155 1.089075 0.443748
v -4.244005 1.088973 0.440702
v -4.244727 1.088539 0.441830
v -4.244349 1.088584 0.443186
v -4.244005 1.088973 0.440702
vn 0.4125 -0.9070 -0.0850
vn -0.7172 0.5435 0.4362
vn -0.5975 0.6788 -0.4269
vn -0.8486 0.5279 -0.0348
vn -0.3021 0.7140 0.6316
vn -0.5976 0.6788 -0.4268
vn -0.7171 0.5435 0.4362
vn -0.3022 0.7139 0.6316
vn -0.1531 0.8826 -0.4446
vn 0.0838 0.9108 0.4043
vn -0.1530 0.8826 -0.4446
vn 0.1502 0.9858 -0.0747
vn 0.5189 0.6320 0.5756
vn -0.3022 0.7140 0.6316
vn -0.1060 0.3134 0.9437
vn 0.0838 0.9108 0.4042
vn 0.0526 -0.0279 0.9982
vn -0.7779 0.0375 0.6273
vn -0.6828 -0.3299 0.6519
vn -0.7778 0.0375 0.6273
vn 0.2034 -0.3646 0.9087
vn -0.4894 -0.6491 0.5824
vn -0.6828 -0.3298 0.6519
vn -0.9907 0.0122 -0.1353
vn -0.9158 -0.3576 -0.1828
vn -0.7089 -0.6752 -0.2039
vn -0.9158 -0.3576 -0.1829
vn -0.5843 0.2564 -0.7700
vn -0.4709 -0.0903 -0.8775
vn -0.9907 0.0121 -0.1353
vn -0.5844 0.2564 -0.7699
vn -0.7088 -0.6752 -0.2040
vn -0.4709 -0.0903 -0.8776
vn -0.2898 -0.4233 -0.8584
vn 0.1353 0.5863 -0.7987
vn 0.3168 0.2709 -0.9090
vn 0.1353 0.5864 -0.7987
vn -0.2897 -0.4233 -0.8584
vn 0.4522 -0.0831 -0.8880
vn 0.3167 0.2709 -0.9090
vn 0.6262 0.7536 -0.1999
vn 0.8542 0.4539 -0.2535
vn 0.6263 0.7536 -0.1999
vn 0.4523 -0.0831 -0.8880
vn 0.9586 0.0893 -0.2705
vn 0.8543 0.4539 -0.2535
vn 0.7366 0.3209 0.5953
vn 0.6263 0.7535 -0.1999
vn 0.5189 0.6321 0.5755
vn 0.8478 -0.0359 0.5291
vn 0.7366 0.3210 0.5953
vn 0.8478 -0.0360 0.5291
vn 0.7367 0.3209 0.5953
vn 0.8344 0.0400 0.5498
vn 0.2034 -0.3645 0.9087
vn 0.1736 -0.2970 0.9390
vn 0.4288 -0.0083 -0.9034
vn 0.9480 0.1684 -0.2702
vn -0.7618 -0.6155 -0.2020
vn -0.3321 -0.3572 -0.8730
vn -0.7618 -0.6155 -0.2019
vn -0.7089 -0.6752 -0.2040
vn 0.1736 -0.2969 0.9390
vn -0.4894 -0.6490 0.5825
vn -0.5367 -0.5887 0.6045
vn 0.2035 -0.3646 0.9087
vn 0.9480 0.1685 -0.2702
vn 0.8344 0.0400 0.5497
vn 0.4288 -0.0083 -0.9033
vn -0.5368 -0.5887 0.6044
vn 0.1354 0.5864 -0.7987
vn 0.1354 0.5863 -0.7987
vn -0.1531 0.8826 -0.4445
vn 0.1502 0.9858 -0.0746
vn -0.9907 0.0122 -0.1354
vn -0.1061 0.3133 0.9437
vn -0.3021 0.7140 0.6317
vn -0.7171 0.5436 0.4362
vn -0.5843 0.2564 -0.7699
vn -0.7779 0.0374 0.6273
vn 0.6263 0.7536 -0.1998
vn 0.5189 0.6321 0.5756
vn 0.0603 -0.0447 0.9972
vn -0.5368 -0.5886 0.6045
vn -0.6755 -0.3468 0.6507
vn 0.0602 -0.0447 0.9972
vn 0.1737 -0.2970 0.9390
vn 0.8623 0.4374 -0.2552
vn 0.7447 0.3043 0.5940
vn -0.4635 -0.1071 -0.8796
vn 0.3245 0.2543 -0.9111
vn -0.4635 -0.1070 -0.8796
vn -0.7619 -0.6155 -0.2019
vn -0.9086 -0.3746 -0.1845
vn -0.5367 -0.5887 0.6044
vn 0.7446 0.3044 0.5940
vn 0.3246 0.2543 -0.9110
vn -0.9087 -0.3746 -0.1845
vt 0.543243 0.611839
vt 0.535370 0.618118
vt 0.537796 0.613083
vt 0.537796 0.623154
vt 0.547607 0.615326
vt 0.543243 0.624397
vt 0.547607 0.620918
vt 0.565384 0.671494
vt 0.570206 0.669548
vt 0.567856 0.672157
vt 0.564468 0.669609
vt 0.568146 0.666756
vt 0.564514 0.667854
vt 0.565857 0.666748
vt 0.562897 0.666855
vt 0.562302 0.669838
vt 0.559082 0.669685
vt 0.563492 0.673050
vt 0.560059 0.674789
vt 0.554092 0.669067
vt 0.554398 0.676537
vt 0.567307 0.675606
vt 0.564316 0.680244
vt 0.558044 0.684982
vt 0.575485 0.674767
vt 0.575272 0.686485
vt 0.565720 0.696274
vt 0.575485 0.658051
vt 0.568817 0.663902
vt 0.568115 0.659698
vt 0.574570 0.665543
vt 0.572052 0.651657
vt 0.565903 0.655174
vt 0.565063 0.664742
vt 0.563416 0.661980
vt 0.560669 0.658463
vt 0.560364 0.665283
vt 0.556488 0.662933
vt 0.552032 0.660286
vt 0.548294 0.668175
vt 0.563522 0.651588
vt 0.557617 0.654999
vt 0.551163 0.688484
vt 0.556610 0.699394
vt 0.547867 0.678001
vt 0.568756 0.648293
vt 0.604446 0.682632
vt 0.626221 0.687675
vt 0.604553 0.688225
vt 0.626144 0.682457
vt 0.604553 0.671455
vt 0.626144 0.677231
vt 0.604446 0.677048
vt 0.626221 0.672005
vt 0.605011 0.660294
vt 0.626404 0.666786
vt 0.604736 0.665871
vt 0.626663 0.661568
vt 0.626404 0.692902
vt 0.604736 0.693810
vt 0.626663 0.698120
vt 0.605011 0.699394
s 0
usemtl decorations
f 240/1/1 239/2/1 238/3/1
f 237/1/1 236/4/1 235/2/1
f 234/5/1 233/4/1 232/1/1
f 231/5/1 230/6/1 229/4/1
f 228/6/1 227/5/1 226/7/1
s 1
f 225/8/2 224/9/3 223/10/4
f 222/11/5 221/9/6 220/8/7
f 219/11/8 218/12/9 217/9/3
f 216/13/10 215/12/9 214/11/8
f 213/12/11 212/13/10 211/14/12
f 210/15/13 209/11/14 208/16/15
f 207/15/13 206/13/16 205/11/14
f 204/17/17 203/18/18 202/19/19
f 201/17/17 200/16/15 199/18/20
f 198/20/21 197/19/19 196/21/22
f 195/20/21 194/17/17 193/19/23
f 192/19/19 191/22/24 190/23/25
f 189/19/19 188/18/18 187/22/24
f 186/21/22 185/23/25 184/24/26
f 183/21/22 3/19/19 182/23/25
f 181/23/27 180/25/28 179/26/29
f 178/23/25 177/22/30 176/25/31
f 175/24/32 174/26/33 173/27/34
f 172/24/32 4/23/27 171/26/33
f 170/28/33 169/29/35 168/30/36
f 167/28/33 166/31/28 165/29/37
f 164/32/38 163/30/36 162/33/39
f 161/32/38 13/28/33 160/30/40
f 159/30/36 158/34/41 157/35/42
f 156/30/36 155/29/35 154/34/43
f 153/33/44 152/35/42 151/36/45
f 150/33/44 14/30/36 149/35/42
f 148/35/46 147/15/13 146/37/47
f 145/35/42 144/34/48 143/15/49
f 142/36/45 141/37/47 140/38/50
f 139/36/45 16/35/42 138/37/47
f 137/37/47 136/16/15 135/17/17
f 134/37/51 133/15/13 132/16/15
f 131/38/52 130/17/17 129/20/21
f 128/38/52 36/37/53 25/17/17
f 127/39/54 126/20/55 125/40/56
f 124/39/54 123/38/52 122/20/55
f 121/41/57 120/36/45 119/42/58
f 118/41/57 117/33/44 116/36/45
f 115/43/59 114/27/34 113/44/60
f 112/43/61 111/24/62 110/27/34
f 109/40/63 108/21/64 107/45/65
f 106/40/63 40/20/66 105/21/64
f 104/42/67 103/38/50 102/39/68
f 101/42/67 41/36/45 42/38/50
f 100/46/60 99/33/39 98/41/69
f 97/46/60 37/32/38 38/33/39
f 96/45/70 95/24/62 94/43/59
f 93/45/70 33/21/22 34/24/62
f 92/29/71 91/14/12 90/34/43
f 89/29/72 88/12/73 87/14/74
f 86/22/24 85/9/6 84/25/31
f 83/22/75 82/10/4 81/9/6
f 80/16/76 79/8/7 78/18/20
f 29/16/76 30/11/77 77/8/78
f 76/31/79 75/12/9 28/29/37
f 31/31/28 26/9/6 27/12/73
f 74/18/80 73/10/4 24/22/30
f 21/18/80 22/8/78 23/10/4
f 72/34/81 71/13/10 20/15/82
f 17/34/81 18/14/12 19/13/16
f 70/47/83 69/48/84 68/49/85
f 67/47/86 66/50/87 65/48/65
f 64/51/88 63/52/54 62/53/89
f 61/51/88 60/54/67 59/52/68
f 58/55/90 57/56/69 56/57/91
f 55/55/92 54/58/60 53/56/69
f 52/49/85 51/59/93 50/60/94
f 2/49/85 32/48/95 49/59/61
f 48/53/89 47/50/56 12/47/83
f 9/53/96 10/52/68 11/50/56
f 46/57/97 45/54/67 8/51/88
f 5/57/97 6/56/69 7/54/58
f 44/60/94 43/61/60 15/62/90
f 1/60/98 35/59/61 39/61/60
