# Blender 5.0.0
# www.blender.org
mtllib Circle_005_Circle_Dupli_139_decorations_0.mtl
o Circle.005|Circle|Dupli|139_decorations_0
v -4.629402 1.671081 0.533331
v -4.629900 1.670108 0.532443
v -4.633044 1.675560 0.527754
v -4.632333 1.676949 0.529021
v -4.631225 1.671227 0.535089
v -4.633680 1.675089 0.532103
v -4.634567 1.674213 0.531679
v -4.632174 1.670290 0.534636
v -4.632123 1.669474 0.533490
v -4.634520 1.673450 0.530607
v -4.633573 1.673374 0.529695
v -4.631111 1.669392 0.532514
v -4.633175 1.677660 0.530701
v -4.634935 1.677158 0.531530
v -4.629992 1.671579 0.534509
v -4.636289 1.675821 0.530883
v -4.636597 1.676907 0.529865
v -4.636509 1.677677 0.528972
v -4.636470 1.677058 0.528103
v -4.636538 1.675959 0.528535
v -4.633957 1.676695 0.527319
v -4.634786 1.677539 0.527310
v -4.634408 1.678276 0.527983
v -4.633379 1.677825 0.528350
v -4.634772 1.674540 0.527855
v -4.634855 1.678654 0.528875
v -4.635790 1.678387 0.529315
v -4.635496 1.677995 0.530392
v -4.635363 1.675865 0.527402
v -4.635704 1.676997 0.527364
v -4.634063 1.678403 0.529718
v -4.632441 1.674042 0.529629
v -4.632553 1.674565 0.528784
v -4.631938 1.675767 0.529880
v -4.631975 1.674952 0.530459
v -4.636216 1.674656 0.529247
v -4.632667 1.676382 0.531335
v -4.634190 1.675948 0.532052
v -4.632527 1.675418 0.531560
v -4.634049 1.673682 0.528871
v -4.635361 1.674791 0.531492
v -4.635299 1.673782 0.530076
v -4.632527 1.675418 0.531560
v -4.629402 1.671081 0.533331
v -4.634567 1.674213 0.531679
v -4.631225 1.671227 0.535089
v -4.633573 1.673374 0.529695
v -4.632123 1.669474 0.533490
v -4.631975 1.674952 0.530459
v -4.629402 1.671081 0.533331
v -4.631975 1.674952 0.530459
v -4.629900 1.670108 0.532443
v -4.633680 1.675089 0.532103
v -4.632527 1.675418 0.531560
v -4.629992 1.671579 0.534509
v -4.631225 1.671227 0.535089
v -4.633680 1.675089 0.532103
v -4.629992 1.671579 0.534509
v -4.634520 1.673450 0.530607
v -4.634567 1.674213 0.531679
v -4.632174 1.670290 0.534636
v -4.632123 1.669474 0.533490
v -4.634520 1.673450 0.530607
v -4.632174 1.670290 0.534636
v -4.632441 1.674042 0.529629
v -4.633573 1.673374 0.529695
v -4.631111 1.669392 0.532514
v -4.629900 1.670108 0.532443
v -4.632441 1.674042 0.529629
v -4.631111 1.669392 0.532514
v -4.636470 1.677058 0.528103
v -4.636597 1.676907 0.529865
v -4.634408 1.678276 0.527983
v -4.633957 1.676695 0.527319
v -4.635790 1.678387 0.529315
v -4.634063 1.678403 0.529718
v -4.634786 1.677539 0.527310
v -4.633957 1.676695 0.527319
v -4.634786 1.677539 0.527310
v -4.635363 1.675865 0.527402
v -4.634855 1.678654 0.528875
v -4.634408 1.678276 0.527983
v -4.633379 1.677825 0.528350
v -4.634063 1.678403 0.529718
v -4.634855 1.678654 0.528875
v -4.633379 1.677825 0.528350
v -4.636509 1.677677 0.528972
v -4.635790 1.678387 0.529315
v -4.635496 1.677995 0.530392
v -4.636597 1.676907 0.529865
v -4.636509 1.677677 0.528972
v -4.635496 1.677995 0.530392
v -4.632441 1.674042 0.529629
v -4.631975 1.674952 0.530459
v -4.631938 1.675767 0.529880
v -4.632441 1.674042 0.529629
v -4.632527 1.675418 0.531560
v -4.633680 1.675089 0.532103
v -4.634190 1.675948 0.532052
v -4.632527 1.675418 0.531560
v -4.634567 1.674213 0.531679
v -4.634520 1.673450 0.530607
v -4.635299 1.673782 0.530076
v -4.634567 1.674213 0.531679
v -4.632553 1.674565 0.528784
v -4.633573 1.673374 0.529695
v -4.632441 1.674042 0.529629
v -4.632553 1.674565 0.528784
v -4.633573 1.673374 0.529695
v -4.632667 1.676382 0.531335
v -4.631938 1.675767 0.529880
v -4.631975 1.674952 0.530459
v -4.632527 1.675418 0.531560
v -4.632667 1.676382 0.531335
v -4.631975 1.674952 0.530459
v -4.635361 1.674791 0.531492
v -4.634190 1.675948 0.532052
v -4.633680 1.675089 0.532103
v -4.634567 1.674213 0.531679
v -4.635361 1.674791 0.531492
v -4.633680 1.675089 0.532103
v -4.634049 1.673682 0.528871
v -4.635299 1.673782 0.530076
v -4.634520 1.673450 0.530607
v -4.633573 1.673374 0.529695
v -4.634049 1.673682 0.528871
v -4.634520 1.673450 0.530607
v -4.635299 1.673782 0.530076
v -4.634049 1.673682 0.528871
v -4.634772 1.674540 0.527855
v -4.635299 1.673782 0.530076
v -4.635363 1.675865 0.527402
v -4.636538 1.675959 0.528535
v -4.636216 1.674656 0.529247
v -4.634772 1.674540 0.527855
v -4.635363 1.675865 0.527402
v -4.636216 1.674656 0.529247
v -4.636216 1.674656 0.529247
v -4.635361 1.674791 0.531492
v -4.635299 1.673782 0.530076
v -4.636216 1.674656 0.529247
v -4.635361 1.674791 0.531492
v -4.636538 1.675959 0.528535
v -4.636597 1.676907 0.529865
v -4.636289 1.675821 0.530883
v -4.636216 1.674656 0.529247
v -4.636538 1.675959 0.528535
v -4.636289 1.675821 0.530883
v -4.636289 1.675821 0.530883
v -4.634190 1.675948 0.532052
v -4.635361 1.674791 0.531492
v -4.636289 1.675821 0.530883
v -4.634190 1.675948 0.532052
v -4.636597 1.676907 0.529865
v -4.635496 1.677995 0.530392
v -4.634935 1.677158 0.531530
v -4.636289 1.675821 0.530883
v -4.636597 1.676907 0.529865
v -4.634935 1.677158 0.531530
v -4.634935 1.677158 0.531530
v -4.632667 1.676382 0.531335
v -4.634190 1.675948 0.532052
v -4.634935 1.677158 0.531530
v -4.632667 1.676382 0.531335
v -4.635496 1.677995 0.530392
v -4.634063 1.678403 0.529718
v -4.633175 1.677660 0.530701
v -4.634935 1.677158 0.531530
v -4.635496 1.677995 0.530392
v -4.633175 1.677660 0.530701
v -4.633175 1.677660 0.530701
v -4.631938 1.675767 0.529880
v -4.632667 1.676382 0.531335
v -4.633175 1.677660 0.530701
v -4.631938 1.675767 0.529880
v -4.634063 1.678403 0.529718
v -4.633379 1.677825 0.528350
v -4.632333 1.676949 0.529021
v -4.633175 1.677660 0.530701
v -4.634063 1.678403 0.529718
v -4.632333 1.676949 0.529021
v -4.632333 1.676949 0.529021
v -4.632553 1.674565 0.528784
v -4.631938 1.675767 0.529880
v -4.632333 1.676949 0.529021
v -4.632553 1.674565 0.528784
v -4.633379 1.677825 0.528350
v -4.633957 1.676695 0.527319
v -4.633044 1.675560 0.527754
v -4.632333 1.676949 0.529021
v -4.633379 1.677825 0.528350
v -4.633044 1.675560 0.527754
v -4.633044 1.675560 0.527754
v -4.634772 1.674540 0.527855
v -4.634049 1.673682 0.528871
v -4.632553 1.674565 0.528784
v -4.633044 1.675560 0.527754
v -4.634049 1.673682 0.528871
v -4.633957 1.676695 0.527319
v -4.635363 1.675865 0.527402
v -4.634772 1.674540 0.527855
v -4.633044 1.675560 0.527754
v -4.633957 1.676695 0.527319
v -4.634772 1.674540 0.527855
v -4.635704 1.676997 0.527364
v -4.636470 1.677058 0.528103
v -4.636538 1.675959 0.528535
v -4.635363 1.675865 0.527402
v -4.635704 1.676997 0.527364
v -4.636538 1.675959 0.528535
v -4.636509 1.677677 0.528972
v -4.636470 1.677058 0.528103
v -4.635790 1.678387 0.529315
v -4.635704 1.676997 0.527364
v -4.635790 1.678387 0.529315
v -4.636470 1.677058 0.528103
v -4.634855 1.678654 0.528875
v -4.635790 1.678387 0.529315
v -4.635704 1.676997 0.527364
v -4.634786 1.677539 0.527310
v -4.634855 1.678654 0.528875
v -4.635704 1.676997 0.527364
v -4.634408 1.678276 0.527983
v -4.634855 1.678654 0.528875
v -4.634786 1.677539 0.527310
v -4.632174 1.670290 0.534636
v -4.631225 1.671227 0.535089
v -4.632123 1.669474 0.533490
v -4.631111 1.669392 0.532514
v -4.632123 1.669474 0.533490
v -4.631225 1.671227 0.535089
v -4.629992 1.671579 0.534509
v -4.631111 1.669392 0.532514
v -4.631225 1.671227 0.535089
v -4.629900 1.670108 0.532443
v -4.631111 1.669392 0.532514
v -4.629992 1.671579 0.534509
v -4.629402 1.671081 0.533331
v -4.629900 1.670108 0.532443
v -4.629992 1.671579 0.534509
vn 0.4538 -0.7161 0.5303
vn -0.0458 0.4724 -0.8802
vn -0.0777 0.9836 -0.1625
vn 0.1273 0.8105 -0.5718
vn -0.4667 0.2239 -0.8556
vn -0.0459 0.4724 -0.8802
vn -0.4666 0.2239 -0.8557
vn -0.5064 0.8614 0.0393
vn -0.8183 0.2521 -0.5165
vn -0.4666 0.2239 -0.8556
vn -0.8183 0.2521 -0.5166
vn -0.8360 0.5358 -0.1183
vn -0.9032 -0.2570 -0.3437
vn -0.3340 -0.3027 -0.8927
vn -0.8183 0.2522 -0.5165
vn -0.1799 -0.6242 -0.7602
vn 0.3473 0.0996 -0.9324
vn 0.5658 -0.1838 -0.8038
vn -0.1800 -0.6242 -0.7603
vn -0.3339 -0.3027 -0.8927
vn -0.0002 -0.8551 -0.5184
vn 0.7023 -0.4403 -0.5594
vn -0.1799 -0.6242 -0.7603
vn 0.6276 0.6470 -0.4331
vn 0.8725 0.4154 -0.2572
vn 0.3474 0.0996 -0.9324
vn 0.9913 0.1242 -0.0445
vn 0.2958 0.9273 0.2295
vn 0.5093 0.7222 0.4680
vn 0.6276 0.6470 -0.4330
vn 0.2958 0.9273 0.2294
vn 0.9913 0.1242 -0.0444
vn 0.6491 0.4132 0.6387
vn 0.5093 0.7221 0.4681
vn -0.3982 0.7294 0.5562
vn -0.2503 0.5056 0.8257
vn 0.5093 0.7222 0.4681
vn -0.2503 0.5055 0.8257
vn -0.0666 0.2092 0.9756
vn -0.2503 0.5056 0.8256
vn -0.9319 0.2024 0.3011
vn -0.8344 -0.0714 0.5465
vn -0.3983 0.7294 0.5562
vn -0.0665 0.2091 0.9756
vn -0.6168 -0.3343 0.7126
vn -0.0666 0.2091 0.9756
vn -0.8031 -0.5742 -0.1593
vn -0.8344 -0.0714 0.5464
vn -0.9319 0.2023 0.3011
vn -0.9033 -0.2569 -0.3437
vn -0.6168 -0.3344 0.7126
vn -0.5873 -0.8079 0.0477
vn -0.8031 -0.5742 -0.1594
vn -0.8031 -0.5741 -0.1594
vn -0.5872 -0.8080 0.0477
vn -0.5873 -0.8080 0.0477
vn -0.8031 -0.5741 -0.1593
vn -0.6407 -0.7678 0.0039
vn -0.0003 -0.8551 -0.5184
vn -0.0387 -0.8162 -0.5765
vn -0.6406 -0.7678 0.0039
vn -0.1067 0.2752 0.9554
vn -0.6709 -0.2821 0.6857
vn -0.1067 0.2752 0.9555
vn 0.9780 0.1881 -0.0905
vn 0.6271 0.4844 0.6100
vn 0.9780 0.1880 -0.0905
vn -0.0387 -0.8161 -0.5766
vn 0.6817 -0.3908 -0.6186
vn -0.0002 -0.8552 -0.5184
vn -0.6710 -0.2821 0.6857
vn -0.0665 0.2092 0.9756
vn -0.1067 0.2751 0.9555
vn 0.6817 -0.3907 -0.6186
vn -0.8360 0.5359 -0.1183
vn 0.6275 0.6470 -0.4330
vn 0.2957 0.9273 0.2294
vn 0.2957 0.9273 0.2295
vn 0.1273 0.8105 -0.5717
vn -0.1716 -0.6378 -0.7509
vn 0.6816 -0.3908 -0.6186
vn 0.5745 -0.1972 -0.7944
vn -0.1716 -0.6377 -0.7509
vn -0.8265 -0.0847 0.5565
vn -0.7951 -0.5877 -0.1496
vn 0.5180 0.7093 0.4781
vn -0.1068 0.2752 0.9555
vn -0.2420 0.4926 0.8359
vn 0.5179 0.7093 0.4781
vn 0.9780 0.1881 -0.0906
vn 0.8814 0.4023 -0.2475
vn 0.5745 -0.1971 -0.7944
vn 0.9780 0.1880 -0.0906
vn -0.1717 -0.6378 -0.7508
vn -0.7951 -0.5877 -0.1497
vn -0.2421 0.4926 0.8359
vt 0.543243 0.611839
vt 0.535370 0.618118
vt 0.537796 0.613083
vt 0.537796 0.623154
vt 0.547607 0.615326
vt 0.543243 0.624397
vt 0.547607 0.620918
vt 0.565384 0.671494
vt 0.570206 0.669548
vt 0.567856 0.672157
vt 0.564468 0.669609
vt 0.568146 0.666756
vt 0.564514 0.667854
vt 0.565857 0.666748
vt 0.562897 0.666855
vt 0.562302 0.669838
vt 0.559082 0.669685
vt 0.563492 0.673050
vt 0.560059 0.674789
vt 0.554092 0.669067
vt 0.554398 0.676537
vt 0.567307 0.675606
vt 0.564316 0.680244
vt 0.558044 0.684982
vt 0.575485 0.674767
vt 0.575272 0.686485
vt 0.565720 0.696274
vt 0.575485 0.658051
vt 0.568817 0.663902
vt 0.568115 0.659698
vt 0.574570 0.665543
vt 0.572052 0.651657
vt 0.565903 0.655174
vt 0.565063 0.664742
vt 0.563416 0.661980
vt 0.560669 0.658463
vt 0.560364 0.665283
vt 0.556488 0.662933
vt 0.552032 0.660286
vt 0.548294 0.668175
vt 0.563522 0.651588
vt 0.557617 0.654999
vt 0.551163 0.688484
vt 0.556610 0.699394
vt 0.547867 0.678001
vt 0.568756 0.648293
vt 0.604446 0.682632
vt 0.626221 0.687675
vt 0.604553 0.688225
vt 0.626144 0.682457
vt 0.604553 0.671455
vt 0.626144 0.677231
vt 0.604446 0.677048
vt 0.626221 0.672005
vt 0.605011 0.660294
vt 0.626404 0.666786
vt 0.604736 0.665871
vt 0.626663 0.661568
vt 0.626404 0.692902
vt 0.604736 0.693810
vt 0.626663 0.698120
vt 0.605011 0.699394
s 0
usemtl decorations
f 240/1/1 239/2/1 238/3/1
f 237/1/1 236/4/1 235/2/1
f 234/5/1 233/4/1 232/1/1
f 231/5/1 230/6/1 229/4/1
f 228/6/1 227/5/1 226/7/1
s 1
f 225/8/2 224/9/3 223/10/4
f 222/11/5 221/9/3 220/8/6
f 219/11/7 218/12/8 217/9/3
f 216/13/9 215/12/8 214/11/10
f 213/12/8 212/13/11 211/14/12
f 210/15/13 209/11/10 208/16/14
f 207/15/13 206/13/15 205/11/5
f 204/17/16 203/18/17 202/19/18
f 201/17/19 200/16/20 199/18/17
f 198/20/21 197/19/18 196/21/22
f 195/20/21 194/17/23 193/19/18
f 192/19/18 191/22/24 190/23/25
f 189/19/18 188/18/26 187/22/24
f 186/21/22 185/23/25 184/24/27
f 183/21/22 3/19/18 182/23/25
f 181/23/25 180/25/28 179/26/29
f 178/23/25 177/22/30 176/25/31
f 175/24/32 174/26/29 173/27/33
f 172/24/32 4/23/25 171/26/29
f 170/28/34 169/29/35 168/30/36
f 167/28/37 166/31/28 165/29/35
f 164/32/33 163/30/38 162/33/39
f 161/32/33 13/28/37 160/30/40
f 159/30/36 158/34/41 157/35/42
f 156/30/36 155/29/43 154/34/41
f 153/33/44 152/35/42 151/36/45
f 150/33/46 14/30/36 149/35/42
f 148/35/42 147/15/13 146/37/47
f 145/35/48 144/34/49 143/15/50
f 142/36/51 141/37/47 140/38/52
f 139/36/51 16/35/42 138/37/47
f 137/37/53 136/16/20 135/17/23
f 134/37/54 133/15/13 132/16/14
f 131/38/55 130/17/23 129/20/21
f 128/38/56 36/37/57 25/17/23
f 127/39/58 126/20/59 125/40/60
f 124/39/61 123/38/56 122/20/59
f 121/41/62 120/36/45 119/42/63
f 118/41/64 117/33/44 116/36/45
f 115/43/65 114/27/33 113/44/66
f 112/43/67 111/24/27 110/27/33
f 109/40/68 108/21/22 107/45/69
f 106/40/60 40/20/70 105/21/22
f 104/42/71 103/38/56 102/39/58
f 101/42/63 41/36/45 42/38/56
f 100/46/66 99/33/72 98/41/73
f 97/46/66 37/32/33 38/33/72
f 96/45/74 95/24/27 94/43/67
f 93/45/69 33/21/22 34/24/27
f 92/29/43 91/14/75 90/34/41
f 89/29/43 88/12/8 87/14/12
f 86/22/76 85/9/3 84/25/31
f 83/22/30 82/10/4 81/9/3
f 80/16/20 79/8/2 78/18/17
f 29/16/20 30/11/5 77/8/6
f 76/31/77 75/12/8 28/29/35
f 31/31/78 26/9/3 27/12/8
f 74/18/26 73/10/79 24/22/24
f 21/18/26 22/8/6 23/10/4
f 72/34/41 71/13/11 20/15/13
f 17/34/41 18/14/12 19/13/15
f 70/47/80 69/48/81 68/49/82
f 67/47/83 66/50/60 65/48/81
f 64/51/84 63/52/58 62/53/85
f 61/51/84 60/54/71 59/52/58
f 58/55/86 57/56/87 56/57/88
f 55/55/89 54/58/66 53/56/73
f 52/49/82 51/59/90 50/60/91
f 2/49/92 32/48/69 49/59/93
f 48/53/85 47/50/68 12/47/94
f 9/53/95 10/52/58 11/50/60
f 46/57/96 45/54/71 8/51/84
f 5/57/96 6/56/64 7/54/63
f 44/60/91 43/61/66 15/62/86
f 1/60/91 35/59/67 39/61/66
