# Blender 5.0.0
# www.blender.org
mtllib Circle_005_Circle_001_Dupli_130_decorations_0.mtl
o Circle.005|Circle.001|Dupli|130_decorations_0
v -4.406750 2.053671 0.690639
v -4.407123 2.052932 0.691778
v -4.404761 2.058637 0.696624
v -4.404229 2.059692 0.694999
v -4.404410 2.052816 0.690152
v -4.402399 2.056698 0.693431
v -4.402207 2.055809 0.694383
v -4.404206 2.051866 0.691170
v -4.405083 2.051484 0.692204
v -4.403027 2.055452 0.695350
v -4.404241 2.055896 0.695602
v -4.406381 2.051959 0.692475
v -4.402506 2.059618 0.693966
v -4.400891 2.058472 0.694304
v -4.405543 2.053620 0.689915
v -4.400599 2.057116 0.695758
v -4.400423 2.058355 0.696619
v -4.400625 2.059362 0.697207
v -4.401289 2.059073 0.697990
v -4.401441 2.057912 0.697820
v -4.403809 2.059593 0.697325
v -4.402835 2.060170 0.697667
v -4.402552 2.060730 0.696804
v -4.403376 2.060451 0.696002
v -4.403702 2.057248 0.697618
v -4.401638 2.060691 0.696255
v -4.400780 2.060082 0.696435
v -4.400661 2.059458 0.695436
v -4.402948 2.058463 0.698134
v -4.402273 2.059432 0.698195
v -4.401975 2.060391 0.695162
v -4.404934 2.056806 0.694951
v -4.405044 2.057521 0.695640
v -4.404583 2.058434 0.694234
v -4.404585 2.057497 0.693886
v -4.401850 2.056571 0.697233
v -4.403093 2.058370 0.693340
v -4.401695 2.057378 0.693632
v -4.403457 2.057449 0.693209
v -4.404128 2.056319 0.696501
v -4.401442 2.056205 0.694890
v -4.402525 2.055733 0.696167
v -4.403457 2.057449 0.693209
v -4.406750 2.053671 0.690639
v -4.402207 2.055809 0.694383
v -4.404410 2.052816 0.690152
v -4.404241 2.055896 0.695602
v -4.405083 2.051484 0.692204
v -4.404585 2.057497 0.693886
v -4.406750 2.053671 0.690639
v -4.404585 2.057497 0.693886
v -4.407123 2.052932 0.691778
v -4.402399 2.056698 0.693431
v -4.403457 2.057449 0.693209
v -4.405543 2.053620 0.689915
v -4.404410 2.052816 0.690152
v -4.402399 2.056698 0.693431
v -4.405543 2.053620 0.689915
v -4.403027 2.055452 0.695350
v -4.402207 2.055809 0.694383
v -4.404206 2.051866 0.691170
v -4.405083 2.051484 0.692204
v -4.403027 2.055452 0.695350
v -4.404206 2.051866 0.691170
v -4.404934 2.056806 0.694951
v -4.404241 2.055896 0.695602
v -4.406381 2.051959 0.692475
v -4.407123 2.052932 0.691778
v -4.404934 2.056806 0.694951
v -4.406381 2.051959 0.692475
v -4.401289 2.059073 0.697990
v -4.400423 2.058355 0.696619
v -4.402552 2.060730 0.696804
v -4.403809 2.059593 0.697325
v -4.400780 2.060082 0.696435
v -4.401975 2.060391 0.695162
v -4.402835 2.060170 0.697667
v -4.403809 2.059593 0.697325
v -4.402835 2.060170 0.697667
v -4.402948 2.058463 0.698134
v -4.401638 2.060691 0.696255
v -4.402552 2.060730 0.696804
v -4.403376 2.060451 0.696002
v -4.401975 2.060391 0.695162
v -4.401638 2.060691 0.696255
v -4.403376 2.060451 0.696002
v -4.400625 2.059362 0.697207
v -4.400780 2.060082 0.696435
v -4.400661 2.059458 0.695436
v -4.400423 2.058355 0.696619
v -4.400625 2.059362 0.697207
v -4.400661 2.059458 0.695436
v -4.404934 2.056806 0.694951
v -4.404585 2.057497 0.693886
v -4.404583 2.058434 0.694234
v -4.404934 2.056806 0.694951
v -4.403457 2.057449 0.693209
v -4.402399 2.056698 0.693431
v -4.401695 2.057378 0.693632
v -4.403457 2.057449 0.693209
v -4.402207 2.055809 0.694383
v -4.403027 2.055452 0.695350
v -4.402525 2.055733 0.696167
v -4.402207 2.055809 0.694383
v -4.405044 2.057521 0.695640
v -4.404241 2.055896 0.695602
v -4.404934 2.056806 0.694951
v -4.405044 2.057521 0.695640
v -4.404241 2.055896 0.695602
v -4.403093 2.058370 0.693340
v -4.404583 2.058434 0.694234
v -4.404585 2.057497 0.693886
v -4.403457 2.057449 0.693209
v -4.403093 2.058370 0.693340
v -4.404585 2.057497 0.693886
v -4.401442 2.056205 0.694890
v -4.401695 2.057378 0.693632
v -4.402399 2.056698 0.693431
v -4.402207 2.055809 0.694383
v -4.401442 2.056205 0.694890
v -4.402399 2.056698 0.693431
v -4.404128 2.056319 0.696501
v -4.402525 2.055733 0.696167
v -4.403027 2.055452 0.695350
v -4.404241 2.055896 0.695602
v -4.404128 2.056319 0.696501
v -4.403027 2.055452 0.695350
v -4.402525 2.055733 0.696167
v -4.404128 2.056319 0.696501
v -4.403702 2.057248 0.697618
v -4.402525 2.055733 0.696167
v -4.402948 2.058463 0.698134
v -4.401441 2.057912 0.697820
v -4.401850 2.056571 0.697233
v -4.403702 2.057248 0.697618
v -4.402948 2.058463 0.698134
v -4.401850 2.056571 0.697233
v -4.401850 2.056571 0.697233
v -4.401442 2.056205 0.694890
v -4.402525 2.055733 0.696167
v -4.401850 2.056571 0.697233
v -4.401442 2.056205 0.694890
v -4.401441 2.057912 0.697820
v -4.400423 2.058355 0.696619
v -4.400599 2.057116 0.695758
v -4.401850 2.056571 0.697233
v -4.401441 2.057912 0.697820
v -4.400599 2.057116 0.695758
v -4.400599 2.057116 0.695758
v -4.401695 2.057378 0.693632
v -4.401442 2.056205 0.694890
v -4.400599 2.057116 0.695758
v -4.401695 2.057378 0.693632
v -4.400423 2.058355 0.696619
v -4.400661 2.059458 0.695436
v -4.400891 2.058472 0.694304
v -4.400599 2.057116 0.695758
v -4.400423 2.058355 0.696619
v -4.400891 2.058472 0.694304
v -4.400891 2.058472 0.694304
v -4.403093 2.058370 0.693340
v -4.401695 2.057378 0.693632
v -4.400891 2.058472 0.694304
v -4.403093 2.058370 0.693340
v -4.400661 2.059458 0.695436
v -4.401975 2.060391 0.695162
v -4.402506 2.059618 0.693966
v -4.400891 2.058472 0.694304
v -4.400661 2.059458 0.695436
v -4.402506 2.059618 0.693966
v -4.402506 2.059618 0.693966
v -4.404583 2.058434 0.694234
v -4.403093 2.058370 0.693340
v -4.402506 2.059618 0.693966
v -4.404583 2.058434 0.694234
v -4.401975 2.060391 0.695162
v -4.403376 2.060451 0.696002
v -4.404229 2.059692 0.694999
v -4.402506 2.059618 0.693966
v -4.401975 2.060391 0.695162
v -4.404229 2.059692 0.694999
v -4.404229 2.059692 0.694999
v -4.405044 2.057521 0.695640
v -4.404583 2.058434 0.694234
v -4.404229 2.059692 0.694999
v -4.405044 2.057521 0.695640
v -4.403376 2.060451 0.696002
v -4.403809 2.059593 0.697325
v -4.404761 2.058637 0.696624
v -4.404229 2.059692 0.694999
v -4.403376 2.060451 0.696002
v -4.404761 2.058637 0.696624
v -4.404761 2.058637 0.696624
v -4.403702 2.057248 0.697618
v -4.404128 2.056319 0.696501
v -4.405044 2.057521 0.695640
v -4.404761 2.058637 0.696624
v -4.404128 2.056319 0.696501
v -4.403809 2.059593 0.697325
v -4.402948 2.058463 0.698134
v -4.403702 2.057248 0.697618
v -4.404761 2.058637 0.696624
v -4.403809 2.059593 0.697325
v -4.403702 2.057248 0.697618
v -4.402273 2.059432 0.698195
v -4.401289 2.059073 0.697990
v -4.401441 2.057912 0.697820
v -4.402948 2.058463 0.698134
v -4.402273 2.059432 0.698195
v -4.401441 2.057912 0.697820
v -4.400625 2.059362 0.697207
v -4.401289 2.059073 0.697990
v -4.400780 2.060082 0.696435
v -4.402273 2.059432 0.698195
v -4.400780 2.060082 0.696435
v -4.401289 2.059073 0.697990
v -4.401638 2.060691 0.696255
v -4.400780 2.060082 0.696435
v -4.402273 2.059432 0.698195
v -4.402835 2.060170 0.697667
v -4.401638 2.060691 0.696255
v -4.402273 2.059432 0.698195
v -4.402552 2.060730 0.696804
v -4.401638 2.060691 0.696255
v -4.402835 2.060170 0.697667
v -4.404206 2.051866 0.691170
v -4.404410 2.052816 0.690152
v -4.405083 2.051484 0.692204
v -4.406381 2.051959 0.692475
v -4.405083 2.051484 0.692204
v -4.404410 2.052816 0.690152
v -4.405543 2.053620 0.689915
v -4.406381 2.051959 0.692475
v -4.404410 2.052816 0.690152
v -4.407123 2.052932 0.691778
v -4.406381 2.051959 0.692475
v -4.405543 2.053620 0.689915
v -4.406750 2.053671 0.690639
v -4.407123 2.052932 0.691778
v -4.405543 2.053620 0.689915
vn -0.3829 -0.7127 -0.5878
vn -0.1982 0.6966 0.6895
vn 0.3508 0.9355 0.0422
vn -0.0686 0.9534 0.2938
vn 0.0596 0.3584 0.9317
vn -0.1982 0.6966 0.6896
vn 0.0595 0.3584 0.9317
vn 0.7441 0.6563 0.1245
vn 0.5106 0.1935 0.8377
vn 0.5106 0.1935 0.8378
vn 0.8153 0.3261 0.4785
vn 0.4710 -0.3487 0.8103
vn -0.2592 -0.0817 0.9624
vn 0.5106 0.1936 0.8377
vn -0.4403 -0.3810 0.8130
vn -0.6766 0.4657 0.5704
vn -0.8971 0.2184 0.3840
vn -0.4403 -0.3809 0.8130
vn -0.2592 -0.0818 0.9624
vn -0.6765 0.4658 0.5704
vn -0.5576 -0.6247 0.5466
vn -0.9880 -0.0601 0.1425
vn -0.5576 -0.6247 0.5467
vn -0.4668 0.8816 -0.0704
vn -0.6675 0.6735 -0.3174
vn -0.6766 0.4658 0.5704
vn -0.9880 -0.0601 0.1424
vn -0.7717 0.3687 -0.5183
vn 0.2122 0.8526 -0.4776
vn 0.0757 0.6418 -0.7631
vn -0.4668 0.8816 -0.0705
vn 0.2122 0.8526 -0.4775
vn -0.7716 0.3686 -0.5183
vn -0.0715 0.3388 -0.9381
vn -0.7716 0.3687 -0.5183
vn -0.6675 0.6735 -0.3175
vn 0.0757 0.6418 -0.7632
vn 0.8490 0.4006 -0.3445
vn 0.7728 0.1471 -0.6174
vn 0.8490 0.4007 -0.3444
vn -0.0715 0.3387 -0.9382
vn 0.5852 -0.1272 -0.8009
vn -0.0715 0.3388 -0.9382
vn 0.9642 -0.1339 0.2287
vn 0.8989 -0.4381 0.0100
vn 0.5852 -0.1273 -0.8009
vn 0.7040 -0.6785 -0.2098
vn 0.8988 -0.4382 0.0100
vn 0.3590 -0.6731 0.6466
vn 0.9642 -0.1340 0.2287
vn 0.4711 -0.3486 0.8103
vn 0.7039 -0.6786 -0.2098
vn 0.1954 -0.8999 0.3899
vn 0.3589 -0.6731 0.6466
vn 0.1953 -0.8999 0.3898
vn 0.2327 -0.8624 0.4496
vn -0.5393 -0.5801 0.6104
vn 0.6325 -0.0701 -0.7714
vn 0.7543 -0.6354 -0.1653
vn 0.5851 -0.1273 -0.8009
vn -0.7588 0.4385 -0.4816
vn -0.0409 0.4078 -0.9122
vn -0.7588 0.4385 -0.4817
vn -0.9806 -0.0013 0.1959
vn 0.2328 -0.8624 0.4496
vn -0.0409 0.4078 -0.9121
vn 0.5851 -0.1272 -0.8009
vn -0.9806 -0.0012 0.1960
vn -0.7588 0.4384 -0.4817
vn -0.9806 -0.0012 0.1959
vn 0.8491 0.4006 -0.3444
vn 0.7441 0.6564 0.1245
vn -0.4667 0.8816 -0.0704
vn 0.3508 0.9355 0.0423
vn -0.0687 0.9534 0.2938
vn -0.2592 -0.0817 0.9623
vn -0.2593 -0.0817 0.9623
vn -0.0686 0.9534 0.2937
vn 0.9642 -0.1340 0.2288
vn -0.4476 -0.3943 0.8026
vn -0.9047 0.2053 0.3733
vn -0.5393 -0.5802 0.6104
vn 0.8922 -0.4516 -0.0008
vn 0.3521 -0.6866 0.6360
vn 0.8923 -0.4515 -0.0008
vn 0.0687 0.6289 -0.7744
vn 0.7661 0.1340 -0.6286
vn 0.0687 0.6290 -0.7744
vn -0.6750 0.6607 -0.3285
vn -0.9047 0.2054 0.3733
vn 0.3521 -0.6866 0.6361
vn 0.8923 -0.4515 -0.0009
vn -0.6749 0.6607 -0.3285
vt 0.543243 0.635056
vt 0.535370 0.641335
vt 0.537796 0.636299
vt 0.537796 0.646370
vt 0.547607 0.638535
vt 0.543243 0.647614
vt 0.547607 0.644127
vt 0.593674 0.671494
vt 0.598511 0.669548
vt 0.596146 0.672157
vt 0.592773 0.669609
vt 0.596436 0.666756
vt 0.592804 0.667854
vt 0.594147 0.666748
vt 0.591187 0.666855
vt 0.590591 0.669838
vt 0.587372 0.669685
vt 0.591782 0.673050
vt 0.588348 0.674789
vt 0.582382 0.669067
vt 0.582687 0.676537
vt 0.595596 0.675606
vt 0.592606 0.680244
vt 0.586334 0.684982
vt 0.603775 0.674767
vt 0.603561 0.686485
vt 0.594009 0.696274
vt 0.603775 0.658051
vt 0.597107 0.663902
vt 0.596405 0.659698
vt 0.602859 0.665543
vt 0.600342 0.651657
vt 0.594193 0.655174
vt 0.593353 0.664742
vt 0.591705 0.661980
vt 0.588959 0.658463
vt 0.588654 0.665283
vt 0.584778 0.662933
vt 0.580322 0.660286
vt 0.576584 0.668175
vt 0.591812 0.651588
vt 0.585907 0.654999
vt 0.579453 0.688484
vt 0.584915 0.699394
vt 0.576157 0.678001
vt 0.597061 0.648293
vt 0.627350 0.682632
vt 0.649124 0.687675
vt 0.627441 0.688225
vt 0.649033 0.682457
vt 0.627441 0.671455
vt 0.649033 0.677231
vt 0.627350 0.677048
vt 0.649124 0.672005
vt 0.627914 0.660294
vt 0.649292 0.666786
vt 0.627625 0.665871
vt 0.649551 0.661568
vt 0.649292 0.692902
vt 0.627625 0.693810
vt 0.649551 0.698120
vt 0.627914 0.699394
s 0
usemtl decorations
f 240/1/1 239/2/1 238/3/1
f 237/1/1 236/4/1 235/2/1
f 234/5/1 233/4/1 232/1/1
f 231/5/1 230/6/1 229/4/1
f 228/6/1 227/5/1 226/7/1
s 1
f 225/8/2 224/9/3 223/10/4
f 222/11/5 221/9/3 220/8/6
f 219/11/7 218/12/8 217/9/3
f 216/13/9 215/12/8 214/11/5
f 213/12/8 212/13/10 211/14/11
f 210/15/12 209/11/5 208/16/13
f 207/15/12 206/13/14 205/11/5
f 204/17/15 203/18/16 202/19/17
f 201/17/18 200/16/19 199/18/20
f 198/20/21 197/19/17 196/21/22
f 195/20/23 194/17/18 193/19/17
f 192/19/17 191/22/24 190/23/25
f 189/19/17 188/18/26 187/22/24
f 186/21/27 185/23/25 184/24/28
f 183/21/22 3/19/17 182/23/25
f 181/23/25 180/25/29 179/26/30
f 178/23/25 177/22/31 176/25/32
f 175/24/33 174/26/30 173/27/34
f 172/24/35 4/23/36 171/26/30
f 170/28/37 169/29/38 168/30/39
f 167/28/37 166/31/29 165/29/40
f 164/32/41 163/30/39 162/33/42
f 161/32/43 13/28/30 160/30/39
f 159/30/39 158/34/44 157/35/45
f 156/30/39 155/29/38 154/34/44
f 153/33/46 152/35/45 151/36/47
f 150/33/46 14/30/39 149/35/45
f 148/35/48 147/15/12 146/37/49
f 145/35/48 144/34/50 143/15/51
f 142/36/52 141/37/49 140/38/53
f 139/36/52 16/35/45 138/37/49
f 137/37/54 136/16/19 135/17/18
f 134/37/49 133/15/12 132/16/13
f 131/38/55 130/17/18 129/20/23
f 128/38/53 36/37/49 25/17/18
f 127/39/56 126/20/23 125/40/57
f 124/39/56 123/38/53 122/20/23
f 121/41/58 120/36/47 119/42/59
f 118/41/58 117/33/60 116/36/47
f 115/43/61 114/27/34 113/44/62
f 112/43/63 111/24/35 110/27/34
f 109/40/57 108/21/22 107/45/64
f 106/40/57 40/20/21 105/21/22
f 104/42/59 103/38/53 102/39/65
f 101/42/59 41/36/47 42/38/53
f 100/46/66 99/33/67 98/41/58
f 97/46/62 37/32/43 38/33/67
f 96/45/68 95/24/28 94/43/69
f 93/45/70 33/21/22 34/24/28
f 92/29/71 91/14/11 90/34/50
f 89/29/71 88/12/72 87/14/11
f 86/22/73 85/9/74 84/25/32
f 83/22/73 82/10/75 81/9/74
f 80/16/76 79/8/2 78/18/20
f 29/16/77 30/11/5 77/8/6
f 76/31/32 75/12/8 28/29/40
f 31/31/29 26/9/74 27/12/72
f 74/18/16 73/10/78 24/22/24
f 21/18/16 22/8/6 23/10/4
f 72/34/79 71/13/9 20/15/12
f 17/34/79 18/14/11 19/13/14
f 70/47/80 69/48/68 68/49/81
f 67/47/80 66/50/82 65/48/68
f 64/51/83 63/52/65 62/53/84
f 61/51/85 60/54/59 59/52/65
f 58/55/86 57/56/58 56/57/87
f 55/55/88 54/58/62 53/56/58
f 52/49/81 51/59/61 50/60/89
f 2/49/90 32/48/70 49/59/61
f 48/53/91 47/50/57 12/47/80
f 9/53/91 10/52/65 11/50/57
f 46/57/87 45/54/59 8/51/92
f 5/57/87 6/56/58 7/54/59
f 44/60/89 43/61/66 15/62/88
f 1/60/93 35/59/69 39/61/66
