# Blender 5.0.0
# www.blender.org
mtllib Circle_002_Circle_004_Dupli_16_decorations_0.mtl
o Circle.002|Circle.004|Dupli|16_decorations_0
v -4.590220 1.860582 0.687517
v -4.589265 1.860607 0.688552
v -4.583889 1.863962 0.683920
v -4.585251 1.863926 0.682443
v -4.589931 1.858258 0.686538
v -4.586161 1.860254 0.683124
v -4.585201 1.859741 0.683866
v -4.588905 1.857710 0.687332
v -4.588211 1.858304 0.688403
v -4.584552 1.860296 0.684868
v -4.584702 1.861502 0.685375
v -4.588371 1.859593 0.688946
v -4.585674 1.862434 0.681165
v -4.584840 1.860610 0.681048
v -4.590517 1.859537 0.686621
v -4.583376 1.859828 0.682180
v -4.582497 1.860746 0.681347
v -4.582002 1.861707 0.680867
v -4.581476 1.862157 0.681678
v -4.581691 1.861436 0.682591
v -4.582915 1.864111 0.682763
v -4.582274 1.863903 0.681791
v -4.582998 1.863883 0.681006
v -4.584023 1.864081 0.681561
v -4.582614 1.862515 0.684483
v -4.583222 1.863091 0.680328
v -4.582779 1.862123 0.680265
v -4.583688 1.861383 0.680426
v -4.581877 1.862933 0.683221
v -4.581597 1.863134 0.682090
v -4.584368 1.862868 0.680521
v -4.585538 1.862450 0.685006
v -4.584917 1.863173 0.684703
v -4.586096 1.863142 0.683425
v -4.586430 1.862426 0.684038
v -4.582385 1.860675 0.683709
v -4.586462 1.861851 0.682319
v -4.585740 1.860272 0.682217
v -4.586708 1.861449 0.683201
v -4.583813 1.861921 0.685191
v -4.584473 1.859594 0.683197
v -4.583615 1.860328 0.684521
v -4.586708 1.861449 0.683201
v -4.590220 1.860582 0.687517
v -4.585201 1.859741 0.683866
v -4.589931 1.858258 0.686538
v -4.584702 1.861502 0.685375
v -4.588211 1.858304 0.688403
v -4.586430 1.862426 0.684038
v -4.590220 1.860582 0.687517
v -4.586430 1.862426 0.684038
v -4.589265 1.860607 0.688552
v -4.586161 1.860254 0.683124
v -4.586708 1.861449 0.683201
v -4.590517 1.859537 0.686621
v -4.589931 1.858258 0.686538
v -4.586161 1.860254 0.683124
v -4.590517 1.859537 0.686621
v -4.584552 1.860296 0.684868
v -4.585201 1.859741 0.683866
v -4.588905 1.857710 0.687332
v -4.588211 1.858304 0.688403
v -4.584552 1.860296 0.684868
v -4.588905 1.857710 0.687332
v -4.585538 1.862450 0.685006
v -4.584702 1.861502 0.685375
v -4.588371 1.859593 0.688946
v -4.589265 1.860607 0.688552
v -4.585538 1.862450 0.685006
v -4.588371 1.859593 0.688946
v -4.581476 1.862157 0.681678
v -4.582497 1.860746 0.681347
v -4.582998 1.863883 0.681006
v -4.582915 1.864111 0.682763
v -4.582779 1.862123 0.680265
v -4.584368 1.862868 0.680521
v -4.582274 1.863903 0.681791
v -4.582915 1.864111 0.682763
v -4.582274 1.863903 0.681791
v -4.581877 1.862933 0.683221
v -4.583222 1.863091 0.680328
v -4.582998 1.863883 0.681006
v -4.584023 1.864081 0.681561
v -4.584368 1.862868 0.680521
v -4.583222 1.863091 0.680328
v -4.584023 1.864081 0.681561
v -4.582002 1.861707 0.680867
v -4.582779 1.862123 0.680265
v -4.583688 1.861383 0.680426
v -4.582497 1.860746 0.681347
v -4.582002 1.861707 0.680867
v -4.583688 1.861383 0.680426
v -4.585538 1.862450 0.685006
v -4.586430 1.862426 0.684038
v -4.586096 1.863142 0.683425
v -4.585538 1.862450 0.685006
v -4.586708 1.861449 0.683201
v -4.586161 1.860254 0.683124
v -4.585740 1.860272 0.682217
v -4.586708 1.861449 0.683201
v -4.585201 1.859741 0.683866
v -4.584552 1.860296 0.684868
v -4.583615 1.860328 0.684521
v -4.585201 1.859741 0.683866
v -4.584917 1.863173 0.684703
v -4.584702 1.861502 0.685375
v -4.585538 1.862450 0.685006
v -4.584917 1.863173 0.684703
v -4.584702 1.861502 0.685375
v -4.586462 1.861851 0.682319
v -4.586096 1.863142 0.683425
v -4.586430 1.862426 0.684038
v -4.586708 1.861449 0.683201
v -4.586462 1.861851 0.682319
v -4.586430 1.862426 0.684038
v -4.584473 1.859594 0.683197
v -4.585740 1.860272 0.682217
v -4.586161 1.860254 0.683124
v -4.585201 1.859741 0.683866
v -4.584473 1.859594 0.683197
v -4.586161 1.860254 0.683124
v -4.583813 1.861921 0.685191
v -4.583615 1.860328 0.684521
v -4.584552 1.860296 0.684868
v -4.584702 1.861502 0.685375
v -4.583813 1.861921 0.685191
v -4.584552 1.860296 0.684868
v -4.583615 1.860328 0.684521
v -4.583813 1.861921 0.685191
v -4.582614 1.862515 0.684483
v -4.583615 1.860328 0.684521
v -4.581877 1.862933 0.683221
v -4.581691 1.861436 0.682591
v -4.582385 1.860675 0.683709
v -4.582614 1.862515 0.684483
v -4.581877 1.862933 0.683221
v -4.582385 1.860675 0.683709
v -4.582385 1.860675 0.683709
v -4.584473 1.859594 0.683197
v -4.583615 1.860328 0.684521
v -4.582385 1.860675 0.683709
v -4.584473 1.859594 0.683197
v -4.581691 1.861436 0.682591
v -4.582497 1.860746 0.681347
v -4.583376 1.859828 0.682180
v -4.582385 1.860675 0.683709
v -4.581691 1.861436 0.682591
v -4.583376 1.859828 0.682180
v -4.583376 1.859828 0.682180
v -4.585740 1.860272 0.682217
v -4.584473 1.859594 0.683197
v -4.583376 1.859828 0.682180
v -4.585740 1.860272 0.682217
v -4.582497 1.860746 0.681347
v -4.583688 1.861383 0.680426
v -4.584840 1.860610 0.681048
v -4.583376 1.859828 0.682180
v -4.582497 1.860746 0.681347
v -4.584840 1.860610 0.681048
v -4.584840 1.860610 0.681048
v -4.586462 1.861851 0.682319
v -4.585740 1.860272 0.682217
v -4.584840 1.860610 0.681048
v -4.586462 1.861851 0.682319
v -4.583688 1.861383 0.680426
v -4.584368 1.862868 0.680521
v -4.585674 1.862434 0.681165
v -4.584840 1.860610 0.681048
v -4.583688 1.861383 0.680426
v -4.585674 1.862434 0.681165
v -4.585674 1.862434 0.681165
v -4.586096 1.863142 0.683425
v -4.586462 1.861851 0.682319
v -4.585674 1.862434 0.681165
v -4.586096 1.863142 0.683425
v -4.584368 1.862868 0.680521
v -4.584023 1.864081 0.681561
v -4.585251 1.863926 0.682443
v -4.585674 1.862434 0.681165
v -4.584368 1.862868 0.680521
v -4.585251 1.863926 0.682443
v -4.585251 1.863926 0.682443
v -4.584917 1.863173 0.684703
v -4.586096 1.863142 0.683425
v -4.585251 1.863926 0.682443
v -4.584917 1.863173 0.684703
v -4.584023 1.864081 0.681561
v -4.582915 1.864111 0.682763
v -4.583889 1.863962 0.683920
v -4.585251 1.863926 0.682443
v -4.584023 1.864081 0.681561
v -4.583889 1.863962 0.683920
v -4.583889 1.863962 0.683920
v -4.582614 1.862515 0.684483
v -4.583813 1.861921 0.685191
v -4.584917 1.863173 0.684703
v -4.583889 1.863962 0.683920
v -4.583813 1.861921 0.685191
v -4.582915 1.864111 0.682763
v -4.581877 1.862933 0.683221
v -4.582614 1.862515 0.684483
v -4.583889 1.863962 0.683920
v -4.582915 1.864111 0.682763
v -4.582614 1.862515 0.684483
v -4.581597 1.863134 0.682090
v -4.581476 1.862157 0.681678
v -4.581691 1.861436 0.682591
v -4.581877 1.862933 0.683221
v -4.581597 1.863134 0.682090
v -4.581691 1.861436 0.682591
v -4.582002 1.861707 0.680867
v -4.581476 1.862157 0.681678
v -4.582779 1.862123 0.680265
v -4.581597 1.863134 0.682090
v -4.582779 1.862123 0.680265
v -4.581476 1.862157 0.681678
v -4.583222 1.863091 0.680328
v -4.582779 1.862123 0.680265
v -4.581597 1.863134 0.682090
v -4.582274 1.863903 0.681791
v -4.583222 1.863091 0.680328
v -4.581597 1.863134 0.682090
v -4.582998 1.863883 0.681006
v -4.583222 1.863091 0.680328
v -4.582274 1.863903 0.681791
v -4.588905 1.857710 0.687332
v -4.589931 1.858258 0.686538
v -4.588211 1.858304 0.688403
v -4.588371 1.859593 0.688946
v -4.588211 1.858304 0.688403
v -4.589931 1.858258 0.686538
v -4.590517 1.859537 0.686621
v -4.588371 1.859593 0.688946
v -4.589931 1.858258 0.686538
v -4.589265 1.860607 0.688552
v -4.588371 1.859593 0.688946
v -4.590517 1.859537 0.686621
v -4.590220 1.860582 0.687517
v -4.589265 1.860607 0.688552
v -4.590517 1.859537 0.686621
vn -0.6832 -0.3537 0.6388
vn 0.5922 0.7716 -0.2321
vn 0.1575 0.3996 -0.9031
vn 0.2605 0.7629 -0.5917
vn 0.9029 0.4193 -0.0950
vn 0.1575 0.3996 -0.9030
vn 0.9028 0.4194 -0.0950
vn 0.3608 -0.0445 -0.9316
vn 0.9585 -0.0288 -0.2836
vn 0.3608 -0.0446 -0.9316
vn 0.9585 -0.0287 -0.2835
vn 0.7173 -0.2352 -0.6559
vn 0.9172 -0.3751 0.1343
vn 0.8271 0.3502 0.4396
vn 0.9585 -0.0287 -0.2836
vn 0.6259 0.2387 0.7425
vn 0.3241 0.9206 0.2176
vn 0.0754 0.8631 0.4994
vn 0.6259 0.2387 0.7424
vn 0.8271 0.3503 0.4396
vn 0.3242 0.9206 0.2176
vn 0.3348 0.0929 0.9377
vn -0.1838 0.6811 0.7087
vn 0.0755 0.8631 0.4994
vn -0.2128 0.9065 -0.3646
vn -0.5124 0.8476 -0.1379
vn 0.3241 0.9207 0.2176
vn -0.7375 0.6666 0.1084
vn -0.3797 0.3185 -0.8686
vn -0.6949 0.2039 -0.6895
vn -0.2129 0.9065 -0.3646
vn -0.3796 0.3185 -0.8686
vn -0.7376 0.6665 0.1084
vn -0.6950 0.2039 -0.6895
vn -0.9095 0.0601 -0.4113
vn -0.6950 0.2038 -0.6895
vn -0.0505 -0.4007 -0.9148
vn -0.3347 -0.5832 -0.7402
vn -0.3796 0.3184 -0.8686
vn -0.0505 -0.4006 -0.9148
vn -0.3347 -0.5832 -0.7401
vn -0.5701 -0.6814 -0.4590
vn 0.5266 -0.7093 -0.4685
vn 0.2970 -0.9211 -0.2516
vn -0.5702 -0.6814 -0.4589
vn 0.0250 -0.9997 0.0013
vn 0.2971 -0.9211 -0.2515
vn 0.9172 -0.3752 0.1343
vn 0.7246 -0.5553 0.4082
vn 0.5266 -0.7094 -0.4685
vn 0.9172 -0.3752 0.1342
vn 0.4278 -0.6551 0.6228
vn 0.2971 -0.9211 -0.2516
vn 0.7245 -0.5553 0.4083
vn 0.4277 -0.6551 0.6229
vn 0.3348 0.0930 0.9377
vn 0.4965 -0.6417 0.5845
vn 0.4012 0.1253 0.9074
vn 0.4277 -0.6551 0.6228
vn -0.5267 -0.6687 -0.5248
vn 0.0250 -0.9997 0.0012
vn 0.0835 -0.9951 -0.0528
vn -0.6984 0.7135 0.0569
vn -0.9095 0.0602 -0.4113
vn -0.8747 0.0916 -0.4759
vn -0.6984 0.7134 0.0570
vn -0.7376 0.6665 0.1083
vn 0.4013 0.1253 0.9074
vn -0.1306 0.7284 0.6726
vn 0.0836 -0.9951 -0.0529
vn 0.0835 -0.9951 -0.0529
vn -0.8747 0.0917 -0.4759
vn -0.5702 -0.6813 -0.4590
vn -0.1305 0.7284 0.6726
vn 0.7173 -0.2352 -0.6558
vn -0.2129 0.9065 -0.3647
vn 0.1575 0.3997 -0.9030
vn 0.8270 0.3503 0.4396
vn 0.8270 0.3503 0.4397
vn 0.5922 0.7716 -0.2322
vn 0.5267 -0.7093 -0.4685
vn 0.6136 0.2323 0.7547
vn 0.0628 0.8570 0.5115
vn 0.6136 0.2324 0.7546
vn 0.2846 -0.9282 -0.2398
vn 0.7123 -0.5622 0.4202
vn 0.2846 -0.9281 -0.2399
vn 0.0836 -0.9951 -0.0528
vn -0.7080 0.1974 -0.6781
vn -0.3476 -0.5900 -0.7287
vn -0.7079 0.1974 -0.6781
vn -0.6984 0.7135 0.0570
vn -0.5253 0.8415 -0.1261
vn 0.0628 0.8570 0.5114
vn 0.7123 -0.5621 0.4203
vn 0.6136 0.2323 0.7546
vn 0.7123 -0.5621 0.4202
vn -0.3475 -0.5901 -0.7287
vn 0.2846 -0.9282 -0.2399
vn -0.7079 0.1975 -0.6781
vn -0.5253 0.8415 -0.1262
vt 0.530319 0.635056
vt 0.522446 0.641335
vt 0.524872 0.636299
vt 0.524872 0.646370
vt 0.534683 0.638535
vt 0.530319 0.647614
vt 0.534683 0.644127
vt 0.508789 0.671494
vt 0.513626 0.669548
vt 0.511276 0.672157
vt 0.507889 0.669609
vt 0.511566 0.666756
vt 0.507935 0.667854
vt 0.509277 0.666748
vt 0.506302 0.666855
vt 0.505722 0.669838
vt 0.502487 0.669685
vt 0.506897 0.673050
vt 0.503479 0.674789
vt 0.497520 0.669067
vt 0.497810 0.676537
vt 0.510727 0.675606
vt 0.507721 0.680244
vt 0.501465 0.684982
vt 0.518890 0.674767
vt 0.518692 0.686485
vt 0.509125 0.696274
vt 0.518890 0.658051
vt 0.512238 0.663902
vt 0.511536 0.659698
vt 0.517990 0.665543
vt 0.515472 0.651657
vt 0.509323 0.655174
vt 0.508469 0.664742
vt 0.506836 0.661980
vt 0.504074 0.658463
vt 0.503784 0.665283
vt 0.499901 0.662933
vt 0.495453 0.660286
vt 0.491707 0.668175
vt 0.506927 0.651588
vt 0.501038 0.654999
vt 0.494583 0.688484
vt 0.500031 0.699394
vt 0.491287 0.678001
vt 0.512177 0.648293
vt 0.627350 0.642853
vt 0.649124 0.647896
vt 0.627441 0.648445
vt 0.649033 0.642670
vt 0.627441 0.631676
vt 0.649033 0.637444
vt 0.627350 0.637268
vt 0.649124 0.632225
vt 0.627914 0.620506
vt 0.649292 0.626999
vt 0.627625 0.626091
vt 0.649551 0.621780
vt 0.649292 0.653114
vt 0.627625 0.654030
vt 0.649551 0.658333
vt 0.627914 0.659607
s 0
usemtl decorations
f 240/1/1 239/2/1 238/3/1
f 237/1/1 236/4/1 235/2/1
f 234/5/1 233/4/1 232/1/1
f 231/5/1 230/6/1 229/4/1
f 228/6/1 227/5/1 226/7/1
s 1
f 225/8/2 224/9/3 223/10/4
f 222/11/5 221/9/6 220/8/2
f 219/11/7 218/12/8 217/9/3
f 216/13/9 215/12/8 214/11/5
f 213/12/10 212/13/11 211/14/12
f 210/15/13 209/11/5 208/16/14
f 207/15/13 206/13/15 205/11/5
f 204/17/16 203/18/17 202/19/18
f 201/17/19 200/16/20 199/18/21
f 198/20/22 197/19/18 196/21/23
f 195/20/22 194/17/19 193/19/24
f 192/19/18 191/22/25 190/23/26
f 189/19/18 188/18/27 187/22/25
f 186/21/23 185/23/26 184/24/28
f 183/21/23 3/19/18 182/23/26
f 181/23/26 180/25/29 179/26/30
f 178/23/26 177/22/31 176/25/32
f 175/24/33 174/26/34 173/27/35
f 172/24/33 4/23/26 171/26/34
f 170/28/36 169/29/37 168/30/38
f 167/28/34 166/31/39 165/29/40
f 164/32/35 163/30/41 162/33/42
f 161/32/35 13/28/34 160/30/38
f 159/30/38 158/34/43 157/35/44
f 156/30/38 155/29/37 154/34/43
f 153/33/45 152/35/44 151/36/46
f 150/33/45 14/30/41 149/35/44
f 148/35/47 147/15/48 146/37/49
f 145/35/47 144/34/50 143/15/51
f 142/36/46 141/37/49 140/38/52
f 139/36/46 16/35/53 138/37/49
f 137/37/54 136/16/14 135/17/16
f 134/37/49 133/15/48 132/16/14
f 131/38/55 130/17/16 129/20/56
f 128/38/55 36/37/49 25/17/16
f 127/39/57 126/20/56 125/40/58
f 124/39/57 123/38/59 122/20/56
f 121/41/60 120/36/61 119/42/62
f 118/41/60 117/33/45 116/36/61
f 115/43/63 114/27/64 113/44/65
f 112/43/66 111/24/67 110/27/64
f 109/40/68 108/21/23 107/45/69
f 106/40/58 40/20/22 105/21/23
f 104/42/70 103/38/59 102/39/57
f 101/42/71 41/36/46 42/38/59
f 100/46/72 99/33/73 98/41/60
f 97/46/72 37/32/35 38/33/73
f 96/45/74 95/24/33 94/43/66
f 93/45/74 33/21/23 34/24/33
f 92/29/37 91/14/12 90/34/43
f 89/29/37 88/12/8 87/14/75
f 86/22/76 85/9/6 84/25/32
f 83/22/76 82/10/4 81/9/77
f 80/16/78 79/8/2 78/18/21
f 29/16/79 30/11/5 77/8/80
f 76/31/39 75/12/8 28/29/40
f 31/31/39 26/9/77 27/12/8
f 74/18/17 73/10/4 24/22/31
f 21/18/27 22/8/80 23/10/4
f 72/34/81 71/13/15 20/15/13
f 17/34/81 18/14/12 19/13/15
f 70/47/82 69/48/74 68/49/83
f 67/47/84 66/50/58 65/48/74
f 64/51/85 63/52/57 62/53/86
f 61/51/87 60/54/88 59/52/57
f 58/55/89 57/56/60 56/57/90
f 55/55/91 54/58/72 53/56/60
f 52/49/83 51/59/92 50/60/93
f 2/49/94 32/48/69 49/59/92
f 48/53/95 47/50/58 12/47/96
f 9/53/97 10/52/57 11/50/58
f 46/57/98 45/54/88 8/51/99
f 5/57/98 6/56/60 7/54/62
f 44/60/93 43/61/72 15/62/100
f 1/60/101 35/59/66 39/61/72
