# Blender 5.0.0
# www.blender.org
mtllib Circle_005_Circle_003_Dupli_13_decorations_0.mtl
o Circle.005|Circle.003|Dupli|13_decorations_0
v -4.376500 0.869545 0.918979
v -4.375401 0.868810 0.918494
v -4.375813 0.872260 0.911455
v -4.377380 0.873309 0.912147
v -4.378454 0.867979 0.918568
v -4.379067 0.870178 0.913603
v -4.378491 0.869128 0.913055
v -4.377838 0.866856 0.917982
v -4.376474 0.866653 0.917695
v -4.377216 0.868939 0.912786
v -4.376203 0.869751 0.912999
v -4.375390 0.867523 0.917922
v -4.379318 0.872782 0.912195
v -4.380168 0.871074 0.911562
v -4.377858 0.869176 0.919012
v -4.379289 0.869473 0.910726
v -4.379217 0.870382 0.909510
v -4.378946 0.871270 0.908777
v -4.377913 0.871116 0.908559
v -4.377634 0.870146 0.909176
v -4.376388 0.872650 0.910104
v -4.377100 0.872750 0.909164
v -4.377932 0.873307 0.909532
v -4.377663 0.873504 0.910667
v -4.375796 0.870423 0.910640
v -4.378962 0.873027 0.909557
v -4.379413 0.872120 0.909221
v -4.379932 0.871685 0.910191
v -4.376375 0.871155 0.909440
v -4.377091 0.871775 0.908731
v -4.379241 0.873075 0.910706
v -4.376214 0.870954 0.913533
v -4.375895 0.871524 0.912777
v -4.377252 0.872433 0.913375
v -4.377240 0.871642 0.913987
v -4.377344 0.869183 0.910315
v -4.378929 0.871976 0.913417
v -4.379664 0.870499 0.912869
v -4.378510 0.871297 0.914018
v -4.375881 0.869935 0.912071
v -4.378904 0.869112 0.912145
v -4.377220 0.868861 0.911790
v -4.378510 0.871297 0.914018
v -4.376500 0.869545 0.918979
v -4.378491 0.869128 0.913055
v -4.378454 0.867979 0.918568
v -4.376203 0.869751 0.912999
v -4.376474 0.866653 0.917695
v -4.377240 0.871642 0.913987
v -4.376500 0.869545 0.918979
v -4.377240 0.871642 0.913987
v -4.375401 0.868810 0.918494
v -4.379067 0.870178 0.913603
v -4.378510 0.871297 0.914018
v -4.377858 0.869176 0.919012
v -4.378454 0.867979 0.918568
v -4.379067 0.870178 0.913603
v -4.377858 0.869176 0.919012
v -4.377216 0.868939 0.912786
v -4.378491 0.869128 0.913055
v -4.377838 0.866856 0.917982
v -4.376474 0.866653 0.917695
v -4.377216 0.868939 0.912786
v -4.377838 0.866856 0.917982
v -4.376214 0.870954 0.913533
v -4.376203 0.869751 0.912999
v -4.375390 0.867523 0.917922
v -4.375401 0.868810 0.918494
v -4.376214 0.870954 0.913533
v -4.375390 0.867523 0.917922
v -4.377913 0.871116 0.908559
v -4.379217 0.870382 0.909510
v -4.377932 0.873307 0.909532
v -4.376388 0.872650 0.910104
v -4.379413 0.872120 0.909221
v -4.379241 0.873075 0.910706
v -4.377100 0.872750 0.909164
v -4.376388 0.872650 0.910104
v -4.377100 0.872750 0.909164
v -4.376375 0.871155 0.909440
v -4.378962 0.873027 0.909557
v -4.377932 0.873307 0.909532
v -4.377663 0.873504 0.910667
v -4.379241 0.873075 0.910706
v -4.378962 0.873027 0.909557
v -4.377663 0.873504 0.910667
v -4.378946 0.871270 0.908777
v -4.379413 0.872120 0.909221
v -4.379932 0.871685 0.910191
v -4.379217 0.870382 0.909510
v -4.378946 0.871270 0.908777
v -4.379932 0.871685 0.910191
v -4.376214 0.870954 0.913533
v -4.377240 0.871642 0.913987
v -4.377252 0.872433 0.913375
v -4.376214 0.870954 0.913533
v -4.378510 0.871297 0.914018
v -4.379067 0.870178 0.913603
v -4.379664 0.870499 0.912869
v -4.378510 0.871297 0.914018
v -4.378491 0.869128 0.913055
v -4.377216 0.868939 0.912786
v -4.377220 0.868861 0.911790
v -4.378491 0.869128 0.913055
v -4.375895 0.871524 0.912777
v -4.376203 0.869751 0.912999
v -4.376214 0.870954 0.913533
v -4.375895 0.871524 0.912777
v -4.376203 0.869751 0.912999
v -4.378929 0.871976 0.913417
v -4.377252 0.872433 0.913375
v -4.377240 0.871642 0.913987
v -4.378510 0.871297 0.914018
v -4.378929 0.871976 0.913417
v -4.377240 0.871642 0.913987
v -4.378904 0.869112 0.912145
v -4.379664 0.870499 0.912869
v -4.379067 0.870178 0.913603
v -4.378491 0.869128 0.913055
v -4.378904 0.869112 0.912145
v -4.379067 0.870178 0.913603
v -4.375881 0.869935 0.912071
v -4.377220 0.868861 0.911790
v -4.377216 0.868939 0.912786
v -4.376203 0.869751 0.912999
v -4.375881 0.869935 0.912071
v -4.377216 0.868939 0.912786
v -4.377220 0.868861 0.911790
v -4.375881 0.869935 0.912071
v -4.375796 0.870423 0.910640
v -4.377220 0.868861 0.911790
v -4.376375 0.871155 0.909440
v -4.377634 0.870146 0.909176
v -4.377344 0.869183 0.910315
v -4.375796 0.870423 0.910640
v -4.376375 0.871155 0.909440
v -4.377344 0.869183 0.910315
v -4.377344 0.869183 0.910315
v -4.378904 0.869112 0.912145
v -4.377220 0.868861 0.911790
v -4.377344 0.869183 0.910315
v -4.378904 0.869112 0.912145
v -4.377634 0.870146 0.909176
v -4.379217 0.870382 0.909510
v -4.379289 0.869473 0.910726
v -4.377344 0.869183 0.910315
v -4.377634 0.870146 0.909176
v -4.379289 0.869473 0.910726
v -4.379289 0.869473 0.910726
v -4.379664 0.870499 0.912869
v -4.378904 0.869112 0.912145
v -4.379289 0.869473 0.910726
v -4.379664 0.870499 0.912869
v -4.379217 0.870382 0.909510
v -4.379932 0.871685 0.910191
v -4.380168 0.871074 0.911562
v -4.379289 0.869473 0.910726
v -4.379217 0.870382 0.909510
v -4.380168 0.871074 0.911562
v -4.380168 0.871074 0.911562
v -4.378929 0.871976 0.913417
v -4.379664 0.870499 0.912869
v -4.380168 0.871074 0.911562
v -4.378929 0.871976 0.913417
v -4.379932 0.871685 0.910191
v -4.379241 0.873075 0.910706
v -4.379318 0.872782 0.912195
v -4.380168 0.871074 0.911562
v -4.379932 0.871685 0.910191
v -4.379318 0.872782 0.912195
v -4.379318 0.872782 0.912195
v -4.377252 0.872433 0.913375
v -4.378929 0.871976 0.913417
v -4.379318 0.872782 0.912195
v -4.377252 0.872433 0.913375
v -4.379241 0.873075 0.910706
v -4.377663 0.873504 0.910667
v -4.377380 0.873309 0.912147
v -4.379318 0.872782 0.912195
v -4.379241 0.873075 0.910706
v -4.377380 0.873309 0.912147
v -4.377380 0.873309 0.912147
v -4.375895 0.871524 0.912777
v -4.377252 0.872433 0.913375
v -4.377380 0.873309 0.912147
v -4.375895 0.871524 0.912777
v -4.377663 0.873504 0.910667
v -4.376388 0.872650 0.910104
v -4.375813 0.872260 0.911455
v -4.377380 0.873309 0.912147
v -4.377663 0.873504 0.910667
v -4.375813 0.872260 0.911455
v -4.375813 0.872260 0.911455
v -4.375796 0.870423 0.910640
v -4.375881 0.869935 0.912071
v -4.375895 0.871524 0.912777
v -4.375813 0.872260 0.911455
v -4.375881 0.869935 0.912071
v -4.376388 0.872650 0.910104
v -4.376375 0.871155 0.909440
v -4.375796 0.870423 0.910640
v -4.375813 0.872260 0.911455
v -4.376388 0.872650 0.910104
v -4.375796 0.870423 0.910640
v -4.377091 0.871775 0.908731
v -4.377913 0.871116 0.908559
v -4.377634 0.870146 0.909176
v -4.376375 0.871155 0.909440
v -4.377091 0.871775 0.908731
v -4.377634 0.870146 0.909176
v -4.378946 0.871270 0.908777
v -4.377913 0.871116 0.908559
v -4.379413 0.872120 0.909221
v -4.377091 0.871775 0.908731
v -4.379413 0.872120 0.909221
v -4.377913 0.871116 0.908559
v -4.378962 0.873027 0.909557
v -4.379413 0.872120 0.909221
v -4.377091 0.871775 0.908731
v -4.377100 0.872750 0.909164
v -4.378962 0.873027 0.909557
v -4.377091 0.871775 0.908731
v -4.377932 0.873307 0.909532
v -4.378962 0.873027 0.909557
v -4.377100 0.872750 0.909164
v -4.377838 0.866856 0.917982
v -4.378454 0.867979 0.918568
v -4.376474 0.866653 0.917695
v -4.375390 0.867523 0.917922
v -4.376474 0.866653 0.917695
v -4.378454 0.867979 0.918568
v -4.377858 0.869176 0.919012
v -4.375390 0.867523 0.917922
v -4.378454 0.867979 0.918568
v -4.375401 0.868810 0.918494
v -4.375390 0.867523 0.917922
v -4.377858 0.869176 0.919012
v -4.376500 0.869545 0.918979
v -4.375401 0.868810 0.918494
v -4.377858 0.869176 0.919012
vn 0.1314 -0.4013 0.9065
vn 0.3931 0.5859 -0.7087
vn -0.4607 0.7130 -0.5286
vn 0.0114 0.8414 -0.5402
vn 0.3970 0.1386 -0.9073
vn -0.4606 0.7130 -0.5286
vn 0.3931 0.5858 -0.7087
vn 0.3971 0.1387 -0.9073
vn -0.6675 0.2972 -0.6827
vn 0.0203 -0.1634 -0.9863
vn 0.3971 0.1386 -0.9073
vn -0.6675 0.2971 -0.6827
vn -0.4535 -0.0929 -0.8864
vn 0.1550 -0.6373 -0.7548
vn 0.7649 -0.1483 -0.6269
vn 0.0203 -0.1634 -0.9864
vn 0.8910 -0.3265 -0.3154
vn 0.7585 0.5757 -0.3054
vn 0.8840 0.4660 0.0364
vn 0.8910 -0.3265 -0.3155
vn 0.7649 -0.1483 -0.6268
vn 0.8884 -0.4572 0.0410
vn 0.8840 0.4661 0.0364
vn 0.8818 0.2894 0.3724
vn 0.1406 0.9895 -0.0326
vn 0.2076 0.9191 0.3350
vn 0.8818 0.2894 0.3725
vn 0.2446 0.7161 0.6537
vn -0.6236 0.7816 -0.0138
vn -0.6289 0.6914 0.3556
vn 0.1405 0.9895 -0.0326
vn -0.6236 0.7816 -0.0139
vn 0.2446 0.7161 0.6538
vn -0.5435 0.5017 0.6730
vn -0.9586 0.1084 -0.2632
vn -0.9956 -0.0454 0.0825
vn -0.6237 0.7816 -0.0138
vn -0.9586 0.1084 -0.2633
vn -0.5435 0.5016 0.6731
vn -0.9955 -0.0454 0.0826
vn -0.8889 -0.1924 0.4158
vn -0.6121 -0.5230 -0.5931
vn -0.6163 -0.7367 -0.2785
vn -0.8888 -0.1925 0.4159
vn -0.5315 -0.8436 0.0757
vn -0.6162 -0.7367 -0.2785
vn 0.1549 -0.6373 -0.7548
vn 0.2233 -0.8617 -0.4556
vn -0.6121 -0.5231 -0.5931
vn 0.1549 -0.6373 -0.7549
vn -0.5315 -0.8437 0.0758
vn 0.2234 -0.8617 -0.4556
vn 0.2594 -0.9615 -0.0911
vn 0.2234 -0.8617 -0.4555
vn 0.7649 -0.1484 -0.6268
vn 0.2594 -0.9615 -0.0910
vn 0.8884 -0.4572 0.0409
vn 0.2549 -0.9519 -0.1702
vn 0.8998 -0.4348 -0.0348
vn -0.9226 -0.1634 0.3495
vn -0.5315 -0.8436 0.0758
vn -0.5562 -0.8311 0.0009
vn -0.9226 -0.1634 0.3496
vn 0.2396 0.7683 0.5935
vn -0.5434 0.5017 0.6730
vn -0.5684 0.5484 0.6133
vn 0.8998 -0.4348 -0.0349
vn 0.8931 0.3307 0.3051
vn -0.5562 -0.8311 0.0008
vn -0.8888 -0.1924 0.4159
vn -0.9225 -0.1634 0.3496
vn 0.8931 0.3308 0.3050
vn 0.8931 0.3307 0.3050
vn -0.9586 0.1083 -0.2633
vn 0.0114 0.8415 -0.5402
vn -0.4606 0.7130 -0.5287
vn -0.6237 0.7816 -0.0139
vn 0.7585 0.5757 -0.3053
vn 0.8939 -0.3341 -0.2988
vn 0.8869 0.4589 0.0532
vn 0.8939 -0.3340 -0.2989
vn -0.6141 -0.7445 -0.2619
vn 0.2259 -0.8696 -0.4391
vn -0.6269 0.6843 0.3725
vn -0.9936 -0.0528 0.0994
vn 0.2397 0.7683 0.5935
vn 0.2102 0.9121 0.3520
vn 0.2259 -0.8696 -0.4390
vn 0.8999 -0.4348 -0.0348
vn -0.9936 -0.0529 0.0994
vn -0.9937 -0.0529 0.0993
vn 0.2101 0.9121 0.3520
vn -0.5684 0.5485 0.6133
vn -0.6268 0.6843 0.3725
vn 0.2101 0.9121 0.3519
vt 0.530319 0.611839
vt 0.522446 0.618118
vt 0.524872 0.613083
vt 0.524872 0.623154
vt 0.534683 0.615326
vt 0.530319 0.624397
vt 0.534683 0.620918
vt 0.537079 0.671494
vt 0.541916 0.669548
vt 0.539566 0.672157
vt 0.536179 0.669609
vt 0.539856 0.666756
vt 0.536224 0.667854
vt 0.537567 0.666748
vt 0.534592 0.666855
vt 0.534012 0.669838
vt 0.530777 0.669685
vt 0.535187 0.673050
vt 0.531769 0.674789
vt 0.525803 0.669067
vt 0.526108 0.676537
vt 0.539017 0.675606
vt 0.536011 0.680244
vt 0.529755 0.684982
vt 0.547180 0.674767
vt 0.546982 0.686485
vt 0.537415 0.696274
vt 0.547180 0.658051
vt 0.540527 0.663902
vt 0.539825 0.659698
vt 0.546280 0.665543
vt 0.543762 0.651657
vt 0.537613 0.655174
vt 0.536758 0.664742
vt 0.535126 0.661980
vt 0.532364 0.658463
vt 0.532074 0.665283
vt 0.528198 0.662933
vt 0.523743 0.660286
vt 0.519989 0.668175
vt 0.535217 0.651588
vt 0.529327 0.654999
vt 0.522873 0.688484
vt 0.528320 0.699394
vt 0.519577 0.678001
vt 0.540466 0.648293
vt 0.604446 0.642853
vt 0.626221 0.647896
vt 0.604553 0.648445
vt 0.626144 0.642670
vt 0.604553 0.631676
vt 0.626144 0.637444
vt 0.604446 0.637268
vt 0.626221 0.632225
vt 0.605011 0.620506
vt 0.626404 0.626999
vt 0.604736 0.626091
vt 0.626663 0.621780
vt 0.626404 0.653114
vt 0.604736 0.654030
vt 0.626663 0.658333
vt 0.605011 0.659607
s 0
usemtl decorations
f 240/1/1 239/2/1 238/3/1
f 237/1/1 236/4/1 235/2/1
f 234/5/1 233/4/1 232/1/1
f 231/5/1 230/6/1 229/4/1
f 228/6/1 227/5/1 226/7/1
s 1
f 225/8/2 224/9/3 223/10/4
f 222/11/5 221/9/6 220/8/7
f 219/11/8 218/12/9 217/9/3
f 216/13/10 215/12/9 214/11/11
f 213/12/12 212/13/10 211/14/13
f 210/15/14 209/11/11 208/16/15
f 207/15/14 206/13/16 205/11/5
f 204/17/17 203/18/18 202/19/19
f 201/17/20 200/16/21 199/18/18
f 198/20/22 197/19/23 196/21/24
f 195/20/22 194/17/17 193/19/23
f 192/19/19 191/22/25 190/23/26
f 189/19/19 188/18/18 187/22/25
f 186/21/27 185/23/26 184/24/28
f 183/21/24 3/19/19 182/23/26
f 181/23/26 180/25/29 179/26/30
f 178/23/26 177/22/31 176/25/32
f 175/24/33 174/26/30 173/27/34
f 172/24/33 4/23/26 171/26/30
f 170/28/30 169/29/35 168/30/36
f 167/28/30 166/31/37 165/29/38
f 164/32/39 163/30/40 162/33/41
f 161/32/39 13/28/30 160/30/36
f 159/30/36 158/34/42 157/35/43
f 156/30/36 155/29/38 154/34/42
f 153/33/44 152/35/43 151/36/45
f 150/33/44 14/30/36 149/35/43
f 148/35/46 147/15/47 146/37/48
f 145/35/46 144/34/49 143/15/50
f 142/36/51 141/37/52 140/38/53
f 139/36/51 16/35/46 138/37/52
f 137/37/54 136/16/55 135/17/17
f 134/37/48 133/15/47 132/16/15
f 131/38/56 130/17/17 129/20/57
f 128/38/56 36/37/48 25/17/17
f 127/39/58 126/20/57 125/40/59
f 124/39/58 123/38/53 122/20/57
f 121/41/60 120/36/61 119/42/62
f 118/41/63 117/33/44 116/36/61
f 115/43/64 114/27/65 113/44/66
f 112/43/64 111/24/28 110/27/65
f 109/40/67 108/21/24 107/45/68
f 106/40/67 40/20/22 105/21/24
f 104/42/69 103/38/53 102/39/58
f 101/42/62 41/36/61 42/38/53
f 100/46/66 99/33/70 98/41/71
f 97/46/66 37/32/39 38/33/70
f 96/45/72 95/24/28 94/43/64
f 93/45/73 33/21/24 34/24/28
f 92/29/38 91/14/13 90/34/42
f 89/29/74 88/12/9 87/14/13
f 86/22/31 85/9/6 84/25/32
f 83/22/31 82/10/75 81/9/76
f 80/16/21 79/8/7 78/18/18
f 29/16/21 30/11/5 77/8/7
f 76/31/77 75/12/9 28/29/38
f 31/31/77 26/9/76 27/12/9
f 74/18/18 73/10/75 24/22/25
f 21/18/78 22/8/7 23/10/4
f 72/34/49 71/13/10 20/15/50
f 17/34/49 18/14/13 19/13/16
f 70/47/79 69/48/73 68/49/80
f 67/47/81 66/50/59 65/48/73
f 64/51/82 63/52/58 62/53/83
f 61/51/82 60/54/62 59/52/58
f 58/55/84 57/56/63 56/57/85
f 55/55/84 54/58/66 53/56/63
f 52/49/80 51/59/86 50/60/87
f 2/49/80 32/48/68 49/59/86
f 48/53/88 47/50/89 12/47/79
f 9/53/83 10/52/58 11/50/59
f 46/57/90 45/54/69 8/51/82
f 5/57/91 6/56/63 7/54/62
f 44/60/92 43/61/93 15/62/94
f 1/60/95 35/59/86 39/61/93
