# Blender 5.0.0
# www.blender.org
mtllib Circle_002_Circle_Dupli_95_decorations_0.mtl
o Circle.002|Circle|Dupli|95_decorations_0
v -4.680701 0.935179 0.408356
v -4.681055 0.934606 0.407119
v -4.675421 0.938547 0.403334
v -4.674916 0.939366 0.405098
v -4.682275 0.937162 0.408530
v -4.678563 0.940231 0.405949
v -4.679257 0.940152 0.404833
v -4.683018 0.937078 0.407337
v -4.682913 0.936128 0.406302
v -4.679159 0.939264 0.403866
v -4.678343 0.938236 0.403776
v -4.682040 0.935028 0.406205
v -4.675690 0.940989 0.405994
v -4.677162 0.942195 0.405347
v -4.681244 0.936317 0.408984
v -4.678222 0.942075 0.403644
v -4.676939 0.942609 0.403029
v -4.675820 0.942713 0.402660
v -4.675741 0.941994 0.401876
v -4.676817 0.941507 0.401828
v -4.674660 0.939739 0.402777
v -4.674333 0.940840 0.402495
v -4.674064 0.941275 0.403432
v -4.674249 0.940405 0.404212
v -4.676826 0.939150 0.402030
v -4.674476 0.942137 0.403908
v -4.675257 0.942777 0.403564
v -4.676076 0.942707 0.404415
v -4.675803 0.940229 0.401716
v -4.675078 0.941160 0.401803
v -4.674879 0.941726 0.404941
v -4.677422 0.937841 0.404630
v -4.676582 0.937947 0.404099
v -4.676144 0.938655 0.405626
v -4.677091 0.938377 0.405786
v -4.678072 0.940720 0.402168
v -4.676815 0.940060 0.406402
v -4.678088 0.941104 0.405841
v -4.677598 0.939441 0.406373
v -4.677798 0.938469 0.402971
v -4.679006 0.941000 0.404368
v -4.678876 0.939827 0.403090
v -4.677598 0.939441 0.406373
v -4.680701 0.935179 0.408356
v -4.679257 0.940152 0.404833
v -4.682275 0.937162 0.408530
v -4.678343 0.938236 0.403776
v -4.682913 0.936128 0.406302
v -4.677091 0.938377 0.405786
v -4.680701 0.935179 0.408356
v -4.677091 0.938377 0.405786
v -4.681055 0.934606 0.407119
v -4.678563 0.940231 0.405949
v -4.677598 0.939441 0.406373
v -4.681244 0.936317 0.408984
v -4.682275 0.937162 0.408530
v -4.678563 0.940231 0.405949
v -4.681244 0.936317 0.408984
v -4.679159 0.939264 0.403866
v -4.679257 0.940152 0.404833
v -4.683018 0.937078 0.407337
v -4.682913 0.936128 0.406302
v -4.679159 0.939264 0.403866
v -4.683018 0.937078 0.407337
v -4.677422 0.937841 0.404630
v -4.678343 0.938236 0.403776
v -4.682040 0.935028 0.406205
v -4.681055 0.934606 0.407119
v -4.677422 0.937841 0.404630
v -4.682040 0.935028 0.406205
v -4.675741 0.941994 0.401876
v -4.676939 0.942609 0.403029
v -4.674064 0.941275 0.403432
v -4.674660 0.939739 0.402777
v -4.675257 0.942777 0.403564
v -4.674879 0.941726 0.404941
v -4.674333 0.940840 0.402495
v -4.674660 0.939739 0.402777
v -4.674333 0.940840 0.402495
v -4.675803 0.940229 0.401716
v -4.674476 0.942137 0.403908
v -4.674064 0.941275 0.403432
v -4.674249 0.940405 0.404212
v -4.674879 0.941726 0.404941
v -4.674476 0.942137 0.403908
v -4.674249 0.940405 0.404212
v -4.675820 0.942713 0.402660
v -4.675257 0.942777 0.403564
v -4.676076 0.942707 0.404415
v -4.676939 0.942609 0.403029
v -4.675820 0.942713 0.402660
v -4.676076 0.942707 0.404415
v -4.677422 0.937841 0.404630
v -4.677091 0.938377 0.405786
v -4.676144 0.938655 0.405626
v -4.677422 0.937841 0.404630
v -4.677598 0.939441 0.406373
v -4.678563 0.940231 0.405949
v -4.678088 0.941104 0.405841
v -4.677598 0.939441 0.406373
v -4.679257 0.940152 0.404833
v -4.679159 0.939264 0.403866
v -4.678876 0.939827 0.403090
v -4.679257 0.940152 0.404833
v -4.676582 0.937947 0.404099
v -4.678343 0.938236 0.403776
v -4.677422 0.937841 0.404630
v -4.676582 0.937947 0.404099
v -4.678343 0.938236 0.403776
v -4.676815 0.940060 0.406402
v -4.676144 0.938655 0.405626
v -4.677091 0.938377 0.405786
v -4.677598 0.939441 0.406373
v -4.676815 0.940060 0.406402
v -4.677091 0.938377 0.405786
v -4.679006 0.941000 0.404368
v -4.678088 0.941104 0.405841
v -4.678563 0.940231 0.405949
v -4.679257 0.940152 0.404833
v -4.679006 0.941000 0.404368
v -4.678563 0.940231 0.405949
v -4.677798 0.938469 0.402971
v -4.678876 0.939827 0.403090
v -4.679159 0.939264 0.403866
v -4.678343 0.938236 0.403776
v -4.677798 0.938469 0.402971
v -4.679159 0.939264 0.403866
v -4.678876 0.939827 0.403090
v -4.677798 0.938469 0.402971
v -4.676826 0.939150 0.402030
v -4.678876 0.939827 0.403090
v -4.675803 0.940229 0.401716
v -4.676817 0.941507 0.401828
v -4.678072 0.940720 0.402168
v -4.676826 0.939150 0.402030
v -4.675803 0.940229 0.401716
v -4.678072 0.940720 0.402168
v -4.678072 0.940720 0.402168
v -4.679006 0.941000 0.404368
v -4.678876 0.939827 0.403090
v -4.678072 0.940720 0.402168
v -4.679006 0.941000 0.404368
v -4.676817 0.941507 0.401828
v -4.676939 0.942609 0.403029
v -4.678222 0.942075 0.403644
v -4.678072 0.940720 0.402168
v -4.676817 0.941507 0.401828
v -4.678222 0.942075 0.403644
v -4.678222 0.942075 0.403644
v -4.678088 0.941104 0.405841
v -4.679006 0.941000 0.404368
v -4.678222 0.942075 0.403644
v -4.678088 0.941104 0.405841
v -4.676939 0.942609 0.403029
v -4.676076 0.942707 0.404415
v -4.677162 0.942195 0.405347
v -4.678222 0.942075 0.403644
v -4.676939 0.942609 0.403029
v -4.677162 0.942195 0.405347
v -4.677162 0.942195 0.405347
v -4.676815 0.940060 0.406402
v -4.678088 0.941104 0.405841
v -4.677162 0.942195 0.405347
v -4.676815 0.940060 0.406402
v -4.676076 0.942707 0.404415
v -4.674879 0.941726 0.404941
v -4.675690 0.940989 0.405994
v -4.677162 0.942195 0.405347
v -4.676076 0.942707 0.404415
v -4.675690 0.940989 0.405994
v -4.675690 0.940989 0.405994
v -4.676144 0.938655 0.405626
v -4.676815 0.940060 0.406402
v -4.675690 0.940989 0.405994
v -4.676144 0.938655 0.405626
v -4.674879 0.941726 0.404941
v -4.674249 0.940405 0.404212
v -4.674916 0.939366 0.405098
v -4.675690 0.940989 0.405994
v -4.674879 0.941726 0.404941
v -4.674916 0.939366 0.405098
v -4.674916 0.939366 0.405098
v -4.676582 0.937947 0.404099
v -4.676144 0.938655 0.405626
v -4.674916 0.939366 0.405098
v -4.676582 0.937947 0.404099
v -4.674249 0.940405 0.404212
v -4.674660 0.939739 0.402777
v -4.675421 0.938547 0.403334
v -4.674916 0.939366 0.405098
v -4.674249 0.940405 0.404212
v -4.675421 0.938547 0.403334
v -4.675421 0.938547 0.403334
v -4.676826 0.939150 0.402030
v -4.677798 0.938469 0.402971
v -4.676582 0.937947 0.404099
v -4.675421 0.938547 0.403334
v -4.677798 0.938469 0.402971
v -4.674660 0.939739 0.402777
v -4.675803 0.940229 0.401716
v -4.676826 0.939150 0.402030
v -4.675421 0.938547 0.403334
v -4.674660 0.939739 0.402777
v -4.676826 0.939150 0.402030
v -4.675078 0.941160 0.401803
v -4.675741 0.941994 0.401876
v -4.676817 0.941507 0.401828
v -4.675803 0.940229 0.401716
v -4.675078 0.941160 0.401803
v -4.676817 0.941507 0.401828
v -4.675820 0.942713 0.402660
v -4.675741 0.941994 0.401876
v -4.675257 0.942777 0.403564
v -4.675078 0.941160 0.401803
v -4.675257 0.942777 0.403564
v -4.675741 0.941994 0.401876
v -4.674476 0.942137 0.403908
v -4.675257 0.942777 0.403564
v -4.675078 0.941160 0.401803
v -4.674333 0.940840 0.402495
v -4.674476 0.942137 0.403908
v -4.675078 0.941160 0.401803
v -4.674064 0.941275 0.403432
v -4.674476 0.942137 0.403908
v -4.674333 0.940840 0.402495
v -4.683018 0.937078 0.407337
v -4.682275 0.937162 0.408530
v -4.682913 0.936128 0.406302
v -4.682040 0.935028 0.406205
v -4.682913 0.936128 0.406302
v -4.682275 0.937162 0.408530
v -4.681244 0.936317 0.408984
v -4.682040 0.935028 0.406205
v -4.682275 0.937162 0.408530
v -4.681055 0.934606 0.407119
v -4.682040 0.935028 0.406205
v -4.681244 0.936317 0.408984
v -4.680701 0.935179 0.408356
v -4.681055 0.934606 0.407119
v -4.681244 0.936317 0.408984
vn -0.6749 -0.5764 0.4607
vn 0.8483 0.0164 -0.5292
vn 0.7827 0.6111 0.1185
vn 0.9714 0.2157 -0.0997
vn 0.5061 0.1632 -0.8469
vn 0.7827 0.6110 0.1185
vn 0.8483 0.0164 -0.5293
vn 0.5062 0.1631 -0.8468
vn 0.4244 0.9046 -0.0392
vn 0.2026 0.5455 -0.8133
vn 0.4244 0.9046 -0.0391
vn 0.5062 0.1631 -0.8469
vn 0.4243 0.9047 -0.0392
vn 0.2026 0.5454 -0.8133
vn 0.1662 0.8755 -0.4538
vn -0.2989 0.3477 -0.8887
vn 0.5062 0.1632 -0.8468
vn 0.1925 -0.2712 -0.9431
vn 0.2027 0.5455 -0.8132
vn -0.0653 -0.5326 -0.8438
vn 0.7464 -0.5088 -0.4289
vn 0.5410 -0.7926 -0.2811
vn -0.0653 -0.5325 -0.8439
vn 0.7464 -0.5088 -0.4290
vn -0.3132 -0.7167 -0.6231
vn 0.2580 -0.9617 -0.0929
vn -0.0653 -0.5326 -0.8439
vn 0.5411 -0.7926 -0.2811
vn 0.9457 -0.1861 0.2665
vn 0.7591 -0.4394 0.4802
vn 0.9457 -0.1861 0.2666
vn 0.2579 -0.9617 -0.0929
vn 0.7592 -0.4394 0.4802
vn 0.4634 -0.6289 0.6242
vn 0.6402 0.4538 0.6198
vn 0.4248 0.2611 0.8668
vn 0.6403 0.4538 0.6197
vn 0.4634 -0.6289 0.6243
vn 0.1485 0.0310 0.9884
vn 0.4247 0.2611 0.8668
vn 0.0601 0.9292 0.3646
vn -0.2102 0.7814 0.5875
vn 0.6402 0.4539 0.6198
vn 0.0602 0.9292 0.3646
vn 0.1484 0.0310 0.9884
vn -0.2102 0.7814 0.5876
vn -0.4497 0.5212 0.7254
vn -0.2101 0.7814 0.5876
vn -0.3578 0.8820 -0.3067
vn -0.6677 0.7297 -0.1473
vn -0.4498 0.5211 0.7253
vn -0.8807 0.4725 0.0331
vn -0.2989 0.3478 -0.8887
vn -0.6032 0.1449 -0.7843
vn -0.8808 0.4724 0.0331
vn -0.8200 -0.0784 -0.5670
vn -0.8807 0.4724 0.0331
vn -0.0652 -0.5326 -0.8439
vn -0.6031 0.1450 -0.7843
vn -0.8200 -0.0785 -0.5670
vn -0.6032 0.1450 -0.7843
vn -0.7836 -0.0316 -0.6205
vn -0.2640 -0.6861 -0.6780
vn -0.4040 0.5833 0.7047
vn -0.8459 0.5333 -0.0051
vn -0.4498 0.5211 0.7254
vn 0.5324 -0.5960 0.6011
vn 0.2094 0.0806 0.9745
vn 0.5324 -0.5961 0.6011
vn -0.2639 -0.6860 -0.6780
vn 0.2579 -0.9617 -0.0930
vn 0.3216 -0.9373 -0.1344
vn -0.2640 -0.6860 -0.6780
vn -0.3133 -0.7167 -0.6231
vn 0.2094 0.0807 0.9745
vn -0.4497 0.5211 0.7254
vn -0.4040 0.5832 0.7047
vn 0.3217 -0.9373 -0.1344
vn 0.7827 0.6110 0.1184
vn 0.1926 -0.2713 -0.9430
vn 0.6402 0.4539 0.6197
vn 0.7464 -0.5089 -0.4289
vn 0.2027 0.5455 -0.8133
vn -0.0778 -0.5435 -0.8358
vn 0.5288 -0.8037 -0.2727
vn -0.0777 -0.5435 -0.8358
vn -0.6805 0.7194 -0.1389
vn -0.6160 0.1344 -0.7762
vn -0.6805 0.7195 -0.1389
vn 0.4125 0.2506 0.8758
vn -0.2227 0.7712 0.5964
vn 0.4125 0.2507 0.8758
vn 0.7470 -0.4504 0.4890
vn 0.5289 -0.8037 -0.2727
vn -0.6160 0.1343 -0.7762
vn -0.2639 -0.6861 -0.6780
vn -0.6159 0.1344 -0.7762
vn -0.2228 0.7712 0.5964
vn 0.7470 -0.4503 0.4890
vn 0.2095 0.0806 0.9745
vn 0.7471 -0.4503 0.4890
vt 0.543243 0.611839
vt 0.535370 0.618118
vt 0.537796 0.613083
vt 0.537796 0.623154
vt 0.547607 0.615326
vt 0.543243 0.624397
vt 0.547607 0.620918
vt 0.565384 0.671494
vt 0.570206 0.669548
vt 0.567856 0.672157
vt 0.564468 0.669609
vt 0.568146 0.666756
vt 0.564514 0.667854
vt 0.565857 0.666748
vt 0.562897 0.666855
vt 0.562302 0.669838
vt 0.559082 0.669685
vt 0.563492 0.673050
vt 0.560059 0.674789
vt 0.554092 0.669067
vt 0.554398 0.676537
vt 0.567307 0.675606
vt 0.564316 0.680244
vt 0.558044 0.684982
vt 0.575485 0.674767
vt 0.575272 0.686485
vt 0.565720 0.696274
vt 0.575485 0.658051
vt 0.568817 0.663902
vt 0.568115 0.659698
vt 0.574570 0.665543
vt 0.572052 0.651657
vt 0.565903 0.655174
vt 0.565063 0.664742
vt 0.563416 0.661980
vt 0.560669 0.658463
vt 0.560364 0.665283
vt 0.556488 0.662933
vt 0.552032 0.660286
vt 0.548294 0.668175
vt 0.563522 0.651588
vt 0.557617 0.654999
vt 0.551163 0.688484
vt 0.556610 0.699394
vt 0.547867 0.678001
vt 0.568756 0.648293
vt 0.604446 0.682632
vt 0.626221 0.687675
vt 0.604553 0.688225
vt 0.626144 0.682457
vt 0.604553 0.671455
vt 0.626144 0.677231
vt 0.604446 0.677048
vt 0.626221 0.672005
vt 0.605011 0.660294
vt 0.626404 0.666786
vt 0.604736 0.665871
vt 0.626663 0.661568
vt 0.626404 0.692902
vt 0.604736 0.693810
vt 0.626663 0.698120
vt 0.605011 0.699394
s 0
usemtl decorations
f 240/1/1 239/2/1 238/3/1
f 237/1/1 236/4/1 235/2/1
f 234/5/1 233/4/1 232/1/1
f 231/5/1 230/6/1 229/4/1
f 228/6/1 227/5/1 226/7/1
s 1
f 225/8/2 224/9/3 223/10/4
f 222/11/5 221/9/6 220/8/7
f 219/11/8 218/12/9 217/9/3
f 216/13/10 215/12/11 214/11/12
f 213/12/13 212/13/14 211/14/15
f 210/15/16 209/11/17 208/16/18
f 207/15/16 206/13/19 205/11/17
f 204/17/20 203/18/21 202/19/22
f 201/17/23 200/16/18 199/18/24
f 198/20/25 197/19/22 196/21/26
f 195/20/25 194/17/27 193/19/28
f 192/19/22 191/22/29 190/23/30
f 189/19/22 188/18/21 187/22/31
f 186/21/32 185/23/33 184/24/34
f 183/21/32 3/19/22 182/23/33
f 181/23/30 180/25/35 179/26/36
f 178/23/30 177/22/31 176/25/37
f 175/24/38 174/26/36 173/27/39
f 172/24/38 4/23/30 171/26/36
f 170/28/40 169/29/41 168/30/42
f 167/28/36 166/31/43 165/29/44
f 164/32/45 163/30/46 162/33/47
f 161/32/45 13/28/36 160/30/48
f 159/30/42 158/34/49 157/35/50
f 156/30/42 155/29/41 154/34/49
f 153/33/51 152/35/50 151/36/52
f 150/33/51 14/30/42 149/35/50
f 148/35/50 147/15/53 146/37/54
f 145/35/50 144/34/49 143/15/53
f 142/36/55 141/37/54 140/38/56
f 139/36/57 16/35/50 138/37/54
f 137/37/54 136/16/18 135/17/58
f 134/37/59 133/15/16 132/16/18
f 131/38/60 130/17/58 129/20/25
f 128/38/56 36/37/61 25/17/58
f 127/39/62 126/20/25 125/40/63
f 124/39/62 123/38/56 122/20/25
f 121/41/64 120/36/52 119/42/65
f 118/41/64 117/33/66 116/36/52
f 115/43/67 114/27/39 113/44/68
f 112/43/69 111/24/38 110/27/39
f 109/40/70 108/21/71 107/45/72
f 106/40/73 40/20/74 105/21/71
f 104/42/65 103/38/56 102/39/62
f 101/42/65 41/36/52 42/38/56
f 100/46/75 99/33/76 98/41/77
f 97/46/68 37/32/45 38/33/76
f 96/45/78 95/24/34 94/43/69
f 93/45/78 33/21/32 34/24/34
f 92/29/41 91/14/15 90/34/49
f 89/29/41 88/12/9 87/14/15
f 86/22/31 85/9/79 84/25/37
f 83/22/31 82/10/4 81/9/79
f 80/16/80 79/8/7 78/18/24
f 29/16/80 30/11/5 77/8/7
f 76/31/81 75/12/9 28/29/44
f 31/31/81 26/9/79 27/12/9
f 74/18/21 73/10/4 24/22/31
f 21/18/82 22/8/7 23/10/4
f 72/34/49 71/13/10 20/15/16
f 17/34/49 18/14/15 19/13/83
f 70/47/84 69/48/78 68/49/85
f 67/47/86 66/50/73 65/48/78
f 64/51/87 63/52/62 62/53/88
f 61/51/89 60/54/65 59/52/62
f 58/55/90 57/56/64 56/57/91
f 55/55/92 54/58/68 53/56/77
f 52/49/85 51/59/69 50/60/93
f 2/49/94 32/48/78 49/59/69
f 48/53/95 47/50/96 12/47/84
f 9/53/97 10/52/62 11/50/63
f 46/57/98 45/54/65 8/51/89
f 5/57/91 6/56/64 7/54/65
f 44/60/99 43/61/100 15/62/90
f 1/60/101 35/59/69 39/61/68
