# Blender 5.0.0
# www.blender.org
mtllib Circle_005_Circle_004_Dupli_144_decorations_0.mtl
o Circle.005|Circle.004|Dupli|144_decorations_0
v -4.264030 1.198161 0.714068
v -4.265166 1.197534 0.714616
v -4.264159 1.201083 0.721543
v -4.262539 1.201978 0.720762
v -4.262201 1.196440 0.714437
v -4.261190 1.198683 0.719316
v -4.261830 1.197699 0.719913
v -4.262886 1.195388 0.715075
v -4.264248 1.195310 0.715423
v -4.263103 1.197626 0.720239
v -4.264052 1.198518 0.720048
v -4.265263 1.196265 0.715219
v -4.260657 1.201284 0.720649
v -4.259930 1.199523 0.721288
v -4.262711 1.197675 0.713988
v -4.260906 1.198022 0.722199
v -4.260848 1.198959 0.723394
v -4.261011 1.199883 0.724115
v -4.262043 1.199824 0.724379
v -4.262430 1.198869 0.723798
v -4.263495 1.201450 0.722860
v -4.262738 1.201509 0.723767
v -4.261878 1.201984 0.723352
v -4.262177 1.202179 0.722225
v -4.264297 1.199273 0.722404
v -4.260878 1.201615 0.723292
v -4.260492 1.200680 0.723632
v -4.260054 1.200181 0.722652
v -4.263608 1.199977 0.723560
v -4.262812 1.200547 0.724224
v -4.260645 1.201614 0.722132
v -4.263961 1.199705 0.719484
v -4.264197 1.200316 0.720239
v -4.262794 1.201091 0.719562
v -4.262899 1.200291 0.718972
v -4.262850 1.197910 0.722696
v -4.261165 1.200490 0.719464
v -4.260537 1.198966 0.720018
v -4.261666 1.199836 0.718897
v -4.264317 1.198749 0.720983
v -4.261381 1.197666 0.720806
v -4.263064 1.197570 0.721236
v -4.261666 1.199836 0.718897
v -4.264030 1.198161 0.714068
v -4.261830 1.197699 0.719913
v -4.262201 1.196440 0.714437
v -4.264052 1.198518 0.720048
v -4.264248 1.195310 0.715423
v -4.262899 1.200291 0.718972
v -4.264030 1.198161 0.714068
v -4.262899 1.200291 0.718972
v -4.265166 1.197534 0.714616
v -4.261190 1.198683 0.719316
v -4.261666 1.199836 0.718897
v -4.262711 1.197675 0.713988
v -4.262201 1.196440 0.714437
v -4.261190 1.198683 0.719316
v -4.262711 1.197675 0.713988
v -4.263103 1.197626 0.720239
v -4.261830 1.197699 0.719913
v -4.262886 1.195388 0.715075
v -4.264248 1.195310 0.715423
v -4.263103 1.197626 0.720239
v -4.262886 1.195388 0.715075
v -4.263961 1.199705 0.719484
v -4.264052 1.198518 0.720048
v -4.265263 1.196265 0.715219
v -4.265166 1.197534 0.714616
v -4.263961 1.199705 0.719484
v -4.265263 1.196265 0.715219
v -4.262043 1.199824 0.724379
v -4.260848 1.198959 0.723394
v -4.261878 1.201984 0.723352
v -4.263495 1.201450 0.722860
v -4.260492 1.200680 0.723632
v -4.260645 1.201614 0.722132
v -4.262738 1.201509 0.723767
v -4.263495 1.201450 0.722860
v -4.262738 1.201509 0.723767
v -4.263608 1.199977 0.723560
v -4.260878 1.201615 0.723292
v -4.261878 1.201984 0.723352
v -4.262177 1.202179 0.722225
v -4.260645 1.201614 0.722132
v -4.260878 1.201615 0.723292
v -4.262177 1.202179 0.722225
v -4.261011 1.199883 0.724115
v -4.260492 1.200680 0.723632
v -4.260054 1.200181 0.722652
v -4.260848 1.198959 0.723394
v -4.261011 1.199883 0.724115
v -4.260054 1.200181 0.722652
v -4.263961 1.199705 0.719484
v -4.262899 1.200291 0.718972
v -4.262794 1.201091 0.719562
v -4.263961 1.199705 0.719484
v -4.261666 1.199836 0.718897
v -4.261190 1.198683 0.719316
v -4.260537 1.198966 0.720018
v -4.261666 1.199836 0.718897
v -4.261830 1.197699 0.719913
v -4.263103 1.197626 0.720239
v -4.263064 1.197570 0.721236
v -4.261830 1.197699 0.719913
v -4.264197 1.200316 0.720239
v -4.264052 1.198518 0.720048
v -4.263961 1.199705 0.719484
v -4.264197 1.200316 0.720239
v -4.264052 1.198518 0.720048
v -4.261165 1.200490 0.719464
v -4.262794 1.201091 0.719562
v -4.262899 1.200291 0.718972
v -4.261666 1.199836 0.718897
v -4.261165 1.200490 0.719464
v -4.262899 1.200291 0.718972
v -4.261381 1.197666 0.720806
v -4.260537 1.198966 0.720018
v -4.261190 1.198683 0.719316
v -4.261830 1.197699 0.719913
v -4.261381 1.197666 0.720806
v -4.261190 1.198683 0.719316
v -4.264317 1.198749 0.720983
v -4.263064 1.197570 0.721236
v -4.263103 1.197626 0.720239
v -4.264052 1.198518 0.720048
v -4.264317 1.198749 0.720983
v -4.263103 1.197626 0.720239
v -4.263064 1.197570 0.721236
v -4.264317 1.198749 0.720983
v -4.264297 1.199273 0.722404
v -4.263064 1.197570 0.721236
v -4.263608 1.199977 0.723560
v -4.262430 1.198869 0.723798
v -4.262850 1.197910 0.722696
v -4.264297 1.199273 0.722404
v -4.263608 1.199977 0.723560
v -4.262850 1.197910 0.722696
v -4.262850 1.197910 0.722696
v -4.261381 1.197666 0.720806
v -4.263064 1.197570 0.721236
v -4.262850 1.197910 0.722696
v -4.261381 1.197666 0.720806
v -4.262430 1.198869 0.723798
v -4.260848 1.198959 0.723394
v -4.260906 1.198022 0.722199
v -4.262850 1.197910 0.722696
v -4.262430 1.198869 0.723798
v -4.260906 1.198022 0.722199
v -4.260906 1.198022 0.722199
v -4.260537 1.198966 0.720018
v -4.261381 1.197666 0.720806
v -4.260906 1.198022 0.722199
v -4.260537 1.198966 0.720018
v -4.260848 1.198959 0.723394
v -4.260054 1.200181 0.722652
v -4.259930 1.199523 0.721288
v -4.260906 1.198022 0.722199
v -4.260848 1.198959 0.723394
v -4.259930 1.199523 0.721288
v -4.259930 1.199523 0.721288
v -4.261165 1.200490 0.719464
v -4.260537 1.198966 0.720018
v -4.259930 1.199523 0.721288
v -4.261165 1.200490 0.719464
v -4.260054 1.200181 0.722652
v -4.260645 1.201614 0.722132
v -4.260657 1.201284 0.720649
v -4.259930 1.199523 0.721288
v -4.260054 1.200181 0.722652
v -4.260657 1.201284 0.720649
v -4.260657 1.201284 0.720649
v -4.262794 1.201091 0.719562
v -4.261165 1.200490 0.719464
v -4.260657 1.201284 0.720649
v -4.262794 1.201091 0.719562
v -4.260645 1.201614 0.722132
v -4.262177 1.202179 0.722225
v -4.262539 1.201978 0.720762
v -4.260657 1.201284 0.720649
v -4.260645 1.201614 0.722132
v -4.262539 1.201978 0.720762
v -4.262539 1.201978 0.720762
v -4.264197 1.200316 0.720239
v -4.262794 1.201091 0.719562
v -4.262539 1.201978 0.720762
v -4.264197 1.200316 0.720239
v -4.262177 1.202179 0.722225
v -4.263495 1.201450 0.722860
v -4.264159 1.201083 0.721543
v -4.262539 1.201978 0.720762
v -4.262177 1.202179 0.722225
v -4.264159 1.201083 0.721543
v -4.264159 1.201083 0.721543
v -4.264297 1.199273 0.722404
v -4.264317 1.198749 0.720983
v -4.264197 1.200316 0.720239
v -4.264159 1.201083 0.721543
v -4.264317 1.198749 0.720983
v -4.263495 1.201450 0.722860
v -4.263608 1.199977 0.723560
v -4.264297 1.199273 0.722404
v -4.264159 1.201083 0.721543
v -4.263495 1.201450 0.722860
v -4.264297 1.199273 0.722404
v -4.262812 1.200547 0.724224
v -4.262043 1.199824 0.724379
v -4.262430 1.198869 0.723798
v -4.263608 1.199977 0.723560
v -4.262812 1.200547 0.724224
v -4.262430 1.198869 0.723798
v -4.261011 1.199883 0.724115
v -4.262043 1.199824 0.724379
v -4.260492 1.200680 0.723632
v -4.262812 1.200547 0.724224
v -4.260492 1.200680 0.723632
v -4.262043 1.199824 0.724379
v -4.260878 1.201615 0.723292
v -4.260492 1.200680 0.723632
v -4.262812 1.200547 0.724224
v -4.262738 1.201509 0.723767
v -4.260878 1.201615 0.723292
v -4.262812 1.200547 0.724224
v -4.261878 1.201984 0.723352
v -4.260878 1.201615 0.723292
v -4.262738 1.201509 0.723767
v -4.262886 1.195388 0.715075
v -4.262201 1.196440 0.714437
v -4.264248 1.195310 0.715423
v -4.265263 1.196265 0.715219
v -4.264248 1.195310 0.715423
v -4.262201 1.196440 0.714437
v -4.262711 1.197675 0.713988
v -4.265263 1.196265 0.715219
v -4.262201 1.196440 0.714437
v -4.265166 1.197534 0.714616
v -4.265263 1.196265 0.715219
v -4.262711 1.197675 0.713988
v -4.264030 1.198161 0.714068
v -4.265166 1.197534 0.714616
v -4.262711 1.197675 0.713988
vn -0.2040 -0.4075 -0.8901
vn -0.3108 0.6326 0.7094
vn 0.5422 0.6814 0.4916
vn 0.0838 0.8505 0.5192
vn -0.3445 0.1916 0.9190
vn 0.5422 0.6815 0.4916
vn -0.3108 0.6325 0.7095
vn -0.3445 0.1917 0.9190
vn 0.7191 0.2527 0.6473
vn 0.0081 -0.1402 0.9901
vn 0.7191 0.2526 0.6473
vn 0.0080 -0.1401 0.9901
vn 0.4814 -0.1130 0.8692
vn -0.1765 -0.6054 0.7761
vn -0.7472 -0.0683 0.6611
vn 0.0081 -0.1401 0.9901
vn -0.9014 -0.2414 0.3595
vn -0.6927 0.6455 0.3218
vn -0.8416 0.5399 -0.0118
vn -0.9013 -0.2414 0.3596
vn -0.7473 -0.0683 0.6610
vn -0.9252 -0.3794 0.0067
vn -0.8416 0.5400 -0.0118
vn -0.8689 0.3567 -0.3431
vn -0.9014 -0.2414 0.3596
vn -0.8416 0.5400 -0.0117
vn -0.0538 0.9985 0.0138
vn -0.1423 0.9263 -0.3489
vn -0.6927 0.6455 0.3217
vn -0.8689 0.3567 -0.3432
vn -0.1424 0.9263 -0.3489
vn -0.2102 0.7206 -0.6607
vn 0.6883 0.7248 -0.0310
vn 0.6700 0.6267 -0.3980
vn -0.2102 0.7206 -0.6608
vn 0.5551 0.4384 -0.7069
vn 0.9748 0.0306 0.2211
vn 0.9836 -0.1331 -0.1220
vn 0.5551 0.4383 -0.7069
vn 0.9836 -0.1332 -0.1220
vn 0.8505 -0.2774 -0.4469
vn 0.5900 -0.5614 0.5803
vn 0.5623 -0.7812 0.2712
vn 0.9748 0.0305 0.2211
vn 0.8504 -0.2775 -0.4469
vn 0.4536 -0.8879 -0.0765
vn -0.1764 -0.6054 0.7761
vn -0.2766 -0.8293 0.4855
vn 0.5899 -0.5614 0.5803
vn -0.3366 -0.9333 0.1254
vn -0.7472 -0.0683 0.6610
vn -0.2766 -0.8293 0.4856
vn -0.3366 -0.9333 0.1253
vn -0.2765 -0.8293 0.4855
vn -0.3279 -0.9224 0.2040
vn -0.9314 -0.3545 0.0823
vn 0.8894 -0.2500 -0.3828
vn 0.4537 -0.8879 -0.0765
vn 0.4824 -0.8759 -0.0030
vn 0.8504 -0.2775 -0.4470
vn -0.1982 0.7735 -0.6020
vn 0.5550 0.4384 -0.7069
vn 0.5864 0.4841 -0.6494
vn -0.1982 0.7735 -0.6021
vn -0.2101 0.7206 -0.6607
vn -0.9314 -0.3545 0.0824
vn -0.8737 0.4002 -0.2764
vn 0.4825 -0.8759 -0.0030
vn 0.5865 0.4841 -0.6494
vn -0.8737 0.4003 -0.2764
vn -0.1982 0.7734 -0.6021
vn -0.7473 -0.0682 0.6610
vn 0.5899 -0.5614 0.5804
vn -0.9056 -0.2490 0.3433
vn -0.8458 0.5327 -0.0283
vn 0.5588 -0.7892 0.2549
vn -0.2804 -0.8373 0.4693
vn 0.5588 -0.7891 0.2550
vn 0.6666 0.6195 -0.4146
vn 0.9803 -0.1407 -0.1385
vn -0.1462 0.9192 -0.3656
vn -0.2805 -0.8373 0.4693
vn -0.9314 -0.3544 0.0823
vn -0.9056 -0.2491 0.3433
vn 0.9803 -0.1408 -0.1385
vn 0.5588 -0.7891 0.2549
vn -0.1462 0.9192 -0.3655
vt 0.530319 0.635056
vt 0.522446 0.641335
vt 0.524872 0.636299
vt 0.524872 0.646370
vt 0.534683 0.638535
vt 0.530319 0.647614
vt 0.534683 0.644127
vt 0.508789 0.671494
vt 0.513626 0.669548
vt 0.511276 0.672157
vt 0.507889 0.669609
vt 0.511566 0.666756
vt 0.507935 0.667854
vt 0.509277 0.666748
vt 0.506302 0.666855
vt 0.505722 0.669838
vt 0.502487 0.669685
vt 0.506897 0.673050
vt 0.503479 0.674789
vt 0.497520 0.669067
vt 0.497810 0.676537
vt 0.510727 0.675606
vt 0.507721 0.680244
vt 0.501465 0.684982
vt 0.518890 0.674767
vt 0.518692 0.686485
vt 0.509125 0.696274
vt 0.518890 0.658051
vt 0.512238 0.663902
vt 0.511536 0.659698
vt 0.517990 0.665543
vt 0.515472 0.651657
vt 0.509323 0.655174
vt 0.508469 0.664742
vt 0.506836 0.661980
vt 0.504074 0.658463
vt 0.503784 0.665283
vt 0.499901 0.662933
vt 0.495453 0.660286
vt 0.491707 0.668175
vt 0.506927 0.651588
vt 0.501038 0.654999
vt 0.494583 0.688484
vt 0.500031 0.699394
vt 0.491287 0.678001
vt 0.512177 0.648293
vt 0.627350 0.642853
vt 0.649124 0.647896
vt 0.627441 0.648445
vt 0.649033 0.642670
vt 0.627441 0.631676
vt 0.649033 0.637444
vt 0.627350 0.637268
vt 0.649124 0.632225
vt 0.627914 0.620506
vt 0.649292 0.626999
vt 0.627625 0.626091
vt 0.649551 0.621780
vt 0.649292 0.653114
vt 0.627625 0.654030
vt 0.649551 0.658333
vt 0.627914 0.659607
s 0
usemtl decorations
f 240/1/1 239/2/1 238/3/1
f 237/1/1 236/4/1 235/2/1
f 234/5/1 233/4/1 232/1/1
f 231/5/1 230/6/1 229/4/1
f 228/6/1 227/5/1 226/7/1
s 1
f 225/8/2 224/9/3 223/10/4
f 222/11/5 221/9/6 220/8/7
f 219/11/8 218/12/9 217/9/3
f 216/13/10 215/12/9 214/11/5
f 213/12/11 212/13/12 211/14/13
f 210/15/14 209/11/8 208/16/15
f 207/15/14 206/13/16 205/11/5
f 204/17/17 203/18/18 202/19/19
f 201/17/20 200/16/21 199/18/18
f 198/20/22 197/19/23 196/21/24
f 195/20/22 194/17/25 193/19/26
f 192/19/19 191/22/27 190/23/28
f 189/19/19 188/18/29 187/22/27
f 186/21/30 185/23/31 184/24/32
f 183/21/30 3/19/19 182/23/31
f 181/23/28 180/25/33 179/26/34
f 178/23/28 177/22/27 176/25/33
f 175/24/35 174/26/34 173/27/36
f 172/24/32 4/23/28 171/26/34
f 170/28/34 169/29/37 168/30/38
f 167/28/34 166/31/33 165/29/37
f 164/32/39 163/30/40 162/33/41
f 161/32/36 13/28/34 160/30/38
f 159/30/40 158/34/42 157/35/43
f 156/30/38 155/29/44 154/34/42
f 153/33/45 152/35/43 151/36/46
f 150/33/45 14/30/40 149/35/43
f 148/35/43 147/15/47 146/37/48
f 145/35/43 144/34/49 143/15/47
f 142/36/46 141/37/48 140/38/50
f 139/36/46 16/35/43 138/37/48
f 137/37/48 136/16/51 135/17/25
f 134/37/52 133/15/14 132/16/15
f 131/38/53 130/17/17 129/20/22
f 128/38/53 36/37/54 25/17/17
f 127/39/55 126/20/22 125/40/56
f 124/39/55 123/38/50 122/20/22
f 121/41/57 120/36/58 119/42/59
f 118/41/57 117/33/60 116/36/58
f 115/43/61 114/27/62 113/44/63
f 112/43/64 111/24/65 110/27/62
f 109/40/66 108/21/24 107/45/67
f 106/40/56 40/20/22 105/21/24
f 104/42/68 103/38/50 102/39/55
f 101/42/68 41/36/46 42/38/50
f 100/46/69 99/33/41 98/41/57
f 97/46/63 37/32/36 38/33/41
f 96/45/70 95/24/32 94/43/71
f 93/45/70 33/21/24 34/24/32
f 92/29/44 91/14/13 90/34/42
f 89/29/44 88/12/9 87/14/13
f 86/22/27 85/9/6 84/25/33
f 83/22/27 82/10/4 81/9/6
f 80/16/72 79/8/7 78/18/18
f 29/16/72 30/11/5 77/8/7
f 76/31/33 75/12/9 28/29/37
f 31/31/33 26/9/6 27/12/9
f 74/18/29 73/10/4 24/22/27
f 21/18/29 22/8/7 23/10/4
f 72/34/73 71/13/16 20/15/47
f 17/34/73 18/14/13 19/13/16
f 70/47/74 69/48/70 68/49/75
f 67/47/74 66/50/56 65/48/67
f 64/51/76 63/52/55 62/53/77
f 61/51/78 60/54/59 59/52/55
f 58/55/79 57/56/57 56/57/80
f 55/55/79 54/58/63 53/56/57
f 52/49/75 51/59/61 50/60/81
f 2/49/75 32/48/67 49/59/61
f 48/53/82 47/50/83 12/47/84
f 9/53/82 10/52/55 11/50/56
f 46/57/85 45/54/59 8/51/86
f 5/57/80 6/56/57 7/54/59
f 44/60/81 43/61/63 15/62/79
f 1/60/87 35/59/71 39/61/63
