# Blender 5.0.0
# www.blender.org
mtllib Circle_002_Circle_001_Dupli_114_decorations_0.mtl
o Circle.002|Circle.001|Dupli|114_decorations_0
v -4.330514 0.565645 0.304429
v -4.329336 0.566092 0.303801
v -4.328291 0.571762 0.309127
v -4.329972 0.571124 0.310023
v -4.332334 0.566873 0.303156
v -4.331912 0.571005 0.306707
v -4.331231 0.571708 0.305826
v -4.331605 0.567624 0.302214
v -4.330211 0.567680 0.302025
v -4.329927 0.571760 0.305649
v -4.328983 0.571122 0.306309
v -4.329201 0.566998 0.302731
v -4.331876 0.571619 0.309614
v -4.332569 0.572876 0.308208
v -4.331849 0.565992 0.304142
v -4.331529 0.573948 0.306863
v -4.331210 0.574807 0.308075
v -4.330796 0.575182 0.309118
v -4.329739 0.575224 0.308975
v -4.329591 0.574872 0.307855
v -4.328575 0.573029 0.309917
v -4.329076 0.574022 0.310320
v -4.329969 0.573683 0.310796
v -4.329943 0.572509 0.310646
v -4.328098 0.573054 0.307600
v -4.330980 0.573946 0.310579
v -4.331348 0.574613 0.309832
v -4.332056 0.573936 0.309169
v -4.328418 0.574080 0.308675
v -4.328974 0.574708 0.309510
v -4.331492 0.572913 0.310314
v -4.329109 0.570276 0.307310
v -4.328643 0.570755 0.308052
v -4.330098 0.570202 0.308828
v -4.330211 0.569857 0.307897
v -4.329539 0.574027 0.306593
v -4.331746 0.570631 0.308474
v -4.332345 0.571719 0.307257
v -4.331458 0.570182 0.307629
v -4.328476 0.571874 0.306731
v -4.331445 0.572647 0.306093
v -4.329723 0.572715 0.305859
v -4.331458 0.570182 0.307629
v -4.330514 0.565645 0.304429
v -4.331231 0.571708 0.305826
v -4.332334 0.566873 0.303156
v -4.328983 0.571122 0.306309
v -4.330211 0.567680 0.302025
v -4.330211 0.569857 0.307897
v -4.330514 0.565645 0.304429
v -4.330211 0.569857 0.307897
v -4.329336 0.566092 0.303801
v -4.331912 0.571005 0.306707
v -4.331458 0.570182 0.307629
v -4.331849 0.565992 0.304142
v -4.332334 0.566873 0.303156
v -4.331912 0.571005 0.306707
v -4.331849 0.565992 0.304142
v -4.329927 0.571760 0.305649
v -4.331231 0.571708 0.305826
v -4.331605 0.567624 0.302214
v -4.330211 0.567680 0.302025
v -4.329927 0.571760 0.305649
v -4.331605 0.567624 0.302214
v -4.329109 0.570276 0.307310
v -4.328983 0.571122 0.306309
v -4.329201 0.566998 0.302731
v -4.329336 0.566092 0.303801
v -4.329109 0.570276 0.307310
v -4.329201 0.566998 0.302731
v -4.329739 0.575224 0.308975
v -4.331210 0.574807 0.308075
v -4.329969 0.573683 0.310796
v -4.328575 0.573029 0.309917
v -4.331348 0.574613 0.309832
v -4.331492 0.572913 0.310314
v -4.329076 0.574022 0.310320
v -4.328575 0.573029 0.309917
v -4.329076 0.574022 0.310320
v -4.328418 0.574080 0.308675
v -4.330980 0.573946 0.310579
v -4.329969 0.573683 0.310796
v -4.329943 0.572509 0.310646
v -4.331492 0.572913 0.310314
v -4.330980 0.573946 0.310579
v -4.329943 0.572509 0.310646
v -4.330796 0.575182 0.309118
v -4.331348 0.574613 0.309832
v -4.332056 0.573936 0.309169
v -4.331210 0.574807 0.308075
v -4.330796 0.575182 0.309118
v -4.332056 0.573936 0.309169
v -4.329109 0.570276 0.307310
v -4.330211 0.569857 0.307897
v -4.330098 0.570202 0.308828
v -4.329109 0.570276 0.307310
v -4.331458 0.570182 0.307629
v -4.331912 0.571005 0.306707
v -4.332345 0.571719 0.307257
v -4.331458 0.570182 0.307629
v -4.331231 0.571708 0.305826
v -4.329927 0.571760 0.305649
v -4.329723 0.572715 0.305859
v -4.331231 0.571708 0.305826
v -4.328643 0.570755 0.308052
v -4.328983 0.571122 0.306309
v -4.329109 0.570276 0.307310
v -4.328643 0.570755 0.308052
v -4.328983 0.571122 0.306309
v -4.331746 0.570631 0.308474
v -4.330098 0.570202 0.308828
v -4.330211 0.569857 0.307897
v -4.331458 0.570182 0.307629
v -4.331746 0.570631 0.308474
v -4.330211 0.569857 0.307897
v -4.331445 0.572647 0.306093
v -4.332345 0.571719 0.307257
v -4.331912 0.571005 0.306707
v -4.331231 0.571708 0.305826
v -4.331445 0.572647 0.306093
v -4.331912 0.571005 0.306707
v -4.328476 0.571874 0.306731
v -4.329723 0.572715 0.305859
v -4.329927 0.571760 0.305649
v -4.328983 0.571122 0.306309
v -4.328476 0.571874 0.306731
v -4.329927 0.571760 0.305649
v -4.329723 0.572715 0.305859
v -4.328476 0.571874 0.306731
v -4.328098 0.573054 0.307600
v -4.329723 0.572715 0.305859
v -4.328418 0.574080 0.308675
v -4.329591 0.574872 0.307855
v -4.329539 0.574027 0.306593
v -4.328098 0.573054 0.307600
v -4.328418 0.574080 0.308675
v -4.329539 0.574027 0.306593
v -4.329539 0.574027 0.306593
v -4.331445 0.572647 0.306093
v -4.329723 0.572715 0.305859
v -4.329539 0.574027 0.306593
v -4.331445 0.572647 0.306093
v -4.329591 0.574872 0.307855
v -4.331210 0.574807 0.308075
v -4.331529 0.573948 0.306863
v -4.329539 0.574027 0.306593
v -4.329591 0.574872 0.307855
v -4.331529 0.573948 0.306863
v -4.331529 0.573948 0.306863
v -4.332345 0.571719 0.307257
v -4.331445 0.572647 0.306093
v -4.331529 0.573948 0.306863
v -4.332345 0.571719 0.307257
v -4.331210 0.574807 0.308075
v -4.332056 0.573936 0.309169
v -4.332569 0.572876 0.308208
v -4.331529 0.573948 0.306863
v -4.331210 0.574807 0.308075
v -4.332569 0.572876 0.308208
v -4.332569 0.572876 0.308208
v -4.331746 0.570631 0.308474
v -4.332345 0.571719 0.307257
v -4.332569 0.572876 0.308208
v -4.331746 0.570631 0.308474
v -4.332056 0.573936 0.309169
v -4.331492 0.572913 0.310314
v -4.331876 0.571619 0.309614
v -4.332569 0.572876 0.308208
v -4.332056 0.573936 0.309169
v -4.331876 0.571619 0.309614
v -4.331876 0.571619 0.309614
v -4.330098 0.570202 0.308828
v -4.331746 0.570631 0.308474
v -4.331876 0.571619 0.309614
v -4.330098 0.570202 0.308828
v -4.331492 0.572913 0.310314
v -4.329943 0.572509 0.310646
v -4.329972 0.571124 0.310023
v -4.331876 0.571619 0.309614
v -4.331492 0.572913 0.310314
v -4.329972 0.571124 0.310023
v -4.329972 0.571124 0.310023
v -4.328643 0.570755 0.308052
v -4.330098 0.570202 0.308828
v -4.329972 0.571124 0.310023
v -4.328643 0.570755 0.308052
v -4.329943 0.572509 0.310646
v -4.328575 0.573029 0.309917
v -4.328291 0.571762 0.309127
v -4.329972 0.571124 0.310023
v -4.329943 0.572509 0.310646
v -4.328291 0.571762 0.309127
v -4.328291 0.571762 0.309127
v -4.328098 0.573054 0.307600
v -4.328476 0.571874 0.306731
v -4.328643 0.570755 0.308052
v -4.328291 0.571762 0.309127
v -4.328476 0.571874 0.306731
v -4.328575 0.573029 0.309917
v -4.328418 0.574080 0.308675
v -4.328098 0.573054 0.307600
v -4.328291 0.571762 0.309127
v -4.328575 0.573029 0.309917
v -4.328098 0.573054 0.307600
v -4.328974 0.574708 0.309510
v -4.329739 0.575224 0.308975
v -4.329591 0.574872 0.307855
v -4.328418 0.574080 0.308675
v -4.328974 0.574708 0.309510
v -4.329591 0.574872 0.307855
v -4.330796 0.575182 0.309118
v -4.329739 0.575224 0.308975
v -4.331348 0.574613 0.309832
v -4.328974 0.574708 0.309510
v -4.331348 0.574613 0.309832
v -4.329739 0.575224 0.308975
v -4.330980 0.573946 0.310579
v -4.331348 0.574613 0.309832
v -4.328974 0.574708 0.309510
v -4.329076 0.574022 0.310320
v -4.330980 0.573946 0.310579
v -4.328974 0.574708 0.309510
v -4.329969 0.573683 0.310796
v -4.330980 0.573946 0.310579
v -4.329076 0.574022 0.310320
v -4.331605 0.567624 0.302214
v -4.332334 0.566873 0.303156
v -4.330211 0.567680 0.302025
v -4.329201 0.566998 0.302731
v -4.330211 0.567680 0.302025
v -4.332334 0.566873 0.303156
v -4.331849 0.565992 0.304142
v -4.329201 0.566998 0.302731
v -4.332334 0.566873 0.303156
v -4.329336 0.566092 0.303801
v -4.329201 0.566998 0.302731
v -4.331849 0.565992 0.304142
v -4.330514 0.565645 0.304429
v -4.329336 0.566092 0.303801
v -4.331849 0.565992 0.304142
vn -0.0580 -0.7584 -0.6492
vn 0.5293 0.4149 0.7401
vn -0.3438 0.3802 0.8586
vn 0.1199 0.2594 0.9583
vn 0.5762 0.7297 0.3682
vn -0.3437 0.3802 0.8587
vn 0.5293 0.4150 0.7400
vn 0.5762 0.7296 0.3683
vn -0.5124 0.6863 0.5162
vn 0.2253 0.9665 0.1229
vn -0.2592 0.9472 0.1887
vn 0.3109 0.8603 -0.4041
vn 0.8790 0.4769 -0.0069
vn 0.2253 0.9665 0.1230
vn 0.9384 0.2117 -0.2730
vn 0.8031 -0.0326 0.5950
vn 0.8553 -0.3458 0.3858
vn 0.9384 0.2118 -0.2730
vn 0.8790 0.4768 -0.0069
vn 0.8030 -0.0326 0.5950
vn 0.8624 -0.0834 -0.4994
vn 0.8553 -0.3459 0.3858
vn 0.7841 -0.6087 0.1213
vn 0.8553 -0.3458 0.3859
vn 0.1403 -0.2844 0.9484
vn 0.1298 -0.6215 0.7726
vn 0.8030 -0.0327 0.5950
vn 0.1298 -0.6214 0.7726
vn 0.1007 -0.8683 0.4857
vn -0.6103 -0.0890 0.7871
vn -0.6918 -0.4075 0.5961
vn 0.1402 -0.2844 0.9484
vn -0.6103 -0.0889 0.7872
vn 0.1006 -0.8683 0.4857
vn -0.6734 -0.6667 0.3194
vn -0.6919 -0.4075 0.5960
vn -0.8835 0.4066 0.2327
vn -0.9908 0.1349 -0.0108
vn -0.6919 -0.4075 0.5961
vn -0.6104 -0.0890 0.7871
vn -0.6734 -0.6668 0.3193
vn -0.9550 -0.1558 -0.2523
vn -0.6734 -0.6668 0.3194
vn -0.9908 0.1349 -0.0107
vn -0.4735 0.8290 -0.2974
vn -0.5420 0.5973 -0.5911
vn -0.9550 -0.1558 -0.2524
vn -0.5323 0.2799 -0.7990
vn 0.3108 0.8603 -0.4041
vn 0.3165 0.6315 -0.7078
vn -0.4735 0.8290 -0.2975
vn 0.3108 0.8603 -0.4040
vn -0.5322 0.2798 -0.7990
vn 0.3166 0.6315 -0.7078
vn 0.2765 0.3121 -0.9089
vn 0.3166 0.6316 -0.7077
vn 0.2766 0.3120 -0.9089
vn 0.8624 -0.0833 -0.4993
vn 0.2766 0.3121 -0.9089
vn 0.3165 0.6316 -0.7078
vn 0.2885 0.3843 -0.8770
vn 0.8892 -0.0212 -0.4570
vn -0.9744 -0.0954 -0.2037
vn -0.5409 0.3512 -0.7643
vn -0.9744 -0.0955 -0.2037
vn 0.1081 -0.8261 0.5531
vn -0.6733 -0.6668 0.3194
vn -0.6856 -0.6194 0.3825
vn 0.8089 -0.5599 0.1794
vn -0.5409 0.3513 -0.7642
vn -0.6856 -0.6194 0.3826
vn -0.6855 -0.6194 0.3825
vn 0.8089 -0.5598 0.1795
vn 0.1081 -0.8261 0.5530
vn -0.8835 0.4066 0.2326
vn -0.2592 0.9472 0.1888
vn -0.6103 -0.0889 0.7871
vn 0.1200 0.2594 0.9583
vn 0.8790 0.4768 -0.0068
vn -0.6104 -0.0889 0.7871
vn 0.8031 -0.0327 0.5950
vn -0.4735 0.8291 -0.2974
vn 0.3109 0.8603 -0.4040
vn 0.9378 0.1979 -0.2852
vn 0.8089 -0.5598 0.1794
vn 0.8547 -0.3600 0.3740
vn 0.9378 0.1979 -0.2851
vn -0.5433 0.5836 -0.6034
vn 0.3156 0.6179 -0.7202
vn -0.5433 0.5837 -0.6034
vn -0.6933 -0.4217 0.5844
vn -0.9924 0.1209 -0.0228
vn 0.8547 -0.3601 0.3740
vn 0.1288 -0.6358 0.7610
vn 0.8547 -0.3600 0.3741
vn 0.3156 0.6178 -0.7202
vn 0.3157 0.6179 -0.7201
vn -0.5409 0.3513 -0.7643
vn -0.5434 0.5836 -0.6034
vn -0.9924 0.1210 -0.0228
vn -0.6855 -0.6194 0.3826
vt 0.543243 0.635056
vt 0.535370 0.641335
vt 0.537796 0.636299
vt 0.537796 0.646370
vt 0.547607 0.638535
vt 0.543243 0.647614
vt 0.547607 0.644127
vt 0.593674 0.671494
vt 0.598511 0.669548
vt 0.596146 0.672157
vt 0.592773 0.669609
vt 0.596436 0.666756
vt 0.592804 0.667854
vt 0.594147 0.666748
vt 0.591187 0.666855
vt 0.590591 0.669838
vt 0.587372 0.669685
vt 0.591782 0.673050
vt 0.588348 0.674789
vt 0.582382 0.669067
vt 0.582687 0.676537
vt 0.595596 0.675606
vt 0.592606 0.680244
vt 0.586334 0.684982
vt 0.603775 0.674767
vt 0.603561 0.686485
vt 0.594009 0.696274
vt 0.603775 0.658051
vt 0.597107 0.663902
vt 0.596405 0.659698
vt 0.602859 0.665543
vt 0.600342 0.651657
vt 0.594193 0.655174
vt 0.593353 0.664742
vt 0.591705 0.661980
vt 0.588959 0.658463
vt 0.588654 0.665283
vt 0.584778 0.662933
vt 0.580322 0.660286
vt 0.576584 0.668175
vt 0.591812 0.651588
vt 0.585907 0.654999
vt 0.579453 0.688484
vt 0.584915 0.699394
vt 0.576157 0.678001
vt 0.597061 0.648293
vt 0.627350 0.682632
vt 0.649124 0.687675
vt 0.627441 0.688225
vt 0.649033 0.682457
vt 0.627441 0.671455
vt 0.649033 0.677231
vt 0.627350 0.677048
vt 0.649124 0.672005
vt 0.627914 0.660294
vt 0.649292 0.666786
vt 0.627625 0.665871
vt 0.649551 0.661568
vt 0.649292 0.692902
vt 0.627625 0.693810
vt 0.649551 0.698120
vt 0.627914 0.699394
s 0
usemtl decorations
f 240/1/1 239/2/1 238/3/1
f 237/1/1 236/4/1 235/2/1
f 234/5/1 233/4/1 232/1/1
f 231/5/1 230/6/1 229/4/1
f 228/6/1 227/5/1 226/7/1
s 1
f 225/8/2 224/9/3 223/10/4
f 222/11/5 221/9/6 220/8/7
f 219/11/8 218/12/9 217/9/3
f 216/13/10 215/12/9 214/11/8
f 213/12/9 212/13/10 211/14/11
f 210/15/12 209/11/8 208/16/13
f 207/15/12 206/13/14 205/11/8
f 204/17/15 203/18/16 202/19/17
f 201/17/18 200/16/19 199/18/20
f 198/20/21 197/19/22 196/21/23
f 195/20/21 194/17/18 193/19/24
f 192/19/17 191/22/25 190/23/26
f 189/19/17 188/18/27 187/22/25
f 186/21/23 185/23/28 184/24/29
f 183/21/23 3/19/17 182/23/28
f 181/23/26 180/25/30 179/26/31
f 178/23/26 177/22/32 176/25/33
f 175/24/34 174/26/31 173/27/35
f 172/24/34 4/23/26 171/26/31
f 170/28/36 169/29/37 168/30/38
f 167/28/39 166/31/40 165/29/37
f 164/32/41 163/30/38 162/33/42
f 161/32/43 13/28/31 160/30/44
f 159/30/38 158/34/45 157/35/46
f 156/30/38 155/29/37 154/34/45
f 153/33/47 152/35/46 151/36/48
f 150/33/47 14/30/38 149/35/46
f 148/35/46 147/15/49 146/37/50
f 145/35/46 144/34/51 143/15/52
f 142/36/53 141/37/54 140/38/55
f 139/36/53 16/35/46 138/37/54
f 137/37/54 136/16/19 135/17/18
f 134/37/56 133/15/12 132/16/13
f 131/38/57 130/17/18 129/20/58
f 128/38/59 36/37/60 25/17/18
f 127/39/61 126/20/58 125/40/62
f 124/39/61 123/38/59 122/20/58
f 121/41/63 120/36/48 119/42/64
f 118/41/65 117/33/47 116/36/48
f 115/43/66 114/27/67 113/44/68
f 112/43/66 111/24/34 110/27/67
f 109/40/62 108/21/23 107/45/69
f 106/40/62 40/20/21 105/21/23
f 104/42/70 103/38/55 102/39/61
f 101/42/64 41/36/48 42/38/55
f 100/46/71 99/33/42 98/41/65
f 97/46/72 37/32/35 38/33/42
f 96/45/73 95/24/34 94/43/74
f 93/45/69 33/21/23 34/24/34
f 92/29/75 91/14/76 90/34/45
f 89/29/75 88/12/9 87/14/11
f 86/22/32 85/9/6 84/25/77
f 83/22/32 82/10/78 81/9/6
f 80/16/79 79/8/7 78/18/20
f 29/16/19 30/11/5 77/8/7
f 76/31/77 75/12/9 28/29/37
f 31/31/80 26/9/6 27/12/9
f 74/18/81 73/10/4 24/22/25
f 21/18/81 22/8/7 23/10/4
f 72/34/82 71/13/10 20/15/83
f 17/34/82 18/14/76 19/13/14
f 70/47/84 69/48/85 68/49/86
f 67/47/87 66/50/62 65/48/85
f 64/51/88 63/52/61 62/53/89
f 61/51/90 60/54/64 59/52/61
f 58/55/91 57/56/63 56/57/92
f 55/55/91 54/58/72 53/56/65
f 52/49/93 51/59/66 50/60/94
f 2/49/95 32/48/69 49/59/66
f 48/53/96 47/50/62 12/47/84
f 9/53/97 10/52/61 11/50/62
f 46/57/92 45/54/98 8/51/99
f 5/57/100 6/56/63 7/54/64
f 44/60/94 43/61/101 15/62/91
f 1/60/94 35/59/74 39/61/101
