# Blender 5.0.0
# www.blender.org
mtllib Circle_002_Circle_001_Dupli_118_decorations_0.mtl
o Circle.002|Circle.001|Dupli|118_decorations_0
v -4.295534 1.052786 0.689957
v -4.296751 1.052615 0.690647
v -4.297763 1.060363 0.691392
v -4.296028 1.060607 0.690409
v -4.293807 1.052613 0.691808
v -4.294219 1.058006 0.692585
v -4.294958 1.057806 0.693657
v -4.294597 1.052399 0.692955
v -4.295999 1.052305 0.693050
v -4.296268 1.057719 0.693746
v -4.297164 1.057809 0.692786
v -4.296957 1.052401 0.692023
v -4.294159 1.060605 0.691146
v -4.293564 1.060359 0.693049
v -4.294224 1.052785 0.690474
v -4.294690 1.060055 0.694685
v -4.294989 1.061536 0.694526
v -4.295372 1.062574 0.694106
v -4.296434 1.062502 0.694178
v -4.296616 1.061427 0.694637
v -4.297489 1.061787 0.691846
v -4.297004 1.062737 0.692357
v -4.296082 1.062867 0.691835
v -4.296077 1.061985 0.691046
v -4.298058 1.060058 0.693356
v -4.295090 1.062866 0.692227
v -4.294774 1.062735 0.693237
v -4.294072 1.061784 0.693195
v -4.297729 1.061539 0.693444
v -4.297161 1.062575 0.693400
v -4.294556 1.061984 0.691646
v -4.296971 1.058009 0.691499
v -4.297422 1.058888 0.691352
v -4.295921 1.059099 0.690501
v -4.295834 1.058168 0.690855
v -4.296690 1.059920 0.694821
v -4.294303 1.059098 0.691139
v -4.293787 1.058885 0.692786
v -4.294610 1.058167 0.691338
v -4.297678 1.058624 0.693052
v -4.294763 1.058621 0.694202
v -4.296494 1.058505 0.694320
v -4.294610 1.058167 0.691338
v -4.295534 1.052786 0.689957
v -4.294958 1.057806 0.693657
v -4.293807 1.052613 0.691808
v -4.297164 1.057809 0.692786
v -4.295999 1.052305 0.693050
v -4.295834 1.058168 0.690855
v -4.295534 1.052786 0.689957
v -4.295834 1.058168 0.690855
v -4.296751 1.052615 0.690647
v -4.294219 1.058006 0.692585
v -4.294610 1.058167 0.691338
v -4.294224 1.052785 0.690474
v -4.293807 1.052613 0.691808
v -4.294219 1.058006 0.692585
v -4.294224 1.052785 0.690474
v -4.296268 1.057719 0.693746
v -4.294958 1.057806 0.693657
v -4.294597 1.052399 0.692955
v -4.295999 1.052305 0.693050
v -4.296268 1.057719 0.693746
v -4.294597 1.052399 0.692955
v -4.296971 1.058009 0.691499
v -4.297164 1.057809 0.692786
v -4.296957 1.052401 0.692023
v -4.296751 1.052615 0.690647
v -4.296971 1.058009 0.691499
v -4.296957 1.052401 0.692023
v -4.296434 1.062502 0.694178
v -4.294989 1.061536 0.694526
v -4.296082 1.062867 0.691835
v -4.297489 1.061787 0.691846
v -4.294774 1.062735 0.693237
v -4.294556 1.061984 0.691646
v -4.297004 1.062737 0.692357
v -4.297489 1.061787 0.691846
v -4.297004 1.062737 0.692357
v -4.297729 1.061539 0.693444
v -4.295090 1.062866 0.692227
v -4.296082 1.062867 0.691835
v -4.296077 1.061985 0.691046
v -4.294556 1.061984 0.691646
v -4.295090 1.062866 0.692227
v -4.296077 1.061985 0.691046
v -4.295372 1.062574 0.694106
v -4.294774 1.062735 0.693237
v -4.294072 1.061784 0.693195
v -4.294989 1.061536 0.694526
v -4.295372 1.062574 0.694106
v -4.294072 1.061784 0.693195
v -4.296971 1.058009 0.691499
v -4.295834 1.058168 0.690855
v -4.295921 1.059099 0.690501
v -4.296971 1.058009 0.691499
v -4.294610 1.058167 0.691338
v -4.294219 1.058006 0.692585
v -4.293787 1.058885 0.692786
v -4.294610 1.058167 0.691338
v -4.294958 1.057806 0.693657
v -4.296268 1.057719 0.693746
v -4.296494 1.058505 0.694320
v -4.294958 1.057806 0.693657
v -4.297422 1.058888 0.691352
v -4.297164 1.057809 0.692786
v -4.296971 1.058009 0.691499
v -4.297422 1.058888 0.691352
v -4.297164 1.057809 0.692786
v -4.294303 1.059098 0.691139
v -4.295921 1.059099 0.690501
v -4.295834 1.058168 0.690855
v -4.294610 1.058167 0.691338
v -4.294303 1.059098 0.691139
v -4.295834 1.058168 0.690855
v -4.294763 1.058621 0.694202
v -4.293787 1.058885 0.692786
v -4.294219 1.058006 0.692585
v -4.294958 1.057806 0.693657
v -4.294763 1.058621 0.694202
v -4.294219 1.058006 0.692585
v -4.297678 1.058624 0.693052
v -4.296494 1.058505 0.694320
v -4.296268 1.057719 0.693746
v -4.297164 1.057809 0.692786
v -4.297678 1.058624 0.693052
v -4.296268 1.057719 0.693746
v -4.296494 1.058505 0.694320
v -4.297678 1.058624 0.693052
v -4.298058 1.060058 0.693356
v -4.296494 1.058505 0.694320
v -4.297729 1.061539 0.693444
v -4.296616 1.061427 0.694637
v -4.296690 1.059920 0.694821
v -4.298058 1.060058 0.693356
v -4.297729 1.061539 0.693444
v -4.296690 1.059920 0.694821
v -4.296690 1.059920 0.694821
v -4.294763 1.058621 0.694202
v -4.296494 1.058505 0.694320
v -4.296690 1.059920 0.694821
v -4.294763 1.058621 0.694202
v -4.296616 1.061427 0.694637
v -4.294989 1.061536 0.694526
v -4.294690 1.060055 0.694685
v -4.296690 1.059920 0.694821
v -4.296616 1.061427 0.694637
v -4.294690 1.060055 0.694685
v -4.294690 1.060055 0.694685
v -4.293787 1.058885 0.692786
v -4.294763 1.058621 0.694202
v -4.294690 1.060055 0.694685
v -4.293787 1.058885 0.692786
v -4.294989 1.061536 0.694526
v -4.294072 1.061784 0.693195
v -4.293564 1.060359 0.693049
v -4.294690 1.060055 0.694685
v -4.294989 1.061536 0.694526
v -4.293564 1.060359 0.693049
v -4.293564 1.060359 0.693049
v -4.294303 1.059098 0.691139
v -4.293787 1.058885 0.692786
v -4.293564 1.060359 0.693049
v -4.294303 1.059098 0.691139
v -4.294072 1.061784 0.693195
v -4.294556 1.061984 0.691646
v -4.294159 1.060605 0.691146
v -4.293564 1.060359 0.693049
v -4.294072 1.061784 0.693195
v -4.294159 1.060605 0.691146
v -4.294159 1.060605 0.691146
v -4.295921 1.059099 0.690501
v -4.294303 1.059098 0.691139
v -4.294159 1.060605 0.691146
v -4.295921 1.059099 0.690501
v -4.294556 1.061984 0.691646
v -4.296077 1.061985 0.691046
v -4.296028 1.060607 0.690409
v -4.294159 1.060605 0.691146
v -4.294556 1.061984 0.691646
v -4.296028 1.060607 0.690409
v -4.296028 1.060607 0.690409
v -4.297422 1.058888 0.691352
v -4.295921 1.059099 0.690501
v -4.296028 1.060607 0.690409
v -4.297422 1.058888 0.691352
v -4.296077 1.061985 0.691046
v -4.297489 1.061787 0.691846
v -4.297763 1.060363 0.691392
v -4.296028 1.060607 0.690409
v -4.296077 1.061985 0.691046
v -4.297763 1.060363 0.691392
v -4.297763 1.060363 0.691392
v -4.298058 1.060058 0.693356
v -4.297678 1.058624 0.693052
v -4.297422 1.058888 0.691352
v -4.297763 1.060363 0.691392
v -4.297678 1.058624 0.693052
v -4.297489 1.061787 0.691846
v -4.297729 1.061539 0.693444
v -4.298058 1.060058 0.693356
v -4.297763 1.060363 0.691392
v -4.297489 1.061787 0.691846
v -4.298058 1.060058 0.693356
v -4.297161 1.062575 0.693400
v -4.296434 1.062502 0.694178
v -4.296616 1.061427 0.694637
v -4.297729 1.061539 0.693444
v -4.297161 1.062575 0.693400
v -4.296616 1.061427 0.694637
v -4.295372 1.062574 0.694106
v -4.296434 1.062502 0.694178
v -4.294774 1.062735 0.693237
v -4.297161 1.062575 0.693400
v -4.294774 1.062735 0.693237
v -4.296434 1.062502 0.694178
v -4.295090 1.062866 0.692227
v -4.294774 1.062735 0.693237
v -4.297161 1.062575 0.693400
v -4.297004 1.062737 0.692357
v -4.295090 1.062866 0.692227
v -4.297161 1.062575 0.693400
v -4.296082 1.062867 0.691835
v -4.295090 1.062866 0.692227
v -4.297004 1.062737 0.692357
v -4.294597 1.052399 0.692955
v -4.293807 1.052613 0.691808
v -4.295999 1.052305 0.693050
v -4.296957 1.052401 0.692023
v -4.295999 1.052305 0.693050
v -4.293807 1.052613 0.691808
v -4.294224 1.052785 0.690474
v -4.296957 1.052401 0.692023
v -4.293807 1.052613 0.691808
v -4.296751 1.052615 0.690647
v -4.296957 1.052401 0.692023
v -4.294224 1.052785 0.690474
v -4.295534 1.052786 0.689957
v -4.296751 1.052615 0.690647
v -4.294224 1.052785 0.690474
vn 0.0564 -0.9878 -0.1451
vn -0.5124 0.8358 -0.1973
vn 0.3654 0.8947 -0.2571
vn -0.0899 0.8951 -0.4367
vn -0.5842 0.7614 0.2811
vn 0.3653 0.8947 -0.2571
vn -0.5124 0.8358 -0.1972
vn -0.5842 0.7614 0.2810
vn 0.5103 0.8348 0.2064
vn -0.2511 0.7280 0.6380
vn -0.2512 0.7280 0.6379
vn 0.2360 0.7607 0.6048
vn -0.3542 0.2610 0.8980
vn -0.8934 0.3152 0.3202
vn -0.2511 0.7280 0.6379
vn -0.5841 0.7614 0.2811
vn -0.9549 -0.0590 0.2911
vn -0.7772 0.4355 -0.4541
vn -0.8277 0.0728 -0.5564
vn -0.9549 -0.0590 0.2912
vn -0.8934 0.3151 0.3202
vn -0.7772 0.4356 -0.4541
vn -0.8785 -0.4240 0.2201
vn -0.8277 0.0728 -0.5565
vn -0.7587 -0.2998 -0.5783
vn -0.8277 0.0729 -0.5564
vn -0.0931 0.5316 -0.8419
vn -0.0789 0.1779 -0.9809
vn -0.7587 -0.2999 -0.5784
vn -0.0533 -0.2008 -0.9782
vn 0.6438 0.5309 -0.5511
vn 0.7278 0.1772 -0.6626
vn -0.0532 -0.2009 -0.9782
vn 0.7066 -0.2015 -0.6783
vn -0.0533 -0.2009 -0.9782
vn 0.7278 0.1772 -0.6625
vn 0.7278 0.1771 -0.6625
vn 0.8786 0.4340 0.1993
vn 0.9847 0.0712 0.1588
vn 0.8786 0.4341 0.1993
vn 0.7066 -0.2016 -0.6783
vn 0.9847 0.0711 0.1588
vn 0.9487 -0.3014 0.0954
vn 0.4345 0.3140 0.8442
vn 0.4986 -0.0603 0.8647
vn 0.9487 -0.3015 0.0955
vn 0.4907 -0.4253 0.7605
vn 0.4985 -0.0604 0.8648
vn -0.3541 0.2610 0.8980
vn -0.3646 -0.1182 0.9236
vn 0.4986 -0.0604 0.8648
vn 0.4344 0.3139 0.8442
vn -0.3541 0.2611 0.8980
vn -0.3646 -0.1183 0.9236
vn -0.3224 -0.4798 0.8160
vn -0.3647 -0.1183 0.9236
vn -0.3225 -0.4799 0.8159
vn -0.3355 -0.4083 0.8490
vn -0.9056 -0.3511 0.2380
vn -0.3225 -0.4798 0.8160
vn 0.9680 -0.2253 0.1102
vn 0.4984 -0.3524 0.7921
vn -0.0594 -0.1222 -0.9907
vn 0.7198 -0.1230 -0.6832
vn -0.0532 -0.2008 -0.9782
vn -0.9056 -0.3510 0.2380
vn -0.7828 -0.2238 -0.5807
vn -0.8785 -0.4241 0.2201
vn 0.4984 -0.3523 0.7921
vn -0.3354 -0.4083 0.8490
vn 0.7198 -0.1229 -0.6832
vn 0.9680 -0.2254 0.1102
vn -0.7828 -0.2237 -0.5807
vn 0.8786 0.4340 0.1994
vn 0.2360 0.7607 0.6047
vn 0.5103 0.8349 0.2064
vn 0.2360 0.7606 0.6048
vn 0.6438 0.5309 -0.5510
vn -0.7772 0.4355 -0.4542
vn 0.4344 0.3140 0.8442
vn -0.9543 -0.0773 0.2886
vn -0.8271 0.0546 -0.5594
vn 0.4998 -0.0787 0.8625
vn -0.3637 -0.1366 0.9214
vn 0.4998 -0.0786 0.8625
vn 0.7292 0.1590 -0.6655
vn 0.9863 0.0529 0.1561
vn -0.0779 0.1597 -0.9841
vn -0.3638 -0.1366 0.9214
vn -0.3638 -0.1365 0.9214
vn 0.9863 0.0529 0.1562
vn 0.4999 -0.0786 0.8625
vn 0.9863 0.0530 0.1562
vn 0.7292 0.1590 -0.6656
vn -0.0779 0.1598 -0.9841
vn 0.7198 -0.1229 -0.6833
vt 0.543243 0.635056
vt 0.535370 0.641335
vt 0.537796 0.636299
vt 0.537796 0.646370
vt 0.547607 0.638535
vt 0.543243 0.647614
vt 0.547607 0.644127
vt 0.593674 0.671494
vt 0.598511 0.669548
vt 0.596146 0.672157
vt 0.592773 0.669609
vt 0.596436 0.666756
vt 0.592804 0.667854
vt 0.594147 0.666748
vt 0.591187 0.666855
vt 0.590591 0.669838
vt 0.587372 0.669685
vt 0.591782 0.673050
vt 0.588348 0.674789
vt 0.582382 0.669067
vt 0.582687 0.676537
vt 0.595596 0.675606
vt 0.592606 0.680244
vt 0.586334 0.684982
vt 0.603775 0.674767
vt 0.603561 0.686485
vt 0.594009 0.696274
vt 0.603775 0.658051
vt 0.597107 0.663902
vt 0.596405 0.659698
vt 0.602859 0.665543
vt 0.600342 0.651657
vt 0.594193 0.655174
vt 0.593353 0.664742
vt 0.591705 0.661980
vt 0.588959 0.658463
vt 0.588654 0.665283
vt 0.584778 0.662933
vt 0.580322 0.660286
vt 0.576584 0.668175
vt 0.591812 0.651588
vt 0.585907 0.654999
vt 0.579453 0.688484
vt 0.584915 0.699394
vt 0.576157 0.678001
vt 0.597061 0.648293
vt 0.627350 0.682632
vt 0.649124 0.687675
vt 0.627441 0.688225
vt 0.649033 0.682457
vt 0.627441 0.671455
vt 0.649033 0.677231
vt 0.627350 0.677048
vt 0.649124 0.672005
vt 0.627914 0.660294
vt 0.649292 0.666786
vt 0.627625 0.665871
vt 0.649551 0.661568
vt 0.649292 0.692902
vt 0.627625 0.693810
vt 0.649551 0.698120
vt 0.627914 0.699394
s 0
usemtl decorations
f 240/1/1 239/2/1 238/3/1
f 237/1/1 236/4/1 235/2/1
f 234/5/1 233/4/1 232/1/1
f 231/5/1 230/6/1 229/4/1
f 228/6/1 227/5/1 226/7/1
s 1
f 225/8/2 224/9/3 223/10/4
f 222/11/5 221/9/6 220/8/7
f 219/11/8 218/12/9 217/9/3
f 216/13/10 215/12/9 214/11/8
f 213/12/9 212/13/11 211/14/12
f 210/15/13 209/11/8 208/16/14
f 207/15/13 206/13/15 205/11/16
f 204/17/17 203/18/18 202/19/19
f 201/17/20 200/16/21 199/18/22
f 198/20/23 197/19/24 196/21/25
f 195/20/23 194/17/17 193/19/26
f 192/19/19 191/22/27 190/23/28
f 189/19/19 188/18/18 187/22/27
f 186/21/29 185/23/28 184/24/30
f 183/21/29 3/19/19 182/23/28
f 181/23/28 180/25/31 179/26/32
f 178/23/28 177/22/27 176/25/31
f 175/24/33 174/26/32 173/27/34
f 172/24/35 4/23/28 171/26/36
f 170/28/37 169/29/38 168/30/39
f 167/28/37 166/31/31 165/29/40
f 164/32/41 163/30/42 162/33/43
f 161/32/41 13/28/36 160/30/39
f 159/30/39 158/34/44 157/35/45
f 156/30/39 155/29/38 154/34/44
f 153/33/46 152/35/45 151/36/47
f 150/33/46 14/30/39 149/35/45
f 148/35/48 147/15/49 146/37/50
f 145/35/51 144/34/52 143/15/53
f 142/36/47 141/37/54 140/38/55
f 139/36/47 16/35/45 138/37/54
f 137/37/56 136/16/21 135/17/17
f 134/37/50 133/15/13 132/16/14
f 131/38/57 130/17/17 129/20/23
f 128/38/57 36/37/50 25/17/17
f 127/39/58 126/20/23 125/40/59
f 124/39/58 123/38/60 122/20/23
f 121/41/61 120/36/47 119/42/62
f 118/41/61 117/33/46 116/36/47
f 115/43/63 114/27/34 113/44/64
f 112/43/63 111/24/65 110/27/34
f 109/40/66 108/21/25 107/45/67
f 106/40/66 40/20/68 105/21/25
f 104/42/69 103/38/55 102/39/70
f 101/42/69 41/36/47 42/38/55
f 100/46/71 99/33/43 98/41/72
f 97/46/71 37/32/34 38/33/43
f 96/45/73 95/24/30 94/43/63
f 93/45/73 33/21/25 34/24/30
f 92/29/74 91/14/75 90/34/44
f 89/29/74 88/12/76 87/14/77
f 86/22/27 85/9/6 84/25/31
f 83/22/27 82/10/4 81/9/6
f 80/16/21 79/8/7 78/18/22
f 29/16/21 30/11/5 77/8/7
f 76/31/78 75/12/9 28/29/40
f 31/31/78 26/9/6 27/12/76
f 74/18/18 73/10/4 24/22/27
f 21/18/79 22/8/7 23/10/4
f 72/34/80 71/13/15 20/15/13
f 17/34/80 18/14/75 19/13/15
f 70/47/81 69/48/73 68/49/82
f 67/47/81 66/50/59 65/48/73
f 64/51/83 63/52/58 62/53/84
f 61/51/85 60/54/62 59/52/70
f 58/55/86 57/56/61 56/57/87
f 55/55/86 54/58/64 53/56/72
f 52/49/82 51/59/63 50/60/88
f 2/49/82 32/48/67 49/59/63
f 48/53/89 47/50/66 12/47/81
f 9/53/90 10/52/58 11/50/59
f 46/57/91 45/54/69 8/51/92
f 5/57/93 6/56/72 7/54/62
f 44/60/88 43/61/71 15/62/94
f 1/60/95 35/59/63 39/61/96
