# Blender 5.0.0
# www.blender.org
mtllib Circle_005_Circle_001_Dupli_14_decorations_0.mtl
o Circle.005|Circle.001|Dupli|14_decorations_0
v -4.619575 1.399432 0.495499
v -4.620602 1.399025 0.496373
v -4.624255 1.405947 0.495782
v -4.622789 1.406527 0.494536
v -4.617780 1.400267 0.497087
v -4.620033 1.405241 0.496886
v -4.620579 1.405054 0.498069
v -4.618364 1.400067 0.498353
v -4.619631 1.399534 0.498661
v -4.621763 1.404557 0.498357
v -4.622694 1.404123 0.497533
v -4.620626 1.399071 0.497780
v -4.620997 1.407316 0.494990
v -4.620229 1.407719 0.496802
v -4.618319 1.399984 0.495817
v -4.621062 1.407433 0.498608
v -4.621878 1.408654 0.498216
v -4.622633 1.409381 0.497667
v -4.623592 1.408978 0.497901
v -4.623349 1.408036 0.498574
v -4.624476 1.407445 0.495917
v -4.624328 1.408592 0.496166
v -4.623550 1.408900 0.495505
v -4.623283 1.407917 0.494903
v -4.624290 1.406013 0.497790
v -4.622598 1.409318 0.495746
v -4.622190 1.409532 0.496708
v -4.621200 1.408886 0.496747
v -4.624505 1.407498 0.497551
v -4.624347 1.408626 0.497233
v -4.621825 1.408558 0.495272
v -4.622671 1.404081 0.496218
v -4.623415 1.404702 0.495973
v -4.622146 1.405204 0.494894
v -4.621710 1.404461 0.495401
v -4.622869 1.406674 0.499048
v -4.620595 1.405886 0.495287
v -4.619930 1.406235 0.496855
v -4.620536 1.404977 0.495698
v -4.623446 1.404759 0.497711
v -4.620651 1.405988 0.498418
v -4.622216 1.405331 0.498799
v -4.620536 1.404977 0.495698
v -4.619575 1.399432 0.495499
v -4.620579 1.405054 0.498069
v -4.617780 1.400267 0.497087
v -4.622694 1.404123 0.497533
v -4.619631 1.399534 0.498661
v -4.621710 1.404461 0.495401
v -4.619575 1.399432 0.495499
v -4.621710 1.404461 0.495401
v -4.620602 1.399025 0.496373
v -4.620033 1.405241 0.496886
v -4.620536 1.404977 0.495698
v -4.618319 1.399984 0.495817
v -4.617780 1.400267 0.497087
v -4.620033 1.405241 0.496886
v -4.618319 1.399984 0.495817
v -4.621763 1.404557 0.498357
v -4.620579 1.405054 0.498069
v -4.618364 1.400067 0.498353
v -4.619631 1.399534 0.498661
v -4.621763 1.404557 0.498357
v -4.618364 1.400067 0.498353
v -4.622671 1.404081 0.496218
v -4.622694 1.404123 0.497533
v -4.620626 1.399071 0.497780
v -4.620602 1.399025 0.496373
v -4.622671 1.404081 0.496218
v -4.620626 1.399071 0.497780
v -4.623592 1.408978 0.497901
v -4.621878 1.408654 0.498216
v -4.623550 1.408900 0.495505
v -4.624476 1.407445 0.495917
v -4.622190 1.409532 0.496708
v -4.621825 1.408558 0.495272
v -4.624328 1.408592 0.496166
v -4.624476 1.407445 0.495917
v -4.624328 1.408592 0.496166
v -4.624505 1.407498 0.497551
v -4.622598 1.409318 0.495746
v -4.623550 1.408900 0.495505
v -4.623283 1.407917 0.494903
v -4.621825 1.408558 0.495272
v -4.622598 1.409318 0.495746
v -4.623283 1.407917 0.494903
v -4.622633 1.409381 0.497667
v -4.622190 1.409532 0.496708
v -4.621200 1.408886 0.496747
v -4.621878 1.408654 0.498216
v -4.622633 1.409381 0.497667
v -4.621200 1.408886 0.496747
v -4.622671 1.404081 0.496218
v -4.621710 1.404461 0.495401
v -4.622146 1.405204 0.494894
v -4.622671 1.404081 0.496218
v -4.620536 1.404977 0.495698
v -4.620033 1.405241 0.496886
v -4.619930 1.406235 0.496855
v -4.620536 1.404977 0.495698
v -4.620579 1.405054 0.498069
v -4.621763 1.404557 0.498357
v -4.622216 1.405331 0.498799
v -4.620579 1.405054 0.498069
v -4.623415 1.404702 0.495973
v -4.622694 1.404123 0.497533
v -4.622671 1.404081 0.496218
v -4.623415 1.404702 0.495973
v -4.622694 1.404123 0.497533
v -4.620595 1.405886 0.495287
v -4.622146 1.405204 0.494894
v -4.621710 1.404461 0.495401
v -4.620536 1.404977 0.495698
v -4.620595 1.405886 0.495287
v -4.621710 1.404461 0.495401
v -4.620651 1.405988 0.498418
v -4.619930 1.406235 0.496855
v -4.620033 1.405241 0.496886
v -4.620579 1.405054 0.498069
v -4.620651 1.405988 0.498418
v -4.620033 1.405241 0.496886
v -4.623446 1.404759 0.497711
v -4.622216 1.405331 0.498799
v -4.621763 1.404557 0.498357
v -4.622694 1.404123 0.497533
v -4.623446 1.404759 0.497711
v -4.621763 1.404557 0.498357
v -4.622216 1.405331 0.498799
v -4.623446 1.404759 0.497711
v -4.624290 1.406013 0.497790
v -4.622216 1.405331 0.498799
v -4.624505 1.407498 0.497551
v -4.623349 1.408036 0.498574
v -4.622869 1.406674 0.499048
v -4.624290 1.406013 0.497790
v -4.624505 1.407498 0.497551
v -4.622869 1.406674 0.499048
v -4.622869 1.406674 0.499048
v -4.620651 1.405988 0.498418
v -4.622216 1.405331 0.498799
v -4.622869 1.406674 0.499048
v -4.620651 1.405988 0.498418
v -4.623349 1.408036 0.498574
v -4.621878 1.408654 0.498216
v -4.621062 1.407433 0.498608
v -4.622869 1.406674 0.499048
v -4.623349 1.408036 0.498574
v -4.621062 1.407433 0.498608
v -4.621062 1.407433 0.498608
v -4.619930 1.406235 0.496855
v -4.620651 1.405988 0.498418
v -4.621062 1.407433 0.498608
v -4.619930 1.406235 0.496855
v -4.621878 1.408654 0.498216
v -4.621200 1.408886 0.496747
v -4.620229 1.407719 0.496802
v -4.621062 1.407433 0.498608
v -4.621878 1.408654 0.498216
v -4.620229 1.407719 0.496802
v -4.620229 1.407719 0.496802
v -4.620595 1.405886 0.495287
v -4.619930 1.406235 0.496855
v -4.620229 1.407719 0.496802
v -4.620595 1.405886 0.495287
v -4.621200 1.408886 0.496747
v -4.621825 1.408558 0.495272
v -4.620997 1.407316 0.494990
v -4.620229 1.407719 0.496802
v -4.621200 1.408886 0.496747
v -4.620997 1.407316 0.494990
v -4.620997 1.407316 0.494990
v -4.622146 1.405204 0.494894
v -4.620595 1.405886 0.495287
v -4.620997 1.407316 0.494990
v -4.622146 1.405204 0.494894
v -4.621825 1.408558 0.495272
v -4.623283 1.407917 0.494903
v -4.622789 1.406527 0.494536
v -4.620997 1.407316 0.494990
v -4.621825 1.408558 0.495272
v -4.622789 1.406527 0.494536
v -4.622789 1.406527 0.494536
v -4.623415 1.404702 0.495973
v -4.622146 1.405204 0.494894
v -4.622789 1.406527 0.494536
v -4.623415 1.404702 0.495973
v -4.623283 1.407917 0.494903
v -4.624476 1.407445 0.495917
v -4.624255 1.405947 0.495782
v -4.622789 1.406527 0.494536
v -4.623283 1.407917 0.494903
v -4.624255 1.405947 0.495782
v -4.624255 1.405947 0.495782
v -4.624290 1.406013 0.497790
v -4.623446 1.404759 0.497711
v -4.623415 1.404702 0.495973
v -4.624255 1.405947 0.495782
v -4.623446 1.404759 0.497711
v -4.624476 1.407445 0.495917
v -4.624505 1.407498 0.497551
v -4.624290 1.406013 0.497790
v -4.624255 1.405947 0.495782
v -4.624476 1.407445 0.495917
v -4.624290 1.406013 0.497790
v -4.624347 1.408626 0.497233
v -4.623592 1.408978 0.497901
v -4.623349 1.408036 0.498574
v -4.624505 1.407498 0.497551
v -4.624347 1.408626 0.497233
v -4.623349 1.408036 0.498574
v -4.622633 1.409381 0.497667
v -4.623592 1.408978 0.497901
v -4.622190 1.409532 0.496708
v -4.624347 1.408626 0.497233
v -4.622190 1.409532 0.496708
v -4.623592 1.408978 0.497901
v -4.622598 1.409318 0.495746
v -4.622190 1.409532 0.496708
v -4.624347 1.408626 0.497233
v -4.624328 1.408592 0.496166
v -4.622598 1.409318 0.495746
v -4.624347 1.408626 0.497233
v -4.623550 1.408900 0.495505
v -4.622598 1.409318 0.495746
v -4.624328 1.408592 0.496166
v -4.618364 1.400067 0.498353
v -4.617780 1.400267 0.497087
v -4.619631 1.399534 0.498661
v -4.620626 1.399071 0.497780
v -4.619631 1.399534 0.498661
v -4.617780 1.400267 0.497087
v -4.618319 1.399984 0.495817
v -4.620626 1.399071 0.497780
v -4.617780 1.400267 0.497087
v -4.620602 1.399025 0.496373
v -4.620626 1.399071 0.497780
v -4.618319 1.399984 0.495817
v -4.619575 1.399432 0.495499
v -4.620602 1.399025 0.496373
v -4.618319 1.399984 0.495817
vn 0.3946 -0.9181 0.0368
vn -0.7882 0.5496 -0.2768
vn 0.0050 0.8828 -0.4697
vn -0.4314 0.6908 -0.5802
vn -0.7970 0.5655 0.2123
vn -0.7882 0.5496 -0.2767
vn -0.7970 0.5655 0.2122
vn 0.1922 0.9810 -0.0284
vn -0.4510 0.7265 0.5185
vn 0.1922 0.9810 -0.0283
vn -0.0108 0.9114 0.4114
vn -0.3636 0.3233 0.8737
vn -0.9237 0.0627 0.3779
vn -0.8498 -0.3069 0.4286
vn -0.9096 0.0370 -0.4138
vn -0.8343 -0.3349 -0.4379
vn -0.8498 -0.3068 0.4287
vn -0.9238 0.0627 0.3778
vn -0.6533 -0.6315 0.4175
vn -0.8343 -0.3350 -0.4379
vn -0.6388 -0.6580 -0.3988
vn -0.3318 0.2657 -0.9052
vn -0.2018 -0.0847 -0.9757
vn -0.3318 0.2656 -0.9052
vn -0.6387 -0.6580 -0.3988
vn -0.2019 -0.0847 -0.9757
vn -0.0430 -0.4222 -0.9055
vn 0.3746 0.5764 -0.7263
vn 0.5714 0.2555 -0.7799
vn 0.3745 0.5764 -0.7263
vn -0.0429 -0.4223 -0.9055
vn 0.6855 -0.1018 -0.7210
vn -0.2018 -0.0847 -0.9758
vn 0.5715 0.2555 -0.7799
vn 0.6776 0.7353 -0.0118
vn 0.9031 0.4294 0.0022
vn 0.3746 0.5764 -0.7262
vn 0.6855 -0.1018 -0.7209
vn 0.9979 0.0621 0.0158
vn 0.9031 0.4295 0.0021
vn 0.3491 0.6227 0.7002
vn 0.5435 0.3061 0.7816
vn 0.6776 0.7353 -0.0117
vn 0.9979 0.0620 0.0158
vn 0.6592 -0.0540 0.7500
vn -0.3635 0.3233 0.8737
vn -0.2366 -0.0215 0.9714
vn 0.3491 0.6227 0.7003
vn -0.3635 0.3234 0.8736
vn 0.6592 -0.0541 0.7501
vn -0.0757 -0.3627 0.9288
vn -0.2366 -0.0216 0.9714
vn -0.8498 -0.3068 0.4286
vn -0.0757 -0.3628 0.9288
vn -0.6534 -0.6315 0.4175
vn -0.1111 -0.2941 0.9493
vn -0.6534 -0.6315 0.4176
vn -0.7034 -0.5697 0.4250
vn 0.9898 0.1415 0.0131
vn 0.6425 0.0224 0.7660
vn 0.9899 0.1415 0.0131
vn -0.0775 -0.3551 -0.9316
vn 0.6695 -0.0266 -0.7424
vn -0.0429 -0.4222 -0.9055
vn -0.6884 -0.5969 -0.4120
vn -0.6533 -0.6315 0.4176
vn 0.6694 -0.0265 -0.7424
vn 0.9979 0.0621 0.0157
vn -0.6885 -0.5969 -0.4121
vn -0.0775 -0.3552 -0.9316
vn 0.6777 0.7353 -0.0117
vn 0.1921 0.9810 -0.0284
vn -0.0108 0.9114 0.4115
vn -0.9238 0.0626 0.3778
vn -0.7882 0.5497 -0.2767
vn -0.4313 0.6908 -0.5803
vn -0.3636 0.3233 0.8736
vn -0.8429 -0.3240 0.4295
vn -0.6885 -0.5969 -0.4120
vn -0.8274 -0.3521 -0.4374
vn -0.8429 -0.3239 0.4295
vn 0.5511 0.2893 0.7827
vn -0.2294 -0.0385 0.9726
vn 0.5510 0.2893 0.7827
vn 0.5791 0.2386 -0.7796
vn 0.9109 0.4127 0.0028
vn 0.5790 0.2387 -0.7796
vn 0.6694 -0.0266 -0.7424
vn -0.8274 -0.3521 -0.4375
vn -0.1947 -0.1017 -0.9756
vn -0.8429 -0.3240 0.4296
vn 0.9109 0.4127 0.0029
vn -0.1946 -0.1017 -0.9756
vn 0.5790 0.2386 -0.7796
vt 0.543243 0.635056
vt 0.535370 0.641335
vt 0.537796 0.636299
vt 0.537796 0.646370
vt 0.547607 0.638535
vt 0.543243 0.647614
vt 0.547607 0.644127
vt 0.593674 0.671494
vt 0.598511 0.669548
vt 0.596146 0.672157
vt 0.592773 0.669609
vt 0.596436 0.666756
vt 0.592804 0.667854
vt 0.594147 0.666748
vt 0.591187 0.666855
vt 0.590591 0.669838
vt 0.587372 0.669685
vt 0.591782 0.673050
vt 0.588348 0.674789
vt 0.582382 0.669067
vt 0.582687 0.676537
vt 0.595596 0.675606
vt 0.592606 0.680244
vt 0.586334 0.684982
vt 0.603775 0.674767
vt 0.603561 0.686485
vt 0.594009 0.696274
vt 0.603775 0.658051
vt 0.597107 0.663902
vt 0.596405 0.659698
vt 0.602859 0.665543
vt 0.600342 0.651657
vt 0.594193 0.655174
vt 0.593353 0.664742
vt 0.591705 0.661980
vt 0.588959 0.658463
vt 0.588654 0.665283
vt 0.584778 0.662933
vt 0.580322 0.660286
vt 0.576584 0.668175
vt 0.591812 0.651588
vt 0.585907 0.654999
vt 0.579453 0.688484
vt 0.584915 0.699394
vt 0.576157 0.678001
vt 0.597061 0.648293
vt 0.627350 0.682632
vt 0.649124 0.687675
vt 0.627441 0.688225
vt 0.649033 0.682457
vt 0.627441 0.671455
vt 0.649033 0.677231
vt 0.627350 0.677048
vt 0.649124 0.672005
vt 0.627914 0.660294
vt 0.649292 0.666786
vt 0.627625 0.665871
vt 0.649551 0.661568
vt 0.649292 0.692902
vt 0.627625 0.693810
vt 0.649551 0.698120
vt 0.627914 0.699394
s 0
usemtl decorations
f 240/1/1 239/2/1 238/3/1
f 237/1/1 236/4/1 235/2/1
f 234/5/1 233/4/1 232/1/1
f 231/5/1 230/6/1 229/4/1
f 228/6/1 227/5/1 226/7/1
s 1
f 225/8/2 224/9/3 223/10/4
f 222/11/5 221/9/3 220/8/6
f 219/11/7 218/12/8 217/9/3
f 216/13/9 215/12/8 214/11/7
f 213/12/10 212/13/9 211/14/11
f 210/15/12 209/11/7 208/16/13
f 207/15/12 206/13/9 205/11/7
f 204/17/14 203/18/15 202/19/16
f 201/17/17 200/16/18 199/18/15
f 198/20/19 197/19/20 196/21/21
f 195/20/19 194/17/17 193/19/16
f 192/19/16 191/22/22 190/23/23
f 189/19/16 188/18/15 187/22/24
f 186/21/25 185/23/26 184/24/27
f 183/21/25 3/19/16 182/23/26
f 181/23/23 180/25/28 179/26/29
f 178/23/23 177/22/24 176/25/30
f 175/24/31 174/26/29 173/27/32
f 172/24/31 4/23/33 171/26/29
f 170/28/34 169/29/35 168/30/36
f 167/28/34 166/31/37 165/29/35
f 164/32/38 163/30/36 162/33/39
f 161/32/38 13/28/29 160/30/40
f 159/30/36 158/34/41 157/35/42
f 156/30/36 155/29/43 154/34/41
f 153/33/44 152/35/42 151/36/45
f 150/33/39 14/30/36 149/35/42
f 148/35/42 147/15/46 146/37/47
f 145/35/42 144/34/48 143/15/49
f 142/36/50 141/37/47 140/38/51
f 139/36/50 16/35/42 138/37/47
f 137/37/52 136/16/13 135/17/53
f 134/37/47 133/15/12 132/16/13
f 131/38/54 130/17/53 129/20/55
f 128/38/54 36/37/47 25/17/53
f 127/39/56 126/20/57 125/40/58
f 124/39/56 123/38/51 122/20/57
f 121/41/59 120/36/45 119/42/60
f 118/41/61 117/33/44 116/36/45
f 115/43/62 114/27/32 113/44/63
f 112/43/62 111/24/64 110/27/32
f 109/40/58 108/21/21 107/45/65
f 106/40/58 40/20/66 105/21/21
f 104/42/60 103/38/51 102/39/56
f 101/42/60 41/36/45 42/38/51
f 100/46/67 99/33/68 98/41/61
f 97/46/67 37/32/38 38/33/68
f 96/45/69 95/24/27 94/43/70
f 93/45/65 33/21/21 34/24/27
f 92/29/43 91/14/11 90/34/41
f 89/29/71 88/12/72 87/14/73
f 86/22/22 85/9/3 84/25/28
f 83/22/22 82/10/4 81/9/3
f 80/16/18 79/8/2 78/18/15
f 29/16/74 30/11/5 77/8/75
f 76/31/37 75/12/72 28/29/35
f 31/31/37 26/9/3 27/12/72
f 74/18/15 73/10/76 24/22/24
f 21/18/15 22/8/75 23/10/4
f 72/34/48 71/13/9 20/15/77
f 17/34/48 18/14/11 19/13/9
f 70/47/78 69/48/79 68/49/80
f 67/47/81 66/50/58 65/48/79
f 64/51/82 63/52/56 62/53/83
f 61/51/84 60/54/60 59/52/56
f 58/55/85 57/56/61 56/57/86
f 55/55/87 54/58/88 53/56/61
f 52/49/89 51/59/62 50/60/90
f 2/49/89 32/48/65 49/59/62
f 48/53/83 47/50/58 12/47/91
f 9/53/83 10/52/56 11/50/58
f 46/57/92 45/54/60 8/51/82
f 5/57/86 6/56/61 7/54/60
f 44/60/93 43/61/67 15/62/94
f 1/60/90 35/59/70 39/61/67
