# Blender 5.0.0
# www.blender.org
mtllib Circle_005_Circle_003_Dupli_209_decorations_0.mtl
o Circle.005|Circle.003|Dupli|209_decorations_0
v -4.323259 1.816021 0.663985
v -4.322497 1.815475 0.662933
v -4.323641 1.821798 0.658424
v -4.324728 1.822575 0.659925
v -4.325564 1.815042 0.663578
v -4.326732 1.819330 0.660398
v -4.326552 1.818595 0.659321
v -4.325372 1.814255 0.662426
v -4.324192 1.814060 0.661683
v -4.325449 1.818412 0.658627
v -4.324253 1.818920 0.658838
v -4.322912 1.814603 0.661909
v -4.326675 1.822300 0.660334
v -4.328018 1.821179 0.659344
v -4.324624 1.815828 0.664271
v -4.327743 1.820057 0.657700
v -4.327732 1.821409 0.657007
v -4.327431 1.822499 0.656660
v -4.326537 1.822351 0.656097
v -4.326362 1.821182 0.656145
v -4.324394 1.822826 0.657596
v -4.325253 1.823424 0.657045
v -4.325830 1.823837 0.657841
v -4.325278 1.823459 0.658817
v -4.324234 1.820553 0.656963
v -4.326864 1.823691 0.658059
v -4.327577 1.823096 0.657533
v -4.327955 1.822323 0.658345
v -4.324876 1.821813 0.656407
v -4.325567 1.822763 0.656268
v -4.326863 1.823235 0.659150
v -4.323864 1.819736 0.659795
v -4.323597 1.820551 0.659283
v -4.324538 1.821224 0.660581
v -4.324576 1.820245 0.660778
v -4.326059 1.819778 0.656640
v -4.326224 1.820986 0.660936
v -4.327386 1.820016 0.660079
v -4.325853 1.820065 0.661047
v -4.324110 1.819474 0.658018
v -4.327148 1.819044 0.658656
v -4.325690 1.818803 0.657739
v -4.325853 1.820065 0.661047
v -4.323259 1.816021 0.663985
v -4.326552 1.818595 0.659321
v -4.325564 1.815042 0.663578
v -4.324253 1.818920 0.658838
v -4.324192 1.814060 0.661683
v -4.324576 1.820245 0.660778
v -4.323259 1.816021 0.663985
v -4.324576 1.820245 0.660778
v -4.322497 1.815475 0.662933
v -4.326732 1.819330 0.660398
v -4.325853 1.820065 0.661047
v -4.324624 1.815828 0.664271
v -4.325564 1.815042 0.663578
v -4.326732 1.819330 0.660398
v -4.324624 1.815828 0.664271
v -4.325449 1.818412 0.658627
v -4.326552 1.818595 0.659321
v -4.325372 1.814255 0.662426
v -4.324192 1.814060 0.661683
v -4.325449 1.818412 0.658627
v -4.325372 1.814255 0.662426
v -4.323864 1.819736 0.659795
v -4.324253 1.818920 0.658838
v -4.322912 1.814603 0.661909
v -4.322497 1.815475 0.662933
v -4.323864 1.819736 0.659795
v -4.322912 1.814603 0.661909
v -4.326537 1.822351 0.656097
v -4.327732 1.821409 0.657007
v -4.325830 1.823837 0.657841
v -4.324394 1.822826 0.657596
v -4.327577 1.823096 0.657533
v -4.326863 1.823235 0.659150
v -4.325253 1.823424 0.657045
v -4.324394 1.822826 0.657596
v -4.325253 1.823424 0.657045
v -4.324876 1.821813 0.656407
v -4.326864 1.823691 0.658059
v -4.325830 1.823837 0.657841
v -4.325278 1.823459 0.658817
v -4.326863 1.823235 0.659150
v -4.326864 1.823691 0.658059
v -4.325278 1.823459 0.658817
v -4.327431 1.822499 0.656660
v -4.327577 1.823096 0.657533
v -4.327955 1.822323 0.658345
v -4.327732 1.821409 0.657007
v -4.327431 1.822499 0.656660
v -4.327955 1.822323 0.658345
v -4.323864 1.819736 0.659795
v -4.324576 1.820245 0.660778
v -4.324538 1.821224 0.660581
v -4.323864 1.819736 0.659795
v -4.325853 1.820065 0.661047
v -4.326732 1.819330 0.660398
v -4.327386 1.820016 0.660079
v -4.325853 1.820065 0.661047
v -4.326552 1.818595 0.659321
v -4.325449 1.818412 0.658627
v -4.325690 1.818803 0.657739
v -4.326552 1.818595 0.659321
v -4.323597 1.820551 0.659283
v -4.324253 1.818920 0.658838
v -4.323864 1.819736 0.659795
v -4.323597 1.820551 0.659283
v -4.324253 1.818920 0.658838
v -4.326224 1.820986 0.660936
v -4.324538 1.821224 0.660581
v -4.324576 1.820245 0.660778
v -4.325853 1.820065 0.661047
v -4.326224 1.820986 0.660936
v -4.324576 1.820245 0.660778
v -4.327148 1.819044 0.658656
v -4.327386 1.820016 0.660079
v -4.326732 1.819330 0.660398
v -4.326552 1.818595 0.659321
v -4.327148 1.819044 0.658656
v -4.326732 1.819330 0.660398
v -4.324110 1.819474 0.658018
v -4.325690 1.818803 0.657739
v -4.325449 1.818412 0.658627
v -4.324253 1.818920 0.658838
v -4.324110 1.819474 0.658018
v -4.325449 1.818412 0.658627
v -4.325690 1.818803 0.657739
v -4.324110 1.819474 0.658018
v -4.324234 1.820553 0.656963
v -4.325690 1.818803 0.657739
v -4.324876 1.821813 0.656407
v -4.326362 1.821182 0.656145
v -4.326059 1.819778 0.656640
v -4.324234 1.820553 0.656963
v -4.324876 1.821813 0.656407
v -4.326059 1.819778 0.656640
v -4.326059 1.819778 0.656640
v -4.327148 1.819044 0.658656
v -4.325690 1.818803 0.657739
v -4.326059 1.819778 0.656640
v -4.327148 1.819044 0.658656
v -4.326362 1.821182 0.656145
v -4.327732 1.821409 0.657007
v -4.327743 1.820057 0.657700
v -4.326059 1.819778 0.656640
v -4.326362 1.821182 0.656145
v -4.327743 1.820057 0.657700
v -4.327743 1.820057 0.657700
v -4.327386 1.820016 0.660079
v -4.327148 1.819044 0.658656
v -4.327743 1.820057 0.657700
v -4.327386 1.820016 0.660079
v -4.327732 1.821409 0.657007
v -4.327955 1.822323 0.658345
v -4.328018 1.821179 0.659344
v -4.327743 1.820057 0.657700
v -4.327732 1.821409 0.657007
v -4.328018 1.821179 0.659344
v -4.328018 1.821179 0.659344
v -4.326224 1.820986 0.660936
v -4.327386 1.820016 0.660079
v -4.328018 1.821179 0.659344
v -4.326224 1.820986 0.660936
v -4.327955 1.822323 0.658345
v -4.326863 1.823235 0.659150
v -4.326675 1.822300 0.660334
v -4.328018 1.821179 0.659344
v -4.327955 1.822323 0.658345
v -4.326675 1.822300 0.660334
v -4.326675 1.822300 0.660334
v -4.324538 1.821224 0.660581
v -4.326224 1.820986 0.660936
v -4.326675 1.822300 0.660334
v -4.324538 1.821224 0.660581
v -4.326863 1.823235 0.659150
v -4.325278 1.823459 0.658817
v -4.324728 1.822575 0.659925
v -4.326675 1.822300 0.660334
v -4.326863 1.823235 0.659150
v -4.324728 1.822575 0.659925
v -4.324728 1.822575 0.659925
v -4.323597 1.820551 0.659283
v -4.324538 1.821224 0.660581
v -4.324728 1.822575 0.659925
v -4.323597 1.820551 0.659283
v -4.325278 1.823459 0.658817
v -4.324394 1.822826 0.657596
v -4.323641 1.821798 0.658424
v -4.324728 1.822575 0.659925
v -4.325278 1.823459 0.658817
v -4.323641 1.821798 0.658424
v -4.323641 1.821798 0.658424
v -4.324234 1.820553 0.656963
v -4.324110 1.819474 0.658018
v -4.323597 1.820551 0.659283
v -4.323641 1.821798 0.658424
v -4.324110 1.819474 0.658018
v -4.324394 1.822826 0.657596
v -4.324876 1.821813 0.656407
v -4.324234 1.820553 0.656963
v -4.323641 1.821798 0.658424
v -4.324394 1.822826 0.657596
v -4.324234 1.820553 0.656963
v -4.325567 1.822763 0.656268
v -4.326537 1.822351 0.656097
v -4.326362 1.821182 0.656145
v -4.324876 1.821813 0.656407
v -4.325567 1.822763 0.656268
v -4.326362 1.821182 0.656145
v -4.327431 1.822499 0.656660
v -4.326537 1.822351 0.656097
v -4.327577 1.823096 0.657533
v -4.325567 1.822763 0.656268
v -4.327577 1.823096 0.657533
v -4.326537 1.822351 0.656097
v -4.326864 1.823691 0.658059
v -4.327577 1.823096 0.657533
v -4.325567 1.822763 0.656268
v -4.325253 1.823424 0.657045
v -4.326864 1.823691 0.658059
v -4.325567 1.822763 0.656268
v -4.325830 1.823837 0.657841
v -4.326864 1.823691 0.658059
v -4.325253 1.823424 0.657045
v -4.325372 1.814255 0.662426
v -4.325564 1.815042 0.663578
v -4.324192 1.814060 0.661683
v -4.322912 1.814603 0.661909
v -4.324192 1.814060 0.661683
v -4.325564 1.815042 0.663578
v -4.324624 1.815828 0.664271
v -4.322912 1.814603 0.661909
v -4.325564 1.815042 0.663578
v -4.322497 1.815475 0.662933
v -4.322912 1.814603 0.661909
v -4.324624 1.815828 0.664271
v -4.323259 1.816021 0.663985
v -4.322497 1.815475 0.662933
v -4.324624 1.815828 0.664271
vn 0.2316 -0.7849 0.5747
vn 0.3518 0.7993 -0.4871
vn -0.3873 0.9217 -0.0221
vn 0.0871 0.9887 -0.1218
vn 0.2075 0.4961 -0.8431
vn 0.3518 0.7993 -0.4872
vn 0.2076 0.4961 -0.8431
vn -0.7141 0.6487 -0.2632
vn -0.2371 0.3074 -0.9216
vn -0.2370 0.3074 -0.9216
vn -0.6472 0.3753 -0.6635
vn -0.1686 -0.2314 -0.9581
vn 0.5511 0.0741 -0.8311
vn -0.2371 0.3075 -0.9216
vn 0.6981 -0.2399 -0.6747
vn 0.7848 0.5650 -0.2549
vn 0.9537 0.2975 -0.0440
vn 0.6980 -0.2398 -0.6747
vn 0.5512 0.0741 -0.8311
vn 0.7847 0.5650 -0.2549
vn 0.7440 -0.5187 -0.4212
vn 0.9537 0.2975 -0.0439
vn 0.9848 -0.0125 0.1730
vn 0.3562 0.8717 0.3366
vn 0.4846 0.6331 0.6035
vn 0.7848 0.5650 -0.2548
vn 0.4847 0.6332 0.6035
vn 0.5430 0.3037 0.7829
vn -0.4117 0.7632 0.4981
vn -0.3560 0.5144 0.7802
vn 0.4846 0.6332 0.6035
vn 0.3562 0.8716 0.3367
vn -0.4117 0.7632 0.4980
vn 0.5429 0.3037 0.7829
vn -0.2490 0.1918 0.9493
vn -0.3560 0.5143 0.7802
vn -0.9409 0.3212 0.1078
vn -0.9351 0.0307 0.3530
vn -0.4118 0.7631 0.4980
vn -0.9408 0.3213 0.1077
vn -0.9351 0.0306 0.3530
vn -0.7946 -0.2638 0.5469
vn -0.8327 -0.1213 -0.5403
vn -0.8167 -0.4538 -0.3564
vn -0.9409 0.3212 0.1077
vn -0.7945 -0.2639 0.5469
vn -0.6830 -0.7203 -0.1214
vn -0.8167 -0.4539 -0.3564
vn -0.1687 -0.2314 -0.9581
vn -0.0899 -0.5742 -0.8138
vn -0.8327 -0.1214 -0.5403
vn -0.1687 -0.2313 -0.9581
vn -0.6829 -0.7203 -0.1214
vn -0.0898 -0.5742 -0.8138
vn 0.0017 -0.8337 -0.5523
vn 0.6981 -0.2398 -0.6747
vn 0.0018 -0.8337 -0.5522
vn -0.0178 -0.7883 -0.6150
vn 0.7440 -0.5187 -0.4213
vn 0.7433 -0.4653 -0.4806
vn -0.8344 -0.2041 0.5120
vn -0.7199 -0.6721 -0.1732
vn 0.5371 0.3780 0.7541
vn -0.2749 0.2632 0.9247
vn 0.5371 0.3779 0.7541
vn 0.7433 -0.4653 -0.4807
vn 0.9849 -0.0125 0.1730
vn 0.9902 0.0536 0.1287
vn -0.7200 -0.6720 -0.1732
vn -0.7200 -0.6721 -0.1732
vn 0.9902 0.0537 0.1286
vn -0.6472 0.3754 -0.6635
vn -0.7140 0.6488 -0.2632
vn 0.3562 0.8717 0.3367
vn 0.0872 0.9887 -0.1218
vn -0.3872 0.9217 -0.0222
vn -0.4118 0.7632 0.4980
vn -0.7140 0.6487 -0.2632
vn -0.8326 -0.1213 -0.5404
vn -0.1686 -0.2313 -0.9581
vn -0.8326 -0.1214 -0.5404
vn 0.7027 -0.2545 -0.6644
vn 0.9585 0.2831 -0.0333
vn 0.7027 -0.2544 -0.6644
vn 0.7432 -0.4654 -0.4806
vn -0.8128 -0.4686 -0.3460
vn -0.0857 -0.5890 -0.8036
vn -0.3520 0.5001 0.7912
vn -0.9313 0.0162 0.3638
vn 0.4892 0.6190 0.6145
vn 0.9585 0.2832 -0.0333
vn 0.9902 0.0537 0.1287
vn -0.0856 -0.5890 -0.8036
vn -0.9313 0.0161 0.3638
vn 0.4892 0.6189 0.6145
vn -0.2749 0.2633 0.9247
vn -0.3519 0.5001 0.7912
vt 0.530319 0.611839
vt 0.522446 0.618118
vt 0.524872 0.613083
vt 0.524872 0.623154
vt 0.534683 0.615326
vt 0.530319 0.624397
vt 0.534683 0.620918
vt 0.537079 0.671494
vt 0.541916 0.669548
vt 0.539566 0.672157
vt 0.536179 0.669609
vt 0.539856 0.666756
vt 0.536224 0.667854
vt 0.537567 0.666748
vt 0.534592 0.666855
vt 0.534012 0.669838
vt 0.530777 0.669685
vt 0.535187 0.673050
vt 0.531769 0.674789
vt 0.525803 0.669067
vt 0.526108 0.676537
vt 0.539017 0.675606
vt 0.536011 0.680244
vt 0.529755 0.684982
vt 0.547180 0.674767
vt 0.546982 0.686485
vt 0.537415 0.696274
vt 0.547180 0.658051
vt 0.540527 0.663902
vt 0.539825 0.659698
vt 0.546280 0.665543
vt 0.543762 0.651657
vt 0.537613 0.655174
vt 0.536758 0.664742
vt 0.535126 0.661980
vt 0.532364 0.658463
vt 0.532074 0.665283
vt 0.528198 0.662933
vt 0.523743 0.660286
vt 0.519989 0.668175
vt 0.535217 0.651588
vt 0.529327 0.654999
vt 0.522873 0.688484
vt 0.528320 0.699394
vt 0.519577 0.678001
vt 0.540466 0.648293
vt 0.604446 0.642853
vt 0.626221 0.647896
vt 0.604553 0.648445
vt 0.626144 0.642670
vt 0.604553 0.631676
vt 0.626144 0.637444
vt 0.604446 0.637268
vt 0.626221 0.632225
vt 0.605011 0.620506
vt 0.626404 0.626999
vt 0.604736 0.626091
vt 0.626663 0.621780
vt 0.626404 0.653114
vt 0.604736 0.654030
vt 0.626663 0.658333
vt 0.605011 0.659607
s 0
usemtl decorations
f 240/1/1 239/2/1 238/3/1
f 237/1/1 236/4/1 235/2/1
f 234/5/1 233/4/1 232/1/1
f 231/5/1 230/6/1 229/4/1
f 228/6/1 227/5/1 226/7/1
s 1
f 225/8/2 224/9/3 223/10/4
f 222/11/5 221/9/3 220/8/6
f 219/11/7 218/12/8 217/9/3
f 216/13/9 215/12/8 214/11/7
f 213/12/8 212/13/10 211/14/11
f 210/15/12 209/11/5 208/16/13
f 207/15/12 206/13/14 205/11/5
f 204/17/15 203/18/16 202/19/17
f 201/17/18 200/16/19 199/18/20
f 198/20/21 197/19/22 196/21/23
f 195/20/21 194/17/18 193/19/17
f 192/19/17 191/22/24 190/23/25
f 189/19/17 188/18/26 187/22/24
f 186/21/23 185/23/27 184/24/28
f 183/21/23 3/19/22 182/23/27
f 181/23/25 180/25/29 179/26/30
f 178/23/31 177/22/32 176/25/33
f 175/24/34 174/26/30 173/27/35
f 172/24/34 4/23/25 171/26/30
f 170/28/36 169/29/37 168/30/38
f 167/28/36 166/31/39 165/29/40
f 164/32/35 163/30/41 162/33/42
f 161/32/35 13/28/30 160/30/38
f 159/30/38 158/34/43 157/35/44
f 156/30/38 155/29/45 154/34/43
f 153/33/46 152/35/44 151/36/47
f 150/33/46 14/30/41 149/35/44
f 148/35/48 147/15/49 146/37/50
f 145/35/48 144/34/51 143/15/52
f 142/36/53 141/37/54 140/38/55
f 139/36/53 16/35/48 138/37/54
f 137/37/54 136/16/19 135/17/56
f 134/37/50 133/15/12 132/16/13
f 131/38/57 130/17/56 129/20/21
f 128/38/57 36/37/50 25/17/56
f 127/39/58 126/20/59 125/40/60
f 124/39/58 123/38/55 122/20/59
f 121/41/61 120/36/47 119/42/62
f 118/41/61 117/33/46 116/36/47
f 115/43/63 114/27/35 113/44/64
f 112/43/65 111/24/34 110/27/35
f 109/40/66 108/21/67 107/45/68
f 106/40/66 40/20/21 105/21/67
f 104/42/69 103/38/55 102/39/58
f 101/42/70 41/36/47 42/38/55
f 100/46/64 99/33/46 98/41/61
f 97/46/64 37/32/35 38/33/46
f 96/45/71 95/24/28 94/43/65
f 93/45/71 33/21/23 34/24/28
f 92/29/45 91/14/72 90/34/43
f 89/29/45 88/12/73 87/14/11
f 86/22/24 85/9/3 84/25/33
f 83/22/74 82/10/75 81/9/76
f 80/16/19 79/8/2 78/18/20
f 29/16/19 30/11/5 77/8/6
f 76/31/77 75/12/78 28/29/40
f 31/31/77 26/9/76 27/12/73
f 74/18/26 73/10/4 24/22/24
f 21/18/26 22/8/6 23/10/4
f 72/34/79 71/13/9 20/15/80
f 17/34/81 18/14/72 19/13/14
f 70/47/82 69/48/71 68/49/83
f 67/47/84 66/50/85 65/48/71
f 64/51/86 63/52/58 62/53/87
f 61/51/86 60/54/62 59/52/58
f 58/55/88 57/56/61 56/57/89
f 55/55/88 54/58/64 53/56/61
f 52/49/83 51/59/63 50/60/90
f 2/49/91 32/48/92 49/59/65
f 48/53/93 47/50/60 12/47/82
f 9/53/93 10/52/58 11/50/60
f 46/57/94 45/54/62 8/51/86
f 5/57/89 6/56/61 7/54/62
f 44/60/95 43/61/96 15/62/97
f 1/60/90 35/59/65 39/61/64
