# Blender 5.0.0
# www.blender.org
mtllib Circle_005_Circle_Dupli_203_decorations_0.mtl
o Circle.005|Circle|Dupli|203_decorations_0
v -4.627792 1.679704 0.546999
v -4.628145 1.679213 0.548271
v -4.621040 1.680818 0.551196
v -4.620536 1.681518 0.549381
v -4.627054 1.677609 0.545771
v -4.621968 1.678432 0.547593
v -4.622128 1.677490 0.548498
v -4.627225 1.676601 0.546740
v -4.627691 1.676725 0.548063
v -4.622564 1.677606 0.549735
v -4.622946 1.678692 0.550372
v -4.628100 1.677888 0.548744
v -4.619843 1.680499 0.547794
v -4.619484 1.678529 0.547629
v -4.627306 1.678990 0.545886
v -4.619729 1.677091 0.549011
v -4.618466 1.677701 0.549597
v -4.617700 1.678450 0.550099
v -4.618052 1.678544 0.551102
v -4.619007 1.677845 0.551134
v -4.619534 1.680734 0.551375
v -4.618396 1.680429 0.551259
v -4.618129 1.680801 0.550295
v -4.619123 1.681303 0.549898
v -4.620976 1.678927 0.551872
v -4.617761 1.680260 0.549452
v -4.617570 1.679214 0.549365
v -4.618267 1.678871 0.548473
v -4.619482 1.679195 0.551925
v -4.618362 1.679425 0.551618
v -4.618560 1.680474 0.548607
v -4.622988 1.679932 0.549930
v -4.622328 1.680391 0.550524
v -4.621892 1.680996 0.548953
v -4.622658 1.680390 0.548741
v -4.620393 1.677268 0.550899
v -4.621293 1.680115 0.547579
v -4.620981 1.678409 0.547437
v -4.622204 1.679723 0.547700
v -4.622273 1.678754 0.551109
v -4.621193 1.677165 0.548633
v -4.621768 1.677318 0.550267
v -4.622204 1.679723 0.547700
v -4.627792 1.679704 0.546999
v -4.622128 1.677490 0.548498
v -4.627054 1.677609 0.545771
v -4.622946 1.678692 0.550372
v -4.627691 1.676725 0.548063
v -4.622658 1.680390 0.548741
v -4.627792 1.679704 0.546999
v -4.622658 1.680390 0.548741
v -4.628145 1.679213 0.548271
v -4.621968 1.678432 0.547593
v -4.622204 1.679723 0.547700
v -4.627306 1.678990 0.545886
v -4.627054 1.677609 0.545771
v -4.621968 1.678432 0.547593
v -4.627306 1.678990 0.545886
v -4.622564 1.677606 0.549735
v -4.622128 1.677490 0.548498
v -4.627225 1.676601 0.546740
v -4.627691 1.676725 0.548063
v -4.622564 1.677606 0.549735
v -4.627225 1.676601 0.546740
v -4.622988 1.679932 0.549930
v -4.622946 1.678692 0.550372
v -4.628100 1.677888 0.548744
v -4.628145 1.679213 0.548271
v -4.622988 1.679932 0.549930
v -4.628100 1.677888 0.548744
v -4.618052 1.678544 0.551102
v -4.618466 1.677701 0.549597
v -4.618129 1.680801 0.550295
v -4.619534 1.680734 0.551375
v -4.617570 1.679214 0.549365
v -4.618560 1.680474 0.548607
v -4.618396 1.680429 0.551259
v -4.619534 1.680734 0.551375
v -4.618396 1.680429 0.551259
v -4.619482 1.679195 0.551925
v -4.617761 1.680260 0.549452
v -4.618129 1.680801 0.550295
v -4.619123 1.681303 0.549898
v -4.618560 1.680474 0.548607
v -4.617761 1.680260 0.549452
v -4.619123 1.681303 0.549898
v -4.617700 1.678450 0.550099
v -4.617570 1.679214 0.549365
v -4.618267 1.678871 0.548473
v -4.618466 1.677701 0.549597
v -4.617700 1.678450 0.550099
v -4.618267 1.678871 0.548473
v -4.622988 1.679932 0.549930
v -4.622658 1.680390 0.548741
v -4.621892 1.680996 0.548953
v -4.622988 1.679932 0.549930
v -4.622204 1.679723 0.547700
v -4.621968 1.678432 0.547593
v -4.620981 1.678409 0.547437
v -4.622204 1.679723 0.547700
v -4.622128 1.677490 0.548498
v -4.622564 1.677606 0.549735
v -4.621768 1.677318 0.550267
v -4.622128 1.677490 0.548498
v -4.622328 1.680391 0.550524
v -4.622946 1.678692 0.550372
v -4.622988 1.679932 0.549930
v -4.622328 1.680391 0.550524
v -4.622946 1.678692 0.550372
v -4.621293 1.680115 0.547579
v -4.621892 1.680996 0.548953
v -4.622658 1.680390 0.548741
v -4.622204 1.679723 0.547700
v -4.621293 1.680115 0.547579
v -4.622658 1.680390 0.548741
v -4.621193 1.677165 0.548633
v -4.620981 1.678409 0.547437
v -4.621968 1.678432 0.547593
v -4.622128 1.677490 0.548498
v -4.621193 1.677165 0.548633
v -4.621968 1.678432 0.547593
v -4.622273 1.678754 0.551109
v -4.621768 1.677318 0.550267
v -4.622564 1.677606 0.549735
v -4.622946 1.678692 0.550372
v -4.622273 1.678754 0.551109
v -4.622564 1.677606 0.549735
v -4.621768 1.677318 0.550267
v -4.622273 1.678754 0.551109
v -4.620976 1.678927 0.551872
v -4.621768 1.677318 0.550267
v -4.619482 1.679195 0.551925
v -4.619007 1.677845 0.551134
v -4.620393 1.677268 0.550899
v -4.620976 1.678927 0.551872
v -4.619482 1.679195 0.551925
v -4.620393 1.677268 0.550899
v -4.620393 1.677268 0.550899
v -4.621193 1.677165 0.548633
v -4.621768 1.677318 0.550267
v -4.620393 1.677268 0.550899
v -4.621193 1.677165 0.548633
v -4.619007 1.677845 0.551134
v -4.618466 1.677701 0.549597
v -4.619729 1.677091 0.549011
v -4.620393 1.677268 0.550899
v -4.619007 1.677845 0.551134
v -4.619729 1.677091 0.549011
v -4.619729 1.677091 0.549011
v -4.620981 1.678409 0.547437
v -4.621193 1.677165 0.548633
v -4.619729 1.677091 0.549011
v -4.620981 1.678409 0.547437
v -4.618466 1.677701 0.549597
v -4.618267 1.678871 0.548473
v -4.619484 1.678529 0.547629
v -4.619729 1.677091 0.549011
v -4.618466 1.677701 0.549597
v -4.619484 1.678529 0.547629
v -4.619484 1.678529 0.547629
v -4.621293 1.680115 0.547579
v -4.620981 1.678409 0.547437
v -4.619484 1.678529 0.547629
v -4.621293 1.680115 0.547579
v -4.618267 1.678871 0.548473
v -4.618560 1.680474 0.548607
v -4.619843 1.680499 0.547794
v -4.619484 1.678529 0.547629
v -4.618267 1.678871 0.548473
v -4.619843 1.680499 0.547794
v -4.619843 1.680499 0.547794
v -4.621892 1.680996 0.548953
v -4.621293 1.680115 0.547579
v -4.619843 1.680499 0.547794
v -4.621892 1.680996 0.548953
v -4.618560 1.680474 0.548607
v -4.619123 1.681303 0.549898
v -4.620536 1.681518 0.549381
v -4.619843 1.680499 0.547794
v -4.618560 1.680474 0.548607
v -4.620536 1.681518 0.549381
v -4.620536 1.681518 0.549381
v -4.622328 1.680391 0.550524
v -4.621892 1.680996 0.548953
v -4.620536 1.681518 0.549381
v -4.622328 1.680391 0.550524
v -4.619123 1.681303 0.549898
v -4.619534 1.680734 0.551375
v -4.621040 1.680818 0.551196
v -4.620536 1.681518 0.549381
v -4.619123 1.681303 0.549898
v -4.621040 1.680818 0.551196
v -4.621040 1.680818 0.551196
v -4.620976 1.678927 0.551872
v -4.622273 1.678754 0.551109
v -4.622328 1.680391 0.550524
v -4.621040 1.680818 0.551196
v -4.622273 1.678754 0.551109
v -4.619534 1.680734 0.551375
v -4.619482 1.679195 0.551925
v -4.620976 1.678927 0.551872
v -4.621040 1.680818 0.551196
v -4.619534 1.680734 0.551375
v -4.620976 1.678927 0.551872
v -4.618362 1.679425 0.551618
v -4.618052 1.678544 0.551102
v -4.619007 1.677845 0.551134
v -4.619482 1.679195 0.551925
v -4.618362 1.679425 0.551618
v -4.619007 1.677845 0.551134
v -4.617700 1.678450 0.550099
v -4.618052 1.678544 0.551102
v -4.617570 1.679214 0.549365
v -4.618362 1.679425 0.551618
v -4.617570 1.679214 0.549365
v -4.618052 1.678544 0.551102
v -4.617761 1.680260 0.549452
v -4.617570 1.679214 0.549365
v -4.618362 1.679425 0.551618
v -4.618396 1.680429 0.551259
v -4.617761 1.680260 0.549452
v -4.618362 1.679425 0.551618
v -4.618129 1.680801 0.550295
v -4.617761 1.680260 0.549452
v -4.618396 1.680429 0.551259
v -4.627225 1.676601 0.546740
v -4.627054 1.677609 0.545771
v -4.627691 1.676725 0.548063
v -4.628100 1.677888 0.548744
v -4.627691 1.676725 0.548063
v -4.627054 1.677609 0.545771
v -4.627306 1.678990 0.545886
v -4.628100 1.677888 0.548744
v -4.627054 1.677609 0.545771
v -4.628145 1.679213 0.548271
v -4.628100 1.677888 0.548744
v -4.627306 1.678990 0.545886
v -4.627792 1.679704 0.546999
v -4.628145 1.679213 0.548271
v -4.627306 1.678990 0.545886
vn -0.9376 -0.1447 -0.3163
vn 0.5906 0.5049 0.6296
vn 0.8820 0.4271 -0.1990
vn 0.7133 0.6752 0.1877
vn 0.6061 0.0442 0.7941
vn 0.8820 0.4271 -0.1989
vn 0.5906 0.5048 0.6296
vn 0.6061 0.0443 0.7941
vn 0.9696 -0.0526 -0.2390
vn 0.7483 -0.3597 0.5574
vn 0.9696 -0.0527 -0.2390
vn 0.7483 -0.3596 0.5574
vn 0.9101 -0.4028 0.0976
vn 0.3406 -0.7167 0.6086
vn 0.1104 -0.0628 0.9919
vn 0.7484 -0.3596 0.5573
vn 0.6062 0.0443 0.7941
vn -0.2626 -0.1278 0.9564
vn 0.0852 0.6829 0.7255
vn -0.2901 0.6883 0.6648
vn -0.2625 -0.1279 0.9564
vn 0.1104 -0.0627 0.9919
vn -0.5971 -0.1744 0.7830
vn -0.2902 0.6884 0.6648
vn -0.6230 0.5945 0.5083
vn -0.2901 0.6883 0.6649
vn 0.2840 0.9588 0.0101
vn -0.0725 0.9903 -0.1184
vn 0.2840 0.9588 0.0100
vn -0.6231 0.5945 0.5083
vn -0.0725 0.9903 -0.1183
vn -0.4180 0.8790 -0.2294
vn -0.0726 0.9903 -0.1184
vn 0.5571 0.5571 -0.6158
vn 0.2264 0.5507 -0.8034
vn 0.5571 0.5572 -0.6158
vn -0.4181 0.8789 -0.2295
vn 0.2264 0.5507 -0.8035
vn -0.1364 0.4648 -0.8748
vn 0.2264 0.5506 -0.8035
vn 0.6988 -0.2196 -0.6808
vn 0.3816 -0.2995 -0.8745
vn 0.5571 0.5571 -0.6159
vn 0.6989 -0.2195 -0.6807
vn -0.1365 0.4647 -0.8749
vn 0.3815 -0.2995 -0.8745
vn 0.0098 -0.3361 -0.9418
vn 0.6025 -0.7864 -0.1358
vn 0.2761 -0.9200 -0.2780
vn 0.6988 -0.2196 -0.6807
vn 0.0097 -0.3361 -0.9418
vn 0.2761 -0.9201 -0.2780
vn -0.0896 -0.9207 -0.3799
vn 0.2760 -0.9201 -0.2780
vn -0.0106 -0.8436 0.5368
vn 0.6025 -0.7865 -0.1358
vn 0.3407 -0.7167 0.6085
vn -0.0897 -0.9207 -0.3798
vn -0.3596 -0.8487 0.3877
vn -0.0896 -0.9207 -0.3798
vn -0.0105 -0.8436 0.5368
vn -0.3597 -0.8487 0.3877
vn -0.5970 -0.1744 0.7830
vn -0.2893 -0.8580 0.4244
vn -0.5328 -0.1665 0.8297
vn 0.0895 -0.3324 -0.9389
vn -0.0124 -0.9318 -0.3627
vn 0.0894 -0.3324 -0.9389
vn -0.3492 0.9136 -0.2085
vn -0.0605 0.4888 -0.8703
vn -0.4180 0.8790 -0.2295
vn -0.5327 -0.1665 0.8297
vn -0.5594 0.6218 0.5480
vn -0.5327 -0.1666 0.8297
vn -0.0604 0.4889 -0.8703
vn -0.1364 0.4647 -0.8749
vn -0.5594 0.6219 0.5481
vn -0.3492 0.9135 -0.2085
vn 0.7133 0.6752 0.1876
vn -0.2801 -0.1306 0.9511
vn -0.3076 0.6860 0.6593
vn -0.2800 -0.1306 0.9511
vn -0.5328 -0.1666 0.8297
vn -0.5594 0.6218 0.5481
vn 0.2589 -0.9232 -0.2840
vn -0.0279 -0.8468 0.5312
vn 0.2589 -0.9232 -0.2839
vn 0.2092 0.5482 -0.8098
vn 0.3644 -0.3023 -0.8808
vn 0.2092 0.5482 -0.8097
vn -0.0605 0.4889 -0.8703
vn -0.3077 0.6861 0.6593
vn -0.0900 0.9882 -0.1242
vn -0.3076 0.6861 0.6593
vn -0.0279 -0.8468 0.5313
vn -0.0279 -0.8467 0.5313
vn -0.0900 0.9882 -0.1243
vn 0.2092 0.5483 -0.8097
vn -0.0899 0.9882 -0.1243
vn -0.0604 0.4889 -0.8702
vt 0.543243 0.611839
vt 0.535370 0.618118
vt 0.537796 0.613083
vt 0.537796 0.623154
vt 0.547607 0.615326
vt 0.543243 0.624397
vt 0.547607 0.620918
vt 0.565384 0.671494
vt 0.570206 0.669548
vt 0.567856 0.672157
vt 0.564468 0.669609
vt 0.568146 0.666756
vt 0.564514 0.667854
vt 0.565857 0.666748
vt 0.562897 0.666855
vt 0.562302 0.669838
vt 0.559082 0.669685
vt 0.563492 0.673050
vt 0.560059 0.674789
vt 0.554092 0.669067
vt 0.554398 0.676537
vt 0.567307 0.675606
vt 0.564316 0.680244
vt 0.558044 0.684982
vt 0.575485 0.674767
vt 0.575272 0.686485
vt 0.565720 0.696274
vt 0.575485 0.658051
vt 0.568817 0.663902
vt 0.568115 0.659698
vt 0.574570 0.665543
vt 0.572052 0.651657
vt 0.565903 0.655174
vt 0.565063 0.664742
vt 0.563416 0.661980
vt 0.560669 0.658463
vt 0.560364 0.665283
vt 0.556488 0.662933
vt 0.552032 0.660286
vt 0.548294 0.668175
vt 0.563522 0.651588
vt 0.557617 0.654999
vt 0.551163 0.688484
vt 0.556610 0.699394
vt 0.547867 0.678001
vt 0.568756 0.648293
vt 0.604446 0.682632
vt 0.626221 0.687675
vt 0.604553 0.688225
vt 0.626144 0.682457
vt 0.604553 0.671455
vt 0.626144 0.677231
vt 0.604446 0.677048
vt 0.626221 0.672005
vt 0.605011 0.660294
vt 0.626404 0.666786
vt 0.604736 0.665871
vt 0.626663 0.661568
vt 0.626404 0.692902
vt 0.604736 0.693810
vt 0.626663 0.698120
vt 0.605011 0.699394
s 0
usemtl decorations
f 240/1/1 239/2/1 238/3/1
f 237/1/1 236/4/1 235/2/1
f 234/5/1 233/4/1 232/1/1
f 231/5/1 230/6/1 229/4/1
f 228/6/1 227/5/1 226/7/1
s 1
f 225/8/2 224/9/3 223/10/4
f 222/11/5 221/9/6 220/8/7
f 219/11/8 218/12/9 217/9/3
f 216/13/10 215/12/9 214/11/8
f 213/12/11 212/13/12 211/14/13
f 210/15/14 209/11/8 208/16/15
f 207/15/14 206/13/16 205/11/17
f 204/17/18 203/18/19 202/19/20
f 201/17/21 200/16/22 199/18/19
f 198/20/23 197/19/24 196/21/25
f 195/20/23 194/17/18 193/19/26
f 192/19/20 191/22/27 190/23/28
f 189/19/20 188/18/19 187/22/29
f 186/21/30 185/23/31 184/24/32
f 183/21/30 3/19/20 182/23/31
f 181/23/33 180/25/34 179/26/35
f 178/23/28 177/22/29 176/25/36
f 175/24/37 174/26/38 173/27/39
f 172/24/37 4/23/28 171/26/38
f 170/28/40 169/29/41 168/30/42
f 167/28/40 166/31/43 165/29/44
f 164/32/45 163/30/46 162/33/47
f 161/32/45 13/28/40 160/30/42
f 159/30/46 158/34/48 157/35/49
f 156/30/42 155/29/50 154/34/48
f 153/33/51 152/35/52 151/36/53
f 150/33/51 14/30/46 149/35/52
f 148/35/54 147/15/14 146/37/55
f 145/35/52 144/34/56 143/15/57
f 142/36/58 141/37/55 140/38/59
f 139/36/60 16/35/52 138/37/55
f 137/37/55 136/16/15 135/17/18
f 134/37/61 133/15/14 132/16/15
f 131/38/62 130/17/18 129/20/63
f 128/38/62 36/37/61 25/17/18
f 127/39/64 126/20/63 125/40/65
f 124/39/64 123/38/59 122/20/63
f 121/41/66 120/36/53 119/42/67
f 118/41/68 117/33/51 116/36/53
f 115/43/69 114/27/39 113/44/70
f 112/43/69 111/24/71 110/27/39
f 109/40/72 108/21/25 107/45/73
f 106/40/74 40/20/23 105/21/25
f 104/42/67 103/38/59 102/39/64
f 101/42/67 41/36/53 42/38/59
f 100/46/75 99/33/51 98/41/68
f 97/46/75 37/32/76 38/33/51
f 96/45/77 95/24/71 94/43/78
f 93/45/77 33/21/25 34/24/71
f 92/29/50 91/14/13 90/34/48
f 89/29/50 88/12/9 87/14/13
f 86/22/29 85/9/6 84/25/36
f 83/22/29 82/10/4 81/9/6
f 80/16/22 79/8/7 78/18/19
f 29/16/22 30/11/5 77/8/7
f 76/31/34 75/12/9 28/29/44
f 31/31/34 26/9/6 27/12/9
f 74/18/19 73/10/79 24/22/29
f 21/18/19 22/8/7 23/10/4
f 72/34/56 71/13/12 20/15/14
f 17/34/56 18/14/13 19/13/12
f 70/47/80 69/48/77 68/49/81
f 67/47/82 66/50/83 65/48/84
f 64/51/85 63/52/64 62/53/86
f 61/51/87 60/54/67 59/52/64
f 58/55/88 57/56/66 56/57/89
f 55/55/90 54/58/91 53/56/68
f 52/49/92 51/59/69 50/60/93
f 2/49/94 32/48/73 49/59/69
f 48/53/95 47/50/72 12/47/82
f 9/53/96 10/52/64 11/50/65
f 46/57/89 45/54/67 8/51/85
f 5/57/89 6/56/68 7/54/67
f 44/60/97 43/61/75 15/62/98
f 1/60/99 35/59/78 39/61/100
