# Blender 5.0.0
# www.blender.org
mtllib Circle_002_Circle_003_Dupli_93_decorations_0.mtl
o Circle.002|Circle.003|Dupli|93_decorations_0
v -4.562548 1.865782 0.713711
v -4.563620 1.864971 0.713289
v -4.568424 1.871142 0.712626
v -4.566895 1.872299 0.713227
v -4.562704 1.865655 0.716240
v -4.566052 1.869973 0.716168
v -4.567090 1.869186 0.716358
v -4.563814 1.864812 0.716444
v -4.564635 1.864193 0.715481
v -4.567857 1.868607 0.715458
v -4.567776 1.868673 0.714146
v -4.564548 1.864264 0.714077
v -4.566313 1.872733 0.715101
v -4.567117 1.872118 0.716836
v -4.562140 1.866086 0.715024
v -4.568701 1.870916 0.717126
v -4.569479 1.872156 0.716719
v -4.569920 1.873061 0.716097
v -4.570542 1.872592 0.715368
v -4.570432 1.871438 0.715601
v -4.569253 1.872340 0.713057
v -4.569772 1.873181 0.713707
v -4.568960 1.873796 0.714026
v -4.568009 1.873282 0.713546
v -4.569749 1.870134 0.713750
v -4.568652 1.874026 0.715021
v -4.569078 1.873700 0.715943
v -4.568191 1.873134 0.716483
v -4.570332 1.871520 0.713972
v -4.570476 1.872646 0.714304
v -4.567536 1.873635 0.715070
v -4.566908 1.869334 0.713409
v -4.567492 1.869988 0.712930
v -4.566169 1.870989 0.713450
v -4.565906 1.870092 0.713803
v -4.569872 1.870033 0.715753
v -4.565665 1.871365 0.715072
v -4.566361 1.870832 0.716574
v -4.565525 1.870376 0.715031
v -4.568639 1.869115 0.713903
v -4.567732 1.869792 0.716825
v -4.568746 1.869028 0.715637
v -4.565525 1.870376 0.715031
v -4.562548 1.865782 0.713711
v -4.567090 1.869186 0.716358
v -4.562704 1.865655 0.716240
v -4.567776 1.868673 0.714146
v -4.564635 1.864193 0.715481
v -4.565906 1.870092 0.713803
v -4.562548 1.865782 0.713711
v -4.565906 1.870092 0.713803
v -4.563620 1.864971 0.713289
v -4.566052 1.869973 0.716168
v -4.565525 1.870376 0.715031
v -4.562140 1.866086 0.715024
v -4.562704 1.865655 0.716240
v -4.566052 1.869973 0.716168
v -4.562140 1.866086 0.715024
v -4.567857 1.868607 0.715458
v -4.567090 1.869186 0.716358
v -4.563814 1.864812 0.716444
v -4.564635 1.864193 0.715481
v -4.567857 1.868607 0.715458
v -4.563814 1.864812 0.716444
v -4.566908 1.869334 0.713409
v -4.567776 1.868673 0.714146
v -4.564548 1.864264 0.714077
v -4.563620 1.864971 0.713289
v -4.566908 1.869334 0.713409
v -4.564548 1.864264 0.714077
v -4.570542 1.872592 0.715368
v -4.569479 1.872156 0.716719
v -4.568960 1.873796 0.714026
v -4.569253 1.872340 0.713057
v -4.569078 1.873700 0.715943
v -4.567536 1.873635 0.715070
v -4.569772 1.873181 0.713707
v -4.569253 1.872340 0.713057
v -4.569772 1.873181 0.713707
v -4.570332 1.871520 0.713972
v -4.568652 1.874026 0.715021
v -4.568960 1.873796 0.714026
v -4.568009 1.873282 0.713546
v -4.567536 1.873635 0.715070
v -4.568652 1.874026 0.715021
v -4.568009 1.873282 0.713546
v -4.569920 1.873061 0.716097
v -4.569078 1.873700 0.715943
v -4.568191 1.873134 0.716483
v -4.569479 1.872156 0.716719
v -4.569920 1.873061 0.716097
v -4.568191 1.873134 0.716483
v -4.566908 1.869334 0.713409
v -4.565906 1.870092 0.713803
v -4.566169 1.870989 0.713450
v -4.566908 1.869334 0.713409
v -4.565525 1.870376 0.715031
v -4.566052 1.869973 0.716168
v -4.566361 1.870832 0.716574
v -4.565525 1.870376 0.715031
v -4.567090 1.869186 0.716358
v -4.567857 1.868607 0.715458
v -4.568746 1.869028 0.715637
v -4.567090 1.869186 0.716358
v -4.567492 1.869988 0.712930
v -4.567776 1.868673 0.714146
v -4.566908 1.869334 0.713409
v -4.567492 1.869988 0.712930
v -4.567776 1.868673 0.714146
v -4.565665 1.871365 0.715072
v -4.566169 1.870989 0.713450
v -4.565906 1.870092 0.713803
v -4.565525 1.870376 0.715031
v -4.565665 1.871365 0.715072
v -4.565906 1.870092 0.713803
v -4.567732 1.869792 0.716825
v -4.566361 1.870832 0.716574
v -4.566052 1.869973 0.716168
v -4.567090 1.869186 0.716358
v -4.567732 1.869792 0.716825
v -4.566052 1.869973 0.716168
v -4.568639 1.869115 0.713903
v -4.568746 1.869028 0.715637
v -4.567857 1.868607 0.715458
v -4.567776 1.868673 0.714146
v -4.568639 1.869115 0.713903
v -4.567857 1.868607 0.715458
v -4.568746 1.869028 0.715637
v -4.568639 1.869115 0.713903
v -4.569749 1.870134 0.713750
v -4.568746 1.869028 0.715637
v -4.570332 1.871520 0.713972
v -4.570432 1.871438 0.715601
v -4.569872 1.870033 0.715753
v -4.569749 1.870134 0.713750
v -4.570332 1.871520 0.713972
v -4.569872 1.870033 0.715753
v -4.569872 1.870033 0.715753
v -4.567732 1.869792 0.716825
v -4.568746 1.869028 0.715637
v -4.569872 1.870033 0.715753
v -4.567732 1.869792 0.716825
v -4.570432 1.871438 0.715601
v -4.569479 1.872156 0.716719
v -4.568701 1.870916 0.717126
v -4.569872 1.870033 0.715753
v -4.570432 1.871438 0.715601
v -4.568701 1.870916 0.717126
v -4.568701 1.870916 0.717126
v -4.566361 1.870832 0.716574
v -4.567732 1.869792 0.716825
v -4.568701 1.870916 0.717126
v -4.566361 1.870832 0.716574
v -4.569479 1.872156 0.716719
v -4.568191 1.873134 0.716483
v -4.567117 1.872118 0.716836
v -4.568701 1.870916 0.717126
v -4.569479 1.872156 0.716719
v -4.567117 1.872118 0.716836
v -4.567117 1.872118 0.716836
v -4.565665 1.871365 0.715072
v -4.566361 1.870832 0.716574
v -4.567117 1.872118 0.716836
v -4.565665 1.871365 0.715072
v -4.568191 1.873134 0.716483
v -4.567536 1.873635 0.715070
v -4.566313 1.872733 0.715101
v -4.567117 1.872118 0.716836
v -4.568191 1.873134 0.716483
v -4.566313 1.872733 0.715101
v -4.566313 1.872733 0.715101
v -4.566169 1.870989 0.713450
v -4.565665 1.871365 0.715072
v -4.566313 1.872733 0.715101
v -4.566169 1.870989 0.713450
v -4.567536 1.873635 0.715070
v -4.568009 1.873282 0.713546
v -4.566895 1.872299 0.713227
v -4.566313 1.872733 0.715101
v -4.567536 1.873635 0.715070
v -4.566895 1.872299 0.713227
v -4.566895 1.872299 0.713227
v -4.567492 1.869988 0.712930
v -4.566169 1.870989 0.713450
v -4.566895 1.872299 0.713227
v -4.567492 1.869988 0.712930
v -4.568009 1.873282 0.713546
v -4.569253 1.872340 0.713057
v -4.568424 1.871142 0.712626
v -4.566895 1.872299 0.713227
v -4.568009 1.873282 0.713546
v -4.568424 1.871142 0.712626
v -4.568424 1.871142 0.712626
v -4.569749 1.870134 0.713750
v -4.568639 1.869115 0.713903
v -4.567492 1.869988 0.712930
v -4.568424 1.871142 0.712626
v -4.568639 1.869115 0.713903
v -4.569253 1.872340 0.713057
v -4.570332 1.871520 0.713972
v -4.569749 1.870134 0.713750
v -4.568424 1.871142 0.712626
v -4.569253 1.872340 0.713057
v -4.569749 1.870134 0.713750
v -4.570476 1.872646 0.714304
v -4.570542 1.872592 0.715368
v -4.570432 1.871438 0.715601
v -4.570332 1.871520 0.713972
v -4.570476 1.872646 0.714304
v -4.570432 1.871438 0.715601
v -4.569920 1.873061 0.716097
v -4.570542 1.872592 0.715368
v -4.569078 1.873700 0.715943
v -4.570476 1.872646 0.714304
v -4.569078 1.873700 0.715943
v -4.570542 1.872592 0.715368
v -4.568652 1.874026 0.715021
v -4.569078 1.873700 0.715943
v -4.570476 1.872646 0.714304
v -4.569772 1.873181 0.713707
v -4.568652 1.874026 0.715021
v -4.570476 1.872646 0.714304
v -4.568960 1.873796 0.714026
v -4.568652 1.874026 0.715021
v -4.569772 1.873181 0.713707
v -4.563814 1.864812 0.716444
v -4.562704 1.865655 0.716240
v -4.564635 1.864193 0.715481
v -4.564548 1.864264 0.714077
v -4.564635 1.864193 0.715481
v -4.562704 1.865655 0.716240
v -4.562140 1.866086 0.715024
v -4.564548 1.864264 0.714077
v -4.562704 1.865655 0.716240
v -4.563620 1.864971 0.713289
v -4.564548 1.864264 0.714077
v -4.562140 1.866086 0.715024
v -4.562548 1.865782 0.713711
v -4.563620 1.864971 0.713289
v -4.562140 1.866086 0.715024
vn 0.6041 -0.7969 -0.0028
vn -0.5647 0.6101 -0.5557
vn -0.0509 0.9976 0.0471
vn -0.1925 0.8919 -0.4093
vn -0.8875 0.3645 -0.2818
vn -0.0509 0.9976 0.0470
vn -0.5648 0.6101 -0.5557
vn -0.8875 0.3645 -0.2819
vn -0.2467 0.8477 0.4697
vn -0.9176 0.3400 0.2059
vn -0.2467 0.8477 0.4696
vn -0.6324 0.5550 0.5404
vn -0.9244 -0.1898 0.3307
vn -0.8757 -0.1501 -0.4589
vn -0.8875 0.3646 -0.2819
vn -0.7115 -0.4902 -0.5035
vn -0.3532 0.2475 -0.9022
vn -0.1396 -0.0549 -0.9887
vn -0.7115 -0.4902 -0.5034
vn -0.3533 0.2475 -0.9022
vn -0.4449 -0.7590 -0.4753
vn 0.0938 -0.3490 -0.9324
vn -0.1397 -0.0549 -0.9887
vn 0.2495 0.7037 -0.6653
vn 0.5202 0.4444 -0.7293
vn 0.0939 -0.3490 -0.9324
vn 0.5202 0.4444 -0.7294
vn 0.7154 0.1214 -0.6881
vn 0.4788 0.8748 0.0735
vn 0.7711 0.6317 0.0793
vn 0.2496 0.7037 -0.6652
vn 0.4788 0.8749 0.0735
vn 0.7154 0.1213 -0.6881
vn 0.9517 0.2979 0.0737
vn 0.7711 0.6317 0.0794
vn 0.1618 0.6322 0.7577
vn 0.4241 0.3661 0.8283
vn 0.9518 0.2979 0.0737
vn 0.4242 0.3661 0.8283
vn 0.6249 0.0477 0.7793
vn 0.4242 0.3662 0.8283
vn -0.4627 0.1584 0.8722
vn -0.2594 -0.1525 0.9536
vn 0.1618 0.6322 0.7578
vn -0.4627 0.1584 0.8723
vn 0.6249 0.0476 0.7793
vn -0.2594 -0.1526 0.9536
vn -0.0191 -0.4409 0.8973
vn -0.2595 -0.1526 0.9536
vn -0.9244 -0.1898 0.3308
vn -0.7648 -0.5336 0.3609
vn -0.4627 0.1583 0.8723
vn -0.9244 -0.1897 0.3308
vn -0.0191 -0.4410 0.8973
vn -0.4952 -0.7999 0.3390
vn -0.7649 -0.5336 0.3609
vn -0.4450 -0.7590 -0.4753
vn -0.7648 -0.5336 0.3610
vn -0.5590 -0.7527 0.3478
vn -0.5075 -0.7107 -0.4872
vn 0.5895 0.1164 0.7993
vn -0.0708 -0.3846 0.9204
vn 0.5896 0.1164 0.7993
vn 0.6249 0.0476 0.7792
vn 0.6824 0.1920 -0.7053
vn 0.9247 0.3730 0.0758
vn 0.0450 -0.2904 -0.9559
vn 0.6249 0.0477 0.7792
vn 0.0450 -0.2903 -0.9559
vn 0.1618 0.6321 0.7578
vn -0.6324 0.5550 0.5403
vn -0.1925 0.8918 -0.4094
vn -0.8757 -0.1501 -0.4590
vn -0.5648 0.6101 -0.5556
vn 0.4787 0.8749 0.0735
vn -0.1924 0.8919 -0.4093
vn -0.7007 -0.5052 -0.5038
vn -0.1285 -0.0697 -0.9893
vn -0.7007 -0.5051 -0.5038
vn -0.5075 -0.7108 -0.4872
vn -0.2484 -0.1674 0.9541
vn -0.7541 -0.5486 0.3611
vn -0.2485 -0.1674 0.9541
vn 0.7827 0.6173 0.0794
vn 0.4356 0.3516 0.8286
vn 0.7827 0.6174 0.0794
vn 0.6824 0.1920 -0.7054
vn 0.5316 0.4298 -0.7298
vn 0.4356 0.3515 0.8287
vn 0.4355 0.3516 0.8287
vn 0.5317 0.4298 -0.7298
vn 0.7827 0.6173 0.0793
vn 0.5316 0.4299 -0.7298
vt 0.530319 0.611839
vt 0.522446 0.618118
vt 0.524872 0.613083
vt 0.524872 0.623154
vt 0.534683 0.615326
vt 0.530319 0.624397
vt 0.534683 0.620918
vt 0.537079 0.671494
vt 0.541916 0.669548
vt 0.539566 0.672157
vt 0.536179 0.669609
vt 0.539856 0.666756
vt 0.536224 0.667854
vt 0.537567 0.666748
vt 0.534592 0.666855
vt 0.534012 0.669838
vt 0.530777 0.669685
vt 0.535187 0.673050
vt 0.531769 0.674789
vt 0.525803 0.669067
vt 0.526108 0.676537
vt 0.539017 0.675606
vt 0.536011 0.680244
vt 0.529755 0.684982
vt 0.547180 0.674767
vt 0.546982 0.686485
vt 0.537415 0.696274
vt 0.547180 0.658051
vt 0.540527 0.663902
vt 0.539825 0.659698
vt 0.546280 0.665543
vt 0.543762 0.651657
vt 0.537613 0.655174
vt 0.536758 0.664742
vt 0.535126 0.661980
vt 0.532364 0.658463
vt 0.532074 0.665283
vt 0.528198 0.662933
vt 0.523743 0.660286
vt 0.519989 0.668175
vt 0.535217 0.651588
vt 0.529327 0.654999
vt 0.522873 0.688484
vt 0.528320 0.699394
vt 0.519577 0.678001
vt 0.540466 0.648293
vt 0.604446 0.642853
vt 0.626221 0.647896
vt 0.604553 0.648445
vt 0.626144 0.642670
vt 0.604553 0.631676
vt 0.626144 0.637444
vt 0.604446 0.637268
vt 0.626221 0.632225
vt 0.605011 0.620506
vt 0.626404 0.626999
vt 0.604736 0.626091
vt 0.626663 0.621780
vt 0.626404 0.653114
vt 0.604736 0.654030
vt 0.626663 0.658333
vt 0.605011 0.659607
s 0
usemtl decorations
f 240/1/1 239/2/1 238/3/1
f 237/1/1 236/4/1 235/2/1
f 234/5/1 233/4/1 232/1/1
f 231/5/1 230/6/1 229/4/1
f 228/6/1 227/5/1 226/7/1
s 1
f 225/8/2 224/9/3 223/10/4
f 222/11/5 221/9/6 220/8/7
f 219/11/8 218/12/9 217/9/3
f 216/13/10 215/12/11 214/11/8
f 213/12/9 212/13/10 211/14/12
f 210/15/13 209/11/8 208/16/14
f 207/15/13 206/13/10 205/11/15
f 204/17/16 203/18/17 202/19/18
f 201/17/19 200/16/14 199/18/20
f 198/20/21 197/19/18 196/21/22
f 195/20/21 194/17/16 193/19/23
f 192/19/18 191/22/24 190/23/25
f 189/19/18 188/18/17 187/22/24
f 186/21/26 185/23/27 184/24/28
f 183/21/26 3/19/18 182/23/27
f 181/23/25 180/25/29 179/26/30
f 178/23/25 177/22/31 176/25/32
f 175/24/33 174/26/30 173/27/34
f 172/24/33 4/23/25 171/26/30
f 170/28/35 169/29/36 168/30/37
f 167/28/35 166/31/29 165/29/36
f 164/32/38 163/30/39 162/33/40
f 161/32/38 13/28/30 160/30/41
f 159/30/37 158/34/42 157/35/43
f 156/30/37 155/29/44 154/34/45
f 153/33/46 152/35/47 151/36/48
f 150/33/46 14/30/37 149/35/47
f 148/35/49 147/15/50 146/37/51
f 145/35/49 144/34/52 143/15/53
f 142/36/54 141/37/51 140/38/55
f 139/36/54 16/35/47 138/37/51
f 137/37/51 136/16/14 135/17/16
f 134/37/56 133/15/50 132/16/14
f 131/38/55 130/17/16 129/20/57
f 128/38/55 36/37/58 25/17/16
f 127/39/59 126/20/57 125/40/60
f 124/39/59 123/38/55 122/20/57
f 121/41/61 120/36/48 119/42/62
f 118/41/63 117/33/64 116/36/48
f 115/43/65 114/27/34 113/44/66
f 112/43/65 111/24/28 110/27/34
f 109/40/60 108/21/22 107/45/67
f 106/40/60 40/20/21 105/21/22
f 104/42/62 103/38/55 102/39/59
f 101/42/62 41/36/48 42/38/55
f 100/46/66 99/33/68 98/41/63
f 97/46/66 37/32/38 38/33/68
f 96/45/69 95/24/28 94/43/65
f 93/45/69 33/21/22 34/24/28
f 92/29/70 91/14/71 90/34/45
f 89/29/70 88/12/11 87/14/12
f 86/22/31 85/9/6 84/25/32
f 83/22/31 82/10/72 81/9/6
f 80/16/73 79/8/7 78/18/20
f 29/16/73 30/11/5 77/8/74
f 76/31/75 75/12/11 28/29/36
f 31/31/32 26/9/6 27/12/11
f 74/18/17 73/10/76 24/22/24
f 21/18/17 22/8/74 23/10/4
f 72/34/42 71/13/10 20/15/50
f 17/34/42 18/14/71 19/13/10
f 70/47/77 69/48/69 68/49/78
f 67/47/79 66/50/80 65/48/69
f 64/51/81 63/52/59 62/53/82
f 61/51/83 60/54/62 59/52/59
f 58/55/84 57/56/61 56/57/85
f 55/55/86 54/58/66 53/56/63
f 52/49/78 51/59/87 50/60/88
f 2/49/78 32/48/69 49/59/87
f 48/53/82 47/50/60 12/47/77
f 9/53/82 10/52/59 11/50/60
f 46/57/89 45/54/62 8/51/81
f 5/57/90 6/56/61 7/54/62
f 44/60/91 43/61/66 15/62/92
f 1/60/93 35/59/65 39/61/66
