# Blender 5.0.0
# www.blender.org
mtllib Circle_005_Circle_004_Dupli_168_decorations_0.mtl
o Circle.005|Circle.004|Dupli|168_decorations_0
v -4.472847 0.838778 0.913082
v -4.474254 0.838833 0.913028
v -4.474471 0.845291 0.917485
v -4.472465 0.845212 0.917562
v -4.472418 0.837192 0.915016
v -4.472463 0.841466 0.918422
v -4.473679 0.841151 0.918818
v -4.473718 0.836856 0.915440
v -4.474952 0.837292 0.914919
v -4.474832 0.841559 0.918331
v -4.475055 0.842382 0.917327
v -4.475190 0.838172 0.913846
v -4.471300 0.844170 0.918824
v -4.471852 0.842949 0.920321
v -4.472031 0.838048 0.913967
v -4.473708 0.842469 0.920926
v -4.473675 0.843870 0.921515
v -4.473633 0.845046 0.921633
v -4.474568 0.845376 0.921239
v -4.475107 0.844376 0.920911
v -4.474297 0.846166 0.918715
v -4.474039 0.846544 0.919806
v -4.472973 0.846503 0.919847
v -4.472664 0.846101 0.918778
v -4.475808 0.844347 0.918652
v -4.472354 0.845949 0.920517
v -4.472648 0.845301 0.921312
v -4.472166 0.844260 0.921023
v -4.475384 0.845398 0.919665
v -4.474749 0.846043 0.920425
v -4.471715 0.845254 0.919805
v -4.474179 0.843000 0.916563
v -4.474360 0.843961 0.916769
v -4.472624 0.843893 0.916835
v -4.472865 0.842948 0.916613
v -4.475468 0.843091 0.920183
v -4.471615 0.842991 0.917928
v -4.472094 0.841935 0.919224
v -4.472101 0.842266 0.917440
v -4.475517 0.843144 0.917778
v -4.473700 0.841519 0.919747
v -4.475223 0.842058 0.919104
v -4.472101 0.842266 0.917440
v -4.472847 0.838778 0.913082
v -4.473679 0.841151 0.918818
v -4.472418 0.837192 0.915016
v -4.475055 0.842382 0.917327
v -4.474952 0.837292 0.914919
v -4.472865 0.842948 0.916613
v -4.472847 0.838778 0.913082
v -4.472865 0.842948 0.916613
v -4.474254 0.838833 0.913028
v -4.472463 0.841466 0.918422
v -4.472101 0.842266 0.917440
v -4.472031 0.838048 0.913967
v -4.472418 0.837192 0.915016
v -4.472463 0.841466 0.918422
v -4.472031 0.838048 0.913967
v -4.474832 0.841559 0.918331
v -4.473679 0.841151 0.918818
v -4.473718 0.836856 0.915440
v -4.474952 0.837292 0.914919
v -4.474832 0.841559 0.918331
v -4.473718 0.836856 0.915440
v -4.474179 0.843000 0.916563
v -4.475055 0.842382 0.917327
v -4.475190 0.838172 0.913846
v -4.474254 0.838833 0.913028
v -4.474179 0.843000 0.916563
v -4.475190 0.838172 0.913846
v -4.474568 0.845376 0.921239
v -4.473675 0.843870 0.921515
v -4.472973 0.846503 0.919847
v -4.474297 0.846166 0.918715
v -4.472648 0.845301 0.921312
v -4.471715 0.845254 0.919805
v -4.474039 0.846544 0.919806
v -4.474297 0.846166 0.918715
v -4.474039 0.846544 0.919806
v -4.475384 0.845398 0.919665
v -4.472354 0.845949 0.920517
v -4.472973 0.846503 0.919847
v -4.472664 0.846101 0.918778
v -4.471715 0.845254 0.919805
v -4.472354 0.845949 0.920517
v -4.472664 0.846101 0.918778
v -4.473633 0.845046 0.921633
v -4.472648 0.845301 0.921312
v -4.472166 0.844260 0.921023
v -4.473675 0.843870 0.921515
v -4.473633 0.845046 0.921633
v -4.472166 0.844260 0.921023
v -4.474179 0.843000 0.916563
v -4.472865 0.842948 0.916613
v -4.472624 0.843893 0.916835
v -4.474179 0.843000 0.916563
v -4.472101 0.842266 0.917440
v -4.472463 0.841466 0.918422
v -4.472094 0.841935 0.919224
v -4.472101 0.842266 0.917440
v -4.473679 0.841151 0.918818
v -4.474832 0.841559 0.918331
v -4.475223 0.842058 0.919104
v -4.473679 0.841151 0.918818
v -4.474360 0.843961 0.916769
v -4.475055 0.842382 0.917327
v -4.474179 0.843000 0.916563
v -4.474360 0.843961 0.916769
v -4.475055 0.842382 0.917327
v -4.471615 0.842991 0.917928
v -4.472624 0.843893 0.916835
v -4.472865 0.842948 0.916613
v -4.472101 0.842266 0.917440
v -4.471615 0.842991 0.917928
v -4.472865 0.842948 0.916613
v -4.473700 0.841519 0.919747
v -4.472094 0.841935 0.919224
v -4.472463 0.841466 0.918422
v -4.473679 0.841151 0.918818
v -4.473700 0.841519 0.919747
v -4.472463 0.841466 0.918422
v -4.475517 0.843144 0.917778
v -4.475223 0.842058 0.919104
v -4.474832 0.841559 0.918331
v -4.475055 0.842382 0.917327
v -4.475517 0.843144 0.917778
v -4.474832 0.841559 0.918331
v -4.475223 0.842058 0.919104
v -4.475517 0.843144 0.917778
v -4.475808 0.844347 0.918652
v -4.475223 0.842058 0.919104
v -4.475384 0.845398 0.919665
v -4.475107 0.844376 0.920911
v -4.475468 0.843091 0.920183
v -4.475808 0.844347 0.918652
v -4.475384 0.845398 0.919665
v -4.475468 0.843091 0.920183
v -4.475468 0.843091 0.920183
v -4.473700 0.841519 0.919747
v -4.475223 0.842058 0.919104
v -4.475468 0.843091 0.920183
v -4.473700 0.841519 0.919747
v -4.475107 0.844376 0.920911
v -4.473675 0.843870 0.921515
v -4.473708 0.842469 0.920926
v -4.475468 0.843091 0.920183
v -4.475107 0.844376 0.920911
v -4.473708 0.842469 0.920926
v -4.473708 0.842469 0.920926
v -4.472094 0.841935 0.919224
v -4.473700 0.841519 0.919747
v -4.473708 0.842469 0.920926
v -4.472094 0.841935 0.919224
v -4.473675 0.843870 0.921515
v -4.472166 0.844260 0.921023
v -4.471852 0.842949 0.920321
v -4.473708 0.842469 0.920926
v -4.473675 0.843870 0.921515
v -4.471852 0.842949 0.920321
v -4.471852 0.842949 0.920321
v -4.471615 0.842991 0.917928
v -4.472094 0.841935 0.919224
v -4.471852 0.842949 0.920321
v -4.471615 0.842991 0.917928
v -4.472166 0.844260 0.921023
v -4.471715 0.845254 0.919805
v -4.471300 0.844170 0.918824
v -4.471852 0.842949 0.920321
v -4.472166 0.844260 0.921023
v -4.471300 0.844170 0.918824
v -4.471300 0.844170 0.918824
v -4.472624 0.843893 0.916835
v -4.471615 0.842991 0.917928
v -4.471300 0.844170 0.918824
v -4.472624 0.843893 0.916835
v -4.471715 0.845254 0.919805
v -4.472664 0.846101 0.918778
v -4.472465 0.845212 0.917562
v -4.471300 0.844170 0.918824
v -4.471715 0.845254 0.919805
v -4.472465 0.845212 0.917562
v -4.472465 0.845212 0.917562
v -4.474360 0.843961 0.916769
v -4.472624 0.843893 0.916835
v -4.472465 0.845212 0.917562
v -4.474360 0.843961 0.916769
v -4.472664 0.846101 0.918778
v -4.474297 0.846166 0.918715
v -4.474471 0.845291 0.917485
v -4.472465 0.845212 0.917562
v -4.472664 0.846101 0.918778
v -4.474471 0.845291 0.917485
v -4.474471 0.845291 0.917485
v -4.475808 0.844347 0.918652
v -4.475517 0.843144 0.917778
v -4.474360 0.843961 0.916769
v -4.474471 0.845291 0.917485
v -4.475517 0.843144 0.917778
v -4.474297 0.846166 0.918715
v -4.475384 0.845398 0.919665
v -4.475808 0.844347 0.918652
v -4.474471 0.845291 0.917485
v -4.474297 0.846166 0.918715
v -4.475808 0.844347 0.918652
v -4.474749 0.846043 0.920425
v -4.474568 0.845376 0.921239
v -4.475107 0.844376 0.920911
v -4.475384 0.845398 0.919665
v -4.474749 0.846043 0.920425
v -4.475107 0.844376 0.920911
v -4.473633 0.845046 0.921633
v -4.474568 0.845376 0.921239
v -4.472648 0.845301 0.921312
v -4.474749 0.846043 0.920425
v -4.472648 0.845301 0.921312
v -4.474568 0.845376 0.921239
v -4.472354 0.845949 0.920517
v -4.472648 0.845301 0.921312
v -4.474749 0.846043 0.920425
v -4.474039 0.846544 0.919806
v -4.472354 0.845949 0.920517
v -4.474749 0.846043 0.920425
v -4.472973 0.846503 0.919847
v -4.472354 0.845949 0.920517
v -4.474039 0.846544 0.919806
v -4.473718 0.836856 0.915440
v -4.472418 0.837192 0.915016
v -4.474952 0.837292 0.914919
v -4.475190 0.838172 0.913846
v -4.474952 0.837292 0.914919
v -4.472418 0.837192 0.915016
v -4.472031 0.838048 0.913967
v -4.475190 0.838172 0.913846
v -4.472418 0.837192 0.915016
v -4.474254 0.838833 0.913028
v -4.475190 0.838172 0.913846
v -4.472031 0.838048 0.913967
v -4.472847 0.838778 0.913082
v -4.474254 0.838833 0.913028
v -4.472031 0.838048 0.913967
vn -0.0062 -0.7740 -0.6332
vn -0.2115 0.9699 0.1208
vn 0.5609 0.6969 0.4470
vn 0.2770 0.9507 0.1395
vn -0.5370 0.7400 0.4050
vn -0.2115 0.9699 0.1209
vn -0.5370 0.7401 0.4049
vn 0.4262 0.3996 0.8116
vn -0.4542 0.4343 0.7779
vn 0.4262 0.3997 0.8116
vn -0.4543 0.4343 0.7778
vn -0.0256 0.2828 0.9588
vn -0.7412 -0.0158 0.6711
vn -0.8751 0.4792 0.0674
vn -0.5370 0.7401 0.4050
vn -0.9604 0.2080 -0.1852
vn -0.3482 0.8513 -0.3925
vn -0.3837 0.6153 -0.6886
vn -0.9604 0.2080 -0.1851
vn -0.9071 -0.0927 -0.4106
vn -0.3638 0.2910 -0.8849
vn -0.3837 0.6154 -0.6886
vn 0.4428 0.8202 -0.3622
vn 0.4821 0.5813 -0.6555
vn -0.3637 0.2910 -0.8849
vn 0.4519 0.2590 -0.8537
vn 0.9023 0.4093 0.1354
vn 0.9851 0.1316 -0.1107
vn 0.4428 0.8202 -0.3623
vn 0.9023 0.4094 0.1354
vn 0.4519 0.2589 -0.8537
vn 0.9851 0.1315 -0.1107
vn 0.9257 -0.1647 -0.3405
vn 0.6842 -0.0719 0.7257
vn 0.7464 -0.3952 0.5354
vn 0.6842 -0.0718 0.7257
vn 0.9257 -0.1648 -0.3405
vn 0.7009 -0.6609 0.2682
vn 0.7465 -0.3951 0.5354
vn -0.0471 -0.2611 0.9642
vn -0.0542 -0.6023 0.7964
vn 0.7008 -0.6610 0.2682
vn -0.0533 -0.8561 0.5141
vn -0.7411 -0.0159 0.6712
vn -0.8138 -0.3338 0.4757
vn -0.0472 -0.2611 0.9642
vn -0.7411 -0.0158 0.6712
vn -0.0534 -0.8561 0.5141
vn -0.7689 -0.6032 0.2120
vn -0.8138 -0.3339 0.4757
vn -0.8751 0.4792 0.0675
vn -0.7689 -0.6032 0.2119
vn -0.7880 -0.5529 0.2710
vn -0.9296 -0.0294 -0.3674
vn 0.7192 -0.6121 0.3287
vn -0.0542 -0.8122 0.5808
vn 0.7009 -0.6610 0.2682
vn 0.4639 0.3311 -0.8217
vn 0.9497 -0.1033 -0.2955
vn -0.3725 0.3639 -0.8537
vn -0.7879 -0.5529 0.2710
vn -0.0541 -0.8122 0.5808
vn 0.9498 -0.1033 -0.2954
vn 0.7192 -0.6122 0.3287
vn -0.3725 0.3640 -0.8537
vn -0.0256 0.2828 0.9589
vn 0.5608 0.6969 0.4470
vn -0.8751 0.4792 0.0673
vn 0.9023 0.4094 0.1355
vn 0.2771 0.9507 0.1395
vn -0.3482 0.8513 -0.3926
vn -0.9610 0.1938 -0.1970
vn -0.3840 0.6013 -0.7007
vn -0.9610 0.1939 -0.1970
vn -0.9296 -0.0295 -0.3674
vn -0.0544 -0.6169 0.7851
vn -0.8143 -0.3484 0.4643
vn -0.0544 -0.6169 0.7852
vn 0.9855 0.1173 -0.1225
vn 0.7468 -0.4097 0.5240
vn 0.9855 0.1173 -0.1224
vn 0.4822 0.5673 -0.6676
vn -0.3840 0.6014 -0.7007
vn -0.8143 -0.3483 0.4643
vn -0.9611 0.1938 -0.1970
vn 0.7467 -0.4097 0.5240
vn -0.0543 -0.6169 0.7851
vn 0.4823 0.5673 -0.6675
vn 0.9498 -0.1033 -0.2955
vt 0.530319 0.635056
vt 0.522446 0.641335
vt 0.524872 0.636299
vt 0.524872 0.646370
vt 0.534683 0.638535
vt 0.530319 0.647614
vt 0.534683 0.644127
vt 0.508789 0.671494
vt 0.513626 0.669548
vt 0.511276 0.672157
vt 0.507889 0.669609
vt 0.511566 0.666756
vt 0.507935 0.667854
vt 0.509277 0.666748
vt 0.506302 0.666855
vt 0.505722 0.669838
vt 0.502487 0.669685
vt 0.506897 0.673050
vt 0.503479 0.674789
vt 0.497520 0.669067
vt 0.497810 0.676537
vt 0.510727 0.675606
vt 0.507721 0.680244
vt 0.501465 0.684982
vt 0.518890 0.674767
vt 0.518692 0.686485
vt 0.509125 0.696274
vt 0.518890 0.658051
vt 0.512238 0.663902
vt 0.511536 0.659698
vt 0.517990 0.665543
vt 0.515472 0.651657
vt 0.509323 0.655174
vt 0.508469 0.664742
vt 0.506836 0.661980
vt 0.504074 0.658463
vt 0.503784 0.665283
vt 0.499901 0.662933
vt 0.495453 0.660286
vt 0.491707 0.668175
vt 0.506927 0.651588
vt 0.501038 0.654999
vt 0.494583 0.688484
vt 0.500031 0.699394
vt 0.491287 0.678001
vt 0.512177 0.648293
vt 0.627350 0.642853
vt 0.649124 0.647896
vt 0.627441 0.648445
vt 0.649033 0.642670
vt 0.627441 0.631676
vt 0.649033 0.637444
vt 0.627350 0.637268
vt 0.649124 0.632225
vt 0.627914 0.620506
vt 0.649292 0.626999
vt 0.627625 0.626091
vt 0.649551 0.621780
vt 0.649292 0.653114
vt 0.627625 0.654030
vt 0.649551 0.658333
vt 0.627914 0.659607
s 0
usemtl decorations
f 240/1/1 239/2/1 238/3/1
f 237/1/1 236/4/1 235/2/1
f 234/5/1 233/4/1 232/1/1
f 231/5/1 230/6/1 229/4/1
f 228/6/1 227/5/1 226/7/1
s 1
f 225/8/2 224/9/3 223/10/4
f 222/11/5 221/9/3 220/8/6
f 219/11/7 218/12/8 217/9/3
f 216/13/9 215/12/10 214/11/7
f 213/12/8 212/13/11 211/14/12
f 210/15/13 209/11/7 208/16/14
f 207/15/13 206/13/9 205/11/15
f 204/17/16 203/18/17 202/19/18
f 201/17/19 200/16/14 199/18/17
f 198/20/20 197/19/18 196/21/21
f 195/20/20 194/17/16 193/19/22
f 192/19/18 191/22/23 190/23/24
f 189/19/18 188/18/17 187/22/23
f 186/21/25 185/23/24 184/24/26
f 183/21/25 3/19/18 182/23/24
f 181/23/24 180/25/27 179/26/28
f 178/23/24 177/22/29 176/25/30
f 175/24/31 174/26/32 173/27/33
f 172/24/31 4/23/24 171/26/32
f 170/28/32 169/29/34 168/30/35
f 167/28/32 166/31/27 165/29/36
f 164/32/37 163/30/35 162/33/38
f 161/32/37 13/28/32 160/30/39
f 159/30/35 158/34/40 157/35/41
f 156/30/35 155/29/34 154/34/40
f 153/33/42 152/35/41 151/36/43
f 150/33/42 14/30/35 149/35/41
f 148/35/41 147/15/44 146/37/45
f 145/35/41 144/34/46 143/15/47
f 142/36/48 141/37/45 140/38/49
f 139/36/48 16/35/41 138/37/45
f 137/37/50 136/16/14 135/17/16
f 134/37/45 133/15/44 132/16/51
f 131/38/52 130/17/16 129/20/20
f 128/38/49 36/37/45 25/17/16
f 127/39/53 126/20/20 125/40/54
f 124/39/53 123/38/49 122/20/20
f 121/41/55 120/36/43 119/42/56
f 118/41/55 117/33/57 116/36/43
f 115/43/58 114/27/33 113/44/59
f 112/43/58 111/24/31 110/27/33
f 109/40/54 108/21/21 107/45/60
f 106/40/54 40/20/20 105/21/21
f 104/42/56 103/38/49 102/39/61
f 101/42/62 41/36/43 42/38/49
f 100/46/63 99/33/38 98/41/64
f 97/46/59 37/32/37 38/33/38
f 96/45/65 95/24/31 94/43/58
f 93/45/65 33/21/21 34/24/31
f 92/29/34 91/14/12 90/34/40
f 89/29/34 88/12/10 87/14/66
f 86/22/23 85/9/3 84/25/30
f 83/22/23 82/10/4 81/9/67
f 80/16/14 79/8/6 78/18/17
f 29/16/68 30/11/5 77/8/6
f 76/31/69 75/12/10 28/29/36
f 31/31/27 26/9/67 27/12/10
f 74/18/17 73/10/70 24/22/23
f 21/18/71 22/8/6 23/10/4
f 72/34/46 71/13/9 20/15/47
f 17/34/46 18/14/12 19/13/9
f 70/47/72 69/48/65 68/49/73
f 67/47/74 66/50/75 65/48/65
f 64/51/76 63/52/53 62/53/77
f 61/51/78 60/54/56 59/52/61
f 58/55/79 57/56/64 56/57/80
f 55/55/81 54/58/59 53/56/64
f 52/49/73 51/59/58 50/60/82
f 2/49/83 32/48/65 49/59/58
f 48/53/84 47/50/54 12/47/85
f 9/53/84 10/52/53 11/50/54
f 46/57/86 45/54/56 8/51/87
f 5/57/86 6/56/64 7/54/56
f 44/60/88 43/61/89 15/62/79
f 1/60/88 35/59/58 39/61/59
