# Blender 5.0.0
# www.blender.org
mtllib Circle_002_Circle_003_Dupli_253_decorations_0.mtl
o Circle.002|Circle.003|Dupli|253_decorations_0
v -4.285837 1.050350 0.668146
v -4.285534 1.050755 0.669460
v -4.290312 1.056963 0.668971
v -4.290745 1.056385 0.667096
v -4.283971 1.051403 0.666786
v -4.287041 1.055886 0.666201
v -4.286326 1.056508 0.667115
v -4.283207 1.052068 0.667765
v -4.283425 1.052133 0.669154
v -4.286530 1.056569 0.668415
v -4.287498 1.056023 0.669120
v -4.284461 1.051549 0.669909
v -4.289752 1.056797 0.665398
v -4.288083 1.057887 0.665156
v -4.285142 1.050638 0.666956
v -4.286993 1.058836 0.666552
v -4.288148 1.059823 0.666514
v -4.289221 1.060311 0.666611
v -4.289386 1.060360 0.667664
v -4.288401 1.059898 0.668128
v -4.290850 1.058298 0.668483
v -4.290984 1.059316 0.667896
v -4.291214 1.059009 0.666900
v -4.291202 1.057828 0.666957
v -4.288781 1.058095 0.669611
v -4.290687 1.059228 0.665998
v -4.289800 1.059807 0.665870
v -4.289035 1.059050 0.665378
v -4.289603 1.059219 0.669004
v -4.290171 1.059918 0.668236
v -4.290394 1.058163 0.665575
v -4.288501 1.055281 0.668701
v -4.289293 1.055844 0.668936
v -4.289668 1.055344 0.667313
v -4.288785 1.054902 0.667472
v -4.287303 1.058929 0.668534
v -4.288809 1.055699 0.665844
v -4.287364 1.056644 0.665634
v -4.288135 1.055172 0.666360
v -4.287968 1.056824 0.669490
v -4.286420 1.057465 0.666842
v -4.286689 1.057545 0.668558
v -4.288135 1.055172 0.666360
v -4.285837 1.050350 0.668146
v -4.286326 1.056508 0.667115
v -4.283971 1.051403 0.666786
v -4.287498 1.056023 0.669120
v -4.283425 1.052133 0.669154
v -4.288785 1.054902 0.667472
v -4.285837 1.050350 0.668146
v -4.288785 1.054902 0.667472
v -4.285534 1.050755 0.669460
v -4.287041 1.055886 0.666201
v -4.288135 1.055172 0.666360
v -4.285142 1.050638 0.666956
v -4.283971 1.051403 0.666786
v -4.287041 1.055886 0.666201
v -4.285142 1.050638 0.666956
v -4.286530 1.056569 0.668415
v -4.286326 1.056508 0.667115
v -4.283207 1.052068 0.667765
v -4.283425 1.052133 0.669154
v -4.286530 1.056569 0.668415
v -4.283207 1.052068 0.667765
v -4.288501 1.055281 0.668701
v -4.287498 1.056023 0.669120
v -4.284461 1.051549 0.669909
v -4.285534 1.050755 0.669460
v -4.288501 1.055281 0.668701
v -4.284461 1.051549 0.669909
v -4.289386 1.060360 0.667664
v -4.288148 1.059823 0.666514
v -4.291214 1.059009 0.666900
v -4.290850 1.058298 0.668483
v -4.289800 1.059807 0.665870
v -4.290394 1.058163 0.665575
v -4.290984 1.059316 0.667896
v -4.290850 1.058298 0.668483
v -4.290984 1.059316 0.667896
v -4.289603 1.059219 0.669004
v -4.290687 1.059228 0.665998
v -4.291214 1.059009 0.666900
v -4.291202 1.057828 0.666957
v -4.290394 1.058163 0.665575
v -4.290687 1.059228 0.665998
v -4.291202 1.057828 0.666957
v -4.289221 1.060311 0.666611
v -4.289800 1.059807 0.665870
v -4.289035 1.059050 0.665378
v -4.288148 1.059823 0.666514
v -4.289221 1.060311 0.666611
v -4.289035 1.059050 0.665378
v -4.288501 1.055281 0.668701
v -4.288785 1.054902 0.667472
v -4.289668 1.055344 0.667313
v -4.288501 1.055281 0.668701
v -4.288135 1.055172 0.666360
v -4.287041 1.055886 0.666201
v -4.287364 1.056644 0.665634
v -4.288135 1.055172 0.666360
v -4.286326 1.056508 0.667115
v -4.286530 1.056569 0.668415
v -4.286689 1.057545 0.668558
v -4.286326 1.056508 0.667115
v -4.289293 1.055844 0.668936
v -4.287498 1.056023 0.669120
v -4.288501 1.055281 0.668701
v -4.289293 1.055844 0.668936
v -4.287498 1.056023 0.669120
v -4.288809 1.055699 0.665844
v -4.289668 1.055344 0.667313
v -4.288785 1.054902 0.667472
v -4.288135 1.055172 0.666360
v -4.288809 1.055699 0.665844
v -4.288785 1.054902 0.667472
v -4.286420 1.057465 0.666842
v -4.287364 1.056644 0.665634
v -4.287041 1.055886 0.666201
v -4.286326 1.056508 0.667115
v -4.286420 1.057465 0.666842
v -4.287041 1.055886 0.666201
v -4.287968 1.056824 0.669490
v -4.286689 1.057545 0.668558
v -4.286530 1.056569 0.668415
v -4.287498 1.056023 0.669120
v -4.287968 1.056824 0.669490
v -4.286530 1.056569 0.668415
v -4.286689 1.057545 0.668558
v -4.287968 1.056824 0.669490
v -4.288781 1.058095 0.669611
v -4.286689 1.057545 0.668558
v -4.289603 1.059219 0.669004
v -4.288401 1.059898 0.668128
v -4.287303 1.058929 0.668534
v -4.288781 1.058095 0.669611
v -4.289603 1.059219 0.669004
v -4.287303 1.058929 0.668534
v -4.287303 1.058929 0.668534
v -4.286420 1.057465 0.666842
v -4.286689 1.057545 0.668558
v -4.287303 1.058929 0.668534
v -4.286420 1.057465 0.666842
v -4.288401 1.059898 0.668128
v -4.288148 1.059823 0.666514
v -4.286993 1.058836 0.666552
v -4.287303 1.058929 0.668534
v -4.288401 1.059898 0.668128
v -4.286993 1.058836 0.666552
v -4.286993 1.058836 0.666552
v -4.287364 1.056644 0.665634
v -4.286420 1.057465 0.666842
v -4.286993 1.058836 0.666552
v -4.287364 1.056644 0.665634
v -4.288148 1.059823 0.666514
v -4.289035 1.059050 0.665378
v -4.288083 1.057887 0.665156
v -4.286993 1.058836 0.666552
v -4.288148 1.059823 0.666514
v -4.288083 1.057887 0.665156
v -4.288083 1.057887 0.665156
v -4.288809 1.055699 0.665844
v -4.287364 1.056644 0.665634
v -4.288083 1.057887 0.665156
v -4.288809 1.055699 0.665844
v -4.289035 1.059050 0.665378
v -4.290394 1.058163 0.665575
v -4.289752 1.056797 0.665398
v -4.288083 1.057887 0.665156
v -4.289035 1.059050 0.665378
v -4.289752 1.056797 0.665398
v -4.289752 1.056797 0.665398
v -4.289668 1.055344 0.667313
v -4.288809 1.055699 0.665844
v -4.289752 1.056797 0.665398
v -4.289668 1.055344 0.667313
v -4.290394 1.058163 0.665575
v -4.291202 1.057828 0.666957
v -4.290745 1.056385 0.667096
v -4.289752 1.056797 0.665398
v -4.290394 1.058163 0.665575
v -4.290745 1.056385 0.667096
v -4.290745 1.056385 0.667096
v -4.289293 1.055844 0.668936
v -4.289668 1.055344 0.667313
v -4.290745 1.056385 0.667096
v -4.289293 1.055844 0.668936
v -4.291202 1.057828 0.666957
v -4.290850 1.058298 0.668483
v -4.290312 1.056963 0.668971
v -4.290745 1.056385 0.667096
v -4.291202 1.057828 0.666957
v -4.290312 1.056963 0.668971
v -4.290312 1.056963 0.668971
v -4.288781 1.058095 0.669611
v -4.287968 1.056824 0.669490
v -4.289293 1.055844 0.668936
v -4.290312 1.056963 0.668971
v -4.287968 1.056824 0.669490
v -4.290850 1.058298 0.668483
v -4.289603 1.059219 0.669004
v -4.288781 1.058095 0.669611
v -4.290312 1.056963 0.668971
v -4.290850 1.058298 0.668483
v -4.288781 1.058095 0.669611
v -4.290171 1.059918 0.668236
v -4.289386 1.060360 0.667664
v -4.288401 1.059898 0.668128
v -4.289603 1.059219 0.669004
v -4.290171 1.059918 0.668236
v -4.288401 1.059898 0.668128
v -4.289221 1.060311 0.666611
v -4.289386 1.060360 0.667664
v -4.289800 1.059807 0.665870
v -4.290171 1.059918 0.668236
v -4.289800 1.059807 0.665870
v -4.289386 1.060360 0.667664
v -4.290687 1.059228 0.665998
v -4.289800 1.059807 0.665870
v -4.290171 1.059918 0.668236
v -4.290984 1.059316 0.667896
v -4.290687 1.059228 0.665998
v -4.290171 1.059918 0.668236
v -4.291214 1.059009 0.666900
v -4.290687 1.059228 0.665998
v -4.290984 1.059316 0.667896
v -4.283207 1.052068 0.667765
v -4.283971 1.051403 0.666786
v -4.283425 1.052133 0.669154
v -4.284461 1.051549 0.669909
v -4.283425 1.052133 0.669154
v -4.283971 1.051403 0.666786
v -4.285142 1.050638 0.666956
v -4.284461 1.051549 0.669909
v -4.283971 1.051403 0.666786
v -4.285534 1.050755 0.669460
v -4.284461 1.051549 0.669909
v -4.285142 1.050638 0.666956
v -4.285837 1.050350 0.668146
v -4.285534 1.050755 0.669460
v -4.285142 1.050638 0.666956
vn 0.5553 -0.8222 0.1253
vn -0.8141 0.4998 0.2959
vn -0.6777 0.4592 -0.5743
vn -0.9194 0.3590 -0.1607
vn -0.4410 0.7755 0.4518
vn -0.8140 0.4998 0.2959
vn -0.4411 0.7754 0.4518
vn -0.2710 0.7249 -0.6333
vn -0.0813 0.9785 0.1896
vn -0.2711 0.7249 -0.6333
vn -0.4411 0.7755 0.4518
vn -0.0056 0.9560 -0.2933
vn 0.3842 0.8205 0.4233
vn -0.1982 0.4918 0.8478
vn -0.0813 0.9785 0.1895
vn 0.0101 0.2020 0.9793
vn -0.8021 0.0454 0.5955
vn -0.6509 -0.2864 0.7031
vn 0.0101 0.2021 0.9793
vn -0.1982 0.4918 0.8479
vn -0.8021 0.0455 0.5955
vn 0.2166 -0.1163 0.9693
vn -0.6509 -0.2865 0.7030
vn -0.4061 -0.5765 0.7090
vn -0.6509 -0.2864 0.7030
vn -0.9727 -0.1824 -0.1438
vn -0.8376 -0.5359 -0.1062
vn -0.8021 0.0454 0.5954
vn -0.9726 -0.1824 -0.1438
vn -0.4061 -0.5766 0.7090
vn -0.5819 -0.8115 -0.0533
vn -0.5814 -0.0203 -0.8133
vn -0.4093 -0.3584 -0.8391
vn -0.9726 -0.1824 -0.1439
vn -0.5815 -0.0202 -0.8133
vn -0.1785 -0.6442 -0.7437
vn 0.0770 0.4098 -0.9089
vn 0.3113 0.1124 -0.9436
vn -0.5814 -0.0203 -0.8134
vn 0.0769 0.4099 -0.9089
vn -0.1784 -0.6443 -0.7437
vn 0.5004 -0.2007 -0.8422
vn 0.3112 0.1124 -0.9437
vn 0.5067 0.7840 -0.3586
vn 0.7817 0.5220 -0.3412
vn 0.0770 0.4099 -0.9089
vn 0.5004 -0.2008 -0.8422
vn 0.9435 0.1851 -0.2747
vn 0.7818 0.5220 -0.3412
vn 0.3843 0.8205 0.4233
vn 0.6477 0.5619 0.5146
vn 0.5067 0.7840 -0.3585
vn 0.3842 0.8205 0.4232
vn 0.9436 0.1851 -0.2746
vn 0.8173 0.2227 0.5315
vn 0.6477 0.5618 0.5146
vn 0.6476 0.5619 0.5146
vn 0.8173 0.2226 0.5315
vn 0.7909 0.2980 0.5344
vn 0.2166 -0.1162 0.9693
vn 0.1751 -0.0496 0.9833
vn 0.4660 -0.1361 -0.8742
vn 0.9205 0.2595 -0.2923
vn 0.4660 -0.1362 -0.8742
vn -0.6438 -0.7624 -0.0653
vn -0.1785 -0.6443 -0.7437
vn -0.2301 -0.5910 -0.7732
vn 0.1750 -0.0495 0.9833
vn -0.4634 -0.5215 0.7164
vn 0.1751 -0.0495 0.9833
vn 0.2167 -0.1163 0.9693
vn -0.4061 -0.5765 0.7091
vn 0.9204 0.2595 -0.2923
vn 0.7910 0.2980 0.5344
vn 0.9436 0.1851 -0.2747
vn -0.2301 -0.5909 -0.7732
vn 0.4661 -0.1362 -0.8742
vn -0.4635 -0.5215 0.7164
vn -0.6437 -0.7624 -0.0653
vn -0.1983 0.4917 0.8479
vn -0.5814 -0.0202 -0.8134
vn -0.9194 0.3590 -0.1608
vn 0.5067 0.7841 -0.3585
vn 0.0204 0.1870 0.9822
vn -0.6410 -0.3018 0.7057
vn 0.0203 0.1870 0.9821
vn 0.7924 0.5071 -0.3390
vn 0.6583 0.5470 0.5172
vn -0.3992 -0.3738 -0.8372
vn 0.4661 -0.1361 -0.8742
vn 0.3217 0.0972 -0.9418
vn -0.3993 -0.3737 -0.8372
vn -0.8278 -0.5514 -0.1039
vn 0.0204 0.1870 0.9821
vn 0.3217 0.0973 -0.9418
vn 0.7924 0.5071 -0.3391
vn -0.8277 -0.5514 -0.1039
vn -0.3993 -0.3738 -0.8372
vt 0.530319 0.611839
vt 0.522446 0.618118
vt 0.524872 0.613083
vt 0.524872 0.623154
vt 0.534683 0.615326
vt 0.530319 0.624397
vt 0.534683 0.620918
vt 0.537079 0.671494
vt 0.541916 0.669548
vt 0.539566 0.672157
vt 0.536179 0.669609
vt 0.539856 0.666756
vt 0.536224 0.667854
vt 0.537567 0.666748
vt 0.534592 0.666855
vt 0.534012 0.669838
vt 0.530777 0.669685
vt 0.535187 0.673050
vt 0.531769 0.674789
vt 0.525803 0.669067
vt 0.526108 0.676537
vt 0.539017 0.675606
vt 0.536011 0.680244
vt 0.529755 0.684982
vt 0.547180 0.674767
vt 0.546982 0.686485
vt 0.537415 0.696274
vt 0.547180 0.658051
vt 0.540527 0.663902
vt 0.539825 0.659698
vt 0.546280 0.665543
vt 0.543762 0.651657
vt 0.537613 0.655174
vt 0.536758 0.664742
vt 0.535126 0.661980
vt 0.532364 0.658463
vt 0.532074 0.665283
vt 0.528198 0.662933
vt 0.523743 0.660286
vt 0.519989 0.668175
vt 0.535217 0.651588
vt 0.529327 0.654999
vt 0.522873 0.688484
vt 0.528320 0.699394
vt 0.519577 0.678001
vt 0.540466 0.648293
vt 0.604446 0.642853
vt 0.626221 0.647896
vt 0.604553 0.648445
vt 0.626144 0.642670
vt 0.604553 0.631676
vt 0.626144 0.637444
vt 0.604446 0.637268
vt 0.626221 0.632225
vt 0.605011 0.620506
vt 0.626404 0.626999
vt 0.604736 0.626091
vt 0.626663 0.621780
vt 0.626404 0.653114
vt 0.604736 0.654030
vt 0.626663 0.658333
vt 0.605011 0.659607
s 0
usemtl decorations
f 240/1/1 239/2/1 238/3/1
f 237/1/1 236/4/1 235/2/1
f 234/5/1 233/4/1 232/1/1
f 231/5/1 230/6/1 229/4/1
f 228/6/1 227/5/1 226/7/1
s 1
f 225/8/2 224/9/3 223/10/4
f 222/11/5 221/9/3 220/8/6
f 219/11/7 218/12/8 217/9/3
f 216/13/9 215/12/10 214/11/11
f 213/12/8 212/13/9 211/14/12
f 210/15/13 209/11/11 208/16/14
f 207/15/13 206/13/15 205/11/11
f 204/17/16 203/18/17 202/19/18
f 201/17/19 200/16/20 199/18/21
f 198/20/22 197/19/23 196/21/24
f 195/20/22 194/17/19 193/19/25
f 192/19/23 191/22/26 190/23/27
f 189/19/18 188/18/28 187/22/29
f 186/21/30 185/23/27 184/24/31
f 183/21/30 3/19/23 182/23/27
f 181/23/27 180/25/32 179/26/33
f 178/23/27 177/22/34 176/25/35
f 175/24/31 174/26/33 173/27/36
f 172/24/31 4/23/27 171/26/33
f 170/28/33 169/29/37 168/30/38
f 167/28/33 166/31/39 165/29/40
f 164/32/41 163/30/38 162/33/42
f 161/32/41 13/28/33 160/30/43
f 159/30/38 158/34/44 157/35/45
f 156/30/38 155/29/46 154/34/44
f 153/33/47 152/35/45 151/36/48
f 150/33/47 14/30/38 149/35/45
f 148/35/49 147/15/50 146/37/51
f 145/35/49 144/34/52 143/15/53
f 142/36/54 141/37/51 140/38/55
f 139/36/54 16/35/45 138/37/51
f 137/37/56 136/16/20 135/17/19
f 134/37/57 133/15/13 132/16/14
f 131/38/58 130/17/19 129/20/22
f 128/38/58 36/37/51 25/17/19
f 127/39/59 126/20/60 125/40/61
f 124/39/59 123/38/55 122/20/60
f 121/41/62 120/36/48 119/42/63
f 118/41/64 117/33/47 116/36/48
f 115/43/65 114/27/66 113/44/67
f 112/43/65 111/24/31 110/27/66
f 109/40/68 108/21/24 107/45/69
f 106/40/70 40/20/71 105/21/72
f 104/42/73 103/38/55 102/39/74
f 101/42/63 41/36/75 42/38/55
f 100/46/76 99/33/47 98/41/77
f 97/46/76 37/32/36 38/33/47
f 96/45/78 95/24/31 94/43/79
f 93/45/69 33/21/24 34/24/31
f 92/29/46 91/14/12 90/34/44
f 89/29/46 88/12/10 87/14/12
f 86/22/34 85/9/3 84/25/35
f 83/22/34 82/10/4 81/9/3
f 80/16/80 79/8/2 78/18/21
f 29/16/80 30/11/5 77/8/6
f 76/31/81 75/12/10 28/29/40
f 31/31/81 26/9/3 27/12/10
f 74/18/17 73/10/82 24/22/29
f 21/18/17 22/8/6 23/10/4
f 72/34/83 71/13/9 20/15/13
f 17/34/52 18/14/12 19/13/15
f 70/47/84 69/48/78 68/49/85
f 67/47/86 66/50/61 65/48/69
f 64/51/87 63/52/59 62/53/88
f 61/51/87 60/54/63 59/52/74
f 58/55/89 57/56/90 56/57/91
f 55/55/92 54/58/67 53/56/77
f 52/49/85 51/59/65 50/60/93
f 2/49/85 32/48/69 49/59/65
f 48/53/88 47/50/68 12/47/94
f 9/53/88 10/52/59 11/50/61
f 46/57/95 45/54/63 8/51/96
f 5/57/95 6/56/90 7/54/63
f 44/60/97 43/61/76 15/62/98
f 1/60/93 35/59/79 39/61/67
