# Blender 5.0.0
# www.blender.org
mtllib Circle_005_Circle_003_Dupli_53_decorations_0.mtl
o Circle.005|Circle.003|Dupli|53_decorations_0
v -4.164397 0.611238 0.610960
v -4.164662 0.611094 0.609584
v -4.161361 0.618016 0.607914
v -4.160983 0.618222 0.609876
v -4.166554 0.612234 0.611850
v -4.164562 0.617225 0.610857
v -4.165308 0.617320 0.609777
v -4.167353 0.612336 0.610694
v -4.167032 0.611974 0.609371
v -4.165009 0.616982 0.608540
v -4.163890 0.616465 0.608078
v -4.165835 0.611421 0.608877
v -4.162184 0.618946 0.611314
v -4.164061 0.619643 0.611146
v -4.165239 0.611745 0.611968
v -4.165200 0.619788 0.609497
v -4.164286 0.620965 0.609197
v -4.163336 0.621623 0.608945
v -4.163093 0.621349 0.607942
v -4.163914 0.620545 0.607661
v -4.161162 0.619523 0.607909
v -4.161297 0.620682 0.608104
v -4.161096 0.620791 0.609146
v -4.160854 0.619690 0.609506
v -4.163035 0.618483 0.606905
v -4.161734 0.621176 0.609910
v -4.162731 0.621546 0.609820
v -4.163359 0.620847 0.610539
v -4.162524 0.619903 0.607088
v -4.162186 0.620930 0.607568
v -4.161832 0.620279 0.610676
v -4.162793 0.616159 0.608739
v -4.162120 0.616773 0.608329
v -4.161793 0.616952 0.610027
v -4.162545 0.616294 0.610025
v -4.164743 0.619272 0.607609
v -4.162833 0.617579 0.611272
v -4.164457 0.618182 0.611126
v -4.163332 0.616768 0.610968
v -4.163569 0.617178 0.607455
v -4.165443 0.618307 0.609699
v -4.165048 0.617861 0.608065
v -4.163332 0.616768 0.610968
v -4.164397 0.611238 0.610960
v -4.165308 0.617320 0.609777
v -4.166554 0.612234 0.611850
v -4.163890 0.616465 0.608078
v -4.167032 0.611974 0.609371
v -4.162545 0.616294 0.610025
v -4.164397 0.611238 0.610960
v -4.162545 0.616294 0.610025
v -4.164662 0.611094 0.609584
v -4.164562 0.617225 0.610857
v -4.163332 0.616768 0.610968
v -4.165239 0.611745 0.611968
v -4.166554 0.612234 0.611850
v -4.164562 0.617225 0.610857
v -4.165239 0.611745 0.611968
v -4.165009 0.616982 0.608540
v -4.165308 0.617320 0.609777
v -4.167353 0.612336 0.610694
v -4.167032 0.611974 0.609371
v -4.165009 0.616982 0.608540
v -4.167353 0.612336 0.610694
v -4.162793 0.616159 0.608739
v -4.163890 0.616465 0.608078
v -4.165835 0.611421 0.608877
v -4.164662 0.611094 0.609584
v -4.162793 0.616159 0.608739
v -4.165835 0.611421 0.608877
v -4.163093 0.621349 0.607942
v -4.164286 0.620965 0.609197
v -4.161096 0.620791 0.609146
v -4.161162 0.619523 0.607909
v -4.162731 0.621546 0.609820
v -4.161832 0.620279 0.610676
v -4.161297 0.620682 0.608104
v -4.161162 0.619523 0.607909
v -4.161297 0.620682 0.608104
v -4.162524 0.619903 0.607088
v -4.161734 0.621176 0.609910
v -4.161096 0.620791 0.609146
v -4.160854 0.619690 0.609506
v -4.161832 0.620279 0.610676
v -4.161734 0.621176 0.609910
v -4.160854 0.619690 0.609506
v -4.163336 0.621623 0.608945
v -4.162731 0.621546 0.609820
v -4.163359 0.620847 0.610539
v -4.164286 0.620965 0.609197
v -4.163336 0.621623 0.608945
v -4.163359 0.620847 0.610539
v -4.162793 0.616159 0.608739
v -4.162545 0.616294 0.610025
v -4.161793 0.616952 0.610027
v -4.162793 0.616159 0.608739
v -4.163332 0.616768 0.610968
v -4.164562 0.617225 0.610857
v -4.164457 0.618182 0.611126
v -4.163332 0.616768 0.610968
v -4.165308 0.617320 0.609777
v -4.165009 0.616982 0.608540
v -4.165048 0.617861 0.608065
v -4.165308 0.617320 0.609777
v -4.162120 0.616773 0.608329
v -4.163890 0.616465 0.608078
v -4.162793 0.616159 0.608739
v -4.162120 0.616773 0.608329
v -4.163890 0.616465 0.608078
v -4.162833 0.617579 0.611272
v -4.161793 0.616952 0.610027
v -4.162545 0.616294 0.610025
v -4.163332 0.616768 0.610968
v -4.162833 0.617579 0.611272
v -4.162545 0.616294 0.610025
v -4.165443 0.618307 0.609699
v -4.164457 0.618182 0.611126
v -4.164562 0.617225 0.610857
v -4.165308 0.617320 0.609777
v -4.165443 0.618307 0.609699
v -4.164562 0.617225 0.610857
v -4.163569 0.617178 0.607455
v -4.165048 0.617861 0.608065
v -4.165009 0.616982 0.608540
v -4.163890 0.616465 0.608078
v -4.163569 0.617178 0.607455
v -4.165009 0.616982 0.608540
v -4.165048 0.617861 0.608065
v -4.163569 0.617178 0.607455
v -4.163035 0.618483 0.606905
v -4.165048 0.617861 0.608065
v -4.162524 0.619903 0.607088
v -4.163914 0.620545 0.607661
v -4.164743 0.619272 0.607609
v -4.163035 0.618483 0.606905
v -4.162524 0.619903 0.607088
v -4.164743 0.619272 0.607609
v -4.164743 0.619272 0.607609
v -4.165443 0.618307 0.609699
v -4.165048 0.617861 0.608065
v -4.164743 0.619272 0.607609
v -4.165443 0.618307 0.609699
v -4.163914 0.620545 0.607661
v -4.164286 0.620965 0.609197
v -4.165200 0.619788 0.609497
v -4.164743 0.619272 0.607609
v -4.163914 0.620545 0.607661
v -4.165200 0.619788 0.609497
v -4.165200 0.619788 0.609497
v -4.164457 0.618182 0.611126
v -4.165443 0.618307 0.609699
v -4.165200 0.619788 0.609497
v -4.164457 0.618182 0.611126
v -4.164286 0.620965 0.609197
v -4.163359 0.620847 0.610539
v -4.164061 0.619643 0.611146
v -4.165200 0.619788 0.609497
v -4.164286 0.620965 0.609197
v -4.164061 0.619643 0.611146
v -4.164061 0.619643 0.611146
v -4.162833 0.617579 0.611272
v -4.164457 0.618182 0.611126
v -4.164061 0.619643 0.611146
v -4.162833 0.617579 0.611272
v -4.163359 0.620847 0.610539
v -4.161832 0.620279 0.610676
v -4.162184 0.618946 0.611314
v -4.164061 0.619643 0.611146
v -4.163359 0.620847 0.610539
v -4.162184 0.618946 0.611314
v -4.162184 0.618946 0.611314
v -4.161793 0.616952 0.610027
v -4.162833 0.617579 0.611272
v -4.162184 0.618946 0.611314
v -4.161793 0.616952 0.610027
v -4.161832 0.620279 0.610676
v -4.160854 0.619690 0.609506
v -4.160983 0.618222 0.609876
v -4.162184 0.618946 0.611314
v -4.161832 0.620279 0.610676
v -4.160983 0.618222 0.609876
v -4.160983 0.618222 0.609876
v -4.162120 0.616773 0.608329
v -4.161793 0.616952 0.610027
v -4.160983 0.618222 0.609876
v -4.162120 0.616773 0.608329
v -4.160854 0.619690 0.609506
v -4.161162 0.619523 0.607909
v -4.161361 0.618016 0.607914
v -4.160983 0.618222 0.609876
v -4.160854 0.619690 0.609506
v -4.161361 0.618016 0.607914
v -4.161361 0.618016 0.607914
v -4.163035 0.618483 0.606905
v -4.163569 0.617178 0.607455
v -4.162120 0.616773 0.608329
v -4.161361 0.618016 0.607914
v -4.163569 0.617178 0.607455
v -4.161162 0.619523 0.607909
v -4.162524 0.619903 0.607088
v -4.163035 0.618483 0.606905
v -4.161361 0.618016 0.607914
v -4.161162 0.619523 0.607909
v -4.163035 0.618483 0.606905
v -4.162186 0.620930 0.607568
v -4.163093 0.621349 0.607942
v -4.163914 0.620545 0.607661
v -4.162524 0.619903 0.607088
v -4.162186 0.620930 0.607568
v -4.163914 0.620545 0.607661
v -4.163336 0.621623 0.608945
v -4.163093 0.621349 0.607942
v -4.162731 0.621546 0.609820
v -4.162186 0.620930 0.607568
v -4.162731 0.621546 0.609820
v -4.163093 0.621349 0.607942
v -4.161734 0.621176 0.609910
v -4.162731 0.621546 0.609820
v -4.162186 0.620930 0.607568
v -4.161297 0.620682 0.608104
v -4.161734 0.621176 0.609910
v -4.162186 0.620930 0.607568
v -4.161096 0.620791 0.609146
v -4.161734 0.621176 0.609910
v -4.161297 0.620682 0.608104
v -4.167353 0.612336 0.610694
v -4.166554 0.612234 0.611850
v -4.167032 0.611974 0.609371
v -4.165835 0.611421 0.608877
v -4.167032 0.611974 0.609371
v -4.166554 0.612234 0.611850
v -4.165239 0.611745 0.611968
v -4.165835 0.611421 0.608877
v -4.166554 0.612234 0.611850
v -4.164662 0.611094 0.609584
v -4.165835 0.611421 0.608877
v -4.165239 0.611745 0.611968
v -4.164397 0.611238 0.610960
v -4.164662 0.611094 0.609584
v -4.165239 0.611745 0.611968
vn -0.3564 -0.9196 0.1653
vn 0.7132 0.5417 -0.4449
vn 0.5127 0.7682 0.3833
vn 0.8054 0.5919 0.0330
vn 0.3055 0.6555 -0.6906
vn 0.3056 0.6555 -0.6906
vn 0.0556 0.9380 0.3422
vn -0.1105 0.8476 -0.5190
vn -0.1104 0.8476 -0.5190
vn -0.2217 0.9733 -0.0594
vn -0.5099 0.5180 -0.6868
vn 0.1637 0.2071 -0.9645
vn 0.0334 -0.1495 -0.9882
vn 0.8235 0.0228 -0.5668
vn 0.7557 -0.3511 -0.5529
vn 0.0334 -0.1494 -0.9882
vn 0.1637 0.2070 -0.9645
vn 0.8235 0.0229 -0.5668
vn -0.1015 -0.4838 -0.8693
vn 0.7557 -0.3511 -0.5528
vn 0.5790 -0.6737 -0.4592
vn 0.7557 -0.3510 -0.5529
vn 0.9728 0.1040 0.2069
vn 0.9191 -0.2622 0.2941
vn 0.8236 0.0228 -0.5668
vn 0.5790 -0.6738 -0.4591
vn 0.7329 -0.5900 0.3387
vn 0.4991 0.3895 0.7741
vn 0.4005 0.0503 0.9149
vn 0.9728 0.1040 0.2070
vn 0.7329 -0.5901 0.3387
vn 0.2444 -0.2956 0.9235
vn -0.2410 0.6643 0.7075
vn -0.4095 0.3511 0.8420
vn 0.4990 0.3895 0.7741
vn -0.2409 0.6644 0.7075
vn 0.2443 -0.2956 0.9235
vn -0.4095 0.3511 0.8421
vn -0.5187 -0.0122 0.8549
vn -0.4094 0.3512 0.8421
vn -0.6900 0.7216 0.0574
vn -0.9010 0.4137 0.1304
vn -0.5187 -0.0123 0.8549
vn -0.9817 0.0468 0.1845
vn -0.9010 0.4137 0.1303
vn -0.5099 0.5180 -0.6867
vn -0.7039 0.1910 -0.6842
vn -0.6900 0.7215 0.0574
vn -0.5099 0.5181 -0.6867
vn -0.9817 0.0467 0.1844
vn -0.7961 -0.1631 -0.5829
vn -0.7039 0.1909 -0.6842
vn -0.7960 -0.1631 -0.5828
vn -0.1014 -0.4837 -0.8693
vn -0.7960 -0.1631 -0.5829
vn -0.7039 0.1910 -0.6841
vn -0.7860 -0.0893 -0.6117
vn -0.1015 -0.4837 -0.8693
vn -0.0738 -0.4181 -0.9054
vn -0.5017 0.0654 0.8626
vn -0.9765 0.1259 0.1751
vn 0.7817 -0.5270 0.3333
vn 0.2808 -0.2252 0.9330
vn 0.7817 -0.5271 0.3333
vn 0.6239 -0.6130 -0.4848
vn -0.9765 0.1259 0.1752
vn 0.2808 -0.2251 0.9330
vn -0.5186 -0.0122 0.8549
vn 0.6239 -0.6129 -0.4848
vn 0.0557 0.9380 0.3422
vn -0.2218 0.9733 -0.0594
vn 0.9728 0.1041 0.2070
vn 0.7131 0.5417 -0.4449
vn 0.4990 0.3896 0.7741
vn -0.6900 0.7216 0.0573
vn 0.0269 -0.1665 -0.9857
vn 0.6239 -0.6129 -0.4849
vn 0.7495 -0.3683 -0.5501
vn -0.9081 0.3969 0.1334
vn -0.7109 0.1741 -0.6814
vn -0.9081 0.3970 0.1334
vn 0.3941 0.0333 0.9185
vn -0.4162 0.3343 0.8456
vn 0.3941 0.0334 0.9185
vn 0.7818 -0.5270 0.3333
vn 0.9130 -0.2794 0.2973
vn -0.7109 0.1740 -0.6815
vn 0.0268 -0.1665 -0.9857
vn -0.7108 0.1741 -0.6815
vn -0.4163 0.3343 0.8455
vn -0.9081 0.3969 0.1335
vn 0.9130 -0.2793 0.2973
vt 0.530319 0.611839
vt 0.522446 0.618118
vt 0.524872 0.613083
vt 0.524872 0.623154
vt 0.534683 0.615326
vt 0.530319 0.624397
vt 0.534683 0.620918
vt 0.537079 0.671494
vt 0.541916 0.669548
vt 0.539566 0.672157
vt 0.536179 0.669609
vt 0.539856 0.666756
vt 0.536224 0.667854
vt 0.537567 0.666748
vt 0.534592 0.666855
vt 0.534012 0.669838
vt 0.530777 0.669685
vt 0.535187 0.673050
vt 0.531769 0.674789
vt 0.525803 0.669067
vt 0.526108 0.676537
vt 0.539017 0.675606
vt 0.536011 0.680244
vt 0.529755 0.684982
vt 0.547180 0.674767
vt 0.546982 0.686485
vt 0.537415 0.696274
vt 0.547180 0.658051
vt 0.540527 0.663902
vt 0.539825 0.659698
vt 0.546280 0.665543
vt 0.543762 0.651657
vt 0.537613 0.655174
vt 0.536758 0.664742
vt 0.535126 0.661980
vt 0.532364 0.658463
vt 0.532074 0.665283
vt 0.528198 0.662933
vt 0.523743 0.660286
vt 0.519989 0.668175
vt 0.535217 0.651588
vt 0.529327 0.654999
vt 0.522873 0.688484
vt 0.528320 0.699394
vt 0.519577 0.678001
vt 0.540466 0.648293
vt 0.604446 0.642853
vt 0.626221 0.647896
vt 0.604553 0.648445
vt 0.626144 0.642670
vt 0.604553 0.631676
vt 0.626144 0.637444
vt 0.604446 0.637268
vt 0.626221 0.632225
vt 0.605011 0.620506
vt 0.626404 0.626999
vt 0.604736 0.626091
vt 0.626663 0.621780
vt 0.626404 0.653114
vt 0.604736 0.654030
vt 0.626663 0.658333
vt 0.605011 0.659607
s 0
usemtl decorations
f 240/1/1 239/2/1 238/3/1
f 237/1/1 236/4/1 235/2/1
f 234/5/1 233/4/1 232/1/1
f 231/5/1 230/6/1 229/4/1
f 228/6/1 227/5/1 226/7/1
s 1
f 225/8/2 224/9/3 223/10/4
f 222/11/5 221/9/3 220/8/2
f 219/11/6 218/12/7 217/9/3
f 216/13/8 215/12/7 214/11/6
f 213/12/7 212/13/9 211/14/10
f 210/15/11 209/11/6 208/16/12
f 207/15/11 206/13/8 205/11/6
f 204/17/13 203/18/14 202/19/15
f 201/17/16 200/16/17 199/18/18
f 198/20/19 197/19/20 196/21/21
f 195/20/19 194/17/16 193/19/22
f 192/19/15 191/22/23 190/23/24
f 189/19/15 188/18/25 187/22/23
f 186/21/26 185/23/24 184/24/27
f 183/21/26 3/19/20 182/23/24
f 181/23/24 180/25/28 179/26/29
f 178/23/24 177/22/30 176/25/28
f 175/24/31 174/26/29 173/27/32
f 172/24/27 4/23/24 171/26/29
f 170/28/29 169/29/33 168/30/34
f 167/28/29 166/31/35 165/29/36
f 164/32/37 163/30/38 162/33/39
f 161/32/37 13/28/29 160/30/40
f 159/30/34 158/34/41 157/35/42
f 156/30/34 155/29/33 154/34/41
f 153/33/43 152/35/42 151/36/44
f 150/33/43 14/30/34 149/35/42
f 148/35/45 147/15/46 146/37/47
f 145/35/45 144/34/48 143/15/49
f 142/36/50 141/37/47 140/38/51
f 139/36/50 16/35/42 138/37/47
f 137/37/52 136/16/12 135/17/16
f 134/37/47 133/15/11 132/16/12
f 131/38/53 130/17/16 129/20/54
f 128/38/55 36/37/56 25/17/16
f 127/39/57 126/20/58 125/40/59
f 124/39/57 123/38/55 122/20/58
f 121/41/60 120/36/44 119/42/61
f 118/41/60 117/33/43 116/36/44
f 115/43/62 114/27/32 113/44/63
f 112/43/64 111/24/27 110/27/32
f 109/40/59 108/21/21 107/45/65
f 106/40/59 40/20/19 105/21/21
f 104/42/61 103/38/55 102/39/57
f 101/42/66 41/36/44 42/38/55
f 100/46/67 99/33/68 98/41/60
f 97/46/63 37/32/37 38/33/68
f 96/45/69 95/24/27 94/43/64
f 93/45/69 33/21/21 34/24/27
f 92/29/33 91/14/10 90/34/41
f 89/29/33 88/12/70 87/14/71
f 86/22/72 85/9/3 84/25/28
f 83/22/30 82/10/4 81/9/3
f 80/16/17 79/8/2 78/18/14
f 29/16/17 30/11/5 77/8/73
f 76/31/74 75/12/7 28/29/36
f 31/31/74 26/9/3 27/12/70
f 74/18/14 73/10/4 24/22/23
f 21/18/14 22/8/73 23/10/4
f 72/34/41 71/13/8 20/15/11
f 17/34/75 18/14/10 19/13/8
f 70/47/76 69/48/77 68/49/78
f 67/47/76 66/50/59 65/48/77
f 64/51/79 63/52/57 62/53/80
f 61/51/81 60/54/61 59/52/57
f 58/55/82 57/56/60 56/57/83
f 55/55/84 54/58/63 53/56/60
f 52/49/78 51/59/85 50/60/86
f 2/49/78 32/48/69 49/59/64
f 48/53/87 47/50/59 12/47/88
f 9/53/89 10/52/57 11/50/59
f 46/57/90 45/54/61 8/51/91
f 5/57/90 6/56/60 7/54/61
f 44/60/86 43/61/67 15/62/82
f 1/60/92 35/59/64 39/61/63
