# Blender 5.0.0
# www.blender.org
mtllib Circle_005_Circle_003_Dupli_221_decorations_0.mtl
o Circle.005|Circle.003|Dupli|221_decorations_0
v -4.437026 2.055830 0.713442
v -4.437750 2.055000 0.712564
v -4.440279 2.050468 0.718453
v -4.439245 2.051651 0.719705
v -4.434697 2.054823 0.713376
v -4.436093 2.051531 0.717508
v -4.436233 2.050523 0.716673
v -4.434846 2.053745 0.712482
v -4.436003 2.053329 0.711795
v -4.437314 2.050134 0.716030
v -4.438522 2.050656 0.716064
v -4.437295 2.053887 0.711831
v -4.437306 2.051539 0.720221
v -4.435922 2.050215 0.719611
v -4.435667 2.055751 0.713803
v -4.436135 2.048678 0.718336
v -4.436837 2.048036 0.719522
v -4.437611 2.047799 0.720385
v -4.438487 2.047483 0.719864
v -4.438180 2.047553 0.718723
v -4.440209 2.049493 0.719617
v -4.439811 2.048750 0.720447
v -4.439262 2.049378 0.721112
v -4.439367 2.050456 0.720636
v -4.439629 2.048880 0.717407
v -4.438232 2.049319 0.721385
v -4.437498 2.048616 0.721062
v -4.436664 2.049288 0.720559
v -4.439680 2.048201 0.718766
v -4.439466 2.047906 0.719891
v -4.437790 2.050365 0.721055
v -4.438948 2.051696 0.716749
v -4.439626 2.051285 0.717358
v -4.438731 2.052309 0.718442
v -4.438270 2.052471 0.717570
v -4.437785 2.048083 0.717355
v -4.437053 2.052212 0.718888
v -4.435855 2.051067 0.718361
v -4.437000 2.052398 0.717907
v -4.439064 2.049911 0.716453
v -4.436039 2.049736 0.717257
v -4.437468 2.049221 0.716408
v -4.437000 2.052398 0.717907
v -4.437026 2.055830 0.713442
v -4.436233 2.050523 0.716673
v -4.434697 2.054823 0.713376
v -4.438522 2.050656 0.716064
v -4.436003 2.053329 0.711795
v -4.438270 2.052471 0.717570
v -4.437026 2.055830 0.713442
v -4.438270 2.052471 0.717570
v -4.437750 2.055000 0.712564
v -4.436093 2.051531 0.717508
v -4.437000 2.052398 0.717907
v -4.435667 2.055751 0.713803
v -4.434697 2.054823 0.713376
v -4.436093 2.051531 0.717508
v -4.435667 2.055751 0.713803
v -4.437314 2.050134 0.716030
v -4.436233 2.050523 0.716673
v -4.434846 2.053745 0.712482
v -4.436003 2.053329 0.711795
v -4.437314 2.050134 0.716030
v -4.434846 2.053745 0.712482
v -4.438948 2.051696 0.716749
v -4.438522 2.050656 0.716064
v -4.437295 2.053887 0.711831
v -4.437750 2.055000 0.712564
v -4.438948 2.051696 0.716749
v -4.437295 2.053887 0.711831
v -4.438487 2.047483 0.719864
v -4.436837 2.048036 0.719522
v -4.439262 2.049378 0.721112
v -4.440209 2.049493 0.719617
v -4.437498 2.048616 0.721062
v -4.437790 2.050365 0.721055
v -4.439811 2.048750 0.720447
v -4.440209 2.049493 0.719617
v -4.439811 2.048750 0.720447
v -4.439680 2.048201 0.718766
v -4.438232 2.049319 0.721385
v -4.439262 2.049378 0.721112
v -4.439367 2.050456 0.720636
v -4.437790 2.050365 0.721055
v -4.438232 2.049319 0.721385
v -4.439367 2.050456 0.720636
v -4.437611 2.047799 0.720385
v -4.437498 2.048616 0.721062
v -4.436664 2.049288 0.720559
v -4.436837 2.048036 0.719522
v -4.437611 2.047799 0.720385
v -4.436664 2.049288 0.720559
v -4.438948 2.051696 0.716749
v -4.438270 2.052471 0.717570
v -4.438731 2.052309 0.718442
v -4.438948 2.051696 0.716749
v -4.437000 2.052398 0.717907
v -4.436093 2.051531 0.717508
v -4.435855 2.051067 0.718361
v -4.437000 2.052398 0.717907
v -4.436233 2.050523 0.716673
v -4.437314 2.050134 0.716030
v -4.437468 2.049221 0.716408
v -4.436233 2.050523 0.716673
v -4.439626 2.051285 0.717358
v -4.438522 2.050656 0.716064
v -4.438948 2.051696 0.716749
v -4.439626 2.051285 0.717358
v -4.438522 2.050656 0.716064
v -4.437053 2.052212 0.718888
v -4.438731 2.052309 0.718442
v -4.438270 2.052471 0.717570
v -4.437000 2.052398 0.717907
v -4.437053 2.052212 0.718888
v -4.438270 2.052471 0.717570
v -4.436039 2.049736 0.717257
v -4.435855 2.051067 0.718361
v -4.436093 2.051531 0.717508
v -4.436233 2.050523 0.716673
v -4.436039 2.049736 0.717257
v -4.436093 2.051531 0.717508
v -4.439064 2.049911 0.716453
v -4.437468 2.049221 0.716408
v -4.437314 2.050134 0.716030
v -4.438522 2.050656 0.716064
v -4.439064 2.049911 0.716453
v -4.437314 2.050134 0.716030
v -4.437468 2.049221 0.716408
v -4.439064 2.049911 0.716453
v -4.439629 2.048880 0.717407
v -4.437468 2.049221 0.716408
v -4.439680 2.048201 0.718766
v -4.438180 2.047553 0.718723
v -4.437785 2.048083 0.717355
v -4.439629 2.048880 0.717407
v -4.439680 2.048201 0.718766
v -4.437785 2.048083 0.717355
v -4.437785 2.048083 0.717355
v -4.436039 2.049736 0.717257
v -4.437468 2.049221 0.716408
v -4.437785 2.048083 0.717355
v -4.436039 2.049736 0.717257
v -4.438180 2.047553 0.718723
v -4.436837 2.048036 0.719522
v -4.436135 2.048678 0.718336
v -4.437785 2.048083 0.717355
v -4.438180 2.047553 0.718723
v -4.436135 2.048678 0.718336
v -4.436135 2.048678 0.718336
v -4.435855 2.051067 0.718361
v -4.436039 2.049736 0.717257
v -4.436135 2.048678 0.718336
v -4.435855 2.051067 0.718361
v -4.436837 2.048036 0.719522
v -4.436664 2.049288 0.720559
v -4.435922 2.050215 0.719611
v -4.436135 2.048678 0.718336
v -4.436837 2.048036 0.719522
v -4.435922 2.050215 0.719611
v -4.435922 2.050215 0.719611
v -4.437053 2.052212 0.718888
v -4.435855 2.051067 0.718361
v -4.435922 2.050215 0.719611
v -4.437053 2.052212 0.718888
v -4.436664 2.049288 0.720559
v -4.437790 2.050365 0.721055
v -4.437306 2.051539 0.720221
v -4.435922 2.050215 0.719611
v -4.436664 2.049288 0.720559
v -4.437306 2.051539 0.720221
v -4.437306 2.051539 0.720221
v -4.438731 2.052309 0.718442
v -4.437053 2.052212 0.718888
v -4.437306 2.051539 0.720221
v -4.438731 2.052309 0.718442
v -4.437790 2.050365 0.721055
v -4.439367 2.050456 0.720636
v -4.439245 2.051651 0.719705
v -4.437306 2.051539 0.720221
v -4.437790 2.050365 0.721055
v -4.439245 2.051651 0.719705
v -4.439245 2.051651 0.719705
v -4.439626 2.051285 0.717358
v -4.438731 2.052309 0.718442
v -4.439245 2.051651 0.719705
v -4.439626 2.051285 0.717358
v -4.439367 2.050456 0.720636
v -4.440209 2.049493 0.719617
v -4.440279 2.050468 0.718453
v -4.439245 2.051651 0.719705
v -4.439367 2.050456 0.720636
v -4.440279 2.050468 0.718453
v -4.440279 2.050468 0.718453
v -4.439629 2.048880 0.717407
v -4.439064 2.049911 0.716453
v -4.439626 2.051285 0.717358
v -4.440279 2.050468 0.718453
v -4.439064 2.049911 0.716453
v -4.440209 2.049493 0.719617
v -4.439680 2.048201 0.718766
v -4.439629 2.048880 0.717407
v -4.440279 2.050468 0.718453
v -4.440209 2.049493 0.719617
v -4.439629 2.048880 0.717407
v -4.439466 2.047906 0.719891
v -4.438487 2.047483 0.719864
v -4.438180 2.047553 0.718723
v -4.439680 2.048201 0.718766
v -4.439466 2.047906 0.719891
v -4.438180 2.047553 0.718723
v -4.437611 2.047799 0.720385
v -4.438487 2.047483 0.719864
v -4.437498 2.048616 0.721062
v -4.439466 2.047906 0.719891
v -4.437498 2.048616 0.721062
v -4.438487 2.047483 0.719864
v -4.438232 2.049319 0.721385
v -4.437498 2.048616 0.721062
v -4.439466 2.047906 0.719891
v -4.439811 2.048750 0.720447
v -4.438232 2.049319 0.721385
v -4.439466 2.047906 0.719891
v -4.439262 2.049378 0.721112
v -4.438232 2.049319 0.721385
v -4.439811 2.048750 0.720447
v -4.434846 2.053745 0.712482
v -4.434697 2.054823 0.713376
v -4.436003 2.053329 0.711795
v -4.437295 2.053887 0.711831
v -4.436003 2.053329 0.711795
v -4.434697 2.054823 0.713376
v -4.435667 2.055751 0.713803
v -4.437295 2.053887 0.711831
v -4.434697 2.054823 0.713376
v -4.437750 2.055000 0.712564
v -4.437295 2.053887 0.711831
v -4.435667 2.055751 0.713803
v -4.437026 2.055830 0.713442
v -4.437750 2.055000 0.712564
v -4.435667 2.055751 0.713803
vn 0.2378 0.6002 -0.7636
vn -0.7408 -0.3648 0.5640
vn -0.0168 -0.1041 0.9944
vn -0.4891 -0.0767 0.8689
vn -0.5826 -0.7516 0.3092
vn -0.0169 -0.1040 0.9944
vn -0.7408 -0.3649 0.5639
vn -0.5827 -0.7515 0.3092
vn 0.3201 -0.4264 0.8460
vn -0.1337 -0.9456 0.2966
vn 0.3201 -0.4263 0.8460
vn -0.5827 -0.7516 0.3092
vn -0.1337 -0.9456 0.2965
vn 0.2681 -0.8009 0.5354
vn 0.0045 -0.9734 -0.2292
vn -0.5827 -0.7516 0.3093
vn -0.7224 -0.6593 -0.2087
vn 0.0045 -0.9734 -0.2293
vn -0.6935 -0.4761 -0.5408
vn -0.9785 -0.0331 0.2036
vn -0.9738 0.2091 -0.0894
vn -0.6935 -0.4762 -0.5407
vn -0.7224 -0.6592 -0.2087
vn -0.9785 -0.0332 0.2037
vn -0.5646 -0.2246 -0.7942
vn -0.9738 0.2092 -0.0893
vn -0.8287 0.4209 -0.3690
vn -0.6935 -0.4761 -0.5407
vn -0.9738 0.2091 -0.0893
vn -0.9738 0.2092 -0.0894
vn -0.5709 0.4334 0.6974
vn -0.5276 0.7199 0.4510
vn -0.9785 -0.0331 0.2037
vn -0.8286 0.4210 -0.3690
vn -0.5276 0.7198 0.4510
vn -0.4083 0.9020 0.1401
vn 0.1936 0.3891 0.9006
vn 0.3092 0.6714 0.6735
vn -0.5276 0.7199 0.4511
vn -0.5708 0.4334 0.6974
vn 0.1935 0.3891 0.9006
vn -0.4083 0.9021 0.1400
vn 0.3799 0.8564 0.3497
vn -0.4083 0.9021 0.1401
vn 0.7391 -0.1326 0.6604
vn 0.9063 0.1003 0.4106
vn 0.7391 -0.1327 0.6604
vn 0.3800 0.8564 0.3497
vn 0.9425 0.3183 0.1020
vn 0.9063 0.1003 0.4107
vn 0.6550 -0.7390 0.1576
vn 0.8142 -0.5635 -0.1398
vn 0.9425 0.3183 0.1019
vn 0.8557 -0.3070 -0.4165
vn 0.8142 -0.5635 -0.1399
vn 0.0046 -0.9734 -0.2292
vn 0.1022 -0.8200 -0.5632
vn 0.8557 -0.3069 -0.4166
vn 0.1851 -0.5486 -0.8153
vn 0.8557 -0.3070 -0.4166
vn 0.1022 -0.8200 -0.5631
vn 0.1850 -0.5485 -0.8154
vn -0.5646 -0.2247 -0.7942
vn 0.1850 -0.5486 -0.8154
vn 0.1023 -0.8200 -0.5632
vn 0.1695 -0.6134 -0.7714
vn -0.5991 -0.2812 -0.7497
vn 0.9463 0.2755 0.1693
vn 0.8558 -0.3069 -0.4165
vn 0.8573 -0.3656 -0.3624
vn 0.9425 0.3184 0.1019
vn -0.4388 0.8741 0.2084
vn 0.3694 0.8273 0.4233
vn -0.5991 -0.2812 -0.7496
vn -0.8698 0.3808 -0.3137
vn 0.1696 -0.6134 -0.7714
vn 0.3694 0.8272 0.4233
vn 0.9425 0.3184 0.1020
vn -0.8699 0.3808 -0.3136
vn -0.8286 0.4209 -0.3690
vn 0.2681 -0.8009 0.5355
vn 0.7391 -0.1327 0.6603
vn 0.3200 -0.4264 0.8461
vn -0.0169 -0.1041 0.9944
vn -0.7408 -0.3649 0.5640
vn 0.3200 -0.4264 0.8460
vn 0.6550 -0.7391 0.1576
vn -0.6895 -0.4653 -0.5551
vn -0.8699 0.3807 -0.3136
vn -0.9699 0.2204 -0.1035
vn -0.8699 0.3807 -0.3137
vn 0.8190 -0.5527 -0.1541
vn 0.1067 -0.8093 -0.5776
vn 0.8190 -0.5527 -0.1540
vn 0.3138 0.6828 0.6598
vn 0.9111 0.1115 0.3967
vn -0.5235 0.7313 0.4371
vn -0.6894 -0.4653 -0.5551
vn 0.9112 0.1114 0.3967
vn -0.5235 0.7314 0.4371
vn 0.3137 0.6828 0.6598
vn -0.5235 0.7313 0.4372
vn -0.4388 0.8741 0.2083
vt 0.530319 0.611839
vt 0.522446 0.618118
vt 0.524872 0.613083
vt 0.524872 0.623154
vt 0.534683 0.615326
vt 0.530319 0.624397
vt 0.534683 0.620918
vt 0.537079 0.671494
vt 0.541916 0.669548
vt 0.539566 0.672157
vt 0.536179 0.669609
vt 0.539856 0.666756
vt 0.536224 0.667854
vt 0.537567 0.666748
vt 0.534592 0.666855
vt 0.534012 0.669838
vt 0.530777 0.669685
vt 0.535187 0.673050
vt 0.531769 0.674789
vt 0.525803 0.669067
vt 0.526108 0.676537
vt 0.539017 0.675606
vt 0.536011 0.680244
vt 0.529755 0.684982
vt 0.547180 0.674767
vt 0.546982 0.686485
vt 0.537415 0.696274
vt 0.547180 0.658051
vt 0.540527 0.663902
vt 0.539825 0.659698
vt 0.546280 0.665543
vt 0.543762 0.651657
vt 0.537613 0.655174
vt 0.536758 0.664742
vt 0.535126 0.661980
vt 0.532364 0.658463
vt 0.532074 0.665283
vt 0.528198 0.662933
vt 0.523743 0.660286
vt 0.519989 0.668175
vt 0.535217 0.651588
vt 0.529327 0.654999
vt 0.522873 0.688484
vt 0.528320 0.699394
vt 0.519577 0.678001
vt 0.540466 0.648293
vt 0.604446 0.642853
vt 0.626221 0.647896
vt 0.604553 0.648445
vt 0.626144 0.642670
vt 0.604553 0.631676
vt 0.626144 0.637444
vt 0.604446 0.637268
vt 0.626221 0.632225
vt 0.605011 0.620506
vt 0.626404 0.626999
vt 0.604736 0.626091
vt 0.626663 0.621780
vt 0.626404 0.653114
vt 0.604736 0.654030
vt 0.626663 0.658333
vt 0.605011 0.659607
s 0
usemtl decorations
f 240/1/1 239/2/1 238/3/1
f 237/1/1 236/4/1 235/2/1
f 234/5/1 233/4/1 232/1/1
f 231/5/1 230/6/1 229/4/1
f 228/6/1 227/5/1 226/7/1
s 1
f 225/8/2 224/9/3 223/10/4
f 222/11/5 221/9/6 220/8/7
f 219/11/8 218/12/9 217/9/3
f 216/13/10 215/12/11 214/11/12
f 213/12/9 212/13/13 211/14/14
f 210/15/15 209/11/16 208/16/17
f 207/15/18 206/13/10 205/11/16
f 204/17/19 203/18/20 202/19/21
f 201/17/22 200/16/23 199/18/24
f 198/20/25 197/19/26 196/21/27
f 195/20/25 194/17/28 193/19/29
f 192/19/30 191/22/31 190/23/32
f 189/19/21 188/18/33 187/22/31
f 186/21/34 185/23/35 184/24/36
f 183/21/34 3/19/26 182/23/35
f 181/23/32 180/25/37 179/26/38
f 178/23/39 177/22/40 176/25/41
f 175/24/42 174/26/38 173/27/43
f 172/24/44 4/23/39 171/26/38
f 170/28/38 169/29/45 168/30/46
f 167/28/38 166/31/37 165/29/47
f 164/32/48 163/30/46 162/33/49
f 161/32/48 13/28/38 160/30/50
f 159/30/46 158/34/51 157/35/52
f 156/30/46 155/29/47 154/34/51
f 153/33/53 152/35/52 151/36/54
f 150/33/53 14/30/46 149/35/52
f 148/35/55 147/15/56 146/37/57
f 145/35/55 144/34/51 143/15/56
f 142/36/58 141/37/57 140/38/59
f 139/36/60 16/35/52 138/37/57
f 137/37/57 136/16/23 135/17/28
f 134/37/61 133/15/15 132/16/17
f 131/38/62 130/17/28 129/20/63
f 128/38/64 36/37/65 25/17/28
f 127/39/66 126/20/63 125/40/67
f 124/39/66 123/38/64 122/20/63
f 121/41/68 120/36/69 119/42/70
f 118/41/68 117/33/71 116/36/69
f 115/43/72 114/27/43 113/44/73
f 112/43/72 111/24/36 110/27/43
f 109/40/74 108/21/27 107/45/75
f 106/40/67 40/20/25 105/21/27
f 104/42/70 103/38/64 102/39/76
f 101/42/70 41/36/54 42/38/64
f 100/46/77 99/33/78 98/41/68
f 97/46/73 37/32/48 38/33/78
f 96/45/79 95/24/36 94/43/72
f 93/45/79 33/21/80 34/24/36
f 92/29/47 91/14/81 90/34/51
f 89/29/82 88/12/83 87/14/14
f 86/22/40 85/9/84 84/25/41
f 83/22/40 82/10/4 81/9/84
f 80/16/23 79/8/85 78/18/24
f 29/16/23 30/11/5 77/8/85
f 76/31/37 75/12/9 28/29/47
f 31/31/37 26/9/84 27/12/86
f 74/18/20 73/10/4 24/22/31
f 21/18/20 22/8/85 23/10/4
f 72/34/87 71/13/10 20/15/15
f 17/34/87 18/14/14 19/13/10
f 70/47/88 69/48/89 68/49/90
f 67/47/88 66/50/67 65/48/91
f 64/51/92 63/52/66 62/53/93
f 61/51/94 60/54/70 59/52/76
f 58/55/95 57/56/68 56/57/96
f 55/55/95 54/58/73 53/56/68
f 52/49/90 51/59/72 50/60/97
f 2/49/90 32/48/75 49/59/72
f 48/53/93 47/50/74 12/47/98
f 9/53/93 10/52/66 11/50/67
f 46/57/99 45/54/70 8/51/94
f 5/57/99 6/56/68 7/54/70
f 44/60/100 43/61/77 15/62/101
f 1/60/102 35/59/103 39/61/73
