# Blender 5.0.0
# www.blender.org
mtllib Circle_002_Circle_Dupli_175_decorations_0.mtl
o Circle.002|Circle|Dupli|175_decorations_0
v -4.499046 1.047221 0.796506
v -4.500050 1.046273 0.796787
v -4.504862 1.051771 0.799655
v -4.503431 1.053123 0.799253
v -4.497577 1.047118 0.798573
v -4.500690 1.050973 0.800877
v -4.501288 1.050063 0.801617
v -4.498217 1.046144 0.799364
v -4.499384 1.045410 0.799079
v -4.502379 1.049377 0.801350
v -4.503142 1.049430 0.800278
v -4.500200 1.045467 0.797933
v -4.501861 1.053659 0.800387
v -4.501334 1.052976 0.802202
v -4.497946 1.047597 0.797301
v -4.502248 1.051588 0.803331
v -4.503241 1.052711 0.803577
v -4.504069 1.053542 0.803423
v -4.504953 1.052986 0.803207
v -4.504596 1.051859 0.803246
v -4.505368 1.052860 0.800585
v -4.505457 1.053640 0.801471
v -4.504697 1.054358 0.801258
v -4.504203 1.053961 0.800259
v -4.505076 1.050621 0.801288
v -4.503863 1.054642 0.801860
v -4.503584 1.054280 0.802823
v -4.502498 1.053841 0.802658
v -4.505543 1.051925 0.801915
v -4.505571 1.053029 0.802339
v -4.502926 1.054397 0.801181
v -4.503001 1.050183 0.799208
v -4.503824 1.050750 0.799238
v -4.502585 1.051920 0.798891
v -4.502063 1.051069 0.798945
v -4.503913 1.050539 0.802924
v -4.501227 1.052384 0.799872
v -4.500771 1.051793 0.801443
v -4.501035 1.051421 0.799688
v -4.504010 1.049755 0.800653
v -4.501562 1.050591 0.802420
v -4.503003 1.049684 0.802069
v -4.501035 1.051421 0.799688
v -4.499046 1.047221 0.796506
v -4.501288 1.050063 0.801617
v -4.497577 1.047118 0.798573
v -4.503142 1.049430 0.800278
v -4.499384 1.045410 0.799079
v -4.502063 1.051069 0.798945
v -4.499046 1.047221 0.796506
v -4.502063 1.051069 0.798945
v -4.500050 1.046273 0.796787
v -4.500690 1.050973 0.800877
v -4.501035 1.051421 0.799688
v -4.497946 1.047597 0.797301
v -4.497577 1.047118 0.798573
v -4.500690 1.050973 0.800877
v -4.497946 1.047597 0.797301
v -4.502379 1.049377 0.801350
v -4.501288 1.050063 0.801617
v -4.498217 1.046144 0.799364
v -4.499384 1.045410 0.799079
v -4.502379 1.049377 0.801350
v -4.498217 1.046144 0.799364
v -4.503001 1.050183 0.799208
v -4.503142 1.049430 0.800278
v -4.500200 1.045467 0.797933
v -4.500050 1.046273 0.796787
v -4.503001 1.050183 0.799208
v -4.500200 1.045467 0.797933
v -4.504953 1.052986 0.803207
v -4.503241 1.052711 0.803577
v -4.504697 1.054358 0.801258
v -4.505368 1.052860 0.800585
v -4.503584 1.054280 0.802823
v -4.502926 1.054397 0.801181
v -4.505457 1.053640 0.801471
v -4.505368 1.052860 0.800585
v -4.505457 1.053640 0.801471
v -4.505543 1.051925 0.801915
v -4.503863 1.054642 0.801860
v -4.504697 1.054358 0.801258
v -4.504203 1.053961 0.800259
v -4.502926 1.054397 0.801181
v -4.503863 1.054642 0.801860
v -4.504203 1.053961 0.800259
v -4.504069 1.053542 0.803423
v -4.503584 1.054280 0.802823
v -4.502498 1.053841 0.802658
v -4.503241 1.052711 0.803577
v -4.504069 1.053542 0.803423
v -4.502498 1.053841 0.802658
v -4.503001 1.050183 0.799208
v -4.502063 1.051069 0.798945
v -4.502585 1.051920 0.798891
v -4.503001 1.050183 0.799208
v -4.501035 1.051421 0.799688
v -4.500690 1.050973 0.800877
v -4.500771 1.051793 0.801443
v -4.501035 1.051421 0.799688
v -4.501288 1.050063 0.801617
v -4.502379 1.049377 0.801350
v -4.503003 1.049684 0.802069
v -4.501288 1.050063 0.801617
v -4.503824 1.050750 0.799238
v -4.503142 1.049430 0.800278
v -4.503001 1.050183 0.799208
v -4.503824 1.050750 0.799238
v -4.503142 1.049430 0.800278
v -4.501227 1.052384 0.799872
v -4.502585 1.051920 0.798891
v -4.502063 1.051069 0.798945
v -4.501035 1.051421 0.799688
v -4.501227 1.052384 0.799872
v -4.502063 1.051069 0.798945
v -4.501562 1.050591 0.802420
v -4.500771 1.051793 0.801443
v -4.500690 1.050973 0.800877
v -4.501288 1.050063 0.801617
v -4.501562 1.050591 0.802420
v -4.500690 1.050973 0.800877
v -4.504010 1.049755 0.800653
v -4.503003 1.049684 0.802069
v -4.502379 1.049377 0.801350
v -4.503142 1.049430 0.800278
v -4.504010 1.049755 0.800653
v -4.502379 1.049377 0.801350
v -4.503003 1.049684 0.802069
v -4.504010 1.049755 0.800653
v -4.505076 1.050621 0.801288
v -4.503003 1.049684 0.802069
v -4.505543 1.051925 0.801915
v -4.504596 1.051859 0.803246
v -4.503913 1.050539 0.802924
v -4.505076 1.050621 0.801288
v -4.505543 1.051925 0.801915
v -4.503913 1.050539 0.802924
v -4.503913 1.050539 0.802924
v -4.501562 1.050591 0.802420
v -4.503003 1.049684 0.802069
v -4.503913 1.050539 0.802924
v -4.501562 1.050591 0.802420
v -4.504596 1.051859 0.803246
v -4.503241 1.052711 0.803577
v -4.502248 1.051588 0.803331
v -4.503913 1.050539 0.802924
v -4.504596 1.051859 0.803246
v -4.502248 1.051588 0.803331
v -4.502248 1.051588 0.803331
v -4.500771 1.051793 0.801443
v -4.501562 1.050591 0.802420
v -4.502248 1.051588 0.803331
v -4.500771 1.051793 0.801443
v -4.503241 1.052711 0.803577
v -4.502498 1.053841 0.802658
v -4.501334 1.052976 0.802202
v -4.502248 1.051588 0.803331
v -4.503241 1.052711 0.803577
v -4.501334 1.052976 0.802202
v -4.501334 1.052976 0.802202
v -4.501227 1.052384 0.799872
v -4.500771 1.051793 0.801443
v -4.501334 1.052976 0.802202
v -4.501227 1.052384 0.799872
v -4.502498 1.053841 0.802658
v -4.502926 1.054397 0.801181
v -4.501861 1.053659 0.800387
v -4.501334 1.052976 0.802202
v -4.502498 1.053841 0.802658
v -4.501861 1.053659 0.800387
v -4.501861 1.053659 0.800387
v -4.502585 1.051920 0.798891
v -4.501227 1.052384 0.799872
v -4.501861 1.053659 0.800387
v -4.502585 1.051920 0.798891
v -4.502926 1.054397 0.801181
v -4.504203 1.053961 0.800259
v -4.503431 1.053123 0.799253
v -4.501861 1.053659 0.800387
v -4.502926 1.054397 0.801181
v -4.503431 1.053123 0.799253
v -4.503431 1.053123 0.799253
v -4.503824 1.050750 0.799238
v -4.502585 1.051920 0.798891
v -4.503431 1.053123 0.799253
v -4.503824 1.050750 0.799238
v -4.504203 1.053961 0.800259
v -4.505368 1.052860 0.800585
v -4.504862 1.051771 0.799655
v -4.503431 1.053123 0.799253
v -4.504203 1.053961 0.800259
v -4.504862 1.051771 0.799655
v -4.504862 1.051771 0.799655
v -4.505076 1.050621 0.801288
v -4.504010 1.049755 0.800653
v -4.503824 1.050750 0.799238
v -4.504862 1.051771 0.799655
v -4.504010 1.049755 0.800653
v -4.505368 1.052860 0.800585
v -4.505543 1.051925 0.801915
v -4.505076 1.050621 0.801288
v -4.504862 1.051771 0.799655
v -4.505368 1.052860 0.800585
v -4.505076 1.050621 0.801288
v -4.505571 1.053029 0.802339
v -4.504953 1.052986 0.803207
v -4.504596 1.051859 0.803246
v -4.505543 1.051925 0.801915
v -4.505571 1.053029 0.802339
v -4.504596 1.051859 0.803246
v -4.504069 1.053542 0.803423
v -4.504953 1.052986 0.803207
v -4.503584 1.054280 0.802823
v -4.505571 1.053029 0.802339
v -4.503584 1.054280 0.802823
v -4.504953 1.052986 0.803207
v -4.503863 1.054642 0.801860
v -4.503584 1.054280 0.802823
v -4.505571 1.053029 0.802339
v -4.505457 1.053640 0.801471
v -4.503863 1.054642 0.801860
v -4.505571 1.053029 0.802339
v -4.504697 1.054358 0.801258
v -4.503863 1.054642 0.801860
v -4.505457 1.053640 0.801471
v -4.498217 1.046144 0.799364
v -4.497577 1.047118 0.798573
v -4.499384 1.045410 0.799079
v -4.500200 1.045467 0.797933
v -4.499384 1.045410 0.799079
v -4.497577 1.047118 0.798573
v -4.497946 1.047597 0.797301
v -4.500200 1.045467 0.797933
v -4.497577 1.047118 0.798573
v -4.500050 1.046273 0.796787
v -4.500200 1.045467 0.797933
v -4.497946 1.047597 0.797301
v -4.499046 1.047221 0.796506
v -4.500050 1.046273 0.796787
v -4.497946 1.047597 0.797301
vn 0.5537 -0.7135 -0.4293
vn -0.8507 0.5238 -0.0441
vn -0.1199 0.9837 0.1343
vn -0.5022 0.8530 -0.1418
vn -0.9030 0.2437 0.3539
vn -0.8507 0.5237 -0.0441
vn -0.9030 0.2438 0.3538
vn 0.0083 0.8172 0.5762
vn -0.6197 0.2239 0.7523
vn 0.0084 0.8173 0.5762
vn 0.0083 0.8172 0.5763
vn -0.6197 0.2239 0.7522
vn -0.2141 0.4791 0.8512
vn -0.4889 -0.3003 0.8191
vn -0.9475 -0.2681 0.1741
vn -0.8107 -0.5852 0.0149
vn -0.8629 0.1852 -0.4701
vn -0.7181 -0.0890 -0.6902
vn -0.9476 -0.2681 0.1740
vn -0.8630 0.1852 -0.4701
vn -0.5572 -0.8174 -0.1461
vn -0.4700 -0.3500 -0.8103
vn -0.7182 -0.0890 -0.6902
vn -0.2988 0.7183 -0.6283
vn -0.1005 0.4945 -0.8633
vn -0.8629 0.1852 -0.4702
vn -0.2987 0.7183 -0.6283
vn -0.4699 -0.3500 -0.8104
vn -0.1006 0.4945 -0.8633
vn 0.1118 0.1998 -0.9734
vn 0.3203 0.9298 -0.1814
vn 0.5770 0.7260 -0.3741
vn 0.3202 0.9298 -0.1814
vn 0.1119 0.1997 -0.9734
vn 0.7501 0.4178 -0.5126
vn 0.5771 0.7260 -0.3741
vn 0.5279 0.6604 0.5340
vn 0.8043 0.4311 0.4090
vn 0.7502 0.4178 -0.5126
vn 0.9642 0.1400 0.2252
vn 0.8043 0.4312 0.4090
vn 0.1678 0.1130 0.9793
vn 0.4101 -0.1681 0.8964
vn 0.5279 0.6604 0.5341
vn 0.5929 -0.4245 0.6843
vn 0.4101 -0.1682 0.8964
vn -0.4888 -0.3003 0.8191
vn -0.3086 -0.6204 0.7210
vn 0.1678 0.1129 0.9793
vn -0.4888 -0.3002 0.8191
vn -0.0842 -0.8505 0.5191
vn -0.3087 -0.6205 0.7210
vn -0.9475 -0.2681 0.1740
vn -0.3087 -0.6204 0.7210
vn -0.0842 -0.8506 0.5190
vn -0.0842 -0.8506 0.5191
vn -0.1333 -0.8117 0.5686
vn -0.6183 -0.7777 -0.1134
vn 0.9418 0.2040 0.2673
vn 0.5610 -0.3748 0.7381
vn 0.9642 0.1400 0.2251
vn 0.0678 0.2653 -0.9618
vn 0.7223 0.4889 -0.4892
vn 0.1119 0.1998 -0.9734
vn -0.5288 -0.2984 -0.7945
vn 0.7222 0.4889 -0.4892
vn -0.5289 -0.2984 -0.7945
vn 0.5279 0.6603 0.5341
vn 0.0083 0.8173 0.5762
vn -0.2141 0.4791 0.8513
vn -0.2987 0.7184 -0.6283
vn -0.9476 -0.2681 0.1739
vn -0.8507 0.5238 -0.0440
vn -0.8009 -0.5987 0.0069
vn -0.7083 -0.1023 -0.6985
vn -0.8010 -0.5987 0.0070
vn 0.4205 -0.1814 0.8889
vn -0.2985 -0.6339 0.7135
vn 0.4205 -0.1814 0.8890
vn 0.5876 0.7132 -0.3822
vn 0.8149 0.4182 0.4012
vn -0.7082 -0.1023 -0.6985
vn 0.0677 0.2653 -0.9618
vn -0.0904 0.4815 -0.8717
vn -0.7083 -0.1022 -0.6985
vn -0.2986 -0.6339 0.7134
vn -0.8009 -0.5987 0.0070
vn 0.8150 0.4181 0.4013
vn 0.4206 -0.1814 0.8889
vn 0.8149 0.4182 0.4013
vn -0.0903 0.4816 -0.8717
vn 0.5876 0.7132 -0.3823
vn -0.0904 0.4816 -0.8717
vt 0.543243 0.611839
vt 0.535370 0.618118
vt 0.537796 0.613083
vt 0.537796 0.623154
vt 0.547607 0.615326
vt 0.543243 0.624397
vt 0.547607 0.620918
vt 0.565384 0.671494
vt 0.570206 0.669548
vt 0.567856 0.672157
vt 0.564468 0.669609
vt 0.568146 0.666756
vt 0.564514 0.667854
vt 0.565857 0.666748
vt 0.562897 0.666855
vt 0.562302 0.669838
vt 0.559082 0.669685
vt 0.563492 0.673050
vt 0.560059 0.674789
vt 0.554092 0.669067
vt 0.554398 0.676537
vt 0.567307 0.675606
vt 0.564316 0.680244
vt 0.558044 0.684982
vt 0.575485 0.674767
vt 0.575272 0.686485
vt 0.565720 0.696274
vt 0.575485 0.658051
vt 0.568817 0.663902
vt 0.568115 0.659698
vt 0.574570 0.665543
vt 0.572052 0.651657
vt 0.565903 0.655174
vt 0.565063 0.664742
vt 0.563416 0.661980
vt 0.560669 0.658463
vt 0.560364 0.665283
vt 0.556488 0.662933
vt 0.552032 0.660286
vt 0.548294 0.668175
vt 0.563522 0.651588
vt 0.557617 0.654999
vt 0.551163 0.688484
vt 0.556610 0.699394
vt 0.547867 0.678001
vt 0.568756 0.648293
vt 0.604446 0.682632
vt 0.626221 0.687675
vt 0.604553 0.688225
vt 0.626144 0.682457
vt 0.604553 0.671455
vt 0.626144 0.677231
vt 0.604446 0.677048
vt 0.626221 0.672005
vt 0.605011 0.660294
vt 0.626404 0.666786
vt 0.604736 0.665871
vt 0.626663 0.661568
vt 0.626404 0.692902
vt 0.604736 0.693810
vt 0.626663 0.698120
vt 0.605011 0.699394
s 0
usemtl decorations
f 240/1/1 239/2/1 238/3/1
f 237/1/1 236/4/1 235/2/1
f 234/5/1 233/4/1 232/1/1
f 231/5/1 230/6/1 229/4/1
f 228/6/1 227/5/1 226/7/1
s 1
f 225/8/2 224/9/3 223/10/4
f 222/11/5 221/9/3 220/8/6
f 219/11/7 218/12/8 217/9/3
f 216/13/9 215/12/10 214/11/7
f 213/12/11 212/13/12 211/14/13
f 210/15/14 209/11/7 208/16/15
f 207/15/14 206/13/12 205/11/7
f 204/17/16 203/18/17 202/19/18
f 201/17/16 200/16/19 199/18/20
f 198/20/21 197/19/18 196/21/22
f 195/20/21 194/17/16 193/19/23
f 192/19/18 191/22/24 190/23/25
f 189/19/18 188/18/26 187/22/27
f 186/21/28 185/23/29 184/24/30
f 183/21/28 3/19/18 182/23/29
f 181/23/25 180/25/31 179/26/32
f 178/23/25 177/22/27 176/25/33
f 175/24/34 174/26/32 173/27/35
f 172/24/34 4/23/25 171/26/32
f 170/28/36 169/29/37 168/30/38
f 167/28/36 166/31/31 165/29/37
f 164/32/39 163/30/38 162/33/40
f 161/32/39 13/28/32 160/30/41
f 159/30/38 158/34/42 157/35/43
f 156/30/38 155/29/44 154/34/42
f 153/33/40 152/35/43 151/36/45
f 150/33/40 14/30/38 149/35/43
f 148/35/46 147/15/47 146/37/48
f 145/35/46 144/34/49 143/15/50
f 142/36/45 141/37/48 140/38/51
f 139/36/45 16/35/43 138/37/48
f 137/37/52 136/16/53 135/17/16
f 134/37/54 133/15/47 132/16/15
f 131/38/55 130/17/16 129/20/21
f 128/38/56 36/37/48 25/17/16
f 127/39/57 126/20/21 125/40/58
f 124/39/57 123/38/56 122/20/21
f 121/41/59 120/36/45 119/42/60
f 118/41/59 117/33/61 116/36/45
f 115/43/62 114/27/35 113/44/63
f 112/43/62 111/24/64 110/27/35
f 109/40/58 108/21/22 107/45/65
f 106/40/58 40/20/21 105/21/22
f 104/42/60 103/38/56 102/39/57
f 101/42/60 41/36/45 42/38/56
f 100/46/66 99/33/61 98/41/59
f 97/46/66 37/32/39 38/33/61
f 96/45/67 95/24/30 94/43/62
f 93/45/65 33/21/22 34/24/30
f 92/29/68 91/14/13 90/34/42
f 89/29/68 88/12/69 87/14/70
f 86/22/71 85/9/3 84/25/33
f 83/22/71 82/10/4 81/9/3
f 80/16/19 79/8/2 78/18/20
f 29/16/72 30/11/5 77/8/73
f 76/31/31 75/12/8 28/29/37
f 31/31/31 26/9/3 27/12/69
f 74/18/26 73/10/4 24/22/27
f 21/18/26 22/8/73 23/10/4
f 72/34/42 71/13/12 20/15/50
f 17/34/42 18/14/13 19/13/12
f 70/47/74 69/48/67 68/49/75
f 67/47/76 66/50/58 65/48/67
f 64/51/77 63/52/57 62/53/78
f 61/51/79 60/54/60 59/52/57
f 58/55/80 57/56/59 56/57/81
f 55/55/80 54/58/66 53/56/59
f 52/49/82 51/59/83 50/60/84
f 2/49/85 32/48/65 49/59/83
f 48/53/86 47/50/58 12/47/87
f 9/53/86 10/52/57 11/50/58
f 46/57/88 45/54/60 8/51/89
f 5/57/90 6/56/59 7/54/60
f 44/60/91 43/61/66 15/62/92
f 1/60/93 35/59/62 39/61/66
