# Blender 5.0.0
# www.blender.org
mtllib Circle_002_Circle_003_Dupli_29_decorations_0.mtl
o Circle.002|Circle.003|Dupli|29_decorations_0
v -4.621230 1.021617 0.709325
v -4.620454 1.020646 0.709985
v -4.618820 1.025537 0.715902
v -4.619927 1.026924 0.714960
v -4.619573 1.022663 0.707713
v -4.618207 1.026268 0.711586
v -4.617098 1.025601 0.711832
v -4.618387 1.021950 0.707975
v -4.618174 1.020912 0.708903
v -4.616899 1.024631 0.712699
v -4.617759 1.024088 0.713535
v -4.619094 1.020332 0.709798
v -4.619368 1.028205 0.713517
v -4.617563 1.028416 0.712660
v -4.620838 1.022515 0.708313
v -4.615871 1.027398 0.713034
v -4.615849 1.028265 0.714282
v -4.616122 1.028755 0.715324
v -4.615960 1.027969 0.716027
v -4.615601 1.027060 0.715360
v -4.618248 1.026751 0.716616
v -4.617688 1.027767 0.716847
v -4.618276 1.028503 0.716346
v -4.619149 1.027879 0.715849
v -4.616880 1.025090 0.715635
v -4.617979 1.029184 0.715580
v -4.617020 1.029296 0.715125
v -4.617225 1.029094 0.713978
v -4.616669 1.026386 0.716398
v -4.616657 1.027529 0.716705
v -4.618694 1.028922 0.714675
v -4.619030 1.024382 0.713711
v -4.619044 1.024707 0.714656
v -4.620002 1.025907 0.713840
v -4.619756 1.025290 0.713093
v -4.615568 1.025918 0.714358
v -4.619518 1.027016 0.712591
v -4.617956 1.027199 0.711849
v -4.619390 1.026130 0.712148
v -4.617364 1.024320 0.714424
v -4.616491 1.026318 0.712174
v -4.616229 1.025036 0.713319
v -4.619390 1.026130 0.712148
v -4.621230 1.021617 0.709325
v -4.617098 1.025601 0.711832
v -4.619573 1.022663 0.707713
v -4.617759 1.024088 0.713535
v -4.618174 1.020912 0.708903
v -4.619756 1.025290 0.713093
v -4.621230 1.021617 0.709325
v -4.619756 1.025290 0.713093
v -4.620454 1.020646 0.709985
v -4.618207 1.026268 0.711586
v -4.619390 1.026130 0.712148
v -4.620838 1.022515 0.708313
v -4.619573 1.022663 0.707713
v -4.618207 1.026268 0.711586
v -4.620838 1.022515 0.708313
v -4.616899 1.024631 0.712699
v -4.617098 1.025601 0.711832
v -4.618387 1.021950 0.707975
v -4.618174 1.020912 0.708903
v -4.616899 1.024631 0.712699
v -4.618387 1.021950 0.707975
v -4.619030 1.024382 0.713711
v -4.617759 1.024088 0.713535
v -4.619094 1.020332 0.709798
v -4.620454 1.020646 0.709985
v -4.619030 1.024382 0.713711
v -4.619094 1.020332 0.709798
v -4.615960 1.027969 0.716027
v -4.615849 1.028265 0.714282
v -4.618276 1.028503 0.716346
v -4.618248 1.026751 0.716616
v -4.617020 1.029296 0.715125
v -4.618694 1.028922 0.714675
v -4.617688 1.027767 0.716847
v -4.618248 1.026751 0.716616
v -4.617688 1.027767 0.716847
v -4.616669 1.026386 0.716398
v -4.617979 1.029184 0.715580
v -4.618276 1.028503 0.716346
v -4.619149 1.027879 0.715849
v -4.618694 1.028922 0.714675
v -4.617979 1.029184 0.715580
v -4.619149 1.027879 0.715849
v -4.616122 1.028755 0.715324
v -4.617020 1.029296 0.715125
v -4.617225 1.029094 0.713978
v -4.615849 1.028265 0.714282
v -4.616122 1.028755 0.715324
v -4.617225 1.029094 0.713978
v -4.619030 1.024382 0.713711
v -4.619756 1.025290 0.713093
v -4.620002 1.025907 0.713840
v -4.619030 1.024382 0.713711
v -4.619390 1.026130 0.712148
v -4.618207 1.026268 0.711586
v -4.617956 1.027199 0.711849
v -4.619390 1.026130 0.712148
v -4.617098 1.025601 0.711832
v -4.616899 1.024631 0.712699
v -4.616229 1.025036 0.713319
v -4.617098 1.025601 0.711832
v -4.619044 1.024707 0.714656
v -4.617759 1.024088 0.713535
v -4.619030 1.024382 0.713711
v -4.619044 1.024707 0.714656
v -4.617759 1.024088 0.713535
v -4.619518 1.027016 0.712591
v -4.620002 1.025907 0.713840
v -4.619756 1.025290 0.713093
v -4.619390 1.026130 0.712148
v -4.619518 1.027016 0.712591
v -4.619756 1.025290 0.713093
v -4.616491 1.026318 0.712174
v -4.617956 1.027199 0.711849
v -4.618207 1.026268 0.711586
v -4.617098 1.025601 0.711832
v -4.616491 1.026318 0.712174
v -4.618207 1.026268 0.711586
v -4.617364 1.024320 0.714424
v -4.616229 1.025036 0.713319
v -4.616899 1.024631 0.712699
v -4.617759 1.024088 0.713535
v -4.617364 1.024320 0.714424
v -4.616899 1.024631 0.712699
v -4.616229 1.025036 0.713319
v -4.617364 1.024320 0.714424
v -4.616880 1.025090 0.715635
v -4.616229 1.025036 0.713319
v -4.616669 1.026386 0.716398
v -4.615601 1.027060 0.715360
v -4.615568 1.025918 0.714358
v -4.616880 1.025090 0.715635
v -4.616669 1.026386 0.716398
v -4.615568 1.025918 0.714358
v -4.615568 1.025918 0.714358
v -4.616491 1.026318 0.712174
v -4.616229 1.025036 0.713319
v -4.615568 1.025918 0.714358
v -4.616491 1.026318 0.712174
v -4.615601 1.027060 0.715360
v -4.615849 1.028265 0.714282
v -4.615871 1.027398 0.713034
v -4.615568 1.025918 0.714358
v -4.615601 1.027060 0.715360
v -4.615871 1.027398 0.713034
v -4.615871 1.027398 0.713034
v -4.617956 1.027199 0.711849
v -4.616491 1.026318 0.712174
v -4.615871 1.027398 0.713034
v -4.617956 1.027199 0.711849
v -4.615849 1.028265 0.714282
v -4.617225 1.029094 0.713978
v -4.617563 1.028416 0.712660
v -4.615871 1.027398 0.713034
v -4.615849 1.028265 0.714282
v -4.617563 1.028416 0.712660
v -4.617563 1.028416 0.712660
v -4.619518 1.027016 0.712591
v -4.617956 1.027199 0.711849
v -4.617563 1.028416 0.712660
v -4.619518 1.027016 0.712591
v -4.617225 1.029094 0.713978
v -4.618694 1.028922 0.714675
v -4.619368 1.028205 0.713517
v -4.617563 1.028416 0.712660
v -4.617225 1.029094 0.713978
v -4.619368 1.028205 0.713517
v -4.619368 1.028205 0.713517
v -4.620002 1.025907 0.713840
v -4.619518 1.027016 0.712591
v -4.619368 1.028205 0.713517
v -4.620002 1.025907 0.713840
v -4.618694 1.028922 0.714675
v -4.619149 1.027879 0.715849
v -4.619927 1.026924 0.714960
v -4.619368 1.028205 0.713517
v -4.618694 1.028922 0.714675
v -4.619927 1.026924 0.714960
v -4.619927 1.026924 0.714960
v -4.619044 1.024707 0.714656
v -4.620002 1.025907 0.713840
v -4.619927 1.026924 0.714960
v -4.619044 1.024707 0.714656
v -4.619149 1.027879 0.715849
v -4.618248 1.026751 0.716616
v -4.618820 1.025537 0.715902
v -4.619927 1.026924 0.714960
v -4.619149 1.027879 0.715849
v -4.618820 1.025537 0.715902
v -4.618820 1.025537 0.715902
v -4.616880 1.025090 0.715635
v -4.617364 1.024320 0.714424
v -4.619044 1.024707 0.714656
v -4.618820 1.025537 0.715902
v -4.617364 1.024320 0.714424
v -4.618248 1.026751 0.716616
v -4.616669 1.026386 0.716398
v -4.616880 1.025090 0.715635
v -4.618820 1.025537 0.715902
v -4.618248 1.026751 0.716616
v -4.616880 1.025090 0.715635
v -4.616657 1.027529 0.716705
v -4.615960 1.027969 0.716027
v -4.615601 1.027060 0.715360
v -4.616669 1.026386 0.716398
v -4.616657 1.027529 0.716705
v -4.615601 1.027060 0.715360
v -4.616122 1.028755 0.715324
v -4.615960 1.027969 0.716027
v -4.617020 1.029296 0.715125
v -4.616657 1.027529 0.716705
v -4.617020 1.029296 0.715125
v -4.615960 1.027969 0.716027
v -4.617979 1.029184 0.715580
v -4.617020 1.029296 0.715125
v -4.616657 1.027529 0.716705
v -4.617688 1.027767 0.716847
v -4.617979 1.029184 0.715580
v -4.616657 1.027529 0.716705
v -4.618276 1.028503 0.716346
v -4.617979 1.029184 0.715580
v -4.617688 1.027767 0.716847
v -4.618387 1.021950 0.707975
v -4.619573 1.022663 0.707713
v -4.618174 1.020912 0.708903
v -4.619094 1.020332 0.709798
v -4.618174 1.020912 0.708903
v -4.619573 1.022663 0.707713
v -4.620838 1.022515 0.708313
v -4.619094 1.020332 0.709798
v -4.619573 1.022663 0.707713
v -4.620454 1.020646 0.709985
v -4.619094 1.020332 0.709798
v -4.620838 1.022515 0.708313
v -4.621230 1.021617 0.709325
v -4.620454 1.020646 0.709985
v -4.620838 1.022515 0.708313
vn -0.2513 -0.6734 -0.6953
vn -0.0619 0.2525 0.9656
vn -0.1952 0.9022 0.3846
vn -0.3316 0.5901 0.7361
vn 0.4107 0.1434 0.9004
vn -0.1953 0.9022 0.3846
vn 0.4106 0.1434 0.9005
vn 0.2443 0.9536 0.1760
vn 0.7302 0.3451 0.5896
vn 0.2444 0.9536 0.1760
vn 0.6562 0.7057 0.2672
vn 0.9488 -0.0667 0.3087
vn 0.4106 0.1434 0.9004
vn 0.4314 -0.3932 0.8119
vn 0.9488 -0.0668 0.3087
vn 0.7302 0.3452 0.5896
vn 0.4106 0.1435 0.9004
vn 0.3694 -0.7059 0.6044
vn -0.3336 -0.2167 0.9175
vn -0.4679 -0.5126 0.7199
vn 0.3695 -0.7058 0.6044
vn 0.4314 -0.3933 0.8119
vn 0.2543 -0.9161 0.3100
vn -0.4680 -0.5126 0.7199
vn -0.5346 -0.7340 0.4189
vn -0.4679 -0.5126 0.7200
vn -0.7702 0.3300 0.5459
vn -0.9458 0.0858 0.3131
vn -0.3336 -0.2167 0.9174
vn -0.5346 -0.7340 0.4188
vn -0.9458 0.0858 0.3132
vn -0.9847 -0.1703 0.0357
vn -0.5496 0.8351 -0.0231
vn -0.7043 0.6388 -0.3097
vn -0.7702 0.3300 0.5458
vn -0.9847 -0.1703 0.0356
vn -0.7572 0.3506 -0.5511
vn 0.1621 0.9184 -0.3610
vn 0.0747 0.7299 -0.6795
vn -0.5496 0.8351 -0.0232
vn 0.1621 0.9184 -0.3609
vn -0.0234 0.4365 -0.8994
vn 0.0746 0.7299 -0.6794
vn 0.8289 0.5171 -0.2133
vn 0.8046 0.2906 -0.5178
vn -0.0234 0.4364 -0.8994
vn 0.6643 0.0226 -0.7471
vn 0.8047 0.2905 -0.5178
vn 0.9358 -0.3484 0.0536
vn 0.8290 0.5170 -0.2133
vn 0.6643 0.0225 -0.7471
vn 0.7879 -0.5793 -0.2089
vn 0.4315 -0.3932 0.8119
vn 0.7878 -0.5794 -0.2089
vn 0.2543 -0.9161 0.3101
vn 0.8292 -0.5370 -0.1552
vn 0.2544 -0.9161 0.3100
vn 0.2821 -0.8823 0.3768
vn -0.0026 0.5046 -0.8633
vn 0.7025 0.0802 -0.7072
vn -0.0027 0.5046 -0.8633
vn -0.9885 -0.1175 0.0955
vn -0.7573 0.3506 -0.5510
vn -0.7552 0.4166 -0.5061
vn -0.9885 -0.1176 0.0955
vn 0.2821 -0.8823 0.3769
vn -0.5345 -0.7340 0.4189
vn -0.5268 -0.6956 0.4884
vn 0.8292 -0.5370 -0.1553
vn -0.0026 0.5046 -0.8634
vn -0.5268 -0.6956 0.4885
vn -0.9885 -0.1176 0.0954
vn 0.1622 0.9184 -0.3610
vn 0.8290 0.5171 -0.2133
vn 0.6563 0.7056 0.2672
vn -0.1953 0.9022 0.3847
vn -0.5495 0.8351 -0.0231
vn -0.3336 -0.2168 0.9174
vn 0.8290 0.5170 -0.2132
vn 0.3650 -0.7187 0.5919
vn -0.4728 -0.5253 0.7074
vn 0.3650 -0.7186 0.5919
vn 0.8004 0.2782 -0.5309
vn 0.9317 -0.3610 0.0407
vn 0.8005 0.2782 -0.5309
vn -0.7093 0.6267 -0.3227
vn 0.0700 0.7178 -0.6927
vn -0.7552 0.4165 -0.5061
vn -0.4729 -0.5253 0.7074
vn -0.9510 0.0733 0.3005
vn -0.4728 -0.5253 0.7075
vn 0.9317 -0.3610 0.0408
vn 0.0701 0.7178 -0.6927
vn 0.8004 0.2783 -0.5309
vn 0.0701 0.7179 -0.6927
vn -0.9510 0.0734 0.3004
vn -0.9510 0.0734 0.3005
vt 0.530319 0.611839
vt 0.522446 0.618118
vt 0.524872 0.613083
vt 0.524872 0.623154
vt 0.534683 0.615326
vt 0.530319 0.624397
vt 0.534683 0.620918
vt 0.537079 0.671494
vt 0.541916 0.669548
vt 0.539566 0.672157
vt 0.536179 0.669609
vt 0.539856 0.666756
vt 0.536224 0.667854
vt 0.537567 0.666748
vt 0.534592 0.666855
vt 0.534012 0.669838
vt 0.530777 0.669685
vt 0.535187 0.673050
vt 0.531769 0.674789
vt 0.525803 0.669067
vt 0.526108 0.676537
vt 0.539017 0.675606
vt 0.536011 0.680244
vt 0.529755 0.684982
vt 0.547180 0.674767
vt 0.546982 0.686485
vt 0.537415 0.696274
vt 0.547180 0.658051
vt 0.540527 0.663902
vt 0.539825 0.659698
vt 0.546280 0.665543
vt 0.543762 0.651657
vt 0.537613 0.655174
vt 0.536758 0.664742
vt 0.535126 0.661980
vt 0.532364 0.658463
vt 0.532074 0.665283
vt 0.528198 0.662933
vt 0.523743 0.660286
vt 0.519989 0.668175
vt 0.535217 0.651588
vt 0.529327 0.654999
vt 0.522873 0.688484
vt 0.528320 0.699394
vt 0.519577 0.678001
vt 0.540466 0.648293
vt 0.604446 0.642853
vt 0.626221 0.647896
vt 0.604553 0.648445
vt 0.626144 0.642670
vt 0.604553 0.631676
vt 0.626144 0.637444
vt 0.604446 0.637268
vt 0.626221 0.632225
vt 0.605011 0.620506
vt 0.626404 0.626999
vt 0.604736 0.626091
vt 0.626663 0.621780
vt 0.626404 0.653114
vt 0.604736 0.654030
vt 0.626663 0.658333
vt 0.605011 0.659607
s 0
usemtl decorations
f 240/1/1 239/2/1 238/3/1
f 237/1/1 236/4/1 235/2/1
f 234/5/1 233/4/1 232/1/1
f 231/5/1 230/6/1 229/4/1
f 228/6/1 227/5/1 226/7/1
s 1
f 225/8/2 224/9/3 223/10/4
f 222/11/5 221/9/6 220/8/2
f 219/11/7 218/12/8 217/9/3
f 216/13/9 215/12/8 214/11/7
f 213/12/10 212/13/9 211/14/11
f 210/15/12 209/11/13 208/16/14
f 207/15/15 206/13/16 205/11/17
f 204/17/18 203/18/19 202/19/20
f 201/17/21 200/16/22 199/18/19
f 198/20/23 197/19/24 196/21/25
f 195/20/23 194/17/21 193/19/26
f 192/19/20 191/22/27 190/23/28
f 189/19/20 188/18/29 187/22/27
f 186/21/30 185/23/31 184/24/32
f 183/21/30 3/19/20 182/23/31
f 181/23/28 180/25/33 179/26/34
f 178/23/28 177/22/35 176/25/33
f 175/24/36 174/26/34 173/27/37
f 172/24/36 4/23/28 171/26/34
f 170/28/34 169/29/38 168/30/39
f 167/28/34 166/31/40 165/29/41
f 164/32/37 163/30/39 162/33/42
f 161/32/37 13/28/34 160/30/43
f 159/30/39 158/34/44 157/35/45
f 156/30/39 155/29/38 154/34/44
f 153/33/46 152/35/45 151/36/47
f 150/33/46 14/30/39 149/35/45
f 148/35/48 147/15/12 146/37/49
f 145/35/48 144/34/50 143/15/12
f 142/36/51 141/37/49 140/38/52
f 139/36/51 16/35/48 138/37/49
f 137/37/49 136/16/22 135/17/21
f 134/37/49 133/15/12 132/16/53
f 131/38/54 130/17/21 129/20/55
f 128/38/54 36/37/49 25/17/21
f 127/39/56 126/20/57 125/40/58
f 124/39/56 123/38/52 122/20/57
f 121/41/59 120/36/47 119/42/60
f 118/41/61 117/33/46 116/36/47
f 115/43/62 114/27/63 113/44/64
f 112/43/65 111/24/36 110/27/63
f 109/40/66 108/21/67 107/45/68
f 106/40/66 40/20/23 105/21/67
f 104/42/60 103/38/52 102/39/69
f 101/42/60 41/36/47 42/38/52
f 100/46/64 99/33/42 98/41/70
f 97/46/64 37/32/37 38/33/42
f 96/45/71 95/24/32 94/43/72
f 93/45/68 33/21/25 34/24/32
f 92/29/73 91/14/11 90/34/74
f 89/29/73 88/12/8 87/14/75
f 86/22/35 85/9/6 84/25/33
f 83/22/35 82/10/4 81/9/76
f 80/16/22 79/8/2 78/18/19
f 29/16/22 30/11/5 77/8/2
f 76/31/77 75/12/8 28/29/41
f 31/31/77 26/9/76 27/12/8
f 74/18/29 73/10/4 24/22/27
f 21/18/78 22/8/2 23/10/4
f 72/34/79 71/13/9 20/15/12
f 17/34/50 18/14/11 19/13/16
f 70/47/80 69/48/71 68/49/81
f 67/47/82 66/50/58 65/48/68
f 64/51/83 63/52/56 62/53/84
f 61/51/85 60/54/60 59/52/69
f 58/55/86 57/56/59 56/57/87
f 55/55/86 54/58/88 53/56/70
f 52/49/89 51/59/65 50/60/90
f 2/49/91 32/48/68 49/59/65
f 48/53/84 47/50/66 12/47/82
f 9/53/92 10/52/56 11/50/58
f 46/57/93 45/54/60 8/51/94
f 5/57/95 6/56/70 7/54/60
f 44/60/96 43/61/64 15/62/86
f 1/60/97 35/59/65 39/61/64
