# Blender 5.0.0
# www.blender.org
mtllib Circle_005_Circle_Dupli_175_decorations_0.mtl
o Circle.005|Circle|Dupli|175_decorations_0
v -4.470349 1.047221 0.393577
v -4.469473 1.046273 0.393013
v -4.465715 1.051771 0.388859
v -4.466965 1.053123 0.389663
v -4.472361 1.047118 0.392033
v -4.470063 1.050973 0.388916
v -4.469708 1.050063 0.388033
v -4.471982 1.046144 0.391089
v -4.470782 1.045410 0.391018
v -4.468586 1.049377 0.387967
v -4.467543 1.049430 0.388768
v -4.469666 1.045467 0.391875
v -4.468799 1.053659 0.389040
v -4.469835 1.052976 0.387461
v -4.471634 1.047597 0.393141
v -4.469295 1.051587 0.386113
v -4.468417 1.052711 0.385586
v -4.467581 1.053542 0.385489
v -4.466672 1.052986 0.385436
v -4.467025 1.051859 0.385504
v -4.465505 1.052860 0.387821
v -4.465680 1.053640 0.386948
v -4.466344 1.054358 0.387375
v -4.466522 1.053961 0.388475
v -4.465990 1.050621 0.387234
v -4.467318 1.054642 0.387044
v -4.467868 1.054280 0.386205
v -4.468858 1.053841 0.386683
v -4.465729 1.051925 0.386498
v -4.465826 1.053029 0.386085
v -4.468014 1.054397 0.387968
v -4.467363 1.050183 0.389832
v -4.466585 1.050750 0.389561
v -4.467667 1.051920 0.390257
v -4.468182 1.051069 0.390359
v -4.467583 1.050539 0.386012
v -4.469254 1.052384 0.389719
v -4.470151 1.051793 0.388351
v -4.469383 1.051421 0.389951
v -4.466823 1.049755 0.388155
v -4.469683 1.050591 0.387185
v -4.468202 1.049684 0.387097
v -4.469383 1.051421 0.389951
v -4.470349 1.047221 0.393577
v -4.469708 1.050063 0.388033
v -4.472361 1.047118 0.392033
v -4.467543 1.049430 0.388768
v -4.470782 1.045410 0.391018
v -4.468182 1.051069 0.390359
v -4.470349 1.047221 0.393577
v -4.468182 1.051069 0.390359
v -4.469473 1.046273 0.393013
v -4.470063 1.050973 0.388916
v -4.469383 1.051421 0.389951
v -4.471634 1.047597 0.393141
v -4.472361 1.047118 0.392033
v -4.470063 1.050973 0.388916
v -4.471634 1.047597 0.393141
v -4.468586 1.049377 0.387967
v -4.469708 1.050063 0.388033
v -4.471982 1.046144 0.391089
v -4.470782 1.045410 0.391018
v -4.468586 1.049377 0.387967
v -4.471982 1.046144 0.391089
v -4.467363 1.050183 0.389832
v -4.467543 1.049430 0.388768
v -4.469666 1.045467 0.391875
v -4.469473 1.046273 0.393013
v -4.467363 1.050183 0.389832
v -4.469666 1.045467 0.391875
v -4.466672 1.052986 0.385436
v -4.468417 1.052711 0.385586
v -4.466344 1.054358 0.387375
v -4.465505 1.052860 0.387821
v -4.467868 1.054280 0.386205
v -4.468014 1.054397 0.387968
v -4.465680 1.053640 0.386948
v -4.465505 1.052860 0.387821
v -4.465680 1.053640 0.386948
v -4.465729 1.051925 0.386498
v -4.467318 1.054642 0.387044
v -4.466344 1.054358 0.387375
v -4.466522 1.053961 0.388475
v -4.468014 1.054397 0.387968
v -4.467318 1.054642 0.387044
v -4.466522 1.053961 0.388475
v -4.467581 1.053542 0.385489
v -4.467868 1.054280 0.386205
v -4.468858 1.053841 0.386683
v -4.468417 1.052711 0.385586
v -4.467581 1.053542 0.385489
v -4.468858 1.053841 0.386683
v -4.467363 1.050183 0.389832
v -4.468182 1.051069 0.390359
v -4.467667 1.051920 0.390257
v -4.467363 1.050183 0.389832
v -4.469383 1.051421 0.389951
v -4.470063 1.050973 0.388916
v -4.470151 1.051793 0.388351
v -4.469383 1.051421 0.389951
v -4.469708 1.050063 0.388033
v -4.468586 1.049377 0.387967
v -4.468202 1.049684 0.387097
v -4.469708 1.050063 0.388033
v -4.466585 1.050750 0.389561
v -4.467543 1.049430 0.388768
v -4.467363 1.050183 0.389832
v -4.466585 1.050750 0.389561
v -4.467543 1.049430 0.388768
v -4.469254 1.052384 0.389719
v -4.467667 1.051920 0.390257
v -4.468182 1.051069 0.390359
v -4.469383 1.051421 0.389951
v -4.469254 1.052384 0.389719
v -4.468182 1.051069 0.390359
v -4.469683 1.050591 0.387185
v -4.470151 1.051793 0.388351
v -4.470063 1.050973 0.388916
v -4.469708 1.050063 0.388033
v -4.469683 1.050591 0.387185
v -4.470063 1.050973 0.388916
v -4.466823 1.049755 0.388155
v -4.468202 1.049684 0.387097
v -4.468586 1.049377 0.387967
v -4.467543 1.049430 0.388768
v -4.466823 1.049755 0.388155
v -4.468586 1.049377 0.387967
v -4.468202 1.049684 0.387097
v -4.466823 1.049755 0.388155
v -4.465990 1.050621 0.387234
v -4.468202 1.049684 0.387097
v -4.465729 1.051925 0.386498
v -4.467025 1.051859 0.385504
v -4.467583 1.050539 0.386012
v -4.465990 1.050621 0.387234
v -4.465729 1.051925 0.386498
v -4.467583 1.050539 0.386012
v -4.467583 1.050539 0.386012
v -4.469683 1.050591 0.387185
v -4.468202 1.049684 0.387097
v -4.467583 1.050539 0.386012
v -4.469683 1.050591 0.387185
v -4.467025 1.051859 0.385504
v -4.468417 1.052711 0.385586
v -4.469295 1.051587 0.386113
v -4.467583 1.050539 0.386012
v -4.467025 1.051859 0.385504
v -4.469295 1.051587 0.386113
v -4.469295 1.051587 0.386113
v -4.470151 1.051793 0.388351
v -4.469683 1.050591 0.387185
v -4.469295 1.051587 0.386113
v -4.470151 1.051793 0.388351
v -4.468417 1.052711 0.385586
v -4.468858 1.053841 0.386683
v -4.469835 1.052976 0.387461
v -4.469295 1.051587 0.386113
v -4.468417 1.052711 0.385586
v -4.469835 1.052976 0.387461
v -4.469835 1.052976 0.387461
v -4.469254 1.052384 0.389719
v -4.470151 1.051793 0.388351
v -4.469835 1.052976 0.387461
v -4.469254 1.052384 0.389719
v -4.468858 1.053841 0.386683
v -4.468014 1.054397 0.387968
v -4.468799 1.053659 0.389040
v -4.469835 1.052976 0.387461
v -4.468858 1.053841 0.386683
v -4.468799 1.053659 0.389040
v -4.468799 1.053659 0.389040
v -4.467667 1.051920 0.390257
v -4.469254 1.052384 0.389719
v -4.468799 1.053659 0.389040
v -4.467667 1.051920 0.390257
v -4.468014 1.054397 0.387968
v -4.466522 1.053961 0.388475
v -4.466965 1.053123 0.389663
v -4.468799 1.053659 0.389040
v -4.468014 1.054397 0.387968
v -4.466965 1.053123 0.389663
v -4.466965 1.053123 0.389663
v -4.466585 1.050750 0.389561
v -4.467667 1.051920 0.390257
v -4.466965 1.053123 0.389663
v -4.466585 1.050750 0.389561
v -4.466522 1.053961 0.388475
v -4.465505 1.052860 0.387821
v -4.465715 1.051771 0.388859
v -4.466965 1.053123 0.389663
v -4.466522 1.053961 0.388475
v -4.465715 1.051771 0.388859
v -4.465715 1.051771 0.388859
v -4.465990 1.050621 0.387234
v -4.466823 1.049755 0.388155
v -4.466585 1.050750 0.389561
v -4.465715 1.051771 0.388859
v -4.466823 1.049755 0.388155
v -4.465505 1.052860 0.387821
v -4.465729 1.051925 0.386498
v -4.465990 1.050621 0.387234
v -4.465715 1.051771 0.388859
v -4.465505 1.052860 0.387821
v -4.465990 1.050621 0.387234
v -4.465826 1.053029 0.386085
v -4.466672 1.052986 0.385436
v -4.467025 1.051859 0.385504
v -4.465729 1.051925 0.386498
v -4.465826 1.053029 0.386085
v -4.467025 1.051859 0.385504
v -4.467581 1.053542 0.385489
v -4.466672 1.052986 0.385436
v -4.467868 1.054280 0.386205
v -4.465826 1.053029 0.386085
v -4.467868 1.054280 0.386205
v -4.466672 1.052986 0.385436
v -4.467318 1.054642 0.387044
v -4.467868 1.054280 0.386205
v -4.465826 1.053029 0.386085
v -4.465680 1.053640 0.386948
v -4.467318 1.054642 0.387044
v -4.465826 1.053029 0.386085
v -4.466344 1.054358 0.387375
v -4.467318 1.054642 0.387044
v -4.465680 1.053640 0.386948
v -4.471982 1.046144 0.391089
v -4.472361 1.047118 0.392033
v -4.470782 1.045410 0.391018
v -4.469666 1.045467 0.391875
v -4.470782 1.045410 0.391018
v -4.472361 1.047118 0.392033
v -4.471634 1.047597 0.393141
v -4.469666 1.045467 0.391875
v -4.472361 1.047118 0.392033
v -4.469473 1.046273 0.393013
v -4.469666 1.045467 0.391875
v -4.471634 1.047597 0.393141
v -4.470349 1.047221 0.393577
v -4.469473 1.046273 0.393013
v -4.471634 1.047597 0.393141
vn -0.4032 -0.7135 0.5731
vn 0.8261 0.5238 -0.2078
vn 0.0751 0.9837 -0.1636
vn 0.5217 0.8530 -0.0121
vn 0.7592 0.2437 -0.6035
vn 0.8261 0.5237 -0.2078
vn 0.7592 0.2438 -0.6035
vn -0.1773 0.8172 -0.5484
vn 0.3713 0.2239 -0.9011
vn -0.1773 0.8173 -0.5483
vn -0.0455 0.4791 -0.8766
vn 0.2266 -0.3003 -0.9265
vn 0.8546 -0.2681 -0.4448
vn 0.7706 -0.5852 -0.2524
vn 0.9630 0.1852 0.1959
vn 0.8892 -0.0890 0.4487
vn 0.7706 -0.5852 -0.2525
vn 0.8546 -0.2681 -0.4447
vn 0.9630 0.1852 0.1958
vn 0.5755 -0.8174 -0.0240
vn 0.8892 -0.0890 0.4488
vn 0.6873 -0.3500 0.6365
vn 0.4702 0.7183 0.5128
vn 0.3498 0.4945 0.7957
vn 0.1791 0.1998 0.9633
vn -0.2528 0.9298 0.2675
vn -0.4416 0.7260 0.5272
vn 0.4701 0.7183 0.5128
vn 0.1791 0.1997 0.9634
vn -0.5664 0.4178 0.7104
vn 0.3497 0.4945 0.7957
vn -0.4417 0.7260 0.5272
vn -0.6615 0.6604 -0.3554
vn -0.8889 0.4311 -0.1546
vn -0.4417 0.7260 0.5271
vn -0.2529 0.9298 0.2675
vn -0.5665 0.4178 0.7103
vn -0.8890 0.4311 -0.1546
vn -0.9878 0.1400 0.0681
vn -0.8889 0.4312 -0.1546
vn -0.4481 0.1130 -0.8868
vn -0.6554 -0.1681 -0.7363
vn -0.7678 -0.4245 -0.4799
vn -0.8889 0.4311 -0.1547
vn -0.6554 -0.1682 -0.7363
vn 0.2266 -0.3003 -0.9266
vn 0.0832 -0.6204 -0.7799
vn -0.4481 0.1129 -0.8868
vn 0.2266 -0.3002 -0.9266
vn 0.0832 -0.6204 -0.7798
vn -0.0720 -0.8505 -0.5209
vn 0.0832 -0.6205 -0.7798
vn -0.0720 -0.8506 -0.5209
vn 0.5756 -0.8174 -0.0241
vn -0.0396 -0.8117 -0.5827
vn 0.6243 -0.7777 -0.0732
vn -0.0397 -0.8117 -0.5827
vn -0.9787 0.2040 0.0212
vn -0.7531 -0.3748 -0.5407
vn 0.2178 0.2653 0.9392
vn -0.5466 0.4889 0.6798
vn 0.6244 -0.7777 -0.0733
vn 0.7389 -0.2984 0.6041
vn 0.7390 -0.2984 0.6041
vn -0.6615 0.6603 -0.3554
vn -0.1772 0.8173 -0.5483
vn 0.4701 0.7184 0.5128
vn 0.5217 0.8530 -0.0120
vn 0.0752 0.9837 -0.1636
vn 0.8261 0.5238 -0.2079
vn -0.2528 0.9298 0.2674
vn 0.7635 -0.5987 -0.2420
vn 0.8822 -0.1023 0.4596
vn 0.7636 -0.5987 -0.2420
vn -0.6632 -0.1814 -0.7261
vn 0.0757 -0.6339 -0.7697
vn -0.6631 -0.1814 -0.7262
vn -0.4494 0.7132 0.5380
vn -0.8969 0.4182 -0.1441
vn -0.5466 0.4889 0.6799
vn 0.3425 0.4815 0.8067
vn 0.8822 -0.1022 0.4596
vn 0.0758 -0.6339 -0.7697
vn 0.6244 -0.7777 -0.0732
vn -0.8969 0.4181 -0.1441
vn 0.3425 0.4816 0.8067
vn -0.4493 0.7132 0.5380
vt 0.543243 0.611839
vt 0.535370 0.618118
vt 0.537796 0.613083
vt 0.537796 0.623154
vt 0.547607 0.615326
vt 0.543243 0.624397
vt 0.547607 0.620918
vt 0.565384 0.671494
vt 0.570206 0.669548
vt 0.567856 0.672157
vt 0.564468 0.669609
vt 0.568146 0.666756
vt 0.564514 0.667854
vt 0.565857 0.666748
vt 0.562897 0.666855
vt 0.562302 0.669838
vt 0.559082 0.669685
vt 0.563492 0.673050
vt 0.560059 0.674789
vt 0.554092 0.669067
vt 0.554398 0.676537
vt 0.567307 0.675606
vt 0.564316 0.680244
vt 0.558044 0.684982
vt 0.575485 0.674767
vt 0.575272 0.686485
vt 0.565720 0.696274
vt 0.575485 0.658051
vt 0.568817 0.663902
vt 0.568115 0.659698
vt 0.574570 0.665543
vt 0.572052 0.651657
vt 0.565903 0.655174
vt 0.565063 0.664742
vt 0.563416 0.661980
vt 0.560669 0.658463
vt 0.560364 0.665283
vt 0.556488 0.662933
vt 0.552032 0.660286
vt 0.548294 0.668175
vt 0.563522 0.651588
vt 0.557617 0.654999
vt 0.551163 0.688484
vt 0.556610 0.699394
vt 0.547867 0.678001
vt 0.568756 0.648293
vt 0.604446 0.682632
vt 0.626221 0.687675
vt 0.604553 0.688225
vt 0.626144 0.682457
vt 0.604553 0.671455
vt 0.626144 0.677231
vt 0.604446 0.677048
vt 0.626221 0.672005
vt 0.605011 0.660294
vt 0.626404 0.666786
vt 0.604736 0.665871
vt 0.626663 0.661568
vt 0.626404 0.692902
vt 0.604736 0.693810
vt 0.626663 0.698120
vt 0.605011 0.699394
s 0
usemtl decorations
f 240/1/1 239/2/1 238/3/1
f 237/1/1 236/4/1 235/2/1
f 234/5/1 233/4/1 232/1/1
f 231/5/1 230/6/1 229/4/1
f 228/6/1 227/5/1 226/7/1
s 1
f 225/8/2 224/9/3 223/10/4
f 222/11/5 221/9/3 220/8/6
f 219/11/7 218/12/8 217/9/3
f 216/13/9 215/12/10 214/11/7
f 213/12/8 212/13/9 211/14/11
f 210/15/12 209/11/7 208/16/13
f 207/15/12 206/13/9 205/11/7
f 204/17/14 203/18/15 202/19/16
f 201/17/17 200/16/18 199/18/19
f 198/20/20 197/19/21 196/21/22
f 195/20/20 194/17/17 193/19/16
f 192/19/16 191/22/23 190/23/24
f 189/19/16 188/18/15 187/22/23
f 186/21/22 185/23/24 184/24/25
f 183/21/22 3/19/16 182/23/24
f 181/23/24 180/25/26 179/26/27
f 178/23/24 177/22/28 176/25/26
f 175/24/29 174/26/27 173/27/30
f 172/24/29 4/23/31 171/26/27
f 170/28/32 169/29/33 168/30/34
f 167/28/35 166/31/36 165/29/33
f 164/32/37 163/30/38 162/33/39
f 161/32/37 13/28/32 160/30/40
f 159/30/34 158/34/41 157/35/42
f 156/30/34 155/29/33 154/34/41
f 153/33/39 152/35/42 151/36/43
f 150/33/39 14/30/44 149/35/42
f 148/35/45 147/15/46 146/37/47
f 145/35/45 144/34/48 143/15/49
f 142/36/43 141/37/50 140/38/51
f 139/36/43 16/35/42 138/37/50
f 137/37/52 136/16/18 135/17/14
f 134/37/47 133/15/46 132/16/13
f 131/38/53 130/17/14 129/20/54
f 128/38/53 36/37/47 25/17/14
f 127/39/55 126/20/54 125/40/56
f 124/39/57 123/38/53 122/20/54
f 121/41/58 120/36/43 119/42/59
f 118/41/58 117/33/39 116/36/43
f 115/43/60 114/27/30 113/44/61
f 112/43/60 111/24/25 110/27/30
f 109/40/62 108/21/22 107/45/63
f 106/40/62 40/20/20 105/21/22
f 104/42/59 103/38/53 102/39/57
f 101/42/59 41/36/43 42/38/53
f 100/46/61 99/33/39 98/41/58
f 97/46/61 37/32/37 38/33/39
f 96/45/64 95/24/25 94/43/60
f 93/45/64 33/21/22 34/24/25
f 92/29/65 91/14/11 90/34/41
f 89/29/65 88/12/66 87/14/11
f 86/22/67 85/9/3 84/25/26
f 83/22/67 82/10/68 81/9/69
f 80/16/18 79/8/2 78/18/19
f 29/16/18 30/11/5 77/8/70
f 76/31/71 75/12/8 28/29/33
f 31/31/26 26/9/69 27/12/10
f 74/18/15 73/10/68 24/22/23
f 21/18/15 22/8/70 23/10/4
f 72/34/41 71/13/9 20/15/49
f 17/34/41 18/14/11 19/13/9
f 70/47/72 69/48/64 68/49/73
f 67/47/74 66/50/56 65/48/64
f 64/51/75 63/52/57 62/53/76
f 61/51/77 60/54/59 59/52/57
f 58/55/78 57/56/58 56/57/79
f 55/55/78 54/58/80 53/56/58
f 52/49/73 51/59/60 50/60/81
f 2/49/82 32/48/63 49/59/60
f 48/53/83 47/50/84 12/47/72
f 9/53/83 10/52/57 11/50/56
f 46/57/85 45/54/59 8/51/75
f 5/57/79 6/56/58 7/54/59
f 44/60/86 43/61/61 15/62/87
f 1/60/86 35/59/60 39/61/80
