# Blender 5.0.0
# www.blender.org
mtllib Circle_002_Circle_Dupli_7_decorations_0.mtl
o Circle.002|Circle|Dupli|7_decorations_0
v -4.235365 0.831069 0.420991
v -4.236038 0.830065 0.420267
v -4.234828 0.833751 0.413445
v -4.233868 0.835183 0.414477
v -4.237254 0.832593 0.421731
v -4.236670 0.835428 0.417096
v -4.237735 0.834842 0.416590
v -4.238393 0.831966 0.421190
v -4.238466 0.830785 0.420427
v -4.237803 0.833738 0.415877
v -4.236824 0.832946 0.415493
v -4.237418 0.829939 0.420016
v -4.234640 0.836789 0.415406
v -4.236563 0.837359 0.415533
v -4.235907 0.832194 0.421642
v -4.238188 0.836464 0.414761
v -4.237660 0.837048 0.413461
v -4.236988 0.837279 0.412516
v -4.237043 0.836384 0.411937
v -4.237745 0.835677 0.412575
v -4.234926 0.834841 0.412390
v -4.235203 0.835838 0.411817
v -4.234694 0.836599 0.412365
v -4.234145 0.836006 0.413230
v -4.236796 0.833571 0.413086
v -4.235104 0.837451 0.412858
v -4.236125 0.837754 0.412925
v -4.236338 0.837776 0.414089
v -4.236528 0.834694 0.412098
v -4.236248 0.835742 0.411626
v -4.234774 0.837312 0.413986
v -4.235534 0.833064 0.415728
v -4.235161 0.833182 0.414807
v -4.234331 0.834421 0.415701
v -4.234905 0.834003 0.416404
v -4.238292 0.834779 0.413672
v -4.234999 0.835811 0.416505
v -4.236663 0.836304 0.416615
v -4.235411 0.835055 0.417013
v -4.236866 0.833026 0.414497
v -4.238070 0.835530 0.415947
v -4.238160 0.834071 0.415004
v -4.235411 0.835055 0.417013
v -4.235365 0.831069 0.420991
v -4.237735 0.834842 0.416590
v -4.237254 0.832593 0.421731
v -4.236824 0.832946 0.415493
v -4.238466 0.830785 0.420427
v -4.234905 0.834003 0.416404
v -4.235365 0.831069 0.420991
v -4.234905 0.834003 0.416404
v -4.236038 0.830065 0.420267
v -4.236670 0.835428 0.417096
v -4.235411 0.835055 0.417013
v -4.235907 0.832194 0.421642
v -4.237254 0.832593 0.421731
v -4.236670 0.835428 0.417096
v -4.235907 0.832194 0.421642
v -4.237803 0.833738 0.415877
v -4.237735 0.834842 0.416590
v -4.238393 0.831966 0.421190
v -4.238466 0.830785 0.420427
v -4.237803 0.833738 0.415877
v -4.238393 0.831966 0.421190
v -4.235534 0.833064 0.415728
v -4.236824 0.832946 0.415493
v -4.237418 0.829939 0.420016
v -4.236038 0.830065 0.420267
v -4.235534 0.833064 0.415728
v -4.237418 0.829939 0.420016
v -4.237043 0.836384 0.411937
v -4.237660 0.837048 0.413461
v -4.234694 0.836599 0.412365
v -4.234926 0.834841 0.412390
v -4.236125 0.837754 0.412925
v -4.234774 0.837312 0.413986
v -4.235203 0.835838 0.411817
v -4.234926 0.834841 0.412390
v -4.235203 0.835838 0.411817
v -4.236528 0.834694 0.412098
v -4.235104 0.837451 0.412858
v -4.234694 0.836599 0.412365
v -4.234145 0.836006 0.413230
v -4.234774 0.837312 0.413986
v -4.235104 0.837451 0.412858
v -4.234145 0.836006 0.413230
v -4.236988 0.837279 0.412516
v -4.236125 0.837754 0.412925
v -4.236338 0.837776 0.414089
v -4.237660 0.837048 0.413461
v -4.236988 0.837279 0.412516
v -4.236338 0.837776 0.414089
v -4.235534 0.833064 0.415728
v -4.234905 0.834003 0.416404
v -4.234331 0.834421 0.415701
v -4.235534 0.833064 0.415728
v -4.235411 0.835055 0.417013
v -4.236670 0.835428 0.417096
v -4.236663 0.836304 0.416615
v -4.235411 0.835055 0.417013
v -4.237735 0.834842 0.416590
v -4.237803 0.833738 0.415877
v -4.238160 0.834071 0.415004
v -4.237735 0.834842 0.416590
v -4.235161 0.833182 0.414807
v -4.236824 0.832946 0.415493
v -4.235534 0.833064 0.415728
v -4.235161 0.833182 0.414807
v -4.236824 0.832946 0.415493
v -4.234999 0.835811 0.416505
v -4.234331 0.834421 0.415701
v -4.234905 0.834003 0.416404
v -4.235411 0.835055 0.417013
v -4.234999 0.835811 0.416505
v -4.234905 0.834003 0.416404
v -4.238070 0.835530 0.415947
v -4.236663 0.836304 0.416615
v -4.236670 0.835428 0.417096
v -4.237735 0.834842 0.416590
v -4.238070 0.835530 0.415947
v -4.236670 0.835428 0.417096
v -4.236866 0.833026 0.414497
v -4.238160 0.834071 0.415004
v -4.237803 0.833738 0.415877
v -4.236824 0.832946 0.415493
v -4.236866 0.833026 0.414497
v -4.237803 0.833738 0.415877
v -4.238160 0.834071 0.415004
v -4.236866 0.833026 0.414497
v -4.236796 0.833571 0.413086
v -4.238160 0.834071 0.415004
v -4.236528 0.834694 0.412098
v -4.237745 0.835677 0.412575
v -4.238292 0.834779 0.413672
v -4.236796 0.833571 0.413086
v -4.236528 0.834694 0.412098
v -4.238292 0.834779 0.413672
v -4.238292 0.834779 0.413672
v -4.238070 0.835530 0.415947
v -4.238160 0.834071 0.415004
v -4.238292 0.834779 0.413672
v -4.238070 0.835530 0.415947
v -4.237745 0.835677 0.412575
v -4.237660 0.837048 0.413461
v -4.238188 0.836464 0.414761
v -4.238292 0.834779 0.413672
v -4.237745 0.835677 0.412575
v -4.238188 0.836464 0.414761
v -4.238188 0.836464 0.414761
v -4.236663 0.836304 0.416615
v -4.238070 0.835530 0.415947
v -4.238188 0.836464 0.414761
v -4.236663 0.836304 0.416615
v -4.237660 0.837048 0.413461
v -4.236338 0.837776 0.414089
v -4.236563 0.837359 0.415533
v -4.238188 0.836464 0.414761
v -4.237660 0.837048 0.413461
v -4.236563 0.837359 0.415533
v -4.236563 0.837359 0.415533
v -4.234999 0.835811 0.416505
v -4.236663 0.836304 0.416615
v -4.236563 0.837359 0.415533
v -4.234999 0.835811 0.416505
v -4.236338 0.837776 0.414089
v -4.234774 0.837312 0.413986
v -4.234640 0.836789 0.415406
v -4.236563 0.837359 0.415533
v -4.236338 0.837776 0.414089
v -4.234640 0.836789 0.415406
v -4.234640 0.836789 0.415406
v -4.234331 0.834421 0.415701
v -4.234999 0.835811 0.416505
v -4.234640 0.836789 0.415406
v -4.234331 0.834421 0.415701
v -4.234774 0.837312 0.413986
v -4.234145 0.836006 0.413230
v -4.233868 0.835183 0.414477
v -4.234640 0.836789 0.415406
v -4.234774 0.837312 0.413986
v -4.233868 0.835183 0.414477
v -4.233868 0.835183 0.414477
v -4.235161 0.833182 0.414807
v -4.234331 0.834421 0.415701
v -4.233868 0.835183 0.414477
v -4.235161 0.833182 0.414807
v -4.234145 0.836006 0.413230
v -4.234926 0.834841 0.412390
v -4.234828 0.833751 0.413445
v -4.233868 0.835183 0.414477
v -4.234145 0.836006 0.413230
v -4.234828 0.833751 0.413445
v -4.234828 0.833751 0.413445
v -4.236796 0.833571 0.413086
v -4.236866 0.833026 0.414497
v -4.235161 0.833182 0.414807
v -4.234828 0.833751 0.413445
v -4.236866 0.833026 0.414497
v -4.234926 0.834841 0.412390
v -4.236528 0.834694 0.412098
v -4.236796 0.833571 0.413086
v -4.234828 0.833751 0.413445
v -4.234926 0.834841 0.412390
v -4.236796 0.833571 0.413086
v -4.236248 0.835742 0.411626
v -4.237043 0.836384 0.411937
v -4.237745 0.835677 0.412575
v -4.236528 0.834694 0.412098
v -4.236248 0.835742 0.411626
v -4.237745 0.835677 0.412575
v -4.236988 0.837279 0.412516
v -4.237043 0.836384 0.411937
v -4.236125 0.837754 0.412925
v -4.236248 0.835742 0.411626
v -4.236125 0.837754 0.412925
v -4.237043 0.836384 0.411937
v -4.235104 0.837451 0.412858
v -4.236125 0.837754 0.412925
v -4.236248 0.835742 0.411626
v -4.235203 0.835838 0.411817
v -4.235104 0.837451 0.412858
v -4.236248 0.835742 0.411626
v -4.234694 0.836599 0.412365
v -4.235104 0.837451 0.412858
v -4.235203 0.835838 0.411817
v -4.238393 0.831966 0.421190
v -4.237254 0.832593 0.421731
v -4.238466 0.830785 0.420427
v -4.237418 0.829939 0.420016
v -4.238466 0.830785 0.420427
v -4.237254 0.832593 0.421731
v -4.235907 0.832194 0.421642
v -4.237418 0.829939 0.420016
v -4.237254 0.832593 0.421731
v -4.236038 0.830065 0.420267
v -4.237418 0.829939 0.420016
v -4.235907 0.832194 0.421642
v -4.235365 0.831069 0.420991
v -4.236038 0.830065 0.420267
v -4.235907 0.832194 0.421642
vn -0.1036 -0.5351 0.8384
vn 0.4120 0.0371 -0.9104
vn 0.4575 0.7768 -0.4327
vn 0.6456 0.3858 -0.6590
vn -0.0676 -0.0068 -0.9977
vn 0.4576 0.7768 -0.4327
vn 0.4119 0.0371 -0.9105
vn -0.0675 -0.0068 -0.9977
vn -0.0106 0.9156 -0.4020
vn -0.4318 0.2872 -0.8550
vn -0.0107 0.9156 -0.4020
vn -0.4317 0.2872 -0.8551
vn -0.4064 0.6977 -0.5899
vn -0.7952 -0.0321 -0.6055
vn -0.2056 -0.5080 -0.8365
vn -0.4317 0.2873 -0.8550
vn -0.0676 -0.0067 -0.9977
vn -0.2674 -0.7749 -0.5727
vn 0.5707 -0.4370 -0.6952
vn 0.5823 -0.6972 -0.4182
vn -0.2056 -0.5080 -0.8364
vn 0.5706 -0.4370 -0.6953
vn -0.2905 -0.9296 -0.2268
vn 0.5823 -0.6972 -0.4181
vn 0.5099 -0.8564 -0.0812
vn 0.9490 0.1275 -0.2882
vn 0.9965 -0.0793 0.0274
vn 0.5100 -0.8564 -0.0812
vn 0.9001 -0.2743 0.3385
vn 0.6446 0.7605 0.0782
vn 0.6632 0.6136 0.4285
vn 0.9491 0.1275 -0.2881
vn 0.9001 -0.2743 0.3386
vn 0.5862 0.3785 0.7164
vn 0.9965 -0.0792 0.0274
vn -0.1134 0.9853 0.1280
vn -0.1665 0.8597 0.4830
vn 0.5861 0.3785 0.7164
vn -0.1665 0.8596 0.4830
vn -0.1954 0.6103 0.7677
vn -0.1664 0.8597 0.4830
vn -0.7541 0.6326 -0.1763
vn -0.8679 0.4736 0.1499
vn -0.7542 0.6326 -0.1763
vn -0.1955 0.6102 0.7677
vn -0.8562 0.2466 0.4539
vn -0.8679 0.4735 0.1499
vn -0.7952 -0.0320 -0.6055
vn -0.9128 -0.2539 -0.3199
vn -0.7542 0.6326 -0.1762
vn -0.8563 0.2465 0.4540
vn -0.8986 -0.4387 0.0113
vn -0.8985 -0.4388 0.0114
vn -0.9126 -0.4046 -0.0595
vn -0.2906 -0.9296 -0.2268
vn -0.2891 -0.9079 -0.3036
vn -0.9126 -0.4046 -0.0594
vn -0.8985 -0.4387 0.0113
vn -0.1917 0.6711 0.7161
vn -0.8562 0.2466 0.4540
vn -0.8692 0.2981 0.3944
vn -0.1917 0.6711 0.7162
vn -0.1955 0.6102 0.7678
vn 0.9318 -0.2358 0.2761
vn 0.5862 0.3785 0.7163
vn 0.6098 0.4334 0.6635
vn 0.9317 -0.2358 0.2761
vn 0.9001 -0.2742 0.3386
vn -0.2891 -0.9078 -0.3037
vn 0.5316 -0.8328 -0.1543
vn -0.8692 0.2982 0.3944
vn -0.8562 0.2465 0.4540
vn 0.6098 0.4335 0.6635
vn -0.1954 0.6102 0.7677
vn 0.5317 -0.8328 -0.1543
vn 0.9001 -0.2742 0.3385
vn -0.1135 0.9853 0.1280
vn -0.4065 0.6977 -0.5899
vn 0.9490 0.1276 -0.2882
vn 0.6456 0.3857 -0.6590
vn 0.4576 0.7768 -0.4328
vn -0.2056 -0.5081 -0.8364
vn 0.6457 0.3858 -0.6590
vn 0.5707 -0.4371 -0.6952
vn -0.4317 0.2872 -0.8550
vn -0.2694 -0.7852 -0.5575
vn 0.5317 -0.8328 -0.1544
vn 0.5807 -0.7075 -0.4029
vn -0.2694 -0.7852 -0.5576
vn -0.2892 -0.9079 -0.3036
vn -0.8703 0.4639 0.1655
vn -0.9152 -0.2639 -0.3046
vn 0.6616 0.6041 0.4442
vn -0.1684 0.8502 0.4988
vn 0.5807 -0.7075 -0.4028
vn 0.9951 -0.0892 0.0429
vn 0.5807 -0.7074 -0.4029
vn 0.9317 -0.2359 0.2761
vn -0.2891 -0.9079 -0.3037
vn -0.2695 -0.7852 -0.5575
vn -0.1685 0.8502 0.4988
vn -0.1685 0.8502 0.4987
vn 0.6099 0.4335 0.6635
vn 0.6099 0.4334 0.6635
vt 0.543243 0.611839
vt 0.535370 0.618118
vt 0.537796 0.613083
vt 0.537796 0.623154
vt 0.547607 0.615326
vt 0.543243 0.624397
vt 0.547607 0.620918
vt 0.565384 0.671494
vt 0.570206 0.669548
vt 0.567856 0.672157
vt 0.564468 0.669609
vt 0.568146 0.666756
vt 0.564514 0.667854
vt 0.565857 0.666748
vt 0.562897 0.666855
vt 0.562302 0.669838
vt 0.559082 0.669685
vt 0.563492 0.673050
vt 0.560059 0.674789
vt 0.554092 0.669067
vt 0.554398 0.676537
vt 0.567307 0.675606
vt 0.564316 0.680244
vt 0.558044 0.684982
vt 0.575485 0.674767
vt 0.575272 0.686485
vt 0.565720 0.696274
vt 0.575485 0.658051
vt 0.568817 0.663902
vt 0.568115 0.659698
vt 0.574570 0.665543
vt 0.572052 0.651657
vt 0.565903 0.655174
vt 0.565063 0.664742
vt 0.563416 0.661980
vt 0.560669 0.658463
vt 0.560364 0.665283
vt 0.556488 0.662933
vt 0.552032 0.660286
vt 0.548294 0.668175
vt 0.563522 0.651588
vt 0.557617 0.654999
vt 0.551163 0.688484
vt 0.556610 0.699394
vt 0.547867 0.678001
vt 0.568756 0.648293
vt 0.604446 0.682632
vt 0.626221 0.687675
vt 0.604553 0.688225
vt 0.626144 0.682457
vt 0.604553 0.671455
vt 0.626144 0.677231
vt 0.604446 0.677048
vt 0.626221 0.672005
vt 0.605011 0.660294
vt 0.626404 0.666786
vt 0.604736 0.665871
vt 0.626663 0.661568
vt 0.626404 0.692902
vt 0.604736 0.693810
vt 0.626663 0.698120
vt 0.605011 0.699394
s 0
usemtl decorations
f 240/1/1 239/2/1 238/3/1
f 237/1/1 236/4/1 235/2/1
f 234/5/1 233/4/1 232/1/1
f 231/5/1 230/6/1 229/4/1
f 228/6/1 227/5/1 226/7/1
s 1
f 225/8/2 224/9/3 223/10/4
f 222/11/5 221/9/6 220/8/7
f 219/11/8 218/12/9 217/9/3
f 216/13/10 215/12/9 214/11/8
f 213/12/11 212/13/12 211/14/13
f 210/15/14 209/11/8 208/16/15
f 207/15/14 206/13/16 205/11/17
f 204/17/18 203/18/19 202/19/20
f 201/17/18 200/16/21 199/18/22
f 198/20/23 197/19/24 196/21/25
f 195/20/23 194/17/18 193/19/20
f 192/19/20 191/22/26 190/23/27
f 189/19/20 188/18/19 187/22/26
f 186/21/28 185/23/27 184/24/29
f 183/21/28 3/19/20 182/23/27
f 181/23/27 180/25/30 179/26/31
f 178/23/27 177/22/32 176/25/30
f 175/24/33 174/26/31 173/27/34
f 172/24/33 4/23/35 171/26/31
f 170/28/31 169/29/36 168/30/37
f 167/28/31 166/31/30 165/29/36
f 164/32/38 163/30/39 162/33/40
f 161/32/38 13/28/31 160/30/41
f 159/30/37 158/34/42 157/35/43
f 156/30/37 155/29/36 154/34/44
f 153/33/45 152/35/43 151/36/46
f 150/33/45 14/30/37 149/35/43
f 148/35/47 147/15/48 146/37/49
f 145/35/47 144/34/50 143/15/48
f 142/36/51 141/37/49 140/38/52
f 139/36/51 16/35/43 138/37/49
f 137/37/49 136/16/21 135/17/18
f 134/37/49 133/15/48 132/16/15
f 131/38/53 130/17/18 129/20/23
f 128/38/53 36/37/49 25/17/18
f 127/39/54 126/20/55 125/40/56
f 124/39/57 123/38/58 122/20/55
f 121/41/59 120/36/60 119/42/61
f 118/41/62 117/33/63 116/36/60
f 115/43/64 114/27/65 113/44/66
f 112/43/67 111/24/68 110/27/65
f 109/40/69 108/21/25 107/45/70
f 106/40/69 40/20/55 105/21/25
f 104/42/71 103/38/52 102/39/57
f 101/42/71 41/36/72 42/38/52
f 100/46/73 99/33/74 98/41/62
f 97/46/66 37/32/38 38/33/74
f 96/45/75 95/24/76 94/43/67
f 93/45/75 33/21/25 34/24/76
f 92/29/77 91/14/13 90/34/44
f 89/29/77 88/12/9 87/14/78
f 86/22/79 85/9/6 84/25/30
f 83/22/79 82/10/80 81/9/81
f 80/16/21 79/8/7 78/18/22
f 29/16/82 30/11/5 77/8/7
f 76/31/30 75/12/9 28/29/36
f 31/31/30 26/9/81 27/12/9
f 74/18/19 73/10/83 24/22/26
f 21/18/84 22/8/7 23/10/4
f 72/34/44 71/13/85 20/15/48
f 17/34/44 18/14/13 19/13/16
f 70/47/86 69/48/87 68/49/88
f 67/47/89 66/50/90 65/48/70
f 64/51/91 63/52/57 62/53/92
f 61/51/91 60/54/61 59/52/57
f 58/55/93 57/56/62 56/57/94
f 55/55/93 54/58/66 53/56/62
f 52/49/95 51/59/64 50/60/96
f 2/49/97 32/48/70 49/59/98
f 48/53/92 47/50/99 12/47/100
f 9/53/92 10/52/57 11/50/56
f 46/57/101 45/54/71 8/51/91
f 5/57/102 6/56/62 7/54/61
f 44/60/96 43/61/103 15/62/93
f 1/60/96 35/59/98 39/61/104
