# Blender 5.0.0
# www.blender.org
mtllib Circle_005_Circle_Dupli_291_decorations_0.mtl
o Circle.005|Circle|Dupli|291_decorations_0
v -4.589492 1.878031 0.464364
v -4.588919 1.877920 0.463083
v -4.582185 1.875141 0.466004
v -4.583003 1.875299 0.467833
v -4.589020 1.880446 0.464987
v -4.584261 1.878868 0.467160
v -4.583616 1.879321 0.466106
v -4.588330 1.880931 0.463859
v -4.587987 1.880245 0.462677
v -4.583296 1.878681 0.465001
v -4.583541 1.877428 0.464678
v -4.588250 1.878905 0.462332
v -4.583066 1.876903 0.469042
v -4.582329 1.878744 0.468720
v -4.589537 1.879155 0.465212
v -4.581345 1.879436 0.467111
v -4.580202 1.878621 0.467693
v -4.579532 1.877722 0.468070
v -4.579272 1.877203 0.467175
v -4.579804 1.877825 0.466321
v -4.580885 1.875125 0.466792
v -4.579978 1.875441 0.467482
v -4.580412 1.875525 0.468453
v -4.581551 1.875254 0.468280
v -4.581230 1.876547 0.464933
v -4.580446 1.876377 0.469095
v -4.580055 1.877354 0.468925
v -4.581003 1.878058 0.469002
v -4.580108 1.876269 0.465920
v -4.579471 1.876187 0.466913
v -4.581603 1.876559 0.469264
v -4.584167 1.876507 0.465380
v -4.583447 1.875829 0.465529
v -4.584155 1.875966 0.467111
v -4.584702 1.876611 0.466579
v -4.580856 1.878458 0.465425
v -4.584210 1.877354 0.468158
v -4.583571 1.878948 0.467880
v -4.584744 1.877661 0.467371
v -4.582620 1.877046 0.464601
v -4.582720 1.879547 0.466487
v -4.582297 1.878701 0.465028
v -4.584744 1.877661 0.467371
v -4.589492 1.878031 0.464364
v -4.583616 1.879321 0.466106
v -4.589020 1.880446 0.464987
v -4.583541 1.877428 0.464678
v -4.587987 1.880245 0.462677
v -4.584702 1.876611 0.466579
v -4.589492 1.878031 0.464364
v -4.584702 1.876611 0.466579
v -4.588919 1.877920 0.463083
v -4.584261 1.878868 0.467160
v -4.584744 1.877661 0.467371
v -4.589537 1.879155 0.465212
v -4.589020 1.880446 0.464987
v -4.584261 1.878868 0.467160
v -4.589537 1.879155 0.465212
v -4.583296 1.878681 0.465001
v -4.583616 1.879321 0.466106
v -4.588330 1.880931 0.463859
v -4.587987 1.880245 0.462677
v -4.583296 1.878681 0.465001
v -4.588330 1.880931 0.463859
v -4.584167 1.876507 0.465380
v -4.583541 1.877428 0.464678
v -4.588250 1.878905 0.462332
v -4.588919 1.877920 0.463083
v -4.584167 1.876507 0.465380
v -4.588250 1.878905 0.462332
v -4.579272 1.877203 0.467175
v -4.580202 1.878621 0.467693
v -4.580412 1.875525 0.468453
v -4.580885 1.875125 0.466792
v -4.580055 1.877354 0.468925
v -4.581603 1.876559 0.469264
v -4.579978 1.875441 0.467482
v -4.580885 1.875125 0.466792
v -4.579978 1.875441 0.467482
v -4.580108 1.876269 0.465920
v -4.580446 1.876377 0.469095
v -4.580412 1.875525 0.468453
v -4.581551 1.875254 0.468280
v -4.581603 1.876559 0.469264
v -4.580446 1.876377 0.469095
v -4.581551 1.875254 0.468280
v -4.579532 1.877722 0.468070
v -4.580055 1.877354 0.468925
v -4.581003 1.878058 0.469002
v -4.580202 1.878621 0.467693
v -4.579532 1.877722 0.468070
v -4.581003 1.878058 0.469002
v -4.584167 1.876507 0.465380
v -4.584702 1.876611 0.466579
v -4.584155 1.875966 0.467111
v -4.584167 1.876507 0.465380
v -4.584744 1.877661 0.467371
v -4.584261 1.878868 0.467160
v -4.583571 1.878948 0.467880
v -4.584744 1.877661 0.467371
v -4.583616 1.879321 0.466106
v -4.583296 1.878681 0.465001
v -4.582297 1.878701 0.465028
v -4.583616 1.879321 0.466106
v -4.583447 1.875829 0.465529
v -4.583541 1.877428 0.464678
v -4.584167 1.876507 0.465380
v -4.583447 1.875829 0.465529
v -4.583541 1.877428 0.464678
v -4.584210 1.877354 0.468158
v -4.584155 1.875966 0.467111
v -4.584702 1.876611 0.466579
v -4.584744 1.877661 0.467371
v -4.584210 1.877354 0.468158
v -4.584702 1.876611 0.466579
v -4.582720 1.879547 0.466487
v -4.583571 1.878948 0.467880
v -4.584261 1.878868 0.467160
v -4.583616 1.879321 0.466106
v -4.582720 1.879547 0.466487
v -4.584261 1.878868 0.467160
v -4.582620 1.877046 0.464601
v -4.582297 1.878701 0.465028
v -4.583296 1.878681 0.465001
v -4.583541 1.877428 0.464678
v -4.582620 1.877046 0.464601
v -4.583296 1.878681 0.465001
v -4.582297 1.878701 0.465028
v -4.582620 1.877046 0.464601
v -4.581230 1.876547 0.464933
v -4.582297 1.878701 0.465028
v -4.580108 1.876269 0.465920
v -4.579804 1.877825 0.466321
v -4.580856 1.878458 0.465425
v -4.581230 1.876547 0.464933
v -4.580108 1.876269 0.465920
v -4.580856 1.878458 0.465425
v -4.580856 1.878458 0.465425
v -4.582720 1.879547 0.466487
v -4.582297 1.878701 0.465028
v -4.580856 1.878458 0.465425
v -4.582720 1.879547 0.466487
v -4.579804 1.877825 0.466321
v -4.580202 1.878621 0.467693
v -4.581345 1.879436 0.467111
v -4.580856 1.878458 0.465425
v -4.579804 1.877825 0.466321
v -4.581345 1.879436 0.467111
v -4.581345 1.879436 0.467111
v -4.583571 1.878948 0.467880
v -4.582720 1.879547 0.466487
v -4.581345 1.879436 0.467111
v -4.583571 1.878948 0.467880
v -4.580202 1.878621 0.467693
v -4.581003 1.878058 0.469002
v -4.582329 1.878744 0.468720
v -4.581345 1.879436 0.467111
v -4.580202 1.878621 0.467693
v -4.582329 1.878744 0.468720
v -4.582329 1.878744 0.468720
v -4.584210 1.877354 0.468158
v -4.583571 1.878948 0.467880
v -4.582329 1.878744 0.468720
v -4.584210 1.877354 0.468158
v -4.581003 1.878058 0.469002
v -4.581603 1.876559 0.469264
v -4.583066 1.876903 0.469042
v -4.582329 1.878744 0.468720
v -4.581003 1.878058 0.469002
v -4.583066 1.876903 0.469042
v -4.583066 1.876903 0.469042
v -4.584155 1.875966 0.467111
v -4.584210 1.877354 0.468158
v -4.583066 1.876903 0.469042
v -4.584155 1.875966 0.467111
v -4.581603 1.876559 0.469264
v -4.581551 1.875254 0.468280
v -4.583003 1.875299 0.467833
v -4.583066 1.876903 0.469042
v -4.581603 1.876559 0.469264
v -4.583003 1.875299 0.467833
v -4.583003 1.875299 0.467833
v -4.583447 1.875829 0.465529
v -4.584155 1.875966 0.467111
v -4.583003 1.875299 0.467833
v -4.583447 1.875829 0.465529
v -4.581551 1.875254 0.468280
v -4.580885 1.875125 0.466792
v -4.582185 1.875141 0.466004
v -4.583003 1.875299 0.467833
v -4.581551 1.875254 0.468280
v -4.582185 1.875141 0.466004
v -4.582185 1.875141 0.466004
v -4.581230 1.876547 0.464933
v -4.582620 1.877046 0.464601
v -4.583447 1.875829 0.465529
v -4.582185 1.875141 0.466004
v -4.582620 1.877046 0.464601
v -4.580885 1.875125 0.466792
v -4.580108 1.876269 0.465920
v -4.581230 1.876547 0.464933
v -4.582185 1.875141 0.466004
v -4.580885 1.875125 0.466792
v -4.581230 1.876547 0.464933
v -4.579471 1.876187 0.466913
v -4.579272 1.877203 0.467175
v -4.579804 1.877825 0.466321
v -4.580108 1.876269 0.465920
v -4.579471 1.876187 0.466913
v -4.579804 1.877825 0.466321
v -4.579532 1.877722 0.468070
v -4.579272 1.877203 0.467175
v -4.580055 1.877354 0.468925
v -4.579471 1.876187 0.466913
v -4.580055 1.877354 0.468925
v -4.579272 1.877203 0.467175
v -4.580446 1.876377 0.469095
v -4.580055 1.877354 0.468925
v -4.579471 1.876187 0.466913
v -4.579978 1.875441 0.467482
v -4.580446 1.876377 0.469095
v -4.579471 1.876187 0.466913
v -4.580412 1.875525 0.468453
v -4.580446 1.876377 0.469095
v -4.579978 1.875441 0.467482
v -4.588330 1.880931 0.463859
v -4.589020 1.880446 0.464987
v -4.587987 1.880245 0.462677
v -4.588250 1.878905 0.462332
v -4.587987 1.880245 0.462677
v -4.589020 1.880446 0.464987
v -4.589537 1.879155 0.465212
v -4.588250 1.878905 0.462332
v -4.589020 1.880446 0.464987
v -4.588919 1.877920 0.463083
v -4.588250 1.878905 0.462332
v -4.589537 1.879155 0.465212
v -4.589492 1.878031 0.464364
v -4.588919 1.877920 0.463083
v -4.589537 1.879155 0.465212
vn -0.8683 0.2760 -0.4121
vn 0.6725 -0.7339 0.0955
vn 0.4579 -0.3047 0.8352
vn 0.4734 -0.6953 0.5407
vn 0.9052 -0.3915 -0.1655
vn 0.4578 -0.3047 0.8352
vn 0.6725 -0.7339 0.0954
vn 0.9052 -0.3916 -0.1655
vn 0.6375 0.1437 0.7569
vn 0.9962 0.0740 -0.0455
vn 0.6375 0.1436 0.7570
vn 0.8771 0.3122 0.3650
vn 0.8063 0.3762 -0.4565
vn 0.9052 -0.3915 -0.1654
vn 0.6589 -0.3775 -0.6507
vn 0.3661 -0.3003 -0.8808
vn 0.2822 -0.9318 -0.2283
vn -0.0462 -0.9071 -0.4184
vn 0.2823 -0.9318 -0.2283
vn 0.0210 -0.1800 -0.9835
vn -0.3674 -0.7516 -0.5479
vn -0.0461 -0.9071 -0.4184
vn -0.0401 -0.8693 0.4927
vn -0.3990 -0.8387 0.3707
vn -0.3674 -0.7516 -0.5478
vn -0.3989 -0.8387 0.3707
vn -0.6997 -0.6871 0.1955
vn -0.0654 -0.2370 0.9693
vn -0.4266 -0.1465 0.8925
vn -0.0653 -0.2370 0.9693
vn -0.6998 -0.6871 0.1955
vn -0.7258 -0.0351 0.6871
vn -0.3990 -0.8387 0.3708
vn 0.2255 0.4889 0.8427
vn -0.1083 0.6480 0.7539
vn -0.7258 -0.0351 0.6870
vn -0.4259 0.7134 0.5565
vn 0.6134 0.7618 0.2082
vn 0.3163 0.9468 0.0593
vn -0.4259 0.7134 0.5564
vn -0.0258 0.9949 -0.0978
vn 0.8063 0.3763 -0.4565
vn 0.5275 0.5247 -0.6682
vn 0.6134 0.7619 0.2081
vn 0.8063 0.3763 -0.4564
vn -0.0259 0.9949 -0.0979
vn 0.1731 0.5973 -0.7831
vn 0.5274 0.5247 -0.6682
vn 0.1730 0.5973 -0.7832
vn 0.0210 -0.1800 -0.9834
vn 0.2510 0.5890 -0.7682
vn 0.0211 -0.1800 -0.9834
vn 0.0951 -0.2079 -0.9735
vn 0.2510 0.5890 -0.7681
vn -0.3631 0.7082 0.6056
vn -0.0259 0.9949 -0.0978
vn 0.0471 0.9967 -0.0654
vn -0.3631 0.7082 0.6055
vn -0.6439 -0.7280 0.2355
vn -0.6706 -0.0594 0.7394
vn -0.6997 -0.6871 0.1956
vn 0.0952 -0.2080 -0.9735
vn -0.3031 -0.7940 -0.5269
vn 0.0952 -0.2079 -0.9735
vn 0.0210 -0.1799 -0.9835
vn 0.1730 0.5973 -0.7831
vn -0.3031 -0.7941 -0.5268
vn -0.6439 -0.7279 0.2355
vn -0.3031 -0.7941 -0.5269
vn 0.2255 0.4890 0.8427
vn 0.6375 0.1436 0.7569
vn 0.4579 -0.3048 0.8352
vn 0.6588 -0.3775 -0.6507
vn 0.4734 -0.6953 0.5408
vn 0.8063 0.3762 -0.4564
vn 0.3502 -0.2954 -0.8889
vn -0.0623 -0.9024 -0.4263
vn 0.3503 -0.2954 -0.8888
vn 0.3005 0.9524 0.0517
vn 0.5117 0.5301 -0.6761
vn -0.4429 -0.1415 0.8853
vn -0.1244 0.6534 0.7467
vn -0.4429 -0.1415 0.8854
vn -0.0623 -0.9025 -0.4262
vn -0.4152 -0.8340 0.3633
vn -0.6439 -0.7280 0.2354
vn 0.5117 0.5301 -0.6762
vn 0.3503 -0.2954 -0.8889
vn -0.1244 0.6535 0.7467
vn -0.4153 -0.8340 0.3633
vt 0.543243 0.611839
vt 0.535370 0.618118
vt 0.537796 0.613083
vt 0.537796 0.623154
vt 0.547607 0.615326
vt 0.543243 0.624397
vt 0.547607 0.620918
vt 0.565384 0.671494
vt 0.570206 0.669548
vt 0.567856 0.672157
vt 0.564468 0.669609
vt 0.568146 0.666756
vt 0.564514 0.667854
vt 0.565857 0.666748
vt 0.562897 0.666855
vt 0.562302 0.669838
vt 0.559082 0.669685
vt 0.563492 0.673050
vt 0.560059 0.674789
vt 0.554092 0.669067
vt 0.554398 0.676537
vt 0.567307 0.675606
vt 0.564316 0.680244
vt 0.558044 0.684982
vt 0.575485 0.674767
vt 0.575272 0.686485
vt 0.565720 0.696274
vt 0.575485 0.658051
vt 0.568817 0.663902
vt 0.568115 0.659698
vt 0.574570 0.665543
vt 0.572052 0.651657
vt 0.565903 0.655174
vt 0.565063 0.664742
vt 0.563416 0.661980
vt 0.560669 0.658463
vt 0.560364 0.665283
vt 0.556488 0.662933
vt 0.552032 0.660286
vt 0.548294 0.668175
vt 0.563522 0.651588
vt 0.557617 0.654999
vt 0.551163 0.688484
vt 0.556610 0.699394
vt 0.547867 0.678001
vt 0.568756 0.648293
vt 0.604446 0.682632
vt 0.626221 0.687675
vt 0.604553 0.688225
vt 0.626144 0.682457
vt 0.604553 0.671455
vt 0.626144 0.677231
vt 0.604446 0.677048
vt 0.626221 0.672005
vt 0.605011 0.660294
vt 0.626404 0.666786
vt 0.604736 0.665871
vt 0.626663 0.661568
vt 0.626404 0.692902
vt 0.604736 0.693810
vt 0.626663 0.698120
vt 0.605011 0.699394
s 0
usemtl decorations
f 240/1/1 239/2/1 238/3/1
f 237/1/1 236/4/1 235/2/1
f 234/5/1 233/4/1 232/1/1
f 231/5/1 230/6/1 229/4/1
f 228/6/1 227/5/1 226/7/1
s 1
f 225/8/2 224/9/3 223/10/4
f 222/11/5 221/9/6 220/8/7
f 219/11/8 218/12/9 217/9/6
f 216/13/10 215/12/11 214/11/5
f 213/12/9 212/13/10 211/14/12
f 210/15/13 209/11/14 208/16/15
f 207/15/13 206/13/10 205/11/14
f 204/17/16 203/18/17 202/19/18
f 201/17/16 200/16/15 199/18/19
f 198/20/20 197/19/18 196/21/21
f 195/20/20 194/17/16 193/19/22
f 192/19/18 191/22/23 190/23/24
f 189/19/18 188/18/17 187/22/23
f 186/21/25 185/23/26 184/24/27
f 183/21/25 3/19/18 182/23/26
f 181/23/24 180/25/28 179/26/29
f 178/23/24 177/22/23 176/25/30
f 175/24/31 174/26/29 173/27/32
f 172/24/31 4/23/33 171/26/29
f 170/28/29 169/29/34 168/30/35
f 167/28/29 166/31/28 165/29/34
f 164/32/36 163/30/35 162/33/37
f 161/32/36 13/28/29 160/30/35
f 159/30/35 158/34/38 157/35/39
f 156/30/35 155/29/34 154/34/38
f 153/33/40 152/35/39 151/36/41
f 150/33/40 14/30/35 149/35/39
f 148/35/39 147/15/42 146/37/43
f 145/35/39 144/34/44 143/15/45
f 142/36/46 141/37/43 140/38/47
f 139/36/46 16/35/39 138/37/43
f 137/37/48 136/16/15 135/17/16
f 134/37/43 133/15/42 132/16/15
f 131/38/49 130/17/16 129/20/50
f 128/38/49 36/37/43 25/17/16
f 127/39/51 126/20/52 125/40/53
f 124/39/54 123/38/49 122/20/52
f 121/41/55 120/36/56 119/42/57
f 118/41/58 117/33/40 116/36/56
f 115/43/59 114/27/36 113/44/60
f 112/43/59 111/24/61 110/27/36
f 109/40/62 108/21/21 107/45/63
f 106/40/64 40/20/65 105/21/21
f 104/42/57 103/38/66 102/39/54
f 101/42/57 41/36/56 42/38/66
f 100/46/60 99/33/37 98/41/58
f 97/46/60 37/32/36 38/33/37
f 96/45/67 95/24/61 94/43/68
f 93/45/69 33/21/21 34/24/61
f 92/29/70 91/14/12 90/34/38
f 89/29/70 88/12/71 87/14/12
f 86/22/23 85/9/3 84/25/30
f 83/22/23 82/10/4 81/9/72
f 80/16/15 79/8/2 78/18/17
f 29/16/73 30/11/5 77/8/2
f 76/31/30 75/12/71 28/29/34
f 31/31/30 26/9/72 27/12/71
f 74/18/17 73/10/74 24/22/23
f 21/18/17 22/8/2 23/10/4
f 72/34/38 71/13/10 20/15/75
f 17/34/38 18/14/12 19/13/10
f 70/47/76 69/48/69 68/49/77
f 67/47/78 66/50/53 65/48/69
f 64/51/79 63/52/54 62/53/80
f 61/51/79 60/54/57 59/52/54
f 58/55/81 57/56/58 56/57/82
f 55/55/83 54/58/60 53/56/58
f 52/49/84 51/59/59 50/60/85
f 2/49/84 32/48/63 49/59/86
f 48/53/87 47/50/62 12/47/88
f 9/53/80 10/52/54 11/50/53
f 46/57/89 45/54/57 8/51/79
f 5/57/89 6/56/58 7/54/57
f 44/60/90 43/61/60 15/62/81
f 1/60/85 35/59/86 39/61/60
