# Blender 5.0.0
# www.blender.org
mtllib Circle_002_Circle_001_Dupli_270_decorations_0.mtl
o Circle.002|Circle.001|Dupli|270_decorations_0
v -4.451016 1.437737 0.413038
v -4.451620 1.437505 0.414289
v -4.458835 1.438208 0.411281
v -4.457974 1.438538 0.409495
v -4.450556 1.440232 0.413085
v -4.455511 1.441103 0.410952
v -4.455968 1.441463 0.412133
v -4.451045 1.440616 0.414349
v -4.451643 1.439815 0.415340
v -4.456526 1.440714 0.413060
v -4.456766 1.439419 0.413035
v -4.451898 1.438430 0.415314
v -4.457299 1.440269 0.408731
v -4.457317 1.442098 0.409563
v -4.450543 1.438950 0.412502
v -4.458015 1.442647 0.411365
v -4.459364 1.442482 0.410685
v -4.460308 1.442017 0.410144
v -4.460761 1.441410 0.410895
v -4.460057 1.441551 0.411836
v -4.460031 1.438869 0.410616
v -4.460743 1.439660 0.410099
v -4.460287 1.439835 0.409151
v -4.459331 1.439138 0.409163
v -4.459232 1.439528 0.412743
v -4.459928 1.440754 0.408745
v -4.459937 1.441726 0.409187
v -4.458796 1.442035 0.409218
v -4.460354 1.439943 0.411806
v -4.460954 1.440361 0.410875
v -4.458781 1.440547 0.408541
v -4.456505 1.438555 0.412077
v -4.457419 1.438245 0.411817
v -4.456675 1.438531 0.410272
v -4.455941 1.438771 0.410907
v -4.458868 1.441504 0.412780
v -4.456090 1.440029 0.409610
v -4.456106 1.441612 0.410331
v -4.455499 1.439905 0.410407
v -4.457764 1.439388 0.413083
v -4.456710 1.442088 0.411891
v -4.457448 1.441098 0.413116
v -4.455499 1.439905 0.410407
v -4.451016 1.437737 0.413038
v -4.455968 1.441463 0.412133
v -4.450556 1.440232 0.413085
v -4.456766 1.439419 0.413035
v -4.451643 1.439815 0.415340
v -4.455941 1.438771 0.410907
v -4.451016 1.437737 0.413038
v -4.455941 1.438771 0.410907
v -4.451620 1.437505 0.414289
v -4.455511 1.441103 0.410952
v -4.455499 1.439905 0.410407
v -4.450543 1.438950 0.412502
v -4.450556 1.440232 0.413085
v -4.455511 1.441103 0.410952
v -4.450543 1.438950 0.412502
v -4.456526 1.440714 0.413060
v -4.455968 1.441463 0.412133
v -4.451045 1.440616 0.414349
v -4.451643 1.439815 0.415340
v -4.456526 1.440714 0.413060
v -4.451045 1.440616 0.414349
v -4.456505 1.438555 0.412077
v -4.456766 1.439419 0.413035
v -4.451898 1.438430 0.415314
v -4.451620 1.437505 0.414289
v -4.456505 1.438555 0.412077
v -4.451898 1.438430 0.415314
v -4.460761 1.441410 0.410895
v -4.459364 1.442482 0.410685
v -4.460287 1.439835 0.409151
v -4.460031 1.438869 0.410616
v -4.459937 1.441726 0.409187
v -4.458781 1.440547 0.408541
v -4.460743 1.439660 0.410099
v -4.460031 1.438869 0.410616
v -4.460743 1.439660 0.410099
v -4.460354 1.439943 0.411806
v -4.459928 1.440754 0.408745
v -4.460287 1.439835 0.409151
v -4.459331 1.439138 0.409163
v -4.458781 1.440547 0.408541
v -4.459928 1.440754 0.408745
v -4.459331 1.439138 0.409163
v -4.460308 1.442017 0.410144
v -4.459937 1.441726 0.409187
v -4.458796 1.442035 0.409218
v -4.459364 1.442482 0.410685
v -4.460308 1.442017 0.410144
v -4.458796 1.442035 0.409218
v -4.456505 1.438555 0.412077
v -4.455941 1.438771 0.410907
v -4.456675 1.438531 0.410272
v -4.456505 1.438555 0.412077
v -4.455499 1.439905 0.410407
v -4.455511 1.441103 0.410952
v -4.456106 1.441612 0.410331
v -4.455499 1.439905 0.410407
v -4.455968 1.441463 0.412133
v -4.456526 1.440714 0.413060
v -4.457448 1.441098 0.413116
v -4.455968 1.441463 0.412133
v -4.457419 1.438245 0.411817
v -4.456766 1.439419 0.413035
v -4.456505 1.438555 0.412077
v -4.457419 1.438245 0.411817
v -4.456766 1.439419 0.413035
v -4.456090 1.440029 0.409610
v -4.456675 1.438531 0.410272
v -4.455941 1.438771 0.410907
v -4.455499 1.439905 0.410407
v -4.456090 1.440029 0.409610
v -4.455941 1.438771 0.410907
v -4.456710 1.442088 0.411891
v -4.456106 1.441612 0.410331
v -4.455511 1.441103 0.410952
v -4.455968 1.441463 0.412133
v -4.456710 1.442088 0.411891
v -4.455511 1.441103 0.410952
v -4.457764 1.439388 0.413083
v -4.457448 1.441098 0.413116
v -4.456526 1.440714 0.413060
v -4.456766 1.439419 0.413035
v -4.457764 1.439388 0.413083
v -4.456526 1.440714 0.413060
v -4.457448 1.441098 0.413116
v -4.457764 1.439388 0.413083
v -4.459232 1.439528 0.412743
v -4.457448 1.441098 0.413116
v -4.460354 1.439943 0.411806
v -4.460057 1.441551 0.411836
v -4.458868 1.441504 0.412780
v -4.459232 1.439528 0.412743
v -4.460354 1.439943 0.411806
v -4.458868 1.441504 0.412780
v -4.458868 1.441504 0.412780
v -4.456710 1.442088 0.411891
v -4.457448 1.441098 0.413116
v -4.458868 1.441504 0.412780
v -4.456710 1.442088 0.411891
v -4.460057 1.441551 0.411836
v -4.459364 1.442482 0.410685
v -4.458015 1.442647 0.411365
v -4.458868 1.441504 0.412780
v -4.460057 1.441551 0.411836
v -4.458015 1.442647 0.411365
v -4.458015 1.442647 0.411365
v -4.456106 1.441612 0.410331
v -4.456710 1.442088 0.411891
v -4.458015 1.442647 0.411365
v -4.456106 1.441612 0.410331
v -4.459364 1.442482 0.410685
v -4.458796 1.442035 0.409218
v -4.457317 1.442098 0.409563
v -4.458015 1.442647 0.411365
v -4.459364 1.442482 0.410685
v -4.457317 1.442098 0.409563
v -4.457317 1.442098 0.409563
v -4.456090 1.440029 0.409610
v -4.456106 1.441612 0.410331
v -4.457317 1.442098 0.409563
v -4.456090 1.440029 0.409610
v -4.458796 1.442035 0.409218
v -4.458781 1.440547 0.408541
v -4.457299 1.440269 0.408731
v -4.457317 1.442098 0.409563
v -4.458796 1.442035 0.409218
v -4.457299 1.440269 0.408731
v -4.457299 1.440269 0.408731
v -4.456675 1.438531 0.410272
v -4.456090 1.440029 0.409610
v -4.457299 1.440269 0.408731
v -4.456675 1.438531 0.410272
v -4.458781 1.440547 0.408541
v -4.459331 1.439138 0.409163
v -4.457974 1.438538 0.409495
v -4.457299 1.440269 0.408731
v -4.458781 1.440547 0.408541
v -4.457974 1.438538 0.409495
v -4.457974 1.438538 0.409495
v -4.457419 1.438245 0.411817
v -4.456675 1.438531 0.410272
v -4.457974 1.438538 0.409495
v -4.457419 1.438245 0.411817
v -4.459331 1.439138 0.409163
v -4.460031 1.438869 0.410616
v -4.458835 1.438208 0.411281
v -4.457974 1.438538 0.409495
v -4.459331 1.439138 0.409163
v -4.458835 1.438208 0.411281
v -4.458835 1.438208 0.411281
v -4.459232 1.439528 0.412743
v -4.457764 1.439388 0.413083
v -4.457419 1.438245 0.411817
v -4.458835 1.438208 0.411281
v -4.457764 1.439388 0.413083
v -4.460031 1.438869 0.410616
v -4.460354 1.439943 0.411806
v -4.459232 1.439528 0.412743
v -4.458835 1.438208 0.411281
v -4.460031 1.438869 0.410616
v -4.459232 1.439528 0.412743
v -4.460954 1.440361 0.410875
v -4.460761 1.441410 0.410895
v -4.460057 1.441551 0.411836
v -4.460354 1.439943 0.411806
v -4.460954 1.440361 0.410875
v -4.460057 1.441551 0.411836
v -4.460308 1.442017 0.410144
v -4.460761 1.441410 0.410895
v -4.459937 1.441726 0.409187
v -4.460954 1.440361 0.410875
v -4.459937 1.441726 0.409187
v -4.460761 1.441410 0.410895
v -4.459928 1.440754 0.408745
v -4.459937 1.441726 0.409187
v -4.460954 1.440361 0.410875
v -4.460743 1.439660 0.410099
v -4.459928 1.440754 0.408745
v -4.460954 1.440361 0.410875
v -4.460287 1.439835 0.409151
v -4.459928 1.440754 0.408745
v -4.460743 1.439660 0.410099
v -4.451045 1.440616 0.414349
v -4.450556 1.440232 0.413085
v -4.451643 1.439815 0.415340
v -4.451898 1.438430 0.415314
v -4.451643 1.439815 0.415340
v -4.450556 1.440232 0.413085
v -4.450543 1.438950 0.412502
v -4.451898 1.438430 0.415314
v -4.450556 1.440232 0.413085
v -4.451620 1.437505 0.414289
v -4.451898 1.438430 0.415314
v -4.450543 1.438950 0.412502
v -4.451016 1.437737 0.413038
v -4.451620 1.437505 0.414289
v -4.450543 1.438950 0.412502
vn 0.8993 -0.1737 0.4013
vn -0.8924 -0.3900 -0.2268
vn -0.5184 0.1120 -0.8478
vn -0.6829 -0.3097 -0.6616
vn -0.9892 -0.0686 0.1293
vn -0.5184 0.1119 -0.8478
vn -0.8925 -0.3900 -0.2268
vn -0.9892 -0.0687 0.1293
vn -0.5228 0.5573 -0.6451
vn -0.9004 0.4125 0.1385
vn -0.5228 0.5572 -0.6451
vn -0.5228 0.5573 -0.6450
vn -0.9004 0.4124 0.1385
vn -0.6928 0.6910 -0.2061
vn -0.6223 0.5064 0.5969
vn -0.7662 -0.2724 0.5820
vn -0.9004 0.4125 0.1384
vn -0.4708 -0.3693 0.8012
vn -0.6095 -0.7928 0.0056
vn -0.2994 -0.9388 0.1702
vn -0.4709 -0.3693 0.8012
vn -0.7661 -0.2725 0.5820
vn -0.1081 -0.4127 0.9044
vn -0.2993 -0.9388 0.1702
vn 0.0534 -0.9492 0.3100
vn -0.2703 -0.6627 -0.6984
vn 0.0719 -0.7965 -0.6004
vn -0.6094 -0.7928 0.0056
vn 0.0535 -0.9492 0.3100
vn 0.4032 -0.8151 -0.4159
vn 0.0720 -0.7965 -0.6004
vn -0.0039 0.0198 -0.9998
vn 0.3635 -0.0494 -0.9303
vn -0.2702 -0.6627 -0.6984
vn -0.0040 0.0198 -0.9998
vn 0.4033 -0.8151 -0.4159
vn 0.6778 -0.1113 -0.7267
vn 0.3635 -0.0493 -0.9303
vn -0.0110 0.7408 -0.6717
vn 0.3557 0.7398 -0.5711
vn -0.0111 0.7408 -0.6717
vn 0.6779 -0.1113 -0.7267
vn 0.6705 0.6321 -0.3884
vn 0.3557 0.7398 -0.5712
vn -0.2863 0.9574 0.0389
vn 0.0544 0.9769 0.2067
vn -0.0110 0.7408 -0.6716
vn 0.6705 0.6321 -0.3883
vn 0.3867 0.8555 0.3444
vn 0.0544 0.9769 0.2068
vn -0.3134 0.4833 0.8175
vn -0.2863 0.9574 0.0390
vn -0.6223 0.5064 0.5968
vn 0.3867 0.8555 0.3445
vn 0.0402 0.3905 0.9197
vn -0.3134 0.4832 0.8175
vn -0.7661 -0.2725 0.5821
vn -0.3135 0.4833 0.8174
vn -0.1082 -0.4127 0.9044
vn -0.3134 0.4833 0.8174
vn -0.0350 0.4151 0.9091
vn -0.1871 -0.4085 0.8934
vn 0.6113 0.6630 -0.4322
vn 0.3203 0.8919 0.3192
vn 0.6113 0.6629 -0.4322
vn 0.3372 -0.8211 -0.4605
vn 0.6189 -0.0994 -0.7792
vn 0.3373 -0.8211 -0.4605
vn -0.0214 -0.9586 0.2839
vn 0.3203 0.8919 0.3191
vn 0.6188 -0.0994 -0.7792
vn -0.0214 -0.9586 0.2838
vn -0.6928 0.6910 -0.2062
vn -0.5229 0.5572 -0.6451
vn -0.5185 0.1119 -0.8478
vn -0.2863 0.9573 0.0389
vn -0.2863 0.9573 0.0390
vn -0.4545 -0.3727 0.8090
vn -0.0215 -0.9586 0.2839
vn -0.2829 -0.9425 0.1777
vn 0.0711 0.9742 0.2143
vn -0.2969 0.4803 0.8253
vn 0.0710 0.9742 0.2143
vn 0.3803 -0.0526 -0.9234
vn 0.3725 0.7370 -0.5640
vn -0.2829 -0.9426 0.1777
vn 0.0886 -0.8001 -0.5932
vn -0.2970 0.4803 0.8253
vn 0.0886 -0.8001 -0.5933
vn 0.6188 -0.0995 -0.7792
vt 0.543243 0.635056
vt 0.535370 0.641335
vt 0.537796 0.636299
vt 0.537796 0.646370
vt 0.547607 0.638535
vt 0.543243 0.647614
vt 0.547607 0.644127
vt 0.593674 0.671494
vt 0.598511 0.669548
vt 0.596146 0.672157
vt 0.592773 0.669609
vt 0.596436 0.666756
vt 0.592804 0.667854
vt 0.594147 0.666748
vt 0.591187 0.666855
vt 0.590591 0.669838
vt 0.587372 0.669685
vt 0.591782 0.673050
vt 0.588348 0.674789
vt 0.582382 0.669067
vt 0.582687 0.676537
vt 0.595596 0.675606
vt 0.592606 0.680244
vt 0.586334 0.684982
vt 0.603775 0.674767
vt 0.603561 0.686485
vt 0.594009 0.696274
vt 0.603775 0.658051
vt 0.597107 0.663902
vt 0.596405 0.659698
vt 0.602859 0.665543
vt 0.600342 0.651657
vt 0.594193 0.655174
vt 0.593353 0.664742
vt 0.591705 0.661980
vt 0.588959 0.658463
vt 0.588654 0.665283
vt 0.584778 0.662933
vt 0.580322 0.660286
vt 0.576584 0.668175
vt 0.591812 0.651588
vt 0.585907 0.654999
vt 0.579453 0.688484
vt 0.584915 0.699394
vt 0.576157 0.678001
vt 0.597061 0.648293
vt 0.627350 0.682632
vt 0.649124 0.687675
vt 0.627441 0.688225
vt 0.649033 0.682457
vt 0.627441 0.671455
vt 0.649033 0.677231
vt 0.627350 0.677048
vt 0.649124 0.672005
vt 0.627914 0.660294
vt 0.649292 0.666786
vt 0.627625 0.665871
vt 0.649551 0.661568
vt 0.649292 0.692902
vt 0.627625 0.693810
vt 0.649551 0.698120
vt 0.627914 0.699394
s 0
usemtl decorations
f 240/1/1 239/2/1 238/3/1
f 237/1/1 236/4/1 235/2/1
f 234/5/1 233/4/1 232/1/1
f 231/5/1 230/6/1 229/4/1
f 228/6/1 227/5/1 226/7/1
s 1
f 225/8/2 224/9/3 223/10/4
f 222/11/5 221/9/6 220/8/7
f 219/11/8 218/12/9 217/9/3
f 216/13/10 215/12/11 214/11/8
f 213/12/12 212/13/13 211/14/14
f 210/15/15 209/11/5 208/16/16
f 207/15/15 206/13/17 205/11/5
f 204/17/18 203/18/19 202/19/20
f 201/17/21 200/16/22 199/18/19
f 198/20/23 197/19/24 196/21/25
f 195/20/23 194/17/21 193/19/20
f 192/19/20 191/22/26 190/23/27
f 189/19/20 188/18/28 187/22/26
f 186/21/29 185/23/27 184/24/30
f 183/21/29 3/19/20 182/23/27
f 181/23/31 180/25/32 179/26/33
f 178/23/27 177/22/34 176/25/35
f 175/24/36 174/26/33 173/27/37
f 172/24/36 4/23/31 171/26/33
f 170/28/38 169/29/39 168/30/40
f 167/28/38 166/31/32 165/29/41
f 164/32/42 163/30/40 162/33/43
f 161/32/42 13/28/33 160/30/44
f 159/30/40 158/34/45 157/35/46
f 156/30/40 155/29/47 154/34/45
f 153/33/48 152/35/46 151/36/49
f 150/33/48 14/30/40 149/35/46
f 148/35/50 147/15/15 146/37/51
f 145/35/50 144/34/52 143/15/53
f 142/36/54 141/37/51 140/38/55
f 139/36/54 16/35/50 138/37/51
f 137/37/56 136/16/57 135/17/21
f 134/37/58 133/15/15 132/16/16
f 131/38/55 130/17/18 129/20/59
f 128/38/55 36/37/60 25/17/18
f 127/39/61 126/20/23 125/40/62
f 124/39/61 123/38/55 122/20/23
f 121/41/63 120/36/49 119/42/64
f 118/41/65 117/33/48 116/36/49
f 115/43/66 114/27/37 113/44/67
f 112/43/68 111/24/30 110/27/37
f 109/40/62 108/21/25 107/45/69
f 106/40/62 40/20/23 105/21/25
f 104/42/70 103/38/55 102/39/61
f 101/42/70 41/36/49 42/38/55
f 100/46/71 99/33/43 98/41/65
f 97/46/71 37/32/42 38/33/43
f 96/45/72 95/24/30 94/43/68
f 93/45/69 33/21/25 34/24/30
f 92/29/47 91/14/73 90/34/45
f 89/29/47 88/12/74 87/14/14
f 86/22/26 85/9/6 84/25/35
f 83/22/26 82/10/4 81/9/6
f 80/16/22 79/8/2 78/18/19
f 29/16/22 30/11/5 77/8/7
f 76/31/35 75/12/9 28/29/41
f 31/31/32 26/9/75 27/12/74
f 74/18/28 73/10/4 24/22/26
f 21/18/28 22/8/7 23/10/4
f 72/34/76 71/13/10 20/15/15
f 17/34/77 18/14/14 19/13/17
f 70/47/78 69/48/79 68/49/80
f 67/47/78 66/50/62 65/48/69
f 64/51/81 63/52/61 62/53/82
f 61/51/83 60/54/64 59/52/61
f 58/55/84 57/56/63 56/57/85
f 55/55/84 54/58/67 53/56/65
f 52/49/86 51/59/66 50/60/87
f 2/49/86 32/48/69 49/59/66
f 48/53/82 47/50/62 12/47/78
f 9/53/88 10/52/61 11/50/62
f 46/57/85 45/54/64 8/51/81
f 5/57/85 6/56/63 7/54/64
f 44/60/89 43/61/71 15/62/84
f 1/60/89 35/59/68 39/61/90
