# Blender 5.0.0
# www.blender.org
mtllib Circle_005_Circle_004_Dupli_60_decorations_0.mtl
o Circle.005|Circle.004|Dupli|60_decorations_0
v -4.628479 1.644472 0.485704
v -4.628734 1.644650 0.487077
v -4.628807 1.652466 0.486364
v -4.628443 1.652213 0.484404
v -4.625951 1.644269 0.485620
v -4.625616 1.649695 0.485068
v -4.625270 1.649814 0.486332
v -4.625582 1.644396 0.486973
v -4.626410 1.644588 0.488096
v -4.626045 1.649994 0.487382
v -4.627357 1.650099 0.487425
v -4.627813 1.644701 0.488142
v -4.626676 1.651971 0.483479
v -4.624836 1.651923 0.484285
v -4.627241 1.644303 0.485055
v -4.624309 1.652104 0.486216
v -4.624621 1.653571 0.485969
v -4.625188 1.654582 0.485733
v -4.625816 1.654727 0.486583
v -4.625583 1.653794 0.487271
v -4.628281 1.653865 0.486090
v -4.627576 1.654774 0.485812
v -4.627383 1.654640 0.484771
v -4.627985 1.653659 0.484495
v -4.627493 1.652539 0.487883
v -4.626445 1.654511 0.484280
v -4.625468 1.654486 0.484708
v -4.625050 1.653423 0.484398
v -4.627212 1.653925 0.487325
v -4.626879 1.654813 0.486618
v -4.626547 1.653463 0.483742
v -4.628218 1.650051 0.486430
v -4.628620 1.650966 0.486454
v -4.628305 1.650747 0.484758
v -4.627979 1.649885 0.485146
v -4.625491 1.652378 0.487817
v -4.626775 1.650538 0.483957
v -4.625183 1.650496 0.484654
v -4.626822 1.649727 0.484539
v -4.627483 1.651029 0.487768
v -4.624727 1.650653 0.486325
v -4.625750 1.650890 0.487711
v -4.626822 1.649727 0.484539
v -4.628479 1.644472 0.485704
v -4.625270 1.649814 0.486332
v -4.625951 1.644269 0.485620
v -4.627357 1.650099 0.487425
v -4.626410 1.644588 0.488096
v -4.627979 1.649885 0.485146
v -4.628479 1.644472 0.485704
v -4.627979 1.649885 0.485146
v -4.628734 1.644650 0.487077
v -4.625616 1.649695 0.485068
v -4.626822 1.649727 0.484539
v -4.627241 1.644303 0.485055
v -4.625951 1.644269 0.485620
v -4.625616 1.649695 0.485068
v -4.627241 1.644303 0.485055
v -4.626045 1.649994 0.487382
v -4.625270 1.649814 0.486332
v -4.625582 1.644396 0.486973
v -4.626410 1.644588 0.488096
v -4.626045 1.649994 0.487382
v -4.625582 1.644396 0.486973
v -4.628218 1.650051 0.486430
v -4.627357 1.650099 0.487425
v -4.627813 1.644701 0.488142
v -4.628734 1.644650 0.487077
v -4.628218 1.650051 0.486430
v -4.627813 1.644701 0.488142
v -4.625816 1.654727 0.486583
v -4.624621 1.653571 0.485969
v -4.627383 1.654640 0.484771
v -4.628281 1.653865 0.486090
v -4.625468 1.654486 0.484708
v -4.626547 1.653463 0.483742
v -4.627576 1.654774 0.485812
v -4.628281 1.653865 0.486090
v -4.627576 1.654774 0.485812
v -4.627212 1.653925 0.487325
v -4.626445 1.654511 0.484280
v -4.627383 1.654640 0.484771
v -4.627985 1.653659 0.484495
v -4.626547 1.653463 0.483742
v -4.626445 1.654511 0.484280
v -4.627985 1.653659 0.484495
v -4.625188 1.654582 0.485733
v -4.625468 1.654486 0.484708
v -4.625050 1.653423 0.484398
v -4.624621 1.653571 0.485969
v -4.625188 1.654582 0.485733
v -4.625050 1.653423 0.484398
v -4.628218 1.650051 0.486430
v -4.627979 1.649885 0.485146
v -4.628305 1.650747 0.484758
v -4.628218 1.650051 0.486430
v -4.626822 1.649727 0.484539
v -4.625616 1.649695 0.485068
v -4.625183 1.650496 0.484654
v -4.626822 1.649727 0.484539
v -4.625270 1.649814 0.486332
v -4.626045 1.649994 0.487382
v -4.625750 1.650890 0.487711
v -4.625270 1.649814 0.486332
v -4.628620 1.650966 0.486454
v -4.627357 1.650099 0.487425
v -4.628218 1.650051 0.486430
v -4.628620 1.650966 0.486454
v -4.627357 1.650099 0.487425
v -4.626775 1.650538 0.483957
v -4.628305 1.650747 0.484758
v -4.627979 1.649885 0.485146
v -4.626822 1.649727 0.484539
v -4.626775 1.650538 0.483957
v -4.627979 1.649885 0.485146
v -4.624727 1.650653 0.486325
v -4.625183 1.650496 0.484654
v -4.625616 1.649695 0.485068
v -4.625270 1.649814 0.486332
v -4.624727 1.650653 0.486325
v -4.625616 1.649695 0.485068
v -4.627483 1.651029 0.487768
v -4.625750 1.650890 0.487711
v -4.626045 1.649994 0.487382
v -4.627357 1.650099 0.487425
v -4.627483 1.651029 0.487768
v -4.626045 1.649994 0.487382
v -4.625750 1.650890 0.487711
v -4.627483 1.651029 0.487768
v -4.627493 1.652539 0.487883
v -4.625750 1.650890 0.487711
v -4.627212 1.653925 0.487325
v -4.625583 1.653794 0.487271
v -4.625491 1.652378 0.487817
v -4.627493 1.652539 0.487883
v -4.627212 1.653925 0.487325
v -4.625491 1.652378 0.487817
v -4.625491 1.652378 0.487817
v -4.624727 1.650653 0.486325
v -4.625750 1.650890 0.487711
v -4.625491 1.652378 0.487817
v -4.624727 1.650653 0.486325
v -4.625583 1.653794 0.487271
v -4.624621 1.653571 0.485969
v -4.624309 1.652104 0.486216
v -4.625491 1.652378 0.487817
v -4.625583 1.653794 0.487271
v -4.624309 1.652104 0.486216
v -4.624309 1.652104 0.486216
v -4.625183 1.650496 0.484654
v -4.624727 1.650653 0.486325
v -4.624309 1.652104 0.486216
v -4.625183 1.650496 0.484654
v -4.624621 1.653571 0.485969
v -4.625050 1.653423 0.484398
v -4.624836 1.651923 0.484285
v -4.624309 1.652104 0.486216
v -4.624621 1.653571 0.485969
v -4.624836 1.651923 0.484285
v -4.624836 1.651923 0.484285
v -4.626775 1.650538 0.483957
v -4.625183 1.650496 0.484654
v -4.624836 1.651923 0.484285
v -4.626775 1.650538 0.483957
v -4.625050 1.653423 0.484398
v -4.626547 1.653463 0.483742
v -4.626676 1.651971 0.483479
v -4.624836 1.651923 0.484285
v -4.625050 1.653423 0.484398
v -4.626676 1.651971 0.483479
v -4.626676 1.651971 0.483479
v -4.628305 1.650747 0.484758
v -4.626775 1.650538 0.483957
v -4.626676 1.651971 0.483479
v -4.628305 1.650747 0.484758
v -4.626547 1.653463 0.483742
v -4.627985 1.653659 0.484495
v -4.628443 1.652213 0.484404
v -4.626676 1.651971 0.483479
v -4.626547 1.653463 0.483742
v -4.628443 1.652213 0.484404
v -4.628443 1.652213 0.484404
v -4.628620 1.650966 0.486454
v -4.628305 1.650747 0.484758
v -4.628443 1.652213 0.484404
v -4.628620 1.650966 0.486454
v -4.627985 1.653659 0.484495
v -4.628281 1.653865 0.486090
v -4.628807 1.652466 0.486364
v -4.628443 1.652213 0.484404
v -4.627985 1.653659 0.484495
v -4.628807 1.652466 0.486364
v -4.628807 1.652466 0.486364
v -4.627493 1.652539 0.487883
v -4.627483 1.651029 0.487768
v -4.628620 1.650966 0.486454
v -4.628807 1.652466 0.486364
v -4.627483 1.651029 0.487768
v -4.628281 1.653865 0.486090
v -4.627212 1.653925 0.487325
v -4.627493 1.652539 0.487883
v -4.628807 1.652466 0.486364
v -4.628281 1.653865 0.486090
v -4.627493 1.652539 0.487883
v -4.626879 1.654813 0.486618
v -4.625816 1.654727 0.486583
v -4.625583 1.653794 0.487271
v -4.627212 1.653925 0.487325
v -4.626879 1.654813 0.486618
v -4.625583 1.653794 0.487271
v -4.625188 1.654582 0.485733
v -4.625816 1.654727 0.486583
v -4.625468 1.654486 0.484708
v -4.626879 1.654813 0.486618
v -4.625468 1.654486 0.484708
v -4.625816 1.654727 0.486583
v -4.626445 1.654511 0.484280
v -4.625468 1.654486 0.484708
v -4.626879 1.654813 0.486618
v -4.627576 1.654774 0.485812
v -4.626445 1.654511 0.484280
v -4.626879 1.654813 0.486618
v -4.627383 1.654640 0.484771
v -4.626445 1.654511 0.484280
v -4.627576 1.654774 0.485812
v -4.625582 1.644396 0.486973
v -4.625951 1.644269 0.485620
v -4.626410 1.644588 0.488096
v -4.627813 1.644701 0.488142
v -4.626410 1.644588 0.488096
v -4.625951 1.644269 0.485620
v -4.627241 1.644303 0.485055
v -4.627813 1.644701 0.488142
v -4.625951 1.644269 0.485620
v -4.628734 1.644650 0.487077
v -4.627813 1.644701 0.488142
v -4.627241 1.644303 0.485055
v -4.628479 1.644472 0.485704
v -4.628734 1.644650 0.487077
v -4.627241 1.644303 0.485055
vn -0.0759 -0.9906 0.1136
vn -0.4797 0.8761 0.0488
vn 0.0393 0.7557 -0.6538
vn -0.3912 0.8145 -0.4284
vn -0.1598 0.8940 0.4187
vn 0.0392 0.7557 -0.6538
vn -0.4797 0.8761 0.0489
vn -0.1599 0.8940 0.4187
vn 0.4873 0.7438 -0.4574
vn 0.3276 0.8547 0.4026
vn 0.4873 0.7438 -0.4575
vn 0.6156 0.7879 0.0127
vn 0.4599 0.4636 0.7573
vn -0.3293 0.5271 0.7834
vn 0.4599 0.4636 0.7574
vn 0.3276 0.8548 0.4025
vn -0.3915 0.1718 0.9040
vn -0.8472 0.4981 0.1847
vn -0.9584 0.1402 0.2486
vn -0.3915 0.1719 0.9040
vn -0.8472 0.4982 0.1847
vn -0.3971 -0.2076 0.8940
vn -0.9312 -0.2374 0.2765
vn -0.7038 0.3986 -0.5880
vn -0.8015 0.0311 -0.5972
vn -0.8472 0.4981 0.1846
vn -0.7038 0.3985 -0.5880
vn -0.9312 -0.2375 0.2765
vn -0.8015 0.0312 -0.5972
vn -0.7834 -0.3401 -0.5202
vn -0.0071 0.3032 -0.9529
vn -0.0388 -0.0732 -0.9966
vn -0.7038 0.3985 -0.5881
vn -0.0071 0.3033 -0.9529
vn -0.7833 -0.3402 -0.5202
vn -0.0649 -0.4384 -0.8964
vn 0.7183 0.2841 -0.6351
vn 0.7552 -0.0941 -0.6487
vn -0.0648 -0.4384 -0.8964
vn 0.7552 -0.0942 -0.6487
vn 0.6831 -0.4581 -0.5687
vn 0.9261 0.3555 0.1260
vn 0.9827 -0.0160 0.1844
vn 0.6831 -0.4582 -0.5687
vn 0.8974 -0.3845 0.2161
vn 0.9827 -0.0160 0.1845
vn 0.4724 0.1024 0.8754
vn 0.9262 0.3555 0.1261
vn 0.4599 0.4637 0.7573
vn 0.8974 -0.3846 0.2162
vn 0.4167 -0.2730 0.8671
vn 0.4723 0.1024 0.8755
vn -0.3293 0.5272 0.7834
vn 0.4167 -0.2731 0.8671
vn -0.3972 -0.2075 0.8940
vn 0.4337 -0.1960 0.8795
vn -0.3971 -0.2075 0.8940
vn -0.4008 -0.1289 0.9070
vn 0.7069 -0.3858 -0.5928
vn 0.8974 -0.3846 0.2161
vn 0.9267 -0.3104 0.2120
vn -0.7968 -0.2648 -0.5431
vn -0.0601 -0.3656 -0.9288
vn -0.7968 -0.2649 -0.5431
vn -0.7833 -0.3402 -0.5203
vn -0.4008 -0.1288 0.9071
vn -0.9312 -0.2374 0.2766
vn -0.9484 -0.1596 0.2740
vn -0.4008 -0.1289 0.9071
vn 0.9267 -0.3103 0.2120
vn 0.6831 -0.4582 -0.5688
vn 0.7069 -0.3859 -0.5928
vn -0.9484 -0.1595 0.2739
vn -0.9484 -0.1595 0.2740
vn 0.7183 0.2841 -0.6350
vn 0.7184 0.2841 -0.6350
vn 0.4872 0.7439 -0.4575
vn 0.0392 0.7557 -0.6537
vn -0.3294 0.5271 0.7834
vn 0.4873 0.7439 -0.4574
vn 0.9261 0.3555 0.1261
vn -0.3931 0.1536 0.9066
vn -0.9603 0.1219 0.2508
vn -0.3931 0.1537 0.9065
vn 0.9818 -0.0343 0.1867
vn 0.4712 0.0841 0.8780
vn -0.0402 -0.0915 -0.9950
vn 0.7542 -0.1125 -0.6470
vn -0.8033 0.0128 -0.5954
vn -0.3931 0.1537 0.9066
vn 0.4712 0.0842 0.8780
vn 0.7542 -0.1125 -0.6469
vt 0.530319 0.635056
vt 0.522446 0.641335
vt 0.524872 0.636299
vt 0.524872 0.646370
vt 0.534683 0.638535
vt 0.530319 0.647614
vt 0.534683 0.644127
vt 0.508789 0.671494
vt 0.513626 0.669548
vt 0.511276 0.672157
vt 0.507889 0.669609
vt 0.511566 0.666756
vt 0.507935 0.667854
vt 0.509277 0.666748
vt 0.506302 0.666855
vt 0.505722 0.669838
vt 0.502487 0.669685
vt 0.506897 0.673050
vt 0.503479 0.674789
vt 0.497520 0.669067
vt 0.497810 0.676537
vt 0.510727 0.675606
vt 0.507721 0.680244
vt 0.501465 0.684982
vt 0.518890 0.674767
vt 0.518692 0.686485
vt 0.509125 0.696274
vt 0.518890 0.658051
vt 0.512238 0.663902
vt 0.511536 0.659698
vt 0.517990 0.665543
vt 0.515472 0.651657
vt 0.509323 0.655174
vt 0.508469 0.664742
vt 0.506836 0.661980
vt 0.504074 0.658463
vt 0.503784 0.665283
vt 0.499901 0.662933
vt 0.495453 0.660286
vt 0.491707 0.668175
vt 0.506927 0.651588
vt 0.501038 0.654999
vt 0.494583 0.688484
vt 0.500031 0.699394
vt 0.491287 0.678001
vt 0.512177 0.648293
vt 0.627350 0.642853
vt 0.649124 0.647896
vt 0.627441 0.648445
vt 0.649033 0.642670
vt 0.627441 0.631676
vt 0.649033 0.637444
vt 0.627350 0.637268
vt 0.649124 0.632225
vt 0.627914 0.620506
vt 0.649292 0.626999
vt 0.627625 0.626091
vt 0.649551 0.621780
vt 0.649292 0.653114
vt 0.627625 0.654030
vt 0.649551 0.658333
vt 0.627914 0.659607
s 0
usemtl decorations
f 240/1/1 239/2/1 238/3/1
f 237/1/1 236/4/1 235/2/1
f 234/5/1 233/4/1 232/1/1
f 231/5/1 230/6/1 229/4/1
f 228/6/1 227/5/1 226/7/1
s 1
f 225/8/2 224/9/3 223/10/4
f 222/11/5 221/9/6 220/8/7
f 219/11/8 218/12/9 217/9/3
f 216/13/10 215/12/11 214/11/8
f 213/12/9 212/13/10 211/14/12
f 210/15/13 209/11/5 208/16/14
f 207/15/15 206/13/16 205/11/5
f 204/17/17 203/18/18 202/19/19
f 201/17/20 200/16/14 199/18/21
f 198/20/22 197/19/19 196/21/23
f 195/20/22 194/17/20 193/19/19
f 192/19/19 191/22/24 190/23/25
f 189/19/19 188/18/26 187/22/27
f 186/21/28 185/23/29 184/24/30
f 183/21/28 3/19/19 182/23/29
f 181/23/25 180/25/31 179/26/32
f 178/23/25 177/22/33 176/25/34
f 175/24/35 174/26/32 173/27/36
f 172/24/35 4/23/25 171/26/32
f 170/28/32 169/29/37 168/30/38
f 167/28/32 166/31/31 165/29/37
f 164/32/39 163/30/40 162/33/41
f 161/32/39 13/28/32 160/30/38
f 159/30/38 158/34/42 157/35/43
f 156/30/38 155/29/37 154/34/42
f 153/33/44 152/35/43 151/36/45
f 150/33/44 14/30/38 149/35/43
f 148/35/46 147/15/13 146/37/47
f 145/35/46 144/34/48 143/15/49
f 142/36/50 141/37/47 140/38/51
f 139/36/50 16/35/46 138/37/47
f 137/37/52 136/16/14 135/17/20
f 134/37/47 133/15/13 132/16/53
f 131/38/54 130/17/20 129/20/55
f 128/38/54 36/37/47 25/17/20
f 127/39/56 126/20/57 125/40/58
f 124/39/56 123/38/51 122/20/57
f 121/41/59 120/36/60 119/42/61
f 118/41/59 117/33/44 116/36/60
f 115/43/62 114/27/36 113/44/63
f 112/43/64 111/24/65 110/27/36
f 109/40/66 108/21/67 107/45/68
f 106/40/69 40/20/22 105/21/67
f 104/42/70 103/38/51 102/39/56
f 101/42/61 41/36/60 42/38/51
f 100/46/63 99/33/71 98/41/72
f 97/46/63 37/32/39 38/33/71
f 96/45/73 95/24/35 94/43/64
f 93/45/74 33/21/23 34/24/35
f 92/29/75 91/14/12 90/34/42
f 89/29/76 88/12/77 87/14/12
f 86/22/33 85/9/6 84/25/34
f 83/22/33 82/10/4 81/9/78
f 80/16/14 79/8/2 78/18/21
f 29/16/79 30/11/5 77/8/2
f 76/31/34 75/12/80 28/29/37
f 31/31/34 26/9/78 27/12/77
f 74/18/26 73/10/4 24/22/33
f 21/18/26 22/8/2 23/10/4
f 72/34/42 71/13/10 20/15/13
f 17/34/81 18/14/12 19/13/16
f 70/47/82 69/48/74 68/49/83
f 67/47/84 66/50/69 65/48/74
f 64/51/85 63/52/56 62/53/86
f 61/51/85 60/54/61 59/52/56
f 58/55/87 57/56/59 56/57/88
f 55/55/87 54/58/63 53/56/72
f 52/49/83 51/59/62 50/60/89
f 2/49/83 32/48/74 49/59/64
f 48/53/86 47/50/58 12/47/90
f 9/53/91 10/52/56 11/50/58
f 46/57/92 45/54/61 8/51/85
f 5/57/88 6/56/59 7/54/61
f 44/60/89 43/61/63 15/62/87
f 1/60/89 35/59/64 39/61/63
