# Blender 5.0.0
# www.blender.org
mtllib Circle_002_Circle_Dupli_151_decorations_0.mtl
o Circle.002|Circle|Dupli|151_decorations_0
v -4.232447 0.796586 0.755041
v -4.233680 0.795906 0.755016
v -4.237732 0.802628 0.754964
v -4.235973 0.803599 0.754999
v -4.231902 0.796679 0.757517
v -4.234615 0.801411 0.757852
v -4.235641 0.800797 0.758402
v -4.233000 0.796022 0.758105
v -4.234124 0.795453 0.757474
v -4.236691 0.800265 0.757811
v -4.236974 0.800217 0.756527
v -4.234426 0.795402 0.756099
v -4.234844 0.804090 0.756587
v -4.235196 0.803731 0.758533
v -4.231656 0.796930 0.756154
v -4.236762 0.802793 0.759371
v -4.237475 0.804096 0.759048
v -4.237964 0.805003 0.758468
v -4.238815 0.804573 0.757990
v -4.238779 0.803436 0.758315
v -4.238264 0.803962 0.755462
v -4.238479 0.804916 0.756128
v -4.237545 0.805431 0.756146
v -4.236833 0.804752 0.755491
v -4.238796 0.801909 0.756509
v -4.236946 0.805692 0.756989
v -4.237132 0.805502 0.758023
v -4.236200 0.804859 0.758366
v -4.239130 0.803376 0.756719
v -4.239045 0.804534 0.756948
v -4.235914 0.805151 0.756783
v -4.236277 0.800688 0.755514
v -4.236892 0.801380 0.755137
v -4.235370 0.802220 0.755167
v -4.235124 0.801324 0.755537
v -4.238365 0.801982 0.758470
v -4.234393 0.802645 0.756542
v -4.234697 0.802335 0.758226
v -4.234385 0.801646 0.756577
v -4.237813 0.800757 0.756475
v -4.236053 0.801523 0.758951
v -4.237440 0.800821 0.758172
v -4.234385 0.801646 0.756577
v -4.232447 0.796586 0.755041
v -4.235641 0.800797 0.758402
v -4.231902 0.796679 0.757517
v -4.236974 0.800217 0.756527
v -4.234124 0.795453 0.757474
v -4.235124 0.801324 0.755537
v -4.232447 0.796586 0.755041
v -4.235124 0.801324 0.755537
v -4.233680 0.795906 0.755016
v -4.234615 0.801411 0.757852
v -4.234385 0.801646 0.756577
v -4.231656 0.796930 0.756154
v -4.231902 0.796679 0.757517
v -4.234615 0.801411 0.757852
v -4.231656 0.796930 0.756154
v -4.236691 0.800265 0.757811
v -4.235641 0.800797 0.758402
v -4.233000 0.796022 0.758105
v -4.234124 0.795453 0.757474
v -4.236691 0.800265 0.757811
v -4.233000 0.796022 0.758105
v -4.236277 0.800688 0.755514
v -4.236974 0.800217 0.756527
v -4.234426 0.795402 0.756099
v -4.233680 0.795906 0.755016
v -4.236277 0.800688 0.755514
v -4.234426 0.795402 0.756099
v -4.238815 0.804573 0.757990
v -4.237475 0.804096 0.759048
v -4.237545 0.805431 0.756146
v -4.238264 0.803962 0.755462
v -4.237132 0.805502 0.758023
v -4.235914 0.805151 0.756783
v -4.238479 0.804916 0.756128
v -4.238264 0.803962 0.755462
v -4.238479 0.804916 0.756128
v -4.239130 0.803376 0.756719
v -4.236946 0.805692 0.756989
v -4.237545 0.805431 0.756146
v -4.236833 0.804752 0.755491
v -4.235914 0.805151 0.756783
v -4.236946 0.805692 0.756989
v -4.236833 0.804752 0.755491
v -4.237964 0.805003 0.758468
v -4.237132 0.805502 0.758023
v -4.236200 0.804859 0.758366
v -4.237475 0.804096 0.759048
v -4.237964 0.805003 0.758468
v -4.236200 0.804859 0.758366
v -4.236277 0.800688 0.755514
v -4.235124 0.801324 0.755537
v -4.235370 0.802220 0.755167
v -4.236277 0.800688 0.755514
v -4.234385 0.801646 0.756577
v -4.234615 0.801411 0.757852
v -4.234697 0.802335 0.758226
v -4.234385 0.801646 0.756577
v -4.235641 0.800797 0.758402
v -4.236691 0.800265 0.757811
v -4.237440 0.800821 0.758172
v -4.235641 0.800797 0.758402
v -4.236892 0.801380 0.755137
v -4.236974 0.800217 0.756527
v -4.236277 0.800688 0.755514
v -4.236892 0.801380 0.755137
v -4.236974 0.800217 0.756527
v -4.234393 0.802645 0.756542
v -4.235370 0.802220 0.755167
v -4.235124 0.801324 0.755537
v -4.234385 0.801646 0.756577
v -4.234393 0.802645 0.756542
v -4.235124 0.801324 0.755537
v -4.236053 0.801523 0.758951
v -4.234697 0.802335 0.758226
v -4.234615 0.801411 0.757852
v -4.235641 0.800797 0.758402
v -4.236053 0.801523 0.758951
v -4.234615 0.801411 0.757852
v -4.237813 0.800757 0.756475
v -4.237440 0.800821 0.758172
v -4.236691 0.800265 0.757811
v -4.236974 0.800217 0.756527
v -4.237813 0.800757 0.756475
v -4.236691 0.800265 0.757811
v -4.237440 0.800821 0.758172
v -4.237813 0.800757 0.756475
v -4.238796 0.801909 0.756509
v -4.237440 0.800821 0.758172
v -4.239130 0.803376 0.756719
v -4.238779 0.803436 0.758315
v -4.238365 0.801982 0.758470
v -4.238796 0.801909 0.756509
v -4.239130 0.803376 0.756719
v -4.238365 0.801982 0.758470
v -4.238365 0.801982 0.758470
v -4.236053 0.801523 0.758951
v -4.237440 0.800821 0.758172
v -4.238365 0.801982 0.758470
v -4.236053 0.801523 0.758951
v -4.238779 0.803436 0.758315
v -4.237475 0.804096 0.759048
v -4.236762 0.802793 0.759371
v -4.238365 0.801982 0.758470
v -4.238779 0.803436 0.758315
v -4.236762 0.802793 0.759371
v -4.236762 0.802793 0.759371
v -4.234697 0.802335 0.758226
v -4.236053 0.801523 0.758951
v -4.236762 0.802793 0.759371
v -4.234697 0.802335 0.758226
v -4.237475 0.804096 0.759048
v -4.236200 0.804859 0.758366
v -4.235196 0.803731 0.758533
v -4.236762 0.802793 0.759371
v -4.237475 0.804096 0.759048
v -4.235196 0.803731 0.758533
v -4.235196 0.803731 0.758533
v -4.234393 0.802645 0.756542
v -4.234697 0.802335 0.758226
v -4.235196 0.803731 0.758533
v -4.234393 0.802645 0.756542
v -4.236200 0.804859 0.758366
v -4.235914 0.805151 0.756783
v -4.234844 0.804090 0.756587
v -4.235196 0.803731 0.758533
v -4.236200 0.804859 0.758366
v -4.234844 0.804090 0.756587
v -4.234844 0.804090 0.756587
v -4.235370 0.802220 0.755167
v -4.234393 0.802645 0.756542
v -4.234844 0.804090 0.756587
v -4.235370 0.802220 0.755167
v -4.235914 0.805151 0.756783
v -4.236833 0.804752 0.755491
v -4.235973 0.803599 0.754999
v -4.234844 0.804090 0.756587
v -4.235914 0.805151 0.756783
v -4.235973 0.803599 0.754999
v -4.235973 0.803599 0.754999
v -4.236892 0.801380 0.755137
v -4.235370 0.802220 0.755167
v -4.235973 0.803599 0.754999
v -4.236892 0.801380 0.755137
v -4.236833 0.804752 0.755491
v -4.238264 0.803962 0.755462
v -4.237732 0.802628 0.754964
v -4.235973 0.803599 0.754999
v -4.236833 0.804752 0.755491
v -4.237732 0.802628 0.754964
v -4.237732 0.802628 0.754964
v -4.238796 0.801909 0.756509
v -4.237813 0.800757 0.756475
v -4.236892 0.801380 0.755137
v -4.237732 0.802628 0.754964
v -4.237813 0.800757 0.756475
v -4.238264 0.803962 0.755462
v -4.239130 0.803376 0.756719
v -4.238796 0.801909 0.756509
v -4.237732 0.802628 0.754964
v -4.238264 0.803962 0.755462
v -4.238796 0.801909 0.756509
v -4.239045 0.804534 0.756948
v -4.238815 0.804573 0.757990
v -4.238779 0.803436 0.758315
v -4.239130 0.803376 0.756719
v -4.239045 0.804534 0.756948
v -4.238779 0.803436 0.758315
v -4.237964 0.805003 0.758468
v -4.238815 0.804573 0.757990
v -4.237132 0.805502 0.758023
v -4.239045 0.804534 0.756948
v -4.237132 0.805502 0.758023
v -4.238815 0.804573 0.757990
v -4.236946 0.805692 0.756989
v -4.237132 0.805502 0.758023
v -4.239045 0.804534 0.756948
v -4.238479 0.804916 0.756128
v -4.236946 0.805692 0.756989
v -4.239045 0.804534 0.756948
v -4.237545 0.805431 0.756146
v -4.236946 0.805692 0.756989
v -4.238479 0.804916 0.756128
v -4.233000 0.796022 0.758105
v -4.231902 0.796679 0.757517
v -4.234124 0.795453 0.757474
v -4.234426 0.795402 0.756099
v -4.234124 0.795453 0.757474
v -4.231902 0.796679 0.757517
v -4.231656 0.796930 0.756154
v -4.234426 0.795402 0.756099
v -4.231902 0.796679 0.757517
v -4.233680 0.795906 0.755016
v -4.234426 0.795402 0.756099
v -4.231656 0.796930 0.756154
v -4.232447 0.796586 0.755041
v -4.233680 0.795906 0.755016
v -4.231656 0.796930 0.756154
vn 0.4830 -0.8725 -0.0736
vn -0.6234 0.6394 -0.4501
vn 0.0798 0.9953 -0.0548
vn -0.1951 0.8757 -0.4416
vn -0.8827 0.4641 -0.0738
vn 0.0798 0.9953 -0.0549
vn -0.6235 0.6393 -0.4500
vn -0.8827 0.4641 -0.0739
vn -0.0057 0.9080 0.4190
vn -0.7776 0.4820 0.4037
vn -0.0057 0.9080 0.4189
vn -0.3873 0.6795 0.6230
vn -0.8103 -0.0301 0.5853
vn -0.9804 -0.0591 -0.1878
vn -0.7776 0.4821 0.4037
vn -0.8827 0.4642 -0.0738
vn -0.8756 -0.4215 -0.2357
vn -0.5608 0.2246 -0.7969
vn -0.4163 -0.1110 -0.9024
vn -0.8757 -0.4215 -0.2357
vn -0.9804 -0.0591 -0.1879
vn -0.6447 -0.7225 -0.2495
vn -0.2120 -0.4300 -0.8776
vn -0.4163 -0.1109 -0.9024
vn 0.1327 0.6073 -0.7833
vn 0.3428 0.3079 -0.8875
vn -0.5607 0.2246 -0.7970
vn 0.3427 0.3080 -0.8875
vn 0.5030 -0.0353 -0.8635
vn 0.5778 0.8009 -0.1572
vn 0.8300 0.5198 -0.2021
vn 0.3428 0.3080 -0.8875
vn 0.1328 0.6073 -0.7833
vn 0.5031 -0.0354 -0.8635
vn 0.9621 0.1643 -0.2179
vn 0.4394 0.6595 0.6099
vn 0.6784 0.3651 0.6375
vn 0.4394 0.6596 0.6099
vn 0.9621 0.1642 -0.2178
vn 0.6785 0.3651 0.6375
vn 0.8193 0.0186 0.5731
vn 0.6785 0.3652 0.6375
vn -0.1784 0.2898 0.9403
vn 0.0022 -0.0397 0.9992
vn 0.8193 0.0185 0.5731
vn 0.1822 -0.3628 0.9139
vn 0.0022 -0.0398 0.9992
vn -0.8102 -0.0301 0.5853
vn -0.6894 -0.3898 0.6106
vn -0.1784 0.2897 0.9403
vn 0.1822 -0.3629 0.9138
vn -0.4693 -0.6926 0.5478
vn -0.6894 -0.3898 0.6105
vn -0.6894 -0.3897 0.6106
vn -0.9804 -0.0590 -0.1878
vn -0.4693 -0.6927 0.5477
vn -0.6448 -0.7225 -0.2495
vn -0.4693 -0.6926 0.5477
vn -0.5222 -0.6363 0.5679
vn -0.7021 -0.6669 -0.2496
vn 0.7991 0.0930 0.5939
vn 0.1823 -0.3628 0.9139
vn 0.1459 -0.2981 0.9433
vn 0.7991 0.0929 0.5939
vn 0.4749 0.0377 -0.8792
vn 0.9620 0.1643 -0.2179
vn 0.9456 0.2424 -0.2172
vn 0.5031 -0.0353 -0.8635
vn -0.2583 -0.3670 -0.8936
vn -0.2583 -0.3669 -0.8937
vn 0.4750 0.0377 -0.8792
vn -0.3873 0.6796 0.6230
vn -0.0058 0.9080 0.4189
vn -0.3873 0.6795 0.6231
vn -0.6234 0.6394 -0.4500
vn -0.6235 0.6394 -0.4500
vn -0.8672 -0.4379 -0.2372
vn -0.2584 -0.3669 -0.8936
vn -0.4076 -0.1272 -0.9043
vn -0.8672 -0.4378 -0.2372
vn -0.2584 -0.3670 -0.8936
vn 0.0111 -0.0559 0.9984
vn -0.6808 -0.4061 0.6096
vn 0.8394 0.5040 -0.2036
vn 0.6878 0.3492 0.6364
vn -0.4075 -0.1272 -0.9043
vn 0.3519 0.2919 -0.8894
vn -0.4076 -0.1271 -0.9043
vn -0.6808 -0.4061 0.6095
vn -0.6809 -0.4061 0.6095
vn 0.6878 0.3492 0.6365
vn 0.0112 -0.0559 0.9984
vn 0.6877 0.3492 0.6365
vn 0.3519 0.2920 -0.8893
vn 0.9455 0.2424 -0.2172
vt 0.543243 0.611839
vt 0.535370 0.618118
vt 0.537796 0.613083
vt 0.537796 0.623154
vt 0.547607 0.615326
vt 0.543243 0.624397
vt 0.547607 0.620918
vt 0.565384 0.671494
vt 0.570206 0.669548
vt 0.567856 0.672157
vt 0.564468 0.669609
vt 0.568146 0.666756
vt 0.564514 0.667854
vt 0.565857 0.666748
vt 0.562897 0.666855
vt 0.562302 0.669838
vt 0.559082 0.669685
vt 0.563492 0.673050
vt 0.560059 0.674789
vt 0.554092 0.669067
vt 0.554398 0.676537
vt 0.567307 0.675606
vt 0.564316 0.680244
vt 0.558044 0.684982
vt 0.575485 0.674767
vt 0.575272 0.686485
vt 0.565720 0.696274
vt 0.575485 0.658051
vt 0.568817 0.663902
vt 0.568115 0.659698
vt 0.574570 0.665543
vt 0.572052 0.651657
vt 0.565903 0.655174
vt 0.565063 0.664742
vt 0.563416 0.661980
vt 0.560669 0.658463
vt 0.560364 0.665283
vt 0.556488 0.662933
vt 0.552032 0.660286
vt 0.548294 0.668175
vt 0.563522 0.651588
vt 0.557617 0.654999
vt 0.551163 0.688484
vt 0.556610 0.699394
vt 0.547867 0.678001
vt 0.568756 0.648293
vt 0.604446 0.682632
vt 0.626221 0.687675
vt 0.604553 0.688225
vt 0.626144 0.682457
vt 0.604553 0.671455
vt 0.626144 0.677231
vt 0.604446 0.677048
vt 0.626221 0.672005
vt 0.605011 0.660294
vt 0.626404 0.666786
vt 0.604736 0.665871
vt 0.626663 0.661568
vt 0.626404 0.692902
vt 0.604736 0.693810
vt 0.626663 0.698120
vt 0.605011 0.699394
s 0
usemtl decorations
f 240/1/1 239/2/1 238/3/1
f 237/1/1 236/4/1 235/2/1
f 234/5/1 233/4/1 232/1/1
f 231/5/1 230/6/1 229/4/1
f 228/6/1 227/5/1 226/7/1
s 1
f 225/8/2 224/9/3 223/10/4
f 222/11/5 221/9/6 220/8/7
f 219/11/8 218/12/9 217/9/3
f 216/13/10 215/12/11 214/11/5
f 213/12/9 212/13/10 211/14/12
f 210/15/13 209/11/5 208/16/14
f 207/15/13 206/13/15 205/11/16
f 204/17/17 203/18/18 202/19/19
f 201/17/20 200/16/21 199/18/18
f 198/20/22 197/19/19 196/21/23
f 195/20/22 194/17/20 193/19/24
f 192/19/19 191/22/25 190/23/26
f 189/19/19 188/18/27 187/22/25
f 186/21/23 185/23/28 184/24/29
f 183/21/23 3/19/19 182/23/28
f 181/23/26 180/25/30 179/26/31
f 178/23/32 177/22/33 176/25/30
f 175/24/34 174/26/31 173/27/35
f 172/24/34 4/23/32 171/26/31
f 170/28/31 169/29/36 168/30/37
f 167/28/31 166/31/30 165/29/38
f 164/32/39 163/30/40 162/33/41
f 161/32/39 13/28/31 160/30/42
f 159/30/37 158/34/43 157/35/44
f 156/30/37 155/29/36 154/34/43
f 153/33/45 152/35/44 151/36/46
f 150/33/45 14/30/37 149/35/44
f 148/35/47 147/15/48 146/37/49
f 145/35/44 144/34/50 143/15/48
f 142/36/51 141/37/49 140/38/52
f 139/36/51 16/35/44 138/37/49
f 137/37/53 136/16/14 135/17/20
f 134/37/54 133/15/13 132/16/55
f 131/38/56 130/17/20 129/20/57
f 128/38/58 36/37/49 25/17/20
f 127/39/59 126/20/57 125/40/60
f 124/39/59 123/38/58 122/20/57
f 121/41/61 120/36/62 119/42/63
f 118/41/64 117/33/45 116/36/62
f 115/43/65 114/27/66 113/44/67
f 112/43/65 111/24/68 110/27/66
f 109/40/60 108/21/23 107/45/69
f 106/40/60 40/20/22 105/21/23
f 104/42/63 103/38/52 102/39/59
f 101/42/63 41/36/46 42/38/52
f 100/46/67 99/33/45 98/41/64
f 97/46/67 37/32/39 38/33/45
f 96/45/70 95/24/68 94/43/71
f 93/45/69 33/21/23 34/24/68
f 92/29/36 91/14/72 90/34/43
f 89/29/36 88/12/73 87/14/74
f 86/22/25 85/9/3 84/25/30
f 83/22/25 82/10/4 81/9/6
f 80/16/21 79/8/75 78/18/18
f 29/16/21 30/11/5 77/8/76
f 76/31/30 75/12/9 28/29/38
f 31/31/30 26/9/6 27/12/73
f 74/18/27 73/10/4 24/22/25
f 21/18/27 22/8/76 23/10/4
f 72/34/50 71/13/10 20/15/13
f 17/34/50 18/14/72 19/13/15
f 70/47/77 69/48/78 68/49/79
f 67/47/80 66/50/60 65/48/81
f 64/51/82 63/52/59 62/53/83
f 61/51/82 60/54/63 59/52/59
f 58/55/84 57/56/64 56/57/85
f 55/55/84 54/58/67 53/56/64
f 52/49/86 51/59/65 50/60/87
f 2/49/88 32/48/69 49/59/65
f 48/53/89 47/50/60 12/47/80
f 9/53/90 10/52/59 11/50/60
f 46/57/91 45/54/63 8/51/92
f 5/57/93 6/56/64 7/54/63
f 44/60/94 43/61/95 15/62/84
f 1/60/94 35/59/65 39/61/95
