# Blender 5.0.0
# www.blender.org
mtllib Circle_002_Circle_004_Dupli_96_decorations_0.mtl
o Circle.002|Circle.004|Dupli|96_decorations_0
v -4.731757 0.962874 0.478074
v -4.731638 0.961576 0.477541
v -4.728169 0.964248 0.471026
v -4.728340 0.966099 0.471787
v -4.734097 0.963560 0.477373
v -4.732028 0.965569 0.472732
v -4.732456 0.964514 0.472071
v -4.734556 0.962432 0.476666
v -4.733882 0.961221 0.476411
v -4.731826 0.963383 0.471833
v -4.730612 0.963027 0.472197
v -4.732584 0.960840 0.476800
v -4.729901 0.967359 0.471681
v -4.731678 0.967078 0.470787
v -4.732852 0.963757 0.478000
v -4.732333 0.965469 0.469778
v -4.731400 0.965997 0.468702
v -4.730432 0.966330 0.468108
v -4.729921 0.965413 0.467915
v -4.730618 0.964592 0.468406
v -4.728012 0.965003 0.469717
v -4.728221 0.965682 0.468771
v -4.728311 0.966665 0.469175
v -4.728150 0.966510 0.470337
v -4.729519 0.963198 0.469970
v -4.729140 0.967334 0.469119
v -4.730084 0.967185 0.468644
v -4.730867 0.967307 0.469522
v -4.729110 0.964150 0.468858
v -4.728938 0.965124 0.468210
v -4.729421 0.967535 0.470250
v -4.729728 0.963714 0.472888
v -4.728984 0.963824 0.472230
v -4.729131 0.965427 0.472889
v -4.729839 0.964927 0.473387
v -4.731372 0.963742 0.469415
v -4.730483 0.966517 0.472797
v -4.732021 0.966274 0.472023
v -4.730863 0.965753 0.473318
v -4.730152 0.962916 0.471316
v -4.732587 0.964881 0.471150
v -4.731756 0.963386 0.470835
v -4.730863 0.965753 0.473318
v -4.731757 0.962874 0.478074
v -4.732456 0.964514 0.472071
v -4.734097 0.963560 0.477373
v -4.730612 0.963027 0.472197
v -4.733882 0.961221 0.476411
v -4.729839 0.964927 0.473387
v -4.731757 0.962874 0.478074
v -4.729839 0.964927 0.473387
v -4.731638 0.961576 0.477541
v -4.732028 0.965569 0.472732
v -4.730863 0.965753 0.473318
v -4.732852 0.963757 0.478000
v -4.734097 0.963560 0.477373
v -4.732028 0.965569 0.472732
v -4.732852 0.963757 0.478000
v -4.731826 0.963383 0.471833
v -4.732456 0.964514 0.472071
v -4.734556 0.962432 0.476666
v -4.733882 0.961221 0.476411
v -4.731826 0.963383 0.471833
v -4.734556 0.962432 0.476666
v -4.729728 0.963714 0.472888
v -4.730612 0.963027 0.472197
v -4.732584 0.960840 0.476800
v -4.731638 0.961576 0.477541
v -4.729728 0.963714 0.472888
v -4.732584 0.960840 0.476800
v -4.729921 0.965413 0.467915
v -4.731400 0.965997 0.468702
v -4.728311 0.966665 0.469175
v -4.728012 0.965003 0.469717
v -4.730084 0.967185 0.468644
v -4.729421 0.967535 0.470250
v -4.728221 0.965682 0.468771
v -4.728012 0.965003 0.469717
v -4.728221 0.965682 0.468771
v -4.729110 0.964150 0.468858
v -4.729140 0.967334 0.469119
v -4.728311 0.966665 0.469175
v -4.728150 0.966510 0.470337
v -4.729421 0.967535 0.470250
v -4.729140 0.967334 0.469119
v -4.728150 0.966510 0.470337
v -4.730432 0.966330 0.468108
v -4.730084 0.967185 0.468644
v -4.730867 0.967307 0.469522
v -4.731400 0.965997 0.468702
v -4.730432 0.966330 0.468108
v -4.730867 0.967307 0.469522
v -4.729728 0.963714 0.472888
v -4.729839 0.964927 0.473387
v -4.729131 0.965427 0.472889
v -4.729728 0.963714 0.472888
v -4.730863 0.965753 0.473318
v -4.732028 0.965569 0.472732
v -4.732021 0.966274 0.472023
v -4.730863 0.965753 0.473318
v -4.732456 0.964514 0.472071
v -4.731826 0.963383 0.471833
v -4.731756 0.963386 0.470835
v -4.732456 0.964514 0.472071
v -4.728984 0.963824 0.472230
v -4.730612 0.963027 0.472197
v -4.729728 0.963714 0.472888
v -4.728984 0.963824 0.472230
v -4.730612 0.963027 0.472197
v -4.730483 0.966517 0.472797
v -4.729131 0.965427 0.472889
v -4.729839 0.964927 0.473387
v -4.730863 0.965753 0.473318
v -4.730483 0.966517 0.472797
v -4.729839 0.964927 0.473387
v -4.732587 0.964881 0.471150
v -4.732021 0.966274 0.472023
v -4.732028 0.965569 0.472732
v -4.732456 0.964514 0.472071
v -4.732587 0.964881 0.471150
v -4.732028 0.965569 0.472732
v -4.730152 0.962916 0.471316
v -4.731756 0.963386 0.470835
v -4.731826 0.963383 0.471833
v -4.730612 0.963027 0.472197
v -4.730152 0.962916 0.471316
v -4.731826 0.963383 0.471833
v -4.731756 0.963386 0.470835
v -4.730152 0.962916 0.471316
v -4.729519 0.963198 0.469970
v -4.731756 0.963386 0.470835
v -4.729110 0.964150 0.468858
v -4.730618 0.964592 0.468406
v -4.731372 0.963742 0.469415
v -4.729519 0.963198 0.469970
v -4.729110 0.964150 0.468858
v -4.731372 0.963742 0.469415
v -4.731372 0.963742 0.469415
v -4.732587 0.964881 0.471150
v -4.731756 0.963386 0.470835
v -4.731372 0.963742 0.469415
v -4.732587 0.964881 0.471150
v -4.730618 0.964592 0.468406
v -4.731400 0.965997 0.468702
v -4.732333 0.965469 0.469778
v -4.731372 0.963742 0.469415
v -4.730618 0.964592 0.468406
v -4.732333 0.965469 0.469778
v -4.732333 0.965469 0.469778
v -4.732021 0.966274 0.472023
v -4.732587 0.964881 0.471150
v -4.732333 0.965469 0.469778
v -4.732021 0.966274 0.472023
v -4.731400 0.965997 0.468702
v -4.730867 0.967307 0.469522
v -4.731678 0.967078 0.470787
v -4.732333 0.965469 0.469778
v -4.731400 0.965997 0.468702
v -4.731678 0.967078 0.470787
v -4.731678 0.967078 0.470787
v -4.730483 0.966517 0.472797
v -4.732021 0.966274 0.472023
v -4.731678 0.967078 0.470787
v -4.730483 0.966517 0.472797
v -4.730867 0.967307 0.469522
v -4.729421 0.967535 0.470250
v -4.729901 0.967359 0.471681
v -4.731678 0.967078 0.470787
v -4.730867 0.967307 0.469522
v -4.729901 0.967359 0.471681
v -4.729901 0.967359 0.471681
v -4.729131 0.965427 0.472889
v -4.730483 0.966517 0.472797
v -4.729901 0.967359 0.471681
v -4.729131 0.965427 0.472889
v -4.729421 0.967535 0.470250
v -4.728150 0.966510 0.470337
v -4.728340 0.966099 0.471787
v -4.729901 0.967359 0.471681
v -4.729421 0.967535 0.470250
v -4.728340 0.966099 0.471787
v -4.728340 0.966099 0.471787
v -4.728984 0.963824 0.472230
v -4.729131 0.965427 0.472889
v -4.728340 0.966099 0.471787
v -4.728984 0.963824 0.472230
v -4.728150 0.966510 0.470337
v -4.728012 0.965003 0.469717
v -4.728169 0.964248 0.471026
v -4.728340 0.966099 0.471787
v -4.728150 0.966510 0.470337
v -4.728169 0.964248 0.471026
v -4.728169 0.964248 0.471026
v -4.729519 0.963198 0.469970
v -4.730152 0.962916 0.471316
v -4.728984 0.963824 0.472230
v -4.728169 0.964248 0.471026
v -4.730152 0.962916 0.471316
v -4.728012 0.965003 0.469717
v -4.729110 0.964150 0.468858
v -4.729519 0.963198 0.469970
v -4.728169 0.964248 0.471026
v -4.728012 0.965003 0.469717
v -4.729519 0.963198 0.469970
v -4.728938 0.965124 0.468210
v -4.729921 0.965413 0.467915
v -4.730618 0.964592 0.468406
v -4.729110 0.964150 0.468858
v -4.728938 0.965124 0.468210
v -4.730618 0.964592 0.468406
v -4.730432 0.966330 0.468108
v -4.729921 0.965413 0.467915
v -4.730084 0.967185 0.468644
v -4.728938 0.965124 0.468210
v -4.730084 0.967185 0.468644
v -4.729921 0.965413 0.467915
v -4.729140 0.967334 0.469119
v -4.730084 0.967185 0.468644
v -4.728938 0.965124 0.468210
v -4.728221 0.965682 0.468771
v -4.729140 0.967334 0.469119
v -4.728938 0.965124 0.468210
v -4.728311 0.966665 0.469175
v -4.729140 0.967334 0.469119
v -4.728221 0.965682 0.468771
v -4.734556 0.962432 0.476666
v -4.734097 0.963560 0.477373
v -4.733882 0.961221 0.476411
v -4.732584 0.960840 0.476800
v -4.733882 0.961221 0.476411
v -4.734097 0.963560 0.477373
v -4.732852 0.963757 0.478000
v -4.732584 0.960840 0.476800
v -4.734097 0.963560 0.477373
v -4.731638 0.961576 0.477541
v -4.732584 0.960840 0.476800
v -4.732852 0.963757 0.478000
v -4.731757 0.962874 0.478074
v -4.731638 0.961576 0.477541
v -4.732852 0.963757 0.478000
vn -0.3664 -0.3825 0.8482
vn 0.7941 0.0564 -0.6052
vn 0.3723 0.8141 -0.4457
vn 0.7526 0.5073 -0.4198
vn 0.4654 -0.1991 -0.8624
vn 0.7941 0.0563 -0.6052
vn 0.4655 -0.1991 -0.8624
vn -0.0605 0.7457 -0.6635
vn 0.0142 -0.0668 -0.9977
vn -0.2199 0.3537 -0.9092
vn -0.3174 -0.4635 -0.8273
vn 0.4131 -0.6777 -0.6084
vn 0.3024 -0.8982 -0.3190
vn 0.9452 -0.2641 -0.1919
vn 0.8848 -0.4455 0.1367
vn 0.4131 -0.6777 -0.6083
vn 0.9452 -0.2641 -0.1920
vn 0.1482 -0.9888 0.0159
vn 0.8848 -0.4454 0.1368
vn 0.6969 -0.5623 0.4452
vn 0.8848 -0.4454 0.1367
vn 0.8782 0.4660 0.1082
vn 0.8114 0.3536 0.4654
vn 0.9452 -0.2640 -0.1919
vn 0.8114 0.3536 0.4653
vn 0.6277 0.1905 0.7548
vn 0.2624 0.9627 0.0663
vn 0.1374 0.8973 0.4194
vn 0.8781 0.4660 0.1083
vn 0.2625 0.9627 0.0663
vn -0.0072 0.7027 0.7115
vn -0.4383 0.8520 -0.2863
vn -0.6296 0.7762 0.0335
vn -0.0073 0.7027 0.7115
vn -0.7297 0.5886 0.3479
vn -0.6295 0.7762 0.0335
vn -0.6963 0.2174 -0.6840
vn -0.9121 0.0815 -0.4018
vn -0.7298 0.5885 0.3479
vn -0.9121 0.0814 -0.4018
vn -0.9959 -0.0659 -0.0622
vn -0.3175 -0.4635 -0.8273
vn -0.4973 -0.6637 -0.5587
vn -0.6964 0.2173 -0.6840
vn -0.3174 -0.4634 -0.8273
vn -0.9959 -0.0660 -0.0622
vn -0.6052 -0.7679 -0.2100
vn -0.4973 -0.6638 -0.5587
vn -0.6052 -0.7679 -0.2099
vn 0.1482 -0.9888 0.0158
vn -0.5894 -0.7550 -0.2872
vn 0.1830 -0.9815 -0.0556
vn -0.6051 -0.7679 -0.2100
vn -0.7173 0.6359 0.2848
vn -0.9901 -0.0352 -0.1356
vn 0.6747 0.2278 0.7021
vn 0.0236 0.7529 0.6577
vn 0.6747 0.2277 0.7021
vn 0.1830 -0.9815 -0.0557
vn 0.7456 -0.5442 0.3846
vn -0.9901 -0.0352 -0.1357
vn -0.5895 -0.7550 -0.2872
vn 0.0237 0.7530 0.6576
vn -0.7173 0.6359 0.2849
vn 0.0237 0.7529 0.6577
vn -0.4384 0.8520 -0.2863
vn -0.2199 0.3536 -0.9092
vn 0.8781 0.4660 0.1082
vn 0.7527 0.5072 -0.4198
vn 0.4132 -0.6777 -0.6083
vn 0.4654 -0.1992 -0.8624
vn 0.7940 0.0564 -0.6052
vn 0.2624 0.9627 0.0662
vn -0.6963 0.2173 -0.6840
vn 0.2958 -0.9058 -0.3035
vn 0.8785 -0.4528 0.1525
vn -0.9193 0.0744 -0.3864
vn -0.5044 -0.6711 -0.5433
vn 0.1306 0.8907 0.4353
vn -0.6367 0.7696 0.0492
vn 0.1307 0.8908 0.4353
vn 0.8785 -0.4527 0.1525
vn 0.6747 0.2277 0.7020
vn 0.8051 0.3467 0.4813
vn -0.5043 -0.6712 -0.5433
vn 0.2957 -0.9058 -0.3035
vn -0.5043 -0.6711 -0.5433
vn -0.6367 0.7695 0.0492
vn 0.8050 0.3467 0.4813
vn 0.1307 0.8907 0.4353
vt 0.530319 0.635056
vt 0.522446 0.641335
vt 0.524872 0.636299
vt 0.524872 0.646370
vt 0.534683 0.638535
vt 0.530319 0.647614
vt 0.534683 0.644127
vt 0.508789 0.671494
vt 0.513626 0.669548
vt 0.511276 0.672157
vt 0.507889 0.669609
vt 0.511566 0.666756
vt 0.507935 0.667854
vt 0.509277 0.666748
vt 0.506302 0.666855
vt 0.505722 0.669838
vt 0.502487 0.669685
vt 0.506897 0.673050
vt 0.503479 0.674789
vt 0.497520 0.669067
vt 0.497810 0.676537
vt 0.510727 0.675606
vt 0.507721 0.680244
vt 0.501465 0.684982
vt 0.518890 0.674767
vt 0.518692 0.686485
vt 0.509125 0.696274
vt 0.518890 0.658051
vt 0.512238 0.663902
vt 0.511536 0.659698
vt 0.517990 0.665543
vt 0.515472 0.651657
vt 0.509323 0.655174
vt 0.508469 0.664742
vt 0.506836 0.661980
vt 0.504074 0.658463
vt 0.503784 0.665283
vt 0.499901 0.662933
vt 0.495453 0.660286
vt 0.491707 0.668175
vt 0.506927 0.651588
vt 0.501038 0.654999
vt 0.494583 0.688484
vt 0.500031 0.699394
vt 0.491287 0.678001
vt 0.512177 0.648293
vt 0.627350 0.642853
vt 0.649124 0.647896
vt 0.627441 0.648445
vt 0.649033 0.642670
vt 0.627441 0.631676
vt 0.649033 0.637444
vt 0.627350 0.637268
vt 0.649124 0.632225
vt 0.627914 0.620506
vt 0.649292 0.626999
vt 0.627625 0.626091
vt 0.649551 0.621780
vt 0.649292 0.653114
vt 0.627625 0.654030
vt 0.649551 0.658333
vt 0.627914 0.659607
s 0
usemtl decorations
f 240/1/1 239/2/1 238/3/1
f 237/1/1 236/4/1 235/2/1
f 234/5/1 233/4/1 232/1/1
f 231/5/1 230/6/1 229/4/1
f 228/6/1 227/5/1 226/7/1
s 1
f 225/8/2 224/9/3 223/10/4
f 222/11/5 221/9/3 220/8/6
f 219/11/7 218/12/8 217/9/3
f 216/13/9 215/12/8 214/11/5
f 213/12/8 212/13/9 211/14/10
f 210/15/11 209/11/5 208/16/12
f 207/15/11 206/13/9 205/11/5
f 204/17/13 203/18/14 202/19/15
f 201/17/13 200/16/16 199/18/17
f 198/20/18 197/19/19 196/21/20
f 195/20/18 194/17/13 193/19/21
f 192/19/15 191/22/22 190/23/23
f 189/19/15 188/18/24 187/22/22
f 186/21/20 185/23/25 184/24/26
f 183/21/20 3/19/15 182/23/25
f 181/23/23 180/25/27 179/26/28
f 178/23/23 177/22/29 176/25/30
f 175/24/26 174/26/28 173/27/31
f 172/24/26 4/23/23 171/26/28
f 170/28/28 169/29/32 168/30/33
f 167/28/28 166/31/27 165/29/32
f 164/32/34 163/30/33 162/33/35
f 161/32/34 13/28/28 160/30/36
f 159/30/33 158/34/37 157/35/38
f 156/30/33 155/29/32 154/34/37
f 153/33/39 152/35/40 151/36/41
f 150/33/39 14/30/33 149/35/40
f 148/35/40 147/15/42 146/37/43
f 145/35/40 144/34/44 143/15/45
f 142/36/46 141/37/43 140/38/47
f 139/36/46 16/35/40 138/37/43
f 137/37/48 136/16/16 135/17/13
f 134/37/43 133/15/11 132/16/12
f 131/38/49 130/17/13 129/20/50
f 128/38/49 36/37/43 25/17/13
f 127/39/51 126/20/50 125/40/52
f 124/39/51 123/38/53 122/20/50
f 121/41/54 120/36/41 119/42/55
f 118/41/54 117/33/39 116/36/41
f 115/43/56 114/27/31 113/44/57
f 112/43/58 111/24/26 110/27/31
f 109/40/59 108/21/20 107/45/60
f 106/40/59 40/20/18 105/21/20
f 104/42/61 103/38/47 102/39/62
f 101/42/61 41/36/41 42/38/47
f 100/46/63 99/33/35 98/41/64
f 97/46/65 37/32/34 38/33/35
f 96/45/60 95/24/26 94/43/58
f 93/45/60 33/21/20 34/24/26
f 92/29/32 91/14/10 90/34/37
f 89/29/66 88/12/8 87/14/67
f 86/22/68 85/9/3 84/25/30
f 83/22/29 82/10/69 81/9/3
f 80/16/70 79/8/2 78/18/17
f 29/16/70 30/11/71 77/8/72
f 76/31/73 75/12/8 28/29/32
f 31/31/27 26/9/3 27/12/8
f 74/18/14 73/10/4 24/22/22
f 21/18/14 22/8/72 23/10/4
f 72/34/74 71/13/9 20/15/11
f 17/34/74 18/14/10 19/13/9
f 70/47/75 69/48/60 68/49/76
f 67/47/75 66/50/52 65/48/60
f 64/51/77 63/52/51 62/53/78
f 61/51/77 60/54/61 59/52/62
f 58/55/79 57/56/54 56/57/80
f 55/55/81 54/58/65 53/56/64
f 52/49/82 51/59/83 50/60/84
f 2/49/82 32/48/60 49/59/58
f 48/53/85 47/50/52 12/47/86
f 9/53/87 10/52/62 11/50/52
f 46/57/88 45/54/61 8/51/77
f 5/57/80 6/56/54 7/54/55
f 44/60/89 43/61/63 15/62/90
f 1/60/84 35/59/58 39/61/65
