# Blender 5.0.0
# www.blender.org
mtllib Circle_002_Circle_001_Dupli_78_decorations_0.mtl
o Circle.002|Circle.001|Dupli|78_decorations_0
v -4.404033 1.696828 0.410568
v -4.402764 1.696570 0.410014
v -4.401141 1.704224 0.409397
v -4.402951 1.704593 0.410187
v -4.405558 1.696764 0.408540
v -4.404690 1.702111 0.407822
v -4.403856 1.701855 0.406837
v -4.404665 1.696490 0.407486
v -4.403271 1.696298 0.407543
v -4.402553 1.701676 0.406890
v -4.401762 1.701709 0.407941
v -4.402425 1.696334 0.408668
v -4.404725 1.704716 0.409251
v -4.405127 1.704502 0.407294
v -4.405276 1.696915 0.409912
v -4.403853 1.704110 0.405789
v -4.403472 1.705569 0.405983
v -4.403065 1.706579 0.406443
v -4.402009 1.706434 0.406486
v -4.401854 1.705346 0.406048
v -4.401265 1.705661 0.408918
v -4.401625 1.706640 0.408359
v -4.402586 1.706836 0.408779
v -4.402738 1.705961 0.409561
v -4.400657 1.703888 0.407476
v -4.403528 1.706901 0.408282
v -4.403741 1.706787 0.407242
v -4.404508 1.705887 0.407207
v -4.400871 1.705388 0.407355
v -4.401368 1.706461 0.407339
v -4.404181 1.706062 0.408799
v -4.402079 1.701930 0.409200
v -4.401586 1.702777 0.409397
v -4.403152 1.703096 0.410081
v -4.403265 1.702171 0.409718
v -4.401865 1.703837 0.405870
v -4.404688 1.703203 0.409271
v -4.405035 1.703017 0.407577
v -4.404427 1.702252 0.409105
v -4.401167 1.702486 0.407734
v -4.403934 1.702678 0.406275
v -4.402212 1.702442 0.406345
v -4.404427 1.702252 0.409105
v -4.404033 1.696828 0.410568
v -4.403856 1.701855 0.406837
v -4.405558 1.696764 0.408540
v -4.401762 1.701709 0.407941
v -4.403271 1.696298 0.407543
v -4.403265 1.702171 0.409718
v -4.404033 1.696828 0.410568
v -4.403265 1.702171 0.409718
v -4.402764 1.696570 0.410014
v -4.404690 1.702111 0.407822
v -4.404427 1.702252 0.409105
v -4.405276 1.696915 0.409912
v -4.405558 1.696764 0.408540
v -4.404690 1.702111 0.407822
v -4.405276 1.696915 0.409912
v -4.402553 1.701676 0.406890
v -4.403856 1.701855 0.406837
v -4.404665 1.696490 0.407486
v -4.403271 1.696298 0.407543
v -4.402553 1.701676 0.406890
v -4.404665 1.696490 0.407486
v -4.402079 1.701930 0.409200
v -4.401762 1.701709 0.407941
v -4.402425 1.696334 0.408668
v -4.402764 1.696570 0.410014
v -4.402079 1.701930 0.409200
v -4.402425 1.696334 0.408668
v -4.402009 1.706434 0.406486
v -4.403472 1.705569 0.405983
v -4.402586 1.706836 0.408779
v -4.401265 1.705661 0.408918
v -4.403741 1.706787 0.407242
v -4.404181 1.706062 0.408799
v -4.401625 1.706640 0.408359
v -4.401265 1.705661 0.408918
v -4.401625 1.706640 0.408359
v -4.400871 1.705388 0.407355
v -4.403528 1.706901 0.408282
v -4.402586 1.706836 0.408779
v -4.402738 1.705961 0.409561
v -4.404181 1.706062 0.408799
v -4.403528 1.706901 0.408282
v -4.402738 1.705961 0.409561
v -4.403065 1.706579 0.406443
v -4.403741 1.706787 0.407242
v -4.404508 1.705887 0.407207
v -4.403472 1.705569 0.405983
v -4.403065 1.706579 0.406443
v -4.404508 1.705887 0.407207
v -4.402079 1.701930 0.409200
v -4.403265 1.702171 0.409718
v -4.403152 1.703096 0.410081
v -4.402079 1.701930 0.409200
v -4.404427 1.702252 0.409105
v -4.404690 1.702111 0.407822
v -4.405035 1.703017 0.407577
v -4.404427 1.702252 0.409105
v -4.403856 1.701855 0.406837
v -4.402553 1.701676 0.406890
v -4.402212 1.702442 0.406345
v -4.403856 1.701855 0.406837
v -4.401586 1.702777 0.409397
v -4.401762 1.701709 0.407941
v -4.402079 1.701930 0.409200
v -4.401586 1.702777 0.409397
v -4.401762 1.701709 0.407941
v -4.404688 1.703203 0.409271
v -4.403152 1.703096 0.410081
v -4.403265 1.702171 0.409718
v -4.404427 1.702252 0.409105
v -4.404688 1.703203 0.409271
v -4.403265 1.702171 0.409718
v -4.403934 1.702678 0.406275
v -4.405035 1.703017 0.407577
v -4.404690 1.702111 0.407822
v -4.403856 1.701855 0.406837
v -4.403934 1.702678 0.406275
v -4.404690 1.702111 0.407822
v -4.401167 1.702486 0.407734
v -4.402212 1.702442 0.406345
v -4.402553 1.701676 0.406890
v -4.401762 1.701709 0.407941
v -4.401167 1.702486 0.407734
v -4.402553 1.701676 0.406890
v -4.402212 1.702442 0.406345
v -4.401167 1.702486 0.407734
v -4.400657 1.703888 0.407476
v -4.402212 1.702442 0.406345
v -4.400871 1.705388 0.407355
v -4.401854 1.705346 0.406048
v -4.401865 1.703837 0.405870
v -4.400657 1.703888 0.407476
v -4.400871 1.705388 0.407355
v -4.401865 1.703837 0.405870
v -4.401865 1.703837 0.405870
v -4.403934 1.702678 0.406275
v -4.402212 1.702442 0.406345
v -4.401865 1.703837 0.405870
v -4.403934 1.702678 0.406275
v -4.401854 1.705346 0.406048
v -4.403472 1.705569 0.405983
v -4.403853 1.704110 0.405789
v -4.401865 1.703837 0.405870
v -4.401854 1.705346 0.406048
v -4.403853 1.704110 0.405789
v -4.403853 1.704110 0.405789
v -4.405035 1.703017 0.407577
v -4.403934 1.702678 0.406275
v -4.403853 1.704110 0.405789
v -4.405035 1.703017 0.407577
v -4.403472 1.705569 0.405983
v -4.404508 1.705887 0.407207
v -4.405127 1.704502 0.407294
v -4.403853 1.704110 0.405789
v -4.403472 1.705569 0.405983
v -4.405127 1.704502 0.407294
v -4.405127 1.704502 0.407294
v -4.404688 1.703203 0.409271
v -4.405035 1.703017 0.407577
v -4.405127 1.704502 0.407294
v -4.404688 1.703203 0.409271
v -4.404508 1.705887 0.407207
v -4.404181 1.706062 0.408799
v -4.404725 1.704716 0.409251
v -4.405127 1.704502 0.407294
v -4.404508 1.705887 0.407207
v -4.404725 1.704716 0.409251
v -4.404725 1.704716 0.409251
v -4.403152 1.703096 0.410081
v -4.404688 1.703203 0.409271
v -4.404725 1.704716 0.409251
v -4.403152 1.703096 0.410081
v -4.404181 1.706062 0.408799
v -4.402738 1.705961 0.409561
v -4.402951 1.704593 0.410187
v -4.404725 1.704716 0.409251
v -4.404181 1.706062 0.408799
v -4.402951 1.704593 0.410187
v -4.402951 1.704593 0.410187
v -4.401586 1.702777 0.409397
v -4.403152 1.703096 0.410081
v -4.402951 1.704593 0.410187
v -4.401586 1.702777 0.409397
v -4.402738 1.705961 0.409561
v -4.401265 1.705661 0.408918
v -4.401141 1.704224 0.409397
v -4.402951 1.704593 0.410187
v -4.402738 1.705961 0.409561
v -4.401141 1.704224 0.409397
v -4.401141 1.704224 0.409397
v -4.400657 1.703888 0.407476
v -4.401167 1.702486 0.407734
v -4.401586 1.702777 0.409397
v -4.401141 1.704224 0.409397
v -4.401167 1.702486 0.407734
v -4.401265 1.705661 0.408918
v -4.400871 1.705388 0.407355
v -4.400657 1.703888 0.407476
v -4.401141 1.704224 0.409397
v -4.401265 1.705661 0.408918
v -4.400657 1.703888 0.407476
v -4.401368 1.706461 0.407339
v -4.402009 1.706434 0.406486
v -4.401854 1.705346 0.406048
v -4.400871 1.705388 0.407355
v -4.401368 1.706461 0.407339
v -4.401854 1.705346 0.406048
v -4.403065 1.706579 0.406443
v -4.402009 1.706434 0.406486
v -4.403741 1.706787 0.407242
v -4.401368 1.706461 0.407339
v -4.403741 1.706787 0.407242
v -4.402009 1.706434 0.406486
v -4.403528 1.706901 0.408282
v -4.403741 1.706787 0.407242
v -4.401368 1.706461 0.407339
v -4.401625 1.706640 0.408359
v -4.403528 1.706901 0.408282
v -4.401368 1.706461 0.407339
v -4.402586 1.706836 0.408779
v -4.403528 1.706901 0.408282
v -4.401625 1.706640 0.408359
v -4.404665 1.696490 0.407486
v -4.405558 1.696764 0.408540
v -4.403271 1.696298 0.407543
v -4.402425 1.696334 0.408668
v -4.403271 1.696298 0.407543
v -4.405558 1.696764 0.408540
v -4.405276 1.696915 0.409912
v -4.402425 1.696334 0.408668
v -4.405558 1.696764 0.408540
v -4.402764 1.696570 0.410014
v -4.402425 1.696334 0.408668
v -4.405276 1.696915 0.409912
v -4.404033 1.696828 0.410568
v -4.402764 1.696570 0.410014
v -4.405276 1.696915 0.409912
vn -0.1402 -0.9807 0.1365
vn 0.5448 0.7995 0.2531
vn -0.3280 0.9193 0.2175
vn 0.1040 0.8892 0.4455
vn 0.6626 0.7175 -0.2148
vn 0.5448 0.7994 0.2530
vn 0.6626 0.7175 -0.2147
vn -0.4258 0.8669 -0.2591
vn 0.3686 0.7051 -0.6057
vn -0.4258 0.8669 -0.2590
vn 0.3687 0.7051 -0.6057
vn -0.1157 0.7716 -0.6254
vn 0.4666 0.2307 -0.8539
vn 0.9425 0.2507 -0.2210
vn 0.4666 0.2306 -0.8539
vn 0.3686 0.7052 -0.6057
vn 0.9743 -0.1267 -0.1860
vn 0.7519 0.3833 0.5364
vn 0.7657 0.0186 0.6430
vn 0.9743 -0.1266 -0.1861
vn 0.9425 0.2507 -0.2209
vn 0.7519 0.3834 0.5364
vn 0.8656 -0.4851 -0.1243
vn 0.7656 0.0186 0.6430
vn 0.6690 -0.3483 0.6566
vn 0.9744 -0.1266 -0.1860
vn 0.0381 0.5288 0.8479
vn -0.0156 0.1777 0.9840
vn 0.7518 0.3833 0.5365
vn 0.6689 -0.3483 0.6567
vn -0.0670 -0.1983 0.9778
vn -0.6612 0.5773 0.4790
vn -0.7811 0.2309 0.5801
vn 0.0381 0.5287 0.8479
vn -0.6612 0.5774 0.4790
vn -0.0670 -0.1984 0.9778
vn -0.7882 -0.1482 0.5974
vn -0.7812 0.2309 0.5800
vn -0.8196 0.4926 -0.2926
vn -0.9544 0.1382 -0.2645
vn -0.6613 0.5774 0.4790
vn -0.8196 0.4927 -0.2926
vn -0.7882 -0.1483 0.5973
vn -0.9514 -0.2356 -0.1982
vn -0.7882 -0.1482 0.5973
vn -0.7812 0.2309 0.5801
vn -0.9544 0.1382 -0.2644
vn -0.3177 0.3384 -0.8858
vn -0.4050 -0.0307 -0.9138
vn -0.9514 -0.2356 -0.1983
vn -0.4338 -0.3947 -0.8099
vn 0.4665 0.2307 -0.8539
vn 0.4534 -0.1485 -0.8789
vn -0.3176 0.3383 -0.8858
vn 0.4534 -0.1486 -0.8789
vn 0.3748 -0.5057 -0.7771
vn 0.4534 -0.1486 -0.8788
vn 0.3748 -0.5058 -0.7770
vn 0.8656 -0.4850 -0.1243
vn 0.3748 -0.5057 -0.7770
vn 0.4533 -0.1485 -0.8789
vn 0.3962 -0.4354 -0.8083
vn 0.8656 -0.4850 -0.1244
vn 0.8995 -0.4143 -0.1391
vn 0.3962 -0.4355 -0.8083
vn -0.9637 -0.1584 -0.2149
vn -0.4339 -0.3947 -0.8099
vn -0.4330 -0.3216 -0.8421
vn -0.9637 -0.1585 -0.2149
vn -0.0568 -0.1203 0.9911
vn -0.7881 -0.1482 0.5974
vn -0.7963 -0.0689 0.6010
vn 0.8995 -0.4142 -0.1391
vn 0.6979 -0.2740 0.6617
vn 0.8656 -0.4851 -0.1244
vn -0.7963 -0.0688 0.6010
vn 0.6979 -0.2740 0.6618
vn -0.8196 0.4926 -0.2927
vn -0.1157 0.7717 -0.6254
vn -0.4258 0.8670 -0.2590
vn -0.1157 0.7716 -0.6255
vn 0.5448 0.7995 0.2530
vn -0.6612 0.5774 0.4789
vn -0.4258 0.8670 -0.2591
vn -0.3176 0.3384 -0.8858
vn 0.9723 -0.1448 -0.1836
vn 0.7635 0.0005 0.6459
vn -0.4078 -0.0489 -0.9118
vn 0.4510 -0.1668 -0.8768
vn -0.4078 -0.0488 -0.9118
vn -0.7842 0.2129 0.5829
vn -0.9575 0.1201 -0.2620
vn -0.7842 0.2130 0.5829
vn 0.7634 0.0004 0.6459
vn -0.0182 0.1597 0.9870
vn 0.7634 0.0005 0.6459
vn 0.8995 -0.4142 -0.1390
vn 0.4510 -0.1667 -0.8768
vn -0.9575 0.1201 -0.2621
vn -0.9575 0.1202 -0.2621
vt 0.543243 0.635056
vt 0.535370 0.641335
vt 0.537796 0.636299
vt 0.537796 0.646370
vt 0.547607 0.638535
vt 0.543243 0.647614
vt 0.547607 0.644127
vt 0.593674 0.671494
vt 0.598511 0.669548
vt 0.596146 0.672157
vt 0.592773 0.669609
vt 0.596436 0.666756
vt 0.592804 0.667854
vt 0.594147 0.666748
vt 0.591187 0.666855
vt 0.590591 0.669838
vt 0.587372 0.669685
vt 0.591782 0.673050
vt 0.588348 0.674789
vt 0.582382 0.669067
vt 0.582687 0.676537
vt 0.595596 0.675606
vt 0.592606 0.680244
vt 0.586334 0.684982
vt 0.603775 0.674767
vt 0.603561 0.686485
vt 0.594009 0.696274
vt 0.603775 0.658051
vt 0.597107 0.663902
vt 0.596405 0.659698
vt 0.602859 0.665543
vt 0.600342 0.651657
vt 0.594193 0.655174
vt 0.593353 0.664742
vt 0.591705 0.661980
vt 0.588959 0.658463
vt 0.588654 0.665283
vt 0.584778 0.662933
vt 0.580322 0.660286
vt 0.576584 0.668175
vt 0.591812 0.651588
vt 0.585907 0.654999
vt 0.579453 0.688484
vt 0.584915 0.699394
vt 0.576157 0.678001
vt 0.597061 0.648293
vt 0.627350 0.682632
vt 0.649124 0.687675
vt 0.627441 0.688225
vt 0.649033 0.682457
vt 0.627441 0.671455
vt 0.649033 0.677231
vt 0.627350 0.677048
vt 0.649124 0.672005
vt 0.627914 0.660294
vt 0.649292 0.666786
vt 0.627625 0.665871
vt 0.649551 0.661568
vt 0.649292 0.692902
vt 0.627625 0.693810
vt 0.649551 0.698120
vt 0.627914 0.699394
s 0
usemtl decorations
f 240/1/1 239/2/1 238/3/1
f 237/1/1 236/4/1 235/2/1
f 234/5/1 233/4/1 232/1/1
f 231/5/1 230/6/1 229/4/1
f 228/6/1 227/5/1 226/7/1
s 1
f 225/8/2 224/9/3 223/10/4
f 222/11/5 221/9/3 220/8/6
f 219/11/7 218/12/8 217/9/3
f 216/13/9 215/12/10 214/11/7
f 213/12/8 212/13/11 211/14/12
f 210/15/13 209/11/7 208/16/14
f 207/15/15 206/13/16 205/11/5
f 204/17/17 203/18/18 202/19/19
f 201/17/20 200/16/21 199/18/22
f 198/20/23 197/19/24 196/21/25
f 195/20/23 194/17/26 193/19/19
f 192/19/19 191/22/27 190/23/28
f 189/19/19 188/18/29 187/22/27
f 186/21/30 185/23/28 184/24/31
f 183/21/30 3/19/24 182/23/28
f 181/23/28 180/25/32 179/26/33
f 178/23/28 177/22/34 176/25/35
f 175/24/36 174/26/33 173/27/37
f 172/24/36 4/23/28 171/26/33
f 170/28/38 169/29/39 168/30/40
f 167/28/38 166/31/41 165/29/42
f 164/32/43 163/30/40 162/33/44
f 161/32/45 13/28/46 160/30/47
f 159/30/40 158/34/48 157/35/49
f 156/30/40 155/29/39 154/34/48
f 153/33/50 152/35/49 151/36/51
f 150/33/50 14/30/40 149/35/49
f 148/35/49 147/15/52 146/37/53
f 145/35/49 144/34/54 143/15/52
f 142/36/51 141/37/55 140/38/56
f 139/36/51 16/35/49 138/37/55
f 137/37/57 136/16/21 135/17/26
f 134/37/53 133/15/13 132/16/14
f 131/38/58 130/17/26 129/20/59
f 128/38/60 36/37/61 25/17/26
f 127/39/62 126/20/63 125/40/64
f 124/39/65 123/38/60 122/20/63
f 121/41/66 120/36/67 119/42/68
f 118/41/69 117/33/44 116/36/67
f 115/43/70 114/27/71 113/44/72
f 112/43/70 111/24/36 110/27/71
f 109/40/73 108/21/25 107/45/74
f 106/40/64 40/20/75 105/21/25
f 104/42/68 103/38/56 102/39/65
f 101/42/68 41/36/51 42/38/56
f 100/46/76 99/33/44 98/41/69
f 97/46/72 37/32/45 38/33/44
f 96/45/77 95/24/36 94/43/70
f 93/45/77 33/21/25 34/24/36
f 92/29/78 91/14/79 90/34/48
f 89/29/78 88/12/80 87/14/81
f 86/22/27 85/9/3 84/25/35
f 83/22/27 82/10/4 81/9/3
f 80/16/21 79/8/2 78/18/22
f 29/16/21 30/11/5 77/8/82
f 76/31/83 75/12/84 28/29/42
f 31/31/83 26/9/3 27/12/80
f 74/18/29 73/10/4 24/22/27
f 21/18/29 22/8/82 23/10/4
f 72/34/85 71/13/16 20/15/13
f 17/34/85 18/14/12 19/13/16
f 70/47/86 69/48/74 68/49/87
f 67/47/86 66/50/64 65/48/74
f 64/51/88 63/52/62 62/53/89
f 61/51/90 60/54/68 59/52/65
f 58/55/91 57/56/66 56/57/92
f 55/55/93 54/58/72 53/56/69
f 52/49/94 51/59/70 50/60/95
f 2/49/96 32/48/74 49/59/70
f 48/53/89 47/50/97 12/47/86
f 9/53/98 10/52/62 11/50/64
f 46/57/99 45/54/68 8/51/90
f 5/57/100 6/56/69 7/54/68
f 44/60/95 43/61/76 15/62/91
f 1/60/95 35/59/70 39/61/72
