# Blender 5.0.0
# www.blender.org
mtllib Circle_005_Circle_003_Dupli_289_decorations_0.mtl
o Circle.005|Circle.003|Dupli|289_decorations_0
v -4.475274 1.842243 0.425498
v -4.474500 1.842659 0.424398
v -4.469163 1.846045 0.429053
v -4.470268 1.845451 0.430623
v -4.476979 1.844109 0.425728
v -4.473528 1.846741 0.429048
v -4.473198 1.847561 0.428073
v -4.476625 1.844986 0.424684
v -4.475584 1.844859 0.423746
v -4.472224 1.847443 0.427195
v -4.471339 1.846475 0.427076
v -4.474637 1.843824 0.423618
v -4.471842 1.846371 0.431467
v -4.472701 1.848113 0.430950
v -4.476377 1.842888 0.426090
v -4.472196 1.849365 0.429461
v -4.471055 1.849720 0.430399
v -4.470078 1.849663 0.431065
v -4.469289 1.849567 0.430354
v -4.469845 1.849573 0.429309
v -4.468587 1.847019 0.430067
v -4.468468 1.847900 0.430848
v -4.469055 1.847584 0.431682
v -4.469486 1.846536 0.431344
v -4.469359 1.847707 0.427940
v -4.469891 1.848073 0.432130
v -4.470346 1.848998 0.431855
v -4.471465 1.848702 0.431611
v -4.468747 1.848371 0.429162
v -4.468572 1.848782 0.430257
v -4.470767 1.847284 0.432031
v -4.471210 1.845386 0.427806
v -4.470309 1.845514 0.428218
v -4.471265 1.844999 0.429576
v -4.471935 1.844997 0.428834
v -4.470709 1.849184 0.428122
v -4.472628 1.845796 0.430307
v -4.473371 1.847303 0.429860
v -4.472966 1.845600 0.429387
v -4.470479 1.846952 0.427255
v -4.472934 1.848387 0.428571
v -4.471647 1.848230 0.427412
v -4.472966 1.845600 0.429387
v -4.475274 1.842243 0.425498
v -4.473198 1.847561 0.428073
v -4.476979 1.844109 0.425728
v -4.471339 1.846475 0.427076
v -4.475584 1.844859 0.423746
v -4.471935 1.844997 0.428834
v -4.475274 1.842243 0.425498
v -4.471935 1.844997 0.428834
v -4.474500 1.842659 0.424398
v -4.473528 1.846741 0.429048
v -4.472966 1.845600 0.429387
v -4.476377 1.842888 0.426090
v -4.476979 1.844109 0.425728
v -4.473528 1.846741 0.429048
v -4.476377 1.842888 0.426090
v -4.472224 1.847443 0.427195
v -4.473198 1.847561 0.428073
v -4.476625 1.844986 0.424684
v -4.475584 1.844859 0.423746
v -4.472224 1.847443 0.427195
v -4.476625 1.844986 0.424684
v -4.471210 1.845386 0.427806
v -4.471339 1.846475 0.427076
v -4.474637 1.843824 0.423618
v -4.474500 1.842659 0.424398
v -4.471210 1.845386 0.427806
v -4.474637 1.843824 0.423618
v -4.469289 1.849567 0.430354
v -4.471055 1.849720 0.430399
v -4.469055 1.847584 0.431682
v -4.468587 1.847019 0.430067
v -4.470346 1.848998 0.431855
v -4.470767 1.847284 0.432031
v -4.468468 1.847900 0.430848
v -4.468587 1.847019 0.430067
v -4.468468 1.847900 0.430848
v -4.468747 1.848371 0.429162
v -4.469891 1.848073 0.432130
v -4.469055 1.847584 0.431682
v -4.469486 1.846536 0.431344
v -4.470767 1.847284 0.432031
v -4.469891 1.848073 0.432130
v -4.469486 1.846536 0.431344
v -4.470078 1.849663 0.431065
v -4.470346 1.848998 0.431855
v -4.471465 1.848702 0.431611
v -4.471055 1.849720 0.430399
v -4.470078 1.849663 0.431065
v -4.471465 1.848702 0.431611
v -4.471210 1.845386 0.427806
v -4.471935 1.844997 0.428834
v -4.471265 1.844999 0.429576
v -4.471210 1.845386 0.427806
v -4.472966 1.845600 0.429387
v -4.473528 1.846741 0.429048
v -4.473371 1.847303 0.429860
v -4.472966 1.845600 0.429387
v -4.473198 1.847561 0.428073
v -4.472224 1.847443 0.427195
v -4.471647 1.848230 0.427412
v -4.473198 1.847561 0.428073
v -4.470309 1.845514 0.428218
v -4.471339 1.846475 0.427076
v -4.471210 1.845386 0.427806
v -4.470309 1.845514 0.428218
v -4.471339 1.846475 0.427076
v -4.472628 1.845796 0.430307
v -4.471265 1.844999 0.429576
v -4.471935 1.844997 0.428834
v -4.472966 1.845600 0.429387
v -4.472628 1.845796 0.430307
v -4.471935 1.844997 0.428834
v -4.472934 1.848387 0.428571
v -4.473371 1.847303 0.429860
v -4.473528 1.846741 0.429048
v -4.473198 1.847561 0.428073
v -4.472934 1.848387 0.428571
v -4.473528 1.846741 0.429048
v -4.470479 1.846952 0.427255
v -4.471647 1.848230 0.427412
v -4.472224 1.847443 0.427195
v -4.471339 1.846475 0.427076
v -4.470479 1.846952 0.427255
v -4.472224 1.847443 0.427195
v -4.471647 1.848230 0.427412
v -4.470479 1.846952 0.427255
v -4.469359 1.847707 0.427940
v -4.471647 1.848230 0.427412
v -4.468747 1.848371 0.429162
v -4.469845 1.849573 0.429309
v -4.470709 1.849184 0.428122
v -4.469359 1.847707 0.427940
v -4.468747 1.848371 0.429162
v -4.470709 1.849184 0.428122
v -4.470709 1.849184 0.428122
v -4.472934 1.848387 0.428571
v -4.471647 1.848230 0.427412
v -4.470709 1.849184 0.428122
v -4.472934 1.848387 0.428571
v -4.469845 1.849573 0.429309
v -4.471055 1.849720 0.430399
v -4.472196 1.849365 0.429461
v -4.470709 1.849184 0.428122
v -4.469845 1.849573 0.429309
v -4.472196 1.849365 0.429461
v -4.472196 1.849365 0.429461
v -4.473371 1.847303 0.429860
v -4.472934 1.848387 0.428571
v -4.472196 1.849365 0.429461
v -4.473371 1.847303 0.429860
v -4.471055 1.849720 0.430399
v -4.471465 1.848702 0.431611
v -4.472701 1.848113 0.430950
v -4.472196 1.849365 0.429461
v -4.471055 1.849720 0.430399
v -4.472701 1.848113 0.430950
v -4.472701 1.848113 0.430950
v -4.472628 1.845796 0.430307
v -4.473371 1.847303 0.429860
v -4.472701 1.848113 0.430950
v -4.472628 1.845796 0.430307
v -4.471465 1.848702 0.431611
v -4.470767 1.847284 0.432031
v -4.471842 1.846371 0.431467
v -4.472701 1.848113 0.430950
v -4.471465 1.848702 0.431611
v -4.471842 1.846371 0.431467
v -4.471842 1.846371 0.431467
v -4.471265 1.844999 0.429576
v -4.472628 1.845796 0.430307
v -4.471842 1.846371 0.431467
v -4.471265 1.844999 0.429576
v -4.470767 1.847284 0.432031
v -4.469486 1.846536 0.431344
v -4.470268 1.845451 0.430623
v -4.471842 1.846371 0.431467
v -4.470767 1.847284 0.432031
v -4.470268 1.845451 0.430623
v -4.470268 1.845451 0.430623
v -4.470309 1.845514 0.428218
v -4.471265 1.844999 0.429576
v -4.470268 1.845451 0.430623
v -4.470309 1.845514 0.428218
v -4.469486 1.846536 0.431344
v -4.468587 1.847019 0.430067
v -4.469163 1.846045 0.429053
v -4.470268 1.845451 0.430623
v -4.469486 1.846536 0.431344
v -4.469163 1.846045 0.429053
v -4.469163 1.846045 0.429053
v -4.469359 1.847707 0.427940
v -4.470479 1.846952 0.427255
v -4.470309 1.845514 0.428218
v -4.469163 1.846045 0.429053
v -4.470479 1.846952 0.427255
v -4.468587 1.847019 0.430067
v -4.468747 1.848371 0.429162
v -4.469359 1.847707 0.427940
v -4.469163 1.846045 0.429053
v -4.468587 1.847019 0.430067
v -4.469359 1.847707 0.427940
v -4.468572 1.848782 0.430257
v -4.469289 1.849567 0.430354
v -4.469845 1.849573 0.429309
v -4.468747 1.848371 0.429162
v -4.468572 1.848782 0.430257
v -4.469845 1.849573 0.429309
v -4.470078 1.849663 0.431065
v -4.469289 1.849567 0.430354
v -4.470346 1.848998 0.431855
v -4.468572 1.848782 0.430257
v -4.470346 1.848998 0.431855
v -4.469289 1.849567 0.430354
v -4.469891 1.848073 0.432130
v -4.470346 1.848998 0.431855
v -4.468572 1.848782 0.430257
v -4.468468 1.847900 0.430848
v -4.469891 1.848073 0.432130
v -4.468572 1.848782 0.430257
v -4.469055 1.847584 0.431682
v -4.469891 1.848073 0.432130
v -4.468468 1.847900 0.430848
v -4.476625 1.844986 0.424684
v -4.476979 1.844109 0.425728
v -4.475584 1.844859 0.423746
v -4.474637 1.843824 0.423618
v -4.475584 1.844859 0.423746
v -4.476979 1.844109 0.425728
v -4.476377 1.842888 0.426090
v -4.474637 1.843824 0.423618
v -4.476979 1.844109 0.425728
v -4.474500 1.842659 0.424398
v -4.474637 1.843824 0.423618
v -4.476377 1.842888 0.426090
v -4.475274 1.842243 0.425498
v -4.474500 1.842659 0.424398
v -4.476377 1.842888 0.426090
vn -0.6164 -0.4873 -0.6185
vn 0.9299 0.0573 0.3632
vn 0.2774 0.1367 0.9510
vn 0.6609 -0.0874 0.7454
vn 0.8821 0.4620 0.0922
vn 0.2775 0.1367 0.9510
vn 0.9299 0.0574 0.3632
vn 0.8821 0.4619 0.0922
vn 0.0685 0.5609 0.8251
vn 0.5534 0.8217 0.1364
vn 0.0685 0.5609 0.8250
vn 0.5534 0.8217 0.1363
vn 0.1913 0.8657 0.4625
vn 0.3233 0.8777 -0.3538
vn 0.8555 0.2953 -0.4253
vn 0.3233 0.8776 -0.3538
vn 0.6843 0.1239 -0.7186
vn 0.9330 -0.3598 0.0135
vn 0.7691 -0.5930 -0.2382
vn 0.6844 0.1240 -0.7185
vn 0.8555 0.2952 -0.4253
vn 0.9330 -0.3597 0.0135
vn 0.4148 -0.0650 -0.9076
vn 0.7691 -0.5931 -0.2382
vn 0.4947 -0.7404 -0.4551
vn 0.6844 0.1239 -0.7185
vn 0.7692 -0.5930 -0.2382
vn 0.4974 -0.5941 0.6322
vn 0.2923 -0.8496 0.4391
vn 0.9329 -0.3598 0.0135
vn 0.4973 -0.5941 0.6322
vn 0.4946 -0.7405 -0.4551
vn 0.2923 -0.8495 0.4391
vn 0.0455 -0.9821 0.1830
vn -0.1234 -0.2313 0.9650
vn -0.3871 -0.4525 0.8034
vn 0.4973 -0.5941 0.6323
vn -0.1233 -0.2313 0.9650
vn 0.0454 -0.9821 0.1829
vn -0.5946 -0.6080 0.5261
vn -0.3872 -0.4524 0.8034
vn -0.4617 0.4554 0.7612
vn -0.7574 0.2992 0.5803
vn -0.5947 -0.6080 0.5261
vn -0.7575 0.2992 0.5803
vn -0.9435 0.1001 0.3160
vn -0.2629 0.9489 0.1744
vn -0.5398 0.8395 -0.0622
vn -0.2629 0.9489 0.1743
vn -0.9435 0.1001 0.3159
vn -0.7385 0.6091 -0.2893
vn 0.1018 0.7614 -0.6402
vn -0.2629 0.9490 0.1743
vn 0.3233 0.8777 -0.3537
vn -0.1340 0.5356 -0.8338
vn 0.8555 0.2953 -0.4254
vn 0.1019 0.7615 -0.6402
vn -0.1340 0.5355 -0.8338
vn 0.1018 0.7615 -0.6402
vn -0.0851 0.5905 -0.8026
vn 0.4776 -0.0254 -0.8782
vn -0.9152 0.1440 0.3764
vn -0.7385 0.6091 -0.2892
vn -0.7050 0.6658 -0.2442
vn 0.0988 -0.9657 0.2401
vn -0.5575 -0.5821 0.5919
vn 0.0988 -0.9657 0.2400
vn 0.0454 -0.9821 0.1830
vn 0.5594 -0.7179 -0.4143
vn 0.4147 -0.0650 -0.9076
vn -0.7050 0.6659 -0.2442
vn -0.0852 0.5905 -0.8026
vn -0.5947 -0.6079 0.5261
vn 0.5595 -0.7179 -0.4142
vn 0.4946 -0.7404 -0.4551
vn 0.2775 0.1367 0.9509
vn 0.8555 0.2952 -0.4254
vn 0.8821 0.4620 0.0921
vn -0.2628 0.9490 0.1743
vn 0.6733 0.1149 -0.7303
vn 0.7581 -0.6024 -0.2498
vn 0.6734 0.1150 -0.7303
vn -0.5515 0.8309 -0.0737
vn 0.0905 0.7528 -0.6519
vn -0.3988 -0.4617 0.7924
vn -0.7692 0.2903 0.5692
vn -0.3988 -0.4616 0.7924
vn 0.7581 -0.6024 -0.2497
vn 0.2811 -0.8590 0.4279
vn 0.7582 -0.6024 -0.2497
vn 0.5594 -0.7179 -0.4142
vn 0.0905 0.7528 -0.6520
vn 0.6733 0.1150 -0.7303
vn -0.7693 0.2903 0.5692
vn -0.5515 0.8309 -0.0736
vn -0.7692 0.2904 0.5692
vn 0.2810 -0.8590 0.4279
vn -0.5574 -0.5821 0.5919
vn -0.3987 -0.4617 0.7924
vt 0.530319 0.611839
vt 0.522446 0.618118
vt 0.524872 0.613083
vt 0.524872 0.623154
vt 0.534683 0.615326
vt 0.530319 0.624397
vt 0.534683 0.620918
vt 0.537079 0.671494
vt 0.541916 0.669548
vt 0.539566 0.672157
vt 0.536179 0.669609
vt 0.539856 0.666756
vt 0.536224 0.667854
vt 0.537567 0.666748
vt 0.534592 0.666855
vt 0.534012 0.669838
vt 0.530777 0.669685
vt 0.535187 0.673050
vt 0.531769 0.674789
vt 0.525803 0.669067
vt 0.526108 0.676537
vt 0.539017 0.675606
vt 0.536011 0.680244
vt 0.529755 0.684982
vt 0.547180 0.674767
vt 0.546982 0.686485
vt 0.537415 0.696274
vt 0.547180 0.658051
vt 0.540527 0.663902
vt 0.539825 0.659698
vt 0.546280 0.665543
vt 0.543762 0.651657
vt 0.537613 0.655174
vt 0.536758 0.664742
vt 0.535126 0.661980
vt 0.532364 0.658463
vt 0.532074 0.665283
vt 0.528198 0.662933
vt 0.523743 0.660286
vt 0.519989 0.668175
vt 0.535217 0.651588
vt 0.529327 0.654999
vt 0.522873 0.688484
vt 0.528320 0.699394
vt 0.519577 0.678001
vt 0.540466 0.648293
vt 0.604446 0.642853
vt 0.626221 0.647896
vt 0.604553 0.648445
vt 0.626144 0.642670
vt 0.604553 0.631676
vt 0.626144 0.637444
vt 0.604446 0.637268
vt 0.626221 0.632225
vt 0.605011 0.620506
vt 0.626404 0.626999
vt 0.604736 0.626091
vt 0.626663 0.621780
vt 0.626404 0.653114
vt 0.604736 0.654030
vt 0.626663 0.658333
vt 0.605011 0.659607
s 0
usemtl decorations
f 240/1/1 239/2/1 238/3/1
f 237/1/1 236/4/1 235/2/1
f 234/5/1 233/4/1 232/1/1
f 231/5/1 230/6/1 229/4/1
f 228/6/1 227/5/1 226/7/1
s 1
f 225/8/2 224/9/3 223/10/4
f 222/11/5 221/9/6 220/8/7
f 219/11/8 218/12/9 217/9/3
f 216/13/10 215/12/9 214/11/8
f 213/12/11 212/13/12 211/14/13
f 210/15/14 209/11/8 208/16/15
f 207/15/16 206/13/10 205/11/8
f 204/17/17 203/18/18 202/19/19
f 201/17/20 200/16/21 199/18/22
f 198/20/23 197/19/24 196/21/25
f 195/20/23 194/17/26 193/19/27
f 192/19/19 191/22/28 190/23/29
f 189/19/19 188/18/30 187/22/31
f 186/21/32 185/23/33 184/24/34
f 183/21/32 3/19/19 182/23/33
f 181/23/29 180/25/35 179/26/36
f 178/23/29 177/22/37 176/25/38
f 175/24/39 174/26/36 173/27/40
f 172/24/39 4/23/29 171/26/36
f 170/28/41 169/29/42 168/30/43
f 167/28/41 166/31/35 165/29/42
f 164/32/44 163/30/45 162/33/46
f 161/32/44 13/28/41 160/30/43
f 159/30/43 158/34/47 157/35/48
f 156/30/43 155/29/42 154/34/49
f 153/33/50 152/35/48 151/36/51
f 150/33/50 14/30/43 149/35/48
f 148/35/48 147/15/14 146/37/52
f 145/35/48 144/34/53 143/15/54
f 142/36/51 141/37/52 140/38/55
f 139/36/51 16/35/48 138/37/52
f 137/37/52 136/16/56 135/17/26
f 134/37/57 133/15/14 132/16/15
f 131/38/58 130/17/26 129/20/23
f 128/38/58 36/37/59 25/17/26
f 127/39/60 126/20/23 125/40/61
f 124/39/60 123/38/55 122/20/23
f 121/41/62 120/36/63 119/42/64
f 118/41/62 117/33/50 116/36/63
f 115/43/65 114/27/40 113/44/66
f 112/43/67 111/24/68 110/27/40
f 109/40/61 108/21/25 107/45/69
f 106/40/61 40/20/70 105/21/25
f 104/42/71 103/38/55 102/39/72
f 101/42/64 41/36/51 42/38/55
f 100/46/66 99/33/46 98/41/62
f 97/46/66 37/32/73 38/33/46
f 96/45/74 95/24/68 94/43/67
f 93/45/74 33/21/75 34/24/68
f 92/29/42 91/14/13 90/34/49
f 89/29/42 88/12/9 87/14/13
f 86/22/37 85/9/6 84/25/38
f 83/22/37 82/10/4 81/9/76
f 80/16/21 79/8/7 78/18/22
f 29/16/77 30/11/78 77/8/7
f 76/31/38 75/12/9 28/29/42
f 31/31/35 26/9/76 27/12/9
f 74/18/30 73/10/4 24/22/31
f 21/18/30 22/8/7 23/10/4
f 72/34/79 71/13/10 20/15/14
f 17/34/53 18/14/13 19/13/10
f 70/47/80 69/48/74 68/49/81
f 67/47/82 66/50/61 65/48/74
f 64/51/83 63/52/60 62/53/84
f 61/51/83 60/54/71 59/52/72
f 58/55/85 57/56/62 56/57/86
f 55/55/87 54/58/66 53/56/62
f 52/49/88 51/59/65 50/60/89
f 2/49/90 32/48/91 49/59/67
f 48/53/92 47/50/61 12/47/93
f 9/53/84 10/52/60 11/50/61
f 46/57/94 45/54/71 8/51/95
f 5/57/96 6/56/62 7/54/64
f 44/60/97 43/61/98 15/62/99
f 1/60/89 35/59/67 39/61/98
