# Blender 5.0.0
# www.blender.org
mtllib Circle_002_Circle_001_Dupli_294_decorations_0.mtl
o Circle.002|Circle.001|Dupli|294_decorations_0
v -4.297599 1.999938 0.582701
v -4.298890 2.000329 0.583107
v -4.298894 2.006465 0.578211
v -4.297053 2.005906 0.577633
v -4.296106 2.001040 0.584432
v -4.295846 2.005481 0.581258
v -4.296708 2.006101 0.582036
v -4.297028 2.001704 0.585264
v -4.298432 2.001745 0.585162
v -4.298020 2.006140 0.581940
v -4.298795 2.005568 0.581042
v -4.299261 2.001134 0.584202
v -4.295285 2.006358 0.578475
v -4.294922 2.007479 0.580102
v -4.296360 2.000254 0.583291
v -4.296237 2.008426 0.581290
v -4.296311 2.009394 0.580120
v -4.296504 2.009863 0.579052
v -4.297568 2.009895 0.578974
v -4.297941 2.009442 0.580001
v -4.298473 2.007798 0.577615
v -4.297915 2.008822 0.577417
v -4.296937 2.008525 0.577110
v -4.296975 2.007343 0.577145
v -4.299423 2.007612 0.579773
v -4.295998 2.008765 0.577557
v -4.295805 2.009361 0.578421
v -4.295241 2.008623 0.579154
v -4.298903 2.008732 0.578886
v -4.298196 2.009431 0.578247
v -4.295536 2.007711 0.577830
v -4.298449 2.004816 0.580019
v -4.298758 2.005363 0.579241
v -4.297164 2.004879 0.578740
v -4.297242 2.004450 0.579640
v -4.298241 2.008485 0.581144
v -4.295634 2.005270 0.579469
v -4.295320 2.006241 0.580877
v -4.296084 2.004746 0.580191
v -4.299215 2.006356 0.580593
v -4.296458 2.007060 0.581905
v -4.298192 2.007112 0.581779
v -4.296084 2.004746 0.580191
v -4.297599 1.999938 0.582701
v -4.296708 2.006101 0.582036
v -4.296106 2.001040 0.584432
v -4.298795 2.005568 0.581042
v -4.298432 2.001745 0.585162
v -4.297242 2.004450 0.579640
v -4.297599 1.999938 0.582701
v -4.297242 2.004450 0.579640
v -4.298890 2.000329 0.583107
v -4.295846 2.005481 0.581258
v -4.296084 2.004746 0.580191
v -4.296360 2.000254 0.583291
v -4.296106 2.001040 0.584432
v -4.295846 2.005481 0.581258
v -4.296360 2.000254 0.583291
v -4.298020 2.006140 0.581940
v -4.296708 2.006101 0.582036
v -4.297028 2.001704 0.585264
v -4.298432 2.001745 0.585162
v -4.298020 2.006140 0.581940
v -4.297028 2.001704 0.585264
v -4.298449 2.004816 0.580019
v -4.298795 2.005568 0.581042
v -4.299261 2.001134 0.584202
v -4.298890 2.000329 0.583107
v -4.298449 2.004816 0.580019
v -4.299261 2.001134 0.584202
v -4.297568 2.009895 0.578974
v -4.296311 2.009394 0.580120
v -4.296937 2.008525 0.577110
v -4.298473 2.007798 0.577615
v -4.295805 2.009361 0.578421
v -4.295536 2.007711 0.577830
v -4.297915 2.008822 0.577417
v -4.298473 2.007798 0.577615
v -4.297915 2.008822 0.577417
v -4.298903 2.008732 0.578886
v -4.295998 2.008765 0.577557
v -4.296937 2.008525 0.577110
v -4.296975 2.007343 0.577145
v -4.295536 2.007711 0.577830
v -4.295998 2.008765 0.577557
v -4.296975 2.007343 0.577145
v -4.296504 2.009863 0.579052
v -4.295805 2.009361 0.578421
v -4.295241 2.008623 0.579154
v -4.296311 2.009394 0.580120
v -4.296504 2.009863 0.579052
v -4.295241 2.008623 0.579154
v -4.298449 2.004816 0.580019
v -4.297242 2.004450 0.579640
v -4.297164 2.004879 0.578740
v -4.298449 2.004816 0.580019
v -4.296084 2.004746 0.580191
v -4.295846 2.005481 0.581258
v -4.295320 2.006241 0.580877
v -4.296084 2.004746 0.580191
v -4.296708 2.006101 0.582036
v -4.298020 2.006140 0.581940
v -4.298192 2.007112 0.581779
v -4.296708 2.006101 0.582036
v -4.298758 2.005363 0.579241
v -4.298795 2.005568 0.581042
v -4.298449 2.004816 0.580019
v -4.298758 2.005363 0.579241
v -4.298795 2.005568 0.581042
v -4.295634 2.005270 0.579469
v -4.297164 2.004879 0.578740
v -4.297242 2.004450 0.579640
v -4.296084 2.004746 0.580191
v -4.295634 2.005270 0.579469
v -4.297242 2.004450 0.579640
v -4.296458 2.007060 0.581905
v -4.295320 2.006241 0.580877
v -4.295846 2.005481 0.581258
v -4.296708 2.006101 0.582036
v -4.296458 2.007060 0.581905
v -4.295846 2.005481 0.581258
v -4.299215 2.006356 0.580593
v -4.298192 2.007112 0.581779
v -4.298020 2.006140 0.581940
v -4.298795 2.005568 0.581042
v -4.299215 2.006356 0.580593
v -4.298020 2.006140 0.581940
v -4.298192 2.007112 0.581779
v -4.299215 2.006356 0.580593
v -4.299423 2.007612 0.579773
v -4.298192 2.007112 0.581779
v -4.298903 2.008732 0.578886
v -4.297941 2.009442 0.580001
v -4.298241 2.008485 0.581144
v -4.299423 2.007612 0.579773
v -4.298903 2.008732 0.578886
v -4.298241 2.008485 0.581144
v -4.298241 2.008485 0.581144
v -4.296458 2.007060 0.581905
v -4.298192 2.007112 0.581779
v -4.298241 2.008485 0.581144
v -4.296458 2.007060 0.581905
v -4.297941 2.009442 0.580001
v -4.296311 2.009394 0.580120
v -4.296237 2.008426 0.581290
v -4.298241 2.008485 0.581144
v -4.297941 2.009442 0.580001
v -4.296237 2.008426 0.581290
v -4.296237 2.008426 0.581290
v -4.295320 2.006241 0.580877
v -4.296458 2.007060 0.581905
v -4.296237 2.008426 0.581290
v -4.295320 2.006241 0.580877
v -4.296311 2.009394 0.580120
v -4.295241 2.008623 0.579154
v -4.294922 2.007479 0.580102
v -4.296237 2.008426 0.581290
v -4.296311 2.009394 0.580120
v -4.294922 2.007479 0.580102
v -4.294922 2.007479 0.580102
v -4.295634 2.005270 0.579469
v -4.295320 2.006241 0.580877
v -4.294922 2.007479 0.580102
v -4.295634 2.005270 0.579469
v -4.295241 2.008623 0.579154
v -4.295536 2.007711 0.577830
v -4.295285 2.006358 0.578475
v -4.294922 2.007479 0.580102
v -4.295241 2.008623 0.579154
v -4.295285 2.006358 0.578475
v -4.295285 2.006358 0.578475
v -4.297164 2.004879 0.578740
v -4.295634 2.005270 0.579469
v -4.295285 2.006358 0.578475
v -4.297164 2.004879 0.578740
v -4.295536 2.007711 0.577830
v -4.296975 2.007343 0.577145
v -4.297053 2.005906 0.577633
v -4.295285 2.006358 0.578475
v -4.295536 2.007711 0.577830
v -4.297053 2.005906 0.577633
v -4.297053 2.005906 0.577633
v -4.298758 2.005363 0.579241
v -4.297164 2.004879 0.578740
v -4.297053 2.005906 0.577633
v -4.298758 2.005363 0.579241
v -4.296975 2.007343 0.577145
v -4.298473 2.007798 0.577615
v -4.298894 2.006465 0.578211
v -4.297053 2.005906 0.577633
v -4.296975 2.007343 0.577145
v -4.298894 2.006465 0.578211
v -4.298894 2.006465 0.578211
v -4.299423 2.007612 0.579773
v -4.299215 2.006356 0.580593
v -4.298758 2.005363 0.579241
v -4.298894 2.006465 0.578211
v -4.299215 2.006356 0.580593
v -4.298473 2.007798 0.577615
v -4.298903 2.008732 0.578886
v -4.299423 2.007612 0.579773
v -4.298894 2.006465 0.578211
v -4.298473 2.007798 0.577615
v -4.299423 2.007612 0.579773
v -4.298196 2.009431 0.578247
v -4.297568 2.009895 0.578974
v -4.297941 2.009442 0.580001
v -4.298903 2.008732 0.578886
v -4.298196 2.009431 0.578247
v -4.297941 2.009442 0.580001
v -4.296504 2.009863 0.579052
v -4.297568 2.009895 0.578974
v -4.295805 2.009361 0.578421
v -4.298196 2.009431 0.578247
v -4.295805 2.009361 0.578421
v -4.297568 2.009895 0.578974
v -4.295998 2.008765 0.577557
v -4.295805 2.009361 0.578421
v -4.298196 2.009431 0.578247
v -4.297915 2.008822 0.577417
v -4.295998 2.008765 0.577557
v -4.298196 2.009431 0.578247
v -4.296937 2.008525 0.577110
v -4.295998 2.008765 0.577557
v -4.297915 2.008822 0.577417
v -4.297028 2.001704 0.585264
v -4.296106 2.001040 0.584432
v -4.298432 2.001745 0.585162
v -4.299261 2.001134 0.584202
v -4.298432 2.001745 0.585162
v -4.296106 2.001040 0.584432
v -4.296360 2.000254 0.583291
v -4.299261 2.001134 0.584202
v -4.296106 2.001040 0.584432
v -4.298890 2.000329 0.583107
v -4.299261 2.001134 0.584202
v -4.296360 2.000254 0.583291
v -4.297599 1.999938 0.582701
v -4.298890 2.000329 0.583107
v -4.296360 2.000254 0.583291
vn -0.0662 -0.8147 0.5761
vn -0.3700 0.4822 -0.7941
vn 0.5091 0.4562 -0.7299
vn 0.0785 0.3462 -0.9349
vn -0.4987 0.7617 -0.4136
vn 0.5090 0.4562 -0.7299
vn -0.4987 0.7617 -0.4137
vn 0.5974 0.7293 -0.3336
vn -0.2108 0.9743 -0.0800
vn -0.2108 0.9742 -0.0800
vn 0.2770 0.9598 -0.0444
vn -0.4027 0.8205 0.4056
vn -0.8689 0.4764 -0.1345
vn -0.9781 0.1883 0.0883
vn -0.6605 0.0239 -0.7505
vn -0.7500 -0.3070 -0.5859
vn -0.8689 0.4764 -0.1346
vn -0.9461 -0.1265 0.2981
vn -0.7312 -0.5931 -0.3371
vn -0.7500 -0.3069 -0.5859
vn 0.0656 -0.1962 -0.9784
vn 0.0448 -0.5479 -0.8353
vn -0.6604 0.0239 -0.7505
vn 0.0447 -0.5479 -0.8353
vn 0.0175 -0.8200 -0.5721
vn 0.7626 -0.0182 -0.6466
vn 0.8077 -0.3531 -0.4721
vn 0.0175 -0.8201 -0.5720
vn 0.7363 -0.6365 -0.2299
vn 0.8078 -0.3531 -0.4721
vn 0.9057 0.4239 -0.0050
vn 0.9643 0.1309 0.2301
vn 0.7363 -0.6365 -0.2298
vn 0.9643 0.1308 0.2302
vn 0.8838 -0.1806 0.4317
vn 0.3871 0.7972 0.4633
vn 0.3966 0.5395 0.7427
vn 0.8837 -0.1806 0.4317
vn 0.3966 0.5395 0.7428
vn 0.3490 0.2044 0.9146
vn 0.3966 0.5394 0.7428
vn -0.4027 0.8205 0.4057
vn -0.4678 0.5650 0.6796
vn -0.4026 0.8206 0.4056
vn 0.3489 0.2043 0.9146
vn -0.4654 0.2285 0.8551
vn -0.4679 0.5650 0.6796
vn -0.4678 0.5651 0.6796
vn -0.8688 0.4764 -0.1345
vn -0.4654 0.2284 0.8551
vn -0.4717 0.3033 0.8280
vn -0.9461 -0.1264 0.2981
vn -0.9646 -0.0606 0.2568
vn -0.4716 0.3032 0.8280
vn 0.9118 -0.1161 0.3938
vn 0.3490 0.2043 0.9146
vn 0.3634 0.2786 0.8890
vn 0.0236 -0.7718 -0.6354
vn 0.7362 -0.6365 -0.2299
vn 0.7606 -0.5836 -0.2845
vn 0.0175 -0.8200 -0.5720
vn -0.7312 -0.5931 -0.3370
vn -0.7442 -0.5391 -0.3944
vn 0.3635 0.2786 0.8890
vn 0.7606 -0.5836 -0.2846
vn 0.9118 -0.1161 0.3939
vn -0.7442 -0.5391 -0.3945
vn 0.9057 0.4239 -0.0049
vn 0.2770 0.9598 -0.0443
vn 0.0657 -0.1962 -0.9784
vn -0.8689 0.4763 -0.1346
vn 0.7626 -0.0181 -0.6466
vn -0.6605 0.0238 -0.7505
vn -0.4027 0.8206 0.4056
vn 0.3870 0.7972 0.4633
vn -0.9799 0.1733 0.0990
vn -0.7516 -0.3222 -0.5755
vn -0.9799 0.1734 0.0990
vn -0.9645 -0.0606 0.2569
vn 0.3956 0.5247 0.7538
vn -0.4716 0.3033 0.8280
vn -0.4693 0.5503 0.6906
vn 0.8070 -0.3683 -0.4617
vn 0.9636 0.1158 0.2409
vn 0.7605 -0.5836 -0.2846
vn 0.0435 -0.5633 -0.8251
vn -0.7516 -0.3222 -0.5756
vn 0.0235 -0.7718 -0.6354
vn -0.4693 0.5502 0.6906
vn 0.9636 0.1159 0.2409
vn 0.0436 -0.5633 -0.8251
vn 0.8069 -0.3683 -0.4617
vt 0.543243 0.635056
vt 0.535370 0.641335
vt 0.537796 0.636299
vt 0.537796 0.646370
vt 0.547607 0.638535
vt 0.543243 0.647614
vt 0.547607 0.644127
vt 0.593674 0.671494
vt 0.598511 0.669548
vt 0.596146 0.672157
vt 0.592773 0.669609
vt 0.596436 0.666756
vt 0.592804 0.667854
vt 0.594147 0.666748
vt 0.591187 0.666855
vt 0.590591 0.669838
vt 0.587372 0.669685
vt 0.591782 0.673050
vt 0.588348 0.674789
vt 0.582382 0.669067
vt 0.582687 0.676537
vt 0.595596 0.675606
vt 0.592606 0.680244
vt 0.586334 0.684982
vt 0.603775 0.674767
vt 0.603561 0.686485
vt 0.594009 0.696274
vt 0.603775 0.658051
vt 0.597107 0.663902
vt 0.596405 0.659698
vt 0.602859 0.665543
vt 0.600342 0.651657
vt 0.594193 0.655174
vt 0.593353 0.664742
vt 0.591705 0.661980
vt 0.588959 0.658463
vt 0.588654 0.665283
vt 0.584778 0.662933
vt 0.580322 0.660286
vt 0.576584 0.668175
vt 0.591812 0.651588
vt 0.585907 0.654999
vt 0.579453 0.688484
vt 0.584915 0.699394
vt 0.576157 0.678001
vt 0.597061 0.648293
vt 0.627350 0.682632
vt 0.649124 0.687675
vt 0.627441 0.688225
vt 0.649033 0.682457
vt 0.627441 0.671455
vt 0.649033 0.677231
vt 0.627350 0.677048
vt 0.649124 0.672005
vt 0.627914 0.660294
vt 0.649292 0.666786
vt 0.627625 0.665871
vt 0.649551 0.661568
vt 0.649292 0.692902
vt 0.627625 0.693810
vt 0.649551 0.698120
vt 0.627914 0.699394
s 0
usemtl decorations
f 240/1/1 239/2/1 238/3/1
f 237/1/1 236/4/1 235/2/1
f 234/5/1 233/4/1 232/1/1
f 231/5/1 230/6/1 229/4/1
f 228/6/1 227/5/1 226/7/1
s 1
f 225/8/2 224/9/3 223/10/4
f 222/11/5 221/9/6 220/8/2
f 219/11/7 218/12/8 217/9/3
f 216/13/9 215/12/8 214/11/7
f 213/12/8 212/13/10 211/14/11
f 210/15/12 209/11/7 208/16/13
f 207/15/12 206/13/9 205/11/7
f 204/17/14 203/18/15 202/19/16
f 201/17/14 200/16/17 199/18/15
f 198/20/18 197/19/16 196/21/19
f 195/20/18 194/17/14 193/19/20
f 192/19/16 191/22/21 190/23/22
f 189/19/16 188/18/23 187/22/21
f 186/21/19 185/23/24 184/24/25
f 183/21/19 3/19/16 182/23/24
f 181/23/22 180/25/26 179/26/27
f 178/23/22 177/22/21 176/25/26
f 175/24/28 174/26/27 173/27/29
f 172/24/28 4/23/22 171/26/27
f 170/28/30 169/29/31 168/30/32
f 167/28/30 166/31/26 165/29/31
f 164/32/33 163/30/34 162/33/35
f 161/32/33 13/28/27 160/30/32
f 159/30/32 158/34/36 157/35/37
f 156/30/32 155/29/31 154/34/36
f 153/33/38 152/35/39 151/36/40
f 150/33/38 14/30/32 149/35/39
f 148/35/41 147/15/42 146/37/43
f 145/35/41 144/34/36 143/15/44
f 142/36/45 141/37/43 140/38/46
f 139/36/45 16/35/39 138/37/43
f 137/37/47 136/16/13 135/17/14
f 134/37/48 133/15/12 132/16/49
f 131/38/50 130/17/14 129/20/18
f 128/38/50 36/37/43 25/17/14
f 127/39/51 126/20/52 125/40/53
f 124/39/54 123/38/50 122/20/52
f 121/41/55 120/36/56 119/42/57
f 118/41/55 117/33/38 116/36/56
f 115/43/58 114/27/59 113/44/60
f 112/43/58 111/24/61 110/27/59
f 109/40/53 108/21/62 107/45/63
f 106/40/53 40/20/18 105/21/62
f 104/42/57 103/38/50 102/39/54
f 101/42/64 41/36/56 42/38/50
f 100/46/65 99/33/35 98/41/66
f 97/46/65 37/32/29 38/33/35
f 96/45/67 95/24/61 94/43/58
f 93/45/63 33/21/19 34/24/61
f 92/29/68 91/14/11 90/34/36
f 89/29/68 88/12/8 87/14/69
f 86/22/70 85/9/6 84/25/26
f 83/22/70 82/10/4 81/9/6
f 80/16/17 79/8/2 78/18/15
f 29/16/71 30/11/5 77/8/2
f 76/31/72 75/12/8 28/29/31
f 31/31/26 26/9/6 27/12/8
f 74/18/15 73/10/4 24/22/21
f 21/18/73 22/8/2 23/10/4
f 72/34/36 71/13/9 20/15/74
f 17/34/75 18/14/11 19/13/9
f 70/47/76 69/48/67 68/49/77
f 67/47/78 66/50/79 65/48/63
f 64/51/80 63/52/81 62/53/82
f 61/51/80 60/54/57 59/52/81
f 58/55/83 57/56/66 56/57/84
f 55/55/83 54/58/85 53/56/66
f 52/49/77 51/59/58 50/60/86
f 2/49/87 32/48/63 49/59/88
f 48/53/89 47/50/53 12/47/78
f 9/53/82 10/52/81 11/50/53
f 46/57/84 45/54/57 8/51/80
f 5/57/90 6/56/66 7/54/57
f 44/60/91 43/61/65 15/62/92
f 1/60/91 35/59/58 39/61/85
