# Blender 5.0.0
# www.blender.org
mtllib Circle_005_Circle_004_Dupli_124_decorations_0.mtl
o Circle.005|Circle.004|Dupli|124_decorations_0
v -4.416630 1.663249 0.421322
v -4.415958 1.662239 0.422040
v -4.409258 1.666327 0.422110
v -4.410216 1.667766 0.421087
v -4.416393 1.662483 0.418915
v -4.411695 1.665255 0.418582
v -4.411014 1.664135 0.418697
v -4.415663 1.661285 0.419037
v -4.415184 1.660664 0.420207
v -4.410565 1.663555 0.419790
v -4.410688 1.663952 0.421039
v -4.415315 1.661089 0.421543
v -4.410491 1.667921 0.419103
v -4.409878 1.666674 0.417652
v -4.416823 1.663357 0.419932
v -4.408837 1.664965 0.417827
v -4.407679 1.665916 0.418081
v -4.406971 1.666730 0.418564
v -4.406607 1.666260 0.419451
v -4.407122 1.665195 0.419439
v -4.408022 1.667024 0.421567
v -4.407194 1.667454 0.420839
v -4.407702 1.668218 0.420296
v -4.408801 1.668196 0.420735
v -4.408340 1.664686 0.421402
v -4.407849 1.668300 0.419242
v -4.407523 1.667638 0.418472
v -4.408526 1.667307 0.417939
v -4.407275 1.665689 0.420991
v -4.406706 1.666582 0.420463
v -4.409026 1.668321 0.419120
v -4.411289 1.665028 0.421503
v -4.410532 1.665531 0.421918
v -4.411361 1.666777 0.421033
v -4.411917 1.665971 0.420833
v -4.408152 1.664080 0.419496
v -4.411600 1.666911 0.419315
v -4.411068 1.665832 0.418059
v -4.412097 1.666072 0.419533
v -4.409737 1.664111 0.421305
v -4.410168 1.664352 0.418210
v -4.409575 1.663586 0.419655
v -4.412097 1.666072 0.419533
v -4.416630 1.663249 0.421322
v -4.411014 1.664135 0.418697
v -4.416393 1.662483 0.418915
v -4.410688 1.663952 0.421039
v -4.415184 1.660664 0.420207
v -4.411917 1.665971 0.420833
v -4.416630 1.663249 0.421322
v -4.411917 1.665971 0.420833
v -4.415958 1.662239 0.422040
v -4.411695 1.665255 0.418582
v -4.412097 1.666072 0.419533
v -4.416823 1.663357 0.419932
v -4.416393 1.662483 0.418915
v -4.411695 1.665255 0.418582
v -4.416823 1.663357 0.419932
v -4.410565 1.663555 0.419790
v -4.411014 1.664135 0.418697
v -4.415663 1.661285 0.419037
v -4.415184 1.660664 0.420207
v -4.410565 1.663555 0.419790
v -4.415663 1.661285 0.419037
v -4.411289 1.665028 0.421503
v -4.410688 1.663952 0.421039
v -4.415315 1.661089 0.421543
v -4.415958 1.662239 0.422040
v -4.411289 1.665028 0.421503
v -4.415315 1.661089 0.421543
v -4.406607 1.666260 0.419451
v -4.407679 1.665916 0.418081
v -4.407702 1.668218 0.420296
v -4.408022 1.667024 0.421567
v -4.407523 1.667638 0.418472
v -4.409026 1.668321 0.419120
v -4.407194 1.667454 0.420839
v -4.408022 1.667024 0.421567
v -4.407194 1.667454 0.420839
v -4.407275 1.665689 0.420991
v -4.407849 1.668300 0.419242
v -4.407702 1.668218 0.420296
v -4.408801 1.668196 0.420735
v -4.409026 1.668321 0.419120
v -4.407849 1.668300 0.419242
v -4.408801 1.668196 0.420735
v -4.406971 1.666730 0.418564
v -4.407523 1.667638 0.418472
v -4.408526 1.667307 0.417939
v -4.407679 1.665916 0.418081
v -4.406971 1.666730 0.418564
v -4.408526 1.667307 0.417939
v -4.411289 1.665028 0.421503
v -4.411917 1.665971 0.420833
v -4.411361 1.666777 0.421033
v -4.411289 1.665028 0.421503
v -4.412097 1.666072 0.419533
v -4.411695 1.665255 0.418582
v -4.411068 1.665832 0.418059
v -4.412097 1.666072 0.419533
v -4.411014 1.664135 0.418697
v -4.410565 1.663555 0.419790
v -4.409575 1.663586 0.419655
v -4.411014 1.664135 0.418697
v -4.410532 1.665531 0.421918
v -4.410688 1.663952 0.421039
v -4.411289 1.665028 0.421503
v -4.410532 1.665531 0.421918
v -4.410688 1.663952 0.421039
v -4.411600 1.666911 0.419315
v -4.411361 1.666777 0.421033
v -4.411917 1.665971 0.420833
v -4.412097 1.666072 0.419533
v -4.411600 1.666911 0.419315
v -4.411917 1.665971 0.420833
v -4.410168 1.664352 0.418210
v -4.411068 1.665832 0.418059
v -4.411695 1.665255 0.418582
v -4.411014 1.664135 0.418697
v -4.410168 1.664352 0.418210
v -4.411695 1.665255 0.418582
v -4.409737 1.664111 0.421305
v -4.409575 1.663586 0.419655
v -4.410565 1.663555 0.419790
v -4.410688 1.663952 0.421039
v -4.409737 1.664111 0.421305
v -4.410565 1.663555 0.419790
v -4.409575 1.663586 0.419655
v -4.409737 1.664111 0.421305
v -4.408340 1.664686 0.421402
v -4.409575 1.663586 0.419655
v -4.407275 1.665689 0.420991
v -4.407122 1.665195 0.419439
v -4.408152 1.664080 0.419496
v -4.408340 1.664686 0.421402
v -4.407275 1.665689 0.420991
v -4.408152 1.664080 0.419496
v -4.408152 1.664080 0.419496
v -4.410168 1.664352 0.418210
v -4.409575 1.663586 0.419655
v -4.408152 1.664080 0.419496
v -4.410168 1.664352 0.418210
v -4.407122 1.665195 0.419439
v -4.407679 1.665916 0.418081
v -4.408837 1.664965 0.417827
v -4.408152 1.664080 0.419496
v -4.407122 1.665195 0.419439
v -4.408837 1.664965 0.417827
v -4.408837 1.664965 0.417827
v -4.411068 1.665832 0.418059
v -4.410168 1.664352 0.418210
v -4.408837 1.664965 0.417827
v -4.411068 1.665832 0.418059
v -4.407679 1.665916 0.418081
v -4.408526 1.667307 0.417939
v -4.409878 1.666674 0.417652
v -4.408837 1.664965 0.417827
v -4.407679 1.665916 0.418081
v -4.409878 1.666674 0.417652
v -4.409878 1.666674 0.417652
v -4.411600 1.666911 0.419315
v -4.411068 1.665832 0.418059
v -4.409878 1.666674 0.417652
v -4.411600 1.666911 0.419315
v -4.408526 1.667307 0.417939
v -4.409026 1.668321 0.419120
v -4.410491 1.667921 0.419103
v -4.409878 1.666674 0.417652
v -4.408526 1.667307 0.417939
v -4.410491 1.667921 0.419103
v -4.410491 1.667921 0.419103
v -4.411361 1.666777 0.421033
v -4.411600 1.666911 0.419315
v -4.410491 1.667921 0.419103
v -4.411361 1.666777 0.421033
v -4.409026 1.668321 0.419120
v -4.408801 1.668196 0.420735
v -4.410216 1.667766 0.421087
v -4.410491 1.667921 0.419103
v -4.409026 1.668321 0.419120
v -4.410216 1.667766 0.421087
v -4.410216 1.667766 0.421087
v -4.410532 1.665531 0.421918
v -4.411361 1.666777 0.421033
v -4.410216 1.667766 0.421087
v -4.410532 1.665531 0.421918
v -4.408801 1.668196 0.420735
v -4.408022 1.667024 0.421567
v -4.409258 1.666327 0.422110
v -4.410216 1.667766 0.421087
v -4.408801 1.668196 0.420735
v -4.409258 1.666327 0.422110
v -4.409258 1.666327 0.422110
v -4.408340 1.664686 0.421402
v -4.409737 1.664111 0.421305
v -4.410532 1.665531 0.421918
v -4.409258 1.666327 0.422110
v -4.409737 1.664111 0.421305
v -4.408022 1.667024 0.421567
v -4.407275 1.665689 0.420991
v -4.408340 1.664686 0.421402
v -4.409258 1.666327 0.422110
v -4.408022 1.667024 0.421567
v -4.408340 1.664686 0.421402
v -4.406706 1.666582 0.420463
v -4.406607 1.666260 0.419451
v -4.407122 1.665195 0.419439
v -4.407275 1.665689 0.420991
v -4.406706 1.666582 0.420463
v -4.407122 1.665195 0.419439
v -4.406971 1.666730 0.418564
v -4.406607 1.666260 0.419451
v -4.407523 1.667638 0.418472
v -4.406706 1.666582 0.420463
v -4.407523 1.667638 0.418472
v -4.406607 1.666260 0.419451
v -4.407849 1.668300 0.419242
v -4.407523 1.667638 0.418472
v -4.406706 1.666582 0.420463
v -4.407194 1.667454 0.420839
v -4.407849 1.668300 0.419242
v -4.406706 1.666582 0.420463
v -4.407702 1.668218 0.420296
v -4.407849 1.668300 0.419242
v -4.407194 1.667454 0.420839
v -4.415663 1.661285 0.419037
v -4.416393 1.662483 0.418915
v -4.415184 1.660664 0.420207
v -4.415315 1.661089 0.421543
v -4.415184 1.660664 0.420207
v -4.416393 1.662483 0.418915
v -4.416823 1.663357 0.419932
v -4.415315 1.661089 0.421543
v -4.416393 1.662483 0.418915
v -4.415958 1.662239 0.422040
v -4.415315 1.661089 0.421543
v -4.416823 1.663357 0.419932
v -4.416630 1.663249 0.421322
v -4.415958 1.662239 0.422040
v -4.416823 1.663357 0.419932
vn -0.8550 -0.5126 0.0789
vn 0.7188 0.4883 0.4948
vn 0.4184 0.8766 -0.2376
vn 0.4856 0.8389 0.2457
vn 0.9425 0.0887 0.3223
vn 0.9425 0.0887 0.3224
vn 0.5679 0.5729 -0.5910
vn 0.9881 -0.0589 -0.1420
vn 0.5679 0.5730 -0.5910
vn 0.9881 -0.0589 -0.1419
vn 0.8214 0.1566 -0.5484
vn 0.8055 -0.5715 -0.1565
vn 0.7317 -0.3325 0.5951
vn 0.4511 -0.5736 0.6837
vn 0.3696 0.3144 0.8744
vn 0.0549 0.1345 0.9894
vn 0.4512 -0.5736 0.6837
vn 0.7316 -0.3325 0.5951
vn 0.1061 -0.7315 0.6735
vn -0.2672 -0.0644 0.9615
vn -0.0079 0.8821 0.4710
vn -0.3584 0.7559 0.5478
vn -0.2673 -0.0644 0.9615
vn -0.3583 0.7559 0.5479
vn -0.6565 0.5210 0.5455
vn -0.1168 0.9431 -0.3113
vn -0.4775 0.8227 -0.3085
vn -0.0080 0.8821 0.4710
vn -0.1167 0.9431 -0.3113
vn -0.6566 0.5209 0.5455
vn -0.7687 0.5839 -0.2612
vn -0.4775 0.8227 -0.3086
vn 0.1251 0.4515 -0.8835
vn -0.2126 0.2846 -0.9348
vn 0.1252 0.4515 -0.8834
vn -0.7687 0.5838 -0.2612
vn -0.2127 0.2846 -0.9348
vn -0.5192 0.0769 -0.8512
vn 0.5356 -0.2225 -0.8146
vn 0.2367 -0.4533 -0.8594
vn 0.1252 0.4515 -0.8835
vn -0.0959 -0.6182 -0.7802
vn 0.8055 -0.5715 -0.1566
vn 0.5321 -0.8352 -0.1391
vn 0.5356 -0.2226 -0.8146
vn -0.0960 -0.6182 -0.7801
vn 0.1824 -0.9780 -0.1017
vn 0.5321 -0.8352 -0.1390
vn 0.1823 -0.9780 -0.1016
vn 0.1062 -0.7315 0.6735
vn 0.2595 -0.9594 -0.1108
vn 0.1813 -0.7067 0.6839
vn 0.2594 -0.9594 -0.1108
vn 0.1824 -0.9780 -0.1016
vn -0.4599 0.1223 -0.8795
vn -0.0960 -0.6182 -0.7802
vn -0.0259 -0.5905 -0.8066
vn -0.5193 0.0769 -0.8512
vn -0.6007 0.5776 0.5527
vn -0.7158 0.6421 -0.2745
vn -0.2672 -0.0645 0.9615
vn -0.2015 -0.0227 0.9792
vn 0.1061 -0.7316 0.6735
vn -0.0259 -0.5904 -0.8067
vn 0.2594 -0.9594 -0.1109
vn -0.7157 0.6421 -0.2745
vn -0.7687 0.5838 -0.2613
vn -0.2015 -0.0226 0.9792
vn -0.6565 0.5209 0.5455
vn -0.6008 0.5776 0.5527
vn 0.1252 0.4514 -0.8835
vn 0.5679 0.5730 -0.5909
vn 0.8214 0.1565 -0.5484
vn 0.4185 0.8766 -0.2376
vn 0.7316 -0.3325 0.5952
vn 0.7189 0.4883 0.4948
vn 0.3695 0.3144 0.8744
vn 0.5357 -0.2226 -0.8146
vn 0.4356 -0.5834 0.6855
vn 0.0391 0.1251 0.9914
vn 0.4356 -0.5833 0.6855
vn 0.2210 -0.4630 -0.8583
vn 0.2595 -0.9594 -0.1109
vn 0.5166 -0.8451 -0.1377
vn -0.4935 0.8136 -0.3073
vn -0.2286 0.2753 -0.9338
vn -0.4935 0.8137 -0.3073
vn -0.3744 0.7468 0.5496
vn 0.5165 -0.8451 -0.1377
vn 0.2210 -0.4630 -0.8584
vn -0.2285 0.2753 -0.9338
vn -0.7157 0.6422 -0.2745
vn -0.4935 0.8137 -0.3072
vn -0.3744 0.7469 0.5496
vt 0.530319 0.635056
vt 0.522446 0.641335
vt 0.524872 0.636299
vt 0.524872 0.646370
vt 0.534683 0.638535
vt 0.530319 0.647614
vt 0.534683 0.644127
vt 0.508789 0.671494
vt 0.513626 0.669548
vt 0.511276 0.672157
vt 0.507889 0.669609
vt 0.511566 0.666756
vt 0.507935 0.667854
vt 0.509277 0.666748
vt 0.506302 0.666855
vt 0.505722 0.669838
vt 0.502487 0.669685
vt 0.506897 0.673050
vt 0.503479 0.674789
vt 0.497520 0.669067
vt 0.497810 0.676537
vt 0.510727 0.675606
vt 0.507721 0.680244
vt 0.501465 0.684982
vt 0.518890 0.674767
vt 0.518692 0.686485
vt 0.509125 0.696274
vt 0.518890 0.658051
vt 0.512238 0.663902
vt 0.511536 0.659698
vt 0.517990 0.665543
vt 0.515472 0.651657
vt 0.509323 0.655174
vt 0.508469 0.664742
vt 0.506836 0.661980
vt 0.504074 0.658463
vt 0.503784 0.665283
vt 0.499901 0.662933
vt 0.495453 0.660286
vt 0.491707 0.668175
vt 0.506927 0.651588
vt 0.501038 0.654999
vt 0.494583 0.688484
vt 0.500031 0.699394
vt 0.491287 0.678001
vt 0.512177 0.648293
vt 0.627350 0.642853
vt 0.649124 0.647896
vt 0.627441 0.648445
vt 0.649033 0.642670
vt 0.627441 0.631676
vt 0.649033 0.637444
vt 0.627350 0.637268
vt 0.649124 0.632225
vt 0.627914 0.620506
vt 0.649292 0.626999
vt 0.627625 0.626091
vt 0.649551 0.621780
vt 0.649292 0.653114
vt 0.627625 0.654030
vt 0.649551 0.658333
vt 0.627914 0.659607
s 0
usemtl decorations
f 240/1/1 239/2/1 238/3/1
f 237/1/1 236/4/1 235/2/1
f 234/5/1 233/4/1 232/1/1
f 231/5/1 230/6/1 229/4/1
f 228/6/1 227/5/1 226/7/1
s 1
f 225/8/2 224/9/3 223/10/4
f 222/11/5 221/9/3 220/8/2
f 219/11/6 218/12/7 217/9/3
f 216/13/8 215/12/9 214/11/5
f 213/12/7 212/13/10 211/14/11
f 210/15/12 209/11/5 208/16/13
f 207/15/12 206/13/8 205/11/5
f 204/17/14 203/18/15 202/19/16
f 201/17/17 200/16/18 199/18/15
f 198/20/19 197/19/16 196/21/20
f 195/20/19 194/17/17 193/19/16
f 192/19/16 191/22/21 190/23/22
f 189/19/16 188/18/15 187/22/21
f 186/21/23 185/23/24 184/24/25
f 183/21/20 3/19/16 182/23/24
f 181/23/22 180/25/26 179/26/27
f 178/23/22 177/22/28 176/25/29
f 175/24/30 174/26/27 173/27/31
f 172/24/30 4/23/22 171/26/27
f 170/28/32 169/29/33 168/30/34
f 167/28/32 166/31/26 165/29/35
f 164/32/36 163/30/37 162/33/38
f 161/32/36 13/28/27 160/30/34
f 159/30/34 158/34/39 157/35/40
f 156/30/34 155/29/41 154/34/39
f 153/33/38 152/35/40 151/36/42
f 150/33/38 14/30/34 149/35/40
f 148/35/40 147/15/43 146/37/44
f 145/35/40 144/34/45 143/15/43
f 142/36/46 141/37/44 140/38/47
f 139/36/46 16/35/40 138/37/44
f 137/37/48 136/16/18 135/17/17
f 134/37/44 133/15/12 132/16/13
f 131/38/49 130/17/17 129/20/50
f 128/38/49 36/37/44 25/17/17
f 127/39/51 126/20/50 125/40/52
f 124/39/53 123/38/54 122/20/50
f 121/41/55 120/36/56 119/42/57
f 118/41/55 117/33/58 116/36/56
f 115/43/59 114/27/31 113/44/60
f 112/43/59 111/24/25 110/27/31
f 109/40/52 108/21/61 107/45/62
f 106/40/52 40/20/63 105/21/61
f 104/42/64 103/38/54 102/39/65
f 101/42/64 41/36/56 42/38/54
f 100/46/66 99/33/38 98/41/55
f 97/46/60 37/32/67 38/33/38
f 96/45/68 95/24/69 94/43/70
f 93/45/62 33/21/20 34/24/69
f 92/29/71 91/14/11 90/34/45
f 89/29/71 88/12/72 87/14/73
f 86/22/28 85/9/74 84/25/29
f 83/22/28 82/10/4 81/9/74
f 80/16/75 79/8/2 78/18/15
f 29/16/75 30/11/5 77/8/76
f 76/31/29 75/12/7 28/29/35
f 31/31/29 26/9/74 27/12/72
f 74/18/77 73/10/4 24/22/28
f 21/18/77 22/8/76 23/10/4
f 72/34/78 71/13/10 20/15/12
f 17/34/78 18/14/11 19/13/8
f 70/47/79 69/48/68 68/49/80
f 67/47/81 66/50/52 65/48/62
f 64/51/82 63/52/83 62/53/84
f 61/51/82 60/54/57 59/52/65
f 58/55/85 57/56/55 56/57/86
f 55/55/87 54/58/60 53/56/55
f 52/49/80 51/59/59 50/60/88
f 2/49/80 32/48/62 49/59/59
f 48/53/89 47/50/52 12/47/79
f 9/53/84 10/52/83 11/50/52
f 46/57/86 45/54/57 8/51/90
f 5/57/91 6/56/55 7/54/57
f 44/60/88 43/61/92 15/62/93
f 1/60/94 35/59/70 39/61/60
