# Blender 5.0.0
# www.blender.org
mtllib Circle_005_Circle_Dupli_151_decorations_0.mtl
o Circle.005|Circle|Dupli|151_decorations_0
v -4.718634 0.802782 0.526867
v -4.717551 0.802043 0.526353
v -4.713737 0.808555 0.524195
v -4.715282 0.809610 0.524928
v -4.720261 0.802827 0.524920
v -4.717872 0.807407 0.523136
v -4.717236 0.806726 0.522206
v -4.719580 0.802098 0.523926
v -4.718309 0.801494 0.523995
v -4.716048 0.806161 0.522271
v -4.715204 0.806138 0.523281
v -4.717406 0.801470 0.525075
v -4.717003 0.810108 0.524017
v -4.717604 0.809673 0.522150
v -4.719840 0.803131 0.526229
v -4.716632 0.808634 0.520731
v -4.715812 0.809909 0.520623
v -4.715083 0.810809 0.520866
v -4.714120 0.810351 0.520919
v -4.714337 0.809208 0.520704
v -4.713457 0.809845 0.523442
v -4.713546 0.810767 0.522706
v -4.714366 0.811327 0.523095
v -4.714714 0.810703 0.524038
v -4.713531 0.807737 0.522371
v -4.715280 0.811591 0.522611
v -4.715599 0.811361 0.521620
v -4.716603 0.810755 0.521778
v -4.713289 0.809179 0.521958
v -4.713437 0.810332 0.521737
v -4.716115 0.811108 0.523298
v -4.715339 0.806674 0.524476
v -4.714598 0.807345 0.524491
v -4.715936 0.808258 0.525125
v -4.716351 0.807365 0.524956
v -4.714819 0.807772 0.520830
v -4.717425 0.808689 0.524338
v -4.717945 0.808313 0.522721
v -4.717479 0.807691 0.524360
v -4.714420 0.806637 0.522913
v -4.717104 0.807414 0.521493
v -4.715535 0.806668 0.521578
v -4.717479 0.807691 0.524360
v -4.718634 0.802782 0.526867
v -4.717236 0.806726 0.522206
v -4.720261 0.802827 0.524920
v -4.715204 0.806138 0.523281
v -4.718309 0.801494 0.523995
v -4.716351 0.807365 0.524956
v -4.718634 0.802782 0.526867
v -4.716351 0.807365 0.524956
v -4.717551 0.802043 0.526353
v -4.717872 0.807407 0.523136
v -4.717479 0.807691 0.524360
v -4.719840 0.803131 0.526229
v -4.720261 0.802827 0.524920
v -4.717872 0.807407 0.523136
v -4.719840 0.803131 0.526229
v -4.716048 0.806161 0.522271
v -4.717236 0.806726 0.522206
v -4.719580 0.802098 0.523926
v -4.718309 0.801494 0.523995
v -4.716048 0.806161 0.522271
v -4.719580 0.802098 0.523926
v -4.715339 0.806674 0.524476
v -4.715204 0.806138 0.523281
v -4.717406 0.801470 0.525075
v -4.717551 0.802043 0.526353
v -4.715339 0.806674 0.524476
v -4.717406 0.801470 0.525075
v -4.714120 0.810351 0.520919
v -4.715812 0.809909 0.520623
v -4.714366 0.811327 0.523095
v -4.713457 0.809845 0.523442
v -4.715599 0.811361 0.521620
v -4.716115 0.811108 0.523298
v -4.713546 0.810767 0.522706
v -4.713457 0.809845 0.523442
v -4.713546 0.810767 0.522706
v -4.713289 0.809179 0.521958
v -4.715280 0.811591 0.522611
v -4.714366 0.811327 0.523095
v -4.714714 0.810703 0.524038
v -4.716115 0.811108 0.523298
v -4.715280 0.811591 0.522611
v -4.714714 0.810703 0.524038
v -4.715083 0.810809 0.520866
v -4.715599 0.811361 0.521620
v -4.716603 0.810755 0.521778
v -4.715812 0.809909 0.520623
v -4.715083 0.810809 0.520866
v -4.716603 0.810755 0.521778
v -4.715339 0.806674 0.524476
v -4.716351 0.807365 0.524956
v -4.715936 0.808258 0.525125
v -4.715339 0.806674 0.524476
v -4.717479 0.807691 0.524360
v -4.717872 0.807407 0.523136
v -4.717945 0.808313 0.522721
v -4.717479 0.807691 0.524360
v -4.717236 0.806726 0.522206
v -4.716048 0.806161 0.522271
v -4.715535 0.806668 0.521578
v -4.717236 0.806726 0.522206
v -4.714598 0.807345 0.524491
v -4.715204 0.806138 0.523281
v -4.715339 0.806674 0.524476
v -4.714598 0.807345 0.524491
v -4.715204 0.806138 0.523281
v -4.717425 0.808689 0.524338
v -4.715936 0.808258 0.525125
v -4.716351 0.807365 0.524956
v -4.717479 0.807691 0.524360
v -4.717425 0.808689 0.524338
v -4.716351 0.807365 0.524956
v -4.717104 0.807414 0.521493
v -4.717945 0.808313 0.522721
v -4.717872 0.807407 0.523136
v -4.717236 0.806726 0.522206
v -4.717104 0.807414 0.521493
v -4.717872 0.807407 0.523136
v -4.714420 0.806637 0.522913
v -4.715535 0.806668 0.521578
v -4.716048 0.806161 0.522271
v -4.715204 0.806138 0.523281
v -4.714420 0.806637 0.522913
v -4.716048 0.806161 0.522271
v -4.715535 0.806668 0.521578
v -4.714420 0.806637 0.522913
v -4.713531 0.807737 0.522371
v -4.715535 0.806668 0.521578
v -4.713289 0.809179 0.521958
v -4.714337 0.809208 0.520704
v -4.714819 0.807772 0.520830
v -4.713531 0.807737 0.522371
v -4.713289 0.809179 0.521958
v -4.714819 0.807772 0.520830
v -4.714819 0.807772 0.520830
v -4.717104 0.807414 0.521493
v -4.715535 0.806668 0.521578
v -4.714819 0.807772 0.520830
v -4.717104 0.807414 0.521493
v -4.714337 0.809208 0.520704
v -4.715812 0.809909 0.520623
v -4.716632 0.808634 0.520731
v -4.714819 0.807772 0.520830
v -4.714337 0.809208 0.520704
v -4.716632 0.808634 0.520731
v -4.716632 0.808634 0.520731
v -4.717945 0.808313 0.522721
v -4.717104 0.807414 0.521493
v -4.716632 0.808634 0.520731
v -4.717945 0.808313 0.522721
v -4.715812 0.809909 0.520623
v -4.716603 0.810755 0.521778
v -4.717604 0.809673 0.522150
v -4.716632 0.808634 0.520731
v -4.715812 0.809909 0.520623
v -4.717604 0.809673 0.522150
v -4.717604 0.809673 0.522150
v -4.717425 0.808689 0.524338
v -4.717945 0.808313 0.522721
v -4.717604 0.809673 0.522150
v -4.717425 0.808689 0.524338
v -4.716603 0.810755 0.521778
v -4.716115 0.811108 0.523298
v -4.717003 0.810108 0.524017
v -4.717604 0.809673 0.522150
v -4.716603 0.810755 0.521778
v -4.717003 0.810108 0.524017
v -4.717003 0.810108 0.524017
v -4.715936 0.808258 0.525125
v -4.717425 0.808689 0.524338
v -4.717003 0.810108 0.524017
v -4.715936 0.808258 0.525125
v -4.716115 0.811108 0.523298
v -4.714714 0.810703 0.524038
v -4.715282 0.809610 0.524928
v -4.717003 0.810108 0.524017
v -4.716115 0.811108 0.523298
v -4.715282 0.809610 0.524928
v -4.715282 0.809610 0.524928
v -4.714598 0.807345 0.524491
v -4.715936 0.808258 0.525125
v -4.715282 0.809610 0.524928
v -4.714598 0.807345 0.524491
v -4.714714 0.810703 0.524038
v -4.713457 0.809845 0.523442
v -4.713737 0.808555 0.524195
v -4.715282 0.809610 0.524928
v -4.714714 0.810703 0.524038
v -4.713737 0.808555 0.524195
v -4.713737 0.808555 0.524195
v -4.713531 0.807737 0.522371
v -4.714420 0.806637 0.522913
v -4.714598 0.807345 0.524491
v -4.713737 0.808555 0.524195
v -4.714420 0.806637 0.522913
v -4.713457 0.809845 0.523442
v -4.713289 0.809179 0.521958
v -4.713531 0.807737 0.522371
v -4.713737 0.808555 0.524195
v -4.713457 0.809845 0.523442
v -4.713531 0.807737 0.522371
v -4.713437 0.810332 0.521737
v -4.714120 0.810351 0.520919
v -4.714337 0.809208 0.520704
v -4.713289 0.809179 0.521958
v -4.713437 0.810332 0.521737
v -4.714337 0.809208 0.520704
v -4.715083 0.810809 0.520866
v -4.714120 0.810351 0.520919
v -4.715599 0.811361 0.521620
v -4.713437 0.810332 0.521737
v -4.715599 0.811361 0.521620
v -4.714120 0.810351 0.520919
v -4.715280 0.811591 0.522611
v -4.715599 0.811361 0.521620
v -4.713437 0.810332 0.521737
v -4.713546 0.810767 0.522706
v -4.715280 0.811591 0.522611
v -4.713437 0.810332 0.521737
v -4.714366 0.811327 0.523095
v -4.715280 0.811591 0.522611
v -4.713546 0.810767 0.522706
v -4.719580 0.802098 0.523926
v -4.720261 0.802827 0.524920
v -4.718309 0.801494 0.523995
v -4.717406 0.801470 0.525075
v -4.718309 0.801494 0.523995
v -4.720261 0.802827 0.524920
v -4.719840 0.803131 0.526229
v -4.717406 0.801470 0.525075
v -4.720261 0.802827 0.524920
v -4.717551 0.802043 0.526353
v -4.717406 0.801470 0.525075
v -4.719840 0.803131 0.526229
v -4.718634 0.802782 0.526867
v -4.717551 0.802043 0.526353
v -4.719840 0.803131 0.526229
vn -0.4197 -0.8449 0.3315
vn 0.7797 0.6211 0.0791
vn -0.0157 0.9992 0.0358
vn 0.4035 0.8780 0.2575
vn 0.8299 0.4219 -0.3651
vn -0.0156 0.9992 0.0359
vn 0.8299 0.4219 -0.3650
vn -0.1619 0.8935 -0.4189
vn 0.5161 0.4305 -0.7404
vn -0.1619 0.8935 -0.4190
vn 0.5162 0.4305 -0.7404
vn 0.0748 0.6403 -0.7644
vn 0.4458 -0.0879 -0.8908
vn 0.9537 -0.1017 -0.2831
vn 0.8299 0.4220 -0.3650
vn 0.8722 -0.4570 -0.1743
vn 0.8725 0.2206 0.4360
vn 0.7834 -0.1040 0.6127
vn 0.8723 -0.4569 -0.1743
vn 0.9537 -0.1018 -0.2831
vn 0.8725 0.2207 0.4359
vn 0.6651 -0.7456 -0.0405
vn 0.7834 -0.1040 0.6128
vn 0.5814 -0.4131 0.7009
vn 0.2633 0.6366 0.7248
vn 0.1166 0.3513 0.9290
vn 0.8725 0.2207 0.4360
vn -0.0467 0.0158 0.9988
vn -0.4152 0.8329 0.3660
vn -0.6261 0.5661 0.5362
vn 0.2633 0.6366 0.7249
vn -0.4151 0.8329 0.3660
vn -0.0468 0.0158 0.9988
vn -0.7464 0.2182 0.6288
vn -0.6520 0.6616 -0.3703
vn -0.8853 0.3787 -0.2698
vn -0.6520 0.6617 -0.3703
vn -0.7464 0.2181 0.6287
vn -0.8853 0.3787 -0.2697
vn -0.9906 0.0416 -0.1305
vn -0.8853 0.3788 -0.2697
vn -0.2689 0.2519 -0.9296
vn -0.4659 -0.0698 -0.8821
vn -0.5955 -0.3809 -0.7073
vn -0.4659 -0.0699 -0.8821
vn 0.4457 -0.0879 -0.8909
vn 0.3163 -0.4417 -0.8396
vn -0.2689 0.2519 -0.9297
vn 0.4457 -0.0878 -0.8909
vn -0.5955 -0.3810 -0.7073
vn 0.1414 -0.7312 -0.6673
vn 0.3163 -0.4417 -0.8395
vn 0.3163 -0.4418 -0.8395
vn 0.4457 -0.0879 -0.8908
vn 0.1414 -0.7313 -0.6672
vn 0.6652 -0.7456 -0.0406
vn 0.1806 -0.6783 -0.7123
vn 0.7176 -0.6929 -0.0697
vn 0.1414 -0.7313 -0.6673
vn -0.9802 0.1143 -0.1619
vn -0.5750 -0.3190 -0.7534
vn -0.0124 0.0878 0.9961
vn -0.7463 0.2182 0.6288
vn -0.7298 0.2953 0.6166
vn 0.7177 -0.6929 -0.0697
vn 0.5815 -0.4131 0.7009
vn 0.6318 -0.3521 0.6906
vn 0.6651 -0.7456 -0.0406
vn 0.1805 -0.6783 -0.7123
vn -0.5751 -0.3190 -0.7534
vn -0.7297 0.2954 0.6166
vn -0.7297 0.2953 0.6166
vn -0.7464 0.2182 0.6287
vn 0.6318 -0.3520 0.6906
vn 0.0748 0.6404 -0.7644
vn -0.6520 0.6616 -0.3704
vn 0.0748 0.6403 -0.7645
vn 0.2633 0.6367 0.7248
vn 0.9537 -0.1018 -0.2830
vn -0.2688 0.2519 -0.9297
vn 0.8650 -0.4728 -0.1682
vn 0.7761 -0.1197 0.6192
vn 0.8650 -0.4728 -0.1683
vn -0.4739 -0.0855 -0.8764
vn 0.1806 -0.6782 -0.7123
vn 0.3086 -0.4576 -0.8339
vn -0.6342 0.5508 0.5426
vn -0.9802 0.1143 -0.1620
vn -0.8936 0.3633 -0.2637
vn -0.7297 0.2953 0.6167
vn 0.7760 -0.1197 0.6192
vn -0.0123 0.0878 0.9961
vn 0.1089 0.3358 0.9356
vn 0.7760 -0.1196 0.6192
vn 0.3087 -0.4576 -0.8339
vn -0.8936 0.3633 -0.2638
vn -0.8935 0.3633 -0.2638
vn -0.7297 0.2954 0.6167
vn 0.1089 0.3359 0.9356
vt 0.543243 0.611839
vt 0.535370 0.618118
vt 0.537796 0.613083
vt 0.537796 0.623154
vt 0.547607 0.615326
vt 0.543243 0.624397
vt 0.547607 0.620918
vt 0.565384 0.671494
vt 0.570206 0.669548
vt 0.567856 0.672157
vt 0.564468 0.669609
vt 0.568146 0.666756
vt 0.564514 0.667854
vt 0.565857 0.666748
vt 0.562897 0.666855
vt 0.562302 0.669838
vt 0.559082 0.669685
vt 0.563492 0.673050
vt 0.560059 0.674789
vt 0.554092 0.669067
vt 0.554398 0.676537
vt 0.567307 0.675606
vt 0.564316 0.680244
vt 0.558044 0.684982
vt 0.575485 0.674767
vt 0.575272 0.686485
vt 0.565720 0.696274
vt 0.575485 0.658051
vt 0.568817 0.663902
vt 0.568115 0.659698
vt 0.574570 0.665543
vt 0.572052 0.651657
vt 0.565903 0.655174
vt 0.565063 0.664742
vt 0.563416 0.661980
vt 0.560669 0.658463
vt 0.560364 0.665283
vt 0.556488 0.662933
vt 0.552032 0.660286
vt 0.548294 0.668175
vt 0.563522 0.651588
vt 0.557617 0.654999
vt 0.551163 0.688484
vt 0.556610 0.699394
vt 0.547867 0.678001
vt 0.568756 0.648293
vt 0.604446 0.682632
vt 0.626221 0.687675
vt 0.604553 0.688225
vt 0.626144 0.682457
vt 0.604553 0.671455
vt 0.626144 0.677231
vt 0.604446 0.677048
vt 0.626221 0.672005
vt 0.605011 0.660294
vt 0.626404 0.666786
vt 0.604736 0.665871
vt 0.626663 0.661568
vt 0.626404 0.692902
vt 0.604736 0.693810
vt 0.626663 0.698120
vt 0.605011 0.699394
s 0
usemtl decorations
f 240/1/1 239/2/1 238/3/1
f 237/1/1 236/4/1 235/2/1
f 234/5/1 233/4/1 232/1/1
f 231/5/1 230/6/1 229/4/1
f 228/6/1 227/5/1 226/7/1
s 1
f 225/8/2 224/9/3 223/10/4
f 222/11/5 221/9/6 220/8/2
f 219/11/7 218/12/8 217/9/3
f 216/13/9 215/12/8 214/11/7
f 213/12/10 212/13/11 211/14/12
f 210/15/13 209/11/7 208/16/14
f 207/15/13 206/13/9 205/11/15
f 204/17/16 203/18/17 202/19/18
f 201/17/19 200/16/20 199/18/21
f 198/20/22 197/19/23 196/21/24
f 195/20/22 194/17/19 193/19/18
f 192/19/23 191/22/25 190/23/26
f 189/19/18 188/18/27 187/22/25
f 186/21/24 185/23/26 184/24/28
f 183/21/24 3/19/23 182/23/26
f 181/23/26 180/25/29 179/26/30
f 178/23/26 177/22/31 176/25/32
f 175/24/33 174/26/30 173/27/34
f 172/24/33 4/23/26 171/26/30
f 170/28/30 169/29/35 168/30/36
f 167/28/30 166/31/29 165/29/37
f 164/32/38 163/30/39 162/33/40
f 161/32/38 13/28/30 160/30/41
f 159/30/36 158/34/42 157/35/43
f 156/30/36 155/29/35 154/34/42
f 153/33/40 152/35/43 151/36/44
f 150/33/40 14/30/36 149/35/45
f 148/35/45 147/15/46 146/37/47
f 145/35/45 144/34/48 143/15/49
f 142/36/50 141/37/47 140/38/51
f 139/36/50 16/35/45 138/37/52
f 137/37/53 136/16/20 135/17/19
f 134/37/47 133/15/54 132/16/14
f 131/38/55 130/17/19 129/20/56
f 128/38/55 36/37/47 25/17/19
f 127/39/57 126/20/56 125/40/58
f 124/39/57 123/38/59 122/20/56
f 121/41/60 120/36/44 119/42/61
f 118/41/60 117/33/40 116/36/44
f 115/43/62 114/27/63 113/44/64
f 112/43/62 111/24/33 110/27/63
f 109/40/65 108/21/66 107/45/67
f 106/40/58 40/20/68 105/21/66
f 104/42/61 103/38/59 102/39/69
f 101/42/70 41/36/44 42/38/59
f 100/46/71 99/33/40 98/41/60
f 97/46/72 37/32/73 38/33/40
f 96/45/74 95/24/28 94/43/62
f 93/45/74 33/21/24 34/24/28
f 92/29/35 91/14/75 90/34/48
f 89/29/76 88/12/8 87/14/77
f 86/22/78 85/9/6 84/25/32
f 83/22/25 82/10/4 81/9/6
f 80/16/79 79/8/2 78/18/21
f 29/16/79 30/11/5 77/8/2
f 76/31/32 75/12/8 28/29/37
f 31/31/29 26/9/6 27/12/8
f 74/18/17 73/10/4 24/22/25
f 21/18/17 22/8/2 23/10/4
f 72/34/80 71/13/11 20/15/54
f 17/34/80 18/14/75 19/13/9
f 70/47/81 69/48/74 68/49/82
f 67/47/83 66/50/58 65/48/74
f 64/51/84 63/52/85 62/53/86
f 61/51/84 60/54/61 59/52/69
f 58/55/87 57/56/88 56/57/89
f 55/55/87 54/58/90 53/56/60
f 52/49/91 51/59/92 50/60/93
f 2/49/94 32/48/74 49/59/92
f 48/53/95 47/50/58 12/47/83
f 9/53/95 10/52/85 11/50/58
f 46/57/96 45/54/61 8/51/84
f 5/57/97 6/56/60 7/54/61
f 44/60/93 43/61/98 15/62/87
f 1/60/99 35/59/62 39/61/90
