# Blender 5.0.0
# www.blender.org
mtllib Circle_005_Circle_004_Dupli_104_decorations_0.mtl
o Circle.005|Circle.004|Dupli|104_decorations_0
v -4.685822 0.546191 0.697602
v -4.686153 0.545218 0.696640
v -4.693249 0.548360 0.695464
v -4.692776 0.549749 0.696837
v -4.686443 0.545060 0.699787
v -4.691484 0.547116 0.699322
v -4.691937 0.545945 0.698927
v -4.686928 0.543807 0.699364
v -4.687040 0.543306 0.698053
v -4.692042 0.545476 0.697701
v -4.691720 0.546063 0.696567
v -4.686695 0.543934 0.696840
v -4.692960 0.549648 0.698836
v -4.693663 0.548135 0.699955
v -4.685951 0.546121 0.699002
v -4.694354 0.546347 0.699352
v -4.695568 0.547165 0.698942
v -4.696278 0.547941 0.698401
v -4.696362 0.547562 0.697407
v -4.695698 0.546583 0.697419
v -4.694668 0.548803 0.695779
v -4.695691 0.549010 0.696336
v -4.695439 0.549748 0.697066
v -4.694283 0.549933 0.696896
v -4.694023 0.546528 0.695751
v -4.695538 0.549695 0.698127
v -4.695910 0.548891 0.698721
v -4.695005 0.548620 0.699432
v -4.695298 0.547312 0.696012
v -4.696101 0.548037 0.696488
v -4.694433 0.549852 0.698522
v -4.691213 0.547264 0.696379
v -4.691935 0.547719 0.695858
v -4.691526 0.548921 0.697047
v -4.690904 0.548174 0.697279
v -4.694514 0.545632 0.697481
v -4.691685 0.548834 0.698776
v -4.692293 0.547523 0.699745
v -4.691024 0.548108 0.698588
v -4.692605 0.546133 0.696106
v -4.692892 0.545976 0.699223
v -4.693030 0.545357 0.697604
v -4.691024 0.548108 0.698588
v -4.685822 0.546191 0.697602
v -4.691937 0.545945 0.698927
v -4.686443 0.545060 0.699787
v -4.691720 0.546063 0.696567
v -4.687040 0.543306 0.698053
v -4.690904 0.548174 0.697279
v -4.685822 0.546191 0.697602
v -4.690904 0.548174 0.697279
v -4.686153 0.545218 0.696640
v -4.691484 0.547116 0.699322
v -4.691024 0.548108 0.698588
v -4.685951 0.546121 0.699002
v -4.686443 0.545060 0.699787
v -4.691484 0.547116 0.699322
v -4.685951 0.546121 0.699002
v -4.692042 0.545476 0.697701
v -4.691937 0.545945 0.698927
v -4.686928 0.543807 0.699364
v -4.687040 0.543306 0.698053
v -4.692042 0.545476 0.697701
v -4.686928 0.543807 0.699364
v -4.691213 0.547264 0.696379
v -4.691720 0.546063 0.696567
v -4.686695 0.543934 0.696840
v -4.686153 0.545218 0.696640
v -4.691213 0.547264 0.696379
v -4.686695 0.543934 0.696840
v -4.696362 0.547562 0.697407
v -4.695568 0.547165 0.698942
v -4.695439 0.549748 0.697066
v -4.694668 0.548803 0.695779
v -4.695910 0.548891 0.698721
v -4.694433 0.549852 0.698522
v -4.695691 0.549010 0.696336
v -4.694668 0.548803 0.695779
v -4.695691 0.549010 0.696336
v -4.695298 0.547312 0.696012
v -4.695538 0.549695 0.698127
v -4.695439 0.549748 0.697066
v -4.694283 0.549933 0.696896
v -4.694433 0.549852 0.698522
v -4.695538 0.549695 0.698127
v -4.694283 0.549933 0.696896
v -4.696278 0.547941 0.698401
v -4.695910 0.548891 0.698721
v -4.695005 0.548620 0.699432
v -4.695568 0.547165 0.698942
v -4.696278 0.547941 0.698401
v -4.695005 0.548620 0.699432
v -4.691213 0.547264 0.696379
v -4.690904 0.548174 0.697279
v -4.691526 0.548921 0.697047
v -4.691213 0.547264 0.696379
v -4.691024 0.548108 0.698588
v -4.691484 0.547116 0.699322
v -4.692293 0.547523 0.699745
v -4.691024 0.548108 0.698588
v -4.691937 0.545945 0.698927
v -4.692042 0.545476 0.697701
v -4.693030 0.545357 0.697604
v -4.691937 0.545945 0.698927
v -4.691935 0.547719 0.695858
v -4.691720 0.546063 0.696567
v -4.691213 0.547264 0.696379
v -4.691935 0.547719 0.695858
v -4.691720 0.546063 0.696567
v -4.691685 0.548834 0.698776
v -4.691526 0.548921 0.697047
v -4.690904 0.548174 0.697279
v -4.691024 0.548108 0.698588
v -4.691685 0.548834 0.698776
v -4.690904 0.548174 0.697279
v -4.692892 0.545976 0.699223
v -4.692293 0.547523 0.699745
v -4.691484 0.547116 0.699322
v -4.691937 0.545945 0.698927
v -4.692892 0.545976 0.699223
v -4.691484 0.547116 0.699322
v -4.692605 0.546133 0.696106
v -4.693030 0.545357 0.697604
v -4.692042 0.545476 0.697701
v -4.691720 0.546063 0.696567
v -4.692605 0.546133 0.696106
v -4.692042 0.545476 0.697701
v -4.693030 0.545357 0.697604
v -4.692605 0.546133 0.696106
v -4.694023 0.546528 0.695751
v -4.693030 0.545357 0.697604
v -4.695298 0.547312 0.696012
v -4.695698 0.546583 0.697419
v -4.694514 0.545632 0.697481
v -4.694023 0.546528 0.695751
v -4.695298 0.547312 0.696012
v -4.694514 0.545632 0.697481
v -4.694514 0.545632 0.697481
v -4.692892 0.545976 0.699223
v -4.693030 0.545357 0.697604
v -4.694514 0.545632 0.697481
v -4.692892 0.545976 0.699223
v -4.695698 0.546583 0.697419
v -4.695568 0.547165 0.698942
v -4.694354 0.546347 0.699352
v -4.694514 0.545632 0.697481
v -4.695698 0.546583 0.697419
v -4.694354 0.546347 0.699352
v -4.694354 0.546347 0.699352
v -4.692293 0.547523 0.699745
v -4.692892 0.545976 0.699223
v -4.694354 0.546347 0.699352
v -4.692293 0.547523 0.699745
v -4.695568 0.547165 0.698942
v -4.695005 0.548620 0.699432
v -4.693663 0.548135 0.699955
v -4.694354 0.546347 0.699352
v -4.695568 0.547165 0.698942
v -4.693663 0.548135 0.699955
v -4.693663 0.548135 0.699955
v -4.691685 0.548834 0.698776
v -4.692293 0.547523 0.699745
v -4.693663 0.548135 0.699955
v -4.691685 0.548834 0.698776
v -4.695005 0.548620 0.699432
v -4.694433 0.549852 0.698522
v -4.692960 0.549648 0.698836
v -4.693663 0.548135 0.699955
v -4.695005 0.548620 0.699432
v -4.692960 0.549648 0.698836
v -4.692960 0.549648 0.698836
v -4.691526 0.548921 0.697047
v -4.691685 0.548834 0.698776
v -4.692960 0.549648 0.698836
v -4.691526 0.548921 0.697047
v -4.694433 0.549852 0.698522
v -4.694283 0.549933 0.696896
v -4.692776 0.549749 0.696837
v -4.692960 0.549648 0.698836
v -4.694433 0.549852 0.698522
v -4.692776 0.549749 0.696837
v -4.692776 0.549749 0.696837
v -4.691935 0.547719 0.695858
v -4.691526 0.548921 0.697047
v -4.692776 0.549749 0.696837
v -4.691935 0.547719 0.695858
v -4.694283 0.549933 0.696896
v -4.694668 0.548803 0.695779
v -4.693249 0.548360 0.695464
v -4.692776 0.549749 0.696837
v -4.694283 0.549933 0.696896
v -4.693249 0.548360 0.695464
v -4.693249 0.548360 0.695464
v -4.694023 0.546528 0.695751
v -4.692605 0.546133 0.696106
v -4.691935 0.547719 0.695858
v -4.693249 0.548360 0.695464
v -4.692605 0.546133 0.696106
v -4.694668 0.548803 0.695779
v -4.695298 0.547312 0.696012
v -4.694023 0.546528 0.695751
v -4.693249 0.548360 0.695464
v -4.694668 0.548803 0.695779
v -4.694023 0.546528 0.695751
v -4.696101 0.548037 0.696488
v -4.696362 0.547562 0.697407
v -4.695698 0.546583 0.697419
v -4.695298 0.547312 0.696012
v -4.696101 0.548037 0.696488
v -4.695698 0.546583 0.697419
v -4.696278 0.547941 0.698401
v -4.696362 0.547562 0.697407
v -4.695910 0.548891 0.698721
v -4.696101 0.548037 0.696488
v -4.695910 0.548891 0.698721
v -4.696362 0.547562 0.697407
v -4.695538 0.549695 0.698127
v -4.695910 0.548891 0.698721
v -4.696101 0.548037 0.696488
v -4.695691 0.549010 0.696336
v -4.695538 0.549695 0.698127
v -4.696101 0.548037 0.696488
v -4.695439 0.549748 0.697066
v -4.695538 0.549695 0.698127
v -4.695691 0.549010 0.696336
v -4.686928 0.543807 0.699364
v -4.686443 0.545060 0.699787
v -4.687040 0.543306 0.698053
v -4.686695 0.543934 0.696840
v -4.687040 0.543306 0.698053
v -4.686443 0.545060 0.699787
v -4.685951 0.546121 0.699002
v -4.686695 0.543934 0.696840
v -4.686443 0.545060 0.699787
v -4.686153 0.545218 0.696640
v -4.686695 0.543934 0.696840
v -4.685951 0.546121 0.699002
v -4.685822 0.546191 0.697602
v -4.686153 0.545218 0.696640
v -4.685951 0.546121 0.699002
vn 0.9229 -0.3794 0.0660
vn -0.6648 0.4567 -0.5911
vn -0.5946 0.7704 0.2299
vn -0.5497 0.7949 -0.2568
vn -0.8533 0.0104 -0.5214
vn -0.5946 0.7705 0.2299
vn -0.6649 0.4566 -0.5911
vn -0.8532 0.0105 -0.5214
vn -0.7656 0.4018 0.5024
vn -0.9731 -0.2077 -0.1001
vn -0.7657 0.4017 0.5024
vn -0.9731 -0.2077 -0.1002
vn -0.9341 -0.0336 0.3555
vn -0.7181 -0.6886 -0.1008
vn -0.8533 0.0105 -0.5214
vn -0.5242 -0.3354 -0.7828
vn -0.1962 -0.5223 -0.8299
vn -0.2191 0.3869 -0.8957
vn 0.1375 0.2684 -0.9534
vn -0.1963 -0.5223 -0.8298
vn -0.5241 -0.3354 -0.7828
vn -0.2192 0.3869 -0.8957
vn 0.1593 -0.6335 -0.7571
vn 0.1376 0.2684 -0.9534
vn 0.4738 0.1114 -0.8736
vn -0.1963 -0.5223 -0.8299
vn -0.0328 0.9345 -0.3544
vn 0.3415 0.8678 -0.3610
vn 0.4739 0.1114 -0.8735
vn 0.6660 0.6760 -0.3154
vn 0.4738 0.1114 -0.8735
vn -0.1053 0.8950 0.4335
vn 0.2621 0.8245 0.5015
vn -0.0327 0.9345 -0.3544
vn -0.1054 0.8950 0.4334
vn 0.5911 0.6353 0.4970
vn 0.3415 0.8678 -0.3609
vn -0.3822 0.2981 0.8747
vn -0.0410 0.1712 0.9844
vn -0.1054 0.8950 0.4335
vn -0.3823 0.2981 0.8746
vn 0.5911 0.6352 0.4971
vn 0.3056 0.0198 0.9520
vn -0.6550 -0.4066 0.6369
vn -0.3395 -0.6003 0.7241
vn -0.3823 0.2981 0.8747
vn 0.3056 0.0197 0.9520
vn 0.0244 -0.7070 0.7068
vn -0.7181 -0.6886 -0.1007
vn -0.4086 -0.9089 -0.0833
vn -0.6550 -0.4067 0.6369
vn -0.0408 -0.9977 -0.0538
vn -0.5241 -0.3355 -0.7828
vn -0.4087 -0.9089 -0.0833
vn -0.0407 -0.9977 -0.0538
vn 0.1593 -0.6335 -0.7572
vn -0.1200 -0.9909 -0.0608
vn 0.0851 -0.6175 -0.7820
vn -0.1199 -0.9909 -0.0608
vn 0.2351 0.0524 0.9706
vn -0.0532 -0.6928 0.7192
vn 0.3056 0.0197 0.9519
vn 0.6047 0.7254 -0.3290
vn 0.5279 0.6835 0.5041
vn 0.6047 0.7253 -0.3290
vn 0.4738 0.1113 -0.8736
vn 0.4076 0.1463 -0.9013
vn 0.5279 0.6836 0.5041
vn 0.4076 0.1464 -0.9014
vn 0.4076 0.1463 -0.9014
vn -0.9341 -0.0335 0.3555
vn -0.3823 0.2980 0.8747
vn -0.7657 0.4018 0.5023
vn -0.6649 0.4567 -0.5911
vn -0.5498 0.7949 -0.2568
vn -0.1793 -0.5296 -0.8291
vn 0.1547 0.2615 -0.9527
vn -0.1794 -0.5296 -0.8291
vn -0.3226 -0.6077 0.7257
vn -0.3918 -0.9164 -0.0821
vn -0.3227 -0.6076 0.7257
vn 0.2793 0.8179 0.5030
vn -0.0240 0.1643 0.9861
vn 0.2792 0.8179 0.5030
vn 0.3588 0.8612 -0.3600
vn 0.1547 0.2616 -0.9527
vn 0.0851 -0.6174 -0.7820
vn -0.3226 -0.6076 0.7257
vn 0.3588 0.8612 -0.3599
vn 0.5279 0.6836 0.5040
vt 0.530319 0.635056
vt 0.522446 0.641335
vt 0.524872 0.636299
vt 0.524872 0.646370
vt 0.534683 0.638535
vt 0.530319 0.647614
vt 0.534683 0.644127
vt 0.508789 0.671494
vt 0.513626 0.669548
vt 0.511276 0.672157
vt 0.507889 0.669609
vt 0.511566 0.666756
vt 0.507935 0.667854
vt 0.509277 0.666748
vt 0.506302 0.666855
vt 0.505722 0.669838
vt 0.502487 0.669685
vt 0.506897 0.673050
vt 0.503479 0.674789
vt 0.497520 0.669067
vt 0.497810 0.676537
vt 0.510727 0.675606
vt 0.507721 0.680244
vt 0.501465 0.684982
vt 0.518890 0.674767
vt 0.518692 0.686485
vt 0.509125 0.696274
vt 0.518890 0.658051
vt 0.512238 0.663902
vt 0.511536 0.659698
vt 0.517990 0.665543
vt 0.515472 0.651657
vt 0.509323 0.655174
vt 0.508469 0.664742
vt 0.506836 0.661980
vt 0.504074 0.658463
vt 0.503784 0.665283
vt 0.499901 0.662933
vt 0.495453 0.660286
vt 0.491707 0.668175
vt 0.506927 0.651588
vt 0.501038 0.654999
vt 0.494583 0.688484
vt 0.500031 0.699394
vt 0.491287 0.678001
vt 0.512177 0.648293
vt 0.627350 0.642853
vt 0.649124 0.647896
vt 0.627441 0.648445
vt 0.649033 0.642670
vt 0.627441 0.631676
vt 0.649033 0.637444
vt 0.627350 0.637268
vt 0.649124 0.632225
vt 0.627914 0.620506
vt 0.649292 0.626999
vt 0.627625 0.626091
vt 0.649551 0.621780
vt 0.649292 0.653114
vt 0.627625 0.654030
vt 0.649551 0.658333
vt 0.627914 0.659607
s 0
usemtl decorations
f 240/1/1 239/2/1 238/3/1
f 237/1/1 236/4/1 235/2/1
f 234/5/1 233/4/1 232/1/1
f 231/5/1 230/6/1 229/4/1
f 228/6/1 227/5/1 226/7/1
s 1
f 225/8/2 224/9/3 223/10/4
f 222/11/5 221/9/6 220/8/7
f 219/11/8 218/12/9 217/9/3
f 216/13/10 215/12/9 214/11/8
f 213/12/11 212/13/12 211/14/13
f 210/15/14 209/11/15 208/16/16
f 207/15/14 206/13/10 205/11/15
f 204/17/17 203/18/18 202/19/19
f 201/17/20 200/16/21 199/18/22
f 198/20/23 197/19/24 196/21/25
f 195/20/23 194/17/26 193/19/19
f 192/19/19 191/22/27 190/23/28
f 189/19/19 188/18/18 187/22/27
f 186/21/29 185/23/28 184/24/30
f 183/21/31 3/19/19 182/23/28
f 181/23/28 180/25/32 179/26/33
f 178/23/28 177/22/34 176/25/35
f 175/24/30 174/26/33 173/27/36
f 172/24/30 4/23/37 171/26/33
f 170/28/33 169/29/38 168/30/39
f 167/28/33 166/31/40 165/29/41
f 164/32/42 163/30/39 162/33/43
f 161/32/42 13/28/33 160/30/39
f 159/30/39 158/34/44 157/35/45
f 156/30/39 155/29/46 154/34/44
f 153/33/47 152/35/45 151/36/48
f 150/33/47 14/30/39 149/35/45
f 148/35/45 147/15/49 146/37/50
f 145/35/45 144/34/51 143/15/49
f 142/36/48 141/37/50 140/38/52
f 139/36/48 16/35/45 138/37/50
f 137/37/50 136/16/53 135/17/26
f 134/37/54 133/15/49 132/16/16
f 131/38/55 130/17/26 129/20/56
f 128/38/55 36/37/50 25/17/26
f 127/39/57 126/20/23 125/40/58
f 124/39/59 123/38/55 122/20/23
f 121/41/60 120/36/48 119/42/61
f 118/41/60 117/33/62 116/36/48
f 115/43/63 114/27/36 113/44/64
f 112/43/65 111/24/30 110/27/36
f 109/40/58 108/21/66 107/45/67
f 106/40/58 40/20/23 105/21/66
f 104/42/61 103/38/55 102/39/57
f 101/42/61 41/36/48 42/38/55
f 100/46/68 99/33/43 98/41/60
f 97/46/64 37/32/42 38/33/43
f 96/45/69 95/24/30 94/43/65
f 93/45/70 33/21/25 34/24/30
f 92/29/46 91/14/71 90/34/44
f 89/29/72 88/12/73 87/14/13
f 86/22/27 85/9/3 84/25/35
f 83/22/27 82/10/4 81/9/3
f 80/16/21 79/8/74 78/18/22
f 29/16/21 30/11/5 77/8/74
f 76/31/40 75/12/9 28/29/41
f 31/31/40 26/9/3 27/12/73
f 74/18/18 73/10/4 24/22/27
f 21/18/18 22/8/74 23/10/75
f 72/34/51 71/13/10 20/15/49
f 17/34/51 18/14/13 19/13/10
f 70/47/76 69/48/70 68/49/77
f 67/47/78 66/50/58 65/48/70
f 64/51/79 63/52/57 62/53/80
f 61/51/81 60/54/61 59/52/57
f 58/55/82 57/56/60 56/57/83
f 55/55/84 54/58/64 53/56/60
f 52/49/77 51/59/63 50/60/85
f 2/49/86 32/48/67 49/59/65
f 48/53/80 47/50/87 12/47/78
f 9/53/80 10/52/57 11/50/58
f 46/57/83 45/54/61 8/51/88
f 5/57/83 6/56/60 7/54/61
f 44/60/89 43/61/68 15/62/82
f 1/60/89 35/59/65 39/61/90
