# Blender 5.0.0
# www.blender.org
mtllib Circle_005_Circle_004_Dupli_36_decorations_0.mtl
o Circle.005|Circle.004|Dupli|36_decorations_0
v -4.552585 1.049738 0.393970
v -4.553923 1.049376 0.394223
v -4.555346 1.056108 0.398000
v -4.553438 1.056624 0.397640
v -4.551335 1.048665 0.395900
v -4.552103 1.053219 0.398821
v -4.553064 1.052633 0.399503
v -4.552364 1.048038 0.396630
v -4.553745 1.048013 0.396356
v -4.554356 1.052610 0.399247
v -4.555004 1.053167 0.398245
v -4.554439 1.048609 0.395284
v -4.551795 1.056172 0.398705
v -4.551655 1.055093 0.400394
v -4.551434 1.049421 0.394717
v -4.553123 1.054198 0.401434
v -4.553426 1.055622 0.401870
v -4.553735 1.056764 0.401866
v -4.554782 1.056745 0.401658
v -4.555029 1.055593 0.401551
v -4.555235 1.057176 0.399075
v -4.554916 1.057778 0.400042
v -4.553903 1.058052 0.399851
v -4.553682 1.057596 0.398782
v -4.556083 1.055012 0.399515
v -4.553030 1.057812 0.400416
v -4.552956 1.057239 0.401313
v -4.552231 1.056350 0.401023
v -4.555834 1.056285 0.400308
v -4.555307 1.057196 0.400847
v -4.552345 1.057229 0.399649
v -4.554521 1.053885 0.397253
v -4.554955 1.054772 0.397403
v -4.553304 1.055219 0.397091
v -4.553271 1.054223 0.397016
v -4.555093 1.054163 0.401043
v -4.551882 1.054828 0.398013
v -4.551761 1.053893 0.399475
v -4.552195 1.053927 0.397714
v -4.555593 1.053824 0.398714
v -4.553031 1.053119 0.400376
v -4.554737 1.053088 0.400037
v -4.552195 1.053927 0.397714
v -4.552585 1.049738 0.393970
v -4.553064 1.052633 0.399503
v -4.551335 1.048665 0.395900
v -4.555004 1.053167 0.398245
v -4.553745 1.048013 0.396356
v -4.553271 1.054223 0.397016
v -4.552585 1.049738 0.393970
v -4.553271 1.054223 0.397016
v -4.553923 1.049376 0.394223
v -4.552103 1.053219 0.398821
v -4.552195 1.053927 0.397714
v -4.551434 1.049421 0.394717
v -4.551335 1.048665 0.395900
v -4.552103 1.053219 0.398821
v -4.551434 1.049421 0.394717
v -4.554356 1.052610 0.399247
v -4.553064 1.052633 0.399503
v -4.552364 1.048038 0.396630
v -4.553745 1.048013 0.396356
v -4.554356 1.052610 0.399247
v -4.552364 1.048038 0.396630
v -4.554521 1.053885 0.397253
v -4.555004 1.053167 0.398245
v -4.554439 1.048609 0.395284
v -4.553923 1.049376 0.394223
v -4.554521 1.053885 0.397253
v -4.554439 1.048609 0.395284
v -4.554782 1.056745 0.401658
v -4.553426 1.055622 0.401870
v -4.553903 1.058052 0.399851
v -4.555235 1.057176 0.399075
v -4.552956 1.057239 0.401313
v -4.552345 1.057229 0.399649
v -4.554916 1.057778 0.400042
v -4.555235 1.057176 0.399075
v -4.554916 1.057778 0.400042
v -4.555834 1.056285 0.400308
v -4.553030 1.057812 0.400416
v -4.553903 1.058052 0.399851
v -4.553682 1.057596 0.398782
v -4.552345 1.057229 0.399649
v -4.553030 1.057812 0.400416
v -4.553682 1.057596 0.398782
v -4.553735 1.056764 0.401866
v -4.552956 1.057239 0.401313
v -4.552231 1.056350 0.401023
v -4.553426 1.055622 0.401870
v -4.553735 1.056764 0.401866
v -4.552231 1.056350 0.401023
v -4.554521 1.053885 0.397253
v -4.553271 1.054223 0.397016
v -4.553304 1.055219 0.397091
v -4.554521 1.053885 0.397253
v -4.552195 1.053927 0.397714
v -4.552103 1.053219 0.398821
v -4.551761 1.053893 0.399475
v -4.552195 1.053927 0.397714
v -4.553064 1.052633 0.399503
v -4.554356 1.052610 0.399247
v -4.554737 1.053088 0.400037
v -4.553064 1.052633 0.399503
v -4.554955 1.054772 0.397403
v -4.555004 1.053167 0.398245
v -4.554521 1.053885 0.397253
v -4.554955 1.054772 0.397403
v -4.555004 1.053167 0.398245
v -4.551882 1.054828 0.398013
v -4.553304 1.055219 0.397091
v -4.553271 1.054223 0.397016
v -4.552195 1.053927 0.397714
v -4.551882 1.054828 0.398013
v -4.553271 1.054223 0.397016
v -4.553031 1.053119 0.400376
v -4.551761 1.053893 0.399475
v -4.552103 1.053219 0.398821
v -4.553064 1.052633 0.399503
v -4.553031 1.053119 0.400376
v -4.552103 1.053219 0.398821
v -4.555593 1.053824 0.398714
v -4.554737 1.053088 0.400037
v -4.554356 1.052610 0.399247
v -4.555004 1.053167 0.398245
v -4.555593 1.053824 0.398714
v -4.554356 1.052610 0.399247
v -4.554737 1.053088 0.400037
v -4.555593 1.053824 0.398714
v -4.556083 1.055012 0.399515
v -4.554737 1.053088 0.400037
v -4.555834 1.056285 0.400308
v -4.555029 1.055593 0.401551
v -4.555093 1.054163 0.401043
v -4.556083 1.055012 0.399515
v -4.555834 1.056285 0.400308
v -4.555093 1.054163 0.401043
v -4.555093 1.054163 0.401043
v -4.553031 1.053119 0.400376
v -4.554737 1.053088 0.400037
v -4.555093 1.054163 0.401043
v -4.553031 1.053119 0.400376
v -4.555029 1.055593 0.401551
v -4.553426 1.055622 0.401870
v -4.553123 1.054198 0.401434
v -4.555093 1.054163 0.401043
v -4.555029 1.055593 0.401551
v -4.553123 1.054198 0.401434
v -4.553123 1.054198 0.401434
v -4.551761 1.053893 0.399475
v -4.553031 1.053119 0.400376
v -4.553123 1.054198 0.401434
v -4.551761 1.053893 0.399475
v -4.553426 1.055622 0.401870
v -4.552231 1.056350 0.401023
v -4.551655 1.055093 0.400394
v -4.553123 1.054198 0.401434
v -4.553426 1.055622 0.401870
v -4.551655 1.055093 0.400394
v -4.551655 1.055093 0.400394
v -4.551882 1.054828 0.398013
v -4.551761 1.053893 0.399475
v -4.551655 1.055093 0.400394
v -4.551882 1.054828 0.398013
v -4.552231 1.056350 0.401023
v -4.552345 1.057229 0.399649
v -4.551795 1.056172 0.398705
v -4.551655 1.055093 0.400394
v -4.552231 1.056350 0.401023
v -4.551795 1.056172 0.398705
v -4.551795 1.056172 0.398705
v -4.553304 1.055219 0.397091
v -4.551882 1.054828 0.398013
v -4.551795 1.056172 0.398705
v -4.553304 1.055219 0.397091
v -4.552345 1.057229 0.399649
v -4.553682 1.057596 0.398782
v -4.553438 1.056624 0.397640
v -4.551795 1.056172 0.398705
v -4.552345 1.057229 0.399649
v -4.553438 1.056624 0.397640
v -4.553438 1.056624 0.397640
v -4.554955 1.054772 0.397403
v -4.553304 1.055219 0.397091
v -4.553438 1.056624 0.397640
v -4.554955 1.054772 0.397403
v -4.553682 1.057596 0.398782
v -4.555235 1.057176 0.399075
v -4.555346 1.056108 0.398000
v -4.553438 1.056624 0.397640
v -4.553682 1.057596 0.398782
v -4.555346 1.056108 0.398000
v -4.555346 1.056108 0.398000
v -4.556083 1.055012 0.399515
v -4.555593 1.053824 0.398714
v -4.554955 1.054772 0.397403
v -4.555346 1.056108 0.398000
v -4.555593 1.053824 0.398714
v -4.555235 1.057176 0.399075
v -4.555834 1.056285 0.400308
v -4.556083 1.055012 0.399515
v -4.555346 1.056108 0.398000
v -4.555235 1.057176 0.399075
v -4.556083 1.055012 0.399515
v -4.555307 1.057196 0.400847
v -4.554782 1.056745 0.401658
v -4.555029 1.055593 0.401551
v -4.555834 1.056285 0.400308
v -4.555307 1.057196 0.400847
v -4.555029 1.055593 0.401551
v -4.553735 1.056764 0.401866
v -4.554782 1.056745 0.401658
v -4.552956 1.057239 0.401313
v -4.555307 1.057196 0.400847
v -4.552956 1.057239 0.401313
v -4.554782 1.056745 0.401658
v -4.553030 1.057812 0.400416
v -4.552956 1.057239 0.401313
v -4.555307 1.057196 0.400847
v -4.554916 1.057778 0.400042
v -4.553030 1.057812 0.400416
v -4.555307 1.057196 0.400847
v -4.553903 1.058052 0.399851
v -4.553030 1.057812 0.400416
v -4.554916 1.057778 0.400042
v -4.552364 1.048038 0.396630
v -4.551335 1.048665 0.395900
v -4.553745 1.048013 0.396356
v -4.554439 1.048609 0.395284
v -4.553745 1.048013 0.396356
v -4.551335 1.048665 0.395900
v -4.551434 1.049421 0.394717
v -4.554439 1.048609 0.395284
v -4.551335 1.048665 0.395900
v -4.553923 1.049376 0.394223
v -4.554439 1.048609 0.395284
v -4.551434 1.049421 0.394717
v -4.552585 1.049738 0.393970
v -4.553923 1.049376 0.394223
v -4.551434 1.049421 0.394717
vn 0.1226 -0.8315 -0.5418
vn -0.4800 0.8741 0.0741
vn 0.3847 0.8897 0.2458
vn -0.0154 0.9998 -0.0137
vn -0.6595 0.6073 0.4431
vn -0.4801 0.8741 0.0741
vn -0.6595 0.6073 0.4430
vn 0.4188 0.6268 0.6571
vn -0.4185 0.4003 0.8152
vn 0.4188 0.6268 0.6570
vn -0.4186 0.4003 0.8152
vn 0.0613 0.4090 0.9105
vn -0.5638 -0.1243 0.8165
vn -0.9538 0.2108 0.2140
vn -0.4185 0.4004 0.8152
vn -0.6594 0.6073 0.4430
vn -0.9939 -0.1093 0.0126
vn -0.6634 0.6427 -0.3832
vn -0.6760 0.3635 -0.6410
vn -0.9939 -0.1093 0.0127
vn -0.8906 -0.4131 -0.1902
vn -0.5911 0.0323 -0.8060
vn 0.0889 0.8463 -0.5253
vn 0.1475 0.5862 -0.7966
vn -0.6633 0.6427 -0.3832
vn 0.0889 0.8462 -0.5253
vn -0.5910 0.0323 -0.8060
vn 0.1474 0.5863 -0.7966
vn 0.1846 0.2421 -0.9525
vn 0.7366 0.6681 -0.1054
vn 0.8564 0.3912 -0.3369
vn 0.0890 0.8462 -0.5254
vn 0.1847 0.2421 -0.9525
vn 0.8525 0.0584 -0.5194
vn 0.8565 0.3912 -0.3369
vn 0.7919 0.2424 0.5605
vn 0.9170 -0.0747 0.3919
vn 0.7366 0.6680 -0.1054
vn 0.8525 0.0583 -0.5194
vn 0.9095 -0.3805 0.1671
vn 0.2132 -0.1102 0.9708
vn 0.2835 -0.4607 0.8411
vn 0.9095 -0.3806 0.1671
vn 0.3128 -0.7442 0.5903
vn 0.2835 -0.4608 0.8410
vn -0.5637 -0.1243 0.8166
vn -0.5669 -0.4761 0.6723
vn 0.2132 -0.1103 0.9708
vn 0.3127 -0.7442 0.5902
vn -0.5669 -0.4761 0.6722
vn -0.4883 -0.7586 0.4313
vn -0.5670 -0.4761 0.6722
vn -0.4883 -0.7587 0.4312
vn -0.8906 -0.4131 -0.1901
vn -0.5112 -0.7074 0.4881
vn -0.9236 -0.3531 -0.1491
vn -0.5112 -0.7075 0.4881
vn -0.4884 -0.7586 0.4312
vn 0.9222 -0.3197 0.2173
vn 0.3128 -0.7442 0.5902
vn 0.3103 -0.6926 0.6511
vn 0.1790 0.3188 -0.9308
vn 0.8638 0.1303 -0.4867
vn 0.1790 0.3187 -0.9308
vn -0.9236 -0.3531 -0.1490
vn -0.5911 0.0323 -0.8059
vn -0.6165 0.1035 -0.7805
vn -0.8906 -0.4132 -0.1902
vn 0.3103 -0.6926 0.6512
vn 0.3104 -0.6926 0.6512
vn -0.4883 -0.7586 0.4312
vn 0.8638 0.1304 -0.4867
vn 0.9096 -0.3805 0.1671
vn 0.9222 -0.3198 0.2173
vn -0.6165 0.1036 -0.7805
vn 0.7919 0.2423 0.5605
vn 0.0890 0.8463 -0.5253
vn 0.0890 0.8462 -0.5253
vn 0.3846 0.8897 0.2458
vn -0.9538 0.2108 0.2139
vn -0.4800 0.8741 0.0742
vn 0.7366 0.6681 -0.1053
vn -0.6634 0.6427 -0.3833
vn -0.9922 -0.1247 0.0026
vn -0.6741 0.3483 -0.6514
vn -0.9922 -0.1247 0.0027
vn 0.2859 -0.4764 0.8315
vn -0.5649 -0.4917 0.6626
vn 0.2858 -0.4763 0.8315
vn 0.8592 0.3760 -0.3470
vn 0.9197 -0.0901 0.3821
vn 0.1498 0.5712 -0.8071
vn 0.1789 0.3187 -0.9308
vn -0.5650 -0.4917 0.6626
vn 0.2859 -0.4763 0.8315
vn 0.8592 0.3760 -0.3471
vn 0.1498 0.5712 -0.8070
vt 0.530319 0.635056
vt 0.522446 0.641335
vt 0.524872 0.636299
vt 0.524872 0.646370
vt 0.534683 0.638535
vt 0.530319 0.647614
vt 0.534683 0.644127
vt 0.508789 0.671494
vt 0.513626 0.669548
vt 0.511276 0.672157
vt 0.507889 0.669609
vt 0.511566 0.666756
vt 0.507935 0.667854
vt 0.509277 0.666748
vt 0.506302 0.666855
vt 0.505722 0.669838
vt 0.502487 0.669685
vt 0.506897 0.673050
vt 0.503479 0.674789
vt 0.497520 0.669067
vt 0.497810 0.676537
vt 0.510727 0.675606
vt 0.507721 0.680244
vt 0.501465 0.684982
vt 0.518890 0.674767
vt 0.518692 0.686485
vt 0.509125 0.696274
vt 0.518890 0.658051
vt 0.512238 0.663902
vt 0.511536 0.659698
vt 0.517990 0.665543
vt 0.515472 0.651657
vt 0.509323 0.655174
vt 0.508469 0.664742
vt 0.506836 0.661980
vt 0.504074 0.658463
vt 0.503784 0.665283
vt 0.499901 0.662933
vt 0.495453 0.660286
vt 0.491707 0.668175
vt 0.506927 0.651588
vt 0.501038 0.654999
vt 0.494583 0.688484
vt 0.500031 0.699394
vt 0.491287 0.678001
vt 0.512177 0.648293
vt 0.627350 0.642853
vt 0.649124 0.647896
vt 0.627441 0.648445
vt 0.649033 0.642670
vt 0.627441 0.631676
vt 0.649033 0.637444
vt 0.627350 0.637268
vt 0.649124 0.632225
vt 0.627914 0.620506
vt 0.649292 0.626999
vt 0.627625 0.626091
vt 0.649551 0.621780
vt 0.649292 0.653114
vt 0.627625 0.654030
vt 0.649551 0.658333
vt 0.627914 0.659607
s 0
usemtl decorations
f 240/1/1 239/2/1 238/3/1
f 237/1/1 236/4/1 235/2/1
f 234/5/1 233/4/1 232/1/1
f 231/5/1 230/6/1 229/4/1
f 228/6/1 227/5/1 226/7/1
s 1
f 225/8/2 224/9/3 223/10/4
f 222/11/5 221/9/3 220/8/6
f 219/11/7 218/12/8 217/9/3
f 216/13/9 215/12/10 214/11/7
f 213/12/8 212/13/11 211/14/12
f 210/15/13 209/11/7 208/16/14
f 207/15/13 206/13/15 205/11/16
f 204/17/17 203/18/18 202/19/19
f 201/17/20 200/16/14 199/18/18
f 198/20/21 197/19/19 196/21/22
f 195/20/21 194/17/20 193/19/19
f 192/19/19 191/22/23 190/23/24
f 189/19/19 188/18/25 187/22/26
f 186/21/27 185/23/28 184/24/29
f 183/21/27 3/19/19 182/23/28
f 181/23/24 180/25/30 179/26/31
f 178/23/24 177/22/32 176/25/30
f 175/24/33 174/26/31 173/27/34
f 172/24/33 4/23/24 171/26/31
f 170/28/35 169/29/36 168/30/37
f 167/28/35 166/31/38 165/29/36
f 164/32/39 163/30/37 162/33/40
f 161/32/39 13/28/31 160/30/37
f 159/30/37 158/34/41 157/35/42
f 156/30/37 155/29/36 154/34/41
f 153/33/43 152/35/42 151/36/44
f 150/33/43 14/30/37 149/35/42
f 148/35/45 147/15/46 146/37/47
f 145/35/45 144/34/48 143/15/46
f 142/36/49 141/37/50 140/38/51
f 139/36/49 16/35/42 138/37/50
f 137/37/52 136/16/14 135/17/20
f 134/37/47 133/15/46 132/16/14
f 131/38/53 130/17/20 129/20/54
f 128/38/53 36/37/47 25/17/20
f 127/39/55 126/20/54 125/40/56
f 124/39/57 123/38/58 122/20/54
f 121/41/59 120/36/60 119/42/61
f 118/41/59 117/33/43 116/36/60
f 115/43/62 114/27/34 113/44/63
f 112/43/64 111/24/33 110/27/34
f 109/40/65 108/21/66 107/45/67
f 106/40/65 40/20/68 105/21/66
f 104/42/69 103/38/51 102/39/57
f 101/42/70 41/36/60 42/38/71
f 100/46/72 99/33/73 98/41/74
f 97/46/72 37/32/34 38/33/73
f 96/45/75 95/24/33 94/43/64
f 93/45/75 33/21/22 34/24/33
f 92/29/36 91/14/12 90/34/41
f 89/29/76 88/12/10 87/14/12
f 86/22/77 85/9/3 84/25/30
f 83/22/78 82/10/4 81/9/79
f 80/16/80 79/8/2 78/18/18
f 29/16/80 30/11/5 77/8/81
f 76/31/82 75/12/8 28/29/36
f 31/31/82 26/9/79 27/12/10
f 74/18/83 73/10/4 24/22/26
f 21/18/83 22/8/81 23/10/4
f 72/34/41 71/13/9 20/15/46
f 17/34/41 18/14/12 19/13/15
f 70/47/84 69/48/75 68/49/85
f 67/47/86 66/50/65 65/48/75
f 64/51/87 63/52/55 62/53/88
f 61/51/89 60/54/69 59/52/57
f 58/55/90 57/56/59 56/57/91
f 55/55/90 54/58/63 53/56/74
f 52/49/85 51/59/62 50/60/92
f 2/49/85 32/48/67 49/59/93
f 48/53/94 47/50/56 12/47/86
f 9/53/94 10/52/55 11/50/56
f 46/57/91 45/54/69 8/51/95
f 5/57/91 6/56/74 7/54/61
f 44/60/92 43/61/72 15/62/96
f 1/60/97 35/59/64 39/61/72
