# Blender 5.0.0
# www.blender.org
mtllib Circle_005_Circle_004_Dupli_192_decorations_0.mtl
o Circle.005|Circle.004|Dupli|192_decorations_0
v -4.565349 1.431759 0.712987
v -4.564053 1.431267 0.713233
v -4.560712 1.437495 0.709819
v -4.562562 1.438197 0.709468
v -4.565979 1.430626 0.710806
v -4.563778 1.434824 0.708086
v -4.562712 1.434102 0.707812
v -4.564838 1.429854 0.710513
v -4.563643 1.429739 0.711249
v -4.561594 1.433994 0.708501
v -4.561268 1.434582 0.709632
v -4.563293 1.430367 0.712460
v -4.563785 1.437791 0.707927
v -4.563460 1.436581 0.706356
v -4.566206 1.431474 0.711907
v -4.561832 1.435479 0.705938
v -4.561247 1.436829 0.705557
v -4.560836 1.437937 0.705605
v -4.559930 1.437850 0.706163
v -4.559860 1.436695 0.706412
v -4.560336 1.438469 0.708715
v -4.560241 1.439007 0.707666
v -4.561223 1.439380 0.707480
v -4.561841 1.439041 0.708430
v -4.559629 1.436212 0.708715
v -4.561872 1.439164 0.706661
v -4.561700 1.438522 0.705827
v -4.562572 1.437725 0.705897
v -4.559454 1.437425 0.707817
v -4.559665 1.438326 0.707080
v -4.562836 1.438710 0.707175
v -4.561977 1.435423 0.710355
v -4.561424 1.436255 0.710316
v -4.563025 1.436863 0.710012
v -4.563189 1.435883 0.710125
v -4.560128 1.435315 0.706988
v -4.564084 1.436510 0.708678
v -4.563803 1.435463 0.707318
v -4.563991 1.435616 0.709115
v -4.560487 1.435144 0.709361
v -4.562394 1.434510 0.706957
v -4.560918 1.434367 0.707866
v -4.563991 1.435616 0.709115
v -4.565349 1.431759 0.712987
v -4.562712 1.434102 0.707812
v -4.565979 1.430626 0.710806
v -4.561268 1.434582 0.709632
v -4.563643 1.429739 0.711249
v -4.563189 1.435883 0.710125
v -4.565349 1.431759 0.712987
v -4.563189 1.435883 0.710125
v -4.564053 1.431267 0.713233
v -4.563778 1.434824 0.708086
v -4.563991 1.435616 0.709115
v -4.566206 1.431474 0.711907
v -4.565979 1.430626 0.710806
v -4.563778 1.434824 0.708086
v -4.566206 1.431474 0.711907
v -4.561594 1.433994 0.708501
v -4.562712 1.434102 0.707812
v -4.564838 1.429854 0.710513
v -4.563643 1.429739 0.711249
v -4.561594 1.433994 0.708501
v -4.564838 1.429854 0.710513
v -4.561977 1.435423 0.710355
v -4.561268 1.434582 0.709632
v -4.563293 1.430367 0.712460
v -4.564053 1.431267 0.713233
v -4.561977 1.435423 0.710355
v -4.563293 1.430367 0.712460
v -4.559930 1.437850 0.706163
v -4.561247 1.436829 0.705557
v -4.561223 1.439380 0.707480
v -4.560336 1.438469 0.708715
v -4.561700 1.438522 0.705827
v -4.562836 1.438710 0.707175
v -4.560241 1.439007 0.707666
v -4.560336 1.438469 0.708715
v -4.560241 1.439007 0.707666
v -4.559454 1.437425 0.707817
v -4.561872 1.439164 0.706661
v -4.561223 1.439380 0.707480
v -4.561841 1.439041 0.708430
v -4.562836 1.438710 0.707175
v -4.561872 1.439164 0.706661
v -4.561841 1.439041 0.708430
v -4.560836 1.437937 0.705605
v -4.561700 1.438522 0.705827
v -4.562572 1.437725 0.705897
v -4.561247 1.436829 0.705557
v -4.560836 1.437937 0.705605
v -4.562572 1.437725 0.705897
v -4.561977 1.435423 0.710355
v -4.563189 1.435883 0.710125
v -4.563025 1.436863 0.710012
v -4.561977 1.435423 0.710355
v -4.563991 1.435616 0.709115
v -4.563778 1.434824 0.708086
v -4.563803 1.435463 0.707318
v -4.563991 1.435616 0.709115
v -4.562712 1.434102 0.707812
v -4.561594 1.433994 0.708501
v -4.560918 1.434367 0.707866
v -4.562712 1.434102 0.707812
v -4.561424 1.436255 0.710316
v -4.561268 1.434582 0.709632
v -4.561977 1.435423 0.710355
v -4.561424 1.436255 0.710316
v -4.561268 1.434582 0.709632
v -4.564084 1.436510 0.708678
v -4.563025 1.436863 0.710012
v -4.563189 1.435883 0.710125
v -4.563991 1.435616 0.709115
v -4.564084 1.436510 0.708678
v -4.563189 1.435883 0.710125
v -4.562394 1.434510 0.706957
v -4.563803 1.435463 0.707318
v -4.563778 1.434824 0.708086
v -4.562712 1.434102 0.707812
v -4.562394 1.434510 0.706957
v -4.563778 1.434824 0.708086
v -4.560487 1.435144 0.709361
v -4.560918 1.434367 0.707866
v -4.561594 1.433994 0.708501
v -4.561268 1.434582 0.709632
v -4.560487 1.435144 0.709361
v -4.561594 1.433994 0.708501
v -4.560918 1.434367 0.707866
v -4.560487 1.435144 0.709361
v -4.559629 1.436212 0.708715
v -4.560918 1.434367 0.707866
v -4.559454 1.437425 0.707817
v -4.559860 1.436695 0.706412
v -4.560128 1.435315 0.706988
v -4.559629 1.436212 0.708715
v -4.559454 1.437425 0.707817
v -4.560128 1.435315 0.706988
v -4.560128 1.435315 0.706988
v -4.562394 1.434510 0.706957
v -4.560918 1.434367 0.707866
v -4.560128 1.435315 0.706988
v -4.562394 1.434510 0.706957
v -4.559860 1.436695 0.706412
v -4.561247 1.436829 0.705557
v -4.561832 1.435479 0.705938
v -4.560128 1.435315 0.706988
v -4.559860 1.436695 0.706412
v -4.561832 1.435479 0.705938
v -4.561832 1.435479 0.705938
v -4.563803 1.435463 0.707318
v -4.562394 1.434510 0.706957
v -4.561832 1.435479 0.705938
v -4.563803 1.435463 0.707318
v -4.561247 1.436829 0.705557
v -4.562572 1.437725 0.705897
v -4.563460 1.436581 0.706356
v -4.561832 1.435479 0.705938
v -4.561247 1.436829 0.705557
v -4.563460 1.436581 0.706356
v -4.563460 1.436581 0.706356
v -4.564084 1.436510 0.708678
v -4.563803 1.435463 0.707318
v -4.563460 1.436581 0.706356
v -4.564084 1.436510 0.708678
v -4.562572 1.437725 0.705897
v -4.562836 1.438710 0.707175
v -4.563785 1.437791 0.707927
v -4.563460 1.436581 0.706356
v -4.562572 1.437725 0.705897
v -4.563785 1.437791 0.707927
v -4.563785 1.437791 0.707927
v -4.563025 1.436863 0.710012
v -4.564084 1.436510 0.708678
v -4.563785 1.437791 0.707927
v -4.563025 1.436863 0.710012
v -4.562836 1.438710 0.707175
v -4.561841 1.439041 0.708430
v -4.562562 1.438197 0.709468
v -4.563785 1.437791 0.707927
v -4.562836 1.438710 0.707175
v -4.562562 1.438197 0.709468
v -4.562562 1.438197 0.709468
v -4.561424 1.436255 0.710316
v -4.563025 1.436863 0.710012
v -4.562562 1.438197 0.709468
v -4.561424 1.436255 0.710316
v -4.561841 1.439041 0.708430
v -4.560336 1.438469 0.708715
v -4.560712 1.437495 0.709819
v -4.562562 1.438197 0.709468
v -4.561841 1.439041 0.708430
v -4.560712 1.437495 0.709819
v -4.560712 1.437495 0.709819
v -4.559629 1.436212 0.708715
v -4.560487 1.435144 0.709361
v -4.561424 1.436255 0.710316
v -4.560712 1.437495 0.709819
v -4.560487 1.435144 0.709361
v -4.560336 1.438469 0.708715
v -4.559454 1.437425 0.707817
v -4.559629 1.436212 0.708715
v -4.560712 1.437495 0.709819
v -4.560336 1.438469 0.708715
v -4.559629 1.436212 0.708715
v -4.559665 1.438326 0.707080
v -4.559930 1.437850 0.706163
v -4.559860 1.436695 0.706412
v -4.559454 1.437425 0.707817
v -4.559665 1.438326 0.707080
v -4.559860 1.436695 0.706412
v -4.560836 1.437937 0.705605
v -4.559930 1.437850 0.706163
v -4.561700 1.438522 0.705827
v -4.559665 1.438326 0.707080
v -4.561700 1.438522 0.705827
v -4.559930 1.437850 0.706163
v -4.561872 1.439164 0.706661
v -4.561700 1.438522 0.705827
v -4.559665 1.438326 0.707080
v -4.560241 1.439007 0.707666
v -4.561872 1.439164 0.706661
v -4.559665 1.438326 0.707080
v -4.561223 1.439380 0.707480
v -4.561872 1.439164 0.706661
v -4.560241 1.439007 0.707666
v -4.564838 1.429854 0.710513
v -4.565979 1.430626 0.710806
v -4.563643 1.429739 0.711249
v -4.563293 1.430367 0.712460
v -4.563643 1.429739 0.711249
v -4.565979 1.430626 0.710806
v -4.566206 1.431474 0.711907
v -4.563293 1.430367 0.712460
v -4.565979 1.430626 0.710806
v -4.564053 1.431267 0.713233
v -4.563293 1.430367 0.712460
v -4.566206 1.431474 0.711907
v -4.565349 1.431759 0.712987
v -4.564053 1.431267 0.713233
v -4.566206 1.431474 0.711907
vn -0.3884 -0.7671 0.5106
vn 0.5685 0.8212 0.0488
vn -0.1797 0.8932 -0.4121
vn 0.1182 0.9923 -0.0367
vn 0.8323 0.5088 -0.2200
vn 0.8323 0.5088 -0.2199
vn -0.1007 0.5986 -0.7947
vn 0.7109 0.2903 -0.6406
vn 0.2957 0.3302 -0.8964
vn 0.7902 -0.2426 -0.5628
vn 0.9868 0.1111 0.1181
vn 0.9213 -0.1921 0.3382
vn 0.5597 0.6169 0.5533
vn 0.4539 0.3616 0.8144
vn 0.9213 -0.1921 0.3381
vn 0.9868 0.1111 0.1182
vn 0.5597 0.6170 0.5532
vn 0.7230 -0.4671 0.5090
vn 0.4538 0.3616 0.8144
vn 0.2827 0.0546 0.9577
vn -0.1694 0.8940 0.4148
vn -0.3443 0.6648 0.6629
vn 0.5597 0.6170 0.5533
vn 0.2826 0.0545 0.9577
vn -0.3443 0.6649 0.6629
vn -0.4692 0.3402 0.8149
vn -0.6517 0.7336 -0.1929
vn -0.8721 0.4893 -0.0023
vn -0.1695 0.8940 0.4149
vn -0.6516 0.7336 -0.1929
vn -0.4692 0.3401 0.8149
vn -0.8721 0.4892 -0.0023
vn -0.9664 0.1748 0.1882
vn -0.8722 0.4892 -0.0024
vn -0.5238 0.2565 -0.8123
vn -0.7322 -0.0329 -0.6803
vn -0.5238 0.2566 -0.8123
vn -0.9665 0.1747 0.1882
vn -0.8346 -0.3171 -0.4505
vn -0.8721 0.4892 -0.0024
vn -0.7322 -0.0328 -0.6803
vn 0.1179 -0.1778 -0.9770
vn -0.0298 -0.5084 -0.8606
vn -0.1729 -0.7651 -0.6203
vn -0.7321 -0.0329 -0.6804
vn -0.0297 -0.5085 -0.8606
vn 0.7901 -0.2426 -0.5629
vn 0.7061 -0.5793 -0.4073
vn 0.1179 -0.1779 -0.9770
vn -0.1729 -0.7651 -0.6202
vn 0.5203 -0.8318 -0.1933
vn 0.7061 -0.5792 -0.4073
vn 0.5203 -0.8318 -0.1932
vn 0.7231 -0.4670 0.5090
vn 0.5665 -0.7879 -0.2414
vn 0.7231 -0.4671 0.5090
vn 0.7743 -0.4139 0.4786
vn -0.8228 -0.2601 -0.5052
vn -0.1444 -0.7195 -0.6793
vn -0.8229 -0.2601 -0.5052
vn -0.8346 -0.3171 -0.4504
vn -0.4482 0.4139 0.7923
vn -0.9581 0.2442 0.1497
vn -0.4482 0.4138 0.7924
vn 0.7744 -0.4139 0.4786
vn 0.2827 0.0545 0.9577
vn 0.3228 0.1209 0.9387
vn 0.5664 -0.7879 -0.2414
vn -0.9581 0.2443 0.1497
vn -0.8229 -0.2602 -0.5052
vn 0.3228 0.1210 0.9387
vn 0.2957 0.3303 -0.8964
vn -0.1695 0.8940 0.4148
vn 0.9867 0.1111 0.1182
vn 0.8323 0.5087 -0.2200
vn 0.1181 0.9923 -0.0367
vn 0.9146 -0.2063 0.3478
vn 0.4469 0.3476 0.8243
vn 0.9146 -0.2063 0.3477
vn -0.0369 -0.5229 -0.8516
vn 0.6992 -0.5938 -0.3981
vn -0.8798 0.4753 0.0071
vn -0.8228 -0.2602 -0.5052
vn -0.7398 -0.0470 -0.6712
vn -0.8798 0.4753 0.0070
vn -0.9581 0.2442 0.1498
vn -0.3516 0.6510 0.6727
vn 0.4469 0.3477 0.8243
vn 0.6993 -0.5938 -0.3981
vn 0.9146 -0.2064 0.3477
vn 0.6993 -0.5937 -0.3981
vn -0.7397 -0.0471 -0.6712
vn -0.1443 -0.7195 -0.6793
vn -0.0370 -0.5229 -0.8516
vn -0.7397 -0.0470 -0.6713
vn -0.3517 0.6510 0.6727
vn -0.9581 0.2443 0.1498
vt 0.530319 0.635056
vt 0.522446 0.641335
vt 0.524872 0.636299
vt 0.524872 0.646370
vt 0.534683 0.638535
vt 0.530319 0.647614
vt 0.534683 0.644127
vt 0.508789 0.671494
vt 0.513626 0.669548
vt 0.511276 0.672157
vt 0.507889 0.669609
vt 0.511566 0.666756
vt 0.507935 0.667854
vt 0.509277 0.666748
vt 0.506302 0.666855
vt 0.505722 0.669838
vt 0.502487 0.669685
vt 0.506897 0.673050
vt 0.503479 0.674789
vt 0.497520 0.669067
vt 0.497810 0.676537
vt 0.510727 0.675606
vt 0.507721 0.680244
vt 0.501465 0.684982
vt 0.518890 0.674767
vt 0.518692 0.686485
vt 0.509125 0.696274
vt 0.518890 0.658051
vt 0.512238 0.663902
vt 0.511536 0.659698
vt 0.517990 0.665543
vt 0.515472 0.651657
vt 0.509323 0.655174
vt 0.508469 0.664742
vt 0.506836 0.661980
vt 0.504074 0.658463
vt 0.503784 0.665283
vt 0.499901 0.662933
vt 0.495453 0.660286
vt 0.491707 0.668175
vt 0.506927 0.651588
vt 0.501038 0.654999
vt 0.494583 0.688484
vt 0.500031 0.699394
vt 0.491287 0.678001
vt 0.512177 0.648293
vt 0.627350 0.642853
vt 0.649124 0.647896
vt 0.627441 0.648445
vt 0.649033 0.642670
vt 0.627441 0.631676
vt 0.649033 0.637444
vt 0.627350 0.637268
vt 0.649124 0.632225
vt 0.627914 0.620506
vt 0.649292 0.626999
vt 0.627625 0.626091
vt 0.649551 0.621780
vt 0.649292 0.653114
vt 0.627625 0.654030
vt 0.649551 0.658333
vt 0.627914 0.659607
s 0
usemtl decorations
f 240/1/1 239/2/1 238/3/1
f 237/1/1 236/4/1 235/2/1
f 234/5/1 233/4/1 232/1/1
f 231/5/1 230/6/1 229/4/1
f 228/6/1 227/5/1 226/7/1
s 1
f 225/8/2 224/9/3 223/10/4
f 222/11/5 221/9/3 220/8/2
f 219/11/6 218/12/7 217/9/3
f 216/13/8 215/12/7 214/11/5
f 213/12/7 212/13/8 211/14/9
f 210/15/10 209/11/5 208/16/11
f 207/15/10 206/13/8 205/11/5
f 204/17/12 203/18/13 202/19/14
f 201/17/15 200/16/16 199/18/17
f 198/20/18 197/19/19 196/21/20
f 195/20/18 194/17/15 193/19/14
f 192/19/19 191/22/21 190/23/22
f 189/19/14 188/18/23 187/22/21
f 186/21/24 185/23/25 184/24/26
f 183/21/24 3/19/19 182/23/25
f 181/23/22 180/25/27 179/26/28
f 178/23/22 177/22/29 176/25/30
f 175/24/31 174/26/32 173/27/33
f 172/24/31 4/23/22 171/26/32
f 170/28/34 169/29/35 168/30/36
f 167/28/34 166/31/27 165/29/37
f 164/32/38 163/30/36 162/33/39
f 161/32/38 13/28/40 160/30/41
f 159/30/36 158/34/42 157/35/43
f 156/30/36 155/29/35 154/34/42
f 153/33/39 152/35/43 151/36/44
f 150/33/39 14/30/45 149/35/43
f 148/35/46 147/15/47 146/37/48
f 145/35/46 144/34/49 143/15/47
f 142/36/50 141/37/48 140/38/51
f 139/36/50 16/35/43 138/37/48
f 137/37/48 136/16/11 135/17/15
f 134/37/52 133/15/47 132/16/11
f 131/38/53 130/17/15 129/20/54
f 128/38/51 36/37/48 25/17/15
f 127/39/55 126/20/56 125/40/57
f 124/39/55 123/38/51 122/20/56
f 121/41/58 120/36/44 119/42/59
f 118/41/60 117/33/61 116/36/44
f 115/43/62 114/27/33 113/44/63
f 112/43/64 111/24/26 110/27/33
f 109/40/65 108/21/66 107/45/67
f 106/40/57 40/20/18 105/21/66
f 104/42/59 103/38/51 102/39/68
f 101/42/59 41/36/44 42/38/51
f 100/46/69 99/33/61 98/41/70
f 97/46/63 37/32/38 38/33/61
f 96/45/71 95/24/26 94/43/64
f 93/45/67 33/21/66 34/24/26
f 92/29/35 91/14/72 90/34/49
f 89/29/35 88/12/7 87/14/9
f 86/22/73 85/9/3 84/25/30
f 83/22/73 82/10/4 81/9/3
f 80/16/16 79/8/2 78/18/17
f 29/16/74 30/11/75 77/8/2
f 76/31/30 75/12/7 28/29/37
f 31/31/27 26/9/3 27/12/7
f 74/18/13 73/10/76 24/22/21
f 21/18/13 22/8/2 23/10/4
f 72/34/49 71/13/8 20/15/47
f 17/34/49 18/14/72 19/13/8
f 70/47/77 69/48/71 68/49/78
f 67/47/79 66/50/57 65/48/67
f 64/51/80 63/52/55 62/53/81
f 61/51/80 60/54/59 59/52/68
f 58/55/82 57/56/83 56/57/84
f 55/55/85 54/58/86 53/56/70
f 52/49/78 51/59/62 50/60/87
f 2/49/88 32/48/67 49/59/64
f 48/53/89 47/50/57 12/47/90
f 9/53/91 10/52/55 11/50/57
f 46/57/92 45/54/93 8/51/94
f 5/57/95 6/56/83 7/54/59
f 44/60/96 43/61/69 15/62/82
f 1/60/96 35/59/64 39/61/97
