# Blender 5.0.0
# www.blender.org
mtllib Circle_005_Circle_Dupli_7_decorations_0.mtl
o Circle.005|Circle|Dupli|7_decorations_0
v -4.616407 0.848952 0.831111
v -4.615537 0.847955 0.831593
v -4.614611 0.851658 0.838452
v -4.615852 0.853080 0.837764
v -4.614850 0.850487 0.829822
v -4.613996 0.853334 0.834408
v -4.612823 0.852756 0.834561
v -4.613595 0.849869 0.829986
v -4.613282 0.848691 0.830691
v -4.612530 0.851655 0.835220
v -4.613338 0.850859 0.835889
v -4.614146 0.847839 0.831406
v -4.615416 0.854687 0.836640
v -4.613630 0.855269 0.835926
v -4.616102 0.850079 0.830323
v -4.611840 0.854388 0.836159
v -4.611945 0.854973 0.837558
v -4.612295 0.855202 0.838665
v -4.612058 0.854309 0.839199
v -4.611581 0.853605 0.838376
v -4.614199 0.852751 0.839423
v -4.613766 0.853752 0.839882
v -4.614426 0.854508 0.839517
v -4.615210 0.853908 0.838864
v -4.612626 0.851492 0.838185
v -4.614194 0.855361 0.838920
v -4.613246 0.855670 0.838540
v -4.613401 0.855690 0.837368
v -4.612584 0.852616 0.839207
v -4.612712 0.853664 0.839740
v -4.614855 0.855216 0.837949
v -4.614638 0.850967 0.836063
v -4.614709 0.851086 0.837053
v -4.615784 0.852316 0.836458
v -4.615452 0.851899 0.835612
v -4.611393 0.852706 0.837165
v -4.615407 0.853708 0.835485
v -4.613861 0.854211 0.834867
v -4.615166 0.852952 0.834876
v -4.612992 0.850942 0.836823
v -4.612311 0.853449 0.835069
v -4.611925 0.851994 0.835940
v -4.615166 0.852952 0.834876
v -4.616407 0.848952 0.831111
v -4.612823 0.852756 0.834561
v -4.614850 0.850487 0.829822
v -4.613338 0.850859 0.835889
v -4.613282 0.848691 0.830691
v -4.615452 0.851899 0.835612
v -4.616407 0.848952 0.831111
v -4.615452 0.851899 0.835612
v -4.615537 0.847955 0.831593
v -4.613996 0.853334 0.834408
v -4.615166 0.852952 0.834876
v -4.616102 0.850079 0.830323
v -4.614850 0.850487 0.829822
v -4.613996 0.853334 0.834408
v -4.616102 0.850079 0.830323
v -4.612530 0.851655 0.835220
v -4.612823 0.852756 0.834561
v -4.613595 0.849869 0.829986
v -4.613282 0.848691 0.830691
v -4.612530 0.851655 0.835220
v -4.613595 0.849869 0.829986
v -4.614638 0.850967 0.836063
v -4.613338 0.850859 0.835889
v -4.614146 0.847839 0.831406
v -4.615537 0.847955 0.831593
v -4.614638 0.850967 0.836063
v -4.614146 0.847839 0.831406
v -4.612058 0.854309 0.839199
v -4.611945 0.854973 0.837558
v -4.614426 0.854508 0.839517
v -4.614199 0.852751 0.839423
v -4.613246 0.855670 0.838540
v -4.614855 0.855216 0.837949
v -4.613766 0.853752 0.839882
v -4.614199 0.852751 0.839423
v -4.613766 0.853752 0.839882
v -4.612584 0.852616 0.839207
v -4.614194 0.855361 0.838920
v -4.614426 0.854508 0.839517
v -4.615210 0.853908 0.838864
v -4.614855 0.855216 0.837949
v -4.614194 0.855361 0.838920
v -4.615210 0.853908 0.838864
v -4.612295 0.855202 0.838665
v -4.613246 0.855670 0.838540
v -4.613401 0.855690 0.837368
v -4.611945 0.854973 0.837558
v -4.612295 0.855202 0.838665
v -4.613401 0.855690 0.837368
v -4.614638 0.850967 0.836063
v -4.615452 0.851899 0.835612
v -4.615784 0.852316 0.836458
v -4.614638 0.850967 0.836063
v -4.615166 0.852952 0.834876
v -4.613996 0.853334 0.834408
v -4.613861 0.854211 0.834867
v -4.615166 0.852952 0.834876
v -4.612823 0.852756 0.834561
v -4.612530 0.851655 0.835220
v -4.611925 0.851994 0.835940
v -4.612823 0.852756 0.834561
v -4.614709 0.851086 0.837053
v -4.613338 0.850859 0.835889
v -4.614638 0.850967 0.836063
v -4.614709 0.851086 0.837053
v -4.613338 0.850859 0.835889
v -4.615407 0.853708 0.835485
v -4.615784 0.852316 0.836458
v -4.615452 0.851899 0.835612
v -4.615166 0.852952 0.834876
v -4.615407 0.853708 0.835485
v -4.615452 0.851899 0.835612
v -4.612311 0.853449 0.835069
v -4.613861 0.854211 0.834867
v -4.613996 0.853334 0.834408
v -4.612823 0.852756 0.834561
v -4.612311 0.853449 0.835069
v -4.613996 0.853334 0.834408
v -4.612992 0.850942 0.836823
v -4.611925 0.851994 0.835940
v -4.612530 0.851655 0.835220
v -4.613338 0.850859 0.835889
v -4.612992 0.850942 0.836823
v -4.612530 0.851655 0.835220
v -4.611925 0.851994 0.835940
v -4.612992 0.850942 0.836823
v -4.612626 0.851492 0.838185
v -4.611925 0.851994 0.835940
v -4.612584 0.852616 0.839207
v -4.611581 0.853605 0.838376
v -4.611393 0.852706 0.837165
v -4.612626 0.851492 0.838185
v -4.612584 0.852616 0.839207
v -4.611393 0.852706 0.837165
v -4.611393 0.852706 0.837165
v -4.612311 0.853449 0.835069
v -4.611925 0.851994 0.835940
v -4.611393 0.852706 0.837165
v -4.612311 0.853449 0.835069
v -4.611581 0.853605 0.838376
v -4.611945 0.854973 0.837558
v -4.611840 0.854388 0.836159
v -4.611393 0.852706 0.837165
v -4.611581 0.853605 0.838376
v -4.611840 0.854388 0.836159
v -4.611840 0.854388 0.836159
v -4.613861 0.854211 0.834867
v -4.612311 0.853449 0.835069
v -4.611840 0.854388 0.836159
v -4.613861 0.854211 0.834867
v -4.611945 0.854973 0.837558
v -4.613401 0.855690 0.837368
v -4.613630 0.855269 0.835926
v -4.611840 0.854388 0.836159
v -4.611945 0.854973 0.837558
v -4.613630 0.855269 0.835926
v -4.613630 0.855269 0.835926
v -4.615407 0.853708 0.835485
v -4.613861 0.854211 0.834867
v -4.613630 0.855269 0.835926
v -4.615407 0.853708 0.835485
v -4.613401 0.855690 0.837368
v -4.614855 0.855216 0.837949
v -4.615416 0.854687 0.836640
v -4.613630 0.855269 0.835926
v -4.613401 0.855690 0.837368
v -4.615416 0.854687 0.836640
v -4.615416 0.854687 0.836640
v -4.615784 0.852316 0.836458
v -4.615407 0.853708 0.835485
v -4.615416 0.854687 0.836640
v -4.615784 0.852316 0.836458
v -4.614855 0.855216 0.837949
v -4.615210 0.853908 0.838864
v -4.615852 0.853080 0.837764
v -4.615416 0.854687 0.836640
v -4.614855 0.855216 0.837949
v -4.615852 0.853080 0.837764
v -4.615852 0.853080 0.837764
v -4.614709 0.851086 0.837053
v -4.615784 0.852316 0.836458
v -4.615852 0.853080 0.837764
v -4.614709 0.851086 0.837053
v -4.615210 0.853908 0.838864
v -4.614199 0.852751 0.839423
v -4.614611 0.851658 0.838452
v -4.615852 0.853080 0.837764
v -4.615210 0.853908 0.838864
v -4.614611 0.851658 0.838452
v -4.614611 0.851658 0.838452
v -4.612626 0.851492 0.838185
v -4.612992 0.850942 0.836823
v -4.614709 0.851086 0.837053
v -4.614611 0.851658 0.838452
v -4.612992 0.850942 0.836823
v -4.614199 0.852751 0.839423
v -4.612584 0.852616 0.839207
v -4.612626 0.851492 0.838185
v -4.614611 0.851658 0.838452
v -4.614199 0.852751 0.839423
v -4.612626 0.851492 0.838185
v -4.612712 0.853664 0.839740
v -4.612058 0.854309 0.839199
v -4.611581 0.853605 0.838376
v -4.612584 0.852616 0.839207
v -4.612712 0.853664 0.839740
v -4.611581 0.853605 0.838376
v -4.612295 0.855202 0.838665
v -4.612058 0.854309 0.839199
v -4.613246 0.855670 0.838540
v -4.612712 0.853664 0.839740
v -4.613246 0.855670 0.838540
v -4.612058 0.854309 0.839199
v -4.614194 0.855361 0.838920
v -4.613246 0.855670 0.838540
v -4.612712 0.853664 0.839740
v -4.613766 0.853752 0.839882
v -4.614194 0.855361 0.838920
v -4.612712 0.853664 0.839740
v -4.614426 0.854508 0.839517
v -4.614194 0.855361 0.838920
v -4.613766 0.853752 0.839882
v -4.613595 0.849869 0.829986
v -4.614850 0.850487 0.829822
v -4.613282 0.848691 0.830691
v -4.614146 0.847839 0.831406
v -4.613282 0.848691 0.830691
v -4.614850 0.850487 0.829822
v -4.616102 0.850079 0.830323
v -4.614146 0.847839 0.831406
v -4.614850 0.850487 0.829822
v -4.615537 0.847955 0.831593
v -4.614146 0.847839 0.831406
v -4.616102 0.850079 0.830323
v -4.616407 0.848952 0.831111
v -4.615537 0.847955 0.831593
v -4.616102 0.850079 0.830323
vn -0.1562 -0.5373 -0.8288
vn -0.1113 0.0376 0.9931
vn -0.3073 0.7753 0.5517
vn -0.4136 0.3839 0.8256
vn 0.3721 -0.0029 0.9282
vn -0.3074 0.7753 0.5518
vn -0.1112 0.0376 0.9931
vn 0.3720 -0.0029 0.9282
vn 0.1275 0.9170 0.3779
vn 0.6724 0.2930 0.6798
vn 0.6724 0.2929 0.6798
vn 0.5635 0.7024 0.4349
vn 0.9434 -0.0248 0.3307
vn 0.4573 -0.5037 0.7329
vn 0.3721 -0.0028 0.9282
vn 0.4366 -0.7712 0.4633
vn -0.3252 -0.4383 0.8379
vn -0.4198 -0.6995 0.5783
vn 0.4367 -0.7712 0.4633
vn 0.4573 -0.5038 0.7329
vn -0.3252 -0.4383 0.8380
vn 0.3530 -0.9269 0.1273
vn -0.4199 -0.6995 0.5783
vn -0.4538 -0.8594 0.2357
vn -0.8147 0.1224 0.5668
vn -0.9557 -0.0858 0.2815
vn -0.4539 -0.8594 0.2356
vn -0.9586 -0.2812 -0.0440
vn -0.9557 -0.0858 0.2814
vn -0.6428 0.7560 0.1235
vn -0.7675 0.6078 -0.2038
vn -0.8148 0.1224 0.5667
vn -0.7813 0.3722 -0.5011
vn -0.7674 0.6078 -0.2038
vn 0.0612 0.9855 -0.1581
vn 0.0031 0.8590 -0.5119
vn 0.0612 0.9855 -0.1580
vn -0.7812 0.3722 -0.5011
vn -0.0553 0.6089 -0.7913
vn 0.0031 0.8591 -0.5119
vn 0.7672 0.6381 -0.0658
vn 0.7759 0.4787 -0.4110
vn 0.0613 0.9855 -0.1581
vn -0.0553 0.6088 -0.7914
vn 0.7759 0.4786 -0.4110
vn 0.6726 0.2505 -0.6963
vn 0.0032 0.8590 -0.5119
vn 0.9434 -0.0248 0.3306
vn 0.9688 -0.2469 0.0230
vn 0.7672 0.6380 -0.0658
vn 0.9434 -0.0247 0.3307
vn 0.6726 0.2504 -0.6963
vn 0.8544 -0.4329 -0.2874
vn 0.9688 -0.2468 0.0231
vn 0.8543 -0.4330 -0.2875
vn 0.3530 -0.9269 0.1274
vn 0.9688 -0.2468 0.0230
vn 0.8893 -0.3985 -0.2245
vn 0.3531 -0.9269 0.1273
vn 0.3752 -0.9049 0.2008
vn 0.8544 -0.4330 -0.2874
vn -0.0434 0.6699 -0.7412
vn 0.7030 0.3024 -0.6437
vn -0.0435 0.6698 -0.7412
vn -0.9698 -0.2428 0.0251
vn -0.7879 0.4272 -0.4436
vn -0.9697 -0.2428 0.0251
vn 0.3753 -0.9049 0.2008
vn -0.4521 -0.8357 0.3119
vn 0.8893 -0.3984 -0.2245
vn -0.7879 0.4272 -0.4435
vn -0.0554 0.6088 -0.7914
vn -0.4521 -0.8356 0.3119
vn 0.5636 0.7024 0.4348
vn -0.8147 0.1224 0.5667
vn -0.4136 0.3838 0.8256
vn -0.3073 0.7753 0.5518
vn 0.4572 -0.5038 0.7329
vn -0.6427 0.7561 0.1235
vn 0.4340 -0.7815 0.4482
vn -0.4230 -0.7098 0.5633
vn 0.4340 -0.7815 0.4483
vn 0.7734 0.4689 -0.4265
vn 0.9664 -0.2569 0.0077
vn -0.7707 0.5982 -0.2192
vn -0.0434 0.6698 -0.7412
vn 0.0002 0.8496 -0.5275
vn -0.7707 0.5983 -0.2192
vn -0.9697 -0.2428 0.0252
vn -0.9591 -0.0958 0.2663
vn 0.9664 -0.2569 0.0078
vn 0.0002 0.8495 -0.5275
vn 0.7734 0.4690 -0.4265
vn 0.0003 0.8496 -0.5275
vn -0.9591 -0.0958 0.2662
vn -0.7708 0.5982 -0.2192
vt 0.543243 0.611839
vt 0.535370 0.618118
vt 0.537796 0.613083
vt 0.537796 0.623154
vt 0.547607 0.615326
vt 0.543243 0.624397
vt 0.547607 0.620918
vt 0.565384 0.671494
vt 0.570206 0.669548
vt 0.567856 0.672157
vt 0.564468 0.669609
vt 0.568146 0.666756
vt 0.564514 0.667854
vt 0.565857 0.666748
vt 0.562897 0.666855
vt 0.562302 0.669838
vt 0.559082 0.669685
vt 0.563492 0.673050
vt 0.560059 0.674789
vt 0.554092 0.669067
vt 0.554398 0.676537
vt 0.567307 0.675606
vt 0.564316 0.680244
vt 0.558044 0.684982
vt 0.575485 0.674767
vt 0.575272 0.686485
vt 0.565720 0.696274
vt 0.575485 0.658051
vt 0.568817 0.663902
vt 0.568115 0.659698
vt 0.574570 0.665543
vt 0.572052 0.651657
vt 0.565903 0.655174
vt 0.565063 0.664742
vt 0.563416 0.661980
vt 0.560669 0.658463
vt 0.560364 0.665283
vt 0.556488 0.662933
vt 0.552032 0.660286
vt 0.548294 0.668175
vt 0.563522 0.651588
vt 0.557617 0.654999
vt 0.551163 0.688484
vt 0.556610 0.699394
vt 0.547867 0.678001
vt 0.568756 0.648293
vt 0.604446 0.682632
vt 0.626221 0.687675
vt 0.604553 0.688225
vt 0.626144 0.682457
vt 0.604553 0.671455
vt 0.626144 0.677231
vt 0.604446 0.677048
vt 0.626221 0.672005
vt 0.605011 0.660294
vt 0.626404 0.666786
vt 0.604736 0.665871
vt 0.626663 0.661568
vt 0.626404 0.692902
vt 0.604736 0.693810
vt 0.626663 0.698120
vt 0.605011 0.699394
s 0
usemtl decorations
f 240/1/1 239/2/1 238/3/1
f 237/1/1 236/4/1 235/2/1
f 234/5/1 233/4/1 232/1/1
f 231/5/1 230/6/1 229/4/1
f 228/6/1 227/5/1 226/7/1
s 1
f 225/8/2 224/9/3 223/10/4
f 222/11/5 221/9/6 220/8/7
f 219/11/8 218/12/9 217/9/3
f 216/13/10 215/12/9 214/11/5
f 213/12/9 212/13/11 211/14/12
f 210/15/13 209/11/5 208/16/14
f 207/15/13 206/13/10 205/11/15
f 204/17/16 203/18/17 202/19/18
f 201/17/19 200/16/20 199/18/21
f 198/20/22 197/19/23 196/21/24
f 195/20/22 194/17/16 193/19/18
f 192/19/18 191/22/25 190/23/26
f 189/19/18 188/18/17 187/22/25
f 186/21/27 185/23/26 184/24/28
f 183/21/27 3/19/23 182/23/26
f 181/23/29 180/25/30 179/26/31
f 178/23/26 177/22/32 176/25/30
f 175/24/28 174/26/31 173/27/33
f 172/24/28 4/23/29 171/26/31
f 170/28/34 169/29/35 168/30/36
f 167/28/31 166/31/30 165/29/37
f 164/32/38 163/30/36 162/33/39
f 161/32/38 13/28/31 160/30/40
f 159/30/36 158/34/41 157/35/42
f 156/30/36 155/29/43 154/34/41
f 153/33/44 152/35/45 151/36/46
f 150/33/44 14/30/47 149/35/45
f 148/35/45 147/15/48 146/37/49
f 145/35/45 144/34/50 143/15/51
f 142/36/52 141/37/49 140/38/53
f 139/36/46 16/35/45 138/37/49
f 137/37/49 136/16/20 135/17/16
f 134/37/54 133/15/13 132/16/14
f 131/38/55 130/17/16 129/20/56
f 128/38/55 36/37/57 25/17/16
f 127/39/58 126/20/59 125/40/60
f 124/39/58 123/38/61 122/20/59
f 121/41/62 120/36/46 119/42/63
f 118/41/64 117/33/44 116/36/46
f 115/43/65 114/27/33 113/44/66
f 112/43/67 111/24/28 110/27/33
f 109/40/68 108/21/24 107/45/69
f 106/40/68 40/20/22 105/21/24
f 104/42/63 103/38/53 102/39/70
f 101/42/63 41/36/46 42/38/53
f 100/46/71 99/33/72 98/41/64
f 97/46/66 37/32/38 38/33/72
f 96/45/73 95/24/28 94/43/67
f 93/45/69 33/21/24 34/24/28
f 92/29/43 91/14/12 90/34/41
f 89/29/43 88/12/9 87/14/74
f 86/22/75 85/9/6 84/25/30
f 83/22/32 82/10/76 81/9/77
f 80/16/78 79/8/7 78/18/21
f 29/16/78 30/11/5 77/8/7
f 76/31/79 75/12/9 28/29/37
f 31/31/79 26/9/77 27/12/9
f 74/18/17 73/10/4 24/22/25
f 21/18/17 22/8/7 23/10/4
f 72/34/50 71/13/10 20/15/13
f 17/34/50 18/14/12 19/13/10
f 70/47/80 69/48/69 68/49/81
f 67/47/82 66/50/68 65/48/69
f 64/51/83 63/52/70 62/53/84
f 61/51/83 60/54/63 59/52/70
f 58/55/85 57/56/86 56/57/87
f 55/55/88 54/58/66 53/56/86
f 52/49/81 51/59/89 50/60/90
f 2/49/81 32/48/69 49/59/67
f 48/53/84 47/50/60 12/47/80
f 9/53/91 10/52/70 11/50/60
f 46/57/92 45/54/63 8/51/93
f 5/57/94 6/56/86 7/54/63
f 44/60/95 43/61/71 15/62/96
f 1/60/90 35/59/67 39/61/71
