# Blender 5.0.0
# www.blender.org
mtllib Circle_002_Circle_Dupli_159_decorations_0.mtl
o Circle.002|Circle|Dupli|159_decorations_0
v -4.728138 0.617200 0.573386
v -4.729008 0.616956 0.572306
v -4.734824 0.620997 0.575689
v -4.733582 0.621346 0.577230
v -4.728437 0.615136 0.574831
v -4.732520 0.617659 0.577444
v -4.733403 0.616954 0.576769
v -4.729382 0.614382 0.574108
v -4.730006 0.614695 0.572886
v -4.733986 0.617247 0.575626
v -4.733831 0.618318 0.574876
v -4.729840 0.615841 0.572084
v -4.733219 0.620191 0.578833
v -4.734009 0.618401 0.579292
v -4.727883 0.616390 0.574509
v -4.735357 0.617325 0.578261
v -4.736323 0.618363 0.578805
v -4.736882 0.619382 0.579025
v -4.737355 0.619620 0.578099
v -4.737048 0.618728 0.577386
v -4.735890 0.621352 0.576713
v -4.736599 0.621333 0.577660
v -4.735940 0.621518 0.578478
v -4.734879 0.621635 0.577966
v -4.736011 0.619407 0.575372
v -4.735747 0.620904 0.579329
v -4.736166 0.619954 0.579573
v -4.735227 0.619239 0.579644
v -4.736856 0.620058 0.576455
v -4.737229 0.620488 0.577491
v -4.734584 0.620695 0.579271
v -4.733054 0.619360 0.575084
v -4.733716 0.620103 0.575174
v -4.732641 0.620405 0.576508
v -4.732240 0.619589 0.576093
v -4.736248 0.617773 0.576516
v -4.732327 0.619405 0.577895
v -4.733011 0.617856 0.578292
v -4.732002 0.618832 0.577144
v -4.734743 0.618727 0.574900
v -4.734177 0.616924 0.577400
v -4.734948 0.617312 0.575890
v -4.732002 0.618832 0.577144
v -4.728138 0.617200 0.573386
v -4.733403 0.616954 0.576769
v -4.728437 0.615136 0.574831
v -4.733831 0.618318 0.574876
v -4.730006 0.614695 0.572886
v -4.732240 0.619589 0.576093
v -4.728138 0.617200 0.573386
v -4.732240 0.619589 0.576093
v -4.729008 0.616956 0.572306
v -4.732520 0.617659 0.577444
v -4.732002 0.618832 0.577144
v -4.727883 0.616390 0.574509
v -4.728437 0.615136 0.574831
v -4.732520 0.617659 0.577444
v -4.727883 0.616390 0.574509
v -4.733986 0.617247 0.575626
v -4.733403 0.616954 0.576769
v -4.729382 0.614382 0.574108
v -4.730006 0.614695 0.572886
v -4.733986 0.617247 0.575626
v -4.729382 0.614382 0.574108
v -4.733054 0.619360 0.575084
v -4.733831 0.618318 0.574876
v -4.729840 0.615841 0.572084
v -4.729008 0.616956 0.572306
v -4.733054 0.619360 0.575084
v -4.729840 0.615841 0.572084
v -4.737355 0.619620 0.578099
v -4.736323 0.618363 0.578805
v -4.735940 0.621518 0.578478
v -4.735890 0.621352 0.576713
v -4.736166 0.619954 0.579573
v -4.734584 0.620695 0.579271
v -4.736599 0.621333 0.577660
v -4.735890 0.621352 0.576713
v -4.736599 0.621333 0.577660
v -4.736856 0.620058 0.576455
v -4.735747 0.620904 0.579329
v -4.735940 0.621518 0.578478
v -4.734879 0.621635 0.577966
v -4.734584 0.620695 0.579271
v -4.735747 0.620904 0.579329
v -4.734879 0.621635 0.577966
v -4.736882 0.619382 0.579025
v -4.736166 0.619954 0.579573
v -4.735227 0.619239 0.579644
v -4.736323 0.618363 0.578805
v -4.736882 0.619382 0.579025
v -4.735227 0.619239 0.579644
v -4.733054 0.619360 0.575084
v -4.732240 0.619589 0.576093
v -4.732641 0.620405 0.576508
v -4.733054 0.619360 0.575084
v -4.732002 0.618832 0.577144
v -4.732520 0.617659 0.577444
v -4.733011 0.617856 0.578292
v -4.732002 0.618832 0.577144
v -4.733403 0.616954 0.576769
v -4.733986 0.617247 0.575626
v -4.734948 0.617312 0.575890
v -4.733403 0.616954 0.576769
v -4.733716 0.620103 0.575174
v -4.733831 0.618318 0.574876
v -4.733054 0.619360 0.575084
v -4.733716 0.620103 0.575174
v -4.733831 0.618318 0.574876
v -4.732327 0.619405 0.577895
v -4.732641 0.620405 0.576508
v -4.732240 0.619589 0.576093
v -4.732002 0.618832 0.577144
v -4.732327 0.619405 0.577895
v -4.732240 0.619589 0.576093
v -4.734177 0.616924 0.577400
v -4.733011 0.617856 0.578292
v -4.732520 0.617659 0.577444
v -4.733403 0.616954 0.576769
v -4.734177 0.616924 0.577400
v -4.732520 0.617659 0.577444
v -4.734743 0.618727 0.574900
v -4.734948 0.617312 0.575890
v -4.733986 0.617247 0.575626
v -4.733831 0.618318 0.574876
v -4.734743 0.618727 0.574900
v -4.733986 0.617247 0.575626
v -4.734948 0.617312 0.575890
v -4.734743 0.618727 0.574900
v -4.736011 0.619407 0.575372
v -4.734948 0.617312 0.575890
v -4.736856 0.620058 0.576455
v -4.737048 0.618728 0.577386
v -4.736248 0.617773 0.576516
v -4.736011 0.619407 0.575372
v -4.736856 0.620058 0.576455
v -4.736248 0.617773 0.576516
v -4.736248 0.617773 0.576516
v -4.734177 0.616924 0.577400
v -4.734948 0.617312 0.575890
v -4.736248 0.617773 0.576516
v -4.734177 0.616924 0.577400
v -4.737048 0.618728 0.577386
v -4.736323 0.618363 0.578805
v -4.735357 0.617325 0.578261
v -4.736248 0.617773 0.576516
v -4.737048 0.618728 0.577386
v -4.735357 0.617325 0.578261
v -4.735357 0.617325 0.578261
v -4.733011 0.617856 0.578292
v -4.734177 0.616924 0.577400
v -4.735357 0.617325 0.578261
v -4.733011 0.617856 0.578292
v -4.736323 0.618363 0.578805
v -4.735227 0.619239 0.579644
v -4.734009 0.618401 0.579292
v -4.735357 0.617325 0.578261
v -4.736323 0.618363 0.578805
v -4.734009 0.618401 0.579292
v -4.734009 0.618401 0.579292
v -4.732327 0.619405 0.577895
v -4.733011 0.617856 0.578292
v -4.734009 0.618401 0.579292
v -4.732327 0.619405 0.577895
v -4.735227 0.619239 0.579644
v -4.734584 0.620695 0.579271
v -4.733219 0.620191 0.578833
v -4.734009 0.618401 0.579292
v -4.735227 0.619239 0.579644
v -4.733219 0.620191 0.578833
v -4.733219 0.620191 0.578833
v -4.732641 0.620405 0.576508
v -4.732327 0.619405 0.577895
v -4.733219 0.620191 0.578833
v -4.732641 0.620405 0.576508
v -4.734584 0.620695 0.579271
v -4.734879 0.621635 0.577966
v -4.733582 0.621346 0.577230
v -4.733219 0.620191 0.578833
v -4.734584 0.620695 0.579271
v -4.733582 0.621346 0.577230
v -4.733582 0.621346 0.577230
v -4.733716 0.620103 0.575174
v -4.732641 0.620405 0.576508
v -4.733582 0.621346 0.577230
v -4.733716 0.620103 0.575174
v -4.734879 0.621635 0.577966
v -4.735890 0.621352 0.576713
v -4.734824 0.620997 0.575689
v -4.733582 0.621346 0.577230
v -4.734879 0.621635 0.577966
v -4.734824 0.620997 0.575689
v -4.734824 0.620997 0.575689
v -4.736011 0.619407 0.575372
v -4.734743 0.618727 0.574900
v -4.733716 0.620103 0.575174
v -4.734824 0.620997 0.575689
v -4.734743 0.618727 0.574900
v -4.735890 0.621352 0.576713
v -4.736856 0.620058 0.576455
v -4.736011 0.619407 0.575372
v -4.734824 0.620997 0.575689
v -4.735890 0.621352 0.576713
v -4.736011 0.619407 0.575372
v -4.737229 0.620488 0.577491
v -4.737355 0.619620 0.578099
v -4.737048 0.618728 0.577386
v -4.736856 0.620058 0.576455
v -4.737229 0.620488 0.577491
v -4.737048 0.618728 0.577386
v -4.736882 0.619382 0.579025
v -4.737355 0.619620 0.578099
v -4.736166 0.619954 0.579573
v -4.737229 0.620488 0.577491
v -4.736166 0.619954 0.579573
v -4.737355 0.619620 0.578099
v -4.735747 0.620904 0.579329
v -4.736166 0.619954 0.579573
v -4.737229 0.620488 0.577491
v -4.736599 0.621333 0.577660
v -4.735747 0.620904 0.579329
v -4.737229 0.620488 0.577491
v -4.735940 0.621518 0.578478
v -4.735747 0.620904 0.579329
v -4.736599 0.621333 0.577660
v -4.729382 0.614382 0.574108
v -4.728437 0.615136 0.574831
v -4.730006 0.614695 0.572886
v -4.729840 0.615841 0.572084
v -4.730006 0.614695 0.572886
v -4.728437 0.615136 0.574831
v -4.727883 0.616390 0.574509
v -4.729840 0.615841 0.572084
v -4.728437 0.615136 0.574831
v -4.729008 0.616956 0.572306
v -4.729840 0.615841 0.572084
v -4.727883 0.616390 0.574509
v -4.728138 0.617200 0.573386
v -4.729008 0.616956 0.572306
v -4.727883 0.616390 0.574509
vn 0.7410 -0.4539 -0.4949
vn -0.6301 0.7764 0.0132
vn -0.2392 0.5799 0.7788
vn -0.3276 0.8613 0.3883
vn -0.9190 0.3890 -0.0641
vn -0.9190 0.3891 -0.0641
vn -0.4316 0.1440 0.8905
vn -0.9767 -0.0090 0.2146
vn -0.4316 0.1441 0.8905
vn -0.9767 -0.0089 0.2145
vn -0.7598 -0.1180 0.6394
vn -0.8929 -0.4361 -0.1123
vn -0.7995 0.2083 -0.5634
vn -0.9767 -0.0089 0.2146
vn -0.5720 0.0424 -0.8192
vn -0.3318 0.8354 -0.4383
vn -0.0602 0.7288 -0.6821
vn -0.5721 0.0424 -0.8191
vn -0.7994 0.2083 -0.5635
vn -0.3318 0.8354 -0.4382
vn -0.2625 -0.1293 -0.9562
vn -0.0601 0.7288 -0.6821
vn 0.2197 0.5173 -0.8271
vn 0.1579 0.9729 0.1690
vn 0.4759 0.8793 -0.0174
vn 0.2198 0.5173 -0.8271
vn 0.7247 0.6591 -0.2009
vn 0.4759 0.8793 -0.0173
vn 0.3010 0.5173 0.8011
vn 0.6325 0.3806 0.6746
vn 0.1580 0.9729 0.1690
vn 0.7248 0.6590 -0.2009
vn 0.8723 0.1893 0.4509
vn 0.6326 0.3805 0.6746
vn -0.0103 -0.1884 0.9820
vn 0.2917 -0.3917 0.8726
vn -0.0104 -0.1883 0.9821
vn 0.8723 0.1892 0.4509
vn 0.2918 -0.3918 0.8726
vn 0.5512 -0.5383 0.6375
vn 0.2917 -0.3918 0.8726
vn -0.5417 -0.6126 0.5756
vn -0.2899 -0.8562 0.4276
vn 0.5512 -0.5384 0.6374
vn 0.0033 -0.9759 0.2183
vn -0.8928 -0.4361 -0.1123
vn -0.6743 -0.6630 -0.3253
vn -0.5417 -0.6127 0.5755
vn -0.8929 -0.4361 -0.1122
vn 0.0033 -0.9759 0.2182
vn -0.3588 -0.7939 -0.4909
vn -0.7995 0.2083 -0.5635
vn -0.5720 0.0424 -0.8191
vn -0.6743 -0.6630 -0.3252
vn -0.3588 -0.7939 -0.4910
vn -0.4308 -0.7755 -0.4615
vn -0.3320 -0.0941 -0.9386
vn -0.4307 -0.7755 -0.4615
vn -0.3588 -0.7938 -0.4910
vn 0.5024 -0.5136 0.6956
vn -0.0594 -0.9622 0.2657
vn 0.6804 0.7143 -0.1640
vn 0.8316 0.2325 0.5043
vn 0.6804 0.7143 -0.1641
vn 0.7248 0.6591 -0.2009
vn 0.1625 0.5688 -0.8062
vn -0.2625 -0.1294 -0.9562
vn -0.0594 -0.9622 0.2658
vn 0.1625 0.5689 -0.8062
vn -0.0104 -0.1884 0.9820
vn -0.7598 -0.1181 0.6394
vn 0.1579 0.9729 0.1691
vn -0.2393 0.5799 0.7788
vn -0.6301 0.7764 0.0133
vn 0.3010 0.5173 0.8012
vn -0.0103 -0.1883 0.9821
vn -0.5417 -0.6126 0.5755
vn -0.5586 0.0341 -0.8287
vn -0.0465 0.7208 -0.6916
vn -0.5587 0.0341 -0.8287
vn -0.3320 -0.0942 -0.9386
vn -0.2764 -0.8651 0.4186
vn -0.6609 -0.6717 -0.3346
vn -0.2764 -0.8651 0.4187
vn 0.6466 0.3723 0.6658
vn 0.3056 -0.4003 0.8639
vn 0.6465 0.3724 0.6658
vn 0.6803 0.7143 -0.1641
vn 0.4899 0.8714 -0.0266
vn -0.5587 0.0340 -0.8287
vn -0.6610 -0.6717 -0.3346
vn 0.3056 -0.4004 0.8639
vn -0.2763 -0.8651 0.4187
vn 0.4899 0.8714 -0.0265
vn 0.8316 0.2326 0.5043
vn 0.6466 0.3724 0.6658
vt 0.543243 0.611839
vt 0.535370 0.618118
vt 0.537796 0.613083
vt 0.537796 0.623154
vt 0.547607 0.615326
vt 0.543243 0.624397
vt 0.547607 0.620918
vt 0.565384 0.671494
vt 0.570206 0.669548
vt 0.567856 0.672157
vt 0.564468 0.669609
vt 0.568146 0.666756
vt 0.564514 0.667854
vt 0.565857 0.666748
vt 0.562897 0.666855
vt 0.562302 0.669838
vt 0.559082 0.669685
vt 0.563492 0.673050
vt 0.560059 0.674789
vt 0.554092 0.669067
vt 0.554398 0.676537
vt 0.567307 0.675606
vt 0.564316 0.680244
vt 0.558044 0.684982
vt 0.575485 0.674767
vt 0.575272 0.686485
vt 0.565720 0.696274
vt 0.575485 0.658051
vt 0.568817 0.663902
vt 0.568115 0.659698
vt 0.574570 0.665543
vt 0.572052 0.651657
vt 0.565903 0.655174
vt 0.565063 0.664742
vt 0.563416 0.661980
vt 0.560669 0.658463
vt 0.560364 0.665283
vt 0.556488 0.662933
vt 0.552032 0.660286
vt 0.548294 0.668175
vt 0.563522 0.651588
vt 0.557617 0.654999
vt 0.551163 0.688484
vt 0.556610 0.699394
vt 0.547867 0.678001
vt 0.568756 0.648293
vt 0.604446 0.682632
vt 0.626221 0.687675
vt 0.604553 0.688225
vt 0.626144 0.682457
vt 0.604553 0.671455
vt 0.626144 0.677231
vt 0.604446 0.677048
vt 0.626221 0.672005
vt 0.605011 0.660294
vt 0.626404 0.666786
vt 0.604736 0.665871
vt 0.626663 0.661568
vt 0.626404 0.692902
vt 0.604736 0.693810
vt 0.626663 0.698120
vt 0.605011 0.699394
s 0
usemtl decorations
f 240/1/1 239/2/1 238/3/1
f 237/1/1 236/4/1 235/2/1
f 234/5/1 233/4/1 232/1/1
f 231/5/1 230/6/1 229/4/1
f 228/6/1 227/5/1 226/7/1
s 1
f 225/8/2 224/9/3 223/10/4
f 222/11/5 221/9/3 220/8/2
f 219/11/6 218/12/7 217/9/3
f 216/13/8 215/12/9 214/11/6
f 213/12/7 212/13/10 211/14/11
f 210/15/12 209/11/6 208/16/13
f 207/15/12 206/13/14 205/11/6
f 204/17/15 203/18/16 202/19/17
f 201/17/18 200/16/19 199/18/20
f 198/20/21 197/19/22 196/21/23
f 195/20/21 194/17/18 193/19/17
f 192/19/17 191/22/24 190/23/25
f 189/19/17 188/18/16 187/22/24
f 186/21/26 185/23/25 184/24/27
f 183/21/26 3/19/17 182/23/25
f 181/23/28 180/25/29 179/26/30
f 178/23/28 177/22/31 176/25/29
f 175/24/32 174/26/30 173/27/33
f 172/24/32 4/23/28 171/26/30
f 170/28/34 169/29/35 168/30/36
f 167/28/34 166/31/29 165/29/37
f 164/32/38 163/30/39 162/33/40
f 161/32/38 13/28/30 160/30/36
f 159/30/41 158/34/42 157/35/43
f 156/30/36 155/29/35 154/34/42
f 153/33/44 152/35/43 151/36/45
f 150/33/44 14/30/41 149/35/43
f 148/35/43 147/15/46 146/37/47
f 145/35/43 144/34/48 143/15/49
f 142/36/50 141/37/47 140/38/51
f 139/36/50 16/35/43 138/37/47
f 137/37/47 136/16/52 135/17/53
f 134/37/54 133/15/12 132/16/13
f 131/38/55 130/17/53 129/20/21
f 128/38/55 36/37/54 25/17/53
f 127/39/56 126/20/21 125/40/57
f 124/39/58 123/38/59 122/20/21
f 121/41/60 120/36/45 119/42/61
f 118/41/60 117/33/44 116/36/45
f 115/43/62 114/27/33 113/44/63
f 112/43/64 111/24/65 110/27/33
f 109/40/57 108/21/23 107/45/66
f 106/40/57 40/20/67 105/21/23
f 104/42/68 103/38/55 102/39/58
f 101/42/68 41/36/45 42/38/55
f 100/46/63 99/33/40 98/41/60
f 97/46/63 37/32/38 38/33/40
f 96/45/69 95/24/27 94/43/64
f 93/45/69 33/21/23 34/24/27
f 92/29/70 91/14/11 90/34/42
f 89/29/35 88/12/9 87/14/71
f 86/22/72 85/9/3 84/25/29
f 83/22/72 82/10/4 81/9/73
f 80/16/19 79/8/2 78/18/16
f 29/16/19 30/11/5 77/8/74
f 76/31/75 75/12/9 28/29/76
f 31/31/75 26/9/73 27/12/9
f 74/18/16 73/10/4 24/22/24
f 21/18/16 22/8/74 23/10/4
f 72/34/77 71/13/8 20/15/12
f 17/34/77 18/14/11 19/13/14
f 70/47/78 69/48/69 68/49/79
f 67/47/80 66/50/81 65/48/69
f 64/51/82 63/52/56 62/53/83
f 61/51/84 60/54/61 59/52/58
f 58/55/85 57/56/60 56/57/86
f 55/55/87 54/58/63 53/56/60
f 52/49/79 51/59/88 50/60/89
f 2/49/79 32/48/69 49/59/88
f 48/53/83 47/50/57 12/47/90
f 9/53/91 10/52/58 11/50/57
f 46/57/92 45/54/61 8/51/93
f 5/57/86 6/56/60 7/54/61
f 44/60/94 43/61/95 15/62/96
f 1/60/94 35/59/64 39/61/95
