# Blender 5.0.0
# www.blender.org
mtllib Circle_002_Circle_003_Dupli_197_decorations_0.mtl
o Circle.002|Circle.003|Dupli|197_decorations_0
v -4.637173 1.476284 0.536947
v -4.638321 1.475858 0.536251
v -4.641120 1.483176 0.535782
v -4.639482 1.483784 0.536775
v -4.637831 1.475954 0.539376
v -4.639850 1.481032 0.539433
v -4.641075 1.480558 0.539343
v -4.639141 1.475447 0.539280
v -4.639899 1.475187 0.538122
v -4.641784 1.480314 0.538260
v -4.641442 1.480486 0.537000
v -4.639534 1.475370 0.536774
v -4.639171 1.483845 0.538759
v -4.640420 1.483313 0.540240
v -4.636955 1.476327 0.538338
v -4.642290 1.482589 0.540103
v -4.642623 1.484034 0.539770
v -4.642685 1.485085 0.539229
v -4.643260 1.484887 0.538351
v -4.643504 1.483732 0.538425
v -4.641671 1.484512 0.536254
v -4.642064 1.485396 0.536934
v -4.641194 1.485719 0.537462
v -4.640339 1.485006 0.537062
v -4.642850 1.482480 0.536528
v -4.641029 1.485751 0.538515
v -4.641692 1.485469 0.539302
v -4.641102 1.484623 0.539881
v -4.643080 1.483945 0.536860
v -4.642983 1.485026 0.537330
v -4.640085 1.485056 0.538676
v -4.640308 1.480942 0.536512
v -4.640599 1.481780 0.536051
v -4.639182 1.482306 0.536910
v -4.639235 1.481340 0.537162
v -4.643371 1.482219 0.538451
v -4.638912 1.482359 0.538628
v -4.639994 1.481899 0.539909
v -4.639031 1.481380 0.538462
v -4.642097 1.481177 0.536696
v -4.641612 1.481272 0.539791
v -4.642548 1.480951 0.538361
v -4.639031 1.481380 0.538462
v -4.637173 1.476284 0.536947
v -4.641075 1.480558 0.539343
v -4.637831 1.475954 0.539376
v -4.641442 1.480486 0.537000
v -4.639899 1.475187 0.538122
v -4.639235 1.481340 0.537162
v -4.637173 1.476284 0.536947
v -4.639235 1.481340 0.537162
v -4.638321 1.475858 0.536251
v -4.639850 1.481032 0.539433
v -4.639031 1.481380 0.538462
v -4.636955 1.476327 0.538338
v -4.637831 1.475954 0.539376
v -4.639850 1.481032 0.539433
v -4.636955 1.476327 0.538338
v -4.641784 1.480314 0.538260
v -4.641075 1.480558 0.539343
v -4.639141 1.475447 0.539280
v -4.639899 1.475187 0.538122
v -4.641784 1.480314 0.538260
v -4.639141 1.475447 0.539280
v -4.640308 1.480942 0.536512
v -4.641442 1.480486 0.537000
v -4.639534 1.475370 0.536774
v -4.638321 1.475858 0.536251
v -4.640308 1.480942 0.536512
v -4.639534 1.475370 0.536774
v -4.643260 1.484887 0.538351
v -4.642623 1.484034 0.539770
v -4.641194 1.485719 0.537462
v -4.641671 1.484512 0.536254
v -4.641692 1.485469 0.539302
v -4.640085 1.485056 0.538676
v -4.642064 1.485396 0.536934
v -4.641671 1.484512 0.536254
v -4.642064 1.485396 0.536934
v -4.643080 1.483945 0.536860
v -4.641029 1.485751 0.538515
v -4.641194 1.485719 0.537462
v -4.640339 1.485006 0.537062
v -4.640085 1.485056 0.538676
v -4.641029 1.485751 0.538515
v -4.640339 1.485006 0.537062
v -4.642685 1.485085 0.539229
v -4.641692 1.485469 0.539302
v -4.641102 1.484623 0.539881
v -4.642623 1.484034 0.539770
v -4.642685 1.485085 0.539229
v -4.641102 1.484623 0.539881
v -4.640308 1.480942 0.536512
v -4.639235 1.481340 0.537162
v -4.639182 1.482306 0.536910
v -4.640308 1.480942 0.536512
v -4.639031 1.481380 0.538462
v -4.639850 1.481032 0.539433
v -4.639994 1.481899 0.539909
v -4.639031 1.481380 0.538462
v -4.641075 1.480558 0.539343
v -4.641784 1.480314 0.538260
v -4.642548 1.480951 0.538361
v -4.641075 1.480558 0.539343
v -4.640599 1.481780 0.536051
v -4.641442 1.480486 0.537000
v -4.640308 1.480942 0.536512
v -4.640599 1.481780 0.536051
v -4.641442 1.480486 0.537000
v -4.638912 1.482359 0.538628
v -4.639182 1.482306 0.536910
v -4.639235 1.481340 0.537162
v -4.639031 1.481380 0.538462
v -4.638912 1.482359 0.538628
v -4.639235 1.481340 0.537162
v -4.641612 1.481272 0.539791
v -4.639994 1.481899 0.539909
v -4.639850 1.481032 0.539433
v -4.641075 1.480558 0.539343
v -4.641612 1.481272 0.539791
v -4.639850 1.481032 0.539433
v -4.642097 1.481177 0.536696
v -4.642548 1.480951 0.538361
v -4.641784 1.480314 0.538260
v -4.641442 1.480486 0.537000
v -4.642097 1.481177 0.536696
v -4.641784 1.480314 0.538260
v -4.642548 1.480951 0.538361
v -4.642097 1.481177 0.536696
v -4.642850 1.482480 0.536528
v -4.642548 1.480951 0.538361
v -4.643080 1.483945 0.536860
v -4.643504 1.483732 0.538425
v -4.643371 1.482219 0.538451
v -4.642850 1.482480 0.536528
v -4.643080 1.483945 0.536860
v -4.643371 1.482219 0.538451
v -4.643371 1.482219 0.538451
v -4.641612 1.481272 0.539791
v -4.642548 1.480951 0.538361
v -4.643371 1.482219 0.538451
v -4.641612 1.481272 0.539791
v -4.643504 1.483732 0.538425
v -4.642623 1.484034 0.539770
v -4.642290 1.482589 0.540103
v -4.643371 1.482219 0.538451
v -4.643504 1.483732 0.538425
v -4.642290 1.482589 0.540103
v -4.642290 1.482589 0.540103
v -4.639994 1.481899 0.539909
v -4.641612 1.481272 0.539791
v -4.642290 1.482589 0.540103
v -4.639994 1.481899 0.539909
v -4.642623 1.484034 0.539770
v -4.641102 1.484623 0.539881
v -4.640420 1.483313 0.540240
v -4.642290 1.482589 0.540103
v -4.642623 1.484034 0.539770
v -4.640420 1.483313 0.540240
v -4.640420 1.483313 0.540240
v -4.638912 1.482359 0.538628
v -4.639994 1.481899 0.539909
v -4.640420 1.483313 0.540240
v -4.638912 1.482359 0.538628
v -4.641102 1.484623 0.539881
v -4.640085 1.485056 0.538676
v -4.639171 1.483845 0.538759
v -4.640420 1.483313 0.540240
v -4.641102 1.484623 0.539881
v -4.639171 1.483845 0.538759
v -4.639171 1.483845 0.538759
v -4.639182 1.482306 0.536910
v -4.638912 1.482359 0.538628
v -4.639171 1.483845 0.538759
v -4.639182 1.482306 0.536910
v -4.640085 1.485056 0.538676
v -4.640339 1.485006 0.537062
v -4.639482 1.483784 0.536775
v -4.639171 1.483845 0.538759
v -4.640085 1.485056 0.538676
v -4.639482 1.483784 0.536775
v -4.639482 1.483784 0.536775
v -4.640599 1.481780 0.536051
v -4.639182 1.482306 0.536910
v -4.639482 1.483784 0.536775
v -4.640599 1.481780 0.536051
v -4.640339 1.485006 0.537062
v -4.641671 1.484512 0.536254
v -4.641120 1.483176 0.535782
v -4.639482 1.483784 0.536775
v -4.640339 1.485006 0.537062
v -4.641120 1.483176 0.535782
v -4.641120 1.483176 0.535782
v -4.642850 1.482480 0.536528
v -4.642097 1.481177 0.536696
v -4.640599 1.481780 0.536051
v -4.641120 1.483176 0.535782
v -4.642097 1.481177 0.536696
v -4.641671 1.484512 0.536254
v -4.643080 1.483945 0.536860
v -4.642850 1.482480 0.536528
v -4.641120 1.483176 0.535782
v -4.641671 1.484512 0.536254
v -4.642850 1.482480 0.536528
v -4.642983 1.485026 0.537330
v -4.643260 1.484887 0.538351
v -4.643504 1.483732 0.538425
v -4.643080 1.483945 0.536860
v -4.642983 1.485026 0.537330
v -4.643504 1.483732 0.538425
v -4.642685 1.485085 0.539229
v -4.643260 1.484887 0.538351
v -4.641692 1.485469 0.539302
v -4.642983 1.485026 0.537330
v -4.641692 1.485469 0.539302
v -4.643260 1.484887 0.538351
v -4.641029 1.485751 0.538515
v -4.641692 1.485469 0.539302
v -4.642983 1.485026 0.537330
v -4.642064 1.485396 0.536934
v -4.641029 1.485751 0.538515
v -4.642983 1.485026 0.537330
v -4.641194 1.485719 0.537462
v -4.641029 1.485751 0.538515
v -4.642064 1.485396 0.536934
v -4.639141 1.475447 0.539280
v -4.637831 1.475954 0.539376
v -4.639899 1.475187 0.538122
v -4.639534 1.475370 0.536774
v -4.639899 1.475187 0.538122
v -4.637831 1.475954 0.539376
v -4.636955 1.476327 0.538338
v -4.639534 1.475370 0.536774
v -4.637831 1.475954 0.539376
v -4.638321 1.475858 0.536251
v -4.639534 1.475370 0.536774
v -4.636955 1.476327 0.538338
v -4.637173 1.476284 0.536947
v -4.638321 1.475858 0.536251
v -4.636955 1.476327 0.538338
vn 0.3627 -0.9315 -0.0283
vn -0.2694 0.7981 -0.5390
vn 0.2052 0.9609 0.1861
vn 0.1294 0.9460 -0.2971
vn -0.6910 0.6284 -0.3573
vn -0.6909 0.6284 -0.3574
vn -0.0991 0.8314 0.5468
vn -0.8177 0.5648 0.1110
vn -0.8177 0.5648 0.1109
vn -0.5543 0.6551 0.5133
vn -0.9870 0.0492 0.1533
vn -0.7817 0.1522 -0.6048
vn -0.8177 0.5649 0.1110
vn -0.6909 0.6285 -0.3573
vn -0.7073 -0.2144 -0.6736
vn -0.0993 0.4268 -0.8989
vn 0.0396 0.0863 -0.9955
vn -0.7073 -0.2143 -0.6736
vn -0.0993 0.4269 -0.8988
vn -0.5310 -0.5494 -0.6452
vn 0.0397 0.0863 -0.9955
vn 0.1727 -0.2661 -0.9484
vn 0.0396 0.0864 -0.9955
vn 0.5464 0.6664 -0.5073
vn 0.7464 0.3485 -0.5669
vn -0.0992 0.4268 -0.8989
vn 0.1727 -0.2661 -0.9483
vn 0.7464 0.3485 -0.5670
vn 0.8384 -0.0191 -0.5446
vn 0.6692 0.6904 0.2749
vn 0.8808 0.3748 0.2894
vn 0.6691 0.6904 0.2749
vn 0.8385 -0.0192 -0.5446
vn 0.9650 0.0057 0.2620
vn 0.8808 0.3747 0.2894
vn 0.1766 0.4808 0.8589
vn 0.3416 0.1454 0.9285
vn 0.6692 0.6904 0.2750
vn 0.1766 0.4808 0.8588
vn 0.9650 0.0056 0.2621
vn 0.4571 -0.2104 0.8642
vn -0.5605 0.1955 0.8048
vn -0.4652 -0.1670 0.8693
vn 0.1765 0.4808 0.8589
vn 0.4571 -0.2105 0.8642
vn -0.3030 -0.5047 0.8084
vn -0.9869 0.0492 0.1534
vn -0.9320 -0.3271 0.1563
vn -0.5605 0.1954 0.8048
vn -0.3030 -0.5048 0.8083
vn -0.7427 -0.6555 0.1367
vn -0.9320 -0.3271 0.1562
vn -0.9320 -0.3270 0.1563
vn -0.9869 0.0492 0.1533
vn -0.7427 -0.6556 0.1367
vn -0.5310 -0.5493 -0.6452
vn -0.7923 -0.5932 0.1425
vn -0.5310 -0.5493 -0.6451
vn -0.5752 -0.4844 -0.6592
vn -0.7923 -0.5933 0.1425
vn 0.4379 -0.1369 0.8885
vn -0.3029 -0.5047 0.8084
vn -0.3414 -0.4386 0.8313
vn 0.8290 0.0594 -0.5560
vn 0.9650 0.0056 0.2620
vn 0.9588 0.0847 0.2711
vn 0.8290 0.0593 -0.5561
vn 0.8385 -0.0191 -0.5446
vn -0.5753 -0.4843 -0.6592
vn 0.1726 -0.2661 -0.9484
vn 0.1463 -0.1940 -0.9700
vn -0.5753 -0.4844 -0.6591
vn -0.5310 -0.5494 -0.6451
vn 0.9588 0.0848 0.2711
vn 0.4571 -0.2105 0.8641
vn 0.1463 -0.1939 -0.9701
vn 0.8290 0.0593 -0.5560
vn 0.1463 -0.1939 -0.9700
vn -0.5543 0.6552 0.5133
vn -0.0991 0.8314 0.5467
vn -0.5544 0.6551 0.5133
vn 0.1294 0.9460 -0.2972
vn -0.7816 0.1522 -0.6049
vn -0.2694 0.7981 -0.5389
vn -0.0993 0.4269 -0.8989
vn 0.6691 0.6904 0.2750
vn -0.5605 0.1955 0.8047
vn -0.7010 -0.2317 -0.6745
vn 0.0464 0.0691 -0.9965
vn -0.7010 -0.2316 -0.6745
vn -0.4588 -0.1843 0.8692
vn -0.9258 -0.3445 0.1559
vn 0.8880 0.3577 0.2891
vn 0.3485 0.1283 0.9285
vn 0.8879 0.3578 0.2891
vn 0.8290 0.0594 -0.5561
vn 0.7535 0.3314 -0.5678
vn 0.0464 0.0692 -0.9965
vn -0.9258 -0.3445 0.1558
vn -0.9258 -0.3444 0.1558
vn 0.3485 0.1282 0.9285
vn 0.7535 0.3314 -0.5677
vn 0.8880 0.3577 0.2890
vn 0.7535 0.3315 -0.5677
vt 0.530319 0.611839
vt 0.522446 0.618118
vt 0.524872 0.613083
vt 0.524872 0.623154
vt 0.534683 0.615326
vt 0.530319 0.624397
vt 0.534683 0.620918
vt 0.537079 0.671494
vt 0.541916 0.669548
vt 0.539566 0.672157
vt 0.536179 0.669609
vt 0.539856 0.666756
vt 0.536224 0.667854
vt 0.537567 0.666748
vt 0.534592 0.666855
vt 0.534012 0.669838
vt 0.530777 0.669685
vt 0.535187 0.673050
vt 0.531769 0.674789
vt 0.525803 0.669067
vt 0.526108 0.676537
vt 0.539017 0.675606
vt 0.536011 0.680244
vt 0.529755 0.684982
vt 0.547180 0.674767
vt 0.546982 0.686485
vt 0.537415 0.696274
vt 0.547180 0.658051
vt 0.540527 0.663902
vt 0.539825 0.659698
vt 0.546280 0.665543
vt 0.543762 0.651657
vt 0.537613 0.655174
vt 0.536758 0.664742
vt 0.535126 0.661980
vt 0.532364 0.658463
vt 0.532074 0.665283
vt 0.528198 0.662933
vt 0.523743 0.660286
vt 0.519989 0.668175
vt 0.535217 0.651588
vt 0.529327 0.654999
vt 0.522873 0.688484
vt 0.528320 0.699394
vt 0.519577 0.678001
vt 0.540466 0.648293
vt 0.604446 0.642853
vt 0.626221 0.647896
vt 0.604553 0.648445
vt 0.626144 0.642670
vt 0.604553 0.631676
vt 0.626144 0.637444
vt 0.604446 0.637268
vt 0.626221 0.632225
vt 0.605011 0.620506
vt 0.626404 0.626999
vt 0.604736 0.626091
vt 0.626663 0.621780
vt 0.626404 0.653114
vt 0.604736 0.654030
vt 0.626663 0.658333
vt 0.605011 0.659607
s 0
usemtl decorations
f 240/1/1 239/2/1 238/3/1
f 237/1/1 236/4/1 235/2/1
f 234/5/1 233/4/1 232/1/1
f 231/5/1 230/6/1 229/4/1
f 228/6/1 227/5/1 226/7/1
s 1
f 225/8/2 224/9/3 223/10/4
f 222/11/5 221/9/3 220/8/2
f 219/11/6 218/12/7 217/9/3
f 216/13/8 215/12/7 214/11/6
f 213/12/7 212/13/9 211/14/10
f 210/15/11 209/11/6 208/16/12
f 207/15/11 206/13/13 205/11/14
f 204/17/15 203/18/16 202/19/17
f 201/17/18 200/16/12 199/18/19
f 198/20/20 197/19/21 196/21/22
f 195/20/20 194/17/18 193/19/23
f 192/19/17 191/22/24 190/23/25
f 189/19/17 188/18/26 187/22/24
f 186/21/27 185/23/28 184/24/29
f 183/21/27 3/19/21 182/23/28
f 181/23/25 180/25/30 179/26/31
f 178/23/25 177/22/24 176/25/32
f 175/24/33 174/26/31 173/27/34
f 172/24/33 4/23/25 171/26/31
f 170/28/35 169/29/36 168/30/37
f 167/28/35 166/31/38 165/29/39
f 164/32/40 163/30/37 162/33/41
f 161/32/40 13/28/31 160/30/37
f 159/30/37 158/34/42 157/35/43
f 156/30/37 155/29/44 154/34/42
f 153/33/45 152/35/43 151/36/46
f 150/33/45 14/30/37 149/35/43
f 148/35/43 147/15/47 146/37/48
f 145/35/43 144/34/49 143/15/47
f 142/36/50 141/37/48 140/38/51
f 139/36/50 16/35/43 138/37/48
f 137/37/52 136/16/12 135/17/18
f 134/37/53 133/15/54 132/16/12
f 131/38/55 130/17/18 129/20/56
f 128/38/55 36/37/48 25/17/18
f 127/39/57 126/20/58 125/40/59
f 124/39/60 123/38/51 122/20/58
f 121/41/61 120/36/62 119/42/63
f 118/41/61 117/33/45 116/36/62
f 115/43/64 114/27/65 113/44/66
f 112/43/67 111/24/68 110/27/65
f 109/40/69 108/21/70 107/45/71
f 106/40/72 40/20/73 105/21/70
f 104/42/63 103/38/51 102/39/60
f 101/42/63 41/36/46 42/38/51
f 100/46/74 99/33/75 98/41/61
f 97/46/66 37/32/40 38/33/75
f 96/45/76 95/24/68 94/43/77
f 93/45/78 33/21/22 34/24/68
f 92/29/44 91/14/79 90/34/42
f 89/29/44 88/12/80 87/14/81
f 86/22/24 85/9/3 84/25/30
f 83/22/24 82/10/82 81/9/3
f 80/16/83 79/8/84 78/18/85
f 29/16/83 30/11/5 77/8/84
f 76/31/86 75/12/7 28/29/39
f 31/31/86 26/9/3 27/12/80
f 74/18/16 73/10/4 24/22/24
f 21/18/26 22/8/84 23/10/4
f 72/34/87 71/13/9 20/15/54
f 17/34/87 18/14/79 19/13/13
f 70/47/88 69/48/76 68/49/89
f 67/47/90 66/50/72 65/48/78
f 64/51/91 63/52/57 62/53/92
f 61/51/91 60/54/63 59/52/60
f 58/55/93 57/56/61 56/57/94
f 55/55/95 54/58/66 53/56/61
f 52/49/89 51/59/96 50/60/97
f 2/49/98 32/48/71 49/59/67
f 48/53/99 47/50/69 12/47/88
f 9/53/100 10/52/57 11/50/59
f 46/57/101 45/54/63 8/51/91
f 5/57/94 6/56/61 7/54/63
f 44/60/102 43/61/74 15/62/103
f 1/60/104 35/59/67 39/61/66
