# Blender 5.0.0
# www.blender.org
mtllib Circle_002_Circle_003_Dupli_205_decorations_0.mtl
o Circle.002|Circle.003|Dupli|205_decorations_0
v -4.308346 1.710719 0.566807
v -4.308036 1.710272 0.565508
v -4.315594 1.710217 0.563393
v -4.316038 1.710855 0.565246
v -4.308475 1.708559 0.568132
v -4.313786 1.708211 0.566893
v -4.313525 1.707294 0.565985
v -4.308196 1.707578 0.567161
v -4.307915 1.707753 0.565792
v -4.313262 1.707458 0.564705
v -4.313196 1.708578 0.564017
v -4.307844 1.708952 0.565057
v -4.316316 1.709768 0.566913
v -4.316221 1.707773 0.567138
v -4.308542 1.709957 0.567975
v -4.315823 1.706374 0.565752
v -4.317244 1.706679 0.565307
v -4.318203 1.707229 0.564888
v -4.317991 1.707361 0.563851
v -4.316917 1.706882 0.563718
v -4.317058 1.709806 0.563388
v -4.318082 1.709270 0.563636
v -4.318317 1.709609 0.564620
v -4.317418 1.710326 0.564896
v -4.315320 1.708333 0.562749
v -4.318466 1.709031 0.565505
v -4.318415 1.707972 0.565624
v -4.317567 1.707818 0.566435
v -4.316835 1.708274 0.562864
v -4.317937 1.708269 0.563294
v -4.317645 1.709441 0.566252
v -4.313375 1.709812 0.564439
v -4.314179 1.710099 0.563919
v -4.314563 1.710651 0.565523
v -4.313665 1.710230 0.565653
v -4.315422 1.706623 0.563799
v -4.314804 1.709710 0.566965
v -4.314721 1.707984 0.567160
v -4.313848 1.709518 0.566745
v -4.313942 1.708468 0.563362
v -4.314377 1.706772 0.565961
v -4.314030 1.706988 0.564270
v -4.313848 1.709518 0.566745
v -4.308346 1.710719 0.566807
v -4.313525 1.707294 0.565985
v -4.308475 1.708559 0.568132
v -4.313196 1.708578 0.564017
v -4.307915 1.707753 0.565792
v -4.313665 1.710230 0.565653
v -4.308346 1.710719 0.566807
v -4.313665 1.710230 0.565653
v -4.308036 1.710272 0.565508
v -4.313786 1.708211 0.566893
v -4.313848 1.709518 0.566745
v -4.308542 1.709957 0.567975
v -4.308475 1.708559 0.568132
v -4.313786 1.708211 0.566893
v -4.308542 1.709957 0.567975
v -4.313262 1.707458 0.564705
v -4.313525 1.707294 0.565985
v -4.308196 1.707578 0.567161
v -4.307915 1.707753 0.565792
v -4.313262 1.707458 0.564705
v -4.308196 1.707578 0.567161
v -4.313375 1.709812 0.564439
v -4.313196 1.708578 0.564017
v -4.307844 1.708952 0.565057
v -4.308036 1.710272 0.565508
v -4.313375 1.709812 0.564439
v -4.307844 1.708952 0.565057
v -4.317991 1.707361 0.563851
v -4.317244 1.706679 0.565307
v -4.318317 1.709609 0.564620
v -4.317058 1.709806 0.563388
v -4.318415 1.707972 0.565624
v -4.317645 1.709441 0.566252
v -4.318082 1.709270 0.563636
v -4.317058 1.709806 0.563388
v -4.318082 1.709270 0.563636
v -4.316835 1.708274 0.562864
v -4.318466 1.709031 0.565505
v -4.318317 1.709609 0.564620
v -4.317418 1.710326 0.564896
v -4.317645 1.709441 0.566252
v -4.318466 1.709031 0.565505
v -4.317418 1.710326 0.564896
v -4.318203 1.707229 0.564888
v -4.318415 1.707972 0.565624
v -4.317567 1.707818 0.566435
v -4.317244 1.706679 0.565307
v -4.318203 1.707229 0.564888
v -4.317567 1.707818 0.566435
v -4.313375 1.709812 0.564439
v -4.313665 1.710230 0.565653
v -4.314563 1.710651 0.565523
v -4.313375 1.709812 0.564439
v -4.313848 1.709518 0.566745
v -4.313786 1.708211 0.566893
v -4.314721 1.707984 0.567160
v -4.313848 1.709518 0.566745
v -4.313525 1.707294 0.565985
v -4.313262 1.707458 0.564705
v -4.314030 1.706988 0.564270
v -4.313525 1.707294 0.565985
v -4.314179 1.710099 0.563919
v -4.313196 1.708578 0.564017
v -4.313375 1.709812 0.564439
v -4.314179 1.710099 0.563919
v -4.313196 1.708578 0.564017
v -4.314804 1.709710 0.566965
v -4.314563 1.710651 0.565523
v -4.313665 1.710230 0.565653
v -4.313848 1.709518 0.566745
v -4.314804 1.709710 0.566965
v -4.313665 1.710230 0.565653
v -4.314377 1.706772 0.565961
v -4.314721 1.707984 0.567160
v -4.313786 1.708211 0.566893
v -4.313525 1.707294 0.565985
v -4.314377 1.706772 0.565961
v -4.313786 1.708211 0.566893
v -4.313942 1.708468 0.563362
v -4.314030 1.706988 0.564270
v -4.313262 1.707458 0.564705
v -4.313196 1.708578 0.564017
v -4.313942 1.708468 0.563362
v -4.313262 1.707458 0.564705
v -4.314030 1.706988 0.564270
v -4.313942 1.708468 0.563362
v -4.315320 1.708333 0.562749
v -4.314030 1.706988 0.564270
v -4.316835 1.708274 0.562864
v -4.316917 1.706882 0.563718
v -4.315422 1.706623 0.563799
v -4.315320 1.708333 0.562749
v -4.316835 1.708274 0.562864
v -4.315422 1.706623 0.563799
v -4.315422 1.706623 0.563799
v -4.314377 1.706772 0.565961
v -4.314030 1.706988 0.564270
v -4.315422 1.706623 0.563799
v -4.314377 1.706772 0.565961
v -4.316917 1.706882 0.563718
v -4.317244 1.706679 0.565307
v -4.315823 1.706374 0.565752
v -4.315422 1.706623 0.563799
v -4.316917 1.706882 0.563718
v -4.315823 1.706374 0.565752
v -4.315823 1.706374 0.565752
v -4.314721 1.707984 0.567160
v -4.314377 1.706772 0.565961
v -4.315823 1.706374 0.565752
v -4.314721 1.707984 0.567160
v -4.317244 1.706679 0.565307
v -4.317567 1.707818 0.566435
v -4.316221 1.707773 0.567138
v -4.315823 1.706374 0.565752
v -4.317244 1.706679 0.565307
v -4.316221 1.707773 0.567138
v -4.316221 1.707773 0.567138
v -4.314804 1.709710 0.566965
v -4.314721 1.707984 0.567160
v -4.316221 1.707773 0.567138
v -4.314804 1.709710 0.566965
v -4.317567 1.707818 0.566435
v -4.317645 1.709441 0.566252
v -4.316316 1.709768 0.566913
v -4.316221 1.707773 0.567138
v -4.317567 1.707818 0.566435
v -4.316316 1.709768 0.566913
v -4.316316 1.709768 0.566913
v -4.314563 1.710651 0.565523
v -4.314804 1.709710 0.566965
v -4.316316 1.709768 0.566913
v -4.314563 1.710651 0.565523
v -4.317645 1.709441 0.566252
v -4.317418 1.710326 0.564896
v -4.316038 1.710855 0.565246
v -4.316316 1.709768 0.566913
v -4.317645 1.709441 0.566252
v -4.316038 1.710855 0.565246
v -4.316038 1.710855 0.565246
v -4.314179 1.710099 0.563919
v -4.314563 1.710651 0.565523
v -4.316038 1.710855 0.565246
v -4.314179 1.710099 0.563919
v -4.317418 1.710326 0.564896
v -4.317058 1.709806 0.563388
v -4.315594 1.710217 0.563393
v -4.316038 1.710855 0.565246
v -4.317418 1.710326 0.564896
v -4.315594 1.710217 0.563393
v -4.315594 1.710217 0.563393
v -4.315320 1.708333 0.562749
v -4.313942 1.708468 0.563362
v -4.314179 1.710099 0.563919
v -4.315594 1.710217 0.563393
v -4.313942 1.708468 0.563362
v -4.317058 1.709806 0.563388
v -4.316835 1.708274 0.562864
v -4.315320 1.708333 0.562749
v -4.315594 1.710217 0.563393
v -4.317058 1.709806 0.563388
v -4.315320 1.708333 0.562749
v -4.317937 1.708269 0.563294
v -4.317991 1.707361 0.563851
v -4.316917 1.706882 0.563718
v -4.316835 1.708274 0.562864
v -4.317937 1.708269 0.563294
v -4.316917 1.706882 0.563718
v -4.318203 1.707229 0.564888
v -4.317991 1.707361 0.563851
v -4.318415 1.707972 0.565624
v -4.317937 1.708269 0.563294
v -4.318415 1.707972 0.565624
v -4.317991 1.707361 0.563851
v -4.318466 1.709031 0.565505
v -4.318415 1.707972 0.565624
v -4.317937 1.708269 0.563294
v -4.318082 1.709270 0.563636
v -4.318466 1.709031 0.565505
v -4.317937 1.708269 0.563294
v -4.318317 1.709609 0.564620
v -4.318466 1.709031 0.565505
v -4.318082 1.709270 0.563636
v -4.308196 1.707578 0.567161
v -4.308475 1.708559 0.568132
v -4.307915 1.707753 0.565792
v -4.307844 1.708952 0.565057
v -4.307915 1.707753 0.565792
v -4.308475 1.708559 0.568132
v -4.308542 1.709957 0.567975
v -4.307844 1.708952 0.565057
v -4.308475 1.708559 0.568132
v -4.308036 1.710272 0.565508
v -4.307844 1.708952 0.565057
v -4.308542 1.709957 0.567975
v -4.308346 1.710719 0.566807
v -4.308036 1.710272 0.565508
v -4.308542 1.709957 0.567975
vn 0.9754 0.0703 0.2090
vn -0.7508 0.3446 -0.5635
vn -0.9266 0.2352 0.2935
vn -0.8587 0.5001 -0.1123
vn -0.6841 -0.1141 -0.7204
vn -0.7508 0.3446 -0.5636
vn -0.6841 -0.1140 -0.7204
vn -0.9033 -0.2505 0.3483
vn -0.7088 -0.5306 -0.4648
vn -0.7088 -0.5305 -0.4648
vn -0.8064 -0.5913 0.0108
vn -0.2416 -0.7937 -0.5584
vn -0.2015 -0.1194 -0.9722
vn -0.2415 -0.7937 -0.5584
vn -0.7089 -0.5306 -0.4648
vn 0.1784 -0.1019 -0.9787
vn -0.3094 0.6232 -0.7182
vn 0.0601 0.7109 -0.7007
vn 0.1783 -0.1019 -0.9787
vn -0.3095 0.6232 -0.7182
vn 0.5318 -0.0698 -0.8440
vn 0.0602 0.7109 -0.7007
vn 0.4204 0.6960 -0.5821
vn -0.4842 0.8749 0.0123
vn -0.1311 0.9864 0.0989
vn 0.4205 0.6960 -0.5821
vn 0.2403 0.9555 0.1712
vn -0.1311 0.9864 0.0990
vn -0.5940 0.4462 0.6694
vn -0.2514 0.5171 0.8182
vn -0.5941 0.4462 0.6693
vn 0.1270 0.5134 0.8487
vn -0.5564 -0.3401 0.7581
vn -0.2102 -0.3436 0.9153
vn -0.5941 0.4461 0.6694
vn 0.1270 0.5133 0.8487
vn -0.2101 -0.3436 0.9153
vn 0.1658 -0.2974 0.9402
vn -0.2102 -0.3435 0.9153
vn -0.3996 -0.8919 0.2117
vn -0.0384 -0.9476 0.3172
vn -0.5564 -0.3402 0.7581
vn 0.1659 -0.2974 0.9402
vn 0.3276 -0.8664 0.3768
vn -0.2416 -0.7937 -0.5583
vn 0.1345 -0.8400 -0.5257
vn -0.3995 -0.8919 0.2117
vn 0.4904 -0.7651 -0.4172
vn 0.1344 -0.8400 -0.5257
vn 0.4905 -0.7651 -0.4172
vn 0.4202 -0.7905 -0.4456
vn 0.4626 -0.0775 -0.8831
vn 0.4203 -0.7905 -0.4456
vn 0.0873 -0.3110 0.9464
vn 0.2533 -0.8944 0.3687
vn 0.0874 -0.3110 0.9464
vn 0.1637 0.9738 0.1579
vn 0.0475 0.5204 0.8526
vn 0.1637 0.9738 0.1578
vn 0.4626 -0.0775 -0.8832
vn 0.4205 0.6959 -0.5821
vn 0.3485 0.7077 -0.6146
vn 0.2532 -0.8944 0.3687
vn 0.4203 -0.7905 -0.4455
vn 0.0475 0.5205 0.8526
vn 0.3484 0.7077 -0.6146
vn 0.1638 0.9738 0.1579
vn -0.9033 -0.2504 0.3483
vn -0.8587 0.5001 -0.1124
vn -0.2015 -0.1193 -0.9722
vn -0.5941 0.4461 0.6693
vn 0.1965 -0.1006 -0.9753
vn 0.0782 0.7126 -0.6972
vn 0.1964 -0.1006 -0.9753
vn 0.4627 -0.0775 -0.8831
vn -0.0204 -0.9468 0.3212
vn 0.1525 -0.8392 -0.5220
vn -0.2335 0.5186 0.8225
vn -0.1922 -0.3424 0.9197
vn 0.0476 0.5205 0.8526
vn -0.1131 0.9882 0.1028
vn 0.1526 -0.8391 -0.5221
vn 0.1965 -0.1007 -0.9753
vn 0.1525 -0.8391 -0.5221
vn -0.0204 -0.9468 0.3213
vn -0.1923 -0.3424 0.9197
vn -0.1131 0.9882 0.1029
vn -0.2335 0.5187 0.8225
vn -0.1132 0.9882 0.1029
vn 0.1638 0.9738 0.1578
vt 0.530319 0.611839
vt 0.522446 0.618118
vt 0.524872 0.613083
vt 0.524872 0.623154
vt 0.534683 0.615326
vt 0.530319 0.624397
vt 0.534683 0.620918
vt 0.537079 0.671494
vt 0.541916 0.669548
vt 0.539566 0.672157
vt 0.536179 0.669609
vt 0.539856 0.666756
vt 0.536224 0.667854
vt 0.537567 0.666748
vt 0.534592 0.666855
vt 0.534012 0.669838
vt 0.530777 0.669685
vt 0.535187 0.673050
vt 0.531769 0.674789
vt 0.525803 0.669067
vt 0.526108 0.676537
vt 0.539017 0.675606
vt 0.536011 0.680244
vt 0.529755 0.684982
vt 0.547180 0.674767
vt 0.546982 0.686485
vt 0.537415 0.696274
vt 0.547180 0.658051
vt 0.540527 0.663902
vt 0.539825 0.659698
vt 0.546280 0.665543
vt 0.543762 0.651657
vt 0.537613 0.655174
vt 0.536758 0.664742
vt 0.535126 0.661980
vt 0.532364 0.658463
vt 0.532074 0.665283
vt 0.528198 0.662933
vt 0.523743 0.660286
vt 0.519989 0.668175
vt 0.535217 0.651588
vt 0.529327 0.654999
vt 0.522873 0.688484
vt 0.528320 0.699394
vt 0.519577 0.678001
vt 0.540466 0.648293
vt 0.604446 0.642853
vt 0.626221 0.647896
vt 0.604553 0.648445
vt 0.626144 0.642670
vt 0.604553 0.631676
vt 0.626144 0.637444
vt 0.604446 0.637268
vt 0.626221 0.632225
vt 0.605011 0.620506
vt 0.626404 0.626999
vt 0.604736 0.626091
vt 0.626663 0.621780
vt 0.626404 0.653114
vt 0.604736 0.654030
vt 0.626663 0.658333
vt 0.605011 0.659607
s 0
usemtl decorations
f 240/1/1 239/2/1 238/3/1
f 237/1/1 236/4/1 235/2/1
f 234/5/1 233/4/1 232/1/1
f 231/5/1 230/6/1 229/4/1
f 228/6/1 227/5/1 226/7/1
s 1
f 225/8/2 224/9/3 223/10/4
f 222/11/5 221/9/3 220/8/6
f 219/11/7 218/12/8 217/9/3
f 216/13/9 215/12/8 214/11/7
f 213/12/8 212/13/10 211/14/11
f 210/15/12 209/11/5 208/16/13
f 207/15/14 206/13/15 205/11/5
f 204/17/16 203/18/17 202/19/18
f 201/17/19 200/16/13 199/18/20
f 198/20/21 197/19/22 196/21/23
f 195/20/21 194/17/19 193/19/18
f 192/19/18 191/22/24 190/23/25
f 189/19/18 188/18/17 187/22/24
f 186/21/26 185/23/25 184/24/27
f 183/21/26 3/19/18 182/23/25
f 181/23/28 180/25/29 179/26/30
f 178/23/28 177/22/24 176/25/31
f 175/24/27 174/26/30 173/27/32
f 172/24/27 4/23/28 171/26/30
f 170/28/30 169/29/33 168/30/34
f 167/28/30 166/31/35 165/29/33
f 164/32/36 163/30/37 162/33/38
f 161/32/36 13/28/30 160/30/39
f 159/30/34 158/34/40 157/35/41
f 156/30/34 155/29/42 154/34/40
f 153/33/43 152/35/41 151/36/44
f 150/33/43 14/30/34 149/35/41
f 148/35/41 147/15/45 146/37/46
f 145/35/41 144/34/47 143/15/45
f 142/36/44 141/37/46 140/38/48
f 139/36/44 16/35/41 138/37/46
f 137/37/46 136/16/13 135/17/19
f 134/37/49 133/15/45 132/16/13
f 131/38/50 130/17/19 129/20/21
f 128/38/50 36/37/49 25/17/19
f 127/39/51 126/20/21 125/40/52
f 124/39/53 123/38/50 122/20/21
f 121/41/54 120/36/44 119/42/55
f 118/41/56 117/33/43 116/36/44
f 115/43/57 114/27/32 113/44/58
f 112/43/59 111/24/27 110/27/32
f 109/40/60 108/21/61 107/45/62
f 106/40/60 40/20/21 105/21/61
f 104/42/63 103/38/48 102/39/64
f 101/42/63 41/36/44 42/38/48
f 100/46/58 99/33/38 98/41/56
f 97/46/65 37/32/36 38/33/38
f 96/45/66 95/24/27 94/43/67
f 93/45/62 33/21/26 34/24/27
f 92/29/42 91/14/11 90/34/40
f 89/29/42 88/12/68 87/14/11
f 86/22/24 85/9/3 84/25/31
f 83/22/24 82/10/69 81/9/3
f 80/16/70 79/8/2 78/18/20
f 29/16/70 30/11/5 77/8/2
f 76/31/71 75/12/8 28/29/33
f 31/31/35 26/9/3 27/12/68
f 74/18/17 73/10/4 24/22/24
f 21/18/17 22/8/2 23/10/69
f 72/34/40 71/13/9 20/15/45
f 17/34/47 18/14/11 19/13/15
f 70/47/72 69/48/66 68/49/73
f 67/47/74 66/50/75 65/48/62
f 64/51/76 63/52/51 62/53/77
f 61/51/76 60/54/63 59/52/53
f 58/55/78 57/56/56 56/57/79
f 55/55/78 54/58/80 53/56/56
f 52/49/73 51/59/59 50/60/81
f 2/49/73 32/48/62 49/59/59
f 48/53/82 47/50/60 12/47/83
f 9/53/84 10/52/51 11/50/60
f 46/57/79 45/54/63 8/51/85
f 5/57/86 6/56/56 7/54/55
f 44/60/87 43/61/65 15/62/88
f 1/60/89 35/59/90 39/61/65
