# Blender 5.0.0
# www.blender.org
mtllib Circle_005_Circle_004_Dupli_156_decorations_0.mtl
o Circle.005|Circle.004|Dupli|156_decorations_0
v -4.328192 0.582621 0.857838
v -4.327478 0.581674 0.858598
v -4.321142 0.582320 0.854011
v -4.322160 0.583672 0.852927
v -4.329494 0.581174 0.856210
v -4.325282 0.581438 0.852738
v -4.324916 0.580219 0.853072
v -4.329102 0.579870 0.856568
v -4.328208 0.579468 0.857579
v -4.324080 0.579843 0.854018
v -4.323405 0.580593 0.854863
v -4.327486 0.580271 0.858483
v -4.323440 0.583354 0.851411
v -4.324017 0.581607 0.850604
v -4.329089 0.582399 0.856776
v -4.323458 0.579746 0.851114
v -4.322176 0.580136 0.850397
v -4.321160 0.580669 0.850107
v -4.320483 0.580364 0.850873
v -4.321138 0.579670 0.851572
v -4.320292 0.582231 0.852755
v -4.319930 0.582036 0.851645
v -4.320471 0.582753 0.851070
v -4.321120 0.583331 0.851873
v -4.321152 0.580318 0.853846
v -4.321150 0.582585 0.850264
v -4.321457 0.581657 0.849836
v -4.322631 0.581651 0.849982
v -4.320300 0.580602 0.852621
v -4.319936 0.580972 0.851558
v -4.322161 0.583073 0.850639
v -4.323398 0.581905 0.854970
v -4.322449 0.582130 0.854752
v -4.323330 0.583300 0.853813
v -4.324065 0.582791 0.854260
v -4.322183 0.579172 0.852557
v -4.324438 0.583025 0.852501
v -4.324938 0.581513 0.851802
v -4.324903 0.582583 0.853267
v -4.322458 0.580397 0.854609
v -4.324454 0.579902 0.852244
v -4.323350 0.579406 0.853493
v -4.324903 0.582583 0.853267
v -4.328192 0.582621 0.857838
v -4.324916 0.580219 0.853072
v -4.329494 0.581174 0.856210
v -4.323405 0.580593 0.854863
v -4.328208 0.579468 0.857579
v -4.324065 0.582791 0.854260
v -4.328192 0.582621 0.857838
v -4.324065 0.582791 0.854260
v -4.327478 0.581674 0.858598
v -4.325282 0.581438 0.852738
v -4.324903 0.582583 0.853267
v -4.329089 0.582399 0.856776
v -4.329494 0.581174 0.856210
v -4.325282 0.581438 0.852738
v -4.329089 0.582399 0.856776
v -4.324080 0.579843 0.854018
v -4.324916 0.580219 0.853072
v -4.329102 0.579870 0.856568
v -4.328208 0.579468 0.857579
v -4.324080 0.579843 0.854018
v -4.329102 0.579870 0.856568
v -4.323398 0.581905 0.854970
v -4.323405 0.580593 0.854863
v -4.327486 0.580271 0.858483
v -4.327478 0.581674 0.858598
v -4.323398 0.581905 0.854970
v -4.327486 0.580271 0.858483
v -4.320483 0.580364 0.850873
v -4.322176 0.580136 0.850397
v -4.320471 0.582753 0.851070
v -4.320292 0.582231 0.852755
v -4.321457 0.581657 0.849836
v -4.322161 0.583073 0.850639
v -4.319930 0.582036 0.851645
v -4.320292 0.582231 0.852755
v -4.319930 0.582036 0.851645
v -4.320300 0.580602 0.852621
v -4.321150 0.582585 0.850264
v -4.320471 0.582753 0.851070
v -4.321120 0.583331 0.851873
v -4.322161 0.583073 0.850639
v -4.321150 0.582585 0.850264
v -4.321120 0.583331 0.851873
v -4.321160 0.580669 0.850107
v -4.321457 0.581657 0.849836
v -4.322631 0.581651 0.849982
v -4.322176 0.580136 0.850397
v -4.321160 0.580669 0.850107
v -4.322631 0.581651 0.849982
v -4.323398 0.581905 0.854970
v -4.324065 0.582791 0.854260
v -4.323330 0.583300 0.853813
v -4.323398 0.581905 0.854970
v -4.324903 0.582583 0.853267
v -4.325282 0.581438 0.852738
v -4.324938 0.581513 0.851802
v -4.324903 0.582583 0.853267
v -4.324916 0.580219 0.853072
v -4.324080 0.579843 0.854018
v -4.323350 0.579406 0.853493
v -4.324916 0.580219 0.853072
v -4.322449 0.582130 0.854752
v -4.323405 0.580593 0.854863
v -4.323398 0.581905 0.854970
v -4.322449 0.582130 0.854752
v -4.323405 0.580593 0.854863
v -4.324438 0.583025 0.852501
v -4.323330 0.583300 0.853813
v -4.324065 0.582791 0.854260
v -4.324903 0.582583 0.853267
v -4.324438 0.583025 0.852501
v -4.324065 0.582791 0.854260
v -4.324454 0.579902 0.852244
v -4.324938 0.581513 0.851802
v -4.325282 0.581438 0.852738
v -4.324916 0.580219 0.853072
v -4.324454 0.579902 0.852244
v -4.325282 0.581438 0.852738
v -4.322458 0.580397 0.854609
v -4.323350 0.579406 0.853493
v -4.324080 0.579843 0.854018
v -4.323405 0.580593 0.854863
v -4.322458 0.580397 0.854609
v -4.324080 0.579843 0.854018
v -4.323350 0.579406 0.853493
v -4.322458 0.580397 0.854609
v -4.321152 0.580318 0.853846
v -4.323350 0.579406 0.853493
v -4.320300 0.580602 0.852621
v -4.321138 0.579670 0.851572
v -4.322183 0.579172 0.852557
v -4.321152 0.580318 0.853846
v -4.320300 0.580602 0.852621
v -4.322183 0.579172 0.852557
v -4.322183 0.579172 0.852557
v -4.324454 0.579902 0.852244
v -4.323350 0.579406 0.853493
v -4.322183 0.579172 0.852557
v -4.324454 0.579902 0.852244
v -4.321138 0.579670 0.851572
v -4.322176 0.580136 0.850397
v -4.323458 0.579746 0.851114
v -4.322183 0.579172 0.852557
v -4.321138 0.579670 0.851572
v -4.323458 0.579746 0.851114
v -4.323458 0.579746 0.851114
v -4.324938 0.581513 0.851802
v -4.324454 0.579902 0.852244
v -4.323458 0.579746 0.851114
v -4.324938 0.581513 0.851802
v -4.322176 0.580136 0.850397
v -4.322631 0.581651 0.849982
v -4.324017 0.581607 0.850604
v -4.323458 0.579746 0.851114
v -4.322176 0.580136 0.850397
v -4.324017 0.581607 0.850604
v -4.324017 0.581607 0.850604
v -4.324438 0.583025 0.852501
v -4.324938 0.581513 0.851802
v -4.324017 0.581607 0.850604
v -4.324438 0.583025 0.852501
v -4.322631 0.581651 0.849982
v -4.322161 0.583073 0.850639
v -4.323440 0.583354 0.851411
v -4.324017 0.581607 0.850604
v -4.322631 0.581651 0.849982
v -4.323440 0.583354 0.851411
v -4.323440 0.583354 0.851411
v -4.323330 0.583300 0.853813
v -4.324438 0.583025 0.852501
v -4.323440 0.583354 0.851411
v -4.323330 0.583300 0.853813
v -4.322161 0.583073 0.850639
v -4.321120 0.583331 0.851873
v -4.322160 0.583672 0.852927
v -4.323440 0.583354 0.851411
v -4.322161 0.583073 0.850639
v -4.322160 0.583672 0.852927
v -4.322160 0.583672 0.852927
v -4.322449 0.582130 0.854752
v -4.323330 0.583300 0.853813
v -4.322160 0.583672 0.852927
v -4.322449 0.582130 0.854752
v -4.321120 0.583331 0.851873
v -4.320292 0.582231 0.852755
v -4.321142 0.582320 0.854011
v -4.322160 0.583672 0.852927
v -4.321120 0.583331 0.851873
v -4.321142 0.582320 0.854011
v -4.321142 0.582320 0.854011
v -4.321152 0.580318 0.853846
v -4.322458 0.580397 0.854609
v -4.322449 0.582130 0.854752
v -4.321142 0.582320 0.854011
v -4.322458 0.580397 0.854609
v -4.320292 0.582231 0.852755
v -4.320300 0.580602 0.852621
v -4.321152 0.580318 0.853846
v -4.321142 0.582320 0.854011
v -4.320292 0.582231 0.852755
v -4.321152 0.580318 0.853846
v -4.319936 0.580972 0.851558
v -4.320483 0.580364 0.850873
v -4.321138 0.579670 0.851572
v -4.320300 0.580602 0.852621
v -4.319936 0.580972 0.851558
v -4.321138 0.579670 0.851572
v -4.321160 0.580669 0.850107
v -4.320483 0.580364 0.850873
v -4.321457 0.581657 0.849836
v -4.319936 0.580972 0.851558
v -4.321457 0.581657 0.849836
v -4.320483 0.580364 0.850873
v -4.321150 0.582585 0.850264
v -4.321457 0.581657 0.849836
v -4.319936 0.580972 0.851558
v -4.319930 0.582036 0.851645
v -4.321150 0.582585 0.850264
v -4.319936 0.580972 0.851558
v -4.320471 0.582753 0.851070
v -4.321150 0.582585 0.850264
v -4.319930 0.582036 0.851645
v -4.329102 0.579870 0.856568
v -4.329494 0.581174 0.856210
v -4.328208 0.579468 0.857579
v -4.327486 0.580271 0.858483
v -4.328208 0.579468 0.857579
v -4.329494 0.581174 0.856210
v -4.329089 0.582399 0.856776
v -4.327486 0.580271 0.858483
v -4.329494 0.581174 0.856210
v -4.327478 0.581674 0.858598
v -4.327486 0.580271 0.858483
v -4.329089 0.582399 0.856776
v -4.328192 0.582621 0.857838
v -4.327478 0.581674 0.858598
v -4.329089 0.582399 0.856776
vn -0.7582 -0.0496 0.6501
vn 0.9586 0.2516 -0.1331
vn 0.3992 0.5033 -0.7664
vn 0.7108 0.5806 -0.3971
vn 0.9561 -0.2362 -0.1732
vn 0.9587 0.2515 -0.1331
vn 0.9562 -0.2361 -0.1732
vn 0.2585 0.0778 -0.9629
vn 0.7052 -0.5152 -0.4872
vn 0.7052 -0.5152 -0.4871
vn 0.3947 -0.3755 -0.8386
vn 0.4374 -0.8801 -0.1848
vn 0.8437 -0.4284 0.3235
vn 0.7052 -0.5151 -0.4872
vn 0.6134 -0.4892 0.6200
vn 0.8478 0.3611 0.3884
vn 0.6179 0.3750 0.6910
vn 0.6135 -0.4892 0.6200
vn 0.2951 -0.4793 0.8266
vn 0.6179 0.3751 0.6910
vn 0.2993 0.3348 0.8935
vn 0.6180 0.3750 0.6910
vn 0.4465 0.8939 -0.0390
vn 0.1787 0.9583 0.2232
vn 0.8477 0.3612 0.3884
vn 0.2992 0.3349 0.8935
vn 0.1787 0.9582 0.2232
vn -0.1145 0.8842 0.4528
vn 0.2993 0.3349 0.8935
vn -0.0580 0.7688 -0.6368
vn -0.3736 0.8213 -0.4312
vn 0.4464 0.8940 -0.0390
vn -0.1146 0.8842 0.4528
vn -0.6347 0.7552 -0.1638
vn -0.2858 0.0800 -0.9550
vn -0.6228 0.0673 -0.7794
vn -0.2857 0.0800 -0.9550
vn -0.6347 0.7552 -0.1637
vn -0.6229 0.0673 -0.7794
vn -0.8695 0.0449 -0.4918
vn -0.6228 0.0673 -0.7795
vn -0.0653 -0.6538 -0.7538
vn -0.3816 -0.7360 -0.5592
vn -0.8696 0.0449 -0.4917
vn -0.6422 -0.7118 -0.2844
vn 0.4373 -0.8801 -0.1848
vn 0.1687 -0.9836 0.0636
vn -0.3815 -0.7360 -0.5592
vn -0.0653 -0.6539 -0.7538
vn 0.4374 -0.8801 -0.1849
vn -0.6422 -0.7118 -0.2843
vn -0.1239 -0.9451 0.3023
vn 0.1687 -0.9836 0.0635
vn -0.1239 -0.9451 0.3024
vn 0.2951 -0.4793 0.8265
vn -0.0628 -0.9649 0.2550
vn 0.3669 -0.4873 0.7925
vn -0.8274 0.0502 -0.5594
vn -0.5943 -0.7257 -0.3467
vn -0.0531 0.9109 0.4091
vn -0.5866 0.7786 -0.2230
vn -0.0532 0.9109 0.4092
vn 0.3669 -0.4873 0.7924
vn 0.3711 0.3475 0.8611
vn -0.8696 0.0450 -0.4918
vn 0.3712 0.3476 0.8611
vn 0.3712 0.3475 0.8611
vn -0.2858 0.0799 -0.9550
vn 0.3947 -0.3754 -0.8386
vn 0.2586 0.0778 -0.9629
vn 0.7108 0.5806 -0.3970
vn 0.8437 -0.4283 0.3235
vn 0.8437 -0.4283 0.3236
vn -0.0580 0.7688 -0.6369
vn 0.8477 0.3612 0.3885
vn 0.5998 -0.4903 0.6324
vn 0.6042 0.3743 0.7034
vn 0.5998 -0.4903 0.6323
vn 0.3668 -0.4873 0.7924
vn -0.3958 -0.7373 -0.5475
vn 0.1547 -0.9851 0.0756
vn -0.3957 -0.7373 -0.5475
vn -0.3878 0.8208 -0.4194
vn -0.6372 0.0665 -0.7678
vn -0.3878 0.8208 -0.4195
vn 0.6042 0.3744 0.7034
vn -0.0531 0.9109 0.4092
vn 0.1648 0.9578 0.2354
vn 0.5998 -0.4904 0.6323
vn 0.1548 -0.9851 0.0756
vn -0.6372 0.0664 -0.7678
vn 0.1647 0.9578 0.2354
vn -0.5865 0.7786 -0.2230
vt 0.530319 0.635056
vt 0.522446 0.641335
vt 0.524872 0.636299
vt 0.524872 0.646370
vt 0.534683 0.638535
vt 0.530319 0.647614
vt 0.534683 0.644127
vt 0.508789 0.671494
vt 0.513626 0.669548
vt 0.511276 0.672157
vt 0.507889 0.669609
vt 0.511566 0.666756
vt 0.507935 0.667854
vt 0.509277 0.666748
vt 0.506302 0.666855
vt 0.505722 0.669838
vt 0.502487 0.669685
vt 0.506897 0.673050
vt 0.503479 0.674789
vt 0.497520 0.669067
vt 0.497810 0.676537
vt 0.510727 0.675606
vt 0.507721 0.680244
vt 0.501465 0.684982
vt 0.518890 0.674767
vt 0.518692 0.686485
vt 0.509125 0.696274
vt 0.518890 0.658051
vt 0.512238 0.663902
vt 0.511536 0.659698
vt 0.517990 0.665543
vt 0.515472 0.651657
vt 0.509323 0.655174
vt 0.508469 0.664742
vt 0.506836 0.661980
vt 0.504074 0.658463
vt 0.503784 0.665283
vt 0.499901 0.662933
vt 0.495453 0.660286
vt 0.491707 0.668175
vt 0.506927 0.651588
vt 0.501038 0.654999
vt 0.494583 0.688484
vt 0.500031 0.699394
vt 0.491287 0.678001
vt 0.512177 0.648293
vt 0.627350 0.642853
vt 0.649124 0.647896
vt 0.627441 0.648445
vt 0.649033 0.642670
vt 0.627441 0.631676
vt 0.649033 0.637444
vt 0.627350 0.637268
vt 0.649124 0.632225
vt 0.627914 0.620506
vt 0.649292 0.626999
vt 0.627625 0.626091
vt 0.649551 0.621780
vt 0.649292 0.653114
vt 0.627625 0.654030
vt 0.649551 0.658333
vt 0.627914 0.659607
s 0
usemtl decorations
f 240/1/1 239/2/1 238/3/1
f 237/1/1 236/4/1 235/2/1
f 234/5/1 233/4/1 232/1/1
f 231/5/1 230/6/1 229/4/1
f 228/6/1 227/5/1 226/7/1
s 1
f 225/8/2 224/9/3 223/10/4
f 222/11/5 221/9/3 220/8/6
f 219/11/7 218/12/8 217/9/3
f 216/13/9 215/12/8 214/11/7
f 213/12/8 212/13/10 211/14/11
f 210/15/12 209/11/7 208/16/13
f 207/15/12 206/13/14 205/11/7
f 204/17/15 203/18/16 202/19/17
f 201/17/18 200/16/13 199/18/16
f 198/20/19 197/19/20 196/21/21
f 195/20/19 194/17/18 193/19/22
f 192/19/17 191/22/23 190/23/24
f 189/19/17 188/18/25 187/22/23
f 186/21/26 185/23/27 184/24/28
f 183/21/29 3/19/17 182/23/27
f 181/23/24 180/25/30 179/26/31
f 178/23/24 177/22/32 176/25/30
f 175/24/33 174/26/31 173/27/34
f 172/24/28 4/23/24 171/26/31
f 170/28/31 169/29/35 168/30/36
f 167/28/31 166/31/30 165/29/37
f 164/32/38 163/30/39 162/33/40
f 161/32/38 13/28/31 160/30/41
f 159/30/39 158/34/42 157/35/43
f 156/30/36 155/29/35 154/34/42
f 153/33/44 152/35/43 151/36/45
f 150/33/44 14/30/39 149/35/43
f 148/35/43 147/15/46 146/37/47
f 145/35/48 144/34/49 143/15/50
f 142/36/51 141/37/47 140/38/52
f 139/36/51 16/35/48 138/37/47
f 137/37/47 136/16/13 135/17/18
f 134/37/53 133/15/46 132/16/13
f 131/38/54 130/17/18 129/20/55
f 128/38/54 36/37/53 25/17/18
f 127/39/56 126/20/55 125/40/57
f 124/39/56 123/38/54 122/20/55
f 121/41/58 120/36/45 119/42/59
f 118/41/58 117/33/44 116/36/45
f 115/43/60 114/27/38 113/44/61
f 112/43/62 111/24/28 110/27/38
f 109/40/63 108/21/21 107/45/64
f 106/40/63 40/20/19 105/21/21
f 104/42/59 103/38/52 102/39/56
f 101/42/59 41/36/51 42/38/52
f 100/46/61 99/33/65 98/41/58
f 97/46/61 37/32/34 38/33/65
f 96/45/66 95/24/28 94/43/62
f 93/45/67 33/21/21 34/24/28
f 92/29/68 91/14/69 90/34/42
f 89/29/68 88/12/70 87/14/11
f 86/22/23 85/9/3 84/25/30
f 83/22/23 82/10/71 81/9/3
f 80/16/72 79/8/6 78/18/16
f 29/16/73 30/11/5 77/8/6
f 76/31/74 75/12/8 28/29/37
f 31/31/74 26/9/3 27/12/8
f 74/18/75 73/10/4 24/22/23
f 21/18/75 22/8/6 23/10/4
f 72/34/49 71/13/9 20/15/12
f 17/34/49 18/14/11 19/13/9
f 70/47/76 69/48/67 68/49/77
f 67/47/78 66/50/79 65/48/67
f 64/51/80 63/52/56 62/53/81
f 61/51/82 60/54/59 59/52/56
f 58/55/83 57/56/58 56/57/84
f 55/55/85 54/58/61 53/56/58
f 52/49/86 51/59/87 50/60/88
f 2/49/86 32/48/64 49/59/87
f 48/53/81 47/50/63 12/47/89
f 9/53/90 10/52/56 11/50/57
f 46/57/91 45/54/59 8/51/80
f 5/57/91 6/56/58 7/54/59
f 44/60/92 43/61/93 15/62/83
f 1/60/88 35/59/62 39/61/93
