# Blender 5.0.0
# www.blender.org
mtllib Circle_005_Circle_003_Dupli_9_decorations_0.mtl
o Circle.005|Circle.003|Dupli|9_decorations_0
v -4.550048 1.348767 0.366774
v -4.550855 1.347898 0.366013
v -4.556575 1.348019 0.371387
v -4.555424 1.349257 0.372472
v -4.548564 1.347168 0.368070
v -4.552315 1.347039 0.372043
v -4.552726 1.345858 0.371631
v -4.549004 1.345905 0.367630
v -4.550018 1.345603 0.366700
v -4.553674 1.345577 0.370761
v -4.554443 1.346406 0.370089
v -4.550841 1.346490 0.365980
v -4.553969 1.348794 0.373778
v -4.553307 1.346977 0.374322
v -4.549029 1.348442 0.367689
v -4.553935 1.345174 0.373694
v -4.555116 1.345479 0.374599
v -4.556086 1.345971 0.375066
v -4.556853 1.345742 0.374361
v -4.556293 1.345129 0.373519
v -4.557265 1.347794 0.372722
v -4.557488 1.347481 0.373841
v -4.556877 1.348139 0.374417
v -4.556328 1.348802 0.373605
v -4.556555 1.346010 0.371340
v -4.556104 1.347893 0.375111
v -4.555752 1.346928 0.375400
v -4.554605 1.346946 0.375110
v -4.557249 1.346159 0.372684
v -4.557477 1.346415 0.373816
v -4.555144 1.348424 0.374668
v -4.554456 1.347722 0.370119
v -4.555370 1.347916 0.370476
v -4.554374 1.348989 0.371415
v -4.553702 1.348534 0.370830
v -4.555380 1.344744 0.372367
v -4.553114 1.348587 0.372545
v -4.552541 1.347015 0.373016
v -4.552749 1.348230 0.371686
v -4.555353 1.346178 0.370435
v -4.553084 1.345454 0.372472
v -4.554336 1.345082 0.371324
v -4.552749 1.348230 0.371686
v -4.550048 1.348767 0.366774
v -4.552726 1.345858 0.371631
v -4.548564 1.347168 0.368070
v -4.554443 1.346406 0.370089
v -4.550018 1.345603 0.366700
v -4.553702 1.348534 0.370830
v -4.550048 1.348767 0.366774
v -4.553702 1.348534 0.370830
v -4.550855 1.347898 0.366013
v -4.552315 1.347039 0.372043
v -4.552749 1.348230 0.371686
v -4.549029 1.348442 0.367689
v -4.548564 1.347168 0.368070
v -4.552315 1.347039 0.372043
v -4.549029 1.348442 0.367689
v -4.553674 1.345577 0.370761
v -4.552726 1.345858 0.371631
v -4.549004 1.345905 0.367630
v -4.550018 1.345603 0.366700
v -4.553674 1.345577 0.370761
v -4.549004 1.345905 0.367630
v -4.554456 1.347722 0.370119
v -4.554443 1.346406 0.370089
v -4.550841 1.346490 0.365980
v -4.550855 1.347898 0.366013
v -4.554456 1.347722 0.370119
v -4.550841 1.346490 0.365980
v -4.556853 1.345742 0.374361
v -4.555116 1.345479 0.374599
v -4.556877 1.348139 0.374417
v -4.557265 1.347794 0.372722
v -4.555752 1.346928 0.375400
v -4.555144 1.348424 0.374668
v -4.557488 1.347481 0.373841
v -4.557265 1.347794 0.372722
v -4.557488 1.347481 0.373841
v -4.557249 1.346159 0.372684
v -4.556104 1.347893 0.375111
v -4.556877 1.348139 0.374417
v -4.556328 1.348802 0.373605
v -4.555144 1.348424 0.374668
v -4.556104 1.347893 0.375111
v -4.556328 1.348802 0.373605
v -4.556086 1.345971 0.375066
v -4.555752 1.346928 0.375400
v -4.554605 1.346946 0.375110
v -4.555116 1.345479 0.374599
v -4.556086 1.345971 0.375066
v -4.554605 1.346946 0.375110
v -4.554456 1.347722 0.370119
v -4.553702 1.348534 0.370830
v -4.554374 1.348989 0.371415
v -4.554456 1.347722 0.370119
v -4.552749 1.348230 0.371686
v -4.552315 1.347039 0.372043
v -4.552541 1.347015 0.373016
v -4.552749 1.348230 0.371686
v -4.552726 1.345858 0.371631
v -4.553674 1.345577 0.370761
v -4.554336 1.345082 0.371324
v -4.552726 1.345858 0.371631
v -4.555370 1.347916 0.370476
v -4.554443 1.346406 0.370089
v -4.554456 1.347722 0.370119
v -4.555370 1.347916 0.370476
v -4.554443 1.346406 0.370089
v -4.553114 1.348587 0.372545
v -4.554374 1.348989 0.371415
v -4.553702 1.348534 0.370830
v -4.552749 1.348230 0.371686
v -4.553114 1.348587 0.372545
v -4.553702 1.348534 0.370830
v -4.553084 1.345454 0.372472
v -4.552541 1.347015 0.373016
v -4.552315 1.347039 0.372043
v -4.552726 1.345858 0.371631
v -4.553084 1.345454 0.372472
v -4.552315 1.347039 0.372043
v -4.555353 1.346178 0.370435
v -4.554336 1.345082 0.371324
v -4.553674 1.345577 0.370761
v -4.554443 1.346406 0.370089
v -4.555353 1.346178 0.370435
v -4.553674 1.345577 0.370761
v -4.554336 1.345082 0.371324
v -4.555353 1.346178 0.370435
v -4.556555 1.346010 0.371340
v -4.554336 1.345082 0.371324
v -4.557249 1.346159 0.372684
v -4.556293 1.345129 0.373519
v -4.555380 1.344744 0.372367
v -4.556555 1.346010 0.371340
v -4.557249 1.346159 0.372684
v -4.555380 1.344744 0.372367
v -4.555380 1.344744 0.372367
v -4.553084 1.345454 0.372472
v -4.554336 1.345082 0.371324
v -4.555380 1.344744 0.372367
v -4.553084 1.345454 0.372472
v -4.556293 1.345129 0.373519
v -4.555116 1.345479 0.374599
v -4.553935 1.345174 0.373694
v -4.555380 1.344744 0.372367
v -4.556293 1.345129 0.373519
v -4.553935 1.345174 0.373694
v -4.553935 1.345174 0.373694
v -4.552541 1.347015 0.373016
v -4.553084 1.345454 0.372472
v -4.553935 1.345174 0.373694
v -4.552541 1.347015 0.373016
v -4.555116 1.345479 0.374599
v -4.554605 1.346946 0.375110
v -4.553307 1.346977 0.374322
v -4.553935 1.345174 0.373694
v -4.555116 1.345479 0.374599
v -4.553307 1.346977 0.374322
v -4.553307 1.346977 0.374322
v -4.553114 1.348587 0.372545
v -4.552541 1.347015 0.373016
v -4.553307 1.346977 0.374322
v -4.553114 1.348587 0.372545
v -4.554605 1.346946 0.375110
v -4.555144 1.348424 0.374668
v -4.553969 1.348794 0.373778
v -4.553307 1.346977 0.374322
v -4.554605 1.346946 0.375110
v -4.553969 1.348794 0.373778
v -4.553969 1.348794 0.373778
v -4.554374 1.348989 0.371415
v -4.553114 1.348587 0.372545
v -4.553969 1.348794 0.373778
v -4.554374 1.348989 0.371415
v -4.555144 1.348424 0.374668
v -4.556328 1.348802 0.373605
v -4.555424 1.349257 0.372472
v -4.553969 1.348794 0.373778
v -4.555144 1.348424 0.374668
v -4.555424 1.349257 0.372472
v -4.555424 1.349257 0.372472
v -4.555370 1.347916 0.370476
v -4.554374 1.348989 0.371415
v -4.555424 1.349257 0.372472
v -4.555370 1.347916 0.370476
v -4.556328 1.348802 0.373605
v -4.557265 1.347794 0.372722
v -4.556575 1.348019 0.371387
v -4.555424 1.349257 0.372472
v -4.556328 1.348802 0.373605
v -4.556575 1.348019 0.371387
v -4.556575 1.348019 0.371387
v -4.556555 1.346010 0.371340
v -4.555353 1.346178 0.370435
v -4.555370 1.347916 0.370476
v -4.556575 1.348019 0.371387
v -4.555353 1.346178 0.370435
v -4.557265 1.347794 0.372722
v -4.557249 1.346159 0.372684
v -4.556555 1.346010 0.371340
v -4.556575 1.348019 0.371387
v -4.557265 1.347794 0.372722
v -4.556555 1.346010 0.371340
v -4.557477 1.346415 0.373816
v -4.556853 1.345742 0.374361
v -4.556293 1.345129 0.373519
v -4.557249 1.346159 0.372684
v -4.557477 1.346415 0.373816
v -4.556293 1.345129 0.373519
v -4.556086 1.345971 0.375066
v -4.556853 1.345742 0.374361
v -4.555752 1.346928 0.375400
v -4.557477 1.346415 0.373816
v -4.555752 1.346928 0.375400
v -4.556853 1.345742 0.374361
v -4.556104 1.347893 0.375111
v -4.555752 1.346928 0.375400
v -4.557477 1.346415 0.373816
v -4.557488 1.347481 0.373841
v -4.556104 1.347893 0.375111
v -4.557477 1.346415 0.373816
v -4.556877 1.348139 0.374417
v -4.556104 1.347893 0.375111
v -4.557488 1.347481 0.373841
v -4.549004 1.345905 0.367630
v -4.548564 1.347168 0.368070
v -4.550018 1.345603 0.366700
v -4.550841 1.346490 0.365980
v -4.550018 1.345603 0.366700
v -4.548564 1.347168 0.368070
v -4.549029 1.348442 0.367689
v -4.550841 1.346490 0.365980
v -4.548564 1.347168 0.368070
v -4.550855 1.347898 0.366013
v -4.550841 1.346490 0.365980
v -4.549029 1.348442 0.367689
v -4.550048 1.348767 0.366774
v -4.550855 1.347898 0.366013
v -4.549029 1.348442 0.367689
vn 0.6721 0.0237 -0.7400
vn -0.9336 0.2294 0.2754
vn -0.2990 0.4181 0.8578
vn -0.6533 0.5310 0.5396
vn -0.9288 -0.2599 0.2640
vn -0.9336 0.2293 0.2754
vn -0.9289 -0.2598 0.2640
vn -0.1376 -0.0244 0.9902
vn -0.6427 -0.5681 0.5140
vn -0.2906 -0.4633 0.8372
vn -0.4162 -0.8977 0.1447
vn -0.8795 -0.3987 -0.2600
vn -0.6878 -0.4266 -0.5873
vn -0.8871 0.3933 -0.2416
vn -0.6962 0.4402 -0.5671
vn -0.6878 -0.4267 -0.5872
vn -0.8795 -0.3986 -0.2600
vn -0.3972 -0.3931 -0.8293
vn -0.4051 0.4236 -0.8102
vn -0.6878 -0.4267 -0.5873
vn -0.6962 0.4402 -0.5670
vn -0.4334 0.8818 0.1862
vn -0.1995 0.9749 -0.0988
vn 0.0628 0.9273 -0.3691
vn 0.1402 0.6990 0.7012
vn 0.4283 0.7748 0.4650
vn -0.4333 0.8818 0.1862
vn 0.1402 0.6990 0.7013
vn 0.0629 0.9273 -0.3691
vn 0.4284 0.7748 0.4650
vn 0.6542 0.7388 0.1620
vn -0.1994 0.9749 -0.0988
vn 0.4016 -0.0174 0.9157
vn 0.7144 -0.0094 0.6997
vn 0.4015 -0.0174 0.9157
vn 0.6543 0.7387 0.1620
vn 0.7144 -0.0094 0.6996
vn 0.9237 -0.0000 0.3831
vn 0.6542 0.7387 0.1620
vn 0.1539 -0.7280 0.6680
vn 0.4434 -0.7872 0.4286
vn 0.4016 -0.0175 0.9157
vn 0.1540 -0.7280 0.6680
vn 0.9237 -0.0000 0.3830
vn 0.4434 -0.7872 0.4285
vn 0.6684 -0.7328 0.1277
vn 0.4434 -0.7873 0.4285
vn -0.4161 -0.8977 0.1448
vn -0.1807 -0.9729 -0.1442
vn 0.1540 -0.7281 0.6680
vn 0.6684 -0.7328 0.1276
vn 0.0805 -0.9077 -0.4118
vn -0.1807 -0.9729 -0.1441
vn 0.0805 -0.9077 -0.4119
vn -0.3973 -0.3931 -0.8293
vn 0.0255 -0.9328 -0.3596
vn -0.4643 -0.4051 -0.7876
vn 0.0256 -0.9327 -0.3596
vn 0.8902 -0.0020 0.4556
vn 0.6284 -0.7534 0.1936
vn 0.8902 -0.0020 0.4555
vn 0.0074 0.9488 -0.3157
vn 0.6139 0.7555 0.2288
vn -0.4051 0.4235 -0.8102
vn -0.4724 0.4323 -0.7681
vn 0.6284 -0.7534 0.1937
vn 0.0256 -0.9328 -0.3596
vn 0.6139 0.7555 0.2289
vn 0.0075 0.9488 -0.3157
vn 0.4016 -0.0175 0.9156
vn -0.2906 -0.4634 0.8372
vn -0.4333 0.8818 0.1863
vn -0.2991 0.4181 0.8578
vn -0.8795 -0.3986 -0.2601
vn -0.9289 -0.2599 0.2640
vn -0.6533 0.5311 0.5396
vn 0.1539 -0.7281 0.6680
vn -0.4162 -0.8977 0.1448
vn -0.6757 -0.4264 -0.6013
vn -0.6841 0.4409 -0.5811
vn -0.6758 -0.4264 -0.6012
vn 0.4560 -0.7873 0.4151
vn -0.1683 -0.9730 -0.1579
vn 0.4410 0.7756 0.4515
vn 0.8902 -0.0021 0.4555
vn 0.7272 -0.0089 0.6863
vn 0.4410 0.7756 0.4516
vn -0.1872 0.9759 -0.1126
vn -0.6841 0.4409 -0.5810
vn -0.1683 -0.9730 -0.1580
vn -0.6757 -0.4265 -0.6013
vn -0.1684 -0.9730 -0.1579
vn 0.7272 -0.0090 0.6863
vn 0.4560 -0.7872 0.4151
vn 0.7272 -0.0090 0.6864
vn -0.1871 0.9759 -0.1125
vn 0.6138 0.7555 0.2289
vn -0.1872 0.9759 -0.1125
vn 0.0075 0.9488 -0.3158
vn 0.6138 0.7555 0.2288
vt 0.530319 0.611839
vt 0.522446 0.618118
vt 0.524872 0.613083
vt 0.524872 0.623154
vt 0.534683 0.615326
vt 0.530319 0.624397
vt 0.534683 0.620918
vt 0.537079 0.671494
vt 0.541916 0.669548
vt 0.539566 0.672157
vt 0.536179 0.669609
vt 0.539856 0.666756
vt 0.536224 0.667854
vt 0.537567 0.666748
vt 0.534592 0.666855
vt 0.534012 0.669838
vt 0.530777 0.669685
vt 0.535187 0.673050
vt 0.531769 0.674789
vt 0.525803 0.669067
vt 0.526108 0.676537
vt 0.539017 0.675606
vt 0.536011 0.680244
vt 0.529755 0.684982
vt 0.547180 0.674767
vt 0.546982 0.686485
vt 0.537415 0.696274
vt 0.547180 0.658051
vt 0.540527 0.663902
vt 0.539825 0.659698
vt 0.546280 0.665543
vt 0.543762 0.651657
vt 0.537613 0.655174
vt 0.536758 0.664742
vt 0.535126 0.661980
vt 0.532364 0.658463
vt 0.532074 0.665283
vt 0.528198 0.662933
vt 0.523743 0.660286
vt 0.519989 0.668175
vt 0.535217 0.651588
vt 0.529327 0.654999
vt 0.522873 0.688484
vt 0.528320 0.699394
vt 0.519577 0.678001
vt 0.540466 0.648293
vt 0.604446 0.642853
vt 0.626221 0.647896
vt 0.604553 0.648445
vt 0.626144 0.642670
vt 0.604553 0.631676
vt 0.626144 0.637444
vt 0.604446 0.637268
vt 0.626221 0.632225
vt 0.605011 0.620506
vt 0.626404 0.626999
vt 0.604736 0.626091
vt 0.626663 0.621780
vt 0.626404 0.653114
vt 0.604736 0.654030
vt 0.626663 0.658333
vt 0.605011 0.659607
s 0
usemtl decorations
f 240/1/1 239/2/1 238/3/1
f 237/1/1 236/4/1 235/2/1
f 234/5/1 233/4/1 232/1/1
f 231/5/1 230/6/1 229/4/1
f 228/6/1 227/5/1 226/7/1
s 1
f 225/8/2 224/9/3 223/10/4
f 222/11/5 221/9/3 220/8/6
f 219/11/7 218/12/8 217/9/3
f 216/13/9 215/12/8 214/11/7
f 213/12/8 212/13/9 211/14/10
f 210/15/11 209/11/7 208/16/12
f 207/15/11 206/13/9 205/11/7
f 204/17/13 203/18/14 202/19/15
f 201/17/16 200/16/17 199/18/14
f 198/20/18 197/19/15 196/21/19
f 195/20/18 194/17/20 193/19/21
f 192/19/15 191/22/22 190/23/23
f 189/19/15 188/18/14 187/22/22
f 186/21/19 185/23/23 184/24/24
f 183/21/19 3/19/15 182/23/23
f 181/23/23 180/25/25 179/26/26
f 178/23/23 177/22/27 176/25/28
f 175/24/29 174/26/30 173/27/31
f 172/24/24 4/23/32 171/26/30
f 170/28/30 169/29/33 168/30/34
f 167/28/30 166/31/28 165/29/35
f 164/32/36 163/30/37 162/33/38
f 161/32/39 13/28/30 160/30/34
f 159/30/34 158/34/40 157/35/41
f 156/30/34 155/29/42 154/34/43
f 153/33/44 152/35/45 151/36/46
f 150/33/44 14/30/34 149/35/45
f 148/35/47 147/15/48 146/37/49
f 145/35/47 144/34/50 143/15/48
f 142/36/51 141/37/49 140/38/52
f 139/36/46 16/35/47 138/37/49
f 137/37/49 136/16/12 135/17/13
f 134/37/53 133/15/11 132/16/12
f 131/38/54 130/17/13 129/20/55
f 128/38/54 36/37/49 25/17/13
f 127/39/56 126/20/55 125/40/57
f 124/39/58 123/38/52 122/20/55
f 121/41/59 120/36/46 119/42/60
f 118/41/61 117/33/44 116/36/46
f 115/43/62 114/27/31 113/44/63
f 112/43/62 111/24/24 110/27/31
f 109/40/57 108/21/64 107/45/65
f 106/40/57 40/20/18 105/21/64
f 104/42/66 103/38/52 102/39/67
f 101/42/66 41/36/46 42/38/52
f 100/46/68 99/33/38 98/41/61
f 97/46/63 37/32/39 38/33/38
f 96/45/65 95/24/24 94/43/69
f 93/45/65 33/21/19 34/24/24
f 92/29/42 91/14/10 90/34/43
f 89/29/70 88/12/8 87/14/71
f 86/22/72 85/9/3 84/25/28
f 83/22/72 82/10/4 81/9/73
f 80/16/74 79/8/6 78/18/14
f 29/16/74 30/11/75 77/8/6
f 76/31/28 75/12/8 28/29/35
f 31/31/28 26/9/73 27/12/8
f 74/18/14 73/10/76 24/22/27
f 21/18/14 22/8/6 23/10/4
f 72/34/77 71/13/9 20/15/78
f 17/34/77 18/14/10 19/13/9
f 70/47/79 69/48/65 68/49/80
f 67/47/81 66/50/57 65/48/65
f 64/51/82 63/52/67 62/53/83
f 61/51/82 60/54/66 59/52/67
f 58/55/84 57/56/85 56/57/86
f 55/55/87 54/58/63 53/56/61
f 52/49/80 51/59/62 50/60/88
f 2/49/89 32/48/65 49/59/62
f 48/53/90 47/50/57 12/47/91
f 9/53/92 10/52/67 11/50/57
f 46/57/93 45/54/66 8/51/94
f 5/57/95 6/56/85 7/54/60
f 44/60/96 43/61/97 15/62/84
f 1/60/98 35/59/99 39/61/100
