# Blender 5.0.0
# www.blender.org
mtllib Circle_002_Circle_001_Dupli_74_decorations_0.mtl
o Circle.002|Circle.001|Dupli|74_decorations_0
v -4.260318 0.790850 0.774300
v -4.260273 0.789615 0.773625
v -4.253685 0.791583 0.769839
v -4.253749 0.793345 0.770803
v -4.261842 0.792245 0.772826
v -4.257467 0.793866 0.769980
v -4.257777 0.793033 0.769008
v -4.262173 0.791354 0.771786
v -4.261760 0.790019 0.771609
v -4.257391 0.791785 0.768843
v -4.256600 0.791062 0.769608
v -4.260915 0.789245 0.772427
v -4.254745 0.795014 0.770295
v -4.255923 0.795334 0.768699
v -4.261016 0.792020 0.773944
v -4.256395 0.794063 0.767216
v -4.254977 0.794365 0.766759
v -4.253798 0.794437 0.766707
v -4.253485 0.793425 0.766572
v -4.254498 0.792815 0.766554
v -4.252771 0.792346 0.768894
v -4.252358 0.793119 0.768100
v -4.252392 0.794055 0.768611
v -4.252824 0.793780 0.769678
v -4.254601 0.791055 0.768131
v -4.252922 0.794942 0.768342
v -4.253547 0.795111 0.767494
v -4.254593 0.795399 0.767966
v -4.253517 0.791917 0.767504
v -4.252844 0.792839 0.767192
v -4.253634 0.795139 0.769265
v -4.256001 0.791408 0.770727
v -4.255034 0.791337 0.770480
v -4.255090 0.792862 0.771314
v -4.256042 0.792562 0.771359
v -4.255807 0.792159 0.766963
v -4.255952 0.794308 0.770874
v -4.256972 0.794584 0.769493
v -4.256695 0.793656 0.771026
v -4.255827 0.790880 0.769001
v -4.257381 0.793484 0.768209
v -4.256871 0.791836 0.767990
v -4.256695 0.793656 0.771026
v -4.260318 0.790850 0.774300
v -4.257777 0.793033 0.769008
v -4.261842 0.792245 0.772826
v -4.256600 0.791062 0.769608
v -4.261760 0.790019 0.771609
v -4.256042 0.792562 0.771359
v -4.260318 0.790850 0.774300
v -4.256042 0.792562 0.771359
v -4.260273 0.789615 0.773625
v -4.257467 0.793866 0.769980
v -4.256695 0.793656 0.771026
v -4.261016 0.792020 0.773944
v -4.261842 0.792245 0.772826
v -4.257467 0.793866 0.769980
v -4.261016 0.792020 0.773944
v -4.257391 0.791785 0.768843
v -4.257777 0.793033 0.769008
v -4.262173 0.791354 0.771786
v -4.261760 0.790019 0.771609
v -4.257391 0.791785 0.768843
v -4.262173 0.791354 0.771786
v -4.256001 0.791408 0.770727
v -4.256600 0.791062 0.769608
v -4.260915 0.789245 0.772427
v -4.260273 0.789615 0.773625
v -4.256001 0.791408 0.770727
v -4.260915 0.789245 0.772427
v -4.253485 0.793425 0.766572
v -4.254977 0.794365 0.766759
v -4.252392 0.794055 0.768611
v -4.252771 0.792346 0.768894
v -4.253547 0.795111 0.767494
v -4.253634 0.795139 0.769265
v -4.252358 0.793119 0.768100
v -4.252771 0.792346 0.768894
v -4.252358 0.793119 0.768100
v -4.253517 0.791917 0.767504
v -4.252922 0.794942 0.768342
v -4.252392 0.794055 0.768611
v -4.252824 0.793780 0.769678
v -4.253634 0.795139 0.769265
v -4.252922 0.794942 0.768342
v -4.252824 0.793780 0.769678
v -4.253798 0.794437 0.766707
v -4.253547 0.795111 0.767494
v -4.254593 0.795399 0.767966
v -4.254977 0.794365 0.766759
v -4.253798 0.794437 0.766707
v -4.254593 0.795399 0.767966
v -4.256001 0.791408 0.770727
v -4.256042 0.792562 0.771359
v -4.255090 0.792862 0.771314
v -4.256001 0.791408 0.770727
v -4.256695 0.793656 0.771026
v -4.257467 0.793866 0.769980
v -4.256972 0.794584 0.769493
v -4.256695 0.793656 0.771026
v -4.257777 0.793033 0.769008
v -4.257391 0.791785 0.768843
v -4.256871 0.791836 0.767990
v -4.257777 0.793033 0.769008
v -4.255034 0.791337 0.770480
v -4.256600 0.791062 0.769608
v -4.256001 0.791408 0.770727
v -4.255034 0.791337 0.770480
v -4.256600 0.791062 0.769608
v -4.255952 0.794308 0.770874
v -4.255090 0.792862 0.771314
v -4.256042 0.792562 0.771359
v -4.256695 0.793656 0.771026
v -4.255952 0.794308 0.770874
v -4.256042 0.792562 0.771359
v -4.257381 0.793484 0.768209
v -4.256972 0.794584 0.769493
v -4.257467 0.793866 0.769980
v -4.257777 0.793033 0.769008
v -4.257381 0.793484 0.768209
v -4.257467 0.793866 0.769980
v -4.255827 0.790880 0.769001
v -4.256871 0.791836 0.767990
v -4.257391 0.791785 0.768843
v -4.256600 0.791062 0.769608
v -4.255827 0.790880 0.769001
v -4.257391 0.791785 0.768843
v -4.256871 0.791836 0.767990
v -4.255827 0.790880 0.769001
v -4.254601 0.791055 0.768131
v -4.256871 0.791836 0.767990
v -4.253517 0.791917 0.767504
v -4.254498 0.792815 0.766554
v -4.255807 0.792159 0.766963
v -4.254601 0.791055 0.768131
v -4.253517 0.791917 0.767504
v -4.255807 0.792159 0.766963
v -4.255807 0.792159 0.766963
v -4.257381 0.793484 0.768209
v -4.256871 0.791836 0.767990
v -4.255807 0.792159 0.766963
v -4.257381 0.793484 0.768209
v -4.254498 0.792815 0.766554
v -4.254977 0.794365 0.766759
v -4.256395 0.794063 0.767216
v -4.255807 0.792159 0.766963
v -4.254498 0.792815 0.766554
v -4.256395 0.794063 0.767216
v -4.256395 0.794063 0.767216
v -4.256972 0.794584 0.769493
v -4.257381 0.793484 0.768209
v -4.256395 0.794063 0.767216
v -4.256972 0.794584 0.769493
v -4.254977 0.794365 0.766759
v -4.254593 0.795399 0.767966
v -4.255923 0.795334 0.768699
v -4.256395 0.794063 0.767216
v -4.254977 0.794365 0.766759
v -4.255923 0.795334 0.768699
v -4.255923 0.795334 0.768699
v -4.255952 0.794308 0.770874
v -4.256972 0.794584 0.769493
v -4.255923 0.795334 0.768699
v -4.255952 0.794308 0.770874
v -4.254593 0.795399 0.767966
v -4.253634 0.795139 0.769265
v -4.254745 0.795014 0.770295
v -4.255923 0.795334 0.768699
v -4.254593 0.795399 0.767966
v -4.254745 0.795014 0.770295
v -4.254745 0.795014 0.770295
v -4.255090 0.792862 0.771314
v -4.255952 0.794308 0.770874
v -4.254745 0.795014 0.770295
v -4.255090 0.792862 0.771314
v -4.253634 0.795139 0.769265
v -4.252824 0.793780 0.769678
v -4.253749 0.793345 0.770803
v -4.254745 0.795014 0.770295
v -4.253634 0.795139 0.769265
v -4.253749 0.793345 0.770803
v -4.253749 0.793345 0.770803
v -4.255034 0.791337 0.770480
v -4.255090 0.792862 0.771314
v -4.253749 0.793345 0.770803
v -4.255034 0.791337 0.770480
v -4.252824 0.793780 0.769678
v -4.252771 0.792346 0.768894
v -4.253685 0.791583 0.769839
v -4.253749 0.793345 0.770803
v -4.252824 0.793780 0.769678
v -4.253685 0.791583 0.769839
v -4.253685 0.791583 0.769839
v -4.254601 0.791055 0.768131
v -4.255827 0.790880 0.769001
v -4.255034 0.791337 0.770480
v -4.253685 0.791583 0.769839
v -4.255827 0.790880 0.769001
v -4.252771 0.792346 0.768894
v -4.253517 0.791917 0.767504
v -4.254601 0.791055 0.768131
v -4.253685 0.791583 0.769839
v -4.252771 0.792346 0.768894
v -4.254601 0.791055 0.768131
v -4.252844 0.792839 0.767192
v -4.253485 0.793425 0.766572
v -4.254498 0.792815 0.766554
v -4.253517 0.791917 0.767504
v -4.252844 0.792839 0.767192
v -4.254498 0.792815 0.766554
v -4.253798 0.794437 0.766707
v -4.253485 0.793425 0.766572
v -4.253547 0.795111 0.767494
v -4.252844 0.792839 0.767192
v -4.253547 0.795111 0.767494
v -4.253485 0.793425 0.766572
v -4.252922 0.794942 0.768342
v -4.253547 0.795111 0.767494
v -4.252844 0.792839 0.767192
v -4.252358 0.793119 0.768100
v -4.252922 0.794942 0.768342
v -4.252844 0.792839 0.767192
v -4.252392 0.794055 0.768611
v -4.252922 0.794942 0.768342
v -4.252358 0.793119 0.768100
v -4.262173 0.791354 0.771786
v -4.261842 0.792245 0.772826
v -4.261760 0.790019 0.771609
v -4.260915 0.789245 0.772427
v -4.261760 0.790019 0.771609
v -4.261842 0.792245 0.772826
v -4.261016 0.792020 0.773944
v -4.260915 0.789245 0.772427
v -4.261842 0.792245 0.772826
v -4.260273 0.789615 0.773625
v -4.260915 0.789245 0.772427
v -4.261016 0.792020 0.773944
v -4.260318 0.790850 0.774300
v -4.260273 0.789615 0.773625
v -4.261016 0.792020 0.773944
vn -0.7929 -0.3144 0.5221
vn 0.9718 -0.1395 -0.1900
vn 0.7135 0.6962 -0.0791
vn 0.9561 0.2895 0.0445
vn 0.7487 -0.2681 -0.6062
vn 0.7135 0.6961 -0.0791
vn 0.9718 -0.1396 -0.1901
vn 0.7488 -0.2681 -0.6061
vn 0.4267 0.7740 -0.4678
vn 0.4550 0.0007 -0.8905
vn 0.7488 -0.2681 -0.6062
vn 0.3116 0.4645 -0.8289
vn 0.0001 -0.2909 -0.9568
vn 0.4757 -0.7260 -0.4965
vn 0.1965 -0.9233 -0.3299
vn 0.8368 -0.5180 0.1772
vn 0.5918 -0.6955 0.4075
vn 0.1965 -0.9233 -0.3300
vn 0.4757 -0.7261 -0.4965
vn -0.1106 -0.9871 -0.1161
vn 0.2618 -0.7725 0.5786
vn 0.8115 0.1768 0.5570
vn 0.5640 0.0649 0.8232
vn 0.8368 -0.5180 0.1773
vn 0.2617 -0.7724 0.5787
vn 0.2356 -0.0561 0.9702
vn 0.2617 -0.7724 0.5786
vn 0.4187 0.8350 0.3569
vn 0.1341 0.7855 0.6042
vn 0.8114 0.1768 0.5570
vn 0.4188 0.8350 0.3569
vn 0.2355 -0.0561 0.9702
vn -0.1694 0.6227 0.7639
vn 0.5640 0.0650 0.8232
vn 0.1340 0.7855 0.6042
vn -0.0457 0.9611 -0.2724
vn -0.3742 0.9235 -0.0847
vn -0.0456 0.9611 -0.2724
vn -0.1695 0.6227 0.7639
vn -0.6482 0.7527 0.1150
vn -0.3741 0.9235 -0.0847
vn -0.2319 0.4601 -0.8571
vn -0.5781 0.3750 -0.7247
vn -0.6483 0.7527 0.1150
vn -0.8404 0.2360 -0.4880
vn -0.5782 0.3750 -0.7247
vn 0.0001 -0.2908 -0.9568
vn -0.3241 -0.4469 -0.8338
vn -0.2320 0.4600 -0.8571
vn -0.8404 0.2360 -0.4879
vn -0.6011 -0.5382 -0.5908
vn -0.6011 -0.5382 -0.5907
vn -0.5491 -0.5253 -0.6500
vn -0.0462 -0.9855 -0.1633
vn -0.5975 0.7985 0.0736
vn -0.8404 0.2361 -0.4879
vn -0.7945 0.2687 -0.5446
vn 0.3088 -0.0308 0.9506
vn -0.1065 0.6652 0.7390
vn 0.2356 -0.0560 0.9702
vn 0.3356 -0.7655 0.5491
vn -0.5492 -0.5253 -0.6500
vn 0.3356 -0.7654 0.5491
vn 0.3087 -0.0308 0.9506
vn 0.3116 0.4645 -0.8290
vn 0.4758 -0.7261 -0.4964
vn 0.9718 -0.1396 -0.1900
vn 0.9718 -0.1395 -0.1901
vn 0.4187 0.8351 0.3569
vn -0.2319 0.4600 -0.8571
vn 0.1820 -0.9296 -0.3204
vn 0.3356 -0.7654 0.5490
vn 0.5774 -0.7017 0.4173
vn 0.1820 -0.9296 -0.3205
vn 0.3356 -0.7655 0.5490
vn -0.5931 0.3693 -0.7154
vn -0.3390 -0.4529 -0.8246
vn -0.7945 0.2686 -0.5446
vn 0.1194 0.7801 0.6141
vn -0.3890 0.9182 -0.0750
vn 0.1195 0.7801 0.6141
vn -0.1065 0.6652 0.7391
vn 0.5774 -0.7017 0.4174
vn 0.5496 0.0591 0.8333
vn 0.5775 -0.7017 0.4174
vn -0.3390 -0.4530 -0.8246
vn 0.1819 -0.9296 -0.3205
vn -0.3389 -0.4529 -0.8246
vn -0.3891 0.9181 -0.0751
vn -0.5931 0.3694 -0.7154
vn -0.3890 0.9182 -0.0751
vn 0.5496 0.0592 0.8333
vn 0.5497 0.0592 0.8333
vt 0.543243 0.635056
vt 0.535370 0.641335
vt 0.537796 0.636299
vt 0.537796 0.646370
vt 0.547607 0.638535
vt 0.543243 0.647614
vt 0.547607 0.644127
vt 0.593674 0.671494
vt 0.598511 0.669548
vt 0.596146 0.672157
vt 0.592773 0.669609
vt 0.596436 0.666756
vt 0.592804 0.667854
vt 0.594147 0.666748
vt 0.591187 0.666855
vt 0.590591 0.669838
vt 0.587372 0.669685
vt 0.591782 0.673050
vt 0.588348 0.674789
vt 0.582382 0.669067
vt 0.582687 0.676537
vt 0.595596 0.675606
vt 0.592606 0.680244
vt 0.586334 0.684982
vt 0.603775 0.674767
vt 0.603561 0.686485
vt 0.594009 0.696274
vt 0.603775 0.658051
vt 0.597107 0.663902
vt 0.596405 0.659698
vt 0.602859 0.665543
vt 0.600342 0.651657
vt 0.594193 0.655174
vt 0.593353 0.664742
vt 0.591705 0.661980
vt 0.588959 0.658463
vt 0.588654 0.665283
vt 0.584778 0.662933
vt 0.580322 0.660286
vt 0.576584 0.668175
vt 0.591812 0.651588
vt 0.585907 0.654999
vt 0.579453 0.688484
vt 0.584915 0.699394
vt 0.576157 0.678001
vt 0.597061 0.648293
vt 0.627350 0.682632
vt 0.649124 0.687675
vt 0.627441 0.688225
vt 0.649033 0.682457
vt 0.627441 0.671455
vt 0.649033 0.677231
vt 0.627350 0.677048
vt 0.649124 0.672005
vt 0.627914 0.660294
vt 0.649292 0.666786
vt 0.627625 0.665871
vt 0.649551 0.661568
vt 0.649292 0.692902
vt 0.627625 0.693810
vt 0.649551 0.698120
vt 0.627914 0.699394
s 0
usemtl decorations
f 240/1/1 239/2/1 238/3/1
f 237/1/1 236/4/1 235/2/1
f 234/5/1 233/4/1 232/1/1
f 231/5/1 230/6/1 229/4/1
f 228/6/1 227/5/1 226/7/1
s 1
f 225/8/2 224/9/3 223/10/4
f 222/11/5 221/9/6 220/8/7
f 219/11/8 218/12/9 217/9/3
f 216/13/10 215/12/9 214/11/11
f 213/12/9 212/13/10 211/14/12
f 210/15/13 209/11/11 208/16/14
f 207/15/13 206/13/10 205/11/11
f 204/17/15 203/18/16 202/19/17
f 201/17/18 200/16/19 199/18/16
f 198/20/20 197/19/17 196/21/21
f 195/20/20 194/17/18 193/19/17
f 192/19/17 191/22/22 190/23/23
f 189/19/17 188/18/24 187/22/22
f 186/21/25 185/23/23 184/24/26
f 183/21/27 3/19/17 182/23/23
f 181/23/23 180/25/28 179/26/29
f 178/23/23 177/22/30 176/25/31
f 175/24/32 174/26/29 173/27/33
f 172/24/32 4/23/34 171/26/29
f 170/28/35 169/29/36 168/30/37
f 167/28/35 166/31/28 165/29/38
f 164/32/39 163/30/37 162/33/40
f 161/32/39 13/28/29 160/30/41
f 159/30/37 158/34/42 157/35/43
f 156/30/37 155/29/36 154/34/42
f 153/33/44 152/35/43 151/36/45
f 150/33/44 14/30/37 149/35/43
f 148/35/46 147/15/47 146/37/48
f 145/35/46 144/34/49 143/15/47
f 142/36/50 141/37/48 140/38/51
f 139/36/50 16/35/43 138/37/48
f 137/37/48 136/16/19 135/17/15
f 134/37/48 133/15/47 132/16/14
f 131/38/52 130/17/15 129/20/20
f 128/38/52 36/37/48 25/17/15
f 127/39/53 126/20/20 125/40/54
f 124/39/53 123/38/51 122/20/20
f 121/41/55 120/36/56 119/42/57
f 118/41/55 117/33/44 116/36/56
f 115/43/58 114/27/33 113/44/59
f 112/43/58 111/24/60 110/27/33
f 109/40/54 108/21/21 107/45/61
f 106/40/54 40/20/20 105/21/21
f 104/42/57 103/38/51 102/39/62
f 101/42/57 41/36/50 42/38/51
f 100/46/59 99/33/40 98/41/55
f 97/46/59 37/32/39 38/33/40
f 96/45/63 95/24/26 94/43/64
f 93/45/63 33/21/21 34/24/26
f 92/29/36 91/14/12 90/34/42
f 89/29/36 88/12/9 87/14/65
f 86/22/22 85/9/3 84/25/28
f 83/22/22 82/10/4 81/9/6
f 80/16/66 79/8/67 78/18/16
f 29/16/66 30/11/5 77/8/68
f 76/31/28 75/12/9 28/29/38
f 31/31/69 26/9/6 27/12/9
f 74/18/24 73/10/4 24/22/22
f 21/18/24 22/8/68 23/10/4
f 72/34/70 71/13/10 20/15/47
f 17/34/70 18/14/12 19/13/10
f 70/47/71 69/48/72 68/49/73
f 67/47/74 66/50/54 65/48/75
f 64/51/76 63/52/53 62/53/77
f 61/51/76 60/54/78 59/52/62
f 58/55/79 57/56/55 56/57/80
f 55/55/81 54/58/82 53/56/55
f 52/49/83 51/59/58 50/60/84
f 2/49/85 32/48/61 49/59/58
f 48/53/86 47/50/54 12/47/87
f 9/53/88 10/52/53 11/50/54
f 46/57/89 45/54/78 8/51/90
f 5/57/91 6/56/55 7/54/57
f 44/60/92 43/61/59 15/62/81
f 1/60/93 35/59/64 39/61/82
