# Blender 5.0.0
# www.blender.org
mtllib Circle_005_Circle_004_Dupli_152_decorations_0.mtl
o Circle.005|Circle.004|Dupli|152_decorations_0
v -4.698992 0.541980 0.667033
v -4.699374 0.542316 0.668346
v -4.697218 0.549801 0.667383
v -4.696673 0.549323 0.665509
v -4.696628 0.541110 0.667336
v -4.694756 0.546200 0.666669
v -4.694567 0.546313 0.667967
v -4.696425 0.541230 0.668725
v -4.697315 0.541714 0.669703
v -4.695399 0.546765 0.668881
v -4.696626 0.547217 0.668724
v -4.698627 0.542197 0.669535
v -4.694930 0.548557 0.664868
v -4.693300 0.548080 0.665943
v -4.697770 0.541443 0.666583
v -4.693012 0.548252 0.667924
v -4.692876 0.549728 0.667586
v -4.693109 0.550834 0.667236
v -4.693783 0.551200 0.667977
v -4.693910 0.550290 0.668722
v -4.696299 0.550988 0.667146
v -4.695343 0.551656 0.666949
v -4.695054 0.551402 0.665954
v -4.695856 0.550599 0.665621
v -4.696154 0.549632 0.669079
v -4.694128 0.550995 0.665613
v -4.693263 0.550742 0.666184
v -4.693111 0.549588 0.665974
v -4.695433 0.550851 0.668526
v -4.694777 0.551566 0.667850
v -4.694438 0.549976 0.665100
v -4.697323 0.547328 0.667613
v -4.697461 0.548316 0.667547
v -4.696989 0.547901 0.665925
v -4.696966 0.547014 0.666385
v -4.694282 0.548943 0.669319
v -4.695480 0.547239 0.665370
v -4.694069 0.546826 0.666300
v -4.695824 0.546512 0.665965
v -4.696539 0.548169 0.669015
v -4.693820 0.546975 0.668015
v -4.694919 0.547572 0.669223
v -4.695824 0.546512 0.665965
v -4.698992 0.541980 0.667033
v -4.694567 0.546313 0.667967
v -4.696628 0.541110 0.667336
v -4.696626 0.547217 0.668724
v -4.697315 0.541714 0.669703
v -4.696966 0.547014 0.666385
v -4.698992 0.541980 0.667033
v -4.696966 0.547014 0.666385
v -4.699374 0.542316 0.668346
v -4.694756 0.546200 0.666669
v -4.695824 0.546512 0.665965
v -4.697770 0.541443 0.666583
v -4.696628 0.541110 0.667336
v -4.694756 0.546200 0.666669
v -4.697770 0.541443 0.666583
v -4.695399 0.546765 0.668881
v -4.694567 0.546313 0.667967
v -4.696425 0.541230 0.668725
v -4.697315 0.541714 0.669703
v -4.695399 0.546765 0.668881
v -4.696425 0.541230 0.668725
v -4.697323 0.547328 0.667613
v -4.696626 0.547217 0.668724
v -4.698627 0.542197 0.669535
v -4.699374 0.542316 0.668346
v -4.697323 0.547328 0.667613
v -4.698627 0.542197 0.669535
v -4.693783 0.551200 0.667977
v -4.692876 0.549728 0.667586
v -4.695054 0.551402 0.665954
v -4.696299 0.550988 0.667146
v -4.693263 0.550742 0.666184
v -4.694438 0.549976 0.665100
v -4.695343 0.551656 0.666949
v -4.696299 0.550988 0.667146
v -4.695343 0.551656 0.666949
v -4.695433 0.550851 0.668526
v -4.694128 0.550995 0.665613
v -4.695054 0.551402 0.665954
v -4.695856 0.550599 0.665621
v -4.694438 0.549976 0.665100
v -4.694128 0.550995 0.665613
v -4.695856 0.550599 0.665621
v -4.693109 0.550834 0.667236
v -4.693263 0.550742 0.666184
v -4.693111 0.549588 0.665974
v -4.692876 0.549728 0.667586
v -4.693109 0.550834 0.667236
v -4.693111 0.549588 0.665974
v -4.697323 0.547328 0.667613
v -4.696966 0.547014 0.666385
v -4.696989 0.547901 0.665925
v -4.697323 0.547328 0.667613
v -4.695824 0.546512 0.665965
v -4.694756 0.546200 0.666669
v -4.694069 0.546826 0.666300
v -4.695824 0.546512 0.665965
v -4.694567 0.546313 0.667967
v -4.695399 0.546765 0.668881
v -4.694919 0.547572 0.669223
v -4.694567 0.546313 0.667967
v -4.697461 0.548316 0.667547
v -4.696626 0.547217 0.668724
v -4.697323 0.547328 0.667613
v -4.697461 0.548316 0.667547
v -4.696626 0.547217 0.668724
v -4.695480 0.547239 0.665370
v -4.696989 0.547901 0.665925
v -4.696966 0.547014 0.666385
v -4.695824 0.546512 0.665965
v -4.695480 0.547239 0.665370
v -4.696966 0.547014 0.666385
v -4.693820 0.546975 0.668015
v -4.694069 0.546826 0.666300
v -4.694756 0.546200 0.666669
v -4.694567 0.546313 0.667967
v -4.693820 0.546975 0.668015
v -4.694756 0.546200 0.666669
v -4.696539 0.548169 0.669015
v -4.694919 0.547572 0.669223
v -4.695399 0.546765 0.668881
v -4.696626 0.547217 0.668724
v -4.696539 0.548169 0.669015
v -4.695399 0.546765 0.668881
v -4.694919 0.547572 0.669223
v -4.696539 0.548169 0.669015
v -4.696154 0.549632 0.669079
v -4.694919 0.547572 0.669223
v -4.695433 0.550851 0.668526
v -4.693910 0.550290 0.668722
v -4.694282 0.548943 0.669319
v -4.696154 0.549632 0.669079
v -4.695433 0.550851 0.668526
v -4.694282 0.548943 0.669319
v -4.694282 0.548943 0.669319
v -4.693820 0.546975 0.668015
v -4.694919 0.547572 0.669223
v -4.694282 0.548943 0.669319
v -4.693820 0.546975 0.668015
v -4.693910 0.550290 0.668722
v -4.692876 0.549728 0.667586
v -4.693012 0.548252 0.667924
v -4.694282 0.548943 0.669319
v -4.693910 0.550290 0.668722
v -4.693012 0.548252 0.667924
v -4.693012 0.548252 0.667924
v -4.694069 0.546826 0.666300
v -4.693820 0.546975 0.668015
v -4.693012 0.548252 0.667924
v -4.694069 0.546826 0.666300
v -4.692876 0.549728 0.667586
v -4.693111 0.549588 0.665974
v -4.693300 0.548080 0.665943
v -4.693012 0.548252 0.667924
v -4.692876 0.549728 0.667586
v -4.693300 0.548080 0.665943
v -4.693300 0.548080 0.665943
v -4.695480 0.547239 0.665370
v -4.694069 0.546826 0.666300
v -4.693300 0.548080 0.665943
v -4.695480 0.547239 0.665370
v -4.693111 0.549588 0.665974
v -4.694438 0.549976 0.665100
v -4.694930 0.548557 0.664868
v -4.693300 0.548080 0.665943
v -4.693111 0.549588 0.665974
v -4.694930 0.548557 0.664868
v -4.694930 0.548557 0.664868
v -4.696989 0.547901 0.665925
v -4.695480 0.547239 0.665370
v -4.694930 0.548557 0.664868
v -4.696989 0.547901 0.665925
v -4.694438 0.549976 0.665100
v -4.695856 0.550599 0.665621
v -4.696673 0.549323 0.665509
v -4.694930 0.548557 0.664868
v -4.694438 0.549976 0.665100
v -4.696673 0.549323 0.665509
v -4.696673 0.549323 0.665509
v -4.697461 0.548316 0.667547
v -4.696989 0.547901 0.665925
v -4.696673 0.549323 0.665509
v -4.697461 0.548316 0.667547
v -4.695856 0.550599 0.665621
v -4.696299 0.550988 0.667146
v -4.697218 0.549801 0.667383
v -4.696673 0.549323 0.665509
v -4.695856 0.550599 0.665621
v -4.697218 0.549801 0.667383
v -4.697218 0.549801 0.667383
v -4.696154 0.549632 0.669079
v -4.696539 0.548169 0.669015
v -4.697461 0.548316 0.667547
v -4.697218 0.549801 0.667383
v -4.696539 0.548169 0.669015
v -4.696299 0.550988 0.667146
v -4.695433 0.550851 0.668526
v -4.696154 0.549632 0.669079
v -4.697218 0.549801 0.667383
v -4.696299 0.550988 0.667146
v -4.696154 0.549632 0.669079
v -4.694777 0.551566 0.667850
v -4.693783 0.551200 0.667977
v -4.693910 0.550290 0.668722
v -4.695433 0.550851 0.668526
v -4.694777 0.551566 0.667850
v -4.693910 0.550290 0.668722
v -4.693109 0.550834 0.667236
v -4.693783 0.551200 0.667977
v -4.693263 0.550742 0.666184
v -4.694777 0.551566 0.667850
v -4.693263 0.550742 0.666184
v -4.693783 0.551200 0.667977
v -4.694128 0.550995 0.665613
v -4.693263 0.550742 0.666184
v -4.694777 0.551566 0.667850
v -4.695343 0.551656 0.666949
v -4.694128 0.550995 0.665613
v -4.694777 0.551566 0.667850
v -4.695054 0.551402 0.665954
v -4.694128 0.550995 0.665613
v -4.695343 0.551656 0.666949
v -4.696425 0.541230 0.668725
v -4.696628 0.541110 0.667336
v -4.697315 0.541714 0.669703
v -4.698627 0.542197 0.669535
v -4.697315 0.541714 0.669703
v -4.696628 0.541110 0.667336
v -4.697770 0.541443 0.666583
v -4.698627 0.542197 0.669535
v -4.696628 0.541110 0.667336
v -4.699374 0.542316 0.668346
v -4.698627 0.542197 0.669535
v -4.697770 0.541443 0.666583
v -4.698992 0.541980 0.667033
v -4.699374 0.542316 0.668346
v -4.697770 0.541443 0.666583
vn -0.3575 -0.9245 0.1322
vn -0.2252 0.9730 -0.0516
vn 0.3321 0.6699 -0.6640
vn -0.0926 0.8564 -0.5079
vn 0.0341 0.9318 0.3615
vn 0.3320 0.6699 -0.6640
vn -0.2252 0.9730 -0.0515
vn 0.0340 0.9318 0.3614
vn 0.7289 0.5539 -0.4023
vn 0.4900 0.7639 0.4200
vn 0.7289 0.5539 -0.4024
vn 0.0341 0.9318 0.3614
vn 0.4899 0.7639 0.4200
vn 0.7992 0.5957 0.0801
vn 0.4612 0.3779 0.8028
vn -0.2768 0.6498 0.7080
vn -0.4492 0.3331 0.8290
vn -0.6966 0.7164 0.0394
vn -0.9086 0.4061 0.0972
vn -0.2769 0.6497 0.7080
vn -0.6965 0.7164 0.0394
vn -0.5565 -0.0311 0.8303
vn -0.9893 0.0378 0.1409
vn -0.5565 -0.0310 0.8303
vn -0.9086 0.4062 0.0972
vn -0.4819 0.5278 -0.6994
vn -0.6737 0.1996 -0.7115
vn -0.9893 0.0377 0.1408
vn -0.6737 0.1997 -0.7115
vn -0.7680 -0.1568 -0.6210
vn -0.6737 0.1996 -0.7116
vn 0.2055 0.2258 -0.9523
vn 0.0788 -0.1309 -0.9883
vn -0.4819 0.5277 -0.6995
vn 0.2055 0.2259 -0.9522
vn -0.0591 -0.4681 -0.8817
vn 0.8480 0.0380 -0.5286
vn 0.7821 -0.3365 -0.5246
vn 0.2055 0.2258 -0.9522
vn -0.0591 -0.4682 -0.8817
vn 0.7820 -0.3365 -0.5246
vn 0.6034 -0.6618 -0.4449
vn 0.7820 -0.3364 -0.5246
vn 0.9618 0.1057 0.2524
vn 0.9066 -0.2624 0.3304
vn 0.6034 -0.6619 -0.4448
vn 0.7208 -0.5920 0.3606
vn 0.6034 -0.6618 -0.4448
vn 0.9066 -0.2624 0.3305
vn 0.3587 0.0356 0.9328
vn 0.9618 0.1057 0.2525
vn 0.4612 0.3780 0.8027
vn 0.7207 -0.5920 0.3606
vn 0.3586 0.0356 0.9328
vn 0.2046 -0.3113 0.9280
vn -0.2768 0.6497 0.7080
vn 0.3587 0.0357 0.9328
vn 0.2045 -0.3113 0.9280
vn 0.2400 -0.2408 0.9404
vn -0.5404 0.0465 0.8401
vn 0.6491 -0.6003 -0.4673
vn 0.7694 -0.5287 0.3585
vn -0.7572 -0.0824 -0.6480
vn -0.0303 -0.4017 -0.9153
vn -0.7679 -0.1568 -0.6210
vn -0.5403 0.0466 0.8402
vn -0.9841 0.1170 0.1333
vn -0.0303 -0.4016 -0.9153
vn 0.6490 -0.6003 -0.4673
vn -0.9841 0.1171 0.1332
vn -0.9893 0.0377 0.1409
vn 0.7289 0.5540 -0.4023
vn -0.4819 0.5278 -0.6995
vn 0.3320 0.6700 -0.6640
vn -0.2769 0.6497 0.7079
vn -0.2251 0.9730 -0.0515
vn 0.4612 0.3780 0.8028
vn -0.4561 0.3162 0.8319
vn -0.9841 0.1171 0.1333
vn -0.9157 0.3892 0.0997
vn -0.5403 0.0465 0.8402
vn 0.9005 -0.2796 0.3331
vn 0.3523 0.0185 0.9357
vn 0.0723 -0.1481 -0.9863
vn 0.7758 -0.3538 -0.5224
vn 0.0723 -0.1480 -0.9863
vn -0.6807 0.1826 -0.7094
vn -0.9157 0.3893 0.0997
vn 0.3522 0.0185 0.9357
vn -0.5404 0.0466 0.8401
vn -0.4560 0.3162 0.8319
vn 0.3522 0.0186 0.9357
vn 0.7759 -0.3538 -0.5224
vn 0.7694 -0.5287 0.3586
vn 0.9005 -0.2796 0.3330
vn 0.7759 -0.3537 -0.5224
vn -0.6807 0.1826 -0.7095
vn 0.0722 -0.1481 -0.9863
vn -0.6806 0.1827 -0.7095
vt 0.530319 0.635056
vt 0.522446 0.641335
vt 0.524872 0.636299
vt 0.524872 0.646370
vt 0.534683 0.638535
vt 0.530319 0.647614
vt 0.534683 0.644127
vt 0.508789 0.671494
vt 0.513626 0.669548
vt 0.511276 0.672157
vt 0.507889 0.669609
vt 0.511566 0.666756
vt 0.507935 0.667854
vt 0.509277 0.666748
vt 0.506302 0.666855
vt 0.505722 0.669838
vt 0.502487 0.669685
vt 0.506897 0.673050
vt 0.503479 0.674789
vt 0.497520 0.669067
vt 0.497810 0.676537
vt 0.510727 0.675606
vt 0.507721 0.680244
vt 0.501465 0.684982
vt 0.518890 0.674767
vt 0.518692 0.686485
vt 0.509125 0.696274
vt 0.518890 0.658051
vt 0.512238 0.663902
vt 0.511536 0.659698
vt 0.517990 0.665543
vt 0.515472 0.651657
vt 0.509323 0.655174
vt 0.508469 0.664742
vt 0.506836 0.661980
vt 0.504074 0.658463
vt 0.503784 0.665283
vt 0.499901 0.662933
vt 0.495453 0.660286
vt 0.491707 0.668175
vt 0.506927 0.651588
vt 0.501038 0.654999
vt 0.494583 0.688484
vt 0.500031 0.699394
vt 0.491287 0.678001
vt 0.512177 0.648293
vt 0.627350 0.642853
vt 0.649124 0.647896
vt 0.627441 0.648445
vt 0.649033 0.642670
vt 0.627441 0.631676
vt 0.649033 0.637444
vt 0.627350 0.637268
vt 0.649124 0.632225
vt 0.627914 0.620506
vt 0.649292 0.626999
vt 0.627625 0.626091
vt 0.649551 0.621780
vt 0.649292 0.653114
vt 0.627625 0.654030
vt 0.649551 0.658333
vt 0.627914 0.659607
s 0
usemtl decorations
f 240/1/1 239/2/1 238/3/1
f 237/1/1 236/4/1 235/2/1
f 234/5/1 233/4/1 232/1/1
f 231/5/1 230/6/1 229/4/1
f 228/6/1 227/5/1 226/7/1
s 1
f 225/8/2 224/9/3 223/10/4
f 222/11/5 221/9/6 220/8/7
f 219/11/8 218/12/9 217/9/3
f 216/13/10 215/12/11 214/11/12
f 213/12/9 212/13/13 211/14/14
f 210/15/15 209/11/12 208/16/16
f 207/15/15 206/13/10 205/11/12
f 204/17/17 203/18/18 202/19/19
f 201/17/17 200/16/20 199/18/21
f 198/20/22 197/19/19 196/21/23
f 195/20/24 194/17/17 193/19/25
f 192/19/19 191/22/26 190/23/27
f 189/19/19 188/18/18 187/22/26
f 186/21/28 185/23/29 184/24/30
f 183/21/28 3/19/19 182/23/29
f 181/23/31 180/25/32 179/26/33
f 178/23/27 177/22/34 176/25/35
f 175/24/30 174/26/33 173/27/36
f 172/24/30 4/23/31 171/26/33
f 170/28/33 169/29/37 168/30/38
f 167/28/33 166/31/39 165/29/37
f 164/32/40 163/30/41 162/33/42
f 161/32/40 13/28/33 160/30/43
f 159/30/38 158/34/44 157/35/45
f 156/30/38 155/29/37 154/34/44
f 153/33/46 152/35/45 151/36/47
f 150/33/48 14/30/38 149/35/45
f 148/35/49 147/15/15 146/37/50
f 145/35/49 144/34/51 143/15/52
f 142/36/53 141/37/54 140/38/55
f 139/36/53 16/35/45 138/37/54
f 137/37/54 136/16/56 135/17/17
f 134/37/57 133/15/15 132/16/16
f 131/38/58 130/17/17 129/20/24
f 128/38/58 36/37/50 25/17/17
f 127/39/59 126/20/24 125/40/60
f 124/39/59 123/38/55 122/20/24
f 121/41/61 120/36/47 119/42/62
f 118/41/61 117/33/46 116/36/47
f 115/43/63 114/27/36 113/44/64
f 112/43/63 111/24/65 110/27/36
f 109/40/66 108/21/23 107/45/67
f 106/40/66 40/20/22 105/21/23
f 104/42/62 103/38/55 102/39/59
f 101/42/62 41/36/47 42/38/55
f 100/46/68 99/33/42 98/41/69
f 97/46/64 37/32/40 38/33/42
f 96/45/70 95/24/30 94/43/63
f 93/45/70 33/21/71 34/24/30
f 92/29/37 91/14/14 90/34/44
f 89/29/37 88/12/72 87/14/14
f 86/22/73 85/9/6 84/25/35
f 83/22/73 82/10/4 81/9/74
f 80/16/75 79/8/7 78/18/21
f 29/16/75 30/11/5 77/8/76
f 76/31/35 75/12/9 28/29/37
f 31/31/35 26/9/74 27/12/9
f 74/18/18 73/10/4 24/22/26
f 21/18/18 22/8/76 23/10/4
f 72/34/51 71/13/13 20/15/77
f 17/34/51 18/14/14 19/13/10
f 70/47/78 69/48/79 68/49/80
f 67/47/78 66/50/81 65/48/79
f 64/51/82 63/52/59 62/53/83
f 61/51/82 60/54/62 59/52/59
f 58/55/84 57/56/61 56/57/85
f 55/55/86 54/58/64 53/56/69
f 52/49/80 51/59/63 50/60/87
f 2/49/88 32/48/67 49/59/63
f 48/53/89 47/50/90 12/47/91
f 9/53/92 10/52/59 11/50/90
f 46/57/93 45/54/94 8/51/95
f 5/57/96 6/56/61 7/54/62
f 44/60/97 43/61/68 15/62/98
f 1/60/99 35/59/63 39/61/68
