# Blender 5.0.0
# www.blender.org
mtllib Circle_005_Circle_Dupli_263_decorations_0.mtl
o Circle.005|Circle|Dupli|263_decorations_0
v -4.498173 1.345306 0.378656
v -4.498840 1.345239 0.379895
v -4.505569 1.347775 0.376749
v -4.504618 1.347869 0.374982
v -4.497086 1.347598 0.378723
v -4.501606 1.349714 0.376497
v -4.501978 1.350181 0.377670
v -4.497484 1.348097 0.379978
v -4.498288 1.347478 0.380955
v -4.502729 1.349602 0.378583
v -4.503293 1.348413 0.378549
v -4.498891 1.346206 0.380918
v -4.503504 1.349367 0.374238
v -4.503067 1.351139 0.375077
v -4.497393 1.346355 0.378135
v -4.503635 1.351852 0.376867
v -4.504967 1.352039 0.376160
v -4.505989 1.351833 0.375599
v -4.506597 1.351364 0.376339
v -4.505900 1.351320 0.377294
v -4.506541 1.348721 0.376064
v -4.507016 1.349668 0.375537
v -4.506510 1.349718 0.374598
v -4.505767 1.348798 0.374626
v -4.505642 1.349154 0.378209
v -4.505919 1.350513 0.374203
v -4.505687 1.351454 0.374648
v -4.504505 1.351459 0.374703
v -4.506600 1.349843 0.377252
v -4.507054 1.350400 0.376312
v -4.504861 1.350016 0.374020
v -4.503245 1.347510 0.377593
v -4.504203 1.347446 0.377314
v -4.503380 1.347528 0.375784
v -4.502622 1.347572 0.376435
v -4.504781 1.350969 0.378261
v -4.502416 1.348825 0.375140
v -4.502037 1.350359 0.375866
v -4.501892 1.348553 0.375947
v -4.504266 1.348640 0.378577
v -4.502529 1.350976 0.377416
v -4.503521 1.350211 0.378622
v -4.501892 1.348553 0.375947
v -4.498173 1.345306 0.378656
v -4.501978 1.350181 0.377670
v -4.497086 1.347598 0.378723
v -4.503293 1.348413 0.378549
v -4.498288 1.347478 0.380955
v -4.502622 1.347572 0.376435
v -4.498173 1.345306 0.378656
v -4.502622 1.347572 0.376435
v -4.498840 1.345239 0.379895
v -4.501606 1.349714 0.376497
v -4.501892 1.348553 0.375947
v -4.497393 1.346355 0.378135
v -4.497086 1.347598 0.378723
v -4.501606 1.349714 0.376497
v -4.497393 1.346355 0.378135
v -4.502729 1.349602 0.378583
v -4.501978 1.350181 0.377670
v -4.497484 1.348097 0.379978
v -4.498288 1.347478 0.380955
v -4.502729 1.349602 0.378583
v -4.497484 1.348097 0.379978
v -4.503245 1.347510 0.377593
v -4.503293 1.348413 0.378549
v -4.498891 1.346206 0.380918
v -4.498840 1.345239 0.379895
v -4.503245 1.347510 0.377593
v -4.498891 1.346206 0.380918
v -4.506597 1.351364 0.376339
v -4.504967 1.352039 0.376160
v -4.506510 1.349718 0.374598
v -4.506541 1.348721 0.376064
v -4.505687 1.351454 0.374648
v -4.504861 1.350016 0.374020
v -4.507016 1.349668 0.375537
v -4.506541 1.348721 0.376064
v -4.507016 1.349668 0.375537
v -4.506600 1.349843 0.377252
v -4.505919 1.350513 0.374203
v -4.506510 1.349718 0.374598
v -4.505767 1.348798 0.374626
v -4.504861 1.350016 0.374020
v -4.505919 1.350513 0.374203
v -4.505767 1.348798 0.374626
v -4.505989 1.351833 0.375599
v -4.505687 1.351454 0.374648
v -4.504505 1.351459 0.374703
v -4.504967 1.352039 0.376160
v -4.505989 1.351833 0.375599
v -4.504505 1.351459 0.374703
v -4.503245 1.347510 0.377593
v -4.502622 1.347572 0.376435
v -4.503380 1.347528 0.375784
v -4.503245 1.347510 0.377593
v -4.501892 1.348553 0.375947
v -4.501606 1.349714 0.376497
v -4.502037 1.350359 0.375866
v -4.501892 1.348553 0.375947
v -4.501978 1.350181 0.377670
v -4.502729 1.349602 0.378583
v -4.503521 1.350211 0.378622
v -4.501978 1.350181 0.377670
v -4.504203 1.347446 0.377314
v -4.503293 1.348413 0.378549
v -4.503245 1.347510 0.377593
v -4.504203 1.347446 0.377314
v -4.503293 1.348413 0.378549
v -4.502416 1.348825 0.375140
v -4.503380 1.347528 0.375784
v -4.502622 1.347572 0.376435
v -4.501892 1.348553 0.375947
v -4.502416 1.348825 0.375140
v -4.502622 1.347572 0.376435
v -4.502529 1.350976 0.377416
v -4.502037 1.350359 0.375866
v -4.501606 1.349714 0.376497
v -4.501978 1.350181 0.377670
v -4.502529 1.350976 0.377416
v -4.501606 1.349714 0.376497
v -4.504266 1.348640 0.378577
v -4.503521 1.350211 0.378622
v -4.502729 1.349602 0.378583
v -4.503293 1.348413 0.378549
v -4.504266 1.348640 0.378577
v -4.502729 1.349602 0.378583
v -4.503521 1.350211 0.378622
v -4.504266 1.348640 0.378577
v -4.505642 1.349154 0.378209
v -4.503521 1.350211 0.378622
v -4.506600 1.349843 0.377252
v -4.505900 1.351320 0.377294
v -4.504781 1.350969 0.378261
v -4.505642 1.349154 0.378209
v -4.506600 1.349843 0.377252
v -4.504781 1.350969 0.378261
v -4.504781 1.350969 0.378261
v -4.502529 1.350976 0.377416
v -4.503521 1.350211 0.378622
v -4.504781 1.350969 0.378261
v -4.502529 1.350976 0.377416
v -4.505900 1.351320 0.377294
v -4.504967 1.352039 0.376160
v -4.503635 1.351852 0.376867
v -4.504781 1.350969 0.378261
v -4.505900 1.351320 0.377294
v -4.503635 1.351852 0.376867
v -4.503635 1.351852 0.376867
v -4.502037 1.350359 0.375866
v -4.502529 1.350976 0.377416
v -4.503635 1.351852 0.376867
v -4.502037 1.350359 0.375866
v -4.504967 1.352039 0.376160
v -4.504505 1.351459 0.374703
v -4.503067 1.351139 0.375077
v -4.503635 1.351852 0.376867
v -4.504967 1.352039 0.376160
v -4.503067 1.351139 0.375077
v -4.503067 1.351139 0.375077
v -4.502416 1.348825 0.375140
v -4.502037 1.350359 0.375866
v -4.503067 1.351139 0.375077
v -4.502416 1.348825 0.375140
v -4.504505 1.351459 0.374703
v -4.504861 1.350016 0.374020
v -4.503504 1.349367 0.374238
v -4.503067 1.351139 0.375077
v -4.504505 1.351459 0.374703
v -4.503504 1.349367 0.374238
v -4.503504 1.349367 0.374238
v -4.503380 1.347528 0.375784
v -4.502416 1.348825 0.375140
v -4.503504 1.349367 0.374238
v -4.503380 1.347528 0.375784
v -4.504861 1.350016 0.374020
v -4.505767 1.348798 0.374626
v -4.504618 1.347869 0.374982
v -4.503504 1.349367 0.374238
v -4.504861 1.350016 0.374020
v -4.504618 1.347869 0.374982
v -4.504618 1.347869 0.374982
v -4.504203 1.347446 0.377314
v -4.503380 1.347528 0.375784
v -4.504618 1.347869 0.374982
v -4.504203 1.347446 0.377314
v -4.505767 1.348798 0.374626
v -4.506541 1.348721 0.376064
v -4.505569 1.347775 0.376749
v -4.504618 1.347869 0.374982
v -4.505767 1.348798 0.374626
v -4.505569 1.347775 0.376749
v -4.505569 1.347775 0.376749
v -4.505642 1.349154 0.378209
v -4.504266 1.348640 0.378577
v -4.504203 1.347446 0.377314
v -4.505569 1.347775 0.376749
v -4.504266 1.348640 0.378577
v -4.506541 1.348721 0.376064
v -4.506600 1.349843 0.377252
v -4.505642 1.349154 0.378209
v -4.505569 1.347775 0.376749
v -4.506541 1.348721 0.376064
v -4.505642 1.349154 0.378209
v -4.507054 1.350400 0.376312
v -4.506597 1.351364 0.376339
v -4.505900 1.351320 0.377294
v -4.506600 1.349843 0.377252
v -4.507054 1.350400 0.376312
v -4.505900 1.351320 0.377294
v -4.505989 1.351833 0.375599
v -4.506597 1.351364 0.376339
v -4.505687 1.351454 0.374648
v -4.507054 1.350400 0.376312
v -4.505687 1.351454 0.374648
v -4.506597 1.351364 0.376339
v -4.505919 1.350513 0.374203
v -4.505687 1.351454 0.374648
v -4.507054 1.350400 0.376312
v -4.507016 1.349668 0.375537
v -4.505919 1.350513 0.374203
v -4.507054 1.350400 0.376312
v -4.506510 1.349718 0.374598
v -4.505919 1.350513 0.374203
v -4.507016 1.349668 0.375537
v -4.497484 1.348097 0.379978
v -4.497086 1.347598 0.378723
v -4.498288 1.347478 0.380955
v -4.498891 1.346206 0.380918
v -4.498288 1.347478 0.380955
v -4.497086 1.347598 0.378723
v -4.497393 1.346355 0.378135
v -4.498891 1.346206 0.380918
v -4.497086 1.347598 0.378723
v -4.498840 1.345239 0.379895
v -4.498891 1.346206 0.380918
v -4.497393 1.346355 0.378135
v -4.498173 1.345306 0.378656
v -4.498840 1.345239 0.379895
v -4.497393 1.346355 0.378135
vn 0.8161 -0.3992 0.4180
vn -0.9581 -0.1471 -0.2456
vn -0.4552 0.2407 -0.8572
vn -0.7264 -0.1240 -0.6759
vn -0.9758 0.1889 0.1098
vn -0.9582 -0.1471 -0.2456
vn -0.9759 0.1888 0.1097
vn -0.3487 0.6724 -0.6529
vn -0.7662 0.6308 0.1225
vn -0.9759 0.1888 0.1098
vn -0.7663 0.6307 0.1226
vn -0.4871 0.8460 -0.2169
vn -0.4825 0.6504 0.5867
vn -0.8219 -0.0650 0.5660
vn -0.5658 -0.2345 0.7905
vn -0.7932 -0.6089 -0.0093
vn -0.5345 -0.8297 0.1607
vn -0.5659 -0.2344 0.7905
vn -0.8218 -0.0651 0.5660
vn -0.2287 -0.3698 0.9005
vn -0.5345 -0.8298 0.1607
vn -0.1992 -0.9305 0.3073
vn -0.5659 -0.2345 0.7904
vn -0.4181 -0.5715 -0.7061
vn -0.1239 -0.7889 -0.6020
vn -0.7932 -0.6089 -0.0094
vn -0.1991 -0.9306 0.3072
vn -0.1239 -0.7889 -0.6019
vn 0.1877 -0.8920 -0.4112
vn 0.0211 0.0189 -0.9996
vn 0.3568 -0.1426 -0.9232
vn -0.4180 -0.5716 -0.7061
vn 0.0210 0.0189 -0.9996
vn 0.6405 -0.2832 -0.7138
vn 0.3569 -0.1425 -0.9232
vn 0.1935 0.7178 -0.6689
vn 0.5455 0.6224 -0.5612
vn 0.3568 -0.1425 -0.9232
vn 0.6406 -0.2831 -0.7138
vn 0.5456 0.6224 -0.5612
vn 0.8183 0.4375 -0.3728
vn 0.6405 -0.2831 -0.7138
vn 0.5455 0.6224 -0.5613
vn -0.0306 0.9988 0.0370
vn 0.3002 0.9301 0.2115
vn 0.1935 0.7178 -0.6688
vn 0.8183 0.4375 -0.3727
vn 0.3002 0.9301 0.2116
vn 0.5872 0.7273 0.3552
vn 0.3003 0.9301 0.2116
vn -0.4824 0.6505 0.5867
vn -0.1944 0.5487 0.8131
vn -0.0306 0.9988 0.0371
vn -0.4825 0.6505 0.5866
vn 0.1213 0.3681 0.9218
vn -0.1944 0.5488 0.8131
vn 0.1213 0.3680 0.9219
vn 0.0551 0.4112 0.9099
vn -0.2287 -0.3697 0.9005
vn -0.3037 -0.3453 0.8880
vn 0.0552 0.4112 0.9099
vn 0.1213 0.3681 0.9219
vn 0.7699 0.4825 -0.4177
vn 0.5330 0.7796 0.3288
vn 0.7699 0.4824 -0.4177
vn 0.1233 -0.8808 -0.4571
vn 0.5876 -0.2565 -0.7674
vn 0.1233 -0.8809 -0.4571
vn -0.2733 -0.9204 0.2797
vn -0.2287 -0.3698 0.9006
vn 0.5330 0.7797 0.3288
vn 0.8183 0.4374 -0.3728
vn 0.7700 0.4824 -0.4176
vn 0.5876 -0.2566 -0.7674
vn -0.2734 -0.9204 0.2796
vn -0.2734 -0.9204 0.2797
vn -0.1991 -0.9306 0.3073
vn -0.4871 0.8460 -0.2168
vn -0.4180 -0.5715 -0.7061
vn -0.7265 -0.1241 -0.6759
vn -0.8219 -0.0651 0.5660
vn -0.7264 -0.1240 -0.6760
vn -0.7931 -0.6090 -0.0093
vn -0.7265 -0.1240 -0.6759
vn -0.4825 0.6504 0.5866
vn -0.5511 -0.2420 0.7986
vn -0.2734 -0.9203 0.2797
vn -0.5197 -0.8376 0.1685
vn 0.3155 0.9232 0.2194
vn -0.1794 0.5417 0.8212
vn 0.3154 0.9232 0.2194
vn 0.3721 -0.1500 -0.9160
vn 0.5609 0.6153 -0.5538
vn 0.3721 -0.1499 -0.9160
vn -0.1089 -0.7967 -0.5945
vn 0.1233 -0.8809 -0.4570
vn -0.1794 0.5416 0.8212
vn -0.5511 -0.2419 0.7986
vn 0.5609 0.6154 -0.5538
vn 0.7699 0.4825 -0.4176
vn -0.1088 -0.7967 -0.5945
vt 0.543243 0.611839
vt 0.535370 0.618118
vt 0.537796 0.613083
vt 0.537796 0.623154
vt 0.547607 0.615326
vt 0.543243 0.624397
vt 0.547607 0.620918
vt 0.565384 0.671494
vt 0.570206 0.669548
vt 0.567856 0.672157
vt 0.564468 0.669609
vt 0.568146 0.666756
vt 0.564514 0.667854
vt 0.565857 0.666748
vt 0.562897 0.666855
vt 0.562302 0.669838
vt 0.559082 0.669685
vt 0.563492 0.673050
vt 0.560059 0.674789
vt 0.554092 0.669067
vt 0.554398 0.676537
vt 0.567307 0.675606
vt 0.564316 0.680244
vt 0.558044 0.684982
vt 0.575485 0.674767
vt 0.575272 0.686485
vt 0.565720 0.696274
vt 0.575485 0.658051
vt 0.568817 0.663902
vt 0.568115 0.659698
vt 0.574570 0.665543
vt 0.572052 0.651657
vt 0.565903 0.655174
vt 0.565063 0.664742
vt 0.563416 0.661980
vt 0.560669 0.658463
vt 0.560364 0.665283
vt 0.556488 0.662933
vt 0.552032 0.660286
vt 0.548294 0.668175
vt 0.563522 0.651588
vt 0.557617 0.654999
vt 0.551163 0.688484
vt 0.556610 0.699394
vt 0.547867 0.678001
vt 0.568756 0.648293
vt 0.604446 0.682632
vt 0.626221 0.687675
vt 0.604553 0.688225
vt 0.626144 0.682457
vt 0.604553 0.671455
vt 0.626144 0.677231
vt 0.604446 0.677048
vt 0.626221 0.672005
vt 0.605011 0.660294
vt 0.626404 0.666786
vt 0.604736 0.665871
vt 0.626663 0.661568
vt 0.626404 0.692902
vt 0.604736 0.693810
vt 0.626663 0.698120
vt 0.605011 0.699394
s 0
usemtl decorations
f 240/1/1 239/2/1 238/3/1
f 237/1/1 236/4/1 235/2/1
f 234/5/1 233/4/1 232/1/1
f 231/5/1 230/6/1 229/4/1
f 228/6/1 227/5/1 226/7/1
s 1
f 225/8/2 224/9/3 223/10/4
f 222/11/5 221/9/3 220/8/6
f 219/11/7 218/12/8 217/9/3
f 216/13/9 215/12/8 214/11/10
f 213/12/8 212/13/11 211/14/12
f 210/15/13 209/11/7 208/16/14
f 207/15/13 206/13/9 205/11/7
f 204/17/15 203/18/16 202/19/17
f 201/17/18 200/16/19 199/18/16
f 198/20/20 197/19/21 196/21/22
f 195/20/20 194/17/23 193/19/17
f 192/19/17 191/22/24 190/23/25
f 189/19/17 188/18/26 187/22/24
f 186/21/27 185/23/28 184/24/29
f 183/21/27 3/19/17 182/23/28
f 181/23/25 180/25/30 179/26/31
f 178/23/25 177/22/32 176/25/33
f 175/24/29 174/26/31 173/27/34
f 172/24/29 4/23/25 171/26/31
f 170/28/35 169/29/36 168/30/37
f 167/28/38 166/31/30 165/29/36
f 164/32/39 163/30/40 162/33/41
f 161/32/42 13/28/38 160/30/43
f 159/30/37 158/34/44 157/35/45
f 156/30/37 155/29/46 154/34/44
f 153/33/47 152/35/48 151/36/49
f 150/33/47 14/30/37 149/35/50
f 148/35/50 147/15/51 146/37/52
f 145/35/48 144/34/53 143/15/54
f 142/36/49 141/37/52 140/38/55
f 139/36/49 16/35/48 138/37/52
f 137/37/52 136/16/19 135/17/23
f 134/37/56 133/15/13 132/16/14
f 131/38/57 130/17/23 129/20/20
f 128/38/57 36/37/56 25/17/23
f 127/39/58 126/20/59 125/40/60
f 124/39/61 123/38/62 122/20/59
f 121/41/63 120/36/49 119/42/64
f 118/41/65 117/33/47 116/36/49
f 115/43/66 114/27/34 113/44/67
f 112/43/68 111/24/29 110/27/34
f 109/40/60 108/21/22 107/45/69
f 106/40/60 40/20/70 105/21/22
f 104/42/71 103/38/55 102/39/61
f 101/42/64 41/36/49 42/38/55
f 100/46/67 99/33/72 98/41/73
f 97/46/74 37/32/42 38/33/72
f 96/45/75 95/24/29 94/43/66
f 93/45/76 33/21/77 34/24/29
f 92/29/46 91/14/12 90/34/53
f 89/29/46 88/12/8 87/14/78
f 86/22/24 85/9/3 84/25/33
f 83/22/79 82/10/80 81/9/3
f 80/16/81 79/8/2 78/18/16
f 29/16/19 30/11/5 77/8/2
f 76/31/33 75/12/8 28/29/36
f 31/31/30 26/9/3 27/12/8
f 74/18/16 73/10/82 24/22/24
f 21/18/83 22/8/2 23/10/84
f 72/34/53 71/13/9 20/15/85
f 17/34/53 18/14/12 19/13/9
f 70/47/86 69/48/87 68/49/88
f 67/47/86 66/50/60 65/48/87
f 64/51/89 63/52/58 62/53/90
f 61/51/91 60/54/64 59/52/61
f 58/55/92 57/56/63 56/57/93
f 55/55/94 54/58/74 53/56/65
f 52/49/88 51/59/68 50/60/95
f 2/49/88 32/48/69 49/59/96
f 48/53/97 47/50/60 12/47/98
f 9/53/90 10/52/61 11/50/60
f 46/57/99 45/54/64 8/51/89
f 5/57/99 6/56/100 7/54/64
f 44/60/101 43/61/67 15/62/92
f 1/60/95 35/59/96 39/61/74
