# Blender 5.0.0
# www.blender.org
mtllib Circle_002_Circle_004_Dupli_276_decorations_0.mtl
o Circle.002|Circle.004|Dupli|276_decorations_0
v -4.492414 1.669989 0.797202
v -4.493280 1.669995 0.798312
v -4.494955 1.677602 0.797344
v -4.493718 1.677594 0.795760
v -4.490142 1.670398 0.798257
v -4.490946 1.675775 0.797705
v -4.491232 1.675875 0.798986
v -4.490448 1.670505 0.799627
v -4.491704 1.670409 0.800257
v -4.492406 1.675785 0.799574
v -4.493585 1.675573 0.799027
v -4.492964 1.670182 0.799671
v -4.491726 1.677850 0.795726
v -4.490478 1.678177 0.797266
v -4.491017 1.670169 0.797177
v -4.490914 1.678330 0.799221
v -4.491436 1.679695 0.798806
v -4.492072 1.680558 0.798305
v -4.493024 1.680485 0.798782
v -4.492895 1.679583 0.799537
v -4.494725 1.679103 0.797278
v -4.494218 1.680171 0.797308
v -4.493562 1.680167 0.796467
v -4.493719 1.679096 0.795990
v -4.494504 1.677869 0.799284
v -4.492503 1.680303 0.796448
v -4.491840 1.680477 0.797266
v -4.491082 1.679571 0.797215
v -4.494359 1.679320 0.798857
v -4.493979 1.680313 0.798338
v -4.492097 1.679304 0.795961
v -4.493880 1.675398 0.797756
v -4.494463 1.676187 0.797564
v -4.493393 1.676180 0.796194
v -4.493070 1.675393 0.796718
v -4.492706 1.678193 0.800119
v -4.491668 1.676401 0.796163
v -4.490588 1.676685 0.797497
v -4.491764 1.675560 0.796696
v -4.494073 1.676418 0.799243
v -4.490966 1.676817 0.799189
v -4.492517 1.676698 0.799966
v -4.491764 1.675560 0.796696
v -4.492414 1.669989 0.797202
v -4.491232 1.675875 0.798986
v -4.490142 1.670398 0.798257
v -4.493585 1.675573 0.799027
v -4.491704 1.670409 0.800257
v -4.493070 1.675393 0.796718
v -4.492414 1.669989 0.797202
v -4.493070 1.675393 0.796718
v -4.493280 1.669995 0.798312
v -4.490946 1.675775 0.797705
v -4.491764 1.675560 0.796696
v -4.491017 1.670169 0.797177
v -4.490142 1.670398 0.798257
v -4.490946 1.675775 0.797705
v -4.491017 1.670169 0.797177
v -4.492406 1.675785 0.799574
v -4.491232 1.675875 0.798986
v -4.490448 1.670505 0.799627
v -4.491704 1.670409 0.800257
v -4.492406 1.675785 0.799574
v -4.490448 1.670505 0.799627
v -4.493880 1.675398 0.797756
v -4.493585 1.675573 0.799027
v -4.492964 1.670182 0.799671
v -4.493280 1.669995 0.798312
v -4.493880 1.675398 0.797756
v -4.492964 1.670182 0.799671
v -4.493024 1.680485 0.798782
v -4.491436 1.679695 0.798806
v -4.493562 1.680167 0.796467
v -4.494725 1.679103 0.797278
v -4.491840 1.680477 0.797266
v -4.492097 1.679304 0.795961
v -4.494218 1.680171 0.797308
v -4.494725 1.679103 0.797278
v -4.494218 1.680171 0.797308
v -4.494359 1.679320 0.798857
v -4.492503 1.680303 0.796448
v -4.493562 1.680167 0.796467
v -4.493719 1.679096 0.795990
v -4.492097 1.679304 0.795961
v -4.492503 1.680303 0.796448
v -4.493719 1.679096 0.795990
v -4.492072 1.680558 0.798305
v -4.491840 1.680477 0.797266
v -4.491082 1.679571 0.797215
v -4.491436 1.679695 0.798806
v -4.492072 1.680558 0.798305
v -4.491082 1.679571 0.797215
v -4.493880 1.675398 0.797756
v -4.493070 1.675393 0.796718
v -4.493393 1.676180 0.796194
v -4.493880 1.675398 0.797756
v -4.491764 1.675560 0.796696
v -4.490946 1.675775 0.797705
v -4.490588 1.676685 0.797497
v -4.491764 1.675560 0.796696
v -4.491232 1.675875 0.798986
v -4.492406 1.675785 0.799574
v -4.492517 1.676698 0.799966
v -4.491232 1.675875 0.798986
v -4.494463 1.676187 0.797564
v -4.493585 1.675573 0.799027
v -4.493880 1.675398 0.797756
v -4.494463 1.676187 0.797564
v -4.493585 1.675573 0.799027
v -4.491668 1.676401 0.796163
v -4.493393 1.676180 0.796194
v -4.493070 1.675393 0.796718
v -4.491764 1.675560 0.796696
v -4.491668 1.676401 0.796163
v -4.493070 1.675393 0.796718
v -4.490966 1.676817 0.799189
v -4.490588 1.676685 0.797497
v -4.490946 1.675775 0.797705
v -4.491232 1.675875 0.798986
v -4.490966 1.676817 0.799189
v -4.490946 1.675775 0.797705
v -4.494073 1.676418 0.799243
v -4.492517 1.676698 0.799966
v -4.492406 1.675785 0.799574
v -4.493585 1.675573 0.799027
v -4.494073 1.676418 0.799243
v -4.492406 1.675785 0.799574
v -4.492517 1.676698 0.799966
v -4.494073 1.676418 0.799243
v -4.494504 1.677869 0.799284
v -4.492517 1.676698 0.799966
v -4.494359 1.679320 0.798857
v -4.492895 1.679583 0.799537
v -4.492706 1.678193 0.800119
v -4.494504 1.677869 0.799284
v -4.494359 1.679320 0.798857
v -4.492706 1.678193 0.800119
v -4.492706 1.678193 0.800119
v -4.490966 1.676817 0.799189
v -4.492517 1.676698 0.799966
v -4.492706 1.678193 0.800119
v -4.490966 1.676817 0.799189
v -4.492895 1.679583 0.799537
v -4.491436 1.679695 0.798806
v -4.490914 1.678330 0.799221
v -4.492706 1.678193 0.800119
v -4.492895 1.679583 0.799537
v -4.490914 1.678330 0.799221
v -4.490914 1.678330 0.799221
v -4.490588 1.676685 0.797497
v -4.490966 1.676817 0.799189
v -4.490914 1.678330 0.799221
v -4.490588 1.676685 0.797497
v -4.491436 1.679695 0.798806
v -4.491082 1.679571 0.797215
v -4.490478 1.678177 0.797266
v -4.490914 1.678330 0.799221
v -4.491436 1.679695 0.798806
v -4.490478 1.678177 0.797266
v -4.490478 1.678177 0.797266
v -4.491668 1.676401 0.796163
v -4.490588 1.676685 0.797497
v -4.490478 1.678177 0.797266
v -4.491668 1.676401 0.796163
v -4.491082 1.679571 0.797215
v -4.492097 1.679304 0.795961
v -4.491726 1.677850 0.795726
v -4.490478 1.678177 0.797266
v -4.491082 1.679571 0.797215
v -4.491726 1.677850 0.795726
v -4.491726 1.677850 0.795726
v -4.493393 1.676180 0.796194
v -4.491668 1.676401 0.796163
v -4.491726 1.677850 0.795726
v -4.493393 1.676180 0.796194
v -4.492097 1.679304 0.795961
v -4.493719 1.679096 0.795990
v -4.493718 1.677594 0.795760
v -4.491726 1.677850 0.795726
v -4.492097 1.679304 0.795961
v -4.493718 1.677594 0.795760
v -4.493718 1.677594 0.795760
v -4.494463 1.676187 0.797564
v -4.493393 1.676180 0.796194
v -4.493718 1.677594 0.795760
v -4.494463 1.676187 0.797564
v -4.493719 1.679096 0.795990
v -4.494725 1.679103 0.797278
v -4.494955 1.677602 0.797344
v -4.493718 1.677594 0.795760
v -4.493719 1.679096 0.795990
v -4.494955 1.677602 0.797344
v -4.494955 1.677602 0.797344
v -4.494504 1.677869 0.799284
v -4.494073 1.676418 0.799243
v -4.494463 1.676187 0.797564
v -4.494955 1.677602 0.797344
v -4.494073 1.676418 0.799243
v -4.494725 1.679103 0.797278
v -4.494359 1.679320 0.798857
v -4.494504 1.677869 0.799284
v -4.494955 1.677602 0.797344
v -4.494725 1.679103 0.797278
v -4.494504 1.677869 0.799284
v -4.493979 1.680313 0.798338
v -4.493024 1.680485 0.798782
v -4.492895 1.679583 0.799537
v -4.494359 1.679320 0.798857
v -4.493979 1.680313 0.798338
v -4.492895 1.679583 0.799537
v -4.492072 1.680558 0.798305
v -4.493024 1.680485 0.798782
v -4.491840 1.680477 0.797266
v -4.493979 1.680313 0.798338
v -4.491840 1.680477 0.797266
v -4.493024 1.680485 0.798782
v -4.492503 1.680303 0.796448
v -4.491840 1.680477 0.797266
v -4.493979 1.680313 0.798338
v -4.494218 1.680171 0.797308
v -4.492503 1.680303 0.796448
v -4.493979 1.680313 0.798338
v -4.493562 1.680167 0.796467
v -4.492503 1.680303 0.796448
v -4.494218 1.680171 0.797308
v -4.490448 1.670505 0.799627
v -4.490142 1.670398 0.798257
v -4.491704 1.670409 0.800257
v -4.492964 1.670182 0.799671
v -4.491704 1.670409 0.800257
v -4.490142 1.670398 0.798257
v -4.491017 1.670169 0.797177
v -4.492964 1.670182 0.799671
v -4.490142 1.670398 0.798257
v -4.493280 1.669995 0.798312
v -4.492964 1.670182 0.799671
v -4.491017 1.670169 0.797177
v -4.492414 1.669989 0.797202
v -4.493280 1.669995 0.798312
v -4.491017 1.670169 0.797177
vn 0.1285 -0.9861 0.1057
vn -0.6518 0.7309 -0.2026
vn 0.1347 0.7912 -0.5966
vn -0.3506 0.7288 -0.5881
vn -0.5420 0.7958 0.2700
vn 0.1347 0.7911 -0.5966
vn -0.6518 0.7309 -0.2025
vn -0.5421 0.7958 0.2699
vn 0.4386 0.8710 -0.2215
vn -0.1041 0.8747 0.4734
vn -0.1042 0.8747 0.4734
vn 0.3323 0.9081 0.2547
vn -0.0492 0.5001 0.8646
vn -0.7582 0.3725 0.5352
vn -0.1041 0.8747 0.4733
vn -0.7774 0.0044 0.6290
vn -0.9358 0.2673 -0.2297
vn -0.9718 -0.1106 -0.2082
vn -0.7774 0.0045 0.6290
vn -0.7582 0.3724 0.5351
vn -0.9358 0.2674 -0.2297
vn -0.6844 -0.3637 0.6319
vn -0.8676 -0.4720 -0.1568
vn -0.4483 0.2640 -0.8540
vn -0.4381 -0.1143 -0.8916
vn -0.8675 -0.4720 -0.1568
vn -0.3648 -0.4754 -0.8006
vn 0.3374 0.3649 -0.8678
vn 0.4219 -0.0038 -0.9066
vn -0.4482 0.2640 -0.8541
vn -0.3647 -0.4755 -0.8005
vn 0.4454 -0.3714 -0.8147
vn 0.8295 0.4941 -0.2605
vn 0.9605 0.1376 -0.2420
vn 0.8294 0.4941 -0.2605
vn 0.9528 -0.2381 -0.1885
vn 0.6574 0.5543 0.5104
vn 0.7722 0.2035 0.6020
vn 0.9528 -0.2382 -0.1885
vn 0.7754 -0.1761 0.6065
vn 0.9605 0.1376 -0.2419
vn 0.7721 0.2035 0.6020
vn -0.0013 0.1442 0.9895
vn 0.6574 0.5543 0.5105
vn -0.0491 0.5002 0.8645
vn 0.7753 -0.1761 0.6065
vn 0.0468 -0.2319 0.9716
vn -0.0013 0.1442 0.9896
vn -0.7582 0.3724 0.5352
vn -0.0013 0.1443 0.9895
vn 0.0467 -0.2320 0.9716
vn -0.6844 -0.3636 0.6319
vn 0.0370 -0.1542 0.9873
vn -0.6844 -0.3636 0.6320
vn -0.7127 -0.2893 0.6390
vn 0.0370 -0.1543 0.9873
vn 0.0467 -0.2319 0.9716
vn 0.9661 -0.1606 -0.2022
vn 0.7842 -0.0970 0.6129
vn 0.9527 -0.2382 -0.1885
vn -0.3849 -0.4039 -0.8299
vn 0.4458 -0.2973 -0.8443
vn -0.3849 -0.4040 -0.8299
vn -0.3647 -0.4755 -0.8006
vn -0.8676 -0.4720 -0.1567
vn -0.9005 -0.4005 -0.1697
vn 0.4458 -0.2972 -0.8444
vn 0.9527 -0.2382 -0.1886
vn 0.4458 -0.2972 -0.8443
vn -0.9005 -0.4004 -0.1697
vn 0.8295 0.4941 -0.2604
vn -0.7583 0.3724 0.5351
vn -0.5421 0.7958 0.2700
vn -0.6517 0.7309 -0.2025
vn 0.3374 0.3649 -0.8677
vn -0.3506 0.7288 -0.5882
vn -0.4482 0.2640 -0.8540
vn -0.0492 0.5002 0.8645
vn -0.7755 -0.0138 0.6313
vn -0.9699 -0.1289 -0.2064
vn -0.7755 -0.0138 0.6312
vn 0.7749 0.1854 0.6043
vn 0.0011 0.1261 0.9920
vn 0.7841 -0.0970 0.6130
vn 0.4245 -0.0221 -0.9051
vn 0.9634 0.1194 -0.2402
vn 0.4245 -0.0220 -0.9051
vn -0.4360 -0.1326 -0.8901
vn -0.3849 -0.4040 -0.8298
vn 0.0011 0.1260 0.9920
vn -0.7754 -0.0138 0.6313
vn 0.9634 0.1194 -0.2401
vn 0.7749 0.1854 0.6042
vn 0.9634 0.1195 -0.2401
vn -0.4359 -0.1326 -0.8901
vn 0.4245 -0.0221 -0.9052
vn -0.4360 -0.1326 -0.8902
vt 0.530319 0.635056
vt 0.522446 0.641335
vt 0.524872 0.636299
vt 0.524872 0.646370
vt 0.534683 0.638535
vt 0.530319 0.647614
vt 0.534683 0.644127
vt 0.508789 0.671494
vt 0.513626 0.669548
vt 0.511276 0.672157
vt 0.507889 0.669609
vt 0.511566 0.666756
vt 0.507935 0.667854
vt 0.509277 0.666748
vt 0.506302 0.666855
vt 0.505722 0.669838
vt 0.502487 0.669685
vt 0.506897 0.673050
vt 0.503479 0.674789
vt 0.497520 0.669067
vt 0.497810 0.676537
vt 0.510727 0.675606
vt 0.507721 0.680244
vt 0.501465 0.684982
vt 0.518890 0.674767
vt 0.518692 0.686485
vt 0.509125 0.696274
vt 0.518890 0.658051
vt 0.512238 0.663902
vt 0.511536 0.659698
vt 0.517990 0.665543
vt 0.515472 0.651657
vt 0.509323 0.655174
vt 0.508469 0.664742
vt 0.506836 0.661980
vt 0.504074 0.658463
vt 0.503784 0.665283
vt 0.499901 0.662933
vt 0.495453 0.660286
vt 0.491707 0.668175
vt 0.506927 0.651588
vt 0.501038 0.654999
vt 0.494583 0.688484
vt 0.500031 0.699394
vt 0.491287 0.678001
vt 0.512177 0.648293
vt 0.627350 0.642853
vt 0.649124 0.647896
vt 0.627441 0.648445
vt 0.649033 0.642670
vt 0.627441 0.631676
vt 0.649033 0.637444
vt 0.627350 0.637268
vt 0.649124 0.632225
vt 0.627914 0.620506
vt 0.649292 0.626999
vt 0.627625 0.626091
vt 0.649551 0.621780
vt 0.649292 0.653114
vt 0.627625 0.654030
vt 0.649551 0.658333
vt 0.627914 0.659607
s 0
usemtl decorations
f 240/1/1 239/2/1 238/3/1
f 237/1/1 236/4/1 235/2/1
f 234/5/1 233/4/1 232/1/1
f 231/5/1 230/6/1 229/4/1
f 228/6/1 227/5/1 226/7/1
s 1
f 225/8/2 224/9/3 223/10/4
f 222/11/5 221/9/6 220/8/7
f 219/11/8 218/12/9 217/9/3
f 216/13/10 215/12/9 214/11/8
f 213/12/9 212/13/11 211/14/12
f 210/15/13 209/11/8 208/16/14
f 207/15/13 206/13/15 205/11/8
f 204/17/16 203/18/17 202/19/18
f 201/17/19 200/16/20 199/18/21
f 198/20/22 197/19/18 196/21/23
f 195/20/22 194/17/16 193/19/18
f 192/19/18 191/22/24 190/23/25
f 189/19/18 188/18/17 187/22/24
f 186/21/26 185/23/25 184/24/27
f 183/21/26 3/19/18 182/23/25
f 181/23/25 180/25/28 179/26/29
f 178/23/25 177/22/30 176/25/28
f 175/24/31 174/26/29 173/27/32
f 172/24/31 4/23/25 171/26/29
f 170/28/29 169/29/33 168/30/34
f 167/28/29 166/31/28 165/29/35
f 164/32/32 163/30/34 162/33/36
f 161/32/32 13/28/29 160/30/34
f 159/30/34 158/34/37 157/35/38
f 156/30/34 155/29/33 154/34/37
f 153/33/39 152/35/38 151/36/40
f 150/33/39 14/30/41 149/35/38
f 148/35/42 147/15/13 146/37/43
f 145/35/42 144/34/44 143/15/45
f 142/36/46 141/37/43 140/38/47
f 139/36/46 16/35/38 138/37/43
f 137/37/48 136/16/49 135/17/16
f 134/37/50 133/15/13 132/16/14
f 131/38/51 130/17/16 129/20/52
f 128/38/51 36/37/43 25/17/16
f 127/39/53 126/20/54 125/40/55
f 124/39/56 123/38/57 122/20/54
f 121/41/58 120/36/40 119/42/59
f 118/41/58 117/33/60 116/36/40
f 115/43/61 114/27/32 113/44/62
f 112/43/63 111/24/64 110/27/32
f 109/40/55 108/21/65 107/45/66
f 106/40/55 40/20/22 105/21/65
f 104/42/59 103/38/47 102/39/56
f 101/42/59 41/36/46 42/38/47
f 100/46/67 99/33/68 98/41/58
f 97/46/69 37/32/32 38/33/68
f 96/45/70 95/24/27 94/43/63
f 93/45/70 33/21/23 34/24/27
f 92/29/33 91/14/12 90/34/37
f 89/29/71 88/12/9 87/14/12
f 86/22/30 85/9/3 84/25/28
f 83/22/30 82/10/4 81/9/3
f 80/16/72 79/8/7 78/18/21
f 29/16/72 30/11/73 77/8/74
f 76/31/75 75/12/9 28/29/35
f 31/31/75 26/9/3 27/12/9
f 74/18/17 73/10/76 24/22/77
f 21/18/17 22/8/74 23/10/4
f 72/34/44 71/13/10 20/15/78
f 17/34/44 18/14/12 19/13/10
f 70/47/79 69/48/70 68/49/80
f 67/47/81 66/50/55 65/48/70
f 64/51/82 63/52/53 62/53/83
f 61/51/82 60/54/84 59/52/56
f 58/55/85 57/56/58 56/57/86
f 55/55/87 54/58/62 53/56/58
f 52/49/80 51/59/61 50/60/88
f 2/49/80 32/48/70 49/59/89
f 48/53/90 47/50/55 12/47/91
f 9/53/83 10/52/53 11/50/55
f 46/57/92 45/54/84 8/51/93
f 5/57/94 6/56/58 7/54/59
f 44/60/95 43/61/67 15/62/96
f 1/60/97 35/59/89 39/61/67
