# Blender 5.0.0
# www.blender.org
mtllib Circle_002_Circle_004_Dupli_168_decorations_0.mtl
o Circle.002|Circle.004|Dupli|168_decorations_0
v -4.344842 0.835250 0.300704
v -4.343483 0.835309 0.301070
v -4.342311 0.841808 0.296828
v -4.344250 0.841724 0.296306
v -4.344822 0.833681 0.298709
v -4.344041 0.837986 0.295435
v -4.342766 0.837679 0.295317
v -4.343458 0.833352 0.298583
v -4.342373 0.833787 0.299369
v -4.341753 0.838085 0.296052
v -4.341763 0.838899 0.297087
v -4.342385 0.834658 0.300476
v -4.345100 0.840690 0.294807
v -4.344221 0.839485 0.293460
v -4.345438 0.834525 0.299653
v -4.342276 0.839017 0.293279
v -4.342183 0.840423 0.292710
v -4.342204 0.841600 0.292595
v -4.341382 0.841929 0.293191
v -4.340924 0.840927 0.293622
v -4.342212 0.842694 0.295597
v -4.342223 0.843082 0.294480
v -4.343252 0.843037 0.294202
v -4.343790 0.842625 0.295172
v -4.340744 0.840879 0.295980
v -4.343703 0.842488 0.293406
v -4.343237 0.841849 0.292691
v -4.343766 0.840804 0.292857
v -4.340937 0.841938 0.294907
v -4.341390 0.842589 0.294029
v -4.344481 0.841784 0.293952
v -4.342790 0.839508 0.297642
v -4.342572 0.840472 0.297490
v -4.344250 0.840399 0.297038
v -4.344060 0.839453 0.297300
v -4.340728 0.839637 0.294401
v -4.344985 0.839504 0.295741
v -4.344225 0.838461 0.294575
v -4.344617 0.838775 0.296318
v -4.341215 0.839668 0.296757
v -4.342541 0.838056 0.294419
v -4.341201 0.838593 0.295390
v -4.344617 0.838775 0.296318
v -4.344842 0.835250 0.300704
v -4.342766 0.837679 0.295317
v -4.344822 0.833681 0.298709
v -4.341763 0.838899 0.297087
v -4.342373 0.833787 0.299369
v -4.344060 0.839453 0.297300
v -4.344842 0.835250 0.300704
v -4.344060 0.839453 0.297300
v -4.343483 0.835309 0.301070
v -4.344041 0.837986 0.295435
v -4.344617 0.838775 0.296318
v -4.345438 0.834525 0.299653
v -4.344822 0.833681 0.298709
v -4.344041 0.837986 0.295435
v -4.345438 0.834525 0.299653
v -4.341753 0.838085 0.296052
v -4.342766 0.837679 0.295317
v -4.343458 0.833352 0.298583
v -4.342373 0.833787 0.299369
v -4.341753 0.838085 0.296052
v -4.343458 0.833352 0.298583
v -4.342790 0.839508 0.297642
v -4.341763 0.838899 0.297087
v -4.342385 0.834658 0.300476
v -4.343483 0.835309 0.301070
v -4.342790 0.839508 0.297642
v -4.342385 0.834658 0.300476
v -4.341382 0.841929 0.293191
v -4.342183 0.840423 0.292710
v -4.343252 0.843037 0.294202
v -4.342212 0.842694 0.295597
v -4.343237 0.841849 0.292691
v -4.344481 0.841784 0.293952
v -4.342223 0.843082 0.294480
v -4.342212 0.842694 0.295597
v -4.342223 0.843082 0.294480
v -4.340937 0.841938 0.294907
v -4.343703 0.842488 0.293406
v -4.343252 0.843037 0.294202
v -4.343790 0.842625 0.295172
v -4.344481 0.841784 0.293952
v -4.343703 0.842488 0.293406
v -4.343790 0.842625 0.295172
v -4.342204 0.841600 0.292595
v -4.343237 0.841849 0.292691
v -4.343766 0.840804 0.292857
v -4.342183 0.840423 0.292710
v -4.342204 0.841600 0.292595
v -4.343766 0.840804 0.292857
v -4.342790 0.839508 0.297642
v -4.344060 0.839453 0.297300
v -4.344250 0.840399 0.297038
v -4.342790 0.839508 0.297642
v -4.344617 0.838775 0.296318
v -4.344041 0.837986 0.295435
v -4.344225 0.838461 0.294575
v -4.344617 0.838775 0.296318
v -4.342766 0.837679 0.295317
v -4.341753 0.838085 0.296052
v -4.341201 0.838593 0.295390
v -4.342766 0.837679 0.295317
v -4.342572 0.840472 0.297490
v -4.341763 0.838899 0.297087
v -4.342790 0.839508 0.297642
v -4.342572 0.840472 0.297490
v -4.341763 0.838899 0.297087
v -4.344985 0.839504 0.295741
v -4.344250 0.840399 0.297038
v -4.344060 0.839453 0.297300
v -4.344617 0.838775 0.296318
v -4.344985 0.839504 0.295741
v -4.344060 0.839453 0.297300
v -4.342541 0.838056 0.294419
v -4.344225 0.838461 0.294575
v -4.344041 0.837986 0.295435
v -4.342766 0.837679 0.295317
v -4.342541 0.838056 0.294419
v -4.344041 0.837986 0.295435
v -4.341215 0.839668 0.296757
v -4.341201 0.838593 0.295390
v -4.341753 0.838085 0.296052
v -4.341763 0.838899 0.297087
v -4.341215 0.839668 0.296757
v -4.341753 0.838085 0.296052
v -4.341201 0.838593 0.295390
v -4.341215 0.839668 0.296757
v -4.340744 0.840879 0.295980
v -4.341201 0.838593 0.295390
v -4.340937 0.841938 0.294907
v -4.340924 0.840927 0.293622
v -4.340728 0.839637 0.294401
v -4.340744 0.840879 0.295980
v -4.340937 0.841938 0.294907
v -4.340728 0.839637 0.294401
v -4.340728 0.839637 0.294401
v -4.342541 0.838056 0.294419
v -4.341201 0.838593 0.295390
v -4.340728 0.839637 0.294401
v -4.342541 0.838056 0.294419
v -4.340924 0.840927 0.293622
v -4.342183 0.840423 0.292710
v -4.342276 0.839017 0.293279
v -4.340728 0.839637 0.294401
v -4.340924 0.840927 0.293622
v -4.342276 0.839017 0.293279
v -4.342276 0.839017 0.293279
v -4.344225 0.838461 0.294575
v -4.342541 0.838056 0.294419
v -4.342276 0.839017 0.293279
v -4.344225 0.838461 0.294575
v -4.342183 0.840423 0.292710
v -4.343766 0.840804 0.292857
v -4.344221 0.839485 0.293460
v -4.342276 0.839017 0.293279
v -4.342183 0.840423 0.292710
v -4.344221 0.839485 0.293460
v -4.344221 0.839485 0.293460
v -4.344985 0.839504 0.295741
v -4.344225 0.838461 0.294575
v -4.344221 0.839485 0.293460
v -4.344985 0.839504 0.295741
v -4.343766 0.840804 0.292857
v -4.344481 0.841784 0.293952
v -4.345100 0.840690 0.294807
v -4.344221 0.839485 0.293460
v -4.343766 0.840804 0.292857
v -4.345100 0.840690 0.294807
v -4.345100 0.840690 0.294807
v -4.344250 0.840399 0.297038
v -4.344985 0.839504 0.295741
v -4.345100 0.840690 0.294807
v -4.344250 0.840399 0.297038
v -4.344481 0.841784 0.293952
v -4.343790 0.842625 0.295172
v -4.344250 0.841724 0.296306
v -4.345100 0.840690 0.294807
v -4.344481 0.841784 0.293952
v -4.344250 0.841724 0.296306
v -4.344250 0.841724 0.296306
v -4.342572 0.840472 0.297490
v -4.344250 0.840399 0.297038
v -4.344250 0.841724 0.296306
v -4.342572 0.840472 0.297490
v -4.343790 0.842625 0.295172
v -4.342212 0.842694 0.295597
v -4.342311 0.841808 0.296828
v -4.344250 0.841724 0.296306
v -4.343790 0.842625 0.295172
v -4.342311 0.841808 0.296828
v -4.342311 0.841808 0.296828
v -4.340744 0.840879 0.295980
v -4.341215 0.839668 0.296757
v -4.342572 0.840472 0.297490
v -4.342311 0.841808 0.296828
v -4.341215 0.839668 0.296757
v -4.342212 0.842694 0.295597
v -4.340937 0.841938 0.294907
v -4.340744 0.840879 0.295980
v -4.342311 0.841808 0.296828
v -4.342212 0.842694 0.295597
v -4.340744 0.840879 0.295980
v -4.341390 0.842589 0.294029
v -4.341382 0.841929 0.293191
v -4.340924 0.840927 0.293622
v -4.340937 0.841938 0.294907
v -4.341390 0.842589 0.294029
v -4.340924 0.840927 0.293622
v -4.342204 0.841600 0.292595
v -4.341382 0.841929 0.293191
v -4.343237 0.841849 0.292691
v -4.341390 0.842589 0.294029
v -4.343237 0.841849 0.292691
v -4.341382 0.841929 0.293191
v -4.343703 0.842488 0.293406
v -4.343237 0.841849 0.292691
v -4.341390 0.842589 0.294029
v -4.342223 0.843082 0.294480
v -4.343703 0.842488 0.293406
v -4.341390 0.842589 0.294029
v -4.343252 0.843037 0.294202
v -4.343703 0.842488 0.293406
v -4.342223 0.843082 0.294480
v -4.343458 0.833352 0.298583
v -4.344822 0.833681 0.298709
v -4.342373 0.833787 0.299369
v -4.342385 0.834658 0.300476
v -4.342373 0.833787 0.299369
v -4.344822 0.833681 0.298709
v -4.345438 0.834525 0.299653
v -4.342385 0.834658 0.300476
v -4.344822 0.833681 0.298709
v -4.343483 0.835309 0.301070
v -4.342385 0.834658 0.300476
v -4.345438 0.834525 0.299653
v -4.344842 0.835250 0.300704
v -4.343483 0.835309 0.301070
v -4.345438 0.834525 0.299653
vn -0.1310 -0.7798 0.6121
vn 0.2282 0.9716 -0.0625
vn -0.4508 0.6993 -0.5547
vn -0.2438 0.9511 -0.1897
vn 0.6099 0.7454 -0.2690
vn 0.6099 0.7455 -0.2689
vn -0.2368 0.4059 -0.8827
vn 0.6138 0.4429 -0.6535
vn -0.2368 0.4060 -0.8827
vn 0.2370 0.2918 -0.9266
vn 0.8720 -0.0073 -0.4894
vn 0.8657 0.4825 0.1331
vn 0.6099 0.7455 -0.2690
vn 0.8940 0.2092 0.3962
vn 0.2478 0.8486 0.4674
vn 0.2177 0.6100 0.7619
vn 0.8941 0.2092 0.3961
vn 0.8657 0.4825 0.1332
vn 0.7933 -0.0938 0.6015
vn 0.2176 0.6100 0.7619
vn 0.1562 0.2838 0.9461
vn 0.7934 -0.0938 0.6015
vn -0.5164 0.8154 0.2615
vn -0.6189 0.5737 0.5366
vn 0.1561 0.2838 0.9461
vn -0.6188 0.5737 0.5366
vn -0.6319 0.2496 0.7338
vn -0.8516 0.4078 -0.3294
vn -0.9857 0.1275 -0.1103
vn -0.5165 0.8154 0.2615
vn -0.8515 0.4079 -0.3294
vn -0.6319 0.2495 0.7338
vn -0.9774 -0.1707 0.1244
vn -0.6189 0.5736 0.5366
vn -0.5051 -0.0672 -0.8604
vn -0.6065 -0.3924 -0.6915
vn -0.5051 -0.0671 -0.8604
vn -0.9774 -0.1708 0.1244
vn -0.6202 -0.6605 -0.4231
vn -0.6065 -0.3923 -0.6915
vn 0.2619 -0.2519 -0.9317
vn 0.2331 -0.5947 -0.7694
vn 0.2619 -0.2519 -0.9316
vn -0.6202 -0.6606 -0.4231
vn 0.1708 -0.8510 -0.4966
vn 0.2332 -0.5947 -0.7694
vn 0.9009 -0.3269 -0.2854
vn 0.8720 -0.0073 -0.4895
vn 0.1708 -0.8511 -0.4965
vn 0.7999 -0.5988 -0.0406
vn 0.9010 -0.3269 -0.2853
vn 0.8940 0.2092 0.3961
vn 0.7998 -0.5988 -0.0405
vn 0.8313 -0.5479 -0.0934
vn 0.8246 -0.0301 0.5649
vn -0.6249 -0.6112 -0.4858
vn 0.1707 -0.8510 -0.4966
vn 0.1862 -0.8066 -0.5610
vn -0.6369 0.3220 0.7005
vn -0.9912 -0.1090 0.0757
vn 0.8246 -0.0300 0.5649
vn 0.1713 0.3570 0.9183
vn 0.1862 -0.8066 -0.5611
vn 0.1708 -0.8510 -0.4965
vn -0.6203 -0.6605 -0.4231
vn -0.6249 -0.6112 -0.4857
vn 0.1712 0.3571 0.9182
vn -0.6369 0.3219 0.7005
vn 0.1713 0.3571 0.9182
vn -0.5165 0.8154 0.2614
vn -0.4508 0.6994 -0.5547
vn 0.8657 0.4825 0.1333
vn -0.8515 0.4079 -0.3295
vn 0.2282 0.9716 -0.0626
vn 0.2620 -0.2519 -0.9316
vn 0.8921 0.1949 0.4077
vn 0.2154 0.5959 0.7736
vn 0.8921 0.1949 0.4076
vn 0.2309 -0.6094 -0.7585
vn 0.8313 -0.5479 -0.0935
vn 0.8990 -0.3415 -0.2743
vn -0.9886 0.1131 -0.0991
vn -0.6248 -0.6112 -0.4858
vn -0.6093 -0.4070 -0.6805
vn -0.9886 0.1132 -0.0991
vn 0.2153 0.5959 0.7737
vn -0.6368 0.3220 0.7005
vn -0.6216 0.5595 0.5482
vn 0.2153 0.5959 0.7736
vn -0.6368 0.3220 0.7006
vn 0.8990 -0.3415 -0.2742
vn -0.6093 -0.4070 -0.6806
vn -0.9912 -0.1089 0.0757
vn -0.9886 0.1132 -0.0990
vn -0.6216 0.5596 0.5482
vt 0.530319 0.635056
vt 0.522446 0.641335
vt 0.524872 0.636299
vt 0.524872 0.646370
vt 0.534683 0.638535
vt 0.530319 0.647614
vt 0.534683 0.644127
vt 0.508789 0.671494
vt 0.513626 0.669548
vt 0.511276 0.672157
vt 0.507889 0.669609
vt 0.511566 0.666756
vt 0.507935 0.667854
vt 0.509277 0.666748
vt 0.506302 0.666855
vt 0.505722 0.669838
vt 0.502487 0.669685
vt 0.506897 0.673050
vt 0.503479 0.674789
vt 0.497520 0.669067
vt 0.497810 0.676537
vt 0.510727 0.675606
vt 0.507721 0.680244
vt 0.501465 0.684982
vt 0.518890 0.674767
vt 0.518692 0.686485
vt 0.509125 0.696274
vt 0.518890 0.658051
vt 0.512238 0.663902
vt 0.511536 0.659698
vt 0.517990 0.665543
vt 0.515472 0.651657
vt 0.509323 0.655174
vt 0.508469 0.664742
vt 0.506836 0.661980
vt 0.504074 0.658463
vt 0.503784 0.665283
vt 0.499901 0.662933
vt 0.495453 0.660286
vt 0.491707 0.668175
vt 0.506927 0.651588
vt 0.501038 0.654999
vt 0.494583 0.688484
vt 0.500031 0.699394
vt 0.491287 0.678001
vt 0.512177 0.648293
vt 0.627350 0.642853
vt 0.649124 0.647896
vt 0.627441 0.648445
vt 0.649033 0.642670
vt 0.627441 0.631676
vt 0.649033 0.637444
vt 0.627350 0.637268
vt 0.649124 0.632225
vt 0.627914 0.620506
vt 0.649292 0.626999
vt 0.627625 0.626091
vt 0.649551 0.621780
vt 0.649292 0.653114
vt 0.627625 0.654030
vt 0.649551 0.658333
vt 0.627914 0.659607
s 0
usemtl decorations
f 240/1/1 239/2/1 238/3/1
f 237/1/1 236/4/1 235/2/1
f 234/5/1 233/4/1 232/1/1
f 231/5/1 230/6/1 229/4/1
f 228/6/1 227/5/1 226/7/1
s 1
f 225/8/2 224/9/3 223/10/4
f 222/11/5 221/9/3 220/8/2
f 219/11/6 218/12/7 217/9/3
f 216/13/8 215/12/9 214/11/6
f 213/12/7 212/13/8 211/14/10
f 210/15/11 209/11/6 208/16/12
f 207/15/11 206/13/8 205/11/13
f 204/17/14 203/18/15 202/19/16
f 201/17/17 200/16/18 199/18/15
f 198/20/19 197/19/20 196/21/21
f 195/20/22 194/17/17 193/19/16
f 192/19/16 191/22/23 190/23/24
f 189/19/16 188/18/15 187/22/23
f 186/21/25 185/23/26 184/24/27
f 183/21/25 3/19/16 182/23/26
f 181/23/24 180/25/28 179/26/29
f 178/23/24 177/22/30 176/25/31
f 175/24/32 174/26/29 173/27/33
f 172/24/32 4/23/34 171/26/29
f 170/28/29 169/29/35 168/30/36
f 167/28/29 166/31/28 165/29/37
f 164/32/38 163/30/36 162/33/39
f 161/32/38 13/28/29 160/30/40
f 159/30/36 158/34/41 157/35/42
f 156/30/36 155/29/35 154/34/43
f 153/33/44 152/35/42 151/36/45
f 150/33/44 14/30/36 149/35/42
f 148/35/46 147/15/11 146/37/47
f 145/35/46 144/34/43 143/15/48
f 142/36/49 141/37/47 140/38/50
f 139/36/49 16/35/46 138/37/47
f 137/37/51 136/16/18 135/17/52
f 134/37/47 133/15/11 132/16/12
f 131/38/53 130/17/52 129/20/22
f 128/38/53 36/37/47 25/17/52
f 127/39/54 126/20/22 125/40/55
f 124/39/54 123/38/50 122/20/22
f 121/41/56 120/36/57 119/42/58
f 118/41/56 117/33/44 116/36/57
f 115/43/59 114/27/33 113/44/60
f 112/43/59 111/24/32 110/27/33
f 109/40/61 108/21/21 107/45/62
f 106/40/55 40/20/22 105/21/21
f 104/42/63 103/38/50 102/39/54
f 101/42/58 41/36/64 42/38/50
f 100/46/60 99/33/65 98/41/66
f 97/46/60 37/32/38 38/33/65
f 96/45/67 95/24/32 94/43/68
f 93/45/69 33/21/21 34/24/32
f 92/29/35 91/14/10 90/34/43
f 89/29/35 88/12/9 87/14/10
f 86/22/70 85/9/3 84/25/31
f 83/22/30 82/10/4 81/9/71
f 80/16/18 79/8/2 78/18/15
f 29/16/72 30/11/5 77/8/2
f 76/31/73 75/12/9 28/29/37
f 31/31/73 26/9/71 27/12/9
f 74/18/15 73/10/4 24/22/23
f 21/18/15 22/8/74 23/10/4
f 72/34/43 71/13/8 20/15/11
f 17/34/75 18/14/10 19/13/8
f 70/47/76 69/48/69 68/49/77
f 67/47/78 66/50/55 65/48/69
f 64/51/79 63/52/80 62/53/81
f 61/51/79 60/54/58 59/52/54
f 58/55/82 57/56/83 56/57/84
f 55/55/85 54/58/60 53/56/66
f 52/49/86 51/59/87 50/60/88
f 2/49/89 32/48/69 49/59/90
f 48/53/91 47/50/61 12/47/78
f 9/53/91 10/52/54 11/50/55
f 46/57/84 45/54/58 8/51/79
f 5/57/92 6/56/83 7/54/58
f 44/60/88 43/61/93 15/62/94
f 1/60/95 35/59/90 39/61/93
