# Blender 5.0.0
# www.blender.org
mtllib Circle_002_Circle_003_Dupli_117_decorations_0.mtl
o Circle.002|Circle.003|Dupli|117_decorations_0
v -4.452296 0.584083 0.314975
v -4.451348 0.583948 0.313943
v -4.451504 0.591638 0.312381
v -4.452858 0.591831 0.313853
v -4.454487 0.583576 0.313798
v -4.454953 0.588879 0.312561
v -4.454572 0.588636 0.311325
v -4.454079 0.583316 0.312475
v -4.452777 0.583333 0.311938
v -4.453354 0.588651 0.310823
v -4.452218 0.588914 0.311434
v -4.451561 0.583614 0.312591
v -4.454851 0.591595 0.313761
v -4.455983 0.591109 0.312174
v -4.453693 0.583918 0.314910
v -4.455401 0.590737 0.310287
v -4.455237 0.592247 0.310239
v -4.454862 0.593351 0.310440
v -4.453875 0.593363 0.310034
v -4.453726 0.592266 0.309616
v -4.452066 0.592980 0.311943
v -4.452792 0.593829 0.311552
v -4.453511 0.593932 0.312334
v -4.453168 0.593137 0.313141
v -4.451809 0.591162 0.310453
v -4.454569 0.593807 0.312285
v -4.455171 0.593548 0.311442
v -4.455711 0.592550 0.311775
v -4.452315 0.592593 0.310374
v -4.452954 0.593576 0.310528
v -4.454790 0.592946 0.313066
v -4.452018 0.589226 0.312697
v -4.451646 0.590151 0.312630
v -4.452817 0.590318 0.313904
v -4.452905 0.589352 0.313662
v -4.453544 0.590761 0.309521
v -4.454543 0.590114 0.313824
v -4.455523 0.589693 0.312450
v -4.454211 0.589198 0.313601
v -4.451910 0.589739 0.310961
v -4.455019 0.589371 0.310817
v -4.453411 0.589392 0.310154
v -4.454211 0.589198 0.313601
v -4.452296 0.584083 0.314975
v -4.454572 0.588636 0.311325
v -4.454487 0.583576 0.313798
v -4.452218 0.588914 0.311434
v -4.452777 0.583333 0.311938
v -4.452905 0.589352 0.313662
v -4.452296 0.584083 0.314975
v -4.452905 0.589352 0.313662
v -4.451348 0.583948 0.313943
v -4.454953 0.588879 0.312561
v -4.454211 0.589198 0.313601
v -4.453693 0.583918 0.314910
v -4.454487 0.583576 0.313798
v -4.454953 0.588879 0.312561
v -4.453693 0.583918 0.314910
v -4.453354 0.588651 0.310823
v -4.454572 0.588636 0.311325
v -4.454079 0.583316 0.312475
v -4.452777 0.583333 0.311938
v -4.453354 0.588651 0.310823
v -4.454079 0.583316 0.312475
v -4.452018 0.589226 0.312697
v -4.452218 0.588914 0.311434
v -4.451561 0.583614 0.312591
v -4.451348 0.583948 0.313943
v -4.452018 0.589226 0.312697
v -4.451561 0.583614 0.312591
v -4.453875 0.593363 0.310034
v -4.455237 0.592247 0.310239
v -4.453511 0.593932 0.312334
v -4.452066 0.592980 0.311943
v -4.455171 0.593548 0.311442
v -4.454790 0.592946 0.313066
v -4.452792 0.593829 0.311552
v -4.452066 0.592980 0.311943
v -4.452792 0.593829 0.311552
v -4.452315 0.592593 0.310374
v -4.454569 0.593807 0.312285
v -4.453511 0.593932 0.312334
v -4.453168 0.593137 0.313141
v -4.454790 0.592946 0.313066
v -4.454569 0.593807 0.312285
v -4.453168 0.593137 0.313141
v -4.454862 0.593351 0.310440
v -4.455171 0.593548 0.311442
v -4.455711 0.592550 0.311775
v -4.455237 0.592247 0.310239
v -4.454862 0.593351 0.310440
v -4.455711 0.592550 0.311775
v -4.452018 0.589226 0.312697
v -4.452905 0.589352 0.313662
v -4.452817 0.590318 0.313904
v -4.452018 0.589226 0.312697
v -4.454211 0.589198 0.313601
v -4.454953 0.588879 0.312561
v -4.455523 0.589693 0.312450
v -4.454211 0.589198 0.313601
v -4.454572 0.588636 0.311325
v -4.453354 0.588651 0.310823
v -4.453411 0.589392 0.310154
v -4.454572 0.588636 0.311325
v -4.451646 0.590151 0.312630
v -4.452218 0.588914 0.311434
v -4.452018 0.589226 0.312697
v -4.451646 0.590151 0.312630
v -4.452218 0.588914 0.311434
v -4.454543 0.590114 0.313824
v -4.452817 0.590318 0.313904
v -4.452905 0.589352 0.313662
v -4.454211 0.589198 0.313601
v -4.454543 0.590114 0.313824
v -4.452905 0.589352 0.313662
v -4.455019 0.589371 0.310817
v -4.455523 0.589693 0.312450
v -4.454953 0.588879 0.312561
v -4.454572 0.588636 0.311325
v -4.455019 0.589371 0.310817
v -4.454953 0.588879 0.312561
v -4.451910 0.589739 0.310961
v -4.453411 0.589392 0.310154
v -4.453354 0.588651 0.310823
v -4.452218 0.588914 0.311434
v -4.451910 0.589739 0.310961
v -4.453354 0.588651 0.310823
v -4.453411 0.589392 0.310154
v -4.451910 0.589739 0.310961
v -4.451809 0.591162 0.310453
v -4.453411 0.589392 0.310154
v -4.452315 0.592593 0.310374
v -4.453726 0.592266 0.309616
v -4.453544 0.590761 0.309521
v -4.451809 0.591162 0.310453
v -4.452315 0.592593 0.310374
v -4.453544 0.590761 0.309521
v -4.453544 0.590761 0.309521
v -4.455019 0.589371 0.310817
v -4.453411 0.589392 0.310154
v -4.453544 0.590761 0.309521
v -4.455019 0.589371 0.310817
v -4.453726 0.592266 0.309616
v -4.455237 0.592247 0.310239
v -4.455401 0.590737 0.310287
v -4.453544 0.590761 0.309521
v -4.453726 0.592266 0.309616
v -4.455401 0.590737 0.310287
v -4.455401 0.590737 0.310287
v -4.455523 0.589693 0.312450
v -4.455019 0.589371 0.310817
v -4.455401 0.590737 0.310287
v -4.455523 0.589693 0.312450
v -4.455237 0.592247 0.310239
v -4.455711 0.592550 0.311775
v -4.455983 0.591109 0.312174
v -4.455401 0.590737 0.310287
v -4.455237 0.592247 0.310239
v -4.455983 0.591109 0.312174
v -4.455983 0.591109 0.312174
v -4.454543 0.590114 0.313824
v -4.455523 0.589693 0.312450
v -4.455983 0.591109 0.312174
v -4.454543 0.590114 0.313824
v -4.455711 0.592550 0.311775
v -4.454790 0.592946 0.313066
v -4.454851 0.591595 0.313761
v -4.455983 0.591109 0.312174
v -4.455711 0.592550 0.311775
v -4.454851 0.591595 0.313761
v -4.454851 0.591595 0.313761
v -4.452817 0.590318 0.313904
v -4.454543 0.590114 0.313824
v -4.454851 0.591595 0.313761
v -4.452817 0.590318 0.313904
v -4.454790 0.592946 0.313066
v -4.453168 0.593137 0.313141
v -4.452858 0.591831 0.313853
v -4.454851 0.591595 0.313761
v -4.454790 0.592946 0.313066
v -4.452858 0.591831 0.313853
v -4.452858 0.591831 0.313853
v -4.451646 0.590151 0.312630
v -4.452817 0.590318 0.313904
v -4.452858 0.591831 0.313853
v -4.451646 0.590151 0.312630
v -4.453168 0.593137 0.313141
v -4.452066 0.592980 0.311943
v -4.451504 0.591638 0.312381
v -4.452858 0.591831 0.313853
v -4.453168 0.593137 0.313141
v -4.451504 0.591638 0.312381
v -4.451504 0.591638 0.312381
v -4.451809 0.591162 0.310453
v -4.451910 0.589739 0.310961
v -4.451646 0.590151 0.312630
v -4.451504 0.591638 0.312381
v -4.451910 0.589739 0.310961
v -4.452066 0.592980 0.311943
v -4.452315 0.592593 0.310374
v -4.451809 0.591162 0.310453
v -4.451504 0.591638 0.312381
v -4.452066 0.592980 0.311943
v -4.451809 0.591162 0.310453
v -4.452954 0.593576 0.310528
v -4.453875 0.593363 0.310034
v -4.453726 0.592266 0.309616
v -4.452315 0.592593 0.310374
v -4.452954 0.593576 0.310528
v -4.453726 0.592266 0.309616
v -4.454862 0.593351 0.310440
v -4.453875 0.593363 0.310034
v -4.455171 0.593548 0.311442
v -4.452954 0.593576 0.310528
v -4.455171 0.593548 0.311442
v -4.453875 0.593363 0.310034
v -4.454569 0.593807 0.312285
v -4.455171 0.593548 0.311442
v -4.452954 0.593576 0.310528
v -4.452792 0.593829 0.311552
v -4.454569 0.593807 0.312285
v -4.452954 0.593576 0.310528
v -4.453511 0.593932 0.312334
v -4.454569 0.593807 0.312285
v -4.452792 0.593829 0.311552
v -4.454079 0.583316 0.312475
v -4.454487 0.583576 0.313798
v -4.452777 0.583333 0.311938
v -4.451561 0.583614 0.312591
v -4.452777 0.583333 0.311938
v -4.454487 0.583576 0.313798
v -4.453693 0.583918 0.314910
v -4.451561 0.583614 0.312591
v -4.454487 0.583576 0.313798
v -4.451348 0.583948 0.313943
v -4.451561 0.583614 0.312591
v -4.453693 0.583918 0.314910
v -4.452296 0.584083 0.314975
v -4.451348 0.583948 0.313943
v -4.453693 0.583918 0.314910
vn 0.1043 -0.9692 0.2229
vn 0.4504 0.8921 -0.0367
vn -0.3648 0.8817 0.2994
vn 0.1208 0.9391 0.3218
vn 0.3760 0.7761 -0.5063
vn -0.3647 0.8817 0.2994
vn 0.3761 0.7761 -0.5062
vn -0.6404 0.7631 -0.0872
vn -0.0463 0.6784 -0.7332
vn -0.6404 0.7631 -0.0871
vn -0.4986 0.6727 -0.5467
vn 0.0219 0.1980 -0.9799
vn 0.7057 0.3562 -0.6125
vn 0.0219 0.1980 -0.9800
vn -0.0463 0.6785 -0.7332
vn 0.3760 0.7761 -0.5062
vn 0.8151 -0.0066 -0.5793
vn 0.8261 0.5439 0.1476
vn 0.9468 0.1990 0.2527
vn 0.8151 -0.0065 -0.5793
vn 0.7057 0.3561 -0.6125
vn 0.8260 0.5440 0.1476
vn 0.8067 -0.3677 -0.4626
vn 0.9468 0.1990 0.2528
vn 0.9309 -0.1740 0.3213
vn 0.9468 0.1991 0.2527
vn 0.2923 0.6201 0.7281
vn 0.3626 0.2823 0.8881
vn 0.8260 0.5439 0.1477
vn 0.9308 -0.1740 0.3213
vn 0.3627 0.2824 0.8881
vn 0.3805 -0.0955 0.9198
vn -0.4936 0.5271 0.6918
vn -0.4976 0.1806 0.8484
vn 0.2923 0.6200 0.7281
vn -0.4935 0.5271 0.6918
vn 0.3805 -0.0956 0.9198
vn -0.4299 -0.1914 0.8824
vn -0.4977 0.1806 0.8484
vn -0.9399 0.3351 0.0660
vn -0.9861 -0.0295 0.1634
vn -0.9398 0.3352 0.0660
vn -0.4299 -0.1914 0.8823
vn -0.9861 -0.0295 0.1635
vn -0.8901 -0.3893 0.2371
vn -0.9861 -0.0294 0.1635
vn -0.7105 0.1888 -0.6779
vn -0.7350 -0.1898 -0.6510
vn -0.6535 -0.5403 -0.5301
vn 0.0666 -0.1796 -0.9815
vn -0.7104 0.1887 -0.6780
vn 0.0218 0.1981 -0.9799
vn 0.1016 -0.5307 -0.8415
vn 0.0667 -0.1796 -0.9815
vn 0.0666 -0.1795 -0.9815
vn 0.7056 0.3562 -0.6125
vn 0.1016 -0.5307 -0.8414
vn 0.8068 -0.3676 -0.4626
vn 0.0954 -0.4620 -0.8817
vn 0.8184 -0.2949 -0.4932
vn -0.9215 -0.3170 0.2242
vn -0.6789 -0.4719 -0.5624
vn -0.8900 -0.3893 0.2371
vn 0.3813 -0.0158 0.9243
vn -0.4497 -0.1141 0.8859
vn 0.8184 -0.2948 -0.4932
vn 0.9457 -0.0963 0.3105
vn -0.6790 -0.4719 -0.5625
vn -0.6790 -0.4719 -0.5624
vn -0.8901 -0.3893 0.2372
vn -0.9215 -0.3171 0.2242
vn -0.4496 -0.1141 0.8859
vn 0.3813 -0.0159 0.9243
vn -0.7105 0.1887 -0.6780
vn -0.6403 0.7631 -0.0871
vn -0.4986 0.6726 -0.5467
vn -0.3647 0.8817 0.2993
vn -0.4936 0.5271 0.6917
vn 0.1207 0.9391 0.3218
vn 0.8261 0.5439 0.1477
vn -0.7104 0.1888 -0.6780
vn 0.0219 0.1981 -0.9799
vn 0.8175 -0.0245 -0.5755
vn 0.9493 0.1812 0.2570
vn 0.8175 -0.0244 -0.5755
vn -0.7334 -0.2078 -0.6472
vn 0.0685 -0.1976 -0.9779
vn -0.6789 -0.4719 -0.5625
vn -0.4960 0.1628 0.8529
vn -0.9847 -0.0474 0.1677
vn 0.3648 0.2645 0.8927
vn 0.9493 0.1813 0.2570
vn 0.3814 -0.0158 0.9243
vn 0.0686 -0.1976 -0.9779
vn 0.8174 -0.0245 -0.5755
vn -0.7335 -0.2078 -0.6472
vn -0.9847 -0.0474 0.1676
vn -0.4496 -0.1140 0.8859
vn 0.3648 0.2646 0.8927
vt 0.530319 0.611839
vt 0.522446 0.618118
vt 0.524872 0.613083
vt 0.524872 0.623154
vt 0.534683 0.615326
vt 0.530319 0.624397
vt 0.534683 0.620918
vt 0.537079 0.671494
vt 0.541916 0.669548
vt 0.539566 0.672157
vt 0.536179 0.669609
vt 0.539856 0.666756
vt 0.536224 0.667854
vt 0.537567 0.666748
vt 0.534592 0.666855
vt 0.534012 0.669838
vt 0.530777 0.669685
vt 0.535187 0.673050
vt 0.531769 0.674789
vt 0.525803 0.669067
vt 0.526108 0.676537
vt 0.539017 0.675606
vt 0.536011 0.680244
vt 0.529755 0.684982
vt 0.547180 0.674767
vt 0.546982 0.686485
vt 0.537415 0.696274
vt 0.547180 0.658051
vt 0.540527 0.663902
vt 0.539825 0.659698
vt 0.546280 0.665543
vt 0.543762 0.651657
vt 0.537613 0.655174
vt 0.536758 0.664742
vt 0.535126 0.661980
vt 0.532364 0.658463
vt 0.532074 0.665283
vt 0.528198 0.662933
vt 0.523743 0.660286
vt 0.519989 0.668175
vt 0.535217 0.651588
vt 0.529327 0.654999
vt 0.522873 0.688484
vt 0.528320 0.699394
vt 0.519577 0.678001
vt 0.540466 0.648293
vt 0.604446 0.642853
vt 0.626221 0.647896
vt 0.604553 0.648445
vt 0.626144 0.642670
vt 0.604553 0.631676
vt 0.626144 0.637444
vt 0.604446 0.637268
vt 0.626221 0.632225
vt 0.605011 0.620506
vt 0.626404 0.626999
vt 0.604736 0.626091
vt 0.626663 0.621780
vt 0.626404 0.653114
vt 0.604736 0.654030
vt 0.626663 0.658333
vt 0.605011 0.659607
s 0
usemtl decorations
f 240/1/1 239/2/1 238/3/1
f 237/1/1 236/4/1 235/2/1
f 234/5/1 233/4/1 232/1/1
f 231/5/1 230/6/1 229/4/1
f 228/6/1 227/5/1 226/7/1
s 1
f 225/8/2 224/9/3 223/10/4
f 222/11/5 221/9/6 220/8/2
f 219/11/7 218/12/8 217/9/3
f 216/13/9 215/12/10 214/11/7
f 213/12/8 212/13/9 211/14/11
f 210/15/12 209/11/7 208/16/13
f 207/15/14 206/13/15 205/11/16
f 204/17/17 203/18/18 202/19/19
f 201/17/20 200/16/21 199/18/22
f 198/20/23 197/19/24 196/21/25
f 195/20/23 194/17/20 193/19/26
f 192/19/19 191/22/27 190/23/28
f 189/19/19 188/18/29 187/22/27
f 186/21/30 185/23/31 184/24/32
f 183/21/30 3/19/24 182/23/31
f 181/23/28 180/25/33 179/26/34
f 178/23/28 177/22/35 176/25/36
f 175/24/37 174/26/34 173/27/38
f 172/24/37 4/23/28 171/26/34
f 170/28/39 169/29/40 168/30/41
f 167/28/39 166/31/33 165/29/42
f 164/32/43 163/30/44 162/33/45
f 161/32/43 13/28/34 160/30/46
f 159/30/41 158/34/47 157/35/48
f 156/30/41 155/29/40 154/34/47
f 153/33/45 152/35/48 151/36/49
f 150/33/45 14/30/41 149/35/48
f 148/35/48 147/15/14 146/37/50
f 145/35/48 144/34/51 143/15/52
f 142/36/49 141/37/50 140/38/53
f 139/36/49 16/35/48 138/37/50
f 137/37/54 136/16/21 135/17/20
f 134/37/55 133/15/12 132/16/56
f 131/38/57 130/17/20 129/20/58
f 128/38/57 36/37/50 25/17/20
f 127/39/59 126/20/23 125/40/60
f 124/39/59 123/38/53 122/20/23
f 121/41/61 120/36/49 119/42/62
f 118/41/61 117/33/63 116/36/49
f 115/43/64 114/27/38 113/44/65
f 112/43/64 111/24/37 110/27/38
f 109/40/66 108/21/25 107/45/67
f 106/40/66 40/20/23 105/21/25
f 104/42/68 103/38/53 102/39/59
f 101/42/69 41/36/49 42/38/53
f 100/46/65 99/33/70 98/41/71
f 97/46/72 37/32/43 38/33/70
f 96/45/67 95/24/32 94/43/73
f 93/45/67 33/21/25 34/24/32
f 92/29/40 91/14/11 90/34/74
f 89/29/40 88/12/75 87/14/76
f 86/22/27 85/9/6 84/25/36
f 83/22/35 82/10/4 81/9/77
f 80/16/21 79/8/2 78/18/22
f 29/16/21 30/11/5 77/8/2
f 76/31/78 75/12/8 28/29/42
f 31/31/78 26/9/77 27/12/75
f 74/18/18 73/10/79 24/22/35
f 21/18/80 22/8/2 23/10/4
f 72/34/81 71/13/9 20/15/82
f 17/34/51 18/14/11 19/13/15
f 70/47/83 69/48/67 68/49/84
f 67/47/85 66/50/60 65/48/67
f 64/51/86 63/52/59 62/53/87
f 61/51/86 60/54/88 59/52/59
f 58/55/89 57/56/61 56/57/90
f 55/55/89 54/58/72 53/56/71
f 52/49/84 51/59/64 50/60/91
f 2/49/92 32/48/67 49/59/93
f 48/53/94 47/50/66 12/47/95
f 9/53/94 10/52/59 11/50/60
f 46/57/90 45/54/88 8/51/96
f 5/57/97 6/56/61 7/54/69
f 44/60/91 43/61/98 15/62/89
f 1/60/99 35/59/73 39/61/72
