# Blender 5.0.0
# www.blender.org
mtllib Circle_005_Circle_001_Dupli_278_decorations_0.mtl
o Circle.005|Circle.001|Dupli|278_decorations_0
v -4.625573 1.642404 0.486560
v -4.625542 1.643439 0.485606
v -4.619904 1.647269 0.489497
v -4.619948 1.645793 0.490859
v -4.627442 1.643127 0.488117
v -4.623783 1.645880 0.491098
v -4.624186 1.647015 0.490565
v -4.627873 1.644341 0.487547
v -4.627387 1.644992 0.486397
v -4.623731 1.647624 0.489490
v -4.622761 1.647249 0.488683
v -4.626349 1.644591 0.485533
v -4.621154 1.645595 0.492454
v -4.622615 1.646824 0.493080
v -4.626419 1.642265 0.487678
v -4.623230 1.648556 0.492266
v -4.621943 1.649083 0.492880
v -4.620801 1.649274 0.493123
v -4.620432 1.649767 0.492252
v -4.621378 1.649840 0.491545
v -4.619237 1.648037 0.490627
v -4.619035 1.648590 0.491653
v -4.619059 1.647806 0.492376
v -4.619273 1.646835 0.491735
v -4.621055 1.648912 0.489393
v -4.619699 1.647701 0.493223
v -4.620475 1.648354 0.493555
v -4.621443 1.647675 0.493542
v -4.620174 1.649374 0.490542
v -4.619647 1.649463 0.491598
v -4.620255 1.646674 0.493033
v -4.622006 1.646172 0.488751
v -4.621096 1.646560 0.488890
v -4.621134 1.645282 0.490069
v -4.622035 1.645204 0.489643
v -4.622535 1.649485 0.490626
v -4.622178 1.645111 0.491449
v -4.623443 1.646175 0.491991
v -4.622826 1.645075 0.490688
v -4.622093 1.647983 0.488800
v -4.623974 1.647674 0.491287
v -4.623374 1.648478 0.489866
v -4.622826 1.645075 0.490688
v -4.625573 1.642404 0.486560
v -4.624186 1.647015 0.490565
v -4.627442 1.643127 0.488117
v -4.622761 1.647249 0.488683
v -4.627387 1.644992 0.486397
v -4.622035 1.645204 0.489643
v -4.625573 1.642404 0.486560
v -4.622035 1.645204 0.489643
v -4.625542 1.643439 0.485606
v -4.623783 1.645880 0.491098
v -4.622826 1.645075 0.490688
v -4.626419 1.642265 0.487678
v -4.627442 1.643127 0.488117
v -4.623783 1.645880 0.491098
v -4.626419 1.642265 0.487678
v -4.623731 1.647624 0.489490
v -4.624186 1.647015 0.490565
v -4.627873 1.644341 0.487547
v -4.627387 1.644992 0.486397
v -4.623731 1.647624 0.489490
v -4.627873 1.644341 0.487547
v -4.622006 1.646172 0.488751
v -4.622761 1.647249 0.488683
v -4.626349 1.644591 0.485533
v -4.625542 1.643439 0.485606
v -4.622006 1.646172 0.488751
v -4.626349 1.644591 0.485533
v -4.620432 1.649767 0.492252
v -4.621943 1.649083 0.492880
v -4.619059 1.647806 0.492376
v -4.619237 1.648037 0.490627
v -4.620475 1.648354 0.493555
v -4.620255 1.646674 0.493033
v -4.619035 1.648590 0.491653
v -4.619237 1.648037 0.490627
v -4.619035 1.648590 0.491653
v -4.620174 1.649374 0.490542
v -4.619699 1.647701 0.493223
v -4.619059 1.647806 0.492376
v -4.619273 1.646835 0.491735
v -4.620255 1.646674 0.493033
v -4.619699 1.647701 0.493223
v -4.619273 1.646835 0.491735
v -4.620801 1.649274 0.493123
v -4.620475 1.648354 0.493555
v -4.621443 1.647675 0.493542
v -4.621943 1.649083 0.492880
v -4.620801 1.649274 0.493123
v -4.621443 1.647675 0.493542
v -4.622006 1.646172 0.488751
v -4.622035 1.645204 0.489643
v -4.621134 1.645282 0.490069
v -4.622006 1.646172 0.488751
v -4.622826 1.645075 0.490688
v -4.623783 1.645880 0.491098
v -4.623443 1.646175 0.491991
v -4.622826 1.645075 0.490688
v -4.624186 1.647015 0.490565
v -4.623731 1.647624 0.489490
v -4.623374 1.648478 0.489866
v -4.624186 1.647015 0.490565
v -4.621096 1.646560 0.488890
v -4.622761 1.647249 0.488683
v -4.622006 1.646172 0.488751
v -4.621096 1.646560 0.488890
v -4.622761 1.647249 0.488683
v -4.622178 1.645111 0.491449
v -4.621134 1.645282 0.490069
v -4.622035 1.645204 0.489643
v -4.622826 1.645075 0.490688
v -4.622178 1.645111 0.491449
v -4.622035 1.645204 0.489643
v -4.623974 1.647674 0.491287
v -4.623443 1.646175 0.491991
v -4.623783 1.645880 0.491098
v -4.624186 1.647015 0.490565
v -4.623974 1.647674 0.491287
v -4.623783 1.645880 0.491098
v -4.622093 1.647983 0.488800
v -4.623374 1.648478 0.489866
v -4.623731 1.647624 0.489490
v -4.622761 1.647249 0.488683
v -4.622093 1.647983 0.488800
v -4.623731 1.647624 0.489490
v -4.623374 1.648478 0.489866
v -4.622093 1.647983 0.488800
v -4.621055 1.648912 0.489393
v -4.623374 1.648478 0.489866
v -4.620174 1.649374 0.490542
v -4.621378 1.649840 0.491545
v -4.622535 1.649485 0.490626
v -4.621055 1.648912 0.489393
v -4.620174 1.649374 0.490542
v -4.622535 1.649485 0.490626
v -4.622535 1.649485 0.490626
v -4.623974 1.647674 0.491287
v -4.623374 1.648478 0.489866
v -4.622535 1.649485 0.490626
v -4.623974 1.647674 0.491287
v -4.621378 1.649840 0.491545
v -4.621943 1.649083 0.492880
v -4.623230 1.648556 0.492266
v -4.622535 1.649485 0.490626
v -4.621378 1.649840 0.491545
v -4.623230 1.648556 0.492266
v -4.623230 1.648556 0.492266
v -4.623443 1.646175 0.491991
v -4.623974 1.647674 0.491287
v -4.623230 1.648556 0.492266
v -4.623443 1.646175 0.491991
v -4.621943 1.649083 0.492880
v -4.621443 1.647675 0.493542
v -4.622615 1.646824 0.493080
v -4.623230 1.648556 0.492266
v -4.621943 1.649083 0.492880
v -4.622615 1.646824 0.493080
v -4.622615 1.646824 0.493080
v -4.622178 1.645111 0.491449
v -4.623443 1.646175 0.491991
v -4.622615 1.646824 0.493080
v -4.622178 1.645111 0.491449
v -4.621443 1.647675 0.493542
v -4.620255 1.646674 0.493033
v -4.621154 1.645595 0.492454
v -4.622615 1.646824 0.493080
v -4.621443 1.647675 0.493542
v -4.621154 1.645595 0.492454
v -4.621154 1.645595 0.492454
v -4.621134 1.645282 0.490069
v -4.622178 1.645111 0.491449
v -4.621154 1.645595 0.492454
v -4.621134 1.645282 0.490069
v -4.620255 1.646674 0.493033
v -4.619273 1.646835 0.491735
v -4.619948 1.645793 0.490859
v -4.621154 1.645595 0.492454
v -4.620255 1.646674 0.493033
v -4.619948 1.645793 0.490859
v -4.619948 1.645793 0.490859
v -4.621096 1.646560 0.488890
v -4.621134 1.645282 0.490069
v -4.619948 1.645793 0.490859
v -4.621096 1.646560 0.488890
v -4.619273 1.646835 0.491735
v -4.619237 1.648037 0.490627
v -4.619904 1.647269 0.489497
v -4.619948 1.645793 0.490859
v -4.619273 1.646835 0.491735
v -4.619904 1.647269 0.489497
v -4.619904 1.647269 0.489497
v -4.621055 1.648912 0.489393
v -4.622093 1.647983 0.488800
v -4.621096 1.646560 0.488890
v -4.619904 1.647269 0.489497
v -4.622093 1.647983 0.488800
v -4.619237 1.648037 0.490627
v -4.620174 1.649374 0.490542
v -4.621055 1.648912 0.489393
v -4.619904 1.647269 0.489497
v -4.619237 1.648037 0.490627
v -4.621055 1.648912 0.489393
v -4.619647 1.649463 0.491598
v -4.620432 1.649767 0.492252
v -4.621378 1.649840 0.491545
v -4.620174 1.649374 0.490542
v -4.619647 1.649463 0.491598
v -4.621378 1.649840 0.491545
v -4.620801 1.649274 0.493123
v -4.620432 1.649767 0.492252
v -4.620475 1.648354 0.493555
v -4.619647 1.649463 0.491598
v -4.620475 1.648354 0.493555
v -4.620432 1.649767 0.492252
v -4.619699 1.647701 0.493223
v -4.620475 1.648354 0.493555
v -4.619647 1.649463 0.491598
v -4.619035 1.648590 0.491653
v -4.619699 1.647701 0.493223
v -4.619647 1.649463 0.491598
v -4.619059 1.647806 0.492376
v -4.619699 1.647701 0.493223
v -4.619035 1.648590 0.491653
v -4.627873 1.644341 0.487547
v -4.627442 1.643127 0.488117
v -4.627387 1.644992 0.486397
v -4.626349 1.644591 0.485533
v -4.627387 1.644992 0.486397
v -4.627442 1.643127 0.488117
v -4.626419 1.642265 0.487678
v -4.626349 1.644591 0.485533
v -4.627442 1.643127 0.488117
v -4.625542 1.643439 0.485606
v -4.626349 1.644591 0.485533
v -4.626419 1.642265 0.487678
v -4.625573 1.642404 0.486560
v -4.625542 1.643439 0.485606
v -4.626419 1.642265 0.487678
vn -0.6604 -0.4984 -0.5617
vn 0.9321 0.3576 0.0570
vn 0.6275 -0.0501 0.7770
vn 0.9214 -0.0019 0.3887
vn 0.6516 0.7579 0.0317
vn 0.9321 0.3577 0.0570
vn 0.6517 0.7578 0.0317
vn 0.2718 0.2493 0.9295
vn 0.2912 0.8973 0.3318
vn 0.2719 0.2493 0.9295
vn 0.2718 0.2494 0.9295
vn 0.2913 0.8973 0.3318
vn 0.1222 0.6710 0.7313
vn -0.1420 0.9897 0.0154
vn 0.4416 0.7640 -0.4704
vn 0.2132 0.6325 -0.7447
vn 0.8956 0.1161 -0.4295
vn 0.7102 -0.0767 -0.6998
vn 0.2132 0.6325 -0.7446
vn 0.4416 0.7640 -0.4705
vn 0.8956 0.1162 -0.4294
vn -0.0455 0.4099 -0.9110
vn 0.4228 -0.2581 -0.8687
vn 0.2133 0.6325 -0.7446
vn 0.7103 -0.0766 -0.6997
vn 0.8782 -0.4660 0.1075
vn 0.6912 -0.7139 -0.1120
vn 0.4227 -0.2582 -0.8687
vn 0.4049 -0.8584 -0.3150
vn 0.4025 -0.5441 0.7362
vn 0.1705 -0.7994 0.5761
vn 0.8782 -0.4661 0.1075
vn 0.4048 -0.8585 -0.3150
vn -0.0857 -0.9389 0.3333
vn 0.4048 -0.8584 -0.3150
vn 0.1704 -0.7994 0.5761
vn -0.1733 -0.0593 0.9831
vn -0.4598 -0.2687 0.8464
vn -0.0858 -0.9389 0.3333
vn -0.6795 -0.4390 0.5879
vn -0.4597 -0.2687 0.8464
vn -0.4156 0.6233 0.6624
vn -0.7251 0.4785 0.4953
vn -0.6795 -0.4390 0.5878
vn -0.9294 0.2649 0.2571
vn -0.7251 0.4785 0.4952
vn -0.1420 0.9897 0.0155
vn -0.4255 0.8796 -0.2128
vn -0.4157 0.6234 0.6623
vn -0.9294 0.2649 0.2570
vn -0.6472 0.6428 -0.4099
vn 0.4415 0.7640 -0.4704
vn -0.6472 0.6427 -0.4100
vn -0.0454 0.4100 -0.9110
vn -0.6076 0.7013 -0.3728
vn 0.0094 0.4626 -0.8865
vn -0.6472 0.6427 -0.4099
vn -0.6408 -0.4079 0.6504
vn -0.8970 0.3139 0.3112
vn 0.4711 -0.8380 -0.2754
vn -0.0320 -0.9205 0.3893
vn 0.4894 -0.2224 -0.8432
vn -0.8970 0.3139 0.3113
vn -0.0319 -0.9205 0.3894
vn -0.0319 -0.9205 0.3893
vn 0.4895 -0.2224 -0.8432
vn -0.1734 -0.0593 0.9831
vn 0.8782 -0.4660 0.1076
vn 0.9214 -0.0019 0.3886
vn -0.4156 0.6234 0.6623
vn 0.2012 0.6236 -0.7554
vn 0.6984 -0.0859 -0.7105
vn -0.7377 0.4696 0.4851
vn -0.4380 0.8708 -0.2233
vn -0.7376 0.4696 0.4851
vn 0.1583 -0.8090 0.5661
vn -0.4722 -0.2781 0.8365
vn -0.0319 -0.9206 0.3893
vn 0.6984 -0.0860 -0.7105
vn 0.6794 -0.7235 -0.1225
vn -0.4379 0.8708 -0.2233
vn 0.2011 0.6236 -0.7554
vn -0.4379 0.8709 -0.2233
vn -0.4723 -0.2781 0.8364
vn -0.7376 0.4696 0.4852
vn -0.4722 -0.2780 0.8365
vn 0.6794 -0.7235 -0.1224
vt 0.543243 0.635056
vt 0.535370 0.641335
vt 0.537796 0.636299
vt 0.537796 0.646370
vt 0.547607 0.638535
vt 0.543243 0.647614
vt 0.547607 0.644127
vt 0.593674 0.671494
vt 0.598511 0.669548
vt 0.596146 0.672157
vt 0.592773 0.669609
vt 0.596436 0.666756
vt 0.592804 0.667854
vt 0.594147 0.666748
vt 0.591187 0.666855
vt 0.590591 0.669838
vt 0.587372 0.669685
vt 0.591782 0.673050
vt 0.588348 0.674789
vt 0.582382 0.669067
vt 0.582687 0.676537
vt 0.595596 0.675606
vt 0.592606 0.680244
vt 0.586334 0.684982
vt 0.603775 0.674767
vt 0.603561 0.686485
vt 0.594009 0.696274
vt 0.603775 0.658051
vt 0.597107 0.663902
vt 0.596405 0.659698
vt 0.602859 0.665543
vt 0.600342 0.651657
vt 0.594193 0.655174
vt 0.593353 0.664742
vt 0.591705 0.661980
vt 0.588959 0.658463
vt 0.588654 0.665283
vt 0.584778 0.662933
vt 0.580322 0.660286
vt 0.576584 0.668175
vt 0.591812 0.651588
vt 0.585907 0.654999
vt 0.579453 0.688484
vt 0.584915 0.699394
vt 0.576157 0.678001
vt 0.597061 0.648293
vt 0.627350 0.682632
vt 0.649124 0.687675
vt 0.627441 0.688225
vt 0.649033 0.682457
vt 0.627441 0.671455
vt 0.649033 0.677231
vt 0.627350 0.677048
vt 0.649124 0.672005
vt 0.627914 0.660294
vt 0.649292 0.666786
vt 0.627625 0.665871
vt 0.649551 0.661568
vt 0.649292 0.692902
vt 0.627625 0.693810
vt 0.649551 0.698120
vt 0.627914 0.699394
s 0
usemtl decorations
f 240/1/1 239/2/1 238/3/1
f 237/1/1 236/4/1 235/2/1
f 234/5/1 233/4/1 232/1/1
f 231/5/1 230/6/1 229/4/1
f 228/6/1 227/5/1 226/7/1
s 1
f 225/8/2 224/9/3 223/10/4
f 222/11/5 221/9/3 220/8/6
f 219/11/7 218/12/8 217/9/3
f 216/13/9 215/12/10 214/11/7
f 213/12/11 212/13/12 211/14/13
f 210/15/14 209/11/7 208/16/15
f 207/15/14 206/13/12 205/11/7
f 204/17/16 203/18/17 202/19/18
f 201/17/19 200/16/20 199/18/21
f 198/20/22 197/19/18 196/21/23
f 195/20/22 194/17/24 193/19/25
f 192/19/18 191/22/26 190/23/27
f 189/19/18 188/18/17 187/22/26
f 186/21/28 185/23/27 184/24/29
f 183/21/28 3/19/18 182/23/27
f 181/23/27 180/25/30 179/26/31
f 178/23/27 177/22/32 176/25/30
f 175/24/33 174/26/31 173/27/34
f 172/24/35 4/23/27 171/26/31
f 170/28/36 169/29/37 168/30/38
f 167/28/36 166/31/30 165/29/37
f 164/32/39 163/30/38 162/33/40
f 161/32/39 13/28/31 160/30/41
f 159/30/38 158/34/42 157/35/43
f 156/30/38 155/29/37 154/34/42
f 153/33/44 152/35/43 151/36/45
f 150/33/44 14/30/38 149/35/43
f 148/35/46 147/15/47 146/37/48
f 145/35/46 144/34/49 143/15/47
f 142/36/50 141/37/48 140/38/51
f 139/36/45 16/35/43 138/37/48
f 137/37/48 136/16/52 135/17/24
f 134/37/48 133/15/14 132/16/15
f 131/38/53 130/17/24 129/20/54
f 128/38/53 36/37/48 25/17/24
f 127/39/55 126/20/54 125/40/56
f 124/39/55 123/38/57 122/20/54
f 121/41/58 120/36/45 119/42/59
f 118/41/58 117/33/44 116/36/45
f 115/43/60 114/27/34 113/44/61
f 112/43/60 111/24/35 110/27/34
f 109/40/56 108/21/23 107/45/62
f 106/40/56 40/20/22 105/21/23
f 104/42/63 103/38/57 102/39/55
f 101/42/59 41/36/45 42/38/57
f 100/46/64 99/33/40 98/41/58
f 97/46/65 37/32/39 38/33/40
f 96/45/66 95/24/35 94/43/60
f 93/45/66 33/21/23 34/24/35
f 92/29/67 91/14/13 90/34/42
f 89/29/67 88/12/10 87/14/13
f 86/22/68 85/9/3 84/25/30
f 83/22/68 82/10/69 81/9/3
f 80/16/20 79/8/2 78/18/21
f 29/16/20 30/11/5 77/8/6
f 76/31/30 75/12/10 28/29/37
f 31/31/30 26/9/3 27/12/10
f 74/18/17 73/10/4 24/22/26
f 21/18/17 22/8/6 23/10/4
f 72/34/70 71/13/9 20/15/14
f 17/34/70 18/14/13 19/13/12
f 70/47/71 69/48/66 68/49/72
f 67/47/71 66/50/56 65/48/66
f 64/51/73 63/52/55 62/53/74
f 61/51/75 60/54/59 59/52/55
f 58/55/76 57/56/58 56/57/77
f 55/55/76 54/58/78 53/56/58
f 52/49/79 51/59/60 50/60/80
f 2/49/72 32/48/62 49/59/60
f 48/53/81 47/50/56 12/47/82
f 9/53/83 10/52/55 11/50/56
f 46/57/84 45/54/59 8/51/85
f 5/57/86 6/56/58 7/54/59
f 44/60/80 43/61/65 15/62/76
f 1/60/87 35/59/60 39/61/78
