# Blender 5.0.0
# www.blender.org
mtllib Circle_002_Circle_001_Dupli_258_decorations_0.mtl
o Circle.002|Circle.001|Dupli|258_decorations_0
v -4.499961 1.200354 0.401362
v -4.499268 1.200684 0.400181
v -4.493354 1.203923 0.404199
v -4.494343 1.203452 0.405884
v -4.501534 1.202323 0.401662
v -4.497657 1.204871 0.404551
v -4.497372 1.205634 0.403517
v -4.501229 1.203139 0.400556
v -4.500285 1.202917 0.399535
v -4.496490 1.205426 0.402562
v -4.495674 1.204405 0.402406
v -4.499412 1.201824 0.399368
v -4.495782 1.204493 0.406824
v -4.496587 1.206261 0.406313
v -4.500969 1.201083 0.402021
v -4.496152 1.207426 0.404734
v -4.494912 1.207749 0.405552
v -4.493884 1.207659 0.406130
v -4.493169 1.207491 0.405357
v -4.493816 1.207491 0.404366
v -4.492636 1.204898 0.405117
v -4.492399 1.205799 0.405846
v -4.492924 1.205549 0.406741
v -4.493441 1.204515 0.406487
v -4.493560 1.205550 0.403039
v -4.493688 1.206102 0.407240
v -4.494115 1.207041 0.406969
v -4.495266 1.206801 0.406836
v -4.492803 1.206223 0.404173
v -4.492508 1.206663 0.405230
v -4.494611 1.205362 0.407253
v -4.495539 1.203338 0.403166
v -4.494598 1.203428 0.403492
v -4.495454 1.203021 0.404950
v -4.496187 1.203030 0.404270
v -4.494805 1.207109 0.403277
v -4.496699 1.203922 0.405764
v -4.497396 1.205452 0.405321
v -4.497130 1.203712 0.404886
v -4.494776 1.204837 0.402488
v -4.497020 1.206460 0.403955
v -4.495854 1.206186 0.402694
v -4.497130 1.203712 0.404886
v -4.499961 1.200354 0.401362
v -4.497372 1.205634 0.403517
v -4.501534 1.202323 0.401662
v -4.495674 1.204405 0.402406
v -4.500285 1.202917 0.399535
v -4.496187 1.203030 0.404270
v -4.499961 1.200354 0.401362
v -4.496187 1.203030 0.404270
v -4.499268 1.200684 0.400181
v -4.497657 1.204871 0.404551
v -4.497130 1.203712 0.404886
v -4.500969 1.201083 0.402021
v -4.501534 1.202323 0.401662
v -4.497657 1.204871 0.404551
v -4.500969 1.201083 0.402021
v -4.496490 1.205426 0.402562
v -4.497372 1.205634 0.403517
v -4.501229 1.203139 0.400556
v -4.500285 1.202917 0.399535
v -4.496490 1.205426 0.402562
v -4.501229 1.203139 0.400556
v -4.495539 1.203338 0.403166
v -4.495674 1.204405 0.402406
v -4.499412 1.201824 0.399368
v -4.499268 1.200684 0.400181
v -4.495539 1.203338 0.403166
v -4.499412 1.201824 0.399368
v -4.493169 1.207491 0.405357
v -4.494912 1.207749 0.405552
v -4.492924 1.205549 0.406741
v -4.492636 1.204898 0.405117
v -4.494115 1.207041 0.406969
v -4.494611 1.205362 0.407253
v -4.492399 1.205799 0.405846
v -4.492636 1.204898 0.405117
v -4.492399 1.205799 0.405846
v -4.492803 1.206223 0.404173
v -4.493688 1.206102 0.407240
v -4.492924 1.205549 0.406741
v -4.493441 1.204515 0.406487
v -4.494611 1.205362 0.407253
v -4.493688 1.206102 0.407240
v -4.493441 1.204515 0.406487
v -4.493884 1.207659 0.406130
v -4.494115 1.207041 0.406969
v -4.495266 1.206801 0.406836
v -4.494912 1.207749 0.405552
v -4.493884 1.207659 0.406130
v -4.495266 1.206801 0.406836
v -4.495539 1.203338 0.403166
v -4.496187 1.203030 0.404270
v -4.495454 1.203021 0.404950
v -4.495539 1.203338 0.403166
v -4.497130 1.203712 0.404886
v -4.497657 1.204871 0.404551
v -4.497396 1.205452 0.405321
v -4.497130 1.203712 0.404886
v -4.497372 1.205634 0.403517
v -4.496490 1.205426 0.402562
v -4.495854 1.206186 0.402694
v -4.497372 1.205634 0.403517
v -4.494598 1.203428 0.403492
v -4.495674 1.204405 0.402406
v -4.495539 1.203338 0.403166
v -4.494598 1.203428 0.403492
v -4.495674 1.204405 0.402406
v -4.496699 1.203922 0.405764
v -4.495454 1.203021 0.404950
v -4.496187 1.203030 0.404270
v -4.497130 1.203712 0.404886
v -4.496699 1.203922 0.405764
v -4.496187 1.203030 0.404270
v -4.497020 1.206460 0.403955
v -4.497396 1.205452 0.405321
v -4.497657 1.204871 0.404551
v -4.497372 1.205634 0.403517
v -4.497020 1.206460 0.403955
v -4.497657 1.204871 0.404551
v -4.494776 1.204837 0.402488
v -4.495854 1.206186 0.402694
v -4.496490 1.205426 0.402562
v -4.495674 1.204405 0.402406
v -4.494776 1.204837 0.402488
v -4.496490 1.205426 0.402562
v -4.495854 1.206186 0.402694
v -4.494776 1.204837 0.402488
v -4.493560 1.205550 0.403039
v -4.495854 1.206186 0.402694
v -4.492803 1.206223 0.404173
v -4.493816 1.207491 0.404366
v -4.494805 1.207109 0.403277
v -4.493560 1.205550 0.403039
v -4.492803 1.206223 0.404173
v -4.494805 1.207109 0.403277
v -4.494805 1.207109 0.403277
v -4.497020 1.206460 0.403955
v -4.495854 1.206186 0.402694
v -4.494805 1.207109 0.403277
v -4.497020 1.206460 0.403955
v -4.493816 1.207491 0.404366
v -4.494912 1.207749 0.405552
v -4.496152 1.207426 0.404734
v -4.494805 1.207109 0.403277
v -4.493816 1.207491 0.404366
v -4.496152 1.207426 0.404734
v -4.496152 1.207426 0.404734
v -4.497396 1.205452 0.405321
v -4.497020 1.206460 0.403955
v -4.496152 1.207426 0.404734
v -4.497396 1.205452 0.405321
v -4.494912 1.207749 0.405552
v -4.495266 1.206801 0.406836
v -4.496587 1.206261 0.406313
v -4.496152 1.207426 0.404734
v -4.494912 1.207749 0.405552
v -4.496587 1.206261 0.406313
v -4.496587 1.206261 0.406313
v -4.496699 1.203922 0.405764
v -4.497396 1.205452 0.405321
v -4.496587 1.206261 0.406313
v -4.496699 1.203922 0.405764
v -4.495266 1.206801 0.406836
v -4.494611 1.205362 0.407253
v -4.495782 1.204493 0.406824
v -4.496587 1.206261 0.406313
v -4.495266 1.206801 0.406836
v -4.495782 1.204493 0.406824
v -4.495782 1.204493 0.406824
v -4.495454 1.203021 0.404950
v -4.496699 1.203922 0.405764
v -4.495782 1.204493 0.406824
v -4.495454 1.203021 0.404950
v -4.494611 1.205362 0.407253
v -4.493441 1.204515 0.406487
v -4.494343 1.203452 0.405884
v -4.495782 1.204493 0.406824
v -4.494611 1.205362 0.407253
v -4.494343 1.203452 0.405884
v -4.494343 1.203452 0.405884
v -4.494598 1.203428 0.403492
v -4.495454 1.203021 0.404950
v -4.494343 1.203452 0.405884
v -4.494598 1.203428 0.403492
v -4.493441 1.204515 0.406487
v -4.492636 1.204898 0.405117
v -4.493354 1.203923 0.404199
v -4.494343 1.203452 0.405884
v -4.493441 1.204515 0.406487
v -4.493354 1.203923 0.404199
v -4.493354 1.203923 0.404199
v -4.493560 1.205550 0.403039
v -4.494776 1.204837 0.402488
v -4.494598 1.203428 0.403492
v -4.493354 1.203923 0.404199
v -4.494776 1.204837 0.402488
v -4.492636 1.204898 0.405117
v -4.492803 1.206223 0.404173
v -4.493560 1.205550 0.403039
v -4.493354 1.203923 0.404199
v -4.492636 1.204898 0.405117
v -4.493560 1.205550 0.403039
v -4.492508 1.206663 0.405230
v -4.493169 1.207491 0.405357
v -4.493816 1.207491 0.404366
v -4.492803 1.206223 0.404173
v -4.492508 1.206663 0.405230
v -4.493816 1.207491 0.404366
v -4.493884 1.207659 0.406130
v -4.493169 1.207491 0.405357
v -4.494115 1.207041 0.406969
v -4.492508 1.206663 0.405230
v -4.494115 1.207041 0.406969
v -4.493169 1.207491 0.405357
v -4.493688 1.206102 0.407240
v -4.494115 1.207041 0.406969
v -4.492508 1.206663 0.405230
v -4.492399 1.205799 0.405846
v -4.493688 1.206102 0.407240
v -4.492508 1.206663 0.405230
v -4.492924 1.205549 0.406741
v -4.493688 1.206102 0.407240
v -4.492399 1.205799 0.405846
v -4.501229 1.203139 0.400556
v -4.501534 1.202323 0.401662
v -4.500285 1.202917 0.399535
v -4.499412 1.201824 0.399368
v -4.500285 1.202917 0.399535
v -4.501534 1.202323 0.401662
v -4.500969 1.201083 0.402021
v -4.499412 1.201824 0.399368
v -4.501534 1.202323 0.401662
v -4.499268 1.200684 0.400181
v -4.499412 1.201824 0.399368
v -4.500969 1.201083 0.402021
v -4.499961 1.200354 0.401362
v -4.499268 1.200684 0.400181
v -4.500969 1.201083 0.402021
vn -0.6957 -0.4731 -0.5406
vn 0.9608 0.0165 0.2769
vn 0.3696 0.1554 0.9161
vn 0.7200 -0.0981 0.6870
vn 0.9108 0.4129 -0.0057
vn 0.9608 0.0165 0.2768
vn 0.9108 0.4128 -0.0057
vn 0.1736 0.5861 0.7915
vn 0.6076 0.7925 0.0522
vn 0.1736 0.5860 0.7915
vn 0.1736 0.5861 0.7914
vn 0.2795 0.8696 0.4070
vn 0.3374 0.8436 -0.4176
vn 0.8283 0.2290 -0.5113
vn 0.6076 0.7925 0.0523
vn 0.6221 0.0572 -0.7808
vn 0.9092 -0.4127 -0.0540
vn 0.7108 -0.6452 -0.2801
vn 0.6222 0.0572 -0.7808
vn 0.8283 0.2290 -0.5114
vn 0.9093 -0.4127 -0.0540
vn 0.3266 -0.1226 -0.9372
vn 0.4101 -0.7843 -0.4655
vn 0.5194 -0.5982 0.6102
vn 0.2840 -0.8483 0.4469
vn 0.0081 -0.9756 0.2194
vn -0.0478 -0.1879 0.9810
vn -0.3369 -0.3991 0.8528
vn 0.5193 -0.5983 0.6102
vn 0.0080 -0.9756 0.2193
vn -0.5768 -0.5524 0.6017
vn -0.3652 0.5093 0.7792
vn -0.6842 0.3641 0.6319
vn -0.3651 0.5093 0.7793
vn -0.5769 -0.5524 0.6017
vn -0.6842 0.3640 0.6319
vn -0.9040 0.1665 0.3937
vn -0.6842 0.3640 0.6320
vn -0.1937 0.9684 0.1569
vn -0.4965 0.8666 -0.0494
vn -0.3652 0.5094 0.7792
vn -0.9041 0.1665 0.3936
vn -0.7272 0.6400 -0.2482
vn -0.4965 0.8666 -0.0495
vn 0.3374 0.8437 -0.4176
vn 0.0849 0.7300 -0.6781
vn -0.1937 0.9684 0.1568
vn 0.3374 0.8437 -0.4175
vn -0.7272 0.6399 -0.2482
vn -0.1796 0.5113 -0.8404
vn 0.0849 0.7300 -0.6782
vn -0.1796 0.5112 -0.8405
vn -0.1796 0.5113 -0.8405
vn 0.0848 0.7300 -0.6781
vn -0.1251 0.5643 -0.8160
vn 0.3266 -0.1225 -0.9372
vn 0.3939 -0.0856 -0.9152
vn -0.1795 0.5113 -0.8404
vn -0.8680 0.2109 0.4495
vn -0.7272 0.6399 -0.2481
vn -0.6868 0.6963 -0.2087
vn 0.0672 -0.9603 0.2708
vn -0.5768 -0.5525 0.6017
vn -0.5325 -0.5264 0.6628
vn 0.0672 -0.9603 0.2707
vn 0.0080 -0.9756 0.2194
vn 0.4795 -0.7641 -0.4316
vn -0.6867 0.6963 -0.2086
vn -0.1252 0.5643 -0.8160
vn -0.5325 -0.5264 0.6629
vn -0.8681 0.2109 0.4495
vn 0.4795 -0.7641 -0.4315
vn 0.5193 -0.5982 0.6102
vn 0.8283 0.2289 -0.5114
vn 0.9092 -0.4128 -0.0540
vn 0.7199 -0.0981 0.6871
vn 0.5194 -0.5983 0.6102
vn -0.1937 0.9685 0.1568
vn 0.6096 0.0485 -0.7912
vn 0.6983 -0.6543 -0.2903
vn -0.5096 0.8583 -0.0595
vn -0.1251 0.5644 -0.8160
vn 0.0720 0.7217 -0.6885
vn -0.6867 0.6963 -0.2087
vn -0.3499 -0.4081 0.8432
vn -0.6974 0.3555 0.6223
vn -0.3499 -0.4080 0.8433
vn 0.2713 -0.8575 0.4371
vn 0.6983 -0.6543 -0.2902
vn 0.0721 0.7217 -0.6885
vn -0.6974 0.3555 0.6222
vn -0.5097 0.8583 -0.0594
vt 0.543243 0.635056
vt 0.535370 0.641335
vt 0.537796 0.636299
vt 0.537796 0.646370
vt 0.547607 0.638535
vt 0.543243 0.647614
vt 0.547607 0.644127
vt 0.593674 0.671494
vt 0.598511 0.669548
vt 0.596146 0.672157
vt 0.592773 0.669609
vt 0.596436 0.666756
vt 0.592804 0.667854
vt 0.594147 0.666748
vt 0.591187 0.666855
vt 0.590591 0.669838
vt 0.587372 0.669685
vt 0.591782 0.673050
vt 0.588348 0.674789
vt 0.582382 0.669067
vt 0.582687 0.676537
vt 0.595596 0.675606
vt 0.592606 0.680244
vt 0.586334 0.684982
vt 0.603775 0.674767
vt 0.603561 0.686485
vt 0.594009 0.696274
vt 0.603775 0.658051
vt 0.597107 0.663902
vt 0.596405 0.659698
vt 0.602859 0.665543
vt 0.600342 0.651657
vt 0.594193 0.655174
vt 0.593353 0.664742
vt 0.591705 0.661980
vt 0.588959 0.658463
vt 0.588654 0.665283
vt 0.584778 0.662933
vt 0.580322 0.660286
vt 0.576584 0.668175
vt 0.591812 0.651588
vt 0.585907 0.654999
vt 0.579453 0.688484
vt 0.584915 0.699394
vt 0.576157 0.678001
vt 0.597061 0.648293
vt 0.627350 0.682632
vt 0.649124 0.687675
vt 0.627441 0.688225
vt 0.649033 0.682457
vt 0.627441 0.671455
vt 0.649033 0.677231
vt 0.627350 0.677048
vt 0.649124 0.672005
vt 0.627914 0.660294
vt 0.649292 0.666786
vt 0.627625 0.665871
vt 0.649551 0.661568
vt 0.649292 0.692902
vt 0.627625 0.693810
vt 0.649551 0.698120
vt 0.627914 0.699394
s 0
usemtl decorations
f 240/1/1 239/2/1 238/3/1
f 237/1/1 236/4/1 235/2/1
f 234/5/1 233/4/1 232/1/1
f 231/5/1 230/6/1 229/4/1
f 228/6/1 227/5/1 226/7/1
s 1
f 225/8/2 224/9/3 223/10/4
f 222/11/5 221/9/3 220/8/6
f 219/11/7 218/12/8 217/9/3
f 216/13/9 215/12/10 214/11/7
f 213/12/11 212/13/9 211/14/12
f 210/15/13 209/11/7 208/16/14
f 207/15/13 206/13/15 205/11/5
f 204/17/16 203/18/17 202/19/18
f 201/17/19 200/16/20 199/18/21
f 198/20/22 197/19/18 196/21/23
f 195/20/22 194/17/19 193/19/18
f 192/19/18 191/22/24 190/23/25
f 189/19/18 188/18/17 187/22/24
f 186/21/23 185/23/25 184/24/26
f 183/21/23 3/19/18 182/23/25
f 181/23/25 180/25/27 179/26/28
f 178/23/25 177/22/29 176/25/27
f 175/24/30 174/26/28 173/27/31
f 172/24/30 4/23/25 171/26/28
f 170/28/28 169/29/32 168/30/33
f 167/28/28 166/31/27 165/29/34
f 164/32/35 163/30/36 162/33/37
f 161/32/35 13/28/28 160/30/38
f 159/30/33 158/34/39 157/35/40
f 156/30/33 155/29/41 154/34/39
f 153/33/42 152/35/40 151/36/43
f 150/33/42 14/30/33 149/35/40
f 148/35/44 147/15/45 146/37/46
f 145/35/44 144/34/47 143/15/48
f 142/36/49 141/37/46 140/38/50
f 139/36/49 16/35/40 138/37/46
f 137/37/51 136/16/20 135/17/19
f 134/37/46 133/15/45 132/16/14
f 131/38/52 130/17/19 129/20/22
f 128/38/53 36/37/54 25/17/19
f 127/39/55 126/20/56 125/40/57
f 124/39/55 123/38/58 122/20/56
f 121/41/59 120/36/60 119/42/61
f 118/41/59 117/33/42 116/36/60
f 115/43/62 114/27/63 113/44/64
f 112/43/65 111/24/66 110/27/63
f 109/40/57 108/21/23 107/45/67
f 106/40/57 40/20/22 105/21/23
f 104/42/68 103/38/50 102/39/69
f 101/42/61 41/36/49 42/38/50
f 100/46/70 99/33/37 98/41/71
f 97/46/64 37/32/35 38/33/37
f 96/45/72 95/24/26 94/43/65
f 93/45/72 33/21/23 34/24/26
f 92/29/41 91/14/12 90/34/39
f 89/29/41 88/12/10 87/14/12
f 86/22/24 85/9/3 84/25/27
f 83/22/73 82/10/4 81/9/3
f 80/16/74 79/8/6 78/18/21
f 29/16/74 30/11/5 77/8/6
f 76/31/27 75/12/8 28/29/34
f 31/31/27 26/9/3 27/12/10
f 74/18/75 73/10/76 24/22/77
f 21/18/75 22/8/6 23/10/4
f 72/34/78 71/13/9 20/15/45
f 17/34/78 18/14/12 19/13/15
f 70/47/79 69/48/72 68/49/80
f 67/47/79 66/50/57 65/48/72
f 64/51/81 63/52/82 62/53/83
f 61/51/81 60/54/84 59/52/82
f 58/55/85 57/56/59 56/57/86
f 55/55/87 54/58/64 53/56/71
f 52/49/80 51/59/62 50/60/88
f 2/49/89 32/48/67 49/59/65
f 48/53/83 47/50/57 12/47/79
f 9/53/90 10/52/82 11/50/57
f 46/57/91 45/54/84 8/51/92
f 5/57/86 6/56/71 7/54/61
f 44/60/88 43/61/70 15/62/85
f 1/60/88 35/59/65 39/61/64
