# Blender 5.0.0
# www.blender.org
mtllib Circle_002_Circle_004_Dupli_220_decorations_0.mtl
o Circle.002|Circle.004|Dupli|220_decorations_0
v -4.374845 2.045730 0.483671
v -4.376190 2.045545 0.483298
v -4.378674 2.050911 0.488460
v -4.376754 2.051175 0.488992
v -4.374484 2.043911 0.485404
v -4.376124 2.047395 0.489281
v -4.377298 2.046802 0.489333
v -4.375740 2.043277 0.485459
v -4.376908 2.043577 0.484732
v -4.378390 2.047083 0.488653
v -4.378578 2.048027 0.487754
v -4.377108 2.044587 0.483771
v -4.375670 2.050138 0.490329
v -4.376239 2.048581 0.491464
v -4.374085 2.045003 0.484608
v -4.378031 2.047676 0.491542
v -4.378417 2.048924 0.492318
v -4.378653 2.050046 0.492610
v -4.379538 2.050274 0.492059
v -4.379774 2.049273 0.491474
v -4.378941 2.051557 0.489809
v -4.378994 2.051765 0.490973
v -4.377975 2.051905 0.491255
v -4.377378 2.051772 0.490242
v -4.379983 2.049545 0.489133
v -4.377399 2.051354 0.491965
v -4.377701 2.050527 0.492568
v -4.376959 2.049661 0.492254
v -4.380007 2.050445 0.490357
v -4.379690 2.051039 0.491330
v -4.376497 2.050928 0.491330
v -4.377719 2.048922 0.487313
v -4.378140 2.049780 0.487606
v -4.376479 2.050009 0.488066
v -4.376462 2.049095 0.487661
v -4.379698 2.048105 0.490505
v -4.375541 2.049111 0.489224
v -4.376032 2.047763 0.490206
v -4.375752 2.048416 0.488537
v -4.379274 2.048597 0.488189
v -4.377584 2.046980 0.490274
v -4.379026 2.047351 0.489376
v -4.375752 2.048416 0.488537
v -4.374845 2.045730 0.483671
v -4.377298 2.046802 0.489333
v -4.374484 2.043911 0.485404
v -4.378578 2.048027 0.487754
v -4.376908 2.043577 0.484732
v -4.376462 2.049095 0.487661
v -4.374845 2.045730 0.483671
v -4.376462 2.049095 0.487661
v -4.376190 2.045545 0.483298
v -4.376124 2.047395 0.489281
v -4.375752 2.048416 0.488537
v -4.374085 2.045003 0.484608
v -4.374484 2.043911 0.485404
v -4.376124 2.047395 0.489281
v -4.374085 2.045003 0.484608
v -4.378390 2.047083 0.488653
v -4.377298 2.046802 0.489333
v -4.375740 2.043277 0.485459
v -4.376908 2.043577 0.484732
v -4.378390 2.047083 0.488653
v -4.375740 2.043277 0.485459
v -4.377719 2.048922 0.487313
v -4.378578 2.048027 0.487754
v -4.377108 2.044587 0.483771
v -4.376190 2.045545 0.483298
v -4.377719 2.048922 0.487313
v -4.377108 2.044587 0.483771
v -4.379538 2.050274 0.492059
v -4.378417 2.048924 0.492318
v -4.377975 2.051905 0.491255
v -4.378941 2.051557 0.489809
v -4.377701 2.050527 0.492568
v -4.376497 2.050928 0.491330
v -4.378994 2.051765 0.490973
v -4.378941 2.051557 0.489809
v -4.378994 2.051765 0.490973
v -4.380007 2.050445 0.490357
v -4.377399 2.051354 0.491965
v -4.377975 2.051905 0.491255
v -4.377378 2.051772 0.490242
v -4.376497 2.050928 0.491330
v -4.377399 2.051354 0.491965
v -4.377378 2.051772 0.490242
v -4.378653 2.050046 0.492610
v -4.377701 2.050527 0.492568
v -4.376959 2.049661 0.492254
v -4.378417 2.048924 0.492318
v -4.378653 2.050046 0.492610
v -4.376959 2.049661 0.492254
v -4.377719 2.048922 0.487313
v -4.376462 2.049095 0.487661
v -4.376479 2.050009 0.488066
v -4.377719 2.048922 0.487313
v -4.375752 2.048416 0.488537
v -4.376124 2.047395 0.489281
v -4.376032 2.047763 0.490206
v -4.375752 2.048416 0.488537
v -4.377298 2.046802 0.489333
v -4.378390 2.047083 0.488653
v -4.379026 2.047351 0.489376
v -4.377298 2.046802 0.489333
v -4.378140 2.049780 0.487606
v -4.378578 2.048027 0.487754
v -4.377719 2.048922 0.487313
v -4.378140 2.049780 0.487606
v -4.378578 2.048027 0.487754
v -4.375541 2.049111 0.489224
v -4.376479 2.050009 0.488066
v -4.376462 2.049095 0.487661
v -4.375752 2.048416 0.488537
v -4.375541 2.049111 0.489224
v -4.376462 2.049095 0.487661
v -4.377584 2.046980 0.490274
v -4.376032 2.047763 0.490206
v -4.376124 2.047395 0.489281
v -4.377298 2.046802 0.489333
v -4.377584 2.046980 0.490274
v -4.376124 2.047395 0.489281
v -4.379274 2.048597 0.488189
v -4.379026 2.047351 0.489376
v -4.378390 2.047083 0.488653
v -4.378578 2.048027 0.487754
v -4.379274 2.048597 0.488189
v -4.378390 2.047083 0.488653
v -4.379026 2.047351 0.489376
v -4.379274 2.048597 0.488189
v -4.379983 2.049545 0.489133
v -4.379026 2.047351 0.489376
v -4.380007 2.050445 0.490357
v -4.379774 2.049273 0.491474
v -4.379698 2.048105 0.490505
v -4.379983 2.049545 0.489133
v -4.380007 2.050445 0.490357
v -4.379698 2.048105 0.490505
v -4.379698 2.048105 0.490505
v -4.377584 2.046980 0.490274
v -4.379026 2.047351 0.489376
v -4.379698 2.048105 0.490505
v -4.377584 2.046980 0.490274
v -4.379774 2.049273 0.491474
v -4.378417 2.048924 0.492318
v -4.378031 2.047676 0.491542
v -4.379698 2.048105 0.490505
v -4.379774 2.049273 0.491474
v -4.378031 2.047676 0.491542
v -4.378031 2.047676 0.491542
v -4.376032 2.047763 0.490206
v -4.377584 2.046980 0.490274
v -4.378031 2.047676 0.491542
v -4.376032 2.047763 0.490206
v -4.378417 2.048924 0.492318
v -4.376959 2.049661 0.492254
v -4.376239 2.048581 0.491464
v -4.378031 2.047676 0.491542
v -4.378417 2.048924 0.492318
v -4.376239 2.048581 0.491464
v -4.376239 2.048581 0.491464
v -4.375541 2.049111 0.489224
v -4.376032 2.047763 0.490206
v -4.376239 2.048581 0.491464
v -4.375541 2.049111 0.489224
v -4.376959 2.049661 0.492254
v -4.376497 2.050928 0.491330
v -4.375670 2.050138 0.490329
v -4.376239 2.048581 0.491464
v -4.376959 2.049661 0.492254
v -4.375670 2.050138 0.490329
v -4.375670 2.050138 0.490329
v -4.376479 2.050009 0.488066
v -4.375541 2.049111 0.489224
v -4.375670 2.050138 0.490329
v -4.376479 2.050009 0.488066
v -4.376497 2.050928 0.491330
v -4.377378 2.051772 0.490242
v -4.376754 2.051175 0.488992
v -4.375670 2.050138 0.490329
v -4.376497 2.050928 0.491330
v -4.376754 2.051175 0.488992
v -4.376754 2.051175 0.488992
v -4.378140 2.049780 0.487606
v -4.376479 2.050009 0.488066
v -4.376754 2.051175 0.488992
v -4.378140 2.049780 0.487606
v -4.377378 2.051772 0.490242
v -4.378941 2.051557 0.489809
v -4.378674 2.050911 0.488460
v -4.376754 2.051175 0.488992
v -4.377378 2.051772 0.490242
v -4.378674 2.050911 0.488460
v -4.378674 2.050911 0.488460
v -4.379983 2.049545 0.489133
v -4.379274 2.048597 0.488189
v -4.378140 2.049780 0.487606
v -4.378674 2.050911 0.488460
v -4.379274 2.048597 0.488189
v -4.378941 2.051557 0.489809
v -4.380007 2.050445 0.490357
v -4.379983 2.049545 0.489133
v -4.378674 2.050911 0.488460
v -4.378941 2.051557 0.489809
v -4.379983 2.049545 0.489133
v -4.379690 2.051039 0.491330
v -4.379538 2.050274 0.492059
v -4.379774 2.049273 0.491474
v -4.380007 2.050445 0.490357
v -4.379690 2.051039 0.491330
v -4.379774 2.049273 0.491474
v -4.378653 2.050046 0.492610
v -4.379538 2.050274 0.492059
v -4.377701 2.050527 0.492568
v -4.379690 2.051039 0.491330
v -4.377701 2.050527 0.492568
v -4.379538 2.050274 0.492059
v -4.377399 2.051354 0.491965
v -4.377701 2.050527 0.492568
v -4.379690 2.051039 0.491330
v -4.378994 2.051765 0.490973
v -4.377399 2.051354 0.491965
v -4.379690 2.051039 0.491330
v -4.377975 2.051905 0.491255
v -4.377399 2.051354 0.491965
v -4.378994 2.051765 0.490973
v -4.375740 2.043277 0.485459
v -4.374484 2.043911 0.485404
v -4.376908 2.043577 0.484732
v -4.377108 2.044587 0.483771
v -4.376908 2.043577 0.484732
v -4.374484 2.043911 0.485404
v -4.374085 2.045003 0.484608
v -4.377108 2.044587 0.483771
v -4.374484 2.043911 0.485404
v -4.376190 2.045545 0.483298
v -4.377108 2.044587 0.483771
v -4.374085 2.045003 0.484608
v -4.374845 2.045730 0.483671
v -4.376190 2.045545 0.483298
v -4.374085 2.045003 0.484608
vn 0.2867 -0.6304 -0.7214
vn -0.4338 0.8772 0.2059
vn 0.2975 0.6889 0.6610
vn 0.0335 0.9415 0.3354
vn -0.7529 0.5443 0.3699
vn -0.4339 0.8771 0.2059
vn -0.7529 0.5444 0.3699
vn 0.1591 0.3096 0.9375
vn -0.6833 0.1937 0.7040
vn 0.1590 0.3096 0.9375
vn -0.2774 0.0892 0.9566
vn -0.8399 -0.2720 0.4697
vn -0.9526 0.2957 -0.0712
vn -0.6832 0.1937 0.7040
vn -0.9255 0.0658 -0.3730
vn -0.4362 0.8345 -0.3368
vn -0.3602 0.6556 -0.6636
vn -0.9255 0.0659 -0.3729
vn -0.7649 -0.1731 -0.6204
vn -0.3602 0.6556 -0.6637
vn -0.2324 0.3825 -0.8943
vn 0.3206 0.9387 -0.1270
vn 0.4682 0.7697 -0.4341
vn -0.4361 0.8345 -0.3368
vn -0.2323 0.3825 -0.8943
vn 0.5480 0.4899 -0.6780
vn 0.4682 0.7696 -0.4341
vn 0.7479 0.5297 0.4000
vn 0.9359 0.3220 0.1429
vn 0.3207 0.9386 -0.1271
vn 0.7479 0.5298 0.4001
vn 0.9886 0.0683 -0.1344
vn 0.5239 -0.0843 0.8476
vn 0.6906 -0.3501 0.6328
vn 0.7479 0.5297 0.4001
vn 0.5238 -0.0843 0.8476
vn 0.9886 0.0682 -0.1344
vn 0.6907 -0.3501 0.6328
vn 0.7576 -0.5649 0.3271
vn 0.6907 -0.3500 0.6328
vn -0.1828 -0.4411 0.8787
vn -0.0828 -0.7407 0.6667
vn 0.7575 -0.5650 0.3270
vn -0.0829 -0.7407 0.6667
vn 0.0289 -0.9329 0.3591
vn 0.7575 -0.5650 0.3271
vn -0.8021 -0.5555 0.2191
vn -0.1828 -0.4411 0.8786
vn -0.8399 -0.2720 0.4698
vn 0.0289 -0.9329 0.3590
vn -0.6487 -0.7585 -0.0626
vn -0.9255 0.0659 -0.3730
vn -0.8021 -0.5555 0.2192
vn -0.6487 -0.7585 -0.0627
vn -0.7650 -0.1731 -0.6204
vn -0.6895 -0.7243 -0.0031
vn -0.8087 -0.1241 -0.5750
vn 0.7525 -0.5259 0.3966
vn 0.0053 -0.9031 0.4293
vn 0.7525 -0.5259 0.3965
vn 0.5376 0.5558 -0.6340
vn 0.9894 0.1234 -0.0767
vn 0.5376 0.5558 -0.6341
vn -0.8087 -0.1240 -0.5750
vn -0.2626 0.4456 -0.8559
vn -0.2626 0.4457 -0.8558
vn 0.5377 0.5558 -0.6341
vn -0.2626 0.4456 -0.8558
vn 0.5238 -0.0844 0.8476
vn 0.3206 0.9386 -0.1270
vn 0.3207 0.9386 -0.1270
vn 0.2974 0.6889 0.6610
vn -0.9526 0.2957 -0.0713
vn 0.0336 0.9415 0.3354
vn -0.9207 0.0542 -0.3865
vn -0.3551 0.6443 -0.6773
vn -0.9207 0.0543 -0.3865
vn -0.0776 -0.7527 0.6537
vn -0.7972 -0.5675 0.2059
vn -0.0777 -0.7527 0.6538
vn 0.9417 0.3105 0.1297
vn 0.6963 -0.3619 0.6198
vn -0.3550 0.6443 -0.6774
vn 0.4737 0.7584 -0.4477
vn -0.3550 0.6443 -0.6773
vn -0.0776 -0.7527 0.6538
vn 0.4738 0.7584 -0.4477
vn 0.9894 0.1235 -0.0767
vn 0.4737 0.7584 -0.4476
vt 0.530319 0.635056
vt 0.522446 0.641335
vt 0.524872 0.636299
vt 0.524872 0.646370
vt 0.534683 0.638535
vt 0.530319 0.647614
vt 0.534683 0.644127
vt 0.508789 0.671494
vt 0.513626 0.669548
vt 0.511276 0.672157
vt 0.507889 0.669609
vt 0.511566 0.666756
vt 0.507935 0.667854
vt 0.509277 0.666748
vt 0.506302 0.666855
vt 0.505722 0.669838
vt 0.502487 0.669685
vt 0.506897 0.673050
vt 0.503479 0.674789
vt 0.497520 0.669067
vt 0.497810 0.676537
vt 0.510727 0.675606
vt 0.507721 0.680244
vt 0.501465 0.684982
vt 0.518890 0.674767
vt 0.518692 0.686485
vt 0.509125 0.696274
vt 0.518890 0.658051
vt 0.512238 0.663902
vt 0.511536 0.659698
vt 0.517990 0.665543
vt 0.515472 0.651657
vt 0.509323 0.655174
vt 0.508469 0.664742
vt 0.506836 0.661980
vt 0.504074 0.658463
vt 0.503784 0.665283
vt 0.499901 0.662933
vt 0.495453 0.660286
vt 0.491707 0.668175
vt 0.506927 0.651588
vt 0.501038 0.654999
vt 0.494583 0.688484
vt 0.500031 0.699394
vt 0.491287 0.678001
vt 0.512177 0.648293
vt 0.627350 0.642853
vt 0.649124 0.647896
vt 0.627441 0.648445
vt 0.649033 0.642670
vt 0.627441 0.631676
vt 0.649033 0.637444
vt 0.627350 0.637268
vt 0.649124 0.632225
vt 0.627914 0.620506
vt 0.649292 0.626999
vt 0.627625 0.626091
vt 0.649551 0.621780
vt 0.649292 0.653114
vt 0.627625 0.654030
vt 0.649551 0.658333
vt 0.627914 0.659607
s 0
usemtl decorations
f 240/1/1 239/2/1 238/3/1
f 237/1/1 236/4/1 235/2/1
f 234/5/1 233/4/1 232/1/1
f 231/5/1 230/6/1 229/4/1
f 228/6/1 227/5/1 226/7/1
s 1
f 225/8/2 224/9/3 223/10/4
f 222/11/5 221/9/3 220/8/6
f 219/11/7 218/12/8 217/9/3
f 216/13/9 215/12/8 214/11/7
f 213/12/10 212/13/9 211/14/11
f 210/15/12 209/11/7 208/16/13
f 207/15/12 206/13/14 205/11/7
f 204/17/15 203/18/16 202/19/17
f 201/17/18 200/16/13 199/18/16
f 198/20/19 197/19/20 196/21/21
f 195/20/19 194/17/18 193/19/17
f 192/19/17 191/22/22 190/23/23
f 189/19/17 188/18/24 187/22/22
f 186/21/25 185/23/23 184/24/26
f 183/21/25 3/19/17 182/23/23
f 181/23/27 180/25/28 179/26/29
f 178/23/23 177/22/30 176/25/31
f 175/24/26 174/26/29 173/27/32
f 172/24/26 4/23/27 171/26/29
f 170/28/29 169/29/33 168/30/34
f 167/28/29 166/31/35 165/29/36
f 164/32/37 163/30/38 162/33/39
f 161/32/37 13/28/29 160/30/40
f 159/30/34 158/34/41 157/35/42
f 156/30/34 155/29/36 154/34/41
f 153/33/43 152/35/44 151/36/45
f 150/33/46 14/30/34 149/35/44
f 148/35/44 147/15/12 146/37/47
f 145/35/44 144/34/48 143/15/49
f 142/36/50 141/37/47 140/38/51
f 139/36/50 16/35/44 138/37/47
f 137/37/47 136/16/13 135/17/52
f 134/37/53 133/15/12 132/16/13
f 131/38/54 130/17/52 129/20/55
f 128/38/54 36/37/53 25/17/52
f 127/39/56 126/20/55 125/40/57
f 124/39/56 123/38/51 122/20/55
f 121/41/58 120/36/45 119/42/59
f 118/41/60 117/33/43 116/36/45
f 115/43/61 114/27/32 113/44/62
f 112/43/63 111/24/26 110/27/32
f 109/40/64 108/21/21 107/45/65
f 106/40/57 40/20/19 105/21/21
f 104/42/59 103/38/51 102/39/56
f 101/42/59 41/36/45 42/38/51
f 100/46/62 99/33/39 98/41/60
f 97/46/62 37/32/37 38/33/39
f 96/45/66 95/24/26 94/43/67
f 93/45/68 33/21/21 34/24/26
f 92/29/69 91/14/11 90/34/41
f 89/29/69 88/12/10 87/14/11
f 86/22/70 85/9/3 84/25/31
f 83/22/71 82/10/4 81/9/72
f 80/16/13 79/8/6 78/18/16
f 29/16/73 30/11/5 77/8/6
f 76/31/35 75/12/10 28/29/36
f 31/31/35 26/9/72 27/12/10
f 74/18/24 73/10/74 24/22/22
f 21/18/24 22/8/6 23/10/4
f 72/34/48 71/13/9 20/15/12
f 17/34/48 18/14/11 19/13/14
f 70/47/75 69/48/66 68/49/76
f 67/47/77 66/50/57 65/48/68
f 64/51/78 63/52/56 62/53/79
f 61/51/80 60/54/59 59/52/56
f 58/55/81 57/56/58 56/57/82
f 55/55/81 54/58/62 53/56/60
f 52/49/83 51/59/63 50/60/84
f 2/49/85 32/48/68 49/59/63
f 48/53/79 47/50/64 12/47/75
f 9/53/79 10/52/56 11/50/57
f 46/57/82 45/54/59 8/51/86
f 5/57/82 6/56/58 7/54/59
f 44/60/87 43/61/88 15/62/81
f 1/60/89 35/59/63 39/61/62
