# Blender 5.0.0
# www.blender.org
mtllib Circle_005_Circle_003_Dupli_77_decorations_0.mtl
o Circle.005|Circle.003|Dupli|77_decorations_0
v -4.467982 1.689561 0.786276
v -4.469225 1.690058 0.786714
v -4.470113 1.694401 0.780237
v -4.468340 1.693692 0.779611
v -4.466324 1.691140 0.787371
v -4.466659 1.694395 0.782995
v -4.467438 1.695225 0.783658
v -4.467158 1.692027 0.788080
v -4.468564 1.692036 0.788161
v -4.468752 1.695233 0.783734
v -4.469613 1.694414 0.783165
v -4.469484 1.691160 0.787553
v -4.466498 1.694378 0.780029
v -4.465975 1.695944 0.781174
v -4.466691 1.690042 0.786568
v -4.467164 1.697209 0.782185
v -4.467427 1.697773 0.780799
v -4.467775 1.697893 0.779675
v -4.468841 1.697899 0.779736
v -4.469059 1.697783 0.780893
v -4.469827 1.695487 0.779213
v -4.469342 1.696401 0.778640
v -4.468400 1.696025 0.778308
v -4.468385 1.694910 0.778704
v -4.470482 1.695972 0.781434
v -4.467422 1.696389 0.778529
v -4.467144 1.697221 0.779138
v -4.466460 1.696743 0.779976
v -4.470128 1.696766 0.780187
v -4.469538 1.697236 0.779276
v -4.466886 1.695469 0.779044
v -4.469371 1.693385 0.782381
v -4.469800 1.693667 0.781523
v -4.468265 1.693053 0.780982
v -4.468209 1.692920 0.781971
v -4.469169 1.697222 0.782301
v -4.466671 1.693647 0.781343
v -4.466218 1.695002 0.782335
v -4.467002 1.693370 0.782245
v -4.470119 1.695027 0.782560
v -4.467247 1.696098 0.783210
v -4.468983 1.696109 0.783310
v -4.467002 1.693370 0.782245
v -4.467982 1.689561 0.786276
v -4.467438 1.695225 0.783658
v -4.466324 1.691140 0.787371
v -4.469613 1.694414 0.783165
v -4.468564 1.692036 0.788161
v -4.468209 1.692920 0.781971
v -4.467982 1.689561 0.786276
v -4.468209 1.692920 0.781971
v -4.469225 1.690058 0.786714
v -4.466659 1.694395 0.782995
v -4.467002 1.693370 0.782245
v -4.466691 1.690042 0.786568
v -4.466324 1.691140 0.787371
v -4.466659 1.694395 0.782995
v -4.466691 1.690042 0.786568
v -4.468752 1.695233 0.783734
v -4.467438 1.695225 0.783658
v -4.467158 1.692027 0.788080
v -4.468564 1.692036 0.788161
v -4.468752 1.695233 0.783734
v -4.467158 1.692027 0.788080
v -4.469371 1.693385 0.782381
v -4.469613 1.694414 0.783165
v -4.469484 1.691160 0.787553
v -4.469225 1.690058 0.786714
v -4.469371 1.693385 0.782381
v -4.469484 1.691160 0.787553
v -4.468841 1.697899 0.779736
v -4.467427 1.697773 0.780799
v -4.468400 1.696025 0.778308
v -4.469827 1.695487 0.779213
v -4.467144 1.697221 0.779138
v -4.466886 1.695469 0.779044
v -4.469342 1.696401 0.778640
v -4.469827 1.695487 0.779213
v -4.469342 1.696401 0.778640
v -4.470128 1.696766 0.780187
v -4.467422 1.696389 0.778529
v -4.468400 1.696025 0.778308
v -4.468385 1.694910 0.778704
v -4.466886 1.695469 0.779044
v -4.467422 1.696389 0.778529
v -4.468385 1.694910 0.778704
v -4.467775 1.697893 0.779675
v -4.467144 1.697221 0.779138
v -4.466460 1.696743 0.779976
v -4.467427 1.697773 0.780799
v -4.467775 1.697893 0.779675
v -4.466460 1.696743 0.779976
v -4.469371 1.693385 0.782381
v -4.468209 1.692920 0.781971
v -4.468265 1.693053 0.780982
v -4.469371 1.693385 0.782381
v -4.467002 1.693370 0.782245
v -4.466659 1.694395 0.782995
v -4.466218 1.695002 0.782335
v -4.467002 1.693370 0.782245
v -4.467438 1.695225 0.783658
v -4.468752 1.695233 0.783734
v -4.468983 1.696109 0.783310
v -4.467438 1.695225 0.783658
v -4.469800 1.693667 0.781523
v -4.469613 1.694414 0.783165
v -4.469371 1.693385 0.782381
v -4.469800 1.693667 0.781523
v -4.469613 1.694414 0.783165
v -4.466671 1.693647 0.781343
v -4.468265 1.693053 0.780982
v -4.468209 1.692920 0.781971
v -4.467002 1.693370 0.782245
v -4.466671 1.693647 0.781343
v -4.468209 1.692920 0.781971
v -4.467247 1.696098 0.783210
v -4.466218 1.695002 0.782335
v -4.466659 1.694395 0.782995
v -4.467438 1.695225 0.783658
v -4.467247 1.696098 0.783210
v -4.466659 1.694395 0.782995
v -4.470119 1.695027 0.782560
v -4.468983 1.696109 0.783310
v -4.468752 1.695233 0.783734
v -4.469613 1.694414 0.783165
v -4.470119 1.695027 0.782560
v -4.468752 1.695233 0.783734
v -4.468983 1.696109 0.783310
v -4.470119 1.695027 0.782560
v -4.470482 1.695972 0.781434
v -4.468983 1.696109 0.783310
v -4.470128 1.696766 0.780187
v -4.469059 1.697783 0.780893
v -4.469169 1.697222 0.782301
v -4.470482 1.695972 0.781434
v -4.470128 1.696766 0.780187
v -4.469169 1.697222 0.782301
v -4.469169 1.697222 0.782301
v -4.467247 1.696098 0.783210
v -4.468983 1.696109 0.783310
v -4.469169 1.697222 0.782301
v -4.467247 1.696098 0.783210
v -4.469059 1.697783 0.780893
v -4.467427 1.697773 0.780799
v -4.467164 1.697209 0.782185
v -4.469169 1.697222 0.782301
v -4.469059 1.697783 0.780893
v -4.467164 1.697209 0.782185
v -4.467164 1.697209 0.782185
v -4.466218 1.695002 0.782335
v -4.467247 1.696098 0.783210
v -4.467164 1.697209 0.782185
v -4.466218 1.695002 0.782335
v -4.467427 1.697773 0.780799
v -4.466460 1.696743 0.779976
v -4.465975 1.695944 0.781174
v -4.467164 1.697209 0.782185
v -4.467427 1.697773 0.780799
v -4.465975 1.695944 0.781174
v -4.465975 1.695944 0.781174
v -4.466671 1.693647 0.781343
v -4.466218 1.695002 0.782335
v -4.465975 1.695944 0.781174
v -4.466671 1.693647 0.781343
v -4.466460 1.696743 0.779976
v -4.466886 1.695469 0.779044
v -4.466498 1.694378 0.780029
v -4.465975 1.695944 0.781174
v -4.466460 1.696743 0.779976
v -4.466498 1.694378 0.780029
v -4.466498 1.694378 0.780029
v -4.468265 1.693053 0.780982
v -4.466671 1.693647 0.781343
v -4.466498 1.694378 0.780029
v -4.468265 1.693053 0.780982
v -4.466886 1.695469 0.779044
v -4.468385 1.694910 0.778704
v -4.468340 1.693692 0.779611
v -4.466498 1.694378 0.780029
v -4.466886 1.695469 0.779044
v -4.468340 1.693692 0.779611
v -4.468340 1.693692 0.779611
v -4.469800 1.693667 0.781523
v -4.468265 1.693053 0.780982
v -4.468340 1.693692 0.779611
v -4.469800 1.693667 0.781523
v -4.468385 1.694910 0.778704
v -4.469827 1.695487 0.779213
v -4.470113 1.694401 0.780237
v -4.468340 1.693692 0.779611
v -4.468385 1.694910 0.778704
v -4.470113 1.694401 0.780237
v -4.470113 1.694401 0.780237
v -4.470482 1.695972 0.781434
v -4.470119 1.695027 0.782560
v -4.469800 1.693667 0.781523
v -4.470113 1.694401 0.780237
v -4.470119 1.695027 0.782560
v -4.469827 1.695487 0.779213
v -4.470128 1.696766 0.780187
v -4.470482 1.695972 0.781434
v -4.470113 1.694401 0.780237
v -4.469827 1.695487 0.779213
v -4.470482 1.695972 0.781434
v -4.469538 1.697236 0.779276
v -4.468841 1.697899 0.779736
v -4.469059 1.697783 0.780893
v -4.470128 1.696766 0.780187
v -4.469538 1.697236 0.779276
v -4.469059 1.697783 0.780893
v -4.467775 1.697893 0.779675
v -4.468841 1.697899 0.779736
v -4.467144 1.697221 0.779138
v -4.469538 1.697236 0.779276
v -4.467144 1.697221 0.779138
v -4.468841 1.697899 0.779736
v -4.467422 1.696389 0.778529
v -4.467144 1.697221 0.779138
v -4.469538 1.697236 0.779276
v -4.469342 1.696401 0.778640
v -4.467422 1.696389 0.778529
v -4.469538 1.697236 0.779276
v -4.468400 1.696025 0.778308
v -4.467422 1.696389 0.778529
v -4.469342 1.696401 0.778640
v -4.467158 1.692027 0.788080
v -4.466324 1.691140 0.787371
v -4.468564 1.692036 0.788161
v -4.469484 1.691160 0.787553
v -4.468564 1.692036 0.788161
v -4.466324 1.691140 0.787371
v -4.466691 1.690042 0.786568
v -4.469484 1.691160 0.787553
v -4.466324 1.691140 0.787371
v -4.469225 1.690058 0.786714
v -4.469484 1.691160 0.787553
v -4.466691 1.690042 0.786568
v -4.467982 1.689561 0.786276
v -4.469225 1.690058 0.786714
v -4.466691 1.690042 0.786568
vn 0.0423 -0.5992 0.7995
vn -0.4889 0.2162 -0.8451
vn 0.3914 0.2107 -0.8958
vn -0.0572 0.0434 -0.9974
vn -0.5788 0.5988 -0.5536
vn 0.3914 0.2106 -0.8958
vn -0.5788 0.5987 -0.5536
vn 0.5189 0.5919 -0.6168
vn -0.2591 0.9031 -0.3424
vn 0.2294 0.9001 -0.3705
vn -0.3802 0.9055 0.1883
vn -0.8977 0.4128 -0.1537
vn -0.3803 0.9055 0.1883
vn -0.5787 0.5988 -0.5536
vn -0.9654 0.2068 0.1588
vn -0.7523 -0.2066 -0.6256
vn -0.8062 -0.4712 -0.3579
vn -0.9654 0.2069 0.1587
vn -0.8978 0.4128 -0.1537
vn -0.8937 -0.0287 0.4478
vn -0.7437 -0.6674 -0.0390
vn -0.9654 0.2068 0.1587
vn -0.8062 -0.4711 -0.3579
vn -0.0533 -0.4862 -0.8722
vn -0.0411 -0.7773 -0.6278
vn -0.7436 -0.6674 -0.0389
vn -0.0230 -0.9558 -0.2932
vn -0.7437 -0.6674 -0.0389
vn 0.6728 -0.2156 -0.7077
vn 0.7538 -0.4810 -0.4477
vn -0.0533 -0.4863 -0.8722
vn -0.0229 -0.9558 -0.2931
vn 0.7538 -0.4811 -0.4477
vn 0.7259 -0.6767 -0.1236
vn 0.7538 -0.4810 -0.4476
vn 0.8793 0.4016 -0.2560
vn 0.9798 0.1945 0.0467
vn 0.7259 -0.6767 -0.1235
vn 0.9388 -0.0403 0.3422
vn 0.4107 0.9005 0.1427
vn 0.4668 0.7407 0.4832
vn 0.9387 -0.0403 0.3422
vn 0.4555 0.4743 0.7534
vn -0.3989 0.7462 0.5330
vn 0.4107 0.9005 0.1428
vn -0.3802 0.9056 0.1883
vn -0.3989 0.7461 0.5330
vn -0.3600 0.4795 0.8003
vn -0.3989 0.7461 0.5331
vn -0.8978 0.4128 -0.1536
vn -0.8977 0.4129 -0.1537
vn -0.3600 0.4794 0.8004
vn -0.8937 -0.0287 0.4477
vn -0.3728 0.5424 0.7529
vn -0.8937 -0.0286 0.4477
vn -0.9200 0.0214 0.3913
vn -0.3600 0.4794 0.8003
vn 0.9590 0.0095 0.2831
vn 0.4635 0.5371 0.7048
vn -0.0271 -0.9293 -0.3684
vn 0.7258 -0.6767 -0.1236
vn 0.7407 -0.6431 -0.1944
vn -0.0229 -0.9558 -0.2932
vn -0.7662 -0.6336 -0.1076
vn 0.4635 0.5371 0.7047
vn 0.7407 -0.6431 -0.1945
vn 0.9590 0.0095 0.2832
vn 0.7259 -0.6766 -0.1235
vn -0.7662 -0.6336 -0.1077
vn 0.2294 0.9000 -0.3705
vn 0.8793 0.4016 -0.2559
vn 0.3913 0.2107 -0.8958
vn 0.4106 0.9006 0.1427
vn -0.9652 0.1958 0.1736
vn -0.7662 -0.6335 -0.1077
vn -0.8058 -0.4825 -0.3433
vn -0.9652 0.1959 0.1736
vn -0.9200 0.0214 0.3914
vn 0.4678 0.7300 0.4983
vn -0.3983 0.7355 0.5481
vn 0.4678 0.7300 0.4982
vn 0.7550 -0.4924 -0.4331
vn 0.9590 0.0096 0.2831
vn 0.9811 0.1835 0.0615
vn 0.7550 -0.4923 -0.4331
vn -0.0404 -0.7888 -0.6133
vn -0.9651 0.1959 0.1736
vn -0.0403 -0.7888 -0.6133
vt 0.530319 0.611839
vt 0.522446 0.618118
vt 0.524872 0.613083
vt 0.524872 0.623154
vt 0.534683 0.615326
vt 0.530319 0.624397
vt 0.534683 0.620918
vt 0.537079 0.671494
vt 0.541916 0.669548
vt 0.539566 0.672157
vt 0.536179 0.669609
vt 0.539856 0.666756
vt 0.536224 0.667854
vt 0.537567 0.666748
vt 0.534592 0.666855
vt 0.534012 0.669838
vt 0.530777 0.669685
vt 0.535187 0.673050
vt 0.531769 0.674789
vt 0.525803 0.669067
vt 0.526108 0.676537
vt 0.539017 0.675606
vt 0.536011 0.680244
vt 0.529755 0.684982
vt 0.547180 0.674767
vt 0.546982 0.686485
vt 0.537415 0.696274
vt 0.547180 0.658051
vt 0.540527 0.663902
vt 0.539825 0.659698
vt 0.546280 0.665543
vt 0.543762 0.651657
vt 0.537613 0.655174
vt 0.536758 0.664742
vt 0.535126 0.661980
vt 0.532364 0.658463
vt 0.532074 0.665283
vt 0.528198 0.662933
vt 0.523743 0.660286
vt 0.519989 0.668175
vt 0.535217 0.651588
vt 0.529327 0.654999
vt 0.522873 0.688484
vt 0.528320 0.699394
vt 0.519577 0.678001
vt 0.540466 0.648293
vt 0.604446 0.642853
vt 0.626221 0.647896
vt 0.604553 0.648445
vt 0.626144 0.642670
vt 0.604553 0.631676
vt 0.626144 0.637444
vt 0.604446 0.637268
vt 0.626221 0.632225
vt 0.605011 0.620506
vt 0.626404 0.626999
vt 0.604736 0.626091
vt 0.626663 0.621780
vt 0.626404 0.653114
vt 0.604736 0.654030
vt 0.626663 0.658333
vt 0.605011 0.659607
s 0
usemtl decorations
f 240/1/1 239/2/1 238/3/1
f 237/1/1 236/4/1 235/2/1
f 234/5/1 233/4/1 232/1/1
f 231/5/1 230/6/1 229/4/1
f 228/6/1 227/5/1 226/7/1
s 1
f 225/8/2 224/9/3 223/10/4
f 222/11/5 221/9/6 220/8/2
f 219/11/7 218/12/8 217/9/3
f 216/13/9 215/12/8 214/11/5
f 213/12/8 212/13/9 211/14/10
f 210/15/11 209/11/5 208/16/12
f 207/15/13 206/13/9 205/11/14
f 204/17/15 203/18/16 202/19/17
f 201/17/18 200/16/19 199/18/16
f 198/20/20 197/19/17 196/21/21
f 195/20/20 194/17/22 193/19/23
f 192/19/17 191/22/24 190/23/25
f 189/19/17 188/18/16 187/22/24
f 186/21/26 185/23/25 184/24/27
f 183/21/28 3/19/17 182/23/25
f 181/23/25 180/25/29 179/26/30
f 178/23/25 177/22/31 176/25/29
f 175/24/32 174/26/33 173/27/34
f 172/24/32 4/23/25 171/26/33
f 170/28/35 169/29/36 168/30/37
f 167/28/35 166/31/29 165/29/36
f 164/32/38 163/30/37 162/33/39
f 161/32/38 13/28/30 160/30/37
f 159/30/37 158/34/40 157/35/41
f 156/30/37 155/29/36 154/34/40
f 153/33/42 152/35/41 151/36/43
f 150/33/39 14/30/37 149/35/41
f 148/35/41 147/15/11 146/37/44
f 145/35/41 144/34/45 143/15/46
f 142/36/43 141/37/47 140/38/48
f 139/36/43 16/35/41 138/37/47
f 137/37/49 136/16/50 135/17/22
f 134/37/44 133/15/11 132/16/51
f 131/38/52 130/17/22 129/20/53
f 128/38/52 36/37/44 25/17/22
f 127/39/54 126/20/55 125/40/56
f 124/39/54 123/38/57 122/20/55
f 121/41/58 120/36/43 119/42/59
f 118/41/58 117/33/39 116/36/43
f 115/43/60 114/27/61 113/44/62
f 112/43/60 111/24/63 110/27/61
f 109/40/56 108/21/28 107/45/64
f 106/40/56 40/20/20 105/21/28
f 104/42/65 103/38/57 102/39/54
f 101/42/59 41/36/43 42/38/57
f 100/46/66 99/33/39 98/41/67
f 97/46/66 37/32/68 38/33/39
f 96/45/69 95/24/63 94/43/60
f 93/45/69 33/21/28 34/24/63
f 92/29/36 91/14/70 90/34/40
f 89/29/71 88/12/8 87/14/10
f 86/22/24 85/9/6 84/25/29
f 83/22/31 82/10/4 81/9/72
f 80/16/19 79/8/2 78/18/16
f 29/16/19 30/11/5 77/8/2
f 76/31/29 75/12/8 28/29/36
f 31/31/29 26/9/72 27/12/8
f 74/18/16 73/10/4 24/22/31
f 21/18/16 22/8/2 23/10/4
f 72/34/73 71/13/9 20/15/11
f 17/34/73 18/14/10 19/13/9
f 70/47/74 69/48/75 68/49/76
f 67/47/77 66/50/78 65/48/75
f 64/51/79 63/52/54 62/53/80
f 61/51/81 60/54/59 59/52/54
f 58/55/82 57/56/83 56/57/84
f 55/55/85 54/58/62 53/56/67
f 52/49/76 51/59/60 50/60/86
f 2/49/76 32/48/69 49/59/60
f 48/53/80 47/50/56 12/47/87
f 9/53/80 10/52/54 11/50/56
f 46/57/84 45/54/59 8/51/81
f 5/57/84 6/56/67 7/54/59
f 44/60/88 43/61/66 15/62/82
f 1/60/88 35/59/60 39/61/66
