# Blender 5.0.0
# www.blender.org
mtllib Circle_005_Circle_Dupli_51_decorations_0.mtl
o Circle.005|Circle|Dupli|51_decorations_0
v -4.434651 2.054353 0.714119
v -4.434098 2.053625 0.713048
v -4.432714 2.060162 0.708928
v -4.433505 2.061200 0.710456
v -4.437138 2.054298 0.713613
v -4.436560 2.058880 0.710691
v -4.436616 2.058187 0.709573
v -4.437198 2.053557 0.712417
v -4.436140 2.052987 0.711683
v -4.435627 2.057654 0.708887
v -4.434337 2.057683 0.709149
v -4.434760 2.053018 0.711964
v -4.435435 2.061627 0.710815
v -4.437052 2.061122 0.709735
v -4.436004 2.054652 0.714371
v -4.437138 2.060064 0.708029
v -4.436614 2.061356 0.707422
v -4.435927 2.062280 0.707150
v -4.435125 2.061848 0.706593
v -4.435385 2.060694 0.706570
v -4.433014 2.061435 0.708154
v -4.433578 2.062331 0.707627
v -4.433998 2.062883 0.708439
v -4.433657 2.062279 0.709398
v -4.433660 2.059294 0.707381
v -4.435023 2.063109 0.708630
v -4.435882 2.062841 0.708056
v -4.436543 2.062216 0.708811
v -4.433784 2.060729 0.706896
v -4.434080 2.061871 0.706806
v -4.435228 2.062627 0.709690
v -4.433718 2.058251 0.710163
v -4.433156 2.058940 0.709707
v -4.433840 2.059839 0.711030
v -4.434236 2.058931 0.711164
v -4.435628 2.059251 0.706981
v -4.435510 2.060209 0.711341
v -4.436910 2.059771 0.710405
v -4.435500 2.059211 0.711399
v -4.433974 2.058190 0.708368
v -4.436985 2.058856 0.708928
v -4.435678 2.058152 0.708022
v -4.435500 2.059211 0.711399
v -4.434651 2.054353 0.714119
v -4.436616 2.058187 0.709573
v -4.437138 2.054298 0.713613
v -4.434337 2.057683 0.709149
v -4.436140 2.052987 0.711683
v -4.434236 2.058931 0.711164
v -4.434651 2.054353 0.714119
v -4.434236 2.058931 0.711164
v -4.434098 2.053625 0.713048
v -4.436560 2.058880 0.710691
v -4.435500 2.059211 0.711399
v -4.436004 2.054652 0.714371
v -4.437138 2.054298 0.713613
v -4.436560 2.058880 0.710691
v -4.436004 2.054652 0.714371
v -4.435627 2.057654 0.708887
v -4.436616 2.058187 0.709573
v -4.437198 2.053557 0.712417
v -4.436140 2.052987 0.711683
v -4.435627 2.057654 0.708887
v -4.437198 2.053557 0.712417
v -4.433718 2.058251 0.710163
v -4.434337 2.057683 0.709149
v -4.434760 2.053018 0.711964
v -4.434098 2.053625 0.713048
v -4.433718 2.058251 0.710163
v -4.434760 2.053018 0.711964
v -4.435125 2.061848 0.706593
v -4.436614 2.061356 0.707422
v -4.433998 2.062883 0.708439
v -4.433014 2.061435 0.708154
v -4.435882 2.062841 0.708056
v -4.435228 2.062627 0.709690
v -4.433578 2.062331 0.707627
v -4.433014 2.061435 0.708154
v -4.433578 2.062331 0.707627
v -4.433784 2.060729 0.706896
v -4.435023 2.063109 0.708630
v -4.433998 2.062883 0.708439
v -4.433657 2.062279 0.709398
v -4.435228 2.062627 0.709690
v -4.435023 2.063109 0.708630
v -4.433657 2.062279 0.709398
v -4.435927 2.062280 0.707150
v -4.435882 2.062841 0.708056
v -4.436543 2.062216 0.708811
v -4.436614 2.061356 0.707422
v -4.435927 2.062280 0.707150
v -4.436543 2.062216 0.708811
v -4.433718 2.058251 0.710163
v -4.434236 2.058931 0.711164
v -4.433840 2.059839 0.711030
v -4.433718 2.058251 0.710163
v -4.435500 2.059211 0.711399
v -4.436560 2.058880 0.710691
v -4.436910 2.059771 0.710405
v -4.435500 2.059211 0.711399
v -4.436616 2.058187 0.709573
v -4.435627 2.057654 0.708887
v -4.435678 2.058152 0.708022
v -4.436616 2.058187 0.709573
v -4.433156 2.058940 0.709707
v -4.434337 2.057683 0.709149
v -4.433718 2.058251 0.710163
v -4.433156 2.058940 0.709707
v -4.434337 2.057683 0.709149
v -4.435510 2.060209 0.711341
v -4.433840 2.059839 0.711030
v -4.434236 2.058931 0.711164
v -4.435500 2.059211 0.711399
v -4.435510 2.060209 0.711341
v -4.434236 2.058931 0.711164
v -4.436985 2.058856 0.708928
v -4.436910 2.059771 0.710405
v -4.436560 2.058880 0.710691
v -4.436616 2.058187 0.709573
v -4.436985 2.058856 0.708928
v -4.436560 2.058880 0.710691
v -4.433974 2.058190 0.708368
v -4.435678 2.058152 0.708022
v -4.435627 2.057654 0.708887
v -4.434337 2.057683 0.709149
v -4.433974 2.058190 0.708368
v -4.435627 2.057654 0.708887
v -4.435678 2.058152 0.708022
v -4.433974 2.058190 0.708368
v -4.433660 2.059294 0.707381
v -4.435678 2.058152 0.708022
v -4.433784 2.060729 0.706896
v -4.435385 2.060694 0.706570
v -4.435628 2.059251 0.706981
v -4.433660 2.059294 0.707381
v -4.433784 2.060729 0.706896
v -4.435628 2.059251 0.706981
v -4.435628 2.059251 0.706981
v -4.436985 2.058856 0.708928
v -4.435678 2.058152 0.708022
v -4.435628 2.059251 0.706981
v -4.436985 2.058856 0.708928
v -4.435385 2.060694 0.706570
v -4.436614 2.061356 0.707422
v -4.437138 2.060064 0.708029
v -4.435628 2.059251 0.706981
v -4.435385 2.060694 0.706570
v -4.437138 2.060064 0.708029
v -4.437138 2.060064 0.708029
v -4.436910 2.059771 0.710405
v -4.436985 2.058856 0.708928
v -4.437138 2.060064 0.708029
v -4.436910 2.059771 0.710405
v -4.436614 2.061356 0.707422
v -4.436543 2.062216 0.708811
v -4.437052 2.061122 0.709735
v -4.437138 2.060064 0.708029
v -4.436614 2.061356 0.707422
v -4.437052 2.061122 0.709735
v -4.437052 2.061122 0.709735
v -4.435510 2.060209 0.711341
v -4.436910 2.059771 0.710405
v -4.437052 2.061122 0.709735
v -4.435510 2.060209 0.711341
v -4.436543 2.062216 0.708811
v -4.435228 2.062627 0.709690
v -4.435435 2.061627 0.710815
v -4.437052 2.061122 0.709735
v -4.436543 2.062216 0.708811
v -4.435435 2.061627 0.710815
v -4.435435 2.061627 0.710815
v -4.433840 2.059839 0.711030
v -4.435510 2.060209 0.711341
v -4.435435 2.061627 0.710815
v -4.433840 2.059839 0.711030
v -4.435228 2.062627 0.709690
v -4.433657 2.062279 0.709398
v -4.433505 2.061200 0.710456
v -4.435435 2.061627 0.710815
v -4.435228 2.062627 0.709690
v -4.433505 2.061200 0.710456
v -4.433505 2.061200 0.710456
v -4.433156 2.058940 0.709707
v -4.433840 2.059839 0.711030
v -4.433505 2.061200 0.710456
v -4.433156 2.058940 0.709707
v -4.433657 2.062279 0.709398
v -4.433014 2.061435 0.708154
v -4.432714 2.060162 0.708928
v -4.433505 2.061200 0.710456
v -4.433657 2.062279 0.709398
v -4.432714 2.060162 0.708928
v -4.432714 2.060162 0.708928
v -4.433660 2.059294 0.707381
v -4.433974 2.058190 0.708368
v -4.433156 2.058940 0.709707
v -4.432714 2.060162 0.708928
v -4.433974 2.058190 0.708368
v -4.433014 2.061435 0.708154
v -4.433784 2.060729 0.706896
v -4.433660 2.059294 0.707381
v -4.432714 2.060162 0.708928
v -4.433014 2.061435 0.708154
v -4.433660 2.059294 0.707381
v -4.434080 2.061871 0.706806
v -4.435125 2.061848 0.706593
v -4.435385 2.060694 0.706570
v -4.433784 2.060729 0.706896
v -4.434080 2.061871 0.706806
v -4.435385 2.060694 0.706570
v -4.435927 2.062280 0.707150
v -4.435125 2.061848 0.706593
v -4.435882 2.062841 0.708056
v -4.434080 2.061871 0.706806
v -4.435882 2.062841 0.708056
v -4.435125 2.061848 0.706593
v -4.435023 2.063109 0.708630
v -4.435882 2.062841 0.708056
v -4.434080 2.061871 0.706806
v -4.433578 2.062331 0.707627
v -4.435023 2.063109 0.708630
v -4.434080 2.061871 0.706806
v -4.433998 2.062883 0.708439
v -4.435023 2.063109 0.708630
v -4.433578 2.062331 0.707627
v -4.437198 2.053557 0.712417
v -4.437138 2.054298 0.713613
v -4.436140 2.052987 0.711683
v -4.434760 2.053018 0.711964
v -4.436140 2.052987 0.711683
v -4.437138 2.054298 0.713613
v -4.436004 2.054652 0.714371
v -4.434760 2.053018 0.711964
v -4.437138 2.054298 0.713613
v -4.434098 2.053625 0.713048
v -4.434760 2.053018 0.711964
v -4.436004 2.054652 0.714371
v -4.434651 2.054353 0.714119
v -4.434098 2.053625 0.713048
v -4.436004 2.054652 0.714371
vn -0.0888 -0.8447 0.5278
vn 0.6345 0.6423 -0.4299
vn -0.0281 0.9992 0.0296
vn 0.4421 0.8951 -0.0578
vn 0.4043 0.4311 -0.8067
vn -0.0280 0.9992 0.0296
vn 0.6345 0.6423 -0.4300
vn 0.4043 0.4312 -0.8066
vn -0.4218 0.8761 -0.2335
vn -0.0751 0.4206 -0.9041
vn 0.4043 0.4311 -0.8066
vn -0.0750 0.4206 -0.9041
vn -0.4427 0.6186 -0.6491
vn -0.2040 -0.1037 -0.9735
vn 0.5720 -0.0866 -0.8156
vn 0.5899 -0.4403 -0.6769
vn 0.9447 0.2553 -0.2058
vn 0.9978 -0.0660 -0.0095
vn 0.5899 -0.4402 -0.6769
vn 0.5721 -0.0866 -0.8156
vn 0.9447 0.2553 -0.2059
vn 0.5226 -0.7298 -0.4408
vn 0.9978 -0.0660 -0.0094
vn 0.9069 -0.3772 0.1880
vn 0.6333 0.6646 0.3967
vn 0.6569 0.3820 0.6501
vn 0.9068 -0.3772 0.1880
vn 0.5857 0.0448 0.8093
vn -0.1278 0.8330 0.5383
vn -0.1762 0.5664 0.8051
vn 0.6332 0.6645 0.3967
vn -0.1277 0.8330 0.5383
vn 0.5856 0.0448 0.8093
vn -0.1991 0.2185 0.9553
vn 0.6568 0.3820 0.6501
vn -0.1762 0.5663 0.8051
vn -0.7653 0.6338 0.1123
vn -0.8740 0.3484 0.3388
vn -0.8740 0.3483 0.3388
vn -0.8565 0.0131 0.5160
vn -0.7992 0.2170 -0.5605
vn -0.9112 -0.1080 -0.3977
vn -0.8565 0.0130 0.5160
vn -0.8915 -0.4168 -0.1778
vn -0.9111 -0.1080 -0.3977
vn -0.2041 -0.1037 -0.9734
vn -0.2597 -0.4589 -0.8497
vn -0.7992 0.2169 -0.5605
vn -0.2041 -0.1036 -0.9735
vn -0.8914 -0.4168 -0.1778
vn -0.2596 -0.4589 -0.8497
vn -0.2778 -0.7473 -0.6036
vn -0.2596 -0.4590 -0.8497
vn -0.2777 -0.7474 -0.6035
vn -0.2772 -0.6948 -0.6637
vn 0.5434 -0.6767 -0.4967
vn -0.2772 -0.6948 -0.6636
vn -0.2777 -0.7474 -0.6036
vn -0.8707 0.0850 0.4844
vn -0.8915 -0.4167 -0.1777
vn -0.9066 -0.3558 -0.2270
vn -0.8565 0.0130 0.5161
vn 0.6081 0.1176 0.7851
vn -0.1966 0.2956 0.9348
vn 0.6081 0.1175 0.7851
vn 0.5434 -0.6767 -0.4968
vn 0.9374 -0.3153 0.1480
vn -0.9066 -0.3557 -0.2270
vn -0.8915 -0.4168 -0.1777
vn -0.1966 0.2957 0.9348
vn -0.8564 0.0131 0.5161
vn 0.9374 -0.3152 0.1480
vn 0.6081 0.1175 0.7852
vn -0.4217 0.8761 -0.2335
vn 0.6332 0.6646 0.3967
vn 0.6344 0.6423 -0.4300
vn 0.9447 0.2552 -0.2058
vn 0.5886 -0.4561 -0.6675
vn 0.9967 -0.0817 0.0003
vn -0.9133 -0.1237 -0.3882
vn -0.2615 -0.4748 -0.8404
vn -0.1780 0.5510 0.8153
vn -0.8761 0.3329 0.3488
vn -0.1780 0.5511 0.8152
vn -0.1966 0.2956 0.9349
vn 0.6556 0.3665 0.6602
vn 0.9967 -0.0816 0.0003
vn -0.2614 -0.4748 -0.8404
vn 0.5885 -0.4561 -0.6675
vn -0.2614 -0.4747 -0.8404
vn -0.9133 -0.1237 -0.3881
vn -0.8761 0.3329 0.3487
vn -0.1779 0.5511 0.8153
vn 0.6556 0.3666 0.6602
vt 0.543243 0.611839
vt 0.535370 0.618118
vt 0.537796 0.613083
vt 0.537796 0.623154
vt 0.547607 0.615326
vt 0.543243 0.624397
vt 0.547607 0.620918
vt 0.565384 0.671494
vt 0.570206 0.669548
vt 0.567856 0.672157
vt 0.564468 0.669609
vt 0.568146 0.666756
vt 0.564514 0.667854
vt 0.565857 0.666748
vt 0.562897 0.666855
vt 0.562302 0.669838
vt 0.559082 0.669685
vt 0.563492 0.673050
vt 0.560059 0.674789
vt 0.554092 0.669067
vt 0.554398 0.676537
vt 0.567307 0.675606
vt 0.564316 0.680244
vt 0.558044 0.684982
vt 0.575485 0.674767
vt 0.575272 0.686485
vt 0.565720 0.696274
vt 0.575485 0.658051
vt 0.568817 0.663902
vt 0.568115 0.659698
vt 0.574570 0.665543
vt 0.572052 0.651657
vt 0.565903 0.655174
vt 0.565063 0.664742
vt 0.563416 0.661980
vt 0.560669 0.658463
vt 0.560364 0.665283
vt 0.556488 0.662933
vt 0.552032 0.660286
vt 0.548294 0.668175
vt 0.563522 0.651588
vt 0.557617 0.654999
vt 0.551163 0.688484
vt 0.556610 0.699394
vt 0.547867 0.678001
vt 0.568756 0.648293
vt 0.604446 0.682632
vt 0.626221 0.687675
vt 0.604553 0.688225
vt 0.626144 0.682457
vt 0.604553 0.671455
vt 0.626144 0.677231
vt 0.604446 0.677048
vt 0.626221 0.672005
vt 0.605011 0.660294
vt 0.626404 0.666786
vt 0.604736 0.665871
vt 0.626663 0.661568
vt 0.626404 0.692902
vt 0.604736 0.693810
vt 0.626663 0.698120
vt 0.605011 0.699394
s 0
usemtl decorations
f 240/1/1 239/2/1 238/3/1
f 237/1/1 236/4/1 235/2/1
f 234/5/1 233/4/1 232/1/1
f 231/5/1 230/6/1 229/4/1
f 228/6/1 227/5/1 226/7/1
s 1
f 225/8/2 224/9/3 223/10/4
f 222/11/5 221/9/6 220/8/7
f 219/11/8 218/12/9 217/9/3
f 216/13/10 215/12/9 214/11/11
f 213/12/9 212/13/12 211/14/13
f 210/15/14 209/11/8 208/16/15
f 207/15/14 206/13/10 205/11/8
f 204/17/16 203/18/17 202/19/18
f 201/17/19 200/16/20 199/18/21
f 198/20/22 197/19/23 196/21/24
f 195/20/22 194/17/19 193/19/18
f 192/19/18 191/22/25 190/23/26
f 189/19/18 188/18/17 187/22/25
f 186/21/27 185/23/26 184/24/28
f 183/21/27 3/19/18 182/23/26
f 181/23/26 180/25/29 179/26/30
f 178/23/26 177/22/31 176/25/32
f 175/24/33 174/26/30 173/27/34
f 172/24/28 4/23/35 171/26/30
f 170/28/36 169/29/37 168/30/38
f 167/28/30 166/31/29 165/29/37
f 164/32/34 163/30/39 162/33/40
f 161/32/34 13/28/30 160/30/38
f 159/30/38 158/34/41 157/35/42
f 156/30/38 155/29/37 154/34/41
f 153/33/43 152/35/42 151/36/44
f 150/33/40 14/30/39 149/35/42
f 148/35/45 147/15/46 146/37/47
f 145/35/45 144/34/48 143/15/49
f 142/36/50 141/37/51 140/38/52
f 139/36/50 16/35/45 138/37/51
f 137/37/53 136/16/20 135/17/19
f 134/37/51 133/15/14 132/16/15
f 131/38/54 130/17/19 129/20/22
f 128/38/54 36/37/47 25/17/19
f 127/39/55 126/20/22 125/40/56
f 124/39/57 123/38/58 122/20/22
f 121/41/59 120/36/60 119/42/61
f 118/41/59 117/33/62 116/36/60
f 115/43/63 114/27/34 113/44/64
f 112/43/65 111/24/28 110/27/34
f 109/40/66 108/21/27 107/45/67
f 106/40/66 40/20/22 105/21/27
f 104/42/68 103/38/58 102/39/57
f 101/42/61 41/36/69 42/38/58
f 100/46/70 99/33/71 98/41/59
f 97/46/70 37/32/34 38/33/71
f 96/45/72 95/24/28 94/43/73
f 93/45/72 33/21/27 34/24/28
f 92/29/37 91/14/13 90/34/41
f 89/29/37 88/12/74 87/14/13
f 86/22/75 85/9/6 84/25/29
f 83/22/75 82/10/4 81/9/6
f 80/16/20 79/8/76 78/18/21
f 29/16/20 30/11/5 77/8/76
f 76/31/29 75/12/9 28/29/37
f 31/31/29 26/9/6 27/12/74
f 74/18/17 73/10/4 24/22/25
f 21/18/77 22/8/76 23/10/4
f 72/34/41 71/13/10 20/15/14
f 17/34/41 18/14/13 19/13/10
f 70/47/78 69/48/72 68/49/79
f 67/47/78 66/50/56 65/48/72
f 64/51/80 63/52/55 62/53/81
f 61/51/80 60/54/61 59/52/57
f 58/55/82 57/56/59 56/57/83
f 55/55/84 54/58/85 53/56/59
f 52/49/79 51/59/63 50/60/86
f 2/49/87 32/48/72 49/59/65
f 48/53/88 47/50/56 12/47/89
f 9/53/90 10/52/55 11/50/56
f 46/57/83 45/54/61 8/51/91
f 5/57/92 6/56/59 7/54/61
f 44/60/86 43/61/70 15/62/93
f 1/60/94 35/59/65 39/61/70
