# Blender 5.0.0
# www.blender.org
mtllib Circle_005_Circle_004_Dupli_216_decorations_0.mtl
o Circle.005|Circle.004|Dupli|216_decorations_0
v -4.626384 1.894035 0.507813
v -4.627409 1.893315 0.508457
v -4.622295 1.889664 0.513162
v -4.620834 1.890692 0.512242
v -4.625876 1.892601 0.505782
v -4.622195 1.889857 0.508747
v -4.623035 1.888852 0.508880
v -4.626774 1.891526 0.505925
v -4.627721 1.891302 0.506943
v -4.623920 1.888643 0.509832
v -4.624185 1.889387 0.510885
v -4.628004 1.892098 0.508070
v -4.619861 1.890239 0.510544
v -4.620108 1.888645 0.509346
v -4.625702 1.893717 0.506623
v -4.621390 1.887111 0.509549
v -4.620409 1.886679 0.510626
v -4.619760 1.886640 0.511614
v -4.620477 1.886470 0.512386
v -4.621509 1.886420 0.511808
v -4.621145 1.888756 0.513566
v -4.620240 1.887995 0.513533
v -4.619464 1.888541 0.513044
v -4.619956 1.889593 0.512818
v -4.623144 1.887929 0.512609
v -4.618947 1.888300 0.512143
v -4.619079 1.887454 0.511506
v -4.619366 1.887927 0.510460
v -4.621836 1.887344 0.513116
v -4.620691 1.887074 0.513239
v -4.619164 1.889224 0.511436
v -4.623628 1.890524 0.511247
v -4.623201 1.890283 0.512118
v -4.621936 1.891173 0.511322
v -4.622671 1.891198 0.510645
v -4.622741 1.886793 0.511002
v -4.621094 1.890780 0.509853
v -4.621308 1.889401 0.508815
v -4.622033 1.890901 0.509532
v -4.623936 1.888781 0.511640
v -4.622418 1.888074 0.508991
v -4.623588 1.887798 0.510249
v -4.622033 1.890901 0.509532
v -4.626384 1.894035 0.507813
v -4.623035 1.888852 0.508880
v -4.625876 1.892601 0.505782
v -4.624185 1.889387 0.510885
v -4.627721 1.891302 0.506943
v -4.622671 1.891198 0.510645
v -4.626384 1.894035 0.507813
v -4.622671 1.891198 0.510645
v -4.627409 1.893315 0.508457
v -4.622195 1.889857 0.508747
v -4.622033 1.890901 0.509532
v -4.625702 1.893717 0.506623
v -4.625876 1.892601 0.505782
v -4.622195 1.889857 0.508747
v -4.625702 1.893717 0.506623
v -4.623920 1.888643 0.509832
v -4.623035 1.888852 0.508880
v -4.626774 1.891526 0.505925
v -4.627721 1.891302 0.506943
v -4.623920 1.888643 0.509832
v -4.626774 1.891526 0.505925
v -4.623628 1.890524 0.511247
v -4.624185 1.889387 0.510885
v -4.628004 1.892098 0.508070
v -4.627409 1.893315 0.508457
v -4.623628 1.890524 0.511247
v -4.628004 1.892098 0.508070
v -4.620477 1.886470 0.512386
v -4.620409 1.886679 0.510626
v -4.619464 1.888541 0.513044
v -4.621145 1.888756 0.513566
v -4.619079 1.887454 0.511506
v -4.619164 1.889224 0.511436
v -4.620240 1.887995 0.513533
v -4.621145 1.888756 0.513566
v -4.620240 1.887995 0.513533
v -4.621836 1.887344 0.513116
v -4.618947 1.888300 0.512143
v -4.619464 1.888541 0.513044
v -4.619956 1.889593 0.512818
v -4.619164 1.889224 0.511436
v -4.618947 1.888300 0.512143
v -4.619956 1.889593 0.512818
v -4.619760 1.886640 0.511614
v -4.619079 1.887454 0.511506
v -4.619366 1.887927 0.510460
v -4.620409 1.886679 0.510626
v -4.619760 1.886640 0.511614
v -4.619366 1.887927 0.510460
v -4.623628 1.890524 0.511247
v -4.622671 1.891198 0.510645
v -4.621936 1.891173 0.511322
v -4.623628 1.890524 0.511247
v -4.622033 1.890901 0.509532
v -4.622195 1.889857 0.508747
v -4.621308 1.889401 0.508815
v -4.622033 1.890901 0.509532
v -4.623035 1.888852 0.508880
v -4.623920 1.888643 0.509832
v -4.623588 1.887798 0.510249
v -4.623035 1.888852 0.508880
v -4.623201 1.890283 0.512118
v -4.624185 1.889387 0.510885
v -4.623628 1.890524 0.511247
v -4.623201 1.890283 0.512118
v -4.624185 1.889387 0.510885
v -4.621094 1.890780 0.509853
v -4.621936 1.891173 0.511322
v -4.622671 1.891198 0.510645
v -4.622033 1.890901 0.509532
v -4.621094 1.890780 0.509853
v -4.622671 1.891198 0.510645
v -4.622418 1.888074 0.508991
v -4.621308 1.889401 0.508815
v -4.622195 1.889857 0.508747
v -4.623035 1.888852 0.508880
v -4.622418 1.888074 0.508991
v -4.622195 1.889857 0.508747
v -4.623936 1.888781 0.511640
v -4.623588 1.887798 0.510249
v -4.623920 1.888643 0.509832
v -4.624185 1.889387 0.510885
v -4.623936 1.888781 0.511640
v -4.623920 1.888643 0.509832
v -4.623588 1.887798 0.510249
v -4.623936 1.888781 0.511640
v -4.623144 1.887929 0.512609
v -4.623588 1.887798 0.510249
v -4.621836 1.887344 0.513116
v -4.621509 1.886420 0.511808
v -4.622741 1.886793 0.511002
v -4.623144 1.887929 0.512609
v -4.621836 1.887344 0.513116
v -4.622741 1.886793 0.511002
v -4.622741 1.886793 0.511002
v -4.622418 1.888074 0.508991
v -4.623588 1.887798 0.510249
v -4.622741 1.886793 0.511002
v -4.622418 1.888074 0.508991
v -4.621509 1.886420 0.511808
v -4.620409 1.886679 0.510626
v -4.621390 1.887111 0.509549
v -4.622741 1.886793 0.511002
v -4.621509 1.886420 0.511808
v -4.621390 1.887111 0.509549
v -4.621390 1.887111 0.509549
v -4.621308 1.889401 0.508815
v -4.622418 1.888074 0.508991
v -4.621390 1.887111 0.509549
v -4.621308 1.889401 0.508815
v -4.620409 1.886679 0.510626
v -4.619366 1.887927 0.510460
v -4.620108 1.888645 0.509346
v -4.621390 1.887111 0.509549
v -4.620409 1.886679 0.510626
v -4.620108 1.888645 0.509346
v -4.620108 1.888645 0.509346
v -4.621094 1.890780 0.509853
v -4.621308 1.889401 0.508815
v -4.620108 1.888645 0.509346
v -4.621094 1.890780 0.509853
v -4.619366 1.887927 0.510460
v -4.619164 1.889224 0.511436
v -4.619861 1.890239 0.510544
v -4.620108 1.888645 0.509346
v -4.619366 1.887927 0.510460
v -4.619861 1.890239 0.510544
v -4.619861 1.890239 0.510544
v -4.621936 1.891173 0.511322
v -4.621094 1.890780 0.509853
v -4.619861 1.890239 0.510544
v -4.621936 1.891173 0.511322
v -4.619164 1.889224 0.511436
v -4.619956 1.889593 0.512818
v -4.620834 1.890692 0.512242
v -4.619861 1.890239 0.510544
v -4.619164 1.889224 0.511436
v -4.620834 1.890692 0.512242
v -4.620834 1.890692 0.512242
v -4.623201 1.890283 0.512118
v -4.621936 1.891173 0.511322
v -4.620834 1.890692 0.512242
v -4.623201 1.890283 0.512118
v -4.619956 1.889593 0.512818
v -4.621145 1.888756 0.513566
v -4.622295 1.889664 0.513162
v -4.620834 1.890692 0.512242
v -4.619956 1.889593 0.512818
v -4.622295 1.889664 0.513162
v -4.622295 1.889664 0.513162
v -4.623144 1.887929 0.512609
v -4.623936 1.888781 0.511640
v -4.623201 1.890283 0.512118
v -4.622295 1.889664 0.513162
v -4.623936 1.888781 0.511640
v -4.621145 1.888756 0.513566
v -4.621836 1.887344 0.513116
v -4.623144 1.887929 0.512609
v -4.622295 1.889664 0.513162
v -4.621145 1.888756 0.513566
v -4.623144 1.887929 0.512609
v -4.620691 1.887074 0.513239
v -4.620477 1.886470 0.512386
v -4.621509 1.886420 0.511808
v -4.621836 1.887344 0.513116
v -4.620691 1.887074 0.513239
v -4.621509 1.886420 0.511808
v -4.619760 1.886640 0.511614
v -4.620477 1.886470 0.512386
v -4.619079 1.887454 0.511506
v -4.620691 1.887074 0.513239
v -4.619079 1.887454 0.511506
v -4.620477 1.886470 0.512386
v -4.618947 1.888300 0.512143
v -4.619079 1.887454 0.511506
v -4.620691 1.887074 0.513239
v -4.620240 1.887995 0.513533
v -4.618947 1.888300 0.512143
v -4.620691 1.887074 0.513239
v -4.619464 1.888541 0.513044
v -4.618947 1.888300 0.512143
v -4.620240 1.887995 0.513533
v -4.626774 1.891526 0.505925
v -4.625876 1.892601 0.505782
v -4.627721 1.891302 0.506943
v -4.628004 1.892098 0.508070
v -4.627721 1.891302 0.506943
v -4.625876 1.892601 0.505782
v -4.625702 1.893717 0.506623
v -4.628004 1.892098 0.508070
v -4.625876 1.892601 0.505782
v -4.627409 1.893315 0.508457
v -4.628004 1.892098 0.508070
v -4.625702 1.893717 0.506623
v -4.626384 1.894035 0.507813
v -4.627409 1.893315 0.508457
v -4.625702 1.893717 0.506623
vn -0.6851 0.5029 -0.5270
vn 0.3678 -0.1865 0.9110
vn 0.9607 -0.0467 0.2735
vn 0.7237 0.0638 0.6872
vn 0.1610 -0.6092 0.7765
vn 0.9607 -0.0466 0.2736
vn 0.1610 -0.6091 0.7766
vn 0.9004 -0.4347 -0.0183
vn 0.2591 -0.8858 0.3850
vn 0.2591 -0.8858 0.3851
vn 0.5881 -0.8082 0.0313
vn -0.2170 -0.9669 0.1339
vn -0.3757 -0.5191 0.7677
vn 0.1610 -0.6091 0.7765
vn -0.6915 -0.3625 0.6248
vn -0.0410 0.1651 0.9854
vn -0.3251 0.3864 0.8632
vn -0.6915 -0.3626 0.6248
vn -0.3758 -0.5190 0.7677
vn -0.9070 -0.1539 0.3921
vn -0.3251 0.3864 0.8631
vn -0.5618 0.5516 0.6166
vn -0.3250 0.3864 0.8632
vn 0.5352 0.5704 0.6231
vn 0.3056 0.8300 0.4665
vn -0.0410 0.1652 0.9854
vn -0.5618 0.5516 0.6165
vn 0.0324 0.9695 0.2429
vn 0.9189 0.3917 -0.0465
vn 0.7257 0.6343 -0.2665
vn 0.5352 0.5704 0.6230
vn 0.9190 0.3916 -0.0465
vn 0.0323 0.9695 0.2429
vn 0.4281 0.7851 -0.4476
vn 0.8213 -0.2366 -0.5191
vn 0.6188 -0.0534 -0.7837
vn 0.9189 0.3916 -0.0466
vn 0.6188 -0.0533 -0.7837
vn 0.3274 0.1373 -0.9348
vn 0.6189 -0.0533 -0.7837
vn 0.3158 -0.8413 -0.4388
vn 0.0654 -0.7152 -0.6958
vn 0.3274 0.1373 -0.9349
vn -0.1939 -0.4862 -0.8521
vn -0.2170 -0.9670 0.1338
vn -0.5177 -0.8528 -0.0690
vn 0.3157 -0.8413 -0.4388
vn -0.2169 -0.9670 0.1339
vn -0.1940 -0.4862 -0.8521
vn -0.7432 -0.6158 -0.2615
vn -0.5177 -0.8528 -0.0689
vn -0.3758 -0.5191 0.7677
vn -0.6915 -0.3625 0.6249
vn -0.7433 -0.6158 -0.2615
vn -0.9069 -0.1540 0.3921
vn -0.7041 -0.6741 -0.2235
vn -0.9070 -0.1540 0.3921
vn -0.8719 -0.2005 0.4467
vn -0.7041 -0.6740 -0.2235
vn 0.3938 0.0981 -0.9139
vn -0.1408 -0.5412 -0.8290
vn 0.0913 0.9515 0.2937
vn 0.4281 0.7851 -0.4475
vn 0.4970 0.7625 -0.4143
vn -0.5180 0.5230 0.6769
vn -0.9070 -0.1539 0.3920
vn -0.1407 -0.5412 -0.8290
vn -0.1407 -0.5412 -0.8291
vn 0.4971 0.7624 -0.4143
vn 0.3938 0.0981 -0.9140
vn 0.8213 -0.2367 -0.5191
vn 0.8213 -0.2367 -0.5192
vn 0.9607 -0.0467 0.2736
vn 0.7236 0.0638 0.6872
vn -0.2170 -0.9670 0.1339
vn -0.7045 -0.3534 0.6154
vn -0.3379 0.3959 0.8539
vn -0.7045 -0.3534 0.6155
vn 0.0528 -0.7063 -0.7059
vn -0.5306 -0.8439 -0.0788
vn 0.7134 0.6439 -0.2764
vn 0.6065 -0.0440 -0.7939
vn -0.3379 0.3959 0.8538
vn 0.0913 0.9515 0.2938
vn 0.2931 0.8398 0.4570
vn -0.5306 -0.8439 -0.0787
vn -0.5306 -0.8440 -0.0787
vn 0.6065 -0.0441 -0.7939
vn 0.4971 0.7624 -0.4142
vn 0.0912 0.9515 0.2937
vn 0.4970 0.7625 -0.4142
vt 0.530319 0.635056
vt 0.522446 0.641335
vt 0.524872 0.636299
vt 0.524872 0.646370
vt 0.534683 0.638535
vt 0.530319 0.647614
vt 0.534683 0.644127
vt 0.508789 0.671494
vt 0.513626 0.669548
vt 0.511276 0.672157
vt 0.507889 0.669609
vt 0.511566 0.666756
vt 0.507935 0.667854
vt 0.509277 0.666748
vt 0.506302 0.666855
vt 0.505722 0.669838
vt 0.502487 0.669685
vt 0.506897 0.673050
vt 0.503479 0.674789
vt 0.497520 0.669067
vt 0.497810 0.676537
vt 0.510727 0.675606
vt 0.507721 0.680244
vt 0.501465 0.684982
vt 0.518890 0.674767
vt 0.518692 0.686485
vt 0.509125 0.696274
vt 0.518890 0.658051
vt 0.512238 0.663902
vt 0.511536 0.659698
vt 0.517990 0.665543
vt 0.515472 0.651657
vt 0.509323 0.655174
vt 0.508469 0.664742
vt 0.506836 0.661980
vt 0.504074 0.658463
vt 0.503784 0.665283
vt 0.499901 0.662933
vt 0.495453 0.660286
vt 0.491707 0.668175
vt 0.506927 0.651588
vt 0.501038 0.654999
vt 0.494583 0.688484
vt 0.500031 0.699394
vt 0.491287 0.678001
vt 0.512177 0.648293
vt 0.627350 0.642853
vt 0.649124 0.647896
vt 0.627441 0.648445
vt 0.649033 0.642670
vt 0.627441 0.631676
vt 0.649033 0.637444
vt 0.627350 0.637268
vt 0.649124 0.632225
vt 0.627914 0.620506
vt 0.649292 0.626999
vt 0.627625 0.626091
vt 0.649551 0.621780
vt 0.649292 0.653114
vt 0.627625 0.654030
vt 0.649551 0.658333
vt 0.627914 0.659607
s 0
usemtl decorations
f 240/1/1 239/2/1 238/3/1
f 237/1/1 236/4/1 235/2/1
f 234/5/1 233/4/1 232/1/1
f 231/5/1 230/6/1 229/4/1
f 228/6/1 227/5/1 226/7/1
s 1
f 225/8/2 224/9/3 223/10/4
f 222/11/5 221/9/6 220/8/2
f 219/11/7 218/12/8 217/9/3
f 216/13/9 215/12/8 214/11/7
f 213/12/8 212/13/10 211/14/11
f 210/15/12 209/11/7 208/16/13
f 207/15/12 206/13/10 205/11/14
f 204/17/15 203/18/16 202/19/17
f 201/17/18 200/16/19 199/18/16
f 198/20/20 197/19/21 196/21/22
f 195/20/20 194/17/15 193/19/23
f 192/19/17 191/22/24 190/23/25
f 189/19/17 188/18/26 187/22/24
f 186/21/27 185/23/25 184/24/28
f 183/21/22 3/19/17 182/23/25
f 181/23/25 180/25/29 179/26/30
f 178/23/25 177/22/31 176/25/32
f 175/24/33 174/26/30 173/27/34
f 172/24/28 4/23/25 171/26/30
f 170/28/30 169/29/35 168/30/36
f 167/28/30 166/31/37 165/29/35
f 164/32/34 163/30/38 162/33/39
f 161/32/34 13/28/30 160/30/40
f 159/30/36 158/34/41 157/35/42
f 156/30/36 155/29/35 154/34/41
f 153/33/43 152/35/42 151/36/44
f 150/33/43 14/30/36 149/35/42
f 148/35/42 147/15/45 146/37/46
f 145/35/42 144/34/47 143/15/48
f 142/36/49 141/37/46 140/38/50
f 139/36/44 16/35/42 138/37/46
f 137/37/51 136/16/52 135/17/53
f 134/37/51 133/15/12 132/16/13
f 131/38/54 130/17/53 129/20/55
f 128/38/54 36/37/46 25/17/53
f 127/39/56 126/20/57 125/40/58
f 124/39/59 123/38/50 122/20/57
f 121/41/60 120/36/44 119/42/61
f 118/41/60 117/33/43 116/36/44
f 115/43/62 114/27/63 113/44/64
f 112/43/62 111/24/28 110/27/63
f 109/40/58 108/21/22 107/45/65
f 106/40/58 40/20/66 105/21/22
f 104/42/67 103/38/50 102/39/56
f 101/42/68 41/36/44 42/38/50
f 100/46/69 99/33/39 98/41/70
f 97/46/64 37/32/34 38/33/39
f 96/45/65 95/24/28 94/43/62
f 93/45/65 33/21/22 34/24/28
f 92/29/71 91/14/11 90/34/41
f 89/29/72 88/12/8 87/14/11
f 86/22/31 85/9/73 84/25/32
f 83/22/31 82/10/74 81/9/73
f 80/16/19 79/8/2 78/18/16
f 29/16/19 30/11/5 77/8/2
f 76/31/32 75/12/8 28/29/35
f 31/31/32 26/9/73 27/12/8
f 74/18/26 73/10/4 24/22/24
f 21/18/26 22/8/2 23/10/4
f 72/34/41 71/13/10 20/15/75
f 17/34/41 18/14/11 19/13/10
f 70/47/76 69/48/65 68/49/77
f 67/47/78 66/50/58 65/48/65
f 64/51/79 63/52/56 62/53/80
f 61/51/79 60/54/61 59/52/56
f 58/55/81 57/56/70 56/57/82
f 55/55/81 54/58/64 53/56/70
f 52/49/83 51/59/84 50/60/85
f 2/49/77 32/48/65 49/59/84
f 48/53/86 47/50/58 12/47/76
f 9/53/87 10/52/56 11/50/58
f 46/57/88 45/54/61 8/51/79
f 5/57/88 6/56/70 7/54/61
f 44/60/85 43/61/89 15/62/81
f 1/60/85 35/59/90 39/61/91
