# Blender 5.0.0
# www.blender.org
mtllib Circle_005_Circle_Dupli_215_decorations_0.mtl
o Circle.005|Circle|Dupli|215_decorations_0
v -4.569638 1.872929 0.447583
v -4.568656 1.872052 0.447082
v -4.569522 1.874776 0.439772
v -4.570922 1.876028 0.440486
v -4.571740 1.871509 0.447537
v -4.572690 1.873227 0.442437
v -4.572258 1.872079 0.441958
v -4.571278 1.870281 0.447024
v -4.569972 1.869929 0.446634
v -4.571036 1.871750 0.441593
v -4.569945 1.872486 0.441617
v -4.568805 1.870717 0.446659
v -4.572880 1.875683 0.440775
v -4.573922 1.874002 0.440421
v -4.571010 1.872687 0.447785
v -4.573263 1.872250 0.439690
v -4.573246 1.873018 0.438379
v -4.572983 1.873798 0.437528
v -4.571993 1.873531 0.437233
v -4.571729 1.872609 0.437926
v -4.570201 1.875074 0.438445
v -4.570997 1.875139 0.437572
v -4.571740 1.875804 0.437951
v -4.571341 1.876092 0.439027
v -4.569734 1.872871 0.439169
v -4.572780 1.875621 0.438105
v -4.573333 1.874728 0.437917
v -4.573782 1.874444 0.438974
v -4.570374 1.873524 0.437955
v -4.571109 1.874128 0.437252
v -4.572934 1.875812 0.439262
v -4.569807 1.873735 0.442011
v -4.569524 1.874193 0.441169
v -4.570736 1.875276 0.441787
v -4.570724 1.874555 0.442480
v -4.571399 1.871747 0.439133
v -4.572431 1.874977 0.442037
v -4.573333 1.873522 0.441731
v -4.572007 1.874329 0.442669
v -4.569708 1.872544 0.440647
v -4.572762 1.872006 0.441098
v -4.571149 1.871570 0.440616
v -4.572007 1.874329 0.442669
v -4.569638 1.872929 0.447583
v -4.572258 1.872079 0.441958
v -4.571740 1.871509 0.447537
v -4.569945 1.872486 0.441617
v -4.569972 1.869929 0.446634
v -4.570724 1.874555 0.442480
v -4.569638 1.872929 0.447583
v -4.570724 1.874555 0.442480
v -4.568656 1.872052 0.447082
v -4.572690 1.873227 0.442437
v -4.572007 1.874329 0.442669
v -4.571010 1.872687 0.447785
v -4.571740 1.871509 0.447537
v -4.572690 1.873227 0.442437
v -4.571010 1.872687 0.447785
v -4.571036 1.871750 0.441593
v -4.572258 1.872079 0.441958
v -4.571278 1.870281 0.447024
v -4.569972 1.869929 0.446634
v -4.571036 1.871750 0.441593
v -4.571278 1.870281 0.447024
v -4.569807 1.873735 0.442011
v -4.569945 1.872486 0.441617
v -4.568805 1.870717 0.446659
v -4.568656 1.872052 0.447082
v -4.569807 1.873735 0.442011
v -4.568805 1.870717 0.446659
v -4.571993 1.873531 0.437233
v -4.573246 1.873018 0.438379
v -4.571740 1.875804 0.437951
v -4.570201 1.875074 0.438445
v -4.573333 1.874728 0.437917
v -4.572934 1.875812 0.439262
v -4.570997 1.875139 0.437572
v -4.570201 1.875074 0.438445
v -4.570997 1.875139 0.437572
v -4.570374 1.873524 0.437955
v -4.572780 1.875621 0.438105
v -4.571740 1.875804 0.437951
v -4.571341 1.876092 0.439027
v -4.572934 1.875812 0.439262
v -4.572780 1.875621 0.438105
v -4.571341 1.876092 0.439027
v -4.572983 1.873798 0.437528
v -4.573333 1.874728 0.437917
v -4.573782 1.874444 0.438974
v -4.573246 1.873018 0.438379
v -4.572983 1.873798 0.437528
v -4.573782 1.874444 0.438974
v -4.569807 1.873735 0.442011
v -4.570724 1.874555 0.442480
v -4.570736 1.875276 0.441787
v -4.569807 1.873735 0.442011
v -4.572007 1.874329 0.442669
v -4.572690 1.873227 0.442437
v -4.573333 1.873522 0.441731
v -4.572007 1.874329 0.442669
v -4.572258 1.872079 0.441958
v -4.571036 1.871750 0.441593
v -4.571149 1.871570 0.440616
v -4.572258 1.872079 0.441958
v -4.569524 1.874193 0.441169
v -4.569945 1.872486 0.441617
v -4.569807 1.873735 0.442011
v -4.569524 1.874193 0.441169
v -4.569945 1.872486 0.441617
v -4.572431 1.874977 0.442037
v -4.570736 1.875276 0.441787
v -4.570724 1.874555 0.442480
v -4.572007 1.874329 0.442669
v -4.572431 1.874977 0.442037
v -4.570724 1.874555 0.442480
v -4.572762 1.872006 0.441098
v -4.573333 1.873522 0.441731
v -4.572690 1.873227 0.442437
v -4.572258 1.872079 0.441958
v -4.572762 1.872006 0.441098
v -4.572690 1.873227 0.442437
v -4.569708 1.872544 0.440647
v -4.571149 1.871570 0.440616
v -4.571036 1.871750 0.441593
v -4.569945 1.872486 0.441617
v -4.569708 1.872544 0.440647
v -4.571036 1.871750 0.441593
v -4.571149 1.871570 0.440616
v -4.569708 1.872544 0.440647
v -4.569734 1.872871 0.439169
v -4.571149 1.871570 0.440616
v -4.570374 1.873524 0.437955
v -4.571729 1.872609 0.437926
v -4.571399 1.871747 0.439133
v -4.569734 1.872871 0.439169
v -4.570374 1.873524 0.437955
v -4.571399 1.871747 0.439133
v -4.571399 1.871747 0.439133
v -4.572762 1.872006 0.441098
v -4.571149 1.871570 0.440616
v -4.571399 1.871747 0.439133
v -4.572762 1.872006 0.441098
v -4.571729 1.872609 0.437926
v -4.573246 1.873018 0.438379
v -4.573263 1.872250 0.439690
v -4.571399 1.871747 0.439133
v -4.571729 1.872609 0.437926
v -4.573263 1.872250 0.439690
v -4.573263 1.872250 0.439690
v -4.573333 1.873522 0.441731
v -4.572762 1.872006 0.441098
v -4.573263 1.872250 0.439690
v -4.573333 1.873522 0.441731
v -4.573246 1.873018 0.438379
v -4.573782 1.874444 0.438974
v -4.573922 1.874002 0.440421
v -4.573263 1.872250 0.439690
v -4.573246 1.873018 0.438379
v -4.573922 1.874002 0.440421
v -4.573922 1.874002 0.440421
v -4.572431 1.874977 0.442037
v -4.573333 1.873522 0.441731
v -4.573922 1.874002 0.440421
v -4.572431 1.874977 0.442037
v -4.573782 1.874444 0.438974
v -4.572934 1.875812 0.439262
v -4.572880 1.875683 0.440775
v -4.573922 1.874002 0.440421
v -4.573782 1.874444 0.438974
v -4.572880 1.875683 0.440775
v -4.572880 1.875683 0.440775
v -4.570736 1.875276 0.441787
v -4.572431 1.874977 0.442037
v -4.572880 1.875683 0.440775
v -4.570736 1.875276 0.441787
v -4.572934 1.875812 0.439262
v -4.571341 1.876092 0.439027
v -4.570922 1.876028 0.440486
v -4.572880 1.875683 0.440775
v -4.572934 1.875812 0.439262
v -4.570922 1.876028 0.440486
v -4.570922 1.876028 0.440486
v -4.569524 1.874193 0.441169
v -4.570736 1.875276 0.441787
v -4.570922 1.876028 0.440486
v -4.569524 1.874193 0.441169
v -4.571341 1.876092 0.439027
v -4.570201 1.875074 0.438445
v -4.569522 1.874776 0.439772
v -4.570922 1.876028 0.440486
v -4.571341 1.876092 0.439027
v -4.569522 1.874776 0.439772
v -4.569522 1.874776 0.439772
v -4.569734 1.872871 0.439169
v -4.569708 1.872544 0.440647
v -4.569524 1.874193 0.441169
v -4.569522 1.874776 0.439772
v -4.569708 1.872544 0.440647
v -4.570201 1.875074 0.438445
v -4.570374 1.873524 0.437955
v -4.569734 1.872871 0.439169
v -4.569522 1.874776 0.439772
v -4.570201 1.875074 0.438445
v -4.569734 1.872871 0.439169
v -4.571109 1.874128 0.437252
v -4.571993 1.873531 0.437233
v -4.571729 1.872609 0.437926
v -4.570374 1.873524 0.437955
v -4.571109 1.874128 0.437252
v -4.571729 1.872609 0.437926
v -4.572983 1.873798 0.437528
v -4.571993 1.873531 0.437233
v -4.573333 1.874728 0.437917
v -4.571109 1.874128 0.437252
v -4.573333 1.874728 0.437917
v -4.571993 1.873531 0.437233
v -4.572780 1.875621 0.438105
v -4.573333 1.874728 0.437917
v -4.571109 1.874128 0.437252
v -4.570997 1.875139 0.437572
v -4.572780 1.875621 0.438105
v -4.571109 1.874128 0.437252
v -4.571740 1.875804 0.437951
v -4.572780 1.875621 0.438105
v -4.570997 1.875139 0.437572
v -4.571278 1.870281 0.447024
v -4.571740 1.871509 0.447537
v -4.569972 1.869929 0.446634
v -4.568805 1.870717 0.446659
v -4.569972 1.869929 0.446634
v -4.571740 1.871509 0.447537
v -4.571010 1.872687 0.447785
v -4.568805 1.870717 0.446659
v -4.571740 1.871509 0.447537
v -4.568656 1.872052 0.447082
v -4.568805 1.870717 0.446659
v -4.571010 1.872687 0.447785
v -4.569638 1.872929 0.447583
v -4.568656 1.872052 0.447082
v -4.571010 1.872687 0.447785
vn 0.1926 -0.3152 0.9293
vn 0.3624 0.4718 -0.8038
vn -0.4556 0.6925 -0.5594
vn 0.0214 0.7765 -0.6297
vn 0.3107 0.0078 -0.9505
vn -0.4555 0.6926 -0.5594
vn 0.3107 0.0079 -0.9505
vn -0.7092 0.2831 -0.6457
vn -0.0947 -0.2660 -0.9593
vn -0.5486 -0.1435 -0.8237
vn 0.0256 -0.7234 -0.6899
vn 0.6819 -0.2801 -0.6756
vn -0.0948 -0.2659 -0.9593
vn 0.8253 -0.4356 -0.3595
vn 0.7656 0.4710 -0.4381
vn 0.9168 0.3866 -0.0996
vn 0.8252 -0.4356 -0.3595
vn 0.6820 -0.2801 -0.6756
vn 0.7656 0.4710 -0.4382
vn 0.8493 -0.5279 0.0080
vn 0.9356 0.2467 0.2528
vn 0.8493 -0.5279 0.0079
vn 0.9168 0.3866 -0.0997
vn 0.2136 0.9643 -0.1564
vn 0.3126 0.9267 0.2088
vn 0.9355 0.2467 0.2528
vn 0.3126 0.9266 0.2088
vn 0.3663 0.7554 0.5433
vn 0.3126 0.9266 0.2089
vn -0.5585 0.8284 -0.0424
vn -0.5326 0.7779 0.3336
vn 0.2136 0.9643 -0.1563
vn 0.3663 0.7553 0.5434
vn -0.5326 0.7778 0.3336
vn -0.4299 0.6152 0.6608
vn 0.3663 0.7554 0.5434
vn 0.3126 0.9267 0.2089
vn -0.9692 0.1656 -0.1821
vn -0.9822 0.0523 0.1806
vn -0.9692 0.1656 -0.1822
vn -0.4299 0.6152 0.6609
vn -0.9821 0.0523 0.1807
vn -0.8534 -0.0683 0.5168
vn -0.9822 0.0524 0.1806
vn -0.9822 0.0523 0.1807
vn -0.7093 -0.5250 -0.4703
vn -0.6976 -0.7037 -0.1348
vn -0.9692 0.1655 -0.1821
vn -0.5854 -0.7805 0.2196
vn 0.0255 -0.7234 -0.6899
vn 0.1068 -0.9208 -0.3752
vn -0.7093 -0.5251 -0.4703
vn -0.5853 -0.7805 0.2196
vn 0.1724 -0.9850 -0.0069
vn 0.6820 -0.2802 -0.6756
vn 0.8253 -0.4355 -0.3595
vn 0.1067 -0.9208 -0.3752
vn 0.6819 -0.2801 -0.6757
vn 0.1724 -0.9850 -0.0068
vn 0.1605 -0.9833 -0.0858
vn 0.8545 -0.5146 -0.0706
vn -0.8914 -0.0433 0.4511
vn -0.6165 -0.7736 0.1465
vn 0.3593 0.8013 0.4784
vn -0.4571 0.6575 0.5989
vn 0.8545 -0.5146 -0.0707
vn 0.9356 0.2466 0.2528
vn 0.9430 0.2796 0.1805
vn -0.6166 -0.7736 0.1464
vn -0.4571 0.6576 0.5989
vn -0.8914 -0.0433 0.4512
vn 0.9430 0.2797 0.1804
vn 0.9430 0.2796 0.1804
vn -0.9693 0.1655 -0.1821
vn 0.2135 0.9643 -0.1564
vn -0.4555 0.6925 -0.5594
vn -0.5585 0.8284 -0.0425
vn 0.7657 0.4710 -0.4381
vn 0.8293 -0.4416 -0.3425
vn 0.9209 0.3810 -0.0825
vn 0.8292 -0.4416 -0.3426
vn -0.6944 -0.7099 -0.1177
vn 0.1103 -0.9271 -0.3582
vn -0.6165 -0.7736 0.1464
vn -0.5294 0.7724 0.3510
vn -0.9791 0.0466 0.1980
vn -0.5294 0.7724 0.3509
vn 0.9209 0.3810 -0.0824
vn 0.3163 0.9213 0.2261
vn 0.1104 -0.9271 -0.3582
vn 0.8292 -0.4416 -0.3425
vn -0.9791 0.0465 0.1980
vn -0.9791 0.0465 0.1979
vn -0.8914 -0.0434 0.4511
vn 0.3163 0.9213 0.2262
vn -0.5293 0.7724 0.3510
vt 0.543243 0.611839
vt 0.535370 0.618118
vt 0.537796 0.613083
vt 0.537796 0.623154
vt 0.547607 0.615326
vt 0.543243 0.624397
vt 0.547607 0.620918
vt 0.565384 0.671494
vt 0.570206 0.669548
vt 0.567856 0.672157
vt 0.564468 0.669609
vt 0.568146 0.666756
vt 0.564514 0.667854
vt 0.565857 0.666748
vt 0.562897 0.666855
vt 0.562302 0.669838
vt 0.559082 0.669685
vt 0.563492 0.673050
vt 0.560059 0.674789
vt 0.554092 0.669067
vt 0.554398 0.676537
vt 0.567307 0.675606
vt 0.564316 0.680244
vt 0.558044 0.684982
vt 0.575485 0.674767
vt 0.575272 0.686485
vt 0.565720 0.696274
vt 0.575485 0.658051
vt 0.568817 0.663902
vt 0.568115 0.659698
vt 0.574570 0.665543
vt 0.572052 0.651657
vt 0.565903 0.655174
vt 0.565063 0.664742
vt 0.563416 0.661980
vt 0.560669 0.658463
vt 0.560364 0.665283
vt 0.556488 0.662933
vt 0.552032 0.660286
vt 0.548294 0.668175
vt 0.563522 0.651588
vt 0.557617 0.654999
vt 0.551163 0.688484
vt 0.556610 0.699394
vt 0.547867 0.678001
vt 0.568756 0.648293
vt 0.604446 0.682632
vt 0.626221 0.687675
vt 0.604553 0.688225
vt 0.626144 0.682457
vt 0.604553 0.671455
vt 0.626144 0.677231
vt 0.604446 0.677048
vt 0.626221 0.672005
vt 0.605011 0.660294
vt 0.626404 0.666786
vt 0.604736 0.665871
vt 0.626663 0.661568
vt 0.626404 0.692902
vt 0.604736 0.693810
vt 0.626663 0.698120
vt 0.605011 0.699394
s 0
usemtl decorations
f 240/1/1 239/2/1 238/3/1
f 237/1/1 236/4/1 235/2/1
f 234/5/1 233/4/1 232/1/1
f 231/5/1 230/6/1 229/4/1
f 228/6/1 227/5/1 226/7/1
s 1
f 225/8/2 224/9/3 223/10/4
f 222/11/5 221/9/6 220/8/2
f 219/11/7 218/12/8 217/9/3
f 216/13/9 215/12/8 214/11/7
f 213/12/8 212/13/9 211/14/10
f 210/15/11 209/11/7 208/16/12
f 207/15/11 206/13/13 205/11/7
f 204/17/14 203/18/15 202/19/16
f 201/17/17 200/16/18 199/18/19
f 198/20/20 197/19/16 196/21/21
f 195/20/22 194/17/17 193/19/23
f 192/19/16 191/22/24 190/23/25
f 189/19/16 188/18/15 187/22/24
f 186/21/26 185/23/27 184/24/28
f 183/21/26 3/19/16 182/23/27
f 181/23/29 180/25/30 179/26/31
f 178/23/25 177/22/32 176/25/30
f 175/24/33 174/26/34 173/27/35
f 172/24/36 4/23/37 171/26/34
f 170/28/34 169/29/38 168/30/39
f 167/28/34 166/31/30 165/29/40
f 164/32/41 163/30/42 162/33/43
f 161/32/41 13/28/34 160/30/44
f 159/30/45 158/34/46 157/35/47
f 156/30/39 155/29/48 154/34/46
f 153/33/43 152/35/47 151/36/49
f 150/33/43 14/30/39 149/35/47
f 148/35/47 147/15/50 146/37/51
f 145/35/47 144/34/52 143/15/50
f 142/36/53 141/37/51 140/38/54
f 139/36/53 16/35/47 138/37/51
f 137/37/51 136/16/55 135/17/56
f 134/37/57 133/15/11 132/16/58
f 131/38/59 130/17/56 129/20/22
f 128/38/59 36/37/57 25/17/56
f 127/39/60 126/20/22 125/40/61
f 124/39/60 123/38/54 122/20/22
f 121/41/62 120/36/49 119/42/63
f 118/41/62 117/33/43 116/36/49
f 115/43/64 114/27/41 113/44/65
f 112/43/64 111/24/36 110/27/35
f 109/40/66 108/21/67 107/45/68
f 106/40/66 40/20/20 105/21/67
f 104/42/69 103/38/54 102/39/60
f 101/42/69 41/36/53 42/38/54
f 100/46/70 99/33/43 98/41/71
f 97/46/70 37/32/41 38/33/43
f 96/45/72 95/24/28 94/43/64
f 93/45/73 33/21/21 34/24/28
f 92/29/48 91/14/10 90/34/46
f 89/29/74 88/12/8 87/14/10
f 86/22/75 85/9/76 84/25/30
f 83/22/75 82/10/4 81/9/76
f 80/16/18 79/8/2 78/18/19
f 29/16/18 30/11/5 77/8/2
f 76/31/77 75/12/8 28/29/38
f 31/31/30 26/9/76 27/12/8
f 74/18/15 73/10/4 24/22/24
f 21/18/78 22/8/2 23/10/4
f 72/34/52 71/13/9 20/15/11
f 17/34/52 18/14/10 19/13/13
f 70/47/79 69/48/73 68/49/80
f 67/47/81 66/50/61 65/48/73
f 64/51/82 63/52/60 62/53/83
f 61/51/82 60/54/84 59/52/60
f 58/55/85 57/56/62 56/57/86
f 55/55/87 54/58/65 53/56/71
f 52/49/88 51/59/64 50/60/89
f 2/49/80 32/48/68 49/59/64
f 48/53/90 47/50/66 12/47/91
f 9/53/90 10/52/60 11/50/61
f 46/57/92 45/54/84 8/51/82
f 5/57/93 6/56/94 7/54/63
f 44/60/95 43/61/70 15/62/96
f 1/60/89 35/59/64 39/61/70
