# Blender 5.0.0
# www.blender.org
mtllib Circle_002_Circle_004_Dupli_116_decorations_0.mtl
o Circle.002|Circle.004|Dupli|116_decorations_0
v -4.641155 1.485279 0.561921
v -4.640989 1.485337 0.560523
v -4.636888 1.492013 0.560983
v -4.637125 1.491931 0.562976
v -4.643413 1.486385 0.562268
v -4.640889 1.491215 0.562683
v -4.641255 1.491524 0.561457
v -4.643804 1.486716 0.560956
v -4.643114 1.486489 0.559750
v -4.640610 1.491312 0.560329
v -4.639439 1.490738 0.560149
v -4.641861 1.485875 0.559557
v -4.638663 1.492597 0.564084
v -4.640346 1.493509 0.563471
v -4.642233 1.485746 0.562697
v -4.640904 1.493981 0.561600
v -4.639868 1.495080 0.561768
v -4.638845 1.495657 0.561913
v -4.638322 1.495485 0.560999
v -4.639066 1.494816 0.560368
v -4.636600 1.493478 0.561266
v -4.636712 1.494612 0.561585
v -4.636838 1.494568 0.562644
v -4.636792 1.493411 0.562888
v -4.638132 1.492782 0.559604
v -4.637655 1.494922 0.563232
v -4.638548 1.495406 0.562907
v -4.639413 1.494696 0.563291
v -4.637611 1.494104 0.560144
v -4.637373 1.495020 0.560853
v -4.638044 1.493953 0.563789
v -4.638624 1.490234 0.561052
v -4.637818 1.490819 0.560959
v -4.638023 1.490748 0.562685
v -4.638779 1.490181 0.562359
v -4.639919 1.493657 0.559879
v -4.639355 1.491324 0.563643
v -4.640811 1.492114 0.563113
v -4.639787 1.490617 0.563084
v -4.638895 1.491484 0.559766
v -4.641294 1.492522 0.561493
v -4.640442 1.492242 0.560004
v -4.639787 1.490617 0.563084
v -4.641155 1.485279 0.561921
v -4.641255 1.491524 0.561457
v -4.643413 1.486385 0.562268
v -4.639439 1.490738 0.560149
v -4.643114 1.486489 0.559750
v -4.638779 1.490181 0.562359
v -4.641155 1.485279 0.561921
v -4.638779 1.490181 0.562359
v -4.640989 1.485337 0.560523
v -4.640889 1.491215 0.562683
v -4.639787 1.490617 0.563084
v -4.642233 1.485746 0.562697
v -4.643413 1.486385 0.562268
v -4.640889 1.491215 0.562683
v -4.642233 1.485746 0.562697
v -4.640610 1.491312 0.560329
v -4.641255 1.491524 0.561457
v -4.643804 1.486716 0.560956
v -4.643114 1.486489 0.559750
v -4.640610 1.491312 0.560329
v -4.643804 1.486716 0.560956
v -4.638624 1.490234 0.561052
v -4.639439 1.490738 0.560149
v -4.641861 1.485875 0.559557
v -4.640989 1.485337 0.560523
v -4.638624 1.490234 0.561052
v -4.641861 1.485875 0.559557
v -4.638322 1.495485 0.560999
v -4.639868 1.495080 0.561768
v -4.636838 1.494568 0.562644
v -4.636600 1.493478 0.561266
v -4.638548 1.495406 0.562907
v -4.638044 1.493953 0.563789
v -4.636712 1.494612 0.561585
v -4.636600 1.493478 0.561266
v -4.636712 1.494612 0.561585
v -4.637611 1.494104 0.560144
v -4.637655 1.494922 0.563232
v -4.636838 1.494568 0.562644
v -4.636792 1.493411 0.562888
v -4.638044 1.493953 0.563789
v -4.637655 1.494922 0.563232
v -4.636792 1.493411 0.562888
v -4.638845 1.495657 0.561913
v -4.638548 1.495406 0.562907
v -4.639413 1.494696 0.563291
v -4.639868 1.495080 0.561768
v -4.638845 1.495657 0.561913
v -4.639413 1.494696 0.563291
v -4.638624 1.490234 0.561052
v -4.638779 1.490181 0.562359
v -4.638023 1.490748 0.562685
v -4.638624 1.490234 0.561052
v -4.639787 1.490617 0.563084
v -4.640889 1.491215 0.562683
v -4.640811 1.492114 0.563113
v -4.639787 1.490617 0.563084
v -4.641255 1.491524 0.561457
v -4.640610 1.491312 0.560329
v -4.640442 1.492242 0.560004
v -4.641255 1.491524 0.561457
v -4.637818 1.490819 0.560959
v -4.639439 1.490738 0.560149
v -4.638624 1.490234 0.561052
v -4.637818 1.490819 0.560959
v -4.639439 1.490738 0.560149
v -4.639355 1.491324 0.563643
v -4.638023 1.490748 0.562685
v -4.638779 1.490181 0.562359
v -4.639787 1.490617 0.563084
v -4.639355 1.491324 0.563643
v -4.638779 1.490181 0.562359
v -4.641294 1.492522 0.561493
v -4.640811 1.492114 0.563113
v -4.640889 1.491215 0.562683
v -4.641255 1.491524 0.561457
v -4.641294 1.492522 0.561493
v -4.640889 1.491215 0.562683
v -4.638895 1.491484 0.559766
v -4.640442 1.492242 0.560004
v -4.640610 1.491312 0.560329
v -4.639439 1.490738 0.560149
v -4.638895 1.491484 0.559766
v -4.640610 1.491312 0.560329
v -4.640442 1.492242 0.560004
v -4.638895 1.491484 0.559766
v -4.638132 1.492782 0.559604
v -4.640442 1.492242 0.560004
v -4.637611 1.494104 0.560144
v -4.639066 1.494816 0.560368
v -4.639919 1.493657 0.559879
v -4.638132 1.492782 0.559604
v -4.637611 1.494104 0.560144
v -4.639919 1.493657 0.559879
v -4.639919 1.493657 0.559879
v -4.641294 1.492522 0.561493
v -4.640442 1.492242 0.560004
v -4.639919 1.493657 0.559879
v -4.641294 1.492522 0.561493
v -4.639066 1.494816 0.560368
v -4.639868 1.495080 0.561768
v -4.640904 1.493981 0.561600
v -4.639919 1.493657 0.559879
v -4.639066 1.494816 0.560368
v -4.640904 1.493981 0.561600
v -4.640904 1.493981 0.561600
v -4.640811 1.492114 0.563113
v -4.641294 1.492522 0.561493
v -4.640904 1.493981 0.561600
v -4.640811 1.492114 0.563113
v -4.639868 1.495080 0.561768
v -4.639413 1.494696 0.563291
v -4.640346 1.493509 0.563471
v -4.640904 1.493981 0.561600
v -4.639868 1.495080 0.561768
v -4.640346 1.493509 0.563471
v -4.640346 1.493509 0.563471
v -4.639355 1.491324 0.563643
v -4.640811 1.492114 0.563113
v -4.640346 1.493509 0.563471
v -4.639355 1.491324 0.563643
v -4.639413 1.494696 0.563291
v -4.638044 1.493953 0.563789
v -4.638663 1.492597 0.564084
v -4.640346 1.493509 0.563471
v -4.639413 1.494696 0.563291
v -4.638663 1.492597 0.564084
v -4.638663 1.492597 0.564084
v -4.638023 1.490748 0.562685
v -4.639355 1.491324 0.563643
v -4.638663 1.492597 0.564084
v -4.638023 1.490748 0.562685
v -4.638044 1.493953 0.563789
v -4.636792 1.493411 0.562888
v -4.637125 1.491931 0.562976
v -4.638663 1.492597 0.564084
v -4.638044 1.493953 0.563789
v -4.637125 1.491931 0.562976
v -4.637125 1.491931 0.562976
v -4.637818 1.490819 0.560959
v -4.638023 1.490748 0.562685
v -4.637125 1.491931 0.562976
v -4.637818 1.490819 0.560959
v -4.636792 1.493411 0.562888
v -4.636600 1.493478 0.561266
v -4.636888 1.492013 0.560983
v -4.637125 1.491931 0.562976
v -4.636792 1.493411 0.562888
v -4.636888 1.492013 0.560983
v -4.636888 1.492013 0.560983
v -4.638132 1.492782 0.559604
v -4.638895 1.491484 0.559766
v -4.637818 1.490819 0.560959
v -4.636888 1.492013 0.560983
v -4.638895 1.491484 0.559766
v -4.636600 1.493478 0.561266
v -4.637611 1.494104 0.560144
v -4.638132 1.492782 0.559604
v -4.636888 1.492013 0.560983
v -4.636600 1.493478 0.561266
v -4.638132 1.492782 0.559604
v -4.637373 1.495020 0.560853
v -4.638322 1.495485 0.560999
v -4.639066 1.494816 0.560368
v -4.637611 1.494104 0.560144
v -4.637373 1.495020 0.560853
v -4.639066 1.494816 0.560368
v -4.638845 1.495657 0.561913
v -4.638322 1.495485 0.560999
v -4.638548 1.495406 0.562907
v -4.637373 1.495020 0.560853
v -4.638548 1.495406 0.562907
v -4.638322 1.495485 0.560999
v -4.637655 1.494922 0.563232
v -4.638548 1.495406 0.562907
v -4.637373 1.495020 0.560853
v -4.636712 1.494612 0.561585
v -4.637655 1.494922 0.563232
v -4.637373 1.495020 0.560853
v -4.636838 1.494568 0.562644
v -4.637655 1.494922 0.563232
v -4.636712 1.494612 0.561585
v -4.643804 1.486716 0.560956
v -4.643413 1.486385 0.562268
v -4.643114 1.486489 0.559750
v -4.641861 1.485875 0.559557
v -4.643114 1.486489 0.559750
v -4.643413 1.486385 0.562268
v -4.642233 1.485746 0.562697
v -4.641861 1.485875 0.559557
v -4.643413 1.486385 0.562268
v -4.640989 1.485337 0.560523
v -4.641861 1.485875 0.559557
v -4.642233 1.485746 0.562697
v -4.641155 1.485279 0.561921
v -4.640989 1.485337 0.560523
v -4.642233 1.485746 0.562697
vn -0.4493 -0.8888 -0.0900
vn 0.8498 0.5122 -0.1246
vn 0.4174 0.6543 0.6306
vn 0.7922 0.4921 0.3609
vn 0.5469 0.6993 -0.4603
vn 0.4175 0.6543 0.6306
vn 0.5470 0.6992 -0.4603
vn 0.0078 0.8765 0.4814
vn 0.1117 0.9125 -0.3935
vn -0.1283 0.9914 0.0256
vn -0.2366 0.6517 -0.7206
vn 0.5470 0.6993 -0.4603
vn 0.4681 0.3065 -0.8288
vn 0.1117 0.9125 -0.3934
vn 0.3286 -0.0281 -0.9440
vn 0.9584 0.0035 -0.2853
vn 0.8653 -0.3596 -0.3491
vn 0.3286 -0.0280 -0.9440
vn 0.4681 0.3064 -0.8288
vn 0.9584 0.0036 -0.2853
vn 0.1420 -0.3580 -0.9229
vn 0.6476 -0.6702 -0.3624
vn 0.1420 -0.3579 -0.9229
vn 0.8654 -0.3595 -0.3491
vn 0.8652 -0.0288 0.5007
vn 0.7633 -0.3950 0.5112
vn 0.6476 -0.6703 -0.3624
vn 0.5515 -0.7037 0.4481
vn 0.7633 -0.3951 0.5113
vn 0.2585 0.2336 0.9373
vn 0.0992 -0.1077 0.9892
vn 0.7633 -0.3950 0.5113
vn 0.8651 -0.0289 0.5007
vn 0.2585 0.2337 0.9373
vn 0.5514 -0.7037 0.4481
vn -0.0742 -0.4330 0.8983
vn 0.7632 -0.3950 0.5113
vn 0.0991 -0.1077 0.9892
vn -0.4047 0.5933 0.6958
vn -0.6267 0.2860 0.7248
vn -0.4047 0.5934 0.6958
vn -0.6268 0.2860 0.7248
vn -0.7580 -0.0621 0.6493
vn -0.6267 0.2860 0.7249
vn -0.6250 0.7795 -0.0420
vn -0.8679 0.4897 -0.0828
vn -0.7580 -0.0621 0.6492
vn -0.9852 0.1298 -0.1116
vn -0.8680 0.4897 -0.0829
vn -0.2366 0.6518 -0.7206
vn -0.4428 0.3499 -0.8255
vn -0.6251 0.7794 -0.0421
vn -0.2366 0.6518 -0.7205
vn -0.5847 -0.0018 -0.8112
vn -0.4427 0.3499 -0.8256
vn -0.4427 0.3500 -0.8255
vn -0.5847 -0.0019 -0.8112
vn -0.4428 0.3500 -0.8255
vn -0.5614 0.0734 -0.8243
vn 0.1837 -0.2917 -0.9387
vn -0.5847 -0.0018 -0.8113
vn -0.7392 0.0117 0.6734
vn -0.9722 0.2084 -0.1068
vn 0.6035 -0.6462 0.4671
vn -0.0741 -0.4330 0.8983
vn -0.0380 -0.3687 0.9288
vn 0.6476 -0.6702 -0.3625
vn 0.7021 -0.6120 -0.3640
vn -0.9722 0.2085 -0.1068
vn -0.5615 0.0734 -0.8242
vn -0.0379 -0.3687 0.9288
vn 0.7022 -0.6119 -0.3640
vn 0.7021 -0.6119 -0.3640
vn -0.4048 0.5934 0.6958
vn 0.0079 0.8765 0.4814
vn 0.8651 -0.0288 0.5007
vn 0.5469 0.6993 -0.4604
vn -0.6250 0.7795 -0.0421
vn 0.3205 -0.0445 -0.9462
vn 0.8575 -0.3762 -0.3510
vn -0.8767 0.4735 -0.0846
vn -0.4513 0.3337 -0.8276
vn -0.8767 0.4736 -0.0846
vn 0.0909 -0.1242 0.9881
vn -0.6354 0.2697 0.7236
vn 0.8575 -0.3762 -0.3509
vn 0.7554 -0.4117 0.5098
vn -0.8767 0.4735 -0.0845
vn -0.6354 0.2698 0.7236
vn 0.7553 -0.4117 0.5099
vn 0.7554 -0.4117 0.5099
vt 0.530319 0.635056
vt 0.522446 0.641335
vt 0.524872 0.636299
vt 0.524872 0.646370
vt 0.534683 0.638535
vt 0.530319 0.647614
vt 0.534683 0.644127
vt 0.508789 0.671494
vt 0.513626 0.669548
vt 0.511276 0.672157
vt 0.507889 0.669609
vt 0.511566 0.666756
vt 0.507935 0.667854
vt 0.509277 0.666748
vt 0.506302 0.666855
vt 0.505722 0.669838
vt 0.502487 0.669685
vt 0.506897 0.673050
vt 0.503479 0.674789
vt 0.497520 0.669067
vt 0.497810 0.676537
vt 0.510727 0.675606
vt 0.507721 0.680244
vt 0.501465 0.684982
vt 0.518890 0.674767
vt 0.518692 0.686485
vt 0.509125 0.696274
vt 0.518890 0.658051
vt 0.512238 0.663902
vt 0.511536 0.659698
vt 0.517990 0.665543
vt 0.515472 0.651657
vt 0.509323 0.655174
vt 0.508469 0.664742
vt 0.506836 0.661980
vt 0.504074 0.658463
vt 0.503784 0.665283
vt 0.499901 0.662933
vt 0.495453 0.660286
vt 0.491707 0.668175
vt 0.506927 0.651588
vt 0.501038 0.654999
vt 0.494583 0.688484
vt 0.500031 0.699394
vt 0.491287 0.678001
vt 0.512177 0.648293
vt 0.627350 0.642853
vt 0.649124 0.647896
vt 0.627441 0.648445
vt 0.649033 0.642670
vt 0.627441 0.631676
vt 0.649033 0.637444
vt 0.627350 0.637268
vt 0.649124 0.632225
vt 0.627914 0.620506
vt 0.649292 0.626999
vt 0.627625 0.626091
vt 0.649551 0.621780
vt 0.649292 0.653114
vt 0.627625 0.654030
vt 0.649551 0.658333
vt 0.627914 0.659607
s 0
usemtl decorations
f 240/1/1 239/2/1 238/3/1
f 237/1/1 236/4/1 235/2/1
f 234/5/1 233/4/1 232/1/1
f 231/5/1 230/6/1 229/4/1
f 228/6/1 227/5/1 226/7/1
s 1
f 225/8/2 224/9/3 223/10/4
f 222/11/5 221/9/6 220/8/2
f 219/11/7 218/12/8 217/9/3
f 216/13/9 215/12/8 214/11/7
f 213/12/8 212/13/9 211/14/10
f 210/15/11 209/11/12 208/16/13
f 207/15/11 206/13/14 205/11/5
f 204/17/15 203/18/16 202/19/17
f 201/17/18 200/16/19 199/18/20
f 198/20/21 197/19/17 196/21/22
f 195/20/23 194/17/18 193/19/24
f 192/19/17 191/22/25 190/23/26
f 189/19/17 188/18/16 187/22/25
f 186/21/27 185/23/26 184/24/28
f 183/21/27 3/19/17 182/23/26
f 181/23/29 180/25/30 179/26/31
f 178/23/32 177/22/33 176/25/34
f 175/24/35 174/26/31 173/27/36
f 172/24/35 4/23/37 171/26/31
f 170/28/38 169/29/39 168/30/40
f 167/28/38 166/31/30 165/29/41
f 164/32/36 163/30/42 162/33/43
f 161/32/36 13/28/31 160/30/44
f 159/30/40 158/34/45 157/35/46
f 156/30/40 155/29/41 154/34/45
f 153/33/47 152/35/46 151/36/48
f 150/33/47 14/30/40 149/35/46
f 148/35/49 147/15/50 146/37/51
f 145/35/49 144/34/52 143/15/53
f 142/36/48 141/37/51 140/38/54
f 139/36/48 16/35/46 138/37/51
f 137/37/55 136/16/13 135/17/18
f 134/37/56 133/15/11 132/16/13
f 131/38/57 130/17/18 129/20/23
f 128/38/57 36/37/58 25/17/18
f 127/39/59 126/20/23 125/40/60
f 124/39/59 123/38/61 122/20/23
f 121/41/62 120/36/48 119/42/63
f 118/41/62 117/33/43 116/36/48
f 115/43/64 114/27/65 113/44/66
f 112/43/64 111/24/35 110/27/65
f 109/40/60 108/21/67 107/45/68
f 106/40/60 40/20/21 105/21/67
f 104/42/69 103/38/54 102/39/70
f 101/42/63 41/36/48 42/38/54
f 100/46/71 99/33/43 98/41/62
f 97/46/71 37/32/36 38/33/43
f 96/45/72 95/24/35 94/43/64
f 93/45/73 33/21/27 34/24/35
f 92/29/74 91/14/10 90/34/45
f 89/29/74 88/12/75 87/14/10
f 86/22/76 85/9/3 84/25/30
f 83/22/76 82/10/4 81/9/6
f 80/16/19 79/8/2 78/18/20
f 29/16/19 30/11/77 77/8/2
f 76/31/34 75/12/8 28/29/41
f 31/31/34 26/9/6 27/12/8
f 74/18/16 73/10/4 24/22/25
f 21/18/16 22/8/2 23/10/4
f 72/34/78 71/13/9 20/15/50
f 17/34/78 18/14/10 19/13/14
f 70/47/79 69/48/72 68/49/80
f 67/47/79 66/50/60 65/48/73
f 64/51/81 63/52/59 62/53/82
f 61/51/83 60/54/63 59/52/70
f 58/55/84 57/56/62 56/57/85
f 55/55/84 54/58/66 53/56/62
f 52/49/86 51/59/64 50/60/87
f 2/49/86 32/48/68 49/59/64
f 48/53/82 47/50/60 12/47/79
f 9/53/82 10/52/59 11/50/60
f 46/57/85 45/54/69 8/51/88
f 5/57/89 6/56/62 7/54/63
f 44/60/90 43/61/71 15/62/84
f 1/60/91 35/59/64 39/61/71
