# Blender 5.0.0
# www.blender.org
mtllib Circle_002_Circle_003_Dupli_61_decorations_0.mtl
o Circle.002|Circle.003|Dupli|61_decorations_0
v -4.637059 0.666025 0.760871
v -4.635731 0.666175 0.761315
v -4.637584 0.672420 0.765695
v -4.639478 0.672206 0.765060
v -4.637064 0.667292 0.758671
v -4.638400 0.671840 0.761389
v -4.637160 0.672273 0.761297
v -4.635737 0.667754 0.758573
v -4.634671 0.667562 0.759473
v -4.636163 0.672093 0.762138
v -4.636161 0.671436 0.763279
v -4.634668 0.666859 0.760693
v -4.640325 0.672915 0.763381
v -4.639486 0.674013 0.761923
v -4.637652 0.666522 0.759694
v -4.637594 0.674673 0.761782
v -4.638059 0.675662 0.762838
v -4.638451 0.676136 0.763848
v -4.637643 0.675990 0.764530
v -4.636821 0.675438 0.763883
v -4.638051 0.673829 0.766022
v -4.638446 0.674940 0.765926
v -4.639452 0.674826 0.765589
v -4.639593 0.673654 0.765505
v -4.636068 0.673396 0.764807
v -4.639901 0.675202 0.764698
v -4.639456 0.675785 0.763923
v -4.639599 0.675125 0.762952
v -4.636817 0.674622 0.765299
v -4.637641 0.675458 0.765455
v -4.640282 0.674231 0.764139
v -4.637154 0.670797 0.763861
v -4.637272 0.671315 0.764707
v -4.638912 0.671130 0.764158
v -4.638395 0.670657 0.763445
v -4.636073 0.674398 0.763066
v -4.639644 0.671743 0.762705
v -4.638918 0.672694 0.761443
v -4.638950 0.671121 0.762345
v -4.635960 0.672159 0.763939
v -4.637280 0.673265 0.761321
v -4.635963 0.673027 0.762432
v -4.638950 0.671121 0.762345
v -4.637059 0.666025 0.760871
v -4.637160 0.672273 0.761297
v -4.637064 0.667292 0.758671
v -4.636161 0.671436 0.763279
v -4.634671 0.667562 0.759473
v -4.638395 0.670657 0.763445
v -4.637059 0.666025 0.760871
v -4.638395 0.670657 0.763445
v -4.635731 0.666175 0.761315
v -4.638400 0.671840 0.761389
v -4.638950 0.671121 0.762345
v -4.637652 0.666522 0.759694
v -4.637064 0.667292 0.758671
v -4.638400 0.671840 0.761389
v -4.637652 0.666522 0.759694
v -4.636163 0.672093 0.762138
v -4.637160 0.672273 0.761297
v -4.635737 0.667754 0.758573
v -4.634671 0.667562 0.759473
v -4.636163 0.672093 0.762138
v -4.635737 0.667754 0.758573
v -4.637154 0.670797 0.763861
v -4.636161 0.671436 0.763279
v -4.634668 0.666859 0.760693
v -4.635731 0.666175 0.761315
v -4.637154 0.670797 0.763861
v -4.634668 0.666859 0.760693
v -4.637643 0.675990 0.764530
v -4.638059 0.675662 0.762838
v -4.639452 0.674826 0.765589
v -4.638051 0.673829 0.766022
v -4.639456 0.675785 0.763923
v -4.640282 0.674231 0.764139
v -4.638446 0.674940 0.765926
v -4.638051 0.673829 0.766022
v -4.638446 0.674940 0.765926
v -4.636817 0.674622 0.765299
v -4.639901 0.675202 0.764698
v -4.639452 0.674826 0.765589
v -4.639593 0.673654 0.765505
v -4.640282 0.674231 0.764139
v -4.639901 0.675202 0.764698
v -4.639593 0.673654 0.765505
v -4.638451 0.676136 0.763848
v -4.639456 0.675785 0.763923
v -4.639599 0.675125 0.762952
v -4.638059 0.675662 0.762838
v -4.638451 0.676136 0.763848
v -4.639599 0.675125 0.762952
v -4.637154 0.670797 0.763861
v -4.638395 0.670657 0.763445
v -4.638912 0.671130 0.764158
v -4.637154 0.670797 0.763861
v -4.638950 0.671121 0.762345
v -4.638400 0.671840 0.761389
v -4.638918 0.672694 0.761443
v -4.638950 0.671121 0.762345
v -4.637160 0.672273 0.761297
v -4.636163 0.672093 0.762138
v -4.635963 0.673027 0.762432
v -4.637160 0.672273 0.761297
v -4.637272 0.671315 0.764707
v -4.636161 0.671436 0.763279
v -4.637154 0.670797 0.763861
v -4.637272 0.671315 0.764707
v -4.636161 0.671436 0.763279
v -4.639644 0.671743 0.762705
v -4.638912 0.671130 0.764158
v -4.638395 0.670657 0.763445
v -4.638950 0.671121 0.762345
v -4.639644 0.671743 0.762705
v -4.638395 0.670657 0.763445
v -4.637280 0.673265 0.761321
v -4.638918 0.672694 0.761443
v -4.638400 0.671840 0.761389
v -4.637160 0.672273 0.761297
v -4.637280 0.673265 0.761321
v -4.638400 0.671840 0.761389
v -4.635960 0.672159 0.763939
v -4.635963 0.673027 0.762432
v -4.636163 0.672093 0.762138
v -4.636161 0.671436 0.763279
v -4.635960 0.672159 0.763939
v -4.636163 0.672093 0.762138
v -4.635963 0.673027 0.762432
v -4.635960 0.672159 0.763939
v -4.636068 0.673396 0.764807
v -4.635963 0.673027 0.762432
v -4.636817 0.674622 0.765299
v -4.636821 0.675438 0.763883
v -4.636073 0.674398 0.763066
v -4.636068 0.673396 0.764807
v -4.636817 0.674622 0.765299
v -4.636073 0.674398 0.763066
v -4.636073 0.674398 0.763066
v -4.637280 0.673265 0.761321
v -4.635963 0.673027 0.762432
v -4.636073 0.674398 0.763066
v -4.637280 0.673265 0.761321
v -4.636821 0.675438 0.763883
v -4.638059 0.675662 0.762838
v -4.637594 0.674673 0.761782
v -4.636073 0.674398 0.763066
v -4.636821 0.675438 0.763883
v -4.637594 0.674673 0.761782
v -4.637594 0.674673 0.761782
v -4.638918 0.672694 0.761443
v -4.637280 0.673265 0.761321
v -4.637594 0.674673 0.761782
v -4.638918 0.672694 0.761443
v -4.638059 0.675662 0.762838
v -4.639599 0.675125 0.762952
v -4.639486 0.674013 0.761923
v -4.637594 0.674673 0.761782
v -4.638059 0.675662 0.762838
v -4.639486 0.674013 0.761923
v -4.639486 0.674013 0.761923
v -4.639644 0.671743 0.762705
v -4.638918 0.672694 0.761443
v -4.639486 0.674013 0.761923
v -4.639644 0.671743 0.762705
v -4.639599 0.675125 0.762952
v -4.640282 0.674231 0.764139
v -4.640325 0.672915 0.763381
v -4.639486 0.674013 0.761923
v -4.639599 0.675125 0.762952
v -4.640325 0.672915 0.763381
v -4.640325 0.672915 0.763381
v -4.638912 0.671130 0.764158
v -4.639644 0.671743 0.762705
v -4.640325 0.672915 0.763381
v -4.638912 0.671130 0.764158
v -4.640282 0.674231 0.764139
v -4.639593 0.673654 0.765505
v -4.639478 0.672206 0.765060
v -4.640325 0.672915 0.763381
v -4.640282 0.674231 0.764139
v -4.639478 0.672206 0.765060
v -4.639478 0.672206 0.765060
v -4.637272 0.671315 0.764707
v -4.638912 0.671130 0.764158
v -4.639478 0.672206 0.765060
v -4.637272 0.671315 0.764707
v -4.639593 0.673654 0.765505
v -4.638051 0.673829 0.766022
v -4.637584 0.672420 0.765695
v -4.639478 0.672206 0.765060
v -4.639593 0.673654 0.765505
v -4.637584 0.672420 0.765695
v -4.637584 0.672420 0.765695
v -4.636068 0.673396 0.764807
v -4.635960 0.672159 0.763939
v -4.637272 0.671315 0.764707
v -4.637584 0.672420 0.765695
v -4.635960 0.672159 0.763939
v -4.638051 0.673829 0.766022
v -4.636817 0.674622 0.765299
v -4.636068 0.673396 0.764807
v -4.637584 0.672420 0.765695
v -4.638051 0.673829 0.766022
v -4.636068 0.673396 0.764807
v -4.637641 0.675458 0.765455
v -4.637643 0.675990 0.764530
v -4.636821 0.675438 0.763883
v -4.636817 0.674622 0.765299
v -4.637641 0.675458 0.765455
v -4.636821 0.675438 0.763883
v -4.638451 0.676136 0.763848
v -4.637643 0.675990 0.764530
v -4.639456 0.675785 0.763923
v -4.637641 0.675458 0.765455
v -4.639456 0.675785 0.763923
v -4.637643 0.675990 0.764530
v -4.639901 0.675202 0.764698
v -4.639456 0.675785 0.763923
v -4.637641 0.675458 0.765455
v -4.638446 0.674940 0.765926
v -4.639901 0.675202 0.764698
v -4.637641 0.675458 0.765455
v -4.639452 0.674826 0.765589
v -4.639901 0.675202 0.764698
v -4.638446 0.674940 0.765926
v -4.635737 0.667754 0.758573
v -4.637064 0.667292 0.758671
v -4.634671 0.667562 0.759473
v -4.634668 0.666859 0.760693
v -4.634671 0.667562 0.759473
v -4.637064 0.667292 0.758671
v -4.637652 0.666522 0.759694
v -4.634668 0.666859 0.760693
v -4.637064 0.667292 0.758671
v -4.635731 0.666175 0.761315
v -4.634668 0.666859 0.760693
v -4.637652 0.666522 0.759694
v -4.637059 0.666025 0.760871
v -4.635731 0.666175 0.761315
v -4.637652 0.666522 0.759694
vn 0.2563 -0.8374 -0.4828
vn -0.0892 0.4452 0.8910
vn -0.7567 0.5658 0.3276
vn -0.5505 0.3931 0.7365
vn 0.2800 0.6828 0.6748
vn -0.7567 0.5657 0.3276
vn 0.2799 0.6828 0.6749
vn -0.5524 0.8331 -0.0277
vn 0.2789 0.9270 0.2508
vn 0.2799 0.6828 0.6748
vn -0.0915 0.9939 -0.0618
vn 0.6896 0.7229 -0.0424
vn 0.6913 0.3277 0.6440
vn 0.6896 0.7229 -0.0425
vn 0.8615 0.0161 0.5075
vn 0.0937 -0.0570 0.9940
vn 0.2073 -0.4048 0.8906
vn 0.8615 0.0162 0.5075
vn 0.6913 0.3276 0.6440
vn 0.9071 -0.2971 0.2980
vn 0.2073 -0.4049 0.8906
vn 0.2909 -0.6937 0.6589
vn -0.6532 -0.1413 0.7438
vn -0.6102 -0.4972 0.6168
vn 0.0936 -0.0571 0.9940
vn -0.6532 -0.1414 0.7438
vn 0.2908 -0.6938 0.6588
vn -0.4793 -0.7807 0.4010
vn 0.2908 -0.6938 0.6589
vn -0.6103 -0.4972 0.6168
vn -0.9870 0.1381 0.0819
vn -0.9756 -0.1913 -0.1078
vn -0.6533 -0.1414 0.7438
vn -0.9870 0.1381 0.0820
vn -0.4793 -0.7808 0.4009
vn -0.8235 -0.4925 -0.2816
vn -0.4793 -0.7807 0.4009
vn -0.6103 -0.4972 0.6167
vn -0.6563 0.5709 -0.4933
vn -0.6136 0.2825 -0.7373
vn -0.6563 0.5710 -0.4932
vn -0.8235 -0.4925 -0.2817
vn -0.6136 0.2825 -0.7374
vn -0.4825 -0.0462 -0.8747
vn 0.0898 0.8313 -0.5486
vn 0.2032 0.5674 -0.7980
vn 0.0898 0.8312 -0.5486
vn -0.4824 -0.0462 -0.8747
vn 0.2870 0.2222 -0.9318
vn 0.8596 0.4489 -0.2439
vn 0.0899 0.8312 -0.5486
vn 0.6896 0.7230 -0.0425
vn 0.8597 0.4489 -0.2439
vn 0.9054 0.1106 -0.4099
vn 0.8597 0.4488 -0.2439
vn 0.9054 0.1105 -0.4099
vn 0.9067 0.1843 -0.3793
vn 0.9072 -0.2971 0.2980
vn 0.9085 -0.2337 0.3465
vn 0.9067 0.1843 -0.3794
vn -0.5164 0.0236 -0.8560
vn 0.2726 0.2988 -0.9146
vn -0.5132 -0.7296 0.4520
vn -0.8661 -0.4341 -0.2478
vn 0.9085 -0.2336 0.3465
vn 0.2766 -0.6404 0.7165
vn 0.2726 0.2989 -0.9145
vn -0.8661 -0.4340 -0.2478
vn 0.2765 -0.6404 0.7166
vn -0.6563 0.5710 -0.4933
vn -0.5524 0.8331 -0.0276
vn -0.0915 0.9939 -0.0619
vn -0.6533 -0.1413 0.7438
vn 0.6913 0.3276 0.6441
vn 0.0937 -0.0571 0.9940
vn -0.0892 0.4453 0.8909
vn 0.0899 0.8313 -0.5486
vn 0.8667 0.0007 0.4989
vn 0.2766 -0.6404 0.7166
vn 0.2122 -0.4206 0.8821
vn 0.2081 0.5522 -0.8073
vn 0.8648 0.4337 -0.2530
vn 0.2081 0.5523 -0.8073
vn 0.2726 0.2988 -0.9145
vn -0.9714 -0.2069 -0.1168
vn -0.6092 0.2671 -0.7466
vn -0.9714 -0.2068 -0.1168
vn 0.2121 -0.4206 0.8821
vn -0.6058 -0.5130 0.6082
vn 0.2121 -0.4205 0.8821
vn 0.8648 0.4336 -0.2530
vn 0.9085 -0.2337 0.3466
vn 0.8667 0.0007 0.4988
vn -0.6092 0.2672 -0.7467
vn 0.2080 0.5522 -0.8073
vn -0.6092 0.2672 -0.7466
vn -0.6058 -0.5130 0.6081
vn -0.6058 -0.5129 0.6082
vt 0.530319 0.611839
vt 0.522446 0.618118
vt 0.524872 0.613083
vt 0.524872 0.623154
vt 0.534683 0.615326
vt 0.530319 0.624397
vt 0.534683 0.620918
vt 0.537079 0.671494
vt 0.541916 0.669548
vt 0.539566 0.672157
vt 0.536179 0.669609
vt 0.539856 0.666756
vt 0.536224 0.667854
vt 0.537567 0.666748
vt 0.534592 0.666855
vt 0.534012 0.669838
vt 0.530777 0.669685
vt 0.535187 0.673050
vt 0.531769 0.674789
vt 0.525803 0.669067
vt 0.526108 0.676537
vt 0.539017 0.675606
vt 0.536011 0.680244
vt 0.529755 0.684982
vt 0.547180 0.674767
vt 0.546982 0.686485
vt 0.537415 0.696274
vt 0.547180 0.658051
vt 0.540527 0.663902
vt 0.539825 0.659698
vt 0.546280 0.665543
vt 0.543762 0.651657
vt 0.537613 0.655174
vt 0.536758 0.664742
vt 0.535126 0.661980
vt 0.532364 0.658463
vt 0.532074 0.665283
vt 0.528198 0.662933
vt 0.523743 0.660286
vt 0.519989 0.668175
vt 0.535217 0.651588
vt 0.529327 0.654999
vt 0.522873 0.688484
vt 0.528320 0.699394
vt 0.519577 0.678001
vt 0.540466 0.648293
vt 0.604446 0.642853
vt 0.626221 0.647896
vt 0.604553 0.648445
vt 0.626144 0.642670
vt 0.604553 0.631676
vt 0.626144 0.637444
vt 0.604446 0.637268
vt 0.626221 0.632225
vt 0.605011 0.620506
vt 0.626404 0.626999
vt 0.604736 0.626091
vt 0.626663 0.621780
vt 0.626404 0.653114
vt 0.604736 0.654030
vt 0.626663 0.658333
vt 0.605011 0.659607
s 0
usemtl decorations
f 240/1/1 239/2/1 238/3/1
f 237/1/1 236/4/1 235/2/1
f 234/5/1 233/4/1 232/1/1
f 231/5/1 230/6/1 229/4/1
f 228/6/1 227/5/1 226/7/1
s 1
f 225/8/2 224/9/3 223/10/4
f 222/11/5 221/9/6 220/8/2
f 219/11/7 218/12/8 217/9/3
f 216/13/9 215/12/8 214/11/10
f 213/12/8 212/13/9 211/14/11
f 210/15/12 209/11/10 208/16/13
f 207/15/14 206/13/9 205/11/10
f 204/17/15 203/18/16 202/19/17
f 201/17/18 200/16/19 199/18/16
f 198/20/20 197/19/21 196/21/22
f 195/20/20 194/17/18 193/19/17
f 192/19/21 191/22/23 190/23/24
f 189/19/17 188/18/25 187/22/26
f 186/21/27 185/23/24 184/24/28
f 183/21/29 3/19/21 182/23/24
f 181/23/30 180/25/31 179/26/32
f 178/23/24 177/22/33 176/25/34
f 175/24/35 174/26/32 173/27/36
f 172/24/37 4/23/38 171/26/32
f 170/28/32 169/29/39 168/30/40
f 167/28/32 166/31/31 165/29/41
f 164/32/42 163/30/43 162/33/44
f 161/32/36 13/28/32 160/30/40
f 159/30/40 158/34/45 157/35/46
f 156/30/40 155/29/39 154/34/47
f 153/33/48 152/35/46 151/36/49
f 150/33/48 14/30/40 149/35/46
f 148/35/46 147/15/14 146/37/50
f 145/35/46 144/34/51 143/15/52
f 142/36/49 141/37/53 140/38/54
f 139/36/49 16/35/46 138/37/53
f 137/37/55 136/16/19 135/17/18
f 134/37/50 133/15/14 132/16/13
f 131/38/56 130/17/18 129/20/20
f 128/38/56 36/37/50 25/17/18
f 127/39/57 126/20/58 125/40/59
f 124/39/60 123/38/54 122/20/58
f 121/41/61 120/36/49 119/42/62
f 118/41/61 117/33/48 116/36/49
f 115/43/63 114/27/36 113/44/64
f 112/43/63 111/24/37 110/27/36
f 109/40/65 108/21/22 107/45/66
f 106/40/59 40/20/58 105/21/22
f 104/42/67 103/38/54 102/39/60
f 101/42/62 41/36/49 42/38/54
f 100/46/68 99/33/44 98/41/61
f 97/46/64 37/32/36 38/33/44
f 96/45/69 95/24/37 94/43/63
f 93/45/66 33/21/22 34/24/37
f 92/29/70 91/14/11 90/34/47
f 89/29/39 88/12/71 87/14/72
f 86/22/73 85/9/3 84/25/34
f 83/22/33 82/10/4 81/9/3
f 80/16/74 79/8/2 78/18/16
f 29/16/74 30/11/5 77/8/2
f 76/31/31 75/12/8 28/29/41
f 31/31/31 26/9/3 27/12/71
f 74/18/75 73/10/4 24/22/26
f 21/18/75 22/8/76 23/10/4
f 72/34/77 71/13/9 20/15/14
f 17/34/51 18/14/11 19/13/9
f 70/47/78 69/48/79 68/49/80
f 67/47/78 66/50/59 65/48/66
f 64/51/81 63/52/57 62/53/82
f 61/51/83 60/54/84 59/52/60
f 58/55/85 57/56/61 56/57/86
f 55/55/87 54/58/64 53/56/61
f 52/49/88 51/59/63 50/60/89
f 2/49/90 32/48/66 49/59/63
f 48/53/91 47/50/92 12/47/93
f 9/53/82 10/52/60 11/50/59
f 46/57/94 45/54/84 8/51/95
f 5/57/96 6/56/61 7/54/62
f 44/60/97 43/61/64 15/62/85
f 1/60/98 35/59/63 39/61/64
