# Blender 5.0.0
# www.blender.org
mtllib Circle_002_Circle_Dupli_259_decorations_0.mtl
o Circle.002|Circle|Dupli|259_decorations_0
v -4.601902 1.194383 0.427906
v -4.601954 1.194547 0.429303
v -4.609012 1.191142 0.429748
v -4.608939 1.190908 0.427754
v -4.602784 1.196601 0.427044
v -4.607847 1.194548 0.427184
v -4.608098 1.195214 0.428292
v -4.603053 1.197313 0.428229
v -4.602876 1.196897 0.429563
v -4.607933 1.194825 0.429538
v -4.607475 1.193674 0.429985
v -4.602387 1.195665 0.430041
v -4.609467 1.192212 0.426319
v -4.610197 1.194073 0.426525
v -4.602273 1.195297 0.426900
v -4.610580 1.195088 0.428216
v -4.611779 1.194156 0.428281
v -4.612457 1.193191 0.428370
v -4.612323 1.192876 0.429380
v -4.611574 1.193673 0.429830
v -4.610502 1.190945 0.429528
v -4.611624 1.191095 0.429183
v -4.611586 1.190971 0.428124
v -4.610443 1.190755 0.427905
v -4.609630 1.192738 0.430800
v -4.611866 1.191664 0.427363
v -4.612254 1.192652 0.427472
v -4.611467 1.193330 0.426905
v -4.611005 1.192244 0.430385
v -4.611952 1.191943 0.429742
v -4.610872 1.191816 0.426738
v -4.607070 1.192628 0.429295
v -4.607730 1.191928 0.429566
v -4.607667 1.191725 0.427840
v -4.607023 1.192475 0.427989
v -4.610328 1.194494 0.430118
v -4.608124 1.192854 0.426599
v -4.608756 1.194465 0.426777
v -4.607368 1.193329 0.427049
v -4.608265 1.193309 0.430477
v -4.609088 1.195344 0.428240
v -4.608870 1.194829 0.429887
v -4.607368 1.193329 0.427049
v -4.601902 1.194383 0.427906
v -4.608098 1.195214 0.428292
v -4.602784 1.196601 0.427044
v -4.607475 1.193674 0.429985
v -4.602876 1.196897 0.429563
v -4.607023 1.192475 0.427989
v -4.601902 1.194383 0.427906
v -4.607023 1.192475 0.427989
v -4.601954 1.194547 0.429303
v -4.607847 1.194548 0.427184
v -4.607368 1.193329 0.427049
v -4.602273 1.195297 0.426900
v -4.602784 1.196601 0.427044
v -4.607847 1.194548 0.427184
v -4.602273 1.195297 0.426900
v -4.607933 1.194825 0.429538
v -4.608098 1.195214 0.428292
v -4.603053 1.197313 0.428229
v -4.602876 1.196897 0.429563
v -4.607933 1.194825 0.429538
v -4.603053 1.197313 0.428229
v -4.607070 1.192628 0.429295
v -4.607475 1.193674 0.429985
v -4.602387 1.195665 0.430041
v -4.601954 1.194547 0.429303
v -4.607070 1.192628 0.429295
v -4.602387 1.195665 0.430041
v -4.612323 1.192876 0.429380
v -4.611779 1.194156 0.428281
v -4.611586 1.190971 0.428124
v -4.610502 1.190945 0.429528
v -4.612254 1.192652 0.427472
v -4.610872 1.191816 0.426738
v -4.611624 1.191095 0.429183
v -4.610502 1.190945 0.429528
v -4.611624 1.191095 0.429183
v -4.611005 1.192244 0.430385
v -4.611866 1.191664 0.427363
v -4.611586 1.190971 0.428124
v -4.610443 1.190755 0.427905
v -4.610872 1.191816 0.426738
v -4.611866 1.191664 0.427363
v -4.610443 1.190755 0.427905
v -4.612457 1.193191 0.428370
v -4.612254 1.192652 0.427472
v -4.611467 1.193330 0.426905
v -4.611779 1.194156 0.428281
v -4.612457 1.193191 0.428370
v -4.611467 1.193330 0.426905
v -4.607070 1.192628 0.429295
v -4.607023 1.192475 0.427989
v -4.607667 1.191725 0.427840
v -4.607070 1.192628 0.429295
v -4.607368 1.193329 0.427049
v -4.607847 1.194548 0.427184
v -4.608756 1.194465 0.426777
v -4.607368 1.193329 0.427049
v -4.608098 1.195214 0.428292
v -4.607933 1.194825 0.429538
v -4.608870 1.194829 0.429887
v -4.608098 1.195214 0.428292
v -4.607730 1.191928 0.429566
v -4.607475 1.193674 0.429985
v -4.607070 1.192628 0.429295
v -4.607730 1.191928 0.429566
v -4.607475 1.193674 0.429985
v -4.608124 1.192854 0.426599
v -4.607667 1.191725 0.427840
v -4.607023 1.192475 0.427989
v -4.607368 1.193329 0.427049
v -4.608124 1.192854 0.426599
v -4.607023 1.192475 0.427989
v -4.609088 1.195344 0.428240
v -4.608756 1.194465 0.426777
v -4.607847 1.194548 0.427184
v -4.608098 1.195214 0.428292
v -4.609088 1.195344 0.428240
v -4.607847 1.194548 0.427184
v -4.608265 1.193309 0.430477
v -4.608870 1.194829 0.429887
v -4.607933 1.194825 0.429538
v -4.607475 1.193674 0.429985
v -4.608265 1.193309 0.430477
v -4.607933 1.194825 0.429538
v -4.608870 1.194829 0.429887
v -4.608265 1.193309 0.430477
v -4.609630 1.192738 0.430800
v -4.608870 1.194829 0.429887
v -4.611005 1.192244 0.430385
v -4.611574 1.193673 0.429830
v -4.610328 1.194494 0.430118
v -4.609630 1.192738 0.430800
v -4.611005 1.192244 0.430385
v -4.610328 1.194494 0.430118
v -4.610328 1.194494 0.430118
v -4.609088 1.195344 0.428240
v -4.608870 1.194829 0.429887
v -4.610328 1.194494 0.430118
v -4.609088 1.195344 0.428240
v -4.611574 1.193673 0.429830
v -4.611779 1.194156 0.428281
v -4.610580 1.195088 0.428216
v -4.610328 1.194494 0.430118
v -4.611574 1.193673 0.429830
v -4.610580 1.195088 0.428216
v -4.610580 1.195088 0.428216
v -4.608756 1.194465 0.426777
v -4.609088 1.195344 0.428240
v -4.610580 1.195088 0.428216
v -4.608756 1.194465 0.426777
v -4.611779 1.194156 0.428281
v -4.611467 1.193330 0.426905
v -4.610197 1.194073 0.426525
v -4.610580 1.195088 0.428216
v -4.611779 1.194156 0.428281
v -4.610197 1.194073 0.426525
v -4.610197 1.194073 0.426525
v -4.608124 1.192854 0.426599
v -4.608756 1.194465 0.426777
v -4.610197 1.194073 0.426525
v -4.608124 1.192854 0.426599
v -4.611467 1.193330 0.426905
v -4.610872 1.191816 0.426738
v -4.609467 1.192212 0.426319
v -4.610197 1.194073 0.426525
v -4.611467 1.193330 0.426905
v -4.609467 1.192212 0.426319
v -4.609467 1.192212 0.426319
v -4.607667 1.191725 0.427840
v -4.608124 1.192854 0.426599
v -4.609467 1.192212 0.426319
v -4.607667 1.191725 0.427840
v -4.610872 1.191816 0.426738
v -4.610443 1.190755 0.427905
v -4.608939 1.190908 0.427754
v -4.609467 1.192212 0.426319
v -4.610872 1.191816 0.426738
v -4.608939 1.190908 0.427754
v -4.608939 1.190908 0.427754
v -4.607730 1.191928 0.429566
v -4.607667 1.191725 0.427840
v -4.608939 1.190908 0.427754
v -4.607730 1.191928 0.429566
v -4.610443 1.190755 0.427905
v -4.610502 1.190945 0.429528
v -4.609012 1.191142 0.429748
v -4.608939 1.190908 0.427754
v -4.610443 1.190755 0.427905
v -4.609012 1.191142 0.429748
v -4.609012 1.191142 0.429748
v -4.609630 1.192738 0.430800
v -4.608265 1.193309 0.430477
v -4.607730 1.191928 0.429566
v -4.609012 1.191142 0.429748
v -4.608265 1.193309 0.430477
v -4.610502 1.190945 0.429528
v -4.611005 1.192244 0.430385
v -4.609630 1.192738 0.430800
v -4.609012 1.191142 0.429748
v -4.610502 1.190945 0.429528
v -4.609630 1.192738 0.430800
v -4.611952 1.191943 0.429742
v -4.612323 1.192876 0.429380
v -4.611574 1.193673 0.429830
v -4.611005 1.192244 0.430385
v -4.611952 1.191943 0.429742
v -4.611574 1.193673 0.429830
v -4.612457 1.193191 0.428370
v -4.612323 1.192876 0.429380
v -4.612254 1.192652 0.427472
v -4.611952 1.191943 0.429742
v -4.612254 1.192652 0.427472
v -4.612323 1.192876 0.429380
v -4.611866 1.191664 0.427363
v -4.612254 1.192652 0.427472
v -4.611952 1.191943 0.429742
v -4.611624 1.191095 0.429183
v -4.611866 1.191664 0.427363
v -4.611952 1.191943 0.429742
v -4.611586 1.190971 0.428124
v -4.611866 1.191664 0.427363
v -4.611624 1.191095 0.429183
v -4.603053 1.197313 0.428229
v -4.602784 1.196601 0.427044
v -4.602876 1.196897 0.429563
v -4.602387 1.195665 0.430041
v -4.602876 1.196897 0.429563
v -4.602784 1.196601 0.427044
v -4.602273 1.195297 0.426900
v -4.602387 1.195665 0.430041
v -4.602784 1.196601 0.427044
v -4.601954 1.194547 0.429303
v -4.602387 1.195665 0.430041
v -4.602273 1.195297 0.426900
v -4.601902 1.194383 0.427906
v -4.601954 1.194547 0.429303
v -4.602273 1.195297 0.426900
vn 0.9304 0.3663 -0.0090
vn -0.5920 -0.7431 0.3120
vn -0.7028 -0.4823 -0.5230
vn -0.5743 -0.8000 -0.1736
vn -0.7426 -0.3543 0.5683
vn -0.7425 -0.3544 0.5683
vn -0.8807 -0.0292 -0.4729
vn -0.9126 0.0734 0.4023
vn -0.8806 -0.0293 -0.4729
vn -0.7426 -0.3544 0.5683
vn -0.8807 -0.0292 -0.4728
vn -0.9126 0.0733 0.4023
vn -0.9740 0.2181 -0.0611
vn -0.6131 0.4590 0.6430
vn -0.3380 -0.2334 0.9118
vn 0.0107 -0.1057 0.9943
vn -0.0942 -0.8627 0.4968
vn 0.2774 -0.7945 0.5401
vn 0.0106 -0.1057 0.9943
vn -0.3379 -0.2335 0.9118
vn 0.3571 0.0370 0.9333
vn 0.2774 -0.7946 0.5401
vn 0.6084 -0.6119 0.5055
vn 0.2773 -0.7946 0.5401
vn -0.0655 -0.9549 -0.2894
vn 0.3088 -0.8955 -0.3205
vn -0.0655 -0.9549 -0.2895
vn 0.6084 -0.6119 0.5054
vn 0.6379 -0.7070 -0.3053
vn -0.2734 -0.4406 -0.8550
vn 0.0812 -0.3325 -0.9396
vn -0.2735 -0.4407 -0.8550
vn 0.6380 -0.7069 -0.3053
vn 0.4235 -0.1766 -0.8885
vn 0.3088 -0.8955 -0.3206
vn -0.5614 0.2929 -0.7740
vn -0.2341 0.4704 -0.8509
vn -0.5615 0.2928 -0.7739
vn -0.2340 0.4704 -0.8509
vn 0.1265 0.5797 -0.8049
vn -0.2341 0.4703 -0.8509
vn -0.7127 0.6932 -0.1073
vn -0.3996 0.9087 -0.1211
vn -0.5615 0.2929 -0.7739
vn 0.1266 0.5798 -0.8049
vn -0.3995 0.9087 -0.1211
vn -0.0294 0.9926 -0.1175
vn -0.2341 0.4704 -0.8508
vn -0.6131 0.4591 0.6429
vn -0.2907 0.6523 0.7001
vn -0.7126 0.6933 -0.1073
vn -0.6132 0.4590 0.6429
vn -0.0293 0.9926 -0.1174
vn -0.2906 0.6523 0.7001
vn 0.0732 0.7511 0.6561
vn -0.2906 0.6522 0.7001
vn -0.3379 -0.2334 0.9118
vn 0.0106 -0.1058 0.9943
vn -0.2907 0.6522 0.7001
vn -0.6131 0.4590 0.6429
vn 0.0733 0.7511 0.6561
vn 0.3570 0.0370 0.9334
vn -0.2907 0.6523 0.7000
vn -0.0038 0.7391 0.6736
vn 0.2873 0.0069 0.9578
vn -0.0037 0.7391 0.6736
vn 0.0509 0.5635 -0.8246
vn -0.1090 0.9868 -0.1197
vn 0.5753 -0.7560 -0.3123
vn 0.3554 -0.2121 -0.9103
vn 0.6379 -0.7070 -0.3054
vn 0.2872 0.0069 0.9578
vn 0.5450 -0.6584 0.5191
vn 0.3554 -0.2122 -0.9103
vn 0.1266 0.5797 -0.8049
vn 0.5449 -0.6585 0.5191
vn 0.5753 -0.7559 -0.3123
vn 0.5450 -0.6585 0.5191
vn -0.9740 0.2180 -0.0611
vn -0.7127 0.6933 -0.1073
vn -0.5614 0.2929 -0.7739
vn -0.8807 -0.0293 -0.4728
vn -0.9740 0.2181 -0.0610
vn -0.7028 -0.4823 -0.5229
vn -0.7426 -0.3543 0.5684
vn -0.2735 -0.4406 -0.8550
vn -0.8807 -0.0293 -0.4729
vn -0.0941 -0.8627 0.4968
vn -0.5921 -0.7430 0.3120
vn 0.0279 -0.0990 0.9947
vn 0.2948 -0.7882 0.5403
vn 0.0278 -0.0991 0.9947
vn -0.3826 0.9159 -0.1213
vn -0.2736 0.6594 0.7002
vn 0.0984 -0.3259 -0.9403
vn -0.2170 0.4774 -0.8515
vn 0.2948 -0.7882 0.5402
vn 0.3262 -0.8892 -0.3208
vn 0.2947 -0.7882 0.5402
vn -0.2736 0.6594 0.7003
vn 0.0278 -0.0990 0.9947
vn 0.3262 -0.8892 -0.3209
vn 0.3261 -0.8892 -0.3209
vt 0.543243 0.611839
vt 0.535370 0.618118
vt 0.537796 0.613083
vt 0.537796 0.623154
vt 0.547607 0.615326
vt 0.543243 0.624397
vt 0.547607 0.620918
vt 0.565384 0.671494
vt 0.570206 0.669548
vt 0.567856 0.672157
vt 0.564468 0.669609
vt 0.568146 0.666756
vt 0.564514 0.667854
vt 0.565857 0.666748
vt 0.562897 0.666855
vt 0.562302 0.669838
vt 0.559082 0.669685
vt 0.563492 0.673050
vt 0.560059 0.674789
vt 0.554092 0.669067
vt 0.554398 0.676537
vt 0.567307 0.675606
vt 0.564316 0.680244
vt 0.558044 0.684982
vt 0.575485 0.674767
vt 0.575272 0.686485
vt 0.565720 0.696274
vt 0.575485 0.658051
vt 0.568817 0.663902
vt 0.568115 0.659698
vt 0.574570 0.665543
vt 0.572052 0.651657
vt 0.565903 0.655174
vt 0.565063 0.664742
vt 0.563416 0.661980
vt 0.560669 0.658463
vt 0.560364 0.665283
vt 0.556488 0.662933
vt 0.552032 0.660286
vt 0.548294 0.668175
vt 0.563522 0.651588
vt 0.557617 0.654999
vt 0.551163 0.688484
vt 0.556610 0.699394
vt 0.547867 0.678001
vt 0.568756 0.648293
vt 0.604446 0.682632
vt 0.626221 0.687675
vt 0.604553 0.688225
vt 0.626144 0.682457
vt 0.604553 0.671455
vt 0.626144 0.677231
vt 0.604446 0.677048
vt 0.626221 0.672005
vt 0.605011 0.660294
vt 0.626404 0.666786
vt 0.604736 0.665871
vt 0.626663 0.661568
vt 0.626404 0.692902
vt 0.604736 0.693810
vt 0.626663 0.698120
vt 0.605011 0.699394
s 0
usemtl decorations
f 240/1/1 239/2/1 238/3/1
f 237/1/1 236/4/1 235/2/1
f 234/5/1 233/4/1 232/1/1
f 231/5/1 230/6/1 229/4/1
f 228/6/1 227/5/1 226/7/1
s 1
f 225/8/2 224/9/3 223/10/4
f 222/11/5 221/9/3 220/8/2
f 219/11/6 218/12/7 217/9/3
f 216/13/8 215/12/9 214/11/10
f 213/12/11 212/13/12 211/14/13
f 210/15/14 209/11/10 208/16/15
f 207/15/14 206/13/12 205/11/10
f 204/17/16 203/18/17 202/19/18
f 201/17/19 200/16/20 199/18/17
f 198/20/21 197/19/22 196/21/23
f 195/20/21 194/17/19 193/19/24
f 192/19/18 191/22/25 190/23/26
f 189/19/18 188/18/17 187/22/27
f 186/21/28 185/23/26 184/24/29
f 183/21/28 3/19/22 182/23/26
f 181/23/26 180/25/30 179/26/31
f 178/23/26 177/22/27 176/25/32
f 175/24/33 174/26/31 173/27/34
f 172/24/33 4/23/35 171/26/31
f 170/28/31 169/29/36 168/30/37
f 167/28/31 166/31/30 165/29/38
f 164/32/34 163/30/39 162/33/40
f 161/32/34 13/28/31 160/30/41
f 159/30/37 158/34/42 157/35/43
f 156/30/37 155/29/44 154/34/42
f 153/33/45 152/35/46 151/36/47
f 150/33/45 14/30/48 149/35/46
f 148/35/46 147/15/49 146/37/50
f 145/35/46 144/34/51 143/15/52
f 142/36/53 141/37/54 140/38/55
f 139/36/53 16/35/46 138/37/54
f 137/37/56 136/16/57 135/17/58
f 134/37/59 133/15/60 132/16/15
f 131/38/61 130/17/58 129/20/62
f 128/38/61 36/37/63 25/17/58
f 127/39/64 126/20/62 125/40/65
f 124/39/66 123/38/55 122/20/62
f 121/41/67 120/36/47 119/42/68
f 118/41/67 117/33/45 116/36/47
f 115/43/69 114/27/34 113/44/70
f 112/43/69 111/24/71 110/27/34
f 109/40/72 108/21/23 107/45/73
f 106/40/72 40/20/21 105/21/23
f 104/42/68 103/38/55 102/39/64
f 101/42/68 41/36/47 42/38/55
f 100/46/74 99/33/75 98/41/67
f 97/46/74 37/32/34 38/33/75
f 96/45/76 95/24/29 94/43/77
f 93/45/78 33/21/23 34/24/29
f 92/29/44 91/14/79 90/34/80
f 89/29/81 88/12/82 87/14/83
f 86/22/27 85/9/3 84/25/32
f 83/22/27 82/10/4 81/9/84
f 80/16/20 79/8/2 78/18/17
f 29/16/20 30/11/85 77/8/2
f 76/31/86 75/12/87 28/29/44
f 31/31/86 26/9/84 27/12/82
f 74/18/88 73/10/4 24/22/27
f 21/18/88 22/8/89 23/10/4
f 72/34/42 71/13/12 20/15/52
f 17/34/80 18/14/79 19/13/12
f 70/47/90 69/48/76 68/49/91
f 67/47/92 66/50/65 65/48/78
f 64/51/93 63/52/64 62/53/94
f 61/51/93 60/54/68 59/52/64
f 58/55/95 57/56/67 56/57/96
f 55/55/95 54/58/74 53/56/67
f 52/49/97 51/59/69 50/60/98
f 2/49/99 32/48/78 49/59/69
f 48/53/100 47/50/65 12/47/101
f 9/53/100 10/52/64 11/50/65
f 46/57/96 45/54/68 8/51/93
f 5/57/96 6/56/67 7/54/68
f 44/60/102 43/61/74 15/62/95
f 1/60/103 35/59/69 39/61/74
