# Blender 5.0.0
# www.blender.org
mtllib Circle_002_Circle_003_Dupli_245_decorations_0.mtl
o Circle.002|Circle.003|Dupli|245_decorations_0
v -4.558406 0.891465 0.301994
v -4.559360 0.892394 0.302453
v -4.561788 0.893959 0.295155
v -4.560427 0.892634 0.294500
v -4.556294 0.892861 0.301826
v -4.557645 0.894135 0.296686
v -4.558049 0.895326 0.297076
v -4.556726 0.894135 0.302243
v -4.558012 0.894535 0.302652
v -4.559252 0.895700 0.297459
v -4.560348 0.894976 0.297546
v -4.559185 0.893761 0.302746
v -4.558480 0.892930 0.294102
v -4.557413 0.894625 0.294260
v -4.557042 0.891673 0.301715
v -4.558030 0.896443 0.294855
v -4.558664 0.896472 0.293474
v -4.559348 0.896233 0.292538
v -4.560322 0.896536 0.292849
v -4.560158 0.896937 0.293949
v -4.561723 0.894451 0.293718
v -4.561343 0.894914 0.292698
v -4.560621 0.894210 0.292350
v -4.560616 0.893373 0.293186
v -4.561538 0.895909 0.295572
v -4.559587 0.894367 0.292139
v -4.559020 0.895268 0.292223
v -4.558163 0.894993 0.292990
v -4.561519 0.896038 0.294058
v -4.561211 0.895949 0.292919
v -4.559031 0.893614 0.292862
v -4.560512 0.893699 0.297273
v -4.561162 0.893727 0.296513
v -4.559984 0.892580 0.295947
v -4.559620 0.892830 0.296844
v -4.559865 0.897014 0.295439
v -4.558298 0.892836 0.295603
v -4.557375 0.894304 0.295739
v -4.558344 0.893025 0.296583
v -4.560945 0.895414 0.296875
v -4.557909 0.895877 0.296254
v -4.559497 0.896371 0.296759
v -4.558344 0.893025 0.296583
v -4.558406 0.891465 0.301994
v -4.558049 0.895326 0.297076
v -4.556294 0.892861 0.301826
v -4.560348 0.894976 0.297546
v -4.558012 0.894535 0.302652
v -4.559620 0.892830 0.296844
v -4.558406 0.891465 0.301994
v -4.559620 0.892830 0.296844
v -4.559360 0.892394 0.302453
v -4.557645 0.894135 0.296686
v -4.558344 0.893025 0.296583
v -4.557042 0.891673 0.301715
v -4.556294 0.892861 0.301826
v -4.557645 0.894135 0.296686
v -4.557042 0.891673 0.301715
v -4.559252 0.895700 0.297459
v -4.558049 0.895326 0.297076
v -4.556726 0.894135 0.302243
v -4.558012 0.894535 0.302652
v -4.559252 0.895700 0.297459
v -4.556726 0.894135 0.302243
v -4.560512 0.893699 0.297273
v -4.560348 0.894976 0.297546
v -4.559185 0.893761 0.302746
v -4.559360 0.892394 0.302453
v -4.560512 0.893699 0.297273
v -4.559185 0.893761 0.302746
v -4.560322 0.896536 0.292849
v -4.558664 0.896472 0.293474
v -4.560621 0.894210 0.292350
v -4.561723 0.894451 0.293718
v -4.559020 0.895268 0.292223
v -4.559031 0.893614 0.292862
v -4.561343 0.894914 0.292698
v -4.561723 0.894451 0.293718
v -4.561343 0.894914 0.292698
v -4.561519 0.896038 0.294058
v -4.559587 0.894367 0.292139
v -4.560621 0.894210 0.292350
v -4.560616 0.893373 0.293186
v -4.559031 0.893614 0.292862
v -4.559587 0.894367 0.292139
v -4.560616 0.893373 0.293186
v -4.559348 0.896233 0.292538
v -4.559020 0.895268 0.292223
v -4.558163 0.894993 0.292990
v -4.558664 0.896472 0.293474
v -4.559348 0.896233 0.292538
v -4.558163 0.894993 0.292990
v -4.560512 0.893699 0.297273
v -4.559620 0.892830 0.296844
v -4.559984 0.892580 0.295947
v -4.560512 0.893699 0.297273
v -4.558344 0.893025 0.296583
v -4.557645 0.894135 0.296686
v -4.557375 0.894304 0.295739
v -4.558344 0.893025 0.296583
v -4.558049 0.895326 0.297076
v -4.559252 0.895700 0.297459
v -4.559497 0.896371 0.296759
v -4.558049 0.895326 0.297076
v -4.561162 0.893727 0.296513
v -4.560348 0.894976 0.297546
v -4.560512 0.893699 0.297273
v -4.561162 0.893727 0.296513
v -4.560348 0.894976 0.297546
v -4.558298 0.892836 0.295603
v -4.559984 0.892580 0.295947
v -4.559620 0.892830 0.296844
v -4.558344 0.893025 0.296583
v -4.558298 0.892836 0.295603
v -4.559620 0.892830 0.296844
v -4.557909 0.895877 0.296254
v -4.557375 0.894304 0.295739
v -4.557645 0.894135 0.296686
v -4.558049 0.895326 0.297076
v -4.557909 0.895877 0.296254
v -4.557645 0.894135 0.296686
v -4.560945 0.895414 0.296875
v -4.559497 0.896371 0.296759
v -4.559252 0.895700 0.297459
v -4.560348 0.894976 0.297546
v -4.560945 0.895414 0.296875
v -4.559252 0.895700 0.297459
v -4.559497 0.896371 0.296759
v -4.560945 0.895414 0.296875
v -4.561538 0.895909 0.295572
v -4.559497 0.896371 0.296759
v -4.561519 0.896038 0.294058
v -4.560158 0.896937 0.293949
v -4.559865 0.897014 0.295439
v -4.561538 0.895909 0.295572
v -4.561519 0.896038 0.294058
v -4.559865 0.897014 0.295439
v -4.559865 0.897014 0.295439
v -4.557909 0.895877 0.296254
v -4.559497 0.896371 0.296759
v -4.559865 0.897014 0.295439
v -4.557909 0.895877 0.296254
v -4.560158 0.896937 0.293949
v -4.558664 0.896472 0.293474
v -4.558030 0.896443 0.294855
v -4.559865 0.897014 0.295439
v -4.560158 0.896937 0.293949
v -4.558030 0.896443 0.294855
v -4.558030 0.896443 0.294855
v -4.557375 0.894304 0.295739
v -4.557909 0.895877 0.296254
v -4.558030 0.896443 0.294855
v -4.557375 0.894304 0.295739
v -4.558664 0.896472 0.293474
v -4.558163 0.894993 0.292990
v -4.557413 0.894625 0.294260
v -4.558030 0.896443 0.294855
v -4.558664 0.896472 0.293474
v -4.557413 0.894625 0.294260
v -4.557413 0.894625 0.294260
v -4.558298 0.892836 0.295603
v -4.557375 0.894304 0.295739
v -4.557413 0.894625 0.294260
v -4.558298 0.892836 0.295603
v -4.558163 0.894993 0.292990
v -4.559031 0.893614 0.292862
v -4.558480 0.892930 0.294102
v -4.557413 0.894625 0.294260
v -4.558163 0.894993 0.292990
v -4.558480 0.892930 0.294102
v -4.558480 0.892930 0.294102
v -4.559984 0.892580 0.295947
v -4.558298 0.892836 0.295603
v -4.558480 0.892930 0.294102
v -4.559984 0.892580 0.295947
v -4.559031 0.893614 0.292862
v -4.560616 0.893373 0.293186
v -4.560427 0.892634 0.294500
v -4.558480 0.892930 0.294102
v -4.559031 0.893614 0.292862
v -4.560427 0.892634 0.294500
v -4.560427 0.892634 0.294500
v -4.561162 0.893727 0.296513
v -4.559984 0.892580 0.295947
v -4.560427 0.892634 0.294500
v -4.561162 0.893727 0.296513
v -4.560616 0.893373 0.293186
v -4.561723 0.894451 0.293718
v -4.561788 0.893959 0.295155
v -4.560427 0.892634 0.294500
v -4.560616 0.893373 0.293186
v -4.561788 0.893959 0.295155
v -4.561788 0.893959 0.295155
v -4.561538 0.895909 0.295572
v -4.560945 0.895414 0.296875
v -4.561162 0.893727 0.296513
v -4.561788 0.893959 0.295155
v -4.560945 0.895414 0.296875
v -4.561723 0.894451 0.293718
v -4.561519 0.896038 0.294058
v -4.561538 0.895909 0.295572
v -4.561788 0.893959 0.295155
v -4.561723 0.894451 0.293718
v -4.561538 0.895909 0.295572
v -4.561211 0.895949 0.292919
v -4.560322 0.896536 0.292849
v -4.560158 0.896937 0.293949
v -4.561519 0.896038 0.294058
v -4.561211 0.895949 0.292919
v -4.560158 0.896937 0.293949
v -4.559348 0.896233 0.292538
v -4.560322 0.896536 0.292849
v -4.559020 0.895268 0.292223
v -4.561211 0.895949 0.292919
v -4.559020 0.895268 0.292223
v -4.560322 0.896536 0.292849
v -4.559587 0.894367 0.292139
v -4.559020 0.895268 0.292223
v -4.561211 0.895949 0.292919
v -4.561343 0.894914 0.292698
v -4.559587 0.894367 0.292139
v -4.561211 0.895949 0.292919
v -4.560621 0.894210 0.292350
v -4.559587 0.894367 0.292139
v -4.561343 0.894914 0.292698
v -4.556726 0.894135 0.302243
v -4.556294 0.892861 0.301826
v -4.558012 0.894535 0.302652
v -4.559185 0.893761 0.302746
v -4.558012 0.894535 0.302652
v -4.556294 0.892861 0.301826
v -4.557042 0.891673 0.301715
v -4.559185 0.893761 0.302746
v -4.556294 0.892861 0.301826
v -4.559360 0.892394 0.302453
v -4.559185 0.893761 0.302746
v -4.557042 0.891673 0.301715
v -4.558406 0.891465 0.301994
v -4.559360 0.892394 0.302453
v -4.557042 0.891673 0.301715
vn 0.2287 -0.2318 0.9455
vn -0.7098 -0.0103 -0.7043
vn 0.0958 -0.2609 -0.9606
vn -0.3784 -0.3331 -0.8636
vn -0.6489 0.4645 -0.6026
vn -0.6490 0.4644 -0.6026
vn 0.3556 0.1520 -0.9222
vn -0.2416 0.7336 -0.6351
vn 0.3556 0.1519 -0.9222
vn -0.2417 0.7336 -0.6351
vn 0.2054 0.5946 -0.7773
vn -0.1788 0.9724 -0.1500
vn -0.6489 0.4644 -0.6026
vn -0.8382 0.5366 -0.0974
vn -0.2416 0.7336 -0.6352
vn -0.8240 0.4925 0.2801
vn -0.9368 -0.2320 -0.2620
vn -0.9319 -0.3487 0.0999
vn -0.8240 0.4926 0.2801
vn -0.6909 0.3775 0.6165
vn -0.9319 -0.3488 0.0999
vn -0.7926 -0.4150 0.4467
vn -0.9319 -0.3487 0.0998
vn -0.4002 -0.7546 -0.5200
vn -0.3446 -0.9209 -0.1825
vn -0.7925 -0.4151 0.4467
vn -0.3446 -0.9208 -0.1825
vn -0.2393 -0.9540 0.1807
vn 0.3674 -0.6378 -0.6769
vn 0.4957 -0.7929 -0.3543
vn -0.4002 -0.7547 -0.5199
vn 0.3674 -0.6378 -0.6770
vn -0.2393 -0.9540 0.1808
vn 0.5523 -0.8334 0.0189
vn 0.4958 -0.7929 -0.3543
vn 0.7881 0.0306 -0.6148
vn 0.9562 -0.0613 -0.2863
vn 0.3675 -0.6378 -0.6769
vn 0.9861 -0.1442 0.0829
vn 0.5450 0.7472 -0.3803
vn 0.6901 0.7231 -0.0296
vn 0.9861 -0.1442 0.0830
vn 0.7354 0.5947 0.3248
vn 0.6901 0.7231 -0.0295
vn -0.1787 0.9724 -0.1500
vn -0.1021 0.9696 0.2225
vn -0.0109 0.8269 0.5622
vn -0.1022 0.9696 0.2225
vn -0.1022 0.9696 0.2224
vn -0.0109 0.8269 0.5623
vn -0.6910 0.3775 0.6165
vn -0.1021 0.9696 0.2224
vn -0.0306 0.8676 0.4964
vn -0.6909 0.3776 0.6165
vn -0.7279 0.4068 0.5520
vn 0.9917 -0.1282 0.0049
vn 0.7347 0.6295 0.2529
vn -0.2648 -0.9586 0.1052
vn 0.5523 -0.8335 0.0189
vn 0.5469 -0.8350 -0.0608
vn -0.8321 -0.4059 0.3780
vn 0.9861 -0.1443 0.0830
vn 0.9917 -0.1282 0.0050
vn -0.8321 -0.4059 0.3779
vn -0.2647 -0.9586 0.1052
vn 0.7881 0.0307 -0.6148
vn 0.2054 0.5946 -0.7774
vn 0.7881 0.0307 -0.6147
vn 0.0957 -0.2609 -0.9606
vn -0.8382 0.5366 -0.0973
vn 0.3674 -0.6377 -0.6770
vn -0.4002 -0.7546 -0.5199
vn -0.8202 0.4885 0.2977
vn -0.9281 -0.3532 0.1174
vn 0.6947 0.7192 -0.0121
vn -0.0979 0.9658 0.2401
vn 0.5003 -0.7976 -0.3370
vn 0.9609 -0.0657 -0.2690
vn 0.5003 -0.7976 -0.3371
vn -0.9281 -0.3533 0.1174
vn -0.3406 -0.9256 -0.1651
vn -0.0980 0.9658 0.2401
vn -0.0980 0.9658 0.2400
vn 0.9609 -0.0656 -0.2689
vn 0.9609 -0.0656 -0.2690
vn -0.3405 -0.9256 -0.1651
vn 0.5002 -0.7976 -0.3370
vt 0.530319 0.611839
vt 0.522446 0.618118
vt 0.524872 0.613083
vt 0.524872 0.623154
vt 0.534683 0.615326
vt 0.530319 0.624397
vt 0.534683 0.620918
vt 0.537079 0.671494
vt 0.541916 0.669548
vt 0.539566 0.672157
vt 0.536179 0.669609
vt 0.539856 0.666756
vt 0.536224 0.667854
vt 0.537567 0.666748
vt 0.534592 0.666855
vt 0.534012 0.669838
vt 0.530777 0.669685
vt 0.535187 0.673050
vt 0.531769 0.674789
vt 0.525803 0.669067
vt 0.526108 0.676537
vt 0.539017 0.675606
vt 0.536011 0.680244
vt 0.529755 0.684982
vt 0.547180 0.674767
vt 0.546982 0.686485
vt 0.537415 0.696274
vt 0.547180 0.658051
vt 0.540527 0.663902
vt 0.539825 0.659698
vt 0.546280 0.665543
vt 0.543762 0.651657
vt 0.537613 0.655174
vt 0.536758 0.664742
vt 0.535126 0.661980
vt 0.532364 0.658463
vt 0.532074 0.665283
vt 0.528198 0.662933
vt 0.523743 0.660286
vt 0.519989 0.668175
vt 0.535217 0.651588
vt 0.529327 0.654999
vt 0.522873 0.688484
vt 0.528320 0.699394
vt 0.519577 0.678001
vt 0.540466 0.648293
vt 0.604446 0.642853
vt 0.626221 0.647896
vt 0.604553 0.648445
vt 0.626144 0.642670
vt 0.604553 0.631676
vt 0.626144 0.637444
vt 0.604446 0.637268
vt 0.626221 0.632225
vt 0.605011 0.620506
vt 0.626404 0.626999
vt 0.604736 0.626091
vt 0.626663 0.621780
vt 0.626404 0.653114
vt 0.604736 0.654030
vt 0.626663 0.658333
vt 0.605011 0.659607
s 0
usemtl decorations
f 240/1/1 239/2/1 238/3/1
f 237/1/1 236/4/1 235/2/1
f 234/5/1 233/4/1 232/1/1
f 231/5/1 230/6/1 229/4/1
f 228/6/1 227/5/1 226/7/1
s 1
f 225/8/2 224/9/3 223/10/4
f 222/11/5 221/9/3 220/8/2
f 219/11/6 218/12/7 217/9/3
f 216/13/8 215/12/9 214/11/6
f 213/12/7 212/13/10 211/14/11
f 210/15/12 209/11/13 208/16/14
f 207/15/12 206/13/15 205/11/5
f 204/17/16 203/18/17 202/19/18
f 201/17/19 200/16/14 199/18/17
f 198/20/20 197/19/21 196/21/22
f 195/20/20 194/17/19 193/19/23
f 192/19/18 191/22/24 190/23/25
f 189/19/18 188/18/17 187/22/24
f 186/21/26 185/23/27 184/24/28
f 183/21/26 3/19/21 182/23/27
f 181/23/25 180/25/29 179/26/30
f 178/23/25 177/22/31 176/25/32
f 175/24/33 174/26/30 173/27/34
f 172/24/33 4/23/25 171/26/30
f 170/28/35 169/29/36 168/30/37
f 167/28/35 166/31/38 165/29/36
f 164/32/34 163/30/37 162/33/39
f 161/32/34 13/28/30 160/30/37
f 159/30/37 158/34/40 157/35/41
f 156/30/37 155/29/36 154/34/40
f 153/33/42 152/35/41 151/36/43
f 150/33/42 14/30/37 149/35/41
f 148/35/44 147/15/45 146/37/46
f 145/35/41 144/34/40 143/15/45
f 142/36/43 141/37/46 140/38/47
f 139/36/43 16/35/41 138/37/46
f 137/37/48 136/16/14 135/17/16
f 134/37/49 133/15/12 132/16/14
f 131/38/50 130/17/16 129/20/51
f 128/38/47 36/37/52 25/17/16
f 127/39/53 126/20/54 125/40/55
f 124/39/53 123/38/47 122/20/54
f 121/41/56 120/36/43 119/42/57
f 118/41/56 117/33/42 116/36/43
f 115/43/58 114/27/59 113/44/60
f 112/43/58 111/24/33 110/27/59
f 109/40/55 108/21/22 107/45/61
f 106/40/55 40/20/20 105/21/22
f 104/42/57 103/38/47 102/39/53
f 101/42/57 41/36/43 42/38/47
f 100/46/60 99/33/62 98/41/63
f 97/46/60 37/32/34 38/33/62
f 96/45/64 95/24/33 94/43/65
f 93/45/64 33/21/22 34/24/33
f 92/29/66 91/14/67 90/34/40
f 89/29/68 88/12/9 87/14/11
f 86/22/24 85/9/3 84/25/29
f 83/22/24 82/10/4 81/9/69
f 80/16/14 79/8/2 78/18/17
f 29/16/70 30/11/5 77/8/2
f 76/31/71 75/12/7 28/29/36
f 31/31/71 26/9/69 27/12/9
f 74/18/17 73/10/4 24/22/72
f 21/18/17 22/8/2 23/10/4
f 72/34/40 71/13/8 20/15/12
f 17/34/40 18/14/67 19/13/15
f 70/47/73 69/48/64 68/49/74
f 67/47/73 66/50/55 65/48/64
f 64/51/75 63/52/53 62/53/76
f 61/51/75 60/54/57 59/52/53
f 58/55/77 57/56/56 56/57/78
f 55/55/79 54/58/60 53/56/63
f 52/49/80 51/59/58 50/60/81
f 2/49/80 32/48/61 49/59/58
f 48/53/82 47/50/55 12/47/73
f 9/53/83 10/52/53 11/50/55
f 46/57/84 45/54/57 8/51/75
f 5/57/85 6/56/56 7/54/57
f 44/60/86 43/61/60 15/62/87
f 1/60/86 35/59/58 39/61/60
