# Blender 5.0.0
# www.blender.org
mtllib Circle_002_Circle_001_Dupli_38_decorations_0.mtl
o Circle.002|Circle.001|Dupli|38_decorations_0
v -4.329471 0.567537 0.301382
v -4.330738 0.567289 0.300819
v -4.332455 0.574943 0.300559
v -4.330647 0.575297 0.301361
v -4.329903 0.567301 0.303871
v -4.331129 0.572622 0.304079
v -4.332413 0.572336 0.304127
v -4.331276 0.566994 0.303923
v -4.332186 0.566854 0.302857
v -4.333263 0.572204 0.303131
v -4.333039 0.572327 0.301839
v -4.331946 0.566985 0.301476
v -4.330117 0.575305 0.303299
v -4.331264 0.574960 0.304913
v -4.329099 0.567542 0.302740
v -4.333223 0.574523 0.304988
v -4.333373 0.576003 0.304673
v -4.333337 0.577052 0.304129
v -4.334026 0.576946 0.303321
v -4.334429 0.575839 0.303436
v -4.332748 0.576344 0.301069
v -4.332929 0.577275 0.301776
v -4.331969 0.577463 0.302203
v -4.331277 0.576632 0.301722
v -4.334179 0.574510 0.301496
v -4.331687 0.577467 0.303232
v -4.332296 0.577284 0.304089
v -4.331779 0.576358 0.304613
v -4.334151 0.575991 0.301832
v -4.333845 0.577045 0.302274
v -4.330846 0.576639 0.303299
v -4.331910 0.572611 0.301225
v -4.332121 0.573484 0.300787
v -4.330556 0.573791 0.301482
v -4.330725 0.572843 0.301751
v -4.334521 0.574323 0.303467
v -4.330098 0.573797 0.303160
v -4.331089 0.573499 0.304557
v -4.330378 0.572848 0.303021
v -4.333613 0.573109 0.301599
v -4.332786 0.573121 0.304621
v -4.333909 0.572947 0.303305
v -4.330378 0.572848 0.303021
v -4.329471 0.567537 0.301382
v -4.332413 0.572336 0.304127
v -4.329903 0.567301 0.303871
v -4.333039 0.572327 0.301839
v -4.332186 0.566854 0.302857
v -4.330725 0.572843 0.301751
v -4.329471 0.567537 0.301382
v -4.330725 0.572843 0.301751
v -4.330738 0.567289 0.300819
v -4.331129 0.572622 0.304079
v -4.330378 0.572848 0.303021
v -4.329099 0.567542 0.302740
v -4.329903 0.567301 0.303871
v -4.331129 0.572622 0.304079
v -4.329099 0.567542 0.302740
v -4.333263 0.572204 0.303131
v -4.332413 0.572336 0.304127
v -4.331276 0.566994 0.303923
v -4.332186 0.566854 0.302857
v -4.333263 0.572204 0.303131
v -4.331276 0.566994 0.303923
v -4.331910 0.572611 0.301225
v -4.333039 0.572327 0.301839
v -4.331946 0.566985 0.301476
v -4.330738 0.567289 0.300819
v -4.331910 0.572611 0.301225
v -4.331946 0.566985 0.301476
v -4.334026 0.576946 0.303321
v -4.333373 0.576003 0.304673
v -4.331969 0.577463 0.302203
v -4.332748 0.576344 0.301069
v -4.332296 0.577284 0.304089
v -4.330846 0.576639 0.303299
v -4.332929 0.577275 0.301776
v -4.332748 0.576344 0.301069
v -4.332929 0.577275 0.301776
v -4.334151 0.575991 0.301832
v -4.331687 0.577467 0.303232
v -4.331969 0.577463 0.302203
v -4.331277 0.576632 0.301722
v -4.330846 0.576639 0.303299
v -4.331687 0.577467 0.303232
v -4.331277 0.576632 0.301722
v -4.333337 0.577052 0.304129
v -4.332296 0.577284 0.304089
v -4.331779 0.576358 0.304613
v -4.333373 0.576003 0.304673
v -4.333337 0.577052 0.304129
v -4.331779 0.576358 0.304613
v -4.331910 0.572611 0.301225
v -4.330725 0.572843 0.301751
v -4.330556 0.573791 0.301482
v -4.331910 0.572611 0.301225
v -4.330378 0.572848 0.303021
v -4.331129 0.572622 0.304079
v -4.331089 0.573499 0.304557
v -4.330378 0.572848 0.303021
v -4.332413 0.572336 0.304127
v -4.333263 0.572204 0.303131
v -4.333909 0.572947 0.303305
v -4.332413 0.572336 0.304127
v -4.332121 0.573484 0.300787
v -4.333039 0.572327 0.301839
v -4.331910 0.572611 0.301225
v -4.332121 0.573484 0.300787
v -4.333039 0.572327 0.301839
v -4.330098 0.573797 0.303160
v -4.330556 0.573791 0.301482
v -4.330725 0.572843 0.301751
v -4.330378 0.572848 0.303021
v -4.330098 0.573797 0.303160
v -4.330725 0.572843 0.301751
v -4.332786 0.573121 0.304621
v -4.331089 0.573499 0.304557
v -4.331129 0.572622 0.304079
v -4.332413 0.572336 0.304127
v -4.332786 0.573121 0.304621
v -4.331129 0.572622 0.304079
v -4.333613 0.573109 0.301599
v -4.333909 0.572947 0.303305
v -4.333263 0.572204 0.303131
v -4.333039 0.572327 0.301839
v -4.333613 0.573109 0.301599
v -4.333263 0.572204 0.303131
v -4.333909 0.572947 0.303305
v -4.333613 0.573109 0.301599
v -4.334179 0.574510 0.301496
v -4.333909 0.572947 0.303305
v -4.334151 0.575991 0.301832
v -4.334429 0.575839 0.303436
v -4.334521 0.574323 0.303467
v -4.334179 0.574510 0.301496
v -4.334151 0.575991 0.301832
v -4.334521 0.574323 0.303467
v -4.334521 0.574323 0.303467
v -4.332786 0.573121 0.304621
v -4.333909 0.572947 0.303305
v -4.334521 0.574323 0.303467
v -4.332786 0.573121 0.304621
v -4.334429 0.575839 0.303436
v -4.333373 0.576003 0.304673
v -4.333223 0.574523 0.304988
v -4.334521 0.574323 0.303467
v -4.334429 0.575839 0.303436
v -4.333223 0.574523 0.304988
v -4.333223 0.574523 0.304988
v -4.331089 0.573499 0.304557
v -4.332786 0.573121 0.304621
v -4.333223 0.574523 0.304988
v -4.331089 0.573499 0.304557
v -4.333373 0.576003 0.304673
v -4.331779 0.576358 0.304613
v -4.331264 0.574960 0.304913
v -4.333223 0.574523 0.304988
v -4.333373 0.576003 0.304673
v -4.331264 0.574960 0.304913
v -4.331264 0.574960 0.304913
v -4.330098 0.573797 0.303160
v -4.331089 0.573499 0.304557
v -4.331264 0.574960 0.304913
v -4.330098 0.573797 0.303160
v -4.331779 0.576358 0.304613
v -4.330846 0.576639 0.303299
v -4.330117 0.575305 0.303299
v -4.331264 0.574960 0.304913
v -4.331779 0.576358 0.304613
v -4.330117 0.575305 0.303299
v -4.330117 0.575305 0.303299
v -4.330556 0.573791 0.301482
v -4.330098 0.573797 0.303160
v -4.330117 0.575305 0.303299
v -4.330556 0.573791 0.301482
v -4.330846 0.576639 0.303299
v -4.331277 0.576632 0.301722
v -4.330647 0.575297 0.301361
v -4.330117 0.575305 0.303299
v -4.330846 0.576639 0.303299
v -4.330647 0.575297 0.301361
v -4.330647 0.575297 0.301361
v -4.332121 0.573484 0.300787
v -4.330556 0.573791 0.301482
v -4.330647 0.575297 0.301361
v -4.332121 0.573484 0.300787
v -4.331277 0.576632 0.301722
v -4.332748 0.576344 0.301069
v -4.332455 0.574943 0.300559
v -4.330647 0.575297 0.301361
v -4.331277 0.576632 0.301722
v -4.332455 0.574943 0.300559
v -4.332455 0.574943 0.300559
v -4.334179 0.574510 0.301496
v -4.333613 0.573109 0.301599
v -4.332121 0.573484 0.300787
v -4.332455 0.574943 0.300559
v -4.333613 0.573109 0.301599
v -4.332748 0.576344 0.301069
v -4.334151 0.575991 0.301832
v -4.334179 0.574510 0.301496
v -4.332455 0.574943 0.300559
v -4.332748 0.576344 0.301069
v -4.334179 0.574510 0.301496
v -4.333845 0.577045 0.302274
v -4.334026 0.576946 0.303321
v -4.334429 0.575839 0.303436
v -4.334151 0.575991 0.301832
v -4.333845 0.577045 0.302274
v -4.334429 0.575839 0.303436
v -4.333337 0.577052 0.304129
v -4.334026 0.576946 0.303321
v -4.332296 0.577284 0.304089
v -4.333845 0.577045 0.302274
v -4.332296 0.577284 0.304089
v -4.334026 0.576946 0.303321
v -4.331687 0.577467 0.303232
v -4.332296 0.577284 0.304089
v -4.333845 0.577045 0.302274
v -4.332929 0.577275 0.301776
v -4.331687 0.577467 0.303232
v -4.333845 0.577045 0.302274
v -4.331969 0.577463 0.302203
v -4.331687 0.577467 0.303232
v -4.332929 0.577275 0.301776
v -4.331276 0.566994 0.303923
v -4.329903 0.567301 0.303871
v -4.332186 0.566854 0.302857
v -4.331946 0.566985 0.301476
v -4.332186 0.566854 0.302857
v -4.329903 0.567301 0.303871
v -4.329099 0.567542 0.302740
v -4.331946 0.566985 0.301476
v -4.329903 0.567301 0.303871
v -4.330738 0.567289 0.300819
v -4.331946 0.566985 0.301476
v -4.329099 0.567542 0.302740
v -4.329471 0.567537 0.301382
v -4.330738 0.567289 0.300819
v -4.329099 0.567542 0.302740
vn 0.2154 -0.9750 -0.0551
vn -0.2050 0.8310 -0.5172
vn 0.3644 0.9190 0.1503
vn 0.2352 0.9172 -0.3217
vn -0.6248 0.7253 -0.2889
vn -0.6248 0.7254 -0.2890
vn 0.0852 0.8352 0.5433
vn -0.7080 0.6798 0.1911
vn -0.7080 0.6798 0.1910
vn -0.3921 0.7287 0.5615
vn -0.9462 0.1950 0.2581
vn -0.8115 0.2687 -0.5190
vn -0.7080 0.6799 0.1911
vn -0.8001 -0.1047 -0.5906
vn -0.1319 0.4396 -0.8884
vn -0.0563 0.0826 -0.9950
vn -0.8002 -0.1046 -0.5906
vn -0.1319 0.4397 -0.8884
vn -0.6734 -0.4622 -0.5769
vn -0.0562 0.0825 -0.9950
vn 0.0273 -0.2859 -0.9579
vn 0.5808 0.5793 -0.5720
vn 0.7238 0.2353 -0.6486
vn -0.1318 0.4397 -0.8884
vn 0.0274 -0.2859 -0.9579
vn 0.7238 0.2354 -0.6486
vn 0.7622 -0.1419 -0.6316
vn 0.7900 0.5823 0.1921
vn 0.9528 0.2386 0.1878
vn 0.5809 0.5792 -0.5719
vn 0.7899 0.5823 0.1921
vn 0.7623 -0.1420 -0.6315
vn 0.9779 -0.1388 0.1564
vn 0.7622 -0.1420 -0.6315
vn 0.7239 0.2353 -0.6486
vn 0.9528 0.2386 0.1879
vn 0.3381 0.4465 0.8285
vn 0.4581 0.0901 0.8843
vn 0.7900 0.5823 0.1922
vn 0.3380 0.4465 0.8284
vn 0.9779 -0.1389 0.1564
vn 0.4581 0.0900 0.8843
vn 0.5119 -0.2788 0.8125
vn -0.4346 0.2742 0.8579
vn -0.3877 -0.0986 0.9165
vn 0.3380 0.4465 0.8285
vn 0.5119 -0.2789 0.8125
vn -0.2849 -0.4565 0.8429
vn -0.3877 -0.0987 0.9165
vn -0.9462 0.1950 0.2582
vn -0.9476 -0.1853 0.2601
vn -0.4346 0.2741 0.8579
vn -0.2849 -0.4566 0.8428
vn -0.8124 -0.5381 0.2245
vn -0.9477 -0.1853 0.2600
vn -0.8001 -0.1046 -0.5906
vn -0.9477 -0.1852 0.2601
vn -0.8115 0.2687 -0.5189
vn -0.8124 -0.5382 0.2245
vn -0.6735 -0.4622 -0.5769
vn -0.9476 -0.1852 0.2601
vn -0.8513 -0.4692 0.2348
vn -0.7088 -0.3913 -0.5869
vn 0.5066 -0.2033 0.8379
vn -0.3104 -0.3855 0.8689
vn 0.7634 -0.0629 -0.6429
vn 0.9845 -0.0597 0.1650
vn 0.0098 -0.2106 -0.9775
vn -0.6734 -0.4623 -0.5769
vn -0.2849 -0.4566 0.8429
vn 0.0098 -0.2105 -0.9775
vn 0.7634 -0.0630 -0.6429
vn 0.5808 0.5793 -0.5719
vn 0.3643 0.9191 0.1503
vn -0.8114 0.2687 -0.5190
vn -0.2050 0.8310 -0.5171
vn 0.7899 0.5823 0.1922
vn -0.1318 0.4396 -0.8885
vn -0.4347 0.2742 0.8578
vn -0.7080 0.6799 0.1910
vn -0.7966 -0.1227 -0.5920
vn 0.0098 -0.2105 -0.9776
vn -0.0523 0.0646 -0.9965
vn -0.7966 -0.1227 -0.5919
vn 0.0097 -0.2105 -0.9775
vn -0.3840 -0.1167 0.9159
vn -0.9442 -0.2034 0.2592
vn 0.9572 0.2207 0.1870
vn 0.4624 0.0721 0.8838
vn 0.9572 0.2208 0.1870
vn 0.7282 0.2174 -0.6500
vn 0.7633 -0.0629 -0.6429
vn -0.9442 -0.2033 0.2592
vn 0.4623 0.0720 0.8838
vn -0.3839 -0.1167 0.9160
vn 0.4623 0.0721 0.8838
vn 0.9573 0.2207 0.1869
vn 0.7282 0.2174 -0.6499
vt 0.543243 0.635056
vt 0.535370 0.641335
vt 0.537796 0.636299
vt 0.537796 0.646370
vt 0.547607 0.638535
vt 0.543243 0.647614
vt 0.547607 0.644127
vt 0.593674 0.671494
vt 0.598511 0.669548
vt 0.596146 0.672157
vt 0.592773 0.669609
vt 0.596436 0.666756
vt 0.592804 0.667854
vt 0.594147 0.666748
vt 0.591187 0.666855
vt 0.590591 0.669838
vt 0.587372 0.669685
vt 0.591782 0.673050
vt 0.588348 0.674789
vt 0.582382 0.669067
vt 0.582687 0.676537
vt 0.595596 0.675606
vt 0.592606 0.680244
vt 0.586334 0.684982
vt 0.603775 0.674767
vt 0.603561 0.686485
vt 0.594009 0.696274
vt 0.603775 0.658051
vt 0.597107 0.663902
vt 0.596405 0.659698
vt 0.602859 0.665543
vt 0.600342 0.651657
vt 0.594193 0.655174
vt 0.593353 0.664742
vt 0.591705 0.661980
vt 0.588959 0.658463
vt 0.588654 0.665283
vt 0.584778 0.662933
vt 0.580322 0.660286
vt 0.576584 0.668175
vt 0.591812 0.651588
vt 0.585907 0.654999
vt 0.579453 0.688484
vt 0.584915 0.699394
vt 0.576157 0.678001
vt 0.597061 0.648293
vt 0.627350 0.682632
vt 0.649124 0.687675
vt 0.627441 0.688225
vt 0.649033 0.682457
vt 0.627441 0.671455
vt 0.649033 0.677231
vt 0.627350 0.677048
vt 0.649124 0.672005
vt 0.627914 0.660294
vt 0.649292 0.666786
vt 0.627625 0.665871
vt 0.649551 0.661568
vt 0.649292 0.692902
vt 0.627625 0.693810
vt 0.649551 0.698120
vt 0.627914 0.699394
s 0
usemtl decorations
f 240/1/1 239/2/1 238/3/1
f 237/1/1 236/4/1 235/2/1
f 234/5/1 233/4/1 232/1/1
f 231/5/1 230/6/1 229/4/1
f 228/6/1 227/5/1 226/7/1
s 1
f 225/8/2 224/9/3 223/10/4
f 222/11/5 221/9/3 220/8/2
f 219/11/6 218/12/7 217/9/3
f 216/13/8 215/12/7 214/11/6
f 213/12/7 212/13/9 211/14/10
f 210/15/11 209/11/6 208/16/12
f 207/15/11 206/13/13 205/11/6
f 204/17/14 203/18/15 202/19/16
f 201/17/17 200/16/12 199/18/18
f 198/20/19 197/19/20 196/21/21
f 195/20/19 194/17/17 193/19/16
f 192/19/16 191/22/22 190/23/23
f 189/19/16 188/18/24 187/22/22
f 186/21/25 185/23/26 184/24/27
f 183/21/25 3/19/16 182/23/26
f 181/23/23 180/25/28 179/26/29
f 178/23/23 177/22/30 176/25/31
f 175/24/32 174/26/29 173/27/33
f 172/24/34 4/23/35 171/26/29
f 170/28/36 169/29/37 168/30/38
f 167/28/36 166/31/39 165/29/40
f 164/32/41 163/30/42 162/33/43
f 161/32/41 13/28/29 160/30/38
f 159/30/42 158/34/44 157/35/45
f 156/30/38 155/29/46 154/34/44
f 153/33/47 152/35/45 151/36/48
f 150/33/47 14/30/42 149/35/45
f 148/35/49 147/15/50 146/37/51
f 145/35/49 144/34/52 143/15/50
f 142/36/53 141/37/51 140/38/54
f 139/36/53 16/35/45 138/37/51
f 137/37/55 136/16/12 135/17/56
f 134/37/57 133/15/50 132/16/58
f 131/38/59 130/17/56 129/20/60
f 128/38/59 36/37/61 25/17/56
f 127/39/62 126/20/60 125/40/63
f 124/39/62 123/38/59 122/20/60
f 121/41/64 120/36/48 119/42/65
f 118/41/64 117/33/47 116/36/48
f 115/43/66 114/27/33 113/44/67
f 112/43/66 111/24/32 110/27/33
f 109/40/63 108/21/21 107/45/68
f 106/40/63 40/20/69 105/21/21
f 104/42/65 103/38/59 102/39/62
f 101/42/65 41/36/70 42/38/59
f 100/46/67 99/33/43 98/41/64
f 97/46/67 37/32/33 38/33/43
f 96/45/71 95/24/34 94/43/72
f 93/45/71 33/21/21 34/24/34
f 92/29/46 91/14/10 90/34/44
f 89/29/46 88/12/7 87/14/10
f 86/22/73 85/9/74 84/25/31
f 83/22/73 82/10/4 81/9/74
f 80/16/75 79/8/2 78/18/18
f 29/16/75 30/11/5 77/8/76
f 76/31/77 75/12/7 28/29/46
f 31/31/77 26/9/74 27/12/7
f 74/18/15 73/10/4 24/22/22
f 21/18/78 22/8/76 23/10/4
f 72/34/79 71/13/80 20/15/50
f 17/34/79 18/14/10 19/13/13
f 70/47/81 69/48/82 68/49/83
f 67/47/84 66/50/63 65/48/85
f 64/51/86 63/52/62 62/53/87
f 61/51/86 60/54/65 59/52/62
f 58/55/88 57/56/64 56/57/89
f 55/55/90 54/58/67 53/56/64
f 52/49/83 51/59/66 50/60/91
f 2/49/83 32/48/71 49/59/92
f 48/53/87 47/50/63 12/47/84
f 9/53/93 10/52/62 11/50/63
f 46/57/94 45/54/65 8/51/95
f 5/57/96 6/56/64 7/54/65
f 44/60/91 43/61/67 15/62/97
f 1/60/98 35/59/72 39/61/67
