# Blender 5.0.0
# www.blender.org
mtllib Circle_002_Circle_Dupli_239_decorations_0.mtl
o Circle.002|Circle|Dupli|239_decorations_0
v -4.290324 0.784888 0.780984
v -4.290117 0.785065 0.779603
v -4.282322 0.785312 0.780495
v -4.282618 0.785060 0.782466
v -4.290712 0.787258 0.781805
v -4.285330 0.787779 0.782593
v -4.285226 0.788492 0.781490
v -4.290602 0.788020 0.780626
v -4.290340 0.787576 0.779315
v -4.284982 0.788077 0.780265
v -4.284780 0.786848 0.779840
v -4.290124 0.786261 0.778860
v -4.282996 0.786452 0.783864
v -4.283172 0.788440 0.783636
v -4.290589 0.785864 0.781965
v -4.283014 0.789528 0.781954
v -4.281531 0.789256 0.782141
v -4.280483 0.788714 0.782229
v -4.280284 0.788378 0.781236
v -4.281227 0.788741 0.780620
v -4.280968 0.785825 0.780954
v -4.280115 0.786475 0.781454
v -4.280272 0.786341 0.782501
v -4.281208 0.785620 0.782558
v -4.282333 0.787018 0.779435
v -4.280473 0.787081 0.783243
v -4.280567 0.788137 0.783122
v -4.281659 0.788371 0.783510
v -4.280976 0.787214 0.780091
v -4.280121 0.787382 0.780891
v -4.281516 0.786753 0.783696
v -4.284773 0.785729 0.780534
v -4.283831 0.785415 0.780420
v -4.284087 0.785197 0.782126
v -4.284966 0.785564 0.781826
v -4.282640 0.788895 0.780084
v -4.284414 0.786402 0.783336
v -4.284567 0.788123 0.783139
v -4.285214 0.786476 0.782742
v -4.283840 0.786892 0.779502
v -4.284430 0.789064 0.781683
v -4.284107 0.788516 0.780064
v -4.285214 0.786476 0.782742
v -4.290324 0.784888 0.780984
v -4.285226 0.788492 0.781490
v -4.290712 0.787258 0.781805
v -4.284780 0.786848 0.779840
v -4.290340 0.787576 0.779315
v -4.284966 0.785564 0.781826
v -4.290324 0.784888 0.780984
v -4.284966 0.785564 0.781826
v -4.290117 0.785065 0.779603
v -4.285330 0.787779 0.782593
v -4.285214 0.786476 0.782742
v -4.290589 0.785864 0.781965
v -4.290712 0.787258 0.781805
v -4.285330 0.787779 0.782593
v -4.290589 0.785864 0.781965
v -4.284982 0.788077 0.780265
v -4.285226 0.788492 0.781490
v -4.290602 0.788020 0.780626
v -4.290340 0.787576 0.779315
v -4.284982 0.788077 0.780265
v -4.290602 0.788020 0.780626
v -4.284773 0.785729 0.780534
v -4.284780 0.786848 0.779840
v -4.290124 0.786261 0.778860
v -4.290117 0.785065 0.779603
v -4.284773 0.785729 0.780534
v -4.290124 0.786261 0.778860
v -4.280284 0.788378 0.781236
v -4.281531 0.789256 0.782141
v -4.280272 0.786341 0.782501
v -4.280968 0.785825 0.780954
v -4.280567 0.788137 0.783122
v -4.281516 0.786753 0.783696
v -4.280115 0.786475 0.781454
v -4.280968 0.785825 0.780954
v -4.280115 0.786475 0.781454
v -4.280976 0.787214 0.780091
v -4.280473 0.787081 0.783243
v -4.280272 0.786341 0.782501
v -4.281208 0.785620 0.782558
v -4.281516 0.786753 0.783696
v -4.280473 0.787081 0.783243
v -4.281208 0.785620 0.782558
v -4.280483 0.788714 0.782229
v -4.280567 0.788137 0.783122
v -4.281659 0.788371 0.783510
v -4.281531 0.789256 0.782141
v -4.280483 0.788714 0.782229
v -4.281659 0.788371 0.783510
v -4.284773 0.785729 0.780534
v -4.284966 0.785564 0.781826
v -4.284087 0.785197 0.782126
v -4.284773 0.785729 0.780534
v -4.285214 0.786476 0.782742
v -4.285330 0.787779 0.782593
v -4.284567 0.788123 0.783139
v -4.285214 0.786476 0.782742
v -4.285226 0.788492 0.781490
v -4.284982 0.788077 0.780265
v -4.284107 0.788516 0.780064
v -4.285226 0.788492 0.781490
v -4.283831 0.785415 0.780420
v -4.284780 0.786848 0.779840
v -4.284773 0.785729 0.780534
v -4.283831 0.785415 0.780420
v -4.284780 0.786848 0.779840
v -4.284414 0.786402 0.783336
v -4.284087 0.785197 0.782126
v -4.284966 0.785564 0.781826
v -4.285214 0.786476 0.782742
v -4.284414 0.786402 0.783336
v -4.284966 0.785564 0.781826
v -4.284430 0.789064 0.781683
v -4.284567 0.788123 0.783139
v -4.285330 0.787779 0.782593
v -4.285226 0.788492 0.781490
v -4.284430 0.789064 0.781683
v -4.285330 0.787779 0.782593
v -4.283840 0.786892 0.779502
v -4.284107 0.788516 0.780064
v -4.284982 0.788077 0.780265
v -4.284780 0.786848 0.779840
v -4.283840 0.786892 0.779502
v -4.284982 0.788077 0.780265
v -4.284107 0.788516 0.780064
v -4.283840 0.786892 0.779502
v -4.282333 0.787018 0.779435
v -4.284107 0.788516 0.780064
v -4.280976 0.787214 0.780091
v -4.281227 0.788741 0.780620
v -4.282640 0.788895 0.780084
v -4.282333 0.787018 0.779435
v -4.280976 0.787214 0.780091
v -4.282640 0.788895 0.780084
v -4.282640 0.788895 0.780084
v -4.284430 0.789064 0.781683
v -4.284107 0.788516 0.780064
v -4.282640 0.788895 0.780084
v -4.284430 0.789064 0.781683
v -4.281227 0.788741 0.780620
v -4.281531 0.789256 0.782141
v -4.283014 0.789528 0.781954
v -4.282640 0.788895 0.780084
v -4.281227 0.788741 0.780620
v -4.283014 0.789528 0.781954
v -4.283014 0.789528 0.781954
v -4.284567 0.788123 0.783139
v -4.284430 0.789064 0.781683
v -4.283014 0.789528 0.781954
v -4.284567 0.788123 0.783139
v -4.281531 0.789256 0.782141
v -4.281659 0.788371 0.783510
v -4.283172 0.788440 0.783636
v -4.283014 0.789528 0.781954
v -4.281531 0.789256 0.782141
v -4.283172 0.788440 0.783636
v -4.283172 0.788440 0.783636
v -4.284414 0.786402 0.783336
v -4.284567 0.788123 0.783139
v -4.283172 0.788440 0.783636
v -4.284414 0.786402 0.783336
v -4.281659 0.788371 0.783510
v -4.281516 0.786753 0.783696
v -4.282996 0.786452 0.783864
v -4.283172 0.788440 0.783636
v -4.281659 0.788371 0.783510
v -4.282996 0.786452 0.783864
v -4.282996 0.786452 0.783864
v -4.284087 0.785197 0.782126
v -4.284414 0.786402 0.783336
v -4.282996 0.786452 0.783864
v -4.284087 0.785197 0.782126
v -4.281516 0.786753 0.783696
v -4.281208 0.785620 0.782558
v -4.282618 0.785060 0.782466
v -4.282996 0.786452 0.783864
v -4.281516 0.786753 0.783696
v -4.282618 0.785060 0.782466
v -4.282618 0.785060 0.782466
v -4.283831 0.785415 0.780420
v -4.284087 0.785197 0.782126
v -4.282618 0.785060 0.782466
v -4.283831 0.785415 0.780420
v -4.281208 0.785620 0.782558
v -4.280968 0.785825 0.780954
v -4.282322 0.785312 0.780495
v -4.282618 0.785060 0.782466
v -4.281208 0.785620 0.782558
v -4.282322 0.785312 0.780495
v -4.282322 0.785312 0.780495
v -4.282333 0.787018 0.779435
v -4.283840 0.786892 0.779502
v -4.283831 0.785415 0.780420
v -4.282322 0.785312 0.780495
v -4.283840 0.786892 0.779502
v -4.280968 0.785825 0.780954
v -4.280976 0.787214 0.780091
v -4.282333 0.787018 0.779435
v -4.282322 0.785312 0.780495
v -4.280968 0.785825 0.780954
v -4.282333 0.787018 0.779435
v -4.280121 0.787382 0.780891
v -4.280284 0.788378 0.781236
v -4.281227 0.788741 0.780620
v -4.280976 0.787214 0.780091
v -4.280121 0.787382 0.780891
v -4.281227 0.788741 0.780620
v -4.280483 0.788714 0.782229
v -4.280284 0.788378 0.781236
v -4.280567 0.788137 0.783122
v -4.280121 0.787382 0.780891
v -4.280567 0.788137 0.783122
v -4.280284 0.788378 0.781236
v -4.280473 0.787081 0.783243
v -4.280567 0.788137 0.783122
v -4.280121 0.787382 0.780891
v -4.280115 0.786475 0.781454
v -4.280473 0.787081 0.783243
v -4.280121 0.787382 0.780891
v -4.280272 0.786341 0.782501
v -4.280473 0.787081 0.783243
v -4.280115 0.786475 0.781454
v -4.290602 0.788020 0.780626
v -4.290712 0.787258 0.781805
v -4.290340 0.787576 0.779315
v -4.290124 0.786261 0.778860
v -4.290340 0.787576 0.779315
v -4.290712 0.787258 0.781805
v -4.290589 0.785864 0.781965
v -4.290124 0.786261 0.778860
v -4.290712 0.787258 0.781805
v -4.290117 0.785065 0.779603
v -4.290124 0.786261 0.778860
v -4.290589 0.785864 0.781965
v -4.290324 0.784888 0.780984
v -4.290117 0.785065 0.779603
v -4.290589 0.785864 0.781965
vn -0.9814 -0.1055 -0.1604
vn 0.9092 -0.3834 -0.1623
vn 0.7453 -0.1056 0.6584
vn 0.8374 -0.4448 0.3178
vn 0.9067 0.0323 -0.4205
vn 0.7453 -0.1056 0.6583
vn 0.9067 0.0322 -0.4205
vn 0.7023 0.3786 0.6028
vn 0.8318 0.4892 -0.2623
vn 0.7023 0.3787 0.6028
vn 0.7408 0.6434 0.1931
vn 0.4350 0.6941 -0.5736
vn 0.9067 0.0323 -0.4204
vn 0.5564 -0.0457 -0.8297
vn 0.9068 0.0323 -0.4204
vn 0.2076 -0.0932 -0.9738
vn 0.5604 -0.7186 -0.4117
vn 0.2121 -0.8298 -0.5163
vn 0.2077 -0.0931 -0.9738
vn -0.1705 -0.1271 -0.9771
vn 0.2121 -0.8298 -0.5162
vn -0.1663 -0.8210 -0.5461
vn 0.2121 -0.8297 -0.5163
vn 0.4441 -0.8180 0.3655
vn 0.0848 -0.9386 0.3345
vn 0.5604 -0.7187 -0.4117
vn -0.2862 -0.9235 0.2553
vn 0.0847 -0.9386 0.3346
vn 0.2949 -0.2690 0.9169
vn -0.0785 -0.3376 0.9380
vn 0.0848 -0.9386 0.3346
vn 0.4440 -0.8180 0.3656
vn 0.2950 -0.2690 0.9168
vn -0.2863 -0.9235 0.2554
vn -0.4400 -0.3574 0.8239
vn -0.0785 -0.3375 0.9380
vn 0.2254 0.5150 0.8270
vn -0.1546 0.5206 0.8397
vn -0.4400 -0.3573 0.8238
vn -0.1547 0.5206 0.8397
vn -0.5117 0.4511 0.7312
vn -0.1546 0.5205 0.8397
vn 0.2878 0.9436 0.1638
vn -0.0864 0.9898 0.1136
vn 0.2877 0.9436 0.1637
vn -0.5118 0.4511 0.7312
vn -0.4474 0.8931 0.0472
vn 0.0748 0.7166 -0.6934
vn -0.4475 0.8931 0.0472
vn 0.0748 0.7166 -0.6935
vn -0.2955 0.6358 -0.7130
vn 0.5563 -0.0457 -0.8297
vn 0.2077 -0.0932 -0.9738
vn 0.0749 0.7166 -0.6934
vn -0.2956 0.6357 -0.7131
vn -0.1704 -0.1271 -0.9771
vn -0.2199 0.6608 -0.7176
vn -0.0916 -0.1214 -0.9884
vn -0.2955 0.6357 -0.7131
vn -0.4415 0.4715 0.7634
vn -0.3757 0.9247 0.0620
vn -0.2103 -0.9380 0.2755
vn -0.4400 -0.3574 0.8238
vn -0.3680 -0.3575 0.8584
vn -0.2103 -0.9380 0.2754
vn -0.2862 -0.9235 0.2554
vn -0.0915 -0.1214 -0.9884
vn -0.1663 -0.8210 -0.5462
vn -0.0874 -0.8329 -0.5465
vn -0.3756 0.9247 0.0620
vn -0.2955 0.6358 -0.7131
vn -0.3679 -0.3575 0.8584
vn -0.5117 0.4510 0.7312
vn -0.4416 0.4715 0.7634
vn -0.4400 -0.3573 0.8239
vn -0.0873 -0.8330 -0.5464
vn -0.0873 -0.8329 -0.5464
vn 0.2253 0.5151 0.8270
vn 0.4441 -0.8180 0.3656
vn 0.5563 -0.0458 -0.8297
vn 0.2950 -0.2690 0.9169
vn 0.5603 -0.7187 -0.4117
vn 0.9092 -0.3833 -0.1623
vn 0.2878 0.9436 0.1637
vn 0.1896 -0.0952 -0.9772
vn 0.1940 -0.8321 -0.5195
vn 0.1897 -0.0952 -0.9772
vn -0.0873 -0.8329 -0.5465
vn -0.1046 0.9883 0.1106
vn 0.0567 0.7151 -0.6968
vn -0.0967 -0.3397 0.9356
vn -0.1729 0.5189 0.8372
vn -0.0966 -0.3396 0.9356
vn 0.1940 -0.8322 -0.5195
vn 0.0666 -0.9410 0.3317
vn 0.1941 -0.8322 -0.5195
vn 0.0567 0.7150 -0.6968
vn 0.1896 -0.0951 -0.9772
vn 0.0568 0.7150 -0.6968
vn -0.1046 0.9883 0.1107
vn -0.1728 0.5189 0.8372
vn 0.0666 -0.9410 0.3318
vn 0.0667 -0.9410 0.3318
vt 0.543243 0.611839
vt 0.535370 0.618118
vt 0.537796 0.613083
vt 0.537796 0.623154
vt 0.547607 0.615326
vt 0.543243 0.624397
vt 0.547607 0.620918
vt 0.565384 0.671494
vt 0.570206 0.669548
vt 0.567856 0.672157
vt 0.564468 0.669609
vt 0.568146 0.666756
vt 0.564514 0.667854
vt 0.565857 0.666748
vt 0.562897 0.666855
vt 0.562302 0.669838
vt 0.559082 0.669685
vt 0.563492 0.673050
vt 0.560059 0.674789
vt 0.554092 0.669067
vt 0.554398 0.676537
vt 0.567307 0.675606
vt 0.564316 0.680244
vt 0.558044 0.684982
vt 0.575485 0.674767
vt 0.575272 0.686485
vt 0.565720 0.696274
vt 0.575485 0.658051
vt 0.568817 0.663902
vt 0.568115 0.659698
vt 0.574570 0.665543
vt 0.572052 0.651657
vt 0.565903 0.655174
vt 0.565063 0.664742
vt 0.563416 0.661980
vt 0.560669 0.658463
vt 0.560364 0.665283
vt 0.556488 0.662933
vt 0.552032 0.660286
vt 0.548294 0.668175
vt 0.563522 0.651588
vt 0.557617 0.654999
vt 0.551163 0.688484
vt 0.556610 0.699394
vt 0.547867 0.678001
vt 0.568756 0.648293
vt 0.604446 0.682632
vt 0.626221 0.687675
vt 0.604553 0.688225
vt 0.626144 0.682457
vt 0.604553 0.671455
vt 0.626144 0.677231
vt 0.604446 0.677048
vt 0.626221 0.672005
vt 0.605011 0.660294
vt 0.626404 0.666786
vt 0.604736 0.665871
vt 0.626663 0.661568
vt 0.626404 0.692902
vt 0.604736 0.693810
vt 0.626663 0.698120
vt 0.605011 0.699394
s 0
usemtl decorations
f 240/1/1 239/2/1 238/3/1
f 237/1/1 236/4/1 235/2/1
f 234/5/1 233/4/1 232/1/1
f 231/5/1 230/6/1 229/4/1
f 228/6/1 227/5/1 226/7/1
s 1
f 225/8/2 224/9/3 223/10/4
f 222/11/5 221/9/6 220/8/2
f 219/11/7 218/12/8 217/9/3
f 216/13/9 215/12/8 214/11/5
f 213/12/10 212/13/9 211/14/11
f 210/15/12 209/11/13 208/16/14
f 207/15/12 206/13/9 205/11/15
f 204/17/16 203/18/17 202/19/18
f 201/17/19 200/16/14 199/18/17
f 198/20/20 197/19/21 196/21/22
f 195/20/20 194/17/19 193/19/23
f 192/19/18 191/22/24 190/23/25
f 189/19/18 188/18/26 187/22/24
f 186/21/22 185/23/25 184/24/27
f 183/21/22 3/19/18 182/23/25
f 181/23/28 180/25/29 179/26/30
f 178/23/31 177/22/32 176/25/33
f 175/24/34 174/26/30 173/27/35
f 172/24/34 4/23/28 171/26/30
f 170/28/36 169/29/37 168/30/38
f 167/28/36 166/31/29 165/29/37
f 164/32/39 163/30/40 162/33/41
f 161/32/39 13/28/30 160/30/42
f 159/30/38 158/34/43 157/35/44
f 156/30/38 155/29/37 154/34/45
f 153/33/46 152/35/44 151/36/47
f 150/33/46 14/30/38 149/35/44
f 148/35/44 147/15/12 146/37/48
f 145/35/44 144/34/45 143/15/12
f 142/36/49 141/37/50 140/38/51
f 139/36/49 16/35/44 138/37/50
f 137/37/50 136/16/52 135/17/53
f 134/37/54 133/15/12 132/16/14
f 131/38/55 130/17/53 129/20/56
f 128/38/55 36/37/48 25/17/53
f 127/39/57 126/20/56 125/40/58
f 124/39/57 123/38/59 122/20/56
f 121/41/60 120/36/47 119/42/61
f 118/41/60 117/33/46 116/36/47
f 115/43/62 114/27/63 113/44/64
f 112/43/65 111/24/66 110/27/63
f 109/40/67 108/21/68 107/45/69
f 106/40/58 40/20/20 105/21/68
f 104/42/70 103/38/71 102/39/57
f 101/42/70 41/36/47 42/38/71
f 100/46/72 99/33/73 98/41/74
f 97/46/64 37/32/75 38/33/73
f 96/45/76 95/24/66 94/43/62
f 93/45/77 33/21/22 34/24/66
f 92/29/37 91/14/11 90/34/45
f 89/29/78 88/12/8 87/14/11
f 86/22/79 85/9/6 84/25/33
f 83/22/79 82/10/4 81/9/6
f 80/16/14 79/8/2 78/18/17
f 29/16/80 30/11/5 77/8/2
f 76/31/81 75/12/8 28/29/37
f 31/31/81 26/9/6 27/12/8
f 74/18/26 73/10/4 24/22/24
f 21/18/82 22/8/83 23/10/4
f 72/34/84 71/13/9 20/15/12
f 17/34/45 18/14/11 19/13/9
f 70/47/85 69/48/77 68/49/86
f 67/47/87 66/50/58 65/48/88
f 64/51/89 63/52/57 62/53/90
f 61/51/89 60/54/70 59/52/57
f 58/55/91 57/56/60 56/57/92
f 55/55/93 54/58/64 53/56/74
f 52/49/94 51/59/65 50/60/95
f 2/49/96 32/48/77 49/59/65
f 48/53/97 47/50/58 12/47/98
f 9/53/99 10/52/57 11/50/58
f 46/57/92 45/54/70 8/51/100
f 5/57/101 6/56/60 7/54/70
f 44/60/102 43/61/72 15/62/91
f 1/60/103 35/59/65 39/61/64
