# Blender 5.0.0
# www.blender.org
mtllib Circle_005_Circle_001_Dupli_226_decorations_0.mtl
o Circle.005|Circle.001|Dupli|226_decorations_0
v -4.477201 2.121441 0.552060
v -4.476074 2.121594 0.552890
v -4.471132 2.120466 0.546897
v -4.472740 2.120248 0.545713
v -4.477776 2.118984 0.552334
v -4.474442 2.117825 0.548162
v -4.473521 2.117400 0.549002
v -4.476790 2.118531 0.553232
v -4.475745 2.119260 0.553830
v -4.472544 2.118082 0.549561
v -4.472246 2.119357 0.549419
v -4.475426 2.120623 0.553678
v -4.473821 2.118592 0.545360
v -4.473559 2.116744 0.546104
v -4.477959 2.120280 0.551812
v -4.472154 2.116096 0.547386
v -4.471262 2.116185 0.546158
v -4.470641 2.116596 0.545239
v -4.469848 2.117149 0.545693
v -4.470047 2.117032 0.546853
v -4.470430 2.119741 0.545761
v -4.470098 2.118917 0.544980
v -4.470952 2.118801 0.544351
v -4.471739 2.119564 0.544797
v -4.470207 2.119081 0.548022
v -4.471526 2.117921 0.544164
v -4.471387 2.116940 0.544559
v -4.472406 2.116712 0.545116
v -4.469677 2.118614 0.546676
v -4.469607 2.118182 0.545577
v -4.472618 2.118215 0.544510
v -4.472852 2.120264 0.548682
v -4.472139 2.120515 0.548027
v -4.473531 2.120326 0.547002
v -4.473905 2.120121 0.547906
v -4.470662 2.117137 0.548239
v -4.474466 2.118892 0.546696
v -4.474240 2.117292 0.547340
v -4.474613 2.119035 0.547674
v -4.471339 2.119316 0.549000
v -4.473024 2.116732 0.548449
v -4.471732 2.117632 0.549188
v -4.474613 2.119035 0.547674
v -4.477201 2.121441 0.552060
v -4.473521 2.117400 0.549002
v -4.477776 2.118984 0.552334
v -4.472246 2.119357 0.549419
v -4.475745 2.119260 0.553830
v -4.473905 2.120121 0.547906
v -4.477201 2.121441 0.552060
v -4.473905 2.120121 0.547906
v -4.476074 2.121594 0.552890
v -4.474442 2.117825 0.548162
v -4.474613 2.119035 0.547674
v -4.477959 2.120280 0.551812
v -4.477776 2.118984 0.552334
v -4.474442 2.117825 0.548162
v -4.477959 2.120280 0.551812
v -4.472544 2.118082 0.549561
v -4.473521 2.117400 0.549002
v -4.476790 2.118531 0.553232
v -4.475745 2.119260 0.553830
v -4.472544 2.118082 0.549561
v -4.476790 2.118531 0.553232
v -4.472852 2.120264 0.548682
v -4.472246 2.119357 0.549419
v -4.475426 2.120623 0.553678
v -4.476074 2.121594 0.552890
v -4.472852 2.120264 0.548682
v -4.475426 2.120623 0.553678
v -4.469848 2.117149 0.545693
v -4.471262 2.116185 0.546158
v -4.470952 2.118801 0.544351
v -4.470430 2.119741 0.545761
v -4.471387 2.116940 0.544559
v -4.472618 2.118215 0.544510
v -4.470098 2.118917 0.544980
v -4.470430 2.119741 0.545761
v -4.470098 2.118917 0.544980
v -4.469677 2.118614 0.546676
v -4.471526 2.117921 0.544164
v -4.470952 2.118801 0.544351
v -4.471739 2.119564 0.544797
v -4.472618 2.118215 0.544510
v -4.471526 2.117921 0.544164
v -4.471739 2.119564 0.544797
v -4.470641 2.116596 0.545239
v -4.471387 2.116940 0.544559
v -4.472406 2.116712 0.545116
v -4.471262 2.116185 0.546158
v -4.470641 2.116596 0.545239
v -4.472406 2.116712 0.545116
v -4.472852 2.120264 0.548682
v -4.473905 2.120121 0.547906
v -4.473531 2.120326 0.547002
v -4.472852 2.120264 0.548682
v -4.474613 2.119035 0.547674
v -4.474442 2.117825 0.548162
v -4.474240 2.117292 0.547340
v -4.474613 2.119035 0.547674
v -4.473521 2.117400 0.549002
v -4.472544 2.118082 0.549561
v -4.471732 2.117632 0.549188
v -4.473521 2.117400 0.549002
v -4.472139 2.120515 0.548027
v -4.472246 2.119357 0.549419
v -4.472852 2.120264 0.548682
v -4.472139 2.120515 0.548027
v -4.472246 2.119357 0.549419
v -4.474466 2.118892 0.546696
v -4.473531 2.120326 0.547002
v -4.473905 2.120121 0.547906
v -4.474613 2.119035 0.547674
v -4.474466 2.118892 0.546696
v -4.473905 2.120121 0.547906
v -4.473024 2.116732 0.548449
v -4.474240 2.117292 0.547340
v -4.474442 2.117825 0.548162
v -4.473521 2.117400 0.549002
v -4.473024 2.116732 0.548449
v -4.474442 2.117825 0.548162
v -4.471339 2.119316 0.549000
v -4.471732 2.117632 0.549188
v -4.472544 2.118082 0.549561
v -4.472246 2.119357 0.549419
v -4.471339 2.119316 0.549000
v -4.472544 2.118082 0.549561
v -4.471732 2.117632 0.549188
v -4.471339 2.119316 0.549000
v -4.470207 2.119081 0.548022
v -4.471732 2.117632 0.549188
v -4.469677 2.118614 0.546676
v -4.470047 2.117032 0.546853
v -4.470662 2.117137 0.548239
v -4.470207 2.119081 0.548022
v -4.469677 2.118614 0.546676
v -4.470662 2.117137 0.548239
v -4.470662 2.117137 0.548239
v -4.473024 2.116732 0.548449
v -4.471732 2.117632 0.549188
v -4.470662 2.117137 0.548239
v -4.473024 2.116732 0.548449
v -4.470047 2.117032 0.546853
v -4.471262 2.116185 0.546158
v -4.472154 2.116096 0.547386
v -4.470662 2.117137 0.548239
v -4.470047 2.117032 0.546853
v -4.472154 2.116096 0.547386
v -4.472154 2.116096 0.547386
v -4.474240 2.117292 0.547340
v -4.473024 2.116732 0.548449
v -4.472154 2.116096 0.547386
v -4.474240 2.117292 0.547340
v -4.471262 2.116185 0.546158
v -4.472406 2.116712 0.545116
v -4.473559 2.116744 0.546104
v -4.472154 2.116096 0.547386
v -4.471262 2.116185 0.546158
v -4.473559 2.116744 0.546104
v -4.473559 2.116744 0.546104
v -4.474466 2.118892 0.546696
v -4.474240 2.117292 0.547340
v -4.473559 2.116744 0.546104
v -4.474466 2.118892 0.546696
v -4.472406 2.116712 0.545116
v -4.472618 2.118215 0.544510
v -4.473821 2.118592 0.545360
v -4.473559 2.116744 0.546104
v -4.472406 2.116712 0.545116
v -4.473821 2.118592 0.545360
v -4.473821 2.118592 0.545360
v -4.473531 2.120326 0.547002
v -4.474466 2.118892 0.546696
v -4.473821 2.118592 0.545360
v -4.473531 2.120326 0.547002
v -4.472618 2.118215 0.544510
v -4.471739 2.119564 0.544797
v -4.472740 2.120248 0.545713
v -4.473821 2.118592 0.545360
v -4.472618 2.118215 0.544510
v -4.472740 2.120248 0.545713
v -4.472740 2.120248 0.545713
v -4.472139 2.120515 0.548027
v -4.473531 2.120326 0.547002
v -4.472740 2.120248 0.545713
v -4.472139 2.120515 0.548027
v -4.471739 2.119564 0.544797
v -4.470430 2.119741 0.545761
v -4.471132 2.120466 0.546897
v -4.472740 2.120248 0.545713
v -4.471739 2.119564 0.544797
v -4.471132 2.120466 0.546897
v -4.471132 2.120466 0.546897
v -4.470207 2.119081 0.548022
v -4.471339 2.119316 0.549000
v -4.472139 2.120515 0.548027
v -4.471132 2.120466 0.546897
v -4.471339 2.119316 0.549000
v -4.470430 2.119741 0.545761
v -4.469677 2.118614 0.546676
v -4.470207 2.119081 0.548022
v -4.471132 2.120466 0.546897
v -4.470430 2.119741 0.545761
v -4.470207 2.119081 0.548022
v -4.469607 2.118182 0.545577
v -4.469848 2.117149 0.545693
v -4.470047 2.117032 0.546853
v -4.469677 2.118614 0.546676
v -4.469607 2.118182 0.545577
v -4.470047 2.117032 0.546853
v -4.470641 2.116596 0.545239
v -4.469848 2.117149 0.545693
v -4.471387 2.116940 0.544559
v -4.469607 2.118182 0.545577
v -4.471387 2.116940 0.544559
v -4.469848 2.117149 0.545693
v -4.471526 2.117921 0.544164
v -4.471387 2.116940 0.544559
v -4.469607 2.118182 0.545577
v -4.470098 2.118917 0.544980
v -4.471526 2.117921 0.544164
v -4.469607 2.118182 0.545577
v -4.470952 2.118801 0.544351
v -4.471526 2.117921 0.544164
v -4.470098 2.118917 0.544980
v -4.476790 2.118531 0.553232
v -4.477776 2.118984 0.552334
v -4.475745 2.119260 0.553830
v -4.475426 2.120623 0.553678
v -4.475745 2.119260 0.553830
v -4.477776 2.118984 0.552334
v -4.477959 2.120280 0.551812
v -4.475426 2.120623 0.553678
v -4.477776 2.118984 0.552334
v -4.476074 2.121594 0.552890
v -4.475426 2.120623 0.553678
v -4.477959 2.120280 0.551812
v -4.477201 2.121441 0.552060
v -4.476074 2.121594 0.552890
v -4.477959 2.120280 0.551812
vn -0.5974 0.2256 0.7695
vn 0.7143 0.3321 -0.6160
vn 0.0596 -0.1246 -0.9904
vn 0.3227 0.2790 -0.9044
vn 0.9396 -0.0052 -0.3422
vn 0.7144 0.3321 -0.6159
vn 0.9396 -0.0051 -0.3422
vn 0.1232 -0.5746 -0.8091
vn 0.8289 -0.4789 -0.2893
vn 0.1231 -0.5746 -0.8091
vn 0.8289 -0.4788 -0.2893
vn 0.4655 -0.7323 -0.4971
vn 0.7870 -0.5656 0.2465
vn 0.9663 0.2012 0.1608
vn 0.8133 0.3125 0.4908
vn 0.6016 0.7472 -0.2824
vn 0.4142 0.9102 0.0055
vn 0.8134 0.3125 0.4907
vn 0.5433 0.3786 0.7493
vn 0.1673 0.9416 0.2922
vn -0.0324 0.6612 -0.7495
vn -0.2798 0.8160 -0.5057
vn -0.2798 0.8161 -0.5057
vn -0.4864 0.8529 -0.1894
vn -0.4585 0.0080 -0.8887
vn -0.7462 0.1010 -0.6581
vn -0.0325 0.6612 -0.7495
vn -0.4584 0.0080 -0.8887
vn -0.4865 0.8529 -0.1894
vn -0.9258 0.1793 -0.3329
vn -0.2799 0.8160 -0.5057
vn -0.7462 0.1009 -0.6580
vn -0.3556 -0.7206 -0.5952
vn -0.6336 -0.6965 -0.3368
vn -0.4585 0.0079 -0.8887
vn -0.9258 0.1792 -0.3329
vn -0.8197 -0.5720 -0.0303
vn -0.6336 -0.6965 -0.3369
vn 0.1987 -0.9759 -0.0900
vn -0.0269 -0.9760 0.2162
vn -0.3556 -0.7207 -0.5951
vn -0.8197 -0.5720 -0.0302
vn -0.2481 -0.8353 0.4907
vn -0.0268 -0.9760 0.2163
vn 0.7869 -0.5657 0.2465
vn 0.6171 -0.5269 0.5845
vn -0.0268 -0.9760 0.2162
vn 0.7869 -0.5657 0.2464
vn -0.2481 -0.8352 0.4907
vn 0.3585 -0.4123 0.8376
vn 0.8133 0.3125 0.4907
vn 0.6171 -0.5269 0.5844
vn 0.3584 -0.4122 0.8376
vn 0.5434 0.3786 0.7493
vn 0.4182 -0.4418 0.7937
vn 0.5434 0.3785 0.7493
vn 0.6078 0.3691 0.7031
vn 0.3585 -0.4122 0.8376
vn -0.7899 -0.6057 -0.0963
vn -0.2482 -0.8353 0.4907
vn -0.2038 -0.8756 0.4379
vn -0.4482 0.8554 -0.2595
vn -0.9257 0.1793 -0.3329
vn -0.8986 0.1647 -0.4066
vn -0.4482 0.8555 -0.2594
vn 0.1674 0.9416 0.2922
vn 0.2222 0.9464 0.2345
vn -0.7899 -0.6057 -0.0962
vn 0.2222 0.9464 0.2344
vn -0.4482 0.8554 -0.2594
vn 0.4655 -0.7323 -0.4970
vn 0.3228 0.2790 -0.9044
vn 0.7144 0.3321 -0.6160
vn 0.9662 0.2013 0.1608
vn 0.7144 0.3320 -0.6160
vn -0.4584 0.0079 -0.8887
vn 0.7870 -0.5657 0.2464
vn 0.8027 0.3169 0.5052
vn 0.2223 0.9464 0.2344
vn 0.4034 0.9148 0.0198
vn 0.8028 0.3169 0.5052
vn 0.6078 0.3690 0.7031
vn -0.0379 -0.9723 0.2306
vn 0.6063 -0.5230 0.5990
vn -0.0379 -0.9723 0.2305
vn -0.7576 0.1051 -0.6442
vn -0.6450 -0.6927 -0.3228
vn 0.4033 0.9148 0.0198
vn -0.4482 0.8555 -0.2595
vn -0.2910 0.8207 -0.4917
vn 0.4034 0.9148 0.0197
vn 0.8027 0.3168 0.5052
vn 0.6064 -0.5230 0.5990
vn -0.6450 -0.6927 -0.3227
vn -0.6449 -0.6927 -0.3228
vn -0.2911 0.8207 -0.4917
vn -0.7576 0.1052 -0.6442
vn -0.2910 0.8206 -0.4918
vt 0.543243 0.635056
vt 0.535370 0.641335
vt 0.537796 0.636299
vt 0.537796 0.646370
vt 0.547607 0.638535
vt 0.543243 0.647614
vt 0.547607 0.644127
vt 0.593674 0.671494
vt 0.598511 0.669548
vt 0.596146 0.672157
vt 0.592773 0.669609
vt 0.596436 0.666756
vt 0.592804 0.667854
vt 0.594147 0.666748
vt 0.591187 0.666855
vt 0.590591 0.669838
vt 0.587372 0.669685
vt 0.591782 0.673050
vt 0.588348 0.674789
vt 0.582382 0.669067
vt 0.582687 0.676537
vt 0.595596 0.675606
vt 0.592606 0.680244
vt 0.586334 0.684982
vt 0.603775 0.674767
vt 0.603561 0.686485
vt 0.594009 0.696274
vt 0.603775 0.658051
vt 0.597107 0.663902
vt 0.596405 0.659698
vt 0.602859 0.665543
vt 0.600342 0.651657
vt 0.594193 0.655174
vt 0.593353 0.664742
vt 0.591705 0.661980
vt 0.588959 0.658463
vt 0.588654 0.665283
vt 0.584778 0.662933
vt 0.580322 0.660286
vt 0.576584 0.668175
vt 0.591812 0.651588
vt 0.585907 0.654999
vt 0.579453 0.688484
vt 0.584915 0.699394
vt 0.576157 0.678001
vt 0.597061 0.648293
vt 0.627350 0.682632
vt 0.649124 0.687675
vt 0.627441 0.688225
vt 0.649033 0.682457
vt 0.627441 0.671455
vt 0.649033 0.677231
vt 0.627350 0.677048
vt 0.649124 0.672005
vt 0.627914 0.660294
vt 0.649292 0.666786
vt 0.627625 0.665871
vt 0.649551 0.661568
vt 0.649292 0.692902
vt 0.627625 0.693810
vt 0.649551 0.698120
vt 0.627914 0.699394
s 0
usemtl decorations
f 240/1/1 239/2/1 238/3/1
f 237/1/1 236/4/1 235/2/1
f 234/5/1 233/4/1 232/1/1
f 231/5/1 230/6/1 229/4/1
f 228/6/1 227/5/1 226/7/1
s 1
f 225/8/2 224/9/3 223/10/4
f 222/11/5 221/9/3 220/8/6
f 219/11/7 218/12/8 217/9/3
f 216/13/9 215/12/10 214/11/5
f 213/12/8 212/13/11 211/14/12
f 210/15/13 209/11/5 208/16/14
f 207/15/13 206/13/9 205/11/5
f 204/17/15 203/18/16 202/19/17
f 201/17/18 200/16/14 199/18/16
f 198/20/19 197/19/17 196/21/20
f 195/20/19 194/17/18 193/19/17
f 192/19/17 191/22/21 190/23/22
f 189/19/17 188/18/16 187/22/21
f 186/21/20 185/23/23 184/24/24
f 183/21/20 3/19/17 182/23/23
f 181/23/22 180/25/25 179/26/26
f 178/23/22 177/22/27 176/25/28
f 175/24/29 174/26/26 173/27/30
f 172/24/29 4/23/31 171/26/26
f 170/28/32 169/29/33 168/30/34
f 167/28/32 166/31/35 165/29/33
f 164/32/36 163/30/34 162/33/37
f 161/32/36 13/28/26 160/30/38
f 159/30/34 158/34/39 157/35/40
f 156/30/34 155/29/41 154/34/39
f 153/33/42 152/35/40 151/36/43
f 150/33/42 14/30/34 149/35/40
f 148/35/44 147/15/45 146/37/46
f 145/35/47 144/34/39 143/15/48
f 142/36/49 141/37/46 140/38/50
f 139/36/49 16/35/47 138/37/46
f 137/37/46 136/16/14 135/17/51
f 134/37/52 133/15/45 132/16/14
f 131/38/53 130/17/51 129/20/54
f 128/38/53 36/37/52 25/17/51
f 127/39/55 126/20/56 125/40/57
f 124/39/55 123/38/58 122/20/56
f 121/41/59 120/36/60 119/42/61
f 118/41/59 117/33/42 116/36/60
f 115/43/62 114/27/63 113/44/64
f 112/43/65 111/24/29 110/27/63
f 109/40/57 108/21/66 107/45/67
f 106/40/57 40/20/19 105/21/66
f 104/42/61 103/38/58 102/39/55
f 101/42/61 41/36/43 42/38/58
f 100/46/64 99/33/37 98/41/68
f 97/46/64 37/32/36 38/33/37
f 96/45/69 95/24/29 94/43/70
f 93/45/69 33/21/20 34/24/29
f 92/29/41 91/14/12 90/34/39
f 89/29/41 88/12/8 87/14/71
f 86/22/27 85/9/3 84/25/28
f 83/22/27 82/10/72 81/9/3
f 80/16/14 79/8/73 78/18/16
f 29/16/74 30/11/5 77/8/75
f 76/31/76 75/12/8 28/29/33
f 31/31/76 26/9/3 27/12/8
f 74/18/16 73/10/4 24/22/21
f 21/18/16 22/8/75 23/10/72
f 72/34/39 71/13/11 20/15/77
f 17/34/39 18/14/12 19/13/9
f 70/47/78 69/48/79 68/49/80
f 67/47/81 66/50/82 65/48/79
f 64/51/83 63/52/55 62/53/84
f 61/51/85 60/54/61 59/52/55
f 58/55/86 57/56/68 56/57/87
f 55/55/86 54/58/64 53/56/68
f 52/49/88 51/59/89 50/60/90
f 2/49/91 32/48/67 49/59/65
f 48/53/84 47/50/57 12/47/92
f 9/53/93 10/52/55 11/50/57
f 46/57/94 45/54/61 8/51/85
f 5/57/95 6/56/68 7/54/61
f 44/60/96 43/61/64 15/62/97
f 1/60/98 35/59/65 39/61/64
