# Blender 5.0.0
# www.blender.org
mtllib Circle_005_Circle_003_Dupli_273_decorations_0.mtl
o Circle.005|Circle.003|Dupli|273_decorations_0
v -4.263820 1.485306 0.574853
v -4.264020 1.484186 0.575683
v -4.271778 1.484317 0.574495
v -4.271492 1.485915 0.573311
v -4.263819 1.487236 0.576501
v -4.269233 1.487651 0.575892
v -4.269421 1.487049 0.577048
v -4.264019 1.486593 0.577737
v -4.264180 1.485218 0.577996
v -4.269571 1.485764 0.577290
v -4.269572 1.484762 0.576435
v -4.264181 1.484147 0.577082
v -4.271364 1.487852 0.573830
v -4.271490 1.488669 0.575662
v -4.263730 1.486663 0.575217
v -4.271776 1.487751 0.577426
v -4.273204 1.487632 0.576920
v -4.274158 1.487334 0.576287
v -4.274280 1.486292 0.576483
v -4.273391 1.486035 0.577220
v -4.273205 1.484837 0.574535
v -4.274159 1.485510 0.574730
v -4.274007 1.486358 0.574101
v -4.272973 1.486137 0.573571
v -4.272007 1.484261 0.576491
v -4.273939 1.487387 0.574377
v -4.274006 1.487821 0.575350
v -4.272971 1.488378 0.575484
v -4.273392 1.484792 0.576159
v -4.274280 1.485480 0.575790
v -4.272868 1.487713 0.573994
v -4.269422 1.484799 0.575128
v -4.270302 1.484451 0.574804
v -4.270054 1.485834 0.573779
v -4.269235 1.485846 0.574352
v -4.272006 1.485790 0.577795
v -4.269943 1.487511 0.574229
v -4.270052 1.488218 0.575814
v -4.269151 1.487115 0.574692
v -4.270500 1.484403 0.576532
v -4.270300 1.487424 0.577341
v -4.270499 1.485726 0.577660
v -4.269151 1.487115 0.574692
v -4.263820 1.485306 0.574853
v -4.269421 1.487049 0.577048
v -4.263819 1.487236 0.576501
v -4.269572 1.484762 0.576435
v -4.264180 1.485218 0.577996
v -4.269235 1.485846 0.574352
v -4.263820 1.485306 0.574853
v -4.269235 1.485846 0.574352
v -4.264020 1.484186 0.575683
v -4.269233 1.487651 0.575892
v -4.269151 1.487115 0.574692
v -4.263730 1.486663 0.575217
v -4.263819 1.487236 0.576501
v -4.269233 1.487651 0.575892
v -4.263730 1.486663 0.575217
v -4.269571 1.485764 0.577290
v -4.269421 1.487049 0.577048
v -4.264019 1.486593 0.577737
v -4.264180 1.485218 0.577996
v -4.269571 1.485764 0.577290
v -4.264019 1.486593 0.577737
v -4.269422 1.484799 0.575128
v -4.269572 1.484762 0.576435
v -4.264181 1.484147 0.577082
v -4.264020 1.484186 0.575683
v -4.269422 1.484799 0.575128
v -4.264181 1.484147 0.577082
v -4.274280 1.486292 0.576483
v -4.273204 1.487632 0.576920
v -4.274007 1.486358 0.574101
v -4.273205 1.484837 0.574535
v -4.274006 1.487821 0.575350
v -4.272868 1.487713 0.573994
v -4.274159 1.485510 0.574730
v -4.273205 1.484837 0.574535
v -4.274159 1.485510 0.574730
v -4.273392 1.484792 0.576159
v -4.273939 1.487387 0.574377
v -4.274007 1.486358 0.574101
v -4.272973 1.486137 0.573571
v -4.272868 1.487713 0.573994
v -4.273939 1.487387 0.574377
v -4.272973 1.486137 0.573571
v -4.274158 1.487334 0.576287
v -4.274006 1.487821 0.575350
v -4.272971 1.488378 0.575484
v -4.273204 1.487632 0.576920
v -4.274158 1.487334 0.576287
v -4.272971 1.488378 0.575484
v -4.269422 1.484799 0.575128
v -4.269235 1.485846 0.574352
v -4.270054 1.485834 0.573779
v -4.269422 1.484799 0.575128
v -4.269151 1.487115 0.574692
v -4.269233 1.487651 0.575892
v -4.270052 1.488218 0.575814
v -4.269151 1.487115 0.574692
v -4.269421 1.487049 0.577048
v -4.269571 1.485764 0.577290
v -4.270499 1.485726 0.577660
v -4.269421 1.487049 0.577048
v -4.270302 1.484451 0.574804
v -4.269572 1.484762 0.576435
v -4.269422 1.484799 0.575128
v -4.270302 1.484451 0.574804
v -4.269572 1.484762 0.576435
v -4.269943 1.487511 0.574229
v -4.270054 1.485834 0.573779
v -4.269235 1.485846 0.574352
v -4.269151 1.487115 0.574692
v -4.269943 1.487511 0.574229
v -4.269235 1.485846 0.574352
v -4.270300 1.487424 0.577341
v -4.270052 1.488218 0.575814
v -4.269233 1.487651 0.575892
v -4.269421 1.487049 0.577048
v -4.270300 1.487424 0.577341
v -4.269233 1.487651 0.575892
v -4.270500 1.484403 0.576532
v -4.270499 1.485726 0.577660
v -4.269571 1.485764 0.577290
v -4.269572 1.484762 0.576435
v -4.270500 1.484403 0.576532
v -4.269571 1.485764 0.577290
v -4.270499 1.485726 0.577660
v -4.270500 1.484403 0.576532
v -4.272007 1.484261 0.576491
v -4.270499 1.485726 0.577660
v -4.273392 1.484792 0.576159
v -4.273391 1.486035 0.577220
v -4.272006 1.485790 0.577795
v -4.272007 1.484261 0.576491
v -4.273392 1.484792 0.576159
v -4.272006 1.485790 0.577795
v -4.272006 1.485790 0.577795
v -4.270300 1.487424 0.577341
v -4.270499 1.485726 0.577660
v -4.272006 1.485790 0.577795
v -4.270300 1.487424 0.577341
v -4.273391 1.486035 0.577220
v -4.273204 1.487632 0.576920
v -4.271776 1.487751 0.577426
v -4.272006 1.485790 0.577795
v -4.273391 1.486035 0.577220
v -4.271776 1.487751 0.577426
v -4.271776 1.487751 0.577426
v -4.270052 1.488218 0.575814
v -4.270300 1.487424 0.577341
v -4.271776 1.487751 0.577426
v -4.270052 1.488218 0.575814
v -4.273204 1.487632 0.576920
v -4.272971 1.488378 0.575484
v -4.271490 1.488669 0.575662
v -4.271776 1.487751 0.577426
v -4.273204 1.487632 0.576920
v -4.271490 1.488669 0.575662
v -4.271490 1.488669 0.575662
v -4.269943 1.487511 0.574229
v -4.270052 1.488218 0.575814
v -4.271490 1.488669 0.575662
v -4.269943 1.487511 0.574229
v -4.272971 1.488378 0.575484
v -4.272868 1.487713 0.573994
v -4.271364 1.487852 0.573830
v -4.271490 1.488669 0.575662
v -4.272971 1.488378 0.575484
v -4.271364 1.487852 0.573830
v -4.271364 1.487852 0.573830
v -4.270054 1.485834 0.573779
v -4.269943 1.487511 0.574229
v -4.271364 1.487852 0.573830
v -4.270054 1.485834 0.573779
v -4.272868 1.487713 0.573994
v -4.272973 1.486137 0.573571
v -4.271492 1.485915 0.573311
v -4.271364 1.487852 0.573830
v -4.272868 1.487713 0.573994
v -4.271492 1.485915 0.573311
v -4.271492 1.485915 0.573311
v -4.270302 1.484451 0.574804
v -4.270054 1.485834 0.573779
v -4.271492 1.485915 0.573311
v -4.270302 1.484451 0.574804
v -4.272973 1.486137 0.573571
v -4.273205 1.484837 0.574535
v -4.271778 1.484317 0.574495
v -4.271492 1.485915 0.573311
v -4.272973 1.486137 0.573571
v -4.271778 1.484317 0.574495
v -4.271778 1.484317 0.574495
v -4.272007 1.484261 0.576491
v -4.270500 1.484403 0.576532
v -4.270302 1.484451 0.574804
v -4.271778 1.484317 0.574495
v -4.270500 1.484403 0.576532
v -4.273205 1.484837 0.574535
v -4.273392 1.484792 0.576159
v -4.272007 1.484261 0.576491
v -4.271778 1.484317 0.574495
v -4.273205 1.484837 0.574535
v -4.272007 1.484261 0.576491
v -4.274280 1.485480 0.575790
v -4.274280 1.486292 0.576483
v -4.273391 1.486035 0.577220
v -4.273392 1.484792 0.576159
v -4.274280 1.485480 0.575790
v -4.273391 1.486035 0.577220
v -4.274158 1.487334 0.576287
v -4.274280 1.486292 0.576483
v -4.274006 1.487821 0.575350
v -4.274280 1.485480 0.575790
v -4.274006 1.487821 0.575350
v -4.274280 1.486292 0.576483
v -4.273939 1.487387 0.574377
v -4.274006 1.487821 0.575350
v -4.274280 1.485480 0.575790
v -4.274159 1.485510 0.574730
v -4.273939 1.487387 0.574377
v -4.274280 1.485480 0.575790
v -4.274007 1.486358 0.574101
v -4.273939 1.487387 0.574377
v -4.274159 1.485510 0.574730
v -4.264019 1.486593 0.577737
v -4.263819 1.487236 0.576501
v -4.264180 1.485218 0.577996
v -4.264181 1.484147 0.577082
v -4.264180 1.485218 0.577996
v -4.263819 1.487236 0.576501
v -4.263730 1.486663 0.575217
v -4.264181 1.484147 0.577082
v -4.263819 1.487236 0.576501
v -4.264020 1.484186 0.575683
v -4.264181 1.484147 0.577082
v -4.263730 1.486663 0.575217
v -4.263820 1.485306 0.574853
v -4.264020 1.484186 0.575683
v -4.263730 1.486663 0.575217
vn 0.9893 -0.0951 0.1107
vn -0.8356 -0.4202 -0.3539
vn -0.7347 0.4407 -0.5158
vn -0.7659 -0.0311 -0.6422
vn -0.8913 -0.4337 0.1321
vn -0.8356 -0.4202 -0.3538
vn -0.8913 -0.4338 0.1320
vn -0.7655 0.6397 -0.0698
vn -0.8910 -0.0616 0.4497
vn -0.7655 0.6397 -0.0699
vn -0.8913 -0.4338 0.1321
vn -0.8351 0.4162 0.3599
vn -0.5236 -0.1881 0.8309
vn -0.5241 -0.7906 0.3167
vn -0.8911 -0.0615 0.4497
vn -0.1690 -0.9043 0.3919
vn -0.4339 -0.7687 -0.4700
vn -0.0704 -0.8803 -0.4692
vn -0.1691 -0.9043 0.3920
vn -0.5240 -0.7906 0.3167
vn -0.4339 -0.7686 -0.4700
vn 0.2098 -0.8874 0.4105
vn -0.0703 -0.8803 -0.4692
vn 0.3027 -0.8647 -0.4008
vn -0.3211 -0.1387 -0.9368
vn 0.0531 -0.1907 -0.9802
vn -0.4339 -0.7686 -0.4701
vn -0.3211 -0.1386 -0.9368
vn 0.4190 -0.2151 -0.8821
vn -0.2705 0.6250 -0.7323
vn 0.1085 0.6453 -0.7562
vn -0.3210 -0.1386 -0.9369
vn 0.4191 -0.2151 -0.8821
vn 0.4711 0.5724 -0.6711
vn -0.3203 0.9473 -0.0103
vn 0.0539 0.9980 0.0340
vn -0.2705 0.6250 -0.7322
vn -0.3204 0.9472 -0.0103
vn 0.4712 0.5724 -0.6711
vn 0.0540 0.9980 0.0340
vn 0.4198 0.9047 0.0733
vn -0.4330 0.5854 0.6854
vn -0.0694 0.6019 0.7956
vn -0.3203 0.9473 -0.0102
vn 0.4198 0.9046 0.0734
vn 0.3036 0.5315 0.7908
vn -0.0693 0.6019 0.7956
vn -0.5236 -0.1880 0.8310
vn -0.1686 -0.2447 0.9548
vn -0.5237 -0.1880 0.8309
vn 0.3037 0.5315 0.7908
vn 0.2101 -0.2660 0.9408
vn -0.1686 -0.2448 0.9548
vn -0.1687 -0.2447 0.9548
vn -0.5236 -0.1880 0.8309
vn 0.2102 -0.2660 0.9408
vn 0.2097 -0.8874 0.4105
vn 0.1316 -0.2647 0.9553
vn 0.1312 -0.9019 0.4116
vn 0.3466 0.9357 0.0659
vn 0.3036 0.5316 0.7907
vn 0.2275 0.5531 0.8015
vn 0.3458 -0.2125 -0.9139
vn 0.3993 0.5950 -0.6975
vn 0.3027 -0.8647 -0.4007
vn 0.2266 -0.8787 -0.4203
vn 0.1317 -0.2647 0.9553
vn 0.2275 0.5531 0.8014
vn 0.4198 0.9046 0.0733
vn 0.3993 0.5950 -0.6976
vn 0.2265 -0.8786 -0.4203
vn 0.3459 -0.2125 -0.9139
vn -0.7655 0.6396 -0.0699
vn -0.8350 0.4161 0.3599
vn -0.3211 -0.1386 -0.9369
vn -0.7347 0.4406 -0.5158
vn -0.5240 -0.7907 0.3167
vn -0.2706 0.6250 -0.7322
vn -0.3203 0.9472 -0.0103
vn -0.4338 -0.7687 -0.4700
vn -0.4338 -0.7687 -0.4701
vn -0.8911 -0.0616 0.4497
vn -0.1508 -0.9066 0.3942
vn 0.2265 -0.8787 -0.4203
vn -0.0521 -0.8825 -0.4674
vn -0.1509 -0.9066 0.3942
vn -0.0511 0.6004 0.7981
vn -0.1504 -0.2466 0.9574
vn -0.0512 0.6004 0.7981
vn 0.1268 0.6439 -0.7545
vn 0.0723 0.9967 0.0361
vn -0.0521 -0.8825 -0.4675
vn 0.0715 -0.1926 -0.9787
vn 0.2266 -0.8786 -0.4203
vn 0.1312 -0.9019 0.4115
vn -0.0511 0.6004 0.7980
vn 0.0722 0.9967 0.0361
vn 0.0715 -0.1925 -0.9787
vn 0.1268 0.6438 -0.7546
vn 0.0714 -0.1925 -0.9787
vt 0.530319 0.611839
vt 0.522446 0.618118
vt 0.524872 0.613083
vt 0.524872 0.623154
vt 0.534683 0.615326
vt 0.530319 0.624397
vt 0.534683 0.620918
vt 0.537079 0.671494
vt 0.541916 0.669548
vt 0.539566 0.672157
vt 0.536179 0.669609
vt 0.539856 0.666756
vt 0.536224 0.667854
vt 0.537567 0.666748
vt 0.534592 0.666855
vt 0.534012 0.669838
vt 0.530777 0.669685
vt 0.535187 0.673050
vt 0.531769 0.674789
vt 0.525803 0.669067
vt 0.526108 0.676537
vt 0.539017 0.675606
vt 0.536011 0.680244
vt 0.529755 0.684982
vt 0.547180 0.674767
vt 0.546982 0.686485
vt 0.537415 0.696274
vt 0.547180 0.658051
vt 0.540527 0.663902
vt 0.539825 0.659698
vt 0.546280 0.665543
vt 0.543762 0.651657
vt 0.537613 0.655174
vt 0.536758 0.664742
vt 0.535126 0.661980
vt 0.532364 0.658463
vt 0.532074 0.665283
vt 0.528198 0.662933
vt 0.523743 0.660286
vt 0.519989 0.668175
vt 0.535217 0.651588
vt 0.529327 0.654999
vt 0.522873 0.688484
vt 0.528320 0.699394
vt 0.519577 0.678001
vt 0.540466 0.648293
vt 0.604446 0.642853
vt 0.626221 0.647896
vt 0.604553 0.648445
vt 0.626144 0.642670
vt 0.604553 0.631676
vt 0.626144 0.637444
vt 0.604446 0.637268
vt 0.626221 0.632225
vt 0.605011 0.620506
vt 0.626404 0.626999
vt 0.604736 0.626091
vt 0.626663 0.621780
vt 0.626404 0.653114
vt 0.604736 0.654030
vt 0.626663 0.658333
vt 0.605011 0.659607
s 0
usemtl decorations
f 240/1/1 239/2/1 238/3/1
f 237/1/1 236/4/1 235/2/1
f 234/5/1 233/4/1 232/1/1
f 231/5/1 230/6/1 229/4/1
f 228/6/1 227/5/1 226/7/1
s 1
f 225/8/2 224/9/3 223/10/4
f 222/11/5 221/9/3 220/8/6
f 219/11/7 218/12/8 217/9/3
f 216/13/9 215/12/10 214/11/11
f 213/12/8 212/13/9 211/14/12
f 210/15/13 209/11/11 208/16/14
f 207/15/13 206/13/15 205/11/5
f 204/17/16 203/18/17 202/19/18
f 201/17/19 200/16/20 199/18/21
f 198/20/22 197/19/23 196/21/24
f 195/20/22 194/17/19 193/19/18
f 192/19/18 191/22/25 190/23/26
f 189/19/18 188/18/27 187/22/28
f 186/21/24 185/23/26 184/24/29
f 183/21/24 3/19/18 182/23/26
f 181/23/26 180/25/30 179/26/31
f 178/23/26 177/22/32 176/25/30
f 175/24/33 174/26/31 173/27/34
f 172/24/33 4/23/26 171/26/31
f 170/28/31 169/29/35 168/30/36
f 167/28/31 166/31/37 165/29/38
f 164/32/39 163/30/40 162/33/41
f 161/32/39 13/28/31 160/30/36
f 159/30/36 158/34/42 157/35/43
f 156/30/36 155/29/44 154/34/42
f 153/33/45 152/35/43 151/36/46
f 150/33/45 14/30/36 149/35/43
f 148/35/47 147/15/48 146/37/49
f 145/35/43 144/34/42 143/15/50
f 142/36/51 141/37/49 140/38/52
f 139/36/46 16/35/43 138/37/49
f 137/37/53 136/16/20 135/17/16
f 134/37/54 133/15/55 132/16/14
f 131/38/56 130/17/16 129/20/57
f 128/38/56 36/37/49 25/17/16
f 127/39/58 126/20/57 125/40/59
f 124/39/58 123/38/52 122/20/57
f 121/41/60 120/36/61 119/42/62
f 118/41/60 117/33/45 116/36/61
f 115/43/63 114/27/39 113/44/64
f 112/43/63 111/24/33 110/27/39
f 109/40/59 108/21/65 107/45/66
f 106/40/59 40/20/22 105/21/65
f 104/42/62 103/38/52 102/39/67
f 101/42/68 41/36/46 42/38/52
f 100/46/64 99/33/69 98/41/60
f 97/46/70 37/32/39 38/33/69
f 96/45/71 95/24/29 94/43/72
f 93/45/71 33/21/24 34/24/29
f 92/29/44 91/14/12 90/34/42
f 89/29/44 88/12/73 87/14/74
f 86/22/75 85/9/3 84/25/30
f 83/22/75 82/10/4 81/9/76
f 80/16/20 79/8/2 78/18/21
f 29/16/77 30/11/11 77/8/2
f 76/31/78 75/12/8 28/29/79
f 31/31/37 26/9/76 27/12/10
f 74/18/80 73/10/4 24/22/75
f 21/18/81 22/8/6 23/10/4
f 72/34/42 71/13/82 20/15/50
f 17/34/42 18/14/12 19/13/15
f 70/47/83 69/48/84 68/49/85
f 67/47/86 66/50/59 65/48/84
f 64/51/87 63/52/58 62/53/88
f 61/51/89 60/54/62 59/52/58
f 58/55/90 57/56/60 56/57/91
f 55/55/90 54/58/64 53/56/60
f 52/49/92 51/59/63 50/60/93
f 2/49/92 32/48/94 49/59/63
f 48/53/88 47/50/95 12/47/86
f 9/53/88 10/52/58 11/50/59
f 46/57/91 45/54/62 8/51/96
f 5/57/97 6/56/60 7/54/62
f 44/60/98 43/61/70 15/62/99
f 1/60/100 35/59/72 39/61/70
