# Blender 5.0.0
# www.blender.org
mtllib Circle_005_Circle_Dupli_31_decorations_0.mtl
o Circle.005|Circle|Dupli|31_decorations_0
v -4.375433 1.034192 0.420284
v -4.375830 1.033160 0.421157
v -4.382401 1.036963 0.423150
v -4.381835 1.038435 0.421905
v -4.373911 1.035609 0.421740
v -4.378263 1.038509 0.423324
v -4.378283 1.037871 0.424475
v -4.373932 1.034927 0.422972
v -4.374626 1.033750 0.423312
v -4.378932 1.036771 0.424794
v -4.379721 1.036036 0.424039
v -4.375471 1.032963 0.422505
v -4.380617 1.039989 0.422275
v -4.379663 1.040456 0.423981
v -4.374579 1.035282 0.420544
v -4.379694 1.039483 0.425739
v -4.381076 1.040105 0.425846
v -4.382211 1.040378 0.425654
v -4.382736 1.039486 0.425912
v -4.381881 1.038738 0.426241
v -4.383279 1.038054 0.423740
v -4.383648 1.039040 0.424279
v -4.383348 1.039822 0.423618
v -4.382818 1.039252 0.422726
v -4.381888 1.036682 0.425073
v -4.382701 1.040647 0.423814
v -4.382195 1.040895 0.424720
v -4.381052 1.040896 0.424416
v -4.382862 1.037825 0.425304
v -4.383376 1.038891 0.425300
v -4.381827 1.040517 0.423027
v -4.380057 1.036220 0.422779
v -4.381044 1.036365 0.422843
v -4.380554 1.037639 0.421765
v -4.379686 1.037185 0.421963
v -4.380683 1.037803 0.426225
v -4.379500 1.038985 0.422085
v -4.378675 1.039388 0.423562
v -4.378888 1.038203 0.422206
v -4.380600 1.036122 0.424506
v -4.378701 1.038546 0.425083
v -4.379558 1.037092 0.425504
v -4.378888 1.038203 0.422206
v -4.375433 1.034192 0.420284
v -4.378283 1.037871 0.424475
v -4.373911 1.035609 0.421740
v -4.379721 1.036036 0.424039
v -4.374626 1.033750 0.423312
v -4.379686 1.037185 0.421963
v -4.375433 1.034192 0.420284
v -4.379686 1.037185 0.421963
v -4.375830 1.033160 0.421157
v -4.378263 1.038509 0.423324
v -4.378888 1.038203 0.422206
v -4.374579 1.035282 0.420544
v -4.373911 1.035609 0.421740
v -4.378263 1.038509 0.423324
v -4.374579 1.035282 0.420544
v -4.378932 1.036771 0.424794
v -4.378283 1.037871 0.424475
v -4.373932 1.034927 0.422972
v -4.374626 1.033750 0.423312
v -4.378932 1.036771 0.424794
v -4.373932 1.034927 0.422972
v -4.380057 1.036220 0.422779
v -4.379721 1.036036 0.424039
v -4.375471 1.032963 0.422505
v -4.375830 1.033160 0.421157
v -4.380057 1.036220 0.422779
v -4.375471 1.032963 0.422505
v -4.382736 1.039486 0.425912
v -4.381076 1.040105 0.425846
v -4.383348 1.039822 0.423618
v -4.383279 1.038054 0.423740
v -4.382195 1.040895 0.424720
v -4.381827 1.040517 0.423027
v -4.383648 1.039040 0.424279
v -4.383279 1.038054 0.423740
v -4.383648 1.039040 0.424279
v -4.382862 1.037825 0.425304
v -4.382701 1.040647 0.423814
v -4.383348 1.039822 0.423618
v -4.382818 1.039252 0.422726
v -4.381827 1.040517 0.423027
v -4.382701 1.040647 0.423814
v -4.382818 1.039252 0.422726
v -4.382211 1.040378 0.425654
v -4.382195 1.040895 0.424720
v -4.381052 1.040896 0.424416
v -4.381076 1.040105 0.425846
v -4.382211 1.040378 0.425654
v -4.381052 1.040896 0.424416
v -4.380057 1.036220 0.422779
v -4.379686 1.037185 0.421963
v -4.380554 1.037639 0.421765
v -4.380057 1.036220 0.422779
v -4.378888 1.038203 0.422206
v -4.378263 1.038509 0.423324
v -4.378675 1.039388 0.423562
v -4.378888 1.038203 0.422206
v -4.378283 1.037871 0.424475
v -4.378932 1.036771 0.424794
v -4.379558 1.037092 0.425504
v -4.378283 1.037871 0.424475
v -4.381044 1.036365 0.422843
v -4.379721 1.036036 0.424039
v -4.380057 1.036220 0.422779
v -4.381044 1.036365 0.422843
v -4.379721 1.036036 0.424039
v -4.379500 1.038985 0.422085
v -4.380554 1.037639 0.421765
v -4.379686 1.037185 0.421963
v -4.378888 1.038203 0.422206
v -4.379500 1.038985 0.422085
v -4.379686 1.037185 0.421963
v -4.378701 1.038546 0.425083
v -4.378675 1.039388 0.423562
v -4.378263 1.038509 0.423324
v -4.378283 1.037871 0.424475
v -4.378701 1.038546 0.425083
v -4.378263 1.038509 0.423324
v -4.380600 1.036122 0.424506
v -4.379558 1.037092 0.425504
v -4.378932 1.036771 0.424794
v -4.379721 1.036036 0.424039
v -4.380600 1.036122 0.424506
v -4.378932 1.036771 0.424794
v -4.379558 1.037092 0.425504
v -4.380600 1.036122 0.424506
v -4.381888 1.036682 0.425073
v -4.379558 1.037092 0.425504
v -4.382862 1.037825 0.425304
v -4.381881 1.038738 0.426241
v -4.380683 1.037803 0.426225
v -4.381888 1.036682 0.425073
v -4.382862 1.037825 0.425304
v -4.380683 1.037803 0.426225
v -4.380683 1.037803 0.426225
v -4.378701 1.038546 0.425083
v -4.379558 1.037092 0.425504
v -4.380683 1.037803 0.426225
v -4.378701 1.038546 0.425083
v -4.381881 1.038738 0.426241
v -4.381076 1.040105 0.425846
v -4.379694 1.039483 0.425739
v -4.380683 1.037803 0.426225
v -4.381881 1.038738 0.426241
v -4.379694 1.039483 0.425739
v -4.379694 1.039483 0.425739
v -4.378675 1.039388 0.423562
v -4.378701 1.038546 0.425083
v -4.379694 1.039483 0.425739
v -4.378675 1.039388 0.423562
v -4.381076 1.040105 0.425846
v -4.381052 1.040896 0.424416
v -4.379663 1.040456 0.423981
v -4.379694 1.039483 0.425739
v -4.381076 1.040105 0.425846
v -4.379663 1.040456 0.423981
v -4.379663 1.040456 0.423981
v -4.379500 1.038985 0.422085
v -4.378675 1.039388 0.423562
v -4.379663 1.040456 0.423981
v -4.379500 1.038985 0.422085
v -4.381052 1.040896 0.424416
v -4.381827 1.040517 0.423027
v -4.380617 1.039989 0.422275
v -4.379663 1.040456 0.423981
v -4.381052 1.040896 0.424416
v -4.380617 1.039989 0.422275
v -4.380617 1.039989 0.422275
v -4.380554 1.037639 0.421765
v -4.379500 1.038985 0.422085
v -4.380617 1.039989 0.422275
v -4.380554 1.037639 0.421765
v -4.381827 1.040517 0.423027
v -4.382818 1.039252 0.422726
v -4.381835 1.038435 0.421905
v -4.380617 1.039989 0.422275
v -4.381827 1.040517 0.423027
v -4.381835 1.038435 0.421905
v -4.381835 1.038435 0.421905
v -4.381044 1.036365 0.422843
v -4.380554 1.037639 0.421765
v -4.381835 1.038435 0.421905
v -4.381044 1.036365 0.422843
v -4.382818 1.039252 0.422726
v -4.383279 1.038054 0.423740
v -4.382401 1.036963 0.423150
v -4.381835 1.038435 0.421905
v -4.382818 1.039252 0.422726
v -4.382401 1.036963 0.423150
v -4.382401 1.036963 0.423150
v -4.381888 1.036682 0.425073
v -4.380600 1.036122 0.424506
v -4.381044 1.036365 0.422843
v -4.382401 1.036963 0.423150
v -4.380600 1.036122 0.424506
v -4.383279 1.038054 0.423740
v -4.382862 1.037825 0.425304
v -4.381888 1.036682 0.425073
v -4.382401 1.036963 0.423150
v -4.383279 1.038054 0.423740
v -4.381888 1.036682 0.425073
v -4.383376 1.038891 0.425300
v -4.382736 1.039486 0.425912
v -4.381881 1.038738 0.426241
v -4.382862 1.037825 0.425304
v -4.383376 1.038891 0.425300
v -4.381881 1.038738 0.426241
v -4.382211 1.040378 0.425654
v -4.382736 1.039486 0.425912
v -4.382195 1.040895 0.424720
v -4.383376 1.038891 0.425300
v -4.382195 1.040895 0.424720
v -4.382736 1.039486 0.425912
v -4.382701 1.040647 0.423814
v -4.382195 1.040895 0.424720
v -4.383376 1.038891 0.425300
v -4.383648 1.039040 0.424279
v -4.382701 1.040647 0.423814
v -4.383376 1.038891 0.425300
v -4.383348 1.039822 0.423618
v -4.382701 1.040647 0.423814
v -4.383648 1.039040 0.424279
v -4.373932 1.034927 0.422972
v -4.373911 1.035609 0.421740
v -4.374626 1.033750 0.423312
v -4.375471 1.032963 0.422505
v -4.374626 1.033750 0.423312
v -4.373911 1.035609 0.421740
v -4.374579 1.035282 0.420544
v -4.375471 1.032963 0.422505
v -4.373911 1.035609 0.421740
v -4.375830 1.033160 0.421157
v -4.375471 1.032963 0.422505
v -4.374579 1.035282 0.420544
v -4.375433 1.034192 0.420284
v -4.375830 1.033160 0.421157
v -4.374579 1.035282 0.420544
vn 0.7857 -0.5468 -0.2894
vn -0.9976 0.0664 0.0199
vn -0.5631 0.8035 -0.1932
vn -0.8598 0.4249 -0.2833
vn -0.8728 -0.0020 0.4881
vn -0.8728 -0.0020 0.4880
vn -0.3310 0.9171 0.2223
vn -0.5794 0.2711 0.7687
vn -0.5794 0.2711 0.7686
vn -0.3383 0.6801 0.6504
vn -0.2082 -0.0690 0.9756
vn -0.6833 -0.5112 0.5214
vn -0.2082 -0.0691 0.9756
vn -0.4266 -0.7832 0.4524
vn -0.8853 -0.4004 -0.2366
vn -0.6478 -0.6619 -0.3772
vn -0.6832 -0.5112 0.5214
vn -0.8853 -0.4004 -0.2365
vn -0.1088 -0.9418 0.3182
vn -0.6477 -0.6619 -0.3773
vn -0.3172 -0.8275 -0.4633
vn -0.6477 -0.6619 -0.3772
vn -0.6622 0.1800 -0.7274
vn -0.4035 -0.0266 -0.9146
vn -0.3171 -0.8275 -0.4634
vn -0.4036 -0.0267 -0.9146
vn -0.0871 -0.2290 -0.9695
vn -0.1819 0.7929 -0.5816
vn 0.1222 0.6443 -0.7550
vn -0.6621 0.1800 -0.7275
vn -0.0870 -0.2290 -0.9695
vn 0.4082 0.4030 -0.8191
vn 0.1223 0.6443 -0.7550
vn 0.1939 0.9768 0.0911
vn 0.5335 0.8456 -0.0186
vn -0.1818 0.7929 -0.5816
vn 0.1938 0.9768 0.0911
vn 0.7956 0.5927 -0.1255
vn 0.1821 0.5933 0.7841
vn 0.5207 0.4257 0.7400
vn 0.7957 0.5926 -0.1255
vn 0.7836 0.1971 0.5892
vn -0.2082 -0.0690 0.9757
vn 0.0934 -0.2992 0.9496
vn 0.1822 0.5932 0.7842
vn 0.7836 0.1970 0.5892
vn 0.3810 -0.4857 0.7867
vn 0.0934 -0.2991 0.9496
vn 0.3811 -0.4858 0.7866
vn -0.1089 -0.9417 0.3182
vn 0.3241 -0.4518 0.8312
vn -0.1088 -0.9417 0.3183
vn -0.1782 -0.9193 0.3508
vn 0.3810 -0.4858 0.7867
vn 0.7493 0.6540 -0.1041
vn 0.7369 0.2484 0.6287
vn -0.1559 -0.1885 -0.9696
vn 0.4082 0.4030 -0.8192
vn 0.3520 0.4596 -0.8154
vn -0.1782 -0.9193 0.3509
vn -0.3918 -0.8022 -0.4506
vn 0.7369 0.2485 0.6287
vn 0.3519 0.4596 -0.8154
vn 0.7956 0.5926 -0.1255
vn -0.3918 -0.8021 -0.4506
vn -0.1558 -0.1885 -0.9696
vn 0.1939 0.9768 0.0912
vn 0.1822 0.5932 0.7841
vn -0.3311 0.9171 0.2223
vn -0.3382 0.6801 0.6504
vn -0.6621 0.1800 -0.7274
vn -0.8598 0.4248 -0.2833
vn -0.6833 -0.5112 0.5213
vn 0.1821 0.5932 0.7842
vn -0.4123 -0.7937 0.4473
vn -0.6336 -0.6724 -0.3828
vn 0.5355 0.4158 0.7351
vn 0.1080 -0.3094 0.9448
vn 0.1369 0.6345 -0.7607
vn 0.5483 0.8359 -0.0240
vn 0.1368 0.6346 -0.7607
vn 0.3520 0.4595 -0.8154
vn -0.6335 -0.6724 -0.3828
vn -0.3892 -0.0368 -0.9204
vn -0.6336 -0.6723 -0.3828
vn 0.1079 -0.3094 0.9448
vn 0.1368 0.6345 -0.7607
vn -0.3892 -0.0367 -0.9204
vt 0.543243 0.611839
vt 0.535370 0.618118
vt 0.537796 0.613083
vt 0.537796 0.623154
vt 0.547607 0.615326
vt 0.543243 0.624397
vt 0.547607 0.620918
vt 0.565384 0.671494
vt 0.570206 0.669548
vt 0.567856 0.672157
vt 0.564468 0.669609
vt 0.568146 0.666756
vt 0.564514 0.667854
vt 0.565857 0.666748
vt 0.562897 0.666855
vt 0.562302 0.669838
vt 0.559082 0.669685
vt 0.563492 0.673050
vt 0.560059 0.674789
vt 0.554092 0.669067
vt 0.554398 0.676537
vt 0.567307 0.675606
vt 0.564316 0.680244
vt 0.558044 0.684982
vt 0.575485 0.674767
vt 0.575272 0.686485
vt 0.565720 0.696274
vt 0.575485 0.658051
vt 0.568817 0.663902
vt 0.568115 0.659698
vt 0.574570 0.665543
vt 0.572052 0.651657
vt 0.565903 0.655174
vt 0.565063 0.664742
vt 0.563416 0.661980
vt 0.560669 0.658463
vt 0.560364 0.665283
vt 0.556488 0.662933
vt 0.552032 0.660286
vt 0.548294 0.668175
vt 0.563522 0.651588
vt 0.557617 0.654999
vt 0.551163 0.688484
vt 0.556610 0.699394
vt 0.547867 0.678001
vt 0.568756 0.648293
vt 0.604446 0.682632
vt 0.626221 0.687675
vt 0.604553 0.688225
vt 0.626144 0.682457
vt 0.604553 0.671455
vt 0.626144 0.677231
vt 0.604446 0.677048
vt 0.626221 0.672005
vt 0.605011 0.660294
vt 0.626404 0.666786
vt 0.604736 0.665871
vt 0.626663 0.661568
vt 0.626404 0.692902
vt 0.604736 0.693810
vt 0.626663 0.698120
vt 0.605011 0.699394
s 0
usemtl decorations
f 240/1/1 239/2/1 238/3/1
f 237/1/1 236/4/1 235/2/1
f 234/5/1 233/4/1 232/1/1
f 231/5/1 230/6/1 229/4/1
f 228/6/1 227/5/1 226/7/1
s 1
f 225/8/2 224/9/3 223/10/4
f 222/11/5 221/9/3 220/8/2
f 219/11/6 218/12/7 217/9/3
f 216/13/8 215/12/7 214/11/6
f 213/12/7 212/13/9 211/14/10
f 210/15/11 209/11/6 208/16/12
f 207/15/13 206/13/9 205/11/5
f 204/17/14 203/18/15 202/19/16
f 201/17/14 200/16/17 199/18/18
f 198/20/19 197/19/20 196/21/21
f 195/20/19 194/17/14 193/19/16
f 192/19/22 191/22/23 190/23/24
f 189/19/16 188/18/15 187/22/23
f 186/21/25 185/23/26 184/24/27
f 183/21/25 3/19/20 182/23/26
f 181/23/24 180/25/28 179/26/29
f 178/23/24 177/22/30 176/25/28
f 175/24/31 174/26/29 173/27/32
f 172/24/31 4/23/24 171/26/29
f 170/28/33 169/29/34 168/30/35
f 167/28/33 166/31/36 165/29/37
f 164/32/32 163/30/35 162/33/38
f 161/32/32 13/28/29 160/30/35
f 159/30/35 158/34/39 157/35/40
f 156/30/35 155/29/34 154/34/39
f 153/33/41 152/35/40 151/36/42
f 150/33/41 14/30/35 149/35/40
f 148/35/40 147/15/43 146/37/44
f 145/35/40 144/34/45 143/15/43
f 142/36/46 141/37/44 140/38/47
f 139/36/46 16/35/40 138/37/44
f 137/37/44 136/16/17 135/17/14
f 134/37/48 133/15/43 132/16/12
f 131/38/49 130/17/14 129/20/50
f 128/38/49 36/37/48 25/17/14
f 127/39/51 126/20/52 125/40/53
f 124/39/51 123/38/54 122/20/52
f 121/41/55 120/36/42 119/42/56
f 118/41/55 117/33/41 116/36/42
f 115/43/57 114/27/58 113/44/59
f 112/43/57 111/24/27 110/27/58
f 109/40/60 108/21/21 107/45/61
f 106/40/60 40/20/19 105/21/21
f 104/42/62 103/38/47 102/39/51
f 101/42/62 41/36/42 42/38/47
f 100/46/63 99/33/64 98/41/55
f 97/46/59 37/32/32 38/33/64
f 96/45/65 95/24/27 94/43/66
f 93/45/61 33/21/21 34/24/27
f 92/29/67 91/14/10 90/34/68
f 89/29/67 88/12/69 87/14/70
f 86/22/23 85/9/3 84/25/28
f 83/22/71 82/10/72 81/9/3
f 80/16/73 79/8/2 78/18/18
f 29/16/73 30/11/5 77/8/2
f 76/31/28 75/12/7 28/29/34
f 31/31/28 26/9/3 27/12/7
f 74/18/15 73/10/4 24/22/23
f 21/18/15 22/8/2 23/10/4
f 72/34/74 71/13/9 20/15/11
f 17/34/74 18/14/10 19/13/9
f 70/47/75 69/48/61 68/49/76
f 67/47/75 66/50/60 65/48/61
f 64/51/77 63/52/51 62/53/78
f 61/51/77 60/54/56 59/52/51
f 58/55/79 57/56/55 56/57/80
f 55/55/81 54/58/82 53/56/55
f 52/49/83 51/59/57 50/60/84
f 2/49/85 32/48/61 49/59/57
f 48/53/78 47/50/53 12/47/75
f 9/53/86 10/52/51 11/50/53
f 46/57/80 45/54/56 8/51/77
f 5/57/80 6/56/55 7/54/56
f 44/60/84 43/61/63 15/62/87
f 1/60/88 35/59/57 39/61/63
