# Blender 5.0.0
# www.blender.org
mtllib Circle_002_Circle_Dupli_19_decorations_0.mtl
o Circle.002|Circle|Dupli|19_decorations_0
v -4.302293 1.429850 0.555991
v -4.303650 1.429896 0.555619
v -4.302125 1.434571 0.549501
v -4.300189 1.434505 0.550032
v -4.302119 1.431696 0.557724
v -4.300986 1.435237 0.553719
v -4.302215 1.435706 0.553772
v -4.303434 1.432198 0.557780
v -4.304565 1.431779 0.557054
v -4.303273 1.435315 0.553092
v -4.303363 1.434357 0.552193
v -4.304662 1.430755 0.556092
v -4.299216 1.435647 0.551369
v -4.299941 1.437138 0.552505
v -4.301611 1.430651 0.556928
v -4.301816 1.437854 0.552584
v -4.301431 1.438486 0.551257
v -4.301116 1.438640 0.550127
v -4.301973 1.438323 0.549577
v -4.302745 1.438000 0.550414
v -4.301682 1.435815 0.548748
v -4.301280 1.436897 0.548490
v -4.300251 1.436862 0.548772
v -4.300107 1.435761 0.549180
v -4.303568 1.435796 0.550175
v -4.299735 1.437468 0.549482
v -4.300120 1.438260 0.550085
v -4.299905 1.437903 0.551192
v -4.302856 1.436811 0.549297
v -4.302046 1.437547 0.548848
v -4.299315 1.436691 0.550268
v -4.302418 1.433555 0.551751
v -4.302363 1.433805 0.550785
v -4.300687 1.433748 0.551244
v -4.301148 1.433512 0.552099
v -4.303431 1.437257 0.551548
v -4.299846 1.434736 0.552401
v -4.300473 1.436026 0.553385
v -4.300512 1.434260 0.552975
v -4.303612 1.434865 0.551369
v -4.302096 1.436646 0.553454
v -4.303493 1.436129 0.552557
v -4.300512 1.434260 0.552975
v -4.302293 1.429850 0.555991
v -4.302215 1.435706 0.553772
v -4.302119 1.431696 0.557724
v -4.303363 1.434357 0.552193
v -4.304565 1.431779 0.557054
v -4.301148 1.433512 0.552099
v -4.302293 1.429850 0.555991
v -4.301148 1.433512 0.552099
v -4.303650 1.429896 0.555619
v -4.300986 1.435237 0.553719
v -4.300512 1.434260 0.552975
v -4.301611 1.430651 0.556928
v -4.302119 1.431696 0.557724
v -4.300986 1.435237 0.553719
v -4.301611 1.430651 0.556928
v -4.303273 1.435315 0.553092
v -4.302215 1.435706 0.553772
v -4.303434 1.432198 0.557780
v -4.304565 1.431779 0.557054
v -4.303273 1.435315 0.553092
v -4.303434 1.432198 0.557780
v -4.302418 1.433555 0.551751
v -4.303363 1.434357 0.552193
v -4.304662 1.430755 0.556092
v -4.303650 1.429896 0.555619
v -4.302418 1.433555 0.551751
v -4.304662 1.430755 0.556092
v -4.301973 1.438323 0.549577
v -4.301431 1.438486 0.551257
v -4.300251 1.436862 0.548772
v -4.301682 1.435815 0.548748
v -4.300120 1.438260 0.550085
v -4.299315 1.436691 0.550268
v -4.301280 1.436897 0.548490
v -4.301682 1.435815 0.548748
v -4.301280 1.436897 0.548490
v -4.302856 1.436811 0.549297
v -4.299735 1.437468 0.549482
v -4.300251 1.436862 0.548772
v -4.300107 1.435761 0.549180
v -4.299315 1.436691 0.550268
v -4.299735 1.437468 0.549482
v -4.300107 1.435761 0.549180
v -4.301116 1.438640 0.550127
v -4.300120 1.438260 0.550085
v -4.299905 1.437903 0.551192
v -4.301431 1.438486 0.551257
v -4.301116 1.438640 0.550127
v -4.299905 1.437903 0.551192
v -4.302418 1.433555 0.551751
v -4.301148 1.433512 0.552099
v -4.300687 1.433748 0.551244
v -4.302418 1.433555 0.551751
v -4.300512 1.434260 0.552975
v -4.300986 1.435237 0.553719
v -4.300473 1.436026 0.553385
v -4.300512 1.434260 0.552975
v -4.302215 1.435706 0.553772
v -4.303273 1.435315 0.553092
v -4.303493 1.436129 0.552557
v -4.302215 1.435706 0.553772
v -4.302363 1.433805 0.550785
v -4.303363 1.434357 0.552193
v -4.302418 1.433555 0.551751
v -4.302363 1.433805 0.550785
v -4.303363 1.434357 0.552193
v -4.299846 1.434736 0.552401
v -4.300687 1.433748 0.551244
v -4.301148 1.433512 0.552099
v -4.300512 1.434260 0.552975
v -4.299846 1.434736 0.552401
v -4.301148 1.433512 0.552099
v -4.302096 1.436646 0.553454
v -4.300473 1.436026 0.553385
v -4.300986 1.435237 0.553719
v -4.302215 1.435706 0.553772
v -4.302096 1.436646 0.553454
v -4.300986 1.435237 0.553719
v -4.303612 1.434865 0.551369
v -4.303493 1.436129 0.552557
v -4.303273 1.435315 0.553092
v -4.303363 1.434357 0.552193
v -4.303612 1.434865 0.551369
v -4.303273 1.435315 0.553092
v -4.303493 1.436129 0.552557
v -4.303612 1.434865 0.551369
v -4.303568 1.435796 0.550175
v -4.303493 1.436129 0.552557
v -4.302856 1.436811 0.549297
v -4.302745 1.438000 0.550414
v -4.303431 1.437257 0.551548
v -4.303568 1.435796 0.550175
v -4.302856 1.436811 0.549297
v -4.303431 1.437257 0.551548
v -4.303431 1.437257 0.551548
v -4.302096 1.436646 0.553454
v -4.303493 1.436129 0.552557
v -4.303431 1.437257 0.551548
v -4.302096 1.436646 0.553454
v -4.302745 1.438000 0.550414
v -4.301431 1.438486 0.551257
v -4.301816 1.437854 0.552584
v -4.303431 1.437257 0.551548
v -4.302745 1.438000 0.550414
v -4.301816 1.437854 0.552584
v -4.301816 1.437854 0.552584
v -4.300473 1.436026 0.553385
v -4.302096 1.436646 0.553454
v -4.301816 1.437854 0.552584
v -4.300473 1.436026 0.553385
v -4.301431 1.438486 0.551257
v -4.299905 1.437903 0.551192
v -4.299941 1.437138 0.552505
v -4.301816 1.437854 0.552584
v -4.301431 1.438486 0.551257
v -4.299941 1.437138 0.552505
v -4.299941 1.437138 0.552505
v -4.299846 1.434736 0.552401
v -4.300473 1.436026 0.553385
v -4.299941 1.437138 0.552505
v -4.299846 1.434736 0.552401
v -4.299905 1.437903 0.551192
v -4.299315 1.436691 0.550268
v -4.299216 1.435647 0.551369
v -4.299941 1.437138 0.552505
v -4.299905 1.437903 0.551192
v -4.299216 1.435647 0.551369
v -4.299216 1.435647 0.551369
v -4.300687 1.433748 0.551244
v -4.299846 1.434736 0.552401
v -4.299216 1.435647 0.551369
v -4.300687 1.433748 0.551244
v -4.299315 1.436691 0.550268
v -4.300107 1.435761 0.549180
v -4.300189 1.434505 0.550032
v -4.299216 1.435647 0.551369
v -4.299315 1.436691 0.550268
v -4.300189 1.434505 0.550032
v -4.300189 1.434505 0.550032
v -4.302363 1.433805 0.550785
v -4.300687 1.433748 0.551244
v -4.300189 1.434505 0.550032
v -4.302363 1.433805 0.550785
v -4.300107 1.435761 0.549180
v -4.301682 1.435815 0.548748
v -4.302125 1.434571 0.549501
v -4.300189 1.434505 0.550032
v -4.300107 1.435761 0.549180
v -4.302125 1.434571 0.549501
v -4.302125 1.434571 0.549501
v -4.303568 1.435796 0.550175
v -4.303612 1.434865 0.551369
v -4.302363 1.433805 0.550785
v -4.302125 1.434571 0.549501
v -4.303612 1.434865 0.551369
v -4.301682 1.435815 0.548748
v -4.302856 1.436811 0.549297
v -4.303568 1.435796 0.550175
v -4.302125 1.434571 0.549501
v -4.301682 1.435815 0.548748
v -4.303568 1.435796 0.550175
v -4.302046 1.437547 0.548848
v -4.301973 1.438323 0.549577
v -4.302745 1.438000 0.550414
v -4.302856 1.436811 0.549297
v -4.302046 1.437547 0.548848
v -4.302745 1.438000 0.550414
v -4.301116 1.438640 0.550127
v -4.301973 1.438323 0.549577
v -4.300120 1.438260 0.550085
v -4.302046 1.437547 0.548848
v -4.300120 1.438260 0.550085
v -4.301973 1.438323 0.549577
v -4.299735 1.437468 0.549482
v -4.300120 1.438260 0.550085
v -4.302046 1.437547 0.548848
v -4.301280 1.436897 0.548490
v -4.299735 1.437468 0.549482
v -4.302046 1.437547 0.548848
v -4.300251 1.436862 0.548772
v -4.299735 1.437468 0.549482
v -4.301280 1.436897 0.548490
v -4.303434 1.432198 0.557780
v -4.302119 1.431696 0.557724
v -4.304565 1.431779 0.557054
v -4.304662 1.430755 0.556092
v -4.304565 1.431779 0.557054
v -4.302119 1.431696 0.557724
v -4.301611 1.430651 0.556928
v -4.304662 1.430755 0.556092
v -4.302119 1.431696 0.557724
v -4.303650 1.429896 0.555619
v -4.304662 1.430755 0.556092
v -4.301611 1.430651 0.556928
v -4.302293 1.429850 0.555991
v -4.303650 1.429896 0.555619
v -4.301611 1.430651 0.556928
vn -0.2201 -0.6568 0.7213
vn 0.0222 0.1676 -0.9856
vn 0.7305 0.4298 -0.5307
vn 0.4938 0.1516 -0.8563
vn -0.3293 0.4659 -0.8213
vn 0.0221 0.1677 -0.9856
vn 0.5540 0.7928 -0.2540
vn -0.2958 0.8217 -0.4871
vn 0.5541 0.7928 -0.2540
vn -0.2959 0.8217 -0.4871
vn 0.0973 0.9672 -0.2346
vn -0.6835 0.7203 -0.1186
vn -0.7376 0.1443 -0.6597
vn -0.8974 -0.1107 -0.4271
vn -0.1687 -0.3386 -0.9257
vn -0.2747 -0.6392 -0.7183
vn -0.7376 0.1442 -0.6597
vn -0.9275 -0.3493 -0.1333
vn -0.2746 -0.6392 -0.7183
vn -0.3408 -0.8471 -0.4077
vn 0.5949 -0.3646 -0.7164
vn 0.5612 -0.6677 -0.4892
vn -0.3408 -0.8472 -0.4076
vn 0.5611 -0.6677 -0.4892
vn 0.4465 -0.8740 -0.1918
vn 0.5612 -0.6677 -0.4891
vn 0.9782 0.0857 -0.1892
vn 0.9807 -0.1747 0.0878
vn 0.5949 -0.3646 -0.7163
vn 0.9782 0.0858 -0.1893
vn 0.4465 -0.8740 -0.1917
vn 0.9807 -0.1747 0.0879
vn 0.8418 -0.4095 0.3518
vn 0.6925 0.6734 0.2587
vn 0.6680 0.4686 0.5781
vn 0.9782 0.0858 -0.1892
vn 0.6925 0.6734 0.2586
vn 0.8417 -0.4095 0.3518
vn 0.6680 0.4685 0.5781
vn 0.5472 0.1965 0.8136
vn 0.6681 0.4686 0.5781
vn -0.0469 0.9558 0.2901
vn -0.1415 0.7777 0.6125
vn 0.5472 0.1964 0.8137
vn -0.2154 0.4877 0.8460
vn -0.6834 0.7203 -0.1186
vn -0.8381 0.5199 0.1652
vn -0.0470 0.9558 0.2901
vn -0.6834 0.7204 -0.1186
vn -0.2154 0.4876 0.8461
vn -0.8716 0.2449 0.4246
vn -0.8382 0.5198 0.1651
vn -0.7376 0.1442 -0.6596
vn -0.8381 0.5199 0.1651
vn -0.8717 0.2448 0.4246
vn -0.9275 -0.3492 -0.1334
vn -0.8752 0.3067 0.3742
vn -0.9324 -0.3025 -0.1979
vn 0.5797 0.2571 0.7732
vn -0.2153 0.4877 0.8461
vn -0.2022 0.5557 0.8064
vn 0.4766 -0.8405 -0.2578
vn 0.8418 -0.4095 0.3517
vn 0.8818 -0.3643 0.2996
vn 0.4466 -0.8740 -0.1918
vn -0.9324 -0.3024 -0.1979
vn -0.3409 -0.8471 -0.4077
vn -0.3309 -0.8130 -0.4791
vn -0.8716 0.2448 0.4246
vn -0.8751 0.3067 0.3743
vn 0.8818 -0.3642 0.2996
vn 0.5472 0.1964 0.8136
vn -0.3308 -0.8130 -0.4792
vn 0.4766 -0.8405 -0.2577
vn 0.6925 0.6735 0.2587
vn 0.5540 0.7928 -0.2541
vn 0.0972 0.9672 -0.2346
vn 0.4937 0.1516 -0.8563
vn 0.0222 0.1677 -0.9856
vn -0.1687 -0.3387 -0.9257
vn -0.9019 -0.1229 -0.4140
vn -0.3309 -0.8130 -0.4792
vn -0.2789 -0.6517 -0.7053
vn -0.9324 -0.3024 -0.1978
vn -0.1457 0.7659 0.6262
vn -0.8426 0.5080 0.1786
vn -0.1457 0.7660 0.6261
vn 0.9771 -0.1869 0.1013
vn 0.6643 0.4566 0.5917
vn 0.9772 -0.1869 0.1012
vn -0.2788 -0.6517 -0.7053
vn 0.5573 -0.6802 -0.4761
vn -0.2788 -0.6517 -0.7054
vn 0.4765 -0.8405 -0.2578
vn -0.8426 0.5080 0.1785
vn 0.6643 0.4566 0.5918
vn -0.1456 0.7660 0.6262
vn 0.6643 0.4567 0.5917
vn 0.5574 -0.6802 -0.4761
vn 0.8818 -0.3643 0.2995
vn 0.9771 -0.1869 0.1012
vt 0.543243 0.611839
vt 0.535370 0.618118
vt 0.537796 0.613083
vt 0.537796 0.623154
vt 0.547607 0.615326
vt 0.543243 0.624397
vt 0.547607 0.620918
vt 0.565384 0.671494
vt 0.570206 0.669548
vt 0.567856 0.672157
vt 0.564468 0.669609
vt 0.568146 0.666756
vt 0.564514 0.667854
vt 0.565857 0.666748
vt 0.562897 0.666855
vt 0.562302 0.669838
vt 0.559082 0.669685
vt 0.563492 0.673050
vt 0.560059 0.674789
vt 0.554092 0.669067
vt 0.554398 0.676537
vt 0.567307 0.675606
vt 0.564316 0.680244
vt 0.558044 0.684982
vt 0.575485 0.674767
vt 0.575272 0.686485
vt 0.565720 0.696274
vt 0.575485 0.658051
vt 0.568817 0.663902
vt 0.568115 0.659698
vt 0.574570 0.665543
vt 0.572052 0.651657
vt 0.565903 0.655174
vt 0.565063 0.664742
vt 0.563416 0.661980
vt 0.560669 0.658463
vt 0.560364 0.665283
vt 0.556488 0.662933
vt 0.552032 0.660286
vt 0.548294 0.668175
vt 0.563522 0.651588
vt 0.557617 0.654999
vt 0.551163 0.688484
vt 0.556610 0.699394
vt 0.547867 0.678001
vt 0.568756 0.648293
vt 0.604446 0.682632
vt 0.626221 0.687675
vt 0.604553 0.688225
vt 0.626144 0.682457
vt 0.604553 0.671455
vt 0.626144 0.677231
vt 0.604446 0.677048
vt 0.626221 0.672005
vt 0.605011 0.660294
vt 0.626404 0.666786
vt 0.604736 0.665871
vt 0.626663 0.661568
vt 0.626404 0.692902
vt 0.604736 0.693810
vt 0.626663 0.698120
vt 0.605011 0.699394
s 0
usemtl decorations
f 240/1/1 239/2/1 238/3/1
f 237/1/1 236/4/1 235/2/1
f 234/5/1 233/4/1 232/1/1
f 231/5/1 230/6/1 229/4/1
f 228/6/1 227/5/1 226/7/1
s 1
f 225/8/2 224/9/3 223/10/4
f 222/11/5 221/9/3 220/8/6
f 219/11/5 218/12/7 217/9/3
f 216/13/8 215/12/9 214/11/5
f 213/12/7 212/13/10 211/14/11
f 210/15/12 209/11/5 208/16/13
f 207/15/12 206/13/8 205/11/5
f 204/17/14 203/18/15 202/19/16
f 201/17/14 200/16/17 199/18/15
f 198/20/18 197/19/19 196/21/20
f 195/20/18 194/17/14 193/19/16
f 192/19/16 191/22/21 190/23/22
f 189/19/16 188/18/15 187/22/21
f 186/21/23 185/23/24 184/24/25
f 183/21/23 3/19/16 182/23/24
f 181/23/26 180/25/27 179/26/28
f 178/23/22 177/22/29 176/25/30
f 175/24/31 174/26/32 173/27/33
f 172/24/31 4/23/26 171/26/32
f 170/28/32 169/29/34 168/30/35
f 167/28/32 166/31/36 165/29/37
f 164/32/38 163/30/39 162/33/40
f 161/32/38 13/28/32 160/30/41
f 159/30/35 158/34/42 157/35/43
f 156/30/35 155/29/34 154/34/42
f 153/33/44 152/35/43 151/36/45
f 150/33/44 14/30/35 149/35/43
f 148/35/43 147/15/46 146/37/47
f 145/35/43 144/34/48 143/15/49
f 142/36/50 141/37/47 140/38/51
f 139/36/50 16/35/43 138/37/47
f 137/37/52 136/16/53 135/17/14
f 134/37/54 133/15/46 132/16/13
f 131/38/55 130/17/14 129/20/56
f 128/38/55 36/37/47 25/17/14
f 127/39/57 126/20/56 125/40/58
f 124/39/57 123/38/55 122/20/56
f 121/41/59 120/36/60 119/42/61
f 118/41/59 117/33/44 116/36/60
f 115/43/62 114/27/63 113/44/64
f 112/43/62 111/24/65 110/27/63
f 109/40/66 108/21/67 107/45/68
f 106/40/66 40/20/18 105/21/67
f 104/42/61 103/38/69 102/39/70
f 101/42/61 41/36/45 42/38/69
f 100/46/71 99/33/72 98/41/59
f 97/46/64 37/32/33 38/33/72
f 96/45/73 95/24/25 94/43/74
f 93/45/73 33/21/20 34/24/25
f 92/29/75 91/14/11 90/34/42
f 89/29/34 88/12/76 87/14/77
f 86/22/29 85/9/3 84/25/30
f 83/22/29 82/10/78 81/9/3
f 80/16/17 79/8/79 78/18/15
f 29/16/17 30/11/5 77/8/6
f 76/31/36 75/12/7 28/29/34
f 31/31/36 26/9/3 27/12/76
f 74/18/15 73/10/4 24/22/29
f 21/18/80 22/8/6 23/10/4
f 72/34/48 71/13/8 20/15/46
f 17/34/48 18/14/11 19/13/8
f 70/47/81 69/48/82 68/49/83
f 67/47/81 66/50/84 65/48/82
f 64/51/85 63/52/57 62/53/86
f 61/51/87 60/54/61 59/52/70
f 58/55/88 57/56/59 56/57/89
f 55/55/90 54/58/64 53/56/59
f 52/49/91 51/59/62 50/60/92
f 2/49/93 32/48/68 49/59/94
f 48/53/86 47/50/58 12/47/81
f 9/53/95 10/52/57 11/50/58
f 46/57/96 45/54/61 8/51/97
f 5/57/98 6/56/59 7/54/61
f 44/60/99 43/61/100 15/62/101
f 1/60/99 35/59/94 39/61/100
