# Blender 5.0.0
# www.blender.org
mtllib Circle_002_Circle_004_Dupli_88_decorations_0.mtl
o Circle.002|Circle.004|Dupli|88_decorations_0
v -4.608800 1.834931 0.599440
v -4.608747 1.833757 0.598665
v -4.605754 1.837596 0.592508
v -4.605829 1.839272 0.593614
v -4.611175 1.835745 0.599072
v -4.609440 1.838586 0.594737
v -4.609940 1.837676 0.593927
v -4.611709 1.834772 0.598205
v -4.611081 1.833629 0.597674
v -4.609352 1.836608 0.593431
v -4.608119 1.836185 0.593622
v -4.609763 1.833177 0.597879
v -4.607371 1.840534 0.593872
v -4.609218 1.840433 0.593088
v -4.609880 1.835816 0.599621
v -4.609980 1.839045 0.591852
v -4.609124 1.839764 0.590822
v -4.608201 1.840199 0.590225
v -4.607724 1.839333 0.589822
v -4.608394 1.838437 0.590205
v -4.605686 1.838585 0.591355
v -4.605957 1.839430 0.590573
v -4.605996 1.840319 0.591161
v -4.605747 1.839948 0.592256
v -4.607203 1.836770 0.591386
v -4.606815 1.840990 0.591298
v -4.607796 1.840936 0.590881
v -4.608504 1.840893 0.591828
v -4.606864 1.837912 0.590443
v -4.606725 1.838991 0.589977
v -4.607001 1.840976 0.592466
v -4.607171 1.836727 0.594357
v -4.606479 1.836956 0.593673
v -4.606544 1.838406 0.594631
v -4.607220 1.837825 0.595082
v -4.609083 1.837414 0.591094
v -4.607878 1.839499 0.594854
v -4.609477 1.839412 0.594176
v -4.608230 1.838652 0.595251
v -4.607732 1.836241 0.592702
v -4.610136 1.838210 0.593105
v -4.609360 1.836799 0.592450
v -4.608230 1.838652 0.595251
v -4.608800 1.834931 0.599440
v -4.609940 1.837676 0.593927
v -4.611175 1.835745 0.599072
v -4.608119 1.836185 0.593622
v -4.611081 1.833629 0.597674
v -4.607220 1.837825 0.595082
v -4.608800 1.834931 0.599440
v -4.607220 1.837825 0.595082
v -4.608747 1.833757 0.598665
v -4.609440 1.838586 0.594737
v -4.608230 1.838652 0.595251
v -4.609880 1.835816 0.599621
v -4.611175 1.835745 0.599072
v -4.609440 1.838586 0.594737
v -4.609880 1.835816 0.599621
v -4.609352 1.836608 0.593431
v -4.609940 1.837676 0.593927
v -4.611709 1.834772 0.598205
v -4.611081 1.833629 0.597674
v -4.609352 1.836608 0.593431
v -4.611709 1.834772 0.598205
v -4.607171 1.836727 0.594357
v -4.608119 1.836185 0.593622
v -4.609763 1.833177 0.597879
v -4.608747 1.833757 0.598665
v -4.607171 1.836727 0.594357
v -4.609763 1.833177 0.597879
v -4.607724 1.839333 0.589822
v -4.609124 1.839764 0.590822
v -4.605996 1.840319 0.591161
v -4.605686 1.838585 0.591355
v -4.607796 1.840936 0.590881
v -4.607001 1.840976 0.592466
v -4.605957 1.839430 0.590573
v -4.605686 1.838585 0.591355
v -4.605957 1.839430 0.590573
v -4.606864 1.837912 0.590443
v -4.606815 1.840990 0.591298
v -4.605996 1.840319 0.591161
v -4.605747 1.839948 0.592256
v -4.607001 1.840976 0.592466
v -4.606815 1.840990 0.591298
v -4.605747 1.839948 0.592256
v -4.608201 1.840199 0.590225
v -4.607796 1.840936 0.590881
v -4.608504 1.840893 0.591828
v -4.609124 1.839764 0.590822
v -4.608201 1.840199 0.590225
v -4.608504 1.840893 0.591828
v -4.607171 1.836727 0.594357
v -4.607220 1.837825 0.595082
v -4.606544 1.838406 0.594631
v -4.607171 1.836727 0.594357
v -4.608230 1.838652 0.595251
v -4.609440 1.838586 0.594737
v -4.609477 1.839412 0.594176
v -4.608230 1.838652 0.595251
v -4.609940 1.837676 0.593927
v -4.609352 1.836608 0.593431
v -4.609360 1.836799 0.592450
v -4.609940 1.837676 0.593927
v -4.606479 1.836956 0.593673
v -4.608119 1.836185 0.593622
v -4.607171 1.836727 0.594357
v -4.606479 1.836956 0.593673
v -4.608119 1.836185 0.593622
v -4.607878 1.839499 0.594854
v -4.606544 1.838406 0.594631
v -4.607220 1.837825 0.595082
v -4.608230 1.838652 0.595251
v -4.607878 1.839499 0.594854
v -4.607220 1.837825 0.595082
v -4.610136 1.838210 0.593105
v -4.609477 1.839412 0.594176
v -4.609440 1.838586 0.594737
v -4.609940 1.837676 0.593927
v -4.610136 1.838210 0.593105
v -4.609440 1.838586 0.594737
v -4.607732 1.836241 0.592702
v -4.609360 1.836799 0.592450
v -4.609352 1.836608 0.593431
v -4.608119 1.836185 0.593622
v -4.607732 1.836241 0.592702
v -4.609352 1.836608 0.593431
v -4.609360 1.836799 0.592450
v -4.607732 1.836241 0.592702
v -4.607203 1.836770 0.591386
v -4.609360 1.836799 0.592450
v -4.606864 1.837912 0.590443
v -4.608394 1.838437 0.590205
v -4.609083 1.837414 0.591094
v -4.607203 1.836770 0.591386
v -4.606864 1.837912 0.590443
v -4.609083 1.837414 0.591094
v -4.609083 1.837414 0.591094
v -4.610136 1.838210 0.593105
v -4.609360 1.836799 0.592450
v -4.609083 1.837414 0.591094
v -4.610136 1.838210 0.593105
v -4.608394 1.838437 0.590205
v -4.609124 1.839764 0.590822
v -4.609980 1.839045 0.591852
v -4.609083 1.837414 0.591094
v -4.608394 1.838437 0.590205
v -4.609980 1.839045 0.591852
v -4.609980 1.839045 0.591852
v -4.609477 1.839412 0.594176
v -4.610136 1.838210 0.593105
v -4.609980 1.839045 0.591852
v -4.609477 1.839412 0.594176
v -4.609124 1.839764 0.590822
v -4.608504 1.840893 0.591828
v -4.609218 1.840433 0.593088
v -4.609980 1.839045 0.591852
v -4.609124 1.839764 0.590822
v -4.609218 1.840433 0.593088
v -4.609218 1.840433 0.593088
v -4.607878 1.839499 0.594854
v -4.609477 1.839412 0.594176
v -4.609218 1.840433 0.593088
v -4.607878 1.839499 0.594854
v -4.608504 1.840893 0.591828
v -4.607001 1.840976 0.592466
v -4.607371 1.840534 0.593872
v -4.609218 1.840433 0.593088
v -4.608504 1.840893 0.591828
v -4.607371 1.840534 0.593872
v -4.607371 1.840534 0.593872
v -4.606544 1.838406 0.594631
v -4.607878 1.839499 0.594854
v -4.607371 1.840534 0.593872
v -4.606544 1.838406 0.594631
v -4.607001 1.840976 0.592466
v -4.605747 1.839948 0.592256
v -4.605829 1.839272 0.593614
v -4.607371 1.840534 0.593872
v -4.607001 1.840976 0.592466
v -4.605829 1.839272 0.593614
v -4.605829 1.839272 0.593614
v -4.606479 1.836956 0.593673
v -4.606544 1.838406 0.594631
v -4.605829 1.839272 0.593614
v -4.606479 1.836956 0.593673
v -4.605747 1.839948 0.592256
v -4.605686 1.838585 0.591355
v -4.605754 1.837596 0.592508
v -4.605829 1.839272 0.593614
v -4.605747 1.839948 0.592256
v -4.605754 1.837596 0.592508
v -4.605754 1.837596 0.592508
v -4.607203 1.836770 0.591386
v -4.607732 1.836241 0.592702
v -4.606479 1.836956 0.593673
v -4.605754 1.837596 0.592508
v -4.607732 1.836241 0.592702
v -4.605686 1.838585 0.591355
v -4.606864 1.837912 0.590443
v -4.607203 1.836770 0.591386
v -4.605754 1.837596 0.592508
v -4.605686 1.838585 0.591355
v -4.607203 1.836770 0.591386
v -4.606725 1.838991 0.589977
v -4.607724 1.839333 0.589822
v -4.608394 1.838437 0.590205
v -4.606864 1.837912 0.590443
v -4.606725 1.838991 0.589977
v -4.608394 1.838437 0.590205
v -4.608201 1.840199 0.590225
v -4.607724 1.839333 0.589822
v -4.607796 1.840936 0.590881
v -4.606725 1.838991 0.589977
v -4.607796 1.840936 0.590881
v -4.607724 1.839333 0.589822
v -4.606815 1.840990 0.591298
v -4.607796 1.840936 0.590881
v -4.606725 1.838991 0.589977
v -4.605957 1.839430 0.590573
v -4.606815 1.840990 0.591298
v -4.606725 1.838991 0.589977
v -4.605996 1.840319 0.591161
v -4.606815 1.840990 0.591298
v -4.605957 1.839430 0.590573
v -4.611709 1.834772 0.598205
v -4.611175 1.835745 0.599072
v -4.611081 1.833629 0.597674
v -4.609763 1.833177 0.597879
v -4.611081 1.833629 0.597674
v -4.611175 1.835745 0.599072
v -4.609880 1.835816 0.599621
v -4.609763 1.833177 0.597879
v -4.611175 1.835745 0.599072
v -4.608747 1.833757 0.598665
v -4.609763 1.833177 0.597879
v -4.609880 1.835816 0.599621
v -4.608800 1.834931 0.599440
v -4.608747 1.833757 0.598665
v -4.609880 1.835816 0.599621
vn -0.3055 -0.5342 0.7882
vn 0.7448 0.1666 -0.6461
vn 0.3511 0.8822 -0.3138
vn 0.7266 0.5746 -0.3767
vn 0.3921 -0.0347 -0.9193
vn 0.3512 0.8822 -0.3138
vn 0.7448 0.1666 -0.6462
vn 0.3922 -0.0347 -0.9192
vn -0.0987 0.8576 -0.5048
vn -0.0658 0.1223 -0.9903
vn -0.0657 0.1223 -0.9903
vn -0.2842 0.5194 -0.8059
vn -0.3903 -0.2982 -0.8711
vn 0.3511 -0.5523 -0.7561
vn -0.0658 0.1224 -0.9903
vn 0.2594 -0.8231 -0.5052
vn 0.9220 -0.2265 -0.3139
vn 0.8843 -0.4664 -0.0213
vn 0.3512 -0.5524 -0.7560
vn 0.9220 -0.2265 -0.3140
vn 0.1305 -0.9746 -0.1819
vn 0.8843 -0.4663 -0.0213
vn 0.7192 -0.6386 0.2739
vn 0.8844 -0.4663 -0.0213
vn 0.8925 0.4341 0.1223
vn 0.8520 0.2567 0.4562
vn 0.7192 -0.6385 0.2740
vn 0.8521 0.2567 0.4562
vn 0.6887 0.0426 0.7238
vn 0.2848 0.9320 0.2242
vn 0.1868 0.8017 0.5678
vn 0.0620 0.5560 0.8288
vn 0.8520 0.2568 0.4562
vn 0.1867 0.8017 0.5678
vn -0.4435 0.8922 -0.0850
vn -0.6104 0.7582 0.2293
vn -0.4435 0.8923 -0.0850
vn 0.0620 0.5560 0.8289
vn -0.6889 0.5151 0.5100
vn -0.6103 0.7582 0.2293
vn -0.7439 0.3448 -0.5725
vn -0.9392 0.1589 -0.3043
vn -0.6890 0.5150 0.5100
vn -0.9987 -0.0495 0.0073
vn -0.3903 -0.2981 -0.8711
vn -0.5521 -0.5448 -0.6312
vn -0.9987 -0.0496 0.0074
vn -0.6341 -0.7124 -0.3006
vn -0.5521 -0.5448 -0.6311
vn 0.3511 -0.5524 -0.7560
vn 0.2595 -0.8231 -0.5052
vn -0.6341 -0.7125 -0.3005
vn 0.1305 -0.9746 -0.1820
vn -0.6242 -0.6853 -0.3750
vn 0.1597 -0.9541 -0.2533
vn -0.6243 -0.6853 -0.3750
vn -0.6341 -0.7125 -0.3006
vn -0.6806 0.5734 0.4561
vn -0.9987 -0.0495 0.0074
vn -0.9982 -0.0055 -0.0592
vn -0.6806 0.5734 0.4562
vn -0.6889 0.5150 0.5101
vn 0.7321 0.0890 0.6754
vn 0.0621 0.5560 0.8288
vn 0.0895 0.6154 0.7831
vn 0.1597 -0.9541 -0.2534
vn 0.7633 -0.6095 0.2141
vn 0.1304 -0.9746 -0.1819
vn -0.9982 -0.0055 -0.0593
vn -0.6889 0.5150 0.5100
vn 0.7192 -0.6386 0.2740
vn -0.4436 0.8922 -0.0850
vn -0.0986 0.8576 -0.5048
vn -0.2843 0.5194 -0.8059
vn 0.8925 0.4342 0.1223
vn 0.2848 0.9320 0.2241
vn 0.2539 -0.8334 -0.4909
vn 0.8792 -0.4765 -0.0067
vn 0.2540 -0.8334 -0.4909
vn -0.9454 0.1491 -0.2899
vn -0.5581 -0.5549 -0.6169
vn 0.1812 0.7923 0.5826
vn -0.6163 0.7487 0.2440
vn 0.7321 0.0890 0.6753
vn 0.8468 0.2470 0.4710
vn 0.8792 -0.4764 -0.0067
vn -0.5581 -0.5550 -0.6169
vn -0.5580 -0.5550 -0.6169
vt 0.530319 0.635056
vt 0.522446 0.641335
vt 0.524872 0.636299
vt 0.524872 0.646370
vt 0.534683 0.638535
vt 0.530319 0.647614
vt 0.534683 0.644127
vt 0.508789 0.671494
vt 0.513626 0.669548
vt 0.511276 0.672157
vt 0.507889 0.669609
vt 0.511566 0.666756
vt 0.507935 0.667854
vt 0.509277 0.666748
vt 0.506302 0.666855
vt 0.505722 0.669838
vt 0.502487 0.669685
vt 0.506897 0.673050
vt 0.503479 0.674789
vt 0.497520 0.669067
vt 0.497810 0.676537
vt 0.510727 0.675606
vt 0.507721 0.680244
vt 0.501465 0.684982
vt 0.518890 0.674767
vt 0.518692 0.686485
vt 0.509125 0.696274
vt 0.518890 0.658051
vt 0.512238 0.663902
vt 0.511536 0.659698
vt 0.517990 0.665543
vt 0.515472 0.651657
vt 0.509323 0.655174
vt 0.508469 0.664742
vt 0.506836 0.661980
vt 0.504074 0.658463
vt 0.503784 0.665283
vt 0.499901 0.662933
vt 0.495453 0.660286
vt 0.491707 0.668175
vt 0.506927 0.651588
vt 0.501038 0.654999
vt 0.494583 0.688484
vt 0.500031 0.699394
vt 0.491287 0.678001
vt 0.512177 0.648293
vt 0.627350 0.642853
vt 0.649124 0.647896
vt 0.627441 0.648445
vt 0.649033 0.642670
vt 0.627441 0.631676
vt 0.649033 0.637444
vt 0.627350 0.637268
vt 0.649124 0.632225
vt 0.627914 0.620506
vt 0.649292 0.626999
vt 0.627625 0.626091
vt 0.649551 0.621780
vt 0.649292 0.653114
vt 0.627625 0.654030
vt 0.649551 0.658333
vt 0.627914 0.659607
s 0
usemtl decorations
f 240/1/1 239/2/1 238/3/1
f 237/1/1 236/4/1 235/2/1
f 234/5/1 233/4/1 232/1/1
f 231/5/1 230/6/1 229/4/1
f 228/6/1 227/5/1 226/7/1
s 1
f 225/8/2 224/9/3 223/10/4
f 222/11/5 221/9/6 220/8/7
f 219/11/8 218/12/9 217/9/3
f 216/13/10 215/12/9 214/11/8
f 213/12/9 212/13/11 211/14/12
f 210/15/13 209/11/8 208/16/14
f 207/15/13 206/13/15 205/11/8
f 204/17/16 203/18/17 202/19/18
f 201/17/16 200/16/19 199/18/20
f 198/20/21 197/19/22 196/21/23
f 195/20/21 194/17/16 193/19/24
f 192/19/18 191/22/25 190/23/26
f 189/19/18 188/18/17 187/22/25
f 186/21/27 185/23/28 184/24/29
f 183/21/27 3/19/22 182/23/28
f 181/23/26 180/25/30 179/26/31
f 178/23/26 177/22/25 176/25/30
f 175/24/29 174/26/31 173/27/32
f 172/24/29 4/23/33 171/26/31
f 170/28/34 169/29/35 168/30/36
f 167/28/34 166/31/30 165/29/37
f 164/32/38 163/30/36 162/33/39
f 161/32/38 13/28/31 160/30/40
f 159/30/36 158/34/41 157/35/42
f 156/30/36 155/29/35 154/34/41
f 153/33/43 152/35/42 151/36/44
f 150/33/43 14/30/36 149/35/42
f 148/35/42 147/15/45 146/37/46
f 145/35/42 144/34/41 143/15/45
f 142/36/47 141/37/46 140/38/48
f 139/36/47 16/35/42 138/37/46
f 137/37/49 136/16/50 135/17/51
f 134/37/46 133/15/13 132/16/14
f 131/38/52 130/17/51 129/20/53
f 128/38/52 36/37/46 25/17/51
f 127/39/54 126/20/53 125/40/55
f 124/39/56 123/38/57 122/20/53
f 121/41/58 120/36/59 119/42/60
f 118/41/61 117/33/62 116/36/59
f 115/43/63 114/27/64 113/44/65
f 112/43/63 111/24/29 110/27/64
f 109/40/66 108/21/23 107/45/67
f 106/40/66 40/20/68 105/21/23
f 104/42/69 103/38/48 102/39/56
f 101/42/69 41/36/59 42/38/48
f 100/46/65 99/33/70 98/41/61
f 97/46/65 37/32/32 38/33/70
f 96/45/67 95/24/29 94/43/63
f 93/45/67 33/21/71 34/24/29
f 92/29/35 91/14/12 90/34/41
f 89/29/72 88/12/73 87/14/74
f 86/22/75 85/9/6 84/25/30
f 83/22/75 82/10/4 81/9/6
f 80/16/19 79/8/7 78/18/20
f 29/16/19 30/11/5 77/8/7
f 76/31/76 75/12/9 28/29/37
f 31/31/30 26/9/6 27/12/73
f 74/18/17 73/10/4 24/22/25
f 21/18/17 22/8/7 23/10/4
f 72/34/41 71/13/10 20/15/45
f 17/34/41 18/14/12 19/13/15
f 70/47/77 69/48/67 68/49/78
f 67/47/79 66/50/66 65/48/67
f 64/51/80 63/52/56 62/53/81
f 61/51/80 60/54/69 59/52/56
f 58/55/82 57/56/58 56/57/83
f 55/55/82 54/58/65 53/56/61
f 52/49/78 51/59/84 50/60/85
f 2/49/86 32/48/67 49/59/63
f 48/53/87 47/50/66 12/47/77
f 9/53/88 10/52/56 11/50/66
f 46/57/83 45/54/69 8/51/80
f 5/57/83 6/56/58 7/54/60
f 44/60/85 43/61/65 15/62/82
f 1/60/85 35/59/63 39/61/65
