# Blender 5.0.0
# www.blender.org
mtllib Circle_002_Circle_003_Dupli_277_decorations_0.mtl
o Circle.002|Circle.003|Dupli|277_decorations_0
v -4.406867 1.626654 0.819822
v -4.405486 1.626902 0.819945
v -4.406266 1.629297 0.827378
v -4.408237 1.628944 0.827204
v -4.407739 1.628809 0.818806
v -4.408457 1.630798 0.823845
v -4.407367 1.631527 0.823724
v -4.406573 1.629589 0.818677
v -4.405251 1.629256 0.819026
v -4.406131 1.631215 0.824050
v -4.405678 1.630097 0.824578
v -4.404767 1.628059 0.819590
v -4.409667 1.630155 0.826481
v -4.409481 1.632019 0.825753
v -4.407869 1.627503 0.819316
v -4.407818 1.633132 0.825569
v -4.407978 1.633281 0.827073
v -4.408040 1.633052 0.828232
v -4.407037 1.632799 0.828497
v -4.406442 1.632894 0.827478
v -4.406715 1.630161 0.828545
v -4.407215 1.631016 0.829193
v -4.408261 1.630828 0.829100
v -4.408319 1.629874 0.828403
v -4.405240 1.630949 0.826872
v -4.409021 1.631471 0.828716
v -4.408923 1.632461 0.828330
v -4.409331 1.632376 0.827223
v -4.405880 1.631505 0.828133
v -4.406670 1.631893 0.828924
v -4.409482 1.630859 0.827815
v -4.406351 1.629015 0.824909
v -4.406216 1.628977 0.825899
v -4.407921 1.628672 0.825748
v -4.407641 1.628784 0.824795
v -4.405931 1.632656 0.826067
v -4.409160 1.629720 0.825122
v -4.408998 1.631333 0.824493
v -4.408579 1.629577 0.824321
v -4.405327 1.630407 0.825461
v -4.407559 1.632296 0.824333
v -4.405925 1.631884 0.824764
v -4.408579 1.629577 0.824321
v -4.406867 1.626654 0.819822
v -4.407367 1.631527 0.823724
v -4.407739 1.628809 0.818806
v -4.405678 1.630097 0.824578
v -4.405251 1.629256 0.819026
v -4.407641 1.628784 0.824795
v -4.406867 1.626654 0.819822
v -4.407641 1.628784 0.824795
v -4.405486 1.626902 0.819945
v -4.408457 1.630798 0.823845
v -4.408579 1.629577 0.824321
v -4.407869 1.627503 0.819316
v -4.407739 1.628809 0.818806
v -4.408457 1.630798 0.823845
v -4.407869 1.627503 0.819316
v -4.406131 1.631215 0.824050
v -4.407367 1.631527 0.823724
v -4.406573 1.629589 0.818677
v -4.405251 1.629256 0.819026
v -4.406131 1.631215 0.824050
v -4.406573 1.629589 0.818677
v -4.406351 1.629015 0.824909
v -4.405678 1.630097 0.824578
v -4.404767 1.628059 0.819590
v -4.405486 1.626902 0.819945
v -4.406351 1.629015 0.824909
v -4.404767 1.628059 0.819590
v -4.407037 1.632799 0.828497
v -4.407978 1.633281 0.827073
v -4.408261 1.630828 0.829100
v -4.406715 1.630161 0.828545
v -4.408923 1.632461 0.828330
v -4.409482 1.630859 0.827815
v -4.407215 1.631016 0.829193
v -4.406715 1.630161 0.828545
v -4.407215 1.631016 0.829193
v -4.405880 1.631505 0.828133
v -4.409021 1.631471 0.828716
v -4.408261 1.630828 0.829100
v -4.408319 1.629874 0.828403
v -4.409482 1.630859 0.827815
v -4.409021 1.631471 0.828716
v -4.408319 1.629874 0.828403
v -4.408040 1.633052 0.828232
v -4.408923 1.632461 0.828330
v -4.409331 1.632376 0.827223
v -4.407978 1.633281 0.827073
v -4.408040 1.633052 0.828232
v -4.409331 1.632376 0.827223
v -4.406351 1.629015 0.824909
v -4.407641 1.628784 0.824795
v -4.407921 1.628672 0.825748
v -4.406351 1.629015 0.824909
v -4.408579 1.629577 0.824321
v -4.408457 1.630798 0.823845
v -4.408998 1.631333 0.824493
v -4.408579 1.629577 0.824321
v -4.407367 1.631527 0.823724
v -4.406131 1.631215 0.824050
v -4.405925 1.631884 0.824764
v -4.407367 1.631527 0.823724
v -4.406216 1.628977 0.825899
v -4.405678 1.630097 0.824578
v -4.406351 1.629015 0.824909
v -4.406216 1.628977 0.825899
v -4.405678 1.630097 0.824578
v -4.409160 1.629720 0.825122
v -4.407921 1.628672 0.825748
v -4.407641 1.628784 0.824795
v -4.408579 1.629577 0.824321
v -4.409160 1.629720 0.825122
v -4.407641 1.628784 0.824795
v -4.407559 1.632296 0.824333
v -4.408998 1.631333 0.824493
v -4.408457 1.630798 0.823845
v -4.407367 1.631527 0.823724
v -4.407559 1.632296 0.824333
v -4.408457 1.630798 0.823845
v -4.405327 1.630407 0.825461
v -4.405925 1.631884 0.824764
v -4.406131 1.631215 0.824050
v -4.405678 1.630097 0.824578
v -4.405327 1.630407 0.825461
v -4.406131 1.631215 0.824050
v -4.405925 1.631884 0.824764
v -4.405327 1.630407 0.825461
v -4.405240 1.630949 0.826872
v -4.405925 1.631884 0.824764
v -4.405880 1.631505 0.828133
v -4.406442 1.632894 0.827478
v -4.405931 1.632656 0.826067
v -4.405240 1.630949 0.826872
v -4.405880 1.631505 0.828133
v -4.405931 1.632656 0.826067
v -4.405931 1.632656 0.826067
v -4.407559 1.632296 0.824333
v -4.405925 1.631884 0.824764
v -4.405931 1.632656 0.826067
v -4.407559 1.632296 0.824333
v -4.406442 1.632894 0.827478
v -4.407978 1.633281 0.827073
v -4.407818 1.633132 0.825569
v -4.405931 1.632656 0.826067
v -4.406442 1.632894 0.827478
v -4.407818 1.633132 0.825569
v -4.407818 1.633132 0.825569
v -4.408998 1.631333 0.824493
v -4.407559 1.632296 0.824333
v -4.407818 1.633132 0.825569
v -4.408998 1.631333 0.824493
v -4.407978 1.633281 0.827073
v -4.409331 1.632376 0.827223
v -4.409481 1.632019 0.825753
v -4.407818 1.633132 0.825569
v -4.407978 1.633281 0.827073
v -4.409481 1.632019 0.825753
v -4.409481 1.632019 0.825753
v -4.409160 1.629720 0.825122
v -4.408998 1.631333 0.824493
v -4.409481 1.632019 0.825753
v -4.409160 1.629720 0.825122
v -4.409331 1.632376 0.827223
v -4.409482 1.630859 0.827815
v -4.409667 1.630155 0.826481
v -4.409481 1.632019 0.825753
v -4.409331 1.632376 0.827223
v -4.409667 1.630155 0.826481
v -4.409667 1.630155 0.826481
v -4.407921 1.628672 0.825748
v -4.409160 1.629720 0.825122
v -4.409667 1.630155 0.826481
v -4.407921 1.628672 0.825748
v -4.409482 1.630859 0.827815
v -4.408319 1.629874 0.828403
v -4.408237 1.628944 0.827204
v -4.409667 1.630155 0.826481
v -4.409482 1.630859 0.827815
v -4.408237 1.628944 0.827204
v -4.408237 1.628944 0.827204
v -4.406216 1.628977 0.825899
v -4.407921 1.628672 0.825748
v -4.408237 1.628944 0.827204
v -4.406216 1.628977 0.825899
v -4.408319 1.629874 0.828403
v -4.406715 1.630161 0.828545
v -4.406266 1.629297 0.827378
v -4.408237 1.628944 0.827204
v -4.408319 1.629874 0.828403
v -4.406266 1.629297 0.827378
v -4.406266 1.629297 0.827378
v -4.405240 1.630949 0.826872
v -4.405327 1.630407 0.825461
v -4.406216 1.628977 0.825899
v -4.406266 1.629297 0.827378
v -4.405327 1.630407 0.825461
v -4.406715 1.630161 0.828545
v -4.405880 1.631505 0.828133
v -4.405240 1.630949 0.826872
v -4.406266 1.629297 0.827378
v -4.406715 1.630161 0.828545
v -4.405240 1.630949 0.826872
v -4.406670 1.631893 0.828924
v -4.407037 1.632799 0.828497
v -4.406442 1.632894 0.827478
v -4.405880 1.631505 0.828133
v -4.406670 1.631893 0.828924
v -4.406442 1.632894 0.827478
v -4.408040 1.633052 0.828232
v -4.407037 1.632799 0.828497
v -4.408923 1.632461 0.828330
v -4.406670 1.631893 0.828924
v -4.408923 1.632461 0.828330
v -4.407037 1.632799 0.828497
v -4.409021 1.631471 0.828716
v -4.408923 1.632461 0.828330
v -4.406670 1.631893 0.828924
v -4.407215 1.631016 0.829193
v -4.409021 1.631471 0.828716
v -4.406670 1.631893 0.828924
v -4.408261 1.630828 0.829100
v -4.409021 1.631471 0.828716
v -4.407215 1.631016 0.829193
v -4.406573 1.629589 0.818677
v -4.407739 1.628809 0.818806
v -4.405251 1.629256 0.819026
v -4.404767 1.628059 0.819590
v -4.405251 1.629256 0.819026
v -4.407739 1.628809 0.818806
v -4.407869 1.627503 0.819316
v -4.404767 1.628059 0.819590
v -4.407739 1.628809 0.818806
v -4.405486 1.626902 0.819945
v -4.404767 1.628059 0.819590
v -4.407869 1.627503 0.819316
v -4.406867 1.626654 0.819822
v -4.405486 1.626902 0.819945
v -4.407869 1.627503 0.819316
vn 0.1478 -0.3724 -0.9162
vn 0.1833 -0.1124 0.9766
vn -0.6450 0.0966 0.7581
vn -0.2965 -0.1984 0.9342
vn 0.4332 0.2899 0.8534
vn -0.6450 0.0965 0.7581
vn 0.4332 0.2898 0.8534
vn -0.5996 0.5504 0.5809
vn 0.2650 0.7054 0.6574
vn -0.5997 0.5504 0.5809
vn -0.1947 0.8214 0.5361
vn 0.5663 0.7961 0.2132
vn 0.8386 0.1234 0.5306
vn 0.2649 0.7054 0.6574
vn 0.9784 -0.0173 0.2061
vn 0.4341 -0.5279 0.7300
vn 0.5356 -0.7301 0.4244
vn 0.9784 -0.0172 0.2061
vn 0.8386 0.1233 0.5306
vn 0.4341 -0.5278 0.7301
vn 0.9768 -0.1552 -0.1476
vn 0.5355 -0.7301 0.4244
vn 0.5596 -0.8267 0.0581
vn 0.5355 -0.7301 0.4245
vn -0.3428 -0.6672 0.6614
vn -0.3148 -0.8826 0.3492
vn 0.4340 -0.5279 0.7300
vn 0.5596 -0.8267 0.0580
vn -0.3147 -0.8826 0.3493
vn -0.2414 -0.9703 -0.0127
vn -0.9069 -0.1896 0.3762
vn -0.9323 -0.3598 0.0371
vn -0.3428 -0.6672 0.6613
vn -0.9069 -0.1896 0.3763
vn -0.2414 -0.9703 -0.0128
vn -0.8231 -0.4779 -0.3067
vn -0.8336 0.5452 0.0894
vn -0.8520 0.4444 -0.2768
vn -0.8335 0.5452 0.0895
vn -0.8231 -0.4779 -0.3068
vn -0.7475 0.2798 -0.6025
vn -0.8520 0.4445 -0.2768
vn -0.1780 0.9839 0.0169
vn -0.1343 0.9247 -0.3562
vn -0.8335 0.5452 0.0894
vn -0.7474 0.2798 -0.6025
vn -0.0714 0.7322 -0.6773
vn -0.1342 0.9247 -0.3563
vn 0.5663 0.7962 0.2132
vn 0.6803 0.7192 -0.1413
vn -0.1343 0.9247 -0.3563
vn -0.1779 0.9839 0.0168
vn 0.5662 0.7962 0.2132
vn -0.0713 0.7322 -0.6773
vn 0.6959 0.5387 -0.4748
vn 0.6960 0.5386 -0.4749
vn 0.9768 -0.1551 -0.1476
vn 0.7012 0.5839 -0.4092
vn 0.9891 -0.1275 -0.0737
vn 0.7012 0.5839 -0.4093
vn -0.7790 0.3185 -0.5401
vn -0.0857 0.7824 -0.6169
vn -0.7790 0.3185 -0.5402
vn -0.2601 -0.9634 0.0646
vn -0.8566 -0.4585 -0.2369
vn 0.9891 -0.1275 -0.0736
vn 0.5613 -0.8161 0.1372
vn 0.6960 0.5387 -0.4749
vn 0.7011 0.5839 -0.4093
vn -0.8231 -0.4778 -0.3068
vn -0.2601 -0.9634 0.0645
vn -0.1779 0.9839 0.0169
vn -0.1946 0.8214 0.5361
vn -0.3428 -0.6671 0.6614
vn -0.2965 -0.1985 0.9342
vn 0.9816 -0.0242 0.1893
vn 0.5386 -0.7374 0.4077
vn -0.1316 0.9183 -0.3734
vn 0.7011 0.5839 -0.4092
vn 0.6833 0.7127 -0.1583
vn -0.1316 0.9183 -0.3733
vn -0.9301 -0.3669 0.0202
vn -0.8497 0.4378 -0.2939
vn -0.8565 -0.4585 -0.2369
vn 0.5385 -0.7374 0.4077
vn -0.3121 -0.8900 0.3325
vn -0.2600 -0.9634 0.0646
vn 0.6834 0.7127 -0.1583
vn 0.9816 -0.0241 0.1893
vn -0.3122 -0.8900 0.3325
vn -0.8566 -0.4585 -0.2368
vn -0.9300 -0.3669 0.0202
vn -0.3122 -0.8899 0.3325
vt 0.530319 0.611839
vt 0.522446 0.618118
vt 0.524872 0.613083
vt 0.524872 0.623154
vt 0.534683 0.615326
vt 0.530319 0.624397
vt 0.534683 0.620918
vt 0.537079 0.671494
vt 0.541916 0.669548
vt 0.539566 0.672157
vt 0.536179 0.669609
vt 0.539856 0.666756
vt 0.536224 0.667854
vt 0.537567 0.666748
vt 0.534592 0.666855
vt 0.534012 0.669838
vt 0.530777 0.669685
vt 0.535187 0.673050
vt 0.531769 0.674789
vt 0.525803 0.669067
vt 0.526108 0.676537
vt 0.539017 0.675606
vt 0.536011 0.680244
vt 0.529755 0.684982
vt 0.547180 0.674767
vt 0.546982 0.686485
vt 0.537415 0.696274
vt 0.547180 0.658051
vt 0.540527 0.663902
vt 0.539825 0.659698
vt 0.546280 0.665543
vt 0.543762 0.651657
vt 0.537613 0.655174
vt 0.536758 0.664742
vt 0.535126 0.661980
vt 0.532364 0.658463
vt 0.532074 0.665283
vt 0.528198 0.662933
vt 0.523743 0.660286
vt 0.519989 0.668175
vt 0.535217 0.651588
vt 0.529327 0.654999
vt 0.522873 0.688484
vt 0.528320 0.699394
vt 0.519577 0.678001
vt 0.540466 0.648293
vt 0.604446 0.642853
vt 0.626221 0.647896
vt 0.604553 0.648445
vt 0.626144 0.642670
vt 0.604553 0.631676
vt 0.626144 0.637444
vt 0.604446 0.637268
vt 0.626221 0.632225
vt 0.605011 0.620506
vt 0.626404 0.626999
vt 0.604736 0.626091
vt 0.626663 0.621780
vt 0.626404 0.653114
vt 0.604736 0.654030
vt 0.626663 0.658333
vt 0.605011 0.659607
s 0
usemtl decorations
f 240/1/1 239/2/1 238/3/1
f 237/1/1 236/4/1 235/2/1
f 234/5/1 233/4/1 232/1/1
f 231/5/1 230/6/1 229/4/1
f 228/6/1 227/5/1 226/7/1
s 1
f 225/8/2 224/9/3 223/10/4
f 222/11/5 221/9/6 220/8/2
f 219/11/7 218/12/8 217/9/3
f 216/13/9 215/12/10 214/11/7
f 213/12/8 212/13/9 211/14/11
f 210/15/12 209/11/7 208/16/13
f 207/15/12 206/13/14 205/11/5
f 204/17/15 203/18/16 202/19/17
f 201/17/18 200/16/19 199/18/20
f 198/20/21 197/19/22 196/21/23
f 195/20/21 194/17/18 193/19/24
f 192/19/17 191/22/25 190/23/26
f 189/19/17 188/18/27 187/22/25
f 186/21/28 185/23/29 184/24/30
f 183/21/23 3/19/22 182/23/29
f 181/23/26 180/25/31 179/26/32
f 178/23/26 177/22/33 176/25/34
f 175/24/35 174/26/32 173/27/36
f 172/24/35 4/23/26 171/26/32
f 170/28/32 169/29/37 168/30/38
f 167/28/32 166/31/31 165/29/39
f 164/32/40 163/30/38 162/33/41
f 161/32/40 13/28/32 160/30/38
f 159/30/42 158/34/43 157/35/44
f 156/30/42 155/29/45 154/34/43
f 153/33/46 152/35/44 151/36/47
f 150/33/46 14/30/42 149/35/44
f 148/35/48 147/15/49 146/37/50
f 145/35/51 144/34/52 143/15/53
f 142/36/54 141/37/50 140/38/55
f 139/36/54 16/35/44 138/37/50
f 137/37/50 136/16/13 135/17/15
f 134/37/50 133/15/49 132/16/13
f 131/38/56 130/17/15 129/20/57
f 128/38/56 36/37/50 25/17/15
f 127/39/58 126/20/57 125/40/59
f 124/39/60 123/38/56 122/20/57
f 121/41/61 120/36/47 119/42/62
f 118/41/63 117/33/46 116/36/47
f 115/43/64 114/27/36 113/44/65
f 112/43/64 111/24/35 110/27/36
f 109/40/66 108/21/23 107/45/67
f 106/40/59 40/20/21 105/21/23
f 104/42/62 103/38/68 102/39/69
f 101/42/62 41/36/47 42/38/68
f 100/46/65 99/33/41 98/41/63
f 97/46/65 37/32/70 38/33/41
f 96/45/67 95/24/30 94/43/71
f 93/45/67 33/21/23 34/24/30
f 92/29/45 91/14/11 90/34/72
f 89/29/45 88/12/8 87/14/73
f 86/22/74 85/9/3 84/25/34
f 83/22/25 82/10/75 81/9/3
f 80/16/19 79/8/2 78/18/16
f 29/16/19 30/11/5 77/8/2
f 76/31/34 75/12/8 28/29/39
f 31/31/34 26/9/3 27/12/8
f 74/18/27 73/10/75 24/22/25
f 21/18/27 22/8/2 23/10/4
f 72/34/72 71/13/9 20/15/49
f 17/34/72 18/14/11 19/13/14
f 70/47/76 69/48/67 68/49/77
f 67/47/76 66/50/59 65/48/67
f 64/51/78 63/52/79 62/53/80
f 61/51/81 60/54/62 59/52/69
f 58/55/82 57/56/63 56/57/83
f 55/55/82 54/58/84 53/56/63
f 52/49/85 51/59/64 50/60/86
f 2/49/85 32/48/67 49/59/87
f 48/53/88 47/50/66 12/47/89
f 9/53/88 10/52/69 11/50/59
f 46/57/83 45/54/62 8/51/78
f 5/57/83 6/56/63 7/54/62
f 44/60/90 43/61/91 15/62/92
f 1/60/93 35/59/64 39/61/65
