# Blender 5.0.0
# www.blender.org
mtllib Circle_002_Circle_004_Dupli_144_decorations_0.mtl
o Circle.002|Circle.004|Dupli|144_decorations_0
v -4.621556 1.199332 0.445612
v -4.620369 1.198648 0.445284
v -4.620080 1.201939 0.438164
v -4.621773 1.202915 0.438632
v -4.623361 1.197655 0.445004
v -4.623465 1.199725 0.439947
v -4.622772 1.198698 0.439501
v -4.622620 1.196556 0.444526
v -4.621222 1.196422 0.444413
v -4.621466 1.198572 0.439396
v -4.620529 1.199442 0.439711
v -4.620221 1.197353 0.444751
v -4.623672 1.202285 0.438453
v -4.624348 1.200522 0.437764
v -4.622887 1.198890 0.445487
v -4.623291 1.198955 0.437083
v -4.623115 1.199844 0.435863
v -4.622801 1.200732 0.435146
v -4.621742 1.200630 0.435061
v -4.621493 1.199688 0.435732
v -4.620502 1.202272 0.436743
v -4.621096 1.202316 0.435721
v -4.621995 1.202835 0.435969
v -4.621880 1.203067 0.437123
v -4.619868 1.200091 0.437404
v -4.623003 1.202500 0.435874
v -4.623363 1.201564 0.435508
v -4.623975 1.201120 0.436417
v -4.620330 1.200769 0.436124
v -4.620984 1.201335 0.435317
v -4.623425 1.202554 0.436978
v -4.620668 1.200653 0.440209
v -4.620288 1.201225 0.439483
v -4.621753 1.202070 0.439888
v -4.621777 1.201293 0.440516
v -4.621297 1.198764 0.436922
v -4.623397 1.201524 0.439734
v -4.623982 1.199999 0.439137
v -4.623022 1.200879 0.440399
v -4.620105 1.199626 0.438825
v -4.623067 1.198643 0.438547
v -4.621342 1.198477 0.438408
v -4.623022 1.200879 0.440399
v -4.621556 1.199332 0.445612
v -4.622772 1.198698 0.439501
v -4.623361 1.197655 0.445004
v -4.620529 1.199442 0.439711
v -4.621222 1.196422 0.444413
v -4.621777 1.201293 0.440516
v -4.621556 1.199332 0.445612
v -4.621777 1.201293 0.440516
v -4.620369 1.198648 0.445284
v -4.623465 1.199725 0.439947
v -4.623022 1.200879 0.440399
v -4.622887 1.198890 0.445487
v -4.623361 1.197655 0.445004
v -4.623465 1.199725 0.439947
v -4.622887 1.198890 0.445487
v -4.621466 1.198572 0.439396
v -4.622772 1.198698 0.439501
v -4.622620 1.196556 0.444526
v -4.621222 1.196422 0.444413
v -4.621466 1.198572 0.439396
v -4.622620 1.196556 0.444526
v -4.620668 1.200653 0.440209
v -4.620529 1.199442 0.439711
v -4.620221 1.197353 0.444751
v -4.620369 1.198648 0.445284
v -4.620668 1.200653 0.440209
v -4.620221 1.197353 0.444751
v -4.621742 1.200630 0.435061
v -4.623115 1.199844 0.435863
v -4.621995 1.202835 0.435969
v -4.620502 1.202272 0.436743
v -4.623363 1.201564 0.435508
v -4.623425 1.202554 0.436978
v -4.621096 1.202316 0.435721
v -4.620502 1.202272 0.436743
v -4.621096 1.202316 0.435721
v -4.620330 1.200769 0.436124
v -4.623003 1.202500 0.435874
v -4.621995 1.202835 0.435969
v -4.621880 1.203067 0.437123
v -4.623425 1.202554 0.436978
v -4.623003 1.202500 0.435874
v -4.621880 1.203067 0.437123
v -4.622801 1.200732 0.435146
v -4.623363 1.201564 0.435508
v -4.623975 1.201120 0.436417
v -4.623115 1.199844 0.435863
v -4.622801 1.200732 0.435146
v -4.623975 1.201120 0.436417
v -4.620668 1.200653 0.440209
v -4.621777 1.201293 0.440516
v -4.621753 1.202070 0.439888
v -4.620668 1.200653 0.440209
v -4.623022 1.200879 0.440399
v -4.623465 1.199725 0.439947
v -4.623982 1.199999 0.439137
v -4.623022 1.200879 0.440399
v -4.622772 1.198698 0.439501
v -4.621466 1.198572 0.439396
v -4.621342 1.198477 0.438408
v -4.622772 1.198698 0.439501
v -4.620288 1.201225 0.439483
v -4.620529 1.199442 0.439711
v -4.620668 1.200653 0.440209
v -4.620288 1.201225 0.439483
v -4.620529 1.199442 0.439711
v -4.623397 1.201524 0.439734
v -4.621753 1.202070 0.439888
v -4.621777 1.201293 0.440516
v -4.623022 1.200879 0.440399
v -4.623397 1.201524 0.439734
v -4.621777 1.201293 0.440516
v -4.623067 1.198643 0.438547
v -4.623982 1.199999 0.439137
v -4.623465 1.199725 0.439947
v -4.622772 1.198698 0.439501
v -4.623067 1.198643 0.438547
v -4.623465 1.199725 0.439947
v -4.620105 1.199626 0.438825
v -4.621342 1.198477 0.438408
v -4.621466 1.198572 0.439396
v -4.620529 1.199442 0.439711
v -4.620105 1.199626 0.438825
v -4.621466 1.198572 0.439396
v -4.621342 1.198477 0.438408
v -4.620105 1.199626 0.438825
v -4.619868 1.200091 0.437404
v -4.621342 1.198477 0.438408
v -4.620330 1.200769 0.436124
v -4.621493 1.199688 0.435732
v -4.621297 1.198764 0.436922
v -4.619868 1.200091 0.437404
v -4.620330 1.200769 0.436124
v -4.621297 1.198764 0.436922
v -4.621297 1.198764 0.436922
v -4.623067 1.198643 0.438547
v -4.621342 1.198477 0.438408
v -4.621297 1.198764 0.436922
v -4.623067 1.198643 0.438547
v -4.621493 1.199688 0.435732
v -4.623115 1.199844 0.435863
v -4.623291 1.198955 0.437083
v -4.621297 1.198764 0.436922
v -4.621493 1.199688 0.435732
v -4.623291 1.198955 0.437083
v -4.623291 1.198955 0.437083
v -4.623982 1.199999 0.439137
v -4.623067 1.198643 0.438547
v -4.623291 1.198955 0.437083
v -4.623982 1.199999 0.439137
v -4.623115 1.199844 0.435863
v -4.623975 1.201120 0.436417
v -4.624348 1.200522 0.437764
v -4.623291 1.198955 0.437083
v -4.623115 1.199844 0.435863
v -4.624348 1.200522 0.437764
v -4.624348 1.200522 0.437764
v -4.623397 1.201524 0.439734
v -4.623982 1.199999 0.439137
v -4.624348 1.200522 0.437764
v -4.623397 1.201524 0.439734
v -4.623975 1.201120 0.436417
v -4.623425 1.202554 0.436978
v -4.623672 1.202285 0.438453
v -4.624348 1.200522 0.437764
v -4.623975 1.201120 0.436417
v -4.623672 1.202285 0.438453
v -4.623672 1.202285 0.438453
v -4.621753 1.202070 0.439888
v -4.623397 1.201524 0.439734
v -4.623672 1.202285 0.438453
v -4.621753 1.202070 0.439888
v -4.623425 1.202554 0.436978
v -4.621880 1.203067 0.437123
v -4.621773 1.202915 0.438632
v -4.623672 1.202285 0.438453
v -4.623425 1.202554 0.436978
v -4.621773 1.202915 0.438632
v -4.621773 1.202915 0.438632
v -4.620288 1.201225 0.439483
v -4.621753 1.202070 0.439888
v -4.621773 1.202915 0.438632
v -4.620288 1.201225 0.439483
v -4.621880 1.203067 0.437123
v -4.620502 1.202272 0.436743
v -4.620080 1.201939 0.438164
v -4.621773 1.202915 0.438632
v -4.621880 1.203067 0.437123
v -4.620080 1.201939 0.438164
v -4.620080 1.201939 0.438164
v -4.619868 1.200091 0.437404
v -4.620105 1.199626 0.438825
v -4.620288 1.201225 0.439483
v -4.620080 1.201939 0.438164
v -4.620105 1.199626 0.438825
v -4.620502 1.202272 0.436743
v -4.620330 1.200769 0.436124
v -4.619868 1.200091 0.437404
v -4.620080 1.201939 0.438164
v -4.620502 1.202272 0.436743
v -4.619868 1.200091 0.437404
v -4.620984 1.201335 0.435317
v -4.621742 1.200630 0.435061
v -4.621493 1.199688 0.435732
v -4.620330 1.200769 0.436124
v -4.620984 1.201335 0.435317
v -4.621493 1.199688 0.435732
v -4.622801 1.200732 0.435146
v -4.621742 1.200630 0.435061
v -4.623363 1.201564 0.435508
v -4.620984 1.201335 0.435317
v -4.623363 1.201564 0.435508
v -4.621742 1.200630 0.435061
v -4.623003 1.202500 0.435874
v -4.623363 1.201564 0.435508
v -4.620984 1.201335 0.435317
v -4.621096 1.202316 0.435721
v -4.623003 1.202500 0.435874
v -4.620984 1.201335 0.435317
v -4.621995 1.202835 0.435969
v -4.623003 1.202500 0.435874
v -4.621096 1.202316 0.435721
v -4.622620 1.196556 0.444526
v -4.623361 1.197655 0.445004
v -4.621222 1.196422 0.444413
v -4.620221 1.197353 0.444751
v -4.621222 1.196422 0.444413
v -4.623361 1.197655 0.445004
v -4.622887 1.198890 0.445487
v -4.620221 1.197353 0.444751
v -4.623361 1.197655 0.445004
v -4.620369 1.198648 0.445284
v -4.620221 1.197353 0.444751
v -4.622887 1.198890 0.445487
v -4.621556 1.199332 0.445612
v -4.620369 1.198648 0.445284
v -4.622887 1.198890 0.445487
vn 0.0383 -0.3767 0.9255
vn 0.4475 0.5930 -0.6694
vn -0.4274 0.6771 -0.5990
vn 0.0352 0.8307 -0.5557
vn 0.4990 0.1430 -0.8547
vn 0.4475 0.5929 -0.6695
vn -0.5919 0.2480 -0.7669
vn 0.1510 -0.1804 -0.9719
vn -0.5919 0.2479 -0.7669
vn -0.3345 -0.1337 -0.9329
vn 0.2800 -0.6419 -0.7138
vn 0.8434 -0.1184 -0.5241
vn 0.1510 -0.1803 -0.9720
vn 0.9389 -0.2837 -0.1951
vn 0.7600 0.6100 -0.2241
vn 0.8476 0.5137 0.1332
vn 0.9389 -0.2837 -0.1952
vn 0.8434 -0.1184 -0.5240
vn 0.8987 -0.4077 0.1614
vn 0.8127 0.3435 0.4707
vn 0.8476 0.5137 0.1331
vn 0.0926 0.9949 -0.0399
vn 0.1170 0.9350 0.3348
vn 0.7600 0.6101 -0.2241
vn 0.1245 0.7403 0.6606
vn -0.6564 0.7464 -0.1100
vn -0.7028 0.6629 0.2580
vn 0.0925 0.9949 -0.0398
vn -0.6563 0.7464 -0.1101
vn 0.1244 0.7403 0.6607
vn -0.6478 0.4840 0.5883
vn 0.1169 0.9350 0.3348
vn -0.7029 0.6629 0.2580
vn -0.9228 0.0516 -0.3818
vn -0.9944 -0.0976 -0.0395
vn -0.6564 0.7463 -0.1101
vn -0.9228 0.0516 -0.3819
vn -0.6479 0.4839 0.5883
vn -0.9944 -0.0976 -0.0394
vn -0.9226 -0.2324 0.3080
vn -0.9944 -0.0975 -0.0395
vn -0.5061 -0.5662 -0.6506
vn -0.5383 -0.7739 -0.3336
vn -0.9228 0.0515 -0.3818
vn -0.9225 -0.2325 0.3081
vn -0.4928 -0.8696 0.0309
vn -0.5383 -0.7740 -0.3336
vn 0.2799 -0.6420 -0.7138
vn 0.3221 -0.8567 -0.4029
vn -0.5061 -0.5663 -0.6505
vn 0.2799 -0.6419 -0.7139
vn -0.4928 -0.8696 0.0310
vn 0.3177 -0.9476 -0.0343
vn 0.3221 -0.8567 -0.4028
vn 0.3226 -0.9397 -0.1136
vn 0.9183 -0.3862 0.0871
vn -0.9492 -0.2064 0.2374
vn -0.4929 -0.8696 0.0309
vn -0.5086 -0.8597 -0.0467
vn 0.1243 0.7910 0.5990
vn -0.6675 0.5282 0.5248
vn 0.1244 0.7910 0.5990
vn 0.9183 -0.3861 0.0870
vn 0.8127 0.3434 0.4707
vn 0.8301 0.3841 0.4042
vn 0.9183 -0.3862 0.0870
vn 0.8987 -0.4078 0.1614
vn 0.3225 -0.9397 -0.1136
vn -0.6675 0.5282 0.5247
vn -0.9225 -0.2324 0.3081
vn -0.9492 -0.2065 0.2374
vn -0.6479 0.4840 0.5883
vn -0.3345 -0.1336 -0.9329
vn -0.5061 -0.5663 -0.6506
vn 0.0925 0.9949 -0.0399
vn -0.6564 0.7464 -0.1101
vn 0.0353 0.8307 -0.5556
vn 0.4475 0.5930 -0.6695
vn 0.8435 -0.1184 -0.5240
vn 0.4990 0.1429 -0.8547
vn 0.0352 0.8307 -0.5556
vn -0.5060 -0.5663 -0.6506
vn 0.9401 -0.2908 -0.1781
vn 0.8487 0.5070 0.1504
vn 0.9401 -0.2907 -0.1781
vn -0.5378 -0.7813 -0.3167
vn 0.3229 -0.8641 -0.3860
vn -0.7025 0.6563 0.2753
vn -0.9943 -0.1046 -0.0224
vn -0.7025 0.6563 0.2752
vn 0.1244 0.7911 0.5990
vn 0.1178 0.9285 0.3521
vn 0.8487 0.5071 0.1504
vn 0.3230 -0.8641 -0.3859
vn 0.3230 -0.8641 -0.3860
vn -0.5379 -0.7813 -0.3167
vn 0.1177 0.9285 0.3522
vn 0.1177 0.9285 0.3521
vt 0.530319 0.635056
vt 0.522446 0.641335
vt 0.524872 0.636299
vt 0.524872 0.646370
vt 0.534683 0.638535
vt 0.530319 0.647614
vt 0.534683 0.644127
vt 0.508789 0.671494
vt 0.513626 0.669548
vt 0.511276 0.672157
vt 0.507889 0.669609
vt 0.511566 0.666756
vt 0.507935 0.667854
vt 0.509277 0.666748
vt 0.506302 0.666855
vt 0.505722 0.669838
vt 0.502487 0.669685
vt 0.506897 0.673050
vt 0.503479 0.674789
vt 0.497520 0.669067
vt 0.497810 0.676537
vt 0.510727 0.675606
vt 0.507721 0.680244
vt 0.501465 0.684982
vt 0.518890 0.674767
vt 0.518692 0.686485
vt 0.509125 0.696274
vt 0.518890 0.658051
vt 0.512238 0.663902
vt 0.511536 0.659698
vt 0.517990 0.665543
vt 0.515472 0.651657
vt 0.509323 0.655174
vt 0.508469 0.664742
vt 0.506836 0.661980
vt 0.504074 0.658463
vt 0.503784 0.665283
vt 0.499901 0.662933
vt 0.495453 0.660286
vt 0.491707 0.668175
vt 0.506927 0.651588
vt 0.501038 0.654999
vt 0.494583 0.688484
vt 0.500031 0.699394
vt 0.491287 0.678001
vt 0.512177 0.648293
vt 0.627350 0.642853
vt 0.649124 0.647896
vt 0.627441 0.648445
vt 0.649033 0.642670
vt 0.627441 0.631676
vt 0.649033 0.637444
vt 0.627350 0.637268
vt 0.649124 0.632225
vt 0.627914 0.620506
vt 0.649292 0.626999
vt 0.627625 0.626091
vt 0.649551 0.621780
vt 0.649292 0.653114
vt 0.627625 0.654030
vt 0.649551 0.658333
vt 0.627914 0.659607
s 0
usemtl decorations
f 240/1/1 239/2/1 238/3/1
f 237/1/1 236/4/1 235/2/1
f 234/5/1 233/4/1 232/1/1
f 231/5/1 230/6/1 229/4/1
f 228/6/1 227/5/1 226/7/1
s 1
f 225/8/2 224/9/3 223/10/4
f 222/11/5 221/9/3 220/8/6
f 219/11/5 218/12/7 217/9/3
f 216/13/8 215/12/7 214/11/5
f 213/12/9 212/13/8 211/14/10
f 210/15/11 209/11/5 208/16/12
f 207/15/11 206/13/13 205/11/5
f 204/17/14 203/18/15 202/19/16
f 201/17/17 200/16/18 199/18/15
f 198/20/19 197/19/16 196/21/20
f 195/20/19 194/17/14 193/19/21
f 192/19/16 191/22/22 190/23/23
f 189/19/16 188/18/24 187/22/22
f 186/21/20 185/23/23 184/24/25
f 183/21/20 3/19/16 182/23/23
f 181/23/23 180/25/26 179/26/27
f 178/23/23 177/22/28 176/25/29
f 175/24/30 174/26/27 173/27/31
f 172/24/30 4/23/32 171/26/27
f 170/28/33 169/29/34 168/30/35
f 167/28/33 166/31/36 165/29/37
f 164/32/38 163/30/39 162/33/40
f 161/32/38 13/28/33 160/30/41
f 159/30/35 158/34/42 157/35/43
f 156/30/35 155/29/44 154/34/42
f 153/33/45 152/35/43 151/36/46
f 150/33/45 14/30/35 149/35/43
f 148/35/47 147/15/48 146/37/49
f 145/35/43 144/34/50 143/15/51
f 142/36/52 141/37/49 140/38/53
f 139/36/52 16/35/43 138/37/49
f 137/37/54 136/16/18 135/17/14
f 134/37/49 133/15/11 132/16/12
f 131/38/53 130/17/14 129/20/19
f 128/38/53 36/37/49 25/17/14
f 127/39/55 126/20/19 125/40/56
f 124/39/55 123/38/53 122/20/19
f 121/41/57 120/36/58 119/42/59
f 118/41/57 117/33/45 116/36/58
f 115/43/60 114/27/31 113/44/61
f 112/43/62 111/24/30 110/27/31
f 109/40/63 108/21/64 107/45/65
f 106/40/66 40/20/67 105/21/64
f 104/42/59 103/38/53 102/39/68
f 101/42/59 41/36/46 42/38/53
f 100/46/69 99/33/70 98/41/71
f 97/46/61 37/32/72 38/33/70
f 96/45/65 95/24/30 94/43/60
f 93/45/65 33/21/20 34/24/30
f 92/29/44 91/14/73 90/34/74
f 89/29/44 88/12/7 87/14/10
f 86/22/75 85/9/3 84/25/76
f 83/22/75 82/10/77 81/9/3
f 80/16/18 79/8/78 78/18/15
f 29/16/79 30/11/80 77/8/6
f 76/31/36 75/12/7 28/29/37
f 31/31/36 26/9/3 27/12/7
f 74/18/15 73/10/81 24/22/22
f 21/18/24 22/8/6 23/10/4
f 72/34/74 71/13/8 20/15/11
f 17/34/82 18/14/10 19/13/13
f 70/47/83 69/48/65 68/49/84
f 67/47/85 66/50/56 65/48/65
f 64/51/86 63/52/55 62/53/87
f 61/51/86 60/54/59 59/52/68
f 58/55/88 57/56/71 56/57/89
f 55/55/90 54/58/61 53/56/71
f 52/49/84 51/59/91 50/60/92
f 2/49/93 32/48/65 49/59/62
f 48/53/94 47/50/63 12/47/83
f 9/53/95 10/52/55 11/50/56
f 46/57/89 45/54/59 8/51/96
f 5/57/89 6/56/71 7/54/59
f 44/60/97 43/61/69 15/62/88
f 1/60/98 35/59/62 39/61/61
