# Blender 5.0.0
# www.blender.org
mtllib Circle_002_Circle_004_Dupli_196_decorations_0.mtl
o Circle.002|Circle.004|Dupli|196_decorations_0
v -4.583670 1.445529 0.461643
v -4.584582 1.444647 0.461035
v -4.590504 1.449735 0.461841
v -4.589201 1.450995 0.462709
v -4.583692 1.444782 0.464068
v -4.587806 1.448253 0.465013
v -4.588665 1.447255 0.465004
v -4.584611 1.443715 0.464059
v -4.585338 1.443191 0.462972
v -4.589344 1.446766 0.463988
v -4.589332 1.447154 0.462730
v -4.585325 1.443606 0.461626
v -4.588636 1.451081 0.464635
v -4.589234 1.449929 0.466169
v -4.583273 1.445590 0.462994
v -4.590545 1.448406 0.466155
v -4.591562 1.449530 0.466052
v -4.592194 1.450451 0.465662
v -4.592744 1.450054 0.464839
v -4.592406 1.448922 0.464790
v -4.591529 1.450611 0.462541
v -4.592172 1.451157 0.463371
v -4.591480 1.451826 0.463832
v -4.590469 1.451636 0.463248
v -4.591563 1.448251 0.462684
v -4.591180 1.451872 0.464855
v -4.591497 1.451260 0.465669
v -4.590496 1.450769 0.466063
v -4.592391 1.449403 0.463227
v -4.592734 1.450369 0.463819
v -4.590010 1.451706 0.464815
v -4.588638 1.448126 0.462177
v -4.589356 1.448748 0.461865
v -4.588229 1.449838 0.462616
v -4.587785 1.448952 0.462746
v -4.591581 1.447659 0.464604
v -4.587740 1.449912 0.464283
v -4.588257 1.448915 0.465611
v -4.587414 1.449008 0.464008
v -4.590273 1.447463 0.462595
v -4.589392 1.447597 0.465599
v -4.590289 1.446950 0.464257
v -4.587414 1.449008 0.464008
v -4.583670 1.445529 0.461643
v -4.588665 1.447255 0.465004
v -4.583692 1.444782 0.464068
v -4.589332 1.447154 0.462730
v -4.585338 1.443191 0.462972
v -4.587785 1.448952 0.462746
v -4.583670 1.445529 0.461643
v -4.587785 1.448952 0.462746
v -4.584582 1.444647 0.461035
v -4.587806 1.448253 0.465013
v -4.587414 1.449008 0.464008
v -4.583273 1.445590 0.462994
v -4.583692 1.444782 0.464068
v -4.587806 1.448253 0.465013
v -4.583273 1.445590 0.462994
v -4.589344 1.446766 0.463988
v -4.588665 1.447255 0.465004
v -4.584611 1.443715 0.464059
v -4.585338 1.443191 0.462972
v -4.589344 1.446766 0.463988
v -4.584611 1.443715 0.464059
v -4.588638 1.448126 0.462177
v -4.589332 1.447154 0.462730
v -4.585325 1.443606 0.461626
v -4.584582 1.444647 0.461035
v -4.588638 1.448126 0.462177
v -4.585325 1.443606 0.461626
v -4.592744 1.450054 0.464839
v -4.591562 1.449530 0.466052
v -4.591480 1.451826 0.463832
v -4.591529 1.450611 0.462541
v -4.591497 1.451260 0.465669
v -4.590010 1.451706 0.464815
v -4.592172 1.451157 0.463371
v -4.591529 1.450611 0.462541
v -4.592172 1.451157 0.463371
v -4.592391 1.449403 0.463227
v -4.591180 1.451872 0.464855
v -4.591480 1.451826 0.463832
v -4.590469 1.451636 0.463248
v -4.590010 1.451706 0.464815
v -4.591180 1.451872 0.464855
v -4.590469 1.451636 0.463248
v -4.592194 1.450451 0.465662
v -4.591497 1.451260 0.465669
v -4.590496 1.450769 0.466063
v -4.591562 1.449530 0.466052
v -4.592194 1.450451 0.465662
v -4.590496 1.450769 0.466063
v -4.588638 1.448126 0.462177
v -4.587785 1.448952 0.462746
v -4.588229 1.449838 0.462616
v -4.588638 1.448126 0.462177
v -4.587414 1.449008 0.464008
v -4.587806 1.448253 0.465013
v -4.588257 1.448915 0.465611
v -4.587414 1.449008 0.464008
v -4.588665 1.447255 0.465004
v -4.589344 1.446766 0.463988
v -4.590289 1.446950 0.464257
v -4.588665 1.447255 0.465004
v -4.589356 1.448748 0.461865
v -4.589332 1.447154 0.462730
v -4.588638 1.448126 0.462177
v -4.589356 1.448748 0.461865
v -4.589332 1.447154 0.462730
v -4.587740 1.449912 0.464283
v -4.588229 1.449838 0.462616
v -4.587785 1.448952 0.462746
v -4.587414 1.449008 0.464008
v -4.587740 1.449912 0.464283
v -4.587785 1.448952 0.462746
v -4.589392 1.447597 0.465599
v -4.588257 1.448915 0.465611
v -4.587806 1.448253 0.465013
v -4.588665 1.447255 0.465004
v -4.589392 1.447597 0.465599
v -4.587806 1.448253 0.465013
v -4.590273 1.447463 0.462595
v -4.590289 1.446950 0.464257
v -4.589344 1.446766 0.463988
v -4.589332 1.447154 0.462730
v -4.590273 1.447463 0.462595
v -4.589344 1.446766 0.463988
v -4.590289 1.446950 0.464257
v -4.590273 1.447463 0.462595
v -4.591563 1.448251 0.462684
v -4.590289 1.446950 0.464257
v -4.592391 1.449403 0.463227
v -4.592406 1.448922 0.464790
v -4.591581 1.447659 0.464604
v -4.591563 1.448251 0.462684
v -4.592391 1.449403 0.463227
v -4.591581 1.447659 0.464604
v -4.591581 1.447659 0.464604
v -4.589392 1.447597 0.465599
v -4.590289 1.446950 0.464257
v -4.591581 1.447659 0.464604
v -4.589392 1.447597 0.465599
v -4.592406 1.448922 0.464790
v -4.591562 1.449530 0.466052
v -4.590545 1.448406 0.466155
v -4.591581 1.447659 0.464604
v -4.592406 1.448922 0.464790
v -4.590545 1.448406 0.466155
v -4.590545 1.448406 0.466155
v -4.588257 1.448915 0.465611
v -4.589392 1.447597 0.465599
v -4.590545 1.448406 0.466155
v -4.588257 1.448915 0.465611
v -4.591562 1.449530 0.466052
v -4.590496 1.450769 0.466063
v -4.589234 1.449929 0.466169
v -4.590545 1.448406 0.466155
v -4.591562 1.449530 0.466052
v -4.589234 1.449929 0.466169
v -4.589234 1.449929 0.466169
v -4.587740 1.449912 0.464283
v -4.588257 1.448915 0.465611
v -4.589234 1.449929 0.466169
v -4.587740 1.449912 0.464283
v -4.590496 1.450769 0.466063
v -4.590010 1.451706 0.464815
v -4.588636 1.451081 0.464635
v -4.589234 1.449929 0.466169
v -4.590496 1.450769 0.466063
v -4.588636 1.451081 0.464635
v -4.588636 1.451081 0.464635
v -4.588229 1.449838 0.462616
v -4.587740 1.449912 0.464283
v -4.588636 1.451081 0.464635
v -4.588229 1.449838 0.462616
v -4.590010 1.451706 0.464815
v -4.590469 1.451636 0.463248
v -4.589201 1.450995 0.462709
v -4.588636 1.451081 0.464635
v -4.590010 1.451706 0.464815
v -4.589201 1.450995 0.462709
v -4.589201 1.450995 0.462709
v -4.589356 1.448748 0.461865
v -4.588229 1.449838 0.462616
v -4.589201 1.450995 0.462709
v -4.589356 1.448748 0.461865
v -4.590469 1.451636 0.463248
v -4.591529 1.450611 0.462541
v -4.590504 1.449735 0.461841
v -4.589201 1.450995 0.462709
v -4.590469 1.451636 0.463248
v -4.590504 1.449735 0.461841
v -4.590504 1.449735 0.461841
v -4.591563 1.448251 0.462684
v -4.590273 1.447463 0.462595
v -4.589356 1.448748 0.461865
v -4.590504 1.449735 0.461841
v -4.590273 1.447463 0.462595
v -4.591529 1.450611 0.462541
v -4.592391 1.449403 0.463227
v -4.591563 1.448251 0.462684
v -4.590504 1.449735 0.461841
v -4.591529 1.450611 0.462541
v -4.591563 1.448251 0.462684
v -4.592734 1.450369 0.463819
v -4.592744 1.450054 0.464839
v -4.592406 1.448922 0.464790
v -4.592391 1.449403 0.463227
v -4.592734 1.450369 0.463819
v -4.592406 1.448922 0.464790
v -4.592194 1.450451 0.465662
v -4.592744 1.450054 0.464839
v -4.591497 1.451260 0.465669
v -4.592734 1.450369 0.463819
v -4.591497 1.451260 0.465669
v -4.592744 1.450054 0.464839
v -4.591180 1.451872 0.464855
v -4.591497 1.451260 0.465669
v -4.592734 1.450369 0.463819
v -4.592172 1.451157 0.463371
v -4.591180 1.451872 0.464855
v -4.592734 1.450369 0.463819
v -4.591480 1.451826 0.463832
v -4.591180 1.451872 0.464855
v -4.592172 1.451157 0.463371
v -4.584611 1.443715 0.464059
v -4.583692 1.444782 0.464068
v -4.585338 1.443191 0.462972
v -4.585325 1.443606 0.461626
v -4.585338 1.443191 0.462972
v -4.583692 1.444782 0.464068
v -4.583273 1.445590 0.462994
v -4.585325 1.443606 0.461626
v -4.583692 1.444782 0.464068
v -4.584582 1.444647 0.461035
v -4.585325 1.443606 0.461626
v -4.583273 1.445590 0.462994
v -4.583670 1.445529 0.461643
v -4.584582 1.444647 0.461035
v -4.583273 1.445590 0.462994
vn 0.7450 -0.6394 -0.1900
vn -0.6940 0.6009 -0.3967
vn -0.2391 0.9285 0.2839
vn -0.3768 0.9076 -0.1852
vn -0.9519 0.2393 -0.1912
vn -0.2391 0.9286 0.2839
vn -0.6940 0.6008 -0.3967
vn -0.9519 0.2393 -0.1913
vn -0.3847 0.6479 0.6574
vn -0.9563 0.0952 0.2764
vn -0.3847 0.6480 0.6574
vn -0.9563 0.0952 0.2763
vn -0.7039 0.2770 0.6540
vn -0.8562 -0.4398 0.2709
vn -0.8492 -0.2066 -0.4861
vn -0.8562 -0.4399 0.2709
vn -0.6247 -0.4876 -0.6098
vn -0.4316 0.3788 -0.8187
vn -0.1678 0.1531 -0.9739
vn -0.6248 -0.4876 -0.6098
vn -0.8491 -0.2066 -0.4861
vn -0.3107 -0.6978 -0.6454
vn -0.1677 0.1531 -0.9739
vn 0.1198 -0.0942 -0.9883
vn 0.0819 0.8754 -0.4764
vn 0.3944 0.6967 -0.5992
vn 0.1199 -0.0942 -0.9883
vn 0.6494 0.4179 -0.6353
vn 0.3049 0.9094 0.2830
vn 0.6384 0.7339 0.2321
vn 0.0820 0.8754 -0.4764
vn 0.3048 0.9094 0.2830
vn 0.6495 0.4178 -0.6353
vn 0.6384 0.7339 0.2322
vn 0.8792 0.4529 0.1478
vn 0.0692 0.4551 0.8878
vn 0.3804 0.2367 0.8940
vn 0.3049 0.9094 0.2831
vn 0.0692 0.4551 0.8877
vn 0.8793 0.4528 0.1478
vn 0.3804 0.2366 0.8940
vn 0.6362 -0.0155 0.7714
vn 0.8792 0.4528 0.1478
vn -0.4476 -0.1453 0.8824
vn -0.1852 -0.4206 0.8881
vn 0.6362 -0.0156 0.7713
vn 0.1034 -0.6347 0.7658
vn -0.1852 -0.4207 0.8881
vn -0.6326 -0.7429 0.2188
vn -0.4476 -0.1454 0.8824
vn -0.8562 -0.4398 0.2710
vn 0.1034 -0.6348 0.7657
vn -0.3181 -0.9384 0.1353
vn -0.6326 -0.7430 0.2188
vn -0.3180 -0.9384 0.1353
vn -0.6326 -0.7429 0.2189
vn -0.3893 -0.9080 0.1548
vn -0.3107 -0.6978 -0.6453
vn -0.3817 -0.6614 -0.6457
vn 0.5892 0.0382 0.8071
vn 0.0429 -0.5967 0.8013
vn 0.6363 -0.0156 0.7713
vn 0.6028 0.4827 -0.6353
vn 0.8384 0.5186 0.1677
vn 0.6028 0.4827 -0.6354
vn -0.3818 -0.6613 -0.6457
vn 0.1198 -0.0943 -0.9883
vn 0.0598 -0.0425 -0.9973
vn -0.3818 -0.6614 -0.6456
vn -0.3107 -0.6979 -0.6453
vn 0.0428 -0.5967 0.8014
vn 0.6362 -0.0155 0.7713
vn 0.8792 0.4529 0.1479
vn 0.0597 -0.0424 -0.9973
vn 0.0692 0.4550 0.8878
vn -0.7039 0.2771 0.6540
vn 0.0820 0.8754 -0.4763
vn -0.2392 0.9286 0.2839
vn -0.3768 0.9076 -0.1853
vn -0.8491 -0.2065 -0.4862
vn -0.8491 -0.2066 -0.4862
vn -0.9519 0.2392 -0.1912
vn -0.6940 0.6008 -0.3966
vn 0.3048 0.9094 0.2831
vn -0.4315 0.3788 -0.8187
vn -0.4476 -0.1454 0.8823
vn -0.8563 -0.4398 0.2709
vn -0.6113 -0.4997 -0.6137
vn -0.1541 0.1414 -0.9779
vn -0.6114 -0.4996 -0.6137
vn -0.3817 -0.6614 -0.6456
vn 0.0597 -0.0425 -0.9973
vn -0.1716 -0.4327 0.8850
vn -0.6191 -0.7551 0.2155
vn -0.1716 -0.4327 0.8851
vn 0.0428 -0.5967 0.8013
vn 0.6525 0.7224 0.2288
vn 0.3944 0.2250 0.8910
vn 0.6524 0.7225 0.2288
vn -0.1540 0.1414 -0.9779
vn 0.4084 0.6853 -0.6030
vn -0.6191 -0.7552 0.2154
vn -0.6114 -0.4997 -0.6136
vn -0.6192 -0.7551 0.2154
vn 0.3944 0.2249 0.8910
vn 0.6525 0.7225 0.2288
vn 0.8384 0.5186 0.1676
vt 0.530319 0.635056
vt 0.522446 0.641335
vt 0.524872 0.636299
vt 0.524872 0.646370
vt 0.534683 0.638535
vt 0.530319 0.647614
vt 0.534683 0.644127
vt 0.508789 0.671494
vt 0.513626 0.669548
vt 0.511276 0.672157
vt 0.507889 0.669609
vt 0.511566 0.666756
vt 0.507935 0.667854
vt 0.509277 0.666748
vt 0.506302 0.666855
vt 0.505722 0.669838
vt 0.502487 0.669685
vt 0.506897 0.673050
vt 0.503479 0.674789
vt 0.497520 0.669067
vt 0.497810 0.676537
vt 0.510727 0.675606
vt 0.507721 0.680244
vt 0.501465 0.684982
vt 0.518890 0.674767
vt 0.518692 0.686485
vt 0.509125 0.696274
vt 0.518890 0.658051
vt 0.512238 0.663902
vt 0.511536 0.659698
vt 0.517990 0.665543
vt 0.515472 0.651657
vt 0.509323 0.655174
vt 0.508469 0.664742
vt 0.506836 0.661980
vt 0.504074 0.658463
vt 0.503784 0.665283
vt 0.499901 0.662933
vt 0.495453 0.660286
vt 0.491707 0.668175
vt 0.506927 0.651588
vt 0.501038 0.654999
vt 0.494583 0.688484
vt 0.500031 0.699394
vt 0.491287 0.678001
vt 0.512177 0.648293
vt 0.627350 0.642853
vt 0.649124 0.647896
vt 0.627441 0.648445
vt 0.649033 0.642670
vt 0.627441 0.631676
vt 0.649033 0.637444
vt 0.627350 0.637268
vt 0.649124 0.632225
vt 0.627914 0.620506
vt 0.649292 0.626999
vt 0.627625 0.626091
vt 0.649551 0.621780
vt 0.649292 0.653114
vt 0.627625 0.654030
vt 0.649551 0.658333
vt 0.627914 0.659607
s 0
usemtl decorations
f 240/1/1 239/2/1 238/3/1
f 237/1/1 236/4/1 235/2/1
f 234/5/1 233/4/1 232/1/1
f 231/5/1 230/6/1 229/4/1
f 228/6/1 227/5/1 226/7/1
s 1
f 225/8/2 224/9/3 223/10/4
f 222/11/5 221/9/6 220/8/7
f 219/11/8 218/12/9 217/9/3
f 216/13/10 215/12/11 214/11/8
f 213/12/9 212/13/12 211/14/13
f 210/15/14 209/11/5 208/16/15
f 207/15/16 206/13/10 205/11/5
f 204/17/17 203/18/18 202/19/19
f 201/17/20 200/16/21 199/18/18
f 198/20/22 197/19/23 196/21/24
f 195/20/22 194/17/20 193/19/19
f 192/19/19 191/22/25 190/23/26
f 189/19/19 188/18/18 187/22/25
f 186/21/27 185/23/26 184/24/28
f 183/21/27 3/19/19 182/23/26
f 181/23/26 180/25/29 179/26/30
f 178/23/26 177/22/31 176/25/32
f 175/24/33 174/26/34 173/27/35
f 172/24/33 4/23/26 171/26/34
f 170/28/34 169/29/36 168/30/37
f 167/28/34 166/31/38 165/29/39
f 164/32/40 163/30/41 162/33/42
f 161/32/43 13/28/34 160/30/37
f 159/30/37 158/34/44 157/35/45
f 156/30/37 155/29/36 154/34/44
f 153/33/46 152/35/45 151/36/47
f 150/33/46 14/30/41 149/35/45
f 148/35/48 147/15/14 146/37/49
f 145/35/48 144/34/50 143/15/51
f 142/36/52 141/37/49 140/38/53
f 139/36/52 16/35/45 138/37/49
f 137/37/54 136/16/21 135/17/20
f 134/37/49 133/15/14 132/16/15
f 131/38/55 130/17/20 129/20/22
f 128/38/55 36/37/56 25/17/20
f 127/39/57 126/20/58 125/40/59
f 124/39/57 123/38/53 122/20/58
f 121/41/60 120/36/47 119/42/61
f 118/41/60 117/33/62 116/36/47
f 115/43/63 114/27/35 113/44/64
f 112/43/65 111/24/28 110/27/35
f 109/40/66 108/21/67 107/45/68
f 106/40/69 40/20/70 105/21/67
f 104/42/71 103/38/53 102/39/57
f 101/42/61 41/36/47 42/38/53
f 100/46/64 99/33/72 98/41/60
f 97/46/64 37/32/73 38/33/72
f 96/45/74 95/24/28 94/43/63
f 93/45/74 33/21/27 34/24/28
f 92/29/75 91/14/76 90/34/44
f 89/29/75 88/12/11 87/14/13
f 86/22/77 85/9/78 84/25/32
f 83/22/77 82/10/79 81/9/78
f 80/16/80 79/8/2 78/18/18
f 29/16/81 30/11/82 77/8/83
f 76/31/84 75/12/9 28/29/39
f 31/31/84 26/9/78 27/12/11
f 74/18/85 73/10/4 24/22/31
f 21/18/85 22/8/83 23/10/4
f 72/34/86 71/13/12 20/15/87
f 17/34/86 18/14/76 19/13/10
f 70/47/88 69/48/74 68/49/89
f 67/47/90 66/50/91 65/48/92
f 64/51/93 63/52/57 62/53/94
f 61/51/95 60/54/96 59/52/57
f 58/55/97 57/56/60 56/57/98
f 55/55/99 54/58/64 53/56/60
f 52/49/100 51/59/65 50/60/101
f 2/49/89 32/48/68 49/59/65
f 48/53/102 47/50/66 12/47/103
f 9/53/104 10/52/57 11/50/59
f 46/57/105 45/54/96 8/51/95
f 5/57/98 6/56/60 7/54/61
f 44/60/101 43/61/64 15/62/106
f 1/60/101 35/59/65 39/61/107
