# Blender 5.0.0
# www.blender.org
mtllib Circle_002_Circle_Dupli_187_decorations_0.mtl
o Circle.002|Circle|Dupli|187_decorations_0
v -4.559323 1.333061 0.788857
v -4.559346 1.331907 0.789664
v -4.551860 1.332894 0.791810
v -4.551828 1.334541 0.790659
v -4.558771 1.332134 0.786560
v -4.553457 1.332720 0.787692
v -4.553351 1.331427 0.787916
v -4.558657 1.330750 0.786800
v -4.558812 1.330054 0.788014
v -4.553495 1.330776 0.789051
v -4.553782 1.331257 0.790243
v -4.559118 1.330569 0.789289
v -4.551463 1.334684 0.788688
v -4.551041 1.333217 0.787382
v -4.559067 1.333162 0.787476
v -4.550879 1.331244 0.787724
v -4.549551 1.331651 0.788343
v -4.548734 1.332130 0.789051
v -4.548851 1.331602 0.789971
v -4.549731 1.330842 0.789753
v -4.550351 1.332994 0.791668
v -4.549255 1.333006 0.791221
v -4.549238 1.333881 0.790610
v -4.550324 1.334334 0.790731
v -4.551536 1.330985 0.791275
v -4.549045 1.333957 0.789563
v -4.548820 1.333178 0.788870
v -4.549684 1.333257 0.788065
v -4.550086 1.331440 0.791233
v -4.549083 1.331992 0.790937
v -4.550027 1.334451 0.789128
v -4.553994 1.332508 0.790593
v -4.553242 1.332680 0.791229
v -4.553214 1.334105 0.790233
v -4.553973 1.333587 0.789839
v -4.551099 1.330251 0.789456
v -4.552898 1.334230 0.788527
v -4.552533 1.332960 0.787396
v -4.553734 1.333681 0.788548
v -4.552961 1.331027 0.790766
v -4.552392 1.331252 0.787692
v -4.552583 1.330392 0.789192
v -4.553734 1.333681 0.788548
v -4.559323 1.333061 0.788857
v -4.553351 1.331427 0.787916
v -4.558771 1.332134 0.786560
v -4.553782 1.331257 0.790243
v -4.558812 1.330054 0.788014
v -4.553973 1.333587 0.789839
v -4.559323 1.333061 0.788857
v -4.553973 1.333587 0.789839
v -4.559346 1.331907 0.789664
v -4.553457 1.332720 0.787692
v -4.553734 1.333681 0.788548
v -4.559067 1.333162 0.787476
v -4.558771 1.332134 0.786560
v -4.553457 1.332720 0.787692
v -4.559067 1.333162 0.787476
v -4.553495 1.330776 0.789051
v -4.553351 1.331427 0.787916
v -4.558657 1.330750 0.786800
v -4.558812 1.330054 0.788014
v -4.553495 1.330776 0.789051
v -4.558657 1.330750 0.786800
v -4.553994 1.332508 0.790593
v -4.553782 1.331257 0.790243
v -4.559118 1.330569 0.789289
v -4.559346 1.331907 0.789664
v -4.553994 1.332508 0.790593
v -4.559118 1.330569 0.789289
v -4.548851 1.331602 0.789971
v -4.549551 1.331651 0.788343
v -4.549238 1.333881 0.790610
v -4.550351 1.332994 0.791668
v -4.548820 1.333178 0.788870
v -4.550027 1.334451 0.789128
v -4.549255 1.333006 0.791221
v -4.550351 1.332994 0.791668
v -4.549255 1.333006 0.791221
v -4.550086 1.331440 0.791233
v -4.549045 1.333957 0.789563
v -4.549238 1.333881 0.790610
v -4.550324 1.334334 0.790731
v -4.550027 1.334451 0.789128
v -4.549045 1.333957 0.789563
v -4.550324 1.334334 0.790731
v -4.548734 1.332130 0.789051
v -4.548820 1.333178 0.788870
v -4.549684 1.333257 0.788065
v -4.549551 1.331651 0.788343
v -4.548734 1.332130 0.789051
v -4.549684 1.333257 0.788065
v -4.553994 1.332508 0.790593
v -4.553973 1.333587 0.789839
v -4.553214 1.334105 0.790233
v -4.553994 1.332508 0.790593
v -4.553734 1.333681 0.788548
v -4.553457 1.332720 0.787692
v -4.552533 1.332960 0.787396
v -4.553734 1.333681 0.788548
v -4.553351 1.331427 0.787916
v -4.553495 1.330776 0.789051
v -4.552583 1.330392 0.789192
v -4.553351 1.331427 0.787916
v -4.553242 1.332680 0.791229
v -4.553782 1.331257 0.790243
v -4.553994 1.332508 0.790593
v -4.553242 1.332680 0.791229
v -4.553782 1.331257 0.790243
v -4.552898 1.334230 0.788527
v -4.553214 1.334105 0.790233
v -4.553973 1.333587 0.789839
v -4.553734 1.333681 0.788548
v -4.552898 1.334230 0.788527
v -4.553973 1.333587 0.789839
v -4.552392 1.331252 0.787692
v -4.552533 1.332960 0.787396
v -4.553457 1.332720 0.787692
v -4.553351 1.331427 0.787916
v -4.552392 1.331252 0.787692
v -4.553457 1.332720 0.787692
v -4.552961 1.331027 0.790766
v -4.552583 1.330392 0.789192
v -4.553495 1.330776 0.789051
v -4.553782 1.331257 0.790243
v -4.552961 1.331027 0.790766
v -4.553495 1.330776 0.789051
v -4.552583 1.330392 0.789192
v -4.552961 1.331027 0.790766
v -4.551536 1.330985 0.791275
v -4.552583 1.330392 0.789192
v -4.550086 1.331440 0.791233
v -4.549731 1.330842 0.789753
v -4.551099 1.330251 0.789456
v -4.551536 1.330985 0.791275
v -4.550086 1.331440 0.791233
v -4.551099 1.330251 0.789456
v -4.551099 1.330251 0.789456
v -4.552392 1.331252 0.787692
v -4.552583 1.330392 0.789192
v -4.551099 1.330251 0.789456
v -4.552392 1.331252 0.787692
v -4.549731 1.330842 0.789753
v -4.549551 1.331651 0.788343
v -4.550879 1.331244 0.787724
v -4.551099 1.330251 0.789456
v -4.549731 1.330842 0.789753
v -4.550879 1.331244 0.787724
v -4.550879 1.331244 0.787724
v -4.552533 1.332960 0.787396
v -4.552392 1.331252 0.787692
v -4.550879 1.331244 0.787724
v -4.552533 1.332960 0.787396
v -4.549551 1.331651 0.788343
v -4.549684 1.333257 0.788065
v -4.551041 1.333217 0.787382
v -4.550879 1.331244 0.787724
v -4.549551 1.331651 0.788343
v -4.551041 1.333217 0.787382
v -4.551041 1.333217 0.787382
v -4.552898 1.334230 0.788527
v -4.552533 1.332960 0.787396
v -4.551041 1.333217 0.787382
v -4.552898 1.334230 0.788527
v -4.549684 1.333257 0.788065
v -4.550027 1.334451 0.789128
v -4.551463 1.334684 0.788688
v -4.551041 1.333217 0.787382
v -4.549684 1.333257 0.788065
v -4.551463 1.334684 0.788688
v -4.551463 1.334684 0.788688
v -4.553214 1.334105 0.790233
v -4.552898 1.334230 0.788527
v -4.551463 1.334684 0.788688
v -4.553214 1.334105 0.790233
v -4.550027 1.334451 0.789128
v -4.550324 1.334334 0.790731
v -4.551828 1.334541 0.790659
v -4.551463 1.334684 0.788688
v -4.550027 1.334451 0.789128
v -4.551828 1.334541 0.790659
v -4.551828 1.334541 0.790659
v -4.553242 1.332680 0.791229
v -4.553214 1.334105 0.790233
v -4.551828 1.334541 0.790659
v -4.553242 1.332680 0.791229
v -4.550324 1.334334 0.790731
v -4.550351 1.332994 0.791668
v -4.551860 1.332894 0.791810
v -4.551828 1.334541 0.790659
v -4.550324 1.334334 0.790731
v -4.551860 1.332894 0.791810
v -4.551860 1.332894 0.791810
v -4.551536 1.330985 0.791275
v -4.552961 1.331027 0.790766
v -4.553242 1.332680 0.791229
v -4.551860 1.332894 0.791810
v -4.552961 1.331027 0.790766
v -4.550351 1.332994 0.791668
v -4.550086 1.331440 0.791233
v -4.551536 1.330985 0.791275
v -4.551860 1.332894 0.791810
v -4.550351 1.332994 0.791668
v -4.551536 1.330985 0.791275
v -4.549083 1.331992 0.790937
v -4.548851 1.331602 0.789971
v -4.549731 1.330842 0.789753
v -4.550086 1.331440 0.791233
v -4.549083 1.331992 0.790937
v -4.549731 1.330842 0.789753
v -4.548734 1.332130 0.789051
v -4.548851 1.331602 0.789971
v -4.548820 1.333178 0.788870
v -4.549083 1.331992 0.790937
v -4.548820 1.333178 0.788870
v -4.548851 1.331602 0.789971
v -4.549045 1.333957 0.789563
v -4.548820 1.333178 0.788870
v -4.549083 1.331992 0.790937
v -4.549255 1.333006 0.791221
v -4.549045 1.333957 0.789563
v -4.549083 1.331992 0.790937
v -4.549238 1.333881 0.790610
v -4.549045 1.333957 0.789563
v -4.549255 1.333006 0.791221
v -4.558657 1.330750 0.786800
v -4.558771 1.332134 0.786560
v -4.558812 1.330054 0.788014
v -4.559118 1.330569 0.789289
v -4.558812 1.330054 0.788014
v -4.558771 1.332134 0.786560
v -4.559067 1.333162 0.787476
v -4.559118 1.330569 0.789289
v -4.558771 1.332134 0.786560
v -4.559346 1.331907 0.789664
v -4.559118 1.330569 0.789289
v -4.559067 1.333162 0.787476
v -4.559323 1.333061 0.788857
v -4.559346 1.331907 0.789664
v -4.559067 1.333162 0.787476
vn -0.9755 -0.1129 -0.1888
vn 0.6902 0.1783 0.7013
vn 0.7869 0.6142 -0.0590
vn 0.6981 0.5792 0.4210
vn 0.7693 -0.2867 0.5710
vn 0.7692 -0.2867 0.5710
vn 0.8898 0.2569 -0.3771
vn 0.8757 -0.4656 0.1282
vn 0.9293 -0.2237 -0.2938
vn 0.5115 -0.8587 0.0321
vn 0.3393 -0.5691 0.7490
vn 0.8757 -0.4655 0.1282
vn -0.0276 -0.6691 0.7427
vn 0.2113 0.1837 0.9600
vn -0.1676 0.1549 0.9736
vn -0.0275 -0.6691 0.7427
vn 0.3393 -0.5691 0.7491
vn 0.2114 0.1837 0.9600
vn -0.3898 -0.6724 0.6292
vn -0.1676 0.1550 0.9736
vn -0.5217 0.1039 0.8468
vn 0.2241 0.8329 0.5061
vn -0.1537 0.8655 0.4768
vn 0.2113 0.1838 0.9600
vn -0.5218 0.1039 0.8467
vn -0.5086 0.7732 0.3787
vn 0.3678 0.8896 -0.2709
vn 0.0037 0.9275 -0.3737
vn 0.2240 0.8329 0.5061
vn 0.3679 0.8895 -0.2708
vn -0.5087 0.7732 0.3787
vn -0.3603 0.8317 -0.4225
vn 0.0037 0.9275 -0.3738
vn 0.5345 0.3111 -0.7859
vn 0.1862 0.2944 -0.9374
vn 0.3679 0.8895 -0.2709
vn 0.5345 0.3111 -0.7858
vn -0.3603 0.8316 -0.4225
vn 0.1861 0.2943 -0.9374
vn -0.1885 0.2352 -0.9535
vn 0.5985 -0.4669 -0.6510
vn 0.2561 -0.5573 -0.7898
vn -0.1885 0.2351 -0.9535
vn -0.1225 -0.5671 -0.8145
vn 0.2561 -0.5574 -0.7898
vn 0.5116 -0.8587 0.0321
vn 0.1610 -0.9861 -0.0421
vn 0.5984 -0.4670 -0.6510
vn 0.5116 -0.8586 0.0321
vn -0.1226 -0.5672 -0.8144
vn -0.2121 -0.9710 -0.1101
vn 0.1611 -0.9860 -0.0421
vn -0.2122 -0.9710 -0.1101
vn -0.1348 -0.9861 -0.0968
vn -0.3170 -0.6799 0.6612
vn -0.1349 -0.9861 -0.0968
vn -0.1106 0.2507 -0.9617
vn -0.0430 -0.5720 -0.8191
vn -0.4388 0.8025 0.4043
vn -0.2868 0.8624 -0.4172
vn -0.4389 0.8024 0.4043
vn -0.5217 0.1038 0.8468
vn -0.4524 0.1160 0.8843
vn -0.0430 -0.5720 -0.8192
vn -0.1349 -0.9861 -0.0969
vn -0.4523 0.1161 0.8843
vn 0.5345 0.3110 -0.7859
vn 0.8899 0.2569 -0.3770
vn 0.3393 -0.5690 0.7491
vn 0.3392 -0.5690 0.7491
vn 0.7693 -0.2868 0.5710
vn 0.6981 0.5792 0.4209
vn 0.5985 -0.4670 -0.6510
vn -0.0456 -0.6715 0.7396
vn -0.1857 0.1529 0.9706
vn -0.4523 0.1160 0.8843
vn 0.2382 -0.5597 -0.7937
vn -0.1348 -0.9861 -0.0969
vn 0.1431 -0.9887 -0.0456
vn 0.2383 -0.5597 -0.7937
vn -0.0143 0.9259 -0.3775
vn 0.1682 0.2925 -0.9414
vn -0.0142 0.9259 -0.3775
vn -0.1858 0.1530 0.9706
vn -0.1718 0.8638 0.4736
vn -0.1857 0.1530 0.9706
vn 0.1682 0.2924 -0.9414
vn -0.1718 0.8639 0.4735
vn -0.0143 0.9259 -0.3774
vt 0.543243 0.611839
vt 0.535370 0.618118
vt 0.537796 0.613083
vt 0.537796 0.623154
vt 0.547607 0.615326
vt 0.543243 0.624397
vt 0.547607 0.620918
vt 0.565384 0.671494
vt 0.570206 0.669548
vt 0.567856 0.672157
vt 0.564468 0.669609
vt 0.568146 0.666756
vt 0.564514 0.667854
vt 0.565857 0.666748
vt 0.562897 0.666855
vt 0.562302 0.669838
vt 0.559082 0.669685
vt 0.563492 0.673050
vt 0.560059 0.674789
vt 0.554092 0.669067
vt 0.554398 0.676537
vt 0.567307 0.675606
vt 0.564316 0.680244
vt 0.558044 0.684982
vt 0.575485 0.674767
vt 0.575272 0.686485
vt 0.565720 0.696274
vt 0.575485 0.658051
vt 0.568817 0.663902
vt 0.568115 0.659698
vt 0.574570 0.665543
vt 0.572052 0.651657
vt 0.565903 0.655174
vt 0.565063 0.664742
vt 0.563416 0.661980
vt 0.560669 0.658463
vt 0.560364 0.665283
vt 0.556488 0.662933
vt 0.552032 0.660286
vt 0.548294 0.668175
vt 0.563522 0.651588
vt 0.557617 0.654999
vt 0.551163 0.688484
vt 0.556610 0.699394
vt 0.547867 0.678001
vt 0.568756 0.648293
vt 0.604446 0.682632
vt 0.626221 0.687675
vt 0.604553 0.688225
vt 0.626144 0.682457
vt 0.604553 0.671455
vt 0.626144 0.677231
vt 0.604446 0.677048
vt 0.626221 0.672005
vt 0.605011 0.660294
vt 0.626404 0.666786
vt 0.604736 0.665871
vt 0.626663 0.661568
vt 0.626404 0.692902
vt 0.604736 0.693810
vt 0.626663 0.698120
vt 0.605011 0.699394
s 0
usemtl decorations
f 240/1/1 239/2/1 238/3/1
f 237/1/1 236/4/1 235/2/1
f 234/5/1 233/4/1 232/1/1
f 231/5/1 230/6/1 229/4/1
f 228/6/1 227/5/1 226/7/1
s 1
f 225/8/2 224/9/3 223/10/4
f 222/11/5 221/9/3 220/8/2
f 219/11/6 218/12/7 217/9/3
f 216/13/8 215/12/7 214/11/5
f 213/12/7 212/13/8 211/14/9
f 210/15/10 209/11/5 208/16/11
f 207/15/10 206/13/12 205/11/5
f 204/17/13 203/18/14 202/19/15
f 201/17/16 200/16/17 199/18/18
f 198/20/19 197/19/20 196/21/21
f 195/20/19 194/17/16 193/19/15
f 192/19/15 191/22/22 190/23/23
f 189/19/15 188/18/24 187/22/22
f 186/21/25 185/23/23 184/24/26
f 183/21/25 3/19/15 182/23/23
f 181/23/23 180/25/27 179/26/28
f 178/23/23 177/22/29 176/25/30
f 175/24/31 174/26/28 173/27/32
f 172/24/31 4/23/23 171/26/33
f 170/28/33 169/29/34 168/30/35
f 167/28/33 166/31/36 165/29/37
f 164/32/38 163/30/39 162/33/40
f 161/32/38 13/28/33 160/30/35
f 159/30/39 158/34/41 157/35/42
f 156/30/35 155/29/34 154/34/41
f 153/33/43 152/35/42 151/36/44
f 150/33/43 14/30/39 149/35/42
f 148/35/45 147/15/46 146/37/47
f 145/35/42 144/34/48 143/15/49
f 142/36/50 141/37/47 140/38/51
f 139/36/50 16/35/42 138/37/47
f 137/37/47 136/16/11 135/17/13
f 134/37/52 133/15/46 132/16/11
f 131/38/53 130/17/13 129/20/19
f 128/38/53 36/37/52 25/17/13
f 127/39/54 126/20/19 125/40/55
f 124/39/56 123/38/51 122/20/19
f 121/41/57 120/36/44 119/42/58
f 118/41/57 117/33/40 116/36/44
f 115/43/59 114/27/32 113/44/60
f 112/43/61 111/24/26 110/27/32
f 109/40/55 108/21/62 107/45/63
f 106/40/55 40/20/19 105/21/62
f 104/42/64 103/38/51 102/39/65
f 101/42/64 41/36/44 42/38/51
f 100/46/60 99/33/40 98/41/57
f 97/46/60 37/32/38 38/33/40
f 96/45/66 95/24/26 94/43/61
f 93/45/66 33/21/21 34/24/26
f 92/29/67 91/14/9 90/34/41
f 89/29/67 88/12/68 87/14/9
f 86/22/22 85/9/3 84/25/36
f 83/22/22 82/10/4 81/9/3
f 80/16/69 79/8/2 78/18/14
f 29/16/70 30/11/71 77/8/2
f 76/31/36 75/12/7 28/29/37
f 31/31/36 26/9/3 27/12/68
f 74/18/14 73/10/72 24/22/22
f 21/18/14 22/8/2 23/10/4
f 72/34/73 71/13/8 20/15/49
f 17/34/73 18/14/9 19/13/8
f 70/47/74 69/48/66 68/49/75
f 67/47/74 66/50/55 65/48/76
f 64/51/77 63/52/78 62/53/79
f 61/51/80 60/54/58 59/52/65
f 58/55/81 57/56/57 56/57/82
f 55/55/83 54/58/60 53/56/57
f 52/49/84 51/59/59 50/60/85
f 2/49/86 32/48/76 49/59/61
f 48/53/79 47/50/55 12/47/74
f 9/53/79 10/52/78 11/50/55
f 46/57/87 45/54/58 8/51/77
f 5/57/87 6/56/57 7/54/58
f 44/60/88 43/61/60 15/62/89
f 1/60/88 35/59/61 39/61/60
