# Blender 5.0.0
# www.blender.org
mtllib Circle_002_Circle_001_Dupli_62_decorations_0.mtl
o Circle.002|Circle.001|Dupli|62_decorations_0
v -4.561064 2.119709 0.632652
v -4.560489 2.119165 0.633817
v -4.559787 2.126240 0.637142
v -4.560607 2.127017 0.635481
v -4.559064 2.119992 0.631115
v -4.558292 2.124995 0.633173
v -4.557293 2.124550 0.633907
v -4.557996 2.119517 0.631900
v -4.558029 2.119010 0.633213
v -4.557324 2.124077 0.635135
v -4.558362 2.123931 0.635933
v -4.559139 2.118854 0.634067
v -4.559702 2.127542 0.633765
v -4.557755 2.127419 0.633287
v -4.560430 2.120078 0.631450
v -4.556230 2.126742 0.634407
v -4.556406 2.128074 0.635117
v -4.556852 2.128965 0.635754
v -4.556877 2.128582 0.636750
v -4.556444 2.127486 0.636642
v -4.559300 2.127666 0.637343
v -4.558741 2.128699 0.637207
v -4.559176 2.129112 0.636324
v -4.559968 2.128298 0.635991
v -4.557860 2.125796 0.637499
v -4.558696 2.129390 0.635413
v -4.557662 2.129325 0.635159
v -4.557646 2.128625 0.634206
v -4.557733 2.127304 0.637633
v -4.557718 2.128463 0.637396
v -4.559231 2.128725 0.634595
v -4.559624 2.124222 0.635699
v -4.559806 2.124933 0.636377
v -4.560515 2.125606 0.634939
v -4.560161 2.124731 0.634611
v -4.556277 2.126019 0.636282
v -4.559732 2.126060 0.633454
v -4.558046 2.125954 0.633041
v -4.559568 2.125075 0.633486
v -4.558138 2.124549 0.636686
v -4.556727 2.125368 0.634010
v -4.556768 2.124742 0.635632
v -4.559568 2.125075 0.633486
v -4.561064 2.119709 0.632652
v -4.557293 2.124550 0.633907
v -4.559064 2.119992 0.631115
v -4.558362 2.123931 0.635933
v -4.558029 2.119010 0.633213
v -4.560161 2.124731 0.634611
v -4.561064 2.119709 0.632652
v -4.560161 2.124731 0.634611
v -4.560489 2.119165 0.633817
v -4.558292 2.124995 0.633173
v -4.559568 2.125075 0.633486
v -4.560430 2.120078 0.631450
v -4.559064 2.119992 0.631115
v -4.558292 2.124995 0.633173
v -4.560430 2.120078 0.631450
v -4.557324 2.124077 0.635135
v -4.557293 2.124550 0.633907
v -4.557996 2.119517 0.631900
v -4.558029 2.119010 0.633213
v -4.557324 2.124077 0.635135
v -4.557996 2.119517 0.631900
v -4.559624 2.124222 0.635699
v -4.558362 2.123931 0.635933
v -4.559139 2.118854 0.634067
v -4.560489 2.119165 0.633817
v -4.559624 2.124222 0.635699
v -4.559139 2.118854 0.634067
v -4.556877 2.128582 0.636750
v -4.556406 2.128074 0.635117
v -4.559176 2.129112 0.636324
v -4.559300 2.127666 0.637343
v -4.557662 2.129325 0.635159
v -4.559231 2.128725 0.634595
v -4.558741 2.128699 0.637207
v -4.559300 2.127666 0.637343
v -4.558741 2.128699 0.637207
v -4.557733 2.127304 0.637633
v -4.558696 2.129390 0.635413
v -4.559176 2.129112 0.636324
v -4.559968 2.128298 0.635991
v -4.559231 2.128725 0.634595
v -4.558696 2.129390 0.635413
v -4.559968 2.128298 0.635991
v -4.556852 2.128965 0.635754
v -4.557662 2.129325 0.635159
v -4.557646 2.128625 0.634206
v -4.556406 2.128074 0.635117
v -4.556852 2.128965 0.635754
v -4.557646 2.128625 0.634206
v -4.559624 2.124222 0.635699
v -4.560161 2.124731 0.634611
v -4.560515 2.125606 0.634939
v -4.559624 2.124222 0.635699
v -4.559568 2.125075 0.633486
v -4.558292 2.124995 0.633173
v -4.558046 2.125954 0.633041
v -4.559568 2.125075 0.633486
v -4.557293 2.124550 0.633907
v -4.557324 2.124077 0.635135
v -4.556768 2.124742 0.635632
v -4.557293 2.124550 0.633907
v -4.559806 2.124933 0.636377
v -4.558362 2.123931 0.635933
v -4.559624 2.124222 0.635699
v -4.559806 2.124933 0.636377
v -4.558362 2.123931 0.635933
v -4.559732 2.126060 0.633454
v -4.560515 2.125606 0.634939
v -4.560161 2.124731 0.634611
v -4.559568 2.125075 0.633486
v -4.559732 2.126060 0.633454
v -4.560161 2.124731 0.634611
v -4.556727 2.125368 0.634010
v -4.558046 2.125954 0.633041
v -4.558292 2.124995 0.633173
v -4.557293 2.124550 0.633907
v -4.556727 2.125368 0.634010
v -4.558292 2.124995 0.633173
v -4.558138 2.124549 0.636686
v -4.556768 2.124742 0.635632
v -4.557324 2.124077 0.635135
v -4.558362 2.123931 0.635933
v -4.558138 2.124549 0.636686
v -4.557324 2.124077 0.635135
v -4.556768 2.124742 0.635632
v -4.558138 2.124549 0.636686
v -4.557860 2.125796 0.637499
v -4.556768 2.124742 0.635632
v -4.557733 2.127304 0.637633
v -4.556444 2.127486 0.636642
v -4.556277 2.126019 0.636282
v -4.557860 2.125796 0.637499
v -4.557733 2.127304 0.637633
v -4.556277 2.126019 0.636282
v -4.556277 2.126019 0.636282
v -4.556727 2.125368 0.634010
v -4.556768 2.124742 0.635632
v -4.556277 2.126019 0.636282
v -4.556727 2.125368 0.634010
v -4.556444 2.127486 0.636642
v -4.556406 2.128074 0.635117
v -4.556230 2.126742 0.634407
v -4.556277 2.126019 0.636282
v -4.556444 2.127486 0.636642
v -4.556230 2.126742 0.634407
v -4.556230 2.126742 0.634407
v -4.558046 2.125954 0.633041
v -4.556727 2.125368 0.634010
v -4.556230 2.126742 0.634407
v -4.558046 2.125954 0.633041
v -4.556406 2.128074 0.635117
v -4.557646 2.128625 0.634206
v -4.557755 2.127419 0.633287
v -4.556230 2.126742 0.634407
v -4.556406 2.128074 0.635117
v -4.557755 2.127419 0.633287
v -4.557755 2.127419 0.633287
v -4.559732 2.126060 0.633454
v -4.558046 2.125954 0.633041
v -4.557755 2.127419 0.633287
v -4.559732 2.126060 0.633454
v -4.557646 2.128625 0.634206
v -4.559231 2.128725 0.634595
v -4.559702 2.127542 0.633765
v -4.557755 2.127419 0.633287
v -4.557646 2.128625 0.634206
v -4.559702 2.127542 0.633765
v -4.559702 2.127542 0.633765
v -4.560515 2.125606 0.634939
v -4.559732 2.126060 0.633454
v -4.559702 2.127542 0.633765
v -4.560515 2.125606 0.634939
v -4.559231 2.128725 0.634595
v -4.559968 2.128298 0.635991
v -4.560607 2.127017 0.635481
v -4.559702 2.127542 0.633765
v -4.559231 2.128725 0.634595
v -4.560607 2.127017 0.635481
v -4.560607 2.127017 0.635481
v -4.559806 2.124933 0.636377
v -4.560515 2.125606 0.634939
v -4.560607 2.127017 0.635481
v -4.559806 2.124933 0.636377
v -4.559968 2.128298 0.635991
v -4.559300 2.127666 0.637343
v -4.559787 2.126240 0.637142
v -4.560607 2.127017 0.635481
v -4.559968 2.128298 0.635991
v -4.559787 2.126240 0.637142
v -4.559787 2.126240 0.637142
v -4.557860 2.125796 0.637499
v -4.558138 2.124549 0.636686
v -4.559806 2.124933 0.636377
v -4.559787 2.126240 0.637142
v -4.558138 2.124549 0.636686
v -4.559300 2.127666 0.637343
v -4.557733 2.127304 0.637633
v -4.557860 2.125796 0.637499
v -4.559787 2.126240 0.637142
v -4.559300 2.127666 0.637343
v -4.557860 2.125796 0.637499
v -4.557718 2.128463 0.637396
v -4.556877 2.128582 0.636750
v -4.556444 2.127486 0.636642
v -4.557733 2.127304 0.637633
v -4.557718 2.128463 0.637396
v -4.556444 2.127486 0.636642
v -4.556852 2.128965 0.635754
v -4.556877 2.128582 0.636750
v -4.557662 2.129325 0.635159
v -4.557718 2.128463 0.637396
v -4.557662 2.129325 0.635159
v -4.556877 2.128582 0.636750
v -4.558696 2.129390 0.635413
v -4.557662 2.129325 0.635159
v -4.557718 2.128463 0.637396
v -4.558741 2.128699 0.637207
v -4.558696 2.129390 0.635413
v -4.557718 2.128463 0.637396
v -4.559176 2.129112 0.636324
v -4.558696 2.129390 0.635413
v -4.558741 2.128699 0.637207
v -4.557996 2.119517 0.631900
v -4.559064 2.119992 0.631115
v -4.558029 2.119010 0.633213
v -4.559139 2.118854 0.634067
v -4.558029 2.119010 0.633213
v -4.559064 2.119992 0.631115
v -4.560430 2.120078 0.631450
v -4.559139 2.118854 0.634067
v -4.559064 2.119992 0.631115
v -4.560489 2.119165 0.633817
v -4.559139 2.118854 0.634067
v -4.560430 2.120078 0.631450
v -4.561064 2.119709 0.632652
v -4.560489 2.119165 0.633817
v -4.560430 2.120078 0.631450
vn -0.1460 -0.9218 -0.3590
vn -0.2375 0.6536 0.7186
vn -0.2167 0.9707 -0.1039
vn -0.4371 0.8428 0.3140
vn 0.2319 0.5454 0.8054
vn -0.2168 0.9707 -0.1038
vn -0.2374 0.6536 0.7186
vn 0.2318 0.5454 0.8055
vn 0.2576 0.9408 -0.2202
vn 0.6173 0.5998 0.5090
vn 0.6173 0.5998 0.5091
vn 0.6288 0.7758 0.0526
vn 0.8638 0.1148 0.4906
vn 0.2318 0.5455 0.8054
vn 0.2397 0.0268 0.9705
vn 0.6173 0.5999 0.5090
vn 0.2026 -0.3477 0.9154
vn -0.5200 0.2019 0.8300
vn -0.6289 -0.1560 0.7617
vn 0.2027 -0.3476 0.9155
vn 0.1364 -0.6714 0.7285
vn -0.6290 -0.1560 0.7616
vn -0.6470 -0.4908 0.5836
vn 0.2026 -0.3476 0.9155
vn -0.6289 -0.1559 0.7617
vn -0.6289 -0.1560 0.7616
vn -0.8432 0.5083 0.1748
vn -0.9828 0.1794 0.0445
vn -0.5201 0.2019 0.8299
vn -0.8433 0.5083 0.1748
vn -0.6470 -0.4908 0.5835
vn -0.9828 0.1794 0.0446
vn -0.9803 -0.1748 -0.0920
vn -0.4866 0.7152 -0.5016
vn -0.5924 0.4059 -0.6959
vn -0.4866 0.7153 -0.5016
vn -0.9803 -0.1749 -0.0920
vn -0.6125 0.0386 -0.7895
vn -0.5923 0.4059 -0.6960
vn 0.2813 0.6669 -0.6900
vn 0.2482 0.3531 -0.9021
vn -0.4866 0.7152 -0.5017
vn 0.2813 0.6670 -0.6899
vn 0.2482 0.3530 -0.9021
vn 0.1794 -0.0112 -0.9837
vn 0.8823 0.3998 -0.2484
vn 0.9061 0.0606 -0.4187
vn 0.2814 0.6669 -0.6900
vn 0.1794 -0.0113 -0.9837
vn 0.7991 -0.2868 -0.5284
vn 0.9061 0.0605 -0.4187
vn 0.8858 -0.2513 0.3902
vn 0.8824 0.3997 -0.2484
vn 0.8638 0.1149 0.4906
vn 0.7991 -0.2868 -0.5283
vn 0.7800 -0.5805 0.2336
vn 0.2026 -0.3477 0.9155
vn 0.8858 -0.2512 0.3902
vn 0.7800 -0.5806 0.2336
vn 0.1364 -0.6713 0.7285
vn 0.8122 -0.5172 0.2700
vn 0.1522 -0.6103 0.7774
vn 0.1963 0.0666 -0.9783
vn 0.8318 -0.2159 -0.5114
vn -0.9928 -0.1011 -0.0639
vn -0.6157 0.1177 -0.7791
vn 0.1523 -0.6102 0.7775
vn -0.6510 -0.4252 0.6288
vn 0.1523 -0.6103 0.7774
vn 0.8318 -0.2159 -0.5113
vn 0.1793 -0.0112 -0.9837
vn -0.6510 -0.4251 0.6288
vn -0.9928 -0.1012 -0.0639
vn 0.2576 0.9409 -0.2201
vn 0.2396 0.0268 0.9705
vn 0.2576 0.9408 -0.2201
vn -0.5201 0.2018 0.8299
vn 0.8823 0.3998 -0.2483
vn 0.8823 0.3997 -0.2483
vn 0.2000 -0.3649 0.9093
vn -0.6510 -0.4251 0.6289
vn -0.6320 -0.1731 0.7554
vn 0.9039 0.0435 -0.4255
vn 0.8836 -0.2684 0.3837
vn 0.9039 0.0436 -0.4255
vn -0.5953 0.3891 -0.7030
vn 0.1964 0.0666 -0.9783
vn 0.2456 0.3362 -0.9092
vn -0.9860 0.1624 0.0379
vn 0.8836 -0.2685 0.3837
vn 0.1522 -0.6102 0.7774
vn 0.2001 -0.3649 0.9093
vn 0.8836 -0.2684 0.3838
vn 0.9039 0.0435 -0.4256
vn 0.2457 0.3362 -0.9092
vn -0.5954 0.3891 -0.7029
vn -0.9860 0.1625 0.0379
vt 0.543243 0.635056
vt 0.535370 0.641335
vt 0.537796 0.636299
vt 0.537796 0.646370
vt 0.547607 0.638535
vt 0.543243 0.647614
vt 0.547607 0.644127
vt 0.593674 0.671494
vt 0.598511 0.669548
vt 0.596146 0.672157
vt 0.592773 0.669609
vt 0.596436 0.666756
vt 0.592804 0.667854
vt 0.594147 0.666748
vt 0.591187 0.666855
vt 0.590591 0.669838
vt 0.587372 0.669685
vt 0.591782 0.673050
vt 0.588348 0.674789
vt 0.582382 0.669067
vt 0.582687 0.676537
vt 0.595596 0.675606
vt 0.592606 0.680244
vt 0.586334 0.684982
vt 0.603775 0.674767
vt 0.603561 0.686485
vt 0.594009 0.696274
vt 0.603775 0.658051
vt 0.597107 0.663902
vt 0.596405 0.659698
vt 0.602859 0.665543
vt 0.600342 0.651657
vt 0.594193 0.655174
vt 0.593353 0.664742
vt 0.591705 0.661980
vt 0.588959 0.658463
vt 0.588654 0.665283
vt 0.584778 0.662933
vt 0.580322 0.660286
vt 0.576584 0.668175
vt 0.591812 0.651588
vt 0.585907 0.654999
vt 0.579453 0.688484
vt 0.584915 0.699394
vt 0.576157 0.678001
vt 0.597061 0.648293
vt 0.627350 0.682632
vt 0.649124 0.687675
vt 0.627441 0.688225
vt 0.649033 0.682457
vt 0.627441 0.671455
vt 0.649033 0.677231
vt 0.627350 0.677048
vt 0.649124 0.672005
vt 0.627914 0.660294
vt 0.649292 0.666786
vt 0.627625 0.665871
vt 0.649551 0.661568
vt 0.649292 0.692902
vt 0.627625 0.693810
vt 0.649551 0.698120
vt 0.627914 0.699394
s 0
usemtl decorations
f 240/1/1 239/2/1 238/3/1
f 237/1/1 236/4/1 235/2/1
f 234/5/1 233/4/1 232/1/1
f 231/5/1 230/6/1 229/4/1
f 228/6/1 227/5/1 226/7/1
s 1
f 225/8/2 224/9/3 223/10/4
f 222/11/5 221/9/6 220/8/7
f 219/11/8 218/12/9 217/9/3
f 216/13/10 215/12/9 214/11/8
f 213/12/9 212/13/11 211/14/12
f 210/15/13 209/11/14 208/16/15
f 207/15/13 206/13/16 205/11/14
f 204/17/17 203/18/18 202/19/19
f 201/17/20 200/16/15 199/18/18
f 198/20/21 197/19/22 196/21/23
f 195/20/21 194/17/24 193/19/25
f 192/19/26 191/22/27 190/23/28
f 189/19/19 188/18/29 187/22/30
f 186/21/31 185/23/32 184/24/33
f 183/21/31 3/19/26 182/23/32
f 181/23/28 180/25/34 179/26/35
f 178/23/28 177/22/30 176/25/36
f 175/24/37 174/26/35 173/27/38
f 172/24/37 4/23/28 171/26/35
f 170/28/39 169/29/40 168/30/41
f 167/28/39 166/31/42 165/29/43
f 164/32/38 163/30/44 162/33/45
f 161/32/38 13/28/35 160/30/41
f 159/30/41 158/34/46 157/35/47
f 156/30/41 155/29/48 154/34/46
f 153/33/49 152/35/47 151/36/50
f 150/33/49 14/30/41 149/35/51
f 148/35/51 147/15/13 146/37/52
f 145/35/51 144/34/53 143/15/54
f 142/36/55 141/37/52 140/38/56
f 139/36/55 16/35/51 138/37/52
f 137/37/52 136/16/15 135/17/57
f 134/37/58 133/15/13 132/16/15
f 131/38/59 130/17/57 129/20/60
f 128/38/59 36/37/52 25/17/57
f 127/39/61 126/20/60 125/40/62
f 124/39/61 123/38/56 122/20/60
f 121/41/63 120/36/50 119/42/64
f 118/41/63 117/33/49 116/36/50
f 115/43/65 114/27/38 113/44/66
f 112/43/65 111/24/33 110/27/38
f 109/40/67 108/21/23 107/45/68
f 106/40/69 40/20/21 105/21/23
f 104/42/70 103/38/56 102/39/61
f 101/42/64 41/36/50 42/38/56
f 100/46/66 99/33/71 98/41/63
f 97/46/66 37/32/38 38/33/71
f 96/45/72 95/24/33 94/43/73
f 93/45/72 33/21/23 34/24/33
f 92/29/48 91/14/12 90/34/46
f 89/29/48 88/12/74 87/14/12
f 86/22/27 85/9/6 84/25/36
f 83/22/30 82/10/4 81/9/6
f 80/16/75 79/8/7 78/18/18
f 29/16/75 30/11/5 77/8/7
f 76/31/36 75/12/9 28/29/43
f 31/31/36 26/9/6 27/12/76
f 74/18/29 73/10/4 24/22/30
f 21/18/77 22/8/7 23/10/4
f 72/34/78 71/13/10 20/15/13
f 17/34/79 18/14/12 19/13/16
f 70/47/80 69/48/81 68/49/82
f 67/47/80 66/50/69 65/48/72
f 64/51/83 63/52/61 62/53/84
f 61/51/85 60/54/70 59/52/61
f 58/55/86 57/56/87 56/57/88
f 55/55/86 54/58/66 53/56/63
f 52/49/82 51/59/65 50/60/89
f 2/49/82 32/48/72 49/59/65
f 48/53/90 47/50/91 12/47/92
f 9/53/93 10/52/61 11/50/62
f 46/57/88 45/54/70 8/51/94
f 5/57/95 6/56/87 7/54/64
f 44/60/89 43/61/66 15/62/96
f 1/60/97 35/59/73 39/61/66
