# Blender 5.0.0
# www.blender.org
mtllib Circle_002_Circle_Dupli_127_decorations_0.mtl
o Circle.002|Circle|Dupli|127_decorations_0
v -4.717777 0.608070 0.477465
v -4.717320 0.608504 0.476206
v -4.714867 0.615364 0.479125
v -4.715518 0.614745 0.480922
v -4.720232 0.608713 0.477429
v -4.718898 0.613591 0.479501
v -4.719038 0.614145 0.478316
v -4.720381 0.609307 0.476160
v -4.719409 0.609496 0.475159
v -4.718129 0.614322 0.477380
v -4.716855 0.613988 0.477399
v -4.718047 0.609139 0.475180
v -4.717366 0.614878 0.481698
v -4.719020 0.615663 0.480870
v -4.719073 0.608163 0.478010
v -4.719234 0.616510 0.479060
v -4.718505 0.617667 0.479723
v -4.717679 0.618330 0.480251
v -4.716942 0.618473 0.479492
v -4.717376 0.617887 0.478561
v -4.714952 0.616735 0.479776
v -4.715360 0.617721 0.480285
v -4.715706 0.617392 0.481239
v -4.715482 0.616231 0.481238
v -4.715903 0.616270 0.477660
v -4.716688 0.617463 0.481652
v -4.717566 0.617880 0.481212
v -4.718331 0.616978 0.481196
v -4.715795 0.617472 0.478584
v -4.715910 0.618202 0.479507
v -4.716986 0.616339 0.481870
v -4.716177 0.613395 0.478358
v -4.715506 0.614094 0.478606
v -4.716070 0.613558 0.480161
v -4.716603 0.612989 0.479535
v -4.717846 0.616780 0.477632
v -4.717669 0.613673 0.480833
v -4.719101 0.614352 0.480116
v -4.717814 0.613076 0.480044
v -4.716403 0.614878 0.477338
v -4.719285 0.615085 0.478550
v -4.718085 0.615319 0.477313
v -4.717814 0.613076 0.480044
v -4.717777 0.608070 0.477465
v -4.719038 0.614145 0.478316
v -4.720232 0.608713 0.477429
v -4.716855 0.613988 0.477399
v -4.719409 0.609496 0.475159
v -4.716603 0.612989 0.479535
v -4.717777 0.608070 0.477465
v -4.716603 0.612989 0.479535
v -4.717320 0.608504 0.476206
v -4.718898 0.613591 0.479501
v -4.717814 0.613076 0.480044
v -4.719073 0.608163 0.478010
v -4.720232 0.608713 0.477429
v -4.718898 0.613591 0.479501
v -4.719073 0.608163 0.478010
v -4.718129 0.614322 0.477380
v -4.719038 0.614145 0.478316
v -4.720381 0.609307 0.476160
v -4.719409 0.609496 0.475159
v -4.718129 0.614322 0.477380
v -4.720381 0.609307 0.476160
v -4.716177 0.613395 0.478358
v -4.716855 0.613988 0.477399
v -4.718047 0.609139 0.475180
v -4.717320 0.608504 0.476206
v -4.716177 0.613395 0.478358
v -4.718047 0.609139 0.475180
v -4.716942 0.618473 0.479492
v -4.718505 0.617667 0.479723
v -4.715706 0.617392 0.481239
v -4.714952 0.616735 0.479776
v -4.717566 0.617880 0.481212
v -4.716986 0.616339 0.481870
v -4.715360 0.617721 0.480285
v -4.714952 0.616735 0.479776
v -4.715360 0.617721 0.480285
v -4.715795 0.617472 0.478584
v -4.716688 0.617463 0.481652
v -4.715706 0.617392 0.481239
v -4.715482 0.616231 0.481238
v -4.716986 0.616339 0.481870
v -4.716688 0.617463 0.481652
v -4.715482 0.616231 0.481238
v -4.717679 0.618330 0.480251
v -4.717566 0.617880 0.481212
v -4.718331 0.616978 0.481196
v -4.718505 0.617667 0.479723
v -4.717679 0.618330 0.480251
v -4.718331 0.616978 0.481196
v -4.716177 0.613395 0.478358
v -4.716603 0.612989 0.479535
v -4.716070 0.613558 0.480161
v -4.716177 0.613395 0.478358
v -4.717814 0.613076 0.480044
v -4.718898 0.613591 0.479501
v -4.719101 0.614352 0.480116
v -4.717814 0.613076 0.480044
v -4.719038 0.614145 0.478316
v -4.718129 0.614322 0.477380
v -4.718085 0.615319 0.477313
v -4.719038 0.614145 0.478316
v -4.715506 0.614094 0.478606
v -4.716855 0.613988 0.477399
v -4.716177 0.613395 0.478358
v -4.715506 0.614094 0.478606
v -4.716855 0.613988 0.477399
v -4.717669 0.613673 0.480833
v -4.716070 0.613558 0.480161
v -4.716603 0.612989 0.479535
v -4.717814 0.613076 0.480044
v -4.717669 0.613673 0.480833
v -4.716603 0.612989 0.479535
v -4.719285 0.615085 0.478550
v -4.719101 0.614352 0.480116
v -4.718898 0.613591 0.479501
v -4.719038 0.614145 0.478316
v -4.719285 0.615085 0.478550
v -4.718898 0.613591 0.479501
v -4.716403 0.614878 0.477338
v -4.718085 0.615319 0.477313
v -4.718129 0.614322 0.477380
v -4.716855 0.613988 0.477399
v -4.716403 0.614878 0.477338
v -4.718129 0.614322 0.477380
v -4.718085 0.615319 0.477313
v -4.716403 0.614878 0.477338
v -4.715903 0.616270 0.477660
v -4.718085 0.615319 0.477313
v -4.715795 0.617472 0.478584
v -4.717376 0.617887 0.478561
v -4.717846 0.616780 0.477632
v -4.715903 0.616270 0.477660
v -4.715795 0.617472 0.478584
v -4.717846 0.616780 0.477632
v -4.717846 0.616780 0.477632
v -4.719285 0.615085 0.478550
v -4.718085 0.615319 0.477313
v -4.717846 0.616780 0.477632
v -4.719285 0.615085 0.478550
v -4.717376 0.617887 0.478561
v -4.718505 0.617667 0.479723
v -4.719234 0.616510 0.479060
v -4.717846 0.616780 0.477632
v -4.717376 0.617887 0.478561
v -4.719234 0.616510 0.479060
v -4.719234 0.616510 0.479060
v -4.719101 0.614352 0.480116
v -4.719285 0.615085 0.478550
v -4.719234 0.616510 0.479060
v -4.719101 0.614352 0.480116
v -4.718505 0.617667 0.479723
v -4.718331 0.616978 0.481196
v -4.719020 0.615663 0.480870
v -4.719234 0.616510 0.479060
v -4.718505 0.617667 0.479723
v -4.719020 0.615663 0.480870
v -4.719020 0.615663 0.480870
v -4.717669 0.613673 0.480833
v -4.719101 0.614352 0.480116
v -4.719020 0.615663 0.480870
v -4.717669 0.613673 0.480833
v -4.718331 0.616978 0.481196
v -4.716986 0.616339 0.481870
v -4.717366 0.614878 0.481698
v -4.719020 0.615663 0.480870
v -4.718331 0.616978 0.481196
v -4.717366 0.614878 0.481698
v -4.717366 0.614878 0.481698
v -4.716070 0.613558 0.480161
v -4.717669 0.613673 0.480833
v -4.717366 0.614878 0.481698
v -4.716070 0.613558 0.480161
v -4.716986 0.616339 0.481870
v -4.715482 0.616231 0.481238
v -4.715518 0.614745 0.480922
v -4.717366 0.614878 0.481698
v -4.716986 0.616339 0.481870
v -4.715518 0.614745 0.480922
v -4.715518 0.614745 0.480922
v -4.715506 0.614094 0.478606
v -4.716070 0.613558 0.480161
v -4.715518 0.614745 0.480922
v -4.715506 0.614094 0.478606
v -4.715482 0.616231 0.481238
v -4.714952 0.616735 0.479776
v -4.714867 0.615364 0.479125
v -4.715518 0.614745 0.480922
v -4.715482 0.616231 0.481238
v -4.714867 0.615364 0.479125
v -4.714867 0.615364 0.479125
v -4.715903 0.616270 0.477660
v -4.716403 0.614878 0.477338
v -4.715506 0.614094 0.478606
v -4.714867 0.615364 0.479125
v -4.716403 0.614878 0.477338
v -4.714952 0.616735 0.479776
v -4.715795 0.617472 0.478584
v -4.715903 0.616270 0.477660
v -4.714867 0.615364 0.479125
v -4.714952 0.616735 0.479776
v -4.715903 0.616270 0.477660
v -4.715910 0.618202 0.479507
v -4.716942 0.618473 0.479492
v -4.717376 0.617887 0.478561
v -4.715795 0.617472 0.478584
v -4.715910 0.618202 0.479507
v -4.717376 0.617887 0.478561
v -4.717679 0.618330 0.480251
v -4.716942 0.618473 0.479492
v -4.717566 0.617880 0.481212
v -4.715910 0.618202 0.479507
v -4.717566 0.617880 0.481212
v -4.716942 0.618473 0.479492
v -4.716688 0.617463 0.481652
v -4.717566 0.617880 0.481212
v -4.715910 0.618202 0.479507
v -4.715360 0.617721 0.480285
v -4.716688 0.617463 0.481652
v -4.715910 0.618202 0.479507
v -4.715706 0.617392 0.481239
v -4.716688 0.617463 0.481652
v -4.715360 0.617721 0.480285
v -4.720381 0.609307 0.476160
v -4.720232 0.608713 0.477429
v -4.719409 0.609496 0.475159
v -4.718047 0.609139 0.475180
v -4.719409 0.609496 0.475159
v -4.720232 0.608713 0.477429
v -4.719073 0.608163 0.478010
v -4.718047 0.609139 0.475180
v -4.720232 0.608713 0.477429
v -4.717320 0.608504 0.476206
v -4.718047 0.609139 0.475180
v -4.719073 0.608163 0.478010
v -4.717777 0.608070 0.477465
v -4.717320 0.608504 0.476206
v -4.719073 0.608163 0.478010
vn -0.2281 -0.8920 -0.3902
vn 0.7341 0.6442 0.2147
vn 0.1253 0.5257 0.8414
vn 0.5755 0.4933 0.6523
vn 0.4818 0.8647 -0.1419
vn 0.7341 0.6442 0.2146
vn 0.4819 0.8647 -0.1419
vn -0.2773 0.7170 0.6396
vn 0.0086 0.9888 -0.1490
vn -0.2773 0.7169 0.6396
vn -0.3293 0.9231 0.1988
vn -0.1980 0.7723 -0.6037
vn 0.5681 0.5714 -0.5922
vn -0.1980 0.7722 -0.6037
vn 0.0086 0.9888 -0.1489
vn 0.5286 0.2606 -0.8079
vn 0.9766 0.2143 -0.0150
vn 0.9758 -0.1301 -0.1760
vn 0.5682 0.5713 -0.5922
vn 0.9766 0.2144 -0.0150
vn 0.4129 -0.0872 -0.9066
vn 0.9758 -0.1302 -0.1759
vn 0.8341 -0.4553 -0.3113
vn 0.9758 -0.1301 -0.1759
vn 0.9758 -0.1302 -0.1760
vn 0.7198 -0.0299 0.6935
vn 0.6946 -0.3975 0.5995
vn 0.9767 0.2143 -0.0149
vn 0.8341 -0.4554 -0.3113
vn 0.6947 -0.3975 0.5995
vn 0.5693 -0.7072 0.4193
vn 0.6946 -0.3975 0.5996
vn -0.0089 0.0225 0.9997
vn -0.1031 -0.3401 0.9347
vn 0.5692 -0.7072 0.4192
vn -0.1031 -0.3402 0.9347
vn -0.1822 -0.6531 0.7350
vn -0.1032 -0.3402 0.9347
vn -0.6609 0.3321 0.6730
vn -0.8166 -0.0012 0.5771
vn -0.0090 0.0225 0.9997
vn -0.6608 0.3322 0.6730
vn -0.1823 -0.6532 0.7350
vn -0.8167 -0.0013 0.5771
vn -0.8544 -0.3338 0.3982
vn -0.1823 -0.6531 0.7350
vn -0.8166 -0.0012 0.5772
vn -0.8167 -0.0012 0.5771
vn -0.7450 0.6658 -0.0405
vn -0.9088 0.3640 -0.2040
vn -0.8544 -0.3339 0.3981
vn -0.9412 0.0102 -0.3377
vn -0.1981 0.7723 -0.6036
vn -0.3101 0.4805 -0.8203
vn -0.7450 0.6658 -0.0406
vn -0.3772 0.1200 -0.9183
vn -0.3100 0.4805 -0.8204
vn 0.5682 0.5713 -0.5923
vn -0.3100 0.4806 -0.8203
vn -0.1980 0.7723 -0.6036
vn -0.3101 0.4806 -0.8203
vn -0.3674 0.1987 -0.9086
vn 0.4427 -0.0138 -0.8965
vn -0.3674 0.1986 -0.9086
vn -0.8568 -0.2667 0.4413
vn -0.9458 0.0861 -0.3132
vn 0.6031 -0.6495 0.4630
vn -0.1675 -0.5941 0.7867
vn 0.6031 -0.6496 0.4630
vn 0.4428 -0.0138 -0.8965
vn 0.8746 -0.3913 -0.2862
vn -0.1675 -0.5941 0.7868
vn -0.8544 -0.3339 0.3982
vn 0.8747 -0.3913 -0.2861
vn 0.7198 -0.0299 0.6936
vn 0.5755 0.4933 0.6522
vn 0.1254 0.5257 0.8414
vn 0.4818 0.8647 -0.1420
vn -0.0090 0.0226 0.9997
vn 0.9767 0.2143 -0.0150
vn -0.7450 0.6659 -0.0405
vn 0.5247 0.2442 -0.8155
vn 0.9720 -0.1467 -0.1833
vn 0.5247 0.2443 -0.8155
vn 0.4427 -0.0138 -0.8966
vn -0.9135 0.3477 -0.2113
vn -0.3145 0.4643 -0.8280
vn -0.9135 0.3478 -0.2113
vn -0.1074 -0.3568 0.9280
vn -0.8213 -0.0177 0.5702
vn -0.1675 -0.5942 0.7867
vn 0.9721 -0.1468 -0.1832
vn 0.6908 -0.4142 0.5926
vn 0.9721 -0.1467 -0.1832
vn -0.3144 0.4643 -0.8280
vn 0.6908 -0.4143 0.5926
vn 0.6908 -0.4142 0.5927
vt 0.543243 0.611839
vt 0.535370 0.618118
vt 0.537796 0.613083
vt 0.537796 0.623154
vt 0.547607 0.615326
vt 0.543243 0.624397
vt 0.547607 0.620918
vt 0.565384 0.671494
vt 0.570206 0.669548
vt 0.567856 0.672157
vt 0.564468 0.669609
vt 0.568146 0.666756
vt 0.564514 0.667854
vt 0.565857 0.666748
vt 0.562897 0.666855
vt 0.562302 0.669838
vt 0.559082 0.669685
vt 0.563492 0.673050
vt 0.560059 0.674789
vt 0.554092 0.669067
vt 0.554398 0.676537
vt 0.567307 0.675606
vt 0.564316 0.680244
vt 0.558044 0.684982
vt 0.575485 0.674767
vt 0.575272 0.686485
vt 0.565720 0.696274
vt 0.575485 0.658051
vt 0.568817 0.663902
vt 0.568115 0.659698
vt 0.574570 0.665543
vt 0.572052 0.651657
vt 0.565903 0.655174
vt 0.565063 0.664742
vt 0.563416 0.661980
vt 0.560669 0.658463
vt 0.560364 0.665283
vt 0.556488 0.662933
vt 0.552032 0.660286
vt 0.548294 0.668175
vt 0.563522 0.651588
vt 0.557617 0.654999
vt 0.551163 0.688484
vt 0.556610 0.699394
vt 0.547867 0.678001
vt 0.568756 0.648293
vt 0.604446 0.682632
vt 0.626221 0.687675
vt 0.604553 0.688225
vt 0.626144 0.682457
vt 0.604553 0.671455
vt 0.626144 0.677231
vt 0.604446 0.677048
vt 0.626221 0.672005
vt 0.605011 0.660294
vt 0.626404 0.666786
vt 0.604736 0.665871
vt 0.626663 0.661568
vt 0.626404 0.692902
vt 0.604736 0.693810
vt 0.626663 0.698120
vt 0.605011 0.699394
s 0
usemtl decorations
f 240/1/1 239/2/1 238/3/1
f 237/1/1 236/4/1 235/2/1
f 234/5/1 233/4/1 232/1/1
f 231/5/1 230/6/1 229/4/1
f 228/6/1 227/5/1 226/7/1
s 1
f 225/8/2 224/9/3 223/10/4
f 222/11/5 221/9/3 220/8/6
f 219/11/7 218/12/8 217/9/3
f 216/13/9 215/12/10 214/11/7
f 213/12/8 212/13/9 211/14/11
f 210/15/12 209/11/5 208/16/13
f 207/15/14 206/13/15 205/11/5
f 204/17/16 203/18/17 202/19/18
f 201/17/16 200/16/19 199/18/20
f 198/20/21 197/19/22 196/21/23
f 195/20/21 194/17/16 193/19/24
f 192/19/25 191/22/26 190/23/27
f 189/19/18 188/18/28 187/22/26
f 186/21/29 185/23/30 184/24/31
f 183/21/29 3/19/25 182/23/30
f 181/23/32 180/25/33 179/26/34
f 178/23/32 177/22/26 176/25/33
f 175/24/35 174/26/36 173/27/37
f 172/24/31 4/23/32 171/26/36
f 170/28/38 169/29/39 168/30/40
f 167/28/36 166/31/41 165/29/42
f 164/32/43 163/30/44 162/33/45
f 161/32/46 13/28/36 160/30/47
f 159/30/48 158/34/49 157/35/50
f 156/30/48 155/29/39 154/34/49
f 153/33/51 152/35/50 151/36/52
f 150/33/51 14/30/48 149/35/50
f 148/35/50 147/15/53 146/37/54
f 145/35/50 144/34/55 143/15/53
f 142/36/52 141/37/54 140/38/56
f 139/36/52 16/35/50 138/37/54
f 137/37/57 136/16/58 135/17/16
f 134/37/59 133/15/60 132/16/13
f 131/38/56 130/17/16 129/20/21
f 128/38/56 36/37/61 25/17/16
f 127/39/62 126/20/21 125/40/63
f 124/39/64 123/38/56 122/20/21
f 121/41/65 120/36/52 119/42/66
f 118/41/65 117/33/51 116/36/52
f 115/43/67 114/27/37 113/44/68
f 112/43/69 111/24/31 110/27/37
f 109/40/70 108/21/23 107/45/71
f 106/40/63 40/20/21 105/21/23
f 104/42/66 103/38/56 102/39/64
f 101/42/66 41/36/52 42/38/56
f 100/46/72 99/33/73 98/41/65
f 97/46/68 37/32/46 38/33/73
f 96/45/74 95/24/31 94/43/69
f 93/45/74 33/21/23 34/24/31
f 92/29/39 91/14/11 90/34/49
f 89/29/39 88/12/8 87/14/11
f 86/22/75 85/9/3 84/25/33
f 83/22/75 82/10/76 81/9/77
f 80/16/19 79/8/2 78/18/20
f 29/16/19 30/11/78 77/8/2
f 76/31/79 75/12/8 28/29/42
f 31/31/41 26/9/77 27/12/8
f 74/18/80 73/10/4 24/22/26
f 21/18/80 22/8/2 23/10/76
f 72/34/81 71/13/9 20/15/60
f 17/34/49 18/14/11 19/13/15
f 70/47/82 69/48/74 68/49/83
f 67/47/84 66/50/85 65/48/71
f 64/51/86 63/52/62 62/53/87
f 61/51/88 60/54/66 59/52/64
f 58/55/89 57/56/65 56/57/90
f 55/55/89 54/58/91 53/56/65
f 52/49/92 51/59/67 50/60/93
f 2/49/94 32/48/71 49/59/69
f 48/53/95 47/50/70 12/47/84
f 9/53/95 10/52/62 11/50/63
f 46/57/90 45/54/66 8/51/86
f 5/57/90 6/56/65 7/54/66
f 44/60/96 43/61/72 15/62/89
f 1/60/97 35/59/69 39/61/68
