# Blender 5.0.0
# www.blender.org
mtllib Circle_005_Circle_001_Dupli_166_decorations_0.mtl
o Circle.005|Circle.001|Dupli|166_decorations_0
v -4.648076 0.862472 0.760356
v -4.647962 0.861077 0.760201
v -4.655484 0.860399 0.758064
v -4.655646 0.862389 0.758286
v -4.648574 0.862726 0.762832
v -4.653908 0.862332 0.761714
v -4.653917 0.861087 0.762140
v -4.648583 0.861393 0.763287
v -4.648369 0.860212 0.762551
v -4.653717 0.859982 0.761452
v -4.653459 0.859851 0.760168
v -4.648093 0.860071 0.761178
v -4.656035 0.863436 0.759956
v -4.656357 0.862751 0.761818
v -4.648348 0.863206 0.761527
v -4.656371 0.860850 0.762468
v -4.657720 0.860818 0.761769
v -4.658565 0.860842 0.760942
v -4.658403 0.859947 0.760385
v -4.657471 0.859447 0.760915
v -4.656998 0.860451 0.758185
v -4.658094 0.860602 0.758603
v -4.658181 0.861659 0.758721
v -4.657130 0.862071 0.758366
v -4.655671 0.858964 0.759458
v -4.658387 0.862215 0.759608
v -4.658558 0.861851 0.760597
v -4.657709 0.862365 0.761240
v -4.657150 0.859283 0.759320
v -4.658194 0.859840 0.759344
v -4.657446 0.862923 0.759725
v -4.653337 0.860791 0.759254
v -4.654095 0.860585 0.758636
v -4.654235 0.862308 0.758828
v -4.653443 0.862095 0.759400
v -4.656065 0.859165 0.761418
v -4.654571 0.863214 0.760274
v -4.654850 0.862621 0.761885
v -4.653697 0.862781 0.760494
v -4.654256 0.859343 0.759843
v -4.654861 0.860976 0.762448
v -4.654597 0.859517 0.761539
v -4.653697 0.862781 0.760494
v -4.648076 0.862472 0.760356
v -4.653917 0.861087 0.762140
v -4.648574 0.862726 0.762832
v -4.653459 0.859851 0.760168
v -4.648369 0.860212 0.762551
v -4.653443 0.862095 0.759400
v -4.648076 0.862472 0.760356
v -4.653443 0.862095 0.759400
v -4.647962 0.861077 0.760201
v -4.653908 0.862332 0.761714
v -4.653697 0.862781 0.760494
v -4.648348 0.863206 0.761527
v -4.648574 0.862726 0.762832
v -4.653908 0.862332 0.761714
v -4.648348 0.863206 0.761527
v -4.653717 0.859982 0.761452
v -4.653917 0.861087 0.762140
v -4.648583 0.861393 0.763287
v -4.648369 0.860212 0.762551
v -4.653717 0.859982 0.761452
v -4.648583 0.861393 0.763287
v -4.653337 0.860791 0.759254
v -4.653459 0.859851 0.760168
v -4.648093 0.860071 0.761178
v -4.647962 0.861077 0.760201
v -4.653337 0.860791 0.759254
v -4.648093 0.860071 0.761178
v -4.658403 0.859947 0.760385
v -4.657720 0.860818 0.761769
v -4.658181 0.861659 0.758721
v -4.656998 0.860451 0.758185
v -4.658558 0.861851 0.760597
v -4.657446 0.862923 0.759725
v -4.658094 0.860602 0.758603
v -4.656998 0.860451 0.758185
v -4.658094 0.860602 0.758603
v -4.657150 0.859283 0.759320
v -4.658387 0.862215 0.759608
v -4.658181 0.861659 0.758721
v -4.657130 0.862071 0.758366
v -4.657446 0.862923 0.759725
v -4.658387 0.862215 0.759608
v -4.657130 0.862071 0.758366
v -4.658565 0.860842 0.760942
v -4.658558 0.861851 0.760597
v -4.657709 0.862365 0.761240
v -4.657720 0.860818 0.761769
v -4.658565 0.860842 0.760942
v -4.657709 0.862365 0.761240
v -4.653337 0.860791 0.759254
v -4.653443 0.862095 0.759400
v -4.654235 0.862308 0.758828
v -4.653337 0.860791 0.759254
v -4.653697 0.862781 0.760494
v -4.653908 0.862332 0.761714
v -4.654850 0.862621 0.761885
v -4.653697 0.862781 0.760494
v -4.653917 0.861087 0.762140
v -4.653717 0.859982 0.761452
v -4.654597 0.859517 0.761539
v -4.653917 0.861087 0.762140
v -4.654095 0.860585 0.758636
v -4.653459 0.859851 0.760168
v -4.653337 0.860791 0.759254
v -4.654095 0.860585 0.758636
v -4.653459 0.859851 0.760168
v -4.654571 0.863214 0.760274
v -4.654235 0.862308 0.758828
v -4.653443 0.862095 0.759400
v -4.653697 0.862781 0.760494
v -4.654571 0.863214 0.760274
v -4.653443 0.862095 0.759400
v -4.654861 0.860976 0.762448
v -4.654850 0.862621 0.761885
v -4.653908 0.862332 0.761714
v -4.653917 0.861087 0.762140
v -4.654861 0.860976 0.762448
v -4.653908 0.862332 0.761714
v -4.654256 0.859343 0.759843
v -4.654597 0.859517 0.761539
v -4.653717 0.859982 0.761452
v -4.653459 0.859851 0.760168
v -4.654256 0.859343 0.759843
v -4.653717 0.859982 0.761452
v -4.654597 0.859517 0.761539
v -4.654256 0.859343 0.759843
v -4.655671 0.858964 0.759458
v -4.654597 0.859517 0.761539
v -4.657150 0.859283 0.759320
v -4.657471 0.859447 0.760915
v -4.656065 0.859165 0.761418
v -4.655671 0.858964 0.759458
v -4.657150 0.859283 0.759320
v -4.656065 0.859165 0.761418
v -4.656065 0.859165 0.761418
v -4.654861 0.860976 0.762448
v -4.654597 0.859517 0.761539
v -4.656065 0.859165 0.761418
v -4.654861 0.860976 0.762448
v -4.657471 0.859447 0.760915
v -4.657720 0.860818 0.761769
v -4.656371 0.860850 0.762468
v -4.656065 0.859165 0.761418
v -4.657471 0.859447 0.760915
v -4.656371 0.860850 0.762468
v -4.656371 0.860850 0.762468
v -4.654850 0.862621 0.761885
v -4.654861 0.860976 0.762448
v -4.656371 0.860850 0.762468
v -4.654850 0.862621 0.761885
v -4.657720 0.860818 0.761769
v -4.657709 0.862365 0.761240
v -4.656357 0.862751 0.761818
v -4.656371 0.860850 0.762468
v -4.657720 0.860818 0.761769
v -4.656357 0.862751 0.761818
v -4.656357 0.862751 0.761818
v -4.654571 0.863214 0.760274
v -4.654850 0.862621 0.761885
v -4.656357 0.862751 0.761818
v -4.654571 0.863214 0.760274
v -4.657709 0.862365 0.761240
v -4.657446 0.862923 0.759725
v -4.656035 0.863436 0.759956
v -4.656357 0.862751 0.761818
v -4.657709 0.862365 0.761240
v -4.656035 0.863436 0.759956
v -4.656035 0.863436 0.759956
v -4.654235 0.862308 0.758828
v -4.654571 0.863214 0.760274
v -4.656035 0.863436 0.759956
v -4.654235 0.862308 0.758828
v -4.657446 0.862923 0.759725
v -4.657130 0.862071 0.758366
v -4.655646 0.862389 0.758286
v -4.656035 0.863436 0.759956
v -4.657446 0.862923 0.759725
v -4.655646 0.862389 0.758286
v -4.655646 0.862389 0.758286
v -4.654095 0.860585 0.758636
v -4.654235 0.862308 0.758828
v -4.655646 0.862389 0.758286
v -4.654095 0.860585 0.758636
v -4.657130 0.862071 0.758366
v -4.656998 0.860451 0.758185
v -4.655484 0.860399 0.758064
v -4.655646 0.862389 0.758286
v -4.657130 0.862071 0.758366
v -4.655484 0.860399 0.758064
v -4.655484 0.860399 0.758064
v -4.655671 0.858964 0.759458
v -4.654256 0.859343 0.759843
v -4.654095 0.860585 0.758636
v -4.655484 0.860399 0.758064
v -4.654256 0.859343 0.759843
v -4.656998 0.860451 0.758185
v -4.657150 0.859283 0.759320
v -4.655671 0.858964 0.759458
v -4.655484 0.860399 0.758064
v -4.656998 0.860451 0.758185
v -4.655671 0.858964 0.759458
v -4.658194 0.859840 0.759344
v -4.658403 0.859947 0.760385
v -4.657471 0.859447 0.760915
v -4.657150 0.859283 0.759320
v -4.658194 0.859840 0.759344
v -4.657471 0.859447 0.760915
v -4.658565 0.860842 0.760942
v -4.658403 0.859947 0.760385
v -4.658558 0.861851 0.760597
v -4.658194 0.859840 0.759344
v -4.658558 0.861851 0.760597
v -4.658403 0.859947 0.760385
v -4.658387 0.862215 0.759608
v -4.658558 0.861851 0.760597
v -4.658194 0.859840 0.759344
v -4.658094 0.860602 0.758603
v -4.658387 0.862215 0.759608
v -4.658194 0.859840 0.759344
v -4.658181 0.861659 0.758721
v -4.658387 0.862215 0.759608
v -4.658094 0.860602 0.758603
v -4.648583 0.861393 0.763287
v -4.648574 0.862726 0.762832
v -4.648369 0.860212 0.762551
v -4.648093 0.860071 0.761178
v -4.648369 0.860212 0.762551
v -4.648574 0.862726 0.762832
v -4.648348 0.863206 0.761527
v -4.648093 0.860071 0.761178
v -4.648574 0.862726 0.762832
v -4.647962 0.861077 0.760201
v -4.648093 0.860071 0.761178
v -4.648348 0.863206 0.761527
v -4.648076 0.862472 0.760356
v -4.647962 0.861077 0.760201
v -4.648348 0.863206 0.761527
vn 0.9798 0.0585 0.1912
vn -0.6965 -0.2278 -0.6804
vn -0.8306 0.5118 -0.2195
vn -0.7360 0.2568 -0.6264
vn -0.7419 -0.5774 -0.3409
vn -0.8306 0.5118 -0.2196
vn -0.6965 -0.2279 -0.6804
vn -0.7419 -0.5774 -0.3410
vn -0.9091 0.3450 0.2337
vn -0.8379 -0.5285 0.1364
vn -0.8379 -0.5285 0.1363
vn -0.9123 -0.1180 0.3921
vn -0.4464 -0.8013 0.3983
vn -0.2910 -0.8804 -0.3744
vn -0.8380 -0.5284 0.1363
vn -0.7419 -0.5773 -0.3409
vn 0.0823 -0.9398 -0.3316
vn -0.2175 -0.3146 -0.9240
vn 0.1626 -0.3205 -0.9332
vn 0.0822 -0.9398 -0.3316
vn -0.2909 -0.8804 -0.3744
vn -0.2175 -0.3147 -0.9239
vn 0.4429 -0.8635 -0.2411
vn 0.5186 -0.2801 -0.8078
vn -0.2814 0.4701 -0.8365
vn 0.0927 0.5385 -0.8375
vn 0.5187 -0.2800 -0.8078
vn 0.4527 0.5291 -0.7177
vn -0.4345 0.8829 -0.1780
vn -0.0749 0.9903 -0.1166
vn -0.2814 0.4702 -0.8365
vn 0.4528 0.5291 -0.7176
vn -0.0749 0.9904 -0.1166
vn 0.2948 0.9548 -0.0385
vn -0.0749 0.9904 -0.1165
vn -0.5616 0.6129 0.5559
vn -0.2140 0.6948 0.6866
vn -0.4345 0.8829 -0.1779
vn 0.2949 0.9548 -0.0385
vn -0.2140 0.6948 0.6867
vn 0.1638 0.6763 0.7182
vn -0.2141 0.6948 0.6866
vn -0.5669 -0.1366 0.8123
vn -0.2198 -0.1257 0.9674
vn 0.1639 0.6763 0.7182
vn 0.1583 -0.0966 0.9827
vn -0.4465 -0.8012 0.3984
vn -0.0880 -0.8531 0.5142
vn -0.5669 -0.1367 0.8124
vn 0.1584 -0.0966 0.9826
vn 0.2825 -0.7819 0.5558
vn -0.0880 -0.8532 0.5142
vn -0.2909 -0.8805 -0.3744
vn -0.0881 -0.8531 0.5142
vn -0.4465 -0.8012 0.3983
vn 0.2826 -0.7819 0.5557
vn 0.4429 -0.8636 -0.2411
vn 0.2067 -0.8067 0.5536
vn 0.3711 -0.8904 -0.2634
vn 0.2825 -0.7819 0.5557
vn 0.0849 0.6885 0.7202
vn 0.0793 -0.1040 0.9914
vn 0.3812 0.5376 -0.7521
vn 0.2193 0.9741 -0.0557
vn 0.4528 0.5291 -0.7177
vn 0.3711 -0.8905 -0.2634
vn 0.4488 -0.2922 -0.8445
vn 0.1583 -0.0966 0.9826
vn 0.1638 0.6763 0.7181
vn 0.0850 0.6885 0.7202
vn -0.5616 0.6128 0.5559
vn -0.5669 -0.1366 0.8124
vn -0.9091 0.3450 0.2336
vn -0.4346 0.8829 -0.1779
vn -0.2174 -0.3146 -0.9240
vn -0.5669 -0.1367 0.8123
vn 0.1004 -0.9392 -0.3283
vn 0.4487 -0.2922 -0.8445
vn 0.1808 -0.3196 -0.9301
vn 0.1003 -0.9392 -0.3283
vn -0.2018 -0.1247 0.9714
vn -0.0700 -0.8525 0.5181
vn -0.2019 -0.1247 0.9714
vn -0.0569 0.9920 -0.1130
vn -0.1960 0.6963 0.6905
vn -0.0569 0.9920 -0.1131
vn 0.1808 -0.3195 -0.9302
vn 0.1109 0.5398 -0.8344
vn 0.1808 -0.3196 -0.9302
vn -0.0699 -0.8525 0.5180
vn 0.3711 -0.8904 -0.2635
vn 0.1004 -0.9392 -0.3282
vn -0.0700 -0.8525 0.5180
vn -0.1960 0.6962 0.6905
vn -0.1961 0.6962 0.6905
vn 0.1109 0.5399 -0.8344
vn 0.1108 0.5399 -0.8344
vt 0.543243 0.635056
vt 0.535370 0.641335
vt 0.537796 0.636299
vt 0.537796 0.646370
vt 0.547607 0.638535
vt 0.543243 0.647614
vt 0.547607 0.644127
vt 0.593674 0.671494
vt 0.598511 0.669548
vt 0.596146 0.672157
vt 0.592773 0.669609
vt 0.596436 0.666756
vt 0.592804 0.667854
vt 0.594147 0.666748
vt 0.591187 0.666855
vt 0.590591 0.669838
vt 0.587372 0.669685
vt 0.591782 0.673050
vt 0.588348 0.674789
vt 0.582382 0.669067
vt 0.582687 0.676537
vt 0.595596 0.675606
vt 0.592606 0.680244
vt 0.586334 0.684982
vt 0.603775 0.674767
vt 0.603561 0.686485
vt 0.594009 0.696274
vt 0.603775 0.658051
vt 0.597107 0.663902
vt 0.596405 0.659698
vt 0.602859 0.665543
vt 0.600342 0.651657
vt 0.594193 0.655174
vt 0.593353 0.664742
vt 0.591705 0.661980
vt 0.588959 0.658463
vt 0.588654 0.665283
vt 0.584778 0.662933
vt 0.580322 0.660286
vt 0.576584 0.668175
vt 0.591812 0.651588
vt 0.585907 0.654999
vt 0.579453 0.688484
vt 0.584915 0.699394
vt 0.576157 0.678001
vt 0.597061 0.648293
vt 0.627350 0.682632
vt 0.649124 0.687675
vt 0.627441 0.688225
vt 0.649033 0.682457
vt 0.627441 0.671455
vt 0.649033 0.677231
vt 0.627350 0.677048
vt 0.649124 0.672005
vt 0.627914 0.660294
vt 0.649292 0.666786
vt 0.627625 0.665871
vt 0.649551 0.661568
vt 0.649292 0.692902
vt 0.627625 0.693810
vt 0.649551 0.698120
vt 0.627914 0.699394
s 0
usemtl decorations
f 240/1/1 239/2/1 238/3/1
f 237/1/1 236/4/1 235/2/1
f 234/5/1 233/4/1 232/1/1
f 231/5/1 230/6/1 229/4/1
f 228/6/1 227/5/1 226/7/1
s 1
f 225/8/2 224/9/3 223/10/4
f 222/11/5 221/9/6 220/8/7
f 219/11/8 218/12/9 217/9/3
f 216/13/10 215/12/9 214/11/8
f 213/12/9 212/13/11 211/14/12
f 210/15/13 209/11/8 208/16/14
f 207/15/13 206/13/15 205/11/16
f 204/17/17 203/18/18 202/19/19
f 201/17/20 200/16/21 199/18/22
f 198/20/23 197/19/19 196/21/24
f 195/20/23 194/17/20 193/19/19
f 192/19/19 191/22/25 190/23/26
f 189/19/19 188/18/18 187/22/25
f 186/21/27 185/23/26 184/24/28
f 183/21/27 3/19/19 182/23/26
f 181/23/26 180/25/29 179/26/30
f 178/23/26 177/22/31 176/25/29
f 175/24/32 174/26/33 173/27/34
f 172/24/32 4/23/26 171/26/33
f 170/28/35 169/29/36 168/30/37
f 167/28/35 166/31/38 165/29/36
f 164/32/39 163/30/40 162/33/41
f 161/32/39 13/28/33 160/30/42
f 159/30/37 158/34/43 157/35/44
f 156/30/42 155/29/36 154/34/43
f 153/33/45 152/35/44 151/36/46
f 150/33/45 14/30/40 149/35/44
f 148/35/44 147/15/47 146/37/48
f 145/35/44 144/34/49 143/15/47
f 142/36/50 141/37/48 140/38/51
f 139/36/50 16/35/44 138/37/48
f 137/37/52 136/16/53 135/17/20
f 134/37/54 133/15/55 132/16/14
f 131/38/56 130/17/20 129/20/57
f 128/38/56 36/37/48 25/17/20
f 127/39/58 126/20/57 125/40/59
f 124/39/58 123/38/60 122/20/57
f 121/41/61 120/36/46 119/42/62
f 118/41/61 117/33/45 116/36/46
f 115/43/63 114/27/34 113/44/64
f 112/43/63 111/24/65 110/27/34
f 109/40/66 108/21/24 107/45/67
f 106/40/66 40/20/23 105/21/24
f 104/42/62 103/38/60 102/39/58
f 101/42/62 41/36/68 42/38/60
f 100/46/64 99/33/69 98/41/70
f 97/46/64 37/32/39 38/33/69
f 96/45/67 95/24/65 94/43/63
f 93/45/67 33/21/24 34/24/65
f 92/29/71 91/14/12 90/34/72
f 89/29/71 88/12/73 87/14/12
f 86/22/25 85/9/6 84/25/29
f 83/22/31 82/10/4 81/9/6
f 80/16/21 79/8/7 78/18/22
f 29/16/21 30/11/5 77/8/7
f 76/31/74 75/12/9 28/29/36
f 31/31/74 26/9/6 27/12/73
f 74/18/18 73/10/4 24/22/25
f 21/18/75 22/8/7 23/10/4
f 72/34/76 71/13/11 20/15/55
f 17/34/76 18/14/12 19/13/15
f 70/47/77 69/48/78 68/49/79
f 67/47/80 66/50/59 65/48/67
f 64/51/81 63/52/58 62/53/82
f 61/51/83 60/54/62 59/52/58
f 58/55/84 57/56/61 56/57/85
f 55/55/86 54/58/64 53/56/70
f 52/49/87 51/59/63 50/60/88
f 2/49/89 32/48/67 49/59/63
f 48/53/90 47/50/91 12/47/92
f 9/53/93 10/52/58 11/50/59
f 46/57/94 45/54/62 8/51/81
f 5/57/95 6/56/61 7/54/62
f 44/60/96 43/61/64 15/62/86
f 1/60/97 35/59/63 39/61/64
