# Blender 5.0.0
# www.blender.org
mtllib Circle_002_Circle_003_Dupli_145_decorations_0.mtl
o Circle.002|Circle.003|Dupli|145_decorations_0
v -4.380860 0.733853 0.810194
v -4.381710 0.732730 0.810188
v -4.384418 0.734366 0.817371
v -4.383205 0.735968 0.817380
v -4.378657 0.732889 0.811006
v -4.380195 0.733922 0.816147
v -4.380481 0.732650 0.816329
v -4.378963 0.731528 0.811201
v -4.380189 0.730865 0.810995
v -4.381627 0.732031 0.816137
v -4.382770 0.732531 0.815716
v -4.381412 0.731400 0.810545
v -4.381267 0.736069 0.817899
v -4.380063 0.734593 0.818538
v -4.379501 0.733923 0.810558
v -4.380500 0.732652 0.818815
v -4.381208 0.733181 0.820051
v -4.381959 0.733747 0.820768
v -4.382888 0.733245 0.820613
v -4.382631 0.732412 0.819813
v -4.384397 0.734577 0.818876
v -4.384041 0.734658 0.820002
v -4.383397 0.735508 0.820006
v -4.383410 0.735880 0.818883
v -4.383993 0.732470 0.817880
v -4.382367 0.735562 0.820282
v -4.381728 0.734778 0.820621
v -4.380852 0.734761 0.819825
v -4.384050 0.733033 0.819290
v -4.383815 0.733650 0.820272
v -4.381832 0.735962 0.819305
v -4.383049 0.733774 0.815383
v -4.383736 0.734026 0.816063
v -4.382686 0.735412 0.816071
v -4.382254 0.734823 0.815388
v -4.382248 0.731707 0.818523
v -4.381008 0.735500 0.816520
v -4.379966 0.734222 0.817073
v -4.380983 0.734889 0.815728
v -4.383368 0.732384 0.816504
v -4.380344 0.732541 0.817313
v -4.381858 0.731724 0.817060
v -4.380983 0.734889 0.815728
v -4.380860 0.733853 0.810194
v -4.380481 0.732650 0.816329
v -4.378657 0.732889 0.811006
v -4.382770 0.732531 0.815716
v -4.380189 0.730865 0.810995
v -4.382254 0.734823 0.815388
v -4.380860 0.733853 0.810194
v -4.382254 0.734823 0.815388
v -4.381710 0.732730 0.810188
v -4.380195 0.733922 0.816147
v -4.380983 0.734889 0.815728
v -4.379501 0.733923 0.810558
v -4.378657 0.732889 0.811006
v -4.380195 0.733922 0.816147
v -4.379501 0.733923 0.810558
v -4.381627 0.732031 0.816137
v -4.380481 0.732650 0.816329
v -4.378963 0.731528 0.811201
v -4.380189 0.730865 0.810995
v -4.381627 0.732031 0.816137
v -4.378963 0.731528 0.811201
v -4.383049 0.733774 0.815383
v -4.382770 0.732531 0.815716
v -4.381412 0.731400 0.810545
v -4.381710 0.732730 0.810188
v -4.383049 0.733774 0.815383
v -4.381412 0.731400 0.810545
v -4.382888 0.733245 0.820613
v -4.381208 0.733181 0.820051
v -4.383397 0.735508 0.820006
v -4.384397 0.734577 0.818876
v -4.381728 0.734778 0.820621
v -4.381832 0.735962 0.819305
v -4.384041 0.734658 0.820002
v -4.384397 0.734577 0.818876
v -4.384041 0.734658 0.820002
v -4.384050 0.733033 0.819290
v -4.382367 0.735562 0.820282
v -4.383397 0.735508 0.820006
v -4.383410 0.735880 0.818883
v -4.381832 0.735962 0.819305
v -4.382367 0.735562 0.820282
v -4.383410 0.735880 0.818883
v -4.381959 0.733747 0.820768
v -4.381728 0.734778 0.820621
v -4.380852 0.734761 0.819825
v -4.381208 0.733181 0.820051
v -4.381959 0.733747 0.820768
v -4.380852 0.734761 0.819825
v -4.383049 0.733774 0.815383
v -4.382254 0.734823 0.815388
v -4.382686 0.735412 0.816071
v -4.383049 0.733774 0.815383
v -4.380983 0.734889 0.815728
v -4.380195 0.733922 0.816147
v -4.379966 0.734222 0.817073
v -4.380983 0.734889 0.815728
v -4.380481 0.732650 0.816329
v -4.381627 0.732031 0.816137
v -4.381858 0.731724 0.817060
v -4.380481 0.732650 0.816329
v -4.383736 0.734026 0.816063
v -4.382770 0.732531 0.815716
v -4.383049 0.733774 0.815383
v -4.383736 0.734026 0.816063
v -4.382770 0.732531 0.815716
v -4.381008 0.735500 0.816520
v -4.382686 0.735412 0.816071
v -4.382254 0.734823 0.815388
v -4.380983 0.734889 0.815728
v -4.381008 0.735500 0.816520
v -4.382254 0.734823 0.815388
v -4.380344 0.732541 0.817313
v -4.379966 0.734222 0.817073
v -4.380195 0.733922 0.816147
v -4.380481 0.732650 0.816329
v -4.380344 0.732541 0.817313
v -4.380195 0.733922 0.816147
v -4.383368 0.732384 0.816504
v -4.381858 0.731724 0.817060
v -4.381627 0.732031 0.816137
v -4.382770 0.732531 0.815716
v -4.383368 0.732384 0.816504
v -4.381627 0.732031 0.816137
v -4.381858 0.731724 0.817060
v -4.383368 0.732384 0.816504
v -4.383993 0.732470 0.817880
v -4.381858 0.731724 0.817060
v -4.384050 0.733033 0.819290
v -4.382631 0.732412 0.819813
v -4.382248 0.731707 0.818523
v -4.383993 0.732470 0.817880
v -4.384050 0.733033 0.819290
v -4.382248 0.731707 0.818523
v -4.382248 0.731707 0.818523
v -4.380344 0.732541 0.817313
v -4.381858 0.731724 0.817060
v -4.382248 0.731707 0.818523
v -4.380344 0.732541 0.817313
v -4.382631 0.732412 0.819813
v -4.381208 0.733181 0.820051
v -4.380500 0.732652 0.818815
v -4.382248 0.731707 0.818523
v -4.382631 0.732412 0.819813
v -4.380500 0.732652 0.818815
v -4.380500 0.732652 0.818815
v -4.379966 0.734222 0.817073
v -4.380344 0.732541 0.817313
v -4.380500 0.732652 0.818815
v -4.379966 0.734222 0.817073
v -4.381208 0.733181 0.820051
v -4.380852 0.734761 0.819825
v -4.380063 0.734593 0.818538
v -4.380500 0.732652 0.818815
v -4.381208 0.733181 0.820051
v -4.380063 0.734593 0.818538
v -4.380063 0.734593 0.818538
v -4.381008 0.735500 0.816520
v -4.379966 0.734222 0.817073
v -4.380063 0.734593 0.818538
v -4.381008 0.735500 0.816520
v -4.380852 0.734761 0.819825
v -4.381832 0.735962 0.819305
v -4.381267 0.736069 0.817899
v -4.380063 0.734593 0.818538
v -4.380852 0.734761 0.819825
v -4.381267 0.736069 0.817899
v -4.381267 0.736069 0.817899
v -4.382686 0.735412 0.816071
v -4.381008 0.735500 0.816520
v -4.381267 0.736069 0.817899
v -4.382686 0.735412 0.816071
v -4.381832 0.735962 0.819305
v -4.383410 0.735880 0.818883
v -4.383205 0.735968 0.817380
v -4.381267 0.736069 0.817899
v -4.381832 0.735962 0.819305
v -4.383205 0.735968 0.817380
v -4.383205 0.735968 0.817380
v -4.383736 0.734026 0.816063
v -4.382686 0.735412 0.816071
v -4.383205 0.735968 0.817380
v -4.383736 0.734026 0.816063
v -4.383410 0.735880 0.818883
v -4.384397 0.734577 0.818876
v -4.384418 0.734366 0.817371
v -4.383205 0.735968 0.817380
v -4.383410 0.735880 0.818883
v -4.384418 0.734366 0.817371
v -4.384418 0.734366 0.817371
v -4.383993 0.732470 0.817880
v -4.383368 0.732384 0.816504
v -4.383736 0.734026 0.816063
v -4.384418 0.734366 0.817371
v -4.383368 0.732384 0.816504
v -4.384397 0.734577 0.818876
v -4.384050 0.733033 0.819290
v -4.383993 0.732470 0.817880
v -4.384418 0.734366 0.817371
v -4.384397 0.734577 0.818876
v -4.383993 0.732470 0.817880
v -4.383815 0.733650 0.820272
v -4.382888 0.733245 0.820613
v -4.382631 0.732412 0.819813
v -4.384050 0.733033 0.819290
v -4.383815 0.733650 0.820272
v -4.382631 0.732412 0.819813
v -4.381959 0.733747 0.820768
v -4.382888 0.733245 0.820613
v -4.381728 0.734778 0.820621
v -4.383815 0.733650 0.820272
v -4.381728 0.734778 0.820621
v -4.382888 0.733245 0.820613
v -4.382367 0.735562 0.820282
v -4.381728 0.734778 0.820621
v -4.383815 0.733650 0.820272
v -4.384041 0.734658 0.820002
v -4.382367 0.735562 0.820282
v -4.383815 0.733650 0.820272
v -4.383397 0.735508 0.820006
v -4.382367 0.735562 0.820282
v -4.384041 0.734658 0.820002
v -4.378963 0.731528 0.811201
v -4.378657 0.732889 0.811006
v -4.380189 0.730865 0.810995
v -4.381412 0.731400 0.810545
v -4.380189 0.730865 0.810995
v -4.378657 0.732889 0.811006
v -4.379501 0.733923 0.810558
v -4.381412 0.731400 0.810545
v -4.378657 0.732889 0.811006
v -4.381710 0.732730 0.810188
v -4.381412 0.731400 0.810545
v -4.379501 0.733923 0.810558
v -4.380860 0.733853 0.810194
v -4.381710 0.732730 0.810188
v -4.379501 0.733923 0.810558
vn 0.2632 -0.1944 -0.9450
vn -0.7473 0.2559 0.6132
vn 0.0202 0.6705 0.7417
vn -0.4520 0.6459 0.6152
vn -0.6436 -0.2061 0.7371
vn 0.0201 0.6705 0.7416
vn -0.7474 0.2558 0.6132
vn -0.6437 -0.2060 0.7371
vn 0.3134 0.3110 0.8973
vn -0.2189 -0.3919 0.8936
vn 0.3134 0.3110 0.8972
vn -0.2190 -0.3919 0.8936
vn 0.2070 -0.1618 0.9649
vn -0.1100 -0.8150 0.5689
vn -0.6436 -0.2060 0.7371
vn -0.7976 -0.5141 0.3156
vn -0.7654 -0.6422 -0.0411
vn -0.9655 0.2337 0.1150
vn -0.9492 0.1763 -0.2606
vn -0.7654 -0.6422 -0.0410
vn -0.7976 -0.5141 0.3155
vn -0.9655 0.2336 0.1150
vn -0.6229 -0.6775 -0.3912
vn -0.7961 0.0936 -0.5979
vn -0.9492 0.1763 -0.2605
vn -0.4873 0.8652 0.1183
vn -0.4258 0.8676 -0.2570
vn -0.7960 0.0936 -0.5980
vn -0.3029 0.7448 -0.5945
vn -0.4257 0.8676 -0.2570
vn 0.2770 0.9050 0.3229
vn 0.4109 0.9111 -0.0330
vn -0.4872 0.8652 0.1183
vn -0.3029 0.7448 -0.5946
vn 0.4852 0.7858 -0.3835
vn 0.7518 0.3230 0.5748
vn 0.9305 0.2741 0.2428
vn 0.7518 0.3230 0.5749
vn 0.9306 0.2741 0.2428
vn 0.9748 0.1857 -0.1237
vn 0.5796 -0.4424 0.6844
vn 0.7420 -0.5638 0.3626
vn 0.9748 0.1857 -0.1238
vn 0.7972 -0.6036 -0.0108
vn 0.7420 -0.5639 0.3626
vn -0.1099 -0.8150 0.5689
vn -0.0128 -0.9716 0.2363
vn 0.5796 -0.4425 0.6843
vn -0.1099 -0.8150 0.5690
vn 0.7972 -0.6037 -0.0109
vn 0.0862 -0.9878 -0.1298
vn 0.0862 -0.9878 -0.1299
vn -0.6229 -0.6775 -0.3911
vn -0.0127 -0.9716 0.2363
vn 0.0660 -0.9964 -0.0531
vn -0.6610 -0.6782 -0.3210
vn 0.0861 -0.9878 -0.1298
vn 0.9772 0.2069 -0.0468
vn 0.7951 -0.6025 0.0690
vn -0.3329 0.7802 -0.5295
vn 0.4752 0.8222 -0.3132
vn -0.3329 0.7802 -0.5296
vn -0.6611 -0.6782 -0.3210
vn -0.8386 0.1124 -0.5331
vn 0.4752 0.8223 -0.3131
vn 0.9748 0.1858 -0.1238
vn 0.4752 0.8223 -0.3132
vn -0.8386 0.1125 -0.5330
vn -0.8386 0.1124 -0.5330
vn 0.5796 -0.4424 0.6843
vn 0.7518 0.3229 0.5748
vn 0.2070 -0.1619 0.9649
vn 0.0201 0.6705 0.7417
vn 0.2770 0.9050 0.3230
vn -0.9655 0.2337 0.1149
vn -0.7473 0.2558 0.6132
vn 0.5796 -0.4425 0.6844
vn -0.7610 -0.6461 -0.0586
vn -0.9449 0.1728 -0.2782
vn -0.7610 -0.6461 -0.0585
vn 0.7473 -0.5678 0.3453
vn -0.0079 -0.9757 0.2190
vn 0.7472 -0.5677 0.3454
vn 0.4160 0.9080 -0.0504
vn 0.9773 0.2069 -0.0468
vn 0.9359 0.2707 0.2254
vn -0.9448 0.1728 -0.2782
vn -0.4211 0.8644 -0.2746
vn -0.0079 -0.9757 0.2189
vn -0.7609 -0.6462 -0.0585
vn 0.9359 0.2706 0.2254
vn 0.7473 -0.5677 0.3453
vn 0.9359 0.2707 0.2255
vt 0.530319 0.611839
vt 0.522446 0.618118
vt 0.524872 0.613083
vt 0.524872 0.623154
vt 0.534683 0.615326
vt 0.530319 0.624397
vt 0.534683 0.620918
vt 0.537079 0.671494
vt 0.541916 0.669548
vt 0.539566 0.672157
vt 0.536179 0.669609
vt 0.539856 0.666756
vt 0.536224 0.667854
vt 0.537567 0.666748
vt 0.534592 0.666855
vt 0.534012 0.669838
vt 0.530777 0.669685
vt 0.535187 0.673050
vt 0.531769 0.674789
vt 0.525803 0.669067
vt 0.526108 0.676537
vt 0.539017 0.675606
vt 0.536011 0.680244
vt 0.529755 0.684982
vt 0.547180 0.674767
vt 0.546982 0.686485
vt 0.537415 0.696274
vt 0.547180 0.658051
vt 0.540527 0.663902
vt 0.539825 0.659698
vt 0.546280 0.665543
vt 0.543762 0.651657
vt 0.537613 0.655174
vt 0.536758 0.664742
vt 0.535126 0.661980
vt 0.532364 0.658463
vt 0.532074 0.665283
vt 0.528198 0.662933
vt 0.523743 0.660286
vt 0.519989 0.668175
vt 0.535217 0.651588
vt 0.529327 0.654999
vt 0.522873 0.688484
vt 0.528320 0.699394
vt 0.519577 0.678001
vt 0.540466 0.648293
vt 0.604446 0.642853
vt 0.626221 0.647896
vt 0.604553 0.648445
vt 0.626144 0.642670
vt 0.604553 0.631676
vt 0.626144 0.637444
vt 0.604446 0.637268
vt 0.626221 0.632225
vt 0.605011 0.620506
vt 0.626404 0.626999
vt 0.604736 0.626091
vt 0.626663 0.621780
vt 0.626404 0.653114
vt 0.604736 0.654030
vt 0.626663 0.658333
vt 0.605011 0.659607
s 0
usemtl decorations
f 240/1/1 239/2/1 238/3/1
f 237/1/1 236/4/1 235/2/1
f 234/5/1 233/4/1 232/1/1
f 231/5/1 230/6/1 229/4/1
f 228/6/1 227/5/1 226/7/1
s 1
f 225/8/2 224/9/3 223/10/4
f 222/11/5 221/9/6 220/8/7
f 219/11/8 218/12/9 217/9/3
f 216/13/10 215/12/11 214/11/8
f 213/12/9 212/13/12 211/14/13
f 210/15/14 209/11/15 208/16/16
f 207/15/14 206/13/10 205/11/15
f 204/17/17 203/18/18 202/19/19
f 201/17/20 200/16/21 199/18/22
f 198/20/23 197/19/19 196/21/24
f 195/20/23 194/17/20 193/19/25
f 192/19/19 191/22/26 190/23/27
f 189/19/19 188/18/18 187/22/26
f 186/21/28 185/23/27 184/24/29
f 183/21/28 3/19/19 182/23/27
f 181/23/30 180/25/31 179/26/32
f 178/23/27 177/22/33 176/25/31
f 175/24/34 174/26/32 173/27/35
f 172/24/34 4/23/30 171/26/32
f 170/28/32 169/29/36 168/30/37
f 167/28/32 166/31/31 165/29/38
f 164/32/35 163/30/39 162/33/40
f 161/32/35 13/28/32 160/30/37
f 159/30/37 158/34/41 157/35/42
f 156/30/37 155/29/36 154/34/41
f 153/33/43 152/35/42 151/36/44
f 150/33/43 14/30/39 149/35/42
f 148/35/45 147/15/46 146/37/47
f 145/35/45 144/34/48 143/15/49
f 142/36/50 141/37/47 140/38/51
f 139/36/50 16/35/42 138/37/47
f 137/37/47 136/16/21 135/17/17
f 134/37/47 133/15/14 132/16/16
f 131/38/52 130/17/17 129/20/53
f 128/38/52 36/37/54 25/17/17
f 127/39/55 126/20/53 125/40/56
f 124/39/55 123/38/57 122/20/53
f 121/41/58 120/36/44 119/42/59
f 118/41/58 117/33/43 116/36/44
f 115/43/60 114/27/35 113/44/61
f 112/43/62 111/24/29 110/27/35
f 109/40/63 108/21/24 107/45/64
f 106/40/56 40/20/23 105/21/24
f 104/42/59 103/38/51 102/39/55
f 101/42/59 41/36/44 42/38/51
f 100/46/65 99/33/66 98/41/58
f 97/46/67 37/32/35 38/33/66
f 96/45/68 95/24/29 94/43/62
f 93/45/69 33/21/24 34/24/29
f 92/29/36 91/14/13 90/34/70
f 89/29/71 88/12/9 87/14/72
f 86/22/33 85/9/73 84/25/31
f 83/22/33 82/10/4 81/9/73
f 80/16/21 79/8/2 78/18/22
f 29/16/21 30/11/5 77/8/2
f 76/31/74 75/12/9 28/29/38
f 31/31/74 26/9/73 27/12/9
f 74/18/75 73/10/4 24/22/26
f 21/18/75 22/8/76 23/10/4
f 72/34/77 71/13/10 20/15/14
f 17/34/48 18/14/13 19/13/10
f 70/47/78 69/48/69 68/49/79
f 67/47/80 66/50/56 65/48/69
f 64/51/81 63/52/55 62/53/82
f 61/51/83 60/54/59 59/52/55
f 58/55/84 57/56/85 56/57/86
f 55/55/84 54/58/61 53/56/58
f 52/49/87 51/59/60 50/60/88
f 2/49/79 32/48/64 49/59/62
f 48/53/89 47/50/63 12/47/90
f 9/53/82 10/52/55 11/50/56
f 46/57/91 45/54/59 8/51/92
f 5/57/93 6/56/85 7/54/59
f 44/60/88 43/61/65 15/62/84
f 1/60/88 35/59/62 39/61/67
