# Blender 5.0.0
# www.blender.org
mtllib Circle_002_Circle_001_Dupli_50_decorations_0.mtl
o Circle.002|Circle.001|Dupli|50_decorations_0
v -4.523605 1.674292 0.785946
v -4.522768 1.673411 0.785236
v -4.516384 1.675925 0.789047
v -4.517579 1.677183 0.790061
v -4.523746 1.676303 0.784405
v -4.519331 1.678388 0.786859
v -4.518580 1.678028 0.785839
v -4.522943 1.675918 0.783314
v -4.522236 1.674715 0.783125
v -4.517920 1.676903 0.785663
v -4.517847 1.675860 0.786462
v -4.522158 1.673599 0.783980
v -4.518199 1.679020 0.789533
v -4.517779 1.680052 0.787862
v -4.524040 1.675580 0.785576
v -4.516633 1.679503 0.786305
v -4.515501 1.679796 0.787276
v -4.514765 1.679751 0.788201
v -4.514230 1.678839 0.788058
v -4.514681 1.678399 0.787057
v -4.515298 1.676885 0.789508
v -4.514632 1.677851 0.789657
v -4.515267 1.678519 0.790195
v -4.516271 1.677908 0.790332
v -4.515514 1.676194 0.787256
v -4.515597 1.679494 0.789915
v -4.515373 1.680043 0.789027
v -4.516434 1.680243 0.788543
v -4.514591 1.677103 0.788050
v -4.514171 1.677993 0.788706
v -4.516776 1.679403 0.789903
v -4.518416 1.675684 0.787636
v -4.517627 1.675606 0.788245
v -4.518661 1.676695 0.789122
v -4.519199 1.676508 0.788300
v -4.515625 1.677786 0.786035
v -4.519199 1.678285 0.788665
v -4.518835 1.679178 0.787218
v -4.519607 1.677712 0.787955
v -4.516875 1.675839 0.786694
v -4.517843 1.678703 0.785871
v -4.516971 1.677217 0.785638
v -4.519607 1.677712 0.787955
v -4.523605 1.674292 0.785946
v -4.518580 1.678028 0.785839
v -4.523746 1.676303 0.784405
v -4.517847 1.675860 0.786462
v -4.522236 1.674715 0.783125
v -4.519199 1.676508 0.788300
v -4.523605 1.674292 0.785946
v -4.519199 1.676508 0.788300
v -4.522768 1.673411 0.785236
v -4.519331 1.678388 0.786859
v -4.519607 1.677712 0.787955
v -4.524040 1.675580 0.785576
v -4.523746 1.676303 0.784405
v -4.519331 1.678388 0.786859
v -4.524040 1.675580 0.785576
v -4.517920 1.676903 0.785663
v -4.518580 1.678028 0.785839
v -4.522943 1.675918 0.783314
v -4.522236 1.674715 0.783125
v -4.517920 1.676903 0.785663
v -4.522943 1.675918 0.783314
v -4.518416 1.675684 0.787636
v -4.517847 1.675860 0.786462
v -4.522158 1.673599 0.783980
v -4.522768 1.673411 0.785236
v -4.518416 1.675684 0.787636
v -4.522158 1.673599 0.783980
v -4.514230 1.678839 0.788058
v -4.515501 1.679796 0.787276
v -4.515267 1.678519 0.790195
v -4.515298 1.676885 0.789508
v -4.515373 1.680043 0.789027
v -4.516776 1.679403 0.789903
v -4.514632 1.677851 0.789657
v -4.515298 1.676885 0.789508
v -4.514632 1.677851 0.789657
v -4.514591 1.677103 0.788050
v -4.515597 1.679494 0.789915
v -4.515267 1.678519 0.790195
v -4.516271 1.677908 0.790332
v -4.516776 1.679403 0.789903
v -4.515597 1.679494 0.789915
v -4.516271 1.677908 0.790332
v -4.514765 1.679751 0.788201
v -4.515373 1.680043 0.789027
v -4.516434 1.680243 0.788543
v -4.515501 1.679796 0.787276
v -4.514765 1.679751 0.788201
v -4.516434 1.680243 0.788543
v -4.518416 1.675684 0.787636
v -4.519199 1.676508 0.788300
v -4.518661 1.676695 0.789122
v -4.518416 1.675684 0.787636
v -4.519607 1.677712 0.787955
v -4.519331 1.678388 0.786859
v -4.518835 1.679178 0.787218
v -4.519607 1.677712 0.787955
v -4.518580 1.678028 0.785839
v -4.517920 1.676903 0.785663
v -4.516971 1.677217 0.785638
v -4.518580 1.678028 0.785839
v -4.517627 1.675606 0.788245
v -4.517847 1.675860 0.786462
v -4.518416 1.675684 0.787636
v -4.517627 1.675606 0.788245
v -4.517847 1.675860 0.786462
v -4.519199 1.678285 0.788665
v -4.518661 1.676695 0.789122
v -4.519199 1.676508 0.788300
v -4.519607 1.677712 0.787955
v -4.519199 1.678285 0.788665
v -4.519199 1.676508 0.788300
v -4.517843 1.678703 0.785871
v -4.518835 1.679178 0.787218
v -4.519331 1.678388 0.786859
v -4.518580 1.678028 0.785839
v -4.517843 1.678703 0.785871
v -4.519331 1.678388 0.786859
v -4.516875 1.675839 0.786694
v -4.516971 1.677217 0.785638
v -4.517920 1.676903 0.785663
v -4.517847 1.675860 0.786462
v -4.516875 1.675839 0.786694
v -4.517920 1.676903 0.785663
v -4.516971 1.677217 0.785638
v -4.516875 1.675839 0.786694
v -4.515514 1.676194 0.787256
v -4.516971 1.677217 0.785638
v -4.514591 1.677103 0.788050
v -4.514681 1.678399 0.787057
v -4.515625 1.677786 0.786035
v -4.515514 1.676194 0.787256
v -4.514591 1.677103 0.788050
v -4.515625 1.677786 0.786035
v -4.515625 1.677786 0.786035
v -4.517843 1.678703 0.785871
v -4.516971 1.677217 0.785638
v -4.515625 1.677786 0.786035
v -4.517843 1.678703 0.785871
v -4.514681 1.678399 0.787057
v -4.515501 1.679796 0.787276
v -4.516633 1.679503 0.786305
v -4.515625 1.677786 0.786035
v -4.514681 1.678399 0.787057
v -4.516633 1.679503 0.786305
v -4.516633 1.679503 0.786305
v -4.518835 1.679178 0.787218
v -4.517843 1.678703 0.785871
v -4.516633 1.679503 0.786305
v -4.518835 1.679178 0.787218
v -4.515501 1.679796 0.787276
v -4.516434 1.680243 0.788543
v -4.517779 1.680052 0.787862
v -4.516633 1.679503 0.786305
v -4.515501 1.679796 0.787276
v -4.517779 1.680052 0.787862
v -4.517779 1.680052 0.787862
v -4.519199 1.678285 0.788665
v -4.518835 1.679178 0.787218
v -4.517779 1.680052 0.787862
v -4.519199 1.678285 0.788665
v -4.516434 1.680243 0.788543
v -4.516776 1.679403 0.789903
v -4.518199 1.679020 0.789533
v -4.517779 1.680052 0.787862
v -4.516434 1.680243 0.788543
v -4.518199 1.679020 0.789533
v -4.518199 1.679020 0.789533
v -4.518661 1.676695 0.789122
v -4.519199 1.678285 0.788665
v -4.518199 1.679020 0.789533
v -4.518661 1.676695 0.789122
v -4.516776 1.679403 0.789903
v -4.516271 1.677908 0.790332
v -4.517579 1.677183 0.790061
v -4.518199 1.679020 0.789533
v -4.516776 1.679403 0.789903
v -4.517579 1.677183 0.790061
v -4.517579 1.677183 0.790061
v -4.517627 1.675606 0.788245
v -4.518661 1.676695 0.789122
v -4.517579 1.677183 0.790061
v -4.517627 1.675606 0.788245
v -4.516271 1.677908 0.790332
v -4.515298 1.676885 0.789508
v -4.516384 1.675925 0.789047
v -4.517579 1.677183 0.790061
v -4.516271 1.677908 0.790332
v -4.516384 1.675925 0.789047
v -4.516384 1.675925 0.789047
v -4.515514 1.676194 0.787256
v -4.516875 1.675839 0.786694
v -4.517627 1.675606 0.788245
v -4.516384 1.675925 0.789047
v -4.516875 1.675839 0.786694
v -4.515298 1.676885 0.789508
v -4.514591 1.677103 0.788050
v -4.515514 1.676194 0.787256
v -4.516384 1.675925 0.789047
v -4.515298 1.676885 0.789508
v -4.515514 1.676194 0.787256
v -4.514171 1.677993 0.788706
v -4.514230 1.678839 0.788058
v -4.514681 1.678399 0.787057
v -4.514591 1.677103 0.788050
v -4.514171 1.677993 0.788706
v -4.514681 1.678399 0.787057
v -4.514765 1.679751 0.788201
v -4.514230 1.678839 0.788058
v -4.515373 1.680043 0.789027
v -4.514171 1.677993 0.788706
v -4.515373 1.680043 0.789027
v -4.514230 1.678839 0.788058
v -4.515597 1.679494 0.789915
v -4.515373 1.680043 0.789027
v -4.514171 1.677993 0.788706
v -4.514632 1.677851 0.789657
v -4.515597 1.679494 0.789915
v -4.514171 1.677993 0.788706
v -4.515267 1.678519 0.790195
v -4.515597 1.679494 0.789915
v -4.514632 1.677851 0.789657
v -4.522943 1.675918 0.783314
v -4.523746 1.676303 0.784405
v -4.522236 1.674715 0.783125
v -4.522158 1.673599 0.783980
v -4.522236 1.674715 0.783125
v -4.523746 1.676303 0.784405
v -4.524040 1.675580 0.785576
v -4.522158 1.673599 0.783980
v -4.523746 1.676303 0.784405
v -4.522768 1.673411 0.785236
v -4.522158 1.673599 0.783980
v -4.524040 1.675580 0.785576
v -4.523605 1.674292 0.785946
v -4.522768 1.673411 0.785236
v -4.524040 1.675580 0.785576
vn -0.8000 -0.3992 -0.4480
vn 0.7660 -0.1639 0.6216
vn 0.3238 0.5897 0.7398
vn 0.4750 0.1424 0.8684
vn 0.9777 -0.0985 0.1853
vn 0.3238 0.5897 0.7399
vn 0.9777 -0.0986 0.1853
vn 0.4263 0.8412 0.3328
vn 0.9507 0.2892 -0.1119
vn 0.7053 0.7074 -0.0463
vn 0.7960 0.0974 -0.5973
vn 0.8398 -0.5303 -0.1161
vn 0.5921 -0.7437 -0.3103
vn 0.4971 -0.6361 0.5902
vn 0.2170 -0.8595 0.4628
vn 0.2594 -0.8495 -0.4594
vn 0.2169 -0.8595 0.4628
vn -0.0940 -0.9586 0.2689
vn 0.0259 -0.1402 0.9898
vn -0.2988 -0.3167 0.9002
vn 0.4970 -0.6361 0.5902
vn -0.0941 -0.9586 0.2689
vn -0.5798 -0.4473 0.6810
vn -0.2189 0.5839 0.7817
vn -0.5668 0.4759 0.6725
vn -0.2189 0.5839 0.7818
vn -0.5799 -0.4472 0.6809
vn -0.8323 0.2995 0.4664
vn -0.5668 0.4760 0.6724
vn -0.0530 0.9910 0.1227
vn -0.3852 0.9216 -0.0489
vn -0.3852 0.9215 -0.0489
vn -0.6612 0.7193 -0.2131
vn -0.5668 0.4760 0.6725
vn -0.3852 0.9216 -0.0488
vn 0.3987 0.7746 -0.4910
vn 0.1093 0.6846 -0.7207
vn -0.6613 0.7192 -0.2132
vn -0.1954 0.4960 -0.8460
vn 0.1093 0.6845 -0.7207
vn 0.7960 0.0975 -0.5974
vn 0.5442 -0.0565 -0.8370
vn 0.3987 0.7745 -0.4911
vn 0.7961 0.0975 -0.5973
vn -0.1954 0.4960 -0.8461
vn 0.2143 -0.2021 -0.9556
vn 0.5442 -0.0566 -0.8371
vn 0.8398 -0.5303 -0.1162
vn 0.7960 0.0975 -0.5973
vn 0.2142 -0.2022 -0.9556
vn 0.2876 -0.1735 -0.9419
vn 0.3338 -0.8372 -0.4331
vn 0.2875 -0.1735 -0.9419
vn -0.6102 0.7714 -0.1806
vn -0.1326 0.5424 -0.8296
vn -0.5268 -0.4247 0.7363
vn -0.7857 0.3409 0.5162
vn -0.5268 -0.4248 0.7362
vn -0.5799 -0.4472 0.6810
vn -0.0286 -0.9491 0.3137
vn 0.2594 -0.8495 -0.4595
vn -0.1326 0.5425 -0.8295
vn -0.7856 0.3409 0.5163
vn -0.6613 0.7193 -0.2131
vn -0.0530 0.9910 0.1226
vn 0.4263 0.8411 0.3328
vn 0.7660 -0.1638 0.6216
vn 0.9777 -0.0985 0.1852
vn -0.2189 0.5840 0.7817
vn 0.3987 0.7745 -0.4910
vn 0.5776 -0.7515 -0.3188
vn 0.2023 -0.8673 0.4548
vn 0.5777 -0.7515 -0.3187
vn 0.3338 -0.8372 -0.4332
vn 0.0946 0.6775 -0.7294
vn 0.5297 -0.0639 -0.8458
vn 0.2875 -0.1734 -0.9419
vn -0.5819 0.4689 0.6645
vn -0.4002 0.9146 -0.0571
vn 0.2022 -0.8673 0.4548
vn -0.5268 -0.4248 0.7363
vn -0.3137 -0.3243 0.8924
vn 0.5297 -0.0640 -0.8458
vn -0.4002 0.9146 -0.0572
vn -0.1326 0.5425 -0.8296
vn 0.0945 0.6775 -0.7294
vn -0.4002 0.9147 -0.0572
vn -0.3138 -0.3243 0.8924
vn -0.5819 0.4688 0.6645
vn -0.7857 0.3409 0.5163
vt 0.543243 0.635056
vt 0.535370 0.641335
vt 0.537796 0.636299
vt 0.537796 0.646370
vt 0.547607 0.638535
vt 0.543243 0.647614
vt 0.547607 0.644127
vt 0.593674 0.671494
vt 0.598511 0.669548
vt 0.596146 0.672157
vt 0.592773 0.669609
vt 0.596436 0.666756
vt 0.592804 0.667854
vt 0.594147 0.666748
vt 0.591187 0.666855
vt 0.590591 0.669838
vt 0.587372 0.669685
vt 0.591782 0.673050
vt 0.588348 0.674789
vt 0.582382 0.669067
vt 0.582687 0.676537
vt 0.595596 0.675606
vt 0.592606 0.680244
vt 0.586334 0.684982
vt 0.603775 0.674767
vt 0.603561 0.686485
vt 0.594009 0.696274
vt 0.603775 0.658051
vt 0.597107 0.663902
vt 0.596405 0.659698
vt 0.602859 0.665543
vt 0.600342 0.651657
vt 0.594193 0.655174
vt 0.593353 0.664742
vt 0.591705 0.661980
vt 0.588959 0.658463
vt 0.588654 0.665283
vt 0.584778 0.662933
vt 0.580322 0.660286
vt 0.576584 0.668175
vt 0.591812 0.651588
vt 0.585907 0.654999
vt 0.579453 0.688484
vt 0.584915 0.699394
vt 0.576157 0.678001
vt 0.597061 0.648293
vt 0.627350 0.682632
vt 0.649124 0.687675
vt 0.627441 0.688225
vt 0.649033 0.682457
vt 0.627441 0.671455
vt 0.649033 0.677231
vt 0.627350 0.677048
vt 0.649124 0.672005
vt 0.627914 0.660294
vt 0.649292 0.666786
vt 0.627625 0.665871
vt 0.649551 0.661568
vt 0.649292 0.692902
vt 0.627625 0.693810
vt 0.649551 0.698120
vt 0.627914 0.699394
s 0
usemtl decorations
f 240/1/1 239/2/1 238/3/1
f 237/1/1 236/4/1 235/2/1
f 234/5/1 233/4/1 232/1/1
f 231/5/1 230/6/1 229/4/1
f 228/6/1 227/5/1 226/7/1
s 1
f 225/8/2 224/9/3 223/10/4
f 222/11/5 221/9/6 220/8/2
f 219/11/7 218/12/8 217/9/3
f 216/13/9 215/12/8 214/11/5
f 213/12/8 212/13/9 211/14/10
f 210/15/11 209/11/5 208/16/12
f 207/15/11 206/13/9 205/11/5
f 204/17/13 203/18/14 202/19/15
f 201/17/13 200/16/12 199/18/14
f 198/20/16 197/19/17 196/21/18
f 195/20/16 194/17/13 193/19/15
f 192/19/15 191/22/19 190/23/20
f 189/19/15 188/18/21 187/22/19
f 186/21/22 185/23/20 184/24/23
f 183/21/22 3/19/15 182/23/20
f 181/23/20 180/25/24 179/26/25
f 178/23/20 177/22/19 176/25/26
f 175/24/27 174/26/25 173/27/28
f 172/24/27 4/23/20 171/26/25
f 170/28/29 169/29/30 168/30/31
f 167/28/29 166/31/24 165/29/30
f 164/32/28 163/30/32 162/33/33
f 161/32/28 13/28/34 160/30/35
f 159/30/32 158/34/36 157/35/37
f 156/30/31 155/29/30 154/34/36
f 153/33/38 152/35/37 151/36/39
f 150/33/38 14/30/31 149/35/37
f 148/35/40 147/15/41 146/37/42
f 145/35/40 144/34/43 143/15/44
f 142/36/45 141/37/42 140/38/46
f 139/36/45 16/35/37 138/37/42
f 137/37/47 136/16/48 135/17/13
f 134/37/42 133/15/49 132/16/12
f 131/38/50 130/17/13 129/20/16
f 128/38/46 36/37/42 25/17/13
f 127/39/51 126/20/16 125/40/52
f 124/39/53 123/38/46 122/20/16
f 121/41/54 120/36/39 119/42/55
f 118/41/54 117/33/38 116/36/39
f 115/43/56 114/27/28 113/44/57
f 112/43/58 111/24/59 110/27/28
f 109/40/52 108/21/18 107/45/60
f 106/40/52 40/20/61 105/21/18
f 104/42/62 103/38/46 102/39/53
f 101/42/62 41/36/39 42/38/46
f 100/46/63 99/33/64 98/41/54
f 97/46/57 37/32/28 38/33/64
f 96/45/60 95/24/59 94/43/58
f 93/45/60 33/21/18 34/24/59
f 92/29/65 91/14/10 90/34/36
f 89/29/65 88/12/66 87/14/10
f 86/22/19 85/9/6 84/25/26
f 83/22/19 82/10/4 81/9/6
f 80/16/12 79/8/67 78/18/14
f 29/16/12 30/11/68 77/8/67
f 76/31/69 75/12/8 28/29/30
f 31/31/69 26/9/6 27/12/66
f 74/18/21 73/10/4 24/22/19
f 21/18/21 22/8/67 23/10/4
f 72/34/70 71/13/9 20/15/44
f 17/34/70 18/14/10 19/13/9
f 70/47/71 69/48/60 68/49/72
f 67/47/73 66/50/74 65/48/60
f 64/51/75 63/52/51 62/53/76
f 61/51/75 60/54/55 59/52/77
f 58/55/78 57/56/54 56/57/79
f 55/55/78 54/58/57 53/56/54
f 52/49/80 51/59/81 50/60/82
f 2/49/72 32/48/60 49/59/58
f 48/53/83 47/50/52 12/47/71
f 9/53/76 10/52/53 11/50/52
f 46/57/84 45/54/85 8/51/86
f 5/57/87 6/56/54 7/54/55
f 44/60/88 43/61/63 15/62/89
f 1/60/82 35/59/58 39/61/90
