# Blender 5.0.0
# www.blender.org
mtllib Circle_005_Circle_004_Dupli_92_decorations_0.mtl
o Circle.005|Circle.004|Dupli|92_decorations_0
v -4.639788 1.416014 0.580275
v -4.640001 1.414623 0.580334
v -4.638465 1.413761 0.572685
v -4.638161 1.415745 0.572601
v -4.642129 1.416930 0.579926
v -4.641399 1.416506 0.574527
v -4.642139 1.415417 0.574501
v -4.642920 1.415765 0.579898
v -4.642513 1.414423 0.580032
v -4.641758 1.414163 0.574625
v -4.640544 1.413688 0.574807
v -4.641214 1.413915 0.580225
v -4.639513 1.417209 0.572342
v -4.641501 1.417051 0.572103
v -4.640735 1.417040 0.580093
v -4.642630 1.415390 0.572063
v -4.642026 1.415239 0.570677
v -4.641262 1.415084 0.569787
v -4.640954 1.414068 0.569888
v -4.641553 1.413681 0.570832
v -4.638638 1.413913 0.571183
v -4.639050 1.414219 0.570117
v -4.638889 1.415273 0.570073
v -4.638390 1.415528 0.571115
v -4.640195 1.412751 0.572530
v -4.639606 1.416050 0.569935
v -4.640663 1.415966 0.569808
v -4.641108 1.416591 0.570709
v -4.640045 1.413091 0.571057
v -4.639969 1.413682 0.570035
v -4.639489 1.416719 0.570904
v -4.639410 1.414350 0.574908
v -4.638904 1.414025 0.574110
v -4.638640 1.415742 0.574037
v -4.639211 1.415650 0.574853
v -4.642049 1.413476 0.572254
v -4.639810 1.417010 0.573813
v -4.641531 1.416873 0.573606
v -4.640096 1.416610 0.574683
v -4.640401 1.413150 0.573976
v -4.642509 1.415435 0.573572
v -4.642005 1.413778 0.573737
v -4.640096 1.416610 0.574683
v -4.639788 1.416014 0.580275
v -4.642139 1.415417 0.574501
v -4.642129 1.416930 0.579926
v -4.640544 1.413688 0.574807
v -4.642513 1.414423 0.580032
v -4.639211 1.415650 0.574853
v -4.639788 1.416014 0.580275
v -4.639211 1.415650 0.574853
v -4.640001 1.414623 0.580334
v -4.641399 1.416506 0.574527
v -4.640096 1.416610 0.574683
v -4.640735 1.417040 0.580093
v -4.642129 1.416930 0.579926
v -4.641399 1.416506 0.574527
v -4.640735 1.417040 0.580093
v -4.641758 1.414163 0.574625
v -4.642139 1.415417 0.574501
v -4.642920 1.415765 0.579898
v -4.642513 1.414423 0.580032
v -4.641758 1.414163 0.574625
v -4.642920 1.415765 0.579898
v -4.639410 1.414350 0.574908
v -4.640544 1.413688 0.574807
v -4.641214 1.413915 0.580225
v -4.640001 1.414623 0.580334
v -4.639410 1.414350 0.574908
v -4.641214 1.413915 0.580225
v -4.640954 1.414068 0.569888
v -4.642026 1.415239 0.570677
v -4.638889 1.415273 0.570073
v -4.638638 1.413913 0.571183
v -4.640663 1.415966 0.569808
v -4.639489 1.416719 0.570904
v -4.639050 1.414219 0.570117
v -4.638638 1.413913 0.571183
v -4.639050 1.414219 0.570117
v -4.640045 1.413091 0.571057
v -4.639606 1.416050 0.569935
v -4.638889 1.415273 0.570073
v -4.638390 1.415528 0.571115
v -4.639489 1.416719 0.570904
v -4.639606 1.416050 0.569935
v -4.638390 1.415528 0.571115
v -4.641262 1.415084 0.569787
v -4.640663 1.415966 0.569808
v -4.641108 1.416591 0.570709
v -4.642026 1.415239 0.570677
v -4.641262 1.415084 0.569787
v -4.641108 1.416591 0.570709
v -4.639410 1.414350 0.574908
v -4.639211 1.415650 0.574853
v -4.638640 1.415742 0.574037
v -4.639410 1.414350 0.574908
v -4.640096 1.416610 0.574683
v -4.641399 1.416506 0.574527
v -4.641531 1.416873 0.573606
v -4.640096 1.416610 0.574683
v -4.642139 1.415417 0.574501
v -4.641758 1.414163 0.574625
v -4.642005 1.413778 0.573737
v -4.642139 1.415417 0.574501
v -4.638904 1.414025 0.574110
v -4.640544 1.413688 0.574807
v -4.639410 1.414350 0.574908
v -4.638904 1.414025 0.574110
v -4.640544 1.413688 0.574807
v -4.639810 1.417010 0.573813
v -4.638640 1.415742 0.574037
v -4.639211 1.415650 0.574853
v -4.640096 1.416610 0.574683
v -4.639810 1.417010 0.573813
v -4.639211 1.415650 0.574853
v -4.642509 1.415435 0.573572
v -4.641531 1.416873 0.573606
v -4.641399 1.416506 0.574527
v -4.642139 1.415417 0.574501
v -4.642509 1.415435 0.573572
v -4.641399 1.416506 0.574527
v -4.640401 1.413150 0.573976
v -4.642005 1.413778 0.573737
v -4.641758 1.414163 0.574625
v -4.640544 1.413688 0.574807
v -4.640401 1.413150 0.573976
v -4.641758 1.414163 0.574625
v -4.642005 1.413778 0.573737
v -4.640401 1.413150 0.573976
v -4.640195 1.412751 0.572530
v -4.642005 1.413778 0.573737
v -4.640045 1.413091 0.571057
v -4.641553 1.413681 0.570832
v -4.642049 1.413476 0.572254
v -4.640195 1.412751 0.572530
v -4.640045 1.413091 0.571057
v -4.642049 1.413476 0.572254
v -4.642049 1.413476 0.572254
v -4.642509 1.415435 0.573572
v -4.642005 1.413778 0.573737
v -4.642049 1.413476 0.572254
v -4.642509 1.415435 0.573572
v -4.641553 1.413681 0.570832
v -4.642026 1.415239 0.570677
v -4.642630 1.415390 0.572063
v -4.642049 1.413476 0.572254
v -4.641553 1.413681 0.570832
v -4.642630 1.415390 0.572063
v -4.642630 1.415390 0.572063
v -4.641531 1.416873 0.573606
v -4.642509 1.415435 0.573572
v -4.642630 1.415390 0.572063
v -4.641531 1.416873 0.573606
v -4.642026 1.415239 0.570677
v -4.641108 1.416591 0.570709
v -4.641501 1.417051 0.572103
v -4.642630 1.415390 0.572063
v -4.642026 1.415239 0.570677
v -4.641501 1.417051 0.572103
v -4.641501 1.417051 0.572103
v -4.639810 1.417010 0.573813
v -4.641531 1.416873 0.573606
v -4.641501 1.417051 0.572103
v -4.639810 1.417010 0.573813
v -4.641108 1.416591 0.570709
v -4.639489 1.416719 0.570904
v -4.639513 1.417209 0.572342
v -4.641501 1.417051 0.572103
v -4.641108 1.416591 0.570709
v -4.639513 1.417209 0.572342
v -4.639513 1.417209 0.572342
v -4.638640 1.415742 0.574037
v -4.639810 1.417010 0.573813
v -4.639513 1.417209 0.572342
v -4.638640 1.415742 0.574037
v -4.639489 1.416719 0.570904
v -4.638390 1.415528 0.571115
v -4.638161 1.415745 0.572601
v -4.639513 1.417209 0.572342
v -4.639489 1.416719 0.570904
v -4.638161 1.415745 0.572601
v -4.638161 1.415745 0.572601
v -4.638904 1.414025 0.574110
v -4.638640 1.415742 0.574037
v -4.638161 1.415745 0.572601
v -4.638904 1.414025 0.574110
v -4.638390 1.415528 0.571115
v -4.638638 1.413913 0.571183
v -4.638465 1.413761 0.572685
v -4.638161 1.415745 0.572601
v -4.638390 1.415528 0.571115
v -4.638465 1.413761 0.572685
v -4.638465 1.413761 0.572685
v -4.640195 1.412751 0.572530
v -4.640401 1.413150 0.573976
v -4.638904 1.414025 0.574110
v -4.638465 1.413761 0.572685
v -4.640401 1.413150 0.573976
v -4.638638 1.413913 0.571183
v -4.640045 1.413091 0.571057
v -4.640195 1.412751 0.572530
v -4.638465 1.413761 0.572685
v -4.638638 1.413913 0.571183
v -4.640195 1.412751 0.572530
v -4.639969 1.413682 0.570035
v -4.640954 1.414068 0.569888
v -4.641553 1.413681 0.570832
v -4.640045 1.413091 0.571057
v -4.639969 1.413682 0.570035
v -4.641553 1.413681 0.570832
v -4.641262 1.415084 0.569787
v -4.640954 1.414068 0.569888
v -4.640663 1.415966 0.569808
v -4.639969 1.413682 0.570035
v -4.640663 1.415966 0.569808
v -4.640954 1.414068 0.569888
v -4.639606 1.416050 0.569935
v -4.640663 1.415966 0.569808
v -4.639969 1.413682 0.570035
v -4.639050 1.414219 0.570117
v -4.639606 1.416050 0.569935
v -4.639969 1.413682 0.570035
v -4.638889 1.415273 0.570073
v -4.639606 1.416050 0.569935
v -4.639050 1.414219 0.570117
v -4.642920 1.415765 0.579898
v -4.642129 1.416930 0.579926
v -4.642513 1.414423 0.580032
v -4.641214 1.413915 0.580225
v -4.642513 1.414423 0.580032
v -4.642129 1.416930 0.579926
v -4.640735 1.417040 0.580093
v -4.641214 1.413915 0.580225
v -4.642129 1.416930 0.579926
v -4.640001 1.414623 0.580334
v -4.641214 1.413915 0.580225
v -4.640735 1.417040 0.580093
v -4.639788 1.416014 0.580275
v -4.640001 1.414623 0.580334
v -4.640735 1.417040 0.580093
vn -0.1240 0.0608 0.9904
vn 0.5637 -0.3653 -0.7408
vn 0.3086 0.4746 -0.8243
vn 0.6377 0.1179 -0.7612
vn 0.1422 -0.6113 -0.7785
vn 0.3087 0.4746 -0.8243
vn 0.5636 -0.3654 -0.7408
vn 0.1423 -0.6113 -0.7785
vn -0.1757 0.4360 -0.8826
vn -0.3091 -0.4348 -0.8458
vn -0.3090 -0.4348 -0.8458
vn -0.4506 0.0313 -0.8922
vn -0.6156 -0.6474 -0.4494
vn 0.1151 -0.9332 -0.3404
vn -0.3090 -0.4347 -0.8459
vn 0.0753 -0.9966 0.0325
vn 0.7973 -0.5350 -0.2794
vn 0.8220 -0.5608 0.0992
vn 0.0753 -0.9966 0.0324
vn 0.1152 -0.9332 -0.3404
vn 0.7973 -0.5351 -0.2794
vn 0.0247 -0.9162 0.4000
vn 0.7281 -0.5056 0.4628
vn 0.8220 -0.5608 0.0991
vn 0.9172 0.2473 -0.3125
vn 0.9532 0.2956 0.0630
vn 0.7281 -0.5055 0.4629
vn 0.8518 0.3011 0.4288
vn 0.3845 0.8248 -0.4146
vn 0.3702 0.9277 -0.0488
vn 0.9172 0.2474 -0.3124
vn 0.8517 0.3012 0.4288
vn 0.3025 0.8966 0.3234
vn 0.3701 0.9277 -0.0488
vn -0.3996 0.7625 -0.5089
vn -0.4881 0.8595 -0.1521
vn -0.3995 0.7624 -0.5090
vn 0.3024 0.8966 0.3235
vn -0.4881 0.8595 -0.1520
vn -0.5060 0.8323 0.2261
vn -0.4880 0.8595 -0.1521
vn -0.8446 0.1073 -0.5245
vn -0.9753 0.1423 -0.1690
vn -0.3996 0.7624 -0.5089
vn -0.5061 0.8323 0.2262
vn -0.9650 0.1567 0.2101
vn -0.4881 0.8594 -0.1521
vn -0.9753 0.1422 -0.1690
vn -0.7245 -0.6837 -0.0869
vn -0.8447 0.1073 -0.5244
vn -0.6156 -0.6473 -0.4495
vn -0.9650 0.1567 0.2102
vn -0.7288 -0.6214 0.2875
vn -0.7245 -0.6838 -0.0869
vn -0.7245 -0.6837 -0.0870
vn -0.7288 -0.6214 0.2876
vn -0.7368 -0.6424 0.2109
vn 0.0359 -0.9446 0.3262
vn -0.5084 0.8483 0.1479
vn -0.9650 0.1568 0.2102
vn -0.9790 0.1555 0.1316
vn -0.5060 0.8323 0.2262
vn 0.8839 0.3037 0.3557
vn 0.3206 0.9142 0.2477
vn 0.7571 -0.5236 0.3907
vn 0.0358 -0.9446 0.3262
vn -0.9790 0.1556 0.1315
vn -0.9790 0.1556 0.1316
vn 0.3207 0.9142 0.2477
vn -0.5060 0.8324 0.2262
vn -0.5084 0.8483 0.1480
vn 0.3024 0.8966 0.3234
vn 0.7571 -0.5236 0.3906
vn -0.1756 0.4360 -0.8826
vn 0.9172 0.2474 -0.3125
vn 0.6377 0.1178 -0.7612
vn 0.3086 0.4745 -0.8244
vn 0.1152 -0.9332 -0.3403
vn 0.5636 -0.3653 -0.7408
vn 0.5636 -0.3654 -0.7409
vn 0.3087 0.4745 -0.8244
vn -0.3091 -0.4348 -0.8459
vn -0.8446 0.1072 -0.5245
vn -0.3091 -0.4347 -0.8459
vn 0.0731 -0.9960 0.0508
vn 0.8201 -0.5600 0.1175
vn -0.9781 0.1434 -0.1508
vn -0.7272 -0.6830 -0.0687
vn 0.3680 0.9293 -0.0305
vn -0.4906 0.8611 -0.1338
vn 0.8202 -0.5599 0.1176
vn 0.9515 0.2968 0.0814
vn 0.8202 -0.5599 0.1175
vn 0.8839 0.3036 0.3557
vn -0.7272 -0.6830 -0.0686
vn -0.4906 0.8610 -0.1338
vn -0.9790 0.1555 0.1315
vn -0.9781 0.1435 -0.1508
vn -0.4906 0.8610 -0.1339
vn 0.9514 0.2969 0.0814
vn 0.3681 0.9293 -0.0305
vn 0.9514 0.2969 0.0813
vn 0.8839 0.3037 0.3558
vt 0.530319 0.635056
vt 0.522446 0.641335
vt 0.524872 0.636299
vt 0.524872 0.646370
vt 0.534683 0.638535
vt 0.530319 0.647614
vt 0.534683 0.644127
vt 0.508789 0.671494
vt 0.513626 0.669548
vt 0.511276 0.672157
vt 0.507889 0.669609
vt 0.511566 0.666756
vt 0.507935 0.667854
vt 0.509277 0.666748
vt 0.506302 0.666855
vt 0.505722 0.669838
vt 0.502487 0.669685
vt 0.506897 0.673050
vt 0.503479 0.674789
vt 0.497520 0.669067
vt 0.497810 0.676537
vt 0.510727 0.675606
vt 0.507721 0.680244
vt 0.501465 0.684982
vt 0.518890 0.674767
vt 0.518692 0.686485
vt 0.509125 0.696274
vt 0.518890 0.658051
vt 0.512238 0.663902
vt 0.511536 0.659698
vt 0.517990 0.665543
vt 0.515472 0.651657
vt 0.509323 0.655174
vt 0.508469 0.664742
vt 0.506836 0.661980
vt 0.504074 0.658463
vt 0.503784 0.665283
vt 0.499901 0.662933
vt 0.495453 0.660286
vt 0.491707 0.668175
vt 0.506927 0.651588
vt 0.501038 0.654999
vt 0.494583 0.688484
vt 0.500031 0.699394
vt 0.491287 0.678001
vt 0.512177 0.648293
vt 0.627350 0.642853
vt 0.649124 0.647896
vt 0.627441 0.648445
vt 0.649033 0.642670
vt 0.627441 0.631676
vt 0.649033 0.637444
vt 0.627350 0.637268
vt 0.649124 0.632225
vt 0.627914 0.620506
vt 0.649292 0.626999
vt 0.627625 0.626091
vt 0.649551 0.621780
vt 0.649292 0.653114
vt 0.627625 0.654030
vt 0.649551 0.658333
vt 0.627914 0.659607
s 0
usemtl decorations
f 240/1/1 239/2/1 238/3/1
f 237/1/1 236/4/1 235/2/1
f 234/5/1 233/4/1 232/1/1
f 231/5/1 230/6/1 229/4/1
f 228/6/1 227/5/1 226/7/1
s 1
f 225/8/2 224/9/3 223/10/4
f 222/11/5 221/9/6 220/8/7
f 219/11/8 218/12/9 217/9/3
f 216/13/10 215/12/9 214/11/8
f 213/12/9 212/13/11 211/14/12
f 210/15/13 209/11/8 208/16/14
f 207/15/13 206/13/15 205/11/8
f 204/17/16 203/18/17 202/19/18
f 201/17/19 200/16/20 199/18/21
f 198/20/22 197/19/18 196/21/23
f 195/20/22 194/17/19 193/19/24
f 192/19/18 191/22/25 190/23/26
f 189/19/18 188/18/17 187/22/25
f 186/21/27 185/23/26 184/24/28
f 183/21/27 3/19/18 182/23/26
f 181/23/26 180/25/29 179/26/30
f 178/23/26 177/22/31 176/25/29
f 175/24/32 174/26/30 173/27/33
f 172/24/32 4/23/26 171/26/30
f 170/28/34 169/29/35 168/30/36
f 167/28/34 166/31/29 165/29/37
f 164/32/38 163/30/39 162/33/40
f 161/32/38 13/28/34 160/30/41
f 159/30/36 158/34/42 157/35/43
f 156/30/36 155/29/44 154/34/42
f 153/33/45 152/35/43 151/36/46
f 150/33/45 14/30/47 149/35/43
f 148/35/48 147/15/13 146/37/49
f 145/35/48 144/34/50 143/15/51
f 142/36/52 141/37/49 140/38/53
f 139/36/52 16/35/43 138/37/49
f 137/37/54 136/16/14 135/17/16
f 134/37/55 133/15/13 132/16/14
f 131/38/56 130/17/16 129/20/22
f 128/38/56 36/37/49 25/17/16
f 127/39/57 126/20/22 125/40/58
f 124/39/57 123/38/53 122/20/22
f 121/41/59 120/36/60 119/42/61
f 118/41/59 117/33/62 116/36/60
f 115/43/63 114/27/33 113/44/64
f 112/43/63 111/24/32 110/27/33
f 109/40/58 108/21/23 107/45/65
f 106/40/66 40/20/22 105/21/23
f 104/42/67 103/38/53 102/39/57
f 101/42/68 41/36/52 42/38/53
f 100/46/69 99/33/70 98/41/71
f 97/46/69 37/32/72 38/33/70
f 96/45/73 95/24/32 94/43/63
f 93/45/65 33/21/23 34/24/32
f 92/29/44 91/14/12 90/34/42
f 89/29/44 88/12/74 87/14/12
f 86/22/75 85/9/3 84/25/29
f 83/22/75 82/10/76 81/9/77
f 80/16/78 79/8/79 78/18/17
f 29/16/78 30/11/5 77/8/80
f 76/31/29 75/12/9 28/29/37
f 31/31/29 26/9/81 27/12/74
f 74/18/17 73/10/4 24/22/25
f 21/18/17 22/8/80 23/10/4
f 72/34/42 71/13/82 20/15/13
f 17/34/83 18/14/12 19/13/84
f 70/47/85 69/48/73 68/49/86
f 67/47/85 66/50/66 65/48/65
f 64/51/87 63/52/57 62/53/88
f 61/51/87 60/54/61 59/52/57
f 58/55/89 57/56/59 56/57/90
f 55/55/89 54/58/69 53/56/71
f 52/49/91 51/59/63 50/60/92
f 2/49/93 32/48/65 49/59/94
f 48/53/95 47/50/58 12/47/85
f 9/53/88 10/52/57 11/50/58
f 46/57/96 45/54/97 8/51/98
f 5/57/99 6/56/59 7/54/61
f 44/60/100 43/61/69 15/62/101
f 1/60/102 35/59/103 39/61/69
