# Blender 5.0.0
# www.blender.org
mtllib Circle_005_Circle_004_Dupli_240_decorations_0.mtl
o Circle.005|Circle.004|Dupli|240_decorations_0
v -4.713939 0.794436 0.510062
v -4.713061 0.794460 0.508960
v -4.707433 0.790747 0.512979
v -4.708685 0.790714 0.514550
v -4.713535 0.796691 0.511154
v -4.709568 0.794434 0.514158
v -4.708655 0.794976 0.513381
v -4.712558 0.797272 0.510322
v -4.711955 0.796734 0.509169
v -4.708091 0.794473 0.512303
v -4.708300 0.793303 0.511737
v -4.712178 0.795482 0.508563
v -4.708985 0.792131 0.515943
v -4.708109 0.793931 0.516108
v -4.714149 0.795429 0.511038
v -4.706715 0.794759 0.514921
v -4.705797 0.793778 0.515631
v -4.705287 0.792782 0.516016
v -4.704830 0.792375 0.515142
v -4.705096 0.793154 0.514292
v -4.706381 0.790513 0.514051
v -4.705668 0.790652 0.514984
v -4.706333 0.790634 0.515819
v -4.707400 0.790486 0.515329
v -4.706173 0.792206 0.512412
v -4.706493 0.791386 0.516558
v -4.706028 0.792343 0.516646
v -4.706931 0.793104 0.516597
v -4.705356 0.791701 0.513589
v -4.704999 0.791427 0.514683
v -4.707644 0.791639 0.516463
v -4.709126 0.792348 0.512108
v -4.708499 0.791598 0.512321
v -4.709582 0.791569 0.513681
v -4.709946 0.792326 0.513138
v -4.705854 0.793992 0.513276
v -4.709843 0.792795 0.514886
v -4.709084 0.794354 0.515029
v -4.710143 0.793254 0.514050
v -4.707408 0.792861 0.511830
v -4.707878 0.795071 0.514002
v -4.707132 0.794406 0.512578
v -4.710143 0.793254 0.514050
v -4.713939 0.794436 0.510062
v -4.708655 0.794976 0.513381
v -4.713535 0.796691 0.511154
v -4.708300 0.793303 0.511737
v -4.711955 0.796734 0.509169
v -4.709946 0.792326 0.513138
v -4.713939 0.794436 0.510062
v -4.709946 0.792326 0.513138
v -4.713061 0.794460 0.508960
v -4.709568 0.794434 0.514158
v -4.710143 0.793254 0.514050
v -4.714149 0.795429 0.511038
v -4.713535 0.796691 0.511154
v -4.709568 0.794434 0.514158
v -4.714149 0.795429 0.511038
v -4.708091 0.794473 0.512303
v -4.708655 0.794976 0.513381
v -4.712558 0.797272 0.510322
v -4.711955 0.796734 0.509169
v -4.708091 0.794473 0.512303
v -4.712558 0.797272 0.510322
v -4.709126 0.792348 0.512108
v -4.708300 0.793303 0.511737
v -4.712178 0.795482 0.508563
v -4.713061 0.794460 0.508960
v -4.709126 0.792348 0.512108
v -4.712178 0.795482 0.508563
v -4.704830 0.792375 0.515142
v -4.705797 0.793778 0.515631
v -4.706333 0.790634 0.515819
v -4.706381 0.790513 0.514051
v -4.706028 0.792343 0.516646
v -4.707644 0.791639 0.516463
v -4.705668 0.790652 0.514984
v -4.706381 0.790513 0.514051
v -4.705668 0.790652 0.514984
v -4.705356 0.791701 0.513589
v -4.706493 0.791386 0.516558
v -4.706333 0.790634 0.515819
v -4.707400 0.790486 0.515329
v -4.707644 0.791639 0.516463
v -4.706493 0.791386 0.516558
v -4.707400 0.790486 0.515329
v -4.705287 0.792782 0.516016
v -4.706028 0.792343 0.516646
v -4.706931 0.793104 0.516597
v -4.705797 0.793778 0.515631
v -4.705287 0.792782 0.516016
v -4.706931 0.793104 0.516597
v -4.709126 0.792348 0.512108
v -4.709946 0.792326 0.513138
v -4.709582 0.791569 0.513681
v -4.709126 0.792348 0.512108
v -4.710143 0.793254 0.514050
v -4.709568 0.794434 0.514158
v -4.709084 0.794354 0.515029
v -4.710143 0.793254 0.514050
v -4.708655 0.794976 0.513381
v -4.708091 0.794473 0.512303
v -4.707132 0.794406 0.512578
v -4.708655 0.794976 0.513381
v -4.708499 0.791598 0.512321
v -4.708300 0.793303 0.511737
v -4.709126 0.792348 0.512108
v -4.708499 0.791598 0.512321
v -4.708300 0.793303 0.511737
v -4.709843 0.792795 0.514886
v -4.709582 0.791569 0.513681
v -4.709946 0.792326 0.513138
v -4.710143 0.793254 0.514050
v -4.709843 0.792795 0.514886
v -4.709946 0.792326 0.513138
v -4.707878 0.795071 0.514002
v -4.709084 0.794354 0.515029
v -4.709568 0.794434 0.514158
v -4.708655 0.794976 0.513381
v -4.707878 0.795071 0.514002
v -4.709568 0.794434 0.514158
v -4.707408 0.792861 0.511830
v -4.707132 0.794406 0.512578
v -4.708091 0.794473 0.512303
v -4.708300 0.793303 0.511737
v -4.707408 0.792861 0.511830
v -4.708091 0.794473 0.512303
v -4.707132 0.794406 0.512578
v -4.707408 0.792861 0.511830
v -4.706173 0.792206 0.512412
v -4.707132 0.794406 0.512578
v -4.705356 0.791701 0.513589
v -4.705096 0.793154 0.514292
v -4.705854 0.793992 0.513276
v -4.706173 0.792206 0.512412
v -4.705356 0.791701 0.513589
v -4.705854 0.793992 0.513276
v -4.705854 0.793992 0.513276
v -4.707878 0.795071 0.514002
v -4.707132 0.794406 0.512578
v -4.705854 0.793992 0.513276
v -4.707878 0.795071 0.514002
v -4.705096 0.793154 0.514292
v -4.705797 0.793778 0.515631
v -4.706715 0.794759 0.514921
v -4.705854 0.793992 0.513276
v -4.705096 0.793154 0.514292
v -4.706715 0.794759 0.514921
v -4.706715 0.794759 0.514921
v -4.709084 0.794354 0.515029
v -4.707878 0.795071 0.514002
v -4.706715 0.794759 0.514921
v -4.709084 0.794354 0.515029
v -4.705797 0.793778 0.515631
v -4.706931 0.793104 0.516597
v -4.708109 0.793931 0.516108
v -4.706715 0.794759 0.514921
v -4.705797 0.793778 0.515631
v -4.708109 0.793931 0.516108
v -4.708109 0.793931 0.516108
v -4.709843 0.792795 0.514886
v -4.709084 0.794354 0.515029
v -4.708109 0.793931 0.516108
v -4.709843 0.792795 0.514886
v -4.706931 0.793104 0.516597
v -4.707644 0.791639 0.516463
v -4.708985 0.792131 0.515943
v -4.708109 0.793931 0.516108
v -4.706931 0.793104 0.516597
v -4.708985 0.792131 0.515943
v -4.708985 0.792131 0.515943
v -4.709582 0.791569 0.513681
v -4.709843 0.792795 0.514886
v -4.708985 0.792131 0.515943
v -4.709582 0.791569 0.513681
v -4.707644 0.791639 0.516463
v -4.707400 0.790486 0.515329
v -4.708685 0.790714 0.514550
v -4.708985 0.792131 0.515943
v -4.707644 0.791639 0.516463
v -4.708685 0.790714 0.514550
v -4.708685 0.790714 0.514550
v -4.708499 0.791598 0.512321
v -4.709582 0.791569 0.513681
v -4.708685 0.790714 0.514550
v -4.708499 0.791598 0.512321
v -4.707400 0.790486 0.515329
v -4.706381 0.790513 0.514051
v -4.707433 0.790747 0.512979
v -4.708685 0.790714 0.514550
v -4.707400 0.790486 0.515329
v -4.707433 0.790747 0.512979
v -4.707433 0.790747 0.512979
v -4.706173 0.792206 0.512412
v -4.707408 0.792861 0.511830
v -4.708499 0.791598 0.512321
v -4.707433 0.790747 0.512979
v -4.707408 0.792861 0.511830
v -4.706381 0.790513 0.514051
v -4.705356 0.791701 0.513589
v -4.706173 0.792206 0.512412
v -4.707433 0.790747 0.512979
v -4.706381 0.790513 0.514051
v -4.706173 0.792206 0.512412
v -4.704999 0.791427 0.514683
v -4.704830 0.792375 0.515142
v -4.705096 0.793154 0.514292
v -4.705356 0.791701 0.513589
v -4.704999 0.791427 0.514683
v -4.705096 0.793154 0.514292
v -4.705287 0.792782 0.516016
v -4.704830 0.792375 0.515142
v -4.706028 0.792343 0.516646
v -4.704999 0.791427 0.514683
v -4.706028 0.792343 0.516646
v -4.704830 0.792375 0.515142
v -4.706493 0.791386 0.516558
v -4.706028 0.792343 0.516646
v -4.704999 0.791427 0.514683
v -4.705668 0.790652 0.514984
v -4.706493 0.791386 0.516558
v -4.704999 0.791427 0.514683
v -4.706333 0.790634 0.515819
v -4.706493 0.791386 0.516558
v -4.705668 0.790652 0.514984
v -4.712558 0.797272 0.510322
v -4.713535 0.796691 0.511154
v -4.711955 0.796734 0.509169
v -4.712178 0.795482 0.508563
v -4.711955 0.796734 0.509169
v -4.713535 0.796691 0.511154
v -4.714149 0.795429 0.511038
v -4.712178 0.795482 0.508563
v -4.713535 0.796691 0.511154
v -4.713061 0.794460 0.508960
v -4.712178 0.795482 0.508563
v -4.714149 0.795429 0.511038
v -4.713939 0.794436 0.510062
v -4.713061 0.794460 0.508960
v -4.714149 0.795429 0.511038
vn -0.7203 0.4024 -0.5650
vn 0.5921 -0.7933 0.1418
vn 0.2141 -0.4564 0.8636
vn 0.2874 -0.8015 0.5245
vn 0.8990 -0.4380 0.0036
vn 0.5921 -0.7933 0.1417
vn 0.8989 -0.4380 0.0036
vn 0.4276 -0.0179 0.9038
vn 0.9768 -0.0032 0.2141
vn 0.7671 0.1838 0.6147
vn 0.9123 0.3687 -0.1782
vn 0.7864 -0.3353 -0.5189
vn 0.9768 -0.0032 0.2142
vn 0.8990 -0.4380 0.0037
vn 0.5661 -0.2024 -0.7991
vn 0.2896 -0.9105 -0.2953
vn 0.0224 -0.8320 -0.5543
vn 0.5662 -0.2024 -0.7990
vn 0.7863 -0.3353 -0.5189
vn 0.2896 -0.9104 -0.2953
vn 0.2646 -0.0406 -0.9635
vn -0.2475 -0.6337 -0.7329
vn 0.2647 -0.0406 -0.9635
vn 0.0225 -0.8320 -0.5543
vn -0.2038 -0.9237 0.3243
vn -0.5177 -0.8466 0.1239
vn -0.2476 -0.6337 -0.7329
vn -0.5176 -0.8466 0.1239
vn -0.7563 -0.6474 -0.0940
vn -0.3224 -0.3651 0.8734
vn -0.6475 -0.2350 0.7249
vn -0.2039 -0.9237 0.3243
vn -0.7564 -0.6473 -0.0940
vn -0.8786 -0.0713 0.4722
vn -0.5177 -0.8465 0.1239
vn 0.0232 0.3448 0.9384
vn -0.2692 0.5419 0.7961
vn -0.6475 -0.2350 0.7250
vn 0.0232 0.3447 0.9384
vn -0.2692 0.5420 0.7961
vn -0.5222 0.6606 0.5393
vn -0.2692 0.5419 0.7962
vn 0.5727 0.6713 0.4705
vn 0.3323 0.8994 0.2839
vn -0.5222 0.6607 0.5392
vn 0.0444 0.9974 0.0567
vn 0.3323 0.8994 0.2838
vn 0.9123 0.3687 -0.1781
vn 0.7041 0.5681 -0.4260
vn 0.5727 0.6713 0.4704
vn 0.3946 0.6853 -0.6120
vn 0.7041 0.5681 -0.4261
vn 0.3946 0.6853 -0.6121
vn 0.4657 0.6686 -0.5798
vn 0.3324 -0.0757 -0.9401
vn -0.4744 0.6433 0.6009
vn 0.1066 0.9886 0.1060
vn -0.5223 0.6607 0.5392
vn -0.7145 -0.6979 -0.0484
vn -0.8786 -0.0714 0.4722
vn -0.8399 -0.1072 0.5321
vn -0.7145 -0.6979 -0.0485
vn -0.7564 -0.6474 -0.0940
vn 0.3325 -0.0758 -0.9401
vn -0.1928 -0.6839 -0.7037
vn 0.3325 -0.0757 -0.9401
vn 0.1066 0.9886 0.1061
vn 0.4657 0.6686 -0.5797
vn -0.8399 -0.1073 0.5321
vn -0.5223 0.6606 0.5393
vn -0.4744 0.6434 0.6008
vn -0.1928 -0.6839 -0.7036
vn 0.7670 0.1838 0.6147
vn 0.4276 -0.0180 0.9038
vn -0.2038 -0.9237 0.3244
vn 0.2142 -0.4564 0.8636
vn 0.2874 -0.8015 0.5244
vn 0.7863 -0.3353 -0.5190
vn 0.5922 -0.7933 0.1418
vn -0.3223 -0.3651 0.8734
vn 0.2873 -0.8015 0.5245
vn 0.2895 -0.9105 -0.2953
vn 0.5531 -0.1951 -0.8099
vn 0.0091 -0.8250 -0.5651
vn 0.3192 0.9073 0.2735
vn 0.6911 0.5759 -0.4367
vn 0.3193 0.9073 0.2736
vn -0.6611 -0.2277 0.7149
vn -0.4744 0.6434 0.6009
vn -0.2827 0.5496 0.7861
vn 0.0091 -0.8250 -0.5650
vn -0.7145 -0.6980 -0.0485
vn -0.5313 -0.8396 0.1135
vn 0.6912 0.5758 -0.4367
vn -0.2826 0.5497 0.7861
vn 0.3192 0.9073 0.2736
vn -0.5313 -0.8395 0.1135
vn -0.5313 -0.8396 0.1136
vt 0.530319 0.635056
vt 0.522446 0.641335
vt 0.524872 0.636299
vt 0.524872 0.646370
vt 0.534683 0.638535
vt 0.530319 0.647614
vt 0.534683 0.644127
vt 0.508789 0.671494
vt 0.513626 0.669548
vt 0.511276 0.672157
vt 0.507889 0.669609
vt 0.511566 0.666756
vt 0.507935 0.667854
vt 0.509277 0.666748
vt 0.506302 0.666855
vt 0.505722 0.669838
vt 0.502487 0.669685
vt 0.506897 0.673050
vt 0.503479 0.674789
vt 0.497520 0.669067
vt 0.497810 0.676537
vt 0.510727 0.675606
vt 0.507721 0.680244
vt 0.501465 0.684982
vt 0.518890 0.674767
vt 0.518692 0.686485
vt 0.509125 0.696274
vt 0.518890 0.658051
vt 0.512238 0.663902
vt 0.511536 0.659698
vt 0.517990 0.665543
vt 0.515472 0.651657
vt 0.509323 0.655174
vt 0.508469 0.664742
vt 0.506836 0.661980
vt 0.504074 0.658463
vt 0.503784 0.665283
vt 0.499901 0.662933
vt 0.495453 0.660286
vt 0.491707 0.668175
vt 0.506927 0.651588
vt 0.501038 0.654999
vt 0.494583 0.688484
vt 0.500031 0.699394
vt 0.491287 0.678001
vt 0.512177 0.648293
vt 0.627350 0.642853
vt 0.649124 0.647896
vt 0.627441 0.648445
vt 0.649033 0.642670
vt 0.627441 0.631676
vt 0.649033 0.637444
vt 0.627350 0.637268
vt 0.649124 0.632225
vt 0.627914 0.620506
vt 0.649292 0.626999
vt 0.627625 0.626091
vt 0.649551 0.621780
vt 0.649292 0.653114
vt 0.627625 0.654030
vt 0.649551 0.658333
vt 0.627914 0.659607
s 0
usemtl decorations
f 240/1/1 239/2/1 238/3/1
f 237/1/1 236/4/1 235/2/1
f 234/5/1 233/4/1 232/1/1
f 231/5/1 230/6/1 229/4/1
f 228/6/1 227/5/1 226/7/1
s 1
f 225/8/2 224/9/3 223/10/4
f 222/11/5 221/9/3 220/8/6
f 219/11/7 218/12/8 217/9/3
f 216/13/9 215/12/8 214/11/5
f 213/12/8 212/13/9 211/14/10
f 210/15/11 209/11/5 208/16/12
f 207/15/11 206/13/13 205/11/14
f 204/17/15 203/18/16 202/19/17
f 201/17/18 200/16/19 199/18/20
f 198/20/21 197/19/17 196/21/22
f 195/20/23 194/17/18 193/19/24
f 192/19/17 191/22/25 190/23/26
f 189/19/17 188/18/16 187/22/25
f 186/21/27 185/23/28 184/24/29
f 183/21/27 3/19/17 182/23/28
f 181/23/26 180/25/30 179/26/31
f 178/23/26 177/22/32 176/25/30
f 175/24/33 174/26/31 173/27/34
f 172/24/33 4/23/35 171/26/31
f 170/28/31 169/29/36 168/30/37
f 167/28/38 166/31/30 165/29/39
f 164/32/34 163/30/40 162/33/41
f 161/32/34 13/28/38 160/30/42
f 159/30/37 158/34/43 157/35/44
f 156/30/37 155/29/36 154/34/43
f 153/33/45 152/35/44 151/36/46
f 150/33/45 14/30/40 149/35/44
f 148/35/47 147/15/48 146/37/49
f 145/35/47 144/34/50 143/15/48
f 142/36/46 141/37/49 140/38/51
f 139/36/46 16/35/44 138/37/49
f 137/37/52 136/16/19 135/17/15
f 134/37/49 133/15/48 132/16/12
f 131/38/53 130/17/15 129/20/23
f 128/38/53 36/37/49 25/17/15
f 127/39/54 126/20/23 125/40/55
f 124/39/54 123/38/53 122/20/23
f 121/41/56 120/36/46 119/42/57
f 118/41/56 117/33/58 116/36/46
f 115/43/59 114/27/60 113/44/61
f 112/43/62 111/24/63 110/27/60
f 109/40/64 108/21/22 107/45/65
f 106/40/66 40/20/21 105/21/22
f 104/42/67 103/38/51 102/39/68
f 101/42/67 41/36/46 42/38/51
f 100/46/69 99/33/70 98/41/71
f 97/46/69 37/32/34 38/33/70
f 96/45/72 95/24/29 94/43/62
f 93/45/72 33/21/27 34/24/29
f 92/29/36 91/14/73 90/34/43
f 89/29/36 88/12/74 87/14/10
f 86/22/75 85/9/76 84/25/30
f 83/22/75 82/10/77 81/9/76
f 80/16/19 79/8/2 78/18/20
f 29/16/78 30/11/5 77/8/79
f 76/31/80 75/12/8 28/29/39
f 31/31/30 26/9/76 27/12/74
f 74/18/16 73/10/81 24/22/25
f 21/18/82 22/8/79 23/10/4
f 72/34/50 71/13/9 20/15/48
f 17/34/50 18/14/73 19/13/13
f 70/47/83 69/48/72 68/49/84
f 67/47/83 66/50/55 65/48/72
f 64/51/85 63/52/68 62/53/86
f 61/51/87 60/54/57 59/52/68
f 58/55/88 57/56/89 56/57/90
f 55/55/88 54/58/69 53/56/71
f 52/49/91 51/59/92 50/60/93
f 2/49/91 32/48/65 49/59/62
f 48/53/86 47/50/64 12/47/83
f 9/53/94 10/52/68 11/50/55
f 46/57/95 45/54/57 8/51/96
f 5/57/95 6/56/71 7/54/57
f 44/60/97 43/61/69 15/62/88
f 1/60/98 35/59/62 39/61/69
