# Blender 5.0.0
# www.blender.org
mtllib Circle_005_Circle_001_Dupli_146_decorations_0.mtl
o Circle.005|Circle.001|Dupli|146_decorations_0
v -4.477176 2.120064 0.554513
v -4.475869 2.119542 0.554469
v -4.472674 2.126709 0.554630
v -4.474538 2.127455 0.554693
v -4.477826 2.120170 0.552062
v -4.475730 2.125211 0.551810
v -4.474658 2.124747 0.551202
v -4.476679 2.119674 0.551412
v -4.475471 2.119229 0.551982
v -4.473528 2.124330 0.551735
v -4.473191 2.124275 0.553006
v -4.475110 2.119170 0.553342
v -4.475781 2.127854 0.553165
v -4.475466 2.127606 0.551197
v -4.478047 2.120344 0.553442
v -4.473830 2.126898 0.550270
v -4.473270 2.128268 0.550616
v -4.472874 2.129209 0.551212
v -4.471958 2.128872 0.551643
v -4.471867 2.127751 0.551277
v -4.472330 2.128114 0.554164
v -4.472260 2.129109 0.553527
v -4.473250 2.129505 0.553561
v -4.473847 2.128721 0.554215
v -4.471591 2.126179 0.553023
v -4.473910 2.129717 0.552750
v -4.473742 2.129585 0.551704
v -4.474601 2.128844 0.551370
v -4.471448 2.127682 0.552856
v -4.471684 2.128827 0.552674
v -4.474858 2.129046 0.552972
v -4.473901 2.124623 0.554059
v -4.473360 2.125373 0.554440
v -4.474974 2.126019 0.554495
v -4.475122 2.125112 0.554101
v -4.472106 2.126262 0.551082
v -4.476049 2.126364 0.553172
v -4.475777 2.126149 0.551468
v -4.475936 2.125373 0.553100
v -4.472423 2.124914 0.553049
v -4.474361 2.125536 0.550666
v -4.472868 2.124986 0.551369
v -4.475936 2.125373 0.553100
v -4.477176 2.120064 0.554513
v -4.474658 2.124747 0.551202
v -4.477826 2.120170 0.552062
v -4.473191 2.124275 0.553006
v -4.475471 2.119229 0.551982
v -4.475122 2.125112 0.554101
v -4.477176 2.120064 0.554513
v -4.475122 2.125112 0.554101
v -4.475869 2.119542 0.554469
v -4.475730 2.125211 0.551810
v -4.475936 2.125373 0.553100
v -4.478047 2.120344 0.553442
v -4.477826 2.120170 0.552062
v -4.475730 2.125211 0.551810
v -4.478047 2.120344 0.553442
v -4.473528 2.124330 0.551735
v -4.474658 2.124747 0.551202
v -4.476679 2.119674 0.551412
v -4.475471 2.119229 0.551982
v -4.473528 2.124330 0.551735
v -4.476679 2.119674 0.551412
v -4.473901 2.124623 0.554059
v -4.473191 2.124275 0.553006
v -4.475110 2.119170 0.553342
v -4.475869 2.119542 0.554469
v -4.473901 2.124623 0.554059
v -4.475110 2.119170 0.553342
v -4.471958 2.128872 0.551643
v -4.473270 2.128268 0.550616
v -4.473250 2.129505 0.553561
v -4.472330 2.128114 0.554164
v -4.473742 2.129585 0.551704
v -4.474858 2.129046 0.552972
v -4.472260 2.129109 0.553527
v -4.472330 2.128114 0.554164
v -4.472260 2.129109 0.553527
v -4.471448 2.127682 0.552856
v -4.473910 2.129717 0.552750
v -4.473250 2.129505 0.553561
v -4.473847 2.128721 0.554215
v -4.474858 2.129046 0.552972
v -4.473910 2.129717 0.552750
v -4.473847 2.128721 0.554215
v -4.472874 2.129209 0.551212
v -4.473742 2.129585 0.551704
v -4.474601 2.128844 0.551370
v -4.473270 2.128268 0.550616
v -4.472874 2.129209 0.551212
v -4.474601 2.128844 0.551370
v -4.473901 2.124623 0.554059
v -4.475122 2.125112 0.554101
v -4.474974 2.126019 0.554495
v -4.473901 2.124623 0.554059
v -4.475936 2.125373 0.553100
v -4.475730 2.125211 0.551810
v -4.475777 2.126149 0.551468
v -4.475936 2.125373 0.553100
v -4.474658 2.124747 0.551202
v -4.473528 2.124330 0.551735
v -4.472868 2.124986 0.551369
v -4.474658 2.124747 0.551202
v -4.473360 2.125373 0.554440
v -4.473191 2.124275 0.553006
v -4.473901 2.124623 0.554059
v -4.473360 2.125373 0.554440
v -4.473191 2.124275 0.553006
v -4.476049 2.126364 0.553172
v -4.474974 2.126019 0.554495
v -4.475122 2.125112 0.554101
v -4.475936 2.125373 0.553100
v -4.476049 2.126364 0.553172
v -4.475122 2.125112 0.554101
v -4.474361 2.125536 0.550666
v -4.475777 2.126149 0.551468
v -4.475730 2.125211 0.551810
v -4.474658 2.124747 0.551202
v -4.474361 2.125536 0.550666
v -4.475730 2.125211 0.551810
v -4.472423 2.124914 0.553049
v -4.472868 2.124986 0.551369
v -4.473528 2.124330 0.551735
v -4.473191 2.124275 0.553006
v -4.472423 2.124914 0.553049
v -4.473528 2.124330 0.551735
v -4.472868 2.124986 0.551369
v -4.472423 2.124914 0.553049
v -4.471591 2.126179 0.553023
v -4.472868 2.124986 0.551369
v -4.471448 2.127682 0.552856
v -4.471867 2.127751 0.551277
v -4.472106 2.126262 0.551082
v -4.471591 2.126179 0.553023
v -4.471448 2.127682 0.552856
v -4.472106 2.126262 0.551082
v -4.472106 2.126262 0.551082
v -4.474361 2.125536 0.550666
v -4.472868 2.124986 0.551369
v -4.472106 2.126262 0.551082
v -4.474361 2.125536 0.550666
v -4.471867 2.127751 0.551277
v -4.473270 2.128268 0.550616
v -4.473830 2.126898 0.550270
v -4.472106 2.126262 0.551082
v -4.471867 2.127751 0.551277
v -4.473830 2.126898 0.550270
v -4.473830 2.126898 0.550270
v -4.475777 2.126149 0.551468
v -4.474361 2.125536 0.550666
v -4.473830 2.126898 0.550270
v -4.475777 2.126149 0.551468
v -4.473270 2.128268 0.550616
v -4.474601 2.128844 0.551370
v -4.475466 2.127606 0.551197
v -4.473830 2.126898 0.550270
v -4.473270 2.128268 0.550616
v -4.475466 2.127606 0.551197
v -4.475466 2.127606 0.551197
v -4.476049 2.126364 0.553172
v -4.475777 2.126149 0.551468
v -4.475466 2.127606 0.551197
v -4.476049 2.126364 0.553172
v -4.474601 2.128844 0.551370
v -4.474858 2.129046 0.552972
v -4.475781 2.127854 0.553165
v -4.475466 2.127606 0.551197
v -4.474601 2.128844 0.551370
v -4.475781 2.127854 0.553165
v -4.475781 2.127854 0.553165
v -4.474974 2.126019 0.554495
v -4.476049 2.126364 0.553172
v -4.475781 2.127854 0.553165
v -4.474974 2.126019 0.554495
v -4.474858 2.129046 0.552972
v -4.473847 2.128721 0.554215
v -4.474538 2.127455 0.554693
v -4.475781 2.127854 0.553165
v -4.474858 2.129046 0.552972
v -4.474538 2.127455 0.554693
v -4.474538 2.127455 0.554693
v -4.473360 2.125373 0.554440
v -4.474974 2.126019 0.554495
v -4.474538 2.127455 0.554693
v -4.473360 2.125373 0.554440
v -4.473847 2.128721 0.554215
v -4.472330 2.128114 0.554164
v -4.472674 2.126709 0.554630
v -4.474538 2.127455 0.554693
v -4.473847 2.128721 0.554215
v -4.472674 2.126709 0.554630
v -4.472674 2.126709 0.554630
v -4.471591 2.126179 0.553023
v -4.472423 2.124914 0.553049
v -4.473360 2.125373 0.554440
v -4.472674 2.126709 0.554630
v -4.472423 2.124914 0.553049
v -4.472330 2.128114 0.554164
v -4.471448 2.127682 0.552856
v -4.471591 2.126179 0.553023
v -4.472674 2.126709 0.554630
v -4.472330 2.128114 0.554164
v -4.471591 2.126179 0.553023
v -4.471684 2.128827 0.552674
v -4.471958 2.128872 0.551643
v -4.471867 2.127751 0.551277
v -4.471448 2.127682 0.552856
v -4.471684 2.128827 0.552674
v -4.471867 2.127751 0.551277
v -4.472874 2.129209 0.551212
v -4.471958 2.128872 0.551643
v -4.473742 2.129585 0.551704
v -4.471684 2.128827 0.552674
v -4.473742 2.129585 0.551704
v -4.471958 2.128872 0.551643
v -4.473910 2.129717 0.552750
v -4.473742 2.129585 0.551704
v -4.471684 2.128827 0.552674
v -4.472260 2.129109 0.553527
v -4.473910 2.129717 0.552750
v -4.471684 2.128827 0.552674
v -4.473250 2.129505 0.553561
v -4.473910 2.129717 0.552750
v -4.472260 2.129109 0.553527
v -4.476679 2.119674 0.551412
v -4.477826 2.120170 0.552062
v -4.475471 2.119229 0.551982
v -4.475110 2.119170 0.553342
v -4.475471 2.119229 0.551982
v -4.477826 2.120170 0.552062
v -4.478047 2.120344 0.553442
v -4.475110 2.119170 0.553342
v -4.477826 2.120170 0.552062
v -4.475869 2.119542 0.554469
v -4.475110 2.119170 0.553342
v -4.478047 2.120344 0.553442
v -4.477176 2.120064 0.554513
v -4.475869 2.119542 0.554469
v -4.478047 2.120344 0.553442
vn -0.3690 -0.9276 0.0578
vn 0.5575 0.6966 0.4515
vn -0.1991 0.9754 0.0948
vn 0.1035 0.8782 0.4670
vn 0.8213 0.5674 0.0600
vn -0.1991 0.9754 0.0949
vn 0.5576 0.6966 0.4515
vn 0.8213 0.5674 0.0601
vn -0.1223 0.9149 -0.3846
vn 0.6960 0.5877 -0.4125
vn 0.2761 0.7424 -0.6104
vn 0.7841 0.0898 -0.6141
vn 0.9869 0.0569 0.1509
vn 0.6960 0.5878 -0.4125
vn 0.9294 -0.3172 0.1889
vn 0.5600 0.2661 0.7846
vn 0.4621 -0.0880 0.8824
vn 0.9294 -0.3171 0.1888
vn 0.9869 0.0569 0.1510
vn 0.5600 0.2662 0.7846
vn 0.7379 -0.6448 0.1995
vn 0.4621 -0.0880 0.8825
vn 0.2977 -0.4289 0.8529
vn -0.1752 0.5601 0.8097
vn -0.3426 0.2338 0.9099
vn 0.2976 -0.4289 0.8529
vn -0.4604 -0.1258 0.8788
vn -0.3427 0.2338 0.9099
vn -0.6651 0.7174 0.2073
vn -0.8789 0.4059 0.2505
vn -0.4605 -0.1258 0.8787
vn -0.9656 0.0364 0.2576
vn -0.4604 -0.1258 0.8787
vn -0.5408 0.6196 -0.5689
vn -0.7428 0.2989 -0.5991
vn -0.5407 0.6196 -0.5689
vn -0.9656 0.0364 0.2575
vn -0.7428 0.2988 -0.5991
vn -0.8374 -0.0644 -0.5428
vn 0.1042 0.3404 -0.9345
vn -0.0368 -0.0069 -0.9993
vn -0.5407 0.6196 -0.5690
vn 0.1042 0.3403 -0.9345
vn -0.8373 -0.0645 -0.5429
vn -0.1723 -0.3524 -0.9198
vn 0.7841 0.0899 -0.6142
vn 0.7074 -0.2810 -0.6486
vn 0.7840 0.0899 -0.6142
vn -0.1723 -0.3525 -0.9198
vn 0.5288 -0.6107 -0.5895
vn 0.9869 0.0568 0.1509
vn 0.9294 -0.3171 0.1889
vn 0.5287 -0.6107 -0.5894
vn 0.7379 -0.6447 0.1995
vn 0.5735 -0.5476 -0.6093
vn 0.7879 -0.5825 0.1997
vn -0.8273 0.0125 -0.5616
vn -0.1454 -0.2828 -0.9481
vn -0.8374 -0.0645 -0.5428
vn -0.4409 -0.0503 0.8962
vn -0.9588 0.1159 0.2592
vn -0.4409 -0.0504 0.8962
vn 0.7880 -0.5825 0.1996
vn 0.3365 -0.3612 0.8696
vn 0.7879 -0.5825 0.1996
vn -0.9588 0.1160 0.2592
vn 0.3365 -0.3612 0.8697
vn -0.1223 0.9150 -0.3846
vn -0.1752 0.5602 0.8096
vn 0.9869 0.0568 0.1510
vn 0.8213 0.5673 0.0600
vn 0.5576 0.6967 0.4514
vn -0.6651 0.7175 0.2073
vn 0.7841 0.0899 -0.6141
vn 0.9231 -0.3344 0.1900
vn 0.3366 -0.3612 0.8696
vn 0.4555 -0.1052 0.8840
vn -0.0436 -0.0241 -0.9988
vn 0.7009 -0.2983 -0.6479
vn -0.0436 -0.0240 -0.9988
vn -0.8862 0.3890 0.2517
vn -0.7500 0.2819 -0.5983
vn -0.4408 -0.0503 0.8962
vn -0.3496 0.2167 0.9115
vn -0.4408 -0.0504 0.8962
vn -0.7500 0.2818 -0.5984
vn -0.7500 0.2819 -0.5984
vn -0.3497 0.2167 0.9115
vt 0.543243 0.635056
vt 0.535370 0.641335
vt 0.537796 0.636299
vt 0.537796 0.646370
vt 0.547607 0.638535
vt 0.543243 0.647614
vt 0.547607 0.644127
vt 0.593674 0.671494
vt 0.598511 0.669548
vt 0.596146 0.672157
vt 0.592773 0.669609
vt 0.596436 0.666756
vt 0.592804 0.667854
vt 0.594147 0.666748
vt 0.591187 0.666855
vt 0.590591 0.669838
vt 0.587372 0.669685
vt 0.591782 0.673050
vt 0.588348 0.674789
vt 0.582382 0.669067
vt 0.582687 0.676537
vt 0.595596 0.675606
vt 0.592606 0.680244
vt 0.586334 0.684982
vt 0.603775 0.674767
vt 0.603561 0.686485
vt 0.594009 0.696274
vt 0.603775 0.658051
vt 0.597107 0.663902
vt 0.596405 0.659698
vt 0.602859 0.665543
vt 0.600342 0.651657
vt 0.594193 0.655174
vt 0.593353 0.664742
vt 0.591705 0.661980
vt 0.588959 0.658463
vt 0.588654 0.665283
vt 0.584778 0.662933
vt 0.580322 0.660286
vt 0.576584 0.668175
vt 0.591812 0.651588
vt 0.585907 0.654999
vt 0.579453 0.688484
vt 0.584915 0.699394
vt 0.576157 0.678001
vt 0.597061 0.648293
vt 0.627350 0.682632
vt 0.649124 0.687675
vt 0.627441 0.688225
vt 0.649033 0.682457
vt 0.627441 0.671455
vt 0.649033 0.677231
vt 0.627350 0.677048
vt 0.649124 0.672005
vt 0.627914 0.660294
vt 0.649292 0.666786
vt 0.627625 0.665871
vt 0.649551 0.661568
vt 0.649292 0.692902
vt 0.627625 0.693810
vt 0.649551 0.698120
vt 0.627914 0.699394
s 0
usemtl decorations
f 240/1/1 239/2/1 238/3/1
f 237/1/1 236/4/1 235/2/1
f 234/5/1 233/4/1 232/1/1
f 231/5/1 230/6/1 229/4/1
f 228/6/1 227/5/1 226/7/1
s 1
f 225/8/2 224/9/3 223/10/4
f 222/11/5 221/9/6 220/8/7
f 219/11/8 218/12/9 217/9/3
f 216/13/10 215/12/9 214/11/8
f 213/12/9 212/13/10 211/14/11
f 210/15/12 209/11/8 208/16/13
f 207/15/12 206/13/14 205/11/8
f 204/17/15 203/18/16 202/19/17
f 201/17/18 200/16/19 199/18/20
f 198/20/21 197/19/22 196/21/23
f 195/20/21 194/17/18 193/19/17
f 192/19/17 191/22/24 190/23/25
f 189/19/17 188/18/16 187/22/24
f 186/21/26 185/23/25 184/24/27
f 183/21/26 3/19/22 182/23/25
f 181/23/28 180/25/29 179/26/30
f 178/23/28 177/22/24 176/25/29
f 175/24/31 174/26/30 173/27/32
f 172/24/33 4/23/28 171/26/30
f 170/28/30 169/29/34 168/30/35
f 167/28/30 166/31/29 165/29/36
f 164/32/37 163/30/38 162/33/39
f 161/32/37 13/28/30 160/30/35
f 159/30/35 158/34/40 157/35/41
f 156/30/35 155/29/42 154/34/43
f 153/33/44 152/35/41 151/36/45
f 150/33/44 14/30/35 149/35/41
f 148/35/41 147/15/46 146/37/47
f 145/35/41 144/34/43 143/15/48
f 142/36/49 141/37/47 140/38/50
f 139/36/49 16/35/41 138/37/47
f 137/37/47 136/16/51 135/17/52
f 134/37/47 133/15/12 132/16/13
f 131/38/53 130/17/52 129/20/54
f 128/38/53 36/37/47 25/17/52
f 127/39/55 126/20/54 125/40/56
f 124/39/55 123/38/50 122/20/54
f 121/41/57 120/36/45 119/42/58
f 118/41/57 117/33/59 116/36/45
f 115/43/60 114/27/32 113/44/61
f 112/43/62 111/24/33 110/27/32
f 109/40/63 108/21/23 107/45/64
f 106/40/65 40/20/21 105/21/23
f 104/42/58 103/38/50 102/39/55
f 101/42/58 41/36/49 42/38/50
f 100/46/66 99/33/59 98/41/57
f 97/46/66 37/32/37 38/33/59
f 96/45/67 95/24/33 94/43/62
f 93/45/64 33/21/23 34/24/33
f 92/29/42 91/14/11 90/34/43
f 89/29/42 88/12/68 87/14/11
f 86/22/69 85/9/3 84/25/29
f 83/22/69 82/10/4 81/9/6
f 80/16/19 79/8/7 78/18/20
f 29/16/70 30/11/71 77/8/72
f 76/31/73 75/12/9 28/29/36
f 31/31/29 26/9/6 27/12/68
f 74/18/16 73/10/4 24/22/24
f 21/18/16 22/8/72 23/10/4
f 72/34/43 71/13/14 20/15/74
f 17/34/43 18/14/11 19/13/14
f 70/47/75 69/48/76 68/49/77
f 67/47/75 66/50/65 65/48/76
f 64/51/78 63/52/55 62/53/79
f 61/51/80 60/54/58 59/52/55
f 58/55/81 57/56/57 56/57/82
f 55/55/81 54/58/61 53/56/57
f 52/49/77 51/59/83 50/60/84
f 2/49/77 32/48/64 49/59/85
f 48/53/79 47/50/56 12/47/75
f 9/53/79 10/52/55 11/50/56
f 46/57/86 45/54/58 8/51/80
f 5/57/87 6/56/57 7/54/58
f 44/60/88 43/61/66 15/62/81
f 1/60/88 35/59/62 39/61/66
