# Blender 5.0.0
# www.blender.org
mtllib Circle_005_Circle_003_Dupli_41_decorations_0.mtl
o Circle.005|Circle.003|Dupli|41_decorations_0
v -4.613562 1.987579 0.663600
v -4.612306 1.987478 0.664230
v -4.610476 1.994897 0.662434
v -4.612268 1.995040 0.661536
v -4.613102 1.986672 0.661275
v -4.611793 1.991723 0.659654
v -4.610513 1.991420 0.659705
v -4.611733 1.986347 0.661330
v -4.610839 1.986491 0.662409
v -4.609678 1.991554 0.660714
v -4.609916 1.992025 0.661920
v -4.611094 1.986994 0.663700
v -4.612773 1.994528 0.659661
v -4.611612 1.993746 0.658219
v -4.613916 1.987220 0.662285
v -4.609659 1.993284 0.658298
v -4.609490 1.994791 0.658202
v -4.609518 1.995949 0.658441
v -4.608840 1.996058 0.659259
v -4.608453 1.994957 0.659455
v -4.610156 1.996104 0.661568
v -4.609952 1.996806 0.660638
v -4.610903 1.996882 0.660161
v -4.611614 1.996220 0.660838
v -4.608747 1.994206 0.661678
v -4.611172 1.996610 0.659165
v -4.610555 1.996195 0.658400
v -4.611080 1.995167 0.658138
v -4.608749 1.995542 0.660953
v -4.609034 1.996439 0.660237
v -4.612025 1.995804 0.659311
v -4.611049 1.992477 0.662416
v -4.610830 1.993434 0.662604
v -4.612381 1.993558 0.661827
v -4.612223 1.992571 0.661827
v -4.608384 1.993488 0.659837
v -4.612818 1.993115 0.660203
v -4.611813 1.992438 0.658955
v -4.612554 1.992236 0.660598
v -4.609334 1.992837 0.661949
v -4.610122 1.992038 0.659023
v -4.609018 1.992215 0.660356
v -4.612554 1.992236 0.660598
v -4.613562 1.987579 0.663600
v -4.610513 1.991420 0.659705
v -4.613102 1.986672 0.661275
v -4.609916 1.992025 0.661920
v -4.610839 1.986491 0.662409
v -4.612223 1.992571 0.661827
v -4.613562 1.987579 0.663600
v -4.612223 1.992571 0.661827
v -4.612306 1.987478 0.664230
v -4.611793 1.991723 0.659654
v -4.612554 1.992236 0.660598
v -4.613916 1.987220 0.662285
v -4.613102 1.986672 0.661275
v -4.611793 1.991723 0.659654
v -4.613916 1.987220 0.662285
v -4.609678 1.991554 0.660714
v -4.610513 1.991420 0.659705
v -4.611733 1.986347 0.661330
v -4.610839 1.986491 0.662409
v -4.609678 1.991554 0.660714
v -4.611733 1.986347 0.661330
v -4.611049 1.992477 0.662416
v -4.609916 1.992025 0.661920
v -4.611094 1.986994 0.663700
v -4.612306 1.987478 0.664230
v -4.611049 1.992477 0.662416
v -4.611094 1.986994 0.663700
v -4.608840 1.996058 0.659259
v -4.609490 1.994791 0.658202
v -4.610903 1.996882 0.660161
v -4.610156 1.996104 0.661568
v -4.610555 1.996195 0.658400
v -4.612025 1.995804 0.659311
v -4.609952 1.996806 0.660638
v -4.610156 1.996104 0.661568
v -4.609952 1.996806 0.660638
v -4.608749 1.995542 0.660953
v -4.611172 1.996610 0.659165
v -4.610903 1.996882 0.660161
v -4.611614 1.996220 0.660838
v -4.612025 1.995804 0.659311
v -4.611172 1.996610 0.659165
v -4.611614 1.996220 0.660838
v -4.609518 1.995949 0.658441
v -4.610555 1.996195 0.658400
v -4.611080 1.995167 0.658138
v -4.609490 1.994791 0.658202
v -4.609518 1.995949 0.658441
v -4.611080 1.995167 0.658138
v -4.611049 1.992477 0.662416
v -4.612223 1.992571 0.661827
v -4.612381 1.993558 0.661827
v -4.611049 1.992477 0.662416
v -4.612554 1.992236 0.660598
v -4.611793 1.991723 0.659654
v -4.611813 1.992438 0.658955
v -4.612554 1.992236 0.660598
v -4.610513 1.991420 0.659705
v -4.609678 1.991554 0.660714
v -4.609018 1.992215 0.660356
v -4.610513 1.991420 0.659705
v -4.610830 1.993434 0.662604
v -4.609916 1.992025 0.661920
v -4.611049 1.992477 0.662416
v -4.610830 1.993434 0.662604
v -4.609916 1.992025 0.661920
v -4.612818 1.993115 0.660203
v -4.612381 1.993558 0.661827
v -4.612223 1.992571 0.661827
v -4.612554 1.992236 0.660598
v -4.612818 1.993115 0.660203
v -4.612223 1.992571 0.661827
v -4.610122 1.992038 0.659023
v -4.611813 1.992438 0.658955
v -4.611793 1.991723 0.659654
v -4.610513 1.991420 0.659705
v -4.610122 1.992038 0.659023
v -4.611793 1.991723 0.659654
v -4.609334 1.992837 0.661949
v -4.609018 1.992215 0.660356
v -4.609678 1.991554 0.660714
v -4.609916 1.992025 0.661920
v -4.609334 1.992837 0.661949
v -4.609678 1.991554 0.660714
v -4.609018 1.992215 0.660356
v -4.609334 1.992837 0.661949
v -4.608747 1.994206 0.661678
v -4.609018 1.992215 0.660356
v -4.608749 1.995542 0.660953
v -4.608453 1.994957 0.659455
v -4.608384 1.993488 0.659837
v -4.608747 1.994206 0.661678
v -4.608749 1.995542 0.660953
v -4.608384 1.993488 0.659837
v -4.608384 1.993488 0.659837
v -4.610122 1.992038 0.659023
v -4.609018 1.992215 0.660356
v -4.608384 1.993488 0.659837
v -4.610122 1.992038 0.659023
v -4.608453 1.994957 0.659455
v -4.609490 1.994791 0.658202
v -4.609659 1.993284 0.658298
v -4.608384 1.993488 0.659837
v -4.608453 1.994957 0.659455
v -4.609659 1.993284 0.658298
v -4.609659 1.993284 0.658298
v -4.611813 1.992438 0.658955
v -4.610122 1.992038 0.659023
v -4.609659 1.993284 0.658298
v -4.611813 1.992438 0.658955
v -4.609490 1.994791 0.658202
v -4.611080 1.995167 0.658138
v -4.611612 1.993746 0.658219
v -4.609659 1.993284 0.658298
v -4.609490 1.994791 0.658202
v -4.611612 1.993746 0.658219
v -4.611612 1.993746 0.658219
v -4.612818 1.993115 0.660203
v -4.611813 1.992438 0.658955
v -4.611612 1.993746 0.658219
v -4.612818 1.993115 0.660203
v -4.611080 1.995167 0.658138
v -4.612025 1.995804 0.659311
v -4.612773 1.994528 0.659661
v -4.611612 1.993746 0.658219
v -4.611080 1.995167 0.658138
v -4.612773 1.994528 0.659661
v -4.612773 1.994528 0.659661
v -4.612381 1.993558 0.661827
v -4.612818 1.993115 0.660203
v -4.612773 1.994528 0.659661
v -4.612381 1.993558 0.661827
v -4.612025 1.995804 0.659311
v -4.611614 1.996220 0.660838
v -4.612268 1.995040 0.661536
v -4.612773 1.994528 0.659661
v -4.612025 1.995804 0.659311
v -4.612268 1.995040 0.661536
v -4.612268 1.995040 0.661536
v -4.610830 1.993434 0.662604
v -4.612381 1.993558 0.661827
v -4.612268 1.995040 0.661536
v -4.610830 1.993434 0.662604
v -4.611614 1.996220 0.660838
v -4.610156 1.996104 0.661568
v -4.610476 1.994897 0.662434
v -4.612268 1.995040 0.661536
v -4.611614 1.996220 0.660838
v -4.610476 1.994897 0.662434
v -4.610476 1.994897 0.662434
v -4.608747 1.994206 0.661678
v -4.609334 1.992837 0.661949
v -4.610830 1.993434 0.662604
v -4.610476 1.994897 0.662434
v -4.609334 1.992837 0.661949
v -4.610156 1.996104 0.661568
v -4.608749 1.995542 0.660953
v -4.608747 1.994206 0.661678
v -4.610476 1.994897 0.662434
v -4.610156 1.996104 0.661568
v -4.608747 1.994206 0.661678
v -4.609034 1.996439 0.660237
v -4.608840 1.996058 0.659259
v -4.608453 1.994957 0.659455
v -4.608749 1.995542 0.660953
v -4.609034 1.996439 0.660237
v -4.608453 1.994957 0.659455
v -4.609518 1.995949 0.658441
v -4.608840 1.996058 0.659259
v -4.610555 1.996195 0.658400
v -4.609034 1.996439 0.660237
v -4.610555 1.996195 0.658400
v -4.608840 1.996058 0.659259
v -4.611172 1.996610 0.659165
v -4.610555 1.996195 0.658400
v -4.609034 1.996439 0.660237
v -4.609952 1.996806 0.660638
v -4.611172 1.996610 0.659165
v -4.609034 1.996439 0.660237
v -4.610903 1.996882 0.660161
v -4.611172 1.996610 0.659165
v -4.609952 1.996806 0.660638
v -4.611733 1.986347 0.661330
v -4.613102 1.986672 0.661275
v -4.610839 1.986491 0.662409
v -4.611094 1.986994 0.663700
v -4.610839 1.986491 0.662409
v -4.613102 1.986672 0.661275
v -4.613916 1.987220 0.662285
v -4.611094 1.986994 0.663700
v -4.613102 1.986672 0.661275
v -4.612306 1.987478 0.664230
v -4.611094 1.986994 0.663700
v -4.613916 1.987220 0.662285
v -4.613562 1.987579 0.663600
v -4.612306 1.987478 0.664230
v -4.613916 1.987220 0.662285
vn -0.2308 -0.9211 0.3137
vn 0.2110 0.9377 0.2759
vn -0.3484 0.8479 -0.3997
vn -0.2253 0.9726 0.0573
vn 0.6320 0.7695 0.0918
vn -0.3484 0.8479 -0.3996
vn -0.0656 0.6575 -0.7506
vn 0.7206 0.5946 -0.3565
vn 0.4102 0.5448 -0.7314
vn 0.9523 0.1071 -0.2858
vn 0.8088 0.3903 0.4399
vn 0.7206 0.5947 -0.3565
vn 0.7909 0.0505 0.6099
vn 0.1272 0.6626 0.7381
vn 0.0449 0.3486 0.9362
vn 0.7909 0.0505 0.6098
vn 0.8088 0.3902 0.4400
vn 0.1273 0.6626 0.7381
vn 0.6590 -0.2960 0.6915
vn -0.0438 -0.0151 0.9989
vn 0.0449 0.3487 0.9362
vn -0.5791 0.7191 0.3840
vn -0.7284 0.4104 0.5487
vn -0.5792 0.7191 0.3841
vn -0.0439 -0.0151 0.9989
vn -0.7283 0.4105 0.5487
vn -0.7722 0.0431 0.6339
vn -0.7785 0.5171 -0.3556
vn -0.9466 0.1894 -0.2610
vn -0.5792 0.7190 0.3840
vn -0.7785 0.5172 -0.3556
vn -0.7723 0.0431 0.6338
vn -0.9778 -0.1651 -0.1289
vn -0.7284 0.4104 0.5486
vn -0.9466 0.1893 -0.2610
vn -0.3207 0.2089 -0.9239
vn -0.4454 -0.1480 -0.8830
vn -0.9778 -0.1652 -0.1289
vn -0.5057 -0.4829 -0.7149
vn -0.4455 -0.1480 -0.8830
vn 0.4496 0.0265 -0.8929
vn 0.3977 -0.3478 -0.8490
vn -0.5057 -0.4830 -0.7148
vn 0.2886 -0.6711 -0.6829
vn 0.3978 -0.3478 -0.8490
vn 0.9523 0.1071 -0.2859
vn 0.9480 -0.2594 -0.1847
vn 0.4496 0.0264 -0.8928
vn 0.9522 0.1072 -0.2859
vn 0.2886 -0.6712 -0.6828
vn 0.9480 -0.2594 -0.1846
vn 0.8069 -0.5879 -0.0570
vn 0.8088 0.3902 0.4399
vn 0.6590 -0.2959 0.6915
vn 0.8470 -0.5248 -0.0850
vn 0.6953 -0.2254 0.6825
vn -0.4990 -0.4172 -0.7596
vn 0.3155 -0.6101 -0.7268
vn -0.7723 0.1223 0.6233
vn -0.9831 -0.0913 -0.1587
vn -0.7723 0.1223 0.6234
vn -0.0254 0.0625 0.9977
vn -0.9831 -0.0912 -0.1587
vn -0.0254 0.0626 0.9977
vn -0.7723 0.1222 0.6233
vn -0.3206 0.2089 -0.9239
vn 0.4496 0.0264 -0.8929
vn -0.3206 0.2088 -0.9239
vn 0.4102 0.5447 -0.7314
vn -0.5792 0.7191 0.3840
vn 0.8088 0.3903 0.4400
vn 0.4496 0.0265 -0.8928
vn 0.7870 0.0335 0.6160
vn -0.0253 0.0626 0.9977
vn 0.0407 0.3318 0.9425
vn 0.7871 0.0336 0.6160
vn 0.3937 -0.3650 -0.8437
vn 0.9442 -0.2766 -0.1790
vn 0.3937 -0.3649 -0.8437
vn -0.9513 0.1724 -0.2554
vn -0.4989 -0.4172 -0.7596
vn -0.4500 -0.1651 -0.8776
vn -0.9513 0.1725 -0.2554
vn 0.0406 0.3318 0.9425
vn -0.7330 0.3936 0.5548
vn 0.9442 -0.2766 -0.1789
vn 0.7871 0.0335 0.6159
vn 0.9442 -0.2765 -0.1790
vn -0.4499 -0.1651 -0.8777
vn -0.9513 0.1725 -0.2553
vn -0.7330 0.3936 0.5547
vn -0.7723 0.1222 0.6234
vt 0.530319 0.611839
vt 0.522446 0.618118
vt 0.524872 0.613083
vt 0.524872 0.623154
vt 0.534683 0.615326
vt 0.530319 0.624397
vt 0.534683 0.620918
vt 0.537079 0.671494
vt 0.541916 0.669548
vt 0.539566 0.672157
vt 0.536179 0.669609
vt 0.539856 0.666756
vt 0.536224 0.667854
vt 0.537567 0.666748
vt 0.534592 0.666855
vt 0.534012 0.669838
vt 0.530777 0.669685
vt 0.535187 0.673050
vt 0.531769 0.674789
vt 0.525803 0.669067
vt 0.526108 0.676537
vt 0.539017 0.675606
vt 0.536011 0.680244
vt 0.529755 0.684982
vt 0.547180 0.674767
vt 0.546982 0.686485
vt 0.537415 0.696274
vt 0.547180 0.658051
vt 0.540527 0.663902
vt 0.539825 0.659698
vt 0.546280 0.665543
vt 0.543762 0.651657
vt 0.537613 0.655174
vt 0.536758 0.664742
vt 0.535126 0.661980
vt 0.532364 0.658463
vt 0.532074 0.665283
vt 0.528198 0.662933
vt 0.523743 0.660286
vt 0.519989 0.668175
vt 0.535217 0.651588
vt 0.529327 0.654999
vt 0.522873 0.688484
vt 0.528320 0.699394
vt 0.519577 0.678001
vt 0.540466 0.648293
vt 0.604446 0.642853
vt 0.626221 0.647896
vt 0.604553 0.648445
vt 0.626144 0.642670
vt 0.604553 0.631676
vt 0.626144 0.637444
vt 0.604446 0.637268
vt 0.626221 0.632225
vt 0.605011 0.620506
vt 0.626404 0.626999
vt 0.604736 0.626091
vt 0.626663 0.621780
vt 0.626404 0.653114
vt 0.604736 0.654030
vt 0.626663 0.658333
vt 0.605011 0.659607
s 0
usemtl decorations
f 240/1/1 239/2/1 238/3/1
f 237/1/1 236/4/1 235/2/1
f 234/5/1 233/4/1 232/1/1
f 231/5/1 230/6/1 229/4/1
f 228/6/1 227/5/1 226/7/1
s 1
f 225/8/2 224/9/3 223/10/4
f 222/11/5 221/9/6 220/8/2
f 219/11/5 218/12/7 217/9/3
f 216/13/8 215/12/7 214/11/5
f 213/12/7 212/13/8 211/14/9
f 210/15/10 209/11/5 208/16/11
f 207/15/10 206/13/12 205/11/5
f 204/17/13 203/18/14 202/19/15
f 201/17/16 200/16/17 199/18/18
f 198/20/19 197/19/15 196/21/20
f 195/20/19 194/17/16 193/19/21
f 192/19/15 191/22/22 190/23/23
f 189/19/15 188/18/14 187/22/24
f 186/21/25 185/23/26 184/24/27
f 183/21/25 3/19/15 182/23/26
f 181/23/23 180/25/28 179/26/29
f 178/23/23 177/22/30 176/25/31
f 175/24/32 174/26/29 173/27/33
f 172/24/32 4/23/34 171/26/29
f 170/28/35 169/29/36 168/30/37
f 167/28/29 166/31/28 165/29/36
f 164/32/38 163/30/37 162/33/39
f 161/32/38 13/28/29 160/30/40
f 159/30/37 158/34/41 157/35/42
f 156/30/37 155/29/36 154/34/41
f 153/33/43 152/35/42 151/36/44
f 150/33/43 14/30/37 149/35/42
f 148/35/45 147/15/46 146/37/47
f 145/35/45 144/34/48 143/15/49
f 142/36/50 141/37/51 140/38/52
f 139/36/50 16/35/45 138/37/51
f 137/37/51 136/16/53 135/17/16
f 134/37/47 133/15/46 132/16/11
f 131/38/52 130/17/13 129/20/54
f 128/38/52 36/37/47 25/17/13
f 127/39/55 126/20/54 125/40/56
f 124/39/55 123/38/52 122/20/54
f 121/41/57 120/36/44 119/42/58
f 118/41/57 117/33/43 116/36/44
f 115/43/59 114/27/33 113/44/60
f 112/43/61 111/24/32 110/27/33
f 109/40/56 108/21/20 107/45/62
f 106/40/56 40/20/19 105/21/20
f 104/42/58 103/38/52 102/39/55
f 101/42/58 41/36/44 42/38/52
f 100/46/63 99/33/43 98/41/57
f 97/46/63 37/32/33 38/33/43
f 96/45/64 95/24/32 94/43/65
f 93/45/64 33/21/20 34/24/32
f 92/29/66 91/14/9 90/34/67
f 89/29/68 88/12/7 87/14/69
f 86/22/70 85/9/6 84/25/31
f 83/22/70 82/10/4 81/9/6
f 80/16/71 79/8/2 78/18/18
f 29/16/17 30/11/5 77/8/2
f 76/31/31 75/12/7 28/29/36
f 31/31/31 26/9/6 27/12/7
f 74/18/14 73/10/4 24/22/24
f 21/18/14 22/8/2 23/10/4
f 72/34/72 71/13/8 20/15/46
f 17/34/48 18/14/9 19/13/12
f 70/47/73 69/48/74 68/49/75
f 67/47/76 66/50/56 65/48/74
f 64/51/77 63/52/55 62/53/78
f 61/51/79 60/54/58 59/52/55
f 58/55/80 57/56/81 56/57/82
f 55/55/83 54/58/60 53/56/57
f 52/49/84 51/59/61 50/60/85
f 2/49/84 32/48/62 49/59/61
f 48/53/86 47/50/56 12/47/87
f 9/53/88 10/52/55 11/50/56
f 46/57/89 45/54/58 8/51/77
f 5/57/89 6/56/57 7/54/58
f 44/60/85 43/61/63 15/62/90
f 1/60/91 35/59/92 39/61/63
