# Blender 5.0.0
# www.blender.org
mtllib Circle_002_Circle_Dupli_247_decorations_0.mtl
o Circle.002|Circle|Dupli|247_decorations_0
v -4.732424 0.960153 0.477658
v -4.732374 0.960397 0.476272
v -4.725625 0.964353 0.476907
v -4.725695 0.964004 0.478884
v -4.733871 0.962052 0.478516
v -4.729373 0.965093 0.479130
v -4.729661 0.965761 0.478032
v -4.734179 0.962766 0.477342
v -4.733782 0.962493 0.476018
v -4.729290 0.965506 0.476795
v -4.728539 0.964520 0.476350
v -4.732979 0.961439 0.475542
v -4.726646 0.965055 0.480309
v -4.727761 0.966714 0.480108
v -4.733090 0.960889 0.478657
v -4.728200 0.967733 0.478433
v -4.726762 0.968206 0.478567
v -4.725581 0.968233 0.478614
v -4.725280 0.968026 0.477612
v -4.726301 0.967889 0.477031
v -4.724667 0.965456 0.477326
v -4.724213 0.966438 0.477804
v -4.724250 0.966253 0.478854
v -4.724724 0.965172 0.478935
v -4.726487 0.965839 0.475865
v -4.724755 0.966811 0.479611
v -4.725347 0.967692 0.479504
v -4.726405 0.967377 0.479931
v -4.725368 0.966665 0.476479
v -4.724671 0.967227 0.477251
v -4.725498 0.966026 0.480094
v -4.727973 0.963546 0.477032
v -4.727000 0.963721 0.476883
v -4.727061 0.963418 0.478595
v -4.728020 0.963317 0.478328
v -4.727633 0.967343 0.476545
v -4.727884 0.964328 0.479828
v -4.728849 0.965764 0.479654
v -4.728642 0.964006 0.479261
v -4.727747 0.965007 0.475982
v -4.729229 0.966646 0.478204
v -4.728739 0.966309 0.476570
v -4.728642 0.964006 0.479261
v -4.732424 0.960153 0.477658
v -4.729661 0.965761 0.478032
v -4.733871 0.962052 0.478516
v -4.728539 0.964520 0.476350
v -4.733782 0.962493 0.476018
v -4.728020 0.963317 0.478328
v -4.732424 0.960153 0.477658
v -4.728020 0.963317 0.478328
v -4.732374 0.960397 0.476272
v -4.729373 0.965093 0.479130
v -4.728642 0.964006 0.479261
v -4.733090 0.960889 0.478657
v -4.733871 0.962052 0.478516
v -4.729373 0.965093 0.479130
v -4.733090 0.960889 0.478657
v -4.729290 0.965506 0.476795
v -4.729661 0.965761 0.478032
v -4.734179 0.962766 0.477342
v -4.733782 0.962493 0.476018
v -4.729290 0.965506 0.476795
v -4.734179 0.962766 0.477342
v -4.727973 0.963546 0.477032
v -4.728539 0.964520 0.476350
v -4.732979 0.961439 0.475542
v -4.732374 0.960397 0.476272
v -4.727973 0.963546 0.477032
v -4.732979 0.961439 0.475542
v -4.725280 0.968026 0.477612
v -4.726762 0.968206 0.478567
v -4.724250 0.966253 0.478854
v -4.724667 0.965456 0.477326
v -4.725347 0.967692 0.479504
v -4.725498 0.966026 0.480094
v -4.724213 0.966438 0.477804
v -4.724667 0.965456 0.477326
v -4.724213 0.966438 0.477804
v -4.725368 0.966665 0.476479
v -4.724755 0.966811 0.479611
v -4.724250 0.966253 0.478854
v -4.724724 0.965172 0.478935
v -4.725498 0.966026 0.480094
v -4.724755 0.966811 0.479611
v -4.724724 0.965172 0.478935
v -4.725581 0.968233 0.478614
v -4.725347 0.967692 0.479504
v -4.726405 0.967377 0.479931
v -4.726762 0.968206 0.478567
v -4.725581 0.968233 0.478614
v -4.726405 0.967377 0.479931
v -4.727973 0.963546 0.477032
v -4.728020 0.963317 0.478328
v -4.727061 0.963418 0.478595
v -4.727973 0.963546 0.477032
v -4.728642 0.964006 0.479261
v -4.729373 0.965093 0.479130
v -4.728849 0.965764 0.479654
v -4.728642 0.964006 0.479261
v -4.729661 0.965761 0.478032
v -4.729290 0.965506 0.476795
v -4.728739 0.966309 0.476570
v -4.729661 0.965761 0.478032
v -4.727000 0.963721 0.476883
v -4.728539 0.964520 0.476350
v -4.727973 0.963546 0.477032
v -4.727000 0.963721 0.476883
v -4.728539 0.964520 0.476350
v -4.727884 0.964328 0.479828
v -4.727061 0.963418 0.478595
v -4.728020 0.963317 0.478328
v -4.728642 0.964006 0.479261
v -4.727884 0.964328 0.479828
v -4.728020 0.963317 0.478328
v -4.729229 0.966646 0.478204
v -4.728849 0.965764 0.479654
v -4.729373 0.965093 0.479130
v -4.729661 0.965761 0.478032
v -4.729229 0.966646 0.478204
v -4.729373 0.965093 0.479130
v -4.727747 0.965007 0.475982
v -4.728739 0.966309 0.476570
v -4.729290 0.965506 0.476795
v -4.728539 0.964520 0.476350
v -4.727747 0.965007 0.475982
v -4.729290 0.965506 0.476795
v -4.728739 0.966309 0.476570
v -4.727747 0.965007 0.475982
v -4.726487 0.965839 0.475865
v -4.728739 0.966309 0.476570
v -4.725368 0.966665 0.476479
v -4.726301 0.967889 0.477031
v -4.727633 0.967343 0.476545
v -4.726487 0.965839 0.475865
v -4.725368 0.966665 0.476479
v -4.727633 0.967343 0.476545
v -4.727633 0.967343 0.476545
v -4.729229 0.966646 0.478204
v -4.728739 0.966309 0.476570
v -4.727633 0.967343 0.476545
v -4.729229 0.966646 0.478204
v -4.726301 0.967889 0.477031
v -4.726762 0.968206 0.478567
v -4.728200 0.967733 0.478433
v -4.727633 0.967343 0.476545
v -4.726301 0.967889 0.477031
v -4.728200 0.967733 0.478433
v -4.728200 0.967733 0.478433
v -4.728849 0.965764 0.479654
v -4.729229 0.966646 0.478204
v -4.728200 0.967733 0.478433
v -4.728849 0.965764 0.479654
v -4.726762 0.968206 0.478567
v -4.726405 0.967377 0.479931
v -4.727761 0.966714 0.480108
v -4.728200 0.967733 0.478433
v -4.726762 0.968206 0.478567
v -4.727761 0.966714 0.480108
v -4.727761 0.966714 0.480108
v -4.727884 0.964328 0.479828
v -4.728849 0.965764 0.479654
v -4.727761 0.966714 0.480108
v -4.727884 0.964328 0.479828
v -4.726405 0.967377 0.479931
v -4.725498 0.966026 0.480094
v -4.726646 0.965055 0.480309
v -4.727761 0.966714 0.480108
v -4.726405 0.967377 0.479931
v -4.726646 0.965055 0.480309
v -4.726646 0.965055 0.480309
v -4.727061 0.963418 0.478595
v -4.727884 0.964328 0.479828
v -4.726646 0.965055 0.480309
v -4.727061 0.963418 0.478595
v -4.725498 0.966026 0.480094
v -4.724724 0.965172 0.478935
v -4.725695 0.964004 0.478884
v -4.726646 0.965055 0.480309
v -4.725498 0.966026 0.480094
v -4.725695 0.964004 0.478884
v -4.725695 0.964004 0.478884
v -4.727000 0.963721 0.476883
v -4.727061 0.963418 0.478595
v -4.725695 0.964004 0.478884
v -4.727000 0.963721 0.476883
v -4.724724 0.965172 0.478935
v -4.724667 0.965456 0.477326
v -4.725625 0.964353 0.476907
v -4.725695 0.964004 0.478884
v -4.724724 0.965172 0.478935
v -4.725625 0.964353 0.476907
v -4.725625 0.964353 0.476907
v -4.726487 0.965839 0.475865
v -4.727747 0.965007 0.475982
v -4.727000 0.963721 0.476883
v -4.725625 0.964353 0.476907
v -4.727747 0.965007 0.475982
v -4.724667 0.965456 0.477326
v -4.725368 0.966665 0.476479
v -4.726487 0.965839 0.475865
v -4.725625 0.964353 0.476907
v -4.724667 0.965456 0.477326
v -4.726487 0.965839 0.475865
v -4.724671 0.967227 0.477251
v -4.725280 0.968026 0.477612
v -4.726301 0.967889 0.477031
v -4.725368 0.966665 0.476479
v -4.724671 0.967227 0.477251
v -4.726301 0.967889 0.477031
v -4.725581 0.968233 0.478614
v -4.725280 0.968026 0.477612
v -4.725347 0.967692 0.479504
v -4.724671 0.967227 0.477251
v -4.725347 0.967692 0.479504
v -4.725280 0.968026 0.477612
v -4.724755 0.966811 0.479611
v -4.725347 0.967692 0.479504
v -4.724671 0.967227 0.477251
v -4.724213 0.966438 0.477804
v -4.724755 0.966811 0.479611
v -4.724671 0.967227 0.477251
v -4.724250 0.966253 0.478854
v -4.724755 0.966811 0.479611
v -4.724213 0.966438 0.477804
v -4.734179 0.962766 0.477342
v -4.733871 0.962052 0.478516
v -4.733782 0.962493 0.476018
v -4.732979 0.961439 0.475542
v -4.733782 0.962493 0.476018
v -4.733871 0.962052 0.478516
v -4.733090 0.960889 0.478657
v -4.732979 0.961439 0.475542
v -4.733871 0.962052 0.478516
v -4.732374 0.960397 0.476272
v -4.732979 0.961439 0.475542
v -4.733090 0.960889 0.478657
v -4.732424 0.960153 0.477658
v -4.732374 0.960397 0.476272
v -4.733090 0.960889 0.478657
vn -0.8159 -0.5637 -0.1287
vn 0.9756 0.0978 -0.1965
vn 0.7269 0.2687 0.6320
vn 0.9584 0.0128 0.2850
vn 0.7655 0.4598 -0.4501
vn 0.7269 0.2686 0.6320
vn 0.7656 0.4597 -0.4501
vn 0.4554 0.6728 0.5831
vn 0.4864 0.8261 -0.2847
vn 0.7656 0.4598 -0.4501
vn 0.4554 0.6728 0.5830
vn 0.4864 0.8260 -0.2847
vn 0.3484 0.9209 0.1751
vn 0.0296 0.8137 -0.5805
vn 0.7656 0.4598 -0.4500
vn 0.4815 0.2208 -0.8482
vn 0.1934 0.0111 -0.9811
vn 0.8216 -0.3652 -0.4377
vn 0.5657 -0.6303 -0.5317
vn 0.1934 0.0112 -0.9811
vn 0.4815 0.2207 -0.8482
vn -0.1221 -0.1998 -0.9722
vn 0.2286 -0.8040 -0.5489
vn 0.7938 -0.5029 0.3419
vn 0.5353 -0.7810 0.3217
vn 0.2286 -0.8041 -0.5488
vn 0.5353 -0.7810 0.3216
vn 0.1999 -0.9460 0.2550
vn 0.5352 -0.7810 0.3217
vn 0.4190 -0.0887 0.9037
vn 0.1249 -0.3276 0.9365
vn 0.7938 -0.5030 0.3420
vn 0.4190 -0.0887 0.9036
vn -0.1866 -0.5188 0.8343
vn -0.0206 0.5656 0.8244
vn -0.3562 0.3886 0.8498
vn -0.0205 0.5656 0.8244
vn -0.1867 -0.5188 0.8342
vn -0.6398 0.1558 0.7526
vn -0.1866 -0.5188 0.8342
vn -0.3561 0.3886 0.8498
vn -0.1938 0.9672 0.1640
vn -0.5459 0.8282 0.1268
vn -0.6399 0.1558 0.7525
vn -0.8185 0.5700 0.0715
vn -0.5459 0.8282 0.1267
vn 0.0296 0.8138 -0.5804
vn -0.3013 0.6602 -0.6880
vn -0.1939 0.9672 0.1639
vn -0.8186 0.5700 0.0714
vn -0.5881 0.4118 -0.6961
vn -0.3012 0.6602 -0.6880
vn 0.0296 0.8138 -0.5805
vn -0.5882 0.4117 -0.6961
vn -0.5339 0.4699 -0.7029
vn -0.1221 -0.1997 -0.9722
vn -0.0561 -0.1571 -0.9860
vn -0.5881 0.4117 -0.6961
vn -0.5869 0.2076 0.7826
vn -0.7702 0.6322 0.0842
vn -0.5870 0.2076 0.7826
vn 0.2742 -0.9223 0.2725
vn -0.1866 -0.5189 0.8342
vn -0.1222 -0.4843 0.8663
vn 0.2741 -0.9223 0.2724
vn 0.1999 -0.9460 0.2551
vn -0.0560 -0.1571 -0.9860
vn 0.3035 -0.7767 -0.5519
vn -0.1222 -0.1998 -0.9722
vn -0.7702 0.6323 0.0842
vn -0.8185 0.5700 0.0714
vn -0.1222 -0.4842 0.8664
vn -0.5870 0.2076 0.7825
vn 0.3036 -0.7767 -0.5519
vn 0.2741 -0.9223 0.2725
vn 0.3483 0.9209 0.1750
vn 0.7938 -0.5029 0.3420
vn 0.9584 0.0127 0.2850
vn 0.9756 0.0979 -0.1965
vn 0.4190 -0.0886 0.9037
vn 0.8216 -0.3653 -0.4377
vn 0.9584 0.0127 0.2851
vn -0.1938 0.9672 0.1639
vn 0.1784 0.0007 -0.9840
vn 0.5509 -0.6410 -0.5344
vn 0.1785 0.0007 -0.9839
vn 0.3036 -0.7767 -0.5520
vn -0.5613 0.8182 0.1244
vn -0.3165 0.6502 -0.6907
vn -0.5612 0.8183 0.1244
vn 0.1099 -0.3382 0.9347
vn -0.3714 0.3783 0.8479
vn 0.1099 -0.3381 0.9347
vn 0.5509 -0.6411 -0.5343
vn 0.2742 -0.9223 0.2724
vn 0.5204 -0.7919 0.3194
vn -0.3165 0.6501 -0.6908
vn -0.3715 0.3783 0.8479
vn -0.5612 0.8182 0.1245
vn -0.3714 0.3784 0.8479
vn 0.5204 -0.7919 0.3195
vn -0.1222 -0.4843 0.8664
vn 0.1099 -0.3382 0.9346
vn 0.5205 -0.7919 0.3195
vt 0.543243 0.611839
vt 0.535370 0.618118
vt 0.537796 0.613083
vt 0.537796 0.623154
vt 0.547607 0.615326
vt 0.543243 0.624397
vt 0.547607 0.620918
vt 0.565384 0.671494
vt 0.570206 0.669548
vt 0.567856 0.672157
vt 0.564468 0.669609
vt 0.568146 0.666756
vt 0.564514 0.667854
vt 0.565857 0.666748
vt 0.562897 0.666855
vt 0.562302 0.669838
vt 0.559082 0.669685
vt 0.563492 0.673050
vt 0.560059 0.674789
vt 0.554092 0.669067
vt 0.554398 0.676537
vt 0.567307 0.675606
vt 0.564316 0.680244
vt 0.558044 0.684982
vt 0.575485 0.674767
vt 0.575272 0.686485
vt 0.565720 0.696274
vt 0.575485 0.658051
vt 0.568817 0.663902
vt 0.568115 0.659698
vt 0.574570 0.665543
vt 0.572052 0.651657
vt 0.565903 0.655174
vt 0.565063 0.664742
vt 0.563416 0.661980
vt 0.560669 0.658463
vt 0.560364 0.665283
vt 0.556488 0.662933
vt 0.552032 0.660286
vt 0.548294 0.668175
vt 0.563522 0.651588
vt 0.557617 0.654999
vt 0.551163 0.688484
vt 0.556610 0.699394
vt 0.547867 0.678001
vt 0.568756 0.648293
vt 0.604446 0.682632
vt 0.626221 0.687675
vt 0.604553 0.688225
vt 0.626144 0.682457
vt 0.604553 0.671455
vt 0.626144 0.677231
vt 0.604446 0.677048
vt 0.626221 0.672005
vt 0.605011 0.660294
vt 0.626404 0.666786
vt 0.604736 0.665871
vt 0.626663 0.661568
vt 0.626404 0.692902
vt 0.604736 0.693810
vt 0.626663 0.698120
vt 0.605011 0.699394
s 0
usemtl decorations
f 240/1/1 239/2/1 238/3/1
f 237/1/1 236/4/1 235/2/1
f 234/5/1 233/4/1 232/1/1
f 231/5/1 230/6/1 229/4/1
f 228/6/1 227/5/1 226/7/1
s 1
f 225/8/2 224/9/3 223/10/4
f 222/11/5 221/9/6 220/8/2
f 219/11/7 218/12/8 217/9/3
f 216/13/9 215/12/8 214/11/10
f 213/12/11 212/13/12 211/14/13
f 210/15/14 209/11/15 208/16/16
f 207/15/14 206/13/9 205/11/15
f 204/17/17 203/18/18 202/19/19
f 201/17/20 200/16/21 199/18/18
f 198/20/22 197/19/19 196/21/23
f 195/20/22 194/17/17 193/19/19
f 192/19/19 191/22/24 190/23/25
f 189/19/19 188/18/18 187/22/24
f 186/21/26 185/23/27 184/24/28
f 183/21/26 3/19/19 182/23/27
f 181/23/29 180/25/30 179/26/31
f 178/23/25 177/22/32 176/25/33
f 175/24/28 174/26/31 173/27/34
f 172/24/28 4/23/29 171/26/31
f 170/28/31 169/29/35 168/30/36
f 167/28/31 166/31/30 165/29/37
f 164/32/38 163/30/36 162/33/39
f 161/32/40 13/28/31 160/30/41
f 159/30/36 158/34/42 157/35/43
f 156/30/36 155/29/35 154/34/42
f 153/33/44 152/35/43 151/36/45
f 150/33/44 14/30/36 149/35/43
f 148/35/46 147/15/47 146/37/48
f 145/35/43 144/34/49 143/15/47
f 142/36/50 141/37/48 140/38/51
f 139/36/50 16/35/43 138/37/48
f 137/37/48 136/16/16 135/17/17
f 134/37/52 133/15/53 132/16/16
f 131/38/54 130/17/17 129/20/22
f 128/38/54 36/37/48 25/17/17
f 127/39/55 126/20/56 125/40/57
f 124/39/55 123/38/58 122/20/56
f 121/41/59 120/36/45 119/42/60
f 118/41/61 117/33/44 116/36/45
f 115/43/62 114/27/63 113/44/64
f 112/43/65 111/24/66 110/27/63
f 109/40/67 108/21/23 107/45/68
f 106/40/57 40/20/69 105/21/23
f 104/42/70 103/38/58 102/39/55
f 101/42/60 41/36/71 42/38/58
f 100/46/72 99/33/39 98/41/73
f 97/46/64 37/32/34 38/33/39
f 96/45/74 95/24/28 94/43/75
f 93/45/74 33/21/23 34/24/28
f 92/29/35 91/14/13 90/34/42
f 89/29/35 88/12/11 87/14/76
f 86/22/77 85/9/3 84/25/33
f 83/22/77 82/10/78 81/9/3
f 80/16/21 79/8/2 78/18/18
f 29/16/21 30/11/5 77/8/79
f 76/31/80 75/12/11 28/29/37
f 31/31/80 26/9/3 27/12/11
f 74/18/81 73/10/82 24/22/24
f 21/18/81 22/8/79 23/10/4
f 72/34/83 71/13/12 20/15/47
f 17/34/83 18/14/13 19/13/9
f 70/47/84 69/48/74 68/49/85
f 67/47/86 66/50/57 65/48/87
f 64/51/88 63/52/55 62/53/89
f 61/51/90 60/54/60 59/52/55
f 58/55/91 57/56/73 56/57/92
f 55/55/93 54/58/64 53/56/73
f 52/49/94 51/59/95 50/60/96
f 2/49/94 32/48/68 49/59/65
f 48/53/97 47/50/67 12/47/84
f 9/53/89 10/52/55 11/50/57
f 46/57/98 45/54/60 8/51/99
f 5/57/100 6/56/73 7/54/60
f 44/60/101 43/61/102 15/62/103
f 1/60/104 35/59/65 39/61/64
