# Blender 5.0.0
# www.blender.org
mtllib Circle_005_Circle_003_Dupli_153_decorations_0.mtl
o Circle.005|Circle.003|Dupli|153_decorations_0
v -4.659780 0.550651 0.767584
v -4.660399 0.550847 0.766335
v -4.662439 0.558203 0.768161
v -4.661556 0.557923 0.769944
v -4.661616 0.549567 0.768960
v -4.663298 0.554539 0.770480
v -4.664301 0.554472 0.769630
v -4.662689 0.549495 0.768051
v -4.662732 0.549920 0.766709
v -4.664341 0.554869 0.768375
v -4.663388 0.555432 0.767661
v -4.661713 0.550522 0.765945
v -4.662329 0.557110 0.771611
v -4.664176 0.556377 0.771907
v -4.660322 0.550081 0.768753
v -4.665707 0.556274 0.770609
v -4.665797 0.557766 0.770887
v -4.665552 0.558922 0.770948
v -4.665585 0.559244 0.769931
v -4.665846 0.558259 0.769329
v -4.663138 0.559335 0.768895
v -4.663817 0.559946 0.769648
v -4.663348 0.559797 0.770594
v -4.662419 0.559107 0.770346
v -4.664314 0.557739 0.767605
v -4.663758 0.559365 0.771480
v -4.664739 0.558976 0.771637
v -4.664551 0.557849 0.771944
v -4.664663 0.558957 0.768443
v -4.664813 0.559699 0.769352
v -4.663048 0.558446 0.771703
v -4.662160 0.555736 0.768026
v -4.662155 0.556732 0.767941
v -4.661391 0.556490 0.769485
v -4.661582 0.555552 0.769194
v -4.665768 0.556881 0.768694
v -4.662060 0.555786 0.770928
v -4.663658 0.555151 0.771184
v -4.662088 0.555020 0.770286
v -4.663777 0.556330 0.767460
v -4.664983 0.555063 0.770060
v -4.665036 0.555587 0.768403
v -4.662088 0.555020 0.770286
v -4.659780 0.550651 0.767584
v -4.664301 0.554472 0.769630
v -4.661616 0.549567 0.768960
v -4.663388 0.555432 0.767661
v -4.662732 0.549920 0.766709
v -4.661582 0.555552 0.769194
v -4.659780 0.550651 0.767584
v -4.661582 0.555552 0.769194
v -4.660399 0.550847 0.766335
v -4.663298 0.554539 0.770480
v -4.662088 0.555020 0.770286
v -4.660322 0.550081 0.768753
v -4.661616 0.549567 0.768960
v -4.663298 0.554539 0.770480
v -4.660322 0.550081 0.768753
v -4.664341 0.554869 0.768375
v -4.664301 0.554472 0.769630
v -4.662689 0.549495 0.768051
v -4.662732 0.549920 0.766709
v -4.664341 0.554869 0.768375
v -4.662689 0.549495 0.768051
v -4.662160 0.555736 0.768026
v -4.663388 0.555432 0.767661
v -4.661713 0.550522 0.765945
v -4.660399 0.550847 0.766335
v -4.662160 0.555736 0.768026
v -4.661713 0.550522 0.765945
v -4.665585 0.559244 0.769931
v -4.665797 0.557766 0.770887
v -4.663348 0.559797 0.770594
v -4.663138 0.559335 0.768895
v -4.664739 0.558976 0.771637
v -4.663048 0.558446 0.771703
v -4.663817 0.559946 0.769648
v -4.663138 0.559335 0.768895
v -4.663817 0.559946 0.769648
v -4.664663 0.558957 0.768443
v -4.663758 0.559365 0.771480
v -4.663348 0.559797 0.770594
v -4.662419 0.559107 0.770346
v -4.663048 0.558446 0.771703
v -4.663758 0.559365 0.771480
v -4.662419 0.559107 0.770346
v -4.665552 0.558922 0.770948
v -4.664739 0.558976 0.771637
v -4.664551 0.557849 0.771944
v -4.665797 0.557766 0.770887
v -4.665552 0.558922 0.770948
v -4.664551 0.557849 0.771944
v -4.662160 0.555736 0.768026
v -4.661582 0.555552 0.769194
v -4.661391 0.556490 0.769485
v -4.662160 0.555736 0.768026
v -4.662088 0.555020 0.770286
v -4.663298 0.554539 0.770480
v -4.663658 0.555151 0.771184
v -4.662088 0.555020 0.770286
v -4.664301 0.554472 0.769630
v -4.664341 0.554869 0.768375
v -4.665036 0.555587 0.768403
v -4.664301 0.554472 0.769630
v -4.662155 0.556732 0.767941
v -4.663388 0.555432 0.767661
v -4.662160 0.555736 0.768026
v -4.662155 0.556732 0.767941
v -4.663388 0.555432 0.767661
v -4.662060 0.555786 0.770928
v -4.661391 0.556490 0.769485
v -4.661582 0.555552 0.769194
v -4.662088 0.555020 0.770286
v -4.662060 0.555786 0.770928
v -4.661582 0.555552 0.769194
v -4.664983 0.555063 0.770060
v -4.663658 0.555151 0.771184
v -4.663298 0.554539 0.770480
v -4.664301 0.554472 0.769630
v -4.664983 0.555063 0.770060
v -4.663298 0.554539 0.770480
v -4.663777 0.556330 0.767460
v -4.665036 0.555587 0.768403
v -4.664341 0.554869 0.768375
v -4.663388 0.555432 0.767661
v -4.663777 0.556330 0.767460
v -4.664341 0.554869 0.768375
v -4.665036 0.555587 0.768403
v -4.663777 0.556330 0.767460
v -4.664314 0.557739 0.767605
v -4.665036 0.555587 0.768403
v -4.664663 0.558957 0.768443
v -4.665846 0.558259 0.769329
v -4.665768 0.556881 0.768694
v -4.664314 0.557739 0.767605
v -4.664663 0.558957 0.768443
v -4.665768 0.556881 0.768694
v -4.665768 0.556881 0.768694
v -4.664983 0.555063 0.770060
v -4.665036 0.555587 0.768403
v -4.665768 0.556881 0.768694
v -4.664983 0.555063 0.770060
v -4.665846 0.558259 0.769329
v -4.665797 0.557766 0.770887
v -4.665707 0.556274 0.770609
v -4.665768 0.556881 0.768694
v -4.665846 0.558259 0.769329
v -4.665707 0.556274 0.770609
v -4.665707 0.556274 0.770609
v -4.663658 0.555151 0.771184
v -4.664983 0.555063 0.770060
v -4.665707 0.556274 0.770609
v -4.663658 0.555151 0.771184
v -4.665797 0.557766 0.770887
v -4.664551 0.557849 0.771944
v -4.664176 0.556377 0.771907
v -4.665707 0.556274 0.770609
v -4.665797 0.557766 0.770887
v -4.664176 0.556377 0.771907
v -4.664176 0.556377 0.771907
v -4.662060 0.555786 0.770928
v -4.663658 0.555151 0.771184
v -4.664176 0.556377 0.771907
v -4.662060 0.555786 0.770928
v -4.664551 0.557849 0.771944
v -4.663048 0.558446 0.771703
v -4.662329 0.557110 0.771611
v -4.664176 0.556377 0.771907
v -4.664551 0.557849 0.771944
v -4.662329 0.557110 0.771611
v -4.662329 0.557110 0.771611
v -4.661391 0.556490 0.769485
v -4.662060 0.555786 0.770928
v -4.662329 0.557110 0.771611
v -4.661391 0.556490 0.769485
v -4.663048 0.558446 0.771703
v -4.662419 0.559107 0.770346
v -4.661556 0.557923 0.769944
v -4.662329 0.557110 0.771611
v -4.663048 0.558446 0.771703
v -4.661556 0.557923 0.769944
v -4.661556 0.557923 0.769944
v -4.662155 0.556732 0.767941
v -4.661391 0.556490 0.769485
v -4.661556 0.557923 0.769944
v -4.662155 0.556732 0.767941
v -4.662419 0.559107 0.770346
v -4.663138 0.559335 0.768895
v -4.662439 0.558203 0.768161
v -4.661556 0.557923 0.769944
v -4.662419 0.559107 0.770346
v -4.662439 0.558203 0.768161
v -4.662439 0.558203 0.768161
v -4.664314 0.557739 0.767605
v -4.663777 0.556330 0.767460
v -4.662155 0.556732 0.767941
v -4.662439 0.558203 0.768161
v -4.663777 0.556330 0.767460
v -4.663138 0.559335 0.768895
v -4.664663 0.558957 0.768443
v -4.664314 0.557739 0.767605
v -4.662439 0.558203 0.768161
v -4.663138 0.559335 0.768895
v -4.664314 0.557739 0.767605
v -4.664813 0.559699 0.769352
v -4.665585 0.559244 0.769931
v -4.665846 0.558259 0.769329
v -4.664663 0.558957 0.768443
v -4.664813 0.559699 0.769352
v -4.665846 0.558259 0.769329
v -4.665552 0.558922 0.770948
v -4.665585 0.559244 0.769931
v -4.664739 0.558976 0.771637
v -4.664813 0.559699 0.769352
v -4.664739 0.558976 0.771637
v -4.665585 0.559244 0.769931
v -4.663758 0.559365 0.771480
v -4.664739 0.558976 0.771637
v -4.664813 0.559699 0.769352
v -4.663817 0.559946 0.769648
v -4.663758 0.559365 0.771480
v -4.664813 0.559699 0.769352
v -4.663348 0.559797 0.770594
v -4.663758 0.559365 0.771480
v -4.663817 0.559946 0.769648
v -4.662689 0.549495 0.768051
v -4.661616 0.549567 0.768960
v -4.662732 0.549920 0.766709
v -4.661713 0.550522 0.765945
v -4.662732 0.549920 0.766709
v -4.661616 0.549567 0.768960
v -4.660322 0.550081 0.768753
v -4.661713 0.550522 0.765945
v -4.661616 0.549567 0.768960
v -4.660399 0.550847 0.766335
v -4.661713 0.550522 0.765945
v -4.660322 0.550081 0.768753
v -4.659780 0.550651 0.767584
v -4.660399 0.550847 0.766335
v -4.660322 0.550081 0.768753
vn 0.3113 -0.9031 -0.2959
vn 0.0635 0.9863 -0.1524
vn 0.0902 0.7202 0.6878
vn 0.2785 0.9182 0.2818
vn -0.3931 0.8733 -0.2878
vn 0.0903 0.7203 0.6878
vn 0.0634 0.9863 -0.1524
vn -0.3930 0.8733 -0.2879
vn -0.3595 0.5416 0.7599
vn -0.7471 0.6643 -0.0225
vn -0.3596 0.5416 0.7599
vn -0.7471 0.6644 -0.0226
vn -0.7322 0.5167 0.4437
vn -0.9203 0.2367 -0.3114
vn -0.3930 0.8733 -0.2878
vn -0.3472 0.5750 -0.7408
vn -0.7471 0.6644 -0.0225
vn -0.2526 0.2601 -0.9320
vn 0.3918 0.7579 -0.5216
vn 0.5562 0.4603 -0.6919
vn -0.2527 0.2601 -0.9319
vn -0.3471 0.5750 -0.7409
vn -0.1219 -0.0918 -0.9883
vn 0.6401 0.0968 -0.7622
vn 0.5562 0.4604 -0.6919
vn 0.7400 0.6477 0.1814
vn 0.9374 0.3396 0.0775
vn 0.3919 0.7579 -0.5216
vn 0.6401 0.0968 -0.7621
vn 0.9992 -0.0169 -0.0373
vn 0.4353 0.3272 0.8387
vn 0.6038 -0.0111 0.7971
vn 0.7401 0.6476 0.1814
vn 0.4353 0.3273 0.8387
vn 0.9992 -0.0170 -0.0373
vn 0.6849 -0.3473 0.6405
vn 0.6038 -0.0112 0.7971
vn -0.2929 0.0380 0.9554
vn -0.1933 -0.3277 0.9248
vn 0.6849 -0.3474 0.6405
vn -0.1933 -0.3278 0.9248
vn -0.0660 -0.6456 0.7609
vn -0.1932 -0.3277 0.9248
vn -0.8962 -0.0023 0.4436
vn -0.8537 -0.3719 0.3645
vn -0.2929 0.0379 0.9554
vn -0.0660 -0.6456 0.7608
vn -0.6881 -0.6871 0.2331
vn -0.9204 0.2367 -0.3113
vn -0.8801 -0.1102 -0.4618
vn -0.6881 -0.6872 0.2330
vn -0.7130 -0.4407 -0.5453
vn -0.6881 -0.6871 0.2330
vn -0.2526 0.2601 -0.9319
vn -0.7130 -0.4407 -0.5454
vn -0.8801 -0.1102 -0.4617
vn -0.7575 -0.3753 -0.5342
vn -0.1514 -0.0176 -0.9883
vn -0.0941 -0.5854 0.8052
vn -0.7320 -0.6281 0.2641
vn -0.0940 -0.5854 0.8052
vn 0.9982 0.0592 -0.0132
vn 0.6759 -0.2796 0.6819
vn 0.6299 0.1758 -0.7565
vn -0.7320 -0.6280 0.2641
vn -0.7575 -0.3753 -0.5341
vn -0.0659 -0.6456 0.7608
vn -0.0941 -0.5855 0.8052
vn 0.6300 0.1758 -0.7565
vn 0.7400 0.6476 0.1814
vn -0.2470 0.2435 -0.9379
vn 0.5622 0.4438 -0.6978
vn -0.2470 0.2436 -0.9379
vn -0.8484 -0.3888 0.3592
vn -0.8748 -0.1270 -0.4675
vn -0.8484 -0.3887 0.3592
vn -0.7320 -0.6280 0.2640
vn 0.6098 -0.0279 0.7920
vn -0.1876 -0.3446 0.9198
vn 0.6098 -0.0278 0.7920
vn 0.6760 -0.2796 0.6818
vn 0.5623 0.4438 -0.6977
vn 0.9436 0.3231 0.0721
vn 0.5623 0.4439 -0.6977
vn -0.2471 0.2435 -0.9379
vn -0.8484 -0.3887 0.3593
vn 0.6760 -0.2796 0.6819
vn 0.6099 -0.0278 0.7920
vt 0.530319 0.611839
vt 0.522446 0.618118
vt 0.524872 0.613083
vt 0.524872 0.623154
vt 0.534683 0.615326
vt 0.530319 0.624397
vt 0.534683 0.620918
vt 0.537079 0.671494
vt 0.541916 0.669548
vt 0.539566 0.672157
vt 0.536179 0.669609
vt 0.539856 0.666756
vt 0.536224 0.667854
vt 0.537567 0.666748
vt 0.534592 0.666855
vt 0.534012 0.669838
vt 0.530777 0.669685
vt 0.535187 0.673050
vt 0.531769 0.674789
vt 0.525803 0.669067
vt 0.526108 0.676537
vt 0.539017 0.675606
vt 0.536011 0.680244
vt 0.529755 0.684982
vt 0.547180 0.674767
vt 0.546982 0.686485
vt 0.537415 0.696274
vt 0.547180 0.658051
vt 0.540527 0.663902
vt 0.539825 0.659698
vt 0.546280 0.665543
vt 0.543762 0.651657
vt 0.537613 0.655174
vt 0.536758 0.664742
vt 0.535126 0.661980
vt 0.532364 0.658463
vt 0.532074 0.665283
vt 0.528198 0.662933
vt 0.523743 0.660286
vt 0.519989 0.668175
vt 0.535217 0.651588
vt 0.529327 0.654999
vt 0.522873 0.688484
vt 0.528320 0.699394
vt 0.519577 0.678001
vt 0.540466 0.648293
vt 0.604446 0.642853
vt 0.626221 0.647896
vt 0.604553 0.648445
vt 0.626144 0.642670
vt 0.604553 0.631676
vt 0.626144 0.637444
vt 0.604446 0.637268
vt 0.626221 0.632225
vt 0.605011 0.620506
vt 0.626404 0.626999
vt 0.604736 0.626091
vt 0.626663 0.621780
vt 0.626404 0.653114
vt 0.604736 0.654030
vt 0.626663 0.658333
vt 0.605011 0.659607
s 0
usemtl decorations
f 240/1/1 239/2/1 238/3/1
f 237/1/1 236/4/1 235/2/1
f 234/5/1 233/4/1 232/1/1
f 231/5/1 230/6/1 229/4/1
f 228/6/1 227/5/1 226/7/1
s 1
f 225/8/2 224/9/3 223/10/4
f 222/11/5 221/9/6 220/8/7
f 219/11/8 218/12/9 217/9/3
f 216/13/10 215/12/9 214/11/8
f 213/12/11 212/13/12 211/14/13
f 210/15/14 209/11/15 208/16/16
f 207/15/14 206/13/17 205/11/15
f 204/17/18 203/18/19 202/19/20
f 201/17/21 200/16/22 199/18/19
f 198/20/23 197/19/20 196/21/24
f 195/20/23 194/17/21 193/19/25
f 192/19/20 191/22/26 190/23/27
f 189/19/20 188/18/28 187/22/26
f 186/21/29 185/23/27 184/24/30
f 183/21/24 3/19/20 182/23/27
f 181/23/27 180/25/31 179/26/32
f 178/23/27 177/22/33 176/25/34
f 175/24/35 174/26/32 173/27/36
f 172/24/35 4/23/27 171/26/32
f 170/28/37 169/29/38 168/30/39
f 167/28/37 166/31/31 165/29/38
f 164/32/40 163/30/41 162/33/42
f 161/32/40 13/28/37 160/30/43
f 159/30/39 158/34/44 157/35/45
f 156/30/39 155/29/46 154/34/44
f 153/33/47 152/35/45 151/36/48
f 150/33/47 14/30/39 149/35/45
f 148/35/45 147/15/49 146/37/50
f 145/35/45 144/34/44 143/15/49
f 142/36/51 141/37/50 140/38/52
f 139/36/53 16/35/45 138/37/50
f 137/37/50 136/16/22 135/17/54
f 134/37/50 133/15/49 132/16/16
f 131/38/55 130/17/54 129/20/23
f 128/38/55 36/37/56 25/17/54
f 127/39/57 126/20/23 125/40/58
f 124/39/57 123/38/55 122/20/23
f 121/41/59 120/36/48 119/42/60
f 118/41/61 117/33/47 116/36/48
f 115/43/62 114/27/36 113/44/63
f 112/43/62 111/24/30 110/27/36
f 109/40/58 108/21/24 107/45/64
f 106/40/58 40/20/23 105/21/24
f 104/42/65 103/38/52 102/39/66
f 101/42/60 41/36/48 42/38/52
f 100/46/63 99/33/67 98/41/68
f 97/46/63 37/32/36 38/33/67
f 96/45/69 95/24/30 94/43/62
f 93/45/69 33/21/24 34/24/30
f 92/29/46 91/14/13 90/34/44
f 89/29/46 88/12/9 87/14/13
f 86/22/26 85/9/6 84/25/34
f 83/22/70 82/10/4 81/9/6
f 80/16/22 79/8/7 78/18/19
f 29/16/22 30/11/5 77/8/7
f 76/31/34 75/12/9 28/29/38
f 31/31/31 26/9/6 27/12/9
f 74/18/28 73/10/4 24/22/26
f 21/18/28 22/8/7 23/10/4
f 72/34/44 71/13/17 20/15/49
f 17/34/44 18/14/13 19/13/17
f 70/47/71 69/48/64 68/49/72
f 67/47/73 66/50/58 65/48/64
f 64/51/74 63/52/57 62/53/75
f 61/51/76 60/54/77 59/52/66
f 58/55/78 57/56/59 56/57/79
f 55/55/80 54/58/81 53/56/68
f 52/49/82 51/59/62 50/60/83
f 2/49/84 32/48/69 49/59/62
f 48/53/75 47/50/58 12/47/85
f 9/53/75 10/52/57 11/50/58
f 46/57/79 45/54/77 8/51/86
f 5/57/79 6/56/68 7/54/60
f 44/60/83 43/61/87 15/62/88
f 1/60/83 35/59/62 39/61/81
