# Blender 5.0.0
# www.blender.org
mtllib Circle_005_Circle_003_Dupli_149_decorations_0.mtl
o Circle.005|Circle.003|Dupli|149_decorations_0
v -4.245643 1.234934 0.554327
v -4.245223 1.234919 0.555671
v -4.248369 1.241978 0.557045
v -4.248969 1.241998 0.555127
v -4.243608 1.235835 0.553109
v -4.245515 1.240903 0.553845
v -4.244652 1.241098 0.554820
v -4.242685 1.236044 0.554152
v -4.242851 1.235810 0.555531
v -4.244807 1.240879 0.556109
v -4.245863 1.240411 0.556742
v -4.243980 1.235309 0.556207
v -4.247943 1.242580 0.553500
v -4.246065 1.243284 0.553389
v -4.244925 1.235341 0.553187
v -4.244749 1.243582 0.554877
v -4.245632 1.244784 0.555166
v -4.246553 1.245466 0.555461
v -4.246678 1.245288 0.556506
v -4.245824 1.244512 0.556767
v -4.248579 1.243479 0.556930
v -4.248476 1.244614 0.556613
v -4.248794 1.244624 0.555594
v -4.249066 1.243495 0.555370
v -4.246596 1.242534 0.557809
v -4.248250 1.244933 0.554730
v -4.247252 1.245308 0.554671
v -4.246704 1.244542 0.553955
v -4.247136 1.243931 0.557552
v -4.247534 1.244909 0.557018
v -4.248232 1.243968 0.554046
v -4.247025 1.240047 0.556241
v -4.247652 1.240700 0.556666
v -4.248171 1.240717 0.555006
v -4.247417 1.240060 0.554985
v -4.244985 1.243248 0.556844
v -4.247283 1.241220 0.553597
v -4.245657 1.241831 0.553501
v -4.246746 1.240441 0.553918
v -4.246117 1.241181 0.557327
v -4.244518 1.242088 0.554789
v -4.244722 1.241799 0.556492
v -4.246746 1.240441 0.553918
v -4.245643 1.234934 0.554327
v -4.244652 1.241098 0.554820
v -4.243608 1.235835 0.553109
v -4.245863 1.240411 0.556742
v -4.242851 1.235810 0.555531
v -4.247417 1.240060 0.554985
v -4.245643 1.234934 0.554327
v -4.247417 1.240060 0.554985
v -4.245223 1.234919 0.555671
v -4.245515 1.240903 0.553845
v -4.246746 1.240441 0.553918
v -4.244925 1.235341 0.553187
v -4.243608 1.235835 0.553109
v -4.245515 1.240903 0.553845
v -4.244925 1.235341 0.553187
v -4.244807 1.240879 0.556109
v -4.244652 1.241098 0.554820
v -4.242685 1.236044 0.554152
v -4.242851 1.235810 0.555531
v -4.244807 1.240879 0.556109
v -4.242685 1.236044 0.554152
v -4.247025 1.240047 0.556241
v -4.245863 1.240411 0.556742
v -4.243980 1.235309 0.556207
v -4.245223 1.234919 0.555671
v -4.247025 1.240047 0.556241
v -4.243980 1.235309 0.556207
v -4.246678 1.245288 0.556506
v -4.245632 1.244784 0.555166
v -4.248794 1.244624 0.555594
v -4.248579 1.243479 0.556930
v -4.247252 1.245308 0.554671
v -4.248232 1.243968 0.554046
v -4.248476 1.244614 0.556613
v -4.248579 1.243479 0.556930
v -4.248476 1.244614 0.556613
v -4.247136 1.243931 0.557552
v -4.248250 1.244933 0.554730
v -4.248794 1.244624 0.555594
v -4.249066 1.243495 0.555370
v -4.248232 1.243968 0.554046
v -4.248250 1.244933 0.554730
v -4.249066 1.243495 0.555370
v -4.246553 1.245466 0.555461
v -4.247252 1.245308 0.554671
v -4.246704 1.244542 0.553955
v -4.245632 1.244784 0.555166
v -4.246553 1.245466 0.555461
v -4.246704 1.244542 0.553955
v -4.247025 1.240047 0.556241
v -4.247417 1.240060 0.554985
v -4.248171 1.240717 0.555006
v -4.247025 1.240047 0.556241
v -4.246746 1.240441 0.553918
v -4.245515 1.240903 0.553845
v -4.245657 1.241831 0.553501
v -4.246746 1.240441 0.553918
v -4.244652 1.241098 0.554820
v -4.244807 1.240879 0.556109
v -4.244722 1.241799 0.556492
v -4.244652 1.241098 0.554820
v -4.247652 1.240700 0.556666
v -4.245863 1.240411 0.556742
v -4.247025 1.240047 0.556241
v -4.247652 1.240700 0.556666
v -4.245863 1.240411 0.556742
v -4.247283 1.241220 0.553597
v -4.248171 1.240717 0.555006
v -4.247417 1.240060 0.554985
v -4.246746 1.240441 0.553918
v -4.247283 1.241220 0.553597
v -4.247417 1.240060 0.554985
v -4.244518 1.242088 0.554789
v -4.245657 1.241831 0.553501
v -4.245515 1.240903 0.553845
v -4.244652 1.241098 0.554820
v -4.244518 1.242088 0.554789
v -4.245515 1.240903 0.553845
v -4.246117 1.241181 0.557327
v -4.244722 1.241799 0.556492
v -4.244807 1.240879 0.556109
v -4.245863 1.240411 0.556742
v -4.246117 1.241181 0.557327
v -4.244807 1.240879 0.556109
v -4.244722 1.241799 0.556492
v -4.246117 1.241181 0.557327
v -4.246596 1.242534 0.557809
v -4.244722 1.241799 0.556492
v -4.247136 1.243931 0.557552
v -4.245824 1.244512 0.556767
v -4.244985 1.243248 0.556844
v -4.246596 1.242534 0.557809
v -4.247136 1.243931 0.557552
v -4.244985 1.243248 0.556844
v -4.244985 1.243248 0.556844
v -4.244518 1.242088 0.554789
v -4.244722 1.241799 0.556492
v -4.244985 1.243248 0.556844
v -4.244518 1.242088 0.554789
v -4.245824 1.244512 0.556767
v -4.245632 1.244784 0.555166
v -4.244749 1.243582 0.554877
v -4.244985 1.243248 0.556844
v -4.245824 1.244512 0.556767
v -4.244749 1.243582 0.554877
v -4.244749 1.243582 0.554877
v -4.245657 1.241831 0.553501
v -4.244518 1.242088 0.554789
v -4.244749 1.243582 0.554877
v -4.245657 1.241831 0.553501
v -4.245632 1.244784 0.555166
v -4.246704 1.244542 0.553955
v -4.246065 1.243284 0.553389
v -4.244749 1.243582 0.554877
v -4.245632 1.244784 0.555166
v -4.246065 1.243284 0.553389
v -4.246065 1.243284 0.553389
v -4.247283 1.241220 0.553597
v -4.245657 1.241831 0.553501
v -4.246065 1.243284 0.553389
v -4.247283 1.241220 0.553597
v -4.246704 1.244542 0.553955
v -4.248232 1.243968 0.554046
v -4.247943 1.242580 0.553500
v -4.246065 1.243284 0.553389
v -4.246704 1.244542 0.553955
v -4.247943 1.242580 0.553500
v -4.247943 1.242580 0.553500
v -4.248171 1.240717 0.555006
v -4.247283 1.241220 0.553597
v -4.247943 1.242580 0.553500
v -4.248171 1.240717 0.555006
v -4.248232 1.243968 0.554046
v -4.249066 1.243495 0.555370
v -4.248969 1.241998 0.555127
v -4.247943 1.242580 0.553500
v -4.248232 1.243968 0.554046
v -4.248969 1.241998 0.555127
v -4.248969 1.241998 0.555127
v -4.247652 1.240700 0.556666
v -4.248171 1.240717 0.555006
v -4.248969 1.241998 0.555127
v -4.247652 1.240700 0.556666
v -4.249066 1.243495 0.555370
v -4.248579 1.243479 0.556930
v -4.248369 1.241978 0.557045
v -4.248969 1.241998 0.555127
v -4.249066 1.243495 0.555370
v -4.248369 1.241978 0.557045
v -4.248369 1.241978 0.557045
v -4.246596 1.242534 0.557809
v -4.246117 1.241181 0.557327
v -4.247652 1.240700 0.556666
v -4.248369 1.241978 0.557045
v -4.246117 1.241181 0.557327
v -4.248579 1.243479 0.556930
v -4.247136 1.243931 0.557552
v -4.246596 1.242534 0.557809
v -4.248369 1.241978 0.557045
v -4.248579 1.243479 0.556930
v -4.246596 1.242534 0.557809
v -4.247534 1.244909 0.557018
v -4.246678 1.245288 0.556506
v -4.245824 1.244512 0.556767
v -4.247136 1.243931 0.557552
v -4.247534 1.244909 0.557018
v -4.245824 1.244512 0.556767
v -4.246553 1.245466 0.555461
v -4.246678 1.245288 0.556506
v -4.247252 1.245308 0.554671
v -4.247534 1.244909 0.557018
v -4.247252 1.245308 0.554671
v -4.246678 1.245288 0.556506
v -4.248250 1.244933 0.554730
v -4.247252 1.245308 0.554671
v -4.247534 1.244909 0.557018
v -4.248476 1.244614 0.556613
v -4.248250 1.244933 0.554730
v -4.247534 1.244909 0.557018
v -4.248794 1.244624 0.555594
v -4.248250 1.244933 0.554730
v -4.248476 1.244614 0.556613
v -4.242685 1.236044 0.554152
v -4.243608 1.235835 0.553109
v -4.242851 1.235810 0.555531
v -4.243980 1.235309 0.556207
v -4.242851 1.235810 0.555531
v -4.243608 1.235835 0.553109
v -4.244925 1.235341 0.553187
v -4.243980 1.235309 0.556207
v -4.243608 1.235835 0.553109
v -4.245223 1.234919 0.555671
v -4.243980 1.235309 0.556207
v -4.244925 1.235341 0.553187
v -4.245643 1.234934 0.554327
v -4.245223 1.234919 0.555671
v -4.244925 1.235341 0.553187
vn 0.3428 -0.9321 -0.1171
vn -0.6626 0.5833 0.4697
vn -0.5589 0.7299 -0.3935
vn -0.8087 0.5883 0.0028
vn -0.2307 0.7188 0.6558
vn -0.5590 0.7299 -0.3935
vn -0.6626 0.5833 0.4698
vn -0.2308 0.7188 0.6558
vn -0.1015 0.9015 -0.4207
vn 0.1616 0.8926 0.4208
vn -0.1015 0.9015 -0.4206
vn 0.1616 0.8926 0.4209
vn 0.2192 0.9739 -0.0582
vn 0.5801 0.5793 0.5726
vn -0.0552 0.2979 0.9530
vn 0.0798 -0.0552 0.9953
vn -0.7543 0.0786 0.6518
vn -0.6855 -0.2951 0.6656
vn 0.0798 -0.0551 0.9953
vn 0.2030 -0.3996 0.8939
vn -0.5179 -0.6257 0.5834
vn -0.9908 0.0866 -0.1042
vn -0.9443 -0.2864 -0.1619
vn -0.5179 -0.6257 0.5833
vn -0.7618 -0.6174 -0.1962
vn -0.5865 0.3158 -0.7458
vn -0.5018 -0.0354 -0.8642
vn -0.9908 0.0866 -0.1043
vn -0.5866 0.3159 -0.7458
vn -0.7617 -0.6175 -0.1963
vn -0.3449 -0.3810 -0.8578
vn -0.9443 -0.2864 -0.1620
vn -0.5018 -0.0355 -0.8643
vn 0.1540 0.5937 -0.7898
vn 0.3088 0.2687 -0.9124
vn -0.3448 -0.3811 -0.8578
vn 0.4187 -0.0945 -0.9032
vn -0.3448 -0.3810 -0.8578
vn -0.5018 -0.0354 -0.8643
vn 0.3087 0.2688 -0.9124
vn 0.6732 0.7110 -0.2031
vn 0.8771 0.3971 -0.2701
vn 0.4188 -0.0945 -0.9032
vn 0.9542 0.0264 -0.2981
vn 0.8772 0.3971 -0.2701
vn 0.5802 0.5793 0.5725
vn 0.7752 0.2530 0.5789
vn 0.6733 0.7110 -0.2030
vn 0.5801 0.5794 0.5725
vn 0.8582 -0.1093 0.5016
vn 0.7752 0.2529 0.5789
vn 0.8581 -0.1094 0.5016
vn 0.2030 -0.3995 0.8940
vn 0.7752 0.2530 0.5788
vn 0.8509 -0.0331 0.5243
vn 0.2030 -0.3995 0.8939
vn 0.1791 -0.3307 0.9266
vn 0.8581 -0.1093 0.5016
vn 0.4003 -0.0179 -0.9162
vn 0.9541 0.0264 -0.2982
vn 0.9493 0.1061 -0.2958
vn -0.8102 -0.5541 -0.1913
vn -0.3827 -0.3117 -0.8697
vn -0.8101 -0.5541 -0.1913
vn -0.7617 -0.6174 -0.1963
vn -0.5601 -0.5626 0.6081
vn 0.4004 -0.0179 -0.9162
vn -0.7617 -0.6174 -0.1962
vn 0.1541 0.5937 -0.7898
vn 0.2192 0.9740 -0.0582
vn -0.1016 0.9015 -0.4206
vn -0.0552 0.2978 0.9530
vn -0.6626 0.5834 0.4698
vn -0.5865 0.3159 -0.7458
vn -0.7543 0.0785 0.6518
vn 0.6732 0.7110 -0.2030
vn 0.0862 -0.0724 0.9936
vn -0.5601 -0.5625 0.6081
vn -0.6795 -0.3125 0.6638
vn 0.0861 -0.0723 0.9937
vn 0.8839 0.3800 -0.2724
vn 0.7820 0.2359 0.5770
vn 0.8839 0.3801 -0.2724
vn -0.4957 -0.0527 -0.8669
vn 0.3152 0.2516 -0.9151
vn -0.4957 -0.0526 -0.8669
vn -0.9385 -0.3038 -0.1642
vn 0.7819 0.2358 0.5770
vn 0.7819 0.2359 0.5770
vn 0.3153 0.2516 -0.9150
vn 0.3153 0.2517 -0.9150
vn -0.9385 -0.3037 -0.1642
vn -0.8101 -0.5542 -0.1913
vt 0.530319 0.611839
vt 0.522446 0.618118
vt 0.524872 0.613083
vt 0.524872 0.623154
vt 0.534683 0.615326
vt 0.530319 0.624397
vt 0.534683 0.620918
vt 0.537079 0.671494
vt 0.541916 0.669548
vt 0.539566 0.672157
vt 0.536179 0.669609
vt 0.539856 0.666756
vt 0.536224 0.667854
vt 0.537567 0.666748
vt 0.534592 0.666855
vt 0.534012 0.669838
vt 0.530777 0.669685
vt 0.535187 0.673050
vt 0.531769 0.674789
vt 0.525803 0.669067
vt 0.526108 0.676537
vt 0.539017 0.675606
vt 0.536011 0.680244
vt 0.529755 0.684982
vt 0.547180 0.674767
vt 0.546982 0.686485
vt 0.537415 0.696274
vt 0.547180 0.658051
vt 0.540527 0.663902
vt 0.539825 0.659698
vt 0.546280 0.665543
vt 0.543762 0.651657
vt 0.537613 0.655174
vt 0.536758 0.664742
vt 0.535126 0.661980
vt 0.532364 0.658463
vt 0.532074 0.665283
vt 0.528198 0.662933
vt 0.523743 0.660286
vt 0.519989 0.668175
vt 0.535217 0.651588
vt 0.529327 0.654999
vt 0.522873 0.688484
vt 0.528320 0.699394
vt 0.519577 0.678001
vt 0.540466 0.648293
vt 0.604446 0.642853
vt 0.626221 0.647896
vt 0.604553 0.648445
vt 0.626144 0.642670
vt 0.604553 0.631676
vt 0.626144 0.637444
vt 0.604446 0.637268
vt 0.626221 0.632225
vt 0.605011 0.620506
vt 0.626404 0.626999
vt 0.604736 0.626091
vt 0.626663 0.621780
vt 0.626404 0.653114
vt 0.604736 0.654030
vt 0.626663 0.658333
vt 0.605011 0.659607
s 0
usemtl decorations
f 240/1/1 239/2/1 238/3/1
f 237/1/1 236/4/1 235/2/1
f 234/5/1 233/4/1 232/1/1
f 231/5/1 230/6/1 229/4/1
f 228/6/1 227/5/1 226/7/1
s 1
f 225/8/2 224/9/3 223/10/4
f 222/11/5 221/9/6 220/8/7
f 219/11/8 218/12/9 217/9/3
f 216/13/10 215/12/9 214/11/8
f 213/12/11 212/13/12 211/14/13
f 210/15/14 209/11/8 208/16/15
f 207/15/14 206/13/10 205/11/8
f 204/17/16 203/18/17 202/19/18
f 201/17/19 200/16/15 199/18/17
f 198/20/20 197/19/18 196/21/21
f 195/20/20 194/17/19 193/19/18
f 192/19/18 191/22/22 190/23/23
f 189/19/18 188/18/17 187/22/22
f 186/21/24 185/23/23 184/24/25
f 183/21/24 3/19/18 182/23/23
f 181/23/23 180/25/26 179/26/27
f 178/23/23 177/22/28 176/25/29
f 175/24/30 174/26/27 173/27/31
f 172/24/30 4/23/32 171/26/27
f 170/28/33 169/29/34 168/30/35
f 167/28/33 166/31/26 165/29/34
f 164/32/36 163/30/35 162/33/37
f 161/32/38 13/28/39 160/30/40
f 159/30/35 158/34/41 157/35/42
f 156/30/35 155/29/34 154/34/41
f 153/33/43 152/35/42 151/36/44
f 150/33/43 14/30/35 149/35/42
f 148/35/45 147/15/46 146/37/47
f 145/35/42 144/34/48 143/15/49
f 142/36/44 141/37/47 140/38/50
f 139/36/44 16/35/42 138/37/47
f 137/37/51 136/16/15 135/17/19
f 134/37/47 133/15/14 132/16/15
f 131/38/52 130/17/19 129/20/53
f 128/38/52 36/37/54 25/17/19
f 127/39/55 126/20/56 125/40/57
f 124/39/55 123/38/58 122/20/56
f 121/41/59 120/36/60 119/42/61
f 118/41/59 117/33/43 116/36/60
f 115/43/62 114/27/31 113/44/63
f 112/43/64 111/24/65 110/27/31
f 109/40/57 108/21/21 107/45/66
f 106/40/57 40/20/20 105/21/21
f 104/42/61 103/38/58 102/39/55
f 101/42/61 41/36/44 42/38/58
f 100/46/63 99/33/37 98/41/67
f 97/46/63 37/32/38 38/33/37
f 96/45/66 95/24/68 94/43/64
f 93/45/66 33/21/21 34/24/25
f 92/29/69 91/14/70 90/34/41
f 89/29/69 88/12/71 87/14/13
f 86/22/22 85/9/3 84/25/29
f 83/22/28 82/10/4 81/9/6
f 80/16/15 79/8/2 78/18/17
f 29/16/72 30/11/5 77/8/73
f 76/31/74 75/12/11 28/29/34
f 31/31/74 26/9/6 27/12/71
f 74/18/17 73/10/4 24/22/22
f 21/18/75 22/8/73 23/10/4
f 72/34/76 71/13/10 20/15/14
f 17/34/76 18/14/13 19/13/10
f 70/47/77 69/48/78 68/49/79
f 67/47/80 66/50/57 65/48/66
f 64/51/81 63/52/55 62/53/82
f 61/51/83 60/54/61 59/52/55
f 58/55/84 57/56/67 56/57/85
f 55/55/86 54/58/63 53/56/59
f 52/49/79 51/59/62 50/60/87
f 2/49/79 32/48/66 49/59/62
f 48/53/88 47/50/57 12/47/77
f 9/53/89 10/52/55 11/50/57
f 46/57/90 45/54/61 8/51/83
f 5/57/91 6/56/67 7/54/61
f 44/60/87 43/61/63 15/62/84
f 1/60/92 35/59/93 39/61/63
