# Blender 5.0.0
# www.blender.org
mtllib Circle_002_Circle_Dupli_291_decorations_0.mtl
o Circle.002|Circle|Dupli|291_decorations_0
v -4.390164 1.879969 0.802374
v -4.391000 1.879897 0.803505
v -4.397023 1.877204 0.799253
v -4.395830 1.877307 0.797640
v -4.390430 1.882380 0.801628
v -4.394654 1.880860 0.798510
v -4.395497 1.881350 0.799395
v -4.391333 1.882903 0.802574
v -4.391937 1.882249 0.803665
v -4.396063 1.880739 0.800415
v -4.395925 1.879488 0.800803
v -4.391789 1.880911 0.804080
v -4.395468 1.878883 0.796448
v -4.396211 1.880746 0.796575
v -4.389910 1.881074 0.801539
v -4.397498 1.881492 0.797925
v -4.398510 1.880690 0.797125
v -4.399107 1.879798 0.796627
v -4.399565 1.879303 0.797454
v -4.399212 1.879932 0.798392
v -4.398124 1.877200 0.798205
v -4.398855 1.877521 0.797332
v -4.398221 1.877575 0.796475
v -4.397153 1.877284 0.796893
v -4.398149 1.878652 0.800073
v -4.398029 1.878413 0.795842
v -4.398423 1.879402 0.795910
v -4.397463 1.880083 0.796026
v -4.399041 1.878379 0.798873
v -4.399453 1.878290 0.797767
v -4.396859 1.878567 0.795923
v -4.395186 1.878539 0.800265
v -4.395875 1.877874 0.799977
v -4.394842 1.877963 0.798580
v -4.394405 1.878607 0.799208
v -4.398360 1.880560 0.799482
v -4.394529 1.879328 0.797549
v -4.395171 1.880940 0.797659
v -4.394168 1.879640 0.798427
v -4.396850 1.879128 0.800687
v -4.396285 1.881586 0.798828
v -4.397032 1.880780 0.800175
v -4.394168 1.879640 0.798427
v -4.390164 1.879969 0.802374
v -4.395497 1.881350 0.799395
v -4.390430 1.882380 0.801628
v -4.395925 1.879488 0.800803
v -4.391937 1.882249 0.803665
v -4.394405 1.878607 0.799208
v -4.390164 1.879969 0.802374
v -4.394405 1.878607 0.799208
v -4.391000 1.879897 0.803505
v -4.394654 1.880860 0.798510
v -4.394168 1.879640 0.798427
v -4.389910 1.881074 0.801539
v -4.390430 1.882380 0.801628
v -4.394654 1.880860 0.798510
v -4.389910 1.881074 0.801539
v -4.396063 1.880739 0.800415
v -4.395497 1.881350 0.799395
v -4.391333 1.882903 0.802574
v -4.391937 1.882249 0.803665
v -4.396063 1.880739 0.800415
v -4.391333 1.882903 0.802574
v -4.395186 1.878539 0.800265
v -4.395925 1.879488 0.800803
v -4.391789 1.880911 0.804080
v -4.391000 1.879897 0.803505
v -4.395186 1.878539 0.800265
v -4.391789 1.880911 0.804080
v -4.399565 1.879303 0.797454
v -4.398510 1.880690 0.797125
v -4.398221 1.877575 0.796475
v -4.398124 1.877200 0.798205
v -4.398423 1.879402 0.795910
v -4.396859 1.878567 0.795923
v -4.398855 1.877521 0.797332
v -4.398124 1.877200 0.798205
v -4.398855 1.877521 0.797332
v -4.399041 1.878379 0.798873
v -4.398029 1.878413 0.795842
v -4.398221 1.877575 0.796475
v -4.397153 1.877284 0.796893
v -4.396859 1.878567 0.795923
v -4.398029 1.878413 0.795842
v -4.397153 1.877284 0.796893
v -4.399107 1.879798 0.796627
v -4.398423 1.879402 0.795910
v -4.397463 1.880083 0.796026
v -4.398510 1.880690 0.797125
v -4.399107 1.879798 0.796627
v -4.397463 1.880083 0.796026
v -4.395186 1.878539 0.800265
v -4.394405 1.878607 0.799208
v -4.394842 1.877963 0.798580
v -4.395186 1.878539 0.800265
v -4.394168 1.879640 0.798427
v -4.394654 1.880860 0.798510
v -4.395171 1.880940 0.797659
v -4.394168 1.879640 0.798427
v -4.395497 1.881350 0.799395
v -4.396063 1.880739 0.800415
v -4.397032 1.880780 0.800175
v -4.395497 1.881350 0.799395
v -4.395875 1.877874 0.799977
v -4.395925 1.879488 0.800803
v -4.395186 1.878539 0.800265
v -4.395875 1.877874 0.799977
v -4.395925 1.879488 0.800803
v -4.394529 1.879328 0.797549
v -4.394842 1.877963 0.798580
v -4.394405 1.878607 0.799208
v -4.394168 1.879640 0.798427
v -4.394529 1.879328 0.797549
v -4.394405 1.878607 0.799208
v -4.396285 1.881586 0.798828
v -4.395171 1.880940 0.797659
v -4.394654 1.880860 0.798510
v -4.395497 1.881350 0.799395
v -4.396285 1.881586 0.798828
v -4.394654 1.880860 0.798510
v -4.396850 1.879128 0.800687
v -4.397032 1.880780 0.800175
v -4.396063 1.880739 0.800415
v -4.395925 1.879488 0.800803
v -4.396850 1.879128 0.800687
v -4.396063 1.880739 0.800415
v -4.397032 1.880780 0.800175
v -4.396850 1.879128 0.800687
v -4.398149 1.878652 0.800073
v -4.397032 1.880780 0.800175
v -4.399041 1.878379 0.798873
v -4.399212 1.879932 0.798392
v -4.398360 1.880560 0.799482
v -4.398149 1.878652 0.800073
v -4.399041 1.878379 0.798873
v -4.398360 1.880560 0.799482
v -4.398360 1.880560 0.799482
v -4.396285 1.881586 0.798828
v -4.397032 1.880780 0.800175
v -4.398360 1.880560 0.799482
v -4.396285 1.881586 0.798828
v -4.399212 1.879932 0.798392
v -4.398510 1.880690 0.797125
v -4.397498 1.881492 0.797925
v -4.398360 1.880560 0.799482
v -4.399212 1.879932 0.798392
v -4.397498 1.881492 0.797925
v -4.397498 1.881492 0.797925
v -4.395171 1.880940 0.797659
v -4.396285 1.881586 0.798828
v -4.397498 1.881492 0.797925
v -4.395171 1.880940 0.797659
v -4.398510 1.880690 0.797125
v -4.397463 1.880083 0.796026
v -4.396211 1.880746 0.796575
v -4.397498 1.881492 0.797925
v -4.398510 1.880690 0.797125
v -4.396211 1.880746 0.796575
v -4.396211 1.880746 0.796575
v -4.394529 1.879328 0.797549
v -4.395171 1.880940 0.797659
v -4.396211 1.880746 0.796575
v -4.394529 1.879328 0.797549
v -4.397463 1.880083 0.796026
v -4.396859 1.878567 0.795923
v -4.395468 1.878883 0.796448
v -4.396211 1.880746 0.796575
v -4.397463 1.880083 0.796026
v -4.395468 1.878883 0.796448
v -4.395468 1.878883 0.796448
v -4.394842 1.877963 0.798580
v -4.394529 1.879328 0.797549
v -4.395468 1.878883 0.796448
v -4.394842 1.877963 0.798580
v -4.396859 1.878567 0.795923
v -4.397153 1.877284 0.796893
v -4.395830 1.877307 0.797640
v -4.395468 1.878883 0.796448
v -4.396859 1.878567 0.795923
v -4.395830 1.877307 0.797640
v -4.395830 1.877307 0.797640
v -4.395875 1.877874 0.799977
v -4.394842 1.877963 0.798580
v -4.395830 1.877307 0.797640
v -4.395875 1.877874 0.799977
v -4.397153 1.877284 0.796893
v -4.398124 1.877200 0.798205
v -4.397023 1.877204 0.799253
v -4.395830 1.877307 0.797640
v -4.397153 1.877284 0.796893
v -4.397023 1.877204 0.799253
v -4.397023 1.877204 0.799253
v -4.398149 1.878652 0.800073
v -4.396850 1.879128 0.800687
v -4.395875 1.877874 0.799977
v -4.397023 1.877204 0.799253
v -4.396850 1.879128 0.800687
v -4.398124 1.877200 0.798205
v -4.399041 1.878379 0.798873
v -4.398149 1.878652 0.800073
v -4.397023 1.877204 0.799253
v -4.398124 1.877200 0.798205
v -4.398149 1.878652 0.800073
v -4.399453 1.878290 0.797767
v -4.399565 1.879303 0.797454
v -4.399212 1.879932 0.798392
v -4.399041 1.878379 0.798873
v -4.399453 1.878290 0.797767
v -4.399212 1.879932 0.798392
v -4.399107 1.879798 0.796627
v -4.399565 1.879303 0.797454
v -4.398423 1.879402 0.795910
v -4.399453 1.878290 0.797767
v -4.398423 1.879402 0.795910
v -4.399565 1.879303 0.797454
v -4.398029 1.878413 0.795842
v -4.398423 1.879402 0.795910
v -4.399453 1.878290 0.797767
v -4.398855 1.877521 0.797332
v -4.398029 1.878413 0.795842
v -4.399453 1.878290 0.797767
v -4.398221 1.877575 0.796475
v -4.398029 1.878413 0.795842
v -4.398855 1.877521 0.797332
v -4.391333 1.882903 0.802574
v -4.390430 1.882380 0.801628
v -4.391937 1.882249 0.803665
v -4.391789 1.880911 0.804080
v -4.391937 1.882249 0.803665
v -4.390430 1.882380 0.801628
v -4.389910 1.881074 0.801539
v -4.391789 1.880911 0.804080
v -4.390430 1.882380 0.801628
v -4.391000 1.879897 0.803505
v -4.391789 1.880911 0.804080
v -4.389910 1.881074 0.801539
v -4.390164 1.879969 0.802374
v -4.391000 1.879897 0.803505
v -4.389910 1.881074 0.801539
vn 0.7670 0.2656 0.5841
vn -0.6551 -0.7210 -0.2258
vn -0.2764 -0.3119 -0.9090
vn -0.3645 -0.6959 -0.6187
vn -0.9293 -0.3683 -0.0261
vn -0.2764 -0.3120 -0.9090
vn -0.9293 -0.3684 -0.0261
vn -0.4571 0.1417 -0.8780
vn -0.9807 0.0965 -0.1700
vn -0.4572 0.1417 -0.8780
vn -0.9807 0.0964 -0.1700
vn -0.7706 0.3235 -0.5491
vn -0.8753 0.4029 0.2674
vn -0.7921 -0.3496 0.5003
vn -0.9807 0.0965 -0.1701
vn -0.9293 -0.3684 -0.0262
vn -0.5534 -0.2741 0.7866
vn -0.3481 -0.9206 0.1770
vn -0.0675 -0.8990 0.4327
vn -0.5534 -0.2741 0.7865
vn -0.7921 -0.3497 0.5003
vn -0.3482 -0.9206 0.1770
vn -0.2352 -0.1591 0.9588
vn -0.0674 -0.8990 0.4326
vn 0.2225 -0.7479 0.6254
vn -0.0675 -0.8990 0.4326
vn 0.1222 -0.8799 -0.4591
vn 0.4474 -0.8546 -0.2636
vn 0.2226 -0.7479 0.6254
vn 0.7076 -0.7060 -0.0305
vn 0.4475 -0.8546 -0.2636
vn 0.2649 -0.2583 -0.9290
vn 0.6036 -0.1741 -0.7780
vn 0.1223 -0.8799 -0.4591
vn 0.2649 -0.2584 -0.9290
vn 0.7076 -0.7059 -0.0305
vn 0.8547 -0.0650 -0.5151
vn -0.0276 0.4762 -0.8789
vn 0.2834 0.6298 -0.7232
vn -0.0277 0.4761 -0.8789
vn 0.8547 -0.0649 -0.5151
vn 0.5530 0.6924 -0.4634
vn -0.5351 0.7704 -0.3465
vn -0.2721 0.9520 -0.1404
vn -0.0277 0.4762 -0.8789
vn 0.0297 0.9959 0.0856
vn -0.2721 0.9520 -0.1403
vn -0.8753 0.4030 0.2673
vn -0.6445 0.5497 0.5315
vn -0.5351 0.7705 -0.3465
vn -0.8753 0.4029 0.2673
vn 0.0297 0.9959 0.0857
vn -0.3211 0.6169 0.7185
vn -0.3210 0.6169 0.7186
vn -0.2353 -0.1592 0.9588
vn -0.3943 0.6100 0.6873
vn -0.2353 -0.1591 0.9588
vn -0.3062 -0.1857 0.9337
vn -0.3942 0.6100 0.6873
vn -0.3211 0.6169 0.7186
vn 0.5020 0.6875 -0.5247
vn -0.0345 0.9987 0.0383
vn 0.6606 -0.7464 -0.0808
vn 0.8114 -0.0891 -0.5777
vn -0.3063 -0.1857 0.9337
vn 0.2225 -0.7479 0.6255
vn 0.1632 -0.7893 0.5919
vn -0.3942 0.6101 0.6873
vn 0.1632 -0.7894 0.5918
vn -0.7706 0.3235 -0.5492
vn -0.2765 -0.3120 -0.9090
vn 0.2648 -0.2583 -0.9290
vn -0.5395 -0.2693 0.7977
vn 0.1631 -0.7894 0.5918
vn -0.0533 -0.8946 0.4437
vn -0.5395 -0.2694 0.7977
vn -0.2581 0.9574 -0.1296
vn -0.6306 0.5549 0.5426
vn 0.6181 -0.1692 -0.7677
vn 0.2977 0.6350 -0.7128
vn 0.6181 -0.1693 -0.7677
vn 0.6605 -0.7464 -0.0808
vn 0.4619 -0.8501 -0.2529
vn -0.0533 -0.8946 0.4436
vn -0.6307 0.5549 0.5426
vn 0.2977 0.6351 -0.7128
vn 0.4619 -0.8501 -0.2530
vn 0.8114 -0.0892 -0.5777
vt 0.543243 0.611839
vt 0.535370 0.618118
vt 0.537796 0.613083
vt 0.537796 0.623154
vt 0.547607 0.615326
vt 0.543243 0.624397
vt 0.547607 0.620918
vt 0.565384 0.671494
vt 0.570206 0.669548
vt 0.567856 0.672157
vt 0.564468 0.669609
vt 0.568146 0.666756
vt 0.564514 0.667854
vt 0.565857 0.666748
vt 0.562897 0.666855
vt 0.562302 0.669838
vt 0.559082 0.669685
vt 0.563492 0.673050
vt 0.560059 0.674789
vt 0.554092 0.669067
vt 0.554398 0.676537
vt 0.567307 0.675606
vt 0.564316 0.680244
vt 0.558044 0.684982
vt 0.575485 0.674767
vt 0.575272 0.686485
vt 0.565720 0.696274
vt 0.575485 0.658051
vt 0.568817 0.663902
vt 0.568115 0.659698
vt 0.574570 0.665543
vt 0.572052 0.651657
vt 0.565903 0.655174
vt 0.565063 0.664742
vt 0.563416 0.661980
vt 0.560669 0.658463
vt 0.560364 0.665283
vt 0.556488 0.662933
vt 0.552032 0.660286
vt 0.548294 0.668175
vt 0.563522 0.651588
vt 0.557617 0.654999
vt 0.551163 0.688484
vt 0.556610 0.699394
vt 0.547867 0.678001
vt 0.568756 0.648293
vt 0.604446 0.682632
vt 0.626221 0.687675
vt 0.604553 0.688225
vt 0.626144 0.682457
vt 0.604553 0.671455
vt 0.626144 0.677231
vt 0.604446 0.677048
vt 0.626221 0.672005
vt 0.605011 0.660294
vt 0.626404 0.666786
vt 0.604736 0.665871
vt 0.626663 0.661568
vt 0.626404 0.692902
vt 0.604736 0.693810
vt 0.626663 0.698120
vt 0.605011 0.699394
s 0
usemtl decorations
f 240/1/1 239/2/1 238/3/1
f 237/1/1 236/4/1 235/2/1
f 234/5/1 233/4/1 232/1/1
f 231/5/1 230/6/1 229/4/1
f 228/6/1 227/5/1 226/7/1
s 1
f 225/8/2 224/9/3 223/10/4
f 222/11/5 221/9/6 220/8/2
f 219/11/7 218/12/8 217/9/3
f 216/13/9 215/12/8 214/11/7
f 213/12/10 212/13/11 211/14/12
f 210/15/13 209/11/7 208/16/14
f 207/15/13 206/13/15 205/11/16
f 204/17/17 203/18/18 202/19/19
f 201/17/20 200/16/21 199/18/22
f 198/20/23 197/19/24 196/21/25
f 195/20/23 194/17/20 193/19/26
f 192/19/19 191/22/27 190/23/28
f 189/19/19 188/18/18 187/22/27
f 186/21/29 185/23/28 184/24/30
f 183/21/29 3/19/26 182/23/28
f 181/23/31 180/25/32 179/26/33
f 178/23/28 177/22/34 176/25/35
f 175/24/36 174/26/33 173/27/37
f 172/24/36 4/23/31 171/26/33
f 170/28/33 169/29/38 168/30/39
f 167/28/33 166/31/32 165/29/40
f 164/32/41 163/30/39 162/33/42
f 161/32/41 13/28/33 160/30/39
f 159/30/39 158/34/43 157/35/44
f 156/30/39 155/29/45 154/34/43
f 153/33/42 152/35/44 151/36/46
f 150/33/42 14/30/39 149/35/44
f 148/35/47 147/15/48 146/37/49
f 145/35/47 144/34/50 143/15/51
f 142/36/52 141/37/49 140/38/53
f 139/36/52 16/35/44 138/37/49
f 137/37/49 136/16/14 135/17/20
f 134/37/49 133/15/51 132/16/14
f 131/38/54 130/17/20 129/20/55
f 128/38/54 36/37/49 25/17/20
f 127/39/56 126/20/57 125/40/58
f 124/39/59 123/38/60 122/20/57
f 121/41/61 120/36/46 119/42/62
f 118/41/61 117/33/42 116/36/46
f 115/43/63 114/27/37 113/44/64
f 112/43/63 111/24/30 110/27/37
f 109/40/65 108/21/66 107/45/67
f 106/40/65 40/20/23 105/21/66
f 104/42/62 103/38/60 102/39/68
f 101/42/62 41/36/46 42/38/60
f 100/46/64 99/33/42 98/41/61
f 97/46/64 37/32/41 38/33/42
f 96/45/69 95/24/30 94/43/63
f 93/45/69 33/21/25 34/24/30
f 92/29/45 91/14/70 90/34/43
f 89/29/45 88/12/10 87/14/12
f 86/22/27 85/9/3 84/25/35
f 83/22/27 82/10/4 81/9/71
f 80/16/21 79/8/2 78/18/22
f 29/16/21 30/11/5 77/8/2
f 76/31/72 75/12/10 28/29/40
f 31/31/32 26/9/71 27/12/10
f 74/18/18 73/10/4 24/22/27
f 21/18/18 22/8/2 23/10/4
f 72/34/43 71/13/9 20/15/51
f 17/34/43 18/14/12 19/13/15
f 70/47/73 69/48/74 68/49/75
f 67/47/76 66/50/58 65/48/69
f 64/51/77 63/52/56 62/53/78
f 61/51/77 60/54/62 59/52/68
f 58/55/79 57/56/61 56/57/80
f 55/55/81 54/58/64 53/56/61
f 52/49/75 51/59/82 50/60/83
f 2/49/84 32/48/69 49/59/63
f 48/53/78 47/50/65 12/47/73
f 9/53/85 10/52/59 11/50/58
f 46/57/86 45/54/62 8/51/77
f 5/57/86 6/56/61 7/54/62
f 44/60/87 43/61/88 15/62/81
f 1/60/87 35/59/63 39/61/88
