# Blender 5.0.0
# www.blender.org
mtllib Circle_002_Circle_Dupli_87_decorations_0.mtl
o Circle.002|Circle|Dupli|87_decorations_0
v -4.383042 1.360587 0.823686
v -4.383672 1.360370 0.824927
v -4.386720 1.367603 0.824980
v -4.385822 1.367911 0.823209
v -4.380710 1.361328 0.824358
v -4.382472 1.366499 0.824458
v -4.382523 1.366469 0.825773
v -4.380764 1.361295 0.825765
v -4.381845 1.360938 0.826594
v -4.383533 1.366135 0.826548
v -4.384743 1.365751 0.826199
v -4.383139 1.360527 0.826221
v -4.383941 1.368519 0.822848
v -4.382494 1.368969 0.824168
v -4.381724 1.361012 0.823433
v -4.382571 1.368922 0.826175
v -4.383379 1.370195 0.825987
v -4.384231 1.370960 0.825688
v -4.385050 1.370690 0.826316
v -4.384634 1.369781 0.826949
v -4.386755 1.369122 0.825014
v -4.386434 1.370260 0.825053
v -4.385957 1.370423 0.824113
v -4.386024 1.369373 0.823573
v -4.385960 1.367827 0.826826
v -4.384958 1.370746 0.823921
v -4.384190 1.370985 0.824622
v -4.383317 1.370233 0.824353
v -4.386137 1.369304 0.826517
v -4.386030 1.370378 0.826034
v -4.384494 1.369867 0.823279
v -4.385241 1.365605 0.824990
v -4.385972 1.366287 0.824978
v -4.385193 1.366554 0.823445
v -4.384652 1.365806 0.823829
v -4.384114 1.368413 0.827358
v -4.383565 1.367080 0.823132
v -4.382313 1.367469 0.824275
v -4.383420 1.366205 0.823593
v -4.385314 1.366481 0.826576
v -4.382380 1.367429 0.826012
v -4.383715 1.366989 0.827036
v -4.383420 1.366205 0.823593
v -4.383042 1.360587 0.823686
v -4.382523 1.366469 0.825773
v -4.380710 1.361328 0.824358
v -4.384743 1.365751 0.826199
v -4.381845 1.360938 0.826594
v -4.384652 1.365806 0.823829
v -4.383042 1.360587 0.823686
v -4.384652 1.365806 0.823829
v -4.383672 1.360370 0.824927
v -4.382472 1.366499 0.824458
v -4.383420 1.366205 0.823593
v -4.381724 1.361012 0.823433
v -4.380710 1.361328 0.824358
v -4.382472 1.366499 0.824458
v -4.381724 1.361012 0.823433
v -4.383533 1.366135 0.826548
v -4.382523 1.366469 0.825773
v -4.380764 1.361295 0.825765
v -4.381845 1.360938 0.826594
v -4.383533 1.366135 0.826548
v -4.380764 1.361295 0.825765
v -4.385241 1.365605 0.824990
v -4.384743 1.365751 0.826199
v -4.383139 1.360527 0.826221
v -4.383672 1.360370 0.824927
v -4.385241 1.365605 0.824990
v -4.383139 1.360527 0.826221
v -4.385050 1.370690 0.826316
v -4.383379 1.370195 0.825987
v -4.385957 1.370423 0.824113
v -4.386755 1.369122 0.825014
v -4.384190 1.370985 0.824622
v -4.384494 1.369867 0.823279
v -4.386434 1.370260 0.825053
v -4.386755 1.369122 0.825014
v -4.386434 1.370260 0.825053
v -4.386137 1.369304 0.826517
v -4.384958 1.370746 0.823921
v -4.385957 1.370423 0.824113
v -4.386024 1.369373 0.823573
v -4.384494 1.369867 0.823279
v -4.384958 1.370746 0.823921
v -4.386024 1.369373 0.823573
v -4.384231 1.370960 0.825688
v -4.384190 1.370985 0.824622
v -4.383317 1.370233 0.824353
v -4.383379 1.370195 0.825987
v -4.384231 1.370960 0.825688
v -4.383317 1.370233 0.824353
v -4.385241 1.365605 0.824990
v -4.384652 1.365806 0.823829
v -4.385193 1.366554 0.823445
v -4.385241 1.365605 0.824990
v -4.383420 1.366205 0.823593
v -4.382472 1.366499 0.824458
v -4.382313 1.367469 0.824275
v -4.383420 1.366205 0.823593
v -4.382523 1.366469 0.825773
v -4.383533 1.366135 0.826548
v -4.383715 1.366989 0.827036
v -4.382523 1.366469 0.825773
v -4.385972 1.366287 0.824978
v -4.384743 1.365751 0.826199
v -4.385241 1.365605 0.824990
v -4.385972 1.366287 0.824978
v -4.384743 1.365751 0.826199
v -4.383565 1.367080 0.823132
v -4.385193 1.366554 0.823445
v -4.384652 1.365806 0.823829
v -4.383420 1.366205 0.823593
v -4.383565 1.367080 0.823132
v -4.384652 1.365806 0.823829
v -4.382380 1.367429 0.826012
v -4.382313 1.367469 0.824275
v -4.382472 1.366499 0.824458
v -4.382523 1.366469 0.825773
v -4.382380 1.367429 0.826012
v -4.382472 1.366499 0.824458
v -4.385314 1.366481 0.826576
v -4.383715 1.366989 0.827036
v -4.383533 1.366135 0.826548
v -4.384743 1.365751 0.826199
v -4.385314 1.366481 0.826576
v -4.383533 1.366135 0.826548
v -4.383715 1.366989 0.827036
v -4.385314 1.366481 0.826576
v -4.385960 1.367827 0.826826
v -4.383715 1.366989 0.827036
v -4.386137 1.369304 0.826517
v -4.384634 1.369781 0.826949
v -4.384114 1.368413 0.827358
v -4.385960 1.367827 0.826826
v -4.386137 1.369304 0.826517
v -4.384114 1.368413 0.827358
v -4.384114 1.368413 0.827358
v -4.382380 1.367429 0.826012
v -4.383715 1.366989 0.827036
v -4.384114 1.368413 0.827358
v -4.382380 1.367429 0.826012
v -4.384634 1.369781 0.826949
v -4.383379 1.370195 0.825987
v -4.382571 1.368922 0.826175
v -4.384114 1.368413 0.827358
v -4.384634 1.369781 0.826949
v -4.382571 1.368922 0.826175
v -4.382571 1.368922 0.826175
v -4.382313 1.367469 0.824275
v -4.382380 1.367429 0.826012
v -4.382571 1.368922 0.826175
v -4.382313 1.367469 0.824275
v -4.383379 1.370195 0.825987
v -4.383317 1.370233 0.824353
v -4.382494 1.368969 0.824168
v -4.382571 1.368922 0.826175
v -4.383379 1.370195 0.825987
v -4.382494 1.368969 0.824168
v -4.382494 1.368969 0.824168
v -4.383565 1.367080 0.823132
v -4.382313 1.367469 0.824275
v -4.382494 1.368969 0.824168
v -4.383565 1.367080 0.823132
v -4.383317 1.370233 0.824353
v -4.384494 1.369867 0.823279
v -4.383941 1.368519 0.822848
v -4.382494 1.368969 0.824168
v -4.383317 1.370233 0.824353
v -4.383941 1.368519 0.822848
v -4.383941 1.368519 0.822848
v -4.385193 1.366554 0.823445
v -4.383565 1.367080 0.823132
v -4.383941 1.368519 0.822848
v -4.385193 1.366554 0.823445
v -4.384494 1.369867 0.823279
v -4.386024 1.369373 0.823573
v -4.385822 1.367911 0.823209
v -4.383941 1.368519 0.822848
v -4.384494 1.369867 0.823279
v -4.385822 1.367911 0.823209
v -4.385822 1.367911 0.823209
v -4.385972 1.366287 0.824978
v -4.385193 1.366554 0.823445
v -4.385822 1.367911 0.823209
v -4.385972 1.366287 0.824978
v -4.386024 1.369373 0.823573
v -4.386755 1.369122 0.825014
v -4.386720 1.367603 0.824980
v -4.385822 1.367911 0.823209
v -4.386024 1.369373 0.823573
v -4.386720 1.367603 0.824980
v -4.386720 1.367603 0.824980
v -4.385960 1.367827 0.826826
v -4.385314 1.366481 0.826576
v -4.385972 1.366287 0.824978
v -4.386720 1.367603 0.824980
v -4.385314 1.366481 0.826576
v -4.386755 1.369122 0.825014
v -4.386137 1.369304 0.826517
v -4.385960 1.367827 0.826826
v -4.386720 1.367603 0.824980
v -4.386755 1.369122 0.825014
v -4.385960 1.367827 0.826826
v -4.386030 1.370378 0.826034
v -4.385050 1.370690 0.826316
v -4.384634 1.369781 0.826949
v -4.386137 1.369304 0.826517
v -4.386030 1.370378 0.826034
v -4.384634 1.369781 0.826949
v -4.384231 1.370960 0.825688
v -4.385050 1.370690 0.826316
v -4.384190 1.370985 0.824622
v -4.386030 1.370378 0.826034
v -4.384190 1.370985 0.824622
v -4.385050 1.370690 0.826316
v -4.384958 1.370746 0.823921
v -4.384190 1.370985 0.824622
v -4.386030 1.370378 0.826034
v -4.386434 1.370260 0.825053
v -4.384958 1.370746 0.823921
v -4.386030 1.370378 0.826034
v -4.385957 1.370423 0.824113
v -4.384958 1.370746 0.823921
v -4.386434 1.370260 0.825053
v -4.380764 1.361295 0.825765
v -4.380710 1.361328 0.824358
v -4.381845 1.360938 0.826594
v -4.383139 1.360527 0.826221
v -4.381845 1.360938 0.826594
v -4.380710 1.361328 0.824358
v -4.381724 1.361012 0.823433
v -4.383139 1.360527 0.826221
v -4.380710 1.361328 0.824358
v -4.383672 1.360370 0.824927
v -4.383139 1.360527 0.826221
v -4.381724 1.361012 0.823433
v -4.383042 1.360587 0.823686
v -4.383672 1.360370 0.824927
v -4.381724 1.361012 0.823433
vn 0.3057 -0.9521 -0.0106
vn -0.7889 0.6143 -0.0159
vn -0.1120 0.8374 -0.5350
vn -0.5701 0.6894 -0.4470
vn -0.6037 0.6688 0.4339
vn -0.7889 0.6143 -0.0158
vn -0.6038 0.6687 0.4338
vn 0.2403 0.9469 -0.2135
vn -0.1541 0.8117 0.5634
vn 0.2215 0.9355 0.2753
vn 0.0344 0.4297 0.9023
vn -0.6038 0.6688 0.4338
vn -0.6936 0.1983 0.6926
vn -0.6342 -0.1723 0.7537
vn -0.9933 0.1102 -0.0354
vn -0.9623 -0.2687 -0.0431
vn -0.6342 -0.1723 0.7538
vn -0.6936 0.1983 0.6925
vn -0.4834 -0.5174 0.7061
vn -0.9622 -0.2687 -0.0432
vn -0.7925 -0.6083 -0.0446
vn -0.6390 0.2318 -0.7335
vn -0.5744 -0.1357 -0.8072
vn -0.9933 0.1102 -0.0355
vn -0.6390 0.2317 -0.7335
vn -0.7925 -0.6083 -0.0447
vn -0.5745 -0.1357 -0.8072
vn -0.4272 -0.4829 -0.7644
vn 0.1026 0.4713 -0.8760
vn 0.2373 0.1266 -0.9632
vn 0.1025 0.4714 -0.8759
vn -0.4271 -0.4830 -0.7644
vn 0.3375 -0.2358 -0.9113
vn 0.2373 0.1266 -0.9631
vn 0.6729 0.6487 -0.3556
vn 0.8616 0.3207 -0.3935
vn 0.1026 0.4714 -0.8760
vn 0.3376 -0.2359 -0.9113
vn 0.9256 -0.0530 -0.3747
vn 0.3376 -0.2358 -0.9113
vn 0.8615 0.3207 -0.3936
vn 0.6426 0.6302 0.4358
vn 0.8284 0.3004 0.4728
vn 0.6729 0.6487 -0.3555
vn 0.9257 -0.0530 -0.3746
vn 0.8944 -0.0721 0.4414
vn 0.0345 0.4297 0.9023
vn 0.1627 0.0810 0.9833
vn 0.6426 0.6301 0.4359
vn 0.8944 -0.0722 0.4415
vn 0.2673 -0.2788 0.9224
vn 0.8944 -0.0721 0.4415
vn 0.1627 0.0810 0.9834
vn -0.6936 0.1984 0.6926
vn -0.4835 -0.5174 0.7061
vn 0.2481 -0.2052 0.9467
vn -0.5216 -0.4499 0.7249
vn 0.9233 0.0264 -0.3833
vn 0.8912 0.0067 0.4535
vn -0.4639 -0.4145 -0.7829
vn 0.3202 -0.1611 -0.9335
vn -0.4271 -0.4829 -0.7644
vn -0.5216 -0.4498 0.7249
vn -0.8385 -0.5431 -0.0448
vn 0.8912 0.0068 0.4535
vn 0.2482 -0.2052 0.9467
vn 0.3202 -0.1611 -0.9336
vn 0.9233 0.0263 -0.3833
vn -0.8385 -0.5430 -0.0448
vn 0.6730 0.6487 -0.3555
vn 0.2402 0.9469 -0.2135
vn 0.2215 0.9355 0.2754
vn -0.6389 0.2318 -0.7335
vn 0.1025 0.4714 -0.8760
vn -0.1120 0.8374 -0.5349
vn -0.6037 0.6687 0.4339
vn 0.1026 0.4714 -0.8759
vn -0.9933 0.1101 -0.0355
vn -0.7889 0.6144 -0.0158
vn 0.6426 0.6302 0.4359
vn -0.6289 -0.1900 0.7539
vn -0.9571 -0.2865 -0.0433
vn -0.6289 -0.1899 0.7539
vn 0.8345 0.2829 0.4729
vn 0.1685 0.0635 0.9837
vn 0.8344 0.2830 0.4729
vn 0.8912 0.0067 0.4536
vn 0.2431 0.1091 -0.9638
vn 0.9233 0.0264 -0.3832
vn 0.8677 0.3033 -0.3940
vn 0.3202 -0.1612 -0.9335
vn -0.9571 -0.2865 -0.0434
vn -0.5691 -0.1534 -0.8078
vn -0.9571 -0.2864 -0.0434
vn 0.1684 0.0634 0.9837
vn -0.5217 -0.4499 0.7249
vn -0.6289 -0.1900 0.7540
vn 0.1684 0.0635 0.9837
vn 0.8677 0.3032 -0.3939
vn 0.8912 0.0068 0.4536
vn 0.8345 0.2830 0.4728
vn 0.8677 0.3033 -0.3939
vn 0.2431 0.1091 -0.9639
vn -0.4639 -0.4146 -0.7829
vt 0.543243 0.611839
vt 0.535370 0.618118
vt 0.537796 0.613083
vt 0.537796 0.623154
vt 0.547607 0.615326
vt 0.543243 0.624397
vt 0.547607 0.620918
vt 0.565384 0.671494
vt 0.570206 0.669548
vt 0.567856 0.672157
vt 0.564468 0.669609
vt 0.568146 0.666756
vt 0.564514 0.667854
vt 0.565857 0.666748
vt 0.562897 0.666855
vt 0.562302 0.669838
vt 0.559082 0.669685
vt 0.563492 0.673050
vt 0.560059 0.674789
vt 0.554092 0.669067
vt 0.554398 0.676537
vt 0.567307 0.675606
vt 0.564316 0.680244
vt 0.558044 0.684982
vt 0.575485 0.674767
vt 0.575272 0.686485
vt 0.565720 0.696274
vt 0.575485 0.658051
vt 0.568817 0.663902
vt 0.568115 0.659698
vt 0.574570 0.665543
vt 0.572052 0.651657
vt 0.565903 0.655174
vt 0.565063 0.664742
vt 0.563416 0.661980
vt 0.560669 0.658463
vt 0.560364 0.665283
vt 0.556488 0.662933
vt 0.552032 0.660286
vt 0.548294 0.668175
vt 0.563522 0.651588
vt 0.557617 0.654999
vt 0.551163 0.688484
vt 0.556610 0.699394
vt 0.547867 0.678001
vt 0.568756 0.648293
vt 0.604446 0.682632
vt 0.626221 0.687675
vt 0.604553 0.688225
vt 0.626144 0.682457
vt 0.604553 0.671455
vt 0.626144 0.677231
vt 0.604446 0.677048
vt 0.626221 0.672005
vt 0.605011 0.660294
vt 0.626404 0.666786
vt 0.604736 0.665871
vt 0.626663 0.661568
vt 0.626404 0.692902
vt 0.604736 0.693810
vt 0.626663 0.698120
vt 0.605011 0.699394
s 0
usemtl decorations
f 240/1/1 239/2/1 238/3/1
f 237/1/1 236/4/1 235/2/1
f 234/5/1 233/4/1 232/1/1
f 231/5/1 230/6/1 229/4/1
f 228/6/1 227/5/1 226/7/1
s 1
f 225/8/2 224/9/3 223/10/4
f 222/11/5 221/9/3 220/8/6
f 219/11/7 218/12/8 217/9/3
f 216/13/9 215/12/8 214/11/7
f 213/12/8 212/13/9 211/14/10
f 210/15/11 209/11/12 208/16/13
f 207/15/11 206/13/9 205/11/12
f 204/17/14 203/18/15 202/19/16
f 201/17/17 200/16/18 199/18/15
f 198/20/19 197/19/20 196/21/21
f 195/20/19 194/17/14 193/19/16
f 192/19/16 191/22/22 190/23/23
f 189/19/16 188/18/24 187/22/25
f 186/21/26 185/23/27 184/24/28
f 183/21/21 3/19/16 182/23/27
f 181/23/23 180/25/29 179/26/30
f 178/23/23 177/22/25 176/25/31
f 175/24/32 174/26/30 173/27/33
f 172/24/32 4/23/23 171/26/30
f 170/28/34 169/29/35 168/30/36
f 167/28/34 166/31/37 165/29/35
f 164/32/38 163/30/36 162/33/39
f 161/32/40 13/28/30 160/30/41
f 159/30/36 158/34/42 157/35/43
f 156/30/36 155/29/44 154/34/42
f 153/33/45 152/35/43 151/36/46
f 150/33/45 14/30/36 149/35/43
f 148/35/43 147/15/47 146/37/48
f 145/35/43 144/34/49 143/15/47
f 142/36/50 141/37/48 140/38/51
f 139/36/52 16/35/43 138/37/48
f 137/37/53 136/16/13 135/17/14
f 134/37/48 133/15/11 132/16/54
f 131/38/51 130/17/14 129/20/55
f 128/38/51 36/37/48 25/17/14
f 127/39/56 126/20/19 125/40/57
f 124/39/56 123/38/51 122/20/19
f 121/41/58 120/36/46 119/42/59
f 118/41/58 117/33/39 116/36/46
f 115/43/60 114/27/33 113/44/61
f 112/43/60 111/24/62 110/27/33
f 109/40/63 108/21/21 107/45/64
f 106/40/57 40/20/19 105/21/21
f 104/42/65 103/38/51 102/39/66
f 101/42/65 41/36/46 42/38/51
f 100/46/67 99/33/39 98/41/68
f 97/46/67 37/32/40 38/33/39
f 96/45/69 95/24/62 94/43/60
f 93/45/69 33/21/21 34/24/62
f 92/29/44 91/14/10 90/34/42
f 89/29/70 88/12/71 87/14/72
f 86/22/73 85/9/3 84/25/74
f 83/22/73 82/10/4 81/9/75
f 80/16/18 79/8/6 78/18/15
f 29/16/18 30/11/76 77/8/6
f 76/31/77 75/12/8 28/29/35
f 31/31/77 26/9/75 27/12/71
f 74/18/24 73/10/4 24/22/25
f 21/18/78 22/8/79 23/10/4
f 72/34/80 71/13/9 20/15/11
f 17/34/80 18/14/10 19/13/9
f 70/47/81 69/48/69 68/49/82
f 67/47/83 66/50/57 65/48/69
f 64/51/84 63/52/56 62/53/85
f 61/51/86 60/54/87 59/52/66
f 58/55/88 57/56/89 56/57/90
f 55/55/88 54/58/91 53/56/68
f 52/49/92 51/59/60 50/60/93
f 2/49/94 32/48/69 49/59/60
f 48/53/95 47/50/96 12/47/97
f 9/53/98 10/52/66 11/50/57
f 46/57/99 45/54/100 8/51/101
f 5/57/102 6/56/89 7/54/59
f 44/60/93 43/61/67 15/62/103
f 1/60/93 35/59/104 39/61/67
