# Blender 5.0.0
# www.blender.org
mtllib Circle_005_Circle_004_Dupli_112_decorations_0.mtl
o Circle.005|Circle.004|Dupli|112_decorations_0
v -4.632010 1.908760 0.581398
v -4.632547 1.908203 0.580221
v -4.635087 1.915192 0.577710
v -4.634320 1.915987 0.579389
v -4.633883 1.908439 0.583081
v -4.635921 1.913293 0.581613
v -4.636856 1.912698 0.580902
v -4.634882 1.907803 0.582320
v -4.634851 1.907435 0.580961
v -4.636826 1.912354 0.579631
v -4.635854 1.912520 0.578758
v -4.633811 1.907613 0.580027
v -4.635168 1.916138 0.581204
v -4.636992 1.915530 0.581789
v -4.632605 1.908865 0.582671
v -4.638418 1.914622 0.580703
v -4.638604 1.916016 0.580128
v -4.638423 1.917038 0.579561
v -4.638400 1.916760 0.578532
v -4.638567 1.915589 0.578550
v -4.635893 1.916480 0.577692
v -4.636654 1.917341 0.577972
v -4.636248 1.917764 0.578863
v -4.635270 1.917127 0.579058
v -4.636890 1.914351 0.577432
v -4.636698 1.917844 0.579827
v -4.637666 1.917521 0.580138
v -4.637444 1.916755 0.581012
v -4.637361 1.915796 0.577466
v -4.637612 1.916895 0.577824
v -4.635960 1.917249 0.580535
v -4.634673 1.913072 0.578940
v -4.634713 1.913863 0.578331
v -4.634049 1.914551 0.579784
v -4.634171 1.913592 0.580040
v -4.638372 1.914097 0.578764
v -4.634783 1.914681 0.581355
v -4.636362 1.914155 0.581861
v -4.634726 1.913691 0.581230
v -4.636273 1.913135 0.578090
v -4.637596 1.913369 0.580922
v -4.637557 1.912915 0.579243
v -4.634726 1.913691 0.581230
v -4.632010 1.908760 0.581398
v -4.636856 1.912698 0.580902
v -4.633883 1.908439 0.583081
v -4.635854 1.912520 0.578758
v -4.634851 1.907435 0.580961
v -4.634171 1.913592 0.580040
v -4.632010 1.908760 0.581398
v -4.634171 1.913592 0.580040
v -4.632547 1.908203 0.580221
v -4.635921 1.913293 0.581613
v -4.634726 1.913691 0.581230
v -4.632605 1.908865 0.582671
v -4.633883 1.908439 0.583081
v -4.635921 1.913293 0.581613
v -4.632605 1.908865 0.582671
v -4.636826 1.912354 0.579631
v -4.636856 1.912698 0.580902
v -4.634882 1.907803 0.582320
v -4.634851 1.907435 0.580961
v -4.636826 1.912354 0.579631
v -4.634882 1.907803 0.582320
v -4.634673 1.913072 0.578940
v -4.635854 1.912520 0.578758
v -4.633811 1.907613 0.580027
v -4.632547 1.908203 0.580221
v -4.634673 1.913072 0.578940
v -4.633811 1.907613 0.580027
v -4.638400 1.916760 0.578532
v -4.638604 1.916016 0.580128
v -4.636248 1.917764 0.578863
v -4.635893 1.916480 0.577692
v -4.637666 1.917521 0.580138
v -4.635960 1.917249 0.580535
v -4.636654 1.917341 0.577972
v -4.635893 1.916480 0.577692
v -4.636654 1.917341 0.577972
v -4.637361 1.915796 0.577466
v -4.636698 1.917844 0.579827
v -4.636248 1.917764 0.578863
v -4.635270 1.917127 0.579058
v -4.635960 1.917249 0.580535
v -4.636698 1.917844 0.579827
v -4.635270 1.917127 0.579058
v -4.638423 1.917038 0.579561
v -4.637666 1.917521 0.580138
v -4.637444 1.916755 0.581012
v -4.638604 1.916016 0.580128
v -4.638423 1.917038 0.579561
v -4.637444 1.916755 0.581012
v -4.634673 1.913072 0.578940
v -4.634171 1.913592 0.580040
v -4.634049 1.914551 0.579784
v -4.634673 1.913072 0.578940
v -4.634726 1.913691 0.581230
v -4.635921 1.913293 0.581613
v -4.636362 1.914155 0.581861
v -4.634726 1.913691 0.581230
v -4.636856 1.912698 0.580902
v -4.636826 1.912354 0.579631
v -4.637557 1.912915 0.579243
v -4.636856 1.912698 0.580902
v -4.634713 1.913863 0.578331
v -4.635854 1.912520 0.578758
v -4.634673 1.913072 0.578940
v -4.634713 1.913863 0.578331
v -4.635854 1.912520 0.578758
v -4.634783 1.914681 0.581355
v -4.634049 1.914551 0.579784
v -4.634171 1.913592 0.580040
v -4.634726 1.913691 0.581230
v -4.634783 1.914681 0.581355
v -4.634171 1.913592 0.580040
v -4.637596 1.913369 0.580922
v -4.636362 1.914155 0.581861
v -4.635921 1.913293 0.581613
v -4.636856 1.912698 0.580902
v -4.637596 1.913369 0.580922
v -4.635921 1.913293 0.581613
v -4.636273 1.913135 0.578090
v -4.637557 1.912915 0.579243
v -4.636826 1.912354 0.579631
v -4.635854 1.912520 0.578758
v -4.636273 1.913135 0.578090
v -4.636826 1.912354 0.579631
v -4.637557 1.912915 0.579243
v -4.636273 1.913135 0.578090
v -4.636890 1.914351 0.577432
v -4.637557 1.912915 0.579243
v -4.637361 1.915796 0.577466
v -4.638567 1.915589 0.578550
v -4.638372 1.914097 0.578764
v -4.636890 1.914351 0.577432
v -4.637361 1.915796 0.577466
v -4.638372 1.914097 0.578764
v -4.638372 1.914097 0.578764
v -4.637596 1.913369 0.580922
v -4.637557 1.912915 0.579243
v -4.638372 1.914097 0.578764
v -4.637596 1.913369 0.580922
v -4.638567 1.915589 0.578550
v -4.638604 1.916016 0.580128
v -4.638418 1.914622 0.580703
v -4.638372 1.914097 0.578764
v -4.638567 1.915589 0.578550
v -4.638418 1.914622 0.580703
v -4.638418 1.914622 0.580703
v -4.636362 1.914155 0.581861
v -4.637596 1.913369 0.580922
v -4.638418 1.914622 0.580703
v -4.636362 1.914155 0.581861
v -4.638604 1.916016 0.580128
v -4.637444 1.916755 0.581012
v -4.636992 1.915530 0.581789
v -4.638418 1.914622 0.580703
v -4.638604 1.916016 0.580128
v -4.636992 1.915530 0.581789
v -4.636992 1.915530 0.581789
v -4.634783 1.914681 0.581355
v -4.636362 1.914155 0.581861
v -4.636992 1.915530 0.581789
v -4.634783 1.914681 0.581355
v -4.637444 1.916755 0.581012
v -4.635960 1.917249 0.580535
v -4.635168 1.916138 0.581204
v -4.636992 1.915530 0.581789
v -4.637444 1.916755 0.581012
v -4.635168 1.916138 0.581204
v -4.635168 1.916138 0.581204
v -4.634049 1.914551 0.579784
v -4.634783 1.914681 0.581355
v -4.635168 1.916138 0.581204
v -4.634049 1.914551 0.579784
v -4.635960 1.917249 0.580535
v -4.635270 1.917127 0.579058
v -4.634320 1.915987 0.579389
v -4.635168 1.916138 0.581204
v -4.635960 1.917249 0.580535
v -4.634320 1.915987 0.579389
v -4.634320 1.915987 0.579389
v -4.634713 1.913863 0.578331
v -4.634049 1.914551 0.579784
v -4.634320 1.915987 0.579389
v -4.634713 1.913863 0.578331
v -4.635270 1.917127 0.579058
v -4.635893 1.916480 0.577692
v -4.635087 1.915192 0.577710
v -4.634320 1.915987 0.579389
v -4.635270 1.917127 0.579058
v -4.635087 1.915192 0.577710
v -4.635087 1.915192 0.577710
v -4.636890 1.914351 0.577432
v -4.636273 1.913135 0.578090
v -4.634713 1.913863 0.578331
v -4.635087 1.915192 0.577710
v -4.636273 1.913135 0.578090
v -4.635893 1.916480 0.577692
v -4.637361 1.915796 0.577466
v -4.636890 1.914351 0.577432
v -4.635087 1.915192 0.577710
v -4.635893 1.916480 0.577692
v -4.636890 1.914351 0.577432
v -4.637612 1.916895 0.577824
v -4.638400 1.916760 0.578532
v -4.638567 1.915589 0.578550
v -4.637361 1.915796 0.577466
v -4.637612 1.916895 0.577824
v -4.638567 1.915589 0.578550
v -4.638423 1.917038 0.579561
v -4.638400 1.916760 0.578532
v -4.637666 1.917521 0.580138
v -4.637612 1.916895 0.577824
v -4.637666 1.917521 0.580138
v -4.638400 1.916760 0.578532
v -4.636698 1.917844 0.579827
v -4.637666 1.917521 0.580138
v -4.637612 1.916895 0.577824
v -4.636654 1.917341 0.577972
v -4.636698 1.917844 0.579827
v -4.637612 1.916895 0.577824
v -4.636248 1.917764 0.578863
v -4.636698 1.917844 0.579827
v -4.636654 1.917341 0.577972
v -4.634882 1.907803 0.582320
v -4.633883 1.908439 0.583081
v -4.634851 1.907435 0.580961
v -4.633811 1.907613 0.580027
v -4.634851 1.907435 0.580961
v -4.633883 1.908439 0.583081
v -4.632605 1.908865 0.582671
v -4.633811 1.907613 0.580027
v -4.633883 1.908439 0.583081
v -4.632547 1.908203 0.580221
v -4.633811 1.907613 0.580027
v -4.632605 1.908865 0.582671
v -4.632010 1.908760 0.581398
v -4.632547 1.908203 0.580221
v -4.632605 1.908865 0.582671
vn 0.3774 -0.8916 0.2501
vn 0.0238 0.7513 -0.6595
vn 0.0038 0.9815 0.1914
vn 0.2103 0.9449 -0.2508
vn -0.4155 0.5464 -0.7272
vn 0.0237 0.7513 -0.6596
vn -0.4154 0.5464 -0.7272
vn -0.4403 0.8335 0.3339
vn -0.7765 0.4846 -0.4028
vn -0.7876 0.6123 0.0694
vn -0.9065 -0.0438 -0.4198
vn -0.3221 0.0564 -0.9450
vn -0.1981 -0.3030 -0.9322
vn 0.3890 0.3881 -0.8355
vn 0.5801 0.0602 -0.8123
vn -0.1982 -0.3029 -0.9322
vn -0.3220 0.0564 -0.9450
vn 0.3889 0.3881 -0.8355
vn -0.0459 -0.6180 -0.7849
vn 0.6873 -0.2759 -0.6720
vn -0.0459 -0.6179 -0.7849
vn 0.6911 0.7016 -0.1737
vn 0.9108 0.4033 -0.0879
vn 0.6873 -0.2759 -0.6719
vn 0.9988 0.0474 0.0105
vn 0.3568 0.7608 0.5421
vn 0.5449 0.4682 0.6956
vn 0.3568 0.7608 0.5420
vn 0.9988 0.0473 0.0105
vn 0.5449 0.4681 0.6956
vn 0.6541 0.1085 0.7486
vn 0.5449 0.4681 0.6957
vn -0.3621 0.5212 0.7728
vn -0.2421 0.2059 0.9482
vn 0.6541 0.1084 0.7486
vn -0.2421 0.2058 0.9482
vn -0.0873 -0.1386 0.9865
vn -0.2420 0.2059 0.9482
vn -0.9244 0.1632 0.3447
vn -0.8575 -0.1861 0.4796
vn -0.3622 0.5212 0.7728
vn -0.0873 -0.1387 0.9865
vn -0.6671 -0.5079 0.5451
vn -0.9066 -0.0437 -0.4198
vn -0.8380 -0.4125 -0.3573
vn -0.9244 0.1631 0.3447
vn -0.6671 -0.5079 0.5450
vn -0.6487 -0.7211 -0.2433
vn -0.6486 -0.7212 -0.2433
vn -0.1981 -0.3029 -0.9322
vn -0.8380 -0.4125 -0.3572
vn -0.6971 -0.6639 -0.2707
vn -0.0790 -0.5581 -0.8260
vn -0.6487 -0.7212 -0.2433
vn -0.1215 -0.0666 0.9904
vn -0.6671 -0.5078 0.5451
vn -0.7160 -0.4452 0.5377
vn -0.0872 -0.1387 0.9865
vn 0.9922 0.1242 -0.0104
vn 0.6387 0.1868 0.7464
vn -0.0791 -0.5580 -0.8261
vn 0.6727 -0.2074 -0.7102
vn -0.0791 -0.5580 -0.8260
vn -0.0872 -0.1386 0.9865
vn 0.6728 -0.2073 -0.7102
vn 0.9922 0.1241 -0.0104
vn -0.3622 0.5211 0.7728
vn -0.7875 0.6123 0.0694
vn -0.4403 0.8335 0.3338
vn 0.0038 0.9815 0.1913
vn -0.3220 0.0564 -0.9451
vn 0.0237 0.7513 -0.6595
vn 0.3890 0.3880 -0.8355
vn -0.1913 -0.3196 -0.9281
vn 0.6727 -0.2073 -0.7102
vn 0.5874 0.0437 -0.8081
vn -0.1913 -0.3195 -0.9281
vn -0.0791 -0.5581 -0.8260
vn -0.8510 -0.2027 0.4844
vn -0.8315 -0.4292 -0.3528
vn 0.5521 0.4519 0.7007
vn -0.2352 0.1895 0.9533
vn 0.9183 0.3870 -0.0833
vn 0.5874 0.0438 -0.8081
vn -0.8314 -0.4292 -0.3528
vn -0.0790 -0.5580 -0.8260
vn -0.8510 -0.2027 0.4845
vn 0.5522 0.4519 0.7006
vn 0.9183 0.3871 -0.0833
vn 0.6388 0.1868 0.7464
vt 0.530319 0.635056
vt 0.522446 0.641335
vt 0.524872 0.636299
vt 0.524872 0.646370
vt 0.534683 0.638535
vt 0.530319 0.647614
vt 0.534683 0.644127
vt 0.508789 0.671494
vt 0.513626 0.669548
vt 0.511276 0.672157
vt 0.507889 0.669609
vt 0.511566 0.666756
vt 0.507935 0.667854
vt 0.509277 0.666748
vt 0.506302 0.666855
vt 0.505722 0.669838
vt 0.502487 0.669685
vt 0.506897 0.673050
vt 0.503479 0.674789
vt 0.497520 0.669067
vt 0.497810 0.676537
vt 0.510727 0.675606
vt 0.507721 0.680244
vt 0.501465 0.684982
vt 0.518890 0.674767
vt 0.518692 0.686485
vt 0.509125 0.696274
vt 0.518890 0.658051
vt 0.512238 0.663902
vt 0.511536 0.659698
vt 0.517990 0.665543
vt 0.515472 0.651657
vt 0.509323 0.655174
vt 0.508469 0.664742
vt 0.506836 0.661980
vt 0.504074 0.658463
vt 0.503784 0.665283
vt 0.499901 0.662933
vt 0.495453 0.660286
vt 0.491707 0.668175
vt 0.506927 0.651588
vt 0.501038 0.654999
vt 0.494583 0.688484
vt 0.500031 0.699394
vt 0.491287 0.678001
vt 0.512177 0.648293
vt 0.627350 0.642853
vt 0.649124 0.647896
vt 0.627441 0.648445
vt 0.649033 0.642670
vt 0.627441 0.631676
vt 0.649033 0.637444
vt 0.627350 0.637268
vt 0.649124 0.632225
vt 0.627914 0.620506
vt 0.649292 0.626999
vt 0.627625 0.626091
vt 0.649551 0.621780
vt 0.649292 0.653114
vt 0.627625 0.654030
vt 0.649551 0.658333
vt 0.627914 0.659607
s 0
usemtl decorations
f 240/1/1 239/2/1 238/3/1
f 237/1/1 236/4/1 235/2/1
f 234/5/1 233/4/1 232/1/1
f 231/5/1 230/6/1 229/4/1
f 228/6/1 227/5/1 226/7/1
s 1
f 225/8/2 224/9/3 223/10/4
f 222/11/5 221/9/3 220/8/6
f 219/11/7 218/12/8 217/9/3
f 216/13/9 215/12/8 214/11/7
f 213/12/8 212/13/9 211/14/10
f 210/15/11 209/11/7 208/16/12
f 207/15/11 206/13/9 205/11/5
f 204/17/13 203/18/14 202/19/15
f 201/17/16 200/16/17 199/18/18
f 198/20/19 197/19/15 196/21/20
f 195/20/21 194/17/16 193/19/15
f 192/19/15 191/22/22 190/23/23
f 189/19/15 188/18/14 187/22/22
f 186/21/24 185/23/23 184/24/25
f 183/21/24 3/19/15 182/23/23
f 181/23/23 180/25/26 179/26/27
f 178/23/23 177/22/22 176/25/28
f 175/24/29 174/26/30 173/27/31
f 172/24/29 4/23/23 171/26/30
f 170/28/32 169/29/33 168/30/34
f 167/28/32 166/31/26 165/29/33
f 164/32/35 163/30/36 162/33/37
f 161/32/35 13/28/32 160/30/38
f 159/30/34 158/34/39 157/35/40
f 156/30/34 155/29/41 154/34/39
f 153/33/42 152/35/40 151/36/43
f 150/33/42 14/30/34 149/35/40
f 148/35/40 147/15/44 146/37/45
f 145/35/40 144/34/46 143/15/44
f 142/36/47 141/37/45 140/38/48
f 139/36/47 16/35/40 138/37/45
f 137/37/45 136/16/12 135/17/16
f 134/37/45 133/15/44 132/16/12
f 131/38/49 130/17/50 129/20/21
f 128/38/49 36/37/51 25/17/50
f 127/39/52 126/20/21 125/40/53
f 124/39/52 123/38/54 122/20/21
f 121/41/55 120/36/56 119/42/57
f 118/41/55 117/33/58 116/36/56
f 115/43/59 114/27/31 113/44/60
f 112/43/59 111/24/25 110/27/31
f 109/40/61 108/21/20 107/45/62
f 106/40/63 40/20/19 105/21/20
f 104/42/57 103/38/48 102/39/52
f 101/42/57 41/36/43 42/38/48
f 100/46/60 99/33/64 98/41/55
f 97/46/60 37/32/35 38/33/64
f 96/45/65 95/24/25 94/43/66
f 93/45/65 33/21/20 34/24/25
f 92/29/67 91/14/68 90/34/39
f 89/29/67 88/12/69 87/14/10
f 86/22/22 85/9/3 84/25/28
f 83/22/22 82/10/4 81/9/70
f 80/16/71 79/8/72 78/18/18
f 29/16/71 30/11/5 77/8/72
f 76/31/26 75/12/69 28/29/33
f 31/31/26 26/9/70 27/12/69
f 74/18/14 73/10/4 24/22/22
f 21/18/73 22/8/72 23/10/4
f 72/34/39 71/13/9 20/15/44
f 17/34/46 18/14/10 19/13/9
f 70/47/74 69/48/75 68/49/76
f 67/47/77 66/50/78 65/48/75
f 64/51/79 63/52/52 62/53/80
f 61/51/79 60/54/57 59/52/52
f 58/55/81 57/56/55 56/57/82
f 55/55/81 54/58/60 53/56/55
f 52/49/76 51/59/59 50/60/83
f 2/49/84 32/48/65 49/59/59
f 48/53/85 47/50/86 12/47/74
f 9/53/80 10/52/52 11/50/53
f 46/57/82 45/54/57 8/51/87
f 5/57/82 6/56/55 7/54/57
f 44/60/83 43/61/60 15/62/88
f 1/60/89 35/59/66 39/61/90
