# Blender 5.0.0
# www.blender.org
mtllib Circle_005_Circle_003_Dupli_181_decorations_0.mtl
o Circle.005|Circle.003|Dupli|181_decorations_0
v -4.425958 1.201835 0.807902
v -4.425250 1.200992 0.807024
v -4.431439 1.200264 0.802251
v -4.432449 1.201467 0.803504
v -4.426838 1.200219 0.809649
v -4.431317 1.199494 0.806602
v -4.430858 1.198333 0.806185
v -4.426348 1.198977 0.809202
v -4.425563 1.198700 0.808067
v -4.430124 1.198074 0.805123
v -4.429667 1.198912 0.804216
v -4.425074 1.199597 0.807097
v -4.433458 1.200976 0.805171
v -4.433705 1.199161 0.805997
v -4.426665 1.201491 0.809070
v -4.433005 1.197389 0.805360
v -4.434111 1.197535 0.804328
v -4.434772 1.197921 0.803425
v -4.434176 1.197711 0.802565
v -4.433199 1.197214 0.803009
v -4.432837 1.199875 0.801798
v -4.433939 1.199448 0.801774
v -4.434476 1.200087 0.802440
v -4.433659 1.200854 0.802818
v -4.431188 1.198273 0.802356
v -4.435011 1.199826 0.803325
v -4.435143 1.198862 0.803764
v -4.434680 1.198978 0.804846
v -4.432632 1.198255 0.801883
v -4.433806 1.198391 0.801830
v -4.434479 1.200454 0.804174
v -4.429832 1.200217 0.804148
v -4.430345 1.200321 0.803296
v -4.431219 1.201362 0.804380
v -4.430494 1.201005 0.804969
v -4.431885 1.196994 0.803739
v -4.432092 1.200937 0.805823
v -4.432306 1.199366 0.806538
v -4.431154 1.200683 0.806061
v -4.430127 1.198597 0.803387
v -4.431700 1.197832 0.805987
v -4.430730 1.197490 0.804584
v -4.431154 1.200683 0.806061
v -4.425958 1.201835 0.807902
v -4.430858 1.198333 0.806185
v -4.426838 1.200219 0.809649
v -4.429667 1.198912 0.804216
v -4.425563 1.198700 0.808067
v -4.430494 1.201005 0.804969
v -4.425958 1.201835 0.807902
v -4.430494 1.201005 0.804969
v -4.425250 1.200992 0.807024
v -4.431317 1.199494 0.806602
v -4.431154 1.200683 0.806061
v -4.426665 1.201491 0.809070
v -4.426838 1.200219 0.809649
v -4.431317 1.199494 0.806602
v -4.426665 1.201491 0.809070
v -4.430124 1.198074 0.805123
v -4.430858 1.198333 0.806185
v -4.426348 1.198977 0.809202
v -4.425563 1.198700 0.808067
v -4.430124 1.198074 0.805123
v -4.426348 1.198977 0.809202
v -4.429832 1.200217 0.804148
v -4.429667 1.198912 0.804216
v -4.425074 1.199597 0.807097
v -4.425250 1.200992 0.807024
v -4.429832 1.200217 0.804148
v -4.425074 1.199597 0.807097
v -4.434176 1.197711 0.802565
v -4.434111 1.197535 0.804328
v -4.434476 1.200087 0.802440
v -4.432837 1.199875 0.801798
v -4.435143 1.198862 0.803764
v -4.434479 1.200454 0.804174
v -4.433939 1.199448 0.801774
v -4.432837 1.199875 0.801798
v -4.433939 1.199448 0.801774
v -4.432632 1.198255 0.801883
v -4.435011 1.199826 0.803325
v -4.434476 1.200087 0.802440
v -4.433659 1.200854 0.802818
v -4.434479 1.200454 0.804174
v -4.435011 1.199826 0.803325
v -4.433659 1.200854 0.802818
v -4.434772 1.197921 0.803425
v -4.435143 1.198862 0.803764
v -4.434680 1.198978 0.804846
v -4.434111 1.197535 0.804328
v -4.434772 1.197921 0.803425
v -4.434680 1.198978 0.804846
v -4.429832 1.200217 0.804148
v -4.430494 1.201005 0.804969
v -4.431219 1.201362 0.804380
v -4.429832 1.200217 0.804148
v -4.431154 1.200683 0.806061
v -4.431317 1.199494 0.806602
v -4.432306 1.199366 0.806538
v -4.431154 1.200683 0.806061
v -4.430858 1.198333 0.806185
v -4.430124 1.198074 0.805123
v -4.430730 1.197490 0.804584
v -4.430858 1.198333 0.806185
v -4.430345 1.200321 0.803296
v -4.429667 1.198912 0.804216
v -4.429832 1.200217 0.804148
v -4.430345 1.200321 0.803296
v -4.429667 1.198912 0.804216
v -4.432092 1.200937 0.805823
v -4.431219 1.201362 0.804380
v -4.430494 1.201005 0.804969
v -4.431154 1.200683 0.806061
v -4.432092 1.200937 0.805823
v -4.430494 1.201005 0.804969
v -4.431700 1.197832 0.805987
v -4.432306 1.199366 0.806538
v -4.431317 1.199494 0.806602
v -4.430858 1.198333 0.806185
v -4.431700 1.197832 0.805987
v -4.431317 1.199494 0.806602
v -4.430127 1.198597 0.803387
v -4.430730 1.197490 0.804584
v -4.430124 1.198074 0.805123
v -4.429667 1.198912 0.804216
v -4.430127 1.198597 0.803387
v -4.430124 1.198074 0.805123
v -4.430730 1.197490 0.804584
v -4.430127 1.198597 0.803387
v -4.431188 1.198273 0.802356
v -4.430730 1.197490 0.804584
v -4.432632 1.198255 0.801883
v -4.433199 1.197214 0.803009
v -4.431885 1.196994 0.803739
v -4.431188 1.198273 0.802356
v -4.432632 1.198255 0.801883
v -4.431885 1.196994 0.803739
v -4.431885 1.196994 0.803739
v -4.431700 1.197832 0.805987
v -4.430730 1.197490 0.804584
v -4.431885 1.196994 0.803739
v -4.431700 1.197832 0.805987
v -4.433199 1.197214 0.803009
v -4.434111 1.197535 0.804328
v -4.433005 1.197389 0.805360
v -4.431885 1.196994 0.803739
v -4.433199 1.197214 0.803009
v -4.433005 1.197389 0.805360
v -4.433005 1.197389 0.805360
v -4.432306 1.199366 0.806538
v -4.431700 1.197832 0.805987
v -4.433005 1.197389 0.805360
v -4.432306 1.199366 0.806538
v -4.434111 1.197535 0.804328
v -4.434680 1.198978 0.804846
v -4.433705 1.199161 0.805997
v -4.433005 1.197389 0.805360
v -4.434111 1.197535 0.804328
v -4.433705 1.199161 0.805997
v -4.433705 1.199161 0.805997
v -4.432092 1.200937 0.805823
v -4.432306 1.199366 0.806538
v -4.433705 1.199161 0.805997
v -4.432092 1.200937 0.805823
v -4.434680 1.198978 0.804846
v -4.434479 1.200454 0.804174
v -4.433458 1.200976 0.805171
v -4.433705 1.199161 0.805997
v -4.434680 1.198978 0.804846
v -4.433458 1.200976 0.805171
v -4.433458 1.200976 0.805171
v -4.431219 1.201362 0.804380
v -4.432092 1.200937 0.805823
v -4.433458 1.200976 0.805171
v -4.431219 1.201362 0.804380
v -4.434479 1.200454 0.804174
v -4.433659 1.200854 0.802818
v -4.432449 1.201467 0.803504
v -4.433458 1.200976 0.805171
v -4.434479 1.200454 0.804174
v -4.432449 1.201467 0.803504
v -4.432449 1.201467 0.803504
v -4.430345 1.200321 0.803296
v -4.431219 1.201362 0.804380
v -4.432449 1.201467 0.803504
v -4.430345 1.200321 0.803296
v -4.433659 1.200854 0.802818
v -4.432837 1.199875 0.801798
v -4.431439 1.200264 0.802251
v -4.432449 1.201467 0.803504
v -4.433659 1.200854 0.802818
v -4.431439 1.200264 0.802251
v -4.431439 1.200264 0.802251
v -4.431188 1.198273 0.802356
v -4.430127 1.198597 0.803387
v -4.430345 1.200321 0.803296
v -4.431439 1.200264 0.802251
v -4.430127 1.198597 0.803387
v -4.432837 1.199875 0.801798
v -4.432632 1.198255 0.801883
v -4.431188 1.198273 0.802356
v -4.431439 1.200264 0.802251
v -4.432837 1.199875 0.801798
v -4.431188 1.198273 0.802356
v -4.433806 1.198391 0.801830
v -4.434176 1.197711 0.802565
v -4.433199 1.197214 0.803009
v -4.432632 1.198255 0.801883
v -4.433806 1.198391 0.801830
v -4.433199 1.197214 0.803009
v -4.434772 1.197921 0.803425
v -4.434176 1.197711 0.802565
v -4.435143 1.198862 0.803764
v -4.433806 1.198391 0.801830
v -4.435143 1.198862 0.803764
v -4.434176 1.197711 0.802565
v -4.435011 1.199826 0.803325
v -4.435143 1.198862 0.803764
v -4.433806 1.198391 0.801830
v -4.433939 1.199448 0.801774
v -4.435011 1.199826 0.803325
v -4.433806 1.198391 0.801830
v -4.434476 1.200087 0.802440
v -4.435011 1.199826 0.803325
v -4.433939 1.199448 0.801774
v -4.426348 1.198977 0.809202
v -4.426838 1.200219 0.809649
v -4.425563 1.198700 0.808067
v -4.425074 1.199597 0.807097
v -4.425563 1.198700 0.808067
v -4.426838 1.200219 0.809649
v -4.426665 1.201491 0.809070
v -4.425074 1.199597 0.807097
v -4.426838 1.200219 0.809649
v -4.425250 1.200992 0.807024
v -4.425074 1.199597 0.807097
v -4.426665 1.201491 0.809070
v -4.425958 1.201835 0.807902
v -4.425250 1.200992 0.807024
v -4.426665 1.201491 0.809070
vn 0.8301 0.1332 0.5414
vn -0.4401 0.1449 -0.8862
vn -0.9317 0.3182 -0.1751
vn -0.6861 0.4378 -0.5811
vn -0.3789 -0.3400 -0.8607
vn -0.9317 0.3183 -0.1751
vn -0.4401 0.1448 -0.8862
vn -0.3789 -0.3399 -0.8607
vn -0.9920 -0.1237 0.0260
vn -0.9317 0.3182 -0.1750
vn -0.5487 -0.6516 -0.5238
vn -0.9920 -0.1238 0.0260
vn -0.8215 -0.5554 -0.1292
vn -0.1172 -0.9312 -0.3451
vn -0.3790 -0.3400 -0.8607
vn 0.1576 -0.4268 -0.8905
vn 0.5120 -0.4126 -0.7533
vn 0.0587 0.3582 -0.9318
vn 0.4037 0.4465 -0.7986
vn 0.5120 -0.4127 -0.7534
vn 0.1576 -0.4267 -0.8905
vn 0.0586 0.3581 -0.9318
vn 0.7920 -0.3391 -0.5077
vn 0.6899 0.4703 -0.5504
vn 0.4036 0.4465 -0.7986
vn -0.3396 0.8324 -0.4379
vn -0.0323 0.9656 -0.2579
vn 0.0586 0.3582 -0.9318
vn 0.6899 0.4703 -0.5503
vn 0.2792 0.9594 -0.0410
vn -0.7373 0.6390 0.2195
vn -0.4675 0.7538 0.4616
vn -0.3396 0.8325 -0.4378
vn -0.7373 0.6390 0.2194
vn 0.2793 0.9593 -0.0409
vn -0.1308 0.7598 0.6368
vn 0.2792 0.9593 -0.0409
vn -0.4675 0.7538 0.4617
vn -0.8349 -0.0766 0.5451
vn -0.5744 -0.0294 0.8180
vn -0.7373 0.6389 0.2195
vn -0.8349 -0.0766 0.5450
vn -0.1308 0.7598 0.6369
vn -0.5744 -0.0294 0.8181
vn -0.2315 0.0220 0.9726
vn -0.4676 0.7538 0.4617
vn -0.5744 -0.0293 0.8180
vn -0.5590 -0.7754 0.2938
vn -0.2723 -0.7943 0.5431
vn -0.2314 0.0220 0.9726
vn 0.0531 -0.6986 0.7135
vn -0.2723 -0.7943 0.5430
vn -0.1172 -0.9312 -0.3450
vn 0.2112 -0.9649 -0.1563
vn -0.5589 -0.7754 0.2938
vn -0.1173 -0.9312 -0.3450
vn 0.5085 -0.8593 0.0547
vn 0.2111 -0.9649 -0.1563
vn 0.5086 -0.8593 0.0547
vn 0.7919 -0.3391 -0.5078
vn 0.5120 -0.4126 -0.7534
vn 0.4511 -0.8924 0.0102
vn 0.7417 -0.3590 -0.5666
vn -0.3077 0.0112 0.9514
vn -0.0159 -0.7276 0.6858
vn 0.2159 0.9724 -0.0879
vn -0.2045 0.7678 0.6071
vn 0.2160 0.9724 -0.0879
vn 0.2792 0.9594 -0.0409
vn 0.6371 0.4709 -0.6102
vn -0.0160 -0.7277 0.6858
vn -0.2045 0.7679 0.6071
vn 0.6370 0.4710 -0.6102
vn -0.8349 -0.0767 0.5451
vn -0.3397 0.8324 -0.4378
vn -0.6860 0.4378 -0.5811
vn -0.7373 0.6389 0.2194
vn 0.5276 -0.4104 -0.7438
vn 0.6370 0.4709 -0.6102
vn 0.4192 0.4492 -0.7890
vn 0.7417 -0.3590 -0.5665
vn -0.2571 -0.7923 0.5533
vn 0.2266 -0.9629 -0.1463
vn -0.0159 -0.7277 0.6858
vn -0.4525 0.7567 0.4719
vn -0.5593 -0.0269 0.8285
vn -0.0169 0.9686 -0.2480
vn 0.2266 -0.9629 -0.1464
vn 0.5276 -0.4104 -0.7437
vn -0.0159 -0.7277 0.6857
vn -0.5594 -0.0269 0.8285
vn -0.0170 0.9686 -0.2480
vt 0.530319 0.611839
vt 0.522446 0.618118
vt 0.524872 0.613083
vt 0.524872 0.623154
vt 0.534683 0.615326
vt 0.530319 0.624397
vt 0.534683 0.620918
vt 0.537079 0.671494
vt 0.541916 0.669548
vt 0.539566 0.672157
vt 0.536179 0.669609
vt 0.539856 0.666756
vt 0.536224 0.667854
vt 0.537567 0.666748
vt 0.534592 0.666855
vt 0.534012 0.669838
vt 0.530777 0.669685
vt 0.535187 0.673050
vt 0.531769 0.674789
vt 0.525803 0.669067
vt 0.526108 0.676537
vt 0.539017 0.675606
vt 0.536011 0.680244
vt 0.529755 0.684982
vt 0.547180 0.674767
vt 0.546982 0.686485
vt 0.537415 0.696274
vt 0.547180 0.658051
vt 0.540527 0.663902
vt 0.539825 0.659698
vt 0.546280 0.665543
vt 0.543762 0.651657
vt 0.537613 0.655174
vt 0.536758 0.664742
vt 0.535126 0.661980
vt 0.532364 0.658463
vt 0.532074 0.665283
vt 0.528198 0.662933
vt 0.523743 0.660286
vt 0.519989 0.668175
vt 0.535217 0.651588
vt 0.529327 0.654999
vt 0.522873 0.688484
vt 0.528320 0.699394
vt 0.519577 0.678001
vt 0.540466 0.648293
vt 0.604446 0.642853
vt 0.626221 0.647896
vt 0.604553 0.648445
vt 0.626144 0.642670
vt 0.604553 0.631676
vt 0.626144 0.637444
vt 0.604446 0.637268
vt 0.626221 0.632225
vt 0.605011 0.620506
vt 0.626404 0.626999
vt 0.604736 0.626091
vt 0.626663 0.621780
vt 0.626404 0.653114
vt 0.604736 0.654030
vt 0.626663 0.658333
vt 0.605011 0.659607
s 0
usemtl decorations
f 240/1/1 239/2/1 238/3/1
f 237/1/1 236/4/1 235/2/1
f 234/5/1 233/4/1 232/1/1
f 231/5/1 230/6/1 229/4/1
f 228/6/1 227/5/1 226/7/1
s 1
f 225/8/2 224/9/3 223/10/4
f 222/11/5 221/9/6 220/8/7
f 219/11/8 218/12/9 217/9/10
f 216/13/11 215/12/9 214/11/5
f 213/12/12 212/13/11 211/14/13
f 210/15/14 209/11/15 208/16/16
f 207/15/14 206/13/11 205/11/15
f 204/17/17 203/18/18 202/19/19
f 201/17/20 200/16/21 199/18/22
f 198/20/23 197/19/19 196/21/24
f 195/20/23 194/17/20 193/19/25
f 192/19/19 191/22/26 190/23/27
f 189/19/19 188/18/28 187/22/26
f 186/21/29 185/23/27 184/24/30
f 183/21/29 3/19/19 182/23/27
f 181/23/27 180/25/31 179/26/32
f 178/23/27 177/22/33 176/25/34
f 175/24/35 174/26/32 173/27/36
f 172/24/37 4/23/27 171/26/32
f 170/28/38 169/29/39 168/30/40
f 167/28/38 166/31/41 165/29/42
f 164/32/43 163/30/44 162/33/45
f 161/32/43 13/28/46 160/30/47
f 159/30/44 158/34/48 157/35/49
f 156/30/40 155/29/39 154/34/48
f 153/33/50 152/35/49 151/36/51
f 150/33/50 14/30/44 149/35/49
f 148/35/52 147/15/53 146/37/54
f 145/35/52 144/34/55 143/15/56
f 142/36/51 141/37/54 140/38/57
f 139/36/51 16/35/52 138/37/54
f 137/37/54 136/16/16 135/17/20
f 134/37/58 133/15/14 132/16/16
f 131/38/59 130/17/20 129/20/60
f 128/38/59 36/37/58 25/17/61
f 127/39/62 126/20/60 125/40/63
f 124/39/62 123/38/57 122/20/60
f 121/41/64 120/36/51 119/42/65
f 118/41/64 117/33/50 116/36/51
f 115/43/66 114/27/36 113/44/67
f 112/43/68 111/24/69 110/27/36
f 109/40/63 108/21/24 107/45/70
f 106/40/63 40/20/23 105/21/24
f 104/42/71 103/38/57 102/39/62
f 101/42/65 41/36/51 42/38/57
f 100/46/67 99/33/45 98/41/64
f 97/46/72 37/32/43 38/33/45
f 96/45/73 95/24/30 94/43/68
f 93/45/70 33/21/29 34/24/30
f 92/29/39 91/14/13 90/34/48
f 89/29/74 88/12/9 87/14/13
f 86/22/75 85/9/3 84/25/34
f 83/22/75 82/10/76 81/9/3
f 80/16/21 79/8/7 78/18/22
f 29/16/21 30/11/5 77/8/7
f 76/31/77 75/12/9 28/29/39
f 31/31/41 26/9/3 27/12/9
f 74/18/18 73/10/4 24/22/26
f 21/18/18 22/8/7 23/10/4
f 72/34/48 71/13/11 20/15/14
f 17/34/55 18/14/13 19/13/11
f 70/47/78 69/48/79 68/49/80
f 67/47/78 66/50/81 65/48/70
f 64/51/82 63/52/62 62/53/83
f 61/51/82 60/54/84 59/52/62
f 58/55/85 57/56/64 56/57/86
f 55/55/85 54/58/72 53/56/64
f 52/49/80 51/59/66 50/60/87
f 2/49/80 32/48/70 49/59/68
f 48/53/88 47/50/63 12/47/89
f 9/53/88 10/52/62 11/50/63
f 46/57/86 45/54/90 8/51/82
f 5/57/91 6/56/64 7/54/65
f 44/60/87 43/61/72 15/62/85
f 1/60/92 35/59/68 39/61/72
