# Blender 5.0.0
# www.blender.org
mtllib Circle_002_Circle_001_Dupli_254_decorations_0.mtl
o Circle.002|Circle.001|Dupli|254_decorations_0
v -4.206958 1.042402 0.501260
v -4.208248 1.041845 0.501168
v -4.207898 1.041558 0.493332
v -4.206058 1.042353 0.493462
v -4.207427 1.044894 0.501366
v -4.207213 1.045083 0.495909
v -4.208527 1.045137 0.495848
v -4.208832 1.044952 0.501301
v -4.209751 1.043889 0.501202
v -4.209386 1.044144 0.495755
v -4.209143 1.042851 0.495700
v -4.209491 1.042506 0.501143
v -4.205536 1.044290 0.493588
v -4.206726 1.045908 0.493614
v -4.206593 1.043759 0.501347
v -4.208731 1.045991 0.493522
v -4.208489 1.045671 0.492056
v -4.208181 1.045122 0.491055
v -4.208878 1.044317 0.490979
v -4.209556 1.044437 0.491941
v -4.207811 1.042063 0.491902
v -4.207739 1.042767 0.490954
v -4.206761 1.043190 0.491023
v -4.206314 1.042711 0.492008
v -4.209671 1.042502 0.493296
v -4.206484 1.044218 0.491090
v -4.207116 1.045078 0.491104
v -4.206858 1.045604 0.492131
v -4.209254 1.042832 0.491872
v -4.208681 1.043269 0.490934
v -4.205889 1.044286 0.492110
v -4.207981 1.042233 0.495724
v -4.207958 1.041792 0.494827
v -4.206365 1.042480 0.494940
v -4.206775 1.042754 0.495809
v -4.210042 1.044475 0.493380
v -4.205913 1.044156 0.495048
v -4.206943 1.045558 0.495071
v -4.206433 1.044023 0.495892
v -4.209493 1.042609 0.494795
v -4.208679 1.045629 0.494991
v -4.209814 1.044317 0.494868
v -4.206433 1.044023 0.495892
v -4.206958 1.042402 0.501260
v -4.208527 1.045137 0.495848
v -4.207427 1.044894 0.501366
v -4.209143 1.042851 0.495700
v -4.209751 1.043889 0.501202
v -4.206775 1.042754 0.495809
v -4.206958 1.042402 0.501260
v -4.206775 1.042754 0.495809
v -4.208248 1.041845 0.501168
v -4.207213 1.045083 0.495909
v -4.206433 1.044023 0.495892
v -4.206593 1.043759 0.501347
v -4.207427 1.044894 0.501366
v -4.207213 1.045083 0.495909
v -4.206593 1.043759 0.501347
v -4.209386 1.044144 0.495755
v -4.208527 1.045137 0.495848
v -4.208832 1.044952 0.501301
v -4.209751 1.043889 0.501202
v -4.209386 1.044144 0.495755
v -4.208832 1.044952 0.501301
v -4.207981 1.042233 0.495724
v -4.209143 1.042851 0.495700
v -4.209491 1.042506 0.501143
v -4.208248 1.041845 0.501168
v -4.207981 1.042233 0.495724
v -4.209491 1.042506 0.501143
v -4.208878 1.044317 0.490979
v -4.208489 1.045671 0.492056
v -4.206761 1.043190 0.491023
v -4.207811 1.042063 0.491902
v -4.207116 1.045078 0.491104
v -4.205889 1.044286 0.492110
v -4.207739 1.042767 0.490954
v -4.207811 1.042063 0.491902
v -4.207739 1.042767 0.490954
v -4.209254 1.042832 0.491872
v -4.206484 1.044218 0.491090
v -4.206761 1.043190 0.491023
v -4.206314 1.042711 0.492008
v -4.205889 1.044286 0.492110
v -4.206484 1.044218 0.491090
v -4.206314 1.042711 0.492008
v -4.208181 1.045122 0.491055
v -4.207116 1.045078 0.491104
v -4.206858 1.045604 0.492131
v -4.208489 1.045671 0.492056
v -4.208181 1.045122 0.491055
v -4.206858 1.045604 0.492131
v -4.207981 1.042233 0.495724
v -4.206775 1.042754 0.495809
v -4.206365 1.042480 0.494940
v -4.207981 1.042233 0.495724
v -4.206433 1.044023 0.495892
v -4.207213 1.045083 0.495909
v -4.206943 1.045558 0.495071
v -4.206433 1.044023 0.495892
v -4.208527 1.045137 0.495848
v -4.209386 1.044144 0.495755
v -4.209814 1.044317 0.494868
v -4.208527 1.045137 0.495848
v -4.207958 1.041792 0.494827
v -4.209143 1.042851 0.495700
v -4.207981 1.042233 0.495724
v -4.207958 1.041792 0.494827
v -4.209143 1.042851 0.495700
v -4.205913 1.044156 0.495048
v -4.206365 1.042480 0.494940
v -4.206775 1.042754 0.495809
v -4.206433 1.044023 0.495892
v -4.205913 1.044156 0.495048
v -4.206775 1.042754 0.495809
v -4.208679 1.045629 0.494991
v -4.206943 1.045558 0.495071
v -4.207213 1.045083 0.495909
v -4.208527 1.045137 0.495848
v -4.208679 1.045629 0.494991
v -4.207213 1.045083 0.495909
v -4.209493 1.042609 0.494795
v -4.209814 1.044317 0.494868
v -4.209386 1.044144 0.495755
v -4.209143 1.042851 0.495700
v -4.209493 1.042609 0.494795
v -4.209386 1.044144 0.495755
v -4.209814 1.044317 0.494868
v -4.209493 1.042609 0.494795
v -4.209671 1.042502 0.493296
v -4.209814 1.044317 0.494868
v -4.209254 1.042832 0.491872
v -4.209556 1.044437 0.491941
v -4.210042 1.044475 0.493380
v -4.209671 1.042502 0.493296
v -4.209254 1.042832 0.491872
v -4.210042 1.044475 0.493380
v -4.210042 1.044475 0.493380
v -4.208679 1.045629 0.494991
v -4.209814 1.044317 0.494868
v -4.210042 1.044475 0.493380
v -4.208679 1.045629 0.494991
v -4.209556 1.044437 0.491941
v -4.208489 1.045671 0.492056
v -4.208731 1.045991 0.493522
v -4.210042 1.044475 0.493380
v -4.209556 1.044437 0.491941
v -4.208731 1.045991 0.493522
v -4.208731 1.045991 0.493522
v -4.206943 1.045558 0.495071
v -4.208679 1.045629 0.494991
v -4.208731 1.045991 0.493522
v -4.206943 1.045558 0.495071
v -4.208489 1.045671 0.492056
v -4.206858 1.045604 0.492131
v -4.206726 1.045908 0.493614
v -4.208731 1.045991 0.493522
v -4.208489 1.045671 0.492056
v -4.206726 1.045908 0.493614
v -4.206726 1.045908 0.493614
v -4.205913 1.044156 0.495048
v -4.206943 1.045558 0.495071
v -4.206726 1.045908 0.493614
v -4.205913 1.044156 0.495048
v -4.206858 1.045604 0.492131
v -4.205889 1.044286 0.492110
v -4.205536 1.044290 0.493588
v -4.206726 1.045908 0.493614
v -4.206858 1.045604 0.492131
v -4.205536 1.044290 0.493588
v -4.205536 1.044290 0.493588
v -4.206365 1.042480 0.494940
v -4.205913 1.044156 0.495048
v -4.205536 1.044290 0.493588
v -4.206365 1.042480 0.494940
v -4.205889 1.044286 0.492110
v -4.206314 1.042711 0.492008
v -4.206058 1.042353 0.493462
v -4.205536 1.044290 0.493588
v -4.205889 1.044286 0.492110
v -4.206058 1.042353 0.493462
v -4.206058 1.042353 0.493462
v -4.207958 1.041792 0.494827
v -4.206365 1.042480 0.494940
v -4.206058 1.042353 0.493462
v -4.207958 1.041792 0.494827
v -4.206314 1.042711 0.492008
v -4.207811 1.042063 0.491902
v -4.207898 1.041558 0.493332
v -4.206058 1.042353 0.493462
v -4.206314 1.042711 0.492008
v -4.207898 1.041558 0.493332
v -4.207898 1.041558 0.493332
v -4.209671 1.042502 0.493296
v -4.209493 1.042609 0.494795
v -4.207958 1.041792 0.494827
v -4.207898 1.041558 0.493332
v -4.209493 1.042609 0.494795
v -4.207811 1.042063 0.491902
v -4.209254 1.042832 0.491872
v -4.209671 1.042502 0.493296
v -4.207898 1.041558 0.493332
v -4.207811 1.042063 0.491902
v -4.209671 1.042502 0.493296
v -4.208681 1.043269 0.490934
v -4.208878 1.044317 0.490979
v -4.209556 1.044437 0.491941
v -4.209254 1.042832 0.491872
v -4.208681 1.043269 0.490934
v -4.209556 1.044437 0.491941
v -4.208181 1.045122 0.491055
v -4.208878 1.044317 0.490979
v -4.207116 1.045078 0.491104
v -4.208681 1.043269 0.490934
v -4.207116 1.045078 0.491104
v -4.208878 1.044317 0.490979
v -4.206484 1.044218 0.491090
v -4.207116 1.045078 0.491104
v -4.208681 1.043269 0.490934
v -4.207739 1.042767 0.490954
v -4.206484 1.044218 0.491090
v -4.208681 1.043269 0.490934
v -4.206761 1.043190 0.491023
v -4.206484 1.044218 0.491090
v -4.207739 1.042767 0.490954
v -4.208832 1.044952 0.501301
v -4.207427 1.044894 0.501366
v -4.209751 1.043889 0.501202
v -4.209491 1.042506 0.501143
v -4.209751 1.043889 0.501202
v -4.207427 1.044894 0.501366
v -4.206593 1.043759 0.501347
v -4.209491 1.042506 0.501143
v -4.207427 1.044894 0.501366
v -4.208248 1.041845 0.501168
v -4.209491 1.042506 0.501143
v -4.206593 1.043759 0.501347
v -4.206958 1.042402 0.501260
v -4.208248 1.041845 0.501168
v -4.206593 1.043759 0.501347
vn -0.0482 -0.0517 0.9975
vn 0.0181 -0.5200 -0.8540
vn 0.5933 0.1454 -0.7917
vn 0.4662 -0.3262 -0.8223
vn -0.4138 -0.2900 -0.8629
vn 0.5933 0.1453 -0.7917
vn 0.0180 -0.5200 -0.8540
vn -0.4138 -0.2901 -0.8629
vn 0.3035 0.5396 -0.7853
vn -0.5041 0.1904 -0.8424
vn 0.3036 0.5396 -0.7853
vn -0.1849 0.5596 -0.8079
vn -0.8609 0.2603 -0.4372
vn -0.7147 -0.5175 -0.4705
vn -0.8020 -0.5877 -0.1070
vn -0.0155 -0.8898 -0.4560
vn -0.0367 -0.9952 -0.0913
vn -0.8020 -0.5877 -0.1071
vn -0.7147 -0.5176 -0.4705
vn -0.0156 -0.8898 -0.4560
vn -0.7735 -0.5729 0.2712
vn -0.0367 -0.9952 -0.0912
vn -0.0525 -0.9568 0.2861
vn -0.0367 -0.9951 -0.0913
vn 0.7101 -0.5762 -0.4048
vn 0.7576 -0.6518 -0.0351
vn -0.0525 -0.9567 0.2861
vn 0.6957 -0.6333 0.3390
vn 0.9158 0.1873 -0.3552
vn 0.9828 0.1839 0.0191
vn 0.7101 -0.5761 -0.4047
vn 0.9158 0.1872 -0.3553
vn 0.9079 0.1539 0.3900
vn 0.4467 0.8256 -0.3448
vn 0.4693 0.8825 0.0305
vn 0.4467 0.8255 -0.3449
vn 0.9078 0.1540 0.3901
vn 0.4242 0.8121 0.4007
vn 0.9078 0.1540 0.3900
vn 0.4693 0.8825 0.0304
vn -0.3439 0.8581 -0.3814
vn -0.3962 0.9181 -0.0095
vn 0.4241 0.8121 0.4008
vn -0.3912 0.8456 0.3631
vn -0.3963 0.9181 -0.0094
vn -0.8608 0.2603 -0.4372
vn -0.9620 0.2638 -0.0707
vn -0.3963 0.9181 -0.0095
vn -0.3440 0.8581 -0.3813
vn -0.8608 0.2603 -0.4373
vn -0.3913 0.8456 0.3632
vn -0.9242 0.2293 0.3054
vn -0.3913 0.8456 0.3631
vn -0.9620 0.2637 -0.0707
vn -0.9242 0.2292 0.3055
vn -0.9436 0.2394 0.2287
vn -0.7890 -0.5831 0.1935
vn 0.4390 0.8371 0.3264
vn -0.3971 0.8715 0.2878
vn 0.7175 -0.6450 0.2630
vn 0.9350 0.1622 0.3154
vn 0.7175 -0.6450 0.2631
vn -0.0526 -0.9568 0.2861
vn -0.0498 -0.9767 0.2089
vn 0.4242 0.8121 0.4008
vn -0.0498 -0.9767 0.2088
vn -0.3439 0.8581 -0.3813
vn 0.3035 0.5395 -0.7853
vn -0.1849 0.5596 -0.8078
vn 0.7101 -0.5761 -0.4048
vn 0.4662 -0.3263 -0.8223
vn 0.5933 0.1453 -0.7918
vn -0.7146 -0.5176 -0.4705
vn 0.9158 0.1873 -0.3553
vn -0.0155 -0.8899 -0.4560
vn 0.4663 -0.3262 -0.8223
vn 0.0180 -0.5199 -0.8540
vn -0.3440 0.8580 -0.3814
vn -0.8033 -0.5890 -0.0887
vn -0.0376 -0.9966 -0.0728
vn -0.3974 0.9176 0.0090
vn -0.9634 0.2630 -0.0523
vn -0.3974 0.9176 0.0089
vn 0.9824 0.1831 0.0375
vn 0.4389 0.8371 0.3264
vn 0.4687 0.8820 0.0489
vn 0.7571 -0.6531 -0.0167
vn -0.0376 -0.9966 -0.0729
vn -0.8033 -0.5889 -0.0887
vn -0.3973 0.9176 0.0090
vn 0.9350 0.1622 0.3153
vn 0.9824 0.1830 0.0375
vt 0.543243 0.635056
vt 0.535370 0.641335
vt 0.537796 0.636299
vt 0.537796 0.646370
vt 0.547607 0.638535
vt 0.543243 0.647614
vt 0.547607 0.644127
vt 0.593674 0.671494
vt 0.598511 0.669548
vt 0.596146 0.672157
vt 0.592773 0.669609
vt 0.596436 0.666756
vt 0.592804 0.667854
vt 0.594147 0.666748
vt 0.591187 0.666855
vt 0.590591 0.669838
vt 0.587372 0.669685
vt 0.591782 0.673050
vt 0.588348 0.674789
vt 0.582382 0.669067
vt 0.582687 0.676537
vt 0.595596 0.675606
vt 0.592606 0.680244
vt 0.586334 0.684982
vt 0.603775 0.674767
vt 0.603561 0.686485
vt 0.594009 0.696274
vt 0.603775 0.658051
vt 0.597107 0.663902
vt 0.596405 0.659698
vt 0.602859 0.665543
vt 0.600342 0.651657
vt 0.594193 0.655174
vt 0.593353 0.664742
vt 0.591705 0.661980
vt 0.588959 0.658463
vt 0.588654 0.665283
vt 0.584778 0.662933
vt 0.580322 0.660286
vt 0.576584 0.668175
vt 0.591812 0.651588
vt 0.585907 0.654999
vt 0.579453 0.688484
vt 0.584915 0.699394
vt 0.576157 0.678001
vt 0.597061 0.648293
vt 0.627350 0.682632
vt 0.649124 0.687675
vt 0.627441 0.688225
vt 0.649033 0.682457
vt 0.627441 0.671455
vt 0.649033 0.677231
vt 0.627350 0.677048
vt 0.649124 0.672005
vt 0.627914 0.660294
vt 0.649292 0.666786
vt 0.627625 0.665871
vt 0.649551 0.661568
vt 0.649292 0.692902
vt 0.627625 0.693810
vt 0.649551 0.698120
vt 0.627914 0.699394
s 0
usemtl decorations
f 240/1/1 239/2/1 238/3/1
f 237/1/1 236/4/1 235/2/1
f 234/5/1 233/4/1 232/1/1
f 231/5/1 230/6/1 229/4/1
f 228/6/1 227/5/1 226/7/1
s 1
f 225/8/2 224/9/3 223/10/4
f 222/11/5 221/9/6 220/8/7
f 219/11/8 218/12/9 217/9/3
f 216/13/10 215/12/11 214/11/8
f 213/12/9 212/13/10 211/14/12
f 210/15/13 209/11/8 208/16/14
f 207/15/13 206/13/10 205/11/5
f 204/17/15 203/18/16 202/19/17
f 201/17/18 200/16/19 199/18/20
f 198/20/21 197/19/22 196/21/23
f 195/20/21 194/17/18 193/19/24
f 192/19/22 191/22/25 190/23/26
f 189/19/17 188/18/16 187/22/25
f 186/21/27 185/23/26 184/24/28
f 183/21/23 3/19/22 182/23/26
f 181/23/26 180/25/29 179/26/30
f 178/23/26 177/22/31 176/25/32
f 175/24/28 174/26/30 173/27/33
f 172/24/28 4/23/26 171/26/30
f 170/28/30 169/29/34 168/30/35
f 167/28/30 166/31/29 165/29/36
f 164/32/37 163/30/35 162/33/38
f 161/32/39 13/28/30 160/30/40
f 159/30/35 158/34/41 157/35/42
f 156/30/35 155/29/34 154/34/41
f 153/33/43 152/35/42 151/36/44
f 150/33/43 14/30/35 149/35/42
f 148/35/45 147/15/46 146/37/47
f 145/35/48 144/34/49 143/15/50
f 142/36/51 141/37/47 140/38/52
f 139/36/53 16/35/48 138/37/47
f 137/37/54 136/16/19 135/17/18
f 134/37/47 133/15/13 132/16/14
f 131/38/55 130/17/18 129/20/21
f 128/38/55 36/37/47 25/17/18
f 127/39/56 126/20/21 125/40/57
f 124/39/56 123/38/55 122/20/21
f 121/41/58 120/36/44 119/42/59
f 118/41/58 117/33/43 116/36/44
f 115/43/60 114/27/33 113/44/61
f 112/43/62 111/24/28 110/27/33
f 109/40/57 108/21/63 107/45/64
f 106/40/57 40/20/21 105/21/63
f 104/42/59 103/38/52 102/39/56
f 101/42/59 41/36/44 42/38/52
f 100/46/61 99/33/65 98/41/58
f 97/46/61 37/32/39 38/33/65
f 96/45/66 95/24/28 94/43/62
f 93/45/66 33/21/23 34/24/28
f 92/29/34 91/14/12 90/34/67
f 89/29/34 88/12/68 87/14/69
f 86/22/70 85/9/6 84/25/32
f 83/22/70 82/10/71 81/9/72
f 80/16/73 79/8/2 78/18/20
f 29/16/19 30/11/5 77/8/7
f 76/31/74 75/12/9 28/29/36
f 31/31/74 26/9/72 27/12/9
f 74/18/75 73/10/76 24/22/25
f 21/18/75 22/8/77 23/10/4
f 72/34/78 71/13/10 20/15/50
f 17/34/78 18/14/12 19/13/10
f 70/47/79 69/48/66 68/49/80
f 67/47/79 66/50/57 65/48/66
f 64/51/81 63/52/56 62/53/82
f 61/51/83 60/54/59 59/52/56
f 58/55/84 57/56/85 56/57/86
f 55/55/84 54/58/61 53/56/58
f 52/49/80 51/59/60 50/60/87
f 2/49/88 32/48/66 49/59/60
f 48/53/82 47/50/57 12/47/89
f 9/53/82 10/52/56 11/50/57
f 46/57/86 45/54/59 8/51/90
f 5/57/86 6/56/85 7/54/59
f 44/60/87 43/61/91 15/62/92
f 1/60/87 35/59/62 39/61/61
