# Blender 5.0.0
# www.blender.org
mtllib Circle_005_Circle_004_Dupli_64_decorations_0.mtl
o Circle.005|Circle.004|Dupli|64_decorations_0
v -4.420239 2.128139 0.551702
v -4.421278 2.128188 0.550753
v -4.416811 2.132101 0.545621
v -4.415328 2.132030 0.546975
v -4.420713 2.130158 0.553164
v -4.417630 2.133193 0.549825
v -4.418711 2.133706 0.549275
v -4.421869 2.130707 0.552575
v -4.422585 2.130248 0.551453
v -4.419381 2.133276 0.548226
v -4.419135 2.132229 0.547467
v -4.422323 2.129127 0.550642
v -4.414969 2.133281 0.548506
v -4.416004 2.134912 0.549060
v -4.419988 2.129015 0.552775
v -4.417653 2.135694 0.548221
v -4.416666 2.136162 0.547164
v -4.415868 2.136179 0.546291
v -4.416410 2.135831 0.545441
v -4.417498 2.135629 0.545861
v -4.415980 2.133238 0.545049
v -4.415420 2.134270 0.544911
v -4.414633 2.134233 0.545630
v -4.414774 2.133180 0.546151
v -4.418300 2.133440 0.545462
v -4.414442 2.134897 0.546443
v -4.414992 2.135763 0.546737
v -4.415324 2.135525 0.547847
v -4.417192 2.134327 0.544920
v -4.416211 2.134982 0.544827
v -4.414482 2.134198 0.547396
v -4.418159 2.131351 0.547571
v -4.417658 2.131490 0.546717
v -4.416375 2.131429 0.547889
v -4.417187 2.131305 0.548458
v -4.418675 2.135039 0.546620
v -4.416064 2.132512 0.549214
v -4.416960 2.133923 0.549694
v -4.416952 2.132125 0.549461
v -4.418948 2.132649 0.546580
v -4.418387 2.134600 0.548967
v -4.419272 2.134033 0.547581
v -4.416952 2.132125 0.549461
v -4.420239 2.128139 0.551702
v -4.418711 2.133706 0.549275
v -4.420713 2.130158 0.553164
v -4.419135 2.132229 0.547467
v -4.422585 2.130248 0.551453
v -4.417187 2.131305 0.548458
v -4.420239 2.128139 0.551702
v -4.417187 2.131305 0.548458
v -4.421278 2.128188 0.550753
v -4.417630 2.133193 0.549825
v -4.416952 2.132125 0.549461
v -4.419988 2.129015 0.552775
v -4.420713 2.130158 0.553164
v -4.417630 2.133193 0.549825
v -4.419988 2.129015 0.552775
v -4.419381 2.133276 0.548226
v -4.418711 2.133706 0.549275
v -4.421869 2.130707 0.552575
v -4.422585 2.130248 0.551453
v -4.419381 2.133276 0.548226
v -4.421869 2.130707 0.552575
v -4.418159 2.131351 0.547571
v -4.419135 2.132229 0.547467
v -4.422323 2.129127 0.550642
v -4.421278 2.128188 0.550753
v -4.418159 2.131351 0.547571
v -4.422323 2.129127 0.550642
v -4.416410 2.135831 0.545441
v -4.416666 2.136162 0.547164
v -4.414633 2.134233 0.545630
v -4.415980 2.133238 0.545049
v -4.414992 2.135763 0.546737
v -4.414482 2.134198 0.547396
v -4.415420 2.134270 0.544911
v -4.415980 2.133238 0.545049
v -4.415420 2.134270 0.544911
v -4.417192 2.134327 0.544920
v -4.414442 2.134897 0.546443
v -4.414633 2.134233 0.545630
v -4.414774 2.133180 0.546151
v -4.414482 2.134198 0.547396
v -4.414442 2.134897 0.546443
v -4.414774 2.133180 0.546151
v -4.415868 2.136179 0.546291
v -4.414992 2.135763 0.546737
v -4.415324 2.135525 0.547847
v -4.416666 2.136162 0.547164
v -4.415868 2.136179 0.546291
v -4.415324 2.135525 0.547847
v -4.418159 2.131351 0.547571
v -4.417187 2.131305 0.548458
v -4.416375 2.131429 0.547889
v -4.418159 2.131351 0.547571
v -4.416952 2.132125 0.549461
v -4.417630 2.133193 0.549825
v -4.416960 2.133923 0.549694
v -4.416952 2.132125 0.549461
v -4.418711 2.133706 0.549275
v -4.419381 2.133276 0.548226
v -4.419272 2.134033 0.547581
v -4.418711 2.133706 0.549275
v -4.417658 2.131490 0.546717
v -4.419135 2.132229 0.547467
v -4.418159 2.131351 0.547571
v -4.417658 2.131490 0.546717
v -4.419135 2.132229 0.547467
v -4.416064 2.132512 0.549214
v -4.416375 2.131429 0.547889
v -4.417187 2.131305 0.548458
v -4.416952 2.132125 0.549461
v -4.416064 2.132512 0.549214
v -4.417187 2.131305 0.548458
v -4.418387 2.134600 0.548967
v -4.416960 2.133923 0.549694
v -4.417630 2.133193 0.549825
v -4.418711 2.133706 0.549275
v -4.418387 2.134600 0.548967
v -4.417630 2.133193 0.549825
v -4.418948 2.132649 0.546580
v -4.419272 2.134033 0.547581
v -4.419381 2.133276 0.548226
v -4.419135 2.132229 0.547467
v -4.418948 2.132649 0.546580
v -4.419381 2.133276 0.548226
v -4.419272 2.134033 0.547581
v -4.418948 2.132649 0.546580
v -4.418300 2.133440 0.545462
v -4.419272 2.134033 0.547581
v -4.417192 2.134327 0.544920
v -4.417498 2.135629 0.545861
v -4.418675 2.135039 0.546620
v -4.418300 2.133440 0.545462
v -4.417192 2.134327 0.544920
v -4.418675 2.135039 0.546620
v -4.418675 2.135039 0.546620
v -4.418387 2.134600 0.548967
v -4.419272 2.134033 0.547581
v -4.418675 2.135039 0.546620
v -4.418387 2.134600 0.548967
v -4.417498 2.135629 0.545861
v -4.416666 2.136162 0.547164
v -4.417653 2.135694 0.548221
v -4.418675 2.135039 0.546620
v -4.417498 2.135629 0.545861
v -4.417653 2.135694 0.548221
v -4.417653 2.135694 0.548221
v -4.416960 2.133923 0.549694
v -4.418387 2.134600 0.548967
v -4.417653 2.135694 0.548221
v -4.416960 2.133923 0.549694
v -4.416666 2.136162 0.547164
v -4.415324 2.135525 0.547847
v -4.416004 2.134912 0.549060
v -4.417653 2.135694 0.548221
v -4.416666 2.136162 0.547164
v -4.416004 2.134912 0.549060
v -4.416004 2.134912 0.549060
v -4.416064 2.132512 0.549214
v -4.416960 2.133923 0.549694
v -4.416004 2.134912 0.549060
v -4.416064 2.132512 0.549214
v -4.415324 2.135525 0.547847
v -4.414482 2.134198 0.547396
v -4.414969 2.133281 0.548506
v -4.416004 2.134912 0.549060
v -4.415324 2.135525 0.547847
v -4.414969 2.133281 0.548506
v -4.414969 2.133281 0.548506
v -4.416375 2.131429 0.547889
v -4.416064 2.132512 0.549214
v -4.414969 2.133281 0.548506
v -4.416375 2.131429 0.547889
v -4.414482 2.134198 0.547396
v -4.414774 2.133180 0.546151
v -4.415328 2.132030 0.546975
v -4.414969 2.133281 0.548506
v -4.414482 2.134198 0.547396
v -4.415328 2.132030 0.546975
v -4.415328 2.132030 0.546975
v -4.417658 2.131490 0.546717
v -4.416375 2.131429 0.547889
v -4.415328 2.132030 0.546975
v -4.417658 2.131490 0.546717
v -4.414774 2.133180 0.546151
v -4.415980 2.133238 0.545049
v -4.416811 2.132101 0.545621
v -4.415328 2.132030 0.546975
v -4.414774 2.133180 0.546151
v -4.416811 2.132101 0.545621
v -4.416811 2.132101 0.545621
v -4.418300 2.133440 0.545462
v -4.418948 2.132649 0.546580
v -4.417658 2.131490 0.546717
v -4.416811 2.132101 0.545621
v -4.418948 2.132649 0.546580
v -4.415980 2.133238 0.545049
v -4.417192 2.134327 0.544920
v -4.418300 2.133440 0.545462
v -4.416811 2.132101 0.545621
v -4.415980 2.133238 0.545049
v -4.418300 2.133440 0.545462
v -4.416211 2.134982 0.544827
v -4.416410 2.135831 0.545441
v -4.417498 2.135629 0.545861
v -4.417192 2.134327 0.544920
v -4.416211 2.134982 0.544827
v -4.417498 2.135629 0.545861
v -4.415868 2.136179 0.546291
v -4.416410 2.135831 0.545441
v -4.414992 2.135763 0.546737
v -4.416211 2.134982 0.544827
v -4.414992 2.135763 0.546737
v -4.416410 2.135831 0.545441
v -4.414442 2.134897 0.546443
v -4.414992 2.135763 0.546737
v -4.416211 2.134982 0.544827
v -4.415420 2.134270 0.544911
v -4.414442 2.134897 0.546443
v -4.416211 2.134982 0.544827
v -4.414633 2.134233 0.545630
v -4.414442 2.134897 0.546443
v -4.415420 2.134270 0.544911
v -4.421869 2.130707 0.552575
v -4.420713 2.130158 0.553164
v -4.422585 2.130248 0.551453
v -4.422323 2.129127 0.550642
v -4.422585 2.130248 0.551453
v -4.420713 2.130158 0.553164
v -4.419988 2.129015 0.552775
v -4.422323 2.129127 0.550642
v -4.420713 2.130158 0.553164
v -4.421278 2.128188 0.550753
v -4.422323 2.129127 0.550642
v -4.419988 2.129015 0.552775
v -4.420239 2.128139 0.551702
v -4.421278 2.128188 0.550753
v -4.419988 2.129015 0.552775
vn -0.5711 -0.5649 0.5956
vn 0.4740 0.0562 -0.8787
vn 0.9224 0.3438 -0.1761
vn 0.8349 0.0390 -0.5489
vn 0.1111 0.3824 -0.9173
vn 0.9224 0.3437 -0.1761
vn 0.4739 0.0563 -0.8788
vn 0.1112 0.3823 -0.9173
vn 0.6704 0.7409 -0.0411
vn 0.0198 0.7718 -0.6355
vn 0.2687 0.9314 -0.2456
vn -0.4984 0.7249 -0.4756
vn 0.1112 0.3824 -0.9173
vn -0.3505 0.0944 -0.9318
vn -0.4984 0.7248 -0.4756
vn 0.0199 0.7718 -0.6355
vn -0.6172 -0.1278 -0.7763
vn 0.2368 -0.4336 -0.8694
vn 0.0256 -0.7056 -0.7081
vn -0.6172 -0.1277 -0.7764
vn -0.3505 0.0943 -0.9318
vn -0.7945 -0.3310 -0.5092
vn 0.0257 -0.7057 -0.7081
vn -0.1888 -0.8755 -0.4449
vn -0.7944 -0.3310 -0.5092
vn 0.0257 -0.7056 -0.7081
vn 0.8213 -0.4614 -0.3355
vn 0.6655 -0.7361 -0.1236
vn 0.2368 -0.4337 -0.8694
vn 0.8213 -0.4615 -0.3355
vn -0.1888 -0.8755 -0.4448
vn 0.4139 -0.9042 0.1057
vn 0.9629 0.0318 0.2681
vn 0.8204 -0.1962 0.5371
vn 0.8213 -0.4615 -0.3354
vn 0.4139 -0.9042 0.1058
vn 0.5599 -0.3955 0.7281
vn 0.5549 0.6747 0.4867
vn 0.3739 0.5075 0.7763
vn 0.5549 0.6747 0.4866
vn 0.5598 -0.3955 0.7281
vn 0.3738 0.5075 0.7763
vn 0.1392 0.2675 0.9535
vn -0.0954 0.9832 0.1557
vn -0.3380 0.8452 0.4140
vn 0.3739 0.5076 0.7763
vn 0.1391 0.2674 0.9535
vn -0.5314 0.5855 0.6122
vn -0.7790 0.5625 -0.2770
vn -0.4983 0.7249 -0.4756
vn -0.5315 0.5855 0.6122
vn -0.9469 0.3192 -0.0388
vn -0.7791 0.5624 -0.2770
vn -0.9469 0.3192 -0.0387
vn -0.9226 0.3751 -0.0903
vn -0.7662 -0.2916 -0.5726
vn 0.1911 0.3222 0.9272
vn -0.4965 0.6483 0.5772
vn 0.1911 0.3221 0.9272
vn 0.4728 -0.8792 0.0580
vn 0.6225 -0.3577 0.6961
vn 0.4728 -0.8793 0.0580
vn -0.7662 -0.2915 -0.5727
vn -0.1888 -0.8754 -0.4449
vn -0.1453 -0.8498 -0.5067
vn -0.7662 -0.2915 -0.5726
vn -0.9226 0.3752 -0.0902
vn 0.1392 0.2674 0.9535
vn -0.1452 -0.8498 -0.5067
vn 0.5548 0.6748 0.4867
vn 0.6704 0.7409 -0.0412
vn 0.8213 -0.4614 -0.3354
vn 0.8349 0.0390 -0.5490
vn 0.9224 0.3438 -0.1762
vn 0.4740 0.0563 -0.8788
vn 0.8350 0.0390 -0.5489
vn -0.0954 0.9832 0.1556
vn -0.6281 -0.1383 -0.7658
vn 0.0151 -0.7165 -0.6975
vn -0.6281 -0.1382 -0.7658
vn -0.3488 0.8352 0.4252
vn -0.9226 0.3752 -0.0903
vn -0.7900 0.5523 -0.2661
vn 0.8103 -0.2067 0.5484
vn 0.3635 0.4973 0.7877
vn 0.0151 -0.7165 -0.6974
vn 0.4728 -0.8792 0.0579
vn 0.6552 -0.7470 -0.1127
vn 0.0152 -0.7165 -0.6975
vn 0.4728 -0.8793 0.0579
vn -0.7662 -0.2916 -0.5727
vn -0.7900 0.5523 -0.2662
vn 0.3635 0.4974 0.7877
vn -0.3487 0.8352 0.4252
vn 0.6552 -0.7470 -0.1126
vn 0.6553 -0.7470 -0.1127
vt 0.530319 0.635056
vt 0.522446 0.641335
vt 0.524872 0.636299
vt 0.524872 0.646370
vt 0.534683 0.638535
vt 0.530319 0.647614
vt 0.534683 0.644127
vt 0.508789 0.671494
vt 0.513626 0.669548
vt 0.511276 0.672157
vt 0.507889 0.669609
vt 0.511566 0.666756
vt 0.507935 0.667854
vt 0.509277 0.666748
vt 0.506302 0.666855
vt 0.505722 0.669838
vt 0.502487 0.669685
vt 0.506897 0.673050
vt 0.503479 0.674789
vt 0.497520 0.669067
vt 0.497810 0.676537
vt 0.510727 0.675606
vt 0.507721 0.680244
vt 0.501465 0.684982
vt 0.518890 0.674767
vt 0.518692 0.686485
vt 0.509125 0.696274
vt 0.518890 0.658051
vt 0.512238 0.663902
vt 0.511536 0.659698
vt 0.517990 0.665543
vt 0.515472 0.651657
vt 0.509323 0.655174
vt 0.508469 0.664742
vt 0.506836 0.661980
vt 0.504074 0.658463
vt 0.503784 0.665283
vt 0.499901 0.662933
vt 0.495453 0.660286
vt 0.491707 0.668175
vt 0.506927 0.651588
vt 0.501038 0.654999
vt 0.494583 0.688484
vt 0.500031 0.699394
vt 0.491287 0.678001
vt 0.512177 0.648293
vt 0.627350 0.642853
vt 0.649124 0.647896
vt 0.627441 0.648445
vt 0.649033 0.642670
vt 0.627441 0.631676
vt 0.649033 0.637444
vt 0.627350 0.637268
vt 0.649124 0.632225
vt 0.627914 0.620506
vt 0.649292 0.626999
vt 0.627625 0.626091
vt 0.649551 0.621780
vt 0.649292 0.653114
vt 0.627625 0.654030
vt 0.649551 0.658333
vt 0.627914 0.659607
s 0
usemtl decorations
f 240/1/1 239/2/1 238/3/1
f 237/1/1 236/4/1 235/2/1
f 234/5/1 233/4/1 232/1/1
f 231/5/1 230/6/1 229/4/1
f 228/6/1 227/5/1 226/7/1
s 1
f 225/8/2 224/9/3 223/10/4
f 222/11/5 221/9/6 220/8/7
f 219/11/8 218/12/9 217/9/3
f 216/13/10 215/12/9 214/11/8
f 213/12/9 212/13/10 211/14/11
f 210/15/12 209/11/13 208/16/14
f 207/15/15 206/13/16 205/11/13
f 204/17/17 203/18/18 202/19/19
f 201/17/20 200/16/21 199/18/18
f 198/20/22 197/19/23 196/21/24
f 195/20/25 194/17/20 193/19/26
f 192/19/26 191/22/27 190/23/28
f 189/19/26 188/18/29 187/22/30
f 186/21/31 185/23/28 184/24/32
f 183/21/24 3/19/26 182/23/28
f 181/23/28 180/25/33 179/26/34
f 178/23/28 177/22/35 176/25/33
f 175/24/36 174/26/34 173/27/37
f 172/24/36 4/23/28 171/26/34
f 170/28/34 169/29/38 168/30/39
f 167/28/34 166/31/33 165/29/40
f 164/32/41 163/30/42 162/33/43
f 161/32/41 13/28/34 160/30/39
f 159/30/39 158/34/44 157/35/45
f 156/30/46 155/29/38 154/34/44
f 153/33/47 152/35/45 151/36/48
f 150/33/47 14/30/46 149/35/45
f 148/35/45 147/15/12 146/37/49
f 145/35/45 144/34/44 143/15/50
f 142/36/51 141/37/49 140/38/52
f 139/36/48 16/35/45 138/37/49
f 137/37/53 136/16/14 135/17/20
f 134/37/49 133/15/12 132/16/14
f 131/38/54 130/17/20 129/20/25
f 128/38/52 36/37/49 25/17/20
f 127/39/55 126/20/25 125/40/56
f 124/39/55 123/38/52 122/20/25
f 121/41/57 120/36/48 119/42/58
f 118/41/59 117/33/47 116/36/48
f 115/43/60 114/27/37 113/44/61
f 112/43/62 111/24/36 110/27/37
f 109/40/63 108/21/64 107/45/65
f 106/40/66 40/20/22 105/21/64
f 104/42/58 103/38/52 102/39/67
f 101/42/58 41/36/48 42/38/52
f 100/46/61 99/33/68 98/41/59
f 97/46/61 37/32/41 38/33/68
f 96/45/69 95/24/32 94/43/62
f 93/45/69 33/21/24 34/24/32
f 92/29/70 91/14/11 90/34/44
f 89/29/70 88/12/71 87/14/11
f 86/22/72 85/9/3 84/25/33
f 83/22/72 82/10/73 81/9/74
f 80/16/21 79/8/75 78/18/18
f 29/16/21 30/11/5 77/8/7
f 76/31/33 75/12/71 28/29/40
f 31/31/33 26/9/74 27/12/71
f 74/18/29 73/10/76 24/22/30
f 21/18/29 22/8/7 23/10/4
f 72/34/77 71/13/10 20/15/50
f 17/34/44 18/14/11 19/13/16
f 70/47/78 69/48/69 68/49/79
f 67/47/80 66/50/66 65/48/69
f 64/51/81 63/52/82 62/53/83
f 61/51/81 60/54/58 59/52/67
f 58/55/84 57/56/57 56/57/85
f 55/55/84 54/58/61 53/56/59
f 52/49/86 51/59/87 50/60/88
f 2/49/89 32/48/69 49/59/90
f 48/53/83 47/50/91 12/47/80
f 9/53/92 10/52/82 11/50/56
f 46/57/93 45/54/58 8/51/94
f 5/57/93 6/56/57 7/54/58
f 44/60/95 43/61/61 15/62/84
f 1/60/96 35/59/62 39/61/61
