# Blender 5.0.0
# www.blender.org
mtllib Circle_002_Circle_003_Dupli_249_decorations_0.mtl
o Circle.002|Circle.003|Dupli|249_decorations_0
v -4.638620 1.011461 0.688426
v -4.638906 1.011313 0.687055
v -4.636376 1.018564 0.685435
v -4.635968 1.018775 0.687391
v -4.640844 1.012216 0.689389
v -4.639400 1.017400 0.688442
v -4.640181 1.017436 0.687383
v -4.641679 1.012254 0.688256
v -4.641359 1.011949 0.686918
v -4.639882 1.017151 0.686133
v -4.638728 1.016759 0.685633
v -4.640126 1.011530 0.686384
v -4.637198 1.019349 0.688872
v -4.639140 1.019852 0.688764
v -4.639482 1.011863 0.689465
v -4.640332 1.019907 0.687147
v -4.639551 1.021176 0.686847
v -4.638680 1.021932 0.686584
v -4.638438 1.021701 0.685571
v -4.639180 1.020821 0.685295
v -4.636333 1.020083 0.685454
v -4.636580 1.021219 0.685674
v -4.636363 1.021331 0.686713
v -4.636000 1.020255 0.687045
v -4.638115 1.018874 0.684477
v -4.637016 1.021635 0.687500
v -4.638048 1.021903 0.687442
v -4.638581 1.021131 0.688163
v -4.637748 1.020335 0.684675
v -4.637503 1.021383 0.685166
v -4.637001 1.020722 0.688251
v -4.637589 1.016556 0.686261
v -4.636993 1.017244 0.685845
v -4.636640 1.017426 0.687538
v -4.637321 1.016695 0.687542
v -4.639876 1.019471 0.685240
v -4.637704 1.017923 0.688820
v -4.639386 1.018358 0.688727
v -4.638127 1.017070 0.688513
v -4.638499 1.017512 0.685016
v -4.640417 1.018406 0.687327
v -4.640022 1.018029 0.685676
v -4.638127 1.017070 0.688513
v -4.638620 1.011461 0.688426
v -4.640181 1.017436 0.687383
v -4.640844 1.012216 0.689389
v -4.638728 1.016759 0.685633
v -4.641359 1.011949 0.686918
v -4.637321 1.016695 0.687542
v -4.638620 1.011461 0.688426
v -4.637321 1.016695 0.687542
v -4.638906 1.011313 0.687055
v -4.639400 1.017400 0.688442
v -4.638127 1.017070 0.688513
v -4.639482 1.011863 0.689465
v -4.640844 1.012216 0.689389
v -4.639400 1.017400 0.688442
v -4.639482 1.011863 0.689465
v -4.639882 1.017151 0.686133
v -4.640181 1.017436 0.687383
v -4.641679 1.012254 0.688256
v -4.641359 1.011949 0.686918
v -4.639882 1.017151 0.686133
v -4.641679 1.012254 0.688256
v -4.637589 1.016556 0.686261
v -4.638728 1.016759 0.685633
v -4.640126 1.011530 0.686384
v -4.638906 1.011313 0.687055
v -4.637589 1.016556 0.686261
v -4.640126 1.011530 0.686384
v -4.638438 1.021701 0.685571
v -4.639551 1.021176 0.686847
v -4.636363 1.021331 0.686713
v -4.636333 1.020083 0.685454
v -4.638048 1.021903 0.687442
v -4.637001 1.020722 0.688251
v -4.636580 1.021219 0.685674
v -4.636333 1.020083 0.685454
v -4.636580 1.021219 0.685674
v -4.637748 1.020335 0.684675
v -4.637016 1.021635 0.687500
v -4.636363 1.021331 0.686713
v -4.636000 1.020255 0.687045
v -4.637001 1.020722 0.688251
v -4.637016 1.021635 0.687500
v -4.636000 1.020255 0.687045
v -4.638680 1.021932 0.686584
v -4.638048 1.021903 0.687442
v -4.638581 1.021131 0.688163
v -4.639551 1.021176 0.686847
v -4.638680 1.021932 0.686584
v -4.638581 1.021131 0.688163
v -4.637589 1.016556 0.686261
v -4.637321 1.016695 0.687542
v -4.636640 1.017426 0.687538
v -4.637589 1.016556 0.686261
v -4.638127 1.017070 0.688513
v -4.639400 1.017400 0.688442
v -4.639386 1.018358 0.688727
v -4.638127 1.017070 0.688513
v -4.640181 1.017436 0.687383
v -4.639882 1.017151 0.686133
v -4.640022 1.018029 0.685676
v -4.640181 1.017436 0.687383
v -4.636993 1.017244 0.685845
v -4.638728 1.016759 0.685633
v -4.637589 1.016556 0.686261
v -4.636993 1.017244 0.685845
v -4.638728 1.016759 0.685633
v -4.637704 1.017923 0.688820
v -4.636640 1.017426 0.687538
v -4.637321 1.016695 0.687542
v -4.638127 1.017070 0.688513
v -4.637704 1.017923 0.688820
v -4.637321 1.016695 0.687542
v -4.640417 1.018406 0.687327
v -4.639386 1.018358 0.688727
v -4.639400 1.017400 0.688442
v -4.640181 1.017436 0.687383
v -4.640417 1.018406 0.687327
v -4.639400 1.017400 0.688442
v -4.638499 1.017512 0.685016
v -4.640022 1.018029 0.685676
v -4.639882 1.017151 0.686133
v -4.638728 1.016759 0.685633
v -4.638499 1.017512 0.685016
v -4.639882 1.017151 0.686133
v -4.640022 1.018029 0.685676
v -4.638499 1.017512 0.685016
v -4.638115 1.018874 0.684477
v -4.640022 1.018029 0.685676
v -4.637748 1.020335 0.684675
v -4.639180 1.020821 0.685295
v -4.639876 1.019471 0.685240
v -4.638115 1.018874 0.684477
v -4.637748 1.020335 0.684675
v -4.639876 1.019471 0.685240
v -4.639876 1.019471 0.685240
v -4.640417 1.018406 0.687327
v -4.640022 1.018029 0.685676
v -4.639876 1.019471 0.685240
v -4.640417 1.018406 0.687327
v -4.639180 1.020821 0.685295
v -4.639551 1.021176 0.686847
v -4.640332 1.019907 0.687147
v -4.639876 1.019471 0.685240
v -4.639180 1.020821 0.685295
v -4.640332 1.019907 0.687147
v -4.640332 1.019907 0.687147
v -4.639386 1.018358 0.688727
v -4.640417 1.018406 0.687327
v -4.640332 1.019907 0.687147
v -4.639386 1.018358 0.688727
v -4.639551 1.021176 0.686847
v -4.638581 1.021131 0.688163
v -4.639140 1.019852 0.688764
v -4.640332 1.019907 0.687147
v -4.639551 1.021176 0.686847
v -4.639140 1.019852 0.688764
v -4.639140 1.019852 0.688764
v -4.637704 1.017923 0.688820
v -4.639386 1.018358 0.688727
v -4.639140 1.019852 0.688764
v -4.637704 1.017923 0.688820
v -4.638581 1.021131 0.688163
v -4.637001 1.020722 0.688251
v -4.637198 1.019349 0.688872
v -4.639140 1.019852 0.688764
v -4.638581 1.021131 0.688163
v -4.637198 1.019349 0.688872
v -4.637198 1.019349 0.688872
v -4.636640 1.017426 0.687538
v -4.637704 1.017923 0.688820
v -4.637198 1.019349 0.688872
v -4.636640 1.017426 0.687538
v -4.637001 1.020722 0.688251
v -4.636000 1.020255 0.687045
v -4.635968 1.018775 0.687391
v -4.637198 1.019349 0.688872
v -4.637001 1.020722 0.688251
v -4.635968 1.018775 0.687391
v -4.635968 1.018775 0.687391
v -4.636993 1.017244 0.685845
v -4.636640 1.017426 0.687538
v -4.635968 1.018775 0.687391
v -4.636993 1.017244 0.685845
v -4.636000 1.020255 0.687045
v -4.636333 1.020083 0.685454
v -4.636376 1.018564 0.685435
v -4.635968 1.018775 0.687391
v -4.636000 1.020255 0.687045
v -4.636376 1.018564 0.685435
v -4.636376 1.018564 0.685435
v -4.638115 1.018874 0.684477
v -4.638499 1.017512 0.685016
v -4.636993 1.017244 0.685845
v -4.636376 1.018564 0.685435
v -4.638499 1.017512 0.685016
v -4.636333 1.020083 0.685454
v -4.637748 1.020335 0.684675
v -4.638115 1.018874 0.684477
v -4.636376 1.018564 0.685435
v -4.636333 1.020083 0.685454
v -4.638115 1.018874 0.684477
v -4.637503 1.021383 0.685166
v -4.638438 1.021701 0.685571
v -4.639180 1.020821 0.685295
v -4.637748 1.020335 0.684675
v -4.637503 1.021383 0.685166
v -4.639180 1.020821 0.685295
v -4.638680 1.021932 0.686584
v -4.638438 1.021701 0.685571
v -4.638048 1.021903 0.687442
v -4.637503 1.021383 0.685166
v -4.638048 1.021903 0.687442
v -4.638438 1.021701 0.685571
v -4.637016 1.021635 0.687500
v -4.638048 1.021903 0.687442
v -4.637503 1.021383 0.685166
v -4.636580 1.021219 0.685674
v -4.637016 1.021635 0.687500
v -4.637503 1.021383 0.685166
v -4.636363 1.021331 0.686713
v -4.637016 1.021635 0.687500
v -4.636580 1.021219 0.685674
v -4.641679 1.012254 0.688256
v -4.640844 1.012216 0.689389
v -4.641359 1.011949 0.686918
v -4.640126 1.011530 0.686384
v -4.641359 1.011949 0.686918
v -4.640844 1.012216 0.689389
v -4.639482 1.011863 0.689465
v -4.640126 1.011530 0.686384
v -4.640844 1.012216 0.689389
v -4.638906 1.011313 0.687055
v -4.640126 1.011530 0.686384
v -4.639482 1.011863 0.689465
v -4.638620 1.011461 0.688426
v -4.638906 1.011313 0.687055
v -4.639482 1.011863 0.689465
vn -0.2560 -0.9539 0.1565
vn 0.6419 0.6193 -0.4522
vn 0.4417 0.8104 0.3850
vn 0.7413 0.6707 0.0241
vn 0.2183 0.6947 -0.6854
vn 0.6418 0.6193 -0.4522
vn 0.2184 0.6947 -0.6854
vn -0.0313 0.9330 0.3586
vn -0.2104 0.8402 -0.4998
vn -0.0312 0.9330 0.3586
vn -0.3215 0.9463 -0.0352
vn -0.5785 0.4742 -0.6637
vn 0.1156 0.2387 -0.9642
vn -0.2104 0.8402 -0.4997
vn 0.2183 0.6947 -0.6853
vn 0.0219 -0.1290 -0.9914
vn 0.8013 0.1165 -0.5868
vn 0.7724 -0.2625 -0.5783
vn 0.0218 -0.1289 -0.9914
vn 0.1156 0.2386 -0.9642
vn 0.8013 0.1166 -0.5868
vn -0.0749 -0.4773 -0.8756
vn 0.7725 -0.2626 -0.5783
vn 0.6322 -0.6031 -0.4864
vn 0.0219 -0.1289 -0.9914
vn 0.9623 0.1999 0.1844
vn 0.9487 -0.1713 0.2658
vn 0.8013 0.1165 -0.5867
vn 0.6322 -0.6032 -0.4863
vn 0.7982 -0.5172 0.3088
vn 0.9487 -0.1713 0.2659
vn 0.4774 0.4258 0.7686
vn 0.4178 0.0761 0.9054
vn 0.9623 0.1998 0.1844
vn 0.4774 0.4259 0.7686
vn 0.7982 -0.5172 0.3089
vn 0.2981 -0.2841 0.9113
vn 0.4177 0.0760 0.9054
vn -0.2884 0.6244 0.7260
vn -0.4203 0.2934 0.8586
vn 0.4773 0.4259 0.7686
vn -0.2884 0.6244 0.7259
vn 0.2980 -0.2842 0.9113
vn -0.4204 0.2933 0.8586
vn -0.4915 -0.0794 0.8673
vn -0.4204 0.2934 0.8586
vn -0.7582 0.6459 0.0885
vn -0.9347 0.3169 0.1609
vn -0.7583 0.6459 0.0885
vn -0.4915 -0.0795 0.8672
vn -0.9760 -0.0572 0.2099
vn -0.9347 0.3169 0.1608
vn -0.7379 0.1290 -0.6625
vn -0.5785 0.4743 -0.6637
vn -0.9760 -0.0573 0.2099
vn -0.7907 -0.2342 -0.5657
vn -0.7379 0.1289 -0.6625
vn -0.7906 -0.2343 -0.5657
vn -0.0749 -0.4772 -0.8756
vn -0.7890 -0.1594 -0.5934
vn -0.0551 -0.4085 -0.9111
vn -0.4823 -0.0006 0.8760
vn -0.9791 0.0221 0.2020
vn 0.8402 -0.4495 0.3034
vn 0.3274 -0.2105 0.9212
vn 0.6699 -0.5376 -0.5120
vn -0.9791 0.0222 0.2020
vn -0.7890 -0.1594 -0.5933
vn -0.4915 -0.0795 0.8673
vn 0.3274 -0.2105 0.9211
vn 0.2980 -0.2841 0.9113
vn 0.6700 -0.5376 -0.5120
vn -0.2885 0.6244 0.7259
vn -0.3215 0.9462 -0.0352
vn 0.4417 0.8104 0.3849
vn 0.1157 0.2386 -0.9642
vn 0.0172 -0.1466 -0.9890
vn 0.7681 -0.2803 -0.5757
vn 0.0172 -0.1466 -0.9891
vn -0.9400 0.2994 0.1638
vn -0.7430 0.1114 -0.6599
vn -0.9399 0.2995 0.1638
vn 0.4132 0.0585 0.9088
vn -0.4253 0.2759 0.8620
vn 0.4132 0.0585 0.9087
vn 0.9444 -0.1891 0.2688
vn 0.0171 -0.1466 -0.9890
vn -0.4253 0.2758 0.8620
vn -0.9399 0.2994 0.1638
vn 0.9444 -0.1891 0.2689
vn 0.4133 0.0585 0.9087
vn 0.9444 -0.1890 0.2689
vt 0.530319 0.611839
vt 0.522446 0.618118
vt 0.524872 0.613083
vt 0.524872 0.623154
vt 0.534683 0.615326
vt 0.530319 0.624397
vt 0.534683 0.620918
vt 0.537079 0.671494
vt 0.541916 0.669548
vt 0.539566 0.672157
vt 0.536179 0.669609
vt 0.539856 0.666756
vt 0.536224 0.667854
vt 0.537567 0.666748
vt 0.534592 0.666855
vt 0.534012 0.669838
vt 0.530777 0.669685
vt 0.535187 0.673050
vt 0.531769 0.674789
vt 0.525803 0.669067
vt 0.526108 0.676537
vt 0.539017 0.675606
vt 0.536011 0.680244
vt 0.529755 0.684982
vt 0.547180 0.674767
vt 0.546982 0.686485
vt 0.537415 0.696274
vt 0.547180 0.658051
vt 0.540527 0.663902
vt 0.539825 0.659698
vt 0.546280 0.665543
vt 0.543762 0.651657
vt 0.537613 0.655174
vt 0.536758 0.664742
vt 0.535126 0.661980
vt 0.532364 0.658463
vt 0.532074 0.665283
vt 0.528198 0.662933
vt 0.523743 0.660286
vt 0.519989 0.668175
vt 0.535217 0.651588
vt 0.529327 0.654999
vt 0.522873 0.688484
vt 0.528320 0.699394
vt 0.519577 0.678001
vt 0.540466 0.648293
vt 0.604446 0.642853
vt 0.626221 0.647896
vt 0.604553 0.648445
vt 0.626144 0.642670
vt 0.604553 0.631676
vt 0.626144 0.637444
vt 0.604446 0.637268
vt 0.626221 0.632225
vt 0.605011 0.620506
vt 0.626404 0.626999
vt 0.604736 0.626091
vt 0.626663 0.621780
vt 0.626404 0.653114
vt 0.604736 0.654030
vt 0.626663 0.658333
vt 0.605011 0.659607
s 0
usemtl decorations
f 240/1/1 239/2/1 238/3/1
f 237/1/1 236/4/1 235/2/1
f 234/5/1 233/4/1 232/1/1
f 231/5/1 230/6/1 229/4/1
f 228/6/1 227/5/1 226/7/1
s 1
f 225/8/2 224/9/3 223/10/4
f 222/11/5 221/9/3 220/8/6
f 219/11/7 218/12/8 217/9/3
f 216/13/9 215/12/10 214/11/5
f 213/12/8 212/13/9 211/14/11
f 210/15/12 209/11/5 208/16/13
f 207/15/12 206/13/14 205/11/15
f 204/17/16 203/18/17 202/19/18
f 201/17/19 200/16/20 199/18/21
f 198/20/22 197/19/23 196/21/24
f 195/20/22 194/17/25 193/19/18
f 192/19/18 191/22/26 190/23/27
f 189/19/18 188/18/28 187/22/26
f 186/21/29 185/23/27 184/24/30
f 183/21/29 3/19/18 182/23/27
f 181/23/31 180/25/32 179/26/33
f 178/23/27 177/22/34 176/25/35
f 175/24/36 174/26/33 173/27/37
f 172/24/36 4/23/31 171/26/33
f 170/28/38 169/29/39 168/30/40
f 167/28/38 166/31/41 165/29/42
f 164/32/43 163/30/44 162/33/45
f 161/32/43 13/28/33 160/30/40
f 159/30/46 158/34/47 157/35/48
f 156/30/40 155/29/42 154/34/49
f 153/33/50 152/35/48 151/36/51
f 150/33/50 14/30/46 149/35/48
f 148/35/52 147/15/12 146/37/53
f 145/35/52 144/34/49 143/15/54
f 142/36/55 141/37/53 140/38/56
f 139/36/55 16/35/52 138/37/53
f 137/37/57 136/16/20 135/17/25
f 134/37/53 133/15/12 132/16/13
f 131/38/58 130/17/25 129/20/59
f 128/38/58 36/37/53 25/17/25
f 127/39/60 126/20/59 125/40/61
f 124/39/60 123/38/58 122/20/59
f 121/41/62 120/36/51 119/42/63
f 118/41/62 117/33/50 116/36/51
f 115/43/64 114/27/37 113/44/65
f 112/43/64 111/24/36 110/27/37
f 109/40/61 108/21/24 107/45/66
f 106/40/61 40/20/22 105/21/24
f 104/42/67 103/38/58 102/39/68
f 101/42/63 41/36/55 42/38/58
f 100/46/65 99/33/69 98/41/62
f 97/46/70 37/32/71 38/33/69
f 96/45/72 95/24/30 94/43/64
f 93/45/72 33/21/24 34/24/30
f 92/29/42 91/14/11 90/34/49
f 89/29/73 88/12/10 87/14/74
f 86/22/26 85/9/3 84/25/35
f 83/22/26 82/10/4 81/9/75
f 80/16/76 79/8/2 78/18/21
f 29/16/76 30/11/5 77/8/6
f 76/31/41 75/12/8 28/29/42
f 31/31/41 26/9/75 27/12/10
f 74/18/17 73/10/4 24/22/26
f 21/18/17 22/8/6 23/10/4
f 72/34/49 71/13/9 20/15/12
f 17/34/49 18/14/11 19/13/14
f 70/47/77 69/48/72 68/49/78
f 67/47/79 66/50/61 65/48/66
f 64/51/80 63/52/60 62/53/81
f 61/51/82 60/54/63 59/52/68
f 58/55/83 57/56/62 56/57/84
f 55/55/85 54/58/70 53/56/62
f 52/49/78 51/59/64 50/60/86
f 2/49/78 32/48/66 49/59/64
f 48/53/81 47/50/61 12/47/87
f 9/53/81 10/52/60 11/50/61
f 46/57/88 45/54/63 8/51/89
f 5/57/84 6/56/62 7/54/63
f 44/60/90 43/61/70 15/62/91
f 1/60/92 35/59/64 39/61/70
