# Blender 5.0.0
# www.blender.org
mtllib Circle_005_Circle_004_Dupli_148_decorations_0.mtl
o Circle.005|Circle.004|Dupli|148_decorations_0
v -4.677765 0.791093 0.479306
v -4.676437 0.790658 0.479132
v -4.674922 0.796378 0.473975
v -4.676817 0.796998 0.474223
v -4.679051 0.789651 0.477661
v -4.678226 0.793445 0.473816
v -4.677281 0.792706 0.473274
v -4.678041 0.788860 0.477080
v -4.676658 0.788867 0.477347
v -4.675988 0.792713 0.473523
v -4.675321 0.793461 0.474376
v -4.675944 0.789668 0.478260
v -4.678477 0.796359 0.473289
v -4.678652 0.794941 0.471876
v -4.678929 0.790644 0.478651
v -4.677210 0.793813 0.471048
v -4.676885 0.795102 0.470312
v -4.676554 0.796211 0.470066
v -4.675507 0.796216 0.470268
v -4.675280 0.795111 0.470622
v -4.675023 0.797189 0.472694
v -4.675339 0.797573 0.471620
v -4.676345 0.797902 0.471752
v -4.676565 0.797694 0.472896
v -4.674219 0.794965 0.472731
v -4.677227 0.797563 0.471256
v -4.677320 0.796810 0.470506
v -4.678058 0.796020 0.470986
v -4.674451 0.796040 0.471682
v -4.674965 0.796823 0.470960
v -4.677916 0.797174 0.472136
v -4.675781 0.794387 0.475191
v -4.675332 0.795212 0.474849
v -4.676972 0.795749 0.475064
v -4.677023 0.794793 0.475354
v -4.675238 0.793823 0.471429
v -4.678409 0.795195 0.474256
v -4.678561 0.793968 0.473033
v -4.678111 0.794374 0.474742
v -4.674724 0.793989 0.473773
v -4.677313 0.792992 0.472316
v -4.675605 0.793001 0.472645
v -4.678111 0.794374 0.474742
v -4.677765 0.791093 0.479306
v -4.677281 0.792706 0.473274
v -4.679051 0.789651 0.477661
v -4.675321 0.793461 0.474376
v -4.676658 0.788867 0.477347
v -4.677023 0.794793 0.475354
v -4.677765 0.791093 0.479306
v -4.677023 0.794793 0.475354
v -4.676437 0.790658 0.479132
v -4.678226 0.793445 0.473816
v -4.678111 0.794374 0.474742
v -4.678929 0.790644 0.478651
v -4.679051 0.789651 0.477661
v -4.678226 0.793445 0.473816
v -4.678929 0.790644 0.478651
v -4.675988 0.792713 0.473523
v -4.677281 0.792706 0.473274
v -4.678041 0.788860 0.477080
v -4.676658 0.788867 0.477347
v -4.675988 0.792713 0.473523
v -4.678041 0.788860 0.477080
v -4.675781 0.794387 0.475191
v -4.675321 0.793461 0.474376
v -4.675944 0.789668 0.478260
v -4.676437 0.790658 0.479132
v -4.675781 0.794387 0.475191
v -4.675944 0.789668 0.478260
v -4.675507 0.796216 0.470268
v -4.676885 0.795102 0.470312
v -4.676345 0.797902 0.471752
v -4.675023 0.797189 0.472694
v -4.677320 0.796810 0.470506
v -4.677916 0.797174 0.472136
v -4.675339 0.797573 0.471620
v -4.675023 0.797189 0.472694
v -4.675339 0.797573 0.471620
v -4.674451 0.796040 0.471682
v -4.677227 0.797563 0.471256
v -4.676345 0.797902 0.471752
v -4.676565 0.797694 0.472896
v -4.677916 0.797174 0.472136
v -4.677227 0.797563 0.471256
v -4.676565 0.797694 0.472896
v -4.676554 0.796211 0.470066
v -4.677320 0.796810 0.470506
v -4.678058 0.796020 0.470986
v -4.676885 0.795102 0.470312
v -4.676554 0.796211 0.470066
v -4.678058 0.796020 0.470986
v -4.675781 0.794387 0.475191
v -4.677023 0.794793 0.475354
v -4.676972 0.795749 0.475064
v -4.675781 0.794387 0.475191
v -4.678111 0.794374 0.474742
v -4.678226 0.793445 0.473816
v -4.678561 0.793968 0.473033
v -4.678111 0.794374 0.474742
v -4.677281 0.792706 0.473274
v -4.675988 0.792713 0.473523
v -4.675605 0.793001 0.472645
v -4.677281 0.792706 0.473274
v -4.675332 0.795212 0.474849
v -4.675321 0.793461 0.474376
v -4.675781 0.794387 0.475191
v -4.675332 0.795212 0.474849
v -4.675321 0.793461 0.474376
v -4.678409 0.795195 0.474256
v -4.676972 0.795749 0.475064
v -4.677023 0.794793 0.475354
v -4.678111 0.794374 0.474742
v -4.678409 0.795195 0.474256
v -4.677023 0.794793 0.475354
v -4.677313 0.792992 0.472316
v -4.678561 0.793968 0.473033
v -4.678226 0.793445 0.473816
v -4.677281 0.792706 0.473274
v -4.677313 0.792992 0.472316
v -4.678226 0.793445 0.473816
v -4.674724 0.793989 0.473773
v -4.675605 0.793001 0.472645
v -4.675988 0.792713 0.473523
v -4.675321 0.793461 0.474376
v -4.674724 0.793989 0.473773
v -4.675988 0.792713 0.473523
v -4.675605 0.793001 0.472645
v -4.674724 0.793989 0.473773
v -4.674219 0.794965 0.472731
v -4.675605 0.793001 0.472645
v -4.674451 0.796040 0.471682
v -4.675280 0.795111 0.470622
v -4.675238 0.793823 0.471429
v -4.674219 0.794965 0.472731
v -4.674451 0.796040 0.471682
v -4.675238 0.793823 0.471429
v -4.675238 0.793823 0.471429
v -4.677313 0.792992 0.472316
v -4.675605 0.793001 0.472645
v -4.675238 0.793823 0.471429
v -4.677313 0.792992 0.472316
v -4.675280 0.795111 0.470622
v -4.676885 0.795102 0.470312
v -4.677210 0.793813 0.471048
v -4.675238 0.793823 0.471429
v -4.675280 0.795111 0.470622
v -4.677210 0.793813 0.471048
v -4.677210 0.793813 0.471048
v -4.678561 0.793968 0.473033
v -4.677313 0.792992 0.472316
v -4.677210 0.793813 0.471048
v -4.678561 0.793968 0.473033
v -4.676885 0.795102 0.470312
v -4.678058 0.796020 0.470986
v -4.678652 0.794941 0.471876
v -4.677210 0.793813 0.471048
v -4.676885 0.795102 0.470312
v -4.678652 0.794941 0.471876
v -4.678652 0.794941 0.471876
v -4.678409 0.795195 0.474256
v -4.678561 0.793968 0.473033
v -4.678652 0.794941 0.471876
v -4.678409 0.795195 0.474256
v -4.678058 0.796020 0.470986
v -4.677916 0.797174 0.472136
v -4.678477 0.796359 0.473289
v -4.678652 0.794941 0.471876
v -4.678058 0.796020 0.470986
v -4.678477 0.796359 0.473289
v -4.678477 0.796359 0.473289
v -4.676972 0.795749 0.475064
v -4.678409 0.795195 0.474256
v -4.678477 0.796359 0.473289
v -4.676972 0.795749 0.475064
v -4.677916 0.797174 0.472136
v -4.676565 0.797694 0.472896
v -4.676817 0.796998 0.474223
v -4.678477 0.796359 0.473289
v -4.677916 0.797174 0.472136
v -4.676817 0.796998 0.474223
v -4.676817 0.796998 0.474223
v -4.675332 0.795212 0.474849
v -4.676972 0.795749 0.475064
v -4.676817 0.796998 0.474223
v -4.675332 0.795212 0.474849
v -4.676565 0.797694 0.472896
v -4.675023 0.797189 0.472694
v -4.674922 0.796378 0.473975
v -4.676817 0.796998 0.474223
v -4.676565 0.797694 0.472896
v -4.674922 0.796378 0.473975
v -4.674922 0.796378 0.473975
v -4.674219 0.794965 0.472731
v -4.674724 0.793989 0.473773
v -4.675332 0.795212 0.474849
v -4.674922 0.796378 0.473975
v -4.674724 0.793989 0.473773
v -4.675023 0.797189 0.472694
v -4.674451 0.796040 0.471682
v -4.674219 0.794965 0.472731
v -4.674922 0.796378 0.473975
v -4.675023 0.797189 0.472694
v -4.674219 0.794965 0.472731
v -4.674965 0.796823 0.470960
v -4.675507 0.796216 0.470268
v -4.675280 0.795111 0.470622
v -4.674451 0.796040 0.471682
v -4.674965 0.796823 0.470960
v -4.675280 0.795111 0.470622
v -4.676554 0.796211 0.470066
v -4.675507 0.796216 0.470268
v -4.677320 0.796810 0.470506
v -4.674965 0.796823 0.470960
v -4.677320 0.796810 0.470506
v -4.675507 0.796216 0.470268
v -4.677227 0.797563 0.471256
v -4.677320 0.796810 0.470506
v -4.674965 0.796823 0.470960
v -4.675339 0.797573 0.471620
v -4.677227 0.797563 0.471256
v -4.674965 0.796823 0.470960
v -4.676345 0.797902 0.471752
v -4.677227 0.797563 0.471256
v -4.675339 0.797573 0.471620
v -4.678041 0.788860 0.477080
v -4.679051 0.789651 0.477661
v -4.676658 0.788867 0.477347
v -4.675944 0.789668 0.478260
v -4.676658 0.788867 0.477347
v -4.679051 0.789651 0.477661
v -4.678929 0.790644 0.478651
v -4.675944 0.789668 0.478260
v -4.679051 0.789651 0.477661
v -4.676437 0.790658 0.479132
v -4.675944 0.789668 0.478260
v -4.678929 0.790644 0.478651
v -4.677765 0.791093 0.479306
v -4.676437 0.790658 0.479132
v -4.678929 0.790644 0.478651
vn -0.1332 -0.6913 0.7101
vn 0.4955 0.8273 -0.2645
vn -0.3703 0.8226 -0.4316
vn 0.0341 0.9784 -0.2041
vn 0.6667 0.4832 -0.5675
vn -0.3702 0.8226 -0.4316
vn 0.4955 0.8273 -0.2646
vn 0.6667 0.4833 -0.5674
vn -0.4129 0.4773 -0.7757
vn 0.4187 0.2052 -0.8846
vn 0.6667 0.4832 -0.5674
vn 0.4188 0.2052 -0.8846
vn -0.0617 0.2026 -0.9773
vn 0.5542 -0.3100 -0.7725
vn 0.9556 0.1402 -0.2591
vn 0.9916 -0.1293 0.0069
vn 0.6785 0.6972 0.2313
vn 0.6882 0.4805 0.5436
vn 0.9916 -0.1293 0.0068
vn 0.9557 0.1402 -0.2590
vn 0.8844 -0.3797 0.2714
vn 0.5986 0.1948 0.7770
vn -0.0686 0.9418 0.3292
vn -0.1296 0.7481 0.6508
vn -0.1295 0.7482 0.6507
vn -0.1717 0.4469 0.8779
vn -0.7231 0.6896 -0.0390
vn -0.8460 0.4721 0.2477
vn -0.0687 0.9418 0.3292
vn -0.7231 0.6896 -0.0391
vn -0.1718 0.4469 0.8779
vn -0.8467 0.1869 0.4982
vn -0.8461 0.4721 0.2477
vn -0.7922 0.1306 -0.5961
vn -0.9216 -0.1397 -0.3622
vn -0.8461 0.4721 0.2476
vn -0.7232 0.6896 -0.0390
vn -0.7922 0.1307 -0.5962
vn -0.8467 0.1868 0.4982
vn -0.9216 -0.1397 -0.3621
vn -0.9179 -0.3894 -0.0763
vn -0.8460 0.4721 0.2476
vn -0.2238 -0.3142 -0.9226
vn -0.2994 -0.6267 -0.7195
vn -0.7922 0.1306 -0.5962
vn -0.9179 -0.3895 -0.0763
vn -0.3317 -0.8482 -0.4129
vn -0.2993 -0.6267 -0.7195
vn 0.5541 -0.3100 -0.7726
vn 0.5521 -0.6220 -0.5552
vn -0.2237 -0.3142 -0.9226
vn 0.4704 -0.8438 -0.2582
vn 0.9557 0.1401 -0.2590
vn 0.5521 -0.6220 -0.5553
vn 0.4704 -0.8439 -0.2582
vn 0.8844 -0.3797 0.2713
vn 0.4937 -0.8067 -0.3249
vn 0.9182 -0.3307 0.2181
vn -0.9299 -0.3408 -0.1385
vn -0.3288 -0.8112 -0.4836
vn -0.9299 -0.3408 -0.1384
vn -0.9179 -0.3895 -0.0762
vn -0.1649 0.5169 0.8400
vn -0.8569 0.2502 0.4507
vn 0.9182 -0.3307 0.2180
vn 0.5987 0.1948 0.7770
vn 0.6251 0.2583 0.7365
vn 0.4936 -0.8067 -0.3249
vn -0.3289 -0.8112 -0.4836
vn -0.8569 0.2503 0.4506
vn -0.8569 0.2502 0.4506
vn -0.4128 0.4774 -0.7757
vn -0.0617 0.2025 -0.9773
vn -0.4128 0.4773 -0.7757
vn 0.0340 0.9784 -0.2041
vn 0.6785 0.6972 0.2314
vn 0.9896 -0.1422 0.0200
vn 0.6252 0.2583 0.7365
vn 0.6861 0.4679 0.5570
vn 0.9896 -0.1421 0.0200
vn -0.3019 -0.6398 -0.7067
vn 0.5499 -0.6352 -0.5424
vn -0.3019 -0.6398 -0.7068
vn -0.8490 0.4595 0.2609
vn -0.9246 -0.1525 -0.3492
vn -0.8490 0.4596 0.2609
vn -0.1648 0.5169 0.8400
vn -0.1321 0.7357 0.6643
vn 0.6861 0.4680 0.5570
vn 0.5499 -0.6351 -0.5424
vn -0.9245 -0.1526 -0.3492
vn -0.3020 -0.6398 -0.7067
vn -0.9245 -0.1525 -0.3492
vn -0.1321 0.7358 0.6642
vn -0.1648 0.5169 0.8401
vn -0.8569 0.2503 0.4507
vt 0.530319 0.635056
vt 0.522446 0.641335
vt 0.524872 0.636299
vt 0.524872 0.646370
vt 0.534683 0.638535
vt 0.530319 0.647614
vt 0.534683 0.644127
vt 0.508789 0.671494
vt 0.513626 0.669548
vt 0.511276 0.672157
vt 0.507889 0.669609
vt 0.511566 0.666756
vt 0.507935 0.667854
vt 0.509277 0.666748
vt 0.506302 0.666855
vt 0.505722 0.669838
vt 0.502487 0.669685
vt 0.506897 0.673050
vt 0.503479 0.674789
vt 0.497520 0.669067
vt 0.497810 0.676537
vt 0.510727 0.675606
vt 0.507721 0.680244
vt 0.501465 0.684982
vt 0.518890 0.674767
vt 0.518692 0.686485
vt 0.509125 0.696274
vt 0.518890 0.658051
vt 0.512238 0.663902
vt 0.511536 0.659698
vt 0.517990 0.665543
vt 0.515472 0.651657
vt 0.509323 0.655174
vt 0.508469 0.664742
vt 0.506836 0.661980
vt 0.504074 0.658463
vt 0.503784 0.665283
vt 0.499901 0.662933
vt 0.495453 0.660286
vt 0.491707 0.668175
vt 0.506927 0.651588
vt 0.501038 0.654999
vt 0.494583 0.688484
vt 0.500031 0.699394
vt 0.491287 0.678001
vt 0.512177 0.648293
vt 0.627350 0.642853
vt 0.649124 0.647896
vt 0.627441 0.648445
vt 0.649033 0.642670
vt 0.627441 0.631676
vt 0.649033 0.637444
vt 0.627350 0.637268
vt 0.649124 0.632225
vt 0.627914 0.620506
vt 0.649292 0.626999
vt 0.627625 0.626091
vt 0.649551 0.621780
vt 0.649292 0.653114
vt 0.627625 0.654030
vt 0.649551 0.658333
vt 0.627914 0.659607
s 0
usemtl decorations
f 240/1/1 239/2/1 238/3/1
f 237/1/1 236/4/1 235/2/1
f 234/5/1 233/4/1 232/1/1
f 231/5/1 230/6/1 229/4/1
f 228/6/1 227/5/1 226/7/1
s 1
f 225/8/2 224/9/3 223/10/4
f 222/11/5 221/9/6 220/8/7
f 219/11/8 218/12/9 217/9/3
f 216/13/10 215/12/9 214/11/11
f 213/12/9 212/13/12 211/14/13
f 210/15/14 209/11/8 208/16/15
f 207/15/14 206/13/10 205/11/11
f 204/17/16 203/18/17 202/19/18
f 201/17/19 200/16/20 199/18/17
f 198/20/21 197/19/18 196/21/22
f 195/20/21 194/17/16 193/19/18
f 192/19/18 191/22/23 190/23/24
f 189/19/18 188/18/17 187/22/23
f 186/21/22 185/23/25 184/24/26
f 183/21/22 3/19/18 182/23/25
f 181/23/24 180/25/27 179/26/28
f 178/23/24 177/22/29 176/25/30
f 175/24/31 174/26/28 173/27/32
f 172/24/31 4/23/24 171/26/28
f 170/28/33 169/29/34 168/30/35
f 167/28/36 166/31/37 165/29/38
f 164/32/39 163/30/40 162/33/41
f 161/32/32 13/28/42 160/30/40
f 159/30/35 158/34/43 157/35/44
f 156/30/35 155/29/45 154/34/43
f 153/33/46 152/35/44 151/36/47
f 150/33/46 14/30/35 149/35/44
f 148/35/48 147/15/49 146/37/50
f 145/35/48 144/34/51 143/15/49
f 142/36/47 141/37/50 140/38/52
f 139/36/47 16/35/48 138/37/50
f 137/37/50 136/16/53 135/17/16
f 134/37/54 133/15/49 132/16/15
f 131/38/55 130/17/16 129/20/56
f 128/38/55 36/37/54 25/17/16
f 127/39/57 126/20/56 125/40/58
f 124/39/57 123/38/52 122/20/56
f 121/41/59 120/36/47 119/42/60
f 118/41/61 117/33/62 116/36/47
f 115/43/63 114/27/32 113/44/64
f 112/43/63 111/24/31 110/27/32
f 109/40/65 108/21/66 107/45/67
f 106/40/58 40/20/21 105/21/66
f 104/42/60 103/38/52 102/39/68
f 101/42/69 41/36/47 42/38/52
f 100/46/70 99/33/41 98/41/61
f 97/46/71 37/32/32 38/33/41
f 96/45/67 95/24/31 94/43/63
f 93/45/67 33/21/22 34/24/31
f 92/29/45 91/14/13 90/34/43
f 89/29/45 88/12/72 87/14/73
f 86/22/23 85/9/6 84/25/30
f 83/22/29 82/10/4 81/9/6
f 80/16/20 79/8/7 78/18/17
f 29/16/20 30/11/5 77/8/7
f 76/31/30 75/12/74 28/29/38
f 31/31/30 26/9/6 27/12/72
f 74/18/17 73/10/75 24/22/23
f 21/18/76 22/8/7 23/10/4
f 72/34/51 71/13/10 20/15/49
f 17/34/51 18/14/13 19/13/10
f 70/47/77 69/48/78 68/49/79
f 67/47/80 66/50/58 65/48/78
f 64/51/81 63/52/57 62/53/82
f 61/51/83 60/54/60 59/52/68
f 58/55/84 57/56/59 56/57/85
f 55/55/86 54/58/64 53/56/61
f 52/49/79 51/59/87 50/60/88
f 2/49/89 32/48/67 49/59/87
f 48/53/90 47/50/58 12/47/77
f 9/53/90 10/52/68 11/50/58
f 46/57/91 45/54/60 8/51/92
f 5/57/93 6/56/61 7/54/60
f 44/60/88 43/61/70 15/62/86
f 1/60/94 35/59/95 39/61/96
