# Blender 5.0.0
# www.blender.org
mtllib Circle_002_Circle_003_Dupli_97_decorations_0.mtl
o Circle.002|Circle.003|Dupli|97_decorations_0
v -4.326370 1.426170 0.489885
v -4.325829 1.425866 0.491149
v -4.326456 1.433315 0.493542
v -4.327227 1.433749 0.491738
v -4.324303 1.426569 0.488468
v -4.324448 1.431843 0.489889
v -4.323465 1.431651 0.490744
v -4.323251 1.426363 0.489382
v -4.323328 1.426021 0.490746
v -4.323537 1.431332 0.492019
v -4.324609 1.431125 0.492754
v -4.324475 1.425800 0.491532
v -4.326258 1.434195 0.490035
v -4.324278 1.434318 0.489716
v -4.325690 1.426483 0.488691
v -4.322778 1.434025 0.491021
v -4.323207 1.435390 0.491532
v -4.323832 1.436273 0.492011
v -4.323890 1.436014 0.493045
v -4.323296 1.434993 0.493116
v -4.326200 1.434813 0.493583
v -4.325785 1.435896 0.493350
v -4.326195 1.436126 0.492392
v -4.326827 1.435165 0.492116
v -4.324524 1.433221 0.494088
v -4.325680 1.436363 0.491488
v -4.324628 1.436428 0.491319
v -4.324428 1.435629 0.490470
v -4.324628 1.434736 0.494029
v -4.324759 1.435846 0.493641
v -4.326038 1.435529 0.490730
v -4.325874 1.431186 0.492396
v -4.326217 1.431938 0.492958
v -4.326885 1.432314 0.491397
v -4.326380 1.431470 0.491214
v -4.322888 1.433537 0.492966
v -4.326046 1.432700 0.489923
v -4.324332 1.432806 0.489647
v -4.325745 1.431763 0.490098
v -4.324545 1.431857 0.493432
v -4.323034 1.432553 0.490776
v -4.323129 1.432130 0.492461
v -4.325745 1.431763 0.490098
v -4.326370 1.426170 0.489885
v -4.323465 1.431651 0.490744
v -4.324303 1.426569 0.488468
v -4.324609 1.431125 0.492754
v -4.323328 1.426021 0.490746
v -4.326380 1.431470 0.491214
v -4.326370 1.426170 0.489885
v -4.326380 1.431470 0.491214
v -4.325829 1.425866 0.491149
v -4.324448 1.431843 0.489889
v -4.325745 1.431763 0.490098
v -4.325690 1.426483 0.488691
v -4.324303 1.426569 0.488468
v -4.324448 1.431843 0.489889
v -4.325690 1.426483 0.488691
v -4.323537 1.431332 0.492019
v -4.323465 1.431651 0.490744
v -4.323251 1.426363 0.489382
v -4.323328 1.426021 0.490746
v -4.323537 1.431332 0.492019
v -4.323251 1.426363 0.489382
v -4.325874 1.431186 0.492396
v -4.324609 1.431125 0.492754
v -4.324475 1.425800 0.491532
v -4.325829 1.425866 0.491149
v -4.325874 1.431186 0.492396
v -4.324475 1.425800 0.491532
v -4.323890 1.436014 0.493045
v -4.323207 1.435390 0.491532
v -4.326195 1.436126 0.492392
v -4.326200 1.434813 0.493583
v -4.324628 1.436428 0.491319
v -4.326038 1.435529 0.490730
v -4.325785 1.435896 0.493350
v -4.326200 1.434813 0.493583
v -4.325785 1.435896 0.493350
v -4.324628 1.434736 0.494029
v -4.325680 1.436363 0.491488
v -4.326195 1.436126 0.492392
v -4.326827 1.435165 0.492116
v -4.326038 1.435529 0.490730
v -4.325680 1.436363 0.491488
v -4.326827 1.435165 0.492116
v -4.323832 1.436273 0.492011
v -4.324628 1.436428 0.491319
v -4.324428 1.435629 0.490470
v -4.323207 1.435390 0.491532
v -4.323832 1.436273 0.492011
v -4.324428 1.435629 0.490470
v -4.325874 1.431186 0.492396
v -4.326380 1.431470 0.491214
v -4.326885 1.432314 0.491397
v -4.325874 1.431186 0.492396
v -4.325745 1.431763 0.490098
v -4.324448 1.431843 0.489889
v -4.324332 1.432806 0.489647
v -4.325745 1.431763 0.490098
v -4.323465 1.431651 0.490744
v -4.323537 1.431332 0.492019
v -4.323129 1.432130 0.492461
v -4.323465 1.431651 0.490744
v -4.326217 1.431938 0.492958
v -4.324609 1.431125 0.492754
v -4.325874 1.431186 0.492396
v -4.326217 1.431938 0.492958
v -4.324609 1.431125 0.492754
v -4.326046 1.432700 0.489923
v -4.326885 1.432314 0.491397
v -4.326380 1.431470 0.491214
v -4.325745 1.431763 0.490098
v -4.326046 1.432700 0.489923
v -4.326380 1.431470 0.491214
v -4.323034 1.432553 0.490776
v -4.324332 1.432806 0.489647
v -4.324448 1.431843 0.489889
v -4.323465 1.431651 0.490744
v -4.323034 1.432553 0.490776
v -4.324448 1.431843 0.489889
v -4.324545 1.431857 0.493432
v -4.323129 1.432130 0.492461
v -4.323537 1.431332 0.492019
v -4.324609 1.431125 0.492754
v -4.324545 1.431857 0.493432
v -4.323537 1.431332 0.492019
v -4.323129 1.432130 0.492461
v -4.324545 1.431857 0.493432
v -4.324524 1.433221 0.494088
v -4.323129 1.432130 0.492461
v -4.324628 1.434736 0.494029
v -4.323296 1.434993 0.493116
v -4.322888 1.433537 0.492966
v -4.324524 1.433221 0.494088
v -4.324628 1.434736 0.494029
v -4.322888 1.433537 0.492966
v -4.322888 1.433537 0.492966
v -4.323034 1.432553 0.490776
v -4.323129 1.432130 0.492461
v -4.322888 1.433537 0.492966
v -4.323034 1.432553 0.490776
v -4.323296 1.434993 0.493116
v -4.323207 1.435390 0.491532
v -4.322778 1.434025 0.491021
v -4.322888 1.433537 0.492966
v -4.323296 1.434993 0.493116
v -4.322778 1.434025 0.491021
v -4.322778 1.434025 0.491021
v -4.324332 1.432806 0.489647
v -4.323034 1.432553 0.490776
v -4.322778 1.434025 0.491021
v -4.324332 1.432806 0.489647
v -4.323207 1.435390 0.491532
v -4.324428 1.435629 0.490470
v -4.324278 1.434318 0.489716
v -4.322778 1.434025 0.491021
v -4.323207 1.435390 0.491532
v -4.324278 1.434318 0.489716
v -4.324278 1.434318 0.489716
v -4.326046 1.432700 0.489923
v -4.324332 1.432806 0.489647
v -4.324278 1.434318 0.489716
v -4.326046 1.432700 0.489923
v -4.324428 1.435629 0.490470
v -4.326038 1.435529 0.490730
v -4.326258 1.434195 0.490035
v -4.324278 1.434318 0.489716
v -4.324428 1.435629 0.490470
v -4.326258 1.434195 0.490035
v -4.326258 1.434195 0.490035
v -4.326885 1.432314 0.491397
v -4.326046 1.432700 0.489923
v -4.326258 1.434195 0.490035
v -4.326885 1.432314 0.491397
v -4.326038 1.435529 0.490730
v -4.326827 1.435165 0.492116
v -4.327227 1.433749 0.491738
v -4.326258 1.434195 0.490035
v -4.326038 1.435529 0.490730
v -4.327227 1.433749 0.491738
v -4.327227 1.433749 0.491738
v -4.326217 1.431938 0.492958
v -4.326885 1.432314 0.491397
v -4.327227 1.433749 0.491738
v -4.326217 1.431938 0.492958
v -4.326827 1.435165 0.492116
v -4.326200 1.434813 0.493583
v -4.326456 1.433315 0.493542
v -4.327227 1.433749 0.491738
v -4.326827 1.435165 0.492116
v -4.326456 1.433315 0.493542
v -4.326456 1.433315 0.493542
v -4.324524 1.433221 0.494088
v -4.324545 1.431857 0.493432
v -4.326217 1.431938 0.492958
v -4.326456 1.433315 0.493542
v -4.324545 1.431857 0.493432
v -4.326200 1.434813 0.493583
v -4.324628 1.434736 0.494029
v -4.324524 1.433221 0.494088
v -4.326456 1.433315 0.493542
v -4.326200 1.434813 0.493583
v -4.324524 1.433221 0.494088
v -4.324759 1.435846 0.493641
v -4.323890 1.436014 0.493045
v -4.323296 1.434993 0.493116
v -4.324628 1.434736 0.494029
v -4.324759 1.435846 0.493641
v -4.323296 1.434993 0.493116
v -4.323832 1.436273 0.492011
v -4.323890 1.436014 0.493045
v -4.324628 1.436428 0.491319
v -4.324759 1.435846 0.493641
v -4.324628 1.436428 0.491319
v -4.323890 1.436014 0.493045
v -4.325680 1.436363 0.491488
v -4.324628 1.436428 0.491319
v -4.324759 1.435846 0.493641
v -4.325785 1.435896 0.493350
v -4.325680 1.436363 0.491488
v -4.324759 1.435846 0.493641
v -4.326195 1.436126 0.492392
v -4.325680 1.436363 0.491488
v -4.325785 1.435896 0.493350
v -4.323251 1.426363 0.489382
v -4.324303 1.426569 0.488468
v -4.323328 1.426021 0.490746
v -4.324475 1.425800 0.491532
v -4.323328 1.426021 0.490746
v -4.324303 1.426569 0.488468
v -4.325690 1.426483 0.488691
v -4.324475 1.425800 0.491532
v -4.324303 1.426569 0.488468
v -4.325829 1.425866 0.491149
v -4.324475 1.425800 0.491532
v -4.325690 1.426483 0.488691
v -4.326370 1.426170 0.489885
v -4.325829 1.425866 0.491149
v -4.325690 1.426483 0.488691
vn 0.0212 -0.9700 -0.2421
vn -0.3926 0.6914 0.6065
vn -0.3444 0.9056 -0.2475
vn -0.5804 0.7969 0.1672
vn 0.0778 0.6684 0.7397
vn -0.3444 0.9056 -0.2474
vn 0.0777 0.6684 0.7397
vn 0.1378 0.9356 -0.3252
vn 0.4763 0.7454 0.4665
vn 0.5030 0.8642 -0.0074
vn 0.7908 0.3057 0.5303
vn 0.1455 0.1812 0.9726
vn 0.0777 0.6685 0.7397
vn 0.1680 -0.1984 0.9656
vn -0.6159 0.2183 0.7570
vn -0.6654 -0.1577 0.7296
vn 0.1455 0.1811 0.9726
vn -0.6158 0.2184 0.7570
vn 0.1661 -0.5487 0.8193
vn -0.6655 -0.1577 0.7296
vn -0.6190 -0.5103 0.5970
vn -0.6654 -0.1576 0.7296
vn -0.9200 0.3892 0.0458
vn -0.9984 0.0294 -0.0489
vn -0.6190 -0.5104 0.5969
vn -0.9326 -0.3341 -0.1364
vn -0.6190 -0.5104 0.5970
vn -0.5379 0.5651 -0.6255
vn -0.5801 0.2219 -0.7837
vn -0.9200 0.3892 0.0457
vn -0.5379 0.5652 -0.6255
vn -0.9326 -0.3342 -0.1364
vn -0.5386 -0.1527 -0.8286
vn -0.5801 0.2219 -0.7838
vn 0.2427 0.6136 -0.7514
vn 0.2744 0.2750 -0.9215
vn 0.2427 0.6137 -0.7513
vn -0.5385 -0.1528 -0.8287
vn 0.2664 -0.1027 -0.9584
vn -0.5385 -0.1527 -0.8286
vn 0.2743 0.2750 -0.9215
vn 0.8340 0.4982 -0.2370
vn 0.9217 0.1486 -0.3584
vn 0.2428 0.6136 -0.7514
vn 0.2664 -0.1028 -0.9584
vn 0.8762 -0.2218 -0.4279
vn 0.8743 -0.0621 0.4814
vn 0.8341 0.4981 -0.2370
vn 0.7908 0.3057 0.5302
vn 0.8316 -0.4202 0.3632
vn 0.8743 -0.0621 0.4815
vn 0.8743 -0.0620 0.4814
vn 0.8315 -0.4203 0.3632
vn 0.1679 -0.1984 0.9656
vn 0.1661 -0.5487 0.8194
vn 0.8508 -0.3487 0.3930
vn 0.1662 -0.5487 0.8194
vn 0.1686 -0.4804 0.8607
vn 0.8508 -0.3488 0.3930
vn 0.2714 -0.0231 -0.9622
vn 0.8762 -0.2218 -0.4280
vn 0.8966 -0.1452 -0.4183
vn -0.9581 -0.2604 -0.1194
vn -0.5540 -0.0744 -0.8292
vn -0.6365 -0.4412 0.6327
vn 0.1662 -0.5487 0.8193
vn 0.8509 -0.3487 0.3930
vn 0.2663 -0.1027 -0.9584
vn -0.5541 -0.0744 -0.8291
vn -0.5385 -0.1527 -0.8287
vn -0.6365 -0.4411 0.6327
vn 0.2428 0.6136 -0.7513
vn 0.1378 0.9356 -0.3251
vn 0.5031 0.8642 -0.0074
vn -0.9200 0.3893 0.0457
vn -0.5805 0.7969 0.1672
vn -0.6158 0.2183 0.7570
vn 0.8341 0.4982 -0.2369
vn 0.1684 -0.2164 0.9617
vn -0.6654 -0.1757 0.7255
vn 0.9226 0.1307 -0.3630
vn 0.8752 -0.0800 0.4772
vn 0.9226 0.1308 -0.3630
vn -0.5800 0.2041 -0.7887
vn 0.2749 0.2572 -0.9264
vn -0.5800 0.2042 -0.7886
vn -0.9581 -0.2604 -0.1193
vn -0.9985 0.0114 -0.0534
vn 0.8751 -0.0801 0.4772
vn 0.1685 -0.4804 0.8607
vn 0.1685 -0.2164 0.9617
vn 0.8751 -0.0800 0.4772
vn 0.9225 0.1308 -0.3631
vn -0.5800 0.2041 -0.7886
vn -0.9985 0.0115 -0.0534
vt 0.530319 0.611839
vt 0.522446 0.618118
vt 0.524872 0.613083
vt 0.524872 0.623154
vt 0.534683 0.615326
vt 0.530319 0.624397
vt 0.534683 0.620918
vt 0.537079 0.671494
vt 0.541916 0.669548
vt 0.539566 0.672157
vt 0.536179 0.669609
vt 0.539856 0.666756
vt 0.536224 0.667854
vt 0.537567 0.666748
vt 0.534592 0.666855
vt 0.534012 0.669838
vt 0.530777 0.669685
vt 0.535187 0.673050
vt 0.531769 0.674789
vt 0.525803 0.669067
vt 0.526108 0.676537
vt 0.539017 0.675606
vt 0.536011 0.680244
vt 0.529755 0.684982
vt 0.547180 0.674767
vt 0.546982 0.686485
vt 0.537415 0.696274
vt 0.547180 0.658051
vt 0.540527 0.663902
vt 0.539825 0.659698
vt 0.546280 0.665543
vt 0.543762 0.651657
vt 0.537613 0.655174
vt 0.536758 0.664742
vt 0.535126 0.661980
vt 0.532364 0.658463
vt 0.532074 0.665283
vt 0.528198 0.662933
vt 0.523743 0.660286
vt 0.519989 0.668175
vt 0.535217 0.651588
vt 0.529327 0.654999
vt 0.522873 0.688484
vt 0.528320 0.699394
vt 0.519577 0.678001
vt 0.540466 0.648293
vt 0.604446 0.642853
vt 0.626221 0.647896
vt 0.604553 0.648445
vt 0.626144 0.642670
vt 0.604553 0.631676
vt 0.626144 0.637444
vt 0.604446 0.637268
vt 0.626221 0.632225
vt 0.605011 0.620506
vt 0.626404 0.626999
vt 0.604736 0.626091
vt 0.626663 0.621780
vt 0.626404 0.653114
vt 0.604736 0.654030
vt 0.626663 0.658333
vt 0.605011 0.659607
s 0
usemtl decorations
f 240/1/1 239/2/1 238/3/1
f 237/1/1 236/4/1 235/2/1
f 234/5/1 233/4/1 232/1/1
f 231/5/1 230/6/1 229/4/1
f 228/6/1 227/5/1 226/7/1
s 1
f 225/8/2 224/9/3 223/10/4
f 222/11/5 221/9/6 220/8/2
f 219/11/7 218/12/8 217/9/3
f 216/13/9 215/12/8 214/11/7
f 213/12/8 212/13/9 211/14/10
f 210/15/11 209/11/7 208/16/12
f 207/15/11 206/13/9 205/11/13
f 204/17/14 203/18/15 202/19/16
f 201/17/14 200/16/17 199/18/18
f 198/20/19 197/19/20 196/21/21
f 195/20/19 194/17/14 193/19/22
f 192/19/16 191/22/23 190/23/24
f 189/19/16 188/18/15 187/22/23
f 186/21/25 185/23/24 184/24/26
f 183/21/27 3/19/16 182/23/24
f 181/23/24 180/25/28 179/26/29
f 178/23/24 177/22/30 176/25/31
f 175/24/32 174/26/29 173/27/33
f 172/24/32 4/23/24 171/26/29
f 170/28/34 169/29/35 168/30/36
f 167/28/34 166/31/28 165/29/37
f 164/32/38 163/30/36 162/33/39
f 161/32/40 13/28/29 160/30/41
f 159/30/36 158/34/42 157/35/43
f 156/30/36 155/29/44 154/34/42
f 153/33/45 152/35/43 151/36/46
f 150/33/45 14/30/36 149/35/43
f 148/35/43 147/15/11 146/37/47
f 145/35/43 144/34/48 143/15/49
f 142/36/46 141/37/47 140/38/50
f 139/36/46 16/35/43 138/37/47
f 137/37/51 136/16/17 135/17/14
f 134/37/52 133/15/11 132/16/12
f 131/38/53 130/17/54 129/20/55
f 128/38/53 36/37/47 25/17/54
f 127/39/56 126/20/57 125/40/58
f 124/39/59 123/38/53 122/20/57
f 121/41/60 120/36/61 119/42/62
f 118/41/60 117/33/45 116/36/61
f 115/43/63 114/27/33 113/44/64
f 112/43/63 111/24/26 110/27/33
f 109/40/58 108/21/21 107/45/65
f 106/40/58 40/20/66 105/21/21
f 104/42/62 103/38/50 102/39/67
f 101/42/62 41/36/61 42/38/50
f 100/46/64 99/33/68 98/41/60
f 97/46/69 37/32/70 38/33/68
f 96/45/71 95/24/26 94/43/63
f 93/45/71 33/21/27 34/24/26
f 92/29/72 91/14/10 90/34/42
f 89/29/44 88/12/73 87/14/74
f 86/22/75 85/9/6 84/25/31
f 83/22/30 82/10/76 81/9/6
f 80/16/17 79/8/2 78/18/77
f 29/16/17 30/11/5 77/8/2
f 76/31/31 75/12/73 28/29/37
f 31/31/31 26/9/6 27/12/73
f 74/18/15 73/10/76 24/22/23
f 21/18/15 22/8/2 23/10/4
f 72/34/78 71/13/9 20/15/11
f 17/34/78 18/14/10 19/13/9
f 70/47/79 69/48/71 68/49/80
f 67/47/79 66/50/58 65/48/71
f 64/51/81 63/52/67 62/53/82
f 61/51/83 60/54/62 59/52/67
f 58/55/84 57/56/60 56/57/85
f 55/55/86 54/58/69 53/56/60
f 52/49/80 51/59/87 50/60/88
f 2/49/80 32/48/71 49/59/87
f 48/53/89 47/50/90 12/47/91
f 9/53/92 10/52/67 11/50/58
f 46/57/85 45/54/62 8/51/93
f 5/57/85 6/56/60 7/54/62
f 44/60/88 43/61/69 15/62/94
f 1/60/95 35/59/63 39/61/69
