# Blender 5.0.0
# www.blender.org
mtllib Circle_002_Circle_001_Dupli_82_decorations_0.mtl
o Circle.002|Circle.001|Dupli|82_decorations_0
v -4.523196 1.764483 0.441473
v -4.523061 1.763552 0.440425
v -4.516784 1.767268 0.437529
v -4.516976 1.768596 0.439024
v -4.524879 1.766140 0.440544
v -4.520747 1.769013 0.438413
v -4.521010 1.768525 0.437218
v -4.525159 1.765619 0.439266
v -4.524636 1.764463 0.438655
v -4.520520 1.767445 0.436647
v -4.519648 1.766585 0.437129
v -4.523702 1.763543 0.439171
v -4.518130 1.770239 0.439100
v -4.519376 1.770960 0.437698
v -4.524005 1.765635 0.441526
v -4.519776 1.770216 0.435875
v -4.518404 1.770782 0.435549
v -4.517238 1.770976 0.435526
v -4.516841 1.770101 0.435063
v -4.517797 1.769440 0.434840
v -4.515969 1.768383 0.436895
v -4.515648 1.769411 0.436404
v -4.515750 1.770116 0.437199
v -4.516125 1.769464 0.438111
v -4.517697 1.767255 0.435740
v -4.516363 1.770989 0.437239
v -4.517025 1.771372 0.436494
v -4.518079 1.771388 0.437032
v -4.516713 1.768372 0.435439
v -4.516134 1.769404 0.435454
v -4.517064 1.770801 0.438173
v -4.519049 1.766594 0.438302
v -4.518087 1.766699 0.438047
v -4.518254 1.767849 0.439342
v -4.519175 1.767464 0.439282
v -4.519030 1.768567 0.435004
v -4.519253 1.769271 0.439407
v -4.520332 1.769895 0.438194
v -4.519930 1.768541 0.439331
v -4.518879 1.766688 0.436499
v -4.520679 1.769251 0.436616
v -4.520031 1.767824 0.435862
v -4.519930 1.768541 0.439331
v -4.523196 1.764483 0.441473
v -4.521010 1.768525 0.437218
v -4.524879 1.766140 0.440544
v -4.519648 1.766585 0.437129
v -4.524636 1.764463 0.438655
v -4.519175 1.767464 0.439282
v -4.523196 1.764483 0.441473
v -4.519175 1.767464 0.439282
v -4.523061 1.763552 0.440425
v -4.520747 1.769013 0.438413
v -4.519930 1.768541 0.439331
v -4.524005 1.765635 0.441526
v -4.524879 1.766140 0.440544
v -4.520747 1.769013 0.438413
v -4.524005 1.765635 0.441526
v -4.520520 1.767445 0.436647
v -4.521010 1.768525 0.437218
v -4.525159 1.765619 0.439266
v -4.524636 1.764463 0.438655
v -4.520520 1.767445 0.436647
v -4.525159 1.765619 0.439266
v -4.519049 1.766594 0.438302
v -4.519648 1.766585 0.437129
v -4.523702 1.763543 0.439171
v -4.523061 1.763552 0.440425
v -4.519049 1.766594 0.438302
v -4.523702 1.763543 0.439171
v -4.516841 1.770101 0.435063
v -4.518404 1.770782 0.435549
v -4.515750 1.770116 0.437199
v -4.515969 1.768383 0.436895
v -4.517025 1.771372 0.436494
v -4.517064 1.770801 0.438173
v -4.515648 1.769411 0.436404
v -4.515969 1.768383 0.436895
v -4.515648 1.769411 0.436404
v -4.516713 1.768372 0.435439
v -4.516363 1.770989 0.437239
v -4.515750 1.770116 0.437199
v -4.516125 1.769464 0.438111
v -4.517064 1.770801 0.438173
v -4.516363 1.770989 0.437239
v -4.516125 1.769464 0.438111
v -4.517238 1.770976 0.435526
v -4.517025 1.771372 0.436494
v -4.518079 1.771388 0.437032
v -4.518404 1.770782 0.435549
v -4.517238 1.770976 0.435526
v -4.518079 1.771388 0.437032
v -4.519049 1.766594 0.438302
v -4.519175 1.767464 0.439282
v -4.518254 1.767849 0.439342
v -4.519049 1.766594 0.438302
v -4.519930 1.768541 0.439331
v -4.520747 1.769013 0.438413
v -4.520332 1.769895 0.438194
v -4.519930 1.768541 0.439331
v -4.521010 1.768525 0.437218
v -4.520520 1.767445 0.436647
v -4.520031 1.767824 0.435862
v -4.521010 1.768525 0.437218
v -4.518087 1.766699 0.438047
v -4.519648 1.766585 0.437129
v -4.519049 1.766594 0.438302
v -4.518087 1.766699 0.438047
v -4.519648 1.766585 0.437129
v -4.519253 1.769271 0.439407
v -4.518254 1.767849 0.439342
v -4.519175 1.767464 0.439282
v -4.519930 1.768541 0.439331
v -4.519253 1.769271 0.439407
v -4.519175 1.767464 0.439282
v -4.520679 1.769251 0.436616
v -4.520332 1.769895 0.438194
v -4.520747 1.769013 0.438413
v -4.521010 1.768525 0.437218
v -4.520679 1.769251 0.436616
v -4.520747 1.769013 0.438413
v -4.518879 1.766688 0.436499
v -4.520031 1.767824 0.435862
v -4.520520 1.767445 0.436647
v -4.519648 1.766585 0.437129
v -4.518879 1.766688 0.436499
v -4.520520 1.767445 0.436647
v -4.520031 1.767824 0.435862
v -4.518879 1.766688 0.436499
v -4.517697 1.767255 0.435740
v -4.520031 1.767824 0.435862
v -4.516713 1.768372 0.435439
v -4.517797 1.769440 0.434840
v -4.519030 1.768567 0.435004
v -4.517697 1.767255 0.435740
v -4.516713 1.768372 0.435439
v -4.519030 1.768567 0.435004
v -4.519030 1.768567 0.435004
v -4.520679 1.769251 0.436616
v -4.520031 1.767824 0.435862
v -4.519030 1.768567 0.435004
v -4.520679 1.769251 0.436616
v -4.517797 1.769440 0.434840
v -4.518404 1.770782 0.435549
v -4.519776 1.770216 0.435875
v -4.519030 1.768567 0.435004
v -4.517797 1.769440 0.434840
v -4.519776 1.770216 0.435875
v -4.519776 1.770216 0.435875
v -4.520332 1.769895 0.438194
v -4.520679 1.769251 0.436616
v -4.519776 1.770216 0.435875
v -4.520332 1.769895 0.438194
v -4.518404 1.770782 0.435549
v -4.518079 1.771388 0.437032
v -4.519376 1.770960 0.437698
v -4.519776 1.770216 0.435875
v -4.518404 1.770782 0.435549
v -4.519376 1.770960 0.437698
v -4.519376 1.770960 0.437698
v -4.519253 1.769271 0.439407
v -4.520332 1.769895 0.438194
v -4.519376 1.770960 0.437698
v -4.519253 1.769271 0.439407
v -4.518079 1.771388 0.437032
v -4.517064 1.770801 0.438173
v -4.518130 1.770239 0.439100
v -4.519376 1.770960 0.437698
v -4.518079 1.771388 0.437032
v -4.518130 1.770239 0.439100
v -4.518130 1.770239 0.439100
v -4.518254 1.767849 0.439342
v -4.519253 1.769271 0.439407
v -4.518130 1.770239 0.439100
v -4.518254 1.767849 0.439342
v -4.517064 1.770801 0.438173
v -4.516125 1.769464 0.438111
v -4.516976 1.768596 0.439024
v -4.518130 1.770239 0.439100
v -4.517064 1.770801 0.438173
v -4.516976 1.768596 0.439024
v -4.516976 1.768596 0.439024
v -4.518087 1.766699 0.438047
v -4.518254 1.767849 0.439342
v -4.516976 1.768596 0.439024
v -4.518087 1.766699 0.438047
v -4.516125 1.769464 0.438111
v -4.515969 1.768383 0.436895
v -4.516784 1.767268 0.437529
v -4.516976 1.768596 0.439024
v -4.516125 1.769464 0.438111
v -4.516784 1.767268 0.437529
v -4.516784 1.767268 0.437529
v -4.517697 1.767255 0.435740
v -4.518879 1.766688 0.436499
v -4.518087 1.766699 0.438047
v -4.516784 1.767268 0.437529
v -4.518879 1.766688 0.436499
v -4.515969 1.768383 0.436895
v -4.516713 1.768372 0.435439
v -4.517697 1.767255 0.435740
v -4.516784 1.767268 0.437529
v -4.515969 1.768383 0.436895
v -4.517697 1.767255 0.435740
v -4.516134 1.769404 0.435454
v -4.516841 1.770101 0.435063
v -4.517797 1.769440 0.434840
v -4.516713 1.768372 0.435439
v -4.516134 1.769404 0.435454
v -4.517797 1.769440 0.434840
v -4.517238 1.770976 0.435526
v -4.516841 1.770101 0.435063
v -4.517025 1.771372 0.436494
v -4.516134 1.769404 0.435454
v -4.517025 1.771372 0.436494
v -4.516841 1.770101 0.435063
v -4.516363 1.770989 0.437239
v -4.517025 1.771372 0.436494
v -4.516134 1.769404 0.435454
v -4.515648 1.769411 0.436404
v -4.516363 1.770989 0.437239
v -4.516134 1.769404 0.435454
v -4.515750 1.770116 0.437199
v -4.516363 1.770989 0.437239
v -4.515648 1.769411 0.436404
v -4.525159 1.765619 0.439266
v -4.524879 1.766140 0.440544
v -4.524636 1.764463 0.438655
v -4.523702 1.763543 0.439171
v -4.524636 1.764463 0.438655
v -4.524879 1.766140 0.440544
v -4.524005 1.765635 0.441526
v -4.523702 1.763543 0.439171
v -4.524879 1.766140 0.440544
v -4.523061 1.763552 0.440425
v -4.523702 1.763543 0.439171
v -4.524005 1.765635 0.441526
v -4.523196 1.764483 0.441473
v -4.523061 1.763552 0.440425
v -4.524005 1.765635 0.441526
vn -0.7468 -0.5420 0.3854
vn 0.9745 0.0223 -0.2232
vn 0.6466 0.7460 0.1593
vn 0.9277 0.3457 0.1409
vn 0.7519 0.0191 -0.6590
vn 0.6467 0.7459 0.1593
vn 0.7520 0.0191 -0.6589
vn 0.3431 0.9215 -0.1820
vn 0.4275 0.3386 -0.8382
vn 0.4276 0.3386 -0.8382
vn 0.2456 0.7402 -0.6259
vn -0.0015 0.0447 -0.9990
vn 0.5237 -0.4725 -0.7089
vn 0.4276 0.3387 -0.8382
vn 0.7519 0.0192 -0.6590
vn 0.2678 -0.7389 -0.6183
vn 0.8840 -0.4674 -0.0034
vn 0.6623 -0.7333 0.1539
vn 0.8841 -0.4674 -0.0034
vn -0.0262 -0.8982 -0.4387
vn 0.3454 -0.8929 0.2887
vn 0.6623 -0.7332 0.1539
vn 0.8083 0.0563 0.5861
vn 0.5793 -0.1601 0.7992
vn 0.8082 0.0563 0.5861
vn 0.3454 -0.8929 0.2888
vn 0.2672 -0.3530 0.8967
vn 0.3533 0.7041 0.6159
vn 0.0813 0.5491 0.8318
vn 0.8082 0.0563 0.5862
vn 0.2671 -0.3530 0.8967
vn -0.2019 0.3151 0.9273
vn -0.1382 0.9884 0.0634
vn -0.4566 0.8602 0.2270
vn 0.3533 0.7042 0.6159
vn -0.1381 0.9884 0.0634
vn -0.2020 0.3151 0.9273
vn -0.7086 0.6082 0.3576
vn -0.4565 0.8602 0.2270
vn -0.2960 0.6950 -0.6553
vn -0.6295 0.5390 -0.5597
vn -0.7087 0.6082 0.3576
vn -0.8715 0.3056 -0.3835
vn -0.6295 0.5389 -0.5597
vn -0.0015 0.0448 -0.9990
vn -0.3070 -0.1727 -0.9359
vn -0.2961 0.6949 -0.6553
vn -0.8715 0.3055 -0.3835
vn -0.5678 -0.3648 -0.7379
vn -0.5678 -0.3649 -0.7379
vn -0.5189 -0.3282 -0.7893
vn -0.0262 -0.8982 -0.4388
vn 0.0364 -0.8751 -0.4825
vn -0.6634 0.6696 0.3340
vn -0.8304 0.3593 -0.4259
vn 0.3373 -0.3160 0.8868
vn -0.1438 0.3691 0.9182
vn 0.2672 -0.3529 0.8967
vn 0.0364 -0.8751 -0.4826
vn 0.4174 -0.8697 0.2634
vn -0.0263 -0.8982 -0.4387
vn -0.8303 0.3593 -0.4260
vn -0.1437 0.3691 0.9182
vn -0.2020 0.3152 0.9273
vn 0.4175 -0.8697 0.2634
vn -0.2960 0.6949 -0.6553
vn 0.3432 0.9215 -0.1820
vn 0.6467 0.7460 0.1593
vn 0.5237 -0.4725 -0.7088
vn 0.5237 -0.4726 -0.7088
vn 0.9277 0.3457 0.1410
vn 0.2542 -0.7493 -0.6115
vn 0.6488 -0.7437 0.1611
vn -0.6436 0.5292 -0.5529
vn -0.3210 -0.1828 -0.9293
vn 0.0675 0.5394 0.8393
vn -0.4706 0.8507 0.2343
vn 0.0676 0.5394 0.8393
vn -0.1438 0.3690 0.9182
vn 0.5658 -0.1702 0.8068
vn 0.6489 -0.7437 0.1611
vn -0.4707 0.8506 0.2343
vn -0.4706 0.8507 0.2342
vt 0.543243 0.635056
vt 0.535370 0.641335
vt 0.537796 0.636299
vt 0.537796 0.646370
vt 0.547607 0.638535
vt 0.543243 0.647614
vt 0.547607 0.644127
vt 0.593674 0.671494
vt 0.598511 0.669548
vt 0.596146 0.672157
vt 0.592773 0.669609
vt 0.596436 0.666756
vt 0.592804 0.667854
vt 0.594147 0.666748
vt 0.591187 0.666855
vt 0.590591 0.669838
vt 0.587372 0.669685
vt 0.591782 0.673050
vt 0.588348 0.674789
vt 0.582382 0.669067
vt 0.582687 0.676537
vt 0.595596 0.675606
vt 0.592606 0.680244
vt 0.586334 0.684982
vt 0.603775 0.674767
vt 0.603561 0.686485
vt 0.594009 0.696274
vt 0.603775 0.658051
vt 0.597107 0.663902
vt 0.596405 0.659698
vt 0.602859 0.665543
vt 0.600342 0.651657
vt 0.594193 0.655174
vt 0.593353 0.664742
vt 0.591705 0.661980
vt 0.588959 0.658463
vt 0.588654 0.665283
vt 0.584778 0.662933
vt 0.580322 0.660286
vt 0.576584 0.668175
vt 0.591812 0.651588
vt 0.585907 0.654999
vt 0.579453 0.688484
vt 0.584915 0.699394
vt 0.576157 0.678001
vt 0.597061 0.648293
vt 0.627350 0.682632
vt 0.649124 0.687675
vt 0.627441 0.688225
vt 0.649033 0.682457
vt 0.627441 0.671455
vt 0.649033 0.677231
vt 0.627350 0.677048
vt 0.649124 0.672005
vt 0.627914 0.660294
vt 0.649292 0.666786
vt 0.627625 0.665871
vt 0.649551 0.661568
vt 0.649292 0.692902
vt 0.627625 0.693810
vt 0.649551 0.698120
vt 0.627914 0.699394
s 0
usemtl decorations
f 240/1/1 239/2/1 238/3/1
f 237/1/1 236/4/1 235/2/1
f 234/5/1 233/4/1 232/1/1
f 231/5/1 230/6/1 229/4/1
f 228/6/1 227/5/1 226/7/1
s 1
f 225/8/2 224/9/3 223/10/4
f 222/11/5 221/9/6 220/8/2
f 219/11/7 218/12/8 217/9/3
f 216/13/9 215/12/8 214/11/5
f 213/12/8 212/13/10 211/14/11
f 210/15/12 209/11/5 208/16/13
f 207/15/12 206/13/14 205/11/15
f 204/17/16 203/18/17 202/19/18
f 201/17/16 200/16/13 199/18/19
f 198/20/20 197/19/18 196/21/21
f 195/20/20 194/17/16 193/19/22
f 192/19/18 191/22/23 190/23/24
f 189/19/18 188/18/17 187/22/25
f 186/21/26 185/23/24 184/24/27
f 183/21/26 3/19/18 182/23/24
f 181/23/24 180/25/28 179/26/29
f 178/23/24 177/22/30 176/25/28
f 175/24/31 174/26/29 173/27/32
f 172/24/27 4/23/24 171/26/29
f 170/28/29 169/29/33 168/30/34
f 167/28/29 166/31/35 165/29/36
f 164/32/37 163/30/34 162/33/38
f 161/32/37 13/28/29 160/30/39
f 159/30/34 158/34/40 157/35/41
f 156/30/34 155/29/33 154/34/40
f 153/33/42 152/35/41 151/36/43
f 150/33/42 14/30/34 149/35/41
f 148/35/44 147/15/45 146/37/46
f 145/35/41 144/34/47 143/15/45
f 142/36/48 141/37/46 140/38/49
f 139/36/48 16/35/41 138/37/46
f 137/37/46 136/16/13 135/17/16
f 134/37/46 133/15/12 132/16/13
f 131/38/50 130/17/16 129/20/20
f 128/38/50 36/37/46 25/17/16
f 127/39/51 126/20/52 125/40/53
f 124/39/51 123/38/49 122/20/52
f 121/41/54 120/36/43 119/42/55
f 118/41/54 117/33/42 116/36/43
f 115/43/56 114/27/32 113/44/57
f 112/43/56 111/24/58 110/27/32
f 109/40/59 108/21/21 107/45/60
f 106/40/59 40/20/61 105/21/21
f 104/42/62 103/38/49 102/39/51
f 101/42/55 41/36/43 42/38/49
f 100/46/63 99/33/42 98/41/54
f 97/46/63 37/32/64 38/33/42
f 96/45/65 95/24/27 94/43/56
f 93/45/65 33/21/21 34/24/27
f 92/29/33 91/14/11 90/34/66
f 89/29/33 88/12/67 87/14/11
f 86/22/30 85/9/68 84/25/28
f 83/22/30 82/10/4 81/9/6
f 80/16/69 79/8/2 78/18/19
f 29/16/70 30/11/5 77/8/2
f 76/31/35 75/12/8 28/29/36
f 31/31/35 26/9/6 27/12/67
f 74/18/17 73/10/71 24/22/30
f 21/18/17 22/8/2 23/10/4
f 72/34/66 71/13/9 20/15/45
f 17/34/66 18/14/11 19/13/14
f 70/47/72 69/48/65 68/49/73
f 67/47/72 66/50/53 65/48/65
f 64/51/74 63/52/51 62/53/75
f 61/51/74 60/54/62 59/52/51
f 58/55/76 57/56/54 56/57/77
f 55/55/78 54/58/79 53/56/54
f 52/49/73 51/59/56 50/60/80
f 2/49/81 32/48/60 49/59/56
f 48/53/75 47/50/53 12/47/72
f 9/53/75 10/52/51 11/50/53
f 46/57/82 45/54/62 8/51/74
f 5/57/83 6/56/54 7/54/55
f 44/60/80 43/61/63 15/62/78
f 1/60/80 35/59/56 39/61/63
