# Blender 5.0.0
# www.blender.org
mtllib Circle_002_Circle_003_Dupli_289_decorations_0.mtl
o Circle.002|Circle.003|Dupli|289_decorations_0
v -4.514164 1.844774 0.806086
v -4.515254 1.845158 0.806892
v -4.518842 1.848698 0.800875
v -4.517288 1.848150 0.799726
v -4.512491 1.846642 0.806472
v -4.514715 1.849383 0.802300
v -4.515347 1.850174 0.803142
v -4.513166 1.847488 0.807372
v -4.514453 1.847334 0.807923
v -4.516550 1.850031 0.803657
v -4.517418 1.849061 0.803457
v -4.515382 1.846298 0.807709
v -4.515533 1.849092 0.799459
v -4.514900 1.850815 0.800276
v -4.512935 1.845434 0.805899
v -4.515864 1.852021 0.801561
v -4.516647 1.852408 0.800317
v -4.517358 1.852374 0.799372
v -4.518333 1.852257 0.799790
v -4.518142 1.852231 0.800957
v -4.519071 1.849704 0.799759
v -4.518940 1.850609 0.799008
v -4.518115 1.850317 0.798398
v -4.517806 1.849258 0.798824
v -4.519026 1.850324 0.802041
v -4.517183 1.850818 0.798256
v -4.516846 1.851733 0.798690
v -4.515862 1.851427 0.799272
v -4.519220 1.851027 0.800708
v -4.519037 1.851472 0.799628
v -4.516378 1.850025 0.798607
v -4.517298 1.847996 0.802693
v -4.518021 1.848138 0.802017
v -4.516675 1.847664 0.801022
v -4.516280 1.847637 0.801940
v -4.517701 1.851803 0.802347
v -4.515157 1.848479 0.800792
v -4.514608 1.849971 0.801498
v -4.515130 1.848254 0.801765
v -4.518180 1.849546 0.803027
v -4.515443 1.851015 0.802611
v -4.517033 1.850826 0.803291
v -4.515130 1.848254 0.801765
v -4.514164 1.844774 0.806086
v -4.515347 1.850174 0.803142
v -4.512491 1.846642 0.806472
v -4.517418 1.849061 0.803457
v -4.514453 1.847334 0.807923
v -4.516280 1.847637 0.801940
v -4.514164 1.844774 0.806086
v -4.516280 1.847637 0.801940
v -4.515254 1.845158 0.806892
v -4.514715 1.849383 0.802300
v -4.515130 1.848254 0.801765
v -4.512935 1.845434 0.805899
v -4.512491 1.846642 0.806472
v -4.514715 1.849383 0.802300
v -4.512935 1.845434 0.805899
v -4.516550 1.850031 0.803657
v -4.515347 1.850174 0.803142
v -4.513166 1.847488 0.807372
v -4.514453 1.847334 0.807923
v -4.516550 1.850031 0.803657
v -4.513166 1.847488 0.807372
v -4.517298 1.847996 0.802693
v -4.517418 1.849061 0.803457
v -4.515382 1.846298 0.807709
v -4.515254 1.845158 0.806892
v -4.517298 1.847996 0.802693
v -4.515382 1.846298 0.807709
v -4.518333 1.852257 0.799790
v -4.516647 1.852408 0.800317
v -4.518115 1.850317 0.798398
v -4.519071 1.849704 0.799759
v -4.516846 1.851733 0.798690
v -4.516378 1.850025 0.798607
v -4.518940 1.850609 0.799008
v -4.519071 1.849704 0.799759
v -4.518940 1.850609 0.799008
v -4.519220 1.851027 0.800708
v -4.517183 1.850818 0.798256
v -4.518115 1.850317 0.798398
v -4.517806 1.849258 0.798824
v -4.516378 1.850025 0.798607
v -4.517183 1.850818 0.798256
v -4.517806 1.849258 0.798824
v -4.517358 1.852374 0.799372
v -4.516846 1.851733 0.798690
v -4.515862 1.851427 0.799272
v -4.516647 1.852408 0.800317
v -4.517358 1.852374 0.799372
v -4.515862 1.851427 0.799272
v -4.517298 1.847996 0.802693
v -4.516280 1.847637 0.801940
v -4.516675 1.847664 0.801022
v -4.517298 1.847996 0.802693
v -4.515130 1.848254 0.801765
v -4.514715 1.849383 0.802300
v -4.514608 1.849971 0.801498
v -4.515130 1.848254 0.801765
v -4.515347 1.850174 0.803142
v -4.516550 1.850031 0.803657
v -4.517033 1.850826 0.803291
v -4.515347 1.850174 0.803142
v -4.518021 1.848138 0.802017
v -4.517418 1.849061 0.803457
v -4.517298 1.847996 0.802693
v -4.518021 1.848138 0.802017
v -4.517418 1.849061 0.803457
v -4.515157 1.848479 0.800792
v -4.516675 1.847664 0.801022
v -4.516280 1.847637 0.801940
v -4.515130 1.848254 0.801765
v -4.515157 1.848479 0.800792
v -4.516280 1.847637 0.801940
v -4.515443 1.851015 0.802611
v -4.514608 1.849971 0.801498
v -4.514715 1.849383 0.802300
v -4.515347 1.850174 0.803142
v -4.515443 1.851015 0.802611
v -4.514715 1.849383 0.802300
v -4.518180 1.849546 0.803027
v -4.517033 1.850826 0.803291
v -4.516550 1.850031 0.803657
v -4.517418 1.849061 0.803457
v -4.518180 1.849546 0.803027
v -4.516550 1.850031 0.803657
v -4.517033 1.850826 0.803291
v -4.518180 1.849546 0.803027
v -4.519026 1.850324 0.802041
v -4.517033 1.850826 0.803291
v -4.519220 1.851027 0.800708
v -4.518142 1.852231 0.800957
v -4.517701 1.851803 0.802347
v -4.519026 1.850324 0.802041
v -4.519220 1.851027 0.800708
v -4.517701 1.851803 0.802347
v -4.517701 1.851803 0.802347
v -4.515443 1.851015 0.802611
v -4.517033 1.850826 0.803291
v -4.517701 1.851803 0.802347
v -4.515443 1.851015 0.802611
v -4.518142 1.852231 0.800957
v -4.516647 1.852408 0.800317
v -4.515864 1.852021 0.801561
v -4.517701 1.851803 0.802347
v -4.518142 1.852231 0.800957
v -4.515864 1.852021 0.801561
v -4.515864 1.852021 0.801561
v -4.514608 1.849971 0.801498
v -4.515443 1.851015 0.802611
v -4.515864 1.852021 0.801561
v -4.514608 1.849971 0.801498
v -4.516647 1.852408 0.800317
v -4.515862 1.851427 0.799272
v -4.514900 1.850815 0.800276
v -4.515864 1.852021 0.801561
v -4.516647 1.852408 0.800317
v -4.514900 1.850815 0.800276
v -4.514900 1.850815 0.800276
v -4.515157 1.848479 0.800792
v -4.514608 1.849971 0.801498
v -4.514900 1.850815 0.800276
v -4.515157 1.848479 0.800792
v -4.515862 1.851427 0.799272
v -4.516378 1.850025 0.798607
v -4.515533 1.849092 0.799459
v -4.514900 1.850815 0.800276
v -4.515862 1.851427 0.799272
v -4.515533 1.849092 0.799459
v -4.515533 1.849092 0.799459
v -4.516675 1.847664 0.801022
v -4.515157 1.848479 0.800792
v -4.515533 1.849092 0.799459
v -4.516675 1.847664 0.801022
v -4.516378 1.850025 0.798607
v -4.517806 1.849258 0.798824
v -4.517288 1.848150 0.799726
v -4.515533 1.849092 0.799459
v -4.516378 1.850025 0.798607
v -4.517288 1.848150 0.799726
v -4.517288 1.848150 0.799726
v -4.518021 1.848138 0.802017
v -4.516675 1.847664 0.801022
v -4.517288 1.848150 0.799726
v -4.518021 1.848138 0.802017
v -4.517806 1.849258 0.798824
v -4.519071 1.849704 0.799759
v -4.518842 1.848698 0.800875
v -4.517288 1.848150 0.799726
v -4.517806 1.849258 0.798824
v -4.518842 1.848698 0.800875
v -4.518842 1.848698 0.800875
v -4.519026 1.850324 0.802041
v -4.518180 1.849546 0.803027
v -4.518021 1.848138 0.802017
v -4.518842 1.848698 0.800875
v -4.518180 1.849546 0.803027
v -4.519071 1.849704 0.799759
v -4.519220 1.851027 0.800708
v -4.519026 1.850324 0.802041
v -4.518842 1.848698 0.800875
v -4.519071 1.849704 0.799759
v -4.519026 1.850324 0.802041
v -4.519037 1.851472 0.799628
v -4.518333 1.852257 0.799790
v -4.518142 1.852231 0.800957
v -4.519220 1.851027 0.800708
v -4.519037 1.851472 0.799628
v -4.518142 1.852231 0.800957
v -4.517358 1.852374 0.799372
v -4.518333 1.852257 0.799790
v -4.516846 1.851733 0.798690
v -4.519037 1.851472 0.799628
v -4.516846 1.851733 0.798690
v -4.518333 1.852257 0.799790
v -4.517183 1.850818 0.798256
v -4.516846 1.851733 0.798690
v -4.519037 1.851472 0.799628
v -4.518940 1.850609 0.799008
v -4.517183 1.850818 0.798256
v -4.519037 1.851472 0.799628
v -4.518115 1.850317 0.798398
v -4.517183 1.850818 0.798256
v -4.518940 1.850609 0.799008
v -4.513166 1.847488 0.807372
v -4.512491 1.846642 0.806472
v -4.514453 1.847334 0.807923
v -4.515382 1.846298 0.807709
v -4.514453 1.847334 0.807923
v -4.512491 1.846642 0.806472
v -4.512935 1.845434 0.805899
v -4.515382 1.846298 0.807709
v -4.512491 1.846642 0.806472
v -4.515254 1.845158 0.806892
v -4.515382 1.846298 0.807709
v -4.512935 1.845434 0.805899
v -4.514164 1.844774 0.806086
v -4.515254 1.845158 0.806892
v -4.512935 1.845434 0.805899
vn 0.3894 -0.5075 0.7687
vn -0.7648 0.0706 -0.6404
vn 0.0410 0.1666 -0.9852
vn -0.3863 -0.0629 -0.9202
vn -0.8095 0.4666 -0.3563
vn -0.7648 0.0706 -0.6403
vn -0.8096 0.4665 -0.3563
vn 0.1953 0.5862 -0.7863
vn -0.4868 0.8267 -0.2820
vn -0.0396 0.8800 -0.4733
vn -0.4265 0.8671 0.2575
vn -0.9490 0.2840 0.1372
vn -0.8795 0.1032 0.4645
vn -0.8766 -0.3570 -0.3227
vn -0.8003 -0.5983 -0.0389
vn -0.8795 0.1033 0.4645
vn -0.9490 0.2839 0.1372
vn -0.6833 -0.0920 0.7243
vn -0.8003 -0.5984 -0.0389
vn -0.6087 -0.7530 0.2501
vn -0.2638 -0.5732 -0.7758
vn -0.1295 -0.8350 -0.5349
vn -0.8766 -0.3571 -0.3227
vn -0.6086 -0.7530 0.2501
vn -0.1296 -0.8349 -0.5349
vn 0.0232 -0.9759 -0.2172
vn 0.4280 -0.2018 -0.8810
vn 0.6277 -0.4284 -0.6500
vn -0.2637 -0.5732 -0.7758
vn 0.4280 -0.2017 -0.8810
vn 0.0233 -0.9759 -0.2171
vn 0.7366 -0.5928 -0.3256
vn 0.6278 -0.4283 -0.6499
vn 0.6778 0.4776 -0.5590
vn 0.9012 0.3152 -0.2976
vn 0.9012 0.3152 -0.2975
vn 0.9942 0.1077 0.0064
vn 0.6277 -0.4283 -0.6500
vn 0.2976 0.9533 -0.0524
vn 0.4849 0.8359 0.2571
vn 0.9942 0.1077 0.0065
vn 0.6020 0.5982 0.5289
vn -0.4264 0.8671 0.2575
vn -0.3076 0.7416 0.5962
vn 0.2975 0.9533 -0.0523
vn -0.1445 0.5094 0.8483
vn -0.3076 0.7415 0.5962
vn -0.1445 0.5093 0.8484
vn -0.6834 -0.0920 0.7243
vn -0.1812 0.5653 0.8048
vn -0.7337 -0.0513 0.6775
vn -0.1812 0.5652 0.8048
vn 0.9864 0.1535 -0.0586
vn 0.6021 0.5982 0.5289
vn 0.5843 0.6564 0.4772
vn 0.9864 0.1534 -0.0586
vn 0.9942 0.1076 0.0064
vn -0.0092 -0.9576 -0.2879
vn 0.7223 -0.5649 -0.3990
vn -0.0092 -0.9576 -0.2878
vn -0.6571 -0.7291 0.1913
vn 0.5843 0.6564 0.4771
vn -0.1445 0.5093 0.8483
vn 0.7223 -0.5649 -0.3991
vn -0.6572 -0.7291 0.1913
vn 0.6778 0.4776 -0.5589
vn 0.1952 0.5862 -0.7863
vn -0.3864 -0.0629 -0.9202
vn 0.0409 0.1666 -0.9852
vn -0.7648 0.0707 -0.6404
vn -0.8728 0.0939 0.4790
vn -0.7935 -0.6080 -0.0247
vn -0.8728 0.0939 0.4789
vn -0.7337 -0.0513 0.6776
vn 0.4923 0.8270 0.2715
vn -0.3005 0.7326 0.6107
vn 0.4923 0.8270 0.2714
vn 0.6353 -0.4379 -0.6361
vn 0.9088 0.3060 -0.2835
vn -0.7935 -0.6081 -0.0247
vn -0.1224 -0.8448 -0.5209
vn -0.3005 0.7326 0.6108
vn -0.8728 0.0940 0.4790
vn -0.3006 0.7326 0.6107
vn 0.4924 0.8270 0.2714
vn 0.6353 -0.4380 -0.6361
vt 0.530319 0.611839
vt 0.522446 0.618118
vt 0.524872 0.613083
vt 0.524872 0.623154
vt 0.534683 0.615326
vt 0.530319 0.624397
vt 0.534683 0.620918
vt 0.537079 0.671494
vt 0.541916 0.669548
vt 0.539566 0.672157
vt 0.536179 0.669609
vt 0.539856 0.666756
vt 0.536224 0.667854
vt 0.537567 0.666748
vt 0.534592 0.666855
vt 0.534012 0.669838
vt 0.530777 0.669685
vt 0.535187 0.673050
vt 0.531769 0.674789
vt 0.525803 0.669067
vt 0.526108 0.676537
vt 0.539017 0.675606
vt 0.536011 0.680244
vt 0.529755 0.684982
vt 0.547180 0.674767
vt 0.546982 0.686485
vt 0.537415 0.696274
vt 0.547180 0.658051
vt 0.540527 0.663902
vt 0.539825 0.659698
vt 0.546280 0.665543
vt 0.543762 0.651657
vt 0.537613 0.655174
vt 0.536758 0.664742
vt 0.535126 0.661980
vt 0.532364 0.658463
vt 0.532074 0.665283
vt 0.528198 0.662933
vt 0.523743 0.660286
vt 0.519989 0.668175
vt 0.535217 0.651588
vt 0.529327 0.654999
vt 0.522873 0.688484
vt 0.528320 0.699394
vt 0.519577 0.678001
vt 0.540466 0.648293
vt 0.604446 0.642853
vt 0.626221 0.647896
vt 0.604553 0.648445
vt 0.626144 0.642670
vt 0.604553 0.631676
vt 0.626144 0.637444
vt 0.604446 0.637268
vt 0.626221 0.632225
vt 0.605011 0.620506
vt 0.626404 0.626999
vt 0.604736 0.626091
vt 0.626663 0.621780
vt 0.626404 0.653114
vt 0.604736 0.654030
vt 0.626663 0.658333
vt 0.605011 0.659607
s 0
usemtl decorations
f 240/1/1 239/2/1 238/3/1
f 237/1/1 236/4/1 235/2/1
f 234/5/1 233/4/1 232/1/1
f 231/5/1 230/6/1 229/4/1
f 228/6/1 227/5/1 226/7/1
s 1
f 225/8/2 224/9/3 223/10/4
f 222/11/5 221/9/3 220/8/6
f 219/11/7 218/12/8 217/9/3
f 216/13/9 215/12/8 214/11/7
f 213/12/8 212/13/9 211/14/10
f 210/15/11 209/11/7 208/16/12
f 207/15/11 206/13/9 205/11/5
f 204/17/13 203/18/14 202/19/15
f 201/17/16 200/16/17 199/18/14
f 198/20/18 197/19/19 196/21/20
f 195/20/18 194/17/16 193/19/15
f 192/19/15 191/22/21 190/23/22
f 189/19/15 188/18/23 187/22/21
f 186/21/24 185/23/25 184/24/26
f 183/21/24 3/19/15 182/23/25
f 181/23/22 180/25/27 179/26/28
f 178/23/22 177/22/29 176/25/30
f 175/24/31 174/26/28 173/27/32
f 172/24/31 4/23/22 171/26/28
f 170/28/33 169/29/34 168/30/35
f 167/28/33 166/31/30 165/29/34
f 164/32/32 163/30/36 162/33/37
f 161/32/32 13/28/38 160/30/35
f 159/30/35 158/34/39 157/35/40
f 156/30/35 155/29/34 154/34/39
f 153/33/41 152/35/40 151/36/42
f 150/33/37 14/30/36 149/35/40
f 148/35/40 147/15/43 146/37/44
f 145/35/40 144/34/45 143/15/43
f 142/36/42 141/37/44 140/38/46
f 139/36/42 16/35/40 138/37/44
f 137/37/47 136/16/17 135/17/16
f 134/37/44 133/15/11 132/16/12
f 131/38/48 130/17/13 129/20/49
f 128/38/48 36/37/44 25/17/13
f 127/39/50 126/20/18 125/40/51
f 124/39/52 123/38/48 122/20/18
f 121/41/53 120/36/54 119/42/55
f 118/41/56 117/33/57 116/36/54
f 115/43/58 114/27/32 113/44/59
f 112/43/60 111/24/26 110/27/32
f 109/40/51 108/21/20 107/45/61
f 106/40/51 40/20/18 105/21/20
f 104/42/62 103/38/63 102/39/50
f 101/42/55 41/36/42 42/38/63
f 100/46/64 99/33/57 98/41/56
f 97/46/59 37/32/32 38/33/57
f 96/45/65 95/24/26 94/43/60
f 93/45/65 33/21/20 34/24/26
f 92/29/34 91/14/10 90/34/39
f 89/29/66 88/12/67 87/14/10
f 86/22/21 85/9/3 84/25/30
f 83/22/21 82/10/68 81/9/69
f 80/16/17 79/8/2 78/18/14
f 29/16/17 30/11/5 77/8/70
f 76/31/30 75/12/8 28/29/34
f 31/31/30 26/9/69 27/12/67
f 74/18/23 73/10/4 24/22/21
f 21/18/23 22/8/70 23/10/4
f 72/34/45 71/13/9 20/15/11
f 17/34/45 18/14/10 19/13/9
f 70/47/71 69/48/65 68/49/72
f 67/47/73 66/50/74 65/48/65
f 64/51/75 63/52/50 62/53/76
f 61/51/77 60/54/55 59/52/50
f 58/55/78 57/56/53 56/57/79
f 55/55/78 54/58/59 53/56/56
f 52/49/80 51/59/58 50/60/81
f 2/49/80 32/48/61 49/59/60
f 48/53/82 47/50/51 12/47/83
f 9/53/84 10/52/50 11/50/51
f 46/57/79 45/54/55 8/51/85
f 5/57/79 6/56/53 7/54/55
f 44/60/81 43/61/64 15/62/86
f 1/60/81 35/59/60 39/61/59
