# Blender 5.0.0
# www.blender.org
mtllib Circle_002_Circle_Dupli_207_decorations_0.mtl
o Circle.002|Circle|Dupli|207_decorations_0
v -4.402542 1.697931 0.408150
v -4.403749 1.698254 0.407499
v -4.405753 1.703372 0.413102
v -4.404032 1.702911 0.414031
v -4.403162 1.695874 0.409501
v -4.404619 1.699133 0.413638
v -4.405890 1.698960 0.413342
v -4.404521 1.695689 0.409184
v -4.405336 1.696456 0.408328
v -4.406651 1.699677 0.412542
v -4.406329 1.700744 0.411841
v -4.404992 1.697597 0.407578
v -4.403659 1.701400 0.415302
v -4.404916 1.699977 0.415958
v -4.402281 1.696872 0.409041
v -4.406856 1.699712 0.415506
v -4.407041 1.700899 0.416437
v -4.407004 1.701984 0.416907
v -4.407621 1.702565 0.416259
v -4.407986 1.701789 0.415444
v -4.406143 1.703876 0.414481
v -4.406418 1.703927 0.415631
v -4.405504 1.703683 0.416124
v -4.404743 1.703502 0.415237
v -4.407527 1.702435 0.413216
v -4.405306 1.702880 0.416799
v -4.405974 1.702124 0.417148
v -4.405462 1.701114 0.416806
v -4.407587 1.703114 0.414574
v -4.407361 1.703430 0.415691
v -4.404439 1.702272 0.416271
v -4.405167 1.701358 0.411767
v -4.405378 1.702257 0.412148
v -4.403889 1.701859 0.412952
v -4.404039 1.701056 0.412375
v -4.408018 1.700806 0.414285
v -4.403566 1.700551 0.414052
v -4.404654 1.699319 0.414620
v -4.403795 1.700066 0.413208
v -4.406914 1.701447 0.412246
v -4.406333 1.699090 0.414228
v -4.407339 1.700037 0.413172
v -4.403795 1.700066 0.413208
v -4.402542 1.697931 0.408150
v -4.405890 1.698960 0.413342
v -4.403162 1.695874 0.409501
v -4.406329 1.700744 0.411841
v -4.405336 1.696456 0.408328
v -4.404039 1.701056 0.412375
v -4.402542 1.697931 0.408150
v -4.404039 1.701056 0.412375
v -4.403749 1.698254 0.407499
v -4.404619 1.699133 0.413638
v -4.403795 1.700066 0.413208
v -4.402281 1.696872 0.409041
v -4.403162 1.695874 0.409501
v -4.404619 1.699133 0.413638
v -4.402281 1.696872 0.409041
v -4.406651 1.699677 0.412542
v -4.405890 1.698960 0.413342
v -4.404521 1.695689 0.409184
v -4.405336 1.696456 0.408328
v -4.406651 1.699677 0.412542
v -4.404521 1.695689 0.409184
v -4.405167 1.701358 0.411767
v -4.406329 1.700744 0.411841
v -4.404992 1.697597 0.407578
v -4.403749 1.698254 0.407499
v -4.405167 1.701358 0.411767
v -4.404992 1.697597 0.407578
v -4.407621 1.702565 0.416259
v -4.407041 1.700899 0.416437
v -4.405504 1.703683 0.416124
v -4.406143 1.703876 0.414481
v -4.405974 1.702124 0.417148
v -4.404439 1.702272 0.416271
v -4.406418 1.703927 0.415631
v -4.406143 1.703876 0.414481
v -4.406418 1.703927 0.415631
v -4.407587 1.703114 0.414574
v -4.405306 1.702880 0.416799
v -4.405504 1.703683 0.416124
v -4.404743 1.703502 0.415237
v -4.404439 1.702272 0.416271
v -4.405306 1.702880 0.416799
v -4.404743 1.703502 0.415237
v -4.407004 1.701984 0.416907
v -4.405974 1.702124 0.417148
v -4.405462 1.701114 0.416806
v -4.407041 1.700899 0.416437
v -4.407004 1.701984 0.416907
v -4.405462 1.701114 0.416806
v -4.405167 1.701358 0.411767
v -4.404039 1.701056 0.412375
v -4.403889 1.701859 0.412952
v -4.405167 1.701358 0.411767
v -4.403795 1.700066 0.413208
v -4.404619 1.699133 0.413638
v -4.404654 1.699319 0.414620
v -4.403795 1.700066 0.413208
v -4.405890 1.698960 0.413342
v -4.406651 1.699677 0.412542
v -4.407339 1.700037 0.413172
v -4.405890 1.698960 0.413342
v -4.405378 1.702257 0.412148
v -4.406329 1.700744 0.411841
v -4.405167 1.701358 0.411767
v -4.405378 1.702257 0.412148
v -4.406329 1.700744 0.411841
v -4.403566 1.700551 0.414052
v -4.403889 1.701859 0.412952
v -4.404039 1.701056 0.412375
v -4.403795 1.700066 0.413208
v -4.403566 1.700551 0.414052
v -4.404039 1.701056 0.412375
v -4.406333 1.699090 0.414228
v -4.404654 1.699319 0.414620
v -4.404619 1.699133 0.413638
v -4.405890 1.698960 0.413342
v -4.406333 1.699090 0.414228
v -4.404619 1.699133 0.413638
v -4.406914 1.701447 0.412246
v -4.407339 1.700037 0.413172
v -4.406651 1.699677 0.412542
v -4.406329 1.700744 0.411841
v -4.406914 1.701447 0.412246
v -4.406651 1.699677 0.412542
v -4.407339 1.700037 0.413172
v -4.406914 1.701447 0.412246
v -4.407527 1.702435 0.413216
v -4.407339 1.700037 0.413172
v -4.407587 1.703114 0.414574
v -4.407986 1.701789 0.415444
v -4.408018 1.700806 0.414285
v -4.407527 1.702435 0.413216
v -4.407587 1.703114 0.414574
v -4.408018 1.700806 0.414285
v -4.408018 1.700806 0.414285
v -4.406333 1.699090 0.414228
v -4.407339 1.700037 0.413172
v -4.408018 1.700806 0.414285
v -4.406333 1.699090 0.414228
v -4.407986 1.701789 0.415444
v -4.407041 1.700899 0.416437
v -4.406856 1.699712 0.415506
v -4.408018 1.700806 0.414285
v -4.407986 1.701789 0.415444
v -4.406856 1.699712 0.415506
v -4.406856 1.699712 0.415506
v -4.404654 1.699319 0.414620
v -4.406333 1.699090 0.414228
v -4.406856 1.699712 0.415506
v -4.404654 1.699319 0.414620
v -4.407041 1.700899 0.416437
v -4.405462 1.701114 0.416806
v -4.404916 1.699977 0.415958
v -4.406856 1.699712 0.415506
v -4.407041 1.700899 0.416437
v -4.404916 1.699977 0.415958
v -4.404916 1.699977 0.415958
v -4.403566 1.700551 0.414052
v -4.404654 1.699319 0.414620
v -4.404916 1.699977 0.415958
v -4.403566 1.700551 0.414052
v -4.405462 1.701114 0.416806
v -4.404439 1.702272 0.416271
v -4.403659 1.701400 0.415302
v -4.404916 1.699977 0.415958
v -4.405462 1.701114 0.416806
v -4.403659 1.701400 0.415302
v -4.403659 1.701400 0.415302
v -4.403889 1.701859 0.412952
v -4.403566 1.700551 0.414052
v -4.403659 1.701400 0.415302
v -4.403889 1.701859 0.412952
v -4.404439 1.702272 0.416271
v -4.404743 1.703502 0.415237
v -4.404032 1.702911 0.414031
v -4.403659 1.701400 0.415302
v -4.404439 1.702272 0.416271
v -4.404032 1.702911 0.414031
v -4.404032 1.702911 0.414031
v -4.405378 1.702257 0.412148
v -4.403889 1.701859 0.412952
v -4.404032 1.702911 0.414031
v -4.405378 1.702257 0.412148
v -4.404743 1.703502 0.415237
v -4.406143 1.703876 0.414481
v -4.405753 1.703372 0.413102
v -4.404032 1.702911 0.414031
v -4.404743 1.703502 0.415237
v -4.405753 1.703372 0.413102
v -4.405753 1.703372 0.413102
v -4.407527 1.702435 0.413216
v -4.406914 1.701447 0.412246
v -4.405378 1.702257 0.412148
v -4.405753 1.703372 0.413102
v -4.406914 1.701447 0.412246
v -4.406143 1.703876 0.414481
v -4.407587 1.703114 0.414574
v -4.407527 1.702435 0.413216
v -4.405753 1.703372 0.413102
v -4.406143 1.703876 0.414481
v -4.407527 1.702435 0.413216
v -4.407361 1.703430 0.415691
v -4.407621 1.702565 0.416259
v -4.407986 1.701789 0.415444
v -4.407587 1.703114 0.414574
v -4.407361 1.703430 0.415691
v -4.407986 1.701789 0.415444
v -4.407004 1.701984 0.416907
v -4.407621 1.702565 0.416259
v -4.405974 1.702124 0.417148
v -4.407361 1.703430 0.415691
v -4.405974 1.702124 0.417148
v -4.407621 1.702565 0.416259
v -4.405306 1.702880 0.416799
v -4.405974 1.702124 0.417148
v -4.407361 1.703430 0.415691
v -4.406418 1.703927 0.415631
v -4.405306 1.702880 0.416799
v -4.407361 1.703430 0.415691
v -4.405504 1.703683 0.416124
v -4.405306 1.702880 0.416799
v -4.406418 1.703927 0.415631
v -4.404521 1.695689 0.409184
v -4.403162 1.695874 0.409501
v -4.405336 1.696456 0.408328
v -4.404992 1.697597 0.407578
v -4.405336 1.696456 0.408328
v -4.403162 1.695874 0.409501
v -4.402281 1.696872 0.409041
v -4.404992 1.697597 0.407578
v -4.403162 1.695874 0.409501
v -4.403749 1.698254 0.407499
v -4.404992 1.697597 0.407578
v -4.402281 1.696872 0.409041
v -4.402542 1.697931 0.408150
v -4.403749 1.698254 0.407499
v -4.402281 1.696872 0.409041
vn 0.2590 -0.5836 -0.7696
vn -0.1968 0.9338 0.2987
vn 0.3130 0.4537 0.8344
vn 0.2223 0.8217 0.5248
vn -0.6289 0.7057 0.3263
vn -0.1969 0.9338 0.2987
vn -0.6289 0.7057 0.3262
vn 0.0069 0.1070 0.9942
vn -0.7484 0.3091 0.5868
vn 0.0070 0.1070 0.9942
vn -0.7484 0.3092 0.5867
vn -0.4655 0.0427 0.8840
vn -0.9711 -0.0416 0.2350
vn -0.7776 0.6004 -0.1866
vn -0.7452 0.4185 -0.5191
vn -0.0782 0.9697 -0.2314
vn 0.0203 0.8228 -0.5679
vn -0.7453 0.4186 -0.5190
vn -0.7776 0.6004 -0.1867
vn -0.0782 0.9697 -0.2313
vn -0.6054 0.1766 -0.7761
vn 0.0204 0.8228 -0.5680
vn 0.1158 0.5575 -0.8221
vn -0.7452 0.4186 -0.5191
vn 0.6005 0.7882 0.1348
vn 0.7632 0.6241 -0.1672
vn -0.0781 0.9697 -0.2313
vn 0.1159 0.5574 -0.8221
vn 0.8156 0.3703 -0.4446
vn 0.1158 0.5574 -0.8221
vn 0.0204 0.8228 -0.5679
vn 0.7474 0.1925 0.6359
vn 0.9240 -0.0280 0.3813
vn 0.6005 0.7882 0.1347
vn 0.8156 0.3702 -0.4446
vn 0.9671 -0.2440 0.0722
vn 0.2519 -0.3688 0.8947
vn 0.3816 -0.6423 0.6647
vn 0.2519 -0.3688 0.8948
vn 0.9671 -0.2441 0.0722
vn 0.3816 -0.6424 0.6646
vn 0.4561 -0.8228 0.3391
vn 0.3817 -0.6423 0.6647
vn -0.5129 -0.4730 0.7164
vn -0.4555 -0.7564 0.4694
vn 0.2518 -0.3688 0.8947
vn 0.4561 -0.8228 0.3390
vn -0.4556 -0.7564 0.4694
vn -0.3325 -0.9302 0.1552
vn -0.4556 -0.7564 0.4693
vn -0.9711 -0.0417 0.2351
vn -0.9570 -0.2842 -0.0574
vn -0.5129 -0.4730 0.7163
vn -0.3326 -0.9302 0.1551
vn -0.8050 -0.4855 -0.3411
vn -0.9570 -0.2842 -0.0575
vn -0.8049 -0.4855 -0.3412
vn -0.6054 0.1767 -0.7760
vn -0.9570 -0.2843 -0.0574
vn -0.8474 -0.4483 -0.2846
vn -0.6055 0.1766 -0.7760
vn -0.6428 0.2306 -0.7305
vn -0.8050 -0.4854 -0.3411
vn 0.4457 -0.7942 0.4130
vn -0.3629 -0.9044 0.2243
vn 0.4457 -0.7942 0.4129
vn 0.8144 0.4291 -0.3906
vn 0.9697 -0.2008 0.1392
vn 0.8144 0.4291 -0.3907
vn 0.0968 0.6210 -0.7778
vn -0.3630 -0.9044 0.2243
vn -0.3325 -0.9302 0.1551
vn 0.9697 -0.2008 0.1393
vn 0.4562 -0.8228 0.3391
vn 0.4457 -0.7943 0.4129
vn 0.0968 0.6211 -0.7777
vn 0.0069 0.1071 0.9942
vn -0.0781 0.9697 -0.2314
vn -0.5130 -0.4730 0.7164
vn -0.9711 -0.0416 0.2351
vn -0.7408 0.4080 -0.5336
vn 0.0251 0.8125 -0.5825
vn -0.4510 -0.7676 0.4554
vn -0.9527 -0.2952 -0.0717
vn -0.4511 -0.7676 0.4554
vn 0.9293 -0.0388 0.3673
vn 0.3867 -0.6534 0.6508
vn 0.9293 -0.0388 0.3674
vn 0.0252 0.8124 -0.5825
vn 0.7684 0.6137 -0.1816
vn 0.0252 0.8125 -0.5825
vn 0.0968 0.6211 -0.7778
vn -0.7409 0.4080 -0.5336
vn -0.9528 -0.2952 -0.0717
vn 0.3866 -0.6535 0.6508
vn 0.3866 -0.6534 0.6508
vn 0.7684 0.6136 -0.1816
vn 0.9697 -0.2007 0.1393
vn 0.7684 0.6137 -0.1815
vn 0.9697 -0.2007 0.1392
vt 0.543243 0.611839
vt 0.535370 0.618118
vt 0.537796 0.613083
vt 0.537796 0.623154
vt 0.547607 0.615326
vt 0.543243 0.624397
vt 0.547607 0.620918
vt 0.565384 0.671494
vt 0.570206 0.669548
vt 0.567856 0.672157
vt 0.564468 0.669609
vt 0.568146 0.666756
vt 0.564514 0.667854
vt 0.565857 0.666748
vt 0.562897 0.666855
vt 0.562302 0.669838
vt 0.559082 0.669685
vt 0.563492 0.673050
vt 0.560059 0.674789
vt 0.554092 0.669067
vt 0.554398 0.676537
vt 0.567307 0.675606
vt 0.564316 0.680244
vt 0.558044 0.684982
vt 0.575485 0.674767
vt 0.575272 0.686485
vt 0.565720 0.696274
vt 0.575485 0.658051
vt 0.568817 0.663902
vt 0.568115 0.659698
vt 0.574570 0.665543
vt 0.572052 0.651657
vt 0.565903 0.655174
vt 0.565063 0.664742
vt 0.563416 0.661980
vt 0.560669 0.658463
vt 0.560364 0.665283
vt 0.556488 0.662933
vt 0.552032 0.660286
vt 0.548294 0.668175
vt 0.563522 0.651588
vt 0.557617 0.654999
vt 0.551163 0.688484
vt 0.556610 0.699394
vt 0.547867 0.678001
vt 0.568756 0.648293
vt 0.604446 0.682632
vt 0.626221 0.687675
vt 0.604553 0.688225
vt 0.626144 0.682457
vt 0.604553 0.671455
vt 0.626144 0.677231
vt 0.604446 0.677048
vt 0.626221 0.672005
vt 0.605011 0.660294
vt 0.626404 0.666786
vt 0.604736 0.665871
vt 0.626663 0.661568
vt 0.626404 0.692902
vt 0.604736 0.693810
vt 0.626663 0.698120
vt 0.605011 0.699394
s 0
usemtl decorations
f 240/1/1 239/2/1 238/3/1
f 237/1/1 236/4/1 235/2/1
f 234/5/1 233/4/1 232/1/1
f 231/5/1 230/6/1 229/4/1
f 228/6/1 227/5/1 226/7/1
s 1
f 225/8/2 224/9/3 223/10/4
f 222/11/5 221/9/3 220/8/6
f 219/11/7 218/12/8 217/9/3
f 216/13/9 215/12/10 214/11/5
f 213/12/8 212/13/11 211/14/12
f 210/15/13 209/11/5 208/16/14
f 207/15/13 206/13/9 205/11/5
f 204/17/15 203/18/16 202/19/17
f 201/17/18 200/16/19 199/18/20
f 198/20/21 197/19/22 196/21/23
f 195/20/21 194/17/24 193/19/17
f 192/19/17 191/22/25 190/23/26
f 189/19/17 188/18/27 187/22/25
f 186/21/28 185/23/26 184/24/29
f 183/21/30 3/19/31 182/23/26
f 181/23/26 180/25/32 179/26/33
f 178/23/26 177/22/34 176/25/32
f 175/24/35 174/26/33 173/27/36
f 172/24/35 4/23/26 171/26/33
f 170/28/33 169/29/37 168/30/38
f 167/28/33 166/31/32 165/29/39
f 164/32/40 163/30/41 162/33/42
f 161/32/40 13/28/33 160/30/43
f 159/30/38 158/34/44 157/35/45
f 156/30/38 155/29/46 154/34/44
f 153/33/47 152/35/48 151/36/49
f 150/33/47 14/30/38 149/35/48
f 148/35/50 147/15/51 146/37/52
f 145/35/48 144/34/53 143/15/51
f 142/36/54 141/37/52 140/38/55
f 139/36/54 16/35/48 138/37/52
f 137/37/56 136/16/19 135/17/24
f 134/37/52 133/15/51 132/16/14
f 131/38/57 130/17/24 129/20/58
f 128/38/57 36/37/59 25/17/24
f 127/39/60 126/20/61 125/40/62
f 124/39/60 123/38/63 122/20/61
f 121/41/64 120/36/49 119/42/65
f 118/41/66 117/33/47 116/36/49
f 115/43/67 114/27/36 113/44/68
f 112/43/69 111/24/35 110/27/36
f 109/40/62 108/21/23 107/45/70
f 106/40/62 40/20/21 105/21/23
f 104/42/71 103/38/55 102/39/60
f 101/42/65 41/36/72 42/38/55
f 100/46/73 99/33/74 98/41/75
f 97/46/68 37/32/40 38/33/74
f 96/45/76 95/24/29 94/43/69
f 93/45/76 33/21/23 34/24/29
f 92/29/46 91/14/12 90/34/44
f 89/29/46 88/12/77 87/14/12
f 86/22/25 85/9/3 84/25/32
f 83/22/25 82/10/4 81/9/3
f 80/16/19 79/8/6 78/18/20
f 29/16/19 30/11/5 77/8/6
f 76/31/32 75/12/8 28/29/39
f 31/31/32 26/9/3 27/12/77
f 74/18/16 73/10/4 24/22/25
f 21/18/78 22/8/6 23/10/4
f 72/34/79 71/13/9 20/15/80
f 17/34/79 18/14/12 19/13/9
f 70/47/81 69/48/76 68/49/82
f 67/47/81 66/50/62 65/48/76
f 64/51/83 63/52/60 62/53/84
f 61/51/85 60/54/71 59/52/60
f 58/55/86 57/56/66 56/57/87
f 55/55/88 54/58/68 53/56/66
f 52/49/89 51/59/67 50/60/90
f 2/49/91 32/48/92 49/59/69
f 48/53/84 47/50/62 12/47/93
f 9/53/94 10/52/60 11/50/62
f 46/57/95 45/54/71 8/51/83
f 5/57/96 6/56/66 7/54/65
f 44/60/97 43/61/98 15/62/86
f 1/60/99 35/59/69 39/61/100
