# Blender 5.0.0
# www.blender.org
mtllib Circle_005_Circle_003_Dupli_261_decorations_0.mtl
o Circle.005|Circle.003|Dupli|261_decorations_0
v -4.261335 1.273816 0.442266
v -4.262722 1.273590 0.442349
v -4.263787 1.275475 0.434804
v -4.261807 1.275796 0.434685
v -4.261104 1.276215 0.443060
v -4.261770 1.277897 0.437903
v -4.263014 1.278241 0.438165
v -4.262434 1.276582 0.443339
v -4.263604 1.275809 0.443210
v -4.264108 1.277518 0.438044
v -4.264228 1.276273 0.437632
v -4.263732 1.274478 0.442769
v -4.260778 1.277462 0.435136
v -4.261477 1.279219 0.435818
v -4.260614 1.274984 0.442582
v -4.263375 1.279743 0.436216
v -4.263476 1.279810 0.434702
v -4.263497 1.279516 0.433556
v -4.264384 1.278930 0.433458
v -4.264835 1.278912 0.434552
v -4.263812 1.276336 0.433553
v -4.263716 1.277249 0.432806
v -4.262665 1.277419 0.432743
v -4.262200 1.276597 0.433456
v -4.265227 1.276741 0.435404
v -4.262119 1.278304 0.432982
v -4.262489 1.279237 0.433344
v -4.261932 1.279383 0.434377
v -4.264984 1.277366 0.434040
v -4.264482 1.277921 0.433124
v -4.261364 1.277953 0.433823
v -4.263284 1.275444 0.437239
v -4.263529 1.275282 0.436284
v -4.261816 1.275560 0.436181
v -4.261987 1.275654 0.437161
v -4.265044 1.278640 0.436032
v -4.260926 1.277002 0.436571
v -4.261529 1.278522 0.437161
v -4.261313 1.276746 0.437457
v -4.264776 1.276377 0.436803
v -4.263173 1.278976 0.437506
v -4.264617 1.278022 0.437347
v -4.261313 1.276746 0.437457
v -4.261335 1.273816 0.442266
v -4.263014 1.278241 0.438165
v -4.261104 1.276215 0.443060
v -4.264228 1.276273 0.437632
v -4.263604 1.275809 0.443210
v -4.261987 1.275654 0.437161
v -4.261335 1.273816 0.442266
v -4.261987 1.275654 0.437161
v -4.262722 1.273590 0.442349
v -4.261770 1.277897 0.437903
v -4.261313 1.276746 0.437457
v -4.260614 1.274984 0.442582
v -4.261104 1.276215 0.443060
v -4.261770 1.277897 0.437903
v -4.260614 1.274984 0.442582
v -4.264108 1.277518 0.438044
v -4.263014 1.278241 0.438165
v -4.262434 1.276582 0.443339
v -4.263604 1.275809 0.443210
v -4.264108 1.277518 0.438044
v -4.262434 1.276582 0.443339
v -4.263284 1.275444 0.437239
v -4.264228 1.276273 0.437632
v -4.263732 1.274478 0.442769
v -4.262722 1.273590 0.442349
v -4.263284 1.275444 0.437239
v -4.263732 1.274478 0.442769
v -4.264384 1.278930 0.433458
v -4.263476 1.279810 0.434702
v -4.262665 1.277419 0.432743
v -4.263812 1.276336 0.433553
v -4.262489 1.279237 0.433344
v -4.261364 1.277953 0.433823
v -4.263716 1.277249 0.432806
v -4.263812 1.276336 0.433553
v -4.263716 1.277249 0.432806
v -4.264984 1.277366 0.434040
v -4.262119 1.278304 0.432982
v -4.262665 1.277419 0.432743
v -4.262200 1.276597 0.433456
v -4.261364 1.277953 0.433823
v -4.262119 1.278304 0.432982
v -4.262200 1.276597 0.433456
v -4.263497 1.279516 0.433556
v -4.262489 1.279237 0.433344
v -4.261932 1.279383 0.434377
v -4.263476 1.279810 0.434702
v -4.263497 1.279516 0.433556
v -4.261932 1.279383 0.434377
v -4.263284 1.275444 0.437239
v -4.261987 1.275654 0.437161
v -4.261816 1.275560 0.436181
v -4.263284 1.275444 0.437239
v -4.261313 1.276746 0.437457
v -4.261770 1.277897 0.437903
v -4.261529 1.278522 0.437161
v -4.261313 1.276746 0.437457
v -4.263014 1.278241 0.438165
v -4.264108 1.277518 0.438044
v -4.264617 1.278022 0.437347
v -4.263014 1.278241 0.438165
v -4.263529 1.275282 0.436284
v -4.264228 1.276273 0.437632
v -4.263284 1.275444 0.437239
v -4.263529 1.275282 0.436284
v -4.264228 1.276273 0.437632
v -4.260926 1.277002 0.436571
v -4.261816 1.275560 0.436181
v -4.261987 1.275654 0.437161
v -4.261313 1.276746 0.437457
v -4.260926 1.277002 0.436571
v -4.261987 1.275654 0.437161
v -4.263173 1.278976 0.437506
v -4.261529 1.278522 0.437161
v -4.261770 1.277897 0.437903
v -4.263014 1.278241 0.438165
v -4.263173 1.278976 0.437506
v -4.261770 1.277897 0.437903
v -4.264776 1.276377 0.436803
v -4.264617 1.278022 0.437347
v -4.264108 1.277518 0.438044
v -4.264228 1.276273 0.437632
v -4.264776 1.276377 0.436803
v -4.264108 1.277518 0.438044
v -4.264617 1.278022 0.437347
v -4.264776 1.276377 0.436803
v -4.265227 1.276741 0.435404
v -4.264617 1.278022 0.437347
v -4.264984 1.277366 0.434040
v -4.264835 1.278912 0.434552
v -4.265044 1.278640 0.436032
v -4.265227 1.276741 0.435404
v -4.264984 1.277366 0.434040
v -4.265044 1.278640 0.436032
v -4.265044 1.278640 0.436032
v -4.263173 1.278976 0.437506
v -4.264617 1.278022 0.437347
v -4.265044 1.278640 0.436032
v -4.263173 1.278976 0.437506
v -4.264835 1.278912 0.434552
v -4.263476 1.279810 0.434702
v -4.263375 1.279743 0.436216
v -4.265044 1.278640 0.436032
v -4.264835 1.278912 0.434552
v -4.263375 1.279743 0.436216
v -4.263375 1.279743 0.436216
v -4.261529 1.278522 0.437161
v -4.263173 1.278976 0.437506
v -4.263375 1.279743 0.436216
v -4.261529 1.278522 0.437161
v -4.263476 1.279810 0.434702
v -4.261932 1.279383 0.434377
v -4.261477 1.279219 0.435818
v -4.263375 1.279743 0.436216
v -4.263476 1.279810 0.434702
v -4.261477 1.279219 0.435818
v -4.261477 1.279219 0.435818
v -4.260926 1.277002 0.436571
v -4.261529 1.278522 0.437161
v -4.261477 1.279219 0.435818
v -4.260926 1.277002 0.436571
v -4.261932 1.279383 0.434377
v -4.261364 1.277953 0.433823
v -4.260778 1.277462 0.435136
v -4.261477 1.279219 0.435818
v -4.261932 1.279383 0.434377
v -4.260778 1.277462 0.435136
v -4.260778 1.277462 0.435136
v -4.261816 1.275560 0.436181
v -4.260926 1.277002 0.436571
v -4.260778 1.277462 0.435136
v -4.261816 1.275560 0.436181
v -4.261364 1.277953 0.433823
v -4.262200 1.276597 0.433456
v -4.261807 1.275796 0.434685
v -4.260778 1.277462 0.435136
v -4.261364 1.277953 0.433823
v -4.261807 1.275796 0.434685
v -4.261807 1.275796 0.434685
v -4.263529 1.275282 0.436284
v -4.261816 1.275560 0.436181
v -4.261807 1.275796 0.434685
v -4.263529 1.275282 0.436284
v -4.262200 1.276597 0.433456
v -4.263812 1.276336 0.433553
v -4.263787 1.275475 0.434804
v -4.261807 1.275796 0.434685
v -4.262200 1.276597 0.433456
v -4.263787 1.275475 0.434804
v -4.263787 1.275475 0.434804
v -4.265227 1.276741 0.435404
v -4.264776 1.276377 0.436803
v -4.263529 1.275282 0.436284
v -4.263787 1.275475 0.434804
v -4.264776 1.276377 0.436803
v -4.263812 1.276336 0.433553
v -4.264984 1.277366 0.434040
v -4.265227 1.276741 0.435404
v -4.263787 1.275475 0.434804
v -4.263812 1.276336 0.433553
v -4.265227 1.276741 0.435404
v -4.264482 1.277921 0.433124
v -4.264384 1.278930 0.433458
v -4.264835 1.278912 0.434552
v -4.264984 1.277366 0.434040
v -4.264482 1.277921 0.433124
v -4.264835 1.278912 0.434552
v -4.263497 1.279516 0.433556
v -4.264384 1.278930 0.433458
v -4.262489 1.279237 0.433344
v -4.264482 1.277921 0.433124
v -4.262489 1.279237 0.433344
v -4.264384 1.278930 0.433458
v -4.262119 1.278304 0.432982
v -4.262489 1.279237 0.433344
v -4.264482 1.277921 0.433124
v -4.263716 1.277249 0.432806
v -4.262119 1.278304 0.432982
v -4.264482 1.277921 0.433124
v -4.262665 1.277419 0.432743
v -4.262119 1.278304 0.432982
v -4.263716 1.277249 0.432806
v -4.262434 1.276582 0.443339
v -4.261104 1.276215 0.443060
v -4.263604 1.275809 0.443210
v -4.263732 1.274478 0.442769
v -4.263604 1.275809 0.443210
v -4.261104 1.276215 0.443060
v -4.260614 1.274984 0.442582
v -4.263732 1.274478 0.442769
v -4.261104 1.276215 0.443060
v -4.262722 1.273590 0.442349
v -4.263732 1.274478 0.442769
v -4.260614 1.274984 0.442582
v -4.261335 1.273816 0.442266
v -4.262722 1.273590 0.442349
v -4.260614 1.274984 0.442582
vn 0.1087 -0.3216 0.9406
vn -0.2641 -0.2476 -0.9322
vn 0.4684 0.2364 -0.8513
vn 0.2180 -0.1694 -0.9611
vn -0.6150 0.0607 -0.7862
vn -0.6150 0.0606 -0.7862
vn 0.2985 0.6642 -0.6854
vn -0.5703 0.5233 -0.6332
vn -0.5704 0.5232 -0.6332
vn -0.1638 0.7919 -0.5883
vn -0.8224 0.5484 -0.1514
vn -0.8947 -0.2005 -0.3991
vn -0.8224 0.5484 -0.1513
vn -0.9349 -0.3511 -0.0522
vn -0.3267 -0.6997 -0.6354
vn -0.3132 -0.8974 -0.3109
vn -0.9349 -0.3510 -0.0522
vn -0.8947 -0.2006 -0.3991
vn -0.3267 -0.6996 -0.6354
vn -0.8402 -0.4507 0.3017
vn -0.3131 -0.8974 -0.3109
vn -0.2544 -0.9654 0.0579
vn 0.4539 -0.5730 -0.6824
vn 0.5413 -0.7588 -0.3622
vn 0.4539 -0.5730 -0.6823
vn -0.2544 -0.9654 0.0580
vn 0.5413 -0.7588 -0.3623
vn 0.5505 -0.8348 0.0096
vn 0.8593 0.0839 -0.5045
vn 0.9851 -0.0396 -0.1676
vn 0.4540 -0.5730 -0.6823
vn 0.5505 -0.8348 0.0097
vn 0.9685 -0.1573 0.1929
vn 0.9851 -0.0396 -0.1675
vn 0.5842 0.7766 -0.2359
vn 0.6839 0.7185 0.1264
vn 0.8593 0.0840 -0.5045
vn 0.9685 -0.1573 0.1930
vn 0.6839 0.7185 0.1265
vn 0.6849 0.5569 0.4699
vn 0.6840 0.7185 0.1264
vn -0.1642 0.9833 -0.0788
vn -0.1353 0.9448 0.2985
vn 0.6848 0.5569 0.4700
vn -0.0870 0.7701 0.6320
vn -0.1354 0.9448 0.2985
vn -0.8558 0.4687 0.2190
vn -0.1642 0.9833 -0.0787
vn -0.0870 0.7700 0.6321
vn -0.7656 0.3217 0.5571
vn -0.0870 0.7700 0.6320
vn -0.8558 0.4688 0.2189
vn -0.7656 0.3216 0.5571
vn -0.8402 -0.4507 0.3016
vn -0.8558 0.4688 0.2190
vn -0.7943 0.3570 0.4915
vn -0.8707 -0.4349 0.2296
vn 0.6930 0.5983 0.4022
vn -0.0869 0.7701 0.6320
vn -0.0984 0.8169 0.5684
vn 0.5553 -0.8287 -0.0699
vn 0.9839 -0.1340 0.1182
vn -0.8707 -0.4349 0.2295
vn -0.2545 -0.9653 0.0580
vn -0.2701 -0.9626 -0.0202
vn -0.0984 0.8169 0.5683
vn -0.7943 0.3570 0.4916
vn 0.9839 -0.1340 0.1181
vn 0.9839 -0.1341 0.1181
vn 0.6849 0.5569 0.4700
vn -0.2701 -0.9626 -0.0203
vn 0.5842 0.7766 -0.2358
vn -0.1639 0.7919 -0.5883
vn 0.2180 -0.1695 -0.9611
vn -0.1643 0.9833 -0.0787
vn -0.9334 -0.3572 -0.0349
vn -0.3113 -0.9038 -0.2936
vn -0.1334 0.9393 0.3161
vn -0.8542 0.4631 0.2365
vn -0.1335 0.9393 0.3160
vn 0.9876 -0.0456 -0.1502
vn 0.6863 0.7129 0.1439
vn 0.9876 -0.0455 -0.1503
vn 0.9839 -0.1341 0.1182
vn 0.5436 -0.7652 -0.3450
vn -0.3113 -0.9038 -0.2937
vn -0.8542 0.4630 0.2365
vn -0.8542 0.4631 0.2364
vn -0.1334 0.9393 0.3160
vn 0.9876 -0.0456 -0.1503
vn 0.5436 -0.7651 -0.3450
vt 0.530319 0.611839
vt 0.522446 0.618118
vt 0.524872 0.613083
vt 0.524872 0.623154
vt 0.534683 0.615326
vt 0.530319 0.624397
vt 0.534683 0.620918
vt 0.537079 0.671494
vt 0.541916 0.669548
vt 0.539566 0.672157
vt 0.536179 0.669609
vt 0.539856 0.666756
vt 0.536224 0.667854
vt 0.537567 0.666748
vt 0.534592 0.666855
vt 0.534012 0.669838
vt 0.530777 0.669685
vt 0.535187 0.673050
vt 0.531769 0.674789
vt 0.525803 0.669067
vt 0.526108 0.676537
vt 0.539017 0.675606
vt 0.536011 0.680244
vt 0.529755 0.684982
vt 0.547180 0.674767
vt 0.546982 0.686485
vt 0.537415 0.696274
vt 0.547180 0.658051
vt 0.540527 0.663902
vt 0.539825 0.659698
vt 0.546280 0.665543
vt 0.543762 0.651657
vt 0.537613 0.655174
vt 0.536758 0.664742
vt 0.535126 0.661980
vt 0.532364 0.658463
vt 0.532074 0.665283
vt 0.528198 0.662933
vt 0.523743 0.660286
vt 0.519989 0.668175
vt 0.535217 0.651588
vt 0.529327 0.654999
vt 0.522873 0.688484
vt 0.528320 0.699394
vt 0.519577 0.678001
vt 0.540466 0.648293
vt 0.604446 0.642853
vt 0.626221 0.647896
vt 0.604553 0.648445
vt 0.626144 0.642670
vt 0.604553 0.631676
vt 0.626144 0.637444
vt 0.604446 0.637268
vt 0.626221 0.632225
vt 0.605011 0.620506
vt 0.626404 0.626999
vt 0.604736 0.626091
vt 0.626663 0.621780
vt 0.626404 0.653114
vt 0.604736 0.654030
vt 0.626663 0.658333
vt 0.605011 0.659607
s 0
usemtl decorations
f 240/1/1 239/2/1 238/3/1
f 237/1/1 236/4/1 235/2/1
f 234/5/1 233/4/1 232/1/1
f 231/5/1 230/6/1 229/4/1
f 228/6/1 227/5/1 226/7/1
s 1
f 225/8/2 224/9/3 223/10/4
f 222/11/5 221/9/3 220/8/2
f 219/11/6 218/12/7 217/9/3
f 216/13/8 215/12/7 214/11/6
f 213/12/7 212/13/9 211/14/10
f 210/15/11 209/11/6 208/16/12
f 207/15/13 206/13/8 205/11/5
f 204/17/14 203/18/15 202/19/16
f 201/17/17 200/16/18 199/18/19
f 198/20/20 197/19/21 196/21/22
f 195/20/20 194/17/14 193/19/21
f 192/19/21 191/22/23 190/23/24
f 189/19/16 188/18/15 187/22/25
f 186/21/26 185/23/27 184/24/28
f 183/21/26 3/19/21 182/23/27
f 181/23/24 180/25/29 179/26/30
f 178/23/24 177/22/31 176/25/29
f 175/24/32 174/26/30 173/27/33
f 172/24/28 4/23/24 171/26/30
f 170/28/34 169/29/35 168/30/36
f 167/28/34 166/31/37 165/29/35
f 164/32/38 163/30/39 162/33/40
f 161/32/38 13/28/30 160/30/41
f 159/30/36 158/34/42 157/35/43
f 156/30/36 155/29/35 154/34/42
f 153/33/44 152/35/43 151/36/45
f 150/33/44 14/30/39 149/35/43
f 148/35/46 147/15/13 146/37/47
f 145/35/46 144/34/48 143/15/11
f 142/36/49 141/37/47 140/38/50
f 139/36/51 16/35/43 138/37/47
f 137/37/47 136/16/18 135/17/14
f 134/37/52 133/15/11 132/16/12
f 131/38/53 130/17/14 129/20/54
f 128/38/53 36/37/55 25/17/14
f 127/39/56 126/20/54 125/40/57
f 124/39/56 123/38/53 122/20/54
f 121/41/58 120/36/59 119/42/60
f 118/41/58 117/33/44 116/36/59
f 115/43/61 114/27/33 113/44/62
f 112/43/61 111/24/28 110/27/33
f 109/40/63 108/21/64 107/45/65
f 106/40/57 40/20/20 105/21/64
f 104/42/66 103/38/53 102/39/67
f 101/42/60 41/36/59 42/38/53
f 100/46/68 99/33/40 98/41/58
f 97/46/69 37/32/38 38/33/70
f 96/45/71 95/24/28 94/43/61
f 93/45/71 33/21/26 34/24/28
f 92/29/72 91/14/10 90/34/48
f 89/29/72 88/12/7 87/14/73
f 86/22/23 85/9/3 84/25/29
f 83/22/31 82/10/74 81/9/3
f 80/16/18 79/8/2 78/18/19
f 29/16/18 30/11/5 77/8/2
f 76/31/37 75/12/7 28/29/35
f 31/31/37 26/9/3 27/12/7
f 74/18/15 73/10/4 24/22/25
f 21/18/15 22/8/2 23/10/4
f 72/34/42 71/13/8 20/15/11
f 17/34/75 18/14/10 19/13/8
f 70/47/76 69/48/71 68/49/77
f 67/47/76 66/50/57 65/48/71
f 64/51/78 63/52/56 62/53/79
f 61/51/80 60/54/60 59/52/67
f 58/55/81 57/56/58 56/57/82
f 55/55/83 54/58/84 53/56/58
f 52/49/77 51/59/61 50/60/85
f 2/49/86 32/48/71 49/59/61
f 48/53/87 47/50/63 12/47/76
f 9/53/88 10/52/56 11/50/57
f 46/57/82 45/54/60 8/51/89
f 5/57/82 6/56/58 7/54/60
f 44/60/85 43/61/68 15/62/90
f 1/60/91 35/59/61 39/61/69
