# Blender 5.0.0
# www.blender.org
mtllib Circle_005_Circle_004_Dupli_300_decorations_0.mtl
o Circle.005|Circle.004|Dupli|300_decorations_0
v -4.422150 2.127553 0.552837
v -4.421557 2.128375 0.553814
v -4.428528 2.131076 0.556205
v -4.429375 2.129903 0.554810
v -4.422060 2.128997 0.550753
v -4.426936 2.131076 0.552082
v -4.426360 2.132178 0.552514
v -4.421444 2.130177 0.551215
v -4.420991 2.130479 0.552514
v -4.425937 2.132461 0.553728
v -4.425983 2.131712 0.554809
v -4.421041 2.129678 0.553670
v -4.429694 2.130298 0.552866
v -4.429245 2.131963 0.551837
v -4.422374 2.127830 0.551474
v -4.428367 2.133646 0.552496
v -4.429732 2.133891 0.553119
v -4.430703 2.133796 0.553788
v -4.430359 2.134026 0.554771
v -4.429205 2.134242 0.554626
v -4.429863 2.131799 0.556136
v -4.430789 2.132431 0.555757
v -4.431238 2.131808 0.555016
v -4.430552 2.130845 0.555002
v -4.427792 2.132934 0.555999
v -4.431407 2.132018 0.553984
v -4.431169 2.132903 0.553437
v -4.430446 2.132522 0.552582
v -4.429264 2.133312 0.555969
v -4.430398 2.133418 0.555648
v -4.430811 2.131166 0.553420
v -4.426466 2.130494 0.554944
v -4.427218 2.130635 0.555587
v -4.427951 2.129619 0.554380
v -4.427021 2.129725 0.554030
v -4.427721 2.134078 0.554349
v -4.428227 2.129961 0.552697
v -4.427839 2.131403 0.551806
v -4.427229 2.129984 0.552756
v -4.426581 2.132243 0.555409
v -4.427079 2.132859 0.552377
v -4.426519 2.133233 0.553980
v -4.427229 2.129984 0.552756
v -4.422150 2.127553 0.552837
v -4.426360 2.132178 0.552514
v -4.422060 2.128997 0.550753
v -4.425983 2.131712 0.554809
v -4.420991 2.130479 0.552514
v -4.427021 2.129725 0.554030
v -4.422150 2.127553 0.552837
v -4.427021 2.129725 0.554030
v -4.421557 2.128375 0.553814
v -4.426936 2.131076 0.552082
v -4.427229 2.129984 0.552756
v -4.422374 2.127830 0.551474
v -4.422060 2.128997 0.550753
v -4.426936 2.131076 0.552082
v -4.422374 2.127830 0.551474
v -4.425937 2.132461 0.553728
v -4.426360 2.132178 0.552514
v -4.421444 2.130177 0.551215
v -4.420991 2.130479 0.552514
v -4.425937 2.132461 0.553728
v -4.421444 2.130177 0.551215
v -4.426466 2.130494 0.554944
v -4.425983 2.131712 0.554809
v -4.421041 2.129678 0.553670
v -4.421557 2.128375 0.553814
v -4.426466 2.130494 0.554944
v -4.421041 2.129678 0.553670
v -4.430359 2.134026 0.554771
v -4.429732 2.133891 0.553119
v -4.431238 2.131808 0.555016
v -4.429863 2.131799 0.556136
v -4.431169 2.132903 0.553437
v -4.430811 2.131166 0.553420
v -4.430789 2.132431 0.555757
v -4.429863 2.131799 0.556136
v -4.430789 2.132431 0.555757
v -4.429264 2.133312 0.555969
v -4.431407 2.132018 0.553984
v -4.431238 2.131808 0.555016
v -4.430552 2.130845 0.555002
v -4.430811 2.131166 0.553420
v -4.431407 2.132018 0.553984
v -4.430552 2.130845 0.555002
v -4.430703 2.133796 0.553788
v -4.431169 2.132903 0.553437
v -4.430446 2.132522 0.552582
v -4.429732 2.133891 0.553119
v -4.430703 2.133796 0.553788
v -4.430446 2.132522 0.552582
v -4.426466 2.130494 0.554944
v -4.427021 2.129725 0.554030
v -4.427951 2.129619 0.554380
v -4.426466 2.130494 0.554944
v -4.427229 2.129984 0.552756
v -4.426936 2.131076 0.552082
v -4.427839 2.131403 0.551806
v -4.427229 2.129984 0.552756
v -4.426360 2.132178 0.552514
v -4.425937 2.132461 0.553728
v -4.426519 2.133233 0.553980
v -4.426360 2.132178 0.552514
v -4.427218 2.130635 0.555587
v -4.425983 2.131712 0.554809
v -4.426466 2.130494 0.554944
v -4.427218 2.130635 0.555587
v -4.425983 2.131712 0.554809
v -4.428227 2.129961 0.552697
v -4.427951 2.129619 0.554380
v -4.427021 2.129725 0.554030
v -4.427229 2.129984 0.552756
v -4.428227 2.129961 0.552697
v -4.427021 2.129725 0.554030
v -4.427079 2.132859 0.552377
v -4.427839 2.131403 0.551806
v -4.426936 2.131076 0.552082
v -4.426360 2.132178 0.552514
v -4.427079 2.132859 0.552377
v -4.426936 2.131076 0.552082
v -4.426581 2.132243 0.555409
v -4.426519 2.133233 0.553980
v -4.425937 2.132461 0.553728
v -4.425983 2.131712 0.554809
v -4.426581 2.132243 0.555409
v -4.425937 2.132461 0.553728
v -4.426519 2.133233 0.553980
v -4.426581 2.132243 0.555409
v -4.427792 2.132934 0.555999
v -4.426519 2.133233 0.553980
v -4.429264 2.133312 0.555969
v -4.429205 2.134242 0.554626
v -4.427721 2.134078 0.554349
v -4.427792 2.132934 0.555999
v -4.429264 2.133312 0.555969
v -4.427721 2.134078 0.554349
v -4.427721 2.134078 0.554349
v -4.427079 2.132859 0.552377
v -4.426519 2.133233 0.553980
v -4.427721 2.134078 0.554349
v -4.427079 2.132859 0.552377
v -4.429205 2.134242 0.554626
v -4.429732 2.133891 0.553119
v -4.428367 2.133646 0.552496
v -4.427721 2.134078 0.554349
v -4.429205 2.134242 0.554626
v -4.428367 2.133646 0.552496
v -4.428367 2.133646 0.552496
v -4.427839 2.131403 0.551806
v -4.427079 2.132859 0.552377
v -4.428367 2.133646 0.552496
v -4.427839 2.131403 0.551806
v -4.429732 2.133891 0.553119
v -4.430446 2.132522 0.552582
v -4.429245 2.131963 0.551837
v -4.428367 2.133646 0.552496
v -4.429732 2.133891 0.553119
v -4.429245 2.131963 0.551837
v -4.429245 2.131963 0.551837
v -4.428227 2.129961 0.552697
v -4.427839 2.131403 0.551806
v -4.429245 2.131963 0.551837
v -4.428227 2.129961 0.552697
v -4.430446 2.132522 0.552582
v -4.430811 2.131166 0.553420
v -4.429694 2.130298 0.552866
v -4.429245 2.131963 0.551837
v -4.430446 2.132522 0.552582
v -4.429694 2.130298 0.552866
v -4.429694 2.130298 0.552866
v -4.427951 2.129619 0.554380
v -4.428227 2.129961 0.552697
v -4.429694 2.130298 0.552866
v -4.427951 2.129619 0.554380
v -4.430811 2.131166 0.553420
v -4.430552 2.130845 0.555002
v -4.429375 2.129903 0.554810
v -4.429694 2.130298 0.552866
v -4.430811 2.131166 0.553420
v -4.429375 2.129903 0.554810
v -4.429375 2.129903 0.554810
v -4.427218 2.130635 0.555587
v -4.427951 2.129619 0.554380
v -4.429375 2.129903 0.554810
v -4.427218 2.130635 0.555587
v -4.430552 2.130845 0.555002
v -4.429863 2.131799 0.556136
v -4.428528 2.131076 0.556205
v -4.429375 2.129903 0.554810
v -4.430552 2.130845 0.555002
v -4.428528 2.131076 0.556205
v -4.428528 2.131076 0.556205
v -4.427792 2.132934 0.555999
v -4.426581 2.132243 0.555409
v -4.427218 2.130635 0.555587
v -4.428528 2.131076 0.556205
v -4.426581 2.132243 0.555409
v -4.429863 2.131799 0.556136
v -4.429264 2.133312 0.555969
v -4.427792 2.132934 0.555999
v -4.428528 2.131076 0.556205
v -4.429863 2.131799 0.556136
v -4.427792 2.132934 0.555999
v -4.430398 2.133418 0.555648
v -4.430359 2.134026 0.554771
v -4.429205 2.134242 0.554626
v -4.429264 2.133312 0.555969
v -4.430398 2.133418 0.555648
v -4.429205 2.134242 0.554626
v -4.430703 2.133796 0.553788
v -4.430359 2.134026 0.554771
v -4.431169 2.132903 0.553437
v -4.430398 2.133418 0.555648
v -4.431169 2.132903 0.553437
v -4.430359 2.134026 0.554771
v -4.431407 2.132018 0.553984
v -4.431169 2.132903 0.553437
v -4.430398 2.133418 0.555648
v -4.430789 2.132431 0.555757
v -4.431407 2.132018 0.553984
v -4.430398 2.133418 0.555648
v -4.431238 2.131808 0.555016
v -4.431407 2.132018 0.553984
v -4.430789 2.132431 0.555757
v -4.421444 2.130177 0.551215
v -4.422060 2.128997 0.550753
v -4.420991 2.130479 0.552514
v -4.421041 2.129678 0.553670
v -4.420991 2.130479 0.552514
v -4.422060 2.128997 0.550753
v -4.422374 2.127830 0.551474
v -4.421041 2.129678 0.553670
v -4.422060 2.128997 0.550753
v -4.421557 2.128375 0.553814
v -4.421041 2.129678 0.553670
v -4.422374 2.127830 0.551474
v -4.422150 2.127553 0.552837
v -4.421557 2.128375 0.553814
v -4.422374 2.127830 0.551474
vn 0.8972 -0.3802 -0.2245
vn -0.7054 0.0925 0.7027
vn -0.9892 -0.0970 -0.1103
vn -0.9115 -0.1932 0.3632
vn -0.5261 0.5451 0.6527
vn -0.7054 0.0926 0.7027
vn -0.5261 0.5450 0.6528
vn -0.8800 0.3087 -0.3611
vn -0.5086 0.8236 0.2508
vn -0.8799 0.3087 -0.3611
vn -0.5086 0.8236 0.2509
vn -0.6661 0.7184 -0.2004
vn 0.0100 0.9802 0.1976
vn -0.0184 0.5293 0.8482
vn -0.5087 0.8236 0.2508
vn -0.5262 0.5451 0.6527
vn 0.3469 0.4238 0.8367
vn -0.3086 -0.2034 0.9292
vn 0.0291 -0.3781 0.9253
vn 0.3468 0.4239 0.8367
vn -0.0184 0.5293 0.8483
vn -0.3086 -0.2033 0.9292
vn 0.6614 0.2575 0.7045
vn 0.3621 -0.4980 0.7880
vn -0.6422 -0.6660 0.3795
vn -0.3361 -0.8845 0.3236
vn 0.3621 -0.4981 0.7879
vn 0.0181 -0.9751 0.2211
vn -0.7680 -0.5103 -0.3870
vn -0.4737 -0.7141 -0.5155
vn -0.6422 -0.6660 0.3794
vn 0.0181 -0.9751 0.2210
vn -0.1116 -0.8145 -0.5693
vn -0.4737 -0.7140 -0.5155
vn -0.5912 0.1465 -0.7931
vn -0.2802 0.0049 -0.9599
vn -0.7680 -0.5103 -0.3871
vn -0.1116 -0.8145 -0.5694
vn 0.0706 -0.1372 -0.9880
vn -0.2803 0.0049 -0.9599
vn -0.2451 0.8099 -0.5329
vn 0.0988 0.7310 -0.6751
vn -0.5912 0.1466 -0.7931
vn -0.2450 0.8099 -0.5329
vn 0.0707 -0.1372 -0.9880
vn 0.0988 0.7311 -0.6751
vn 0.4277 0.5469 -0.7197
vn 0.0100 0.9802 0.1975
vn 0.3778 0.9175 0.1244
vn 0.0099 0.9803 0.1975
vn 0.6905 0.7225 0.0335
vn 0.3778 0.9175 0.1245
vn -0.0183 0.5293 0.8482
vn 0.6906 0.7225 0.0335
vn 0.6321 0.7731 0.0534
vn 0.6021 0.2962 0.7414
vn -0.0036 -0.1084 -0.9941
vn 0.4277 0.5469 -0.7198
vn 0.3625 0.5930 -0.7190
vn -0.0575 -0.9676 0.2457
vn -0.1905 -0.8030 -0.5648
vn 0.6021 0.2963 0.7414
vn 0.2953 -0.4784 0.8270
vn 0.6614 0.2575 0.7044
vn 0.2952 -0.4784 0.8270
vn -0.8800 0.3087 -0.3610
vn -0.6661 0.7185 -0.2004
vn -0.9114 -0.1932 0.3632
vn -0.0183 0.5292 0.8483
vn -0.7680 -0.5102 -0.3870
vn 0.0099 0.9802 0.1975
vn 0.3636 0.4170 0.8330
vn 0.0457 -0.3853 0.9217
vn 0.3636 0.4171 0.8330
vn 0.1154 0.7244 -0.6796
vn 0.3946 0.9109 0.1203
vn 0.1154 0.7245 -0.6796
vn -0.4574 -0.7214 -0.5199
vn -0.2638 -0.0022 -0.9646
vn 0.0457 -0.3854 0.9216
vn -0.3196 -0.8920 0.3196
vn 0.0457 -0.3853 0.9216
vn 0.3946 0.9109 0.1204
vn 0.3946 0.9110 0.1204
vn -0.2638 -0.0021 -0.9646
vn -0.1905 -0.8030 -0.5647
vn -0.4574 -0.7215 -0.5199
vn -0.3197 -0.8920 0.3196
vt 0.530319 0.635056
vt 0.522446 0.641335
vt 0.524872 0.636299
vt 0.524872 0.646370
vt 0.534683 0.638535
vt 0.530319 0.647614
vt 0.534683 0.644127
vt 0.508789 0.671494
vt 0.513626 0.669548
vt 0.511276 0.672157
vt 0.507889 0.669609
vt 0.511566 0.666756
vt 0.507935 0.667854
vt 0.509277 0.666748
vt 0.506302 0.666855
vt 0.505722 0.669838
vt 0.502487 0.669685
vt 0.506897 0.673050
vt 0.503479 0.674789
vt 0.497520 0.669067
vt 0.497810 0.676537
vt 0.510727 0.675606
vt 0.507721 0.680244
vt 0.501465 0.684982
vt 0.518890 0.674767
vt 0.518692 0.686485
vt 0.509125 0.696274
vt 0.518890 0.658051
vt 0.512238 0.663902
vt 0.511536 0.659698
vt 0.517990 0.665543
vt 0.515472 0.651657
vt 0.509323 0.655174
vt 0.508469 0.664742
vt 0.506836 0.661980
vt 0.504074 0.658463
vt 0.503784 0.665283
vt 0.499901 0.662933
vt 0.495453 0.660286
vt 0.491707 0.668175
vt 0.506927 0.651588
vt 0.501038 0.654999
vt 0.494583 0.688484
vt 0.500031 0.699394
vt 0.491287 0.678001
vt 0.512177 0.648293
vt 0.627350 0.642853
vt 0.649124 0.647896
vt 0.627441 0.648445
vt 0.649033 0.642670
vt 0.627441 0.631676
vt 0.649033 0.637444
vt 0.627350 0.637268
vt 0.649124 0.632225
vt 0.627914 0.620506
vt 0.649292 0.626999
vt 0.627625 0.626091
vt 0.649551 0.621780
vt 0.649292 0.653114
vt 0.627625 0.654030
vt 0.649551 0.658333
vt 0.627914 0.659607
s 0
usemtl decorations
f 240/1/1 239/2/1 238/3/1
f 237/1/1 236/4/1 235/2/1
f 234/5/1 233/4/1 232/1/1
f 231/5/1 230/6/1 229/4/1
f 228/6/1 227/5/1 226/7/1
s 1
f 225/8/2 224/9/3 223/10/4
f 222/11/5 221/9/3 220/8/6
f 219/11/7 218/12/8 217/9/3
f 216/13/9 215/12/8 214/11/5
f 213/12/10 212/13/11 211/14/12
f 210/15/13 209/11/5 208/16/14
f 207/15/13 206/13/15 205/11/16
f 204/17/17 203/18/18 202/19/19
f 201/17/20 200/16/21 199/18/22
f 198/20/23 197/19/19 196/21/24
f 195/20/23 194/17/20 193/19/19
f 192/19/19 191/22/25 190/23/26
f 189/19/19 188/18/18 187/22/25
f 186/21/27 185/23/26 184/24/28
f 183/21/27 3/19/19 182/23/26
f 181/23/26 180/25/29 179/26/30
f 178/23/26 177/22/31 176/25/29
f 175/24/32 174/26/30 173/27/33
f 172/24/32 4/23/26 171/26/30
f 170/28/34 169/29/35 168/30/36
f 167/28/34 166/31/37 165/29/35
f 164/32/38 163/30/36 162/33/39
f 161/32/38 13/28/34 160/30/40
f 159/30/36 158/34/41 157/35/42
f 156/30/36 155/29/43 154/34/44
f 153/33/45 152/35/46 151/36/47
f 150/33/45 14/30/36 149/35/46
f 148/35/46 147/15/48 146/37/49
f 145/35/46 144/34/44 143/15/50
f 142/36/47 141/37/49 140/38/51
f 139/36/47 16/35/46 138/37/49
f 137/37/52 136/16/53 135/17/20
f 134/37/49 133/15/48 132/16/14
f 131/38/54 130/17/20 129/20/23
f 128/38/54 36/37/49 25/17/20
f 127/39/55 126/20/23 125/40/56
f 124/39/55 123/38/54 122/20/23
f 121/41/57 120/36/58 119/42/59
f 118/41/57 117/33/45 116/36/58
f 115/43/60 114/27/33 113/44/61
f 112/43/60 111/24/28 110/27/33
f 109/40/62 108/21/24 107/45/63
f 106/40/62 40/20/64 105/21/24
f 104/42/59 103/38/51 102/39/55
f 101/42/59 41/36/47 42/38/51
f 100/46/61 99/33/45 98/41/57
f 97/46/61 37/32/38 38/33/45
f 96/45/65 95/24/28 94/43/60
f 93/45/65 33/21/24 34/24/28
f 92/29/43 91/14/12 90/34/44
f 89/29/43 88/12/66 87/14/67
f 86/22/31 85/9/3 84/25/29
f 83/22/31 82/10/68 81/9/3
f 80/16/21 79/8/2 78/18/22
f 29/16/69 30/11/5 77/8/6
f 76/31/70 75/12/8 28/29/35
f 31/31/37 26/9/3 27/12/66
f 74/18/18 73/10/4 24/22/25
f 21/18/18 22/8/6 23/10/4
f 72/34/44 71/13/15 20/15/71
f 17/34/44 18/14/12 19/13/15
f 70/47/72 69/48/65 68/49/73
f 67/47/74 66/50/62 65/48/65
f 64/51/75 63/52/55 62/53/76
f 61/51/77 60/54/59 59/52/55
f 58/55/78 57/56/57 56/57/79
f 55/55/78 54/58/61 53/56/57
f 52/49/80 51/59/60 50/60/81
f 2/49/82 32/48/63 49/59/60
f 48/53/83 47/50/56 12/47/74
f 9/53/84 10/52/55 11/50/56
f 46/57/85 45/54/59 8/51/75
f 5/57/85 6/56/57 7/54/59
f 44/60/81 43/61/86 15/62/87
f 1/60/88 35/59/60 39/61/86
