# Blender 5.0.0
# www.blender.org
mtllib Circle_002_Circle_001_Dupli_278_decorations_0.mtl
o Circle.002|Circle.001|Dupli|278_decorations_0
v -4.331324 1.643031 0.765456
v -4.331595 1.644049 0.766390
v -4.335939 1.648048 0.761218
v -4.335551 1.646595 0.759886
v -4.329097 1.643747 0.764471
v -4.331791 1.646617 0.760681
v -4.331531 1.647735 0.761327
v -4.328819 1.644942 0.765162
v -4.329587 1.645582 0.766154
v -4.332249 1.648333 0.762254
v -4.333404 1.647962 0.762765
v -4.330822 1.645185 0.766701
v -4.333965 1.646403 0.758667
v -4.332375 1.647616 0.758480
v -4.330212 1.642896 0.764602
v -4.331978 1.649322 0.759466
v -4.333046 1.649883 0.758542
v -4.334079 1.650098 0.758007
v -4.334661 1.650583 0.758759
v -4.333938 1.650627 0.759694
v -4.336269 1.648847 0.759968
v -4.336183 1.649422 0.758938
v -4.335977 1.648650 0.758230
v -4.335954 1.647664 0.758884
v -4.334836 1.649668 0.761661
v -4.335135 1.648548 0.757583
v -4.334290 1.649193 0.757484
v -4.333369 1.648496 0.757740
v -4.335372 1.650165 0.760329
v -4.335597 1.650282 0.759173
v -4.334663 1.647508 0.757893
v -4.334126 1.646900 0.762475
v -4.334962 1.647307 0.762106
v -4.334626 1.646049 0.760953
v -4.333872 1.645948 0.761602
v -4.333073 1.650235 0.760881
v -4.333253 1.645883 0.759899
v -4.331877 1.646934 0.759737
v -4.332833 1.645822 0.760804
v -4.334007 1.648710 0.762490
v -4.331533 1.648410 0.760590
v -4.332481 1.649200 0.761815
v -4.332833 1.645822 0.760804
v -4.331324 1.643031 0.765456
v -4.331531 1.647735 0.761327
v -4.329097 1.643747 0.764471
v -4.333404 1.647962 0.762765
v -4.329587 1.645582 0.766154
v -4.333872 1.645948 0.761602
v -4.331324 1.643031 0.765456
v -4.333872 1.645948 0.761602
v -4.331595 1.644049 0.766390
v -4.331791 1.646617 0.760681
v -4.332833 1.645822 0.760804
v -4.330212 1.642896 0.764602
v -4.329097 1.643747 0.764471
v -4.331791 1.646617 0.760681
v -4.330212 1.642896 0.764602
v -4.332249 1.648333 0.762254
v -4.331531 1.647735 0.761327
v -4.328819 1.644942 0.765162
v -4.329587 1.645582 0.766154
v -4.332249 1.648333 0.762254
v -4.328819 1.644942 0.765162
v -4.334126 1.646900 0.762475
v -4.333404 1.647962 0.762765
v -4.330822 1.645185 0.766701
v -4.331595 1.644049 0.766390
v -4.334126 1.646900 0.762475
v -4.330822 1.645185 0.766701
v -4.334661 1.650583 0.758759
v -4.333046 1.649883 0.758542
v -4.335977 1.648650 0.758230
v -4.336269 1.648847 0.759968
v -4.334290 1.649193 0.757484
v -4.334663 1.647508 0.757893
v -4.336183 1.649422 0.758938
v -4.336269 1.648847 0.759968
v -4.336183 1.649422 0.758938
v -4.335372 1.650165 0.760329
v -4.335135 1.648548 0.757583
v -4.335977 1.648650 0.758230
v -4.335954 1.647664 0.758884
v -4.334663 1.647508 0.757893
v -4.335135 1.648548 0.757583
v -4.335954 1.647664 0.758884
v -4.334079 1.650098 0.758007
v -4.334290 1.649193 0.757484
v -4.333369 1.648496 0.757740
v -4.333046 1.649883 0.758542
v -4.334079 1.650098 0.758007
v -4.333369 1.648496 0.757740
v -4.334126 1.646900 0.762475
v -4.333872 1.645948 0.761602
v -4.334626 1.646049 0.760953
v -4.334126 1.646900 0.762475
v -4.332833 1.645822 0.760804
v -4.331791 1.646617 0.760681
v -4.331877 1.646934 0.759737
v -4.332833 1.645822 0.760804
v -4.331531 1.647735 0.761327
v -4.332249 1.648333 0.762254
v -4.332481 1.649200 0.761815
v -4.331531 1.647735 0.761327
v -4.334962 1.647307 0.762106
v -4.333404 1.647962 0.762765
v -4.334126 1.646900 0.762475
v -4.334962 1.647307 0.762106
v -4.333404 1.647962 0.762765
v -4.333253 1.645883 0.759899
v -4.334626 1.646049 0.760953
v -4.333872 1.645948 0.761602
v -4.332833 1.645822 0.760804
v -4.333253 1.645883 0.759899
v -4.333872 1.645948 0.761602
v -4.331533 1.648410 0.760590
v -4.331877 1.646934 0.759737
v -4.331791 1.646617 0.760681
v -4.331531 1.647735 0.761327
v -4.331533 1.648410 0.760590
v -4.331791 1.646617 0.760681
v -4.334007 1.648710 0.762490
v -4.332481 1.649200 0.761815
v -4.332249 1.648333 0.762254
v -4.333404 1.647962 0.762765
v -4.334007 1.648710 0.762490
v -4.332249 1.648333 0.762254
v -4.332481 1.649200 0.761815
v -4.334007 1.648710 0.762490
v -4.334836 1.649668 0.761661
v -4.332481 1.649200 0.761815
v -4.335372 1.650165 0.760329
v -4.333938 1.650627 0.759694
v -4.333073 1.650235 0.760881
v -4.334836 1.649668 0.761661
v -4.335372 1.650165 0.760329
v -4.333073 1.650235 0.760881
v -4.333073 1.650235 0.760881
v -4.331533 1.648410 0.760590
v -4.332481 1.649200 0.761815
v -4.333073 1.650235 0.760881
v -4.331533 1.648410 0.760590
v -4.333938 1.650627 0.759694
v -4.333046 1.649883 0.758542
v -4.331978 1.649322 0.759466
v -4.333073 1.650235 0.760881
v -4.333938 1.650627 0.759694
v -4.331978 1.649322 0.759466
v -4.331978 1.649322 0.759466
v -4.331877 1.646934 0.759737
v -4.331533 1.648410 0.760590
v -4.331978 1.649322 0.759466
v -4.331877 1.646934 0.759737
v -4.333046 1.649883 0.758542
v -4.333369 1.648496 0.757740
v -4.332375 1.647616 0.758480
v -4.331978 1.649322 0.759466
v -4.333046 1.649883 0.758542
v -4.332375 1.647616 0.758480
v -4.332375 1.647616 0.758480
v -4.333253 1.645883 0.759899
v -4.331877 1.646934 0.759737
v -4.332375 1.647616 0.758480
v -4.333253 1.645883 0.759899
v -4.333369 1.648496 0.757740
v -4.334663 1.647508 0.757893
v -4.333965 1.646403 0.758667
v -4.332375 1.647616 0.758480
v -4.333369 1.648496 0.757740
v -4.333965 1.646403 0.758667
v -4.333965 1.646403 0.758667
v -4.334626 1.646049 0.760953
v -4.333253 1.645883 0.759899
v -4.333965 1.646403 0.758667
v -4.334626 1.646049 0.760953
v -4.334663 1.647508 0.757893
v -4.335954 1.647664 0.758884
v -4.335551 1.646595 0.759886
v -4.333965 1.646403 0.758667
v -4.334663 1.647508 0.757893
v -4.335551 1.646595 0.759886
v -4.335551 1.646595 0.759886
v -4.334962 1.647307 0.762106
v -4.334626 1.646049 0.760953
v -4.335551 1.646595 0.759886
v -4.334962 1.647307 0.762106
v -4.335954 1.647664 0.758884
v -4.336269 1.648847 0.759968
v -4.335939 1.648048 0.761218
v -4.335551 1.646595 0.759886
v -4.335954 1.647664 0.758884
v -4.335939 1.648048 0.761218
v -4.335939 1.648048 0.761218
v -4.334836 1.649668 0.761661
v -4.334007 1.648710 0.762490
v -4.334962 1.647307 0.762106
v -4.335939 1.648048 0.761218
v -4.334007 1.648710 0.762490
v -4.336269 1.648847 0.759968
v -4.335372 1.650165 0.760329
v -4.334836 1.649668 0.761661
v -4.335939 1.648048 0.761218
v -4.336269 1.648847 0.759968
v -4.334836 1.649668 0.761661
v -4.335597 1.650282 0.759173
v -4.334661 1.650583 0.758759
v -4.333938 1.650627 0.759694
v -4.335372 1.650165 0.760329
v -4.335597 1.650282 0.759173
v -4.333938 1.650627 0.759694
v -4.334079 1.650098 0.758007
v -4.334661 1.650583 0.758759
v -4.334290 1.649193 0.757484
v -4.335597 1.650282 0.759173
v -4.334290 1.649193 0.757484
v -4.334661 1.650583 0.758759
v -4.335135 1.648548 0.757583
v -4.334290 1.649193 0.757484
v -4.335597 1.650282 0.759173
v -4.336183 1.649422 0.758938
v -4.335135 1.648548 0.757583
v -4.335597 1.650282 0.759173
v -4.335977 1.648650 0.758230
v -4.335135 1.648548 0.757583
v -4.336183 1.649422 0.758938
v -4.328819 1.644942 0.765162
v -4.329097 1.643747 0.764471
v -4.329587 1.645582 0.766154
v -4.330822 1.645185 0.766701
v -4.329587 1.645582 0.766154
v -4.329097 1.643747 0.764471
v -4.330212 1.642896 0.764602
v -4.330822 1.645185 0.766701
v -4.329097 1.643747 0.764471
v -4.331595 1.644049 0.766390
v -4.330822 1.645185 0.766701
v -4.330212 1.642896 0.764602
v -4.331324 1.643031 0.765456
v -4.331595 1.644049 0.766390
v -4.330212 1.642896 0.764602
vn 0.4799 -0.5199 0.7067
vn -0.8783 0.3754 -0.2960
vn -0.3976 -0.0253 -0.9172
vn -0.7839 0.0215 -0.6205
vn -0.6097 0.7700 -0.1881
vn -0.6098 0.7699 -0.1881
vn -0.0103 0.2703 -0.9627
vn -0.1804 0.9080 -0.3781
vn -0.6097 0.7699 -0.1881
vn -0.1805 0.9080 -0.3780
vn 0.0863 0.6857 -0.7228
vn 0.1536 0.9871 0.0444
vn -0.6097 0.7699 -0.1882
vn -0.5414 0.7636 0.3518
vn -0.6097 0.7700 -0.1882
vn -0.3964 0.6232 0.6742
vn -0.9762 0.1249 0.1772
vn -0.8723 -0.0759 0.4830
vn -0.3964 0.6233 0.6741
vn -0.5414 0.7636 0.3519
vn -0.1944 0.3932 0.8987
vn -0.8723 -0.0760 0.4830
vn -0.6428 -0.2654 0.7185
vn -0.8724 -0.0759 0.4829
vn -0.8234 -0.4481 -0.3481
vn -0.7051 -0.7031 -0.0920
vn -0.9762 0.1248 0.1772
vn -0.6428 -0.2655 0.7186
vn -0.4853 -0.8563 0.1769
vn -0.6428 -0.2655 0.7185
vn -0.1981 -0.5239 -0.8284
vn -0.0205 -0.7860 -0.6178
vn -0.1981 -0.5239 -0.8285
vn -0.4852 -0.8563 0.1769
vn 0.1596 -0.9344 -0.3185
vn 0.4290 -0.0454 -0.9022
vn 0.6658 -0.2623 -0.6985
vn -0.1980 -0.5239 -0.8285
vn 0.4289 -0.0454 -0.9022
vn 0.1597 -0.9344 -0.3184
vn 0.8062 -0.4410 -0.3945
vn 0.6657 -0.2623 -0.6986
vn 0.5855 0.6271 -0.5138
vn 0.8371 0.4738 -0.2733
vn 0.4290 -0.0453 -0.9022
vn 0.8062 -0.4410 -0.3944
vn 0.9676 0.2525 0.0061
vn 0.1537 0.9871 0.0444
vn 0.3644 0.8679 0.3376
vn 0.5855 0.6271 -0.5137
vn 0.1536 0.9871 0.0443
vn 0.9676 0.2525 0.0062
vn 0.5223 0.6237 0.5815
vn -0.3964 0.6232 0.6741
vn 0.3644 0.8679 0.3375
vn 0.5223 0.6237 0.5816
vn 0.4948 0.6836 0.5365
vn -0.2400 0.4472 0.8616
vn 0.7860 -0.4081 -0.4644
vn 0.9676 0.2524 0.0061
vn 0.9515 0.3029 -0.0536
vn -0.5383 -0.8340 0.1215
vn 0.1596 -0.9344 -0.3184
vn 0.1230 -0.9141 -0.3864
vn -0.2401 0.4473 0.8616
vn -0.6428 -0.2654 0.7186
vn -0.6998 -0.2281 0.6770
vn -0.2400 0.4473 0.8616
vn 0.9515 0.3030 -0.0537
vn 0.4949 0.6836 0.5365
vn 0.9515 0.3029 -0.0537
vn -0.6998 -0.2281 0.6769
vn -0.5382 -0.8340 0.1215
vn -0.0104 0.2703 -0.9627
vn -0.7840 0.0215 -0.6204
vn -0.3977 -0.0253 -0.9172
vn -0.8783 0.3754 -0.2961
vn -0.1981 -0.5238 -0.8285
vn -0.1980 -0.5238 -0.8285
vn -0.3977 -0.0252 -0.9172
vn -0.3877 0.6139 0.6876
vn -0.8639 -0.0856 0.4963
vn -0.3877 0.6140 0.6875
vn 0.8464 0.4645 -0.2604
vn 0.3735 0.8587 0.3508
vn -0.0116 -0.7961 -0.6051
vn 0.6750 -0.2721 -0.6858
vn -0.0116 -0.7960 -0.6051
vn -0.6966 -0.7131 -0.0789
vn -0.8640 -0.0856 0.4962
vn -0.3877 0.6140 0.6876
vn 0.3734 0.8588 0.3508
vn 0.6750 -0.2720 -0.6858
vn 0.9515 0.3030 -0.0536
vn 0.6750 -0.2720 -0.6859
vn -0.6966 -0.7131 -0.0790
vn -0.0117 -0.7961 -0.6051
vt 0.543243 0.635056
vt 0.535370 0.641335
vt 0.537796 0.636299
vt 0.537796 0.646370
vt 0.547607 0.638535
vt 0.543243 0.647614
vt 0.547607 0.644127
vt 0.593674 0.671494
vt 0.598511 0.669548
vt 0.596146 0.672157
vt 0.592773 0.669609
vt 0.596436 0.666756
vt 0.592804 0.667854
vt 0.594147 0.666748
vt 0.591187 0.666855
vt 0.590591 0.669838
vt 0.587372 0.669685
vt 0.591782 0.673050
vt 0.588348 0.674789
vt 0.582382 0.669067
vt 0.582687 0.676537
vt 0.595596 0.675606
vt 0.592606 0.680244
vt 0.586334 0.684982
vt 0.603775 0.674767
vt 0.603561 0.686485
vt 0.594009 0.696274
vt 0.603775 0.658051
vt 0.597107 0.663902
vt 0.596405 0.659698
vt 0.602859 0.665543
vt 0.600342 0.651657
vt 0.594193 0.655174
vt 0.593353 0.664742
vt 0.591705 0.661980
vt 0.588959 0.658463
vt 0.588654 0.665283
vt 0.584778 0.662933
vt 0.580322 0.660286
vt 0.576584 0.668175
vt 0.591812 0.651588
vt 0.585907 0.654999
vt 0.579453 0.688484
vt 0.584915 0.699394
vt 0.576157 0.678001
vt 0.597061 0.648293
vt 0.627350 0.682632
vt 0.649124 0.687675
vt 0.627441 0.688225
vt 0.649033 0.682457
vt 0.627441 0.671455
vt 0.649033 0.677231
vt 0.627350 0.677048
vt 0.649124 0.672005
vt 0.627914 0.660294
vt 0.649292 0.666786
vt 0.627625 0.665871
vt 0.649551 0.661568
vt 0.649292 0.692902
vt 0.627625 0.693810
vt 0.649551 0.698120
vt 0.627914 0.699394
s 0
usemtl decorations
f 240/1/1 239/2/1 238/3/1
f 237/1/1 236/4/1 235/2/1
f 234/5/1 233/4/1 232/1/1
f 231/5/1 230/6/1 229/4/1
f 228/6/1 227/5/1 226/7/1
s 1
f 225/8/2 224/9/3 223/10/4
f 222/11/5 221/9/3 220/8/2
f 219/11/6 218/12/7 217/9/3
f 216/13/8 215/12/7 214/11/9
f 213/12/7 212/13/10 211/14/11
f 210/15/12 209/11/13 208/16/14
f 207/15/12 206/13/8 205/11/15
f 204/17/16 203/18/17 202/19/18
f 201/17/19 200/16/20 199/18/17
f 198/20/21 197/19/22 196/21/23
f 195/20/21 194/17/19 193/19/24
f 192/19/18 191/22/25 190/23/26
f 189/19/18 188/18/27 187/22/25
f 186/21/28 185/23/26 184/24/29
f 183/21/30 3/19/18 182/23/26
f 181/23/26 180/25/31 179/26/32
f 178/23/26 177/22/25 176/25/33
f 175/24/34 174/26/32 173/27/35
f 172/24/34 4/23/26 171/26/32
f 170/28/32 169/29/36 168/30/37
f 167/28/32 166/31/38 165/29/39
f 164/32/40 163/30/37 162/33/41
f 161/32/40 13/28/32 160/30/42
f 159/30/37 158/34/43 157/35/44
f 156/30/37 155/29/45 154/34/43
f 153/33/46 152/35/44 151/36/47
f 150/33/46 14/30/37 149/35/44
f 148/35/44 147/15/48 146/37/49
f 145/35/44 144/34/50 143/15/51
f 142/36/52 141/37/49 140/38/53
f 139/36/47 16/35/44 138/37/49
f 137/37/49 136/16/20 135/17/54
f 134/37/55 133/15/12 132/16/14
f 131/38/56 130/17/54 129/20/21
f 128/38/56 36/37/55 25/17/54
f 127/39/57 126/20/21 125/40/58
f 124/39/57 123/38/56 122/20/21
f 121/41/59 120/36/60 119/42/61
f 118/41/59 117/33/46 116/36/60
f 115/43/62 114/27/63 113/44/64
f 112/43/62 111/24/34 110/27/63
f 109/40/65 108/21/66 107/45/67
f 106/40/68 40/20/21 105/21/66
f 104/42/69 103/38/56 102/39/70
f 101/42/71 41/36/47 42/38/56
f 100/46/64 99/33/41 98/41/59
f 97/46/64 37/32/40 38/33/41
f 96/45/72 95/24/29 94/43/73
f 93/45/72 33/21/28 34/24/29
f 92/29/45 91/14/11 90/34/43
f 89/29/45 88/12/74 87/14/11
f 86/22/25 85/9/3 84/25/33
f 83/22/25 82/10/75 81/9/76
f 80/16/20 79/8/2 78/18/17
f 29/16/20 30/11/5 77/8/77
f 76/31/78 75/12/7 28/29/39
f 31/31/79 26/9/80 27/12/74
f 74/18/27 73/10/4 24/22/25
f 21/18/27 22/8/77 23/10/4
f 72/34/43 71/13/8 20/15/12
f 17/34/50 18/14/11 19/13/8
f 70/47/81 69/48/72 68/49/82
f 67/47/83 66/50/68 65/48/72
f 64/51/84 63/52/57 62/53/85
f 61/51/84 60/54/61 59/52/70
f 58/55/86 57/56/59 56/57/87
f 55/55/88 54/58/64 53/56/59
f 52/49/82 51/59/62 50/60/89
f 2/49/90 32/48/72 49/59/62
f 48/53/85 47/50/65 12/47/91
f 9/53/92 10/52/57 11/50/58
f 46/57/93 45/54/94 8/51/84
f 5/57/95 6/56/59 7/54/61
f 44/60/96 43/61/64 15/62/97
f 1/60/96 35/59/73 39/61/64
