# Blender 5.0.0
# www.blender.org
mtllib Circle_002_Circle_Dupli_143_decorations_0.mtl
o Circle.002|Circle|Dupli|143_decorations_0
v -4.521244 2.132270 0.679283
v -4.522091 2.131592 0.680181
v -4.528162 2.136255 0.678449
v -4.526954 2.137223 0.677169
v -4.520084 2.133966 0.680773
v -4.524127 2.137499 0.679759
v -4.524652 2.137256 0.680942
v -4.520645 2.133706 0.682039
v -4.521610 2.132743 0.682391
v -4.525554 2.136356 0.681271
v -4.526156 2.135476 0.680498
v -4.522254 2.131802 0.681564
v -4.525680 2.138730 0.677545
v -4.525299 2.139642 0.679294
v -4.520351 2.133327 0.679547
v -4.526099 2.139272 0.681100
v -4.527301 2.139987 0.680506
v -4.528234 2.140261 0.679833
v -4.528966 2.139532 0.680100
v -4.528422 2.138869 0.680915
v -4.528980 2.137532 0.678349
v -4.529330 2.138659 0.678425
v -4.528689 2.139173 0.677745
v -4.527997 2.138319 0.677307
v -4.528395 2.136555 0.680422
v -4.528012 2.139974 0.677945
v -4.527810 2.140458 0.678874
v -4.526650 2.140288 0.679037
v -4.529170 2.137776 0.679955
v -4.529454 2.138819 0.679473
v -4.526960 2.139546 0.677613
v -4.526003 2.135279 0.679205
v -4.526911 2.135502 0.678849
v -4.525865 2.136340 0.677741
v -4.525212 2.135914 0.678366
v -4.527476 2.137898 0.681602
v -4.524762 2.137645 0.678066
v -4.524433 2.138434 0.679580
v -4.524377 2.136901 0.678612
v -4.527112 2.135762 0.680557
v -4.525125 2.138113 0.681143
v -4.526317 2.136924 0.681578
v -4.524377 2.136901 0.678612
v -4.521244 2.132270 0.679283
v -4.524652 2.137256 0.680942
v -4.520084 2.133966 0.680773
v -4.526156 2.135476 0.680498
v -4.521610 2.132743 0.682391
v -4.525212 2.135914 0.678366
v -4.521244 2.132270 0.679283
v -4.525212 2.135914 0.678366
v -4.522091 2.131592 0.680181
v -4.524127 2.137499 0.679759
v -4.524377 2.136901 0.678612
v -4.520351 2.133327 0.679547
v -4.520084 2.133966 0.680773
v -4.524127 2.137499 0.679759
v -4.520351 2.133327 0.679547
v -4.525554 2.136356 0.681271
v -4.524652 2.137256 0.680942
v -4.520645 2.133706 0.682039
v -4.521610 2.132743 0.682391
v -4.525554 2.136356 0.681271
v -4.520645 2.133706 0.682039
v -4.526003 2.135279 0.679205
v -4.526156 2.135476 0.680498
v -4.522254 2.131802 0.681564
v -4.522091 2.131592 0.680181
v -4.526003 2.135279 0.679205
v -4.522254 2.131802 0.681564
v -4.528966 2.139532 0.680100
v -4.527301 2.139987 0.680506
v -4.528689 2.139173 0.677745
v -4.528980 2.137532 0.678349
v -4.527810 2.140458 0.678874
v -4.526960 2.139546 0.677613
v -4.529330 2.138659 0.678425
v -4.528980 2.137532 0.678349
v -4.529330 2.138659 0.678425
v -4.529170 2.137776 0.679955
v -4.528012 2.139974 0.677945
v -4.528689 2.139173 0.677745
v -4.527997 2.138319 0.677307
v -4.526960 2.139546 0.677613
v -4.528012 2.139974 0.677945
v -4.527997 2.138319 0.677307
v -4.528234 2.140261 0.679833
v -4.527810 2.140458 0.678874
v -4.526650 2.140288 0.679037
v -4.527301 2.139987 0.680506
v -4.528234 2.140261 0.679833
v -4.526650 2.140288 0.679037
v -4.526003 2.135279 0.679205
v -4.525212 2.135914 0.678366
v -4.525865 2.136340 0.677741
v -4.526003 2.135279 0.679205
v -4.524377 2.136901 0.678612
v -4.524127 2.137499 0.679759
v -4.524433 2.138434 0.679580
v -4.524377 2.136901 0.678612
v -4.524652 2.137256 0.680942
v -4.525554 2.136356 0.681271
v -4.526317 2.136924 0.681578
v -4.524652 2.137256 0.680942
v -4.526911 2.135502 0.678849
v -4.526156 2.135476 0.680498
v -4.526003 2.135279 0.679205
v -4.526911 2.135502 0.678849
v -4.526156 2.135476 0.680498
v -4.524762 2.137645 0.678066
v -4.525865 2.136340 0.677741
v -4.525212 2.135914 0.678366
v -4.524377 2.136901 0.678612
v -4.524762 2.137645 0.678066
v -4.525212 2.135914 0.678366
v -4.525125 2.138113 0.681143
v -4.524433 2.138434 0.679580
v -4.524127 2.137499 0.679759
v -4.524652 2.137256 0.680942
v -4.525125 2.138113 0.681143
v -4.524127 2.137499 0.679759
v -4.527112 2.135762 0.680557
v -4.526317 2.136924 0.681578
v -4.525554 2.136356 0.681271
v -4.526156 2.135476 0.680498
v -4.527112 2.135762 0.680557
v -4.525554 2.136356 0.681271
v -4.526317 2.136924 0.681578
v -4.527112 2.135762 0.680557
v -4.528395 2.136555 0.680422
v -4.526317 2.136924 0.681578
v -4.529170 2.137776 0.679955
v -4.528422 2.138869 0.680915
v -4.527476 2.137898 0.681602
v -4.528395 2.136555 0.680422
v -4.529170 2.137776 0.679955
v -4.527476 2.137898 0.681602
v -4.527476 2.137898 0.681602
v -4.525125 2.138113 0.681143
v -4.526317 2.136924 0.681578
v -4.527476 2.137898 0.681602
v -4.525125 2.138113 0.681143
v -4.528422 2.138869 0.680915
v -4.527301 2.139987 0.680506
v -4.526099 2.139272 0.681100
v -4.527476 2.137898 0.681602
v -4.528422 2.138869 0.680915
v -4.526099 2.139272 0.681100
v -4.526099 2.139272 0.681100
v -4.524433 2.138434 0.679580
v -4.525125 2.138113 0.681143
v -4.526099 2.139272 0.681100
v -4.524433 2.138434 0.679580
v -4.527301 2.139987 0.680506
v -4.526650 2.140288 0.679037
v -4.525299 2.139642 0.679294
v -4.526099 2.139272 0.681100
v -4.527301 2.139987 0.680506
v -4.525299 2.139642 0.679294
v -4.525299 2.139642 0.679294
v -4.524762 2.137645 0.678066
v -4.524433 2.138434 0.679580
v -4.525299 2.139642 0.679294
v -4.524762 2.137645 0.678066
v -4.526650 2.140288 0.679037
v -4.526960 2.139546 0.677613
v -4.525680 2.138730 0.677545
v -4.525299 2.139642 0.679294
v -4.526650 2.140288 0.679037
v -4.525680 2.138730 0.677545
v -4.525680 2.138730 0.677545
v -4.525865 2.136340 0.677741
v -4.524762 2.137645 0.678066
v -4.525680 2.138730 0.677545
v -4.525865 2.136340 0.677741
v -4.526960 2.139546 0.677613
v -4.527997 2.138319 0.677307
v -4.526954 2.137223 0.677169
v -4.525680 2.138730 0.677545
v -4.526960 2.139546 0.677613
v -4.526954 2.137223 0.677169
v -4.526954 2.137223 0.677169
v -4.526911 2.135502 0.678849
v -4.525865 2.136340 0.677741
v -4.526954 2.137223 0.677169
v -4.526911 2.135502 0.678849
v -4.527997 2.138319 0.677307
v -4.528980 2.137532 0.678349
v -4.528162 2.136255 0.678449
v -4.526954 2.137223 0.677169
v -4.527997 2.138319 0.677307
v -4.528162 2.136255 0.678449
v -4.528162 2.136255 0.678449
v -4.528395 2.136555 0.680422
v -4.527112 2.135762 0.680557
v -4.526911 2.135502 0.678849
v -4.528162 2.136255 0.678449
v -4.527112 2.135762 0.680557
v -4.528980 2.137532 0.678349
v -4.529170 2.137776 0.679955
v -4.528395 2.136555 0.680422
v -4.528162 2.136255 0.678449
v -4.528980 2.137532 0.678349
v -4.528395 2.136555 0.680422
v -4.529454 2.138819 0.679473
v -4.528966 2.139532 0.680100
v -4.528422 2.138869 0.680915
v -4.529170 2.137776 0.679955
v -4.529454 2.138819 0.679473
v -4.528422 2.138869 0.680915
v -4.528234 2.140261 0.679833
v -4.528966 2.139532 0.680100
v -4.527810 2.140458 0.678874
v -4.529454 2.138819 0.679473
v -4.527810 2.140458 0.678874
v -4.528966 2.139532 0.680100
v -4.528012 2.139974 0.677945
v -4.527810 2.140458 0.678874
v -4.529454 2.138819 0.679473
v -4.529330 2.138659 0.678425
v -4.528012 2.139974 0.677945
v -4.529454 2.138819 0.679473
v -4.528689 2.139173 0.677745
v -4.528012 2.139974 0.677945
v -4.529330 2.138659 0.678425
v -4.520645 2.133706 0.682039
v -4.520084 2.133966 0.680773
v -4.521610 2.132743 0.682391
v -4.522254 2.131802 0.681564
v -4.521610 2.132743 0.682391
v -4.520084 2.133966 0.680773
v -4.520351 2.133327 0.679547
v -4.522254 2.131802 0.681564
v -4.520084 2.133966 0.680773
v -4.522091 2.131592 0.680181
v -4.522254 2.131802 0.681564
v -4.520351 2.133327 0.679547
v -4.521244 2.132270 0.679283
v -4.522091 2.131592 0.680181
v -4.520351 2.133327 0.679547
vn 0.7270 -0.6609 0.1863
vn -0.9159 0.1356 -0.3778
vn -0.3114 0.7385 -0.5981
vn -0.6217 0.3713 -0.6897
vn -0.9725 0.2088 0.1028
vn -0.3114 0.7384 -0.5981
vn -0.9159 0.1356 -0.3777
vn -0.9726 0.2087 0.1027
vn -0.2187 0.9605 -0.1720
vn -0.7489 0.5357 0.3900
vn -0.7490 0.5357 0.3900
vn -0.4135 0.8703 0.2677
vn -0.5372 0.2534 0.8045
vn -0.8993 -0.2759 0.3394
vn -0.9726 0.2088 0.1027
vn -0.6870 -0.5724 0.4477
vn -0.8076 -0.3944 -0.4385
vn -0.5867 -0.7020 -0.4038
vn -0.6870 -0.5723 0.4477
vn -0.8993 -0.2760 0.3394
vn -0.3760 -0.7857 0.4913
vn -0.2815 -0.9078 -0.3109
vn -0.5867 -0.7019 -0.4038
vn -0.3313 -0.0127 -0.9435
vn -0.0653 -0.2842 -0.9565
vn -0.3312 -0.0127 -0.9435
vn 0.2097 -0.5143 -0.8316
vn 0.1712 0.5816 -0.7953
vn 0.4846 0.3664 -0.7943
vn 0.1711 0.5816 -0.7953
vn 0.7277 0.0987 -0.6788
vn -0.0652 -0.2842 -0.9565
vn 0.4847 0.3664 -0.7943
vn 0.3212 0.9411 -0.1055
vn 0.6488 0.7599 -0.0393
vn 0.1712 0.5816 -0.7952
vn 0.3211 0.9411 -0.1055
vn 0.7277 0.0987 -0.6787
vn 0.6489 0.7599 -0.0393
vn 0.8824 0.4694 0.0325
vn 0.0059 0.7951 0.6064
vn 0.3038 0.6000 0.7401
vn 0.3212 0.9411 -0.1054
vn 0.8824 0.4693 0.0325
vn 0.5573 0.3188 0.7667
vn 0.6488 0.7599 -0.0392
vn -0.2908 0.0071 0.9568
vn 0.0059 0.7951 0.6065
vn -0.5372 0.2535 0.8045
vn 0.5573 0.3187 0.7667
vn -0.0027 -0.2397 0.9708
vn -0.8992 -0.2759 0.3394
vn -0.2908 0.0072 0.9568
vn -0.0027 -0.2398 0.9708
vn -0.3761 -0.7856 0.4912
vn -0.2907 0.0071 0.9568
vn -0.0645 -0.1899 0.9797
vn -0.3761 -0.7856 0.4913
vn -0.4472 -0.7496 0.4879
vn -0.0644 -0.1899 0.9797
vn -0.0028 -0.2398 0.9708
vn 0.8432 0.5373 0.0176
vn 0.5099 0.3828 0.7704
vn 0.1534 -0.4713 -0.8685
vn 0.7277 0.0986 -0.6788
vn 0.6846 0.1572 -0.7118
vn 0.2097 -0.5142 -0.8316
vn -0.4473 -0.7496 0.4879
vn -0.3503 -0.8749 -0.3346
vn -0.4472 -0.7496 0.4880
vn 0.5098 0.3829 0.7704
vn 0.5099 0.3829 0.7704
vn -0.3503 -0.8748 -0.3346
vn -0.2188 0.9605 -0.1720
vn -0.4135 0.8703 0.2678
vn -0.9726 0.2088 0.1028
vn 0.1711 0.5817 -0.7952
vn -0.8075 -0.3944 -0.4385
vn -0.6740 -0.5849 0.4514
vn -0.5736 -0.7146 -0.4005
vn -0.6740 -0.5848 0.4514
vn 0.3174 0.5881 0.7439
vn -0.2774 -0.0051 0.9607
vn 0.3173 0.5881 0.7439
vn 0.4984 0.3544 -0.7912
vn 0.6626 0.7481 -0.0359
vn 0.4983 0.3544 -0.7912
vn 0.6846 0.1571 -0.7118
vn -0.5735 -0.7146 -0.4006
vn -0.0519 -0.2966 -0.9536
vn -0.5736 -0.7145 -0.4006
vn -0.2775 -0.0051 0.9607
vn 0.6627 0.7481 -0.0358
vn 0.6626 0.7481 -0.0358
vn -0.0518 -0.2966 -0.9536
vn 0.6845 0.1572 -0.7118
vn 0.4983 0.3544 -0.7913
vt 0.543243 0.611839
vt 0.535370 0.618118
vt 0.537796 0.613083
vt 0.537796 0.623154
vt 0.547607 0.615326
vt 0.543243 0.624397
vt 0.547607 0.620918
vt 0.565384 0.671494
vt 0.570206 0.669548
vt 0.567856 0.672157
vt 0.564468 0.669609
vt 0.568146 0.666756
vt 0.564514 0.667854
vt 0.565857 0.666748
vt 0.562897 0.666855
vt 0.562302 0.669838
vt 0.559082 0.669685
vt 0.563492 0.673050
vt 0.560059 0.674789
vt 0.554092 0.669067
vt 0.554398 0.676537
vt 0.567307 0.675606
vt 0.564316 0.680244
vt 0.558044 0.684982
vt 0.575485 0.674767
vt 0.575272 0.686485
vt 0.565720 0.696274
vt 0.575485 0.658051
vt 0.568817 0.663902
vt 0.568115 0.659698
vt 0.574570 0.665543
vt 0.572052 0.651657
vt 0.565903 0.655174
vt 0.565063 0.664742
vt 0.563416 0.661980
vt 0.560669 0.658463
vt 0.560364 0.665283
vt 0.556488 0.662933
vt 0.552032 0.660286
vt 0.548294 0.668175
vt 0.563522 0.651588
vt 0.557617 0.654999
vt 0.551163 0.688484
vt 0.556610 0.699394
vt 0.547867 0.678001
vt 0.568756 0.648293
vt 0.604446 0.682632
vt 0.626221 0.687675
vt 0.604553 0.688225
vt 0.626144 0.682457
vt 0.604553 0.671455
vt 0.626144 0.677231
vt 0.604446 0.677048
vt 0.626221 0.672005
vt 0.605011 0.660294
vt 0.626404 0.666786
vt 0.604736 0.665871
vt 0.626663 0.661568
vt 0.626404 0.692902
vt 0.604736 0.693810
vt 0.626663 0.698120
vt 0.605011 0.699394
s 0
usemtl decorations
f 240/1/1 239/2/1 238/3/1
f 237/1/1 236/4/1 235/2/1
f 234/5/1 233/4/1 232/1/1
f 231/5/1 230/6/1 229/4/1
f 228/6/1 227/5/1 226/7/1
s 1
f 225/8/2 224/9/3 223/10/4
f 222/11/5 221/9/6 220/8/7
f 219/11/8 218/12/9 217/9/3
f 216/13/10 215/12/9 214/11/8
f 213/12/9 212/13/11 211/14/12
f 210/15/13 209/11/8 208/16/14
f 207/15/13 206/13/10 205/11/15
f 204/17/16 203/18/17 202/19/18
f 201/17/19 200/16/20 199/18/17
f 198/20/21 197/19/18 196/21/22
f 195/20/21 194/17/19 193/19/23
f 192/19/18 191/22/24 190/23/25
f 189/19/18 188/18/17 187/22/26
f 186/21/22 185/23/25 184/24/27
f 183/21/22 3/19/18 182/23/25
f 181/23/25 180/25/28 179/26/29
f 178/23/25 177/22/26 176/25/30
f 175/24/27 174/26/29 173/27/31
f 172/24/27 4/23/32 171/26/29
f 170/28/33 169/29/34 168/30/35
f 167/28/33 166/31/36 165/29/37
f 164/32/38 163/30/39 162/33/40
f 161/32/38 13/28/33 160/30/35
f 159/30/35 158/34/41 157/35/42
f 156/30/35 155/29/43 154/34/41
f 153/33/44 152/35/42 151/36/45
f 150/33/44 14/30/46 149/35/42
f 148/35/42 147/15/13 146/37/47
f 145/35/42 144/34/48 143/15/49
f 142/36/50 141/37/47 140/38/51
f 139/36/50 16/35/42 138/37/47
f 137/37/47 136/16/52 135/17/19
f 134/37/53 133/15/13 132/16/14
f 131/38/54 130/17/19 129/20/55
f 128/38/54 36/37/56 25/17/19
f 127/39/57 126/20/58 125/40/59
f 124/39/60 123/38/61 122/20/58
f 121/41/62 120/36/45 119/42/63
f 118/41/62 117/33/44 116/36/45
f 115/43/64 114/27/65 113/44/66
f 112/43/64 111/24/67 110/27/65
f 109/40/68 108/21/22 107/45/69
f 106/40/70 40/20/21 105/21/22
f 104/42/71 103/38/54 102/39/60
f 101/42/72 41/36/50 42/38/54
f 100/46/66 99/33/44 98/41/62
f 97/46/66 37/32/38 38/33/44
f 96/45/73 95/24/27 94/43/64
f 93/45/73 33/21/22 34/24/27
f 92/29/43 91/14/12 90/34/48
f 89/29/43 88/12/74 87/14/75
f 86/22/26 85/9/3 84/25/30
f 83/22/26 82/10/4 81/9/6
f 80/16/20 79/8/2 78/18/17
f 29/16/20 30/11/76 77/8/2
f 76/31/77 75/12/9 28/29/37
f 31/31/77 26/9/6 27/12/74
f 74/18/17 73/10/4 24/22/26
f 21/18/78 22/8/7 23/10/4
f 72/34/48 71/13/11 20/15/13
f 17/34/48 18/14/12 19/13/10
f 70/47/79 69/48/73 68/49/80
f 67/47/81 66/50/70 65/48/73
f 64/51/82 63/52/57 62/53/83
f 61/51/84 60/54/63 59/52/60
f 58/55/85 57/56/62 56/57/86
f 55/55/87 54/58/88 53/56/62
f 52/49/89 51/59/64 50/60/90
f 2/49/91 32/48/69 49/59/64
f 48/53/92 47/50/68 12/47/81
f 9/53/92 10/52/57 11/50/59
f 46/57/93 45/54/71 8/51/82
f 5/57/94 6/56/62 7/54/63
f 44/60/95 43/61/96 15/62/97
f 1/60/90 35/59/64 39/61/66
