# Blender 5.0.0
# www.blender.org
mtllib Circle_005_Circle_004_Dupli_100_decorations_0.mtl
o Circle.005|Circle.004|Dupli|100_decorations_0
v -4.178330 1.010146 0.527656
v -4.177053 1.009731 0.527230
v -4.174645 1.017137 0.526248
v -4.176466 1.017728 0.526856
v -4.179690 1.010073 0.525515
v -4.178250 1.015250 0.524522
v -4.177371 1.014845 0.523629
v -4.178750 1.009640 0.524561
v -4.177390 1.009326 0.524748
v -4.176099 1.014552 0.523804
v -4.175393 1.014589 0.524915
v -4.176635 1.009366 0.525936
v -4.178141 1.017945 0.525767
v -4.178408 1.017624 0.523801
v -4.179503 1.010298 0.526893
v -4.177065 1.017007 0.522439
v -4.176559 1.018435 0.522568
v -4.176092 1.019435 0.522993
v -4.175062 1.019196 0.523135
v -4.174980 1.018069 0.522785
v -4.174590 1.018540 0.525667
v -4.174807 1.019503 0.525016
v -4.175774 1.019818 0.525339
v -4.176072 1.019021 0.526161
v -4.174048 1.016616 0.524402
v -4.176663 1.019933 0.524761
v -4.176805 1.019762 0.523717
v -4.177651 1.018937 0.523676
v -4.174104 1.018116 0.524164
v -4.174490 1.019227 0.524036
v -4.177434 1.019198 0.525275
v -4.175784 1.014930 0.526125
v -4.175228 1.015741 0.526307
v -4.176805 1.016253 0.526832
v -4.176978 1.015318 0.526523
v -4.175125 1.016559 0.522707
v -4.178254 1.016440 0.525890
v -4.178484 1.016163 0.524189
v -4.178075 1.015460 0.525810
v -4.174711 1.015290 0.524708
v -4.177323 1.015628 0.523010
v -4.175643 1.015240 0.523241
v -4.178075 1.015460 0.525810
v -4.178330 1.010146 0.527656
v -4.177371 1.014845 0.523629
v -4.179690 1.010073 0.525515
v -4.175393 1.014589 0.524915
v -4.177390 1.009326 0.524748
v -4.176978 1.015318 0.526523
v -4.178330 1.010146 0.527656
v -4.176978 1.015318 0.526523
v -4.177053 1.009731 0.527230
v -4.178250 1.015250 0.524522
v -4.178075 1.015460 0.525810
v -4.179503 1.010298 0.526893
v -4.179690 1.010073 0.525515
v -4.178250 1.015250 0.524522
v -4.179503 1.010298 0.526893
v -4.176099 1.014552 0.523804
v -4.177371 1.014845 0.523629
v -4.178750 1.009640 0.524561
v -4.177390 1.009326 0.524748
v -4.176099 1.014552 0.523804
v -4.178750 1.009640 0.524561
v -4.175784 1.014930 0.526125
v -4.175393 1.014589 0.524915
v -4.176635 1.009366 0.525936
v -4.177053 1.009731 0.527230
v -4.175784 1.014930 0.526125
v -4.176635 1.009366 0.525936
v -4.175062 1.019196 0.523135
v -4.176559 1.018435 0.522568
v -4.175774 1.019818 0.525339
v -4.174590 1.018540 0.525667
v -4.176805 1.019762 0.523717
v -4.177434 1.019198 0.525275
v -4.174807 1.019503 0.525016
v -4.174590 1.018540 0.525667
v -4.174807 1.019503 0.525016
v -4.174104 1.018116 0.524164
v -4.176663 1.019933 0.524761
v -4.175774 1.019818 0.525339
v -4.176072 1.019021 0.526161
v -4.177434 1.019198 0.525275
v -4.176663 1.019933 0.524761
v -4.176072 1.019021 0.526161
v -4.176092 1.019435 0.522993
v -4.176805 1.019762 0.523717
v -4.177651 1.018937 0.523676
v -4.176559 1.018435 0.522568
v -4.176092 1.019435 0.522993
v -4.177651 1.018937 0.523676
v -4.175784 1.014930 0.526125
v -4.176978 1.015318 0.526523
v -4.176805 1.016253 0.526832
v -4.175784 1.014930 0.526125
v -4.178075 1.015460 0.525810
v -4.178250 1.015250 0.524522
v -4.178484 1.016163 0.524189
v -4.178075 1.015460 0.525810
v -4.177371 1.014845 0.523629
v -4.176099 1.014552 0.523804
v -4.175643 1.015240 0.523241
v -4.177371 1.014845 0.523629
v -4.175228 1.015741 0.526307
v -4.175393 1.014589 0.524915
v -4.175784 1.014930 0.526125
v -4.175228 1.015741 0.526307
v -4.175393 1.014589 0.524915
v -4.178254 1.016440 0.525890
v -4.176805 1.016253 0.526832
v -4.176978 1.015318 0.526523
v -4.178075 1.015460 0.525810
v -4.178254 1.016440 0.525890
v -4.176978 1.015318 0.526523
v -4.177323 1.015628 0.523010
v -4.178484 1.016163 0.524189
v -4.178250 1.015250 0.524522
v -4.177371 1.014845 0.523629
v -4.177323 1.015628 0.523010
v -4.178250 1.015250 0.524522
v -4.174711 1.015290 0.524708
v -4.175643 1.015240 0.523241
v -4.176099 1.014552 0.523804
v -4.175393 1.014589 0.524915
v -4.174711 1.015290 0.524708
v -4.176099 1.014552 0.523804
v -4.175643 1.015240 0.523241
v -4.174711 1.015290 0.524708
v -4.174048 1.016616 0.524402
v -4.175643 1.015240 0.523241
v -4.174104 1.018116 0.524164
v -4.174980 1.018069 0.522785
v -4.175125 1.016559 0.522707
v -4.174048 1.016616 0.524402
v -4.174104 1.018116 0.524164
v -4.175125 1.016559 0.522707
v -4.175125 1.016559 0.522707
v -4.177323 1.015628 0.523010
v -4.175643 1.015240 0.523241
v -4.175125 1.016559 0.522707
v -4.177323 1.015628 0.523010
v -4.174980 1.018069 0.522785
v -4.176559 1.018435 0.522568
v -4.177065 1.017007 0.522439
v -4.175125 1.016559 0.522707
v -4.174980 1.018069 0.522785
v -4.177065 1.017007 0.522439
v -4.177065 1.017007 0.522439
v -4.178484 1.016163 0.524189
v -4.177323 1.015628 0.523010
v -4.177065 1.017007 0.522439
v -4.178484 1.016163 0.524189
v -4.176559 1.018435 0.522568
v -4.177651 1.018937 0.523676
v -4.178408 1.017624 0.523801
v -4.177065 1.017007 0.522439
v -4.176559 1.018435 0.522568
v -4.178408 1.017624 0.523801
v -4.178408 1.017624 0.523801
v -4.178254 1.016440 0.525890
v -4.178484 1.016163 0.524189
v -4.178408 1.017624 0.523801
v -4.178254 1.016440 0.525890
v -4.177651 1.018937 0.523676
v -4.177434 1.019198 0.525275
v -4.178141 1.017945 0.525767
v -4.178408 1.017624 0.523801
v -4.177651 1.018937 0.523676
v -4.178141 1.017945 0.525767
v -4.178141 1.017945 0.525767
v -4.176805 1.016253 0.526832
v -4.178254 1.016440 0.525890
v -4.178141 1.017945 0.525767
v -4.176805 1.016253 0.526832
v -4.177434 1.019198 0.525275
v -4.176072 1.019021 0.526161
v -4.176466 1.017728 0.526856
v -4.178141 1.017945 0.525767
v -4.177434 1.019198 0.525275
v -4.176466 1.017728 0.526856
v -4.176466 1.017728 0.526856
v -4.175228 1.015741 0.526307
v -4.176805 1.016253 0.526832
v -4.176466 1.017728 0.526856
v -4.175228 1.015741 0.526307
v -4.176072 1.019021 0.526161
v -4.174590 1.018540 0.525667
v -4.174645 1.017137 0.526248
v -4.176466 1.017728 0.526856
v -4.176072 1.019021 0.526161
v -4.174645 1.017137 0.526248
v -4.174645 1.017137 0.526248
v -4.174048 1.016616 0.524402
v -4.174711 1.015290 0.524708
v -4.175228 1.015741 0.526307
v -4.174645 1.017137 0.526248
v -4.174711 1.015290 0.524708
v -4.174590 1.018540 0.525667
v -4.174104 1.018116 0.524164
v -4.174048 1.016616 0.524402
v -4.174645 1.017137 0.526248
v -4.174590 1.018540 0.525667
v -4.174048 1.016616 0.524402
v -4.174490 1.019227 0.524036
v -4.175062 1.019196 0.523135
v -4.174980 1.018069 0.522785
v -4.174104 1.018116 0.524164
v -4.174490 1.019227 0.524036
v -4.174980 1.018069 0.522785
v -4.176092 1.019435 0.522993
v -4.175062 1.019196 0.523135
v -4.176805 1.019762 0.523717
v -4.174490 1.019227 0.524036
v -4.176805 1.019762 0.523717
v -4.175062 1.019196 0.523135
v -4.176663 1.019933 0.524761
v -4.176805 1.019762 0.523717
v -4.174490 1.019227 0.524036
v -4.174807 1.019503 0.525016
v -4.176663 1.019933 0.524761
v -4.174490 1.019227 0.524036
v -4.175774 1.019818 0.525339
v -4.176663 1.019933 0.524761
v -4.174807 1.019503 0.525016
v -4.178750 1.009640 0.524561
v -4.179690 1.010073 0.525515
v -4.177390 1.009326 0.524748
v -4.176635 1.009366 0.525936
v -4.177390 1.009326 0.524748
v -4.179690 1.010073 0.525515
v -4.179503 1.010298 0.526893
v -4.176635 1.009366 0.525936
v -4.179690 1.010073 0.525515
v -4.177053 1.009731 0.527230
v -4.176635 1.009366 0.525936
v -4.179503 1.010298 0.526893
v -4.178330 1.010146 0.527656
v -4.177053 1.009731 0.527230
v -4.179503 1.010298 0.526893
vn -0.2458 -0.9508 0.1885
vn 0.5991 0.7623 0.2450
vn -0.2524 0.9592 0.1277
vn 0.1555 0.9063 0.3930
vn 0.7445 0.6355 -0.2048
vn -0.2523 0.9592 0.1278
vn 0.7445 0.6355 -0.2047
vn -0.3173 0.8810 -0.3509
vn 0.4821 0.6215 -0.6175
vn -0.3172 0.8810 -0.3509
vn 0.4822 0.6215 -0.6175
vn 0.0096 0.7307 -0.6826
vn 0.5522 0.1230 -0.8246
vn 0.9769 0.1457 -0.1563
vn 0.5522 0.1229 -0.8246
vn 0.7444 0.6355 -0.2047
vn 0.9688 -0.2294 -0.0939
vn 0.7416 0.3509 0.5718
vn 0.7112 -0.0047 0.7030
vn 0.9688 -0.2293 -0.0940
vn 0.7416 0.3509 0.5717
vn 0.8209 -0.5707 -0.0182
vn 0.5783 -0.3590 0.7326
vn 0.0234 0.5841 0.8113
vn -0.0749 0.2506 0.9652
vn 0.5782 -0.3591 0.7326
vn -0.1623 -0.1186 0.9796
vn -0.6369 0.6697 0.3820
vn -0.7977 0.3442 0.4952
vn 0.0233 0.5841 0.8113
vn -0.6368 0.6697 0.3820
vn -0.8431 -0.0303 0.5368
vn -0.7420 0.5432 -0.3929
vn -0.9127 0.2058 -0.3530
vn -0.8432 -0.0304 0.5368
vn -0.9127 0.2057 -0.3530
vn -0.9515 -0.1608 -0.2622
vn -0.2128 0.2999 -0.9299
vn -0.3335 -0.0606 -0.9408
vn -0.7420 0.5432 -0.3930
vn -0.9515 -0.1609 -0.2622
vn -0.4058 -0.4117 -0.8160
vn -0.3334 -0.0606 -0.9408
vn 0.5039 -0.2542 -0.8255
vn 0.5521 0.1230 -0.8246
vn 0.3830 -0.5941 -0.7074
vn 0.5039 -0.2543 -0.8255
vn 0.9688 -0.2293 -0.0939
vn 0.3830 -0.5941 -0.7073
vn 0.8210 -0.5707 -0.0182
vn 0.4136 -0.5286 -0.7413
vn 0.8627 -0.5046 -0.0346
vn -0.9548 -0.0843 -0.2849
vn -0.3953 -0.3416 -0.8527
vn -0.1456 -0.0410 0.9885
vn -0.8431 -0.0304 0.5369
vn -0.8437 0.0494 0.5345
vn 0.5783 -0.3591 0.7326
vn 0.6138 -0.2876 0.7352
vn -0.3953 -0.3415 -0.8527
vn -0.8437 0.0495 0.5345
vn -0.7420 0.5431 -0.3930
vn 0.0234 0.5842 0.8113
vn -0.2523 0.9592 0.1277
vn 0.9769 0.1457 -0.1562
vn -0.6369 0.6697 0.3819
vn 0.9648 -0.2471 -0.0905
vn 0.7070 -0.0223 0.7068
vn 0.9648 -0.2470 -0.0905
vn 0.8626 -0.5046 -0.0346
vn -0.3381 -0.0782 -0.9378
vn 0.4996 -0.2719 -0.8225
vn -0.3381 -0.0782 -0.9379
vn -0.8027 0.3268 0.4989
vn -0.9178 0.1883 -0.3497
vn 0.7070 -0.0223 0.7069
vn -0.0795 0.2331 0.9692
vn -0.9177 0.1883 -0.3497
vn -0.3382 -0.0782 -0.9378
vn -0.8026 0.3268 0.4990
vn -0.1456 -0.0411 0.9885
vt 0.530319 0.635056
vt 0.522446 0.641335
vt 0.524872 0.636299
vt 0.524872 0.646370
vt 0.534683 0.638535
vt 0.530319 0.647614
vt 0.534683 0.644127
vt 0.508789 0.671494
vt 0.513626 0.669548
vt 0.511276 0.672157
vt 0.507889 0.669609
vt 0.511566 0.666756
vt 0.507935 0.667854
vt 0.509277 0.666748
vt 0.506302 0.666855
vt 0.505722 0.669838
vt 0.502487 0.669685
vt 0.506897 0.673050
vt 0.503479 0.674789
vt 0.497520 0.669067
vt 0.497810 0.676537
vt 0.510727 0.675606
vt 0.507721 0.680244
vt 0.501465 0.684982
vt 0.518890 0.674767
vt 0.518692 0.686485
vt 0.509125 0.696274
vt 0.518890 0.658051
vt 0.512238 0.663902
vt 0.511536 0.659698
vt 0.517990 0.665543
vt 0.515472 0.651657
vt 0.509323 0.655174
vt 0.508469 0.664742
vt 0.506836 0.661980
vt 0.504074 0.658463
vt 0.503784 0.665283
vt 0.499901 0.662933
vt 0.495453 0.660286
vt 0.491707 0.668175
vt 0.506927 0.651588
vt 0.501038 0.654999
vt 0.494583 0.688484
vt 0.500031 0.699394
vt 0.491287 0.678001
vt 0.512177 0.648293
vt 0.627350 0.642853
vt 0.649124 0.647896
vt 0.627441 0.648445
vt 0.649033 0.642670
vt 0.627441 0.631676
vt 0.649033 0.637444
vt 0.627350 0.637268
vt 0.649124 0.632225
vt 0.627914 0.620506
vt 0.649292 0.626999
vt 0.627625 0.626091
vt 0.649551 0.621780
vt 0.649292 0.653114
vt 0.627625 0.654030
vt 0.649551 0.658333
vt 0.627914 0.659607
s 0
usemtl decorations
f 240/1/1 239/2/1 238/3/1
f 237/1/1 236/4/1 235/2/1
f 234/5/1 233/4/1 232/1/1
f 231/5/1 230/6/1 229/4/1
f 228/6/1 227/5/1 226/7/1
s 1
f 225/8/2 224/9/3 223/10/4
f 222/11/5 221/9/6 220/8/2
f 219/11/7 218/12/8 217/9/3
f 216/13/9 215/12/8 214/11/7
f 213/12/10 212/13/11 211/14/12
f 210/15/13 209/11/7 208/16/14
f 207/15/15 206/13/9 205/11/16
f 204/17/17 203/18/18 202/19/19
f 201/17/20 200/16/14 199/18/21
f 198/20/22 197/19/19 196/21/23
f 195/20/22 194/17/20 193/19/19
f 192/19/19 191/22/24 190/23/25
f 189/19/19 188/18/18 187/22/24
f 186/21/26 185/23/25 184/24/27
f 183/21/26 3/19/19 182/23/25
f 181/23/25 180/25/28 179/26/29
f 178/23/25 177/22/30 176/25/31
f 175/24/27 174/26/29 173/27/32
f 172/24/27 4/23/25 171/26/29
f 170/28/29 169/29/33 168/30/34
f 167/28/29 166/31/28 165/29/33
f 164/32/35 163/30/36 162/33/37
f 161/32/35 13/28/29 160/30/34
f 159/30/34 158/34/38 157/35/39
f 156/30/34 155/29/40 154/34/38
f 153/33/41 152/35/39 151/36/42
f 150/33/37 14/30/34 149/35/39
f 148/35/43 147/15/13 146/37/44
f 145/35/43 144/34/38 143/15/45
f 142/36/42 141/37/44 140/38/46
f 139/36/42 16/35/43 138/37/44
f 137/37/47 136/16/14 135/17/48
f 134/37/44 133/15/13 132/16/14
f 131/38/49 130/17/17 129/20/50
f 128/38/49 36/37/44 25/17/17
f 127/39/51 126/20/50 125/40/52
f 124/39/51 123/38/49 122/20/50
f 121/41/53 120/36/42 119/42/54
f 118/41/53 117/33/41 116/36/42
f 115/43/55 114/27/56 113/44/57
f 112/43/55 111/24/27 110/27/56
f 109/40/52 108/21/58 107/45/59
f 106/40/52 40/20/22 105/21/58
f 104/42/60 103/38/46 102/39/51
f 101/42/54 41/36/42 42/38/46
f 100/46/61 99/33/37 98/41/53
f 97/46/61 37/32/35 38/33/37
f 96/45/59 95/24/27 94/43/55
f 93/45/59 33/21/58 34/24/27
f 92/29/40 91/14/12 90/34/38
f 89/29/62 88/12/10 87/14/12
f 86/22/63 85/9/64 84/25/31
f 83/22/30 82/10/4 81/9/64
f 80/16/65 79/8/2 78/18/18
f 29/16/65 30/11/5 77/8/2
f 76/31/66 75/12/10 28/29/33
f 31/31/66 26/9/64 27/12/10
f 74/18/18 73/10/4 24/22/24
f 21/18/18 22/8/2 23/10/4
f 72/34/38 71/13/9 20/15/13
f 17/34/38 18/14/12 19/13/9
f 70/47/67 69/48/59 68/49/68
f 67/47/69 66/50/70 65/48/59
f 64/51/71 63/52/51 62/53/72
f 61/51/73 60/54/54 59/52/51
f 58/55/74 57/56/53 56/57/75
f 55/55/74 54/58/57 53/56/53
f 52/49/76 51/59/55 50/60/77
f 2/49/76 32/48/59 49/59/55
f 48/53/72 47/50/52 12/47/67
f 9/53/72 10/52/51 11/50/52
f 46/57/78 45/54/54 8/51/79
f 5/57/78 6/56/53 7/54/54
f 44/60/77 43/61/61 15/62/80
f 1/60/77 35/59/81 39/61/61
