# Blender 5.0.0
# www.blender.org
mtllib Circle_005_Circle_003_Dupli_193_decorations_0.mtl
o Circle.005|Circle.003|Dupli|193_decorations_0
v -4.538110 1.425857 0.749494
v -4.537508 1.425651 0.748237
v -4.544196 1.427229 0.744442
v -4.545053 1.427523 0.746235
v -4.538797 1.423514 0.750182
v -4.543591 1.424272 0.747671
v -4.543188 1.423538 0.746656
v -4.538366 1.422729 0.749096
v -4.537714 1.423142 0.747918
v -4.542578 1.423925 0.745555
v -4.542222 1.425141 0.745197
v -4.537333 1.424443 0.747536
v -4.545872 1.426166 0.747470
v -4.546034 1.424179 0.747217
v -4.538683 1.424906 0.750360
v -4.545419 1.423059 0.745667
v -4.546632 1.423670 0.744986
v -4.547387 1.424440 0.744498
v -4.546893 1.424753 0.743606
v -4.545875 1.424151 0.743618
v -4.545637 1.427064 0.743989
v -4.546738 1.426654 0.743848
v -4.547193 1.426810 0.744800
v -4.546335 1.427303 0.745448
v -4.543944 1.425505 0.743441
v -4.547628 1.426089 0.745456
v -4.547714 1.425034 0.745322
v -4.547133 1.424582 0.746247
v -4.545432 1.425661 0.743175
v -4.546604 1.425738 0.743317
v -4.547001 1.426198 0.746453
v -4.542387 1.426270 0.745853
v -4.542991 1.426782 0.745243
v -4.543733 1.427037 0.746795
v -4.542949 1.426463 0.747028
v -4.544488 1.423649 0.743986
v -4.544442 1.425862 0.747864
v -4.544582 1.424142 0.747645
v -4.543485 1.425574 0.747837
v -4.542773 1.425290 0.744377
v -4.544049 1.423173 0.746303
v -4.543244 1.423684 0.744849
v -4.543485 1.425574 0.747837
v -4.538110 1.425857 0.749494
v -4.543188 1.423538 0.746656
v -4.538797 1.423514 0.750182
v -4.542222 1.425141 0.745197
v -4.537714 1.423142 0.747918
v -4.542949 1.426463 0.747028
v -4.538110 1.425857 0.749494
v -4.542949 1.426463 0.747028
v -4.537508 1.425651 0.748237
v -4.543591 1.424272 0.747671
v -4.543485 1.425574 0.747837
v -4.538683 1.424906 0.750360
v -4.538797 1.423514 0.750182
v -4.543591 1.424272 0.747671
v -4.538683 1.424906 0.750360
v -4.542578 1.423925 0.745555
v -4.543188 1.423538 0.746656
v -4.538366 1.422729 0.749096
v -4.537714 1.423142 0.747918
v -4.542578 1.423925 0.745555
v -4.538366 1.422729 0.749096
v -4.542387 1.426270 0.745853
v -4.542222 1.425141 0.745197
v -4.537333 1.424443 0.747536
v -4.537508 1.425651 0.748237
v -4.542387 1.426270 0.745853
v -4.537333 1.424443 0.747536
v -4.546893 1.424753 0.743606
v -4.546632 1.423670 0.744986
v -4.547193 1.426810 0.744800
v -4.545637 1.427064 0.743989
v -4.547714 1.425034 0.745322
v -4.547001 1.426198 0.746453
v -4.546738 1.426654 0.743848
v -4.545637 1.427064 0.743989
v -4.546738 1.426654 0.743848
v -4.545432 1.425661 0.743175
v -4.547628 1.426089 0.745456
v -4.547193 1.426810 0.744800
v -4.546335 1.427303 0.745448
v -4.547001 1.426198 0.746453
v -4.547628 1.426089 0.745456
v -4.546335 1.427303 0.745448
v -4.547387 1.424440 0.744498
v -4.547714 1.425034 0.745322
v -4.547133 1.424582 0.746247
v -4.546632 1.423670 0.744986
v -4.547387 1.424440 0.744498
v -4.547133 1.424582 0.746247
v -4.542387 1.426270 0.745853
v -4.542949 1.426463 0.747028
v -4.543733 1.427037 0.746795
v -4.542387 1.426270 0.745853
v -4.543485 1.425574 0.747837
v -4.543591 1.424272 0.747671
v -4.544582 1.424142 0.747645
v -4.543485 1.425574 0.747837
v -4.543188 1.423538 0.746656
v -4.542578 1.423925 0.745555
v -4.543244 1.423684 0.744849
v -4.543188 1.423538 0.746656
v -4.542991 1.426782 0.745243
v -4.542222 1.425141 0.745197
v -4.542387 1.426270 0.745853
v -4.542991 1.426782 0.745243
v -4.542222 1.425141 0.745197
v -4.544442 1.425862 0.747864
v -4.543733 1.427037 0.746795
v -4.542949 1.426463 0.747028
v -4.543485 1.425574 0.747837
v -4.544442 1.425862 0.747864
v -4.542949 1.426463 0.747028
v -4.544049 1.423173 0.746303
v -4.544582 1.424142 0.747645
v -4.543591 1.424272 0.747671
v -4.543188 1.423538 0.746656
v -4.544049 1.423173 0.746303
v -4.543591 1.424272 0.747671
v -4.542773 1.425290 0.744377
v -4.543244 1.423684 0.744849
v -4.542578 1.423925 0.745555
v -4.542222 1.425141 0.745197
v -4.542773 1.425290 0.744377
v -4.542578 1.423925 0.745555
v -4.543244 1.423684 0.744849
v -4.542773 1.425290 0.744377
v -4.543944 1.425505 0.743441
v -4.543244 1.423684 0.744849
v -4.545432 1.425661 0.743175
v -4.545875 1.424151 0.743618
v -4.544488 1.423649 0.743986
v -4.543944 1.425505 0.743441
v -4.545432 1.425661 0.743175
v -4.544488 1.423649 0.743986
v -4.544488 1.423649 0.743986
v -4.544049 1.423173 0.746303
v -4.543244 1.423684 0.744849
v -4.544488 1.423649 0.743986
v -4.544049 1.423173 0.746303
v -4.545875 1.424151 0.743618
v -4.546632 1.423670 0.744986
v -4.545419 1.423059 0.745667
v -4.544488 1.423649 0.743986
v -4.545875 1.424151 0.743618
v -4.545419 1.423059 0.745667
v -4.545419 1.423059 0.745667
v -4.544582 1.424142 0.747645
v -4.544049 1.423173 0.746303
v -4.545419 1.423059 0.745667
v -4.544582 1.424142 0.747645
v -4.546632 1.423670 0.744986
v -4.547133 1.424582 0.746247
v -4.546034 1.424179 0.747217
v -4.545419 1.423059 0.745667
v -4.546632 1.423670 0.744986
v -4.546034 1.424179 0.747217
v -4.546034 1.424179 0.747217
v -4.544442 1.425862 0.747864
v -4.544582 1.424142 0.747645
v -4.546034 1.424179 0.747217
v -4.544442 1.425862 0.747864
v -4.547133 1.424582 0.746247
v -4.547001 1.426198 0.746453
v -4.545872 1.426166 0.747470
v -4.546034 1.424179 0.747217
v -4.547133 1.424582 0.746247
v -4.545872 1.426166 0.747470
v -4.545872 1.426166 0.747470
v -4.543733 1.427037 0.746795
v -4.544442 1.425862 0.747864
v -4.545872 1.426166 0.747470
v -4.543733 1.427037 0.746795
v -4.547001 1.426198 0.746453
v -4.546335 1.427303 0.745448
v -4.545053 1.427523 0.746235
v -4.545872 1.426166 0.747470
v -4.547001 1.426198 0.746453
v -4.545053 1.427523 0.746235
v -4.545053 1.427523 0.746235
v -4.542991 1.426782 0.745243
v -4.543733 1.427037 0.746795
v -4.545053 1.427523 0.746235
v -4.542991 1.426782 0.745243
v -4.546335 1.427303 0.745448
v -4.545637 1.427064 0.743989
v -4.544196 1.427229 0.744442
v -4.545053 1.427523 0.746235
v -4.546335 1.427303 0.745448
v -4.544196 1.427229 0.744442
v -4.544196 1.427229 0.744442
v -4.543944 1.425505 0.743441
v -4.542773 1.425290 0.744377
v -4.542991 1.426782 0.745243
v -4.544196 1.427229 0.744442
v -4.542773 1.425290 0.744377
v -4.545637 1.427064 0.743989
v -4.545432 1.425661 0.743175
v -4.543944 1.425505 0.743441
v -4.544196 1.427229 0.744442
v -4.545637 1.427064 0.743989
v -4.543944 1.425505 0.743441
v -4.546604 1.425738 0.743317
v -4.546893 1.424753 0.743606
v -4.545875 1.424151 0.743618
v -4.545432 1.425661 0.743175
v -4.546604 1.425738 0.743317
v -4.545875 1.424151 0.743618
v -4.547387 1.424440 0.744498
v -4.546893 1.424753 0.743606
v -4.547714 1.425034 0.745322
v -4.546604 1.425738 0.743317
v -4.547714 1.425034 0.745322
v -4.546893 1.424753 0.743606
v -4.547628 1.426089 0.745456
v -4.547714 1.425034 0.745322
v -4.546604 1.425738 0.743317
v -4.546738 1.426654 0.743848
v -4.547628 1.426089 0.745456
v -4.546604 1.425738 0.743317
v -4.547193 1.426810 0.744800
v -4.547628 1.426089 0.745456
v -4.546738 1.426654 0.743848
v -4.538366 1.422729 0.749096
v -4.538797 1.423514 0.750182
v -4.537714 1.423142 0.747918
v -4.537333 1.424443 0.747536
v -4.537714 1.423142 0.747918
v -4.538797 1.423514 0.750182
v -4.538683 1.424906 0.750360
v -4.537333 1.424443 0.747536
v -4.538797 1.423514 0.750182
v -4.537508 1.425651 0.748237
v -4.537333 1.424443 0.747536
v -4.538683 1.424906 0.750360
v -4.538110 1.425857 0.749494
v -4.537508 1.425651 0.748237
v -4.538683 1.424906 0.750360
vn 0.8861 -0.1292 0.4452
vn -0.5357 0.5692 -0.6238
vn -0.9439 0.3101 0.1136
vn -0.7446 0.6408 -0.1872
vn -0.4744 0.1492 -0.8676
vn -0.9439 0.3102 0.1136
vn -0.5356 0.5691 -0.6239
vn -0.4744 0.1493 -0.8676
vn -0.9834 -0.1737 0.0519
vn -0.6069 -0.3027 -0.7349
vn -0.9834 -0.1736 0.0520
vn -0.6069 -0.3026 -0.7349
vn -0.8335 -0.4464 -0.3257
vn -0.1595 -0.6100 -0.7762
vn 0.0550 0.1217 -0.9910
vn -0.6070 -0.3027 -0.7348
vn -0.4744 0.1493 -0.8675
vn 0.4227 0.0804 -0.9027
vn -0.0441 0.8014 -0.5965
vn 0.3140 0.8244 -0.4709
vn 0.4226 0.0804 -0.9028
vn -0.0442 0.8014 -0.5965
vn 0.7286 0.0275 -0.6844
vn 0.3141 0.8244 -0.4708
vn 0.6263 0.7285 -0.2775
vn -0.3824 0.9174 0.1104
vn -0.0562 0.9514 0.3029
vn -0.0441 0.8014 -0.5964
vn 0.6263 0.7285 -0.2774
vn 0.2775 0.8481 0.4514
vn 0.3140 0.8244 -0.4708
vn -0.7050 0.3822 0.5974
vn -0.4094 0.3655 0.8359
vn -0.3824 0.9174 0.1105
vn -0.7050 0.3822 0.5973
vn 0.2776 0.8480 0.4515
vn -0.0552 0.2962 0.9535
vn -0.4094 0.3655 0.8360
vn -0.7691 -0.4011 0.4977
vn -0.4795 -0.4918 0.7268
vn -0.7691 -0.4010 0.4976
vn -0.0551 0.2961 0.9535
vn -0.1213 -0.5115 0.8507
vn -0.0552 0.2961 0.9535
vn -0.5264 -0.8426 -0.1136
vn -0.2138 -0.9752 0.0576
vn -0.7691 -0.4011 0.4976
vn -0.1212 -0.5115 0.8507
vn 0.1291 -0.9668 0.2203
vn -0.2137 -0.9752 0.0576
vn -0.1596 -0.6100 -0.7762
vn 0.1877 -0.7205 -0.6676
vn -0.5263 -0.8427 -0.1137
vn 0.1292 -0.9668 0.2203
vn 0.5073 -0.7270 -0.4628
vn 0.0551 0.1217 -0.9910
vn 0.4226 0.0804 -0.9027
vn 0.5073 -0.7269 -0.4628
vn 0.7286 0.0276 -0.6844
vn 0.1877 -0.7205 -0.6675
vn 0.4451 -0.7344 -0.5123
vn 0.6720 0.0392 -0.7395
vn -0.1994 -0.5136 0.8346
vn 0.1291 -0.9668 0.2204
vn 0.0573 -0.9805 0.1882
vn -0.1994 -0.5135 0.8346
vn 0.2095 0.8805 0.4252
vn -0.1316 0.3147 0.9400
vn 0.2775 0.8480 0.4514
vn 0.5672 0.7579 -0.3223
vn 0.4451 -0.7345 -0.5123
vn -0.1317 0.3147 0.9400
vn -0.1212 -0.5114 0.8507
vn 0.5671 0.7580 -0.3223
vn 0.5671 0.7579 -0.3223
vn -0.8335 -0.4464 -0.3256
vn -0.9834 -0.1736 0.0519
vn -0.9439 0.3102 0.1135
vn -0.5357 0.5691 -0.6238
vn -0.7051 0.3822 0.5973
vn -0.7446 0.6407 -0.1872
vn -0.5264 -0.8426 -0.1137
vn 0.4392 0.0781 -0.8950
vn 0.3306 0.8225 -0.4629
vn -0.1975 -0.9781 0.0659
vn 0.2042 -0.7233 -0.6597
vn -0.1975 -0.9781 0.0658
vn -0.3932 0.3633 0.8446
vn -0.4634 -0.4944 0.7354
vn -0.3933 0.3633 0.8446
vn 0.3306 0.8225 -0.4628
vn 0.2095 0.8806 0.4252
vn -0.0398 0.9495 0.3113
vn 0.2095 0.8805 0.4251
vn 0.4392 0.0780 -0.8950
vn -0.4634 -0.4945 0.7354
vn -0.0399 0.9495 0.3113
vt 0.530319 0.611839
vt 0.522446 0.618118
vt 0.524872 0.613083
vt 0.524872 0.623154
vt 0.534683 0.615326
vt 0.530319 0.624397
vt 0.534683 0.620918
vt 0.537079 0.671494
vt 0.541916 0.669548
vt 0.539566 0.672157
vt 0.536179 0.669609
vt 0.539856 0.666756
vt 0.536224 0.667854
vt 0.537567 0.666748
vt 0.534592 0.666855
vt 0.534012 0.669838
vt 0.530777 0.669685
vt 0.535187 0.673050
vt 0.531769 0.674789
vt 0.525803 0.669067
vt 0.526108 0.676537
vt 0.539017 0.675606
vt 0.536011 0.680244
vt 0.529755 0.684982
vt 0.547180 0.674767
vt 0.546982 0.686485
vt 0.537415 0.696274
vt 0.547180 0.658051
vt 0.540527 0.663902
vt 0.539825 0.659698
vt 0.546280 0.665543
vt 0.543762 0.651657
vt 0.537613 0.655174
vt 0.536758 0.664742
vt 0.535126 0.661980
vt 0.532364 0.658463
vt 0.532074 0.665283
vt 0.528198 0.662933
vt 0.523743 0.660286
vt 0.519989 0.668175
vt 0.535217 0.651588
vt 0.529327 0.654999
vt 0.522873 0.688484
vt 0.528320 0.699394
vt 0.519577 0.678001
vt 0.540466 0.648293
vt 0.604446 0.642853
vt 0.626221 0.647896
vt 0.604553 0.648445
vt 0.626144 0.642670
vt 0.604553 0.631676
vt 0.626144 0.637444
vt 0.604446 0.637268
vt 0.626221 0.632225
vt 0.605011 0.620506
vt 0.626404 0.626999
vt 0.604736 0.626091
vt 0.626663 0.621780
vt 0.626404 0.653114
vt 0.604736 0.654030
vt 0.626663 0.658333
vt 0.605011 0.659607
s 0
usemtl decorations
f 240/1/1 239/2/1 238/3/1
f 237/1/1 236/4/1 235/2/1
f 234/5/1 233/4/1 232/1/1
f 231/5/1 230/6/1 229/4/1
f 228/6/1 227/5/1 226/7/1
s 1
f 225/8/2 224/9/3 223/10/4
f 222/11/5 221/9/6 220/8/7
f 219/11/8 218/12/9 217/9/3
f 216/13/10 215/12/11 214/11/8
f 213/12/9 212/13/12 211/14/13
f 210/15/14 209/11/8 208/16/15
f 207/15/14 206/13/16 205/11/17
f 204/17/18 203/18/19 202/19/20
f 201/17/21 200/16/15 199/18/22
f 198/20/23 197/19/24 196/21/25
f 195/20/23 194/17/21 193/19/20
f 192/19/20 191/22/26 190/23/27
f 189/19/20 188/18/28 187/22/26
f 186/21/29 185/23/27 184/24/30
f 183/21/25 3/19/31 182/23/27
f 181/23/27 180/25/32 179/26/33
f 178/23/27 177/22/34 176/25/35
f 175/24/36 174/26/33 173/27/37
f 172/24/36 4/23/27 171/26/33
f 170/28/38 169/29/39 168/30/40
f 167/28/38 166/31/32 165/29/41
f 164/32/42 163/30/40 162/33/43
f 161/32/44 13/28/33 160/30/40
f 159/30/40 158/34/45 157/35/46
f 156/30/40 155/29/47 154/34/45
f 153/33/48 152/35/46 151/36/49
f 150/33/48 14/30/40 149/35/46
f 148/35/50 147/15/51 146/37/52
f 145/35/50 144/34/53 143/15/51
f 142/36/54 141/37/52 140/38/55
f 139/36/49 16/35/46 138/37/52
f 137/37/52 136/16/56 135/17/57
f 134/37/52 133/15/14 132/16/15
f 131/38/58 130/17/57 129/20/59
f 128/38/58 36/37/60 25/17/57
f 127/39/61 126/20/23 125/40/62
f 124/39/61 123/38/58 122/20/23
f 121/41/63 120/36/64 119/42/65
f 118/41/66 117/33/48 116/36/64
f 115/43/67 114/27/37 113/44/68
f 112/43/67 111/24/69 110/27/37
f 109/40/62 108/21/25 107/45/70
f 106/40/62 40/20/23 105/21/25
f 104/42/65 103/38/55 102/39/71
f 101/42/65 41/36/49 42/38/55
f 100/46/72 99/33/73 98/41/63
f 97/46/72 37/32/44 38/33/73
f 96/45/74 95/24/30 94/43/67
f 93/45/75 33/21/25 34/24/30
f 92/29/47 91/14/76 90/34/45
f 89/29/47 88/12/77 87/14/13
f 86/22/26 85/9/78 84/25/35
f 83/22/34 82/10/4 81/9/78
f 80/16/56 79/8/79 78/18/22
f 29/16/56 30/11/5 77/8/79
f 76/31/80 75/12/77 28/29/41
f 31/31/80 26/9/78 27/12/77
f 74/18/19 73/10/4 24/22/26
f 21/18/28 22/8/79 23/10/81
f 72/34/82 71/13/10 20/15/51
f 17/34/82 18/14/13 19/13/16
f 70/47/83 69/48/75 68/49/84
f 67/47/83 66/50/62 65/48/70
f 64/51/85 63/52/61 62/53/86
f 61/51/87 60/54/65 59/52/71
f 58/55/88 57/56/63 56/57/89
f 55/55/90 54/58/68 53/56/63
f 52/49/91 51/59/92 50/60/93
f 2/49/84 32/48/70 49/59/94
f 48/53/86 47/50/62 12/47/95
f 9/53/86 10/52/61 11/50/62
f 46/57/96 45/54/65 8/51/85
f 5/57/89 6/56/63 7/54/65
f 44/60/93 43/61/72 15/62/88
f 1/60/97 35/59/67 39/61/72
