# Blender 5.0.0
# www.blender.org
mtllib Circle_002_Circle_004_Dupli_192_decorations_0.mtl
o Circle.002|Circle.004|Dupli|192_decorations_0
v -4.314391 1.431759 0.519106
v -4.315558 1.431267 0.518490
v -4.319755 1.437495 0.520772
v -4.318090 1.438197 0.521651
v -4.314430 1.430626 0.521376
v -4.317333 1.434824 0.523329
v -4.318433 1.434102 0.523278
v -4.315607 1.429854 0.521321
v -4.316533 1.429739 0.520266
v -4.319299 1.433994 0.522292
v -4.319278 1.434582 0.521114
v -4.316511 1.430367 0.519006
v -4.317374 1.437791 0.523484
v -4.318145 1.436581 0.524890
v -4.313890 1.431474 0.520391
v -4.319824 1.435479 0.524811
v -4.320495 1.436829 0.525003
v -4.320875 1.437937 0.524836
v -4.321576 1.437850 0.524037
v -4.321570 1.436695 0.523779
v -4.320439 1.438469 0.521716
v -4.320838 1.439007 0.522691
v -4.319954 1.439380 0.523158
v -4.319084 1.439041 0.522432
v -4.321114 1.436212 0.521509
v -4.319573 1.439164 0.524132
v -4.319983 1.438522 0.524878
v -4.319129 1.437725 0.525068
v -4.321545 1.437425 0.522316
v -4.321560 1.438326 0.523083
v -4.318501 1.438710 0.523923
v -4.318388 1.435423 0.520631
v -4.318928 1.436255 0.520506
v -4.317487 1.436863 0.521267
v -4.317297 1.435883 0.521207
v -4.321145 1.435315 0.523306
v -4.316867 1.436510 0.522853
v -4.317535 1.435463 0.524071
v -4.316827 1.435616 0.522408
v -4.320105 1.435144 0.521144
v -4.318988 1.434510 0.524002
v -4.320131 1.434367 0.522700
v -4.316827 1.435616 0.522408
v -4.314391 1.431759 0.519106
v -4.318433 1.434102 0.523278
v -4.314430 1.430626 0.521376
v -4.319278 1.434582 0.521114
v -4.316533 1.429739 0.520266
v -4.317297 1.435883 0.521207
v -4.314391 1.431759 0.519106
v -4.317297 1.435883 0.521207
v -4.315558 1.431267 0.518490
v -4.317333 1.434824 0.523329
v -4.316827 1.435616 0.522408
v -4.313890 1.431474 0.520391
v -4.314430 1.430626 0.521376
v -4.317333 1.434824 0.523329
v -4.313890 1.431474 0.520391
v -4.319299 1.433994 0.522292
v -4.318433 1.434102 0.523278
v -4.315607 1.429854 0.521321
v -4.316533 1.429739 0.520266
v -4.319299 1.433994 0.522292
v -4.315607 1.429854 0.521321
v -4.318388 1.435423 0.520631
v -4.319278 1.434582 0.521114
v -4.316511 1.430367 0.519006
v -4.315558 1.431267 0.518490
v -4.318388 1.435423 0.520631
v -4.316511 1.430367 0.519006
v -4.321576 1.437850 0.524037
v -4.320495 1.436829 0.525003
v -4.319954 1.439380 0.523158
v -4.320439 1.438469 0.521716
v -4.319983 1.438522 0.524878
v -4.318501 1.438710 0.523923
v -4.320838 1.439007 0.522691
v -4.320439 1.438469 0.521716
v -4.320838 1.439007 0.522691
v -4.321545 1.437425 0.522316
v -4.319573 1.439164 0.524132
v -4.319954 1.439380 0.523158
v -4.319084 1.439041 0.522432
v -4.318501 1.438710 0.523923
v -4.319573 1.439164 0.524132
v -4.319084 1.439041 0.522432
v -4.320875 1.437937 0.524836
v -4.319983 1.438522 0.524878
v -4.319129 1.437725 0.525068
v -4.320495 1.436829 0.525003
v -4.320875 1.437937 0.524836
v -4.319129 1.437725 0.525068
v -4.318388 1.435423 0.520631
v -4.317297 1.435883 0.521207
v -4.317487 1.436863 0.521267
v -4.318388 1.435423 0.520631
v -4.316827 1.435616 0.522408
v -4.317333 1.434824 0.523329
v -4.317535 1.435463 0.524071
v -4.316827 1.435616 0.522408
v -4.318433 1.434102 0.523278
v -4.319299 1.433994 0.522292
v -4.320131 1.434367 0.522700
v -4.318433 1.434102 0.523278
v -4.318928 1.436255 0.520506
v -4.319278 1.434582 0.521114
v -4.318388 1.435423 0.520631
v -4.318928 1.436255 0.520506
v -4.319278 1.434582 0.521114
v -4.316867 1.436510 0.522853
v -4.317487 1.436863 0.521267
v -4.317297 1.435883 0.521207
v -4.316827 1.435616 0.522408
v -4.316867 1.436510 0.522853
v -4.317297 1.435883 0.521207
v -4.318988 1.434510 0.524002
v -4.317535 1.435463 0.524071
v -4.317333 1.434824 0.523329
v -4.318433 1.434102 0.523278
v -4.318988 1.434510 0.524002
v -4.317333 1.434824 0.523329
v -4.320105 1.435144 0.521144
v -4.320131 1.434367 0.522700
v -4.319299 1.433994 0.522292
v -4.319278 1.434582 0.521114
v -4.320105 1.435144 0.521144
v -4.319299 1.433994 0.522292
v -4.320131 1.434367 0.522700
v -4.320105 1.435144 0.521144
v -4.321114 1.436212 0.521509
v -4.320131 1.434367 0.522700
v -4.321545 1.437425 0.522316
v -4.321570 1.436695 0.523779
v -4.321145 1.435315 0.523306
v -4.321114 1.436212 0.521509
v -4.321545 1.437425 0.522316
v -4.321145 1.435315 0.523306
v -4.321145 1.435315 0.523306
v -4.318988 1.434510 0.524002
v -4.320131 1.434367 0.522700
v -4.321145 1.435315 0.523306
v -4.318988 1.434510 0.524002
v -4.321570 1.436695 0.523779
v -4.320495 1.436829 0.525003
v -4.319824 1.435479 0.524811
v -4.321145 1.435315 0.523306
v -4.321570 1.436695 0.523779
v -4.319824 1.435479 0.524811
v -4.319824 1.435479 0.524811
v -4.317535 1.435463 0.524071
v -4.318988 1.434510 0.524002
v -4.319824 1.435479 0.524811
v -4.317535 1.435463 0.524071
v -4.320495 1.436829 0.525003
v -4.319129 1.437725 0.525068
v -4.318145 1.436581 0.524890
v -4.319824 1.435479 0.524811
v -4.320495 1.436829 0.525003
v -4.318145 1.436581 0.524890
v -4.318145 1.436581 0.524890
v -4.316867 1.436510 0.522853
v -4.317535 1.435463 0.524071
v -4.318145 1.436581 0.524890
v -4.316867 1.436510 0.522853
v -4.319129 1.437725 0.525068
v -4.318501 1.438710 0.523923
v -4.317374 1.437791 0.523484
v -4.318145 1.436581 0.524890
v -4.319129 1.437725 0.525068
v -4.317374 1.437791 0.523484
v -4.317374 1.437791 0.523484
v -4.317487 1.436863 0.521267
v -4.316867 1.436510 0.522853
v -4.317374 1.437791 0.523484
v -4.317487 1.436863 0.521267
v -4.318501 1.438710 0.523923
v -4.319084 1.439041 0.522432
v -4.318090 1.438197 0.521651
v -4.317374 1.437791 0.523484
v -4.318501 1.438710 0.523923
v -4.318090 1.438197 0.521651
v -4.318090 1.438197 0.521651
v -4.318928 1.436255 0.520506
v -4.317487 1.436863 0.521267
v -4.318090 1.438197 0.521651
v -4.318928 1.436255 0.520506
v -4.319084 1.439041 0.522432
v -4.320439 1.438469 0.521716
v -4.319755 1.437495 0.520772
v -4.318090 1.438197 0.521651
v -4.319084 1.439041 0.522432
v -4.319755 1.437495 0.520772
v -4.319755 1.437495 0.520772
v -4.321114 1.436212 0.521509
v -4.320105 1.435144 0.521144
v -4.318928 1.436255 0.520506
v -4.319755 1.437495 0.520772
v -4.320105 1.435144 0.521144
v -4.320439 1.438469 0.521716
v -4.321545 1.437425 0.522316
v -4.321114 1.436212 0.521509
v -4.319755 1.437495 0.520772
v -4.320439 1.438469 0.521716
v -4.321114 1.436212 0.521509
v -4.321560 1.438326 0.523083
v -4.321576 1.437850 0.524037
v -4.321570 1.436695 0.523779
v -4.321545 1.437425 0.522316
v -4.321560 1.438326 0.523083
v -4.321570 1.436695 0.523779
v -4.320875 1.437937 0.524836
v -4.321576 1.437850 0.524037
v -4.319983 1.438522 0.524878
v -4.321560 1.438326 0.523083
v -4.319983 1.438522 0.524878
v -4.321576 1.437850 0.524037
v -4.319573 1.439164 0.524132
v -4.319983 1.438522 0.524878
v -4.321560 1.438326 0.523083
v -4.320838 1.439007 0.522691
v -4.319573 1.439164 0.524132
v -4.321560 1.438326 0.523083
v -4.319954 1.439380 0.523158
v -4.319573 1.439164 0.524132
v -4.320838 1.439007 0.522691
v -4.315607 1.429854 0.521321
v -4.314430 1.430626 0.521376
v -4.316533 1.429739 0.520266
v -4.316511 1.430367 0.519006
v -4.316533 1.429739 0.520266
v -4.314430 1.430626 0.521376
v -4.313890 1.431474 0.520391
v -4.316511 1.430367 0.519006
v -4.314430 1.430626 0.521376
v -4.315558 1.431267 0.518490
v -4.316511 1.430367 0.519006
v -4.313890 1.431474 0.520391
v -4.314391 1.431759 0.519106
v -4.315558 1.431267 0.518490
v -4.313890 1.431474 0.520391
vn 0.5212 -0.7671 -0.3739
vn -0.5291 0.8212 -0.2137
vn 0.0507 0.8932 0.4468
vn -0.1237 0.9923 0.0004
vn -0.8602 0.5088 -0.0343
vn 0.0507 0.8932 0.4467
vn -0.1373 0.5986 0.7892
vn -0.8677 0.2903 0.4035
vn -0.1372 0.5986 0.7892
vn -0.8677 0.2903 0.4034
vn -0.5460 0.3302 0.7700
vn -0.9207 -0.2426 0.3058
vn -0.9085 0.1111 -0.4028
vn -0.7812 -0.1921 -0.5939
vn -0.3724 0.6169 -0.6933
vn -0.1945 0.3616 -0.9118
vn -0.7813 -0.1921 -0.5939
vn -0.9085 0.1111 -0.4029
vn -0.3725 0.6170 -0.6933
vn -0.5416 -0.4671 -0.6990
vn 0.0112 0.0546 -0.9984
vn -0.1946 0.3616 -0.9118
vn 0.2838 0.8940 -0.3467
vn 0.5239 0.6648 -0.5325
vn -0.3724 0.6170 -0.6933
vn 0.2838 0.8940 -0.3468
vn 0.0112 0.0545 -0.9984
vn 0.5238 0.6649 -0.5325
vn 0.6879 0.3402 -0.6411
vn 0.5662 0.7336 0.3758
vn 0.8330 0.4893 0.2585
vn 0.2839 0.8940 -0.3467
vn 0.6880 0.3401 -0.6411
vn 0.8330 0.4892 0.2585
vn 0.9791 0.1748 0.1040
vn 0.2620 0.2565 0.9303
vn 0.4999 -0.0329 0.8654
vn 0.5662 0.7336 0.3759
vn 0.2620 0.2566 0.9303
vn 0.9791 0.1747 0.1041
vn 0.5000 -0.0329 0.8654
vn 0.6654 -0.3171 0.6758
vn 0.5000 -0.0328 0.8654
vn -0.3997 -0.1778 0.8992
vn -0.2244 -0.5084 0.8313
vn 0.2620 0.2565 0.9304
vn -0.0170 -0.7651 0.6437
vn -0.2244 -0.5085 0.8313
vn -0.9206 -0.2426 0.3059
vn -0.7946 -0.5793 0.1819
vn -0.3997 -0.1779 0.8992
vn -0.5541 -0.8318 0.0319
vn -0.7946 -0.5793 0.1818
vn -0.7946 -0.5792 0.1819
vn -0.5416 -0.4670 -0.6990
vn -0.6124 -0.7879 0.0643
vn -0.5416 -0.4671 -0.6989
vn -0.5995 -0.4139 -0.6850
vn 0.6381 -0.2601 0.7247
vn -0.0616 -0.7195 0.6917
vn 0.6612 0.4139 -0.6257
vn 0.9598 0.2442 0.1384
vn 0.6612 0.4138 -0.6257
vn 0.6880 0.3402 -0.6411
vn -0.0327 0.1209 -0.9921
vn -0.0616 -0.7195 0.6918
vn -0.6124 -0.7879 0.0644
vn 0.9598 0.2443 0.1384
vn 0.6381 -0.2602 0.7247
vn -0.0327 0.1210 -0.9921
vn 0.6613 0.4138 -0.6257
vn -0.5460 0.3303 0.7700
vn -0.1237 0.9923 0.0003
vn -0.8602 0.5087 -0.0343
vn -0.5291 0.8212 -0.2136
vn 0.0506 0.8932 0.4467
vn -0.3998 -0.1779 0.8992
vn -0.7720 -0.2063 -0.6011
vn -0.1850 0.3476 -0.9192
vn -0.7721 -0.2063 -0.6011
vn -0.2149 -0.5229 0.8248
vn -0.7854 -0.5938 0.1751
vn -0.2149 -0.5229 0.8249
vn 0.8430 0.4753 0.2518
vn 0.5099 -0.0470 0.8590
vn 0.9598 0.2442 0.1383
vn -0.1849 0.3476 -0.9192
vn 0.5338 0.6510 -0.5397
vn -0.1850 0.3477 -0.9192
vn -0.7854 -0.5938 0.1750
vn -0.7721 -0.2064 -0.6011
vn -0.7854 -0.5937 0.1751
vn 0.5099 -0.0471 0.8590
vn 0.5098 -0.0470 0.8590
vn 0.8430 0.4753 0.2517
vn 0.9598 0.2443 0.1383
vt 0.530319 0.635056
vt 0.522446 0.641335
vt 0.524872 0.636299
vt 0.524872 0.646370
vt 0.534683 0.638535
vt 0.530319 0.647614
vt 0.534683 0.644127
vt 0.508789 0.671494
vt 0.513626 0.669548
vt 0.511276 0.672157
vt 0.507889 0.669609
vt 0.511566 0.666756
vt 0.507935 0.667854
vt 0.509277 0.666748
vt 0.506302 0.666855
vt 0.505722 0.669838
vt 0.502487 0.669685
vt 0.506897 0.673050
vt 0.503479 0.674789
vt 0.497520 0.669067
vt 0.497810 0.676537
vt 0.510727 0.675606
vt 0.507721 0.680244
vt 0.501465 0.684982
vt 0.518890 0.674767
vt 0.518692 0.686485
vt 0.509125 0.696274
vt 0.518890 0.658051
vt 0.512238 0.663902
vt 0.511536 0.659698
vt 0.517990 0.665543
vt 0.515472 0.651657
vt 0.509323 0.655174
vt 0.508469 0.664742
vt 0.506836 0.661980
vt 0.504074 0.658463
vt 0.503784 0.665283
vt 0.499901 0.662933
vt 0.495453 0.660286
vt 0.491707 0.668175
vt 0.506927 0.651588
vt 0.501038 0.654999
vt 0.494583 0.688484
vt 0.500031 0.699394
vt 0.491287 0.678001
vt 0.512177 0.648293
vt 0.627350 0.642853
vt 0.649124 0.647896
vt 0.627441 0.648445
vt 0.649033 0.642670
vt 0.627441 0.631676
vt 0.649033 0.637444
vt 0.627350 0.637268
vt 0.649124 0.632225
vt 0.627914 0.620506
vt 0.649292 0.626999
vt 0.627625 0.626091
vt 0.649551 0.621780
vt 0.649292 0.653114
vt 0.627625 0.654030
vt 0.649551 0.658333
vt 0.627914 0.659607
s 0
usemtl decorations
f 240/1/1 239/2/1 238/3/1
f 237/1/1 236/4/1 235/2/1
f 234/5/1 233/4/1 232/1/1
f 231/5/1 230/6/1 229/4/1
f 228/6/1 227/5/1 226/7/1
s 1
f 225/8/2 224/9/3 223/10/4
f 222/11/5 221/9/6 220/8/2
f 219/11/5 218/12/7 217/9/3
f 216/13/8 215/12/9 214/11/5
f 213/12/7 212/13/10 211/14/11
f 210/15/12 209/11/5 208/16/13
f 207/15/12 206/13/8 205/11/5
f 204/17/14 203/18/15 202/19/16
f 201/17/17 200/16/18 199/18/19
f 198/20/20 197/19/16 196/21/21
f 195/20/20 194/17/17 193/19/22
f 192/19/16 191/22/23 190/23/24
f 189/19/16 188/18/25 187/22/26
f 186/21/27 185/23/28 184/24/29
f 183/21/27 3/19/16 182/23/28
f 181/23/24 180/25/30 179/26/31
f 178/23/24 177/22/32 176/25/30
f 175/24/33 174/26/34 173/27/35
f 172/24/33 4/23/24 171/26/34
f 170/28/34 169/29/36 168/30/37
f 167/28/34 166/31/38 165/29/39
f 164/32/40 163/30/41 162/33/42
f 161/32/40 13/28/34 160/30/43
f 159/30/37 158/34/44 157/35/45
f 156/30/37 155/29/46 154/34/44
f 153/33/42 152/35/45 151/36/47
f 150/33/42 14/30/37 149/35/45
f 148/35/48 147/15/49 146/37/50
f 145/35/48 144/34/51 143/15/49
f 142/36/47 141/37/50 140/38/52
f 139/36/47 16/35/45 138/37/50
f 137/37/53 136/16/18 135/17/17
f 134/37/54 133/15/49 132/16/13
f 131/38/52 130/17/17 129/20/55
f 128/38/52 36/37/50 25/17/17
f 127/39/56 126/20/57 125/40/58
f 124/39/56 123/38/52 122/20/57
f 121/41/59 120/36/47 119/42/60
f 118/41/59 117/33/42 116/36/47
f 115/43/61 114/27/35 113/44/62
f 112/43/63 111/24/64 110/27/35
f 109/40/58 108/21/27 107/45/65
f 106/40/58 40/20/57 105/21/27
f 104/42/66 103/38/52 102/39/67
f 101/42/66 41/36/47 42/38/52
f 100/46/68 99/33/42 98/41/69
f 97/46/62 37/32/40 38/33/42
f 96/45/70 95/24/29 94/43/71
f 93/45/65 33/21/27 34/24/29
f 92/29/46 91/14/72 90/34/51
f 89/29/46 88/12/7 87/14/11
f 86/22/32 85/9/6 84/25/30
f 83/22/32 82/10/73 81/9/6
f 80/16/18 79/8/2 78/18/19
f 29/16/18 30/11/74 77/8/75
f 76/31/38 75/12/7 28/29/39
f 31/31/38 26/9/76 27/12/7
f 74/18/15 73/10/4 24/22/26
f 21/18/15 22/8/75 23/10/4
f 72/34/77 71/13/8 20/15/49
f 17/34/77 18/14/72 19/13/8
f 70/47/78 69/48/70 68/49/79
f 67/47/80 66/50/58 65/48/65
f 64/51/81 63/52/67 62/53/82
f 61/51/83 60/54/60 59/52/67
f 58/55/84 57/56/69 56/57/85
f 55/55/84 54/58/86 53/56/69
f 52/49/87 51/59/61 50/60/88
f 2/49/89 32/48/65 49/59/63
f 48/53/90 47/50/58 12/47/91
f 9/53/92 10/52/67 11/50/58
f 46/57/93 45/54/60 8/51/83
f 5/57/94 6/56/69 7/54/60
f 44/60/88 43/61/68 15/62/95
f 1/60/88 35/59/71 39/61/96
