# Blender 5.0.0
# www.blender.org
mtllib Circle_005_Circle_Dupli_195_decorations_0.mtl
o Circle.005|Circle|Dupli|195_decorations_0
v -4.378593 1.456797 0.764277
v -4.379934 1.456774 0.764706
v -4.378697 1.462560 0.769863
v -4.376783 1.462593 0.769250
v -4.377512 1.454998 0.765703
v -4.376445 1.458773 0.769507
v -4.377449 1.458337 0.770238
v -4.378586 1.454531 0.766485
v -4.379929 1.454957 0.766477
v -4.378704 1.458735 0.770231
v -4.379265 1.459668 0.769491
v -4.380528 1.455955 0.765686
v -4.375246 1.461466 0.769883
v -4.375241 1.460027 0.771286
v -4.377515 1.456007 0.764720
v -4.376773 1.459360 0.772401
v -4.376559 1.460670 0.773142
v -4.376493 1.461821 0.773408
v -4.377511 1.462143 0.773402
v -4.378117 1.461164 0.773133
v -4.378124 1.463274 0.771076
v -4.377514 1.463520 0.772060
v -4.376499 1.463538 0.771735
v -4.376567 1.463301 0.770578
v -4.379545 1.461392 0.771261
v -4.375682 1.462939 0.772071
v -4.375679 1.462175 0.772816
v -4.375312 1.461212 0.772234
v -4.378814 1.462323 0.772214
v -4.377965 1.462900 0.772802
v -4.375316 1.462383 0.771093
v -4.378709 1.460434 0.768575
v -4.378821 1.461347 0.768967
v -4.377165 1.461375 0.768436
v -4.377456 1.460455 0.768174
v -4.378689 1.459968 0.772390
v -4.375834 1.460399 0.768984
v -4.375830 1.459154 0.770198
v -4.376448 1.459716 0.768588
v -4.379555 1.460335 0.770176
v -4.377157 1.458577 0.771164
v -4.378814 1.459102 0.771154
v -4.376448 1.459716 0.768588
v -4.378593 1.456797 0.764277
v -4.377449 1.458337 0.770238
v -4.377512 1.454998 0.765703
v -4.379265 1.459668 0.769491
v -4.379929 1.454957 0.766477
v -4.377456 1.460455 0.768174
v -4.378593 1.456797 0.764277
v -4.377456 1.460455 0.768174
v -4.379934 1.456774 0.764706
v -4.376445 1.458773 0.769507
v -4.376448 1.459716 0.768588
v -4.377515 1.456007 0.764720
v -4.377512 1.454998 0.765703
v -4.376445 1.458773 0.769507
v -4.377515 1.456007 0.764720
v -4.378704 1.458735 0.770231
v -4.377449 1.458337 0.770238
v -4.378586 1.454531 0.766485
v -4.379929 1.454957 0.766477
v -4.378704 1.458735 0.770231
v -4.378586 1.454531 0.766485
v -4.378709 1.460434 0.768575
v -4.379265 1.459668 0.769491
v -4.380528 1.455955 0.765686
v -4.379934 1.456774 0.764706
v -4.378709 1.460434 0.768575
v -4.380528 1.455955 0.765686
v -4.377511 1.462143 0.773402
v -4.376559 1.460670 0.773142
v -4.376499 1.463538 0.771735
v -4.378124 1.463274 0.771076
v -4.375679 1.462175 0.772816
v -4.375316 1.462383 0.771093
v -4.377514 1.463520 0.772060
v -4.378124 1.463274 0.771076
v -4.377514 1.463520 0.772060
v -4.378814 1.462323 0.772214
v -4.375682 1.462939 0.772071
v -4.376499 1.463538 0.771735
v -4.376567 1.463301 0.770578
v -4.375316 1.462383 0.771093
v -4.375682 1.462939 0.772071
v -4.376567 1.463301 0.770578
v -4.376493 1.461821 0.773408
v -4.375679 1.462175 0.772816
v -4.375312 1.461212 0.772234
v -4.376559 1.460670 0.773142
v -4.376493 1.461821 0.773408
v -4.375312 1.461212 0.772234
v -4.378709 1.460434 0.768575
v -4.377456 1.460455 0.768174
v -4.377165 1.461375 0.768436
v -4.378709 1.460434 0.768575
v -4.376448 1.459716 0.768588
v -4.376445 1.458773 0.769507
v -4.375830 1.459154 0.770198
v -4.376448 1.459716 0.768588
v -4.377449 1.458337 0.770238
v -4.378704 1.458735 0.770231
v -4.378814 1.459102 0.771154
v -4.377449 1.458337 0.770238
v -4.378821 1.461347 0.768967
v -4.379265 1.459668 0.769491
v -4.378709 1.460434 0.768575
v -4.378821 1.461347 0.768967
v -4.379265 1.459668 0.769491
v -4.375834 1.460399 0.768984
v -4.377165 1.461375 0.768436
v -4.377456 1.460455 0.768174
v -4.376448 1.459716 0.768588
v -4.375834 1.460399 0.768984
v -4.377456 1.460455 0.768174
v -4.377157 1.458577 0.771164
v -4.375830 1.459154 0.770198
v -4.376445 1.458773 0.769507
v -4.377449 1.458337 0.770238
v -4.377157 1.458577 0.771164
v -4.376445 1.458773 0.769507
v -4.379555 1.460335 0.770176
v -4.378814 1.459102 0.771154
v -4.378704 1.458735 0.770231
v -4.379265 1.459668 0.769491
v -4.379555 1.460335 0.770176
v -4.378704 1.458735 0.770231
v -4.378814 1.459102 0.771154
v -4.379555 1.460335 0.770176
v -4.379545 1.461392 0.771261
v -4.378814 1.459102 0.771154
v -4.378814 1.462323 0.772214
v -4.378117 1.461164 0.773133
v -4.378689 1.459968 0.772390
v -4.379545 1.461392 0.771261
v -4.378814 1.462323 0.772214
v -4.378689 1.459968 0.772390
v -4.378689 1.459968 0.772390
v -4.377157 1.458577 0.771164
v -4.378814 1.459102 0.771154
v -4.378689 1.459968 0.772390
v -4.377157 1.458577 0.771164
v -4.378117 1.461164 0.773133
v -4.376559 1.460670 0.773142
v -4.376773 1.459360 0.772401
v -4.378689 1.459968 0.772390
v -4.378117 1.461164 0.773133
v -4.376773 1.459360 0.772401
v -4.376773 1.459360 0.772401
v -4.375830 1.459154 0.770198
v -4.377157 1.458577 0.771164
v -4.376773 1.459360 0.772401
v -4.375830 1.459154 0.770198
v -4.376559 1.460670 0.773142
v -4.375312 1.461212 0.772234
v -4.375241 1.460027 0.771286
v -4.376773 1.459360 0.772401
v -4.376559 1.460670 0.773142
v -4.375241 1.460027 0.771286
v -4.375241 1.460027 0.771286
v -4.375834 1.460399 0.768984
v -4.375830 1.459154 0.770198
v -4.375241 1.460027 0.771286
v -4.375834 1.460399 0.768984
v -4.375312 1.461212 0.772234
v -4.375316 1.462383 0.771093
v -4.375246 1.461466 0.769883
v -4.375241 1.460027 0.771286
v -4.375312 1.461212 0.772234
v -4.375246 1.461466 0.769883
v -4.375246 1.461466 0.769883
v -4.377165 1.461375 0.768436
v -4.375834 1.460399 0.768984
v -4.375246 1.461466 0.769883
v -4.377165 1.461375 0.768436
v -4.375316 1.462383 0.771093
v -4.376567 1.463301 0.770578
v -4.376783 1.462593 0.769250
v -4.375246 1.461466 0.769883
v -4.375316 1.462383 0.771093
v -4.376783 1.462593 0.769250
v -4.376783 1.462593 0.769250
v -4.378821 1.461347 0.768967
v -4.377165 1.461375 0.768436
v -4.376783 1.462593 0.769250
v -4.378821 1.461347 0.768967
v -4.376567 1.463301 0.770578
v -4.378124 1.463274 0.771076
v -4.378697 1.462560 0.769863
v -4.376783 1.462593 0.769250
v -4.376567 1.463301 0.770578
v -4.378697 1.462560 0.769863
v -4.378697 1.462560 0.769863
v -4.379545 1.461392 0.771261
v -4.379555 1.460335 0.770176
v -4.378821 1.461347 0.768967
v -4.378697 1.462560 0.769863
v -4.379555 1.460335 0.770176
v -4.378124 1.463274 0.771076
v -4.378814 1.462323 0.772214
v -4.379545 1.461392 0.771261
v -4.378697 1.462560 0.769863
v -4.378124 1.463274 0.771076
v -4.379545 1.461392 0.771261
v -4.377965 1.462900 0.772802
v -4.377511 1.462143 0.773402
v -4.378117 1.461164 0.773133
v -4.378814 1.462323 0.772214
v -4.377965 1.462900 0.772802
v -4.378117 1.461164 0.773133
v -4.376493 1.461821 0.773408
v -4.377511 1.462143 0.773402
v -4.375679 1.462175 0.772816
v -4.377965 1.462900 0.772802
v -4.375679 1.462175 0.772816
v -4.377511 1.462143 0.773402
v -4.375682 1.462939 0.772071
v -4.375679 1.462175 0.772816
v -4.377965 1.462900 0.772802
v -4.377514 1.463520 0.772060
v -4.375682 1.462939 0.772071
v -4.377965 1.462900 0.772802
v -4.376499 1.463538 0.771735
v -4.375682 1.462939 0.772071
v -4.377514 1.463520 0.772060
v -4.378586 1.454531 0.766485
v -4.377512 1.454998 0.765703
v -4.379929 1.454957 0.766477
v -4.380528 1.455955 0.765686
v -4.379929 1.454957 0.766477
v -4.377512 1.454998 0.765703
v -4.377515 1.456007 0.764720
v -4.380528 1.455955 0.765686
v -4.377512 1.454998 0.765703
v -4.379934 1.456774 0.764706
v -4.380528 1.455955 0.765686
v -4.377515 1.456007 0.764720
v -4.378593 1.456797 0.764277
v -4.379934 1.456774 0.764706
v -4.377515 1.456007 0.764720
vn -0.2124 -0.6824 -0.6994
vn -0.1691 0.9309 0.3239
vn 0.6713 0.6642 0.3289
vn 0.2968 0.9388 0.1746
vn -0.3756 0.6463 0.6643
vn 0.6713 0.6642 0.3288
vn -0.1691 0.9308 0.3239
vn -0.3756 0.6463 0.6642
vn 0.6724 0.3138 0.6704
vn -0.1672 0.2994 0.9393
vn -0.1672 0.2995 0.9393
vn 0.2992 0.1515 0.9421
vn -0.4680 -0.1491 0.8711
vn -0.8054 0.4124 0.4257
vn -0.9685 0.1724 0.1799
vn -0.4711 0.8731 -0.1253
vn -0.6025 0.6767 -0.4232
vn -0.9685 0.1724 0.1800
vn -0.9915 -0.0921 -0.0914
vn -0.6468 0.3830 -0.6595
vn -0.6025 0.6767 -0.4231
vn 0.2832 0.8861 -0.3669
vn 0.2232 0.6909 -0.6877
vn -0.6468 0.3829 -0.6596
vn 0.2231 0.6909 -0.6877
vn 0.1310 0.3963 -0.9087
vn 0.2232 0.6908 -0.6877
vn 0.8896 0.4415 -0.1174
vn 0.8869 0.2042 -0.4145
vn 0.2832 0.8861 -0.3670
vn 0.8895 0.4416 -0.1173
vn 0.1310 0.3962 -0.9088
vn 0.7563 -0.0621 -0.6513
vn 0.8869 0.2041 -0.4145
vn 0.8913 -0.1258 0.4356
vn 0.8888 -0.4167 0.1908
vn 0.8869 0.2042 -0.4144
vn 0.8896 0.4415 -0.1173
vn 0.8913 -0.1257 0.4356
vn 0.7563 -0.0622 -0.6513
vn 0.8888 -0.4168 0.1908
vn 0.7581 -0.6471 -0.0811
vn 0.2872 -0.3886 0.8755
vn 0.2274 -0.7045 0.6723
vn 0.7580 -0.6472 -0.0812
vn 0.1351 -0.9182 0.3725
vn -0.5991 -0.4423 0.6675
vn 0.2871 -0.3886 0.8755
vn -0.4679 -0.1491 0.8711
vn 0.1350 -0.9182 0.3724
vn -0.5991 -0.4423 0.6674
vn -0.6435 -0.6712 0.3679
vn 0.1350 -0.9182 0.3725
vn -0.5991 -0.4422 0.6675
vn -0.6436 -0.6712 0.3679
vn -0.6420 -0.6303 0.4365
vn -0.9987 -0.0366 -0.0344
vn -0.6420 -0.6304 0.4365
vn 0.7953 -0.6057 -0.0239
vn 0.1565 -0.8837 0.4412
vn 0.7580 -0.6471 -0.0812
vn 0.1524 0.4642 -0.8725
vn 0.7935 -0.0059 -0.6086
vn -0.6468 0.3829 -0.6595
vn -0.6453 0.4505 -0.6170
vn -0.9915 -0.0922 -0.0914
vn 0.1565 -0.8836 0.4412
vn -0.6419 -0.6304 0.4365
vn 0.7581 -0.6471 -0.0812
vn 0.7953 -0.6058 -0.0239
vn -0.6452 0.4505 -0.6170
vn 0.6724 0.3139 0.6704
vn 0.2833 0.8861 -0.3669
vn 0.8895 0.4415 -0.1173
vn 0.2968 0.9389 0.1746
vn -0.8054 0.4125 0.4256
vn -0.9729 0.1599 0.1671
vn -0.6068 0.6644 -0.4363
vn 0.2236 -0.7175 0.6597
vn -0.6033 -0.4551 0.6549
vn 0.2236 -0.7174 0.6598
vn 0.8834 0.1916 -0.4276
vn 0.8853 -0.4296 0.1779
vn 0.8834 0.1917 -0.4275
vn -0.6067 0.6644 -0.4364
vn 0.2193 0.6786 -0.7010
vn -0.6067 0.6644 -0.4363
vn 0.1523 0.4642 -0.8725
vn 0.8853 -0.4296 0.1780
vn 0.8834 0.1917 -0.4276
vn 0.2194 0.6786 -0.7010
vn 0.1523 0.4642 -0.8726
vt 0.543243 0.611839
vt 0.535370 0.618118
vt 0.537796 0.613083
vt 0.537796 0.623154
vt 0.547607 0.615326
vt 0.543243 0.624397
vt 0.547607 0.620918
vt 0.565384 0.671494
vt 0.570206 0.669548
vt 0.567856 0.672157
vt 0.564468 0.669609
vt 0.568146 0.666756
vt 0.564514 0.667854
vt 0.565857 0.666748
vt 0.562897 0.666855
vt 0.562302 0.669838
vt 0.559082 0.669685
vt 0.563492 0.673050
vt 0.560059 0.674789
vt 0.554092 0.669067
vt 0.554398 0.676537
vt 0.567307 0.675606
vt 0.564316 0.680244
vt 0.558044 0.684982
vt 0.575485 0.674767
vt 0.575272 0.686485
vt 0.565720 0.696274
vt 0.575485 0.658051
vt 0.568817 0.663902
vt 0.568115 0.659698
vt 0.574570 0.665543
vt 0.572052 0.651657
vt 0.565903 0.655174
vt 0.565063 0.664742
vt 0.563416 0.661980
vt 0.560669 0.658463
vt 0.560364 0.665283
vt 0.556488 0.662933
vt 0.552032 0.660286
vt 0.548294 0.668175
vt 0.563522 0.651588
vt 0.557617 0.654999
vt 0.551163 0.688484
vt 0.556610 0.699394
vt 0.547867 0.678001
vt 0.568756 0.648293
vt 0.604446 0.682632
vt 0.626221 0.687675
vt 0.604553 0.688225
vt 0.626144 0.682457
vt 0.604553 0.671455
vt 0.626144 0.677231
vt 0.604446 0.677048
vt 0.626221 0.672005
vt 0.605011 0.660294
vt 0.626404 0.666786
vt 0.604736 0.665871
vt 0.626663 0.661568
vt 0.626404 0.692902
vt 0.604736 0.693810
vt 0.626663 0.698120
vt 0.605011 0.699394
s 0
usemtl decorations
f 240/1/1 239/2/1 238/3/1
f 237/1/1 236/4/1 235/2/1
f 234/5/1 233/4/1 232/1/1
f 231/5/1 230/6/1 229/4/1
f 228/6/1 227/5/1 226/7/1
s 1
f 225/8/2 224/9/3 223/10/4
f 222/11/5 221/9/6 220/8/7
f 219/11/8 218/12/9 217/9/3
f 216/13/10 215/12/9 214/11/8
f 213/12/9 212/13/11 211/14/12
f 210/15/13 209/11/8 208/16/14
f 207/15/13 206/13/11 205/11/8
f 204/17/15 203/18/16 202/19/17
f 201/17/18 200/16/14 199/18/16
f 198/20/19 197/19/17 196/21/20
f 195/20/19 194/17/15 193/19/21
f 192/19/17 191/22/22 190/23/23
f 189/19/17 188/18/16 187/22/22
f 186/21/24 185/23/25 184/24/26
f 183/21/24 3/19/17 182/23/25
f 181/23/27 180/25/28 179/26/29
f 178/23/23 177/22/30 176/25/31
f 175/24/32 174/26/29 173/27/33
f 172/24/32 4/23/27 171/26/29
f 170/28/34 169/29/35 168/30/36
f 167/28/37 166/31/38 165/29/39
f 164/32/40 163/30/41 162/33/42
f 161/32/40 13/28/37 160/30/36
f 159/30/36 158/34/43 157/35/44
f 156/30/36 155/29/35 154/34/43
f 153/33/45 152/35/44 151/36/46
f 150/33/45 14/30/36 149/35/44
f 148/35/44 147/15/13 146/37/47
f 145/35/44 144/34/48 143/15/49
f 142/36/50 141/37/51 140/38/52
f 139/36/53 16/35/44 138/37/51
f 137/37/51 136/16/14 135/17/15
f 134/37/54 133/15/13 132/16/14
f 131/38/55 130/17/15 129/20/19
f 128/38/55 36/37/47 25/17/15
f 127/39/56 126/20/19 125/40/57
f 124/39/58 123/38/55 122/20/19
f 121/41/59 120/36/46 119/42/60
f 118/41/59 117/33/61 116/36/46
f 115/43/62 114/27/33 113/44/63
f 112/43/62 111/24/26 110/27/33
f 109/40/57 108/21/64 107/45/65
f 106/40/57 40/20/66 105/21/64
f 104/42/67 103/38/55 102/39/68
f 101/42/60 41/36/46 42/38/55
f 100/46/63 99/33/69 98/41/70
f 97/46/63 37/32/40 38/33/69
f 96/45/71 95/24/26 94/43/62
f 93/45/71 33/21/64 34/24/26
f 92/29/35 91/14/12 90/34/43
f 89/29/35 88/12/72 87/14/12
f 86/22/73 85/9/3 84/25/74
f 83/22/73 82/10/75 81/9/3
f 80/16/76 79/8/2 78/18/16
f 29/16/76 30/11/5 77/8/7
f 76/31/38 75/12/9 28/29/39
f 31/31/38 26/9/3 27/12/72
f 74/18/16 73/10/4 24/22/22
f 21/18/16 22/8/7 23/10/4
f 72/34/48 71/13/11 20/15/13
f 17/34/48 18/14/12 19/13/11
f 70/47/77 69/48/65 68/49/78
f 67/47/77 66/50/57 65/48/65
f 64/51/79 63/52/68 62/53/80
f 61/51/81 60/54/60 59/52/68
f 58/55/82 57/56/59 56/57/83
f 55/55/84 54/58/63 53/56/59
f 52/49/85 51/59/62 50/60/86
f 2/49/87 32/48/65 49/59/88
f 48/53/80 47/50/57 12/47/77
f 9/53/80 10/52/68 11/50/57
f 46/57/83 45/54/67 8/51/79
f 5/57/89 6/56/59 7/54/60
f 44/60/86 43/61/63 15/62/90
f 1/60/91 35/59/92 39/61/63
