# Blender 5.0.0
# www.blender.org
mtllib Circle_002_Circle_004_Dupli_236_decorations_0.mtl
o Circle.002|Circle.004|Dupli|236_decorations_0
v -4.660089 0.649037 0.715554
v -4.660795 0.648030 0.714867
v -4.656778 0.649305 0.708246
v -4.655771 0.650741 0.709225
v -4.661594 0.651062 0.715289
v -4.658991 0.652287 0.710643
v -4.659999 0.651813 0.709941
v -4.662673 0.650556 0.714538
v -4.662867 0.649248 0.714053
v -4.660181 0.650591 0.709487
v -4.659400 0.649540 0.709625
v -4.662031 0.648124 0.714200
v -4.656278 0.652667 0.709492
v -4.657919 0.653631 0.708847
v -4.660445 0.650386 0.715741
v -4.659457 0.652908 0.707775
v -4.658452 0.652980 0.706637
v -4.657511 0.652790 0.705946
v -4.657658 0.651799 0.705579
v -4.658678 0.651461 0.706074
v -4.656272 0.650047 0.707020
v -4.656088 0.650876 0.706196
v -4.655553 0.651639 0.706716
v -4.655453 0.651216 0.707816
v -4.658542 0.649439 0.707293
v -4.655823 0.652662 0.706858
v -4.656694 0.653174 0.706516
v -4.657201 0.653568 0.707509
v -4.657708 0.650156 0.706244
v -4.657025 0.650947 0.705690
v -4.655866 0.652783 0.708034
v -4.658244 0.649452 0.710249
v -4.657618 0.649225 0.709503
v -4.656745 0.650469 0.710351
v -4.657584 0.650393 0.710890
v -4.659734 0.651042 0.707083
v -4.657185 0.652135 0.710582
v -4.658605 0.652970 0.710024
v -4.657916 0.651655 0.711066
v -4.659144 0.649341 0.708679
v -4.659936 0.652344 0.709096
v -4.660176 0.650729 0.708497
v -4.657916 0.651655 0.711066
v -4.660089 0.649037 0.715554
v -4.659999 0.651813 0.709941
v -4.661594 0.651062 0.715289
v -4.659400 0.649540 0.709625
v -4.662867 0.649248 0.714053
v -4.657584 0.650393 0.710890
v -4.660089 0.649037 0.715554
v -4.657584 0.650393 0.710890
v -4.660795 0.648030 0.714867
v -4.658991 0.652287 0.710643
v -4.657916 0.651655 0.711066
v -4.660445 0.650386 0.715741
v -4.661594 0.651062 0.715289
v -4.658991 0.652287 0.710643
v -4.660445 0.650386 0.715741
v -4.660181 0.650591 0.709487
v -4.659999 0.651813 0.709941
v -4.662673 0.650556 0.714538
v -4.662867 0.649248 0.714053
v -4.660181 0.650591 0.709487
v -4.662673 0.650556 0.714538
v -4.658244 0.649452 0.710249
v -4.659400 0.649540 0.709625
v -4.662031 0.648124 0.714200
v -4.660795 0.648030 0.714867
v -4.658244 0.649452 0.710249
v -4.662031 0.648124 0.714200
v -4.657658 0.651799 0.705579
v -4.658452 0.652980 0.706637
v -4.655553 0.651639 0.706716
v -4.656272 0.650047 0.707020
v -4.656694 0.653174 0.706516
v -4.655866 0.652783 0.708034
v -4.656088 0.650876 0.706196
v -4.656272 0.650047 0.707020
v -4.656088 0.650876 0.706196
v -4.657708 0.650156 0.706244
v -4.655823 0.652662 0.706858
v -4.655553 0.651639 0.706716
v -4.655453 0.651216 0.707816
v -4.655866 0.652783 0.708034
v -4.655823 0.652662 0.706858
v -4.655453 0.651216 0.707816
v -4.657511 0.652790 0.705946
v -4.656694 0.653174 0.706516
v -4.657201 0.653568 0.707509
v -4.658452 0.652980 0.706637
v -4.657511 0.652790 0.705946
v -4.657201 0.653568 0.707509
v -4.658244 0.649452 0.710249
v -4.657584 0.650393 0.710890
v -4.656745 0.650469 0.710351
v -4.658244 0.649452 0.710249
v -4.657916 0.651655 0.711066
v -4.658991 0.652287 0.710643
v -4.658605 0.652970 0.710024
v -4.657916 0.651655 0.711066
v -4.659999 0.651813 0.709941
v -4.660181 0.650591 0.709487
v -4.660176 0.650729 0.708497
v -4.659999 0.651813 0.709941
v -4.657618 0.649225 0.709503
v -4.659400 0.649540 0.709625
v -4.658244 0.649452 0.710249
v -4.657618 0.649225 0.709503
v -4.659400 0.649540 0.709625
v -4.657185 0.652135 0.710582
v -4.656745 0.650469 0.710351
v -4.657584 0.650393 0.710890
v -4.657916 0.651655 0.711066
v -4.657185 0.652135 0.710582
v -4.657584 0.650393 0.710890
v -4.659936 0.652344 0.709096
v -4.658605 0.652970 0.710024
v -4.658991 0.652287 0.710643
v -4.659999 0.651813 0.709941
v -4.659936 0.652344 0.709096
v -4.658991 0.652287 0.710643
v -4.659144 0.649341 0.708679
v -4.660176 0.650729 0.708497
v -4.660181 0.650591 0.709487
v -4.659400 0.649540 0.709625
v -4.659144 0.649341 0.708679
v -4.660181 0.650591 0.709487
v -4.660176 0.650729 0.708497
v -4.659144 0.649341 0.708679
v -4.658542 0.649439 0.707293
v -4.660176 0.650729 0.708497
v -4.657708 0.650156 0.706244
v -4.658678 0.651461 0.706074
v -4.659734 0.651042 0.707083
v -4.658542 0.649439 0.707293
v -4.657708 0.650156 0.706244
v -4.659734 0.651042 0.707083
v -4.659734 0.651042 0.707083
v -4.659936 0.652344 0.709096
v -4.660176 0.650729 0.708497
v -4.659734 0.651042 0.707083
v -4.659936 0.652344 0.709096
v -4.658678 0.651461 0.706074
v -4.658452 0.652980 0.706637
v -4.659457 0.652908 0.707775
v -4.659734 0.651042 0.707083
v -4.658678 0.651461 0.706074
v -4.659457 0.652908 0.707775
v -4.659457 0.652908 0.707775
v -4.658605 0.652970 0.710024
v -4.659936 0.652344 0.709096
v -4.659457 0.652908 0.707775
v -4.658605 0.652970 0.710024
v -4.658452 0.652980 0.706637
v -4.657201 0.653568 0.707509
v -4.657919 0.653631 0.708847
v -4.659457 0.652908 0.707775
v -4.658452 0.652980 0.706637
v -4.657919 0.653631 0.708847
v -4.657919 0.653631 0.708847
v -4.657185 0.652135 0.710582
v -4.658605 0.652970 0.710024
v -4.657919 0.653631 0.708847
v -4.657185 0.652135 0.710582
v -4.657201 0.653568 0.707509
v -4.655866 0.652783 0.708034
v -4.656278 0.652667 0.709492
v -4.657919 0.653631 0.708847
v -4.657201 0.653568 0.707509
v -4.656278 0.652667 0.709492
v -4.656278 0.652667 0.709492
v -4.656745 0.650469 0.710351
v -4.657185 0.652135 0.710582
v -4.656278 0.652667 0.709492
v -4.656745 0.650469 0.710351
v -4.655866 0.652783 0.708034
v -4.655453 0.651216 0.707816
v -4.655771 0.650741 0.709225
v -4.656278 0.652667 0.709492
v -4.655866 0.652783 0.708034
v -4.655771 0.650741 0.709225
v -4.655771 0.650741 0.709225
v -4.657618 0.649225 0.709503
v -4.656745 0.650469 0.710351
v -4.655771 0.650741 0.709225
v -4.657618 0.649225 0.709503
v -4.655453 0.651216 0.707816
v -4.656272 0.650047 0.707020
v -4.656778 0.649305 0.708246
v -4.655771 0.650741 0.709225
v -4.655453 0.651216 0.707816
v -4.656778 0.649305 0.708246
v -4.656778 0.649305 0.708246
v -4.658542 0.649439 0.707293
v -4.659144 0.649341 0.708679
v -4.657618 0.649225 0.709503
v -4.656778 0.649305 0.708246
v -4.659144 0.649341 0.708679
v -4.656272 0.650047 0.707020
v -4.657708 0.650156 0.706244
v -4.658542 0.649439 0.707293
v -4.656778 0.649305 0.708246
v -4.656272 0.650047 0.707020
v -4.658542 0.649439 0.707293
v -4.657025 0.650947 0.705690
v -4.657658 0.651799 0.705579
v -4.658678 0.651461 0.706074
v -4.657708 0.650156 0.706244
v -4.657025 0.650947 0.705690
v -4.658678 0.651461 0.706074
v -4.657511 0.652790 0.705946
v -4.657658 0.651799 0.705579
v -4.656694 0.653174 0.706516
v -4.657025 0.650947 0.705690
v -4.656694 0.653174 0.706516
v -4.657658 0.651799 0.705579
v -4.655823 0.652662 0.706858
v -4.656694 0.653174 0.706516
v -4.657025 0.650947 0.705690
v -4.656088 0.650876 0.706196
v -4.655823 0.652662 0.706858
v -4.657025 0.650947 0.705690
v -4.655553 0.651639 0.706716
v -4.655823 0.652662 0.706858
v -4.656088 0.650876 0.706196
v -4.662673 0.650556 0.714538
v -4.661594 0.651062 0.715289
v -4.662867 0.649248 0.714053
v -4.662031 0.648124 0.714200
v -4.662867 0.649248 0.714053
v -4.661594 0.651062 0.715289
v -4.660445 0.650386 0.715741
v -4.662031 0.648124 0.714200
v -4.661594 0.651062 0.715289
v -4.660795 0.648030 0.714867
v -4.662031 0.648124 0.714200
v -4.660445 0.650386 0.715741
v -4.660089 0.649037 0.715554
v -4.660795 0.648030 0.714867
v -4.660445 0.650386 0.715741
vn -0.4753 -0.2429 0.8456
vn 0.6372 -0.3074 -0.7067
vn 0.7589 0.5115 -0.4032
vn 0.8825 0.0424 -0.4684
vn 0.2076 -0.2748 -0.9388
vn 0.7589 0.5114 -0.4032
vn 0.2077 -0.2748 -0.9388
vn 0.3594 0.7463 -0.5603
vn -0.0827 0.1158 -0.9898
vn -0.0826 0.1158 -0.9898
vn -0.0151 0.5702 -0.8214
vn -0.5754 -0.0382 -0.8170
vn -0.1054 -0.6704 -0.7345
vn 0.2077 -0.2747 -0.9388
vn -0.3097 -0.8332 -0.4581
vn 0.5901 -0.7233 -0.3587
vn 0.4515 -0.8910 -0.0469
vn -0.1053 -0.6705 -0.7344
vn 0.5901 -0.7233 -0.3588
vn -0.4691 -0.8755 -0.1161
vn 0.4515 -0.8910 -0.0468
vn 0.2481 -0.9300 0.2713
vn 0.9872 -0.1569 0.0272
vn 0.8863 -0.2710 0.3756
vn 0.6576 -0.3459 0.6692
vn 0.7871 0.6024 0.1328
vn 0.6672 0.5600 0.4912
vn 0.9873 -0.1568 0.0273
vn 0.7871 0.6023 0.1328
vn 0.6576 -0.3459 0.6693
vn 0.4512 0.4370 0.7781
vn 0.6671 0.5601 0.4912
vn 0.1403 0.9826 -0.1215
vn -0.0407 0.9763 0.2128
vn 0.1404 0.9826 -0.1216
vn -0.0408 0.9762 0.2128
vn -0.2157 0.8291 0.5158
vn 0.6672 0.5601 0.4912
vn -0.0407 0.9763 0.2127
vn -0.4660 0.6976 -0.5443
vn -0.7045 0.6642 -0.2499
vn 0.1403 0.9826 -0.1216
vn -0.2157 0.8291 0.5159
vn -0.8410 0.5352 0.0799
vn -0.0408 0.9763 0.2128
vn -0.5754 -0.0381 -0.8170
vn -0.8242 -0.1410 -0.5485
vn -0.5753 -0.0381 -0.8170
vn -0.8410 0.5351 0.0799
vn -0.9537 -0.2234 -0.2013
vn -0.8242 -0.1411 -0.5485
vn -0.1054 -0.6705 -0.7344
vn -0.8241 -0.1410 -0.5485
vn -0.9537 -0.2235 -0.2013
vn -0.4690 -0.8755 -0.1162
vn -0.9376 -0.2086 -0.2781
vn -0.4691 -0.8755 -0.1162
vn -0.4407 -0.8772 -0.1908
vn -0.1809 0.8708 0.4572
vn -0.8409 0.5352 0.0799
vn -0.8220 0.5693 0.0103
vn -0.1809 0.8707 0.4573
vn 0.7146 -0.3341 0.6146
vn 0.5030 0.4687 0.7262
vn 0.2480 -0.9300 0.2713
vn 0.2946 -0.9330 0.2065
vn -0.8220 0.5694 0.0103
vn 0.2947 -0.9330 0.2065
vn -0.0152 0.5702 -0.8214
vn 0.9873 -0.1568 0.0272
vn 0.6372 -0.3074 -0.7068
vn 0.7871 0.6024 0.1327
vn 0.8825 0.0425 -0.4683
vn -0.3186 -0.8381 -0.4427
vn 0.4429 -0.8960 -0.0312
vn -0.7137 0.6601 -0.2345
vn -0.8334 -0.1456 -0.5332
vn -0.9376 -0.2085 -0.2781
vn 0.6587 0.5559 0.5071
vn -0.1809 0.8707 0.4572
vn -0.0495 0.9723 0.2285
vn 0.6587 0.5559 0.5070
vn 0.4430 -0.8960 -0.0312
vn 0.8779 -0.2757 0.3914
vn -0.8334 -0.1456 -0.5331
vn -0.4406 -0.8772 -0.1908
vn -0.3187 -0.8381 -0.4427
vn -0.0496 0.9723 0.2285
vn -0.7137 0.6601 -0.2344
vn 0.8779 -0.2757 0.3915
vn 0.8780 -0.2756 0.3914
vt 0.530319 0.635056
vt 0.522446 0.641335
vt 0.524872 0.636299
vt 0.524872 0.646370
vt 0.534683 0.638535
vt 0.530319 0.647614
vt 0.534683 0.644127
vt 0.508789 0.671494
vt 0.513626 0.669548
vt 0.511276 0.672157
vt 0.507889 0.669609
vt 0.511566 0.666756
vt 0.507935 0.667854
vt 0.509277 0.666748
vt 0.506302 0.666855
vt 0.505722 0.669838
vt 0.502487 0.669685
vt 0.506897 0.673050
vt 0.503479 0.674789
vt 0.497520 0.669067
vt 0.497810 0.676537
vt 0.510727 0.675606
vt 0.507721 0.680244
vt 0.501465 0.684982
vt 0.518890 0.674767
vt 0.518692 0.686485
vt 0.509125 0.696274
vt 0.518890 0.658051
vt 0.512238 0.663902
vt 0.511536 0.659698
vt 0.517990 0.665543
vt 0.515472 0.651657
vt 0.509323 0.655174
vt 0.508469 0.664742
vt 0.506836 0.661980
vt 0.504074 0.658463
vt 0.503784 0.665283
vt 0.499901 0.662933
vt 0.495453 0.660286
vt 0.491707 0.668175
vt 0.506927 0.651588
vt 0.501038 0.654999
vt 0.494583 0.688484
vt 0.500031 0.699394
vt 0.491287 0.678001
vt 0.512177 0.648293
vt 0.627350 0.642853
vt 0.649124 0.647896
vt 0.627441 0.648445
vt 0.649033 0.642670
vt 0.627441 0.631676
vt 0.649033 0.637444
vt 0.627350 0.637268
vt 0.649124 0.632225
vt 0.627914 0.620506
vt 0.649292 0.626999
vt 0.627625 0.626091
vt 0.649551 0.621780
vt 0.649292 0.653114
vt 0.627625 0.654030
vt 0.649551 0.658333
vt 0.627914 0.659607
s 0
usemtl decorations
f 240/1/1 239/2/1 238/3/1
f 237/1/1 236/4/1 235/2/1
f 234/5/1 233/4/1 232/1/1
f 231/5/1 230/6/1 229/4/1
f 228/6/1 227/5/1 226/7/1
s 1
f 225/8/2 224/9/3 223/10/4
f 222/11/5 221/9/6 220/8/2
f 219/11/7 218/12/8 217/9/3
f 216/13/9 215/12/8 214/11/7
f 213/12/8 212/13/10 211/14/11
f 210/15/12 209/11/7 208/16/13
f 207/15/12 206/13/10 205/11/14
f 204/17/15 203/18/16 202/19/17
f 201/17/15 200/16/18 199/18/19
f 198/20/20 197/19/21 196/21/22
f 195/20/20 194/17/15 193/19/17
f 192/19/17 191/22/23 190/23/24
f 189/19/17 188/18/16 187/22/23
f 186/21/22 185/23/24 184/24/25
f 183/21/22 3/19/21 182/23/24
f 181/23/24 180/25/26 179/26/27
f 178/23/24 177/22/28 176/25/29
f 175/24/30 174/26/27 173/27/31
f 172/24/30 4/23/24 171/26/27
f 170/28/32 169/29/33 168/30/34
f 167/28/32 166/31/26 165/29/35
f 164/32/31 163/30/36 162/33/37
f 161/32/31 13/28/38 160/30/39
f 159/30/34 158/34/40 157/35/41
f 156/30/34 155/29/42 154/34/40
f 153/33/43 152/35/41 151/36/44
f 150/33/43 14/30/45 149/35/41
f 148/35/41 147/15/46 146/37/47
f 145/35/41 144/34/40 143/15/48
f 142/36/49 141/37/47 140/38/50
f 139/36/49 16/35/41 138/37/47
f 137/37/51 136/16/52 135/17/15
f 134/37/53 133/15/46 132/16/13
f 131/38/54 130/17/15 129/20/55
f 128/38/54 36/37/47 25/17/15
f 127/39/56 126/20/57 125/40/58
f 124/39/56 123/38/54 122/20/57
f 121/41/59 120/36/60 119/42/61
f 118/41/62 117/33/43 116/36/60
f 115/43/63 114/27/31 113/44/64
f 112/43/63 111/24/30 110/27/31
f 109/40/58 108/21/65 107/45/66
f 106/40/58 40/20/20 105/21/65
f 104/42/67 103/38/50 102/39/56
f 101/42/67 41/36/44 42/38/50
f 100/46/64 99/33/43 98/41/62
f 97/46/64 37/32/31 38/33/43
f 96/45/68 95/24/30 94/43/63
f 93/45/66 33/21/22 34/24/30
f 92/29/42 91/14/11 90/34/40
f 89/29/42 88/12/8 87/14/69
f 86/22/70 85/9/6 84/25/29
f 83/22/70 82/10/4 81/9/6
f 80/16/18 79/8/2 78/18/16
f 29/16/18 30/11/5 77/8/71
f 76/31/72 75/12/8 28/29/35
f 31/31/26 26/9/6 27/12/8
f 74/18/16 73/10/73 24/22/23
f 21/18/16 22/8/71 23/10/4
f 72/34/40 71/13/10 20/15/48
f 17/34/40 18/14/11 19/13/10
f 70/47/74 69/48/68 68/49/75
f 67/47/74 66/50/58 65/48/66
f 64/51/76 63/52/56 62/53/77
f 61/51/76 60/54/61 59/52/78
f 58/55/79 57/56/80 56/57/81
f 55/55/82 54/58/64 53/56/62
f 52/49/83 51/59/63 50/60/84
f 2/49/83 32/48/66 49/59/63
f 48/53/85 47/50/86 12/47/87
f 9/53/77 10/52/56 11/50/58
f 46/57/88 45/54/61 8/51/89
f 5/57/81 6/56/80 7/54/61
f 44/60/90 43/61/64 15/62/79
f 1/60/91 35/59/63 39/61/64
