# Blender 5.0.0
# www.blender.org
mtllib Circle_005_Circle_003_Dupli_61_decorations_0.mtl
o Circle.005|Circle.003|Dupli|61_decorations_0
v -4.309022 0.659411 0.404669
v -4.310386 0.659286 0.404338
v -4.310727 0.666667 0.401688
v -4.308782 0.666845 0.402161
v -4.309094 0.660056 0.407122
v -4.309302 0.665314 0.405648
v -4.310593 0.665347 0.405905
v -4.310475 0.660091 0.407397
v -4.311551 0.659832 0.406525
v -4.311598 0.665104 0.405090
v -4.311561 0.664769 0.403817
v -4.311511 0.659474 0.405164
v -4.307962 0.667333 0.403929
v -4.308884 0.667765 0.405661
v -4.308448 0.659753 0.405908
v -4.310854 0.667815 0.406053
v -4.310785 0.669119 0.405277
v -4.310647 0.669914 0.404412
v -4.311462 0.669718 0.403751
v -4.312034 0.668818 0.404265
v -4.310681 0.668185 0.401725
v -4.310580 0.669305 0.402094
v -4.309547 0.669399 0.402345
v -4.309099 0.668330 0.402110
v -4.312332 0.666934 0.402867
v -4.309112 0.669659 0.403284
v -4.309601 0.669888 0.404203
v -4.309182 0.669079 0.404958
v -4.311987 0.668403 0.402684
v -4.311432 0.669447 0.402720
v -4.308432 0.668728 0.403548
v -4.310509 0.664594 0.403045
v -4.310627 0.665314 0.402361
v -4.308944 0.665468 0.402770
v -4.309235 0.664711 0.403354
v -4.312389 0.667445 0.404809
v -4.308234 0.665891 0.404300
v -4.309032 0.666265 0.405799
v -4.308698 0.665031 0.404513
v -4.312016 0.665545 0.403381
v -4.310738 0.666308 0.406139
v -4.312066 0.665987 0.405062
v -4.308698 0.665031 0.404513
v -4.309022 0.659411 0.404669
v -4.310593 0.665347 0.405905
v -4.309094 0.660056 0.407122
v -4.311561 0.664769 0.403817
v -4.311551 0.659832 0.406525
v -4.309235 0.664711 0.403354
v -4.309022 0.659411 0.404669
v -4.309235 0.664711 0.403354
v -4.310386 0.659286 0.404338
v -4.309302 0.665314 0.405648
v -4.308698 0.665031 0.404513
v -4.308448 0.659753 0.405908
v -4.309094 0.660056 0.407122
v -4.309302 0.665314 0.405648
v -4.308448 0.659753 0.405908
v -4.311598 0.665104 0.405090
v -4.310593 0.665347 0.405905
v -4.310475 0.660091 0.407397
v -4.311551 0.659832 0.406525
v -4.311598 0.665104 0.405090
v -4.310475 0.660091 0.407397
v -4.310509 0.664594 0.403045
v -4.311561 0.664769 0.403817
v -4.311511 0.659474 0.405164
v -4.310386 0.659286 0.404338
v -4.310509 0.664594 0.403045
v -4.311511 0.659474 0.405164
v -4.311462 0.669718 0.403751
v -4.310785 0.669119 0.405277
v -4.309547 0.669399 0.402345
v -4.310681 0.668185 0.401725
v -4.309601 0.669888 0.404203
v -4.308432 0.668728 0.403548
v -4.310580 0.669305 0.402094
v -4.310681 0.668185 0.401725
v -4.310580 0.669305 0.402094
v -4.311987 0.668403 0.402684
v -4.309112 0.669659 0.403284
v -4.309547 0.669399 0.402345
v -4.309099 0.668330 0.402110
v -4.308432 0.668728 0.403548
v -4.309112 0.669659 0.403284
v -4.309099 0.668330 0.402110
v -4.310647 0.669914 0.404412
v -4.309601 0.669888 0.404203
v -4.309182 0.669079 0.404958
v -4.310785 0.669119 0.405277
v -4.310647 0.669914 0.404412
v -4.309182 0.669079 0.404958
v -4.310509 0.664594 0.403045
v -4.309235 0.664711 0.403354
v -4.308944 0.665468 0.402770
v -4.310509 0.664594 0.403045
v -4.308698 0.665031 0.404513
v -4.309302 0.665314 0.405648
v -4.309032 0.666265 0.405799
v -4.308698 0.665031 0.404513
v -4.310593 0.665347 0.405905
v -4.311598 0.665104 0.405090
v -4.312066 0.665987 0.405062
v -4.310593 0.665347 0.405905
v -4.310627 0.665314 0.402361
v -4.311561 0.664769 0.403817
v -4.310509 0.664594 0.403045
v -4.310627 0.665314 0.402361
v -4.311561 0.664769 0.403817
v -4.308234 0.665891 0.404300
v -4.308944 0.665468 0.402770
v -4.309235 0.664711 0.403354
v -4.308698 0.665031 0.404513
v -4.308234 0.665891 0.404300
v -4.309235 0.664711 0.403354
v -4.310738 0.666308 0.406139
v -4.309032 0.666265 0.405799
v -4.309302 0.665314 0.405648
v -4.310593 0.665347 0.405905
v -4.310738 0.666308 0.406139
v -4.309302 0.665314 0.405648
v -4.312016 0.665545 0.403381
v -4.312066 0.665987 0.405062
v -4.311598 0.665104 0.405090
v -4.311561 0.664769 0.403817
v -4.312016 0.665545 0.403381
v -4.311598 0.665104 0.405090
v -4.312066 0.665987 0.405062
v -4.312016 0.665545 0.403381
v -4.312332 0.666934 0.402867
v -4.312066 0.665987 0.405062
v -4.311987 0.668403 0.402684
v -4.312034 0.668818 0.404265
v -4.312389 0.667445 0.404809
v -4.312332 0.666934 0.402867
v -4.311987 0.668403 0.402684
v -4.312389 0.667445 0.404809
v -4.312389 0.667445 0.404809
v -4.310738 0.666308 0.406139
v -4.312066 0.665987 0.405062
v -4.312389 0.667445 0.404809
v -4.310738 0.666308 0.406139
v -4.312034 0.668818 0.404265
v -4.310785 0.669119 0.405277
v -4.310854 0.667815 0.406053
v -4.312389 0.667445 0.404809
v -4.312034 0.668818 0.404265
v -4.310854 0.667815 0.406053
v -4.310854 0.667815 0.406053
v -4.309032 0.666265 0.405799
v -4.310738 0.666308 0.406139
v -4.310854 0.667815 0.406053
v -4.309032 0.666265 0.405799
v -4.310785 0.669119 0.405277
v -4.309182 0.669079 0.404958
v -4.308884 0.667765 0.405661
v -4.310854 0.667815 0.406053
v -4.310785 0.669119 0.405277
v -4.308884 0.667765 0.405661
v -4.308884 0.667765 0.405661
v -4.308234 0.665891 0.404300
v -4.309032 0.666265 0.405799
v -4.308884 0.667765 0.405661
v -4.308234 0.665891 0.404300
v -4.309182 0.669079 0.404958
v -4.308432 0.668728 0.403548
v -4.307962 0.667333 0.403929
v -4.308884 0.667765 0.405661
v -4.309182 0.669079 0.404958
v -4.307962 0.667333 0.403929
v -4.307962 0.667333 0.403929
v -4.308944 0.665468 0.402770
v -4.308234 0.665891 0.404300
v -4.307962 0.667333 0.403929
v -4.308944 0.665468 0.402770
v -4.308432 0.668728 0.403548
v -4.309099 0.668330 0.402110
v -4.308782 0.666845 0.402161
v -4.307962 0.667333 0.403929
v -4.308432 0.668728 0.403548
v -4.308782 0.666845 0.402161
v -4.308782 0.666845 0.402161
v -4.310627 0.665314 0.402361
v -4.308944 0.665468 0.402770
v -4.308782 0.666845 0.402161
v -4.310627 0.665314 0.402361
v -4.309099 0.668330 0.402110
v -4.310681 0.668185 0.401725
v -4.310727 0.666667 0.401688
v -4.308782 0.666845 0.402161
v -4.309099 0.668330 0.402110
v -4.310727 0.666667 0.401688
v -4.310727 0.666667 0.401688
v -4.312332 0.666934 0.402867
v -4.312016 0.665545 0.403381
v -4.310627 0.665314 0.402361
v -4.310727 0.666667 0.401688
v -4.312016 0.665545 0.403381
v -4.310681 0.668185 0.401725
v -4.311987 0.668403 0.402684
v -4.312332 0.666934 0.402867
v -4.310727 0.666667 0.401688
v -4.310681 0.668185 0.401725
v -4.312332 0.666934 0.402867
v -4.311432 0.669447 0.402720
v -4.311462 0.669718 0.403751
v -4.312034 0.668818 0.404265
v -4.311987 0.668403 0.402684
v -4.311432 0.669447 0.402720
v -4.312034 0.668818 0.404265
v -4.310647 0.669914 0.404412
v -4.311462 0.669718 0.403751
v -4.309601 0.669888 0.404203
v -4.311432 0.669447 0.402720
v -4.309601 0.669888 0.404203
v -4.311462 0.669718 0.403751
v -4.309112 0.669659 0.403284
v -4.309601 0.669888 0.404203
v -4.311432 0.669447 0.402720
v -4.310580 0.669305 0.402094
v -4.309112 0.669659 0.403284
v -4.311432 0.669447 0.402720
v -4.309547 0.669399 0.402345
v -4.309112 0.669659 0.403284
v -4.310580 0.669305 0.402094
v -4.310475 0.660091 0.407397
v -4.309094 0.660056 0.407122
v -4.311551 0.659832 0.406525
v -4.311511 0.659474 0.405164
v -4.311551 0.659832 0.406525
v -4.309094 0.660056 0.407122
v -4.308448 0.659753 0.405908
v -4.311511 0.659474 0.405164
v -4.309094 0.660056 0.407122
v -4.310386 0.659286 0.404338
v -4.311511 0.659474 0.405164
v -4.308448 0.659753 0.405908
v -4.309022 0.659411 0.404669
v -4.310386 0.659286 0.404338
v -4.308448 0.659753 0.405908
vn 0.0264 -0.9666 0.2550
vn -0.1316 0.6544 -0.7446
vn 0.5417 0.8167 -0.1989
vn 0.3419 0.6977 -0.6296
vn -0.5226 0.7194 -0.4575
vn 0.5417 0.8167 -0.1990
vn -0.1317 0.6544 -0.7446
vn -0.5225 0.7194 -0.4576
vn 0.3171 0.9218 0.2229
vn -0.5364 0.8438 0.0155
vn 0.3171 0.9218 0.2228
vn 0.3170 0.9219 0.2229
vn -0.5364 0.8438 0.0154
vn -0.1627 0.9339 0.3183
vn -0.8439 0.4683 0.2619
vn -0.8215 0.2669 -0.5039
vn -0.5363 0.8439 0.0155
vn -0.5225 0.7195 -0.4575
vn -0.8884 -0.1032 -0.4473
vn -0.1887 0.1615 -0.9687
vn -0.1957 -0.2184 -0.9560
vn -0.8884 -0.1031 -0.4473
vn -0.1887 0.1616 -0.9687
vn -0.8271 -0.4577 -0.3263
vn -0.1745 -0.5663 -0.8055
vn 0.5781 0.2317 -0.7824
vn 0.6436 -0.1417 -0.7521
vn -0.1886 0.1616 -0.9687
vn 0.6436 -0.1417 -0.7522
vn 0.6161 -0.4940 -0.6135
vn 0.9015 0.4243 -0.0853
vn 0.9975 0.0692 0.0109
vn 0.5782 0.2316 -0.7824
vn 0.9015 0.4244 -0.0853
vn 0.6162 -0.4941 -0.6134
vn 0.9496 -0.2953 0.1054
vn 0.9975 0.0692 0.0110
vn 0.5379 0.5946 0.5976
vn 0.5996 0.2556 0.7584
vn 0.5996 0.2555 0.7584
vn 0.5747 -0.1197 0.8096
vn -0.2388 0.6142 0.7521
vn -0.2507 0.2770 0.9276
vn 0.5746 -0.1198 0.8096
vn -0.2263 -0.0996 0.9689
vn 0.5995 0.2556 0.7584
vn -0.2507 0.2769 0.9276
vn -0.8438 0.4683 0.2620
vn -0.9129 0.1173 0.3910
vn -0.2389 0.6141 0.7522
vn -0.8438 0.4684 0.2619
vn -0.2264 -0.0996 0.9689
vn -0.8501 -0.2499 0.4635
vn -0.9129 0.1173 0.3909
vn -0.9129 0.1174 0.3910
vn -0.8501 -0.2500 0.4634
vn -0.8740 -0.1744 0.4536
vn -0.8503 -0.3874 -0.3562
vn 0.5870 -0.0409 0.8086
vn -0.2263 -0.0996 0.9690
vn -0.2343 -0.0202 0.9720
vn 0.6296 -0.4246 -0.6506
vn 0.9715 -0.2209 0.0865
vn 0.6162 -0.4940 -0.6134
vn -0.1812 -0.4988 -0.8476
vn -0.8271 -0.4577 -0.3262
vn -0.8501 -0.2500 0.4635
vn 0.5747 -0.1198 0.8096
vn 0.9715 -0.2209 0.0864
vn -0.1812 -0.4987 -0.8476
vn 0.6296 -0.4247 -0.6506
vn 0.5378 0.5946 0.5977
vn -0.2388 0.6142 0.7522
vn 0.3171 0.9219 0.2228
vn -0.1628 0.9339 0.3183
vn 0.5781 0.2317 -0.7823
vn 0.5782 0.2317 -0.7823
vn 0.3419 0.6976 -0.6296
vn 0.5416 0.8167 -0.1990
vn -0.8215 0.2669 -0.5040
vn 0.9014 0.4244 -0.0853
vn -0.1886 0.1615 -0.9687
vn 0.3420 0.6976 -0.6296
vn -0.2389 0.6142 0.7521
vn -0.8438 0.4683 0.2619
vn -0.8884 -0.1211 -0.4428
vn -0.1953 -0.2364 -0.9518
vn -0.8884 -0.1210 -0.4429
vn -0.2504 0.2592 0.9328
vn -0.9129 0.0995 0.3959
vn -0.2504 0.2593 0.9328
vn -0.2343 -0.0202 0.9719
vn 0.9986 0.0514 0.0157
vn 0.6004 0.2378 0.7635
vn 0.6444 -0.1597 -0.7478
vn -0.9129 0.0996 0.3959
vn 0.6004 0.2378 0.7636
vn 0.6004 0.2379 0.7635
vn 0.9715 -0.2208 0.0864
vn 0.6444 -0.1596 -0.7478
vt 0.530319 0.611839
vt 0.522446 0.618118
vt 0.524872 0.613083
vt 0.524872 0.623154
vt 0.534683 0.615326
vt 0.530319 0.624397
vt 0.534683 0.620918
vt 0.537079 0.671494
vt 0.541916 0.669548
vt 0.539566 0.672157
vt 0.536179 0.669609
vt 0.539856 0.666756
vt 0.536224 0.667854
vt 0.537567 0.666748
vt 0.534592 0.666855
vt 0.534012 0.669838
vt 0.530777 0.669685
vt 0.535187 0.673050
vt 0.531769 0.674789
vt 0.525803 0.669067
vt 0.526108 0.676537
vt 0.539017 0.675606
vt 0.536011 0.680244
vt 0.529755 0.684982
vt 0.547180 0.674767
vt 0.546982 0.686485
vt 0.537415 0.696274
vt 0.547180 0.658051
vt 0.540527 0.663902
vt 0.539825 0.659698
vt 0.546280 0.665543
vt 0.543762 0.651657
vt 0.537613 0.655174
vt 0.536758 0.664742
vt 0.535126 0.661980
vt 0.532364 0.658463
vt 0.532074 0.665283
vt 0.528198 0.662933
vt 0.523743 0.660286
vt 0.519989 0.668175
vt 0.535217 0.651588
vt 0.529327 0.654999
vt 0.522873 0.688484
vt 0.528320 0.699394
vt 0.519577 0.678001
vt 0.540466 0.648293
vt 0.604446 0.642853
vt 0.626221 0.647896
vt 0.604553 0.648445
vt 0.626144 0.642670
vt 0.604553 0.631676
vt 0.626144 0.637444
vt 0.604446 0.637268
vt 0.626221 0.632225
vt 0.605011 0.620506
vt 0.626404 0.626999
vt 0.604736 0.626091
vt 0.626663 0.621780
vt 0.626404 0.653114
vt 0.604736 0.654030
vt 0.626663 0.658333
vt 0.605011 0.659607
s 0
usemtl decorations
f 240/1/1 239/2/1 238/3/1
f 237/1/1 236/4/1 235/2/1
f 234/5/1 233/4/1 232/1/1
f 231/5/1 230/6/1 229/4/1
f 228/6/1 227/5/1 226/7/1
s 1
f 225/8/2 224/9/3 223/10/4
f 222/11/5 221/9/6 220/8/7
f 219/11/8 218/12/9 217/9/3
f 216/13/10 215/12/11 214/11/8
f 213/12/12 212/13/13 211/14/14
f 210/15/15 209/11/8 208/16/16
f 207/15/15 206/13/17 205/11/18
f 204/17/19 203/18/20 202/19/21
f 201/17/22 200/16/16 199/18/23
f 198/20/24 197/19/21 196/21/25
f 195/20/24 194/17/22 193/19/21
f 192/19/21 191/22/26 190/23/27
f 189/19/21 188/18/28 187/22/26
f 186/21/25 185/23/29 184/24/30
f 183/21/25 3/19/21 182/23/29
f 181/23/27 180/25/31 179/26/32
f 178/23/27 177/22/33 176/25/34
f 175/24/35 174/26/32 173/27/36
f 172/24/35 4/23/27 171/26/32
f 170/28/37 169/29/38 168/30/39
f 167/28/37 166/31/34 165/29/38
f 164/32/36 163/30/40 162/33/41
f 161/32/36 13/28/32 160/30/39
f 159/30/39 158/34/42 157/35/43
f 156/30/39 155/29/38 154/34/42
f 153/33/44 152/35/43 151/36/45
f 150/33/44 14/30/46 149/35/43
f 148/35/47 147/15/48 146/37/49
f 145/35/47 144/34/50 143/15/51
f 142/36/52 141/37/49 140/38/53
f 139/36/52 16/35/43 138/37/49
f 137/37/54 136/16/16 135/17/22
f 134/37/55 133/15/15 132/16/16
f 131/38/56 130/17/22 129/20/24
f 128/38/56 36/37/55 25/17/22
f 127/39/57 126/20/24 125/40/58
f 124/39/57 123/38/56 122/20/24
f 121/41/59 120/36/60 119/42/61
f 118/41/59 117/33/44 116/36/60
f 115/43/62 114/27/36 113/44/63
f 112/43/62 111/24/64 110/27/36
f 109/40/58 108/21/25 107/45/65
f 106/40/58 40/20/66 105/21/25
f 104/42/61 103/38/67 102/39/57
f 101/42/61 41/36/45 42/38/67
f 100/46/63 99/33/68 98/41/59
f 97/46/69 37/32/36 38/33/68
f 96/45/70 95/24/64 94/43/71
f 93/45/70 33/21/25 34/24/64
f 92/29/72 91/14/14 90/34/73
f 89/29/72 88/12/74 87/14/75
f 86/22/76 85/9/6 84/25/34
f 83/22/77 82/10/78 81/9/79
f 80/16/16 79/8/2 78/18/23
f 29/16/80 30/11/5 77/8/7
f 76/31/81 75/12/74 28/29/38
f 31/31/34 26/9/79 27/12/74
f 74/18/82 73/10/83 24/22/26
f 21/18/82 22/8/7 23/10/4
f 72/34/84 71/13/10 20/15/85
f 17/34/84 18/14/14 19/13/17
f 70/47/86 69/48/70 68/49/87
f 67/47/88 66/50/58 65/48/70
f 64/51/89 63/52/57 62/53/90
f 61/51/91 60/54/92 59/52/57
f 58/55/93 57/56/59 56/57/94
f 55/55/93 54/58/69 53/56/59
f 52/49/87 51/59/62 50/60/95
f 2/49/87 32/48/65 49/59/62
f 48/53/90 47/50/58 12/47/86
f 9/53/96 10/52/57 11/50/58
f 46/57/97 45/54/92 8/51/91
f 5/57/98 6/56/59 7/54/61
f 44/60/95 43/61/99 15/62/93
f 1/60/100 35/59/71 39/61/69
