# Blender 5.0.0
# www.blender.org
mtllib Circle_005_Circle_Dupli_55_decorations_0.mtl
o Circle.005|Circle|Dupli|55_decorations_0
v -4.537490 1.644496 0.408261
v -4.538687 1.644215 0.408947
v -4.537155 1.649595 0.414452
v -4.535447 1.649997 0.413474
v -4.535884 1.642766 0.409194
v -4.534537 1.646276 0.413160
v -4.535286 1.645613 0.414016
v -4.536685 1.642057 0.410110
v -4.538042 1.642258 0.410429
v -4.536554 1.645801 0.414315
v -4.537387 1.646699 0.413831
v -4.538933 1.643219 0.409912
v -4.533667 1.649078 0.413631
v -4.533156 1.647529 0.414804
v -4.536242 1.643852 0.408371
v -4.534298 1.646517 0.416111
v -4.534109 1.647766 0.416956
v -4.534145 1.648880 0.417351
v -4.535173 1.649033 0.417593
v -4.535684 1.647999 0.417327
v -4.536433 1.650270 0.415606
v -4.535662 1.650515 0.416470
v -4.534755 1.650729 0.415950
v -4.535043 1.650598 0.414810
v -4.537506 1.648174 0.415829
v -4.533810 1.650240 0.416034
v -4.533538 1.649418 0.416657
v -4.533179 1.648589 0.415893
v -4.536718 1.649114 0.416727
v -4.535848 1.649760 0.417201
v -4.533595 1.649849 0.414938
v -4.537157 1.647630 0.412929
v -4.537305 1.648470 0.413450
v -4.535826 1.648818 0.412603
v -4.536038 1.647893 0.412288
v -4.536234 1.646804 0.416567
v -4.534286 1.648022 0.412739
v -4.533844 1.646682 0.413755
v -4.534872 1.647291 0.412390
v -4.537609 1.647240 0.414641
v -4.534833 1.645806 0.414886
v -4.536509 1.646054 0.415281
v -4.534872 1.647291 0.412390
v -4.537490 1.644496 0.408261
v -4.535286 1.645613 0.414016
v -4.535884 1.642766 0.409194
v -4.537387 1.646699 0.413831
v -4.538042 1.642258 0.410429
v -4.536038 1.647893 0.412288
v -4.537490 1.644496 0.408261
v -4.536038 1.647893 0.412288
v -4.538687 1.644215 0.408947
v -4.534537 1.646276 0.413160
v -4.534872 1.647291 0.412390
v -4.536242 1.643852 0.408371
v -4.535884 1.642766 0.409194
v -4.534537 1.646276 0.413160
v -4.536242 1.643852 0.408371
v -4.536554 1.645801 0.414315
v -4.535286 1.645613 0.414016
v -4.536685 1.642057 0.410110
v -4.538042 1.642258 0.410429
v -4.536554 1.645801 0.414315
v -4.536685 1.642057 0.410110
v -4.537157 1.647630 0.412929
v -4.537387 1.646699 0.413831
v -4.538933 1.643219 0.409912
v -4.538687 1.644215 0.408947
v -4.537157 1.647630 0.412929
v -4.538933 1.643219 0.409912
v -4.535173 1.649033 0.417593
v -4.534109 1.647766 0.416956
v -4.534755 1.650729 0.415950
v -4.536433 1.650270 0.415606
v -4.533538 1.649418 0.416657
v -4.533595 1.649849 0.414938
v -4.535662 1.650515 0.416470
v -4.536433 1.650270 0.415606
v -4.535662 1.650515 0.416470
v -4.536718 1.649114 0.416727
v -4.533810 1.650240 0.416034
v -4.534755 1.650729 0.415950
v -4.535043 1.650598 0.414810
v -4.533595 1.649849 0.414938
v -4.533810 1.650240 0.416034
v -4.535043 1.650598 0.414810
v -4.534145 1.648880 0.417351
v -4.533538 1.649418 0.416657
v -4.533179 1.648589 0.415893
v -4.534109 1.647766 0.416956
v -4.534145 1.648880 0.417351
v -4.533179 1.648589 0.415893
v -4.537157 1.647630 0.412929
v -4.536038 1.647893 0.412288
v -4.535826 1.648818 0.412603
v -4.537157 1.647630 0.412929
v -4.534872 1.647291 0.412390
v -4.534537 1.646276 0.413160
v -4.533844 1.646682 0.413755
v -4.534872 1.647291 0.412390
v -4.535286 1.645613 0.414016
v -4.536554 1.645801 0.414315
v -4.536509 1.646054 0.415281
v -4.535286 1.645613 0.414016
v -4.537305 1.648470 0.413450
v -4.537387 1.646699 0.413831
v -4.537157 1.647630 0.412929
v -4.537305 1.648470 0.413450
v -4.537387 1.646699 0.413831
v -4.534286 1.648022 0.412739
v -4.535826 1.648818 0.412603
v -4.536038 1.647893 0.412288
v -4.534872 1.647291 0.412390
v -4.534286 1.648022 0.412739
v -4.536038 1.647893 0.412288
v -4.534833 1.645806 0.414886
v -4.533844 1.646682 0.413755
v -4.534537 1.646276 0.413160
v -4.535286 1.645613 0.414016
v -4.534833 1.645806 0.414886
v -4.534537 1.646276 0.413160
v -4.537609 1.647240 0.414641
v -4.536509 1.646054 0.415281
v -4.536554 1.645801 0.414315
v -4.537387 1.646699 0.413831
v -4.537609 1.647240 0.414641
v -4.536554 1.645801 0.414315
v -4.536509 1.646054 0.415281
v -4.537609 1.647240 0.414641
v -4.537506 1.648174 0.415829
v -4.536509 1.646054 0.415281
v -4.536718 1.649114 0.416727
v -4.535684 1.647999 0.417327
v -4.536234 1.646804 0.416567
v -4.537506 1.648174 0.415829
v -4.536718 1.649114 0.416727
v -4.536234 1.646804 0.416567
v -4.536234 1.646804 0.416567
v -4.534833 1.645806 0.414886
v -4.536509 1.646054 0.415281
v -4.536234 1.646804 0.416567
v -4.534833 1.645806 0.414886
v -4.535684 1.647999 0.417327
v -4.534109 1.647766 0.416956
v -4.534298 1.646517 0.416111
v -4.536234 1.646804 0.416567
v -4.535684 1.647999 0.417327
v -4.534298 1.646517 0.416111
v -4.534298 1.646517 0.416111
v -4.533844 1.646682 0.413755
v -4.534833 1.645806 0.414886
v -4.534298 1.646517 0.416111
v -4.533844 1.646682 0.413755
v -4.534109 1.647766 0.416956
v -4.533179 1.648589 0.415893
v -4.533156 1.647529 0.414804
v -4.534298 1.646517 0.416111
v -4.534109 1.647766 0.416956
v -4.533156 1.647529 0.414804
v -4.533156 1.647529 0.414804
v -4.534286 1.648022 0.412739
v -4.533844 1.646682 0.413755
v -4.533156 1.647529 0.414804
v -4.534286 1.648022 0.412739
v -4.533179 1.648589 0.415893
v -4.533595 1.649849 0.414938
v -4.533667 1.649078 0.413631
v -4.533156 1.647529 0.414804
v -4.533179 1.648589 0.415893
v -4.533667 1.649078 0.413631
v -4.533667 1.649078 0.413631
v -4.535826 1.648818 0.412603
v -4.534286 1.648022 0.412739
v -4.533667 1.649078 0.413631
v -4.535826 1.648818 0.412603
v -4.533595 1.649849 0.414938
v -4.535043 1.650598 0.414810
v -4.535447 1.649997 0.413474
v -4.533667 1.649078 0.413631
v -4.533595 1.649849 0.414938
v -4.535447 1.649997 0.413474
v -4.535447 1.649997 0.413474
v -4.537305 1.648470 0.413450
v -4.535826 1.648818 0.412603
v -4.535447 1.649997 0.413474
v -4.537305 1.648470 0.413450
v -4.535043 1.650598 0.414810
v -4.536433 1.650270 0.415606
v -4.537155 1.649595 0.414452
v -4.535447 1.649997 0.413474
v -4.535043 1.650598 0.414810
v -4.537155 1.649595 0.414452
v -4.537155 1.649595 0.414452
v -4.537506 1.648174 0.415829
v -4.537609 1.647240 0.414641
v -4.537305 1.648470 0.413450
v -4.537155 1.649595 0.414452
v -4.537609 1.647240 0.414641
v -4.536433 1.650270 0.415606
v -4.536718 1.649114 0.416727
v -4.537506 1.648174 0.415829
v -4.537155 1.649595 0.414452
v -4.536433 1.650270 0.415606
v -4.537506 1.648174 0.415829
v -4.535848 1.649760 0.417201
v -4.535173 1.649033 0.417593
v -4.535684 1.647999 0.417327
v -4.536718 1.649114 0.416727
v -4.535848 1.649760 0.417201
v -4.535684 1.647999 0.417327
v -4.534145 1.648880 0.417351
v -4.535173 1.649033 0.417593
v -4.533538 1.649418 0.416657
v -4.535848 1.649760 0.417201
v -4.533538 1.649418 0.416657
v -4.535173 1.649033 0.417593
v -4.533810 1.650240 0.416034
v -4.533538 1.649418 0.416657
v -4.535848 1.649760 0.417201
v -4.535662 1.650515 0.416470
v -4.533810 1.650240 0.416034
v -4.535848 1.649760 0.417201
v -4.534755 1.650729 0.415950
v -4.533810 1.650240 0.416034
v -4.535662 1.650515 0.416470
v -4.536685 1.642057 0.410110
v -4.535884 1.642766 0.409194
v -4.538042 1.642258 0.410429
v -4.538933 1.643219 0.409912
v -4.538042 1.642258 0.410429
v -4.535884 1.642766 0.409194
v -4.536242 1.643852 0.408371
v -4.538933 1.643219 0.409912
v -4.535884 1.642766 0.409194
v -4.538687 1.644215 0.408947
v -4.538933 1.643219 0.409912
v -4.536242 1.643852 0.408371
v -4.537490 1.644496 0.408261
v -4.538687 1.644215 0.408947
v -4.536242 1.643852 0.408371
vn -0.2650 -0.6364 -0.7244
vn -0.2202 0.8551 0.4694
vn 0.6292 0.7290 0.2694
vn 0.1958 0.9530 0.2312
vn -0.3056 0.5090 0.8047
vn 0.6292 0.7291 0.2694
vn -0.2203 0.8551 0.4694
vn -0.3057 0.5091 0.8046
vn 0.7536 0.3519 0.5552
vn 0.0039 0.1754 0.9845
vn -0.3057 0.5090 0.8046
vn 0.0039 0.1755 0.9845
vn 0.4753 0.1055 0.8735
vn -0.2399 -0.3071 0.9210
vn -0.7410 0.2329 0.6299
vn -0.2399 -0.3071 0.9209
vn -0.9195 -0.0053 0.3931
vn -0.6028 0.7932 0.0871
vn -0.7681 0.6080 -0.2009
vn -0.9194 -0.0053 0.3932
vn -0.7410 0.2329 0.6298
vn -0.6027 0.7932 0.0871
vn -0.9650 -0.2424 0.1002
vn -0.8224 0.3354 -0.4595
vn 0.0708 0.9518 -0.2986
vn -0.0309 0.7815 -0.6231
vn -0.0309 0.7816 -0.6231
vn -0.1279 0.4989 -0.8572
vn 0.7725 0.5892 -0.2368
vn 0.7372 0.3847 -0.5554
vn 0.0708 0.9517 -0.2986
vn 0.7725 0.5893 -0.2368
vn -0.1279 0.4988 -0.8572
vn 0.7372 0.3847 -0.5555
vn 0.5957 0.1250 -0.7934
vn -0.0308 0.7815 -0.6231
vn 0.7372 0.3846 -0.5555
vn 0.9739 -0.0214 0.2259
vn 0.9577 -0.2837 -0.0489
vn 0.9739 -0.0214 0.2260
vn 0.8034 -0.5046 -0.3163
vn 0.9577 -0.2836 -0.0489
vn 0.5234 -0.4203 0.7412
vn 0.4645 -0.7203 0.5151
vn 0.8033 -0.5046 -0.3163
vn 0.3388 -0.9160 0.2151
vn 0.4645 -0.7204 0.5151
vn -0.2398 -0.3071 0.9210
vn -0.3709 -0.5964 0.7118
vn 0.3387 -0.9160 0.2151
vn -0.4482 -0.7992 0.4004
vn -0.3709 -0.5964 0.7119
vn -0.7409 0.2329 0.6299
vn -0.4482 -0.7993 0.4004
vn -0.9195 -0.0053 0.3932
vn -0.9650 -0.2423 0.1002
vn -0.4372 -0.7656 0.4720
vn -0.9671 -0.1946 0.1641
vn 0.8462 -0.4635 -0.2629
vn 0.3698 -0.8853 0.2819
vn -0.1087 0.5655 -0.8176
vn 0.5956 0.1251 -0.7935
vn 0.6332 0.1821 -0.7522
vn -0.9671 -0.1945 0.1642
vn -0.8225 0.3354 -0.4595
vn -0.8209 0.3978 -0.4098
vn -0.9671 -0.1946 0.1642
vn 0.3698 -0.8853 0.2820
vn 0.6333 0.1822 -0.7522
vn 0.6332 0.1822 -0.7522
vn -0.8209 0.3978 -0.4097
vn 0.9739 -0.0215 0.2260
vn 0.0709 0.9518 -0.2986
vn 0.0709 0.9517 -0.2986
vn 0.1957 0.9530 0.2312
vn -0.7410 0.2330 0.6298
vn -0.6028 0.7932 0.0870
vn 0.5234 -0.4203 0.7413
vn -0.9248 -0.0171 0.3800
vn -0.7734 0.5965 -0.2144
vn -0.9248 -0.0170 0.3800
vn 0.4598 -0.7325 0.5020
vn -0.3759 -0.6085 0.6988
vn 0.7327 0.3731 -0.5691
vn 0.9533 -0.2956 -0.0624
vn 0.7328 0.3731 -0.5691
vn -0.7734 0.5965 -0.2145
vn -0.0358 0.7702 -0.6368
vn -0.3760 -0.6085 0.6988
vn -0.9671 -0.1945 0.1641
vn -0.3760 -0.6085 0.6989
vn 0.9533 -0.2956 -0.0623
vn 0.4599 -0.7325 0.5020
vt 0.543243 0.611839
vt 0.535370 0.618118
vt 0.537796 0.613083
vt 0.537796 0.623154
vt 0.547607 0.615326
vt 0.543243 0.624397
vt 0.547607 0.620918
vt 0.565384 0.671494
vt 0.570206 0.669548
vt 0.567856 0.672157
vt 0.564468 0.669609
vt 0.568146 0.666756
vt 0.564514 0.667854
vt 0.565857 0.666748
vt 0.562897 0.666855
vt 0.562302 0.669838
vt 0.559082 0.669685
vt 0.563492 0.673050
vt 0.560059 0.674789
vt 0.554092 0.669067
vt 0.554398 0.676537
vt 0.567307 0.675606
vt 0.564316 0.680244
vt 0.558044 0.684982
vt 0.575485 0.674767
vt 0.575272 0.686485
vt 0.565720 0.696274
vt 0.575485 0.658051
vt 0.568817 0.663902
vt 0.568115 0.659698
vt 0.574570 0.665543
vt 0.572052 0.651657
vt 0.565903 0.655174
vt 0.565063 0.664742
vt 0.563416 0.661980
vt 0.560669 0.658463
vt 0.560364 0.665283
vt 0.556488 0.662933
vt 0.552032 0.660286
vt 0.548294 0.668175
vt 0.563522 0.651588
vt 0.557617 0.654999
vt 0.551163 0.688484
vt 0.556610 0.699394
vt 0.547867 0.678001
vt 0.568756 0.648293
vt 0.604446 0.682632
vt 0.626221 0.687675
vt 0.604553 0.688225
vt 0.626144 0.682457
vt 0.604553 0.671455
vt 0.626144 0.677231
vt 0.604446 0.677048
vt 0.626221 0.672005
vt 0.605011 0.660294
vt 0.626404 0.666786
vt 0.604736 0.665871
vt 0.626663 0.661568
vt 0.626404 0.692902
vt 0.604736 0.693810
vt 0.626663 0.698120
vt 0.605011 0.699394
s 0
usemtl decorations
f 240/1/1 239/2/1 238/3/1
f 237/1/1 236/4/1 235/2/1
f 234/5/1 233/4/1 232/1/1
f 231/5/1 230/6/1 229/4/1
f 228/6/1 227/5/1 226/7/1
s 1
f 225/8/2 224/9/3 223/10/4
f 222/11/5 221/9/6 220/8/7
f 219/11/8 218/12/9 217/9/3
f 216/13/10 215/12/9 214/11/11
f 213/12/9 212/13/12 211/14/13
f 210/15/14 209/11/5 208/16/15
f 207/15/16 206/13/12 205/11/5
f 204/17/17 203/18/18 202/19/19
f 201/17/20 200/16/21 199/18/22
f 198/20/23 197/19/19 196/21/24
f 195/20/23 194/17/20 193/19/19
f 192/19/19 191/22/25 190/23/26
f 189/19/19 188/18/22 187/22/25
f 186/21/24 185/23/27 184/24/28
f 183/21/24 3/19/19 182/23/27
f 181/23/26 180/25/29 179/26/30
f 178/23/26 177/22/31 176/25/32
f 175/24/33 174/26/34 173/27/35
f 172/24/33 4/23/36 171/26/34
f 170/28/37 169/29/38 168/30/39
f 167/28/34 166/31/29 165/29/40
f 164/32/35 163/30/39 162/33/41
f 161/32/35 13/28/30 160/30/42
f 159/30/39 158/34/43 157/35/44
f 156/30/39 155/29/40 154/34/43
f 153/33/45 152/35/44 151/36/46
f 150/33/45 14/30/39 149/35/44
f 148/35/47 147/15/48 146/37/49
f 145/35/47 144/34/43 143/15/48
f 142/36/50 141/37/49 140/38/51
f 139/36/50 16/35/44 138/37/49
f 137/37/49 136/16/21 135/17/20
f 134/37/52 133/15/48 132/16/53
f 131/38/54 130/17/55 129/20/56
f 128/38/54 36/37/52 25/17/55
f 127/39/57 126/20/23 125/40/58
f 124/39/57 123/38/51 122/20/23
f 121/41/59 120/36/46 119/42/60
f 118/41/59 117/33/45 116/36/46
f 115/43/61 114/27/62 113/44/63
f 112/43/61 111/24/28 110/27/62
f 109/40/64 108/21/65 107/45/66
f 106/40/67 40/20/23 105/21/65
f 104/42/68 103/38/51 102/39/57
f 101/42/60 41/36/46 42/38/51
f 100/46/69 99/33/45 98/41/59
f 97/46/70 37/32/35 38/33/45
f 96/45/71 95/24/28 94/43/61
f 93/45/71 33/21/24 34/24/28
f 92/29/40 91/14/13 90/34/43
f 89/29/72 88/12/9 87/14/13
f 86/22/73 85/9/6 84/25/32
f 83/22/74 82/10/75 81/9/6
f 80/16/76 79/8/2 78/18/22
f 29/16/76 30/11/5 77/8/2
f 76/31/29 75/12/9 28/29/40
f 31/31/29 26/9/6 27/12/9
f 74/18/77 73/10/4 24/22/25
f 21/18/77 22/8/2 23/10/4
f 72/34/78 71/13/12 20/15/48
f 17/34/43 18/14/13 19/13/12
f 70/47/79 69/48/71 68/49/80
f 67/47/81 66/50/58 65/48/71
f 64/51/82 63/52/57 62/53/83
f 61/51/82 60/54/60 59/52/57
f 58/55/84 57/56/59 56/57/85
f 55/55/86 54/58/70 53/56/59
f 52/49/87 51/59/61 50/60/88
f 2/49/80 32/48/66 49/59/61
f 48/53/89 47/50/90 12/47/79
f 9/53/91 10/52/57 11/50/58
f 46/57/92 45/54/60 8/51/93
f 5/57/92 6/56/59 7/54/60
f 44/60/88 43/61/69 15/62/84
f 1/60/88 35/59/61 39/61/70
