# Blender 5.0.0
# www.blender.org
mtllib Circle_002_Circle_Dupli_227_decorations_0.mtl
o Circle.002|Circle|Dupli|227_decorations_0
v -4.200597 0.512168 0.670289
v -4.201065 0.511720 0.671540
v -4.204760 0.518505 0.672925
v -4.204094 0.519143 0.671140
v -4.198287 0.513062 0.670836
v -4.200509 0.517951 0.671848
v -4.200412 0.517739 0.673143
v -4.198183 0.512836 0.672222
v -4.199128 0.512256 0.673090
v -4.201296 0.517197 0.673955
v -4.202495 0.516733 0.673671
v -4.200411 0.511760 0.672786
v -4.202330 0.519995 0.670693
v -4.200797 0.520420 0.671921
v -4.199361 0.512765 0.669975
v -4.200649 0.520096 0.673898
v -4.201590 0.521288 0.673973
v -4.202537 0.521988 0.673870
v -4.203253 0.521549 0.674528
v -4.202687 0.520615 0.674981
v -4.204935 0.519993 0.673181
v -4.204720 0.521143 0.673353
v -4.204367 0.521482 0.672405
v -4.204393 0.520512 0.671729
v -4.203827 0.518561 0.674704
v -4.203430 0.521935 0.672168
v -4.202616 0.522160 0.672820
v -4.201710 0.521551 0.672364
v -4.204176 0.520038 0.674629
v -4.204225 0.521173 0.674298
v -4.202958 0.521205 0.671365
v -4.203106 0.516696 0.672506
v -4.203895 0.517291 0.672662
v -4.203318 0.517843 0.671117
v -4.202670 0.517115 0.671336
v -4.201998 0.519269 0.675137
v -4.201791 0.518581 0.670730
v -4.200464 0.518948 0.671792
v -4.201514 0.517673 0.671043
v -4.203087 0.517339 0.674201
v -4.200336 0.518668 0.673504
v -4.201503 0.517952 0.674576
v -4.201514 0.517673 0.671043
v -4.200597 0.512168 0.670289
v -4.200412 0.517739 0.673143
v -4.198287 0.513062 0.670836
v -4.202495 0.516733 0.673671
v -4.199128 0.512256 0.673090
v -4.202670 0.517115 0.671336
v -4.200597 0.512168 0.670289
v -4.202670 0.517115 0.671336
v -4.201065 0.511720 0.671540
v -4.200509 0.517951 0.671848
v -4.201514 0.517673 0.671043
v -4.199361 0.512765 0.669975
v -4.198287 0.513062 0.670836
v -4.200509 0.517951 0.671848
v -4.199361 0.512765 0.669975
v -4.201296 0.517197 0.673955
v -4.200412 0.517739 0.673143
v -4.198183 0.512836 0.672222
v -4.199128 0.512256 0.673090
v -4.201296 0.517197 0.673955
v -4.198183 0.512836 0.672222
v -4.203106 0.516696 0.672506
v -4.202495 0.516733 0.673671
v -4.200411 0.511760 0.672786
v -4.201065 0.511720 0.671540
v -4.203106 0.516696 0.672506
v -4.200411 0.511760 0.672786
v -4.203253 0.521549 0.674528
v -4.201590 0.521288 0.673973
v -4.204367 0.521482 0.672405
v -4.204935 0.519993 0.673181
v -4.202616 0.522160 0.672820
v -4.202958 0.521205 0.671365
v -4.204720 0.521143 0.673353
v -4.204935 0.519993 0.673181
v -4.204720 0.521143 0.673353
v -4.204176 0.520038 0.674629
v -4.203430 0.521935 0.672168
v -4.204367 0.521482 0.672405
v -4.204393 0.520512 0.671729
v -4.202958 0.521205 0.671365
v -4.203430 0.521935 0.672168
v -4.204393 0.520512 0.671729
v -4.202537 0.521988 0.673870
v -4.202616 0.522160 0.672820
v -4.201710 0.521551 0.672364
v -4.201590 0.521288 0.673973
v -4.202537 0.521988 0.673870
v -4.201710 0.521551 0.672364
v -4.203106 0.516696 0.672506
v -4.202670 0.517115 0.671336
v -4.203318 0.517843 0.671117
v -4.203106 0.516696 0.672506
v -4.201514 0.517673 0.671043
v -4.200509 0.517951 0.671848
v -4.200464 0.518948 0.671792
v -4.201514 0.517673 0.671043
v -4.200412 0.517739 0.673143
v -4.201296 0.517197 0.673955
v -4.201503 0.517952 0.674576
v -4.200412 0.517739 0.673143
v -4.203895 0.517291 0.672662
v -4.202495 0.516733 0.673671
v -4.203106 0.516696 0.672506
v -4.203895 0.517291 0.672662
v -4.202495 0.516733 0.673671
v -4.201791 0.518581 0.670730
v -4.203318 0.517843 0.671117
v -4.202670 0.517115 0.671336
v -4.201514 0.517673 0.671043
v -4.201791 0.518581 0.670730
v -4.202670 0.517115 0.671336
v -4.200336 0.518668 0.673504
v -4.200464 0.518948 0.671792
v -4.200509 0.517951 0.671848
v -4.200412 0.517739 0.673143
v -4.200336 0.518668 0.673504
v -4.200509 0.517951 0.671848
v -4.203087 0.517339 0.674201
v -4.201503 0.517952 0.674576
v -4.201296 0.517197 0.673955
v -4.202495 0.516733 0.673671
v -4.203087 0.517339 0.674201
v -4.201296 0.517197 0.673955
v -4.201503 0.517952 0.674576
v -4.203087 0.517339 0.674201
v -4.203827 0.518561 0.674704
v -4.201503 0.517952 0.674576
v -4.204176 0.520038 0.674629
v -4.202687 0.520615 0.674981
v -4.201998 0.519269 0.675137
v -4.203827 0.518561 0.674704
v -4.204176 0.520038 0.674629
v -4.201998 0.519269 0.675137
v -4.201998 0.519269 0.675137
v -4.200336 0.518668 0.673504
v -4.201503 0.517952 0.674576
v -4.201998 0.519269 0.675137
v -4.200336 0.518668 0.673504
v -4.202687 0.520615 0.674981
v -4.201590 0.521288 0.673973
v -4.200649 0.520096 0.673898
v -4.201998 0.519269 0.675137
v -4.202687 0.520615 0.674981
v -4.200649 0.520096 0.673898
v -4.200649 0.520096 0.673898
v -4.200464 0.518948 0.671792
v -4.200336 0.518668 0.673504
v -4.200649 0.520096 0.673898
v -4.200464 0.518948 0.671792
v -4.201590 0.521288 0.673973
v -4.201710 0.521551 0.672364
v -4.200797 0.520420 0.671921
v -4.200649 0.520096 0.673898
v -4.201590 0.521288 0.673973
v -4.200797 0.520420 0.671921
v -4.200797 0.520420 0.671921
v -4.201791 0.518581 0.670730
v -4.200464 0.518948 0.671792
v -4.200797 0.520420 0.671921
v -4.201791 0.518581 0.670730
v -4.201710 0.521551 0.672364
v -4.202958 0.521205 0.671365
v -4.202330 0.519995 0.670693
v -4.200797 0.520420 0.671921
v -4.201710 0.521551 0.672364
v -4.202330 0.519995 0.670693
v -4.202330 0.519995 0.670693
v -4.203318 0.517843 0.671117
v -4.201791 0.518581 0.670730
v -4.202330 0.519995 0.670693
v -4.203318 0.517843 0.671117
v -4.202958 0.521205 0.671365
v -4.204393 0.520512 0.671729
v -4.204094 0.519143 0.671140
v -4.202330 0.519995 0.670693
v -4.202958 0.521205 0.671365
v -4.204094 0.519143 0.671140
v -4.204094 0.519143 0.671140
v -4.203895 0.517291 0.672662
v -4.203318 0.517843 0.671117
v -4.204094 0.519143 0.671140
v -4.203895 0.517291 0.672662
v -4.204393 0.520512 0.671729
v -4.204935 0.519993 0.673181
v -4.204760 0.518505 0.672925
v -4.204094 0.519143 0.671140
v -4.204393 0.520512 0.671729
v -4.204760 0.518505 0.672925
v -4.204760 0.518505 0.672925
v -4.203827 0.518561 0.674704
v -4.203087 0.517339 0.674201
v -4.203895 0.517291 0.672662
v -4.204760 0.518505 0.672925
v -4.203087 0.517339 0.674201
v -4.204935 0.519993 0.673181
v -4.204176 0.520038 0.674629
v -4.203827 0.518561 0.674704
v -4.204760 0.518505 0.672925
v -4.204935 0.519993 0.673181
v -4.203827 0.518561 0.674704
v -4.204225 0.521173 0.674298
v -4.203253 0.521549 0.674528
v -4.202687 0.520615 0.674981
v -4.204176 0.520038 0.674629
v -4.204225 0.521173 0.674298
v -4.202687 0.520615 0.674981
v -4.202537 0.521988 0.673870
v -4.203253 0.521549 0.674528
v -4.202616 0.522160 0.672820
v -4.204225 0.521173 0.674298
v -4.202616 0.522160 0.672820
v -4.203253 0.521549 0.674528
v -4.203430 0.521935 0.672168
v -4.202616 0.522160 0.672820
v -4.204225 0.521173 0.674298
v -4.204720 0.521143 0.673353
v -4.203430 0.521935 0.672168
v -4.204225 0.521173 0.674298
v -4.204367 0.521482 0.672405
v -4.203430 0.521935 0.672168
v -4.204720 0.521143 0.673353
v -4.198183 0.512836 0.672222
v -4.198287 0.513062 0.670836
v -4.199128 0.512256 0.673090
v -4.200411 0.511760 0.672786
v -4.199128 0.512256 0.673090
v -4.198287 0.513062 0.670836
v -4.199361 0.512765 0.669975
v -4.200411 0.511760 0.672786
v -4.198287 0.513062 0.670836
v -4.201065 0.511720 0.671540
v -4.200411 0.511760 0.672786
v -4.199361 0.512765 0.669975
v -4.200597 0.512168 0.670289
v -4.201065 0.511720 0.671540
v -4.199361 0.512765 0.669975
vn 0.3914 -0.9030 -0.1769
vn -0.8405 0.5212 0.1480
vn -0.2486 0.8842 -0.3954
vn -0.6782 0.6766 -0.2866
vn -0.6133 0.5348 0.5812
vn -0.2487 0.8842 -0.3955
vn -0.8405 0.5212 0.1481
vn 0.1247 0.9875 -0.0965
vn -0.1677 0.7073 0.6867
vn -0.1678 0.7073 0.6867
vn 0.1607 0.9088 0.3851
vn 0.0921 0.3063 0.9475
vn -0.6293 0.0271 0.7767
vn -0.6133 0.5349 0.5812
vn -0.5288 -0.3397 0.7778
vn -0.9971 0.0049 0.0754
vn -0.9314 -0.3639 0.0102
vn -0.5288 -0.3397 0.7779
vn -0.6293 0.0270 0.7767
vn -0.9971 0.0050 0.0754
vn -0.3521 -0.6569 0.6668
vn -0.7314 -0.6796 -0.0564
vn -0.3521 -0.6568 0.6668
vn -0.9314 -0.3638 0.0102
vn -0.7344 0.2567 -0.6283
vn -0.6438 -0.0883 -0.7600
vn -0.6439 -0.0883 -0.7600
vn -0.4605 -0.4200 -0.7820
vn -0.6438 -0.0883 -0.7601
vn -0.0390 0.5926 -0.8045
vn 0.1174 0.2794 -0.9530
vn -0.0390 0.5927 -0.8045
vn -0.4605 -0.4201 -0.7820
vn 0.2566 -0.0736 -0.9637
vn 0.1175 0.2794 -0.9530
vn 0.5655 0.7599 -0.3206
vn 0.7791 0.4625 -0.4232
vn -0.0389 0.5926 -0.8045
vn 0.2567 -0.0736 -0.9637
vn 0.8799 0.0989 -0.4647
vn 0.7791 0.4625 -0.4233
vn 0.6238 0.6325 0.4591
vn 0.8429 0.3230 0.4303
vn 0.8800 0.0988 -0.4647
vn 0.9401 -0.0325 0.3394
vn 0.2609 -0.0340 0.9648
vn 0.6238 0.6324 0.4592
vn 0.0921 0.3064 0.9474
vn 0.9401 -0.0326 0.3394
vn 0.3918 -0.3688 0.8429
vn 0.2609 -0.0341 0.9648
vn 0.3918 -0.3689 0.8429
vn 0.3685 -0.3017 0.8793
vn -0.3942 -0.5970 0.6987
vn 0.8691 0.1779 -0.4615
vn 0.9401 -0.0325 0.3393
vn 0.9308 0.0432 0.3630
vn -0.5054 -0.3541 -0.7869
vn 0.2300 0.0011 -0.9732
vn -0.5054 -0.3542 -0.7869
vn -0.3943 -0.5969 0.6987
vn -0.7314 -0.6796 -0.0563
vn -0.7831 -0.6204 -0.0428
vn -0.7832 -0.6203 -0.0428
vn 0.5655 0.7599 -0.3205
vn 0.5656 0.7599 -0.3205
vn -0.6783 0.6766 -0.2866
vn -0.2487 0.8842 -0.3954
vn -0.6133 0.5348 0.5813
vn 0.6238 0.6325 0.4592
vn -0.5218 -0.3566 0.7750
vn -0.9246 -0.3808 0.0070
vn -0.5218 -0.3565 0.7750
vn 0.8506 0.3064 0.4273
vn 0.2683 -0.0507 0.9620
vn 0.8506 0.3065 0.4273
vn 0.1248 0.2629 -0.9567
vn 0.8691 0.1779 -0.4614
vn 0.7867 0.4460 -0.4268
vn -0.9246 -0.3808 0.0069
vn -0.6370 -0.1051 -0.7637
vn -0.9247 -0.3807 0.0069
vn -0.5054 -0.3542 -0.7868
vn -0.3943 -0.5970 0.6987
vn 0.2682 -0.0507 0.9620
vn 0.7867 0.4460 -0.4267
vn 0.8506 0.3065 0.4272
vn 0.7867 0.4461 -0.4267
vn -0.6369 -0.1051 -0.7637
vn 0.2299 0.0011 -0.9732
vn 0.1247 0.2629 -0.9567
vt 0.543243 0.611839
vt 0.535370 0.618118
vt 0.537796 0.613083
vt 0.537796 0.623154
vt 0.547607 0.615326
vt 0.543243 0.624397
vt 0.547607 0.620918
vt 0.565384 0.671494
vt 0.570206 0.669548
vt 0.567856 0.672157
vt 0.564468 0.669609
vt 0.568146 0.666756
vt 0.564514 0.667854
vt 0.565857 0.666748
vt 0.562897 0.666855
vt 0.562302 0.669838
vt 0.559082 0.669685
vt 0.563492 0.673050
vt 0.560059 0.674789
vt 0.554092 0.669067
vt 0.554398 0.676537
vt 0.567307 0.675606
vt 0.564316 0.680244
vt 0.558044 0.684982
vt 0.575485 0.674767
vt 0.575272 0.686485
vt 0.565720 0.696274
vt 0.575485 0.658051
vt 0.568817 0.663902
vt 0.568115 0.659698
vt 0.574570 0.665543
vt 0.572052 0.651657
vt 0.565903 0.655174
vt 0.565063 0.664742
vt 0.563416 0.661980
vt 0.560669 0.658463
vt 0.560364 0.665283
vt 0.556488 0.662933
vt 0.552032 0.660286
vt 0.548294 0.668175
vt 0.563522 0.651588
vt 0.557617 0.654999
vt 0.551163 0.688484
vt 0.556610 0.699394
vt 0.547867 0.678001
vt 0.568756 0.648293
vt 0.604446 0.682632
vt 0.626221 0.687675
vt 0.604553 0.688225
vt 0.626144 0.682457
vt 0.604553 0.671455
vt 0.626144 0.677231
vt 0.604446 0.677048
vt 0.626221 0.672005
vt 0.605011 0.660294
vt 0.626404 0.666786
vt 0.604736 0.665871
vt 0.626663 0.661568
vt 0.626404 0.692902
vt 0.604736 0.693810
vt 0.626663 0.698120
vt 0.605011 0.699394
s 0
usemtl decorations
f 240/1/1 239/2/1 238/3/1
f 237/1/1 236/4/1 235/2/1
f 234/5/1 233/4/1 232/1/1
f 231/5/1 230/6/1 229/4/1
f 228/6/1 227/5/1 226/7/1
s 1
f 225/8/2 224/9/3 223/10/4
f 222/11/5 221/9/6 220/8/7
f 219/11/5 218/12/8 217/9/3
f 216/13/9 215/12/8 214/11/5
f 213/12/8 212/13/10 211/14/11
f 210/15/12 209/11/5 208/16/13
f 207/15/12 206/13/9 205/11/14
f 204/17/15 203/18/16 202/19/17
f 201/17/18 200/16/19 199/18/20
f 198/20/21 197/19/17 196/21/22
f 195/20/23 194/17/15 193/19/24
f 192/19/17 191/22/25 190/23/26
f 189/19/17 188/18/16 187/22/25
f 186/21/22 185/23/27 184/24/28
f 183/21/22 3/19/17 182/23/27
f 181/23/29 180/25/30 179/26/31
f 178/23/26 177/22/25 176/25/32
f 175/24/33 174/26/31 173/27/34
f 172/24/33 4/23/29 171/26/31
f 170/28/35 169/29/36 168/30/37
f 167/28/35 166/31/38 165/29/36
f 164/32/39 163/30/37 162/33/40
f 161/32/39 13/28/35 160/30/41
f 159/30/37 158/34/42 157/35/43
f 156/30/37 155/29/36 154/34/42
f 153/33/44 152/35/43 151/36/45
f 150/33/44 14/30/37 149/35/43
f 148/35/43 147/15/12 146/37/46
f 145/35/43 144/34/47 143/15/48
f 142/36/49 141/37/46 140/38/50
f 139/36/49 16/35/43 138/37/46
f 137/37/51 136/16/19 135/17/15
f 134/37/46 133/15/12 132/16/13
f 131/38/52 130/17/15 129/20/23
f 128/38/52 36/37/46 25/17/15
f 127/39/53 126/20/23 125/40/54
f 124/39/53 123/38/50 122/20/23
f 121/41/55 120/36/56 119/42/57
f 118/41/55 117/33/44 116/36/56
f 115/43/58 114/27/34 113/44/59
f 112/43/60 111/24/28 110/27/34
f 109/40/61 108/21/62 107/45/63
f 106/40/54 40/20/21 105/21/62
f 104/42/57 103/38/50 102/39/53
f 101/42/57 41/36/45 42/38/50
f 100/46/59 99/33/40 98/41/55
f 97/46/59 37/32/39 38/33/40
f 96/45/64 95/24/28 94/43/60
f 93/45/64 33/21/22 34/24/28
f 92/29/65 91/14/11 90/34/42
f 89/29/66 88/12/8 87/14/11
f 86/22/25 85/9/3 84/25/32
f 83/22/25 82/10/67 81/9/68
f 80/16/19 79/8/2 78/18/20
f 29/16/19 30/11/69 77/8/7
f 76/31/32 75/12/8 28/29/36
f 31/31/32 26/9/68 27/12/8
f 74/18/16 73/10/4 24/22/25
f 21/18/16 22/8/7 23/10/4
f 72/34/70 71/13/9 20/15/12
f 17/34/70 18/14/11 19/13/9
f 70/47/71 69/48/64 68/49/72
f 67/47/73 66/50/54 65/48/64
f 64/51/74 63/52/53 62/53/75
f 61/51/76 60/54/57 59/52/53
f 58/55/77 57/56/78 56/57/79
f 55/55/77 54/58/59 53/56/55
f 52/49/80 51/59/58 50/60/81
f 2/49/82 32/48/64 49/59/83
f 48/53/75 47/50/84 12/47/71
f 9/53/85 10/52/53 11/50/54
f 46/57/86 45/54/57 8/51/87
f 5/57/88 6/56/55 7/54/57
f 44/60/89 43/61/90 15/62/91
f 1/60/89 35/59/60 39/61/90
