# Blender 5.0.0
# www.blender.org
mtllib Circle_002_Circle_003_Dupli_241_decorations_0.mtl
o Circle.002|Circle.003|Dupli|241_decorations_0
v -4.223656 0.848075 0.571635
v -4.224251 0.847750 0.570400
v -4.219912 0.853050 0.566569
v -4.219063 0.853514 0.568330
v -4.225268 0.849775 0.572608
v -4.222459 0.853744 0.570114
v -4.223388 0.853832 0.569185
v -4.226262 0.849870 0.571615
v -4.226341 0.849189 0.570384
v -4.223462 0.853196 0.568035
v -4.222625 0.852314 0.567530
v -4.225446 0.848246 0.569844
v -4.219709 0.854801 0.569732
v -4.221364 0.855941 0.569719
v -4.224109 0.848976 0.572617
v -4.222781 0.856076 0.568301
v -4.221713 0.856877 0.567575
v -4.220719 0.857188 0.567014
v -4.220778 0.856672 0.566082
v -4.221804 0.856086 0.566147
v -4.219378 0.854415 0.566166
v -4.219195 0.855581 0.566094
v -4.218744 0.855828 0.567029
v -4.218687 0.854792 0.567599
v -4.221617 0.853758 0.565775
v -4.219088 0.856511 0.567774
v -4.219966 0.857116 0.567767
v -4.220559 0.856767 0.568729
v -4.220765 0.854991 0.565520
v -4.220100 0.855957 0.565672
v -4.219213 0.855839 0.568739
v -4.221508 0.851850 0.568050
v -4.220823 0.852167 0.567395
v -4.220088 0.852568 0.568919
v -4.220952 0.852154 0.569204
v -4.222893 0.855104 0.566546
v -4.220647 0.853682 0.570133
v -4.222079 0.854668 0.570122
v -4.221375 0.852997 0.570122
v -4.222298 0.852779 0.566708
v -4.223306 0.854785 0.568894
v -4.223403 0.853945 0.567375
v -4.221375 0.852997 0.570122
v -4.223656 0.848075 0.571635
v -4.223388 0.853832 0.569185
v -4.225268 0.849775 0.572608
v -4.222625 0.852314 0.567530
v -4.226341 0.849189 0.570384
v -4.220952 0.852154 0.569204
v -4.223656 0.848075 0.571635
v -4.220952 0.852154 0.569204
v -4.224251 0.847750 0.570400
v -4.222459 0.853744 0.570114
v -4.221375 0.852997 0.570122
v -4.224109 0.848976 0.572617
v -4.225268 0.849775 0.572608
v -4.222459 0.853744 0.570114
v -4.224109 0.848976 0.572617
v -4.223462 0.853196 0.568035
v -4.223388 0.853832 0.569185
v -4.226262 0.849870 0.571615
v -4.226341 0.849189 0.570384
v -4.223462 0.853196 0.568035
v -4.226262 0.849870 0.571615
v -4.221508 0.851850 0.568050
v -4.222625 0.852314 0.567530
v -4.225446 0.848246 0.569844
v -4.224251 0.847750 0.570400
v -4.221508 0.851850 0.568050
v -4.225446 0.848246 0.569844
v -4.220778 0.856672 0.566082
v -4.221713 0.856877 0.567575
v -4.218744 0.855828 0.567029
v -4.219378 0.854415 0.566166
v -4.219966 0.857116 0.567767
v -4.219213 0.855839 0.568739
v -4.219195 0.855581 0.566094
v -4.219378 0.854415 0.566166
v -4.219195 0.855581 0.566094
v -4.220765 0.854991 0.565520
v -4.219088 0.856511 0.567774
v -4.218744 0.855828 0.567029
v -4.218687 0.854792 0.567599
v -4.219213 0.855839 0.568739
v -4.219088 0.856511 0.567774
v -4.218687 0.854792 0.567599
v -4.220719 0.857188 0.567014
v -4.219966 0.857116 0.567767
v -4.220559 0.856767 0.568729
v -4.221713 0.856877 0.567575
v -4.220719 0.857188 0.567014
v -4.220559 0.856767 0.568729
v -4.221508 0.851850 0.568050
v -4.220952 0.852154 0.569204
v -4.220088 0.852568 0.568919
v -4.221508 0.851850 0.568050
v -4.221375 0.852997 0.570122
v -4.222459 0.853744 0.570114
v -4.222079 0.854668 0.570122
v -4.221375 0.852997 0.570122
v -4.223388 0.853832 0.569185
v -4.223462 0.853196 0.568035
v -4.223403 0.853945 0.567375
v -4.223388 0.853832 0.569185
v -4.220823 0.852167 0.567395
v -4.222625 0.852314 0.567530
v -4.221508 0.851850 0.568050
v -4.220823 0.852167 0.567395
v -4.222625 0.852314 0.567530
v -4.220647 0.853682 0.570133
v -4.220088 0.852568 0.568919
v -4.220952 0.852154 0.569204
v -4.221375 0.852997 0.570122
v -4.220647 0.853682 0.570133
v -4.220952 0.852154 0.569204
v -4.223306 0.854785 0.568894
v -4.222079 0.854668 0.570122
v -4.222459 0.853744 0.570114
v -4.223388 0.853832 0.569185
v -4.223306 0.854785 0.568894
v -4.222459 0.853744 0.570114
v -4.222298 0.852779 0.566708
v -4.223403 0.853945 0.567375
v -4.223462 0.853196 0.568035
v -4.222625 0.852314 0.567530
v -4.222298 0.852779 0.566708
v -4.223462 0.853196 0.568035
v -4.223403 0.853945 0.567375
v -4.222298 0.852779 0.566708
v -4.221617 0.853758 0.565775
v -4.223403 0.853945 0.567375
v -4.220765 0.854991 0.565520
v -4.221804 0.856086 0.566147
v -4.222893 0.855104 0.566546
v -4.221617 0.853758 0.565775
v -4.220765 0.854991 0.565520
v -4.222893 0.855104 0.566546
v -4.222893 0.855104 0.566546
v -4.223306 0.854785 0.568894
v -4.223403 0.853945 0.567375
v -4.222893 0.855104 0.566546
v -4.223306 0.854785 0.568894
v -4.221804 0.856086 0.566147
v -4.221713 0.856877 0.567575
v -4.222781 0.856076 0.568301
v -4.222893 0.855104 0.566546
v -4.221804 0.856086 0.566147
v -4.222781 0.856076 0.568301
v -4.222781 0.856076 0.568301
v -4.222079 0.854668 0.570122
v -4.223306 0.854785 0.568894
v -4.222781 0.856076 0.568301
v -4.222079 0.854668 0.570122
v -4.221713 0.856877 0.567575
v -4.220559 0.856767 0.568729
v -4.221364 0.855941 0.569719
v -4.222781 0.856076 0.568301
v -4.221713 0.856877 0.567575
v -4.221364 0.855941 0.569719
v -4.221364 0.855941 0.569719
v -4.220647 0.853682 0.570133
v -4.222079 0.854668 0.570122
v -4.221364 0.855941 0.569719
v -4.220647 0.853682 0.570133
v -4.220559 0.856767 0.568729
v -4.219213 0.855839 0.568739
v -4.219709 0.854801 0.569732
v -4.221364 0.855941 0.569719
v -4.220559 0.856767 0.568729
v -4.219709 0.854801 0.569732
v -4.219709 0.854801 0.569732
v -4.220088 0.852568 0.568919
v -4.220647 0.853682 0.570133
v -4.219709 0.854801 0.569732
v -4.220088 0.852568 0.568919
v -4.219213 0.855839 0.568739
v -4.218687 0.854792 0.567599
v -4.219063 0.853514 0.568330
v -4.219709 0.854801 0.569732
v -4.219213 0.855839 0.568739
v -4.219063 0.853514 0.568330
v -4.219063 0.853514 0.568330
v -4.220823 0.852167 0.567395
v -4.220088 0.852568 0.568919
v -4.219063 0.853514 0.568330
v -4.220823 0.852167 0.567395
v -4.218687 0.854792 0.567599
v -4.219378 0.854415 0.566166
v -4.219912 0.853050 0.566569
v -4.219063 0.853514 0.568330
v -4.218687 0.854792 0.567599
v -4.219912 0.853050 0.566569
v -4.219912 0.853050 0.566569
v -4.221617 0.853758 0.565775
v -4.222298 0.852779 0.566708
v -4.220823 0.852167 0.567395
v -4.219912 0.853050 0.566569
v -4.222298 0.852779 0.566708
v -4.219378 0.854415 0.566166
v -4.220765 0.854991 0.565520
v -4.221617 0.853758 0.565775
v -4.219912 0.853050 0.566569
v -4.219378 0.854415 0.566166
v -4.221617 0.853758 0.565775
v -4.220100 0.855957 0.565672
v -4.220778 0.856672 0.566082
v -4.221804 0.856086 0.566147
v -4.220765 0.854991 0.565520
v -4.220100 0.855957 0.565672
v -4.221804 0.856086 0.566147
v -4.220719 0.857188 0.567014
v -4.220778 0.856672 0.566082
v -4.219966 0.857116 0.567767
v -4.220100 0.855957 0.565672
v -4.219966 0.857116 0.567767
v -4.220778 0.856672 0.566082
v -4.219088 0.856511 0.567774
v -4.219966 0.857116 0.567767
v -4.220100 0.855957 0.565672
v -4.219195 0.855581 0.566094
v -4.219088 0.856511 0.567774
v -4.220100 0.855957 0.565672
v -4.218744 0.855828 0.567029
v -4.219088 0.856511 0.567774
v -4.219195 0.855581 0.566094
v -4.226262 0.849870 0.571615
v -4.225268 0.849775 0.572608
v -4.226341 0.849189 0.570384
v -4.225446 0.848246 0.569844
v -4.226341 0.849189 0.570384
v -4.225268 0.849775 0.572608
v -4.224109 0.848976 0.572617
v -4.225446 0.848246 0.569844
v -4.225268 0.849775 0.572608
v -4.224251 0.847750 0.570400
v -4.225446 0.848246 0.569844
v -4.224109 0.848976 0.572617
v -4.223656 0.848075 0.571635
v -4.224251 0.847750 0.570400
v -4.224109 0.848976 0.572617
vn -0.5115 -0.7375 0.4409
vn 0.6992 0.2301 -0.6768
vn 0.7486 0.6564 0.0934
vn 0.9059 0.3431 -0.2480
vn 0.2840 0.4025 -0.8702
vn 0.6992 0.2302 -0.6769
vn 0.2841 0.4025 -0.8702
vn 0.3457 0.9340 0.0903
vn -0.0269 0.7304 -0.6825
vn 0.3456 0.9340 0.0903
vn -0.0269 0.7303 -0.6826
vn 0.0005 0.9669 -0.2551
vn -0.5187 0.4974 -0.6954
vn -0.0153 -0.0334 -0.9993
vn -0.0268 0.7304 -0.6825
vn -0.2260 -0.3383 -0.9135
vn 0.6568 -0.3125 -0.6863
vn 0.5098 -0.6436 -0.5709
vn -0.2259 -0.3382 -0.9136
vn -0.0153 -0.0335 -0.9993
vn 0.6568 -0.3124 -0.6863
vn -0.4036 -0.5937 -0.6961
vn 0.2895 -0.8814 -0.3733
vn 0.9915 -0.1295 0.0080
vn 0.8762 -0.4434 0.1891
vn 0.2894 -0.8814 -0.3733
vn 0.8762 -0.4434 0.1890
vn 0.6346 -0.6927 0.3426
vn 0.7368 0.3776 0.5608
vn 0.5974 0.1118 0.7942
vn 0.9915 -0.1295 0.0081
vn 0.7369 0.3776 0.5607
vn 0.6346 -0.6928 0.3426
vn 0.5973 0.1118 0.7942
vn 0.3720 -0.1698 0.9126
vn 0.0845 0.8270 0.5557
vn -0.1167 0.6037 0.7886
vn 0.0845 0.8271 0.5557
vn 0.3719 -0.1698 0.9126
vn -0.3007 0.2937 0.9074
vn -0.1166 0.6037 0.7886
vn -0.4742 0.8804 -0.0033
vn -0.7283 0.6621 0.1767
vn -0.3008 0.2936 0.9074
vn -0.8769 0.3486 0.3309
vn -0.7284 0.6620 0.1766
vn -0.7769 0.2429 -0.5809
vn -0.7284 0.6620 0.1767
vn -0.4743 0.8804 -0.0033
vn -0.5187 0.4975 -0.6954
vn -0.9227 -0.0462 -0.3827
vn -0.7283 0.6620 0.1767
vn -0.7769 0.2428 -0.5809
vn -0.2259 -0.3382 -0.9135
vn -0.9227 -0.0463 -0.3827
vn -0.4036 -0.5937 -0.6962
vn -0.7769 0.2429 -0.5808
vn -0.9028 0.0150 -0.4299
vn -0.3705 -0.5463 -0.7512
vn -0.9028 0.0150 -0.4298
vn -0.2650 0.3636 0.8930
vn -0.8558 0.4200 0.3019
vn -0.2650 0.3636 0.8931
vn -0.3007 0.2936 0.9074
vn 0.6941 -0.6478 0.3139
vn 0.4247 -0.1116 0.8984
vn 0.2894 -0.8814 -0.3734
vn 0.3401 -0.8413 -0.4202
vn -0.4037 -0.5937 -0.6961
vn 0.4248 -0.1116 0.8984
vn 0.3402 -0.8413 -0.4202
vn 0.6941 -0.6478 0.3140
vn 0.0844 0.8271 0.5557
vn 0.3457 0.9340 0.0902
vn 0.9916 -0.1295 0.0080
vn 0.9059 0.3431 -0.2481
vn 0.2840 0.4025 -0.8703
vn 0.7368 0.3777 0.5608
vn 0.9060 0.3431 -0.2480
vn -0.4742 0.8804 -0.0034
vn -0.4743 0.8804 -0.0034
vn -0.2355 -0.3520 -0.9059
vn 0.5006 -0.6576 -0.5630
vn -0.7382 0.6487 0.1849
vn -0.7868 0.2294 -0.5730
vn -0.7382 0.6488 0.1849
vn 0.5882 0.0982 0.8028
vn -0.1262 0.5904 0.7972
vn 0.5882 0.0982 0.8027
vn 0.8672 -0.4573 0.1973
vn -0.7868 0.2293 -0.5730
vn 0.8672 -0.4573 0.1974
vn 0.8672 -0.4572 0.1973
vn 0.6941 -0.6479 0.3139
vt 0.530319 0.611839
vt 0.522446 0.618118
vt 0.524872 0.613083
vt 0.524872 0.623154
vt 0.534683 0.615326
vt 0.530319 0.624397
vt 0.534683 0.620918
vt 0.537079 0.671494
vt 0.541916 0.669548
vt 0.539566 0.672157
vt 0.536179 0.669609
vt 0.539856 0.666756
vt 0.536224 0.667854
vt 0.537567 0.666748
vt 0.534592 0.666855
vt 0.534012 0.669838
vt 0.530777 0.669685
vt 0.535187 0.673050
vt 0.531769 0.674789
vt 0.525803 0.669067
vt 0.526108 0.676537
vt 0.539017 0.675606
vt 0.536011 0.680244
vt 0.529755 0.684982
vt 0.547180 0.674767
vt 0.546982 0.686485
vt 0.537415 0.696274
vt 0.547180 0.658051
vt 0.540527 0.663902
vt 0.539825 0.659698
vt 0.546280 0.665543
vt 0.543762 0.651657
vt 0.537613 0.655174
vt 0.536758 0.664742
vt 0.535126 0.661980
vt 0.532364 0.658463
vt 0.532074 0.665283
vt 0.528198 0.662933
vt 0.523743 0.660286
vt 0.519989 0.668175
vt 0.535217 0.651588
vt 0.529327 0.654999
vt 0.522873 0.688484
vt 0.528320 0.699394
vt 0.519577 0.678001
vt 0.540466 0.648293
vt 0.604446 0.642853
vt 0.626221 0.647896
vt 0.604553 0.648445
vt 0.626144 0.642670
vt 0.604553 0.631676
vt 0.626144 0.637444
vt 0.604446 0.637268
vt 0.626221 0.632225
vt 0.605011 0.620506
vt 0.626404 0.626999
vt 0.604736 0.626091
vt 0.626663 0.621780
vt 0.626404 0.653114
vt 0.604736 0.654030
vt 0.626663 0.658333
vt 0.605011 0.659607
s 0
usemtl decorations
f 240/1/1 239/2/1 238/3/1
f 237/1/1 236/4/1 235/2/1
f 234/5/1 233/4/1 232/1/1
f 231/5/1 230/6/1 229/4/1
f 228/6/1 227/5/1 226/7/1
s 1
f 225/8/2 224/9/3 223/10/4
f 222/11/5 221/9/3 220/8/6
f 219/11/7 218/12/8 217/9/3
f 216/13/9 215/12/8 214/11/7
f 213/12/10 212/13/11 211/14/12
f 210/15/13 209/11/7 208/16/14
f 207/15/13 206/13/15 205/11/7
f 204/17/16 203/18/17 202/19/18
f 201/17/19 200/16/20 199/18/21
f 198/20/22 197/19/18 196/21/23
f 195/20/22 194/17/19 193/19/18
f 192/19/18 191/22/24 190/23/25
f 189/19/18 188/18/17 187/22/24
f 186/21/26 185/23/27 184/24/28
f 183/21/23 3/19/18 182/23/27
f 181/23/25 180/25/29 179/26/30
f 178/23/25 177/22/31 176/25/32
f 175/24/33 174/26/34 173/27/35
f 172/24/33 4/23/25 171/26/34
f 170/28/34 169/29/36 168/30/37
f 167/28/34 166/31/29 165/29/38
f 164/32/39 163/30/37 162/33/40
f 161/32/39 13/28/34 160/30/41
f 159/30/37 158/34/42 157/35/43
f 156/30/37 155/29/38 154/34/42
f 153/33/44 152/35/43 151/36/45
f 150/33/44 14/30/37 149/35/43
f 148/35/46 147/15/13 146/37/47
f 145/35/48 144/34/49 143/15/50
f 142/36/45 141/37/47 140/38/51
f 139/36/45 16/35/52 138/37/47
f 137/37/53 136/16/20 135/17/54
f 134/37/47 133/15/13 132/16/14
f 131/38/55 130/17/54 129/20/56
f 128/38/55 36/37/57 25/17/54
f 127/39/58 126/20/56 125/40/59
f 124/39/60 123/38/55 122/20/56
f 121/41/61 120/36/45 119/42/62
f 118/41/63 117/33/64 116/36/45
f 115/43/65 114/27/35 113/44/66
f 112/43/65 111/24/28 110/27/35
f 109/40/59 108/21/67 107/45/68
f 106/40/59 40/20/69 105/21/67
f 104/42/62 103/38/55 102/39/60
f 101/42/62 41/36/45 42/38/55
f 100/46/70 99/33/64 98/41/63
f 97/46/70 37/32/39 38/33/64
f 96/45/71 95/24/28 94/43/72
f 93/45/68 33/21/26 34/24/28
f 92/29/73 91/14/12 90/34/42
f 89/29/73 88/12/74 87/14/12
f 86/22/75 85/9/3 84/25/32
f 83/22/75 82/10/76 81/9/3
f 80/16/20 79/8/6 78/18/21
f 29/16/20 30/11/77 77/8/6
f 76/31/78 75/12/74 28/29/38
f 31/31/78 26/9/3 27/12/74
f 74/18/17 73/10/79 24/22/24
f 21/18/17 22/8/6 23/10/76
f 72/34/80 71/13/9 20/15/13
f 17/34/81 18/14/12 19/13/9
f 70/47/82 69/48/71 68/49/83
f 67/47/82 66/50/59 65/48/68
f 64/51/84 63/52/58 62/53/85
f 61/51/86 60/54/62 59/52/60
f 58/55/87 57/56/61 56/57/88
f 55/55/89 54/58/70 53/56/63
f 52/49/83 51/59/65 50/60/90
f 2/49/83 32/48/68 49/59/65
f 48/53/91 47/50/59 12/47/82
f 9/53/85 10/52/60 11/50/59
f 46/57/88 45/54/62 8/51/86
f 5/57/88 6/56/61 7/54/62
f 44/60/92 43/61/70 15/62/89
f 1/60/93 35/59/94 39/61/70
