# Blender 5.0.0
# www.blender.org
mtllib Circle_005_Circle_Dupli_11_decorations_0.mtl
o Circle.005|Circle|Dupli|11_decorations_0
v -4.322742 1.831860 0.599513
v -4.323017 1.830686 0.598786
v -4.324838 1.834755 0.592326
v -4.324446 1.836430 0.593364
v -4.324942 1.832323 0.600690
v -4.326536 1.835271 0.596374
v -4.327301 1.834281 0.595966
v -4.325760 1.831263 0.600253
v -4.325438 1.830207 0.599379
v -4.326998 1.833294 0.595148
v -4.325857 1.833053 0.594538
v -4.324216 1.829950 0.598726
v -4.325668 1.837470 0.594573
v -4.327585 1.837091 0.595043
v -4.323599 1.832589 0.600361
v -4.328752 1.835579 0.594419
v -4.328786 1.836385 0.593131
v -4.328471 1.836931 0.592131
v -4.328226 1.836131 0.591468
v -4.328411 1.835159 0.592117
v -4.325601 1.835715 0.591428
v -4.326392 1.836494 0.591019
v -4.326184 1.837383 0.591570
v -4.325282 1.837078 0.592272
v -4.326549 1.833706 0.592240
v -4.326833 1.837935 0.592212
v -4.327851 1.837734 0.592462
v -4.327837 1.837615 0.593639
v -4.326994 1.834861 0.591358
v -4.327301 1.835936 0.590974
v -4.326277 1.837923 0.593256
v -4.324736 1.833741 0.594594
v -4.324629 1.834048 0.593648
v -4.324290 1.835498 0.594547
v -4.324479 1.834839 0.595274
v -4.328291 1.834072 0.593172
v -4.325348 1.836398 0.595593
v -4.327006 1.836070 0.596000
v -4.325280 1.835520 0.596066
v -4.326110 1.833140 0.593575
v -4.328017 1.834761 0.595461
v -4.327618 1.833457 0.594381
v -4.325280 1.835520 0.596066
v -4.322742 1.831860 0.599513
v -4.327301 1.834281 0.595966
v -4.324942 1.832323 0.600690
v -4.325857 1.833053 0.594538
v -4.325438 1.830207 0.599379
v -4.324479 1.834839 0.595274
v -4.322742 1.831860 0.599513
v -4.324479 1.834839 0.595274
v -4.323017 1.830686 0.598786
v -4.326536 1.835271 0.596374
v -4.325280 1.835520 0.596066
v -4.323599 1.832589 0.600361
v -4.324942 1.832323 0.600690
v -4.326536 1.835271 0.596374
v -4.323599 1.832589 0.600361
v -4.326998 1.833294 0.595148
v -4.327301 1.834281 0.595966
v -4.325760 1.831263 0.600253
v -4.325438 1.830207 0.599379
v -4.326998 1.833294 0.595148
v -4.325760 1.831263 0.600253
v -4.324736 1.833741 0.594594
v -4.325857 1.833053 0.594538
v -4.324216 1.829950 0.598726
v -4.323017 1.830686 0.598786
v -4.324736 1.833741 0.594594
v -4.324216 1.829950 0.598726
v -4.328226 1.836131 0.591468
v -4.328786 1.836385 0.593131
v -4.326184 1.837383 0.591570
v -4.325601 1.835715 0.591428
v -4.327851 1.837734 0.592462
v -4.326277 1.837923 0.593256
v -4.326392 1.836494 0.591019
v -4.325601 1.835715 0.591428
v -4.326392 1.836494 0.591019
v -4.326994 1.834861 0.591358
v -4.326833 1.837935 0.592212
v -4.326184 1.837383 0.591570
v -4.325282 1.837078 0.592272
v -4.326277 1.837923 0.593256
v -4.326833 1.837935 0.592212
v -4.325282 1.837078 0.592272
v -4.328471 1.836931 0.592131
v -4.327851 1.837734 0.592462
v -4.327837 1.837615 0.593639
v -4.328786 1.836385 0.593131
v -4.328471 1.836931 0.592131
v -4.327837 1.837615 0.593639
v -4.324736 1.833741 0.594594
v -4.324479 1.834839 0.595274
v -4.324290 1.835498 0.594547
v -4.324736 1.833741 0.594594
v -4.325280 1.835520 0.596066
v -4.326536 1.835271 0.596374
v -4.327006 1.836070 0.596000
v -4.325280 1.835520 0.596066
v -4.327301 1.834281 0.595966
v -4.326998 1.833294 0.595148
v -4.327618 1.833457 0.594381
v -4.327301 1.834281 0.595966
v -4.324629 1.834048 0.593648
v -4.325857 1.833053 0.594538
v -4.324736 1.833741 0.594594
v -4.324629 1.834048 0.593648
v -4.325857 1.833053 0.594538
v -4.325348 1.836398 0.595593
v -4.324290 1.835498 0.594547
v -4.324479 1.834839 0.595274
v -4.325280 1.835520 0.596066
v -4.325348 1.836398 0.595593
v -4.324479 1.834839 0.595274
v -4.328017 1.834761 0.595461
v -4.327006 1.836070 0.596000
v -4.326536 1.835271 0.596374
v -4.327301 1.834281 0.595966
v -4.328017 1.834761 0.595461
v -4.326536 1.835271 0.596374
v -4.326110 1.833140 0.593575
v -4.327618 1.833457 0.594381
v -4.326998 1.833294 0.595148
v -4.325857 1.833053 0.594538
v -4.326110 1.833140 0.593575
v -4.326998 1.833294 0.595148
v -4.327618 1.833457 0.594381
v -4.326110 1.833140 0.593575
v -4.326549 1.833706 0.592240
v -4.327618 1.833457 0.594381
v -4.326994 1.834861 0.591358
v -4.328411 1.835159 0.592117
v -4.328291 1.834072 0.593172
v -4.326549 1.833706 0.592240
v -4.326994 1.834861 0.591358
v -4.328291 1.834072 0.593172
v -4.328291 1.834072 0.593172
v -4.328017 1.834761 0.595461
v -4.327618 1.833457 0.594381
v -4.328291 1.834072 0.593172
v -4.328017 1.834761 0.595461
v -4.328411 1.835159 0.592117
v -4.328786 1.836385 0.593131
v -4.328752 1.835579 0.594419
v -4.328291 1.834072 0.593172
v -4.328411 1.835159 0.592117
v -4.328752 1.835579 0.594419
v -4.328752 1.835579 0.594419
v -4.327006 1.836070 0.596000
v -4.328017 1.834761 0.595461
v -4.328752 1.835579 0.594419
v -4.327006 1.836070 0.596000
v -4.328786 1.836385 0.593131
v -4.327837 1.837615 0.593639
v -4.327585 1.837091 0.595043
v -4.328752 1.835579 0.594419
v -4.328786 1.836385 0.593131
v -4.327585 1.837091 0.595043
v -4.327585 1.837091 0.595043
v -4.325348 1.836398 0.595593
v -4.327006 1.836070 0.596000
v -4.327585 1.837091 0.595043
v -4.325348 1.836398 0.595593
v -4.327837 1.837615 0.593639
v -4.326277 1.837923 0.593256
v -4.325668 1.837470 0.594573
v -4.327585 1.837091 0.595043
v -4.327837 1.837615 0.593639
v -4.325668 1.837470 0.594573
v -4.325668 1.837470 0.594573
v -4.324290 1.835498 0.594547
v -4.325348 1.836398 0.595593
v -4.325668 1.837470 0.594573
v -4.324290 1.835498 0.594547
v -4.326277 1.837923 0.593256
v -4.325282 1.837078 0.592272
v -4.324446 1.836430 0.593364
v -4.325668 1.837470 0.594573
v -4.326277 1.837923 0.593256
v -4.324446 1.836430 0.593364
v -4.324446 1.836430 0.593364
v -4.324629 1.834048 0.593648
v -4.324290 1.835498 0.594547
v -4.324446 1.836430 0.593364
v -4.324629 1.834048 0.593648
v -4.325282 1.837078 0.592272
v -4.325601 1.835715 0.591428
v -4.324838 1.834755 0.592326
v -4.324446 1.836430 0.593364
v -4.325282 1.837078 0.592272
v -4.324838 1.834755 0.592326
v -4.324838 1.834755 0.592326
v -4.326549 1.833706 0.592240
v -4.326110 1.833140 0.593575
v -4.324629 1.834048 0.593648
v -4.324838 1.834755 0.592326
v -4.326110 1.833140 0.593575
v -4.325601 1.835715 0.591428
v -4.326994 1.834861 0.591358
v -4.326549 1.833706 0.592240
v -4.324838 1.834755 0.592326
v -4.325601 1.835715 0.591428
v -4.326549 1.833706 0.592240
v -4.327301 1.835936 0.590974
v -4.328226 1.836131 0.591468
v -4.328411 1.835159 0.592117
v -4.326994 1.834861 0.591358
v -4.327301 1.835936 0.590974
v -4.328411 1.835159 0.592117
v -4.328471 1.836931 0.592131
v -4.328226 1.836131 0.591468
v -4.327851 1.837734 0.592462
v -4.327301 1.835936 0.590974
v -4.327851 1.837734 0.592462
v -4.328226 1.836131 0.591468
v -4.326833 1.837935 0.592212
v -4.327851 1.837734 0.592462
v -4.327301 1.835936 0.590974
v -4.326392 1.836494 0.591019
v -4.326833 1.837935 0.592212
v -4.327301 1.835936 0.590974
v -4.326184 1.837383 0.591570
v -4.326833 1.837935 0.592212
v -4.326392 1.836494 0.591019
v -4.325760 1.831263 0.600253
v -4.324942 1.832323 0.600690
v -4.325438 1.830207 0.599379
v -4.324216 1.829950 0.598726
v -4.325438 1.830207 0.599379
v -4.324942 1.832323 0.600690
v -4.323599 1.832589 0.600361
v -4.324216 1.829950 0.598726
v -4.324942 1.832323 0.600690
v -4.323017 1.830686 0.598786
v -4.324216 1.829950 0.598726
v -4.323599 1.832589 0.600361
v -4.322742 1.831860 0.599513
v -4.323017 1.830686 0.598786
v -4.323599 1.832589 0.600361
vn 0.2999 -0.5522 0.7779
vn 0.1790 0.2537 -0.9506
vn -0.0233 0.9148 -0.4033
vn 0.2745 0.6616 -0.6978
vn -0.2378 -0.0019 -0.9713
vn -0.2377 -0.0018 -0.9713
vn -0.4900 0.8225 -0.2889
vn -0.6620 0.0874 -0.7444
vn -0.7743 0.4542 -0.4407
vn -0.7932 -0.3715 -0.4826
vn -0.2378 -0.0018 -0.9713
vn -0.1064 -0.5159 -0.8500
vn 0.0062 -0.7906 -0.6122
vn 0.5684 -0.1022 -0.8164
vn 0.7448 -0.3377 -0.5756
vn 0.0062 -0.7906 -0.6123
vn -0.1064 -0.5160 -0.8500
vn 0.5683 -0.1022 -0.8164
vn 0.1177 -0.9508 -0.2866
vn 0.7448 -0.3377 -0.5755
vn 0.8135 -0.5241 -0.2521
vn 0.7229 0.5582 -0.4072
vn 0.9140 0.3852 -0.1276
vn 0.8135 -0.5241 -0.2520
vn 0.9729 0.1569 0.1699
vn 0.2410 0.9680 0.0697
vn 0.3864 0.8338 0.3944
vn 0.7229 0.5582 -0.4071
vn 0.2410 0.9680 0.0696
vn 0.9729 0.1569 0.1700
vn 0.4758 0.5795 0.6616
vn 0.9140 0.3852 -0.1275
vn 0.3863 0.8338 0.3944
vn -0.5146 0.8186 0.2549
vn -0.4407 0.6703 0.5971
vn 0.2409 0.9680 0.0697
vn -0.5146 0.8187 0.2549
vn 0.4758 0.5795 0.6617
vn -0.4407 0.6702 0.5972
vn -0.3033 0.4255 0.8526
vn -0.9749 0.2226 0.0091
vn -0.9445 0.0177 0.3281
vn -0.5147 0.8186 0.2549
vn -0.9749 0.2225 0.0091
vn -0.3033 0.4254 0.8527
vn -0.7779 -0.1893 0.5992
vn -0.4407 0.6702 0.5971
vn -0.9445 0.0176 0.3281
vn -0.7456 -0.6324 -0.2101
vn -0.7932 -0.3714 -0.4826
vn -0.5905 -0.8017 0.0922
vn -0.7455 -0.6325 -0.2101
vn -0.7456 -0.6324 -0.2102
vn -0.5905 -0.8018 0.0922
vn 0.1177 -0.9508 -0.2867
vn -0.6309 -0.7753 0.0286
vn 0.0953 -0.9281 -0.3599
vn -0.3364 0.4830 0.8084
vn -0.8231 -0.1473 0.5485
vn 0.9722 0.2077 0.1084
vn 0.4759 0.5795 0.6616
vn 0.4625 0.6410 0.6125
vn 0.8087 -0.4907 -0.3243
vn -0.3032 0.4254 0.8527
vn 0.8087 -0.4906 -0.3244
vn -0.7742 0.4543 -0.4407
vn 0.7229 0.5583 -0.4071
vn -0.1063 -0.5160 -0.8500
vn 0.2409 0.9680 0.0696
vn 0.0118 -0.8012 -0.5982
vn 0.7507 -0.3481 -0.5615
vn 0.0118 -0.8012 -0.5983
vn 0.8087 -0.4907 -0.3244
vn -0.9394 0.0074 0.3426
vn -0.7404 -0.6430 -0.1958
vn -0.9394 0.0075 0.3426
vn 0.3921 0.8240 0.4090
vn -0.3365 0.4830 0.8084
vn -0.4353 0.6604 0.6118
vn 0.3921 0.8240 0.4089
vn 0.7507 -0.3481 -0.5614
vn 0.9722 0.2077 0.1083
vn 0.9200 0.3751 -0.1133
vn -0.7404 -0.6430 -0.1959
vn 0.0117 -0.8012 -0.5982
vn -0.4354 0.6604 0.6118
vn -0.9394 0.0075 0.3427
vn 0.9200 0.3752 -0.1132
vn 0.9200 0.3752 -0.1133
vt 0.543243 0.611839
vt 0.535370 0.618118
vt 0.537796 0.613083
vt 0.537796 0.623154
vt 0.547607 0.615326
vt 0.543243 0.624397
vt 0.547607 0.620918
vt 0.565384 0.671494
vt 0.570206 0.669548
vt 0.567856 0.672157
vt 0.564468 0.669609
vt 0.568146 0.666756
vt 0.564514 0.667854
vt 0.565857 0.666748
vt 0.562897 0.666855
vt 0.562302 0.669838
vt 0.559082 0.669685
vt 0.563492 0.673050
vt 0.560059 0.674789
vt 0.554092 0.669067
vt 0.554398 0.676537
vt 0.567307 0.675606
vt 0.564316 0.680244
vt 0.558044 0.684982
vt 0.575485 0.674767
vt 0.575272 0.686485
vt 0.565720 0.696274
vt 0.575485 0.658051
vt 0.568817 0.663902
vt 0.568115 0.659698
vt 0.574570 0.665543
vt 0.572052 0.651657
vt 0.565903 0.655174
vt 0.565063 0.664742
vt 0.563416 0.661980
vt 0.560669 0.658463
vt 0.560364 0.665283
vt 0.556488 0.662933
vt 0.552032 0.660286
vt 0.548294 0.668175
vt 0.563522 0.651588
vt 0.557617 0.654999
vt 0.551163 0.688484
vt 0.556610 0.699394
vt 0.547867 0.678001
vt 0.568756 0.648293
vt 0.604446 0.682632
vt 0.626221 0.687675
vt 0.604553 0.688225
vt 0.626144 0.682457
vt 0.604553 0.671455
vt 0.626144 0.677231
vt 0.604446 0.677048
vt 0.626221 0.672005
vt 0.605011 0.660294
vt 0.626404 0.666786
vt 0.604736 0.665871
vt 0.626663 0.661568
vt 0.626404 0.692902
vt 0.604736 0.693810
vt 0.626663 0.698120
vt 0.605011 0.699394
s 0
usemtl decorations
f 240/1/1 239/2/1 238/3/1
f 237/1/1 236/4/1 235/2/1
f 234/5/1 233/4/1 232/1/1
f 231/5/1 230/6/1 229/4/1
f 228/6/1 227/5/1 226/7/1
s 1
f 225/8/2 224/9/3 223/10/4
f 222/11/5 221/9/3 220/8/2
f 219/11/6 218/12/7 217/9/3
f 216/13/8 215/12/7 214/11/6
f 213/12/7 212/13/8 211/14/9
f 210/15/10 209/11/11 208/16/12
f 207/15/10 206/13/8 205/11/11
f 204/17/13 203/18/14 202/19/15
f 201/17/16 200/16/17 199/18/18
f 198/20/19 197/19/20 196/21/21
f 195/20/19 194/17/16 193/19/15
f 192/19/20 191/22/22 190/23/23
f 189/19/15 188/18/14 187/22/22
f 186/21/24 185/23/23 184/24/25
f 183/21/24 3/19/20 182/23/23
f 181/23/23 180/25/26 179/26/27
f 178/23/23 177/22/28 176/25/29
f 175/24/30 174/26/27 173/27/31
f 172/24/30 4/23/32 171/26/27
f 170/28/33 169/29/34 168/30/35
f 167/28/27 166/31/36 165/29/37
f 164/32/38 163/30/39 162/33/40
f 161/32/38 13/28/27 160/30/35
f 159/30/35 158/34/41 157/35/42
f 156/30/35 155/29/43 154/34/44
f 153/33/45 152/35/42 151/36/46
f 150/33/45 14/30/47 149/35/42
f 148/35/48 147/15/10 146/37/49
f 145/35/42 144/34/44 143/15/50
f 142/36/46 141/37/49 140/38/51
f 139/36/46 16/35/42 138/37/49
f 137/37/52 136/16/17 135/17/16
f 134/37/53 133/15/10 132/16/12
f 131/38/54 130/17/16 129/20/55
f 128/38/54 36/37/49 25/17/16
f 127/39/56 126/20/55 125/40/57
f 124/39/56 123/38/54 122/20/55
f 121/41/58 120/36/46 119/42/59
f 118/41/58 117/33/45 116/36/46
f 115/43/60 114/27/61 113/44/62
f 112/43/60 111/24/30 110/27/61
f 109/40/57 108/21/21 107/45/63
f 106/40/57 40/20/19 105/21/21
f 104/42/59 103/38/51 102/39/56
f 101/42/59 41/36/46 42/38/51
f 100/46/62 99/33/64 98/41/58
f 97/46/62 37/32/38 38/33/64
f 96/45/65 95/24/30 94/43/60
f 93/45/65 33/21/24 34/24/30
f 92/29/43 91/14/66 90/34/44
f 89/29/43 88/12/7 87/14/9
f 86/22/67 85/9/3 84/25/29
f 83/22/67 82/10/4 81/9/3
f 80/16/68 79/8/2 78/18/18
f 29/16/68 30/11/5 77/8/2
f 76/31/69 75/12/7 28/29/34
f 31/31/69 26/9/3 27/12/7
f 74/18/14 73/10/4 24/22/22
f 21/18/14 22/8/2 23/10/4
f 72/34/44 71/13/8 20/15/50
f 17/34/44 18/14/66 19/13/8
f 70/47/70 69/48/65 68/49/71
f 67/47/72 66/50/57 65/48/73
f 64/51/74 63/52/56 62/53/75
f 61/51/76 60/54/59 59/52/56
f 58/55/77 57/56/78 56/57/79
f 55/55/80 54/58/62 53/56/58
f 52/49/81 51/59/82 50/60/83
f 2/49/71 32/48/73 49/59/60
f 48/53/84 47/50/57 12/47/85
f 9/53/84 10/52/56 11/50/57
f 46/57/86 45/54/59 8/51/87
f 5/57/86 6/56/78 7/54/59
f 44/60/88 43/61/62 15/62/77
f 1/60/89 35/59/60 39/61/62
