# Blender 5.0.0
# www.blender.org
mtllib Circle_002_Circle_003_Dupli_65_decorations_0.mtl
o Circle.002|Circle.003|Dupli|65_decorations_0
v -4.516561 1.202106 0.398093
v -4.516861 1.200777 0.397738
v -4.522477 1.203059 0.392752
v -4.522049 1.204956 0.393259
v -4.517962 1.202463 0.400178
v -4.522087 1.204152 0.397017
v -4.522691 1.202992 0.397166
v -4.518609 1.201222 0.400338
v -4.518503 1.200068 0.399538
v -4.522593 1.201913 0.396418
v -4.521866 1.201728 0.395336
v -4.517725 1.199870 0.398381
v -4.522748 1.206027 0.394808
v -4.524048 1.205466 0.396234
v -4.517051 1.202857 0.399179
v -4.524970 1.203695 0.396462
v -4.525811 1.204196 0.395299
v -4.526157 1.204560 0.394228
v -4.526077 1.203685 0.393622
v -4.525689 1.202855 0.394370
v -4.523783 1.203678 0.392280
v -4.524833 1.204222 0.392258
v -4.524605 1.205230 0.392527
v -4.523434 1.205222 0.392693
v -4.523710 1.201765 0.393669
v -4.524977 1.205798 0.393350
v -4.525667 1.205500 0.394107
v -4.525061 1.205636 0.395114
v -4.524786 1.202625 0.393027
v -4.525488 1.203535 0.392745
v -4.524003 1.206093 0.393954
v -4.521058 1.202576 0.394735
v -4.521496 1.202689 0.393844
v -4.521125 1.204330 0.394282
v -4.520777 1.203818 0.395067
v -4.524820 1.202048 0.395320
v -4.521730 1.205257 0.395624
v -4.522856 1.204772 0.396858
v -4.521235 1.204520 0.396083
v -4.522563 1.201569 0.394638
v -4.523654 1.203239 0.397055
v -4.523524 1.201814 0.396067
v -4.521235 1.204520 0.396083
v -4.516561 1.202106 0.398093
v -4.522691 1.202992 0.397166
v -4.517962 1.202463 0.400178
v -4.521866 1.201728 0.395336
v -4.518503 1.200068 0.399538
v -4.520777 1.203818 0.395067
v -4.516561 1.202106 0.398093
v -4.520777 1.203818 0.395067
v -4.516861 1.200777 0.397738
v -4.522087 1.204152 0.397017
v -4.521235 1.204520 0.396083
v -4.517051 1.202857 0.399179
v -4.517962 1.202463 0.400178
v -4.522087 1.204152 0.397017
v -4.517051 1.202857 0.399179
v -4.522593 1.201913 0.396418
v -4.522691 1.202992 0.397166
v -4.518609 1.201222 0.400338
v -4.518503 1.200068 0.399538
v -4.522593 1.201913 0.396418
v -4.518609 1.201222 0.400338
v -4.521058 1.202576 0.394735
v -4.521866 1.201728 0.395336
v -4.517725 1.199870 0.398381
v -4.516861 1.200777 0.397738
v -4.521058 1.202576 0.394735
v -4.517725 1.199870 0.398381
v -4.526077 1.203685 0.393622
v -4.525811 1.204196 0.395299
v -4.524605 1.205230 0.392527
v -4.523783 1.203678 0.392280
v -4.525667 1.205500 0.394107
v -4.524003 1.206093 0.393954
v -4.524833 1.204222 0.392258
v -4.523783 1.203678 0.392280
v -4.524833 1.204222 0.392258
v -4.524786 1.202625 0.393027
v -4.524977 1.205798 0.393350
v -4.524605 1.205230 0.392527
v -4.523434 1.205222 0.392693
v -4.524003 1.206093 0.393954
v -4.524977 1.205798 0.393350
v -4.523434 1.205222 0.392693
v -4.526157 1.204560 0.394228
v -4.525667 1.205500 0.394107
v -4.525061 1.205636 0.395114
v -4.525811 1.204196 0.395299
v -4.526157 1.204560 0.394228
v -4.525061 1.205636 0.395114
v -4.521058 1.202576 0.394735
v -4.520777 1.203818 0.395067
v -4.521125 1.204330 0.394282
v -4.521058 1.202576 0.394735
v -4.521235 1.204520 0.396083
v -4.522087 1.204152 0.397017
v -4.522856 1.204772 0.396858
v -4.521235 1.204520 0.396083
v -4.522691 1.202992 0.397166
v -4.522593 1.201913 0.396418
v -4.523524 1.201814 0.396067
v -4.522691 1.202992 0.397166
v -4.521496 1.202689 0.393844
v -4.521866 1.201728 0.395336
v -4.521058 1.202576 0.394735
v -4.521496 1.202689 0.393844
v -4.521866 1.201728 0.395336
v -4.521730 1.205257 0.395624
v -4.521125 1.204330 0.394282
v -4.520777 1.203818 0.395067
v -4.521235 1.204520 0.396083
v -4.521730 1.205257 0.395624
v -4.520777 1.203818 0.395067
v -4.523654 1.203239 0.397055
v -4.522856 1.204772 0.396858
v -4.522087 1.204152 0.397017
v -4.522691 1.202992 0.397166
v -4.523654 1.203239 0.397055
v -4.522087 1.204152 0.397017
v -4.522563 1.201569 0.394638
v -4.523524 1.201814 0.396067
v -4.522593 1.201913 0.396418
v -4.521866 1.201728 0.395336
v -4.522563 1.201569 0.394638
v -4.522593 1.201913 0.396418
v -4.523524 1.201814 0.396067
v -4.522563 1.201569 0.394638
v -4.523710 1.201765 0.393669
v -4.523524 1.201814 0.396067
v -4.524786 1.202625 0.393027
v -4.525689 1.202855 0.394370
v -4.524820 1.202048 0.395320
v -4.523710 1.201765 0.393669
v -4.524786 1.202625 0.393027
v -4.524820 1.202048 0.395320
v -4.524820 1.202048 0.395320
v -4.523654 1.203239 0.397055
v -4.523524 1.201814 0.396067
v -4.524820 1.202048 0.395320
v -4.523654 1.203239 0.397055
v -4.525689 1.202855 0.394370
v -4.525811 1.204196 0.395299
v -4.524970 1.203695 0.396462
v -4.524820 1.202048 0.395320
v -4.525689 1.202855 0.394370
v -4.524970 1.203695 0.396462
v -4.524970 1.203695 0.396462
v -4.522856 1.204772 0.396858
v -4.523654 1.203239 0.397055
v -4.524970 1.203695 0.396462
v -4.522856 1.204772 0.396858
v -4.525811 1.204196 0.395299
v -4.525061 1.205636 0.395114
v -4.524048 1.205466 0.396234
v -4.524970 1.203695 0.396462
v -4.525811 1.204196 0.395299
v -4.524048 1.205466 0.396234
v -4.524048 1.205466 0.396234
v -4.521730 1.205257 0.395624
v -4.522856 1.204772 0.396858
v -4.524048 1.205466 0.396234
v -4.521730 1.205257 0.395624
v -4.525061 1.205636 0.395114
v -4.524003 1.206093 0.393954
v -4.522748 1.206027 0.394808
v -4.524048 1.205466 0.396234
v -4.525061 1.205636 0.395114
v -4.522748 1.206027 0.394808
v -4.522748 1.206027 0.394808
v -4.521125 1.204330 0.394282
v -4.521730 1.205257 0.395624
v -4.522748 1.206027 0.394808
v -4.521125 1.204330 0.394282
v -4.524003 1.206093 0.393954
v -4.523434 1.205222 0.392693
v -4.522049 1.204956 0.393259
v -4.522748 1.206027 0.394808
v -4.524003 1.206093 0.393954
v -4.522049 1.204956 0.393259
v -4.522049 1.204956 0.393259
v -4.521496 1.202689 0.393844
v -4.521125 1.204330 0.394282
v -4.522049 1.204956 0.393259
v -4.521496 1.202689 0.393844
v -4.523434 1.205222 0.392693
v -4.523783 1.203678 0.392280
v -4.522477 1.203059 0.392752
v -4.522049 1.204956 0.393259
v -4.523434 1.205222 0.392693
v -4.522477 1.203059 0.392752
v -4.522477 1.203059 0.392752
v -4.523710 1.201765 0.393669
v -4.522563 1.201569 0.394638
v -4.521496 1.202689 0.393844
v -4.522477 1.203059 0.392752
v -4.522563 1.201569 0.394638
v -4.523783 1.203678 0.392280
v -4.524786 1.202625 0.393027
v -4.523710 1.201765 0.393669
v -4.522477 1.203059 0.392752
v -4.523783 1.203678 0.392280
v -4.523710 1.201765 0.393669
v -4.525488 1.203535 0.392745
v -4.526077 1.203685 0.393622
v -4.525689 1.202855 0.394370
v -4.524786 1.202625 0.393027
v -4.525488 1.203535 0.392745
v -4.525689 1.202855 0.394370
v -4.526157 1.204560 0.394228
v -4.526077 1.203685 0.393622
v -4.525667 1.205500 0.394107
v -4.525488 1.203535 0.392745
v -4.525667 1.205500 0.394107
v -4.526077 1.203685 0.393622
v -4.524977 1.205798 0.393350
v -4.525667 1.205500 0.394107
v -4.525488 1.203535 0.392745
v -4.524833 1.204222 0.392258
v -4.524977 1.205798 0.393350
v -4.525488 1.203535 0.392745
v -4.524605 1.205230 0.392527
v -4.524977 1.205798 0.393350
v -4.524833 1.204222 0.392258
v -4.518609 1.201222 0.400338
v -4.517962 1.202463 0.400178
v -4.518503 1.200068 0.399538
v -4.517725 1.199870 0.398381
v -4.518503 1.200068 0.399538
v -4.517962 1.202463 0.400178
v -4.517051 1.202857 0.399179
v -4.517725 1.199870 0.398381
v -4.517962 1.202463 0.400178
v -4.516861 1.200777 0.397738
v -4.517725 1.199870 0.398381
v -4.517051 1.202857 0.399179
v -4.516561 1.202106 0.398093
v -4.516861 1.200777 0.397738
v -4.517051 1.202857 0.399179
vn 0.7592 -0.3225 0.5654
vn -0.3666 0.0716 -0.9276
vn -0.4326 0.7942 -0.4267
vn -0.2624 0.5334 -0.8042
vn -0.6670 -0.2436 -0.7041
vn -0.3667 0.0715 -0.9276
vn -0.6669 -0.2436 -0.7042
vn -0.7492 0.6575 -0.0796
vn -0.9371 -0.1747 -0.3020
vn -0.6670 -0.2436 -0.7042
vn -0.9371 -0.1748 -0.3021
vn -0.9738 0.2263 -0.0241
vn -0.8120 -0.5825 0.0362
vn -0.3747 -0.6940 -0.6148
vn -0.9372 -0.1747 -0.3020
vn -0.0996 -0.8916 -0.4418
vn 0.1116 -0.1838 -0.9766
vn 0.4326 -0.3331 -0.8378
vn -0.3746 -0.6940 -0.6148
vn 0.1115 -0.1838 -0.9766
vn 0.1894 -0.9602 -0.2053
vn 0.6907 -0.4341 -0.5784
vn 0.4325 -0.3331 -0.8378
vn 0.2804 0.5639 -0.7768
vn 0.6174 0.4854 -0.6191
vn 0.6174 0.4853 -0.6191
vn 0.8648 0.3369 -0.3723
vn 0.0048 0.9862 -0.1657
vn 0.3157 0.9476 0.0498
vn 0.2804 0.5639 -0.7767
vn 0.0048 0.9861 -0.1658
vn 0.5805 0.7724 0.2578
vn 0.6174 0.4854 -0.6190
vn 0.3157 0.9475 0.0498
vn -0.5078 0.7649 0.3963
vn -0.2454 0.7054 0.6650
vn 0.5806 0.7723 0.2578
vn -0.2453 0.7054 0.6650
vn 0.0520 0.5442 0.8373
vn -0.8713 0.0669 0.4862
vn -0.6433 -0.0588 0.7634
vn 0.0521 0.5442 0.8374
vn -0.3229 -0.1757 0.9300
vn 0.0520 0.5442 0.8374
vn -0.5784 -0.7695 0.2708
vn -0.8713 0.0668 0.4862
vn -0.8121 -0.5824 0.0362
vn -0.3228 -0.1757 0.9300
vn -0.2618 -0.8452 0.4660
vn -0.2617 -0.8452 0.4660
vn 0.1893 -0.9602 -0.2053
vn -0.3327 -0.8394 0.4299
vn 0.1298 -0.9573 -0.2584
vn -0.0110 0.5854 0.8107
vn -0.3228 -0.1756 0.9300
vn -0.3954 -0.1528 0.9057
vn 0.8224 0.3729 -0.4297
vn 0.5806 0.7723 0.2577
vn 0.5310 0.8193 0.2164
vn 0.8224 0.3728 -0.4297
vn 0.8648 0.3370 -0.3723
vn 0.1298 -0.9573 -0.2585
vn 0.6439 -0.4178 -0.6410
vn -0.3327 -0.8393 0.4299
vn 0.5309 0.8193 0.2164
vn 0.0521 0.5442 0.8373
vn -0.0110 0.5853 0.8107
vn 0.5805 0.7723 0.2578
vn 0.8224 0.3729 -0.4296
vn -0.5078 0.7649 0.3964
vn 0.2804 0.5640 -0.7768
vn 0.0048 0.9862 -0.1658
vn 0.2804 0.5640 -0.7767
vn -0.2623 0.5333 -0.8042
vn -0.4326 0.7942 -0.4268
vn 0.0047 0.9862 -0.1658
vn -0.2623 0.5334 -0.8042
vn -0.8713 0.0668 0.4861
vn -0.0856 -0.8980 -0.4316
vn 0.6438 -0.4178 -0.6410
vn 0.4468 -0.3393 -0.8278
vn -0.6296 -0.0648 0.7742
vn -0.5647 -0.7758 0.2814
vn 0.3299 0.9421 0.0603
vn -0.2314 0.6998 0.6758
vn 0.3298 0.9421 0.0603
vn 0.4469 -0.3392 -0.8278
vn 0.6318 0.4796 -0.6090
vn 0.4468 -0.3392 -0.8278
vn -0.5647 -0.7759 0.2814
vn -0.0856 -0.8980 -0.4315
vn -0.2315 0.6998 0.6758
vn 0.6318 0.4796 -0.6089
vn 0.6318 0.4797 -0.6089
vt 0.530319 0.611839
vt 0.522446 0.618118
vt 0.524872 0.613083
vt 0.524872 0.623154
vt 0.534683 0.615326
vt 0.530319 0.624397
vt 0.534683 0.620918
vt 0.537079 0.671494
vt 0.541916 0.669548
vt 0.539566 0.672157
vt 0.536179 0.669609
vt 0.539856 0.666756
vt 0.536224 0.667854
vt 0.537567 0.666748
vt 0.534592 0.666855
vt 0.534012 0.669838
vt 0.530777 0.669685
vt 0.535187 0.673050
vt 0.531769 0.674789
vt 0.525803 0.669067
vt 0.526108 0.676537
vt 0.539017 0.675606
vt 0.536011 0.680244
vt 0.529755 0.684982
vt 0.547180 0.674767
vt 0.546982 0.686485
vt 0.537415 0.696274
vt 0.547180 0.658051
vt 0.540527 0.663902
vt 0.539825 0.659698
vt 0.546280 0.665543
vt 0.543762 0.651657
vt 0.537613 0.655174
vt 0.536758 0.664742
vt 0.535126 0.661980
vt 0.532364 0.658463
vt 0.532074 0.665283
vt 0.528198 0.662933
vt 0.523743 0.660286
vt 0.519989 0.668175
vt 0.535217 0.651588
vt 0.529327 0.654999
vt 0.522873 0.688484
vt 0.528320 0.699394
vt 0.519577 0.678001
vt 0.540466 0.648293
vt 0.604446 0.642853
vt 0.626221 0.647896
vt 0.604553 0.648445
vt 0.626144 0.642670
vt 0.604553 0.631676
vt 0.626144 0.637444
vt 0.604446 0.637268
vt 0.626221 0.632225
vt 0.605011 0.620506
vt 0.626404 0.626999
vt 0.604736 0.626091
vt 0.626663 0.621780
vt 0.626404 0.653114
vt 0.604736 0.654030
vt 0.626663 0.658333
vt 0.605011 0.659607
s 0
usemtl decorations
f 240/1/1 239/2/1 238/3/1
f 237/1/1 236/4/1 235/2/1
f 234/5/1 233/4/1 232/1/1
f 231/5/1 230/6/1 229/4/1
f 228/6/1 227/5/1 226/7/1
s 1
f 225/8/2 224/9/3 223/10/4
f 222/11/5 221/9/3 220/8/6
f 219/11/7 218/12/8 217/9/3
f 216/13/9 215/12/8 214/11/10
f 213/12/8 212/13/11 211/14/12
f 210/15/13 209/11/5 208/16/14
f 207/15/13 206/13/15 205/11/5
f 204/17/16 203/18/17 202/19/18
f 201/17/16 200/16/19 199/18/20
f 198/20/21 197/19/18 196/21/22
f 195/20/21 194/17/16 193/19/23
f 192/19/18 191/22/24 190/23/25
f 189/19/18 188/18/17 187/22/24
f 186/21/22 185/23/26 184/24/27
f 183/21/22 3/19/18 182/23/26
f 181/23/25 180/25/28 179/26/29
f 178/23/25 177/22/30 176/25/31
f 175/24/27 174/26/29 173/27/32
f 172/24/27 4/23/33 171/26/29
f 170/28/34 169/29/35 168/30/36
f 167/28/29 166/31/28 165/29/35
f 164/32/37 163/30/38 162/33/39
f 161/32/37 13/28/29 160/30/38
f 159/30/38 158/34/40 157/35/41
f 156/30/36 155/29/35 154/34/40
f 153/33/42 152/35/41 151/36/43
f 150/33/44 14/30/36 149/35/41
f 148/35/41 147/15/13 146/37/45
f 145/35/41 144/34/46 143/15/47
f 142/36/48 141/37/45 140/38/49
f 139/36/48 16/35/41 138/37/45
f 137/37/45 136/16/19 135/17/16
f 134/37/45 133/15/13 132/16/14
f 131/38/50 130/17/16 129/20/51
f 128/38/50 36/37/45 25/17/16
f 127/39/52 126/20/51 125/40/53
f 124/39/52 123/38/50 122/20/51
f 121/41/54 120/36/55 119/42/56
f 118/41/54 117/33/42 116/36/55
f 115/43/57 114/27/58 113/44/59
f 112/43/60 111/24/61 110/27/58
f 109/40/62 108/21/22 107/45/63
f 106/40/53 40/20/21 105/21/22
f 104/42/56 103/38/49 102/39/64
f 101/42/56 41/36/48 42/38/50
f 100/46/65 99/33/66 98/41/67
f 97/46/59 37/32/68 38/33/66
f 96/45/63 95/24/27 94/43/69
f 93/45/63 33/21/22 34/24/27
f 92/29/35 91/14/12 90/34/46
f 89/29/70 88/12/8 87/14/12
f 86/22/71 85/9/3 84/25/72
f 83/22/73 82/10/74 81/9/75
f 80/16/19 79/8/6 78/18/20
f 29/16/19 30/11/5 77/8/6
f 76/31/76 75/12/8 28/29/35
f 31/31/28 26/9/75 27/12/8
f 74/18/17 73/10/77 24/22/24
f 21/18/17 22/8/6 23/10/4
f 72/34/78 71/13/9 20/15/13
f 17/34/78 18/14/12 19/13/9
f 70/47/79 69/48/80 68/49/81
f 67/47/79 66/50/53 65/48/63
f 64/51/82 63/52/64 62/53/83
f 61/51/82 60/54/56 59/52/64
f 58/55/84 57/56/54 56/57/85
f 55/55/86 54/58/59 53/56/67
f 52/49/87 51/59/57 50/60/88
f 2/49/89 32/48/63 49/59/60
f 48/53/90 47/50/62 12/47/91
f 9/53/90 10/52/64 11/50/53
f 46/57/85 45/54/56 8/51/82
f 5/57/92 6/56/67 7/54/56
f 44/60/93 43/61/59 15/62/84
f 1/60/94 35/59/60 39/61/59
