# Blender 5.0.0
# www.blender.org
mtllib Circle_005_Circle_003_Dupli_5_decorations_0.mtl
o Circle.005|Circle.003|Dupli|5_decorations_0
v -4.367251 1.742279 0.760361
v -4.366682 1.741000 0.760206
v -4.359913 1.744001 0.757600
v -4.360726 1.745826 0.757821
v -4.368495 1.742612 0.758174
v -4.363968 1.744798 0.756030
v -4.363722 1.743679 0.755380
v -4.368232 1.741416 0.757478
v -4.367468 1.740308 0.757894
v -4.363008 1.742644 0.755769
v -4.362363 1.742471 0.756904
v -4.366778 1.740123 0.759108
v -4.361877 1.746849 0.756530
v -4.362500 1.746301 0.754700
v -4.368058 1.742996 0.759456
v -4.362125 1.744594 0.753708
v -4.360757 1.745227 0.753515
v -4.359683 1.745681 0.753714
v -4.359104 1.744842 0.754030
v -4.359870 1.743941 0.753998
v -4.358957 1.744745 0.756682
v -4.358509 1.745367 0.755781
v -4.358940 1.746336 0.755898
v -4.359619 1.746229 0.756861
v -4.360051 1.742750 0.756034
v -4.359551 1.746879 0.755213
v -4.359882 1.746588 0.754241
v -4.361062 1.746616 0.754322
v -4.359069 1.743726 0.755407
v -4.358582 1.744702 0.754949
v -4.360555 1.747062 0.755811
v -4.362273 1.743291 0.757930
v -4.361294 1.743492 0.757955
v -4.361998 1.745071 0.758146
v -4.362806 1.744486 0.758075
v -4.361035 1.743014 0.754302
v -4.362994 1.745956 0.757029
v -4.363533 1.745482 0.755445
v -4.363560 1.745157 0.757229
v -4.361413 1.742409 0.756599
v -4.363208 1.744005 0.754587
v -4.362265 1.742637 0.755100
v -4.363560 1.745157 0.757229
v -4.367251 1.742279 0.760361
v -4.363722 1.743679 0.755380
v -4.368495 1.742612 0.758174
v -4.362363 1.742471 0.756904
v -4.367468 1.740308 0.757894
v -4.362806 1.744486 0.758075
v -4.367251 1.742279 0.760361
v -4.362806 1.744486 0.758075
v -4.366682 1.741000 0.760206
v -4.363968 1.744798 0.756030
v -4.363560 1.745157 0.757229
v -4.368058 1.742996 0.759456
v -4.368495 1.742612 0.758174
v -4.363968 1.744798 0.756030
v -4.368058 1.742996 0.759456
v -4.363008 1.742644 0.755769
v -4.363722 1.743679 0.755380
v -4.368232 1.741416 0.757478
v -4.367468 1.740308 0.757894
v -4.363008 1.742644 0.755769
v -4.368232 1.741416 0.757478
v -4.362273 1.743291 0.757930
v -4.362363 1.742471 0.756904
v -4.366778 1.740123 0.759108
v -4.366682 1.741000 0.760206
v -4.362273 1.743291 0.757930
v -4.366778 1.740123 0.759108
v -4.359104 1.744842 0.754030
v -4.360757 1.745227 0.753515
v -4.358940 1.746336 0.755898
v -4.358957 1.744745 0.756682
v -4.359882 1.746588 0.754241
v -4.360555 1.747062 0.755811
v -4.358509 1.745367 0.755781
v -4.358957 1.744745 0.756682
v -4.358509 1.745367 0.755781
v -4.359069 1.743726 0.755407
v -4.359551 1.746879 0.755213
v -4.358940 1.746336 0.755898
v -4.359619 1.746229 0.756861
v -4.360555 1.747062 0.755811
v -4.359551 1.746879 0.755213
v -4.359619 1.746229 0.756861
v -4.359683 1.745681 0.753714
v -4.359882 1.746588 0.754241
v -4.361062 1.746616 0.754322
v -4.360757 1.745227 0.753515
v -4.359683 1.745681 0.753714
v -4.361062 1.746616 0.754322
v -4.362273 1.743291 0.757930
v -4.362806 1.744486 0.758075
v -4.361998 1.745071 0.758146
v -4.362273 1.743291 0.757930
v -4.363560 1.745157 0.757229
v -4.363968 1.744798 0.756030
v -4.363533 1.745482 0.755445
v -4.363560 1.745157 0.757229
v -4.363722 1.743679 0.755380
v -4.363008 1.742644 0.755769
v -4.362265 1.742637 0.755100
v -4.363722 1.743679 0.755380
v -4.361294 1.743492 0.757955
v -4.362363 1.742471 0.756904
v -4.362273 1.743291 0.757930
v -4.361294 1.743492 0.757955
v -4.362363 1.742471 0.756904
v -4.362994 1.745956 0.757029
v -4.361998 1.745071 0.758146
v -4.362806 1.744486 0.758075
v -4.363560 1.745157 0.757229
v -4.362994 1.745956 0.757029
v -4.362806 1.744486 0.758075
v -4.363208 1.744005 0.754587
v -4.363533 1.745482 0.755445
v -4.363968 1.744798 0.756030
v -4.363722 1.743679 0.755380
v -4.363208 1.744005 0.754587
v -4.363968 1.744798 0.756030
v -4.361413 1.742409 0.756599
v -4.362265 1.742637 0.755100
v -4.363008 1.742644 0.755769
v -4.362363 1.742471 0.756904
v -4.361413 1.742409 0.756599
v -4.363008 1.742644 0.755769
v -4.362265 1.742637 0.755100
v -4.361413 1.742409 0.756599
v -4.360051 1.742750 0.756034
v -4.362265 1.742637 0.755100
v -4.359069 1.743726 0.755407
v -4.359870 1.743941 0.753998
v -4.361035 1.743014 0.754302
v -4.360051 1.742750 0.756034
v -4.359069 1.743726 0.755407
v -4.361035 1.743014 0.754302
v -4.361035 1.743014 0.754302
v -4.363208 1.744005 0.754587
v -4.362265 1.742637 0.755100
v -4.361035 1.743014 0.754302
v -4.363208 1.744005 0.754587
v -4.359870 1.743941 0.753998
v -4.360757 1.745227 0.753515
v -4.362125 1.744594 0.753708
v -4.361035 1.743014 0.754302
v -4.359870 1.743941 0.753998
v -4.362125 1.744594 0.753708
v -4.362125 1.744594 0.753708
v -4.363533 1.745482 0.755445
v -4.363208 1.744005 0.754587
v -4.362125 1.744594 0.753708
v -4.363533 1.745482 0.755445
v -4.360757 1.745227 0.753515
v -4.361062 1.746616 0.754322
v -4.362500 1.746301 0.754700
v -4.362125 1.744594 0.753708
v -4.360757 1.745227 0.753515
v -4.362500 1.746301 0.754700
v -4.362500 1.746301 0.754700
v -4.362994 1.745956 0.757029
v -4.363533 1.745482 0.755445
v -4.362500 1.746301 0.754700
v -4.362994 1.745956 0.757029
v -4.361062 1.746616 0.754322
v -4.360555 1.747062 0.755811
v -4.361877 1.746849 0.756530
v -4.362500 1.746301 0.754700
v -4.361062 1.746616 0.754322
v -4.361877 1.746849 0.756530
v -4.361877 1.746849 0.756530
v -4.361998 1.745071 0.758146
v -4.362994 1.745956 0.757029
v -4.361877 1.746849 0.756530
v -4.361998 1.745071 0.758146
v -4.360555 1.747062 0.755811
v -4.359619 1.746229 0.756861
v -4.360726 1.745826 0.757821
v -4.361877 1.746849 0.756530
v -4.360555 1.747062 0.755811
v -4.360726 1.745826 0.757821
v -4.360726 1.745826 0.757821
v -4.361294 1.743492 0.757955
v -4.361998 1.745071 0.758146
v -4.360726 1.745826 0.757821
v -4.361294 1.743492 0.757955
v -4.359619 1.746229 0.756861
v -4.358957 1.744745 0.756682
v -4.359913 1.744001 0.757600
v -4.360726 1.745826 0.757821
v -4.359619 1.746229 0.756861
v -4.359913 1.744001 0.757600
v -4.359913 1.744001 0.757600
v -4.360051 1.742750 0.756034
v -4.361413 1.742409 0.756599
v -4.361294 1.743492 0.757955
v -4.359913 1.744001 0.757600
v -4.361413 1.742409 0.756599
v -4.358957 1.744745 0.756682
v -4.359069 1.743726 0.755407
v -4.360051 1.742750 0.756034
v -4.359913 1.744001 0.757600
v -4.358957 1.744745 0.756682
v -4.360051 1.742750 0.756034
v -4.358582 1.744702 0.754949
v -4.359104 1.744842 0.754030
v -4.359870 1.743941 0.753998
v -4.359069 1.743726 0.755407
v -4.358582 1.744702 0.754949
v -4.359870 1.743941 0.753998
v -4.359683 1.745681 0.753714
v -4.359104 1.744842 0.754030
v -4.359882 1.746588 0.754241
v -4.358582 1.744702 0.754949
v -4.359882 1.746588 0.754241
v -4.359104 1.744842 0.754030
v -4.359551 1.746879 0.755213
v -4.359882 1.746588 0.754241
v -4.358582 1.744702 0.754949
v -4.358509 1.745367 0.755781
v -4.359551 1.746879 0.755213
v -4.358582 1.744702 0.754949
v -4.358940 1.746336 0.755898
v -4.359551 1.746879 0.755213
v -4.358509 1.745367 0.755781
v -4.368232 1.741416 0.757478
v -4.368495 1.742612 0.758174
v -4.367468 1.740308 0.757894
v -4.366778 1.740123 0.759108
v -4.367468 1.740308 0.757894
v -4.368495 1.742612 0.758174
v -4.368058 1.742996 0.759456
v -4.366778 1.740123 0.759108
v -4.368495 1.742612 0.758174
v -4.366682 1.741000 0.760206
v -4.366778 1.740123 0.759108
v -4.368058 1.742996 0.759456
v -4.367251 1.742279 0.760361
v -4.366682 1.741000 0.760206
v -4.368058 1.742996 0.759456
vn -0.8174 -0.4129 0.4017
vn 0.9824 0.1558 0.1033
vn 0.5041 0.8492 -0.1572
vn 0.7844 0.6000 0.1571
vn 0.9489 -0.1490 -0.2781
vn 0.9490 -0.1490 -0.2780
vn 0.3525 0.7157 -0.6029
vn 0.7093 -0.0848 -0.6998
vn 0.4438 0.3000 -0.8444
vn 0.3890 -0.5208 -0.7599
vn 0.9489 -0.1489 -0.2781
vn 0.7770 -0.6247 -0.0772
vn 0.7093 -0.0847 -0.6998
vn 0.5162 -0.8527 0.0799
vn 0.8312 -0.1314 0.5403
vn 0.5755 -0.3126 0.7557
vn 0.5163 -0.8527 0.0798
vn 0.7770 -0.6247 -0.0771
vn 0.8312 -0.1313 0.5403
vn 0.1814 -0.9573 0.2251
vn 0.2373 -0.4485 0.8617
vn 0.1814 -0.9573 0.2250
vn 0.5756 -0.3126 0.7556
vn 0.5107 0.5879 0.6274
vn 0.2247 0.4746 0.8510
vn 0.2372 -0.4485 0.8617
vn -0.0932 0.2931 0.9515
vn 0.0568 0.9913 0.1186
vn -0.2721 0.9162 0.2941
vn 0.5106 0.5879 0.6274
vn 0.0569 0.9913 0.1186
vn -0.0933 0.2931 0.9515
vn -0.5612 0.7091 0.4269
vn -0.1886 0.7752 -0.6029
vn -0.5407 0.6797 -0.4957
vn -0.1885 0.7752 -0.6029
vn -0.5612 0.7091 0.4268
vn -0.8142 0.4863 -0.3172
vn -0.5406 0.6797 -0.4957
vn -0.0407 0.1023 -0.9939
vn -0.3789 -0.0570 -0.9237
vn -0.8142 0.4862 -0.3172
vn -0.6618 -0.2077 -0.7204
vn 0.0915 -0.7389 -0.6675
vn -0.0407 0.1022 -0.9939
vn 0.3890 -0.5207 -0.7599
vn -0.6618 -0.2077 -0.7203
vn -0.2187 -0.8501 -0.4791
vn 0.0915 -0.7390 -0.6675
vn 0.7770 -0.6248 -0.0771
vn 0.5163 -0.8527 0.0799
vn 0.0916 -0.7389 -0.6676
vn -0.2187 -0.8501 -0.4790
vn 0.1815 -0.9573 0.2250
vn 0.0915 -0.7389 -0.6676
vn -0.1549 -0.8367 -0.5252
vn 0.2553 -0.9466 0.1967
vn -0.7656 0.5336 -0.3593
vn -0.6093 -0.1780 -0.7727
vn -0.8143 0.4862 -0.3171
vn -0.0263 0.3356 0.9416
vn -0.5062 0.7621 0.4037
vn -0.0263 0.3355 0.9417
vn 0.2554 -0.9466 0.1967
vn 0.3126 -0.4250 0.8495
vn -0.6093 -0.1779 -0.7727
vn -0.5061 0.7622 0.4037
vn -0.8142 0.4863 -0.3171
vn 0.3126 -0.4249 0.8495
vn -0.0263 0.3356 0.9417
vn -0.1886 0.7752 -0.6030
vn -0.1886 0.7751 -0.6030
vn 0.3526 0.7157 -0.6029
vn 0.9824 0.1558 0.1032
vn 0.8311 -0.1314 0.5403
vn 0.5014 -0.8608 0.0873
vn 0.5607 -0.3204 0.7635
vn -0.3942 -0.0647 -0.9168
vn 0.0764 -0.7469 -0.6605
vn -0.3941 -0.0647 -0.9168
vn -0.2874 0.9091 0.3016
vn -0.5561 0.6724 -0.4885
vn -0.2873 0.9091 0.3016
vn 0.2097 0.4672 0.8589
vn 0.0764 -0.7470 -0.6605
vn 0.0765 -0.7469 -0.6605
vn -0.3942 -0.0646 -0.9168
vn -0.5560 0.6724 -0.4886
vn -0.2873 0.9091 0.3017
vn -0.5061 0.7621 0.4037
vt 0.530319 0.611839
vt 0.522446 0.618118
vt 0.524872 0.613083
vt 0.524872 0.623154
vt 0.534683 0.615326
vt 0.530319 0.624397
vt 0.534683 0.620918
vt 0.537079 0.671494
vt 0.541916 0.669548
vt 0.539566 0.672157
vt 0.536179 0.669609
vt 0.539856 0.666756
vt 0.536224 0.667854
vt 0.537567 0.666748
vt 0.534592 0.666855
vt 0.534012 0.669838
vt 0.530777 0.669685
vt 0.535187 0.673050
vt 0.531769 0.674789
vt 0.525803 0.669067
vt 0.526108 0.676537
vt 0.539017 0.675606
vt 0.536011 0.680244
vt 0.529755 0.684982
vt 0.547180 0.674767
vt 0.546982 0.686485
vt 0.537415 0.696274
vt 0.547180 0.658051
vt 0.540527 0.663902
vt 0.539825 0.659698
vt 0.546280 0.665543
vt 0.543762 0.651657
vt 0.537613 0.655174
vt 0.536758 0.664742
vt 0.535126 0.661980
vt 0.532364 0.658463
vt 0.532074 0.665283
vt 0.528198 0.662933
vt 0.523743 0.660286
vt 0.519989 0.668175
vt 0.535217 0.651588
vt 0.529327 0.654999
vt 0.522873 0.688484
vt 0.528320 0.699394
vt 0.519577 0.678001
vt 0.540466 0.648293
vt 0.604446 0.642853
vt 0.626221 0.647896
vt 0.604553 0.648445
vt 0.626144 0.642670
vt 0.604553 0.631676
vt 0.626144 0.637444
vt 0.604446 0.637268
vt 0.626221 0.632225
vt 0.605011 0.620506
vt 0.626404 0.626999
vt 0.604736 0.626091
vt 0.626663 0.621780
vt 0.626404 0.653114
vt 0.604736 0.654030
vt 0.626663 0.658333
vt 0.605011 0.659607
s 0
usemtl decorations
f 240/1/1 239/2/1 238/3/1
f 237/1/1 236/4/1 235/2/1
f 234/5/1 233/4/1 232/1/1
f 231/5/1 230/6/1 229/4/1
f 228/6/1 227/5/1 226/7/1
s 1
f 225/8/2 224/9/3 223/10/4
f 222/11/5 221/9/3 220/8/2
f 219/11/6 218/12/7 217/9/3
f 216/13/8 215/12/7 214/11/5
f 213/12/7 212/13/8 211/14/9
f 210/15/10 209/11/11 208/16/12
f 207/15/10 206/13/13 205/11/11
f 204/17/14 203/18/15 202/19/16
f 201/17/17 200/16/18 199/18/19
f 198/20/20 197/19/16 196/21/21
f 195/20/22 194/17/17 193/19/23
f 192/19/16 191/22/24 190/23/25
f 189/19/16 188/18/19 187/22/24
f 186/21/26 185/23/25 184/24/27
f 183/21/21 3/19/16 182/23/25
f 181/23/25 180/25/28 179/26/29
f 178/23/25 177/22/30 176/25/31
f 175/24/32 174/26/29 173/27/33
f 172/24/32 4/23/25 171/26/29
f 170/28/29 169/29/34 168/30/35
f 167/28/29 166/31/28 165/29/36
f 164/32/37 163/30/35 162/33/38
f 161/32/37 13/28/29 160/30/39
f 159/30/35 158/34/40 157/35/41
f 156/30/35 155/29/34 154/34/40
f 153/33/42 152/35/41 151/36/43
f 150/33/42 14/30/35 149/35/41
f 148/35/41 147/15/10 146/37/44
f 145/35/41 144/34/45 143/15/46
f 142/36/47 141/37/44 140/38/48
f 139/36/47 16/35/41 138/37/44
f 137/37/49 136/16/50 135/17/51
f 134/37/52 133/15/10 132/16/12
f 131/38/53 130/17/51 129/20/54
f 128/38/53 36/37/55 25/17/51
f 127/39/56 126/20/54 125/40/57
f 124/39/56 123/38/53 122/20/54
f 121/41/58 120/36/43 119/42/59
f 118/41/58 117/33/60 116/36/43
f 115/43/61 114/27/33 113/44/62
f 112/43/63 111/24/27 110/27/33
f 109/40/64 108/21/21 107/45/65
f 106/40/64 40/20/22 105/21/21
f 104/42/66 103/38/48 102/39/56
f 101/42/66 41/36/43 42/38/48
f 100/46/67 99/33/68 98/41/58
f 97/46/62 37/32/37 38/33/68
f 96/45/69 95/24/27 94/43/70
f 93/45/69 33/21/21 34/24/27
f 92/29/71 91/14/9 90/34/40
f 89/29/72 88/12/73 87/14/9
f 86/22/24 85/9/3 84/25/31
f 83/22/24 82/10/4 81/9/3
f 80/16/18 79/8/2 78/18/19
f 29/16/18 30/11/5 77/8/74
f 76/31/31 75/12/7 28/29/36
f 31/31/28 26/9/3 27/12/7
f 74/18/75 73/10/4 24/22/24
f 21/18/75 22/8/74 23/10/4
f 72/34/45 71/13/8 20/15/10
f 17/34/45 18/14/9 19/13/13
f 70/47/76 69/48/69 68/49/77
f 67/47/76 66/50/57 65/48/69
f 64/51/78 63/52/56 62/53/79
f 61/51/80 60/54/59 59/52/56
f 58/55/81 57/56/58 56/57/82
f 55/55/83 54/58/62 53/56/58
f 52/49/77 51/59/70 50/60/84
f 2/49/77 32/48/69 49/59/63
f 48/53/85 47/50/64 12/47/76
f 9/53/86 10/52/56 11/50/57
f 46/57/82 45/54/59 8/51/87
f 5/57/88 6/56/58 7/54/59
f 44/60/84 43/61/67 15/62/89
f 1/60/84 35/59/63 39/61/90
