# Blender 5.0.0
# www.blender.org
mtllib Circle_002_Circle_Dupli_83_decorations_0.mtl
o Circle.002|Circle|Dupli|83_decorations_0
v -4.556971 1.803846 0.483433
v -4.557700 1.803158 0.482444
v -4.561879 1.809555 0.480650
v -4.560839 1.810536 0.482061
v -4.558267 1.803326 0.485553
v -4.561359 1.807739 0.484646
v -4.562339 1.806977 0.484210
v -4.559315 1.802510 0.485086
v -4.559580 1.802087 0.483769
v -4.562587 1.806581 0.482979
v -4.561914 1.806851 0.481879
v -4.558861 1.802376 0.482593
v -4.561199 1.810643 0.484035
v -4.562688 1.809794 0.485085
v -4.557223 1.803921 0.484817
v -4.564184 1.808630 0.484420
v -4.564732 1.809951 0.483905
v -4.564870 1.810961 0.483305
v -4.565070 1.810641 0.482307
v -4.565039 1.809460 0.482376
v -4.562856 1.810704 0.480837
v -4.563645 1.811453 0.481303
v -4.563093 1.811973 0.482053
v -4.562010 1.811502 0.481986
v -4.563536 1.808439 0.480863
v -4.563284 1.812030 0.483101
v -4.564075 1.811579 0.483658
v -4.563514 1.810899 0.484447
v -4.564204 1.809795 0.481011
v -4.564525 1.810859 0.481416
v -4.562303 1.811589 0.483593
v -4.560829 1.807583 0.481740
v -4.561151 1.808329 0.481157
v -4.560251 1.809178 0.482380
v -4.560148 1.808226 0.482665
v -4.564562 1.808027 0.482541
v -4.560562 1.809270 0.484088
v -4.561851 1.808536 0.484996
v -4.560383 1.808295 0.483958
v -4.562584 1.807362 0.481342
v -4.563146 1.807528 0.484421
v -4.563473 1.807006 0.482794
v -4.560383 1.808295 0.483958
v -4.556971 1.803846 0.483433
v -4.562339 1.806977 0.484210
v -4.558267 1.803326 0.485553
v -4.561914 1.806851 0.481879
v -4.559580 1.802087 0.483769
v -4.560148 1.808226 0.482665
v -4.556971 1.803846 0.483433
v -4.560148 1.808226 0.482665
v -4.557700 1.803158 0.482444
v -4.561359 1.807739 0.484646
v -4.560383 1.808295 0.483958
v -4.557223 1.803921 0.484817
v -4.558267 1.803326 0.485553
v -4.561359 1.807739 0.484646
v -4.557223 1.803921 0.484817
v -4.562587 1.806581 0.482979
v -4.562339 1.806977 0.484210
v -4.559315 1.802510 0.485086
v -4.559580 1.802087 0.483769
v -4.562587 1.806581 0.482979
v -4.559315 1.802510 0.485086
v -4.560829 1.807583 0.481740
v -4.561914 1.806851 0.481879
v -4.558861 1.802376 0.482593
v -4.557700 1.803158 0.482444
v -4.560829 1.807583 0.481740
v -4.558861 1.802376 0.482593
v -4.565070 1.810641 0.482307
v -4.564732 1.809951 0.483905
v -4.563093 1.811973 0.482053
v -4.562856 1.810704 0.480837
v -4.564075 1.811579 0.483658
v -4.562303 1.811589 0.483593
v -4.563645 1.811453 0.481303
v -4.562856 1.810704 0.480837
v -4.563645 1.811453 0.481303
v -4.564204 1.809795 0.481011
v -4.563284 1.812030 0.483101
v -4.563093 1.811973 0.482053
v -4.562010 1.811502 0.481986
v -4.562303 1.811589 0.483593
v -4.563284 1.812030 0.483101
v -4.562010 1.811502 0.481986
v -4.564870 1.810961 0.483305
v -4.564075 1.811579 0.483658
v -4.563514 1.810899 0.484447
v -4.564732 1.809951 0.483905
v -4.564870 1.810961 0.483305
v -4.563514 1.810899 0.484447
v -4.560829 1.807583 0.481740
v -4.560148 1.808226 0.482665
v -4.560251 1.809178 0.482380
v -4.560829 1.807583 0.481740
v -4.560383 1.808295 0.483958
v -4.561359 1.807739 0.484646
v -4.561851 1.808536 0.484996
v -4.560383 1.808295 0.483958
v -4.562339 1.806977 0.484210
v -4.562587 1.806581 0.482979
v -4.563473 1.807006 0.482794
v -4.562339 1.806977 0.484210
v -4.561151 1.808329 0.481157
v -4.561914 1.806851 0.481879
v -4.560829 1.807583 0.481740
v -4.561151 1.808329 0.481157
v -4.561914 1.806851 0.481879
v -4.560562 1.809270 0.484088
v -4.560251 1.809178 0.482380
v -4.560148 1.808226 0.482665
v -4.560383 1.808295 0.483958
v -4.560562 1.809270 0.484088
v -4.560148 1.808226 0.482665
v -4.563146 1.807528 0.484421
v -4.561851 1.808536 0.484996
v -4.561359 1.807739 0.484646
v -4.562339 1.806977 0.484210
v -4.563146 1.807528 0.484421
v -4.561359 1.807739 0.484646
v -4.562584 1.807362 0.481342
v -4.563473 1.807006 0.482794
v -4.562587 1.806581 0.482979
v -4.561914 1.806851 0.481879
v -4.562584 1.807362 0.481342
v -4.562587 1.806581 0.482979
v -4.563473 1.807006 0.482794
v -4.562584 1.807362 0.481342
v -4.563536 1.808439 0.480863
v -4.563473 1.807006 0.482794
v -4.564204 1.809795 0.481011
v -4.565039 1.809460 0.482376
v -4.564562 1.808027 0.482541
v -4.563536 1.808439 0.480863
v -4.564204 1.809795 0.481011
v -4.564562 1.808027 0.482541
v -4.564562 1.808027 0.482541
v -4.563146 1.807528 0.484421
v -4.563473 1.807006 0.482794
v -4.564562 1.808027 0.482541
v -4.563146 1.807528 0.484421
v -4.565039 1.809460 0.482376
v -4.564732 1.809951 0.483905
v -4.564184 1.808630 0.484420
v -4.564562 1.808027 0.482541
v -4.565039 1.809460 0.482376
v -4.564184 1.808630 0.484420
v -4.564184 1.808630 0.484420
v -4.561851 1.808536 0.484996
v -4.563146 1.807528 0.484421
v -4.564184 1.808630 0.484420
v -4.561851 1.808536 0.484996
v -4.564732 1.809951 0.483905
v -4.563514 1.810899 0.484447
v -4.562688 1.809794 0.485085
v -4.564184 1.808630 0.484420
v -4.564732 1.809951 0.483905
v -4.562688 1.809794 0.485085
v -4.562688 1.809794 0.485085
v -4.560562 1.809270 0.484088
v -4.561851 1.808536 0.484996
v -4.562688 1.809794 0.485085
v -4.560562 1.809270 0.484088
v -4.563514 1.810899 0.484447
v -4.562303 1.811589 0.483593
v -4.561199 1.810643 0.484035
v -4.562688 1.809794 0.485085
v -4.563514 1.810899 0.484447
v -4.561199 1.810643 0.484035
v -4.561199 1.810643 0.484035
v -4.560251 1.809178 0.482380
v -4.560562 1.809270 0.484088
v -4.561199 1.810643 0.484035
v -4.560251 1.809178 0.482380
v -4.562303 1.811589 0.483593
v -4.562010 1.811502 0.481986
v -4.560839 1.810536 0.482061
v -4.561199 1.810643 0.484035
v -4.562303 1.811589 0.483593
v -4.560839 1.810536 0.482061
v -4.560839 1.810536 0.482061
v -4.561151 1.808329 0.481157
v -4.560251 1.809178 0.482380
v -4.560839 1.810536 0.482061
v -4.561151 1.808329 0.481157
v -4.562010 1.811502 0.481986
v -4.562856 1.810704 0.480837
v -4.561879 1.809555 0.480650
v -4.560839 1.810536 0.482061
v -4.562010 1.811502 0.481986
v -4.561879 1.809555 0.480650
v -4.561879 1.809555 0.480650
v -4.563536 1.808439 0.480863
v -4.562584 1.807362 0.481342
v -4.561151 1.808329 0.481157
v -4.561879 1.809555 0.480650
v -4.562584 1.807362 0.481342
v -4.562856 1.810704 0.480837
v -4.564204 1.809795 0.481011
v -4.563536 1.808439 0.480863
v -4.561879 1.809555 0.480650
v -4.562856 1.810704 0.480837
v -4.563536 1.808439 0.480863
v -4.564525 1.810859 0.481416
v -4.565070 1.810641 0.482307
v -4.565039 1.809460 0.482376
v -4.564204 1.809795 0.481011
v -4.564525 1.810859 0.481416
v -4.565039 1.809460 0.482376
v -4.564870 1.810961 0.483305
v -4.565070 1.810641 0.482307
v -4.564075 1.811579 0.483658
v -4.564525 1.810859 0.481416
v -4.564075 1.811579 0.483658
v -4.565070 1.810641 0.482307
v -4.563284 1.812030 0.483101
v -4.564075 1.811579 0.483658
v -4.564525 1.810859 0.481416
v -4.563645 1.811453 0.481303
v -4.563284 1.812030 0.483101
v -4.564525 1.810859 0.481416
v -4.563093 1.811973 0.482053
v -4.563284 1.812030 0.483101
v -4.563645 1.811453 0.481303
v -4.559315 1.802510 0.485086
v -4.558267 1.803326 0.485553
v -4.559580 1.802087 0.483769
v -4.558861 1.802376 0.482593
v -4.559580 1.802087 0.483769
v -4.558267 1.803326 0.485553
v -4.557223 1.803921 0.484817
v -4.558861 1.802376 0.482593
v -4.558267 1.803326 0.485553
v -4.557700 1.803158 0.482444
v -4.558861 1.802376 0.482593
v -4.557223 1.803921 0.484817
v -4.556971 1.803846 0.483433
v -4.557700 1.803158 0.482444
v -4.557223 1.803921 0.484817
vn 0.5659 -0.8113 0.1469
vn -0.2678 0.7140 -0.6469
vn -0.1023 0.9788 0.1777
vn -0.0147 0.9528 -0.3031
vn -0.6713 0.4419 -0.5950
vn -0.1023 0.9788 0.1776
vn -0.2679 0.7139 -0.6469
vn -0.6713 0.4420 -0.5950
vn -0.4649 0.7722 0.4332
vn -0.9211 0.3417 -0.1864
vn -0.4648 0.7722 0.4332
vn -0.4649 0.7721 0.4332
vn -0.8293 0.4886 0.2712
vn -0.9657 -0.2004 -0.1653
vn -0.5612 -0.0381 -0.8268
vn -0.9657 -0.2005 -0.1653
vn -0.3828 -0.3735 -0.8450
vn 0.0920 0.4022 -0.9109
vn 0.3320 0.1085 -0.9370
vn -0.3829 -0.3735 -0.8449
vn 0.0919 0.4023 -0.9109
vn -0.1496 -0.6544 -0.7412
vn 0.3321 0.1086 -0.9370
vn 0.5239 -0.2003 -0.8279
vn 0.3320 0.1086 -0.9370
vn 0.5019 0.7891 -0.3542
vn 0.7808 0.5319 -0.3277
vn 0.0920 0.4023 -0.9109
vn 0.9466 0.1985 -0.2539
vn 0.3600 0.8310 0.4240
vn 0.6255 0.5778 0.5243
vn 0.5020 0.7890 -0.3542
vn 0.9467 0.1985 -0.2538
vn 0.8003 0.2418 0.5487
vn 0.7808 0.5319 -0.3276
vn -0.2269 0.4965 0.8378
vn -0.0169 0.2118 0.9772
vn 0.3600 0.8310 0.4241
vn -0.2269 0.4966 0.8378
vn 0.8003 0.2417 0.5487
vn -0.0169 0.2117 0.9772
vn 0.1951 -0.1031 0.9754
vn -0.8169 0.0376 0.5756
vn -0.6628 -0.2907 0.6901
vn -0.0170 0.2118 0.9772
vn 0.1951 -0.1032 0.9753
vn -0.4133 -0.5765 0.7049
vn -0.6628 -0.2908 0.6901
vn -0.8256 -0.5512 -0.1208
vn -0.8169 0.0375 0.5756
vn -0.9657 -0.2004 -0.1652
vn -0.5667 -0.8218 -0.0590
vn -0.8256 -0.5512 -0.1209
vn -0.3829 -0.3735 -0.8450
vn -0.8256 -0.5511 -0.1209
vn -0.8256 -0.5511 -0.1208
vn -0.6291 -0.7739 -0.0730
vn -0.2014 -0.6023 -0.7725
vn -0.6290 -0.7739 -0.0730
vn 0.1521 -0.0370 0.9877
vn -0.4133 -0.5764 0.7049
vn -0.4717 -0.5224 0.7103
vn 0.9227 0.2723 -0.2728
vn 0.7727 0.3167 0.5502
vn 0.4892 -0.1367 -0.8614
vn -0.1496 -0.6545 -0.7412
vn -0.4718 -0.5223 0.7103
vn -0.4718 -0.5223 0.7104
vn 0.1951 -0.1031 0.9753
vn 0.7727 0.3167 0.5501
vn 0.4892 -0.1366 -0.8614
vn 0.9228 0.2723 -0.2727
vn -0.2269 0.4965 0.8379
vn -0.0146 0.9528 -0.3031
vn -0.5611 -0.0381 -0.8268
vn -0.2679 0.7140 -0.6469
vn -0.8169 0.0375 0.5755
vn -0.3726 -0.3887 -0.8427
vn 0.3427 0.0936 -0.9348
vn -0.3726 -0.3886 -0.8427
vn -0.6527 -0.3059 0.6931
vn -0.8156 -0.5664 -0.1182
vn -0.4718 -0.5224 0.7103
vn 0.6363 0.5631 0.5273
vn -0.0064 0.1969 0.9804
vn 0.6362 0.5632 0.5273
vn 0.7917 0.5172 -0.3252
vn -0.8156 -0.5665 -0.1182
vn -0.0065 0.1969 0.9804
vn -0.6527 -0.3059 0.6932
vn 0.7917 0.5172 -0.3251
vn 0.6363 0.5632 0.5273
vt 0.543243 0.611839
vt 0.535370 0.618118
vt 0.537796 0.613083
vt 0.537796 0.623154
vt 0.547607 0.615326
vt 0.543243 0.624397
vt 0.547607 0.620918
vt 0.565384 0.671494
vt 0.570206 0.669548
vt 0.567856 0.672157
vt 0.564468 0.669609
vt 0.568146 0.666756
vt 0.564514 0.667854
vt 0.565857 0.666748
vt 0.562897 0.666855
vt 0.562302 0.669838
vt 0.559082 0.669685
vt 0.563492 0.673050
vt 0.560059 0.674789
vt 0.554092 0.669067
vt 0.554398 0.676537
vt 0.567307 0.675606
vt 0.564316 0.680244
vt 0.558044 0.684982
vt 0.575485 0.674767
vt 0.575272 0.686485
vt 0.565720 0.696274
vt 0.575485 0.658051
vt 0.568817 0.663902
vt 0.568115 0.659698
vt 0.574570 0.665543
vt 0.572052 0.651657
vt 0.565903 0.655174
vt 0.565063 0.664742
vt 0.563416 0.661980
vt 0.560669 0.658463
vt 0.560364 0.665283
vt 0.556488 0.662933
vt 0.552032 0.660286
vt 0.548294 0.668175
vt 0.563522 0.651588
vt 0.557617 0.654999
vt 0.551163 0.688484
vt 0.556610 0.699394
vt 0.547867 0.678001
vt 0.568756 0.648293
vt 0.604446 0.682632
vt 0.626221 0.687675
vt 0.604553 0.688225
vt 0.626144 0.682457
vt 0.604553 0.671455
vt 0.626144 0.677231
vt 0.604446 0.677048
vt 0.626221 0.672005
vt 0.605011 0.660294
vt 0.626404 0.666786
vt 0.604736 0.665871
vt 0.626663 0.661568
vt 0.626404 0.692902
vt 0.604736 0.693810
vt 0.626663 0.698120
vt 0.605011 0.699394
s 0
usemtl decorations
f 240/1/1 239/2/1 238/3/1
f 237/1/1 236/4/1 235/2/1
f 234/5/1 233/4/1 232/1/1
f 231/5/1 230/6/1 229/4/1
f 228/6/1 227/5/1 226/7/1
s 1
f 225/8/2 224/9/3 223/10/4
f 222/11/5 221/9/6 220/8/7
f 219/11/8 218/12/9 217/9/3
f 216/13/10 215/12/11 214/11/8
f 213/12/12 212/13/10 211/14/13
f 210/15/14 209/11/8 208/16/15
f 207/15/16 206/13/10 205/11/8
f 204/17/17 203/18/18 202/19/19
f 201/17/20 200/16/15 199/18/21
f 198/20/22 197/19/23 196/21/24
f 195/20/22 194/17/20 193/19/25
f 192/19/19 191/22/26 190/23/27
f 189/19/25 188/18/28 187/22/26
f 186/21/24 185/23/27 184/24/29
f 183/21/24 3/19/23 182/23/27
f 181/23/27 180/25/30 179/26/31
f 178/23/27 177/22/32 176/25/30
f 175/24/33 174/26/31 173/27/34
f 172/24/33 4/23/35 171/26/31
f 170/28/31 169/29/36 168/30/37
f 167/28/31 166/31/38 165/29/39
f 164/32/40 163/30/41 162/33/42
f 161/32/40 13/28/31 160/30/37
f 159/30/37 158/34/43 157/35/44
f 156/30/45 155/29/36 154/34/43
f 153/33/46 152/35/44 151/36/47
f 150/33/46 14/30/45 149/35/44
f 148/35/48 147/15/14 146/37/49
f 145/35/48 144/34/50 143/15/51
f 142/36/47 141/37/49 140/38/52
f 139/36/47 16/35/44 138/37/49
f 137/37/53 136/16/15 135/17/54
f 134/37/55 133/15/14 132/16/15
f 131/38/52 130/17/17 129/20/22
f 128/38/52 36/37/56 25/17/17
f 127/39/57 126/20/22 125/40/58
f 124/39/59 123/38/52 122/20/22
f 121/41/60 120/36/61 119/42/62
f 118/41/60 117/33/46 116/36/61
f 115/43/63 114/27/34 113/44/64
f 112/43/63 111/24/33 110/27/34
f 109/40/58 108/21/24 107/45/65
f 106/40/58 40/20/66 105/21/24
f 104/42/67 103/38/52 102/39/59
f 101/42/68 41/36/47 42/38/52
f 100/46/64 99/33/69 98/41/60
f 97/46/70 37/32/40 38/33/69
f 96/45/71 95/24/29 94/43/72
f 93/45/65 33/21/24 34/24/29
f 92/29/36 91/14/13 90/34/43
f 89/29/73 88/12/11 87/14/13
f 86/22/26 85/9/6 84/25/30
f 83/22/26 82/10/74 81/9/6
f 80/16/75 79/8/76 78/18/21
f 29/16/75 30/11/5 77/8/76
f 76/31/30 75/12/9 28/29/39
f 31/31/38 26/9/6 27/12/9
f 74/18/18 73/10/74 24/22/26
f 21/18/18 22/8/76 23/10/4
f 72/34/77 71/13/10 20/15/14
f 17/34/77 18/14/13 19/13/10
f 70/47/78 69/48/71 68/49/79
f 67/47/80 66/50/58 65/48/65
f 64/51/81 63/52/57 62/53/82
f 61/51/81 60/54/83 59/52/59
f 58/55/84 57/56/60 56/57/85
f 55/55/86 54/58/70 53/56/60
f 52/49/79 51/59/63 50/60/87
f 2/49/79 32/48/65 49/59/63
f 48/53/88 47/50/58 12/47/78
f 9/53/82 10/52/57 11/50/58
f 46/57/89 45/54/67 8/51/90
f 5/57/89 6/56/60 7/54/83
f 44/60/91 43/61/70 15/62/92
f 1/60/91 35/59/63 39/61/70
