# Blender 5.0.0
# www.blender.org
mtllib Circle_002_Circle_001_Dupli_66_decorations_0.mtl
o Circle.002|Circle.001|Dupli|66_decorations_0
v -4.488272 0.678234 0.838128
v -4.488094 0.677277 0.837111
v -4.480453 0.678951 0.836457
v -4.480708 0.680317 0.837908
v -4.489054 0.680280 0.836847
v -4.483838 0.681785 0.836229
v -4.483851 0.681363 0.834982
v -4.489069 0.679828 0.835514
v -4.488733 0.678555 0.835014
v -4.483538 0.680172 0.834516
v -4.483132 0.679111 0.835180
v -4.488299 0.677419 0.835725
v -4.481317 0.682224 0.837740
v -4.481823 0.683236 0.836080
v -4.488699 0.679571 0.838011
v -4.481845 0.682591 0.834177
v -4.480338 0.682729 0.834311
v -4.479214 0.682579 0.834649
v -4.478960 0.681614 0.834271
v -4.479948 0.681251 0.833731
v -4.479205 0.679767 0.836166
v -4.478475 0.680646 0.835859
v -4.478610 0.681371 0.836630
v -4.479412 0.680879 0.837347
v -4.480746 0.679154 0.834479
v -4.478934 0.682384 0.836541
v -4.479203 0.682922 0.835659
v -4.480320 0.683254 0.835859
v -4.479444 0.679933 0.834557
v -4.478631 0.680754 0.834809
v -4.479908 0.682431 0.837210
v -4.482940 0.678977 0.836476
v -4.481958 0.678795 0.836526
v -4.482178 0.679978 0.837783
v -4.483106 0.679873 0.837427
v -4.481366 0.680774 0.833465
v -4.482706 0.681629 0.837638
v -4.483144 0.682505 0.836201
v -4.483506 0.681122 0.837317
v -4.482212 0.678972 0.834815
v -4.483163 0.681946 0.834554
v -4.482748 0.680374 0.833937
v -4.483506 0.681122 0.837317
v -4.488272 0.678234 0.838128
v -4.483851 0.681363 0.834982
v -4.489054 0.680280 0.836847
v -4.483132 0.679111 0.835180
v -4.488733 0.678555 0.835014
v -4.483106 0.679873 0.837427
v -4.488272 0.678234 0.838128
v -4.483106 0.679873 0.837427
v -4.488094 0.677277 0.837111
v -4.483838 0.681785 0.836229
v -4.483506 0.681122 0.837317
v -4.488699 0.679571 0.838011
v -4.489054 0.680280 0.836847
v -4.483838 0.681785 0.836229
v -4.488699 0.679571 0.838011
v -4.483538 0.680172 0.834516
v -4.483851 0.681363 0.834982
v -4.489069 0.679828 0.835514
v -4.488733 0.678555 0.835014
v -4.483538 0.680172 0.834516
v -4.489069 0.679828 0.835514
v -4.482940 0.678977 0.836476
v -4.483132 0.679111 0.835180
v -4.488299 0.677419 0.835725
v -4.488094 0.677277 0.837111
v -4.482940 0.678977 0.836476
v -4.488299 0.677419 0.835725
v -4.478960 0.681614 0.834271
v -4.480338 0.682729 0.834311
v -4.478610 0.681371 0.836630
v -4.479205 0.679767 0.836166
v -4.479203 0.682922 0.835659
v -4.479908 0.682431 0.837210
v -4.478475 0.680646 0.835859
v -4.479205 0.679767 0.836166
v -4.478475 0.680646 0.835859
v -4.479444 0.679933 0.834557
v -4.478934 0.682384 0.836541
v -4.478610 0.681371 0.836630
v -4.479412 0.680879 0.837347
v -4.479908 0.682431 0.837210
v -4.478934 0.682384 0.836541
v -4.479412 0.680879 0.837347
v -4.479214 0.682579 0.834649
v -4.479203 0.682922 0.835659
v -4.480320 0.683254 0.835859
v -4.480338 0.682729 0.834311
v -4.479214 0.682579 0.834649
v -4.480320 0.683254 0.835859
v -4.482940 0.678977 0.836476
v -4.483106 0.679873 0.837427
v -4.482178 0.679978 0.837783
v -4.482940 0.678977 0.836476
v -4.483506 0.681122 0.837317
v -4.483838 0.681785 0.836229
v -4.483144 0.682505 0.836201
v -4.483506 0.681122 0.837317
v -4.483851 0.681363 0.834982
v -4.483538 0.680172 0.834516
v -4.482748 0.680374 0.833937
v -4.483851 0.681363 0.834982
v -4.481958 0.678795 0.836526
v -4.483132 0.679111 0.835180
v -4.482940 0.678977 0.836476
v -4.481958 0.678795 0.836526
v -4.483132 0.679111 0.835180
v -4.482706 0.681629 0.837638
v -4.482178 0.679978 0.837783
v -4.483106 0.679873 0.837427
v -4.483506 0.681122 0.837317
v -4.482706 0.681629 0.837638
v -4.483106 0.679873 0.837427
v -4.483163 0.681946 0.834554
v -4.483144 0.682505 0.836201
v -4.483838 0.681785 0.836229
v -4.483851 0.681363 0.834982
v -4.483163 0.681946 0.834554
v -4.483838 0.681785 0.836229
v -4.482212 0.678972 0.834815
v -4.482748 0.680374 0.833937
v -4.483538 0.680172 0.834516
v -4.483132 0.679111 0.835180
v -4.482212 0.678972 0.834815
v -4.483538 0.680172 0.834516
v -4.482748 0.680374 0.833937
v -4.482212 0.678972 0.834815
v -4.480746 0.679154 0.834479
v -4.482748 0.680374 0.833937
v -4.479444 0.679933 0.834557
v -4.479948 0.681251 0.833731
v -4.481366 0.680774 0.833465
v -4.480746 0.679154 0.834479
v -4.479444 0.679933 0.834557
v -4.481366 0.680774 0.833465
v -4.481366 0.680774 0.833465
v -4.483163 0.681946 0.834554
v -4.482748 0.680374 0.833937
v -4.481366 0.680774 0.833465
v -4.483163 0.681946 0.834554
v -4.479948 0.681251 0.833731
v -4.480338 0.682729 0.834311
v -4.481845 0.682591 0.834177
v -4.481366 0.680774 0.833465
v -4.479948 0.681251 0.833731
v -4.481845 0.682591 0.834177
v -4.481845 0.682591 0.834177
v -4.483144 0.682505 0.836201
v -4.483163 0.681946 0.834554
v -4.481845 0.682591 0.834177
v -4.483144 0.682505 0.836201
v -4.480338 0.682729 0.834311
v -4.480320 0.683254 0.835859
v -4.481823 0.683236 0.836080
v -4.481845 0.682591 0.834177
v -4.480338 0.682729 0.834311
v -4.481823 0.683236 0.836080
v -4.481823 0.683236 0.836080
v -4.482706 0.681629 0.837638
v -4.483144 0.682505 0.836201
v -4.481823 0.683236 0.836080
v -4.482706 0.681629 0.837638
v -4.480320 0.683254 0.835859
v -4.479908 0.682431 0.837210
v -4.481317 0.682224 0.837740
v -4.481823 0.683236 0.836080
v -4.480320 0.683254 0.835859
v -4.481317 0.682224 0.837740
v -4.481317 0.682224 0.837740
v -4.482178 0.679978 0.837783
v -4.482706 0.681629 0.837638
v -4.481317 0.682224 0.837740
v -4.482178 0.679978 0.837783
v -4.479908 0.682431 0.837210
v -4.479412 0.680879 0.837347
v -4.480708 0.680317 0.837908
v -4.481317 0.682224 0.837740
v -4.479908 0.682431 0.837210
v -4.480708 0.680317 0.837908
v -4.480708 0.680317 0.837908
v -4.481958 0.678795 0.836526
v -4.482178 0.679978 0.837783
v -4.480708 0.680317 0.837908
v -4.481958 0.678795 0.836526
v -4.479412 0.680879 0.837347
v -4.479205 0.679767 0.836166
v -4.480453 0.678951 0.836457
v -4.480708 0.680317 0.837908
v -4.479412 0.680879 0.837347
v -4.480453 0.678951 0.836457
v -4.480453 0.678951 0.836457
v -4.480746 0.679154 0.834479
v -4.482212 0.678972 0.834815
v -4.481958 0.678795 0.836526
v -4.480453 0.678951 0.836457
v -4.482212 0.678972 0.834815
v -4.479205 0.679767 0.836166
v -4.479444 0.679933 0.834557
v -4.480746 0.679154 0.834479
v -4.480453 0.678951 0.836457
v -4.479205 0.679767 0.836166
v -4.480746 0.679154 0.834479
v -4.478631 0.680754 0.834809
v -4.478960 0.681614 0.834271
v -4.479948 0.681251 0.833731
v -4.479444 0.679933 0.834557
v -4.478631 0.680754 0.834809
v -4.479948 0.681251 0.833731
v -4.479214 0.682579 0.834649
v -4.478960 0.681614 0.834271
v -4.479203 0.682922 0.835659
v -4.478631 0.680754 0.834809
v -4.479203 0.682922 0.835659
v -4.478960 0.681614 0.834271
v -4.478934 0.682384 0.836541
v -4.479203 0.682922 0.835659
v -4.478631 0.680754 0.834809
v -4.478475 0.680646 0.835859
v -4.478934 0.682384 0.836541
v -4.478631 0.680754 0.834809
v -4.478610 0.681371 0.836630
v -4.478934 0.682384 0.836541
v -4.478475 0.680646 0.835859
v -4.489069 0.679828 0.835514
v -4.489054 0.680280 0.836847
v -4.488733 0.678555 0.835014
v -4.488299 0.677419 0.835725
v -4.488733 0.678555 0.835014
v -4.489054 0.680280 0.836847
v -4.488699 0.679571 0.838011
v -4.488299 0.677419 0.835725
v -4.489054 0.680280 0.836847
v -4.488094 0.677277 0.837111
v -4.488299 0.677419 0.835725
v -4.488699 0.679571 0.838011
v -4.488272 0.678234 0.838128
v -4.488094 0.677277 0.837111
v -4.488699 0.679571 0.838011
vn -0.9494 -0.2939 0.1104
vn 0.9610 -0.2650 0.0790
vn 0.7506 0.5322 0.3915
vn 0.8992 0.0677 0.4323
vn 0.8896 -0.2154 -0.4027
vn 0.7507 0.5322 0.3915
vn 0.9610 -0.2650 0.0789
vn 0.8897 -0.2154 -0.4026
vn 0.6273 0.7786 -0.0128
vn 0.7388 0.1791 -0.6497
vn 0.6221 0.6215 -0.4762
vn 0.3142 0.0170 -0.9492
vn 0.5584 -0.6217 -0.5493
vn 0.7388 0.1791 -0.6496
vn 0.2229 -0.8007 -0.5561
vn 0.6739 -0.7020 0.2303
vn 0.3494 -0.8886 0.2973
vn 0.2230 -0.8007 -0.5561
vn 0.6740 -0.7020 0.2303
vn -0.1441 -0.8639 -0.4826
vn -0.0249 -0.9467 0.3213
vn 0.3495 -0.8885 0.2973
vn 0.5738 -0.1634 0.8025
vn 0.2398 -0.2990 0.9236
vn 0.6739 -0.7020 0.2304
vn -0.0250 -0.9466 0.3213
vn -0.1282 -0.3913 0.9113
vn 0.3334 0.5886 0.7365
vn -0.0234 0.5241 0.8513
vn 0.5738 -0.1633 0.8026
vn -0.1283 -0.3912 0.9113
vn -0.3761 0.3842 0.8432
vn -0.0234 0.5242 0.8513
vn 0.1337 0.9876 0.0819
vn -0.2419 0.9609 0.1348
vn 0.1338 0.9876 0.0819
vn -0.3762 0.3842 0.8432
vn -0.5820 0.7956 0.1682
vn -0.2418 0.9609 0.1349
vn 0.1252 0.7333 -0.6683
vn -0.2512 0.6825 -0.6864
vn -0.5908 0.5333 -0.6054
vn -0.2513 0.6824 -0.6864
vn 0.3142 0.0171 -0.9492
vn -0.0444 -0.1015 -0.9938
vn -0.3959 -0.2052 -0.8951
vn -0.2512 0.6824 -0.6864
vn -0.0444 -0.1016 -0.9938
vn -0.0443 -0.1015 -0.9938
vn 0.5584 -0.6216 -0.5493
vn -0.3960 -0.2052 -0.8950
vn -0.1441 -0.8639 -0.4827
vn -0.3959 -0.2052 -0.8950
vn -0.3255 -0.1856 -0.9272
vn -0.0673 -0.8609 -0.5043
vn -0.5163 0.8407 0.1631
vn -0.5254 0.5718 -0.6302
vn -0.0510 -0.3763 0.9251
vn -0.3761 0.3841 0.8432
vn -0.3052 0.4188 0.8552
vn -0.1282 -0.3912 0.9113
vn -0.0249 -0.9467 0.3212
vn 0.0548 -0.9458 0.3200
vn -0.5253 0.5718 -0.6302
vn -0.3255 -0.1855 -0.9272
vn 0.0549 -0.9458 0.3201
vn -0.0250 -0.9467 0.3213
vn 0.1337 0.9876 0.0818
vn 0.6274 0.7786 -0.0128
vn 0.5738 -0.1633 0.8025
vn 0.5584 -0.6217 -0.5492
vn 0.8992 0.0677 0.4324
vn 0.1252 0.7332 -0.6683
vn 0.2055 -0.8065 -0.5543
vn 0.0549 -0.9458 0.3200
vn 0.3320 -0.8945 0.2995
vn 0.2056 -0.8065 -0.5543
vn -0.2689 0.6773 -0.6847
vn -0.0619 -0.1070 -0.9923
vn -0.2689 0.6774 -0.6848
vn -0.0410 0.5190 0.8538
vn -0.2596 0.9560 0.1370
vn -0.0409 0.5190 0.8538
vn 0.2224 -0.3046 0.9261
vn 0.3321 -0.8944 0.2995
vn -0.2596 0.9560 0.1369
vn -0.2689 0.6774 -0.6847
vn -0.2595 0.9560 0.1369
vn 0.2224 -0.3046 0.9262
vn -0.3052 0.4188 0.8553
vt 0.543243 0.635056
vt 0.535370 0.641335
vt 0.537796 0.636299
vt 0.537796 0.646370
vt 0.547607 0.638535
vt 0.543243 0.647614
vt 0.547607 0.644127
vt 0.593674 0.671494
vt 0.598511 0.669548
vt 0.596146 0.672157
vt 0.592773 0.669609
vt 0.596436 0.666756
vt 0.592804 0.667854
vt 0.594147 0.666748
vt 0.591187 0.666855
vt 0.590591 0.669838
vt 0.587372 0.669685
vt 0.591782 0.673050
vt 0.588348 0.674789
vt 0.582382 0.669067
vt 0.582687 0.676537
vt 0.595596 0.675606
vt 0.592606 0.680244
vt 0.586334 0.684982
vt 0.603775 0.674767
vt 0.603561 0.686485
vt 0.594009 0.696274
vt 0.603775 0.658051
vt 0.597107 0.663902
vt 0.596405 0.659698
vt 0.602859 0.665543
vt 0.600342 0.651657
vt 0.594193 0.655174
vt 0.593353 0.664742
vt 0.591705 0.661980
vt 0.588959 0.658463
vt 0.588654 0.665283
vt 0.584778 0.662933
vt 0.580322 0.660286
vt 0.576584 0.668175
vt 0.591812 0.651588
vt 0.585907 0.654999
vt 0.579453 0.688484
vt 0.584915 0.699394
vt 0.576157 0.678001
vt 0.597061 0.648293
vt 0.627350 0.682632
vt 0.649124 0.687675
vt 0.627441 0.688225
vt 0.649033 0.682457
vt 0.627441 0.671455
vt 0.649033 0.677231
vt 0.627350 0.677048
vt 0.649124 0.672005
vt 0.627914 0.660294
vt 0.649292 0.666786
vt 0.627625 0.665871
vt 0.649551 0.661568
vt 0.649292 0.692902
vt 0.627625 0.693810
vt 0.649551 0.698120
vt 0.627914 0.699394
s 0
usemtl decorations
f 240/1/1 239/2/1 238/3/1
f 237/1/1 236/4/1 235/2/1
f 234/5/1 233/4/1 232/1/1
f 231/5/1 230/6/1 229/4/1
f 228/6/1 227/5/1 226/7/1
s 1
f 225/8/2 224/9/3 223/10/4
f 222/11/5 221/9/6 220/8/7
f 219/11/8 218/12/9 217/9/3
f 216/13/10 215/12/9 214/11/8
f 213/12/9 212/13/10 211/14/11
f 210/15/12 209/11/8 208/16/13
f 207/15/12 206/13/14 205/11/8
f 204/17/15 203/18/16 202/19/17
f 201/17/18 200/16/13 199/18/19
f 198/20/20 197/19/17 196/21/21
f 195/20/20 194/17/18 193/19/22
f 192/19/17 191/22/23 190/23/24
f 189/19/17 188/18/25 187/22/23
f 186/21/26 185/23/24 184/24/27
f 183/21/26 3/19/17 182/23/24
f 181/23/24 180/25/28 179/26/29
f 178/23/24 177/22/30 176/25/28
f 175/24/31 174/26/29 173/27/32
f 172/24/31 4/23/24 171/26/29
f 170/28/33 169/29/34 168/30/35
f 167/28/29 166/31/28 165/29/36
f 164/32/37 163/30/35 162/33/38
f 161/32/37 13/28/29 160/30/39
f 159/30/35 158/34/40 157/35/41
f 156/30/35 155/29/34 154/34/40
f 153/33/38 152/35/41 151/36/42
f 150/33/38 14/30/35 149/35/41
f 148/35/43 147/15/44 146/37/45
f 145/35/43 144/34/40 143/15/44
f 142/36/42 141/37/45 140/38/46
f 139/36/42 16/35/47 138/37/45
f 137/37/48 136/16/13 135/17/18
f 134/37/49 133/15/12 132/16/50
f 131/38/51 130/17/18 129/20/52
f 128/38/53 36/37/45 25/17/18
f 127/39/54 126/20/52 125/40/55
f 124/39/54 123/38/46 122/20/52
f 121/41/56 120/36/42 119/42/57
f 118/41/56 117/33/38 116/36/42
f 115/43/58 114/27/59 113/44/60
f 112/43/58 111/24/61 110/27/59
f 109/40/55 108/21/62 107/45/63
f 106/40/55 40/20/20 105/21/62
f 104/42/64 103/38/46 102/39/65
f 101/42/64 41/36/42 42/38/46
f 100/46/60 99/33/38 98/41/56
f 97/46/60 37/32/37 38/33/38
f 96/45/66 95/24/27 94/43/58
f 93/45/66 33/21/67 34/24/27
f 92/29/68 91/14/11 90/34/40
f 89/29/68 88/12/69 87/14/11
f 86/22/70 85/9/6 84/25/28
f 83/22/30 82/10/4 81/9/6
f 80/16/71 79/8/7 78/18/16
f 29/16/71 30/11/5 77/8/7
f 76/31/28 75/12/69 28/29/36
f 31/31/28 26/9/6 27/12/69
f 74/18/25 73/10/72 24/22/23
f 21/18/25 22/8/7 23/10/4
f 72/34/40 71/13/10 20/15/12
f 17/34/73 18/14/11 19/13/14
f 70/47/74 69/48/75 68/49/76
f 67/47/77 66/50/55 65/48/75
f 64/51/78 63/52/54 62/53/79
f 61/51/80 60/54/64 59/52/65
f 58/55/81 57/56/56 56/57/82
f 55/55/83 54/58/60 53/56/56
f 52/49/76 51/59/58 50/60/84
f 2/49/85 32/48/75 49/59/58
f 48/53/79 47/50/55 12/47/74
f 9/53/79 10/52/54 11/50/55
f 46/57/86 45/54/64 8/51/87
f 5/57/88 6/56/56 7/54/57
f 44/60/89 43/61/90 15/62/83
f 1/60/89 35/59/58 39/61/90
