# Blender 5.0.0
# www.blender.org
mtllib Circle_005_Circle_003_Dupli_189_decorations_0.mtl
o Circle.005|Circle.003|Dupli|189_decorations_0
v -4.591201 1.362759 0.400908
v -4.592355 1.361954 0.400847
v -4.591906 1.360209 0.408486
v -4.590259 1.361357 0.408573
v -4.589360 1.361158 0.400209
v -4.588735 1.359723 0.405445
v -4.589389 1.358602 0.405227
v -4.590059 1.359958 0.399976
v -4.591440 1.359708 0.400100
v -4.590679 1.358368 0.405343
v -4.591634 1.359199 0.405706
v -4.592462 1.360597 0.400488
v -4.588356 1.360851 0.408168
v -4.587632 1.359073 0.407576
v -4.589868 1.362404 0.400624
v -4.588630 1.357361 0.407244
v -4.588675 1.357313 0.408762
v -4.588909 1.357562 0.409895
v -4.589954 1.357373 0.409989
v -4.590278 1.357023 0.408906
v -4.591341 1.359630 0.409773
v -4.590648 1.359074 0.410555
v -4.589774 1.359684 0.410601
v -4.590001 1.360564 0.409844
v -4.592057 1.358272 0.407974
v -4.588764 1.359415 0.410385
v -4.588378 1.358471 0.410071
v -4.587863 1.358706 0.409033
v -4.591465 1.358054 0.409356
v -4.590729 1.358046 0.410283
v -4.588453 1.360153 0.409514
v -4.591535 1.360468 0.406041
v -4.591836 1.360458 0.406995
v -4.590411 1.361452 0.407069
v -4.590456 1.361220 0.406098
v -4.590599 1.357005 0.407421
v -4.588765 1.361014 0.406719
v -4.588137 1.359475 0.406207
v -4.589210 1.360889 0.405832
v -4.591968 1.358782 0.406551
v -4.589001 1.357993 0.405919
v -4.590706 1.357685 0.406072
v -4.589210 1.360889 0.405832
v -4.591201 1.362759 0.400908
v -4.589389 1.358602 0.405227
v -4.589360 1.361158 0.400209
v -4.591634 1.359199 0.405706
v -4.591440 1.359708 0.400100
v -4.590456 1.361220 0.406098
v -4.591201 1.362759 0.400908
v -4.590456 1.361220 0.406098
v -4.592355 1.361954 0.400847
v -4.588735 1.359723 0.405445
v -4.589210 1.360889 0.405832
v -4.589868 1.362404 0.400624
v -4.589360 1.361158 0.400209
v -4.588735 1.359723 0.405445
v -4.589868 1.362404 0.400624
v -4.590679 1.358368 0.405343
v -4.589389 1.358602 0.405227
v -4.590059 1.359958 0.399976
v -4.591440 1.359708 0.400100
v -4.590679 1.358368 0.405343
v -4.590059 1.359958 0.399976
v -4.591535 1.360468 0.406041
v -4.591634 1.359199 0.405706
v -4.592462 1.360597 0.400488
v -4.592355 1.361954 0.400847
v -4.591535 1.360468 0.406041
v -4.592462 1.360597 0.400488
v -4.589954 1.357373 0.409989
v -4.588675 1.357313 0.408762
v -4.589774 1.359684 0.410601
v -4.591341 1.359630 0.409773
v -4.588378 1.358471 0.410071
v -4.588453 1.360153 0.409514
v -4.590648 1.359074 0.410555
v -4.591341 1.359630 0.409773
v -4.590648 1.359074 0.410555
v -4.591465 1.358054 0.409356
v -4.588764 1.359415 0.410385
v -4.589774 1.359684 0.410601
v -4.590001 1.360564 0.409844
v -4.588453 1.360153 0.409514
v -4.588764 1.359415 0.410385
v -4.590001 1.360564 0.409844
v -4.588909 1.357562 0.409895
v -4.588378 1.358471 0.410071
v -4.587863 1.358706 0.409033
v -4.588675 1.357313 0.408762
v -4.588909 1.357562 0.409895
v -4.587863 1.358706 0.409033
v -4.591535 1.360468 0.406041
v -4.590456 1.361220 0.406098
v -4.590411 1.361452 0.407069
v -4.591535 1.360468 0.406041
v -4.589210 1.360889 0.405832
v -4.588735 1.359723 0.405445
v -4.588137 1.359475 0.406207
v -4.589210 1.360889 0.405832
v -4.589389 1.358602 0.405227
v -4.590679 1.358368 0.405343
v -4.590706 1.357685 0.406072
v -4.589389 1.358602 0.405227
v -4.591836 1.360458 0.406995
v -4.591634 1.359199 0.405706
v -4.591535 1.360468 0.406041
v -4.591836 1.360458 0.406995
v -4.591634 1.359199 0.405706
v -4.588765 1.361014 0.406719
v -4.590411 1.361452 0.407069
v -4.590456 1.361220 0.406098
v -4.589210 1.360889 0.405832
v -4.588765 1.361014 0.406719
v -4.590456 1.361220 0.406098
v -4.589001 1.357993 0.405919
v -4.588137 1.359475 0.406207
v -4.588735 1.359723 0.405445
v -4.589389 1.358602 0.405227
v -4.589001 1.357993 0.405919
v -4.588735 1.359723 0.405445
v -4.591968 1.358782 0.406551
v -4.590706 1.357685 0.406072
v -4.590679 1.358368 0.405343
v -4.591634 1.359199 0.405706
v -4.591968 1.358782 0.406551
v -4.590679 1.358368 0.405343
v -4.590706 1.357685 0.406072
v -4.591968 1.358782 0.406551
v -4.592057 1.358272 0.407974
v -4.590706 1.357685 0.406072
v -4.591465 1.358054 0.409356
v -4.590278 1.357023 0.408906
v -4.590599 1.357005 0.407421
v -4.592057 1.358272 0.407974
v -4.591465 1.358054 0.409356
v -4.590599 1.357005 0.407421
v -4.590599 1.357005 0.407421
v -4.589001 1.357993 0.405919
v -4.590706 1.357685 0.406072
v -4.590599 1.357005 0.407421
v -4.589001 1.357993 0.405919
v -4.590278 1.357023 0.408906
v -4.588675 1.357313 0.408762
v -4.588630 1.357361 0.407244
v -4.590599 1.357005 0.407421
v -4.590278 1.357023 0.408906
v -4.588630 1.357361 0.407244
v -4.588630 1.357361 0.407244
v -4.588137 1.359475 0.406207
v -4.589001 1.357993 0.405919
v -4.588630 1.357361 0.407244
v -4.588137 1.359475 0.406207
v -4.588675 1.357313 0.408762
v -4.587863 1.358706 0.409033
v -4.587632 1.359073 0.407576
v -4.588630 1.357361 0.407244
v -4.588675 1.357313 0.408762
v -4.587632 1.359073 0.407576
v -4.587632 1.359073 0.407576
v -4.588765 1.361014 0.406719
v -4.588137 1.359475 0.406207
v -4.587632 1.359073 0.407576
v -4.588765 1.361014 0.406719
v -4.587863 1.358706 0.409033
v -4.588453 1.360153 0.409514
v -4.588356 1.360851 0.408168
v -4.587632 1.359073 0.407576
v -4.587863 1.358706 0.409033
v -4.588356 1.360851 0.408168
v -4.588356 1.360851 0.408168
v -4.590411 1.361452 0.407069
v -4.588765 1.361014 0.406719
v -4.588356 1.360851 0.408168
v -4.590411 1.361452 0.407069
v -4.588453 1.360153 0.409514
v -4.590001 1.360564 0.409844
v -4.590259 1.361357 0.408573
v -4.588356 1.360851 0.408168
v -4.588453 1.360153 0.409514
v -4.590259 1.361357 0.408573
v -4.590259 1.361357 0.408573
v -4.591836 1.360458 0.406995
v -4.590411 1.361452 0.407069
v -4.590259 1.361357 0.408573
v -4.591836 1.360458 0.406995
v -4.590001 1.360564 0.409844
v -4.591341 1.359630 0.409773
v -4.591906 1.360209 0.408486
v -4.590259 1.361357 0.408573
v -4.590001 1.360564 0.409844
v -4.591906 1.360209 0.408486
v -4.591906 1.360209 0.408486
v -4.592057 1.358272 0.407974
v -4.591968 1.358782 0.406551
v -4.591836 1.360458 0.406995
v -4.591906 1.360209 0.408486
v -4.591968 1.358782 0.406551
v -4.591341 1.359630 0.409773
v -4.591465 1.358054 0.409356
v -4.592057 1.358272 0.407974
v -4.591906 1.360209 0.408486
v -4.591341 1.359630 0.409773
v -4.592057 1.358272 0.407974
v -4.590729 1.358046 0.410283
v -4.589954 1.357373 0.409989
v -4.590278 1.357023 0.408906
v -4.591465 1.358054 0.409356
v -4.590729 1.358046 0.410283
v -4.590278 1.357023 0.408906
v -4.588909 1.357562 0.409895
v -4.589954 1.357373 0.409989
v -4.588378 1.358471 0.410071
v -4.590729 1.358046 0.410283
v -4.588378 1.358471 0.410071
v -4.589954 1.357373 0.409989
v -4.588764 1.359415 0.410385
v -4.588378 1.358471 0.410071
v -4.590729 1.358046 0.410283
v -4.590648 1.359074 0.410555
v -4.588764 1.359415 0.410385
v -4.590729 1.358046 0.410283
v -4.589774 1.359684 0.410601
v -4.588764 1.359415 0.410385
v -4.590648 1.359074 0.410555
v -4.590059 1.359958 0.399976
v -4.589360 1.361158 0.400209
v -4.591440 1.359708 0.400100
v -4.592462 1.360597 0.400488
v -4.591440 1.359708 0.400100
v -4.589360 1.361158 0.400209
v -4.589868 1.362404 0.400624
v -4.592462 1.360597 0.400488
v -4.589360 1.361158 0.400209
v -4.592355 1.361954 0.400847
v -4.592462 1.360597 0.400488
v -4.589868 1.362404 0.400624
v -4.591201 1.362759 0.400908
v -4.592355 1.361954 0.400847
v -4.589868 1.362404 0.400624
vn -0.1335 0.2633 -0.9554
vn -0.3733 0.0378 0.9269
vn 0.4910 0.1941 0.8493
vn 0.0277 0.3172 0.9479
vn -0.4102 -0.4340 0.8021
vn 0.4909 0.1941 0.8493
vn -0.3733 0.0377 0.9269
vn -0.4103 -0.4339 0.8021
vn 0.6675 -0.2389 0.7053
vn -0.0553 -0.7426 0.6674
vn 0.6675 -0.2390 0.7053
vn 0.4244 -0.6558 0.6243
vn -0.2135 -0.9577 0.1931
vn -0.7882 -0.4580 0.4111
vn -0.2135 -0.9577 0.1930
vn -0.0552 -0.7426 0.6675
vn -0.9174 -0.3936 0.0592
vn -0.7284 0.3056 0.6132
vn -0.8519 0.4422 0.2805
vn -0.9173 -0.3937 0.0593
vn -0.9140 -0.2726 -0.3006
vn -0.8519 0.4423 0.2805
vn -0.8523 0.5148 -0.0921
vn -0.0791 0.7582 0.6472
vn -0.1412 0.9376 0.3177
vn -0.7284 0.3057 0.6132
vn -0.8523 0.5149 -0.0922
vn -0.1828 0.9815 -0.0570
vn -0.8523 0.5149 -0.0921
vn 0.6708 0.5589 0.4875
vn 0.6797 0.7194 0.1429
vn -0.1828 0.9815 -0.0571
vn 0.5905 0.7760 -0.2217
vn 0.6797 0.7194 0.1428
vn 0.9566 -0.1422 0.2543
vn 0.9925 -0.0480 -0.1123
vn 0.9566 -0.1422 0.2544
vn 0.5905 0.7759 -0.2218
vn 0.8852 0.0530 -0.4621
vn 0.9925 -0.0479 -0.1123
vn 0.5631 -0.8171 0.1234
vn 0.5617 -0.7868 -0.2557
vn 0.5631 -0.8171 0.1233
vn 0.8852 0.0530 -0.4622
vn 0.5617 -0.7868 -0.2558
vn 0.4794 -0.6430 -0.5973
vn -0.2134 -0.9577 0.1930
vn -0.2882 -0.9406 -0.1794
vn 0.5631 -0.8172 0.1233
vn -0.2134 -0.9577 0.1931
vn -0.3213 -0.7879 -0.5253
vn -0.2883 -0.9406 -0.1794
vn -0.9174 -0.3936 0.0593
vn -0.2882 -0.9406 -0.1793
vn -0.3213 -0.7879 -0.5254
vn -0.9140 -0.2726 -0.3005
vn -0.3182 -0.8302 -0.4577
vn -0.9259 -0.3018 -0.2272
vn 0.9190 0.0320 -0.3929
vn 0.5029 -0.6816 -0.5315
vn -0.1761 0.9841 0.0225
vn 0.6168 0.7734 -0.1464
vn -0.9259 -0.3019 -0.2272
vn -0.8627 0.5056 -0.0135
vn 0.8852 0.0531 -0.4622
vn -0.1761 0.9841 0.0224
vn 0.9566 -0.1423 0.2543
vn 0.4244 -0.6558 0.6244
vn 0.6674 -0.2389 0.7053
vn 0.4243 -0.6559 0.6243
vn 0.0277 0.3173 0.9479
vn -0.7882 -0.4579 0.4111
vn -0.4103 -0.4340 0.8021
vn -0.7284 0.3057 0.6131
vn 0.5631 -0.8172 0.1234
vn -0.9203 -0.3890 0.0416
vn -0.8548 0.4473 0.2630
vn -0.9203 -0.3890 0.0417
vn 0.5595 -0.7824 -0.2736
vn -0.2908 -0.9362 -0.1972
vn 0.5595 -0.7824 -0.2735
vn 0.6776 0.7247 0.1253
vn 0.9906 -0.0431 -0.1300
vn 0.6776 0.7246 0.1253
vn -0.8548 0.4474 0.2630
vn -0.1438 0.9430 0.3002
vn -0.2909 -0.9362 -0.1972
vn -0.2908 -0.9362 -0.1971
vn 0.5596 -0.7823 -0.2735
vn -0.1437 0.9430 0.3002
vt 0.530319 0.611839
vt 0.522446 0.618118
vt 0.524872 0.613083
vt 0.524872 0.623154
vt 0.534683 0.615326
vt 0.530319 0.624397
vt 0.534683 0.620918
vt 0.537079 0.671494
vt 0.541916 0.669548
vt 0.539566 0.672157
vt 0.536179 0.669609
vt 0.539856 0.666756
vt 0.536224 0.667854
vt 0.537567 0.666748
vt 0.534592 0.666855
vt 0.534012 0.669838
vt 0.530777 0.669685
vt 0.535187 0.673050
vt 0.531769 0.674789
vt 0.525803 0.669067
vt 0.526108 0.676537
vt 0.539017 0.675606
vt 0.536011 0.680244
vt 0.529755 0.684982
vt 0.547180 0.674767
vt 0.546982 0.686485
vt 0.537415 0.696274
vt 0.547180 0.658051
vt 0.540527 0.663902
vt 0.539825 0.659698
vt 0.546280 0.665543
vt 0.543762 0.651657
vt 0.537613 0.655174
vt 0.536758 0.664742
vt 0.535126 0.661980
vt 0.532364 0.658463
vt 0.532074 0.665283
vt 0.528198 0.662933
vt 0.523743 0.660286
vt 0.519989 0.668175
vt 0.535217 0.651588
vt 0.529327 0.654999
vt 0.522873 0.688484
vt 0.528320 0.699394
vt 0.519577 0.678001
vt 0.540466 0.648293
vt 0.604446 0.642853
vt 0.626221 0.647896
vt 0.604553 0.648445
vt 0.626144 0.642670
vt 0.604553 0.631676
vt 0.626144 0.637444
vt 0.604446 0.637268
vt 0.626221 0.632225
vt 0.605011 0.620506
vt 0.626404 0.626999
vt 0.604736 0.626091
vt 0.626663 0.621780
vt 0.626404 0.653114
vt 0.604736 0.654030
vt 0.626663 0.658333
vt 0.605011 0.659607
s 0
usemtl decorations
f 240/1/1 239/2/1 238/3/1
f 237/1/1 236/4/1 235/2/1
f 234/5/1 233/4/1 232/1/1
f 231/5/1 230/6/1 229/4/1
f 228/6/1 227/5/1 226/7/1
s 1
f 225/8/2 224/9/3 223/10/4
f 222/11/5 221/9/6 220/8/7
f 219/11/8 218/12/9 217/9/3
f 216/13/10 215/12/9 214/11/8
f 213/12/11 212/13/10 211/14/12
f 210/15/13 209/11/8 208/16/14
f 207/15/15 206/13/16 205/11/5
f 204/17/17 203/18/18 202/19/19
f 201/17/20 200/16/14 199/18/18
f 198/20/21 197/19/22 196/21/23
f 195/20/21 194/17/20 193/19/19
f 192/19/19 191/22/24 190/23/25
f 189/19/19 188/18/26 187/22/24
f 186/21/27 185/23/25 184/24/28
f 183/21/29 3/19/19 182/23/25
f 181/23/25 180/25/30 179/26/31
f 178/23/25 177/22/24 176/25/30
f 175/24/32 174/26/31 173/27/33
f 172/24/32 4/23/25 171/26/31
f 170/28/34 169/29/35 168/30/36
f 167/28/31 166/31/30 165/29/37
f 164/32/38 163/30/36 162/33/39
f 161/32/38 13/28/31 160/30/40
f 159/30/36 158/34/41 157/35/42
f 156/30/36 155/29/35 154/34/43
f 153/33/44 152/35/45 151/36/46
f 150/33/44 14/30/36 149/35/45
f 148/35/45 147/15/47 146/37/48
f 145/35/45 144/34/49 143/15/50
f 142/36/46 141/37/48 140/38/51
f 139/36/46 16/35/45 138/37/48
f 137/37/52 136/16/14 135/17/53
f 134/37/54 133/15/13 132/16/14
f 131/38/55 130/17/53 129/20/56
f 128/38/55 36/37/48 25/17/53
f 127/39/57 126/20/56 125/40/58
f 124/39/57 123/38/51 122/20/56
f 121/41/59 120/36/46 119/42/60
f 118/41/59 117/33/44 116/36/46
f 115/43/61 114/27/33 113/44/62
f 112/43/61 111/24/32 110/27/33
f 109/40/63 108/21/23 107/45/64
f 106/40/63 40/20/21 105/21/23
f 104/42/60 103/38/51 102/39/57
f 101/42/60 41/36/46 42/38/51
f 100/46/62 99/33/65 98/41/59
f 97/46/62 37/32/38 38/33/65
f 96/45/64 95/24/32 94/43/66
f 93/45/64 33/21/23 34/24/32
f 92/29/67 91/14/68 90/34/43
f 89/29/67 88/12/69 87/14/70
f 86/22/24 85/9/6 84/25/30
f 83/22/24 82/10/71 81/9/6
f 80/16/14 79/8/7 78/18/18
f 29/16/72 30/11/73 77/8/7
f 76/31/30 75/12/69 28/29/37
f 31/31/30 26/9/6 27/12/69
f 74/18/26 73/10/71 24/22/24
f 21/18/74 22/8/7 23/10/4
f 72/34/75 71/13/10 20/15/50
f 17/34/49 18/14/12 19/13/16
f 70/47/76 69/48/64 68/49/77
f 67/47/78 66/50/63 65/48/64
f 64/51/79 63/52/57 62/53/80
f 61/51/81 60/54/60 59/52/57
f 58/55/82 57/56/59 56/57/83
f 55/55/84 54/58/62 53/56/59
f 52/49/85 51/59/61 50/60/86
f 2/49/85 32/48/64 49/59/61
f 48/53/87 47/50/58 12/47/76
f 9/53/88 10/52/57 11/50/58
f 46/57/83 45/54/60 8/51/89
f 5/57/83 6/56/59 7/54/60
f 44/60/90 43/61/62 15/62/82
f 1/60/90 35/59/66 39/61/62
