# Blender 5.0.0
# www.blender.org
mtllib Circle_005_Circle_Dupli_295_decorations_0.mtl
o Circle.005|Circle|Dupli|295_decorations_0
v -4.575580 2.029138 0.705009
v -4.575914 2.028259 0.703960
v -4.573083 2.033177 0.698537
v -4.572607 2.034430 0.700033
v -4.577734 2.030429 0.705373
v -4.576067 2.034086 0.701669
v -4.576878 2.033563 0.700772
v -4.578599 2.029870 0.704413
v -4.578336 2.028847 0.703483
v -4.576631 2.032606 0.699902
v -4.575513 2.031936 0.699713
v -4.577141 2.028130 0.703281
v -4.573762 2.035808 0.700930
v -4.575679 2.036273 0.700552
v -4.576389 2.030103 0.705638
v -4.576916 2.035475 0.699183
v -4.576084 2.036307 0.698221
v -4.575185 2.036732 0.697579
v -4.574986 2.035956 0.696874
v -4.575777 2.035119 0.697141
v -4.572965 2.034437 0.697695
v -4.573150 2.035511 0.697236
v -4.572897 2.036177 0.698031
v -4.572577 2.035457 0.698913
v -4.574834 2.032992 0.697568
v -4.573510 2.036908 0.698507
v -4.574529 2.037156 0.698306
v -4.575078 2.036956 0.699335
v -4.574389 2.034287 0.696907
v -4.574080 2.035413 0.696721
v -4.573517 2.036578 0.699643
v -4.574367 2.032057 0.700349
v -4.573751 2.032355 0.699619
v -4.573339 2.033440 0.700915
v -4.574054 2.032878 0.701329
v -4.576539 2.034015 0.697855
v -4.574338 2.034632 0.701691
v -4.575998 2.035035 0.701363
v -4.574811 2.033781 0.701917
v -4.575266 2.032196 0.698780
v -4.577068 2.034344 0.700179
v -4.576743 2.033081 0.699029
v -4.574811 2.033781 0.701917
v -4.575580 2.029138 0.705009
v -4.576878 2.033563 0.700772
v -4.577734 2.030429 0.705373
v -4.575513 2.031936 0.699713
v -4.578336 2.028847 0.703483
v -4.574054 2.032878 0.701329
v -4.575580 2.029138 0.705009
v -4.574054 2.032878 0.701329
v -4.575914 2.028259 0.703960
v -4.576067 2.034086 0.701669
v -4.574811 2.033781 0.701917
v -4.576389 2.030103 0.705638
v -4.577734 2.030429 0.705373
v -4.576067 2.034086 0.701669
v -4.576389 2.030103 0.705638
v -4.576631 2.032606 0.699902
v -4.576878 2.033563 0.700772
v -4.578599 2.029870 0.704413
v -4.578336 2.028847 0.703483
v -4.576631 2.032606 0.699902
v -4.578599 2.029870 0.704413
v -4.574367 2.032057 0.700349
v -4.575513 2.031936 0.699713
v -4.577141 2.028130 0.703281
v -4.575914 2.028259 0.703960
v -4.574367 2.032057 0.700349
v -4.577141 2.028130 0.703281
v -4.574986 2.035956 0.696874
v -4.576084 2.036307 0.698221
v -4.572897 2.036177 0.698031
v -4.572965 2.034437 0.697695
v -4.574529 2.037156 0.698306
v -4.573517 2.036578 0.699643
v -4.573150 2.035511 0.697236
v -4.572965 2.034437 0.697695
v -4.573150 2.035511 0.697236
v -4.574389 2.034287 0.696907
v -4.573510 2.036908 0.698507
v -4.572897 2.036177 0.698031
v -4.572577 2.035457 0.698913
v -4.573517 2.036578 0.699643
v -4.573510 2.036908 0.698507
v -4.572577 2.035457 0.698913
v -4.575185 2.036732 0.697579
v -4.574529 2.037156 0.698306
v -4.575078 2.036956 0.699335
v -4.576084 2.036307 0.698221
v -4.575185 2.036732 0.697579
v -4.575078 2.036956 0.699335
v -4.574367 2.032057 0.700349
v -4.574054 2.032878 0.701329
v -4.573339 2.033440 0.700915
v -4.574367 2.032057 0.700349
v -4.574811 2.033781 0.701917
v -4.576067 2.034086 0.701669
v -4.575998 2.035035 0.701363
v -4.574811 2.033781 0.701917
v -4.576878 2.033563 0.700772
v -4.576631 2.032606 0.699902
v -4.576743 2.033081 0.699029
v -4.576878 2.033563 0.700772
v -4.573751 2.032355 0.699619
v -4.575513 2.031936 0.699713
v -4.574367 2.032057 0.700349
v -4.573751 2.032355 0.699619
v -4.575513 2.031936 0.699713
v -4.574338 2.034632 0.701691
v -4.573339 2.033440 0.700915
v -4.574054 2.032878 0.701329
v -4.574811 2.033781 0.701917
v -4.574338 2.034632 0.701691
v -4.574054 2.032878 0.701329
v -4.577068 2.034344 0.700179
v -4.575998 2.035035 0.701363
v -4.576067 2.034086 0.701669
v -4.576878 2.033563 0.700772
v -4.577068 2.034344 0.700179
v -4.576067 2.034086 0.701669
v -4.575266 2.032196 0.698780
v -4.576743 2.033081 0.699029
v -4.576631 2.032606 0.699902
v -4.575513 2.031936 0.699713
v -4.575266 2.032196 0.698780
v -4.576631 2.032606 0.699902
v -4.576743 2.033081 0.699029
v -4.575266 2.032196 0.698780
v -4.574834 2.032992 0.697568
v -4.576743 2.033081 0.699029
v -4.574389 2.034287 0.696907
v -4.575777 2.035119 0.697141
v -4.576539 2.034015 0.697855
v -4.574834 2.032992 0.697568
v -4.574389 2.034287 0.696907
v -4.576539 2.034015 0.697855
v -4.576539 2.034015 0.697855
v -4.577068 2.034344 0.700179
v -4.576743 2.033081 0.699029
v -4.576539 2.034015 0.697855
v -4.577068 2.034344 0.700179
v -4.575777 2.035119 0.697141
v -4.576084 2.036307 0.698221
v -4.576916 2.035475 0.699183
v -4.576539 2.034015 0.697855
v -4.575777 2.035119 0.697141
v -4.576916 2.035475 0.699183
v -4.576916 2.035475 0.699183
v -4.575998 2.035035 0.701363
v -4.577068 2.034344 0.700179
v -4.576916 2.035475 0.699183
v -4.575998 2.035035 0.701363
v -4.576084 2.036307 0.698221
v -4.575078 2.036956 0.699335
v -4.575679 2.036273 0.700552
v -4.576916 2.035475 0.699183
v -4.576084 2.036307 0.698221
v -4.575679 2.036273 0.700552
v -4.575679 2.036273 0.700552
v -4.574338 2.034632 0.701691
v -4.575998 2.035035 0.701363
v -4.575679 2.036273 0.700552
v -4.574338 2.034632 0.701691
v -4.575078 2.036956 0.699335
v -4.573517 2.036578 0.699643
v -4.573762 2.035808 0.700930
v -4.575679 2.036273 0.700552
v -4.575078 2.036956 0.699335
v -4.573762 2.035808 0.700930
v -4.573762 2.035808 0.700930
v -4.573339 2.033440 0.700915
v -4.574338 2.034632 0.701691
v -4.573762 2.035808 0.700930
v -4.573339 2.033440 0.700915
v -4.573517 2.036578 0.699643
v -4.572577 2.035457 0.698913
v -4.572607 2.034430 0.700033
v -4.573762 2.035808 0.700930
v -4.573517 2.036578 0.699643
v -4.572607 2.034430 0.700033
v -4.572607 2.034430 0.700033
v -4.573751 2.032355 0.699619
v -4.573339 2.033440 0.700915
v -4.572607 2.034430 0.700033
v -4.573751 2.032355 0.699619
v -4.572577 2.035457 0.698913
v -4.572965 2.034437 0.697695
v -4.573083 2.033177 0.698537
v -4.572607 2.034430 0.700033
v -4.572577 2.035457 0.698913
v -4.573083 2.033177 0.698537
v -4.573083 2.033177 0.698537
v -4.574834 2.032992 0.697568
v -4.575266 2.032196 0.698780
v -4.573751 2.032355 0.699619
v -4.573083 2.033177 0.698537
v -4.575266 2.032196 0.698780
v -4.572965 2.034437 0.697695
v -4.574389 2.034287 0.696907
v -4.574834 2.032992 0.697568
v -4.573083 2.033177 0.698537
v -4.572965 2.034437 0.697695
v -4.574834 2.032992 0.697568
v -4.574080 2.035413 0.696721
v -4.574986 2.035956 0.696874
v -4.575777 2.035119 0.697141
v -4.574389 2.034287 0.696907
v -4.574080 2.035413 0.696721
v -4.575777 2.035119 0.697141
v -4.575185 2.036732 0.697579
v -4.574986 2.035956 0.696874
v -4.574529 2.037156 0.698306
v -4.574080 2.035413 0.696721
v -4.574529 2.037156 0.698306
v -4.574986 2.035956 0.696874
v -4.573510 2.036908 0.698507
v -4.574529 2.037156 0.698306
v -4.574080 2.035413 0.696721
v -4.573150 2.035511 0.697236
v -4.573510 2.036908 0.698507
v -4.574080 2.035413 0.696721
v -4.572897 2.036177 0.698031
v -4.573510 2.036908 0.698507
v -4.573150 2.035511 0.697236
v -4.578599 2.029870 0.704413
v -4.577734 2.030429 0.705373
v -4.578336 2.028847 0.703483
v -4.577141 2.028130 0.703281
v -4.578336 2.028847 0.703483
v -4.577734 2.030429 0.705373
v -4.576389 2.030103 0.705638
v -4.577141 2.028130 0.703281
v -4.577734 2.030429 0.705373
v -4.575914 2.028259 0.703960
v -4.577141 2.028130 0.703281
v -4.576389 2.030103 0.705638
v -4.575580 2.029138 0.705009
v -4.575914 2.028259 0.703960
v -4.576389 2.030103 0.705638
vn -0.2973 -0.6833 0.6669
vn 0.6573 0.2188 -0.7212
vn 0.4921 0.8595 -0.1384
vn 0.7735 0.5239 -0.3568
vn 0.2310 0.1738 -0.9573
vn 0.6573 0.2187 -0.7212
vn 0.2311 0.1738 -0.9573
vn 0.0251 0.9727 -0.2306
vn -0.1843 0.4229 -0.8873
vn 0.0251 0.9727 -0.2305
vn -0.1842 0.4228 -0.8873
vn -0.2759 0.7784 -0.5638
vn -0.5745 0.0499 -0.8170
vn 0.0978 -0.3533 -0.9304
vn -0.1842 0.4229 -0.8872
vn -0.0145 -0.6662 -0.7456
vn 0.7879 -0.2806 -0.5482
vn 0.7409 -0.5865 -0.3273
vn -0.0145 -0.6661 -0.7457
vn 0.0979 -0.3533 -0.9304
vn 0.7879 -0.2805 -0.5482
vn -0.1245 -0.8824 -0.4537
vn 0.5871 -0.8073 -0.0596
vn -0.0145 -0.6662 -0.7457
vn 0.9760 0.2135 0.0418
vn 0.9468 -0.0457 0.3185
vn 0.7879 -0.2805 -0.5481
vn 0.5871 -0.8073 -0.0595
vn 0.7811 -0.2979 0.5488
vn 0.5206 0.7567 0.3954
vn 0.4482 0.5489 0.7055
vn 0.9760 0.2135 0.0419
vn 0.5206 0.7568 0.3954
vn 0.7810 -0.2979 0.5489
vn 0.3114 0.2623 0.9134
vn 0.4482 0.5489 0.7056
vn -0.2355 0.9402 0.2462
vn -0.3794 0.7497 0.5422
vn 0.5205 0.7568 0.3954
vn 0.3113 0.2623 0.9134
vn -0.3794 0.7497 0.5423
vn -0.4683 0.4514 0.7596
vn -0.3793 0.7497 0.5422
vn -0.7229 0.6256 -0.2933
vn -0.9129 0.4054 -0.0484
vn -0.2356 0.9402 0.2462
vn -0.9709 0.1270 0.2032
vn -0.9129 0.4053 -0.0484
vn -0.7505 -0.2248 -0.6215
vn -0.5745 0.0500 -0.8170
vn -0.8179 -0.4665 -0.3368
vn -0.7504 -0.2248 -0.6215
vn -0.7504 -0.2247 -0.6216
vn -0.8179 -0.4666 -0.3367
vn -0.7505 -0.2247 -0.6215
vn -0.8134 -0.4205 -0.4019
vn -0.1025 -0.8469 -0.5217
vn -0.8179 -0.4666 -0.3368
vn -0.4550 0.5208 0.7223
vn -0.9709 0.1271 0.2032
vn -0.9703 0.1881 0.1518
vn -0.4683 0.4513 0.7596
vn 0.8261 -0.2476 0.5062
vn 0.3444 0.3268 0.8801
vn 0.8261 -0.2476 0.5063
vn 0.7810 -0.2979 0.5488
vn -0.1025 -0.8469 -0.5218
vn 0.5871 -0.8074 -0.0596
vn 0.6271 -0.7700 -0.1176
vn -0.9703 0.1882 0.1518
vn -0.8134 -0.4205 -0.4018
vn 0.3445 0.3269 0.8801
vn 0.3445 0.3268 0.8801
vn 0.6272 -0.7699 -0.1176
vn -0.2356 0.9401 0.2462
vn -0.2760 0.7784 -0.5639
vn 0.0979 -0.3534 -0.9303
vn 0.7879 -0.2806 -0.5481
vn -0.7229 0.6256 -0.2934
vn -0.1843 0.4229 -0.8872
vn -0.0200 -0.6792 -0.7337
vn 0.6272 -0.7699 -0.1177
vn 0.7358 -0.5994 -0.3151
vn -0.0199 -0.6791 -0.7337
vn 0.6272 -0.7700 -0.1176
vn -0.9189 0.3929 -0.0361
vn -0.7564 -0.2375 -0.6095
vn 0.4429 0.5366 0.7183
vn -0.3850 0.7375 0.5549
vn 0.4429 0.5366 0.7182
vn 0.9418 -0.0584 0.3310
vn -0.7563 -0.2375 -0.6095
vn -0.0200 -0.6791 -0.7337
vn -0.7563 -0.2375 -0.6096
vn -0.3851 0.7374 0.5549
vn -0.3851 0.7375 0.5548
vn 0.3445 0.3269 0.8800
vt 0.543243 0.611839
vt 0.535370 0.618118
vt 0.537796 0.613083
vt 0.537796 0.623154
vt 0.547607 0.615326
vt 0.543243 0.624397
vt 0.547607 0.620918
vt 0.565384 0.671494
vt 0.570206 0.669548
vt 0.567856 0.672157
vt 0.564468 0.669609
vt 0.568146 0.666756
vt 0.564514 0.667854
vt 0.565857 0.666748
vt 0.562897 0.666855
vt 0.562302 0.669838
vt 0.559082 0.669685
vt 0.563492 0.673050
vt 0.560059 0.674789
vt 0.554092 0.669067
vt 0.554398 0.676537
vt 0.567307 0.675606
vt 0.564316 0.680244
vt 0.558044 0.684982
vt 0.575485 0.674767
vt 0.575272 0.686485
vt 0.565720 0.696274
vt 0.575485 0.658051
vt 0.568817 0.663902
vt 0.568115 0.659698
vt 0.574570 0.665543
vt 0.572052 0.651657
vt 0.565903 0.655174
vt 0.565063 0.664742
vt 0.563416 0.661980
vt 0.560669 0.658463
vt 0.560364 0.665283
vt 0.556488 0.662933
vt 0.552032 0.660286
vt 0.548294 0.668175
vt 0.563522 0.651588
vt 0.557617 0.654999
vt 0.551163 0.688484
vt 0.556610 0.699394
vt 0.547867 0.678001
vt 0.568756 0.648293
vt 0.604446 0.682632
vt 0.626221 0.687675
vt 0.604553 0.688225
vt 0.626144 0.682457
vt 0.604553 0.671455
vt 0.626144 0.677231
vt 0.604446 0.677048
vt 0.626221 0.672005
vt 0.605011 0.660294
vt 0.626404 0.666786
vt 0.604736 0.665871
vt 0.626663 0.661568
vt 0.626404 0.692902
vt 0.604736 0.693810
vt 0.626663 0.698120
vt 0.605011 0.699394
s 0
usemtl decorations
f 240/1/1 239/2/1 238/3/1
f 237/1/1 236/4/1 235/2/1
f 234/5/1 233/4/1 232/1/1
f 231/5/1 230/6/1 229/4/1
f 228/6/1 227/5/1 226/7/1
s 1
f 225/8/2 224/9/3 223/10/4
f 222/11/5 221/9/3 220/8/6
f 219/11/7 218/12/8 217/9/3
f 216/13/9 215/12/10 214/11/7
f 213/12/8 212/13/11 211/14/12
f 210/15/13 209/11/7 208/16/14
f 207/15/13 206/13/15 205/11/5
f 204/17/16 203/18/17 202/19/18
f 201/17/19 200/16/20 199/18/21
f 198/20/22 197/19/18 196/21/23
f 195/20/22 194/17/24 193/19/18
f 192/19/18 191/22/25 190/23/26
f 189/19/18 188/18/27 187/22/25
f 186/21/28 185/23/26 184/24/29
f 183/21/28 3/19/18 182/23/26
f 181/23/26 180/25/30 179/26/31
f 178/23/26 177/22/32 176/25/33
f 175/24/34 174/26/31 173/27/35
f 172/24/34 4/23/26 171/26/31
f 170/28/36 169/29/37 168/30/38
f 167/28/36 166/31/39 165/29/37
f 164/32/40 163/30/41 162/33/42
f 161/32/40 13/28/31 160/30/43
f 159/30/38 158/34/44 157/35/45
f 156/30/38 155/29/46 154/34/44
f 153/33/42 152/35/45 151/36/47
f 150/33/42 14/30/38 149/35/48
f 148/35/48 147/15/13 146/37/49
f 145/35/48 144/34/44 143/15/50
f 142/36/47 141/37/49 140/38/51
f 139/36/47 16/35/48 138/37/49
f 137/37/52 136/16/14 135/17/24
f 134/37/53 133/15/13 132/16/14
f 131/38/54 130/17/24 129/20/22
f 128/38/54 36/37/55 25/17/24
f 127/39/56 126/20/22 125/40/57
f 124/39/56 123/38/58 122/20/22
f 121/41/59 120/36/60 119/42/61
f 118/41/59 117/33/62 116/36/60
f 115/43/63 114/27/35 113/44/64
f 112/43/65 111/24/66 110/27/35
f 109/40/67 108/21/68 107/45/69
f 106/40/67 40/20/22 105/21/68
f 104/42/70 103/38/51 102/39/71
f 101/42/70 41/36/47 42/38/51
f 100/46/72 99/33/42 98/41/59
f 97/46/73 37/32/40 38/33/42
f 96/45/74 95/24/66 94/43/65
f 93/45/74 33/21/23 34/24/66
f 92/29/75 91/14/12 90/34/44
f 89/29/75 88/12/8 87/14/76
f 86/22/32 85/9/3 84/25/30
f 83/22/32 82/10/4 81/9/3
f 80/16/20 79/8/2 78/18/21
f 29/16/77 30/11/5 77/8/2
f 76/31/39 75/12/8 28/29/37
f 31/31/39 26/9/3 27/12/8
f 74/18/78 73/10/4 24/22/25
f 21/18/78 22/8/2 23/10/4
f 72/34/79 71/13/9 20/15/13
f 17/34/79 18/14/12 19/13/80
f 70/47/81 69/48/82 68/49/83
f 67/47/84 66/50/57 65/48/85
f 64/51/86 63/52/56 62/53/87
f 61/51/86 60/54/70 59/52/71
f 58/55/88 57/56/59 56/57/89
f 55/55/90 54/58/73 53/56/59
f 52/49/83 51/59/63 50/60/91
f 2/49/83 32/48/85 49/59/63
f 48/53/92 47/50/67 12/47/93
f 9/53/94 10/52/56 11/50/57
f 46/57/95 45/54/70 8/51/86
f 5/57/96 6/56/59 7/54/61
f 44/60/91 43/61/97 15/62/90
f 1/60/91 35/59/65 39/61/73
