# Blender 5.0.0
# www.blender.org
mtllib Circle_005_Circle_Dupli_283_decorations_0.mtl
o Circle.005|Circle|Dupli|283_decorations_0
v -4.385554 1.727772 0.773566
v -4.384846 1.727387 0.772411
v -4.377944 1.727858 0.776118
v -4.378954 1.728407 0.777766
v -4.385810 1.730278 0.773262
v -4.381047 1.730994 0.775842
v -4.380444 1.731213 0.774693
v -4.385166 1.730512 0.772032
v -4.384535 1.729585 0.771181
v -4.379854 1.730345 0.773897
v -4.379721 1.729045 0.774054
v -4.384393 1.728194 0.771349
v -4.379566 1.730242 0.778306
v -4.379319 1.731982 0.777333
v -4.385983 1.729058 0.773945
v -4.378399 1.732317 0.775578
v -4.377145 1.732120 0.776412
v -4.376300 1.731642 0.777089
v -4.375822 1.730940 0.776444
v -4.376412 1.731043 0.775424
v -4.376774 1.728492 0.776852
v -4.376058 1.729274 0.777376
v -4.376595 1.729566 0.778251
v -4.377596 1.728938 0.778193
v -4.377296 1.729009 0.774603
v -4.376920 1.730541 0.778538
v -4.376789 1.731465 0.778021
v -4.377893 1.731848 0.777840
v -4.376247 1.729429 0.775619
v -4.375714 1.729886 0.776572
v -4.378094 1.730432 0.778633
v -4.380146 1.728291 0.775046
v -4.379290 1.727944 0.775429
v -4.380164 1.728419 0.776855
v -4.380807 1.728651 0.776126
v -4.377500 1.730993 0.774363
v -4.380693 1.730008 0.777323
v -4.380480 1.731514 0.776480
v -4.381208 1.729853 0.776480
v -4.378729 1.728940 0.774118
v -4.379684 1.731804 0.774962
v -4.378905 1.730658 0.773910
v -4.381208 1.729853 0.776480
v -4.385554 1.727772 0.773566
v -4.380444 1.731213 0.774693
v -4.385810 1.730278 0.773262
v -4.379721 1.729045 0.774054
v -4.384535 1.729585 0.771181
v -4.380807 1.728651 0.776126
v -4.385554 1.727772 0.773566
v -4.380807 1.728651 0.776126
v -4.384846 1.727387 0.772411
v -4.381047 1.730994 0.775842
v -4.381208 1.729853 0.776480
v -4.385983 1.729058 0.773945
v -4.385810 1.730278 0.773262
v -4.381047 1.730994 0.775842
v -4.385983 1.729058 0.773945
v -4.379854 1.730345 0.773897
v -4.380444 1.731213 0.774693
v -4.385166 1.730512 0.772032
v -4.384535 1.729585 0.771181
v -4.379854 1.730345 0.773897
v -4.385166 1.730512 0.772032
v -4.380146 1.728291 0.775046
v -4.379721 1.729045 0.774054
v -4.384393 1.728194 0.771349
v -4.384846 1.727387 0.772411
v -4.380146 1.728291 0.775046
v -4.384393 1.728194 0.771349
v -4.375822 1.730940 0.776444
v -4.377145 1.732120 0.776412
v -4.376595 1.729566 0.778251
v -4.376774 1.728492 0.776852
v -4.376789 1.731465 0.778021
v -4.378094 1.730432 0.778633
v -4.376058 1.729274 0.777376
v -4.376774 1.728492 0.776852
v -4.376058 1.729274 0.777376
v -4.376247 1.729429 0.775619
v -4.376920 1.730541 0.778538
v -4.376595 1.729566 0.778251
v -4.377596 1.728938 0.778193
v -4.378094 1.730432 0.778633
v -4.376920 1.730541 0.778538
v -4.377596 1.728938 0.778193
v -4.376300 1.731642 0.777089
v -4.376789 1.731465 0.778021
v -4.377893 1.731848 0.777840
v -4.377145 1.732120 0.776412
v -4.376300 1.731642 0.777089
v -4.377893 1.731848 0.777840
v -4.380146 1.728291 0.775046
v -4.380807 1.728651 0.776126
v -4.380164 1.728419 0.776855
v -4.380146 1.728291 0.775046
v -4.381208 1.729853 0.776480
v -4.381047 1.730994 0.775842
v -4.380480 1.731514 0.776480
v -4.381208 1.729853 0.776480
v -4.380444 1.731213 0.774693
v -4.379854 1.730345 0.773897
v -4.378905 1.730658 0.773910
v -4.380444 1.731213 0.774693
v -4.379290 1.727944 0.775429
v -4.379721 1.729045 0.774054
v -4.380146 1.728291 0.775046
v -4.379290 1.727944 0.775429
v -4.379721 1.729045 0.774054
v -4.380693 1.730008 0.777323
v -4.380164 1.728419 0.776855
v -4.380807 1.728651 0.776126
v -4.381208 1.729853 0.776480
v -4.380693 1.730008 0.777323
v -4.380807 1.728651 0.776126
v -4.379684 1.731804 0.774962
v -4.380480 1.731514 0.776480
v -4.381047 1.730994 0.775842
v -4.380444 1.731213 0.774693
v -4.379684 1.731804 0.774962
v -4.381047 1.730994 0.775842
v -4.378729 1.728940 0.774118
v -4.378905 1.730658 0.773910
v -4.379854 1.730345 0.773897
v -4.379721 1.729045 0.774054
v -4.378729 1.728940 0.774118
v -4.379854 1.730345 0.773897
v -4.378905 1.730658 0.773910
v -4.378729 1.728940 0.774118
v -4.377296 1.729009 0.774603
v -4.378905 1.730658 0.773910
v -4.376247 1.729429 0.775619
v -4.376412 1.731043 0.775424
v -4.377500 1.730993 0.774363
v -4.377296 1.729009 0.774603
v -4.376247 1.729429 0.775619
v -4.377500 1.730993 0.774363
v -4.377500 1.730993 0.774363
v -4.379684 1.731804 0.774962
v -4.378905 1.730658 0.773910
v -4.377500 1.730993 0.774363
v -4.379684 1.731804 0.774962
v -4.376412 1.731043 0.775424
v -4.377145 1.732120 0.776412
v -4.378399 1.732317 0.775578
v -4.377500 1.730993 0.774363
v -4.376412 1.731043 0.775424
v -4.378399 1.732317 0.775578
v -4.378399 1.732317 0.775578
v -4.380480 1.731514 0.776480
v -4.379684 1.731804 0.774962
v -4.378399 1.732317 0.775578
v -4.380480 1.731514 0.776480
v -4.377145 1.732120 0.776412
v -4.377893 1.731848 0.777840
v -4.379319 1.731982 0.777333
v -4.378399 1.732317 0.775578
v -4.377145 1.732120 0.776412
v -4.379319 1.731982 0.777333
v -4.379319 1.731982 0.777333
v -4.380693 1.730008 0.777323
v -4.380480 1.731514 0.776480
v -4.379319 1.731982 0.777333
v -4.380693 1.730008 0.777323
v -4.377893 1.731848 0.777840
v -4.378094 1.730432 0.778633
v -4.379566 1.730242 0.778306
v -4.379319 1.731982 0.777333
v -4.377893 1.731848 0.777840
v -4.379566 1.730242 0.778306
v -4.379566 1.730242 0.778306
v -4.380164 1.728419 0.776855
v -4.380693 1.730008 0.777323
v -4.379566 1.730242 0.778306
v -4.380164 1.728419 0.776855
v -4.378094 1.730432 0.778633
v -4.377596 1.728938 0.778193
v -4.378954 1.728407 0.777766
v -4.379566 1.730242 0.778306
v -4.378094 1.730432 0.778633
v -4.378954 1.728407 0.777766
v -4.378954 1.728407 0.777766
v -4.379290 1.727944 0.775429
v -4.380164 1.728419 0.776855
v -4.378954 1.728407 0.777766
v -4.379290 1.727944 0.775429
v -4.377596 1.728938 0.778193
v -4.376774 1.728492 0.776852
v -4.377944 1.727858 0.776118
v -4.378954 1.728407 0.777766
v -4.377596 1.728938 0.778193
v -4.377944 1.727858 0.776118
v -4.377944 1.727858 0.776118
v -4.377296 1.729009 0.774603
v -4.378729 1.728940 0.774118
v -4.379290 1.727944 0.775429
v -4.377944 1.727858 0.776118
v -4.378729 1.728940 0.774118
v -4.376774 1.728492 0.776852
v -4.376247 1.729429 0.775619
v -4.377296 1.729009 0.774603
v -4.377944 1.727858 0.776118
v -4.376774 1.728492 0.776852
v -4.377296 1.729009 0.774603
v -4.375714 1.729886 0.776572
v -4.375822 1.730940 0.776444
v -4.376412 1.731043 0.775424
v -4.376247 1.729429 0.775619
v -4.375714 1.729886 0.776572
v -4.376412 1.731043 0.775424
v -4.376300 1.731642 0.777089
v -4.375822 1.730940 0.776444
v -4.376789 1.731465 0.778021
v -4.375714 1.729886 0.776572
v -4.376789 1.731465 0.778021
v -4.375822 1.730940 0.776444
v -4.376920 1.730541 0.778538
v -4.376789 1.731465 0.778021
v -4.375714 1.729886 0.776572
v -4.376058 1.729274 0.777376
v -4.376920 1.730541 0.778538
v -4.375714 1.729886 0.776572
v -4.376595 1.729566 0.778251
v -4.376920 1.730541 0.778538
v -4.376058 1.729274 0.777376
v -4.385166 1.730512 0.772032
v -4.385810 1.730278 0.773262
v -4.384535 1.729585 0.771181
v -4.384393 1.728194 0.771349
v -4.384535 1.729585 0.771181
v -4.385810 1.730278 0.773262
v -4.385983 1.729058 0.773945
v -4.384393 1.728194 0.771349
v -4.385810 1.730278 0.773262
v -4.384846 1.727387 0.772411
v -4.384393 1.728194 0.771349
v -4.385983 1.729058 0.773945
v -4.385554 1.727772 0.773566
v -4.384846 1.727387 0.772411
v -4.385983 1.729058 0.773945
vn -0.8644 -0.1466 -0.4810
vn 0.8311 -0.4288 0.3540
vn 0.4361 0.1520 0.8870
vn 0.5852 -0.2951 0.7553
vn 0.9888 -0.1484 -0.0148
vn 0.8312 -0.4288 0.3539
vn 0.9888 -0.1485 -0.0148
vn 0.4962 0.5758 0.6498
vn 0.9394 0.3348 -0.0733
vn 0.7202 0.6571 0.2224
vn 0.7180 0.4059 -0.5655
vn 0.7979 -0.3765 -0.4707
vn 0.7179 0.4059 -0.5655
vn 0.5199 -0.4721 -0.7120
vn 0.5427 -0.8304 0.1263
vn 0.2406 -0.9689 -0.0584
vn 0.5199 -0.4720 -0.7119
vn 0.5427 -0.8303 0.1263
vn 0.1673 -0.4994 -0.8501
vn 0.2405 -0.9689 -0.0584
vn -0.0958 -0.9674 -0.2344
vn 0.1445 -0.6139 0.7760
vn -0.1953 -0.7320 0.6528
vn -0.5064 -0.7442 0.4356
vn -0.0969 0.1099 0.9892
vn -0.4595 0.0603 0.8861
vn -0.0968 0.1099 0.9892
vn -0.5065 -0.7442 0.4355
vn -0.4595 0.0604 0.8861
vn -0.7553 0.0022 0.6554
vn -0.1953 -0.7319 0.6528
vn -0.4596 0.0604 0.8861
vn 0.0004 0.7960 0.6053
vn -0.3531 0.8113 0.4659
vn -0.7553 0.0022 0.6553
vn -0.6550 0.7097 0.2596
vn -0.3530 0.8113 0.4660
vn 0.3630 0.9277 -0.0865
vn 0.0439 0.9556 -0.2915
vn -0.6550 0.7096 0.2595
vn -0.2811 0.8455 -0.4540
vn 0.7179 0.4060 -0.5655
vn 0.4324 0.3844 -0.8157
vn 0.3630 0.9277 -0.0866
vn 0.7180 0.4060 -0.5654
vn 0.0849 0.3075 -0.9478
vn 0.4324 0.3843 -0.8157
vn 0.5199 -0.4721 -0.7119
vn 0.4324 0.3844 -0.8156
vn 0.0849 0.3074 -0.9478
vn 0.1674 -0.4994 -0.8501
vn 0.1604 0.3276 -0.9311
vn 0.2449 -0.4996 -0.8309
vn 0.1603 0.3277 -0.9311
vn -0.5984 0.7401 0.3069
vn -0.2811 0.8455 -0.4539
vn -0.2150 0.8794 -0.4247
vn -0.6551 0.7096 0.2595
vn -0.4460 -0.7507 0.4874
vn -0.7012 0.0147 0.7128
vn -0.0250 -0.9795 -0.1997
vn -0.2149 0.8794 -0.4247
vn -0.6550 0.7096 0.2596
vn -0.5984 0.7401 0.3068
vn -0.7012 0.0146 0.7128
vn -0.0249 -0.9796 -0.1996
vn -0.0250 -0.9796 -0.1996
vn 0.4962 0.5757 0.6498
vn 0.7202 0.6572 0.2224
vn 0.1445 -0.6139 0.7761
vn 0.4362 0.1520 0.8869
vn 0.8312 -0.4288 0.3540
vn 0.7979 -0.3766 -0.4707
vn 0.3631 0.9277 -0.0866
vn 0.5042 -0.4750 -0.7212
vn 0.2247 -0.9721 -0.0674
vn 0.0279 0.9533 -0.3006
vn 0.1604 0.3277 -0.9311
vn 0.4166 0.3819 -0.8250
vn 0.0280 0.9534 -0.3006
vn -0.2149 0.8794 -0.4248
vn -0.4758 0.0577 0.8777
vn -0.3693 0.8090 0.4573
vn -0.4757 0.0577 0.8777
vn 0.2247 -0.9721 -0.0673
vn -0.2114 -0.7351 0.6442
vn 0.2449 -0.4997 -0.8309
vn 0.4167 0.3819 -0.8250
vn -0.3693 0.8091 0.4573
vn 0.0279 0.9534 -0.3005
vn -0.3692 0.8091 0.4573
vn -0.2114 -0.7350 0.6442
vt 0.543243 0.611839
vt 0.535370 0.618118
vt 0.537796 0.613083
vt 0.537796 0.623154
vt 0.547607 0.615326
vt 0.543243 0.624397
vt 0.547607 0.620918
vt 0.565384 0.671494
vt 0.570206 0.669548
vt 0.567856 0.672157
vt 0.564468 0.669609
vt 0.568146 0.666756
vt 0.564514 0.667854
vt 0.565857 0.666748
vt 0.562897 0.666855
vt 0.562302 0.669838
vt 0.559082 0.669685
vt 0.563492 0.673050
vt 0.560059 0.674789
vt 0.554092 0.669067
vt 0.554398 0.676537
vt 0.567307 0.675606
vt 0.564316 0.680244
vt 0.558044 0.684982
vt 0.575485 0.674767
vt 0.575272 0.686485
vt 0.565720 0.696274
vt 0.575485 0.658051
vt 0.568817 0.663902
vt 0.568115 0.659698
vt 0.574570 0.665543
vt 0.572052 0.651657
vt 0.565903 0.655174
vt 0.565063 0.664742
vt 0.563416 0.661980
vt 0.560669 0.658463
vt 0.560364 0.665283
vt 0.556488 0.662933
vt 0.552032 0.660286
vt 0.548294 0.668175
vt 0.563522 0.651588
vt 0.557617 0.654999
vt 0.551163 0.688484
vt 0.556610 0.699394
vt 0.547867 0.678001
vt 0.568756 0.648293
vt 0.604446 0.682632
vt 0.626221 0.687675
vt 0.604553 0.688225
vt 0.626144 0.682457
vt 0.604553 0.671455
vt 0.626144 0.677231
vt 0.604446 0.677048
vt 0.626221 0.672005
vt 0.605011 0.660294
vt 0.626404 0.666786
vt 0.604736 0.665871
vt 0.626663 0.661568
vt 0.626404 0.692902
vt 0.604736 0.693810
vt 0.626663 0.698120
vt 0.605011 0.699394
s 0
usemtl decorations
f 240/1/1 239/2/1 238/3/1
f 237/1/1 236/4/1 235/2/1
f 234/5/1 233/4/1 232/1/1
f 231/5/1 230/6/1 229/4/1
f 228/6/1 227/5/1 226/7/1
s 1
f 225/8/2 224/9/3 223/10/4
f 222/11/5 221/9/3 220/8/6
f 219/11/7 218/12/8 217/9/3
f 216/13/9 215/12/8 214/11/7
f 213/12/8 212/13/9 211/14/10
f 210/15/11 209/11/7 208/16/12
f 207/15/13 206/13/9 205/11/5
f 204/17/14 203/18/15 202/19/16
f 201/17/17 200/16/12 199/18/18
f 198/20/19 197/19/20 196/21/21
f 195/20/19 194/17/17 193/19/16
f 192/19/16 191/22/22 190/23/23
f 189/19/16 188/18/15 187/22/22
f 186/21/21 185/23/23 184/24/24
f 183/21/21 3/19/16 182/23/23
f 181/23/23 180/25/25 179/26/26
f 178/23/23 177/22/22 176/25/27
f 175/24/28 174/26/29 173/27/30
f 172/24/28 4/23/31 171/26/29
f 170/28/32 169/29/33 168/30/34
f 167/28/29 166/31/25 165/29/33
f 164/32/35 163/30/34 162/33/36
f 161/32/30 13/28/29 160/30/37
f 159/30/34 158/34/38 157/35/39
f 156/30/34 155/29/33 154/34/38
f 153/33/40 152/35/39 151/36/41
f 150/33/40 14/30/34 149/35/39
f 148/35/39 147/15/42 146/37/43
f 145/35/39 144/34/44 143/15/45
f 142/36/41 141/37/43 140/38/46
f 139/36/41 16/35/39 138/37/43
f 137/37/47 136/16/12 135/17/48
f 134/37/49 133/15/13 132/16/12
f 131/38/50 130/17/48 129/20/51
f 128/38/50 36/37/49 25/17/48
f 127/39/52 126/20/51 125/40/53
f 124/39/54 123/38/50 122/20/51
f 121/41/55 120/36/56 119/42/57
f 118/41/55 117/33/58 116/36/56
f 115/43/59 114/27/30 113/44/60
f 112/43/59 111/24/24 110/27/30
f 109/40/53 108/21/21 107/45/61
f 106/40/53 40/20/19 105/21/21
f 104/42/62 103/38/46 102/39/54
f 101/42/57 41/36/41 42/38/46
f 100/46/60 99/33/63 98/41/64
f 97/46/65 37/32/30 38/33/40
f 96/45/66 95/24/24 94/43/59
f 93/45/67 33/21/21 34/24/24
f 92/29/33 91/14/10 90/34/38
f 89/29/33 88/12/68 87/14/69
f 86/22/70 85/9/3 84/25/27
f 83/22/70 82/10/4 81/9/71
f 80/16/12 79/8/72 78/18/15
f 29/16/73 30/11/5 77/8/72
f 76/31/27 75/12/8 28/29/33
f 31/31/27 26/9/71 27/12/68
f 74/18/15 73/10/4 24/22/22
f 21/18/15 22/8/72 23/10/4
f 72/34/74 71/13/9 20/15/11
f 17/34/74 18/14/10 19/13/9
f 70/47/75 69/48/66 68/49/76
f 67/47/75 66/50/53 65/48/66
f 64/51/77 63/52/78 62/53/79
f 61/51/80 60/54/81 59/52/54
f 58/55/82 57/56/64 56/57/83
f 55/55/84 54/58/65 53/56/64
f 52/49/85 51/59/59 50/60/86
f 2/49/85 32/48/67 49/59/59
f 48/53/79 47/50/87 12/47/75
f 9/53/88 10/52/54 11/50/53
f 46/57/89 45/54/62 8/51/90
f 5/57/91 6/56/64 7/54/57
f 44/60/86 43/61/65 15/62/84
f 1/60/92 35/59/59 39/61/65
