# Blender 5.0.0
# www.blender.org
mtllib Circle_002_Circle_003_Dupli_45_decorations_0.mtl
o Circle.002|Circle.003|Dupli|45_decorations_0
v -4.617957 1.578402 0.712885
v -4.617528 1.577546 0.713918
v -4.617813 1.583318 0.719229
v -4.618424 1.584539 0.717755
v -4.615773 1.579169 0.711845
v -4.615658 1.583344 0.715370
v -4.614753 1.582721 0.716095
v -4.614805 1.578503 0.712621
v -4.615001 1.577627 0.713707
v -4.614936 1.581902 0.717110
v -4.616069 1.581504 0.717649
v -4.616213 1.577201 0.714284
v -4.617310 1.585570 0.716439
v -4.615308 1.585634 0.716272
v -4.617176 1.579124 0.711963
v -4.613927 1.584684 0.717379
v -4.614297 1.585739 0.718408
v -4.614893 1.586391 0.719195
v -4.615041 1.585727 0.720017
v -4.614525 1.584722 0.719668
v -4.617459 1.584628 0.719913
v -4.616957 1.585666 0.720177
v -4.617281 1.586315 0.719395
v -4.617957 1.585622 0.718714
v -4.615936 1.582826 0.719751
v -4.616689 1.586862 0.718696
v -4.615626 1.586896 0.718607
v -4.615421 1.586513 0.717507
v -4.615932 1.584228 0.720337
v -4.615960 1.585405 0.720454
v -4.617049 1.586461 0.717643
v -4.617299 1.581826 0.717307
v -4.617628 1.582299 0.718124
v -4.618157 1.583356 0.716848
v -4.617700 1.582626 0.716342
v -4.614207 1.583434 0.718928
v -4.617192 1.584249 0.715709
v -4.615460 1.584304 0.715564
v -4.616969 1.583302 0.715479
v -4.616004 1.581873 0.718576
v -4.614265 1.583481 0.716523
v -4.614507 1.582399 0.717863
v -4.616969 1.583302 0.715479
v -4.617957 1.578402 0.712885
v -4.614753 1.582721 0.716095
v -4.615773 1.579169 0.711845
v -4.616069 1.581504 0.717649
v -4.615001 1.577627 0.713707
v -4.617700 1.582626 0.716342
v -4.617957 1.578402 0.712885
v -4.617700 1.582626 0.716342
v -4.617528 1.577546 0.713918
v -4.615658 1.583344 0.715370
v -4.616969 1.583302 0.715479
v -4.617176 1.579124 0.711963
v -4.615773 1.579169 0.711845
v -4.615658 1.583344 0.715370
v -4.617176 1.579124 0.711963
v -4.614936 1.581902 0.717110
v -4.614753 1.582721 0.716095
v -4.614805 1.578503 0.712621
v -4.615001 1.577627 0.713707
v -4.614936 1.581902 0.717110
v -4.614805 1.578503 0.712621
v -4.617299 1.581826 0.717307
v -4.616069 1.581504 0.717649
v -4.616213 1.577201 0.714284
v -4.617528 1.577546 0.713918
v -4.617299 1.581826 0.717307
v -4.616213 1.577201 0.714284
v -4.615041 1.585727 0.720017
v -4.614297 1.585739 0.718408
v -4.617281 1.586315 0.719395
v -4.617459 1.584628 0.719913
v -4.615626 1.586896 0.718607
v -4.617049 1.586461 0.717643
v -4.616957 1.585666 0.720177
v -4.617459 1.584628 0.719913
v -4.616957 1.585666 0.720177
v -4.615932 1.584228 0.720337
v -4.616689 1.586862 0.718696
v -4.617281 1.586315 0.719395
v -4.617957 1.585622 0.718714
v -4.617049 1.586461 0.717643
v -4.616689 1.586862 0.718696
v -4.617957 1.585622 0.718714
v -4.614893 1.586391 0.719195
v -4.615626 1.586896 0.718607
v -4.615421 1.586513 0.717507
v -4.614297 1.585739 0.718408
v -4.614893 1.586391 0.719195
v -4.615421 1.586513 0.717507
v -4.617299 1.581826 0.717307
v -4.617700 1.582626 0.716342
v -4.618157 1.583356 0.716848
v -4.617299 1.581826 0.717307
v -4.616969 1.583302 0.715479
v -4.615658 1.583344 0.715370
v -4.615460 1.584304 0.715564
v -4.616969 1.583302 0.715479
v -4.614753 1.582721 0.716095
v -4.614936 1.581902 0.717110
v -4.614507 1.582399 0.717863
v -4.614753 1.582721 0.716095
v -4.617628 1.582299 0.718124
v -4.616069 1.581504 0.717649
v -4.617299 1.581826 0.717307
v -4.617628 1.582299 0.718124
v -4.616069 1.581504 0.717649
v -4.617192 1.584249 0.715709
v -4.618157 1.583356 0.716848
v -4.617700 1.582626 0.716342
v -4.616969 1.583302 0.715479
v -4.617192 1.584249 0.715709
v -4.617700 1.582626 0.716342
v -4.614265 1.583481 0.716523
v -4.615460 1.584304 0.715564
v -4.615658 1.583344 0.715370
v -4.614753 1.582721 0.716095
v -4.614265 1.583481 0.716523
v -4.615658 1.583344 0.715370
v -4.616004 1.581873 0.718576
v -4.614507 1.582399 0.717863
v -4.614936 1.581902 0.717110
v -4.616069 1.581504 0.717649
v -4.616004 1.581873 0.718576
v -4.614936 1.581902 0.717110
v -4.614507 1.582399 0.717863
v -4.616004 1.581873 0.718576
v -4.615936 1.582826 0.719751
v -4.614507 1.582399 0.717863
v -4.615932 1.584228 0.720337
v -4.614525 1.584722 0.719668
v -4.614207 1.583434 0.718928
v -4.615936 1.582826 0.719751
v -4.615932 1.584228 0.720337
v -4.614207 1.583434 0.718928
v -4.614207 1.583434 0.718928
v -4.614265 1.583481 0.716523
v -4.614507 1.582399 0.717863
v -4.614207 1.583434 0.718928
v -4.614265 1.583481 0.716523
v -4.614525 1.584722 0.719668
v -4.614297 1.585739 0.718408
v -4.613927 1.584684 0.717379
v -4.614207 1.583434 0.718928
v -4.614525 1.584722 0.719668
v -4.613927 1.584684 0.717379
v -4.613927 1.584684 0.717379
v -4.615460 1.584304 0.715564
v -4.614265 1.583481 0.716523
v -4.613927 1.584684 0.717379
v -4.615460 1.584304 0.715564
v -4.614297 1.585739 0.718408
v -4.615421 1.586513 0.717507
v -4.615308 1.585634 0.716272
v -4.613927 1.584684 0.717379
v -4.614297 1.585739 0.718408
v -4.615308 1.585634 0.716272
v -4.615308 1.585634 0.716272
v -4.617192 1.584249 0.715709
v -4.615460 1.584304 0.715564
v -4.615308 1.585634 0.716272
v -4.617192 1.584249 0.715709
v -4.615421 1.586513 0.717507
v -4.617049 1.586461 0.717643
v -4.617310 1.585570 0.716439
v -4.615308 1.585634 0.716272
v -4.615421 1.586513 0.717507
v -4.617310 1.585570 0.716439
v -4.617310 1.585570 0.716439
v -4.618157 1.583356 0.716848
v -4.617192 1.584249 0.715709
v -4.617310 1.585570 0.716439
v -4.618157 1.583356 0.716848
v -4.617049 1.586461 0.717643
v -4.617957 1.585622 0.718714
v -4.618424 1.584539 0.717755
v -4.617310 1.585570 0.716439
v -4.617049 1.586461 0.717643
v -4.618424 1.584539 0.717755
v -4.618424 1.584539 0.717755
v -4.617628 1.582299 0.718124
v -4.618157 1.583356 0.716848
v -4.618424 1.584539 0.717755
v -4.617628 1.582299 0.718124
v -4.617957 1.585622 0.718714
v -4.617459 1.584628 0.719913
v -4.617813 1.583318 0.719229
v -4.618424 1.584539 0.717755
v -4.617957 1.585622 0.718714
v -4.617813 1.583318 0.719229
v -4.617813 1.583318 0.719229
v -4.615936 1.582826 0.719751
v -4.616004 1.581873 0.718576
v -4.617628 1.582299 0.718124
v -4.617813 1.583318 0.719229
v -4.616004 1.581873 0.718576
v -4.617459 1.584628 0.719913
v -4.615932 1.584228 0.720337
v -4.615936 1.582826 0.719751
v -4.617813 1.583318 0.719229
v -4.617459 1.584628 0.719913
v -4.615936 1.582826 0.719751
v -4.615960 1.585405 0.720454
v -4.615041 1.585727 0.720017
v -4.614525 1.584722 0.719668
v -4.615932 1.584228 0.720337
v -4.615960 1.585405 0.720454
v -4.614525 1.584722 0.719668
v -4.614893 1.586391 0.719195
v -4.615041 1.585727 0.720017
v -4.615626 1.586896 0.718607
v -4.615960 1.585405 0.720454
v -4.615626 1.586896 0.718607
v -4.615041 1.585727 0.720017
v -4.616689 1.586862 0.718696
v -4.615626 1.586896 0.718607
v -4.615960 1.585405 0.720454
v -4.616957 1.585666 0.720177
v -4.616689 1.586862 0.718696
v -4.615960 1.585405 0.720454
v -4.617281 1.586315 0.719395
v -4.616689 1.586862 0.718696
v -4.616957 1.585666 0.720177
v -4.614805 1.578503 0.712621
v -4.615773 1.579169 0.711845
v -4.615001 1.577627 0.713707
v -4.616213 1.577201 0.714284
v -4.615001 1.577627 0.713707
v -4.615773 1.579169 0.711845
v -4.617176 1.579124 0.711963
v -4.616213 1.577201 0.714284
v -4.615773 1.579169 0.711845
v -4.617528 1.577546 0.713918
v -4.616213 1.577201 0.714284
v -4.617176 1.579124 0.711963
v -4.617957 1.578402 0.712885
v -4.617528 1.577546 0.713918
v -4.617176 1.579124 0.711963
vn -0.0279 -0.7753 -0.6309
vn -0.3863 0.4045 0.8289
vn -0.2636 0.9530 0.1495
vn -0.5351 0.7019 0.4701
vn 0.0709 0.2846 0.9560
vn -0.2637 0.9530 0.1495
vn -0.3863 0.4045 0.8290
vn 0.0708 0.2846 0.9560
vn 0.2237 0.9686 0.1088
vn 0.4919 0.4326 0.7555
vn 0.4919 0.4326 0.7556
vn 0.5600 0.7370 0.3785
vn 0.7705 -0.0198 0.6372
vn 0.0708 0.2847 0.9560
vn 0.0887 -0.2593 0.9617
vn 0.4919 0.4327 0.7555
vn 0.0857 -0.6010 0.7946
vn -0.6513 -0.0654 0.7560
vn -0.7243 -0.3886 0.5695
vn 0.0857 -0.6010 0.7947
vn 0.0887 -0.2594 0.9617
vn -0.6513 -0.0653 0.7560
vn 0.0703 -0.8554 0.5132
vn -0.6928 -0.6552 0.3012
vn 0.0703 -0.8554 0.5133
vn -0.7243 -0.3886 0.5696
vn -0.8923 0.4162 0.1750
vn -0.9881 0.1385 -0.0665
vn -0.6928 -0.6553 0.3011
vn -0.9413 -0.1587 -0.2980
vn -0.4528 0.8226 -0.3440
vn -0.5070 0.5834 -0.6345
vn -0.8923 0.4162 0.1749
vn -0.4528 0.8226 -0.3439
vn -0.9413 -0.1588 -0.2980
vn -0.4881 0.2604 -0.8331
vn -0.5070 0.5833 -0.6346
vn 0.3362 0.8479 -0.4099
vn 0.3566 0.6111 -0.7067
vn -0.5070 0.5833 -0.6345
vn -0.4880 0.2603 -0.8331
vn 0.3566 0.6110 -0.7067
vn 0.3255 0.2865 -0.9011
vn -0.4880 0.2604 -0.8331
vn 0.8806 0.4730 0.0267
vn 0.9526 0.2007 -0.2288
vn 0.3363 0.8479 -0.4099
vn 0.3256 0.2864 -0.9011
vn 0.9526 0.2006 -0.2288
vn 0.8870 -0.1001 -0.4508
vn 0.7705 -0.0198 0.6371
vn 0.8320 -0.3387 0.4394
vn 0.8807 0.4730 0.0267
vn 0.7705 -0.0197 0.6371
vn 0.8870 -0.1002 -0.4508
vn 0.7734 -0.6082 0.1786
vn 0.8320 -0.3388 0.4394
vn 0.7733 -0.6083 0.1786
vn 0.0703 -0.8553 0.5133
vn 0.7734 -0.6083 0.1786
vn 0.7954 -0.5580 0.2366
vn 0.0745 -0.8114 0.5798
vn 0.7954 -0.5581 0.2366
vn 0.3362 0.3594 -0.8705
vn 0.8870 -0.1001 -0.4509
vn 0.9119 -0.0370 -0.4088
vn 0.3255 0.2864 -0.9011
vn -0.9628 -0.0970 -0.2521
vn -0.4981 0.3327 -0.8008
vn -0.9628 -0.0971 -0.2521
vn 0.0745 -0.8113 0.5798
vn -0.6928 -0.6553 0.3012
vn -0.7080 -0.6062 0.3623
vn -0.4981 0.3327 -0.8007
vn -0.5352 0.7019 0.4701
vn -0.2637 0.9529 0.1496
vn -0.5352 0.7019 0.4700
vn 0.0852 -0.6156 0.7834
vn -0.7252 -0.4032 0.5582
vn 0.9526 0.1864 -0.2405
vn 0.8319 -0.3532 0.4279
vn -0.5078 0.5693 -0.6465
vn 0.3562 0.5970 -0.7188
vn -0.5078 0.5694 -0.6465
vn -0.7252 -0.4031 0.5581
vn -0.9892 0.1242 -0.0782
vn 0.8319 -0.3533 0.4280
vn 0.0744 -0.8113 0.5798
vn 0.8319 -0.3532 0.4280
vn 0.3563 0.5970 -0.7188
vn 0.9526 0.1864 -0.2406
vn 0.3563 0.5970 -0.7187
vt 0.530319 0.611839
vt 0.522446 0.618118
vt 0.524872 0.613083
vt 0.524872 0.623154
vt 0.534683 0.615326
vt 0.530319 0.624397
vt 0.534683 0.620918
vt 0.537079 0.671494
vt 0.541916 0.669548
vt 0.539566 0.672157
vt 0.536179 0.669609
vt 0.539856 0.666756
vt 0.536224 0.667854
vt 0.537567 0.666748
vt 0.534592 0.666855
vt 0.534012 0.669838
vt 0.530777 0.669685
vt 0.535187 0.673050
vt 0.531769 0.674789
vt 0.525803 0.669067
vt 0.526108 0.676537
vt 0.539017 0.675606
vt 0.536011 0.680244
vt 0.529755 0.684982
vt 0.547180 0.674767
vt 0.546982 0.686485
vt 0.537415 0.696274
vt 0.547180 0.658051
vt 0.540527 0.663902
vt 0.539825 0.659698
vt 0.546280 0.665543
vt 0.543762 0.651657
vt 0.537613 0.655174
vt 0.536758 0.664742
vt 0.535126 0.661980
vt 0.532364 0.658463
vt 0.532074 0.665283
vt 0.528198 0.662933
vt 0.523743 0.660286
vt 0.519989 0.668175
vt 0.535217 0.651588
vt 0.529327 0.654999
vt 0.522873 0.688484
vt 0.528320 0.699394
vt 0.519577 0.678001
vt 0.540466 0.648293
vt 0.604446 0.642853
vt 0.626221 0.647896
vt 0.604553 0.648445
vt 0.626144 0.642670
vt 0.604553 0.631676
vt 0.626144 0.637444
vt 0.604446 0.637268
vt 0.626221 0.632225
vt 0.605011 0.620506
vt 0.626404 0.626999
vt 0.604736 0.626091
vt 0.626663 0.621780
vt 0.626404 0.653114
vt 0.604736 0.654030
vt 0.626663 0.658333
vt 0.605011 0.659607
s 0
usemtl decorations
f 240/1/1 239/2/1 238/3/1
f 237/1/1 236/4/1 235/2/1
f 234/5/1 233/4/1 232/1/1
f 231/5/1 230/6/1 229/4/1
f 228/6/1 227/5/1 226/7/1
s 1
f 225/8/2 224/9/3 223/10/4
f 222/11/5 221/9/6 220/8/7
f 219/11/8 218/12/9 217/9/3
f 216/13/10 215/12/9 214/11/8
f 213/12/9 212/13/11 211/14/12
f 210/15/13 209/11/14 208/16/15
f 207/15/13 206/13/16 205/11/14
f 204/17/17 203/18/18 202/19/19
f 201/17/20 200/16/21 199/18/22
f 198/20/23 197/19/19 196/21/24
f 195/20/25 194/17/20 193/19/26
f 192/19/19 191/22/27 190/23/28
f 189/19/19 188/18/18 187/22/27
f 186/21/29 185/23/28 184/24/30
f 183/21/29 3/19/19 182/23/28
f 181/23/28 180/25/31 179/26/32
f 178/23/28 177/22/33 176/25/34
f 175/24/35 174/26/32 173/27/36
f 172/24/35 4/23/28 171/26/32
f 170/28/37 169/29/38 168/30/39
f 167/28/40 166/31/31 165/29/38
f 164/32/41 163/30/42 162/33/43
f 161/32/44 13/28/32 160/30/39
f 159/30/42 158/34/45 157/35/46
f 156/30/39 155/29/47 154/34/45
f 153/33/48 152/35/49 151/36/50
f 150/33/48 14/30/42 149/35/49
f 148/35/49 147/15/51 146/37/52
f 145/35/49 144/34/53 143/15/54
f 142/36/55 141/37/52 140/38/56
f 139/36/55 16/35/49 138/37/52
f 137/37/57 136/16/21 135/17/20
f 134/37/52 133/15/51 132/16/15
f 131/38/58 130/17/20 129/20/59
f 128/38/60 36/37/52 25/17/20
f 127/39/61 126/20/59 125/40/62
f 124/39/63 123/38/60 122/20/59
f 121/41/64 120/36/65 119/42/66
f 118/41/64 117/33/67 116/36/65
f 115/43/68 114/27/36 113/44/69
f 112/43/70 111/24/30 110/27/36
f 109/40/71 108/21/72 107/45/73
f 106/40/71 40/20/23 105/21/72
f 104/42/66 103/38/60 102/39/61
f 101/42/66 41/36/55 42/38/60
f 100/46/74 99/33/67 98/41/64
f 97/46/69 37/32/44 38/33/67
f 96/45/73 95/24/30 94/43/70
f 93/45/73 33/21/72 34/24/30
f 92/29/47 91/14/12 90/34/45
f 89/29/47 88/12/9 87/14/12
f 86/22/33 85/9/3 84/25/34
f 83/22/33 82/10/75 81/9/76
f 80/16/21 79/8/2 78/18/22
f 29/16/21 30/11/5 77/8/7
f 76/31/34 75/12/9 28/29/38
f 31/31/34 26/9/76 27/12/9
f 74/18/18 73/10/77 24/22/27
f 21/18/18 22/8/7 23/10/4
f 72/34/53 71/13/11 20/15/51
f 17/34/53 18/14/12 19/13/16
f 70/47/78 69/48/73 68/49/79
f 67/47/78 66/50/62 65/48/73
f 64/51/80 63/52/61 62/53/81
f 61/51/80 60/54/66 59/52/61
f 58/55/82 57/56/64 56/57/83
f 55/55/84 54/58/69 53/56/64
f 52/49/85 51/59/68 50/60/86
f 2/49/85 32/48/73 49/59/70
f 48/53/87 47/50/88 12/47/78
f 9/53/89 10/52/61 11/50/62
f 46/57/90 45/54/66 8/51/91
f 5/57/92 6/56/64 7/54/66
f 44/60/86 43/61/74 15/62/82
f 1/60/86 35/59/70 39/61/74
