# Blender 5.0.0
# www.blender.org
mtllib Circle_005_Circle_Dupli_147_decorations_0.mtl
o Circle.005|Circle|Dupli|147_decorations_0
v -4.594435 1.702257 0.661595
v -4.594614 1.701770 0.660286
v -4.597940 1.708475 0.657923
v -4.597684 1.709171 0.659791
v -4.596498 1.701404 0.662803
v -4.599124 1.705977 0.661372
v -4.599769 1.705325 0.660427
v -4.597186 1.700706 0.661792
v -4.596821 1.700526 0.660444
v -4.599427 1.705157 0.659167
v -4.598357 1.705599 0.658540
v -4.595676 1.701000 0.659774
v -4.598880 1.708938 0.661389
v -4.600627 1.707954 0.661514
v -4.595273 1.702094 0.662715
v -4.601609 1.706958 0.660072
v -4.601951 1.708361 0.659596
v -4.601868 1.709463 0.659175
v -4.601591 1.709327 0.658153
v -4.601526 1.708152 0.658031
v -4.598964 1.709595 0.657848
v -4.599919 1.710269 0.658034
v -4.599783 1.710638 0.659026
v -4.598756 1.710161 0.659368
v -4.599455 1.707376 0.657192
v -4.600418 1.710515 0.659875
v -4.601346 1.709992 0.659941
v -4.601151 1.709171 0.660770
v -4.600197 1.708701 0.657253
v -4.600724 1.709685 0.657646
v -4.599729 1.709972 0.660668
v -4.597364 1.706319 0.659020
v -4.597440 1.707163 0.658489
v -4.597218 1.707765 0.660105
v -4.597197 1.706775 0.660243
v -4.601088 1.706701 0.658148
v -4.598253 1.707564 0.661488
v -4.599765 1.706711 0.661596
v -4.597980 1.706622 0.661290
v -4.598751 1.706212 0.657856
v -4.600616 1.705849 0.660348
v -4.600164 1.705627 0.658683
v -4.597980 1.706622 0.661290
v -4.594435 1.702257 0.661595
v -4.599769 1.705325 0.660427
v -4.596498 1.701404 0.662803
v -4.598357 1.705599 0.658540
v -4.596821 1.700526 0.660444
v -4.597197 1.706775 0.660243
v -4.594435 1.702257 0.661595
v -4.597197 1.706775 0.660243
v -4.594614 1.701770 0.660286
v -4.599124 1.705977 0.661372
v -4.597980 1.706622 0.661290
v -4.595273 1.702094 0.662715
v -4.596498 1.701404 0.662803
v -4.599124 1.705977 0.661372
v -4.595273 1.702094 0.662715
v -4.599427 1.705157 0.659167
v -4.599769 1.705325 0.660427
v -4.597186 1.700706 0.661792
v -4.596821 1.700526 0.660444
v -4.599427 1.705157 0.659167
v -4.597186 1.700706 0.661792
v -4.597364 1.706319 0.659020
v -4.598357 1.705599 0.658540
v -4.595676 1.701000 0.659774
v -4.594614 1.701770 0.660286
v -4.597364 1.706319 0.659020
v -4.595676 1.701000 0.659774
v -4.601591 1.709327 0.658153
v -4.601951 1.708361 0.659596
v -4.599783 1.710638 0.659026
v -4.598964 1.709595 0.657848
v -4.601346 1.709992 0.659941
v -4.599729 1.709972 0.660668
v -4.599919 1.710269 0.658034
v -4.598964 1.709595 0.657848
v -4.599919 1.710269 0.658034
v -4.600197 1.708701 0.657253
v -4.600418 1.710515 0.659875
v -4.599783 1.710638 0.659026
v -4.598756 1.710161 0.659368
v -4.599729 1.709972 0.660668
v -4.600418 1.710515 0.659875
v -4.598756 1.710161 0.659368
v -4.601868 1.709463 0.659175
v -4.601346 1.709992 0.659941
v -4.601151 1.709171 0.660770
v -4.601951 1.708361 0.659596
v -4.601868 1.709463 0.659175
v -4.601151 1.709171 0.660770
v -4.597364 1.706319 0.659020
v -4.597197 1.706775 0.660243
v -4.597218 1.707765 0.660105
v -4.597364 1.706319 0.659020
v -4.597980 1.706622 0.661290
v -4.599124 1.705977 0.661372
v -4.599765 1.706711 0.661596
v -4.597980 1.706622 0.661290
v -4.599769 1.705325 0.660427
v -4.599427 1.705157 0.659167
v -4.600164 1.705627 0.658683
v -4.599769 1.705325 0.660427
v -4.597440 1.707163 0.658489
v -4.598357 1.705599 0.658540
v -4.597364 1.706319 0.659020
v -4.597440 1.707163 0.658489
v -4.598357 1.705599 0.658540
v -4.598253 1.707564 0.661488
v -4.597218 1.707765 0.660105
v -4.597197 1.706775 0.660243
v -4.597980 1.706622 0.661290
v -4.598253 1.707564 0.661488
v -4.597197 1.706775 0.660243
v -4.600616 1.705849 0.660348
v -4.599765 1.706711 0.661596
v -4.599124 1.705977 0.661372
v -4.599769 1.705325 0.660427
v -4.600616 1.705849 0.660348
v -4.599124 1.705977 0.661372
v -4.598751 1.706212 0.657856
v -4.600164 1.705627 0.658683
v -4.599427 1.705157 0.659167
v -4.598357 1.705599 0.658540
v -4.598751 1.706212 0.657856
v -4.599427 1.705157 0.659167
v -4.600164 1.705627 0.658683
v -4.598751 1.706212 0.657856
v -4.599455 1.707376 0.657192
v -4.600164 1.705627 0.658683
v -4.600197 1.708701 0.657253
v -4.601526 1.708152 0.658031
v -4.601088 1.706701 0.658148
v -4.599455 1.707376 0.657192
v -4.600197 1.708701 0.657253
v -4.601088 1.706701 0.658148
v -4.601088 1.706701 0.658148
v -4.600616 1.705849 0.660348
v -4.600164 1.705627 0.658683
v -4.601088 1.706701 0.658148
v -4.600616 1.705849 0.660348
v -4.601526 1.708152 0.658031
v -4.601951 1.708361 0.659596
v -4.601609 1.706958 0.660072
v -4.601088 1.706701 0.658148
v -4.601526 1.708152 0.658031
v -4.601609 1.706958 0.660072
v -4.601609 1.706958 0.660072
v -4.599765 1.706711 0.661596
v -4.600616 1.705849 0.660348
v -4.601609 1.706958 0.660072
v -4.599765 1.706711 0.661596
v -4.601951 1.708361 0.659596
v -4.601151 1.709171 0.660770
v -4.600627 1.707954 0.661514
v -4.601609 1.706958 0.660072
v -4.601951 1.708361 0.659596
v -4.600627 1.707954 0.661514
v -4.600627 1.707954 0.661514
v -4.598253 1.707564 0.661488
v -4.599765 1.706711 0.661596
v -4.600627 1.707954 0.661514
v -4.598253 1.707564 0.661488
v -4.601151 1.709171 0.660770
v -4.599729 1.709972 0.660668
v -4.598880 1.708938 0.661389
v -4.600627 1.707954 0.661514
v -4.601151 1.709171 0.660770
v -4.598880 1.708938 0.661389
v -4.598880 1.708938 0.661389
v -4.597218 1.707765 0.660105
v -4.598253 1.707564 0.661488
v -4.598880 1.708938 0.661389
v -4.597218 1.707765 0.660105
v -4.599729 1.709972 0.660668
v -4.598756 1.710161 0.659368
v -4.597684 1.709171 0.659791
v -4.598880 1.708938 0.661389
v -4.599729 1.709972 0.660668
v -4.597684 1.709171 0.659791
v -4.597684 1.709171 0.659791
v -4.597440 1.707163 0.658489
v -4.597218 1.707765 0.660105
v -4.597684 1.709171 0.659791
v -4.597440 1.707163 0.658489
v -4.598756 1.710161 0.659368
v -4.598964 1.709595 0.657848
v -4.597940 1.708475 0.657923
v -4.597684 1.709171 0.659791
v -4.598756 1.710161 0.659368
v -4.597940 1.708475 0.657923
v -4.597940 1.708475 0.657923
v -4.599455 1.707376 0.657192
v -4.598751 1.706212 0.657856
v -4.597440 1.707163 0.658489
v -4.597940 1.708475 0.657923
v -4.598751 1.706212 0.657856
v -4.598964 1.709595 0.657848
v -4.600197 1.708701 0.657253
v -4.599455 1.707376 0.657192
v -4.597940 1.708475 0.657923
v -4.598964 1.709595 0.657848
v -4.599455 1.707376 0.657192
v -4.600724 1.709685 0.657646
v -4.601591 1.709327 0.658153
v -4.601526 1.708152 0.658031
v -4.600197 1.708701 0.657253
v -4.600724 1.709685 0.657646
v -4.601526 1.708152 0.658031
v -4.601868 1.709463 0.659175
v -4.601591 1.709327 0.658153
v -4.601346 1.709992 0.659941
v -4.600724 1.709685 0.657646
v -4.601346 1.709992 0.659941
v -4.601591 1.709327 0.658153
v -4.600418 1.710515 0.659875
v -4.601346 1.709992 0.659941
v -4.600724 1.709685 0.657646
v -4.599919 1.710269 0.658034
v -4.600418 1.710515 0.659875
v -4.600724 1.709685 0.657646
v -4.599783 1.710638 0.659026
v -4.600418 1.710515 0.659875
v -4.599919 1.710269 0.658034
v -4.597186 1.700706 0.661792
v -4.596498 1.701404 0.662803
v -4.596821 1.700526 0.660444
v -4.595676 1.701000 0.659774
v -4.596821 1.700526 0.660444
v -4.596498 1.701404 0.662803
v -4.595273 1.702094 0.662715
v -4.595676 1.701000 0.659774
v -4.596498 1.701404 0.662803
v -4.594614 1.701770 0.660286
v -4.595676 1.701000 0.659774
v -4.595273 1.702094 0.662715
v -4.594435 1.702257 0.661595
v -4.594614 1.701770 0.660286
v -4.595273 1.702094 0.662715
vn 0.4893 -0.8371 0.2445
vn 0.0031 0.8220 -0.5695
vn -0.2259 0.9347 0.2745
vn 0.0654 0.9913 -0.1147
vn -0.3659 0.5543 -0.7476
vn -0.2258 0.9347 0.2745
vn -0.3658 0.5544 -0.7476
vn -0.6513 0.6949 0.3049
vn -0.7636 0.3899 -0.5147
vn -0.7635 0.3899 -0.5148
vn -0.8906 0.4524 -0.0464
vn -0.7817 -0.1464 -0.6063
vn -0.1378 0.1199 -0.9832
vn -0.3659 0.5544 -0.7475
vn 0.0493 -0.2112 -0.9762
vn 0.4595 0.5531 -0.6949
vn 0.7030 0.2632 -0.6607
vn 0.0492 -0.2111 -0.9762
vn 0.4594 0.5532 -0.6949
vn 0.2289 -0.5112 -0.8284
vn 0.7031 0.2632 -0.6607
vn 0.8448 -0.0643 -0.5312
vn 0.0493 -0.2111 -0.9762
vn 0.5603 0.8272 0.0415
vn 0.8135 0.5631 0.1454
vn 0.4595 0.5532 -0.6949
vn 0.8448 -0.0643 -0.5311
vn 0.8135 0.5631 0.1453
vn 0.9488 0.2183 0.2281
vn 0.0889 0.7356 0.6715
vn 0.2974 0.4629 0.8350
vn 0.5604 0.8272 0.0415
vn 0.0889 0.7357 0.6715
vn 0.9488 0.2182 0.2282
vn 0.4627 0.1238 0.8778
vn 0.2974 0.4628 0.8351
vn -0.5999 0.3474 0.7207
vn -0.4565 0.0379 0.8889
vn 0.4627 0.1238 0.8779
vn -0.2476 -0.2765 0.9286
vn 0.2974 0.4629 0.8351
vn -0.4565 0.0380 0.8889
vn -0.9873 -0.0451 0.1521
vn -0.8806 -0.3918 0.2664
vn -0.2475 -0.2766 0.9286
vn -0.6471 -0.6813 0.3422
vn -0.2476 -0.2766 0.9286
vn -0.7817 -0.1464 -0.6062
vn -0.6555 -0.5026 -0.5636
vn -0.9873 -0.0452 0.1521
vn -0.6471 -0.6813 0.3421
vn -0.4351 -0.7857 -0.4397
vn -0.6555 -0.5026 -0.5637
vn -0.1378 0.1198 -0.9832
vn -0.6556 -0.5026 -0.5636
vn -0.4350 -0.7857 -0.4397
vn 0.2289 -0.5111 -0.8285
vn -0.4350 -0.7857 -0.4398
vn -0.4875 -0.7347 -0.4717
vn 0.1933 -0.4532 -0.8702
vn -0.2954 -0.2126 0.9314
vn -0.7050 -0.6277 0.3301
vn -0.2953 -0.2126 0.9314
vn 0.9315 0.2948 0.2133
vn 0.4330 0.1979 0.8794
vn 0.9315 0.2948 0.2132
vn 0.9488 0.2183 0.2282
vn 0.1933 -0.4531 -0.8702
vn 0.8248 0.0049 -0.5654
vn -0.7050 -0.6276 0.3301
vn -0.4351 -0.7857 -0.4398
vn -0.7050 -0.6276 0.3302
vn -0.2475 -0.2765 0.9286
vn 0.4626 0.1238 0.8779
vn 0.8248 0.0050 -0.5654
vn 0.9315 0.2947 0.2133
vn -0.5999 0.3473 0.7207
vn 0.0654 0.9912 -0.1147
vn -0.1377 0.1199 -0.9832
vn 0.0030 0.8220 -0.5695
vn 0.0654 0.9913 -0.1146
vn -0.9873 -0.0451 0.1520
vn 0.0584 -0.2267 -0.9722
vn 0.7124 0.2478 -0.6565
vn 0.0583 -0.2267 -0.9722
vn -0.8721 -0.4075 0.2710
vn -0.4876 -0.7347 -0.4717
vn -0.6469 -0.5183 -0.5594
vn -0.8721 -0.4074 0.2710
vn 0.3066 0.4476 0.8400
vn -0.4477 0.0225 0.8939
vn 0.3065 0.4477 0.8400
vn 0.7125 0.2478 -0.6565
vn 0.8230 0.5479 0.1499
vn 0.7125 0.2479 -0.6565
vn -0.6468 -0.5184 -0.5594
vn -0.6468 -0.5183 -0.5594
vn -0.8721 -0.4075 0.2711
vn 0.8230 0.5479 0.1500
vn 0.4330 0.1980 0.8794
vn 0.8229 0.5480 0.1500
vn 0.9315 0.2947 0.2132
vt 0.543243 0.611839
vt 0.535370 0.618118
vt 0.537796 0.613083
vt 0.537796 0.623154
vt 0.547607 0.615326
vt 0.543243 0.624397
vt 0.547607 0.620918
vt 0.565384 0.671494
vt 0.570206 0.669548
vt 0.567856 0.672157
vt 0.564468 0.669609
vt 0.568146 0.666756
vt 0.564514 0.667854
vt 0.565857 0.666748
vt 0.562897 0.666855
vt 0.562302 0.669838
vt 0.559082 0.669685
vt 0.563492 0.673050
vt 0.560059 0.674789
vt 0.554092 0.669067
vt 0.554398 0.676537
vt 0.567307 0.675606
vt 0.564316 0.680244
vt 0.558044 0.684982
vt 0.575485 0.674767
vt 0.575272 0.686485
vt 0.565720 0.696274
vt 0.575485 0.658051
vt 0.568817 0.663902
vt 0.568115 0.659698
vt 0.574570 0.665543
vt 0.572052 0.651657
vt 0.565903 0.655174
vt 0.565063 0.664742
vt 0.563416 0.661980
vt 0.560669 0.658463
vt 0.560364 0.665283
vt 0.556488 0.662933
vt 0.552032 0.660286
vt 0.548294 0.668175
vt 0.563522 0.651588
vt 0.557617 0.654999
vt 0.551163 0.688484
vt 0.556610 0.699394
vt 0.547867 0.678001
vt 0.568756 0.648293
vt 0.604446 0.682632
vt 0.626221 0.687675
vt 0.604553 0.688225
vt 0.626144 0.682457
vt 0.604553 0.671455
vt 0.626144 0.677231
vt 0.604446 0.677048
vt 0.626221 0.672005
vt 0.605011 0.660294
vt 0.626404 0.666786
vt 0.604736 0.665871
vt 0.626663 0.661568
vt 0.626404 0.692902
vt 0.604736 0.693810
vt 0.626663 0.698120
vt 0.605011 0.699394
s 0
usemtl decorations
f 240/1/1 239/2/1 238/3/1
f 237/1/1 236/4/1 235/2/1
f 234/5/1 233/4/1 232/1/1
f 231/5/1 230/6/1 229/4/1
f 228/6/1 227/5/1 226/7/1
s 1
f 225/8/2 224/9/3 223/10/4
f 222/11/5 221/9/6 220/8/2
f 219/11/7 218/12/8 217/9/3
f 216/13/9 215/12/8 214/11/7
f 213/12/8 212/13/10 211/14/11
f 210/15/12 209/11/7 208/16/13
f 207/15/12 206/13/9 205/11/14
f 204/17/15 203/18/16 202/19/17
f 201/17/18 200/16/13 199/18/19
f 198/20/20 197/19/21 196/21/22
f 195/20/20 194/17/23 193/19/17
f 192/19/17 191/22/24 190/23/25
f 189/19/17 188/18/26 187/22/24
f 186/21/27 185/23/28 184/24/29
f 183/21/27 3/19/17 182/23/28
f 181/23/25 180/25/30 179/26/31
f 178/23/25 177/22/32 176/25/33
f 175/24/34 174/26/31 173/27/35
f 172/24/34 4/23/25 171/26/31
f 170/28/36 169/29/37 168/30/38
f 167/28/36 166/31/30 165/29/37
f 164/32/39 163/30/38 162/33/40
f 161/32/39 13/28/41 160/30/42
f 159/30/38 158/34/43 157/35/44
f 156/30/38 155/29/37 154/34/43
f 153/33/45 152/35/44 151/36/46
f 150/33/47 14/30/38 149/35/44
f 148/35/44 147/15/48 146/37/49
f 145/35/44 144/34/50 143/15/48
f 142/36/51 141/37/49 140/38/52
f 139/36/51 16/35/44 138/37/49
f 137/37/53 136/16/54 135/17/23
f 134/37/55 133/15/12 132/16/13
f 131/38/56 130/17/23 129/20/57
f 128/38/58 36/37/55 25/17/23
f 127/39/59 126/20/57 125/40/60
f 124/39/59 123/38/58 122/20/57
f 121/41/61 120/36/46 119/42/62
f 118/41/63 117/33/45 116/36/46
f 115/43/64 114/27/35 113/44/65
f 112/43/66 111/24/67 110/27/35
f 109/40/68 108/21/22 107/45/69
f 106/40/60 40/20/20 105/21/22
f 104/42/70 103/38/71 102/39/59
f 101/42/72 41/36/46 42/38/71
f 100/46/65 99/33/73 98/41/63
f 97/46/65 37/32/74 38/33/73
f 96/45/75 95/24/67 94/43/76
f 93/45/75 33/21/22 34/24/67
f 92/29/37 91/14/11 90/34/43
f 89/29/77 88/12/8 87/14/11
f 86/22/24 85/9/3 84/25/33
f 83/22/24 82/10/78 81/9/3
f 80/16/13 79/8/2 78/18/19
f 29/16/79 30/11/5 77/8/80
f 76/31/30 75/12/8 28/29/37
f 31/31/30 26/9/3 27/12/8
f 74/18/16 73/10/81 24/22/24
f 21/18/16 22/8/80 23/10/4
f 72/34/82 71/13/9 20/15/48
f 17/34/82 18/14/11 19/13/9
f 70/47/83 69/48/75 68/49/84
f 67/47/85 66/50/60 65/48/75
f 64/51/86 63/52/87 62/53/88
f 61/51/89 60/54/62 59/52/87
f 58/55/90 57/56/61 56/57/91
f 55/55/92 54/58/65 53/56/63
f 52/49/93 51/59/66 50/60/94
f 2/49/95 32/48/75 49/59/66
f 48/53/96 47/50/68 12/47/85
f 9/53/97 10/52/87 11/50/60
f 46/57/91 45/54/62 8/51/98
f 5/57/91 6/56/61 7/54/62
f 44/60/99 43/61/100 15/62/90
f 1/60/101 35/59/102 39/61/65
