# Blender 5.0.0
# www.blender.org
mtllib Circle_005_Circle_003_Dupli_73_decorations_0.mtl
o Circle.005|Circle.003|Dupli|73_decorations_0
v -4.565419 1.711935 0.698797
v -4.565391 1.710985 0.699836
v -4.565933 1.716549 0.705345
v -4.565972 1.717905 0.703863
v -4.562956 1.712331 0.698328
v -4.562967 1.716307 0.702077
v -4.562373 1.715510 0.702940
v -4.562320 1.711479 0.699251
v -4.562906 1.710619 0.700200
v -4.562921 1.714707 0.703827
v -4.564198 1.714501 0.704070
v -4.564273 1.710399 0.700460
v -4.564426 1.718759 0.702906
v -4.562459 1.718470 0.703194
v -4.564335 1.712534 0.698126
v -4.561552 1.717253 0.704512
v -4.561969 1.718326 0.705504
v -4.562613 1.719050 0.706183
v -4.563058 1.718398 0.706902
v -4.562649 1.717328 0.706606
v -4.565534 1.717753 0.706182
v -4.564940 1.718676 0.706625
v -4.564961 1.719396 0.705838
v -4.565566 1.718856 0.704976
v -4.564338 1.715713 0.706237
v -4.564140 1.719849 0.705330
v -4.563096 1.719696 0.705483
v -4.562707 1.719316 0.704432
v -4.564236 1.717073 0.706908
v -4.564093 1.718232 0.707099
v -4.564308 1.719552 0.704197
v -4.565244 1.715049 0.703486
v -4.565670 1.715548 0.704240
v -4.565703 1.716722 0.702957
v -4.565269 1.715937 0.702515
v -4.562388 1.716027 0.705866
v -4.564365 1.717461 0.702128
v -4.562663 1.717211 0.702378
v -4.564256 1.716497 0.701887
v -4.564289 1.714825 0.705012
v -4.561878 1.716158 0.703519
v -4.562602 1.715096 0.704691
v -4.564256 1.716497 0.701887
v -4.565419 1.711935 0.698797
v -4.562373 1.715510 0.702940
v -4.562956 1.712331 0.698328
v -4.564198 1.714501 0.704070
v -4.562906 1.710619 0.700200
v -4.565269 1.715937 0.702515
v -4.565419 1.711935 0.698797
v -4.565269 1.715937 0.702515
v -4.565391 1.710985 0.699836
v -4.562967 1.716307 0.702077
v -4.564256 1.716497 0.701887
v -4.564335 1.712534 0.698126
v -4.562956 1.712331 0.698328
v -4.562967 1.716307 0.702077
v -4.564335 1.712534 0.698126
v -4.562921 1.714707 0.703827
v -4.562373 1.715510 0.702940
v -4.562320 1.711479 0.699251
v -4.562906 1.710619 0.700200
v -4.562921 1.714707 0.703827
v -4.562320 1.711479 0.699251
v -4.565244 1.715049 0.703486
v -4.564198 1.714501 0.704070
v -4.564273 1.710399 0.700460
v -4.565391 1.710985 0.699836
v -4.565244 1.715049 0.703486
v -4.564273 1.710399 0.700460
v -4.563058 1.718398 0.706902
v -4.561969 1.718326 0.705504
v -4.564961 1.719396 0.705838
v -4.565534 1.717753 0.706182
v -4.563096 1.719696 0.705483
v -4.564308 1.719552 0.704197
v -4.564940 1.718676 0.706625
v -4.565534 1.717753 0.706182
v -4.564940 1.718676 0.706625
v -4.564236 1.717073 0.706908
v -4.564140 1.719849 0.705330
v -4.564961 1.719396 0.705838
v -4.565566 1.718856 0.704976
v -4.564308 1.719552 0.704197
v -4.564140 1.719849 0.705330
v -4.565566 1.718856 0.704976
v -4.562613 1.719050 0.706183
v -4.563096 1.719696 0.705483
v -4.562707 1.719316 0.704432
v -4.561969 1.718326 0.705504
v -4.562613 1.719050 0.706183
v -4.562707 1.719316 0.704432
v -4.565244 1.715049 0.703486
v -4.565269 1.715937 0.702515
v -4.565703 1.716722 0.702957
v -4.565244 1.715049 0.703486
v -4.564256 1.716497 0.701887
v -4.562967 1.716307 0.702077
v -4.562663 1.717211 0.702378
v -4.564256 1.716497 0.701887
v -4.562373 1.715510 0.702940
v -4.562921 1.714707 0.703827
v -4.562602 1.715096 0.704691
v -4.562373 1.715510 0.702940
v -4.565670 1.715548 0.704240
v -4.564198 1.714501 0.704070
v -4.565244 1.715049 0.703486
v -4.565670 1.715548 0.704240
v -4.564198 1.714501 0.704070
v -4.564365 1.717461 0.702128
v -4.565703 1.716722 0.702957
v -4.565269 1.715937 0.702515
v -4.564256 1.716497 0.701887
v -4.564365 1.717461 0.702128
v -4.565269 1.715937 0.702515
v -4.561878 1.716158 0.703519
v -4.562663 1.717211 0.702378
v -4.562967 1.716307 0.702077
v -4.562373 1.715510 0.702940
v -4.561878 1.716158 0.703519
v -4.562967 1.716307 0.702077
v -4.564289 1.714825 0.705012
v -4.562602 1.715096 0.704691
v -4.562921 1.714707 0.703827
v -4.564198 1.714501 0.704070
v -4.564289 1.714825 0.705012
v -4.562921 1.714707 0.703827
v -4.562602 1.715096 0.704691
v -4.564289 1.714825 0.705012
v -4.564338 1.715713 0.706237
v -4.562602 1.715096 0.704691
v -4.564236 1.717073 0.706908
v -4.562649 1.717328 0.706606
v -4.562388 1.716027 0.705866
v -4.564338 1.715713 0.706237
v -4.564236 1.717073 0.706908
v -4.562388 1.716027 0.705866
v -4.562388 1.716027 0.705866
v -4.561878 1.716158 0.703519
v -4.562602 1.715096 0.704691
v -4.562388 1.716027 0.705866
v -4.561878 1.716158 0.703519
v -4.562649 1.717328 0.706606
v -4.561969 1.718326 0.705504
v -4.561552 1.717253 0.704512
v -4.562388 1.716027 0.705866
v -4.562649 1.717328 0.706606
v -4.561552 1.717253 0.704512
v -4.561552 1.717253 0.704512
v -4.562663 1.717211 0.702378
v -4.561878 1.716158 0.703519
v -4.561552 1.717253 0.704512
v -4.562663 1.717211 0.702378
v -4.561969 1.718326 0.705504
v -4.562707 1.719316 0.704432
v -4.562459 1.718470 0.703194
v -4.561552 1.717253 0.704512
v -4.561969 1.718326 0.705504
v -4.562459 1.718470 0.703194
v -4.562459 1.718470 0.703194
v -4.564365 1.717461 0.702128
v -4.562663 1.717211 0.702378
v -4.562459 1.718470 0.703194
v -4.564365 1.717461 0.702128
v -4.562707 1.719316 0.704432
v -4.564308 1.719552 0.704197
v -4.564426 1.718759 0.702906
v -4.562459 1.718470 0.703194
v -4.562707 1.719316 0.704432
v -4.564426 1.718759 0.702906
v -4.564426 1.718759 0.702906
v -4.565703 1.716722 0.702957
v -4.564365 1.717461 0.702128
v -4.564426 1.718759 0.702906
v -4.565703 1.716722 0.702957
v -4.564308 1.719552 0.704197
v -4.565566 1.718856 0.704976
v -4.565972 1.717905 0.703863
v -4.564426 1.718759 0.702906
v -4.564308 1.719552 0.704197
v -4.565972 1.717905 0.703863
v -4.565972 1.717905 0.703863
v -4.565670 1.715548 0.704240
v -4.565703 1.716722 0.702957
v -4.565972 1.717905 0.703863
v -4.565670 1.715548 0.704240
v -4.565566 1.718856 0.704976
v -4.565534 1.717753 0.706182
v -4.565933 1.716549 0.705345
v -4.565972 1.717905 0.703863
v -4.565566 1.718856 0.704976
v -4.565933 1.716549 0.705345
v -4.565933 1.716549 0.705345
v -4.564338 1.715713 0.706237
v -4.564289 1.714825 0.705012
v -4.565670 1.715548 0.704240
v -4.565933 1.716549 0.705345
v -4.564289 1.714825 0.705012
v -4.565534 1.717753 0.706182
v -4.564236 1.717073 0.706908
v -4.564338 1.715713 0.706237
v -4.565933 1.716549 0.705345
v -4.565534 1.717753 0.706182
v -4.564338 1.715713 0.706237
v -4.564093 1.718232 0.707099
v -4.563058 1.718398 0.706902
v -4.562649 1.717328 0.706606
v -4.564236 1.717073 0.706908
v -4.564093 1.718232 0.707099
v -4.562649 1.717328 0.706606
v -4.562613 1.719050 0.706183
v -4.563058 1.718398 0.706902
v -4.563096 1.719696 0.705483
v -4.564093 1.718232 0.707099
v -4.563096 1.719696 0.705483
v -4.563058 1.718398 0.706902
v -4.564140 1.719849 0.705330
v -4.563096 1.719696 0.705483
v -4.564093 1.718232 0.707099
v -4.564940 1.718676 0.706625
v -4.564140 1.719849 0.705330
v -4.564093 1.718232 0.707099
v -4.564961 1.719396 0.705838
v -4.564140 1.719849 0.705330
v -4.564940 1.718676 0.706625
v -4.562320 1.711479 0.699251
v -4.562956 1.712331 0.698328
v -4.562906 1.710619 0.700200
v -4.564273 1.710399 0.700460
v -4.562906 1.710619 0.700200
v -4.562956 1.712331 0.698328
v -4.564335 1.712534 0.698126
v -4.564273 1.710399 0.700460
v -4.562956 1.712331 0.698328
v -4.565391 1.710985 0.699836
v -4.564273 1.710399 0.700460
v -4.564335 1.712534 0.698126
v -4.565419 1.711935 0.698797
v -4.565391 1.710985 0.699836
v -4.564335 1.712534 0.698126
vn -0.0097 -0.7381 -0.6747
vn -0.4951 0.4414 0.7483
vn -0.1281 0.9797 0.1542
vn -0.5047 0.7715 0.3873
vn -0.1066 0.2379 0.9654
vn -0.4951 0.4414 0.7484
vn -0.1067 0.2379 0.9654
vn 0.3509 0.9091 0.2245
vn 0.3681 0.3142 0.8751
vn 0.3510 0.9091 0.2245
vn 0.5718 0.6129 0.5454
vn 0.5869 -0.1770 0.7901
vn -0.1817 -0.3005 0.9363
vn -0.2029 -0.6308 0.7490
vn -0.8106 0.0290 0.5849
vn -0.8913 -0.2700 0.3643
vn -0.2029 -0.6307 0.7490
vn -0.1818 -0.3005 0.9363
vn -0.8106 0.0291 0.5849
vn -0.1948 -0.8695 0.4539
vn -0.8433 -0.5296 0.0916
vn -0.8913 -0.2700 0.3644
vn -0.8261 0.5636 0.0004
vn -0.9082 0.3150 -0.2755
vn -0.8433 -0.5297 0.0915
vn -0.9082 0.3150 -0.2754
vn -0.8592 0.0215 -0.5111
vn -0.2165 0.9005 -0.3771
vn -0.2410 0.6839 -0.6886
vn -0.8261 0.5636 0.0003
vn -0.2165 0.9005 -0.3770
vn -0.8592 0.0215 -0.5112
vn -0.2306 0.3690 -0.9004
vn -0.2409 0.6839 -0.6887
vn 0.5591 0.7862 -0.2632
vn 0.6080 0.5588 -0.5640
vn 0.5591 0.7863 -0.2632
vn 0.5691 0.2512 -0.7830
vn 0.9167 0.3068 0.2562
vn 0.9994 0.0339 0.0046
vn 0.5691 0.2511 -0.7830
vn 0.9379 -0.2433 -0.2473
vn 0.9994 0.0338 0.0046
vn 0.5870 -0.1769 0.7900
vn 0.6385 -0.4955 0.5889
vn 0.9167 0.3067 0.2562
vn 0.9379 -0.2434 -0.2473
vn 0.5979 -0.7420 0.3031
vn 0.5979 -0.7421 0.3031
vn -0.1948 -0.8695 0.4540
vn 0.6139 -0.6984 0.3680
vn -0.1989 -0.8290 0.5226
vn 0.5844 0.3201 -0.7456
vn 0.9379 -0.2433 -0.2474
vn 0.9625 -0.1870 -0.1965
vn 0.5844 0.3201 -0.7457
vn -0.8802 0.0846 -0.4670
vn -0.2307 0.3690 -0.9004
vn -0.2357 0.4409 -0.8661
vn -0.1989 -0.8290 0.5227
vn -0.8432 -0.5297 0.0916
vn -0.8638 -0.4806 0.1510
vn 0.9625 -0.1870 -0.1964
vn -0.2357 0.4409 -0.8660
vn 0.5844 0.3200 -0.7457
vn -0.8639 -0.4805 0.1511
vn -0.8638 -0.4806 0.1511
vn -0.8433 -0.5297 0.0916
vn -0.1066 0.2378 0.9654
vn -0.8261 0.5635 0.0004
vn -0.8106 0.0290 0.5848
vn 0.5870 -0.1769 0.7901
vn -0.2032 -0.6447 0.7369
vn -0.8639 -0.4806 0.1511
vn -0.8919 -0.2838 0.3520
vn 0.9998 0.0202 -0.0079
vn 0.6387 -0.5094 0.5767
vn 0.9998 0.0203 -0.0079
vn -0.2412 0.6706 -0.7015
vn 0.5844 0.3200 -0.7456
vn 0.6081 0.5455 -0.5768
vn -0.8802 0.0846 -0.4669
vn -0.9089 0.3015 -0.2881
vn 0.6387 -0.5094 0.5768
vn 0.6081 0.5454 -0.5768
vn -0.2413 0.6706 -0.7015
vn -0.9089 0.3016 -0.2881
vt 0.530319 0.611839
vt 0.522446 0.618118
vt 0.524872 0.613083
vt 0.524872 0.623154
vt 0.534683 0.615326
vt 0.530319 0.624397
vt 0.534683 0.620918
vt 0.537079 0.671494
vt 0.541916 0.669548
vt 0.539566 0.672157
vt 0.536179 0.669609
vt 0.539856 0.666756
vt 0.536224 0.667854
vt 0.537567 0.666748
vt 0.534592 0.666855
vt 0.534012 0.669838
vt 0.530777 0.669685
vt 0.535187 0.673050
vt 0.531769 0.674789
vt 0.525803 0.669067
vt 0.526108 0.676537
vt 0.539017 0.675606
vt 0.536011 0.680244
vt 0.529755 0.684982
vt 0.547180 0.674767
vt 0.546982 0.686485
vt 0.537415 0.696274
vt 0.547180 0.658051
vt 0.540527 0.663902
vt 0.539825 0.659698
vt 0.546280 0.665543
vt 0.543762 0.651657
vt 0.537613 0.655174
vt 0.536758 0.664742
vt 0.535126 0.661980
vt 0.532364 0.658463
vt 0.532074 0.665283
vt 0.528198 0.662933
vt 0.523743 0.660286
vt 0.519989 0.668175
vt 0.535217 0.651588
vt 0.529327 0.654999
vt 0.522873 0.688484
vt 0.528320 0.699394
vt 0.519577 0.678001
vt 0.540466 0.648293
vt 0.604446 0.642853
vt 0.626221 0.647896
vt 0.604553 0.648445
vt 0.626144 0.642670
vt 0.604553 0.631676
vt 0.626144 0.637444
vt 0.604446 0.637268
vt 0.626221 0.632225
vt 0.605011 0.620506
vt 0.626404 0.626999
vt 0.604736 0.626091
vt 0.626663 0.621780
vt 0.626404 0.653114
vt 0.604736 0.654030
vt 0.626663 0.658333
vt 0.605011 0.659607
s 0
usemtl decorations
f 240/1/1 239/2/1 238/3/1
f 237/1/1 236/4/1 235/2/1
f 234/5/1 233/4/1 232/1/1
f 231/5/1 230/6/1 229/4/1
f 228/6/1 227/5/1 226/7/1
s 1
f 225/8/2 224/9/3 223/10/4
f 222/11/5 221/9/3 220/8/6
f 219/11/7 218/12/8 217/9/3
f 216/13/9 215/12/8 214/11/7
f 213/12/10 212/13/9 211/14/11
f 210/15/12 209/11/7 208/16/13
f 207/15/12 206/13/9 205/11/7
f 204/17/14 203/18/15 202/19/16
f 201/17/17 200/16/18 199/18/19
f 198/20/20 197/19/16 196/21/21
f 195/20/20 194/17/17 193/19/22
f 192/19/16 191/22/23 190/23/24
f 189/19/16 188/18/15 187/22/23
f 186/21/25 185/23/26 184/24/27
f 183/21/25 3/19/16 182/23/26
f 181/23/24 180/25/28 179/26/29
f 178/23/24 177/22/30 176/25/31
f 175/24/32 174/26/29 173/27/33
f 172/24/32 4/23/24 171/26/29
f 170/28/34 169/29/35 168/30/36
f 167/28/34 166/31/28 165/29/37
f 164/32/33 163/30/36 162/33/38
f 161/32/33 13/28/34 160/30/36
f 159/30/36 158/34/39 157/35/40
f 156/30/36 155/29/35 154/34/39
f 153/33/41 152/35/40 151/36/42
f 150/33/41 14/30/36 149/35/40
f 148/35/43 147/15/44 146/37/45
f 145/35/43 144/34/46 143/15/44
f 142/36/47 141/37/45 140/38/48
f 139/36/47 16/35/40 138/37/45
f 137/37/45 136/16/13 135/17/17
f 134/37/45 133/15/44 132/16/13
f 131/38/49 130/17/17 129/20/50
f 128/38/49 36/37/45 25/17/14
f 127/39/51 126/20/50 125/40/52
f 124/39/51 123/38/49 122/20/50
f 121/41/53 120/36/54 119/42/55
f 118/41/56 117/33/41 116/36/54
f 115/43/57 114/27/58 113/44/59
f 112/43/57 111/24/32 110/27/58
f 109/40/60 108/21/61 107/45/62
f 106/40/60 40/20/20 105/21/61
f 104/42/63 103/38/48 102/39/51
f 101/42/55 41/36/42 42/38/48
f 100/46/64 99/33/41 98/41/65
f 97/46/59 37/32/33 38/33/41
f 96/45/66 95/24/32 94/43/57
f 93/45/67 33/21/68 34/24/32
f 92/29/35 91/14/11 90/34/39
f 89/29/35 88/12/8 87/14/11
f 86/22/23 85/9/3 84/25/31
f 83/22/23 82/10/4 81/9/3
f 80/16/18 79/8/2 78/18/19
f 29/16/18 30/11/69 77/8/6
f 76/31/31 75/12/8 28/29/35
f 31/31/31 26/9/3 27/12/8
f 74/18/15 73/10/4 24/22/70
f 21/18/71 22/8/6 23/10/4
f 72/34/46 71/13/9 20/15/72
f 17/34/46 18/14/11 19/13/9
f 70/47/73 69/48/74 68/49/75
f 67/47/73 66/50/52 65/48/67
f 64/51/76 63/52/51 62/53/77
f 61/51/78 60/54/63 59/52/51
f 58/55/79 57/56/80 56/57/81
f 55/55/79 54/58/59 53/56/65
f 52/49/75 51/59/82 50/60/83
f 2/49/75 32/48/67 49/59/57
f 48/53/77 47/50/60 12/47/73
f 9/53/84 10/52/51 11/50/52
f 46/57/85 45/54/63 8/51/78
f 5/57/81 6/56/65 7/54/55
f 44/60/83 43/61/64 15/62/86
f 1/60/87 35/59/57 39/61/59
