# Blender 5.0.0
# www.blender.org
mtllib Circle_002_Circle_004_Dupli_216_decorations_0.mtl
o Circle.002|Circle.004|Dupli|216_decorations_0
v -4.347003 1.895928 0.774621
v -4.345748 1.895308 0.774472
v -4.348071 1.891471 0.768031
v -4.349862 1.892356 0.768243
v -4.348207 1.894387 0.776239
v -4.350048 1.891494 0.771984
v -4.349152 1.890559 0.772218
v -4.347249 1.893386 0.776489
v -4.345944 1.893269 0.775970
v -4.347933 1.890449 0.771733
v -4.347309 1.891249 0.770894
v -4.345277 1.894125 0.775073
v -4.351423 1.891772 0.769365
v -4.351579 1.890158 0.770551
v -4.348098 1.895519 0.775407
v -4.350212 1.888729 0.770909
v -4.350605 1.888267 0.769516
v -4.350769 1.888216 0.768345
v -4.349781 1.888128 0.767952
v -4.349092 1.888131 0.768913
v -4.348863 1.890498 0.767174
v -4.349632 1.889672 0.766817
v -4.350583 1.890142 0.766929
v -4.350321 1.891218 0.767346
v -4.347398 1.889783 0.768888
v -4.351412 1.889832 0.767525
v -4.351495 1.888975 0.768155
v -4.351718 1.889429 0.769225
v -4.348316 1.889124 0.767871
v -4.349275 1.888776 0.767272
v -4.351591 1.890742 0.768259
v -4.347750 1.892355 0.770332
v -4.347746 1.892115 0.769362
v -4.349297 1.892881 0.769546
v -4.348923 1.892935 0.770471
v -4.348351 1.888562 0.770168
v -4.350648 1.892376 0.770516
v -4.350782 1.890978 0.771543
v -4.349946 1.892552 0.771206
v -4.347164 1.890654 0.770104
v -4.349599 1.889742 0.771853
v -4.347989 1.889598 0.771212
v -4.349946 1.892552 0.771206
v -4.347003 1.895928 0.774621
v -4.349152 1.890559 0.772218
v -4.348207 1.894387 0.776239
v -4.347309 1.891249 0.770894
v -4.345944 1.893269 0.775970
v -4.348923 1.892935 0.770471
v -4.347003 1.895928 0.774621
v -4.348923 1.892935 0.770471
v -4.345748 1.895308 0.774472
v -4.350048 1.891494 0.771984
v -4.349946 1.892552 0.771206
v -4.348098 1.895519 0.775407
v -4.348207 1.894387 0.776239
v -4.350048 1.891494 0.771984
v -4.348098 1.895519 0.775407
v -4.347933 1.890449 0.771733
v -4.349152 1.890559 0.772218
v -4.347249 1.893386 0.776489
v -4.345944 1.893269 0.775970
v -4.347933 1.890449 0.771733
v -4.347249 1.893386 0.776489
v -4.347750 1.892355 0.770332
v -4.347309 1.891249 0.770894
v -4.345277 1.894125 0.775073
v -4.345748 1.895308 0.774472
v -4.347750 1.892355 0.770332
v -4.345277 1.894125 0.775073
v -4.349781 1.888128 0.767952
v -4.350605 1.888267 0.769516
v -4.350583 1.890142 0.766929
v -4.348863 1.890498 0.767174
v -4.351495 1.888975 0.768155
v -4.351591 1.890742 0.768259
v -4.349632 1.889672 0.766817
v -4.348863 1.890498 0.767174
v -4.349632 1.889672 0.766817
v -4.348316 1.889124 0.767871
v -4.351412 1.889832 0.767525
v -4.350583 1.890142 0.766929
v -4.350321 1.891218 0.767346
v -4.351591 1.890742 0.768259
v -4.351412 1.889832 0.767525
v -4.350321 1.891218 0.767346
v -4.350769 1.888216 0.768345
v -4.351495 1.888975 0.768155
v -4.351718 1.889429 0.769225
v -4.350605 1.888267 0.769516
v -4.350769 1.888216 0.768345
v -4.351718 1.889429 0.769225
v -4.347750 1.892355 0.770332
v -4.348923 1.892935 0.770471
v -4.349297 1.892881 0.769546
v -4.347750 1.892355 0.770332
v -4.349946 1.892552 0.771206
v -4.350048 1.891494 0.771984
v -4.350782 1.890978 0.771543
v -4.349946 1.892552 0.771206
v -4.349152 1.890559 0.772218
v -4.347933 1.890449 0.771733
v -4.347989 1.889598 0.771212
v -4.349152 1.890559 0.772218
v -4.347746 1.892115 0.769362
v -4.347309 1.891249 0.770894
v -4.347750 1.892355 0.770332
v -4.347746 1.892115 0.769362
v -4.347309 1.891249 0.770894
v -4.350648 1.892376 0.770516
v -4.349297 1.892881 0.769546
v -4.348923 1.892935 0.770471
v -4.349946 1.892552 0.771206
v -4.350648 1.892376 0.770516
v -4.348923 1.892935 0.770471
v -4.349599 1.889742 0.771853
v -4.350782 1.890978 0.771543
v -4.350048 1.891494 0.771984
v -4.349152 1.890559 0.772218
v -4.349599 1.889742 0.771853
v -4.350048 1.891494 0.771984
v -4.347164 1.890654 0.770104
v -4.347989 1.889598 0.771212
v -4.347933 1.890449 0.771733
v -4.347309 1.891249 0.770894
v -4.347164 1.890654 0.770104
v -4.347933 1.890449 0.771733
v -4.347989 1.889598 0.771212
v -4.347164 1.890654 0.770104
v -4.347398 1.889783 0.768888
v -4.347989 1.889598 0.771212
v -4.348316 1.889124 0.767871
v -4.349092 1.888131 0.768913
v -4.348351 1.888562 0.770168
v -4.347398 1.889783 0.768888
v -4.348316 1.889124 0.767871
v -4.348351 1.888562 0.770168
v -4.348351 1.888562 0.770168
v -4.349599 1.889742 0.771853
v -4.347989 1.889598 0.771212
v -4.348351 1.888562 0.770168
v -4.349599 1.889742 0.771853
v -4.349092 1.888131 0.768913
v -4.350605 1.888267 0.769516
v -4.350212 1.888729 0.770909
v -4.348351 1.888562 0.770168
v -4.349092 1.888131 0.768913
v -4.350212 1.888729 0.770909
v -4.350212 1.888729 0.770909
v -4.350782 1.890978 0.771543
v -4.349599 1.889742 0.771853
v -4.350212 1.888729 0.770909
v -4.350782 1.890978 0.771543
v -4.350605 1.888267 0.769516
v -4.351718 1.889429 0.769225
v -4.351579 1.890158 0.770551
v -4.350212 1.888729 0.770909
v -4.350605 1.888267 0.769516
v -4.351579 1.890158 0.770551
v -4.351579 1.890158 0.770551
v -4.350648 1.892376 0.770516
v -4.350782 1.890978 0.771543
v -4.351579 1.890158 0.770551
v -4.350648 1.892376 0.770516
v -4.351718 1.889429 0.769225
v -4.351591 1.890742 0.768259
v -4.351423 1.891772 0.769365
v -4.351579 1.890158 0.770551
v -4.351718 1.889429 0.769225
v -4.351423 1.891772 0.769365
v -4.351423 1.891772 0.769365
v -4.349297 1.892881 0.769546
v -4.350648 1.892376 0.770516
v -4.351423 1.891772 0.769365
v -4.349297 1.892881 0.769546
v -4.351591 1.890742 0.768259
v -4.350321 1.891218 0.767346
v -4.349862 1.892356 0.768243
v -4.351423 1.891772 0.769365
v -4.351591 1.890742 0.768259
v -4.349862 1.892356 0.768243
v -4.349862 1.892356 0.768243
v -4.347746 1.892115 0.769362
v -4.349297 1.892881 0.769546
v -4.349862 1.892356 0.768243
v -4.347746 1.892115 0.769362
v -4.350321 1.891218 0.767346
v -4.348863 1.890498 0.767174
v -4.348071 1.891471 0.768031
v -4.349862 1.892356 0.768243
v -4.350321 1.891218 0.767346
v -4.348071 1.891471 0.768031
v -4.348071 1.891471 0.768031
v -4.347398 1.889783 0.768888
v -4.347164 1.890654 0.770104
v -4.347746 1.892115 0.769362
v -4.348071 1.891471 0.768031
v -4.347164 1.890654 0.770104
v -4.348863 1.890498 0.767174
v -4.348316 1.889124 0.767871
v -4.347398 1.889783 0.768888
v -4.348071 1.891471 0.768031
v -4.348863 1.890498 0.767174
v -4.347398 1.889783 0.768888
v -4.349275 1.888776 0.767272
v -4.349781 1.888128 0.767952
v -4.349092 1.888131 0.768913
v -4.348316 1.889124 0.767871
v -4.349275 1.888776 0.767272
v -4.349092 1.888131 0.768913
v -4.350769 1.888216 0.768345
v -4.349781 1.888128 0.767952
v -4.351495 1.888975 0.768155
v -4.349275 1.888776 0.767272
v -4.351495 1.888975 0.768155
v -4.349781 1.888128 0.767952
v -4.351412 1.889832 0.767525
v -4.351495 1.888975 0.768155
v -4.349275 1.888776 0.767272
v -4.349632 1.889672 0.766817
v -4.351412 1.889832 0.767525
v -4.349275 1.888776 0.767272
v -4.350583 1.890142 0.766929
v -4.351412 1.889832 0.767525
v -4.349632 1.889672 0.766817
v -4.347249 1.893386 0.776489
v -4.348207 1.894387 0.776239
v -4.345944 1.893269 0.775970
v -4.345277 1.894125 0.775073
v -4.345944 1.893269 0.775970
v -4.348207 1.894387 0.776239
v -4.348098 1.895519 0.775407
v -4.345277 1.894125 0.775073
v -4.348207 1.894387 0.776239
v -4.345748 1.895308 0.774472
v -4.345277 1.894125 0.775073
v -4.348098 1.895519 0.775407
v -4.347003 1.895928 0.774621
v -4.345748 1.895308 0.774472
v -4.348098 1.895519 0.775407
vn 0.3539 0.5316 0.7695
vn 0.0695 -0.1792 -0.9813
vn -0.7469 -0.1060 -0.6564
vn -0.3666 0.0363 -0.9296
vn 0.2333 -0.5905 -0.7726
vn -0.7469 -0.1060 -0.6565
vn 0.0695 -0.1793 -0.9813
vn 0.2333 -0.5904 -0.7727
vn -0.7848 -0.4991 -0.3675
vn 0.0013 -0.8876 -0.4607
vn -0.7847 -0.4991 -0.3675
vn 0.0013 -0.8875 -0.4607
vn -0.4518 -0.8469 -0.2804
vn 0.3309 -0.9432 -0.0310
vn 0.7064 -0.4622 -0.5361
vn 0.0012 -0.8876 -0.4607
vn 0.2333 -0.5904 -0.7726
vn 0.9180 -0.2884 -0.2720
vn 0.4414 0.2035 -0.8739
vn 0.6278 0.4401 -0.6419
vn 0.9180 -0.2885 -0.2721
vn 0.7065 -0.4621 -0.5361
vn 0.4413 0.2035 -0.8740
vn 0.9968 -0.0735 0.0307
vn 0.6278 0.4402 -0.6419
vn 0.7234 0.6129 -0.3177
vn 0.6278 0.4401 -0.6420
vn -0.2649 0.5525 -0.7903
vn -0.1452 0.8222 -0.5503
vn 0.4413 0.2036 -0.8739
vn 0.7234 0.6130 -0.3177
vn -0.1452 0.8222 -0.5504
vn -0.0048 0.9728 -0.2314
vn -0.8804 0.3222 -0.3480
vn -0.8190 0.5700 -0.0662
vn -0.2649 0.5526 -0.7902
vn -0.8804 0.3221 -0.3480
vn -0.0048 0.9729 -0.2314
vn -0.6395 0.7352 0.2246
vn -0.8190 0.5700 -0.0661
vn -0.9418 -0.3142 0.1198
vn -0.8861 -0.1266 0.4458
vn -0.6395 0.7352 0.2247
vn -0.8861 -0.1266 0.4459
vn -0.7028 0.0790 0.7070
vn -0.4027 -0.8774 0.2608
vn -0.2961 -0.7430 0.6003
vn -0.9417 -0.3142 0.1198
vn -0.7027 0.0790 0.7071
vn -0.2960 -0.7430 0.6003
vn -0.1469 -0.5017 0.8525
vn 0.3308 -0.9432 -0.0310
vn 0.5069 -0.8150 0.2807
vn -0.4027 -0.8774 0.2609
vn -0.1468 -0.5017 0.8525
vn 0.6094 -0.5696 0.5515
vn 0.7065 -0.4621 -0.5360
vn 0.5068 -0.8151 0.2807
vn 0.6095 -0.5695 0.5515
vn 0.5068 -0.8150 0.2807
vn 0.5950 -0.6291 0.5003
vn 0.9922 -0.1204 -0.0337
vn 0.5950 -0.6290 0.5003
vn -0.7506 0.0359 0.6598
vn -0.1806 -0.5595 0.8089
vn -0.7506 0.0360 0.6598
vn -0.0349 0.9525 -0.3025
vn -0.6857 0.7089 0.1652
vn 0.9921 -0.1204 -0.0338
vn 0.7235 0.6129 -0.3177
vn 0.7119 0.5834 -0.3910
vn 0.9921 -0.1204 -0.0337
vn 0.9968 -0.0735 0.0308
vn 0.6095 -0.5696 0.5515
vn -0.6858 0.7088 0.1651
vn -0.7028 0.0791 0.7070
vn -0.6858 0.7089 0.1651
vn 0.7118 0.5834 -0.3910
vn -0.9417 -0.3143 0.1198
vn -0.9417 -0.3143 0.1199
vn -0.4517 -0.8469 -0.2804
vn -0.2649 0.5526 -0.7903
vn -0.3666 0.0363 -0.9297
vn 0.4414 0.2036 -0.8739
vn -0.3667 0.0364 -0.9296
vn 0.9251 -0.2788 -0.2580
vn 0.6347 0.4502 -0.6280
vn 0.9250 -0.2788 -0.2580
vn -0.2896 -0.7336 0.6148
vn 0.5136 -0.8056 0.2951
vn -0.8129 0.5801 -0.0520
vn -0.8801 -0.1168 0.4603
vn -0.6857 0.7089 0.1651
vn 0.6347 0.4503 -0.6280
vn -0.1387 0.8325 -0.5364
vn 0.6347 0.4502 -0.6281
vn 0.5137 -0.8056 0.2951
vn 0.9922 -0.1204 -0.0338
vn 0.5137 -0.8057 0.2951
vn -0.8800 -0.1168 0.4603
vn -0.2897 -0.7336 0.6148
vt 0.530319 0.635056
vt 0.522446 0.641335
vt 0.524872 0.636299
vt 0.524872 0.646370
vt 0.534683 0.638535
vt 0.530319 0.647614
vt 0.534683 0.644127
vt 0.508789 0.671494
vt 0.513626 0.669548
vt 0.511276 0.672157
vt 0.507889 0.669609
vt 0.511566 0.666756
vt 0.507935 0.667854
vt 0.509277 0.666748
vt 0.506302 0.666855
vt 0.505722 0.669838
vt 0.502487 0.669685
vt 0.506897 0.673050
vt 0.503479 0.674789
vt 0.497520 0.669067
vt 0.497810 0.676537
vt 0.510727 0.675606
vt 0.507721 0.680244
vt 0.501465 0.684982
vt 0.518890 0.674767
vt 0.518692 0.686485
vt 0.509125 0.696274
vt 0.518890 0.658051
vt 0.512238 0.663902
vt 0.511536 0.659698
vt 0.517990 0.665543
vt 0.515472 0.651657
vt 0.509323 0.655174
vt 0.508469 0.664742
vt 0.506836 0.661980
vt 0.504074 0.658463
vt 0.503784 0.665283
vt 0.499901 0.662933
vt 0.495453 0.660286
vt 0.491707 0.668175
vt 0.506927 0.651588
vt 0.501038 0.654999
vt 0.494583 0.688484
vt 0.500031 0.699394
vt 0.491287 0.678001
vt 0.512177 0.648293
vt 0.627350 0.642853
vt 0.649124 0.647896
vt 0.627441 0.648445
vt 0.649033 0.642670
vt 0.627441 0.631676
vt 0.649033 0.637444
vt 0.627350 0.637268
vt 0.649124 0.632225
vt 0.627914 0.620506
vt 0.649292 0.626999
vt 0.627625 0.626091
vt 0.649551 0.621780
vt 0.649292 0.653114
vt 0.627625 0.654030
vt 0.649551 0.658333
vt 0.627914 0.659607
s 0
usemtl decorations
f 240/1/1 239/2/1 238/3/1
f 237/1/1 236/4/1 235/2/1
f 234/5/1 233/4/1 232/1/1
f 231/5/1 230/6/1 229/4/1
f 228/6/1 227/5/1 226/7/1
s 1
f 225/8/2 224/9/3 223/10/4
f 222/11/5 221/9/6 220/8/7
f 219/11/8 218/12/9 217/9/3
f 216/13/10 215/12/9 214/11/8
f 213/12/11 212/13/12 211/14/13
f 210/15/14 209/11/8 208/16/15
f 207/15/14 206/13/16 205/11/17
f 204/17/18 203/18/19 202/19/20
f 201/17/21 200/16/22 199/18/23
f 198/20/24 197/19/25 196/21/26
f 195/20/24 194/17/21 193/19/27
f 192/19/25 191/22/28 190/23/29
f 189/19/20 188/18/30 187/22/28
f 186/21/31 185/23/32 184/24/33
f 183/21/31 3/19/25 182/23/32
f 181/23/29 180/25/34 179/26/35
f 178/23/29 177/22/36 176/25/37
f 175/24/38 174/26/35 173/27/39
f 172/24/38 4/23/29 171/26/35
f 170/28/40 169/29/41 168/30/42
f 167/28/35 166/31/37 165/29/41
f 164/32/43 163/30/44 162/33/45
f 161/32/43 13/28/35 160/30/42
f 159/30/42 158/34/46 157/35/47
f 156/30/42 155/29/48 154/34/46
f 153/33/49 152/35/50 151/36/51
f 150/33/49 14/30/42 149/35/50
f 148/35/50 147/15/52 146/37/53
f 145/35/50 144/34/54 143/15/52
f 142/36/55 141/37/53 140/38/56
f 139/36/55 16/35/50 138/37/53
f 137/37/53 136/16/57 135/17/21
f 134/37/58 133/15/52 132/16/15
f 131/38/59 130/17/21 129/20/24
f 128/38/59 36/37/60 25/17/21
f 127/39/61 126/20/24 125/40/62
f 124/39/63 123/38/59 122/20/24
f 121/41/64 120/36/51 119/42/65
f 118/41/66 117/33/49 116/36/51
f 115/43/67 114/27/39 113/44/68
f 112/43/67 111/24/33 110/27/39
f 109/40/69 108/21/70 107/45/71
f 106/40/72 40/20/73 105/21/70
f 104/42/65 103/38/74 102/39/61
f 101/42/65 41/36/51 42/38/74
f 100/46/75 99/33/76 98/41/66
f 97/46/77 37/32/43 38/33/76
f 96/45/78 95/24/33 94/43/67
f 93/45/78 33/21/26 34/24/33
f 92/29/79 91/14/13 90/34/54
f 89/29/80 88/12/11 87/14/81
f 86/22/28 85/9/6 84/25/37
f 83/22/82 82/10/83 81/9/6
f 80/16/22 79/8/2 78/18/23
f 29/16/22 30/11/5 77/8/7
f 76/31/37 75/12/11 28/29/41
f 31/31/37 26/9/6 27/12/11
f 74/18/84 73/10/85 24/22/82
f 21/18/84 22/8/7 23/10/83
f 72/34/46 71/13/10 20/15/52
f 17/34/46 18/14/13 19/13/10
f 70/47/86 69/48/78 68/49/87
f 67/47/88 66/50/62 65/48/78
f 64/51/89 63/52/61 62/53/90
f 61/51/89 60/54/65 59/52/61
f 58/55/91 57/56/64 56/57/92
f 55/55/91 54/58/93 53/56/66
f 52/49/94 51/59/67 50/60/95
f 2/49/96 32/48/78 49/59/67
f 48/53/97 47/50/98 12/47/88
f 9/53/99 10/52/61 11/50/62
f 46/57/100 45/54/65 8/51/101
f 5/57/92 6/56/64 7/54/65
f 44/60/95 43/61/75 15/62/91
f 1/60/95 35/59/67 39/61/93
