# Blender 5.0.0
# www.blender.org
mtllib Circle_002_Circle_003_Dupli_5_decorations_0.mtl
o Circle.002|Circle.003|Dupli|5_decorations_0
v -4.489827 1.742279 0.415620
v -4.490417 1.741001 0.415600
v -4.497652 1.744002 0.416104
v -4.496810 1.745826 0.416132
v -4.489281 1.742612 0.418075
v -4.494237 1.744798 0.418796
v -4.494663 1.743679 0.419344
v -4.489737 1.741415 0.418662
v -4.490345 1.740308 0.418040
v -4.495232 1.742644 0.418763
v -4.495515 1.742471 0.417489
v -4.490647 1.740123 0.416677
v -4.496089 1.746849 0.417704
v -4.496031 1.746300 0.419636
v -4.489321 1.742996 0.416721
v -4.496681 1.744594 0.420473
v -4.498045 1.745227 0.420256
v -4.499013 1.745681 0.419751
v -4.499474 1.744842 0.419279
v -4.498752 1.743941 0.419534
v -4.498836 1.744745 0.416701
v -4.499529 1.745367 0.417430
v -4.499082 1.746336 0.417445
v -4.498150 1.746230 0.416724
v -4.497981 1.742750 0.417641
v -4.498699 1.746879 0.418280
v -4.498668 1.746588 0.419306
v -4.497517 1.746616 0.419575
v -4.499103 1.743727 0.417952
v -4.499704 1.744702 0.418247
v -4.497563 1.747062 0.418003
v -4.495299 1.743292 0.416482
v -4.496228 1.743492 0.416170
v -4.495499 1.745071 0.416194
v -4.494748 1.744487 0.416500
v -4.497549 1.743014 0.419586
v -4.494874 1.745957 0.417555
v -4.494825 1.745482 0.419227
v -4.494275 1.745157 0.417530
v -4.496512 1.742409 0.417501
v -4.495387 1.744004 0.419952
v -4.496138 1.742637 0.419184
v -4.494275 1.745157 0.417530
v -4.489827 1.742279 0.415620
v -4.494663 1.743679 0.419344
v -4.489281 1.742612 0.418075
v -4.495515 1.742471 0.417489
v -4.490345 1.740308 0.418040
v -4.494748 1.744487 0.416500
v -4.489827 1.742279 0.415620
v -4.494748 1.744487 0.416500
v -4.490417 1.741001 0.415600
v -4.494237 1.744798 0.418796
v -4.494275 1.745157 0.417530
v -4.489321 1.742996 0.416721
v -4.489281 1.742612 0.418075
v -4.494237 1.744798 0.418796
v -4.489321 1.742996 0.416721
v -4.495232 1.742644 0.418763
v -4.494663 1.743679 0.419344
v -4.489737 1.741415 0.418662
v -4.490345 1.740308 0.418040
v -4.495232 1.742644 0.418763
v -4.489737 1.741415 0.418662
v -4.495299 1.743292 0.416482
v -4.495515 1.742471 0.417489
v -4.490647 1.740123 0.416677
v -4.490417 1.741001 0.415600
v -4.495299 1.743292 0.416482
v -4.490647 1.740123 0.416677
v -4.499474 1.744842 0.419279
v -4.498045 1.745227 0.420256
v -4.499082 1.746336 0.417445
v -4.498836 1.744745 0.416701
v -4.498668 1.746588 0.419306
v -4.497563 1.747062 0.418003
v -4.499529 1.745367 0.417430
v -4.498836 1.744745 0.416701
v -4.499529 1.745367 0.417430
v -4.499103 1.743727 0.417952
v -4.498699 1.746879 0.418280
v -4.499082 1.746336 0.417445
v -4.498150 1.746230 0.416724
v -4.497563 1.747062 0.418003
v -4.498699 1.746879 0.418280
v -4.498150 1.746230 0.416724
v -4.499013 1.745681 0.419751
v -4.498668 1.746588 0.419306
v -4.497517 1.746616 0.419575
v -4.498045 1.745227 0.420256
v -4.499013 1.745681 0.419751
v -4.497517 1.746616 0.419575
v -4.495299 1.743292 0.416482
v -4.494748 1.744487 0.416500
v -4.495499 1.745071 0.416194
v -4.495299 1.743292 0.416482
v -4.494275 1.745157 0.417530
v -4.494237 1.744798 0.418796
v -4.494825 1.745482 0.419227
v -4.494275 1.745157 0.417530
v -4.494663 1.743679 0.419344
v -4.495232 1.742644 0.418763
v -4.496138 1.742637 0.419184
v -4.494663 1.743679 0.419344
v -4.496228 1.743492 0.416170
v -4.495515 1.742471 0.417489
v -4.495299 1.743292 0.416482
v -4.496228 1.743492 0.416170
v -4.495515 1.742471 0.417489
v -4.494874 1.745957 0.417555
v -4.495499 1.745071 0.416194
v -4.494748 1.744487 0.416500
v -4.494275 1.745157 0.417530
v -4.494874 1.745957 0.417555
v -4.494748 1.744487 0.416500
v -4.495387 1.744004 0.419952
v -4.494825 1.745482 0.419227
v -4.494237 1.744798 0.418796
v -4.494663 1.743679 0.419344
v -4.495387 1.744004 0.419952
v -4.494237 1.744798 0.418796
v -4.496512 1.742409 0.417501
v -4.496138 1.742637 0.419184
v -4.495232 1.742644 0.418763
v -4.495515 1.742471 0.417489
v -4.496512 1.742409 0.417501
v -4.495232 1.742644 0.418763
v -4.496138 1.742637 0.419184
v -4.496512 1.742409 0.417501
v -4.497981 1.742750 0.417641
v -4.496138 1.742637 0.419184
v -4.499103 1.743727 0.417952
v -4.498752 1.743941 0.419534
v -4.497549 1.743014 0.419586
v -4.497981 1.742750 0.417641
v -4.499103 1.743727 0.417952
v -4.497549 1.743014 0.419586
v -4.497549 1.743014 0.419586
v -4.495387 1.744004 0.419952
v -4.496138 1.742637 0.419184
v -4.497549 1.743014 0.419586
v -4.495387 1.744004 0.419952
v -4.498752 1.743941 0.419534
v -4.498045 1.745227 0.420256
v -4.496681 1.744594 0.420473
v -4.497549 1.743014 0.419586
v -4.498752 1.743941 0.419534
v -4.496681 1.744594 0.420473
v -4.496681 1.744594 0.420473
v -4.494825 1.745482 0.419227
v -4.495387 1.744004 0.419952
v -4.496681 1.744594 0.420473
v -4.494825 1.745482 0.419227
v -4.498045 1.745227 0.420256
v -4.497517 1.746616 0.419575
v -4.496031 1.746300 0.419636
v -4.496681 1.744594 0.420473
v -4.498045 1.745227 0.420256
v -4.496031 1.746300 0.419636
v -4.496031 1.746300 0.419636
v -4.494874 1.745957 0.417555
v -4.494825 1.745482 0.419227
v -4.496031 1.746300 0.419636
v -4.494874 1.745957 0.417555
v -4.497517 1.746616 0.419575
v -4.497563 1.747062 0.418003
v -4.496089 1.746849 0.417704
v -4.496031 1.746300 0.419636
v -4.497517 1.746616 0.419575
v -4.496089 1.746849 0.417704
v -4.496089 1.746849 0.417704
v -4.495499 1.745071 0.416194
v -4.494874 1.745957 0.417555
v -4.496089 1.746849 0.417704
v -4.495499 1.745071 0.416194
v -4.497563 1.747062 0.418003
v -4.498150 1.746230 0.416724
v -4.496810 1.745826 0.416132
v -4.496089 1.746849 0.417704
v -4.497563 1.747062 0.418003
v -4.496810 1.745826 0.416132
v -4.496810 1.745826 0.416132
v -4.496228 1.743492 0.416170
v -4.495499 1.745071 0.416194
v -4.496810 1.745826 0.416132
v -4.496228 1.743492 0.416170
v -4.498150 1.746230 0.416724
v -4.498836 1.744745 0.416701
v -4.497652 1.744002 0.416104
v -4.496810 1.745826 0.416132
v -4.498150 1.746230 0.416724
v -4.497652 1.744002 0.416104
v -4.497652 1.744002 0.416104
v -4.497981 1.742750 0.417641
v -4.496512 1.742409 0.417501
v -4.496228 1.743492 0.416170
v -4.497652 1.744002 0.416104
v -4.496512 1.742409 0.417501
v -4.498836 1.744745 0.416701
v -4.499103 1.743727 0.417952
v -4.497981 1.742750 0.417641
v -4.497652 1.744002 0.416104
v -4.498836 1.744745 0.416701
v -4.497981 1.742750 0.417641
v -4.499704 1.744702 0.418247
v -4.499474 1.744842 0.419279
v -4.498752 1.743941 0.419534
v -4.499103 1.743727 0.417952
v -4.499704 1.744702 0.418247
v -4.498752 1.743941 0.419534
v -4.499013 1.745681 0.419751
v -4.499474 1.744842 0.419279
v -4.498668 1.746588 0.419306
v -4.499704 1.744702 0.418247
v -4.498668 1.746588 0.419306
v -4.499474 1.744842 0.419279
v -4.498699 1.746879 0.418280
v -4.498668 1.746588 0.419306
v -4.499704 1.744702 0.418247
v -4.499529 1.745367 0.417430
v -4.498699 1.746879 0.418280
v -4.499704 1.744702 0.418247
v -4.499082 1.746336 0.417445
v -4.498699 1.746879 0.418280
v -4.499529 1.745367 0.417430
v -4.489737 1.741415 0.418662
v -4.489281 1.742612 0.418075
v -4.490345 1.740308 0.418040
v -4.490647 1.740123 0.416677
v -4.490345 1.740308 0.418040
v -4.489281 1.742612 0.418075
v -4.489321 1.742996 0.416721
v -4.490647 1.740123 0.416677
v -4.489281 1.742612 0.418075
v -4.490417 1.741001 0.415600
v -4.490647 1.740123 0.416677
v -4.489321 1.742996 0.416721
v -4.489827 1.742279 0.415620
v -4.490417 1.741001 0.415600
v -4.489321 1.742996 0.416721
vn 0.8993 -0.4129 -0.1440
vn -0.9087 0.1560 -0.3872
vn -0.5280 0.8493 0.0024
vn -0.7037 0.6001 -0.3804
vn -0.9888 -0.1489 -0.0128
vn -0.9087 0.1559 -0.3872
vn -0.9888 -0.1489 -0.0129
vn -0.5140 0.7156 0.4729
vn -0.8835 -0.0848 0.4607
vn -0.5140 0.7157 0.4729
vn -0.8835 -0.0848 0.4606
vn -0.6722 0.2999 0.6769
vn -0.5950 -0.5209 0.6120
vn -0.7655 -0.6246 -0.1546
vn -0.4700 -0.8527 -0.2281
vn -0.6358 -0.1312 -0.7606
vn -0.3283 -0.3124 -0.8914
vn -0.4701 -0.8526 -0.2281
vn -0.7654 -0.6247 -0.1546
vn -0.6359 -0.1312 -0.7606
vn -0.1074 -0.9572 -0.2686
vn -0.3282 -0.3124 -0.8914
vn 0.0262 -0.4483 -0.8935
vn -0.3039 0.5880 -0.7496
vn 0.0352 0.4748 -0.8794
vn -0.6358 -0.1311 -0.7606
vn 0.0263 -0.4483 -0.8935
vn 0.0351 0.4748 -0.8794
vn 0.3685 0.2933 -0.8821
vn -0.0194 0.9913 -0.1299
vn 0.3465 0.9163 -0.2010
vn -0.3038 0.5881 -0.7496
vn -0.0195 0.9913 -0.1299
vn 0.3686 0.2932 -0.8821
vn 0.6618 0.7091 -0.2431
vn 0.3465 0.9162 -0.2010
vn 0.0032 0.7751 0.6319
vn 0.3713 0.6795 0.6328
vn 0.6619 0.7091 -0.2430
vn 0.6852 0.4861 0.5424
vn 0.3713 0.6796 0.6327
vn -0.2530 0.1021 0.9621
vn 0.0909 -0.0572 0.9942
vn 0.0032 0.7750 0.6319
vn 0.4210 -0.2079 0.8829
vn -0.5950 -0.5209 0.6121
vn -0.2836 -0.7390 0.6111
vn -0.2530 0.1020 0.9621
vn -0.5951 -0.5208 0.6121
vn 0.0683 -0.8502 0.5220
vn -0.2836 -0.7391 0.6110
vn 0.0683 -0.8502 0.5219
vn -0.0062 -0.8369 0.5474
vn -0.1864 -0.9466 -0.2632
vn 0.6264 0.5335 0.5684
vn 0.3555 -0.1782 0.9175
vn 0.3017 0.3357 -0.8923
vn 0.6025 0.7621 -0.2371
vn 0.3686 0.2933 -0.8821
vn -0.0493 -0.4248 -0.9040
vn -0.1074 -0.9573 -0.2686
vn 0.0262 -0.4484 -0.8935
vn -0.0062 -0.8368 0.5474
vn 0.6024 0.7622 -0.2371
vn 0.6264 0.5334 0.5684
vn -0.0494 -0.4247 -0.9040
vn -0.0493 -0.4247 -0.9040
vn -0.3039 0.5881 -0.7496
vn -0.5280 0.8492 0.0024
vn -0.7654 -0.6247 -0.1547
vn -0.0195 0.9913 -0.1298
vn -0.7036 0.6001 -0.3804
vn -0.5951 -0.5209 0.6120
vn -0.4537 -0.8607 -0.2309
vn -0.3118 -0.3202 -0.8946
vn -0.1863 -0.9466 -0.2632
vn -0.0494 -0.4248 -0.9040
vn 0.1075 -0.0649 0.9921
vn -0.2671 -0.7470 0.6088
vn 0.3633 0.9091 -0.2037
vn 0.3881 0.6723 0.6304
vn 0.6024 0.7621 -0.2371
vn 0.0518 0.4674 -0.8825
vn -0.2671 -0.7471 0.6087
vn 0.3881 0.6722 0.6304
vn 0.3633 0.9091 -0.2038
vt 0.530319 0.611839
vt 0.522446 0.618118
vt 0.524872 0.613083
vt 0.524872 0.623154
vt 0.534683 0.615326
vt 0.530319 0.624397
vt 0.534683 0.620918
vt 0.537079 0.671494
vt 0.541916 0.669548
vt 0.539566 0.672157
vt 0.536179 0.669609
vt 0.539856 0.666756
vt 0.536224 0.667854
vt 0.537567 0.666748
vt 0.534592 0.666855
vt 0.534012 0.669838
vt 0.530777 0.669685
vt 0.535187 0.673050
vt 0.531769 0.674789
vt 0.525803 0.669067
vt 0.526108 0.676537
vt 0.539017 0.675606
vt 0.536011 0.680244
vt 0.529755 0.684982
vt 0.547180 0.674767
vt 0.546982 0.686485
vt 0.537415 0.696274
vt 0.547180 0.658051
vt 0.540527 0.663902
vt 0.539825 0.659698
vt 0.546280 0.665543
vt 0.543762 0.651657
vt 0.537613 0.655174
vt 0.536758 0.664742
vt 0.535126 0.661980
vt 0.532364 0.658463
vt 0.532074 0.665283
vt 0.528198 0.662933
vt 0.523743 0.660286
vt 0.519989 0.668175
vt 0.535217 0.651588
vt 0.529327 0.654999
vt 0.522873 0.688484
vt 0.528320 0.699394
vt 0.519577 0.678001
vt 0.540466 0.648293
vt 0.604446 0.642853
vt 0.626221 0.647896
vt 0.604553 0.648445
vt 0.626144 0.642670
vt 0.604553 0.631676
vt 0.626144 0.637444
vt 0.604446 0.637268
vt 0.626221 0.632225
vt 0.605011 0.620506
vt 0.626404 0.626999
vt 0.604736 0.626091
vt 0.626663 0.621780
vt 0.626404 0.653114
vt 0.604736 0.654030
vt 0.626663 0.658333
vt 0.605011 0.659607
s 0
usemtl decorations
f 240/1/1 239/2/1 238/3/1
f 237/1/1 236/4/1 235/2/1
f 234/5/1 233/4/1 232/1/1
f 231/5/1 230/6/1 229/4/1
f 228/6/1 227/5/1 226/7/1
s 1
f 225/8/2 224/9/3 223/10/4
f 222/11/5 221/9/3 220/8/6
f 219/11/7 218/12/8 217/9/3
f 216/13/9 215/12/10 214/11/7
f 213/12/8 212/13/11 211/14/12
f 210/15/13 209/11/7 208/16/14
f 207/15/13 206/13/11 205/11/7
f 204/17/15 203/18/16 202/19/17
f 201/17/18 200/16/19 199/18/20
f 198/20/21 197/19/22 196/21/23
f 195/20/21 194/17/18 193/19/17
f 192/19/22 191/22/24 190/23/25
f 189/19/17 188/18/26 187/22/24
f 186/21/27 185/23/28 184/24/29
f 183/21/27 3/19/22 182/23/28
f 181/23/25 180/25/30 179/26/31
f 178/23/25 177/22/32 176/25/33
f 175/24/34 174/26/31 173/27/35
f 172/24/34 4/23/25 171/26/31
f 170/28/36 169/29/37 168/30/38
f 167/28/31 166/31/30 165/29/37
f 164/32/39 163/30/38 162/33/40
f 161/32/39 13/28/31 160/30/41
f 159/30/38 158/34/42 157/35/43
f 156/30/38 155/29/44 154/34/42
f 153/33/40 152/35/43 151/36/45
f 150/33/40 14/30/38 149/35/43
f 148/35/43 147/15/46 146/37/47
f 145/35/43 144/34/48 143/15/49
f 142/36/45 141/37/47 140/38/50
f 139/36/45 16/35/43 138/37/47
f 137/37/51 136/16/19 135/17/18
f 134/37/47 133/15/13 132/16/14
f 131/38/52 130/17/18 129/20/21
f 128/38/52 36/37/47 25/17/18
f 127/39/53 126/20/21 125/40/54
f 124/39/53 123/38/50 122/20/21
f 121/41/55 120/36/45 119/42/56
f 118/41/55 117/33/40 116/36/45
f 115/43/57 114/27/35 113/44/58
f 112/43/57 111/24/59 110/27/35
f 109/40/54 108/21/23 107/45/60
f 106/40/54 40/20/61 105/21/62
f 104/42/56 103/38/50 102/39/63
f 101/42/56 41/36/45 42/38/50
f 100/46/64 99/33/40 98/41/65
f 97/46/64 37/32/39 38/33/40
f 96/45/66 95/24/59 94/43/57
f 93/45/67 33/21/23 34/24/59
f 92/29/44 91/14/12 90/34/42
f 89/29/44 88/12/8 87/14/12
f 86/22/68 85/9/3 84/25/33
f 83/22/32 82/10/4 81/9/69
f 80/16/70 79/8/2 78/18/20
f 29/16/70 30/11/5 77/8/6
f 76/31/71 75/12/8 28/29/37
f 31/31/71 26/9/69 27/12/8
f 74/18/16 73/10/72 24/22/24
f 21/18/16 22/8/6 23/10/4
f 72/34/48 71/13/11 20/15/73
f 17/34/48 18/14/12 19/13/11
f 70/47/74 69/48/66 68/49/75
f 67/47/74 66/50/76 65/48/77
f 64/51/78 63/52/63 62/53/79
f 61/51/78 60/54/56 59/52/63
f 58/55/80 57/56/65 56/57/81
f 55/55/80 54/58/82 53/56/65
f 52/49/75 51/59/57 50/60/83
f 2/49/75 32/48/67 49/59/57
f 48/53/84 47/50/54 12/47/74
f 9/53/84 10/52/63 11/50/54
f 46/57/85 45/54/56 8/51/78
f 5/57/81 6/56/65 7/54/56
f 44/60/83 43/61/64 15/62/86
f 1/60/83 35/59/57 39/61/64
