# Blender 5.0.0
# www.blender.org
mtllib Circle_002_Circle_004_Dupli_224_decorations_0.mtl
o Circle.002|Circle.004|Dupli|224_decorations_0
v -4.567648 2.109899 0.617949
v -4.568767 2.109510 0.617187
v -4.573570 2.114145 0.621318
v -4.571973 2.114699 0.622405
v -4.567515 2.108088 0.619721
v -4.570817 2.111067 0.622896
v -4.571833 2.110286 0.622593
v -4.568601 2.107251 0.619397
v -4.569531 2.107387 0.618348
v -4.572702 2.110412 0.621613
v -4.572771 2.111352 0.620693
v -4.569605 2.108392 0.617365
v -4.571178 2.113796 0.624014
v -4.571784 2.112115 0.624934
v -4.567091 2.109266 0.619077
v -4.573333 2.110922 0.624471
v -4.574143 2.112052 0.625085
v -4.574645 2.113104 0.625284
v -4.575350 2.113207 0.624490
v -4.575223 2.112209 0.623867
v -4.574336 2.114674 0.622519
v -4.574771 2.114816 0.623610
v -4.573923 2.115110 0.624187
v -4.573037 2.115126 0.623403
v -4.574765 2.112550 0.621571
v -4.573501 2.114631 0.625042
v -4.573822 2.113738 0.625530
v -4.572883 2.113023 0.625461
v -4.575309 2.113376 0.622725
v -4.575406 2.113969 0.623744
v -4.572391 2.114391 0.624713
v -4.571988 2.112397 0.620527
v -4.572618 2.113159 0.620673
v -4.571237 2.113639 0.621615
v -4.570942 2.112761 0.621240
v -4.574660 2.111116 0.622975
v -4.570549 2.112857 0.623007
v -4.571072 2.111402 0.623803
v -4.570421 2.112169 0.622294
v -4.573653 2.111778 0.620893
v -4.572413 2.110370 0.623403
v -4.573562 2.110537 0.622107
v -4.570421 2.112169 0.622294
v -4.567648 2.109899 0.617949
v -4.571833 2.110286 0.622593
v -4.567515 2.108088 0.619721
v -4.572771 2.111352 0.620693
v -4.569531 2.107387 0.618348
v -4.570942 2.112761 0.621240
v -4.567648 2.109899 0.617949
v -4.570942 2.112761 0.621240
v -4.568767 2.109510 0.617187
v -4.570817 2.111067 0.622896
v -4.570421 2.112169 0.622294
v -4.567091 2.109266 0.619077
v -4.567515 2.108088 0.619721
v -4.570817 2.111067 0.622896
v -4.567091 2.109266 0.619077
v -4.572702 2.110412 0.621613
v -4.571833 2.110286 0.622593
v -4.568601 2.107251 0.619397
v -4.569531 2.107387 0.618348
v -4.572702 2.110412 0.621613
v -4.568601 2.107251 0.619397
v -4.571988 2.112397 0.620527
v -4.572771 2.111352 0.620693
v -4.569605 2.108392 0.617365
v -4.568767 2.109510 0.617187
v -4.571988 2.112397 0.620527
v -4.569605 2.108392 0.617365
v -4.575350 2.113207 0.624490
v -4.574143 2.112052 0.625085
v -4.573923 2.115110 0.624187
v -4.574336 2.114674 0.622519
v -4.573822 2.113738 0.625530
v -4.572391 2.114391 0.624713
v -4.574771 2.114816 0.623610
v -4.574336 2.114674 0.622519
v -4.574771 2.114816 0.623610
v -4.575309 2.113376 0.622725
v -4.573501 2.114631 0.625042
v -4.573923 2.115110 0.624187
v -4.573037 2.115126 0.623403
v -4.572391 2.114391 0.624713
v -4.573501 2.114631 0.625042
v -4.573037 2.115126 0.623403
v -4.574645 2.113104 0.625284
v -4.573822 2.113738 0.625530
v -4.572883 2.113023 0.625461
v -4.574143 2.112052 0.625085
v -4.574645 2.113104 0.625284
v -4.572883 2.113023 0.625461
v -4.571988 2.112397 0.620527
v -4.570942 2.112761 0.621240
v -4.571237 2.113639 0.621615
v -4.571988 2.112397 0.620527
v -4.570421 2.112169 0.622294
v -4.570817 2.111067 0.622896
v -4.571072 2.111402 0.623803
v -4.570421 2.112169 0.622294
v -4.571833 2.110286 0.622593
v -4.572702 2.110412 0.621613
v -4.573562 2.110537 0.622107
v -4.571833 2.110286 0.622593
v -4.572618 2.113159 0.620673
v -4.572771 2.111352 0.620693
v -4.571988 2.112397 0.620527
v -4.572618 2.113159 0.620673
v -4.572771 2.111352 0.620693
v -4.570549 2.112857 0.623007
v -4.571237 2.113639 0.621615
v -4.570942 2.112761 0.621240
v -4.570421 2.112169 0.622294
v -4.570549 2.112857 0.623007
v -4.570942 2.112761 0.621240
v -4.572413 2.110370 0.623403
v -4.571072 2.111402 0.623803
v -4.570817 2.111067 0.622896
v -4.571833 2.110286 0.622593
v -4.572413 2.110370 0.623403
v -4.570817 2.111067 0.622896
v -4.573653 2.111778 0.620893
v -4.573562 2.110537 0.622107
v -4.572702 2.110412 0.621613
v -4.572771 2.111352 0.620693
v -4.573653 2.111778 0.620893
v -4.572702 2.110412 0.621613
v -4.573562 2.110537 0.622107
v -4.573653 2.111778 0.620893
v -4.574765 2.112550 0.621571
v -4.573562 2.110537 0.622107
v -4.575309 2.113376 0.622725
v -4.575223 2.112209 0.623867
v -4.574660 2.111116 0.622975
v -4.574765 2.112550 0.621571
v -4.575309 2.113376 0.622725
v -4.574660 2.111116 0.622975
v -4.574660 2.111116 0.622975
v -4.572413 2.110370 0.623403
v -4.573562 2.110537 0.622107
v -4.574660 2.111116 0.622975
v -4.572413 2.110370 0.623403
v -4.575223 2.112209 0.623867
v -4.574143 2.112052 0.625085
v -4.573333 2.110922 0.624471
v -4.574660 2.111116 0.622975
v -4.575223 2.112209 0.623867
v -4.573333 2.110922 0.624471
v -4.573333 2.110922 0.624471
v -4.571072 2.111402 0.623803
v -4.572413 2.110370 0.623403
v -4.573333 2.110922 0.624471
v -4.571072 2.111402 0.623803
v -4.574143 2.112052 0.625085
v -4.572883 2.113023 0.625461
v -4.571784 2.112115 0.624934
v -4.573333 2.110922 0.624471
v -4.574143 2.112052 0.625085
v -4.571784 2.112115 0.624934
v -4.571784 2.112115 0.624934
v -4.570549 2.112857 0.623007
v -4.571072 2.111402 0.623803
v -4.571784 2.112115 0.624934
v -4.570549 2.112857 0.623007
v -4.572883 2.113023 0.625461
v -4.572391 2.114391 0.624713
v -4.571178 2.113796 0.624014
v -4.571784 2.112115 0.624934
v -4.572883 2.113023 0.625461
v -4.571178 2.113796 0.624014
v -4.571178 2.113796 0.624014
v -4.571237 2.113639 0.621615
v -4.570549 2.112857 0.623007
v -4.571178 2.113796 0.624014
v -4.571237 2.113639 0.621615
v -4.572391 2.114391 0.624713
v -4.573037 2.115126 0.623403
v -4.571973 2.114699 0.622405
v -4.571178 2.113796 0.624014
v -4.572391 2.114391 0.624713
v -4.571973 2.114699 0.622405
v -4.571973 2.114699 0.622405
v -4.572618 2.113159 0.620673
v -4.571237 2.113639 0.621615
v -4.571973 2.114699 0.622405
v -4.572618 2.113159 0.620673
v -4.573037 2.115126 0.623403
v -4.574336 2.114674 0.622519
v -4.573570 2.114145 0.621318
v -4.571973 2.114699 0.622405
v -4.573037 2.115126 0.623403
v -4.573570 2.114145 0.621318
v -4.573570 2.114145 0.621318
v -4.574765 2.112550 0.621571
v -4.573653 2.111778 0.620893
v -4.572618 2.113159 0.620673
v -4.573570 2.114145 0.621318
v -4.573653 2.111778 0.620893
v -4.574336 2.114674 0.622519
v -4.575309 2.113376 0.622725
v -4.574765 2.112550 0.621571
v -4.573570 2.114145 0.621318
v -4.574336 2.114674 0.622519
v -4.574765 2.112550 0.621571
v -4.575406 2.113969 0.623744
v -4.575350 2.113207 0.624490
v -4.575223 2.112209 0.623867
v -4.575309 2.113376 0.622725
v -4.575406 2.113969 0.623744
v -4.575223 2.112209 0.623867
v -4.574645 2.113104 0.625284
v -4.575350 2.113207 0.624490
v -4.573822 2.113738 0.625530
v -4.575406 2.113969 0.623744
v -4.573822 2.113738 0.625530
v -4.575350 2.113207 0.624490
v -4.573501 2.114631 0.625042
v -4.573822 2.113738 0.625530
v -4.575406 2.113969 0.623744
v -4.574771 2.114816 0.623610
v -4.573501 2.114631 0.625042
v -4.575406 2.113969 0.623744
v -4.573923 2.115110 0.624187
v -4.573501 2.114631 0.625042
v -4.574771 2.114816 0.623610
v -4.568601 2.107251 0.619397
v -4.567515 2.108088 0.619721
v -4.569531 2.107387 0.618348
v -4.569605 2.108392 0.617365
v -4.569531 2.107387 0.618348
v -4.567515 2.108088 0.619721
v -4.567091 2.109266 0.619077
v -4.569605 2.108392 0.617365
v -4.567515 2.108088 0.619721
v -4.568767 2.109510 0.617187
v -4.569605 2.108392 0.617365
v -4.567091 2.109266 0.619077
v -4.567648 2.109899 0.617949
v -4.568767 2.109510 0.617187
v -4.567091 2.109266 0.619077
vn 0.5939 -0.5399 -0.5965
vn -0.6200 0.7824 0.0590
vn -0.0378 0.6974 0.7157
vn -0.2314 0.9174 0.3238
vn -0.9112 0.3939 0.1208
vn -0.6201 0.7823 0.0590
vn -0.9112 0.3940 0.1207
vn -0.1851 0.2880 0.9396
vn -0.8855 0.0446 0.4625
vn -0.8855 0.0447 0.4624
vn -0.5624 -0.0025 0.8269
vn -0.8820 -0.4292 0.1946
vn -0.9235 0.1362 -0.3585
vn -0.8820 -0.4293 0.1946
vn -0.8855 0.0447 0.4625
vn -0.7680 -0.0717 -0.6365
vn -0.4522 0.7651 -0.4585
vn -0.2521 0.6166 -0.7458
vn -0.7680 -0.0717 -0.6364
vn -0.9235 0.1362 -0.3586
vn -0.5019 -0.2689 -0.8220
vn -0.2521 0.6167 -0.7458
vn -0.0160 0.3796 -0.9250
vn -0.5020 -0.2689 -0.8220
vn 0.1771 0.9837 -0.0298
vn 0.4367 0.8560 -0.2766
vn -0.4521 0.7651 -0.4585
vn -0.0159 0.3795 -0.9250
vn 0.6329 0.6050 -0.4830
vn 0.4905 0.6276 0.6046
vn 0.7798 0.4661 0.4179
vn 0.1772 0.9837 -0.0298
vn 0.6330 0.6050 -0.4830
vn 0.9561 0.2377 0.1712
vn 0.4368 0.8560 -0.2766
vn 0.2520 -0.0352 0.9671
vn 0.5187 -0.2593 0.8147
vn 0.5187 -0.2594 0.8146
vn 0.7102 -0.4457 0.5450
vn -0.3588 -0.5055 0.7847
vn -0.1499 -0.7742 0.6150
vn 0.7102 -0.4457 0.5449
vn -0.1499 -0.7742 0.6149
vn 0.0803 -0.9307 0.3569
vn -0.8819 -0.4293 0.1947
vn -0.7225 -0.6907 -0.0308
vn -0.3588 -0.5056 0.7846
vn -0.8820 -0.4292 0.1947
vn 0.0803 -0.9307 0.3568
vn -0.4592 -0.8520 -0.2515
vn -0.7225 -0.6907 -0.0309
vn -0.7226 -0.6906 -0.0308
vn -0.8820 -0.4293 0.1947
vn -0.4591 -0.8520 -0.2515
vn -0.5212 -0.8279 -0.2074
vn -0.5651 -0.2300 -0.7924
vn -0.5211 -0.8279 -0.2074
vn 0.6779 -0.4113 0.6094
vn 0.0320 -0.9086 0.4165
vn 0.5987 0.6662 -0.4447
vn 0.9561 0.2378 0.1712
vn 0.9301 0.2895 0.2261
vn 0.5987 0.6661 -0.4447
vn -0.5651 -0.2300 -0.7923
vn -0.0160 0.3795 -0.9250
vn -0.0667 0.4349 -0.8980
vn 0.9301 0.2896 0.2261
vn -0.0667 0.4350 -0.8980
vn 0.2520 -0.0353 0.9671
vn -0.5624 -0.0025 0.8268
vn -0.2314 0.9174 0.3237
vn -0.9235 0.1363 -0.3586
vn -0.9112 0.3939 0.1207
vn -0.6200 0.7823 0.0591
vn -0.2313 0.9174 0.3238
vn -0.3588 -0.5055 0.7846
vn -0.7574 -0.0817 -0.6478
vn -0.2412 0.6070 -0.7572
vn -0.1390 -0.7846 0.6042
vn -0.7119 -0.7010 -0.0419
vn -0.1391 -0.7846 0.6042
vn 0.7912 0.4563 0.4071
vn 0.5300 -0.2694 0.8041
vn 0.7912 0.4564 0.4071
vn 0.4479 0.8465 -0.2878
vn 0.5987 0.6662 -0.4448
vn -0.5651 -0.2299 -0.7923
vn -0.7120 -0.7010 -0.0419
vn 0.5300 -0.2695 0.8040
vn 0.4480 0.8465 -0.2878
vn 0.5987 0.6661 -0.4448
vt 0.530319 0.635056
vt 0.522446 0.641335
vt 0.524872 0.636299
vt 0.524872 0.646370
vt 0.534683 0.638535
vt 0.530319 0.647614
vt 0.534683 0.644127
vt 0.508789 0.671494
vt 0.513626 0.669548
vt 0.511276 0.672157
vt 0.507889 0.669609
vt 0.511566 0.666756
vt 0.507935 0.667854
vt 0.509277 0.666748
vt 0.506302 0.666855
vt 0.505722 0.669838
vt 0.502487 0.669685
vt 0.506897 0.673050
vt 0.503479 0.674789
vt 0.497520 0.669067
vt 0.497810 0.676537
vt 0.510727 0.675606
vt 0.507721 0.680244
vt 0.501465 0.684982
vt 0.518890 0.674767
vt 0.518692 0.686485
vt 0.509125 0.696274
vt 0.518890 0.658051
vt 0.512238 0.663902
vt 0.511536 0.659698
vt 0.517990 0.665543
vt 0.515472 0.651657
vt 0.509323 0.655174
vt 0.508469 0.664742
vt 0.506836 0.661980
vt 0.504074 0.658463
vt 0.503784 0.665283
vt 0.499901 0.662933
vt 0.495453 0.660286
vt 0.491707 0.668175
vt 0.506927 0.651588
vt 0.501038 0.654999
vt 0.494583 0.688484
vt 0.500031 0.699394
vt 0.491287 0.678001
vt 0.512177 0.648293
vt 0.627350 0.642853
vt 0.649124 0.647896
vt 0.627441 0.648445
vt 0.649033 0.642670
vt 0.627441 0.631676
vt 0.649033 0.637444
vt 0.627350 0.637268
vt 0.649124 0.632225
vt 0.627914 0.620506
vt 0.649292 0.626999
vt 0.627625 0.626091
vt 0.649551 0.621780
vt 0.649292 0.653114
vt 0.627625 0.654030
vt 0.649551 0.658333
vt 0.627914 0.659607
s 0
usemtl decorations
f 240/1/1 239/2/1 238/3/1
f 237/1/1 236/4/1 235/2/1
f 234/5/1 233/4/1 232/1/1
f 231/5/1 230/6/1 229/4/1
f 228/6/1 227/5/1 226/7/1
s 1
f 225/8/2 224/9/3 223/10/4
f 222/11/5 221/9/3 220/8/6
f 219/11/7 218/12/8 217/9/3
f 216/13/9 215/12/8 214/11/7
f 213/12/8 212/13/10 211/14/11
f 210/15/12 209/11/7 208/16/13
f 207/15/14 206/13/15 205/11/5
f 204/17/16 203/18/17 202/19/18
f 201/17/19 200/16/20 199/18/17
f 198/20/21 197/19/22 196/21/23
f 195/20/24 194/17/19 193/19/22
f 192/19/18 191/22/25 190/23/26
f 189/19/18 188/18/27 187/22/25
f 186/21/28 185/23/26 184/24/29
f 183/21/28 3/19/18 182/23/26
f 181/23/26 180/25/30 179/26/31
f 178/23/26 177/22/32 176/25/30
f 175/24/33 174/26/31 173/27/34
f 172/24/33 4/23/35 171/26/31
f 170/28/31 169/29/36 168/30/37
f 167/28/31 166/31/30 165/29/36
f 164/32/34 163/30/38 162/33/39
f 161/32/34 13/28/31 160/30/37
f 159/30/37 158/34/40 157/35/41
f 156/30/37 155/29/36 154/34/40
f 153/33/42 152/35/43 151/36/44
f 150/33/42 14/30/37 149/35/43
f 148/35/43 147/15/45 146/37/46
f 145/35/43 144/34/47 143/15/48
f 142/36/49 141/37/46 140/38/50
f 139/36/49 16/35/43 138/37/51
f 137/37/51 136/16/20 135/17/19
f 134/37/52 133/15/53 132/16/13
f 131/38/54 130/17/19 129/20/24
f 128/38/54 36/37/46 25/17/19
f 127/39/55 126/20/24 125/40/56
f 124/39/57 123/38/54 122/20/24
f 121/41/58 120/36/44 119/42/59
f 118/41/58 117/33/42 116/36/44
f 115/43/60 114/27/61 113/44/62
f 112/43/63 111/24/33 110/27/61
f 109/40/64 108/21/65 107/45/66
f 106/40/64 40/20/21 105/21/65
f 104/42/59 103/38/54 102/39/57
f 101/42/59 41/36/44 42/38/54
f 100/46/67 99/33/39 98/41/58
f 97/46/67 37/32/34 38/33/39
f 96/45/68 95/24/33 94/43/63
f 93/45/66 33/21/28 34/24/33
f 92/29/69 91/14/11 90/34/40
f 89/29/69 88/12/8 87/14/70
f 86/22/25 85/9/3 84/25/30
f 83/22/25 82/10/71 81/9/3
f 80/16/72 79/8/2 78/18/17
f 29/16/72 30/11/73 77/8/74
f 76/31/30 75/12/8 28/29/36
f 31/31/30 26/9/3 27/12/8
f 74/18/27 73/10/75 24/22/25
f 21/18/27 22/8/74 23/10/4
f 72/34/40 71/13/10 20/15/48
f 17/34/76 18/14/11 19/13/15
f 70/47/77 69/48/68 68/49/78
f 67/47/77 66/50/64 65/48/66
f 64/51/79 63/52/55 62/53/80
f 61/51/81 60/54/59 59/52/57
f 58/55/82 57/56/58 56/57/83
f 55/55/84 54/58/62 53/56/58
f 52/49/78 51/59/60 50/60/85
f 2/49/78 32/48/66 49/59/86
f 48/53/80 47/50/87 12/47/77
f 9/53/88 10/52/55 11/50/56
f 46/57/89 45/54/59 8/51/79
f 5/57/83 6/56/58 7/54/59
f 44/60/90 43/61/67 15/62/84
f 1/60/85 35/59/91 39/61/67
