# Blender 5.0.0
# www.blender.org
mtllib Circle_002_Circle_001_Dupli_302_decorations_0.mtl
o Circle.002|Circle.001|Dupli|302_decorations_0
v -4.458487 2.114393 0.656267
v -4.457532 2.114324 0.657300
v -4.462541 2.117339 0.662538
v -4.463903 2.117437 0.661064
v -4.457963 2.116616 0.655161
v -4.461413 2.119058 0.658625
v -4.460400 2.119507 0.659335
v -4.456879 2.117096 0.655921
v -4.456243 2.116492 0.657023
v -4.459805 2.118942 0.660365
v -4.460077 2.117788 0.660939
v -4.456534 2.115258 0.657637
v -4.464176 2.118893 0.659706
v -4.463155 2.120609 0.659486
v -4.458679 2.115413 0.655315
v -4.461608 2.121294 0.660571
v -4.462696 2.121579 0.661594
v -4.463563 2.121450 0.662387
v -4.463082 2.120993 0.663222
v -4.461957 2.120878 0.662873
v -4.463454 2.118361 0.663195
v -4.464059 2.119350 0.663432
v -4.464782 2.119402 0.662649
v -4.464562 2.118441 0.661995
v -4.461116 2.118672 0.663018
v -4.464927 2.120175 0.661928
v -4.464385 2.121086 0.661811
v -4.463954 2.121022 0.660711
v -4.462295 2.119446 0.663585
v -4.463302 2.120058 0.663687
v -4.464785 2.119625 0.660890
v -4.461011 2.116915 0.660624
v -4.461585 2.116915 0.661443
v -4.462764 2.117000 0.660167
v -4.461904 2.116979 0.659658
v -4.460701 2.120432 0.662142
v -4.463000 2.118260 0.658991
v -4.462117 2.119746 0.658801
v -4.462082 2.117933 0.658768
v -4.460352 2.118069 0.661858
v -4.460778 2.120339 0.659740
v -4.459993 2.119593 0.661100
v -4.462082 2.117933 0.658768
v -4.458487 2.114393 0.656267
v -4.460400 2.119507 0.659335
v -4.457963 2.116616 0.655161
v -4.460077 2.117788 0.660939
v -4.456243 2.116492 0.657023
v -4.461904 2.116979 0.659658
v -4.458487 2.114393 0.656267
v -4.461904 2.116979 0.659658
v -4.457532 2.114324 0.657300
v -4.461413 2.119058 0.658625
v -4.462082 2.117933 0.658768
v -4.458679 2.115413 0.655315
v -4.457963 2.116616 0.655161
v -4.461413 2.119058 0.658625
v -4.458679 2.115413 0.655315
v -4.459805 2.118942 0.660365
v -4.460400 2.119507 0.659335
v -4.456879 2.117096 0.655921
v -4.456243 2.116492 0.657023
v -4.459805 2.118942 0.660365
v -4.456879 2.117096 0.655921
v -4.461011 2.116915 0.660624
v -4.460077 2.117788 0.660939
v -4.456534 2.115258 0.657637
v -4.457532 2.114324 0.657300
v -4.461011 2.116915 0.660624
v -4.456534 2.115258 0.657637
v -4.463082 2.120993 0.663222
v -4.462696 2.121579 0.661594
v -4.464782 2.119402 0.662649
v -4.463454 2.118361 0.663195
v -4.464385 2.121086 0.661811
v -4.464785 2.119625 0.660890
v -4.464059 2.119350 0.663432
v -4.463454 2.118361 0.663195
v -4.464059 2.119350 0.663432
v -4.462295 2.119446 0.663585
v -4.464927 2.120175 0.661928
v -4.464782 2.119402 0.662649
v -4.464562 2.118441 0.661995
v -4.464785 2.119625 0.660890
v -4.464927 2.120175 0.661928
v -4.464562 2.118441 0.661995
v -4.463563 2.121450 0.662387
v -4.464385 2.121086 0.661811
v -4.463954 2.121022 0.660711
v -4.462696 2.121579 0.661594
v -4.463563 2.121450 0.662387
v -4.463954 2.121022 0.660711
v -4.461011 2.116915 0.660624
v -4.461904 2.116979 0.659658
v -4.462764 2.117000 0.660167
v -4.461011 2.116915 0.660624
v -4.462082 2.117933 0.658768
v -4.461413 2.119058 0.658625
v -4.462117 2.119746 0.658801
v -4.462082 2.117933 0.658768
v -4.460400 2.119507 0.659335
v -4.459805 2.118942 0.660365
v -4.459993 2.119593 0.661100
v -4.460400 2.119507 0.659335
v -4.461585 2.116915 0.661443
v -4.460077 2.117788 0.660939
v -4.461011 2.116915 0.660624
v -4.461585 2.116915 0.661443
v -4.460077 2.117788 0.660939
v -4.463000 2.118260 0.658991
v -4.462764 2.117000 0.660167
v -4.461904 2.116979 0.659658
v -4.462082 2.117933 0.658768
v -4.463000 2.118260 0.658991
v -4.461904 2.116979 0.659658
v -4.460778 2.120339 0.659740
v -4.462117 2.119746 0.658801
v -4.461413 2.119058 0.658625
v -4.460400 2.119507 0.659335
v -4.460778 2.120339 0.659740
v -4.461413 2.119058 0.658625
v -4.460352 2.118069 0.661858
v -4.459993 2.119593 0.661100
v -4.459805 2.118942 0.660365
v -4.460077 2.117788 0.660939
v -4.460352 2.118069 0.661858
v -4.459805 2.118942 0.660365
v -4.459993 2.119593 0.661100
v -4.460352 2.118069 0.661858
v -4.461116 2.118672 0.663018
v -4.459993 2.119593 0.661100
v -4.462295 2.119446 0.663585
v -4.461957 2.120878 0.662873
v -4.460701 2.120432 0.662142
v -4.461116 2.118672 0.663018
v -4.462295 2.119446 0.663585
v -4.460701 2.120432 0.662142
v -4.460701 2.120432 0.662142
v -4.460778 2.120339 0.659740
v -4.459993 2.119593 0.661100
v -4.460701 2.120432 0.662142
v -4.460778 2.120339 0.659740
v -4.461957 2.120878 0.662873
v -4.462696 2.121579 0.661594
v -4.461608 2.121294 0.660571
v -4.460701 2.120432 0.662142
v -4.461957 2.120878 0.662873
v -4.461608 2.121294 0.660571
v -4.461608 2.121294 0.660571
v -4.462117 2.119746 0.658801
v -4.460778 2.120339 0.659740
v -4.461608 2.121294 0.660571
v -4.462117 2.119746 0.658801
v -4.462696 2.121579 0.661594
v -4.463954 2.121022 0.660711
v -4.463155 2.120609 0.659486
v -4.461608 2.121294 0.660571
v -4.462696 2.121579 0.661594
v -4.463155 2.120609 0.659486
v -4.463155 2.120609 0.659486
v -4.463000 2.118260 0.658991
v -4.462117 2.119746 0.658801
v -4.463155 2.120609 0.659486
v -4.463000 2.118260 0.658991
v -4.463954 2.121022 0.660711
v -4.464785 2.119625 0.660890
v -4.464176 2.118893 0.659706
v -4.463155 2.120609 0.659486
v -4.463954 2.121022 0.660711
v -4.464176 2.118893 0.659706
v -4.464176 2.118893 0.659706
v -4.462764 2.117000 0.660167
v -4.463000 2.118260 0.658991
v -4.464176 2.118893 0.659706
v -4.462764 2.117000 0.660167
v -4.464785 2.119625 0.660890
v -4.464562 2.118441 0.661995
v -4.463903 2.117437 0.661064
v -4.464176 2.118893 0.659706
v -4.464785 2.119625 0.660890
v -4.463903 2.117437 0.661064
v -4.463903 2.117437 0.661064
v -4.461585 2.116915 0.661443
v -4.462764 2.117000 0.660167
v -4.463903 2.117437 0.661064
v -4.461585 2.116915 0.661443
v -4.464562 2.118441 0.661995
v -4.463454 2.118361 0.663195
v -4.462541 2.117339 0.662538
v -4.463903 2.117437 0.661064
v -4.464562 2.118441 0.661995
v -4.462541 2.117339 0.662538
v -4.462541 2.117339 0.662538
v -4.461116 2.118672 0.663018
v -4.460352 2.118069 0.661858
v -4.461585 2.116915 0.661443
v -4.462541 2.117339 0.662538
v -4.460352 2.118069 0.661858
v -4.463454 2.118361 0.663195
v -4.462295 2.119446 0.663585
v -4.461116 2.118672 0.663018
v -4.462541 2.117339 0.662538
v -4.463454 2.118361 0.663195
v -4.461116 2.118672 0.663018
v -4.463302 2.120058 0.663687
v -4.463082 2.120993 0.663222
v -4.461957 2.120878 0.662873
v -4.462295 2.119446 0.663585
v -4.463302 2.120058 0.663687
v -4.461957 2.120878 0.662873
v -4.463563 2.121450 0.662387
v -4.463082 2.120993 0.663222
v -4.464385 2.121086 0.661811
v -4.463302 2.120058 0.663687
v -4.464385 2.121086 0.661811
v -4.463082 2.120993 0.663222
v -4.464927 2.120175 0.661928
v -4.464385 2.121086 0.661811
v -4.463302 2.120058 0.663687
v -4.464059 2.119350 0.663432
v -4.464927 2.120175 0.661928
v -4.463302 2.120058 0.663687
v -4.464782 2.119402 0.662649
v -4.464927 2.120175 0.661928
v -4.464059 2.119350 0.663432
v -4.456879 2.117096 0.655921
v -4.457963 2.116616 0.655161
v -4.456243 2.116492 0.657023
v -4.456534 2.115258 0.657637
v -4.456243 2.116492 0.657023
v -4.457963 2.116616 0.655161
v -4.458679 2.115413 0.655315
v -4.456534 2.115258 0.657637
v -4.457963 2.116616 0.655161
v -4.457532 2.114324 0.657300
v -4.456534 2.115258 0.657637
v -4.458679 2.115413 0.655315
v -4.458487 2.114393 0.656267
v -4.457532 2.114324 0.657300
v -4.458679 2.115413 0.655315
vn 0.6374 -0.4584 -0.6194
vn -0.5468 -0.0843 0.8330
vn -0.9450 0.2941 0.1432
vn -0.8784 -0.0604 0.4741
vn -0.1998 0.2404 0.9499
vn -0.9450 0.2940 0.1433
vn -0.1998 0.2403 0.9499
vn -0.6963 0.7121 0.0898
vn -0.0987 0.6690 0.7367
vn -0.3197 0.8789 0.3539
vn 0.4323 0.6573 0.6174
vn 0.2686 -0.0366 0.9625
vn -0.0988 0.6690 0.7367
vn 0.5547 -0.2276 0.8003
vn -0.2931 -0.5622 0.7733
vn -0.0602 -0.8028 0.5932
vn 0.2686 -0.0367 0.9625
vn -0.2932 -0.5622 0.7733
vn 0.7603 -0.3854 0.5229
vn 0.1810 -0.9273 0.3278
vn -0.0603 -0.8028 0.5932
vn -0.8301 -0.5235 0.1922
vn -0.6480 -0.7605 -0.0430
vn 0.1810 -0.9273 0.3277
vn -0.6480 -0.7605 -0.0429
vn -0.3727 -0.8874 -0.2715
vn -0.9378 0.0503 -0.3434
vn -0.7659 -0.1324 -0.6292
vn -0.8301 -0.5235 0.1921
vn -0.9379 0.0503 -0.3433
vn -0.3726 -0.8874 -0.2716
vn -0.4838 -0.2957 -0.8237
vn -0.5353 0.7270 -0.4300
vn -0.3253 0.6084 -0.7239
vn -0.5353 0.7270 -0.4299
vn -0.4837 -0.2957 -0.8238
vn -0.0687 0.4022 -0.9130
vn -0.4838 -0.2957 -0.8238
vn 0.0744 0.9972 -0.0024
vn 0.3422 0.9041 -0.2559
vn -0.5353 0.7271 -0.4300
vn -0.0686 0.4022 -0.9130
vn 0.5601 0.6808 -0.4721
vn 0.4322 0.6573 0.6173
vn 0.7338 0.5321 0.4224
vn 0.0745 0.9972 -0.0024
vn 0.4322 0.6574 0.6173
vn 0.5601 0.6807 -0.4721
vn 0.9290 0.3303 0.1669
vn 0.7338 0.5320 0.4225
vn 0.2687 -0.0367 0.9625
vn 0.7338 0.5321 0.4225
vn 0.2686 -0.0366 0.9626
vn 0.9290 0.3302 0.1669
vn 0.8986 0.3775 0.2237
vn 0.7603 -0.3853 0.5229
vn 0.7256 -0.3563 0.5887
vn 0.9290 0.3303 0.1670
vn -0.1245 0.4513 -0.8837
vn 0.5203 0.7369 -0.4316
vn -0.0686 0.4021 -0.9130
vn -0.4362 -0.8710 -0.2259
vn -0.5501 -0.2644 -0.7922
vn -0.3727 -0.8873 -0.2715
vn 0.1810 -0.9272 0.3278
vn 0.1316 -0.9120 0.3886
vn -0.5501 -0.2643 -0.7921
vn -0.0687 0.4021 -0.9130
vn -0.1244 0.4513 -0.8837
vn -0.5501 -0.2644 -0.7921
vn -0.4838 -0.2956 -0.8237
vn 0.1315 -0.9120 0.3886
vn -0.4362 -0.8710 -0.2260
vn -0.5352 0.7271 -0.4299
vn -0.5352 0.7271 -0.4300
vn -0.3197 0.8790 0.3539
vn -0.8301 -0.5234 0.1921
vn -0.9450 0.2941 0.1433
vn -0.5468 -0.0842 0.8330
vn -0.9379 0.0503 -0.3434
vn -0.8784 -0.0604 0.4740
vn 0.0744 0.9972 -0.0023
vn 0.0745 0.9972 -0.0023
vn 0.5668 -0.2362 0.7893
vn -0.0485 -0.8117 0.5820
vn 0.3542 0.8961 -0.2674
vn 0.7460 0.5239 0.4112
vn -0.7545 -0.1409 -0.6410
vn -0.3137 0.6002 -0.7358
vn -0.6365 -0.7694 -0.0544
vn -0.4362 -0.8711 -0.2259
vn 0.7459 0.5239 0.4112
vn 0.3541 0.8961 -0.2675
vn -0.3137 0.6002 -0.7357
vn -0.6365 -0.7694 -0.0545
vn -0.6365 -0.7693 -0.0544
vn -0.4361 -0.8711 -0.2259
vt 0.543243 0.635056
vt 0.535370 0.641335
vt 0.537796 0.636299
vt 0.537796 0.646370
vt 0.547607 0.638535
vt 0.543243 0.647614
vt 0.547607 0.644127
vt 0.593674 0.671494
vt 0.598511 0.669548
vt 0.596146 0.672157
vt 0.592773 0.669609
vt 0.596436 0.666756
vt 0.592804 0.667854
vt 0.594147 0.666748
vt 0.591187 0.666855
vt 0.590591 0.669838
vt 0.587372 0.669685
vt 0.591782 0.673050
vt 0.588348 0.674789
vt 0.582382 0.669067
vt 0.582687 0.676537
vt 0.595596 0.675606
vt 0.592606 0.680244
vt 0.586334 0.684982
vt 0.603775 0.674767
vt 0.603561 0.686485
vt 0.594009 0.696274
vt 0.603775 0.658051
vt 0.597107 0.663902
vt 0.596405 0.659698
vt 0.602859 0.665543
vt 0.600342 0.651657
vt 0.594193 0.655174
vt 0.593353 0.664742
vt 0.591705 0.661980
vt 0.588959 0.658463
vt 0.588654 0.665283
vt 0.584778 0.662933
vt 0.580322 0.660286
vt 0.576584 0.668175
vt 0.591812 0.651588
vt 0.585907 0.654999
vt 0.579453 0.688484
vt 0.584915 0.699394
vt 0.576157 0.678001
vt 0.597061 0.648293
vt 0.627350 0.682632
vt 0.649124 0.687675
vt 0.627441 0.688225
vt 0.649033 0.682457
vt 0.627441 0.671455
vt 0.649033 0.677231
vt 0.627350 0.677048
vt 0.649124 0.672005
vt 0.627914 0.660294
vt 0.649292 0.666786
vt 0.627625 0.665871
vt 0.649551 0.661568
vt 0.649292 0.692902
vt 0.627625 0.693810
vt 0.649551 0.698120
vt 0.627914 0.699394
s 0
usemtl decorations
f 240/1/1 239/2/1 238/3/1
f 237/1/1 236/4/1 235/2/1
f 234/5/1 233/4/1 232/1/1
f 231/5/1 230/6/1 229/4/1
f 228/6/1 227/5/1 226/7/1
s 1
f 225/8/2 224/9/3 223/10/4
f 222/11/5 221/9/6 220/8/2
f 219/11/7 218/12/8 217/9/3
f 216/13/9 215/12/8 214/11/7
f 213/12/8 212/13/9 211/14/10
f 210/15/11 209/11/7 208/16/12
f 207/15/11 206/13/13 205/11/7
f 204/17/14 203/18/15 202/19/16
f 201/17/14 200/16/17 199/18/18
f 198/20/19 197/19/16 196/21/20
f 195/20/19 194/17/14 193/19/21
f 192/19/16 191/22/22 190/23/23
f 189/19/16 188/18/18 187/22/22
f 186/21/24 185/23/25 184/24/26
f 183/21/24 3/19/16 182/23/25
f 181/23/23 180/25/27 179/26/28
f 178/23/23 177/22/29 176/25/30
f 175/24/31 174/26/28 173/27/32
f 172/24/31 4/23/23 171/26/28
f 170/28/28 169/29/33 168/30/34
f 167/28/28 166/31/27 165/29/35
f 164/32/36 163/30/34 162/33/37
f 161/32/38 13/28/28 160/30/34
f 159/30/34 158/34/39 157/35/40
f 156/30/34 155/29/41 154/34/39
f 153/33/42 152/35/40 151/36/43
f 150/33/42 14/30/34 149/35/40
f 148/35/40 147/15/44 146/37/45
f 145/35/40 144/34/46 143/15/47
f 142/36/48 141/37/45 140/38/49
f 139/36/48 16/35/40 138/37/45
f 137/37/50 136/16/51 135/17/14
f 134/37/52 133/15/44 132/16/53
f 131/38/54 130/17/14 129/20/19
f 128/38/49 36/37/45 25/17/14
f 127/39/55 126/20/56 125/40/57
f 124/39/55 123/38/58 122/20/56
f 121/41/59 120/36/43 119/42/60
f 118/41/59 117/33/61 116/36/43
f 115/43/62 114/27/32 113/44/63
f 112/43/62 111/24/64 110/27/32
f 109/40/57 108/21/65 107/45/66
f 106/40/57 40/20/19 105/21/65
f 104/42/60 103/38/49 102/39/55
f 101/42/60 41/36/43 42/38/49
f 100/46/67 99/33/68 98/41/69
f 97/46/70 37/32/71 38/33/68
f 96/45/72 95/24/26 94/43/73
f 93/45/66 33/21/20 34/24/26
f 92/29/74 91/14/10 90/34/39
f 89/29/75 88/12/8 87/14/76
f 86/22/77 85/9/78 84/25/30
f 83/22/29 82/10/4 81/9/78
f 80/16/17 79/8/2 78/18/18
f 29/16/17 30/11/5 77/8/79
f 76/31/80 75/12/8 28/29/35
f 31/31/80 26/9/78 27/12/8
f 74/18/15 73/10/81 24/22/22
f 21/18/15 22/8/79 23/10/4
f 72/34/82 71/13/9 20/15/44
f 17/34/83 18/14/10 19/13/13
f 70/47/84 69/48/66 68/49/85
f 67/47/84 66/50/57 65/48/66
f 64/51/86 63/52/55 62/53/87
f 61/51/86 60/54/60 59/52/55
f 58/55/88 57/56/69 56/57/89
f 55/55/88 54/58/63 53/56/69
f 52/49/85 51/59/62 50/60/90
f 2/49/85 32/48/66 49/59/91
f 48/53/87 47/50/57 12/47/84
f 9/53/92 10/52/55 11/50/57
f 46/57/89 45/54/60 8/51/93
f 5/57/94 6/56/69 7/54/60
f 44/60/95 43/61/70 15/62/88
f 1/60/96 35/59/97 39/61/70
