# Blender 5.0.0
# www.blender.org
mtllib Circle_005_Circle_001_Dupli_122_decorations_0.mtl
o Circle.005|Circle.001|Dupli|122_decorations_0
v -4.228524 0.585528 0.784631
v -4.229784 0.585072 0.785065
v -4.231825 0.592204 0.787626
v -4.230028 0.592856 0.787008
v -4.227023 0.585007 0.786610
v -4.228187 0.589928 0.788682
v -4.229017 0.589381 0.789545
v -4.227911 0.584422 0.787532
v -4.229292 0.584184 0.787391
v -4.230309 0.589158 0.789413
v -4.231087 0.589429 0.788386
v -4.230126 0.584473 0.786293
v -4.228275 0.592816 0.787988
v -4.227886 0.592113 0.789830
v -4.227295 0.585500 0.785319
v -4.229154 0.591278 0.791146
v -4.229611 0.592715 0.791332
v -4.230067 0.593790 0.791142
v -4.231113 0.593610 0.791036
v -4.231215 0.592439 0.791169
v -4.231785 0.593469 0.788468
v -4.231485 0.594282 0.789273
v -4.230531 0.594629 0.788945
v -4.230323 0.594000 0.787965
v -4.232313 0.591351 0.789379
v -4.229600 0.594607 0.789466
v -4.229393 0.594234 0.790444
v -4.228580 0.593395 0.790262
v -4.232182 0.592775 0.789894
v -4.231745 0.593829 0.790204
v -4.228896 0.593966 0.788763
v -4.230768 0.589988 0.787238
v -4.231303 0.590832 0.787258
v -4.229748 0.591396 0.786722
v -4.229590 0.590415 0.786833
v -4.231124 0.590939 0.790945
v -4.228230 0.591361 0.787571
v -4.227894 0.590753 0.789166
v -4.228442 0.590388 0.787476
v -4.231726 0.590093 0.788775
v -4.228991 0.590030 0.790305
v -4.230697 0.589736 0.790130
v -4.228442 0.590388 0.787476
v -4.228524 0.585528 0.784631
v -4.229017 0.589381 0.789545
v -4.227023 0.585007 0.786610
v -4.231087 0.589429 0.788386
v -4.229292 0.584184 0.787391
v -4.229590 0.590415 0.786833
v -4.228524 0.585528 0.784631
v -4.229590 0.590415 0.786833
v -4.229784 0.585072 0.785065
v -4.228187 0.589928 0.788682
v -4.228442 0.590388 0.787476
v -4.227295 0.585500 0.785319
v -4.227023 0.585007 0.786610
v -4.228187 0.589928 0.788682
v -4.227295 0.585500 0.785319
v -4.230309 0.589158 0.789413
v -4.229017 0.589381 0.789545
v -4.227911 0.584422 0.787532
v -4.229292 0.584184 0.787391
v -4.230309 0.589158 0.789413
v -4.227911 0.584422 0.787532
v -4.230768 0.589988 0.787238
v -4.231087 0.589429 0.788386
v -4.230126 0.584473 0.786293
v -4.229784 0.585072 0.785065
v -4.230768 0.589988 0.787238
v -4.230126 0.584473 0.786293
v -4.231113 0.593610 0.791036
v -4.229611 0.592715 0.791332
v -4.230531 0.594629 0.788945
v -4.231785 0.593469 0.788468
v -4.229393 0.594234 0.790444
v -4.228896 0.593966 0.788763
v -4.231485 0.594282 0.789273
v -4.231785 0.593469 0.788468
v -4.231485 0.594282 0.789273
v -4.232182 0.592775 0.789894
v -4.229600 0.594607 0.789466
v -4.230531 0.594629 0.788945
v -4.230323 0.594000 0.787965
v -4.228896 0.593966 0.788763
v -4.229600 0.594607 0.789466
v -4.230323 0.594000 0.787965
v -4.230067 0.593790 0.791142
v -4.229393 0.594234 0.790444
v -4.228580 0.593395 0.790262
v -4.229611 0.592715 0.791332
v -4.230067 0.593790 0.791142
v -4.228580 0.593395 0.790262
v -4.230768 0.589988 0.787238
v -4.229590 0.590415 0.786833
v -4.229748 0.591396 0.786722
v -4.230768 0.589988 0.787238
v -4.228442 0.590388 0.787476
v -4.228187 0.589928 0.788682
v -4.227894 0.590753 0.789166
v -4.228442 0.590388 0.787476
v -4.229017 0.589381 0.789545
v -4.230309 0.589158 0.789413
v -4.230697 0.589736 0.790130
v -4.229017 0.589381 0.789545
v -4.231303 0.590832 0.787258
v -4.231087 0.589429 0.788386
v -4.230768 0.589988 0.787238
v -4.231303 0.590832 0.787258
v -4.231087 0.589429 0.788386
v -4.228230 0.591361 0.787571
v -4.229748 0.591396 0.786722
v -4.229590 0.590415 0.786833
v -4.228442 0.590388 0.787476
v -4.228230 0.591361 0.787571
v -4.229590 0.590415 0.786833
v -4.228991 0.590030 0.790305
v -4.227894 0.590753 0.789166
v -4.228187 0.589928 0.788682
v -4.229017 0.589381 0.789545
v -4.228991 0.590030 0.790305
v -4.228187 0.589928 0.788682
v -4.231726 0.590093 0.788775
v -4.230697 0.589736 0.790130
v -4.230309 0.589158 0.789413
v -4.231087 0.589429 0.788386
v -4.231726 0.590093 0.788775
v -4.230309 0.589158 0.789413
v -4.230697 0.589736 0.790130
v -4.231726 0.590093 0.788775
v -4.232313 0.591351 0.789379
v -4.230697 0.589736 0.790130
v -4.232182 0.592775 0.789894
v -4.231215 0.592439 0.791169
v -4.231124 0.590939 0.790945
v -4.232313 0.591351 0.789379
v -4.232182 0.592775 0.789894
v -4.231124 0.590939 0.790945
v -4.231124 0.590939 0.790945
v -4.228991 0.590030 0.790305
v -4.230697 0.589736 0.790130
v -4.231124 0.590939 0.790945
v -4.228991 0.590030 0.790305
v -4.231215 0.592439 0.791169
v -4.229611 0.592715 0.791332
v -4.229154 0.591278 0.791146
v -4.231124 0.590939 0.790945
v -4.231215 0.592439 0.791169
v -4.229154 0.591278 0.791146
v -4.229154 0.591278 0.791146
v -4.227894 0.590753 0.789166
v -4.228991 0.590030 0.790305
v -4.229154 0.591278 0.791146
v -4.227894 0.590753 0.789166
v -4.229611 0.592715 0.791332
v -4.228580 0.593395 0.790262
v -4.227886 0.592113 0.789830
v -4.229154 0.591278 0.791146
v -4.229611 0.592715 0.791332
v -4.227886 0.592113 0.789830
v -4.227886 0.592113 0.789830
v -4.228230 0.591361 0.787571
v -4.227894 0.590753 0.789166
v -4.227886 0.592113 0.789830
v -4.228230 0.591361 0.787571
v -4.228580 0.593395 0.790262
v -4.228896 0.593966 0.788763
v -4.228275 0.592816 0.787988
v -4.227886 0.592113 0.789830
v -4.228580 0.593395 0.790262
v -4.228275 0.592816 0.787988
v -4.228275 0.592816 0.787988
v -4.229748 0.591396 0.786722
v -4.228230 0.591361 0.787571
v -4.228275 0.592816 0.787988
v -4.229748 0.591396 0.786722
v -4.228896 0.593966 0.788763
v -4.230323 0.594000 0.787965
v -4.230028 0.592856 0.787008
v -4.228275 0.592816 0.787988
v -4.228896 0.593966 0.788763
v -4.230028 0.592856 0.787008
v -4.230028 0.592856 0.787008
v -4.231303 0.590832 0.787258
v -4.229748 0.591396 0.786722
v -4.230028 0.592856 0.787008
v -4.231303 0.590832 0.787258
v -4.230323 0.594000 0.787965
v -4.231785 0.593469 0.788468
v -4.231825 0.592204 0.787626
v -4.230028 0.592856 0.787008
v -4.230323 0.594000 0.787965
v -4.231825 0.592204 0.787626
v -4.231825 0.592204 0.787626
v -4.232313 0.591351 0.789379
v -4.231726 0.590093 0.788775
v -4.231303 0.590832 0.787258
v -4.231825 0.592204 0.787626
v -4.231726 0.590093 0.788775
v -4.231785 0.593469 0.788468
v -4.232182 0.592775 0.789894
v -4.232313 0.591351 0.789379
v -4.231825 0.592204 0.787626
v -4.231785 0.593469 0.788468
v -4.232313 0.591351 0.789379
v -4.231745 0.593829 0.790204
v -4.231113 0.593610 0.791036
v -4.231215 0.592439 0.791169
v -4.232182 0.592775 0.789894
v -4.231745 0.593829 0.790204
v -4.231215 0.592439 0.791169
v -4.230067 0.593790 0.791142
v -4.231113 0.593610 0.791036
v -4.229393 0.594234 0.790444
v -4.231745 0.593829 0.790204
v -4.229393 0.594234 0.790444
v -4.231113 0.593610 0.791036
v -4.229600 0.594607 0.789466
v -4.229393 0.594234 0.790444
v -4.231745 0.593829 0.790204
v -4.231485 0.594282 0.789273
v -4.229600 0.594607 0.789466
v -4.231745 0.593829 0.790204
v -4.230531 0.594629 0.788945
v -4.229600 0.594607 0.789466
v -4.231485 0.594282 0.789273
v -4.227911 0.584422 0.787532
v -4.227023 0.585007 0.786610
v -4.229292 0.584184 0.787391
v -4.230126 0.584473 0.786293
v -4.229292 0.584184 0.787391
v -4.227023 0.585007 0.786610
v -4.227295 0.585500 0.785319
v -4.230126 0.584473 0.786293
v -4.227023 0.585007 0.786610
v -4.229784 0.585072 0.785065
v -4.230126 0.584473 0.786293
v -4.227295 0.585500 0.785319
v -4.228524 0.585528 0.784631
v -4.229784 0.585072 0.785065
v -4.227295 0.585500 0.785319
vn 0.1946 -0.9021 -0.3852
vn -0.5841 0.8102 -0.0486
vn 0.2805 0.9590 0.0397
vn -0.1465 0.9689 -0.1992
vn -0.7029 0.6023 0.3783
vn 0.2804 0.9590 0.0397
vn -0.5842 0.8102 -0.0485
vn -0.7030 0.6024 0.3782
vn 0.3752 0.7879 0.4883
vn -0.4134 0.5019 0.7597
vn 0.3752 0.7880 0.4882
vn -0.7029 0.6023 0.3782
vn -0.4135 0.5019 0.7597
vn 0.0663 0.5845 0.8087
vn -0.4886 -0.0254 0.8721
vn -0.7029 0.6024 0.3782
vn -0.9573 0.1373 0.2546
vn -0.9682 -0.2187 0.1211
vn -0.7650 0.4737 -0.4364
vn -0.7577 0.1497 -0.6351
vn -0.9683 -0.2187 0.1211
vn -0.9573 0.1372 0.2545
vn -0.7650 0.4738 -0.4363
vn -0.8395 -0.5425 -0.0296
vn -0.7577 0.1497 -0.6352
vn -0.6412 -0.1954 -0.7420
vn -0.0564 0.7308 -0.6803
vn 0.0178 0.4310 -0.9022
vn -0.7649 0.4738 -0.4364
vn -0.6412 -0.1955 -0.7421
vn 0.0894 0.0696 -0.9936
vn 0.6348 0.7147 -0.2936
vn 0.7744 0.4135 -0.4788
vn 0.6348 0.7148 -0.2936
vn 0.0894 0.0695 -0.9936
vn 0.7745 0.4135 -0.4788
vn 0.8022 0.0531 -0.5948
vn 0.7745 0.4134 -0.4788
vn 0.7882 0.4377 0.4326
vn 0.9423 0.1103 0.3160
vn 0.6348 0.7147 -0.2935
vn 0.7882 0.4378 0.4326
vn 0.8022 0.0530 -0.5947
vn 0.9423 0.1102 0.3160
vn 0.9603 -0.2325 0.1540
vn 0.2882 0.1084 0.9514
vn 0.3951 -0.2503 0.8839
vn 0.9603 -0.2326 0.1540
vn 0.4448 -0.5722 0.6890
vn 0.3950 -0.2503 0.8839
vn -0.4886 -0.0254 0.8722
vn -0.4552 -0.3967 0.7971
vn 0.2882 0.1083 0.9514
vn -0.4885 -0.0253 0.8722
vn 0.4447 -0.5723 0.6890
vn -0.3562 -0.7101 0.6073
vn -0.4553 -0.3967 0.7971
vn -0.4552 -0.3966 0.7971
vn -0.3562 -0.7102 0.6072
vn -0.8396 -0.5424 -0.0296
vn -0.3818 -0.6517 0.6553
vn -0.8396 -0.5425 -0.0296
vn -0.8774 -0.4798 0.0023
vn -0.3563 -0.7101 0.6073
vn 0.9682 -0.1620 0.1906
vn 0.4396 -0.5103 0.7391
vn 0.0752 0.1478 -0.9862
vn 0.8021 0.0531 -0.5948
vn 0.8060 0.1308 -0.5772
vn -0.6740 -0.1240 -0.7282
vn 0.4396 -0.5103 0.7392
vn 0.8060 0.1309 -0.5772
vn 0.9682 -0.1621 0.1906
vn -0.6740 -0.1239 -0.7282
vn 0.7882 0.4377 0.4327
vn 0.3751 0.7880 0.4882
vn 0.2804 0.9591 0.0397
vn -0.5841 0.8102 -0.0485
vn 0.6348 0.7148 -0.2935
vn -0.7649 0.4737 -0.4364
vn -0.9652 -0.2355 0.1140
vn -0.7545 0.1331 -0.6426
vn -0.9652 -0.2354 0.1140
vn 0.3988 -0.2671 0.8773
vn -0.4518 -0.4136 0.7904
vn 0.4395 -0.5103 0.7392
vn 0.7785 0.3970 -0.4862
vn 0.9464 0.0937 0.3090
vn -0.7545 0.1331 -0.6427
vn 0.0214 0.4145 -0.9098
vn 0.0751 0.1478 -0.9862
vn -0.4519 -0.4136 0.7904
vn -0.9652 -0.2355 0.1141
vn -0.4519 -0.4135 0.7904
vn 0.9464 0.0936 0.3090
vn 0.3989 -0.2671 0.8772
vn 0.9464 0.0937 0.3091
vn 0.0214 0.4146 -0.9098
vt 0.543243 0.635056
vt 0.535370 0.641335
vt 0.537796 0.636299
vt 0.537796 0.646370
vt 0.547607 0.638535
vt 0.543243 0.647614
vt 0.547607 0.644127
vt 0.593674 0.671494
vt 0.598511 0.669548
vt 0.596146 0.672157
vt 0.592773 0.669609
vt 0.596436 0.666756
vt 0.592804 0.667854
vt 0.594147 0.666748
vt 0.591187 0.666855
vt 0.590591 0.669838
vt 0.587372 0.669685
vt 0.591782 0.673050
vt 0.588348 0.674789
vt 0.582382 0.669067
vt 0.582687 0.676537
vt 0.595596 0.675606
vt 0.592606 0.680244
vt 0.586334 0.684982
vt 0.603775 0.674767
vt 0.603561 0.686485
vt 0.594009 0.696274
vt 0.603775 0.658051
vt 0.597107 0.663902
vt 0.596405 0.659698
vt 0.602859 0.665543
vt 0.600342 0.651657
vt 0.594193 0.655174
vt 0.593353 0.664742
vt 0.591705 0.661980
vt 0.588959 0.658463
vt 0.588654 0.665283
vt 0.584778 0.662933
vt 0.580322 0.660286
vt 0.576584 0.668175
vt 0.591812 0.651588
vt 0.585907 0.654999
vt 0.579453 0.688484
vt 0.584915 0.699394
vt 0.576157 0.678001
vt 0.597061 0.648293
vt 0.627350 0.682632
vt 0.649124 0.687675
vt 0.627441 0.688225
vt 0.649033 0.682457
vt 0.627441 0.671455
vt 0.649033 0.677231
vt 0.627350 0.677048
vt 0.649124 0.672005
vt 0.627914 0.660294
vt 0.649292 0.666786
vt 0.627625 0.665871
vt 0.649551 0.661568
vt 0.649292 0.692902
vt 0.627625 0.693810
vt 0.649551 0.698120
vt 0.627914 0.699394
s 0
usemtl decorations
f 240/1/1 239/2/1 238/3/1
f 237/1/1 236/4/1 235/2/1
f 234/5/1 233/4/1 232/1/1
f 231/5/1 230/6/1 229/4/1
f 228/6/1 227/5/1 226/7/1
s 1
f 225/8/2 224/9/3 223/10/4
f 222/11/5 221/9/6 220/8/7
f 219/11/8 218/12/9 217/9/3
f 216/13/10 215/12/11 214/11/12
f 213/12/9 212/13/13 211/14/14
f 210/15/15 209/11/16 208/16/17
f 207/15/15 206/13/10 205/11/16
f 204/17/18 203/18/19 202/19/20
f 201/17/21 200/16/22 199/18/23
f 198/20/24 197/19/25 196/21/26
f 195/20/24 194/17/21 193/19/20
f 192/19/25 191/22/27 190/23/28
f 189/19/25 188/18/29 187/22/27
f 186/21/30 185/23/28 184/24/31
f 183/21/30 3/19/25 182/23/28
f 181/23/28 180/25/32 179/26/33
f 178/23/28 177/22/27 176/25/34
f 175/24/35 174/26/36 173/27/37
f 172/24/35 4/23/28 171/26/36
f 170/28/38 169/29/39 168/30/40
f 167/28/38 166/31/41 165/29/42
f 164/32/43 163/30/44 162/33/45
f 161/32/43 13/28/38 160/30/40
f 159/30/40 158/34/46 157/35/47
f 156/30/40 155/29/39 154/34/46
f 153/33/48 152/35/47 151/36/49
f 150/33/48 14/30/40 149/35/47
f 148/35/50 147/15/51 146/37/52
f 145/35/50 144/34/53 143/15/54
f 142/36/55 141/37/52 140/38/56
f 139/36/55 16/35/50 138/37/52
f 137/37/57 136/16/22 135/17/21
f 134/37/58 133/15/15 132/16/17
f 131/38/59 130/17/21 129/20/60
f 128/38/59 36/37/52 25/17/21
f 127/39/61 126/20/62 125/40/63
f 124/39/61 123/38/64 122/20/62
f 121/41/65 120/36/49 119/42/66
f 118/41/65 117/33/48 116/36/49
f 115/43/67 114/27/68 113/44/69
f 112/43/67 111/24/31 110/27/68
f 109/40/63 108/21/26 107/45/70
f 106/40/63 40/20/24 105/21/26
f 104/42/71 103/38/56 102/39/61
f 101/42/71 41/36/49 42/38/56
f 100/46/72 99/33/48 98/41/73
f 97/46/72 37/32/43 38/33/48
f 96/45/74 95/24/31 94/43/67
f 93/45/70 33/21/26 34/24/31
f 92/29/75 91/14/14 90/34/46
f 89/29/75 88/12/76 87/14/14
f 86/22/27 85/9/6 84/25/34
f 83/22/27 82/10/4 81/9/77
f 80/16/22 79/8/78 78/18/23
f 29/16/22 30/11/5 77/8/78
f 76/31/79 75/12/9 28/29/42
f 31/31/79 26/9/77 27/12/76
f 74/18/80 73/10/4 24/22/27
f 21/18/80 22/8/78 23/10/4
f 72/34/46 71/13/13 20/15/15
f 17/34/46 18/14/14 19/13/10
f 70/47/81 69/48/74 68/49/82
f 67/47/83 66/50/63 65/48/70
f 64/51/84 63/52/61 62/53/85
f 61/51/84 60/54/86 59/52/61
f 58/55/87 57/56/65 56/57/88
f 55/55/87 54/58/69 53/56/73
f 52/49/89 51/59/67 50/60/90
f 2/49/82 32/48/70 49/59/91
f 48/53/92 47/50/63 12/47/93
f 9/53/94 10/52/61 11/50/63
f 46/57/95 45/54/86 8/51/96
f 5/57/97 6/56/73 7/54/66
f 44/60/90 43/61/72 15/62/87
f 1/60/98 35/59/67 39/61/72
