# Blender 5.0.0
# www.blender.org
mtllib Circle_002_Circle_003_Dupli_125_decorations_0.mtl
o Circle.002|Circle.003|Dupli|125_decorations_0
v -4.411778 2.050787 0.483321
v -4.411397 2.049770 0.482425
v -4.405267 2.053934 0.479838
v -4.405811 2.055385 0.481117
v -4.413504 2.052092 0.481994
v -4.409490 2.055227 0.480015
v -4.409532 2.054578 0.478871
v -4.413548 2.051397 0.480770
v -4.412817 2.050259 0.480379
v -4.408847 2.053514 0.478505
v -4.407952 2.052837 0.479194
v -4.411859 2.049535 0.481115
v -4.407149 2.056859 0.480843
v -4.408273 2.057246 0.479223
v -4.412716 2.051821 0.483129
v -4.408336 2.056254 0.477477
v -4.407009 2.056957 0.477245
v -4.405880 2.057300 0.477336
v -4.405325 2.056438 0.477039
v -4.406158 2.055636 0.476791
v -4.404511 2.055068 0.479167
v -4.404250 2.056068 0.478590
v -4.404539 2.056839 0.479269
v -4.404954 2.056249 0.480207
v -4.405926 2.053598 0.477970
v -4.405250 2.057621 0.479123
v -4.405847 2.057827 0.478263
v -4.406957 2.057764 0.478666
v -4.405047 2.054796 0.477646
v -4.404600 2.055890 0.477598
v -4.406043 2.057449 0.479984
v -4.407520 2.053057 0.480418
v -4.406553 2.053260 0.480268
v -4.407024 2.054516 0.481374
v -4.407877 2.054008 0.481256
v -4.407292 2.054631 0.476919
v -4.408182 2.055792 0.481137
v -4.409155 2.056127 0.479735
v -4.408753 2.054974 0.481076
v -4.407123 2.052970 0.478650
v -4.409210 2.055269 0.478224
v -4.408306 2.053864 0.477741
v -4.408753 2.054974 0.481076
v -4.411778 2.050787 0.483321
v -4.409532 2.054578 0.478871
v -4.413504 2.052092 0.481994
v -4.407952 2.052837 0.479194
v -4.412817 2.050259 0.480379
v -4.407877 2.054008 0.481256
v -4.411778 2.050787 0.483321
v -4.407877 2.054008 0.481256
v -4.411397 2.049770 0.482425
v -4.409490 2.055227 0.480015
v -4.408753 2.054974 0.481076
v -4.412716 2.051821 0.483129
v -4.413504 2.052092 0.481994
v -4.409490 2.055227 0.480015
v -4.412716 2.051821 0.483129
v -4.408847 2.053514 0.478505
v -4.409532 2.054578 0.478871
v -4.413548 2.051397 0.480770
v -4.412817 2.050259 0.480379
v -4.408847 2.053514 0.478505
v -4.413548 2.051397 0.480770
v -4.407520 2.053057 0.480418
v -4.407952 2.052837 0.479194
v -4.411859 2.049535 0.481115
v -4.411397 2.049770 0.482425
v -4.407520 2.053057 0.480418
v -4.411859 2.049535 0.481115
v -4.405325 2.056438 0.477039
v -4.407009 2.056957 0.477245
v -4.404539 2.056839 0.479269
v -4.404511 2.055068 0.479167
v -4.405847 2.057827 0.478263
v -4.406043 2.057449 0.479984
v -4.404250 2.056068 0.478590
v -4.404511 2.055068 0.479167
v -4.404250 2.056068 0.478590
v -4.405047 2.054796 0.477646
v -4.405250 2.057621 0.479123
v -4.404539 2.056839 0.479269
v -4.404954 2.056249 0.480207
v -4.406043 2.057449 0.479984
v -4.405250 2.057621 0.479123
v -4.404954 2.056249 0.480207
v -4.405880 2.057300 0.477336
v -4.405847 2.057827 0.478263
v -4.406957 2.057764 0.478666
v -4.407009 2.056957 0.477245
v -4.405880 2.057300 0.477336
v -4.406957 2.057764 0.478666
v -4.407520 2.053057 0.480418
v -4.407877 2.054008 0.481256
v -4.407024 2.054516 0.481374
v -4.407520 2.053057 0.480418
v -4.408753 2.054974 0.481076
v -4.409490 2.055227 0.480015
v -4.409155 2.056127 0.479735
v -4.408753 2.054974 0.481076
v -4.409532 2.054578 0.478871
v -4.408847 2.053514 0.478505
v -4.408306 2.053864 0.477741
v -4.409532 2.054578 0.478871
v -4.406553 2.053260 0.480268
v -4.407952 2.052837 0.479194
v -4.407520 2.053057 0.480418
v -4.406553 2.053260 0.480268
v -4.407952 2.052837 0.479194
v -4.408182 2.055792 0.481137
v -4.407024 2.054516 0.481374
v -4.407877 2.054008 0.481256
v -4.408753 2.054974 0.481076
v -4.408182 2.055792 0.481137
v -4.407877 2.054008 0.481256
v -4.409210 2.055269 0.478224
v -4.409155 2.056127 0.479735
v -4.409490 2.055227 0.480015
v -4.409532 2.054578 0.478871
v -4.409210 2.055269 0.478224
v -4.409490 2.055227 0.480015
v -4.407123 2.052970 0.478650
v -4.408306 2.053864 0.477741
v -4.408847 2.053514 0.478505
v -4.407952 2.052837 0.479194
v -4.407123 2.052970 0.478650
v -4.408847 2.053514 0.478505
v -4.408306 2.053864 0.477741
v -4.407123 2.052970 0.478650
v -4.405926 2.053598 0.477970
v -4.408306 2.053864 0.477741
v -4.405047 2.054796 0.477646
v -4.406158 2.055636 0.476791
v -4.407292 2.054631 0.476919
v -4.405926 2.053598 0.477970
v -4.405047 2.054796 0.477646
v -4.407292 2.054631 0.476919
v -4.407292 2.054631 0.476919
v -4.409210 2.055269 0.478224
v -4.408306 2.053864 0.477741
v -4.407292 2.054631 0.476919
v -4.409210 2.055269 0.478224
v -4.406158 2.055636 0.476791
v -4.407009 2.056957 0.477245
v -4.408336 2.056254 0.477477
v -4.407292 2.054631 0.476919
v -4.406158 2.055636 0.476791
v -4.408336 2.056254 0.477477
v -4.408336 2.056254 0.477477
v -4.409155 2.056127 0.479735
v -4.409210 2.055269 0.478224
v -4.408336 2.056254 0.477477
v -4.409155 2.056127 0.479735
v -4.407009 2.056957 0.477245
v -4.406957 2.057764 0.478666
v -4.408273 2.057246 0.479223
v -4.408336 2.056254 0.477477
v -4.407009 2.056957 0.477245
v -4.408273 2.057246 0.479223
v -4.408273 2.057246 0.479223
v -4.408182 2.055792 0.481137
v -4.409155 2.056127 0.479735
v -4.408273 2.057246 0.479223
v -4.408182 2.055792 0.481137
v -4.406957 2.057764 0.478666
v -4.406043 2.057449 0.479984
v -4.407149 2.056859 0.480843
v -4.408273 2.057246 0.479223
v -4.406957 2.057764 0.478666
v -4.407149 2.056859 0.480843
v -4.407149 2.056859 0.480843
v -4.407024 2.054516 0.481374
v -4.408182 2.055792 0.481137
v -4.407149 2.056859 0.480843
v -4.407024 2.054516 0.481374
v -4.406043 2.057449 0.479984
v -4.404954 2.056249 0.480207
v -4.405811 2.055385 0.481117
v -4.407149 2.056859 0.480843
v -4.406043 2.057449 0.479984
v -4.405811 2.055385 0.481117
v -4.405811 2.055385 0.481117
v -4.406553 2.053260 0.480268
v -4.407024 2.054516 0.481374
v -4.405811 2.055385 0.481117
v -4.406553 2.053260 0.480268
v -4.404954 2.056249 0.480207
v -4.404511 2.055068 0.479167
v -4.405267 2.053934 0.479838
v -4.405811 2.055385 0.481117
v -4.404954 2.056249 0.480207
v -4.405267 2.053934 0.479838
v -4.405267 2.053934 0.479838
v -4.405926 2.053598 0.477970
v -4.407123 2.052970 0.478650
v -4.406553 2.053260 0.480268
v -4.405267 2.053934 0.479838
v -4.407123 2.052970 0.478650
v -4.404511 2.055068 0.479167
v -4.405047 2.054796 0.477646
v -4.405926 2.053598 0.477970
v -4.405267 2.053934 0.479838
v -4.404511 2.055068 0.479167
v -4.405926 2.053598 0.477970
v -4.404600 2.055890 0.477598
v -4.405325 2.056438 0.477039
v -4.406158 2.055636 0.476791
v -4.405047 2.054796 0.477646
v -4.404600 2.055890 0.477598
v -4.406158 2.055636 0.476791
v -4.405880 2.057300 0.477336
v -4.405325 2.056438 0.477039
v -4.405847 2.057827 0.478263
v -4.404600 2.055890 0.477598
v -4.405847 2.057827 0.478263
v -4.405325 2.056438 0.477039
v -4.405250 2.057621 0.479123
v -4.405847 2.057827 0.478263
v -4.404600 2.055890 0.477598
v -4.404250 2.056068 0.478590
v -4.405250 2.057621 0.479123
v -4.404600 2.055890 0.477598
v -4.404539 2.056839 0.479269
v -4.405250 2.057621 0.479123
v -4.404250 2.056068 0.478590
v -4.413548 2.051397 0.480770
v -4.413504 2.052092 0.481994
v -4.412817 2.050259 0.480379
v -4.411859 2.049535 0.481115
v -4.412817 2.050259 0.480379
v -4.413504 2.052092 0.481994
v -4.412716 2.051821 0.483129
v -4.411859 2.049535 0.481115
v -4.413504 2.052092 0.481994
v -4.411397 2.049770 0.482425
v -4.411859 2.049535 0.481115
v -4.412716 2.051821 0.483129
v -4.411778 2.050787 0.483321
v -4.411397 2.049770 0.482425
v -4.412716 2.051821 0.483129
vn -0.7229 -0.5892 0.3608
vn 0.9862 0.1258 -0.1073
vn 0.5278 0.8382 0.1374
vn 0.8537 0.4792 0.2041
vn 0.8257 0.0441 -0.5623
vn 0.8258 0.0441 -0.5623
vn 0.2541 0.9324 -0.2571
vn 0.4931 0.2956 -0.8182
vn 0.2387 0.6909 -0.6824
vn 0.1267 -0.0688 -0.9895
vn 0.6653 -0.4759 -0.5752
vn 0.4326 -0.7619 -0.4820
vn 0.9251 -0.3436 0.1614
vn 0.7170 -0.6171 0.3242
vn 0.4326 -0.7618 -0.4821
vn 0.9252 -0.3436 0.1614
vn 0.1379 -0.9375 -0.3195
vn 0.4058 -0.8011 0.4400
vn 0.4326 -0.7619 -0.4821
vn 0.7171 -0.6170 0.3242
vn 0.7105 0.2285 0.6655
vn 0.4821 0.0092 0.8761
vn 0.4058 -0.8011 0.4401
vn 0.4821 0.0091 0.8761
vn 0.1845 -0.2111 0.9599
vn 0.1830 0.8096 0.5577
vn -0.0953 0.6453 0.7580
vn 0.7105 0.2285 0.6656
vn 0.1831 0.8096 0.5577
vn 0.1844 -0.2111 0.9599
vn -0.3594 0.3881 0.8486
vn -0.0954 0.6453 0.7580
vn -0.2601 0.9622 -0.0810
vn -0.5803 0.8123 0.0588
vn -0.2600 0.9622 -0.0810
vn -0.3595 0.3881 0.8486
vn -0.5803 0.8122 0.0589
vn -0.8163 0.5454 0.1900
vn -0.5803 0.8123 0.0589
vn -0.2851 0.5713 -0.7696
vn -0.6078 0.3844 -0.6949
vn -0.2601 0.9622 -0.0811
vn -0.8164 0.5454 0.1900
vn -0.6078 0.3843 -0.6949
vn -0.8422 0.1423 -0.5201
vn 0.1267 -0.0687 -0.9896
vn -0.1569 -0.3162 -0.9356
vn -0.2851 0.5713 -0.7697
vn -0.4175 -0.5176 -0.7469
vn 0.1267 -0.0688 -0.9896
vn 0.6653 -0.4758 -0.5752
vn -0.4175 -0.5177 -0.7468
vn 0.1379 -0.9375 -0.3196
vn -0.4175 -0.5176 -0.7468
vn -0.3668 -0.4809 -0.7964
vn 0.2027 -0.9114 -0.3582
vn -0.7758 0.6092 0.1642
vn -0.8023 0.1959 -0.5639
vn 0.2505 -0.1665 0.9537
vn -0.3073 0.4479 0.8396
vn 0.2504 -0.1665 0.9537
vn 0.2027 -0.9113 -0.3583
vn 0.4774 -0.7715 0.4206
vn 0.2542 0.9324 -0.2571
vn 0.7105 0.2286 0.6656
vn 0.5279 0.8381 0.1374
vn 0.6654 -0.4759 -0.5752
vn 0.9862 0.1259 -0.1073
vn 0.1830 0.8097 0.5576
vn 0.8536 0.4792 0.2041
vn 0.4195 -0.7732 -0.4756
vn 0.7040 -0.6283 0.3310
vn 0.4195 -0.7731 -0.4757
vn 0.2027 -0.9114 -0.3583
vn -0.6214 0.3736 -0.6886
vn -0.1704 -0.3272 -0.9295
vn -0.6214 0.3736 -0.6887
vn -0.1088 0.6348 0.7650
vn -0.5940 0.8018 0.0656
vn 0.7040 -0.6283 0.3311
vn 0.4690 -0.0018 0.8832
vn 0.7041 -0.6283 0.3311
vn 0.2505 -0.1666 0.9537
vn -0.1704 -0.3273 -0.9294
vn 0.4195 -0.7732 -0.4757
vn -0.5940 0.8018 0.0655
vn -0.6214 0.3737 -0.6886
vn 0.4689 -0.0017 0.8832
vn -0.1088 0.6347 0.7650
vn 0.4690 -0.0017 0.8832
vn 0.2504 -0.1666 0.9537
vt 0.530319 0.611839
vt 0.522446 0.618118
vt 0.524872 0.613083
vt 0.524872 0.623154
vt 0.534683 0.615326
vt 0.530319 0.624397
vt 0.534683 0.620918
vt 0.537079 0.671494
vt 0.541916 0.669548
vt 0.539566 0.672157
vt 0.536179 0.669609
vt 0.539856 0.666756
vt 0.536224 0.667854
vt 0.537567 0.666748
vt 0.534592 0.666855
vt 0.534012 0.669838
vt 0.530777 0.669685
vt 0.535187 0.673050
vt 0.531769 0.674789
vt 0.525803 0.669067
vt 0.526108 0.676537
vt 0.539017 0.675606
vt 0.536011 0.680244
vt 0.529755 0.684982
vt 0.547180 0.674767
vt 0.546982 0.686485
vt 0.537415 0.696274
vt 0.547180 0.658051
vt 0.540527 0.663902
vt 0.539825 0.659698
vt 0.546280 0.665543
vt 0.543762 0.651657
vt 0.537613 0.655174
vt 0.536758 0.664742
vt 0.535126 0.661980
vt 0.532364 0.658463
vt 0.532074 0.665283
vt 0.528198 0.662933
vt 0.523743 0.660286
vt 0.519989 0.668175
vt 0.535217 0.651588
vt 0.529327 0.654999
vt 0.522873 0.688484
vt 0.528320 0.699394
vt 0.519577 0.678001
vt 0.540466 0.648293
vt 0.604446 0.642853
vt 0.626221 0.647896
vt 0.604553 0.648445
vt 0.626144 0.642670
vt 0.604553 0.631676
vt 0.626144 0.637444
vt 0.604446 0.637268
vt 0.626221 0.632225
vt 0.605011 0.620506
vt 0.626404 0.626999
vt 0.604736 0.626091
vt 0.626663 0.621780
vt 0.626404 0.653114
vt 0.604736 0.654030
vt 0.626663 0.658333
vt 0.605011 0.659607
s 0
usemtl decorations
f 240/1/1 239/2/1 238/3/1
f 237/1/1 236/4/1 235/2/1
f 234/5/1 233/4/1 232/1/1
f 231/5/1 230/6/1 229/4/1
f 228/6/1 227/5/1 226/7/1
s 1
f 225/8/2 224/9/3 223/10/4
f 222/11/5 221/9/3 220/8/2
f 219/11/6 218/12/7 217/9/3
f 216/13/8 215/12/7 214/11/6
f 213/12/7 212/13/8 211/14/9
f 210/15/10 209/11/6 208/16/11
f 207/15/10 206/13/8 205/11/6
f 204/17/12 203/18/13 202/19/14
f 201/17/15 200/16/11 199/18/16
f 198/20/17 197/19/14 196/21/18
f 195/20/17 194/17/19 193/19/20
f 192/19/14 191/22/21 190/23/22
f 189/19/14 188/18/13 187/22/21
f 186/21/23 185/23/24 184/24/25
f 183/21/18 3/19/14 182/23/24
f 181/23/22 180/25/26 179/26/27
f 178/23/22 177/22/28 176/25/29
f 175/24/30 174/26/27 173/27/31
f 172/24/30 4/23/22 171/26/27
f 170/28/32 169/29/33 168/30/34
f 167/28/32 166/31/26 165/29/35
f 164/32/36 163/30/37 162/33/38
f 161/32/36 13/28/27 160/30/39
f 159/30/34 158/34/40 157/35/41
f 156/30/34 155/29/42 154/34/40
f 153/33/43 152/35/44 151/36/45
f 150/33/43 14/30/34 149/35/44
f 148/35/44 147/15/46 146/37/47
f 145/35/44 144/34/48 143/15/46
f 142/36/45 141/37/47 140/38/49
f 139/36/45 16/35/44 138/37/47
f 137/37/47 136/16/11 135/17/19
f 134/37/47 133/15/50 132/16/51
f 131/38/52 130/17/19 129/20/53
f 128/38/54 36/37/47 25/17/19
f 127/39/55 126/20/53 125/40/56
f 124/39/55 123/38/54 122/20/53
f 121/41/57 120/36/45 119/42/58
f 118/41/57 117/33/43 116/36/45
f 115/43/59 114/27/31 113/44/60
f 112/43/61 111/24/25 110/27/31
f 109/40/62 108/21/18 107/45/63
f 106/40/62 40/20/17 105/21/18
f 104/42/58 103/38/54 102/39/55
f 101/42/58 41/36/45 42/38/54
f 100/46/60 99/33/38 98/41/57
f 97/46/60 37/32/36 38/33/38
f 96/45/63 95/24/25 94/43/61
f 93/45/63 33/21/18 34/24/25
f 92/29/42 91/14/9 90/34/40
f 89/29/42 88/12/64 87/14/9
f 86/22/65 85/9/3 84/25/29
f 83/22/28 82/10/4 81/9/66
f 80/16/67 79/8/2 78/18/16
f 29/16/67 30/11/5 77/8/68
f 76/31/69 75/12/64 28/29/35
f 31/31/69 26/9/66 27/12/64
f 74/18/13 73/10/70 24/22/21
f 21/18/13 22/8/68 23/10/4
f 72/34/48 71/13/8 20/15/46
f 17/34/48 18/14/9 19/13/8
f 70/47/71 69/48/63 68/49/72
f 67/47/73 66/50/74 65/48/63
f 64/51/75 63/52/55 62/53/76
f 61/51/77 60/54/58 59/52/55
f 58/55/78 57/56/57 56/57/79
f 55/55/78 54/58/60 53/56/57
f 52/49/80 51/59/59 50/60/81
f 2/49/82 32/48/63 49/59/83
f 48/53/84 47/50/56 12/47/85
f 9/53/76 10/52/55 11/50/56
f 46/57/86 45/54/58 8/51/87
f 5/57/86 6/56/57 7/54/58
f 44/60/88 43/61/60 15/62/89
f 1/60/90 35/59/91 39/61/60
