# Blender 5.0.0
# www.blender.org
mtllib Circle_005_Circle_Dupli_35_decorations_0.mtl
o Circle.005|Circle|Dupli|35_decorations_0
v -4.597659 0.530995 0.907952
v -4.596659 0.530106 0.907514
v -4.592422 0.531181 0.914033
v -4.593849 0.532449 0.914659
v -4.596972 0.533191 0.906881
v -4.593939 0.534297 0.911290
v -4.592845 0.533973 0.910633
v -4.595802 0.532844 0.906178
v -4.595170 0.531588 0.906091
v -4.592254 0.532799 0.910551
v -4.592611 0.531660 0.911107
v -4.595551 0.530370 0.906685
v -4.594048 0.534408 0.914257
v -4.592869 0.535582 0.913131
v -4.597799 0.532368 0.907671
v -4.591200 0.535087 0.912127
v -4.590589 0.535088 0.913519
v -4.590335 0.534820 0.914643
v -4.589856 0.533868 0.914576
v -4.589854 0.533631 0.913418
v -4.591583 0.531910 0.915070
v -4.590984 0.532745 0.915655
v -4.591742 0.533419 0.915987
v -4.592744 0.532942 0.915579
v -4.590842 0.531557 0.912851
v -4.591847 0.534459 0.915774
v -4.591221 0.535082 0.915175
v -4.591947 0.535491 0.914335
v -4.590297 0.532216 0.914108
v -4.590145 0.532945 0.915027
v -4.592906 0.534536 0.915252
v -4.593647 0.531413 0.911882
v -4.593209 0.531147 0.912740
v -4.594445 0.532245 0.913282
v -4.594582 0.532245 0.912292
v -4.590298 0.533296 0.912003
v -4.594617 0.533940 0.912934
v -4.593596 0.534956 0.911959
v -4.594712 0.533528 0.912028
v -4.591841 0.531473 0.911717
v -4.592152 0.534528 0.911091
v -4.591371 0.532978 0.910983
v -4.594712 0.533528 0.912028
v -4.597659 0.530995 0.907952
v -4.592845 0.533973 0.910633
v -4.596972 0.533191 0.906881
v -4.592611 0.531660 0.911107
v -4.595170 0.531588 0.906091
v -4.594582 0.532245 0.912292
v -4.597659 0.530995 0.907952
v -4.594582 0.532245 0.912292
v -4.596659 0.530106 0.907514
v -4.593939 0.534297 0.911290
v -4.594712 0.533528 0.912028
v -4.597799 0.532368 0.907671
v -4.596972 0.533191 0.906881
v -4.593939 0.534297 0.911290
v -4.597799 0.532368 0.907671
v -4.592254 0.532799 0.910551
v -4.592845 0.533973 0.910633
v -4.595802 0.532844 0.906178
v -4.595170 0.531588 0.906091
v -4.592254 0.532799 0.910551
v -4.595802 0.532844 0.906178
v -4.593647 0.531413 0.911882
v -4.592611 0.531660 0.911107
v -4.595551 0.530370 0.906685
v -4.596659 0.530106 0.907514
v -4.593647 0.531413 0.911882
v -4.595551 0.530370 0.906685
v -4.589856 0.533868 0.914576
v -4.590589 0.535088 0.913519
v -4.591742 0.533419 0.915987
v -4.591583 0.531910 0.915070
v -4.591221 0.535082 0.915175
v -4.592906 0.534536 0.915252
v -4.590984 0.532745 0.915655
v -4.591583 0.531910 0.915070
v -4.590984 0.532745 0.915655
v -4.590297 0.532216 0.914108
v -4.591847 0.534459 0.915774
v -4.591742 0.533419 0.915987
v -4.592744 0.532942 0.915579
v -4.592906 0.534536 0.915252
v -4.591847 0.534459 0.915774
v -4.592744 0.532942 0.915579
v -4.590335 0.534820 0.914643
v -4.591221 0.535082 0.915175
v -4.591947 0.535491 0.914335
v -4.590589 0.535088 0.913519
v -4.590335 0.534820 0.914643
v -4.591947 0.535491 0.914335
v -4.593647 0.531413 0.911882
v -4.594582 0.532245 0.912292
v -4.594445 0.532245 0.913282
v -4.593647 0.531413 0.911882
v -4.594712 0.533528 0.912028
v -4.593939 0.534297 0.911290
v -4.593596 0.534956 0.911959
v -4.594712 0.533528 0.912028
v -4.592845 0.533973 0.910633
v -4.592254 0.532799 0.910551
v -4.591371 0.532978 0.910983
v -4.592845 0.533973 0.910633
v -4.593209 0.531147 0.912740
v -4.592611 0.531660 0.911107
v -4.593647 0.531413 0.911882
v -4.593209 0.531147 0.912740
v -4.592611 0.531660 0.911107
v -4.594617 0.533940 0.912934
v -4.594445 0.532245 0.913282
v -4.594582 0.532245 0.912292
v -4.594712 0.533528 0.912028
v -4.594617 0.533940 0.912934
v -4.594582 0.532245 0.912292
v -4.592152 0.534528 0.911091
v -4.593596 0.534956 0.911959
v -4.593939 0.534297 0.911290
v -4.592845 0.533973 0.910633
v -4.592152 0.534528 0.911091
v -4.593939 0.534297 0.911290
v -4.591841 0.531473 0.911717
v -4.591371 0.532978 0.910983
v -4.592254 0.532799 0.910551
v -4.592611 0.531660 0.911107
v -4.591841 0.531473 0.911717
v -4.592254 0.532799 0.910551
v -4.591371 0.532978 0.910983
v -4.591841 0.531473 0.911717
v -4.590842 0.531557 0.912851
v -4.591371 0.532978 0.910983
v -4.590297 0.532216 0.914108
v -4.589854 0.533631 0.913418
v -4.590298 0.533296 0.912003
v -4.590842 0.531557 0.912851
v -4.590297 0.532216 0.914108
v -4.590298 0.533296 0.912003
v -4.590298 0.533296 0.912003
v -4.592152 0.534528 0.911091
v -4.591371 0.532978 0.910983
v -4.590298 0.533296 0.912003
v -4.592152 0.534528 0.911091
v -4.589854 0.533631 0.913418
v -4.590589 0.535088 0.913519
v -4.591200 0.535087 0.912127
v -4.590298 0.533296 0.912003
v -4.589854 0.533631 0.913418
v -4.591200 0.535087 0.912127
v -4.591200 0.535087 0.912127
v -4.593596 0.534956 0.911959
v -4.592152 0.534528 0.911091
v -4.591200 0.535087 0.912127
v -4.593596 0.534956 0.911959
v -4.590589 0.535088 0.913519
v -4.591947 0.535491 0.914335
v -4.592869 0.535582 0.913131
v -4.591200 0.535087 0.912127
v -4.590589 0.535088 0.913519
v -4.592869 0.535582 0.913131
v -4.592869 0.535582 0.913131
v -4.594617 0.533940 0.912934
v -4.593596 0.534956 0.911959
v -4.592869 0.535582 0.913131
v -4.594617 0.533940 0.912934
v -4.591947 0.535491 0.914335
v -4.592906 0.534536 0.915252
v -4.594048 0.534408 0.914257
v -4.592869 0.535582 0.913131
v -4.591947 0.535491 0.914335
v -4.594048 0.534408 0.914257
v -4.594048 0.534408 0.914257
v -4.594445 0.532245 0.913282
v -4.594617 0.533940 0.912934
v -4.594048 0.534408 0.914257
v -4.594445 0.532245 0.913282
v -4.592906 0.534536 0.915252
v -4.592744 0.532942 0.915579
v -4.593849 0.532449 0.914659
v -4.594048 0.534408 0.914257
v -4.592906 0.534536 0.915252
v -4.593849 0.532449 0.914659
v -4.593849 0.532449 0.914659
v -4.593209 0.531147 0.912740
v -4.594445 0.532245 0.913282
v -4.593849 0.532449 0.914659
v -4.593209 0.531147 0.912740
v -4.592744 0.532942 0.915579
v -4.591583 0.531910 0.915070
v -4.592422 0.531181 0.914033
v -4.593849 0.532449 0.914659
v -4.592744 0.532942 0.915579
v -4.592422 0.531181 0.914033
v -4.592422 0.531181 0.914033
v -4.590842 0.531557 0.912851
v -4.591841 0.531473 0.911717
v -4.593209 0.531147 0.912740
v -4.592422 0.531181 0.914033
v -4.591841 0.531473 0.911717
v -4.591583 0.531910 0.915070
v -4.590297 0.532216 0.914108
v -4.590842 0.531557 0.912851
v -4.592422 0.531181 0.914033
v -4.591583 0.531910 0.915070
v -4.590842 0.531557 0.912851
v -4.590145 0.532945 0.915027
v -4.589856 0.533868 0.914576
v -4.589854 0.533631 0.913418
v -4.590297 0.532216 0.914108
v -4.590145 0.532945 0.915027
v -4.589854 0.533631 0.913418
v -4.590335 0.534820 0.914643
v -4.589856 0.533868 0.914576
v -4.591221 0.535082 0.915175
v -4.590145 0.532945 0.915027
v -4.591221 0.535082 0.915175
v -4.589856 0.533868 0.914576
v -4.591847 0.534459 0.915774
v -4.591221 0.535082 0.915175
v -4.590145 0.532945 0.915027
v -4.590984 0.532745 0.915655
v -4.591847 0.534459 0.915774
v -4.590145 0.532945 0.915027
v -4.591742 0.533419 0.915987
v -4.591847 0.534459 0.915774
v -4.590984 0.532745 0.915655
v -4.595802 0.532844 0.906178
v -4.596972 0.533191 0.906881
v -4.595170 0.531588 0.906091
v -4.595551 0.530370 0.906685
v -4.595170 0.531588 0.906091
v -4.596972 0.533191 0.906881
v -4.597799 0.532368 0.907671
v -4.595551 0.530370 0.906685
v -4.596972 0.533191 0.906881
v -4.596659 0.530106 0.907514
v -4.595551 0.530370 0.906685
v -4.597799 0.532368 0.907671
v -4.597659 0.530995 0.907952
v -4.596659 0.530106 0.907514
v -4.597799 0.532368 0.907671
vn -0.5497 -0.2210 -0.8056
vn 0.4043 -0.3495 0.8452
vn 0.0084 0.4364 0.8997
vn 0.0568 -0.0406 0.9976
vn 0.7893 -0.2578 0.5573
vn 0.4043 -0.3496 0.8452
vn 0.7892 -0.2578 0.5574
vn 0.2955 0.7222 0.6253
vn 0.9217 0.1655 0.3508
vn 0.2955 0.7222 0.6254
vn 0.7020 0.6017 0.3810
vn 0.9816 0.0626 -0.1804
vn 0.7672 -0.6227 0.1541
vn 0.6149 -0.7721 -0.1609
vn 0.1439 -0.7713 0.6200
vn -0.0672 -0.9346 0.3493
vn 0.6149 -0.7720 -0.1608
vn 0.7671 -0.6227 0.1540
vn 0.1440 -0.7712 0.6201
vn 0.3742 -0.8097 -0.4520
vn -0.0673 -0.9346 0.3493
vn -0.2684 -0.9629 0.0286
vn -0.4186 -0.2711 0.8668
vn -0.6831 -0.3871 0.6193
vn -0.4186 -0.2711 0.8667
vn -0.6831 -0.3872 0.6193
vn -0.8485 -0.4471 0.2830
vn -0.6830 -0.3872 0.6193
vn -0.4971 0.5011 0.7083
vn -0.7689 0.4582 0.4459
vn -0.4187 -0.2711 0.8667
vn -0.4971 0.5011 0.7084
vn -0.8486 -0.4471 0.2829
vn -0.9294 0.3492 0.1196
vn -0.0322 0.9639 0.2641
vn -0.2601 0.9647 -0.0403
vn -0.4971 0.5012 0.7083
vn -0.0322 0.9639 0.2642
vn -0.9294 0.3492 0.1195
vn -0.4500 0.8264 -0.3384
vn -0.2601 0.9647 -0.0402
vn 0.6258 0.7688 -0.1313
vn 0.4603 0.7511 -0.4732
vn -0.0322 0.9640 0.2641
vn -0.4500 0.8264 -0.3385
vn 0.4603 0.7511 -0.4733
vn 0.2286 0.6252 -0.7463
vn 0.9816 0.0627 -0.1804
vn 0.8497 -0.0218 -0.5269
vn 0.6259 0.7688 -0.1314
vn 0.9816 0.0627 -0.1803
vn 0.2286 0.6251 -0.7463
vn 0.5954 -0.1029 -0.7968
vn 0.8497 -0.0219 -0.5269
vn 0.8497 -0.0218 -0.5268
vn 0.5954 -0.1030 -0.7968
vn 0.3742 -0.8097 -0.4519
vn 0.6571 -0.0869 -0.7488
vn 0.3743 -0.8097 -0.4520
vn 0.4303 -0.8116 -0.3952
vn -0.4149 0.8661 -0.2787
vn 0.2810 0.6598 -0.6970
vn -0.4149 0.8661 -0.2788
vn -0.4501 0.8264 -0.3385
vn -0.8235 -0.4397 0.3584
vn -0.9064 0.3768 0.1909
vn -0.8485 -0.4471 0.2829
vn 0.4303 -0.8116 -0.3951
vn -0.2286 -0.9686 0.0975
vn 0.2810 0.6598 -0.6969
vn -0.4501 0.8264 -0.3384
vn -0.2286 -0.9686 0.0976
vn 0.7020 0.6017 0.3811
vn -0.4187 -0.2710 0.8668
vn -0.4187 -0.2710 0.8667
vn 0.0568 -0.0407 0.9976
vn 0.7671 -0.6228 0.1541
vn -0.4970 0.5012 0.7084
vn 0.6259 0.7688 -0.1313
vn 0.6050 -0.7765 -0.1758
vn -0.0774 -0.9392 0.3345
vn 0.6051 -0.7765 -0.1758
vn 0.4504 0.7474 -0.4884
vn 0.8399 -0.0259 -0.5420
vn -0.7795 0.4544 0.4312
vn -0.4148 0.8661 -0.2788
vn -0.2704 0.9612 -0.0552
vn -0.0775 -0.9392 0.3346
vn -0.8235 -0.4398 0.3584
vn -0.6936 -0.3915 0.6047
vn -0.0774 -0.9392 0.3346
vn 0.8399 -0.0259 -0.5421
vn 0.8400 -0.0259 -0.5420
vn -0.6936 -0.3914 0.6047
vn -0.9064 0.3768 0.1910
vt 0.543243 0.611839
vt 0.535370 0.618118
vt 0.537796 0.613083
vt 0.537796 0.623154
vt 0.547607 0.615326
vt 0.543243 0.624397
vt 0.547607 0.620918
vt 0.565384 0.671494
vt 0.570206 0.669548
vt 0.567856 0.672157
vt 0.564468 0.669609
vt 0.568146 0.666756
vt 0.564514 0.667854
vt 0.565857 0.666748
vt 0.562897 0.666855
vt 0.562302 0.669838
vt 0.559082 0.669685
vt 0.563492 0.673050
vt 0.560059 0.674789
vt 0.554092 0.669067
vt 0.554398 0.676537
vt 0.567307 0.675606
vt 0.564316 0.680244
vt 0.558044 0.684982
vt 0.575485 0.674767
vt 0.575272 0.686485
vt 0.565720 0.696274
vt 0.575485 0.658051
vt 0.568817 0.663902
vt 0.568115 0.659698
vt 0.574570 0.665543
vt 0.572052 0.651657
vt 0.565903 0.655174
vt 0.565063 0.664742
vt 0.563416 0.661980
vt 0.560669 0.658463
vt 0.560364 0.665283
vt 0.556488 0.662933
vt 0.552032 0.660286
vt 0.548294 0.668175
vt 0.563522 0.651588
vt 0.557617 0.654999
vt 0.551163 0.688484
vt 0.556610 0.699394
vt 0.547867 0.678001
vt 0.568756 0.648293
vt 0.604446 0.682632
vt 0.626221 0.687675
vt 0.604553 0.688225
vt 0.626144 0.682457
vt 0.604553 0.671455
vt 0.626144 0.677231
vt 0.604446 0.677048
vt 0.626221 0.672005
vt 0.605011 0.660294
vt 0.626404 0.666786
vt 0.604736 0.665871
vt 0.626663 0.661568
vt 0.626404 0.692902
vt 0.604736 0.693810
vt 0.626663 0.698120
vt 0.605011 0.699394
s 0
usemtl decorations
f 240/1/1 239/2/1 238/3/1
f 237/1/1 236/4/1 235/2/1
f 234/5/1 233/4/1 232/1/1
f 231/5/1 230/6/1 229/4/1
f 228/6/1 227/5/1 226/7/1
s 1
f 225/8/2 224/9/3 223/10/4
f 222/11/5 221/9/3 220/8/6
f 219/11/7 218/12/8 217/9/3
f 216/13/9 215/12/10 214/11/7
f 213/12/8 212/13/9 211/14/11
f 210/15/12 209/11/7 208/16/13
f 207/15/12 206/13/9 205/11/7
f 204/17/14 203/18/15 202/19/16
f 201/17/17 200/16/18 199/18/19
f 198/20/20 197/19/21 196/21/22
f 195/20/20 194/17/17 193/19/16
f 192/19/16 191/22/23 190/23/24
f 189/19/16 188/18/15 187/22/25
f 186/21/22 185/23/26 184/24/27
f 183/21/22 3/19/16 182/23/28
f 181/23/24 180/25/29 179/26/30
f 178/23/24 177/22/31 176/25/32
f 175/24/33 174/26/30 173/27/34
f 172/24/33 4/23/24 171/26/30
f 170/28/30 169/29/35 168/30/36
f 167/28/30 166/31/37 165/29/38
f 164/32/39 163/30/36 162/33/40
f 161/32/34 13/28/30 160/30/41
f 159/30/36 158/34/42 157/35/43
f 156/30/36 155/29/44 154/34/42
f 153/33/45 152/35/46 151/36/47
f 150/33/45 14/30/36 149/35/46
f 148/35/46 147/15/48 146/37/49
f 145/35/46 144/34/50 143/15/51
f 142/36/52 141/37/49 140/38/53
f 139/36/52 16/35/46 138/37/49
f 137/37/54 136/16/18 135/17/17
f 134/37/55 133/15/12 132/16/13
f 131/38/56 130/17/17 129/20/57
f 128/38/56 36/37/49 25/17/17
f 127/39/58 126/20/59 125/40/60
f 124/39/58 123/38/56 122/20/59
f 121/41/61 120/36/47 119/42/62
f 118/41/63 117/33/64 116/36/47
f 115/43/65 114/27/34 113/44/66
f 112/43/65 111/24/67 110/27/34
f 109/40/68 108/21/22 107/45/69
f 106/40/60 40/20/20 105/21/22
f 104/42/70 103/38/56 102/39/58
f 101/42/62 41/36/47 42/38/56
f 100/46/66 99/33/71 98/41/63
f 97/46/66 37/32/34 38/33/71
f 96/45/72 95/24/67 94/43/65
f 93/45/72 33/21/22 34/24/67
f 92/29/44 91/14/73 90/34/42
f 89/29/44 88/12/10 87/14/11
f 86/22/74 85/9/3 84/25/32
f 83/22/75 82/10/76 81/9/3
f 80/16/77 79/8/2 78/18/19
f 29/16/77 30/11/5 77/8/2
f 76/31/78 75/12/8 28/29/38
f 31/31/37 26/9/3 27/12/10
f 74/18/15 73/10/4 24/22/31
f 21/18/15 22/8/2 23/10/4
f 72/34/79 71/13/9 20/15/12
f 17/34/50 18/14/73 19/13/9
f 70/47/80 69/48/72 68/49/81
f 67/47/82 66/50/60 65/48/72
f 64/51/83 63/52/58 62/53/84
f 61/51/83 60/54/62 59/52/58
f 58/55/85 57/56/86 56/57/87
f 55/55/85 54/58/66 53/56/63
f 52/49/88 51/59/89 50/60/90
f 2/49/91 32/48/69 49/59/89
f 48/53/92 47/50/68 12/47/82
f 9/53/93 10/52/58 11/50/60
f 46/57/87 45/54/62 8/51/83
f 5/57/87 6/56/63 7/54/62
f 44/60/94 43/61/95 15/62/85
f 1/60/94 35/59/89 39/61/66
