# Blender 5.0.0
# www.blender.org
mtllib Circle_005_Circle_001_Dupli_78_decorations_0.mtl
o Circle.005|Circle.001|Dupli|78_decorations_0
v -4.702126 0.834761 0.587516
v -4.703514 0.834526 0.587564
v -4.705143 0.841986 0.585745
v -4.703164 0.842321 0.585676
v -4.701551 0.835248 0.589940
v -4.702562 0.840540 0.589029
v -4.703727 0.840433 0.589634
v -4.702797 0.835133 0.590586
v -4.704052 0.834825 0.590026
v -4.704900 0.840145 0.589110
v -4.705198 0.839893 0.587853
v -4.704371 0.834555 0.588681
v -4.701918 0.842779 0.587185
v -4.702343 0.843015 0.589134
v -4.701253 0.835082 0.588573
v -4.704121 0.842852 0.590056
v -4.704372 0.844201 0.589404
v -4.704545 0.845057 0.588605
v -4.705495 0.844823 0.588181
v -4.705829 0.843843 0.588754
v -4.705204 0.843497 0.585896
v -4.705087 0.844597 0.586316
v -4.704036 0.844774 0.586279
v -4.703593 0.843769 0.585840
v -4.706367 0.842026 0.587339
v -4.703374 0.845018 0.587080
v -4.703600 0.845143 0.588115
v -4.702926 0.844334 0.588654
v -4.706199 0.843530 0.587193
v -4.705737 0.844618 0.587162
v -4.702579 0.844142 0.587067
v -4.704397 0.839866 0.586809
v -4.704757 0.840611 0.586247
v -4.703043 0.840900 0.586188
v -4.703099 0.840085 0.586764
v -4.705912 0.842412 0.589257
v -4.701964 0.841297 0.587493
v -4.702333 0.841502 0.589181
v -4.702283 0.840386 0.587752
v -4.705815 0.840646 0.587627
v -4.703872 0.841360 0.589979
v -4.705421 0.840979 0.589288
v -4.702283 0.840386 0.587752
v -4.702126 0.834761 0.587516
v -4.703727 0.840433 0.589634
v -4.701551 0.835248 0.589940
v -4.705198 0.839893 0.587853
v -4.704052 0.834825 0.590026
v -4.703099 0.840085 0.586764
v -4.702126 0.834761 0.587516
v -4.703099 0.840085 0.586764
v -4.703514 0.834526 0.587564
v -4.702562 0.840540 0.589029
v -4.702283 0.840386 0.587752
v -4.701253 0.835082 0.588573
v -4.701551 0.835248 0.589940
v -4.702562 0.840540 0.589029
v -4.701253 0.835082 0.588573
v -4.704900 0.840145 0.589110
v -4.703727 0.840433 0.589634
v -4.702797 0.835133 0.590586
v -4.704052 0.834825 0.590026
v -4.704900 0.840145 0.589110
v -4.702797 0.835133 0.590586
v -4.704397 0.839866 0.586809
v -4.705198 0.839893 0.587853
v -4.704371 0.834555 0.588681
v -4.703514 0.834526 0.587564
v -4.704397 0.839866 0.586809
v -4.704371 0.834555 0.588681
v -4.705495 0.844823 0.588181
v -4.704372 0.844201 0.589404
v -4.704036 0.844774 0.586279
v -4.705204 0.843497 0.585896
v -4.703600 0.845143 0.588115
v -4.702579 0.844142 0.587067
v -4.705087 0.844597 0.586316
v -4.705204 0.843497 0.585896
v -4.705087 0.844597 0.586316
v -4.706199 0.843530 0.587193
v -4.703374 0.845018 0.587080
v -4.704036 0.844774 0.586279
v -4.703593 0.843769 0.585840
v -4.702579 0.844142 0.587067
v -4.703374 0.845018 0.587080
v -4.703593 0.843769 0.585840
v -4.704545 0.845057 0.588605
v -4.703600 0.845143 0.588115
v -4.702926 0.844334 0.588654
v -4.704372 0.844201 0.589404
v -4.704545 0.845057 0.588605
v -4.702926 0.844334 0.588654
v -4.704397 0.839866 0.586809
v -4.703099 0.840085 0.586764
v -4.703043 0.840900 0.586188
v -4.704397 0.839866 0.586809
v -4.702283 0.840386 0.587752
v -4.702562 0.840540 0.589029
v -4.702333 0.841502 0.589181
v -4.702283 0.840386 0.587752
v -4.703727 0.840433 0.589634
v -4.704900 0.840145 0.589110
v -4.705421 0.840979 0.589288
v -4.703727 0.840433 0.589634
v -4.704757 0.840611 0.586247
v -4.705198 0.839893 0.587853
v -4.704397 0.839866 0.586809
v -4.704757 0.840611 0.586247
v -4.705198 0.839893 0.587853
v -4.701964 0.841297 0.587493
v -4.703043 0.840900 0.586188
v -4.703099 0.840085 0.586764
v -4.702283 0.840386 0.587752
v -4.701964 0.841297 0.587493
v -4.703099 0.840085 0.586764
v -4.703872 0.841360 0.589979
v -4.702333 0.841502 0.589181
v -4.702562 0.840540 0.589029
v -4.703727 0.840433 0.589634
v -4.703872 0.841360 0.589979
v -4.702562 0.840540 0.589029
v -4.705815 0.840646 0.587627
v -4.705421 0.840979 0.589288
v -4.704900 0.840145 0.589110
v -4.705198 0.839893 0.587853
v -4.705815 0.840646 0.587627
v -4.704900 0.840145 0.589110
v -4.705421 0.840979 0.589288
v -4.705815 0.840646 0.587627
v -4.706367 0.842026 0.587339
v -4.705421 0.840979 0.589288
v -4.706199 0.843530 0.587193
v -4.705829 0.843843 0.588754
v -4.705912 0.842412 0.589257
v -4.706367 0.842026 0.587339
v -4.706199 0.843530 0.587193
v -4.705912 0.842412 0.589257
v -4.705912 0.842412 0.589257
v -4.703872 0.841360 0.589979
v -4.705421 0.840979 0.589288
v -4.705912 0.842412 0.589257
v -4.703872 0.841360 0.589979
v -4.705829 0.843843 0.588754
v -4.704372 0.844201 0.589404
v -4.704121 0.842852 0.590056
v -4.705912 0.842412 0.589257
v -4.705829 0.843843 0.588754
v -4.704121 0.842852 0.590056
v -4.704121 0.842852 0.590056
v -4.702333 0.841502 0.589181
v -4.703872 0.841360 0.589979
v -4.704121 0.842852 0.590056
v -4.702333 0.841502 0.589181
v -4.704372 0.844201 0.589404
v -4.702926 0.844334 0.588654
v -4.702343 0.843015 0.589134
v -4.704121 0.842852 0.590056
v -4.704372 0.844201 0.589404
v -4.702343 0.843015 0.589134
v -4.702343 0.843015 0.589134
v -4.701964 0.841297 0.587493
v -4.702333 0.841502 0.589181
v -4.702343 0.843015 0.589134
v -4.701964 0.841297 0.587493
v -4.702926 0.844334 0.588654
v -4.702579 0.844142 0.587067
v -4.701918 0.842779 0.587185
v -4.702343 0.843015 0.589134
v -4.702926 0.844334 0.588654
v -4.701918 0.842779 0.587185
v -4.701918 0.842779 0.587185
v -4.703043 0.840900 0.586188
v -4.701964 0.841297 0.587493
v -4.701918 0.842779 0.587185
v -4.703043 0.840900 0.586188
v -4.702579 0.844142 0.587067
v -4.703593 0.843769 0.585840
v -4.703164 0.842321 0.585676
v -4.701918 0.842779 0.587185
v -4.702579 0.844142 0.587067
v -4.703164 0.842321 0.585676
v -4.703164 0.842321 0.585676
v -4.704757 0.840611 0.586247
v -4.703043 0.840900 0.586188
v -4.703164 0.842321 0.585676
v -4.704757 0.840611 0.586247
v -4.703593 0.843769 0.585840
v -4.705204 0.843497 0.585896
v -4.705143 0.841986 0.585745
v -4.703164 0.842321 0.585676
v -4.703593 0.843769 0.585840
v -4.705143 0.841986 0.585745
v -4.705143 0.841986 0.585745
v -4.706367 0.842026 0.587339
v -4.705815 0.840646 0.587627
v -4.704757 0.840611 0.586247
v -4.705143 0.841986 0.585745
v -4.705815 0.840646 0.587627
v -4.705204 0.843497 0.585896
v -4.706199 0.843530 0.587193
v -4.706367 0.842026 0.587339
v -4.705143 0.841986 0.585745
v -4.705204 0.843497 0.585896
v -4.706367 0.842026 0.587339
v -4.705737 0.844618 0.587162
v -4.705495 0.844823 0.588181
v -4.705829 0.843843 0.588754
v -4.706199 0.843530 0.587193
v -4.705737 0.844618 0.587162
v -4.705829 0.843843 0.588754
v -4.704545 0.845057 0.588605
v -4.705495 0.844823 0.588181
v -4.703600 0.845143 0.588115
v -4.705737 0.844618 0.587162
v -4.703600 0.845143 0.588115
v -4.705495 0.844823 0.588181
v -4.703374 0.845018 0.587080
v -4.703600 0.845143 0.588115
v -4.705737 0.844618 0.587162
v -4.705087 0.844597 0.586316
v -4.703374 0.845018 0.587080
v -4.705737 0.844618 0.587162
v -4.704036 0.844774 0.586279
v -4.703374 0.845018 0.587080
v -4.705087 0.844597 0.586316
v -4.702797 0.835133 0.590586
v -4.701551 0.835248 0.589940
v -4.704052 0.834825 0.590026
v -4.704371 0.834555 0.588681
v -4.704052 0.834825 0.590026
v -4.701551 0.835248 0.589940
v -4.701253 0.835082 0.588573
v -4.704371 0.834555 0.588681
v -4.701551 0.835248 0.589940
v -4.703514 0.834526 0.587564
v -4.704371 0.834555 0.588681
v -4.701253 0.835082 0.588573
v -4.702126 0.834761 0.587516
v -4.703514 0.834526 0.587564
v -4.701253 0.835082 0.588573
vn 0.1700 -0.9732 0.1552
vn -0.3852 0.6823 -0.6214
vn 0.4005 0.8754 -0.2708
vn 0.0970 0.7638 -0.6381
vn -0.6830 0.6921 -0.2332
vn 0.4004 0.8754 -0.2708
vn -0.3852 0.6822 -0.6214
vn -0.6830 0.6921 -0.2333
vn 0.2966 0.9330 0.2039
vn -0.5722 0.7860 0.2340
vn 0.2967 0.9330 0.2039
vn -0.5723 0.7860 0.2339
vn -0.1363 0.8932 0.4285
vn -0.7685 0.3686 0.5230
vn -0.9479 0.2166 -0.2335
vn -0.7686 0.3685 0.5230
vn -0.6830 0.6922 -0.2333
vn -0.9681 -0.1609 -0.1921
vn -0.4658 0.2006 -0.8619
vn -0.4403 -0.1784 -0.8799
vn -0.9681 -0.1608 -0.1921
vn -0.8486 -0.5146 -0.1231
vn -0.3514 -0.5310 -0.7711
vn -0.8486 -0.5145 -0.1231
vn -0.4403 -0.1783 -0.8799
vn 0.3148 0.3327 -0.8889
vn 0.4142 -0.0339 -0.9096
vn -0.4657 0.2006 -0.8619
vn -0.3513 -0.5310 -0.7711
vn 0.4141 -0.0338 -0.9096
vn 0.4535 -0.3949 -0.7990
vn 0.8062 0.5133 -0.2943
vn 0.9520 0.1639 -0.2587
vn 0.3149 0.3326 -0.8889
vn 0.4536 -0.3949 -0.7989
vn 0.9602 -0.2086 -0.1858
vn 0.9520 0.1638 -0.2586
vn 0.6382 0.6065 0.4742
vn 0.7681 0.2659 0.5825
vn 0.9602 -0.2086 -0.1857
vn 0.7681 0.2659 0.5826
vn 0.7870 -0.1124 0.6067
vn 0.9520 0.1639 -0.2586
vn 0.7681 0.2660 0.5825
vn -0.0626 0.5422 0.8379
vn 0.0009 0.1954 0.9807
vn 0.6382 0.6065 0.4743
vn -0.0626 0.5421 0.8379
vn 0.7869 -0.1125 0.6067
vn 0.0643 -0.1788 0.9818
vn -0.7717 0.0055 0.6359
vn -0.0627 0.5421 0.8380
vn 0.0642 -0.1789 0.9818
vn -0.6636 -0.3578 0.6570
vn -0.7717 0.0054 0.6359
vn -0.6949 -0.2844 0.6605
vn -0.8846 -0.4451 -0.1394
vn 0.7925 -0.0328 0.6090
vn 0.0515 -0.1009 0.9936
vn 0.4507 -0.3224 -0.8324
vn 0.9702 -0.1314 -0.2037
vn 0.4536 -0.3949 -0.7990
vn -0.3748 -0.4621 -0.8038
vn 0.0643 -0.1789 0.9818
vn 0.7870 -0.1125 0.6067
vn 0.7925 -0.0329 0.6090
vn -0.3747 -0.4620 -0.8038
vn 0.6381 0.6065 0.4743
vn -0.1362 0.8932 0.4285
vn -0.0626 0.5421 0.8380
vn 0.2966 0.9330 0.2038
vn -0.1363 0.8932 0.4286
vn 0.3149 0.3327 -0.8889
vn 0.0969 0.7638 -0.6381
vn -0.9479 0.2166 -0.2336
vn -0.4658 0.2005 -0.8619
vn -0.0627 0.5421 0.8379
vn -0.9655 -0.1790 -0.1894
vn -0.3748 -0.4620 -0.8038
vn -0.4374 -0.1965 -0.8775
vn -0.9655 -0.1789 -0.1894
vn 0.0040 0.1775 0.9841
vn -0.7690 -0.0125 0.6392
vn 0.0040 0.1776 0.9841
vn 0.9556 0.1460 -0.2559
vn 0.7716 0.2481 0.5857
vn 0.4175 -0.0519 -0.9072
vn -0.4374 -0.1964 -0.8776
vn -0.3747 -0.4621 -0.8038
vn -0.7690 -0.0125 0.6391
vn -0.9655 -0.1789 -0.1893
vn 0.7716 0.2480 0.5857
vn 0.0041 0.1775 0.9841
vt 0.543243 0.635056
vt 0.535370 0.641335
vt 0.537796 0.636299
vt 0.537796 0.646370
vt 0.547607 0.638535
vt 0.543243 0.647614
vt 0.547607 0.644127
vt 0.593674 0.671494
vt 0.598511 0.669548
vt 0.596146 0.672157
vt 0.592773 0.669609
vt 0.596436 0.666756
vt 0.592804 0.667854
vt 0.594147 0.666748
vt 0.591187 0.666855
vt 0.590591 0.669838
vt 0.587372 0.669685
vt 0.591782 0.673050
vt 0.588348 0.674789
vt 0.582382 0.669067
vt 0.582687 0.676537
vt 0.595596 0.675606
vt 0.592606 0.680244
vt 0.586334 0.684982
vt 0.603775 0.674767
vt 0.603561 0.686485
vt 0.594009 0.696274
vt 0.603775 0.658051
vt 0.597107 0.663902
vt 0.596405 0.659698
vt 0.602859 0.665543
vt 0.600342 0.651657
vt 0.594193 0.655174
vt 0.593353 0.664742
vt 0.591705 0.661980
vt 0.588959 0.658463
vt 0.588654 0.665283
vt 0.584778 0.662933
vt 0.580322 0.660286
vt 0.576584 0.668175
vt 0.591812 0.651588
vt 0.585907 0.654999
vt 0.579453 0.688484
vt 0.584915 0.699394
vt 0.576157 0.678001
vt 0.597061 0.648293
vt 0.627350 0.682632
vt 0.649124 0.687675
vt 0.627441 0.688225
vt 0.649033 0.682457
vt 0.627441 0.671455
vt 0.649033 0.677231
vt 0.627350 0.677048
vt 0.649124 0.672005
vt 0.627914 0.660294
vt 0.649292 0.666786
vt 0.627625 0.665871
vt 0.649551 0.661568
vt 0.649292 0.692902
vt 0.627625 0.693810
vt 0.649551 0.698120
vt 0.627914 0.699394
s 0
usemtl decorations
f 240/1/1 239/2/1 238/3/1
f 237/1/1 236/4/1 235/2/1
f 234/5/1 233/4/1 232/1/1
f 231/5/1 230/6/1 229/4/1
f 228/6/1 227/5/1 226/7/1
s 1
f 225/8/2 224/9/3 223/10/4
f 222/11/5 221/9/6 220/8/7
f 219/11/8 218/12/9 217/9/3
f 216/13/10 215/12/11 214/11/8
f 213/12/9 212/13/12 211/14/13
f 210/15/14 209/11/8 208/16/15
f 207/15/16 206/13/10 205/11/17
f 204/17/18 203/18/19 202/19/20
f 201/17/21 200/16/15 199/18/19
f 198/20/22 197/19/20 196/21/23
f 195/20/24 194/17/18 193/19/25
f 192/19/20 191/22/26 190/23/27
f 189/19/20 188/18/28 187/22/26
f 186/21/29 185/23/30 184/24/31
f 183/21/23 3/19/20 182/23/30
f 181/23/27 180/25/32 179/26/33
f 178/23/27 177/22/34 176/25/32
f 175/24/35 174/26/33 173/27/36
f 172/24/35 4/23/27 171/26/33
f 170/28/37 169/29/38 168/30/39
f 167/28/37 166/31/32 165/29/38
f 164/32/40 163/30/41 162/33/42
f 161/32/40 13/28/43 160/30/44
f 159/30/41 158/34/45 157/35/46
f 156/30/39 155/29/47 154/34/48
f 153/33/49 152/35/46 151/36/50
f 150/33/49 14/30/41 149/35/46
f 148/35/46 147/15/14 146/37/51
f 145/35/46 144/34/52 143/15/14
f 142/36/53 141/37/51 140/38/54
f 139/36/53 16/35/46 138/37/51
f 137/37/55 136/16/15 135/17/18
f 134/37/51 133/15/14 132/16/15
f 131/38/54 130/17/18 129/20/24
f 128/38/54 36/37/51 25/17/18
f 127/39/56 126/20/24 125/40/57
f 124/39/56 123/38/54 122/20/24
f 121/41/58 120/36/50 119/42/59
f 118/41/58 117/33/49 116/36/50
f 115/43/60 114/27/36 113/44/61
f 112/43/60 111/24/62 110/27/36
f 109/40/57 108/21/23 107/45/63
f 106/40/57 40/20/22 105/21/23
f 104/42/59 103/38/54 102/39/56
f 101/42/59 41/36/64 42/38/54
f 100/46/61 99/33/65 98/41/66
f 97/46/61 37/32/40 38/33/65
f 96/45/67 95/24/62 94/43/60
f 93/45/67 33/21/23 34/24/62
f 92/29/68 91/14/69 90/34/70
f 89/29/47 88/12/71 87/14/72
f 86/22/73 85/9/6 84/25/32
f 83/22/73 82/10/74 81/9/6
f 80/16/75 79/8/2 78/18/19
f 29/16/75 30/11/5 77/8/2
f 76/31/32 75/12/9 28/29/38
f 31/31/32 26/9/6 27/12/9
f 74/18/19 73/10/4 24/22/34
f 21/18/76 22/8/2 23/10/4
f 72/34/77 71/13/10 20/15/14
f 17/34/52 18/14/69 19/13/10
f 70/47/78 69/48/79 68/49/80
f 67/47/81 66/50/57 65/48/79
f 64/51/82 63/52/56 62/53/83
f 61/51/84 60/54/59 59/52/56
f 58/55/85 57/56/58 56/57/86
f 55/55/85 54/58/61 53/56/66
f 52/49/80 51/59/60 50/60/87
f 2/49/88 32/48/89 49/59/60
f 48/53/90 47/50/57 12/47/91
f 9/53/90 10/52/56 11/50/57
f 46/57/92 45/54/59 8/51/93
f 5/57/86 6/56/58 7/54/59
f 44/60/87 43/61/61 15/62/85
f 1/60/87 35/59/60 39/61/61
