# Blender 5.0.0
# www.blender.org
mtllib Circle_002_Circle_004_Dupli_56_decorations_0.mtl
o Circle.002|Circle.004|Dupli|56_decorations_0
v -4.725746 0.616583 0.599821
v -4.725203 0.615285 0.599763
v -4.719548 0.617095 0.604896
v -4.720323 0.618947 0.604979
v -4.724638 0.617747 0.597857
v -4.720537 0.619225 0.601152
v -4.719774 0.618280 0.600644
v -4.723822 0.616736 0.597314
v -4.723660 0.615408 0.597752
v -4.719623 0.617038 0.601054
v -4.720197 0.616434 0.602073
v -4.724275 0.614762 0.598842
v -4.719964 0.620510 0.603769
v -4.718742 0.620607 0.602177
v -4.725495 0.617679 0.598973
v -4.717577 0.619165 0.601402
v -4.716713 0.619472 0.602614
v -4.716324 0.619585 0.603725
v -4.716201 0.618579 0.604057
v -4.716526 0.617930 0.603123
v -4.718317 0.617787 0.605457
v -4.717370 0.618486 0.605581
v -4.717782 0.619469 0.605625
v -4.718947 0.619294 0.605525
v -4.718223 0.616348 0.603583
v -4.717591 0.620299 0.604982
v -4.716942 0.620351 0.604136
v -4.717661 0.620645 0.603244
v -4.717239 0.617180 0.604388
v -4.716667 0.618089 0.604883
v -4.718656 0.620566 0.604540
v -4.721065 0.616923 0.602934
v -4.720563 0.616866 0.603796
v -4.721233 0.618469 0.603868
v -4.721573 0.618137 0.602988
v -4.717346 0.617270 0.602027
v -4.720923 0.619822 0.602820
v -4.719866 0.619906 0.601442
v -4.721338 0.619161 0.602195
v -4.719417 0.616220 0.602659
v -4.718857 0.618658 0.600771
v -4.718657 0.617017 0.601313
v -4.721338 0.619161 0.602195
v -4.725746 0.616583 0.599821
v -4.719774 0.618280 0.600644
v -4.724638 0.617747 0.597857
v -4.720197 0.616434 0.602073
v -4.723660 0.615408 0.597752
v -4.721573 0.618137 0.602988
v -4.725746 0.616583 0.599821
v -4.721573 0.618137 0.602988
v -4.725203 0.615285 0.599763
v -4.720537 0.619225 0.601152
v -4.721338 0.619161 0.602195
v -4.725495 0.617679 0.598973
v -4.724638 0.617747 0.597857
v -4.720537 0.619225 0.601152
v -4.725495 0.617679 0.598973
v -4.719623 0.617038 0.601054
v -4.719774 0.618280 0.600644
v -4.723822 0.616736 0.597314
v -4.723660 0.615408 0.597752
v -4.719623 0.617038 0.601054
v -4.723822 0.616736 0.597314
v -4.721065 0.616923 0.602934
v -4.720197 0.616434 0.602073
v -4.724275 0.614762 0.598842
v -4.725203 0.615285 0.599763
v -4.721065 0.616923 0.602934
v -4.724275 0.614762 0.598842
v -4.716201 0.618579 0.604057
v -4.716713 0.619472 0.602614
v -4.717782 0.619469 0.605625
v -4.718317 0.617787 0.605457
v -4.716942 0.620351 0.604136
v -4.718656 0.620566 0.604540
v -4.717370 0.618486 0.605581
v -4.718317 0.617787 0.605457
v -4.717370 0.618486 0.605581
v -4.717239 0.617180 0.604388
v -4.717591 0.620299 0.604982
v -4.717782 0.619469 0.605625
v -4.718947 0.619294 0.605525
v -4.718656 0.620566 0.604540
v -4.717591 0.620299 0.604982
v -4.718947 0.619294 0.605525
v -4.716324 0.619585 0.603725
v -4.716942 0.620351 0.604136
v -4.717661 0.620645 0.603244
v -4.716713 0.619472 0.602614
v -4.716324 0.619585 0.603725
v -4.717661 0.620645 0.603244
v -4.721065 0.616923 0.602934
v -4.721573 0.618137 0.602988
v -4.721233 0.618469 0.603868
v -4.721065 0.616923 0.602934
v -4.721338 0.619161 0.602195
v -4.720537 0.619225 0.601152
v -4.719866 0.619906 0.601442
v -4.721338 0.619161 0.602195
v -4.719774 0.618280 0.600644
v -4.719623 0.617038 0.601054
v -4.718657 0.617017 0.601313
v -4.719774 0.618280 0.600644
v -4.720563 0.616866 0.603796
v -4.720197 0.616434 0.602073
v -4.721065 0.616923 0.602934
v -4.720563 0.616866 0.603796
v -4.720197 0.616434 0.602073
v -4.720923 0.619822 0.602820
v -4.721233 0.618469 0.603868
v -4.721573 0.618137 0.602988
v -4.721338 0.619161 0.602195
v -4.720923 0.619822 0.602820
v -4.721573 0.618137 0.602988
v -4.718857 0.618658 0.600771
v -4.719866 0.619906 0.601442
v -4.720537 0.619225 0.601152
v -4.719774 0.618280 0.600644
v -4.718857 0.618658 0.600771
v -4.720537 0.619225 0.601152
v -4.719417 0.616220 0.602659
v -4.718657 0.617017 0.601313
v -4.719623 0.617038 0.601054
v -4.720197 0.616434 0.602073
v -4.719417 0.616220 0.602659
v -4.719623 0.617038 0.601054
v -4.718657 0.617017 0.601313
v -4.719417 0.616220 0.602659
v -4.718223 0.616348 0.603583
v -4.718657 0.617017 0.601313
v -4.717239 0.617180 0.604388
v -4.716526 0.617930 0.603123
v -4.717346 0.617270 0.602027
v -4.718223 0.616348 0.603583
v -4.717239 0.617180 0.604388
v -4.717346 0.617270 0.602027
v -4.717346 0.617270 0.602027
v -4.718857 0.618658 0.600771
v -4.718657 0.617017 0.601313
v -4.717346 0.617270 0.602027
v -4.718857 0.618658 0.600771
v -4.716526 0.617930 0.603123
v -4.716713 0.619472 0.602614
v -4.717577 0.619165 0.601402
v -4.717346 0.617270 0.602027
v -4.716526 0.617930 0.603123
v -4.717577 0.619165 0.601402
v -4.717577 0.619165 0.601402
v -4.719866 0.619906 0.601442
v -4.718857 0.618658 0.600771
v -4.717577 0.619165 0.601402
v -4.719866 0.619906 0.601442
v -4.716713 0.619472 0.602614
v -4.717661 0.620645 0.603244
v -4.718742 0.620607 0.602177
v -4.717577 0.619165 0.601402
v -4.716713 0.619472 0.602614
v -4.718742 0.620607 0.602177
v -4.718742 0.620607 0.602177
v -4.720923 0.619822 0.602820
v -4.719866 0.619906 0.601442
v -4.718742 0.620607 0.602177
v -4.720923 0.619822 0.602820
v -4.717661 0.620645 0.603244
v -4.718656 0.620566 0.604540
v -4.719964 0.620510 0.603769
v -4.718742 0.620607 0.602177
v -4.717661 0.620645 0.603244
v -4.719964 0.620510 0.603769
v -4.719964 0.620510 0.603769
v -4.721233 0.618469 0.603868
v -4.720923 0.619822 0.602820
v -4.719964 0.620510 0.603769
v -4.721233 0.618469 0.603868
v -4.718656 0.620566 0.604540
v -4.718947 0.619294 0.605525
v -4.720323 0.618947 0.604979
v -4.719964 0.620510 0.603769
v -4.718656 0.620566 0.604540
v -4.720323 0.618947 0.604979
v -4.720323 0.618947 0.604979
v -4.720563 0.616866 0.603796
v -4.721233 0.618469 0.603868
v -4.720323 0.618947 0.604979
v -4.720563 0.616866 0.603796
v -4.718947 0.619294 0.605525
v -4.718317 0.617787 0.605457
v -4.719548 0.617095 0.604896
v -4.720323 0.618947 0.604979
v -4.718947 0.619294 0.605525
v -4.719548 0.617095 0.604896
v -4.719548 0.617095 0.604896
v -4.718223 0.616348 0.603583
v -4.719417 0.616220 0.602659
v -4.720563 0.616866 0.603796
v -4.719548 0.617095 0.604896
v -4.719417 0.616220 0.602659
v -4.718317 0.617787 0.605457
v -4.717239 0.617180 0.604388
v -4.718223 0.616348 0.603583
v -4.719548 0.617095 0.604896
v -4.718317 0.617787 0.605457
v -4.718223 0.616348 0.603583
v -4.716667 0.618089 0.604883
v -4.716201 0.618579 0.604057
v -4.716526 0.617930 0.603123
v -4.717239 0.617180 0.604388
v -4.716667 0.618089 0.604883
v -4.716526 0.617930 0.603123
v -4.716324 0.619585 0.603725
v -4.716201 0.618579 0.604057
v -4.716942 0.620351 0.604136
v -4.716667 0.618089 0.604883
v -4.716942 0.620351 0.604136
v -4.716201 0.618579 0.604057
v -4.717591 0.620299 0.604982
v -4.716942 0.620351 0.604136
v -4.716667 0.618089 0.604883
v -4.717370 0.618486 0.605581
v -4.717591 0.620299 0.604982
v -4.716667 0.618089 0.604883
v -4.717782 0.619469 0.605625
v -4.717591 0.620299 0.604982
v -4.717370 0.618486 0.605581
v -4.723822 0.616736 0.597314
v -4.724638 0.617747 0.597857
v -4.723660 0.615408 0.597752
v -4.724275 0.614762 0.598842
v -4.723660 0.615408 0.597752
v -4.724638 0.617747 0.597857
v -4.725495 0.617679 0.598973
v -4.724275 0.614762 0.598842
v -4.724638 0.617747 0.597857
v -4.725203 0.615285 0.599763
v -4.724275 0.614762 0.598842
v -4.725495 0.617679 0.598973
v -4.725746 0.616583 0.599821
v -4.725203 0.615285 0.599763
v -4.725495 0.617679 0.598973
vn -0.7513 -0.2876 -0.5940
vn 0.4426 -0.1200 0.8887
vn 0.3413 0.7117 0.6140
vn 0.2540 0.3309 0.9088
vn 0.7652 -0.3018 0.5687
vn 0.3413 0.7117 0.6141
vn 0.4426 -0.1201 0.8886
vn 0.7651 -0.3018 0.5687
vn 0.6388 0.7353 0.2263
vn 0.9787 -0.0774 0.1899
vn 0.9787 -0.0775 0.1900
vn 0.9225 0.3841 0.0375
vn 0.8867 -0.3926 -0.2443
vn 0.5410 -0.7558 0.3689
vn 0.9787 -0.0774 0.1900
vn 0.2848 -0.9450 0.1609
vn 0.0187 -0.4616 0.8869
vn -0.2867 -0.6229 0.7279
vn 0.2849 -0.9450 0.1609
vn 0.5409 -0.7558 0.3689
vn 0.0188 -0.4616 0.8869
vn -0.0119 -0.9975 -0.0700
vn -0.5503 -0.6941 0.4642
vn -0.2866 0.2686 0.9196
vn -0.6210 0.1764 0.7637
vn -0.5504 -0.6940 0.4641
vn -0.8652 0.0589 0.4979
vn -0.1454 0.8850 0.4424
vn -0.4663 0.8511 0.2413
vn -0.2867 0.2687 0.9196
vn -0.1453 0.8850 0.4424
vn -0.8653 0.0589 0.4978
vn -0.7195 0.6945 0.0058
vn -0.4663 0.8511 0.2412
vn 0.3363 0.9233 -0.1854
vn 0.0609 0.8930 -0.4458
vn 0.3364 0.9233 -0.1853
vn -0.7195 0.6945 0.0057
vn -0.2228 0.7340 -0.6415
vn 0.0609 0.8931 -0.4458
vn 0.7957 0.3548 -0.4909
vn 0.5637 0.2707 -0.7804
vn 0.0610 0.8930 -0.4458
vn 0.3364 0.9233 -0.1854
vn -0.2228 0.7340 -0.6416
vn 0.2508 0.1477 -0.9567
vn 0.5637 0.2706 -0.7804
vn 0.8867 -0.3925 -0.2443
vn 0.6634 -0.5473 -0.5103
vn 0.7957 0.3548 -0.4910
vn 0.3448 -0.6228 -0.7023
vn 0.6633 -0.5473 -0.5103
vn 0.3447 -0.6229 -0.7023
vn -0.0118 -0.9975 -0.0700
vn 0.3447 -0.6228 -0.7023
vn 0.4171 -0.6143 -0.6698
vn 0.0515 -0.9984 -0.0214
vn -0.1647 0.7770 -0.6075
vn 0.2508 0.1478 -0.9567
vn 0.3209 0.1758 -0.9307
vn -0.1648 0.7770 -0.6075
vn -0.8236 0.0848 0.5609
vn -0.6741 0.7365 0.0562
vn -0.8653 0.0589 0.4979
vn 0.0516 -0.9984 -0.0214
vn -0.5503 -0.6941 0.4641
vn -0.5006 -0.6873 0.5262
vn 0.3209 0.1759 -0.9306
vn -0.6741 0.7365 0.0563
vn -0.5006 -0.6873 0.5263
vn -0.8236 0.0848 0.5608
vn 0.9225 0.3841 0.0376
vn -0.2866 0.2687 0.9196
vn 0.3413 0.7116 0.6141
vn 0.5409 -0.7558 0.3690
vn 0.5409 -0.7559 0.3689
vn 0.2539 0.3310 0.9088
vn -0.2867 0.2686 0.9196
vn 0.7957 0.3547 -0.4910
vn 0.2711 -0.9508 0.1500
vn -0.3008 -0.6285 0.7173
vn 0.2712 -0.9508 0.1500
vn 0.5501 0.2655 -0.7918
vn 0.4172 -0.6143 -0.6698
vn 0.6498 -0.5529 -0.5216
vn 0.5502 0.2655 -0.7917
vn -0.4804 0.8462 0.2304
vn 0.0470 0.8882 -0.4570
vn -0.8235 0.0848 0.5609
vn -0.6352 0.1711 0.7531
vn 0.6498 -0.5529 -0.5215
vn 0.0471 0.8882 -0.4571
vn 0.3209 0.1758 -0.9306
vn 0.0471 0.8882 -0.4570
vn 0.3209 0.1759 -0.9307
vn -0.6353 0.1712 0.7531
vn -0.6352 0.1712 0.7531
vt 0.530319 0.635056
vt 0.522446 0.641335
vt 0.524872 0.636299
vt 0.524872 0.646370
vt 0.534683 0.638535
vt 0.530319 0.647614
vt 0.534683 0.644127
vt 0.508789 0.671494
vt 0.513626 0.669548
vt 0.511276 0.672157
vt 0.507889 0.669609
vt 0.511566 0.666756
vt 0.507935 0.667854
vt 0.509277 0.666748
vt 0.506302 0.666855
vt 0.505722 0.669838
vt 0.502487 0.669685
vt 0.506897 0.673050
vt 0.503479 0.674789
vt 0.497520 0.669067
vt 0.497810 0.676537
vt 0.510727 0.675606
vt 0.507721 0.680244
vt 0.501465 0.684982
vt 0.518890 0.674767
vt 0.518692 0.686485
vt 0.509125 0.696274
vt 0.518890 0.658051
vt 0.512238 0.663902
vt 0.511536 0.659698
vt 0.517990 0.665543
vt 0.515472 0.651657
vt 0.509323 0.655174
vt 0.508469 0.664742
vt 0.506836 0.661980
vt 0.504074 0.658463
vt 0.503784 0.665283
vt 0.499901 0.662933
vt 0.495453 0.660286
vt 0.491707 0.668175
vt 0.506927 0.651588
vt 0.501038 0.654999
vt 0.494583 0.688484
vt 0.500031 0.699394
vt 0.491287 0.678001
vt 0.512177 0.648293
vt 0.627350 0.642853
vt 0.649124 0.647896
vt 0.627441 0.648445
vt 0.649033 0.642670
vt 0.627441 0.631676
vt 0.649033 0.637444
vt 0.627350 0.637268
vt 0.649124 0.632225
vt 0.627914 0.620506
vt 0.649292 0.626999
vt 0.627625 0.626091
vt 0.649551 0.621780
vt 0.649292 0.653114
vt 0.627625 0.654030
vt 0.649551 0.658333
vt 0.627914 0.659607
s 0
usemtl decorations
f 240/1/1 239/2/1 238/3/1
f 237/1/1 236/4/1 235/2/1
f 234/5/1 233/4/1 232/1/1
f 231/5/1 230/6/1 229/4/1
f 228/6/1 227/5/1 226/7/1
s 1
f 225/8/2 224/9/3 223/10/4
f 222/11/5 221/9/6 220/8/7
f 219/11/8 218/12/9 217/9/3
f 216/13/10 215/12/9 214/11/5
f 213/12/9 212/13/11 211/14/12
f 210/15/13 209/11/5 208/16/14
f 207/15/13 206/13/15 205/11/5
f 204/17/16 203/18/17 202/19/18
f 201/17/19 200/16/20 199/18/21
f 198/20/22 197/19/18 196/21/23
f 195/20/22 194/17/19 193/19/18
f 192/19/18 191/22/24 190/23/25
f 189/19/18 188/18/17 187/22/24
f 186/21/26 185/23/25 184/24/27
f 183/21/26 3/19/18 182/23/25
f 181/23/25 180/25/28 179/26/29
f 178/23/25 177/22/30 176/25/31
f 175/24/32 174/26/29 173/27/33
f 172/24/32 4/23/25 171/26/29
f 170/28/34 169/29/35 168/30/36
f 167/28/29 166/31/31 165/29/37
f 164/32/38 163/30/36 162/33/39
f 161/32/38 13/28/29 160/30/40
f 159/30/36 158/34/41 157/35/42
f 156/30/43 155/29/44 154/34/41
f 153/33/45 152/35/42 151/36/46
f 150/33/45 14/30/43 149/35/42
f 148/35/47 147/15/48 146/37/49
f 145/35/42 144/34/50 143/15/48
f 142/36/46 141/37/49 140/38/51
f 139/36/46 16/35/42 138/37/49
f 137/37/52 136/16/20 135/17/19
f 134/37/49 133/15/48 132/16/14
f 131/38/53 130/17/19 129/20/54
f 128/38/55 36/37/49 25/17/19
f 127/39/56 126/20/54 125/40/57
f 124/39/56 123/38/55 122/20/54
f 121/41/58 120/36/59 119/42/60
f 118/41/61 117/33/45 116/36/59
f 115/43/62 114/27/33 113/44/63
f 112/43/62 111/24/64 110/27/33
f 109/40/65 108/21/66 107/45/67
f 106/40/65 40/20/22 105/21/66
f 104/42/68 103/38/55 102/39/56
f 101/42/68 41/36/46 42/38/55
f 100/46/69 99/33/39 98/41/61
f 97/46/69 37/32/38 38/33/39
f 96/45/70 95/24/27 94/43/71
f 93/45/70 33/21/23 34/24/27
f 92/29/44 91/14/72 90/34/50
f 89/29/44 88/12/9 87/14/12
f 86/22/73 85/9/3 84/25/31
f 83/22/30 82/10/4 81/9/74
f 80/16/75 79/8/7 78/18/21
f 29/16/76 30/11/5 77/8/7
f 76/31/31 75/12/9 28/29/37
f 31/31/31 26/9/74 27/12/9
f 74/18/17 73/10/77 24/22/78
f 21/18/17 22/8/7 23/10/4
f 72/34/41 71/13/10 20/15/48
f 17/34/79 18/14/72 19/13/15
f 70/47/80 69/48/70 68/49/81
f 67/47/82 66/50/57 65/48/70
f 64/51/83 63/52/84 62/53/85
f 61/51/86 60/54/60 59/52/56
f 58/55/87 57/56/58 56/57/88
f 55/55/87 54/58/69 53/56/61
f 52/49/81 51/59/89 50/60/90
f 2/49/81 32/48/70 49/59/62
f 48/53/85 47/50/57 12/47/82
f 9/53/91 10/52/56 11/50/57
f 46/57/92 45/54/93 8/51/83
f 5/57/94 6/56/61 7/54/95
f 44/60/96 43/61/69 15/62/87
f 1/60/97 35/59/71 39/61/69
