# Blender 5.0.0
# www.blender.org
mtllib Circle_002_Circle_001_Dupli_262_decorations_0.mtl
o Circle.002|Circle.001|Dupli|262_decorations_0
v -4.666369 1.292771 0.740131
v -4.667121 1.292990 0.738961
v -4.662561 1.288175 0.734763
v -4.661488 1.287862 0.736432
v -4.664722 1.294701 0.740114
v -4.661266 1.291619 0.737213
v -4.661589 1.292270 0.736115
v -4.665068 1.295398 0.738940
v -4.666078 1.295097 0.738005
v -4.662534 1.291989 0.735242
v -4.663388 1.290987 0.735251
v -4.666992 1.294026 0.738015
v -4.659964 1.288948 0.737164
v -4.659138 1.290616 0.736408
v -4.665301 1.293532 0.740644
v -4.659631 1.291610 0.734732
v -4.658922 1.290447 0.734058
v -4.658640 1.289364 0.733674
v -4.659406 1.289136 0.732966
v -4.660095 1.290098 0.732974
v -4.661307 1.287652 0.734083
v -4.660197 1.287540 0.733690
v -4.659626 1.287374 0.734576
v -4.660433 1.287397 0.735441
v -4.662376 1.289652 0.733413
v -4.658817 1.287951 0.734965
v -4.658379 1.288836 0.734564
v -4.658521 1.289638 0.735422
v -4.661156 1.288854 0.732985
v -4.660099 1.288324 0.732973
v -4.659194 1.288281 0.736037
v -4.663509 1.290019 0.736135
v -4.663296 1.289208 0.735591
v -4.662366 1.288937 0.737036
v -4.662806 1.289814 0.737229
v -4.661072 1.291181 0.733400
v -4.661048 1.289877 0.737670
v -4.660333 1.291321 0.737015
v -4.661808 1.290526 0.737709
v -4.663136 1.290487 0.734423
v -4.660759 1.292181 0.735565
v -4.662007 1.291810 0.734412
v -4.661808 1.290526 0.737709
v -4.666369 1.292771 0.740131
v -4.661589 1.292270 0.736115
v -4.664722 1.294701 0.740114
v -4.663388 1.290987 0.735251
v -4.666078 1.295097 0.738005
v -4.662806 1.289814 0.737229
v -4.666369 1.292771 0.740131
v -4.662806 1.289814 0.737229
v -4.667121 1.292990 0.738961
v -4.661266 1.291619 0.737213
v -4.661808 1.290526 0.737709
v -4.665301 1.293532 0.740644
v -4.664722 1.294701 0.740114
v -4.661266 1.291619 0.737213
v -4.665301 1.293532 0.740644
v -4.662534 1.291989 0.735242
v -4.661589 1.292270 0.736115
v -4.665068 1.295398 0.738940
v -4.666078 1.295097 0.738005
v -4.662534 1.291989 0.735242
v -4.665068 1.295398 0.738940
v -4.663509 1.290019 0.736135
v -4.663388 1.290987 0.735251
v -4.666992 1.294026 0.738015
v -4.667121 1.292990 0.738961
v -4.663509 1.290019 0.736135
v -4.666992 1.294026 0.738015
v -4.659406 1.289136 0.732966
v -4.658922 1.290447 0.734058
v -4.659626 1.287374 0.734576
v -4.661307 1.287652 0.734083
v -4.658379 1.288836 0.734564
v -4.659194 1.288281 0.736037
v -4.660197 1.287540 0.733690
v -4.661307 1.287652 0.734083
v -4.660197 1.287540 0.733690
v -4.661156 1.288854 0.732985
v -4.658817 1.287951 0.734965
v -4.659626 1.287374 0.734576
v -4.660433 1.287397 0.735441
v -4.659194 1.288281 0.736037
v -4.658817 1.287951 0.734965
v -4.660433 1.287397 0.735441
v -4.658640 1.289364 0.733674
v -4.658379 1.288836 0.734564
v -4.658521 1.289638 0.735422
v -4.658922 1.290447 0.734058
v -4.658640 1.289364 0.733674
v -4.658521 1.289638 0.735422
v -4.663509 1.290019 0.736135
v -4.662806 1.289814 0.737229
v -4.662366 1.288937 0.737036
v -4.663509 1.290019 0.736135
v -4.661808 1.290526 0.737709
v -4.661266 1.291619 0.737213
v -4.660333 1.291321 0.737015
v -4.661808 1.290526 0.737709
v -4.661589 1.292270 0.736115
v -4.662534 1.291989 0.735242
v -4.662007 1.291810 0.734412
v -4.661589 1.292270 0.736115
v -4.663296 1.289208 0.735591
v -4.663388 1.290987 0.735251
v -4.663509 1.290019 0.736135
v -4.663296 1.289208 0.735591
v -4.663388 1.290987 0.735251
v -4.661048 1.289877 0.737670
v -4.662366 1.288937 0.737036
v -4.662806 1.289814 0.737229
v -4.661808 1.290526 0.737709
v -4.661048 1.289877 0.737670
v -4.662806 1.289814 0.737229
v -4.660759 1.292181 0.735565
v -4.660333 1.291321 0.737015
v -4.661266 1.291619 0.737213
v -4.661589 1.292270 0.736115
v -4.660759 1.292181 0.735565
v -4.661266 1.291619 0.737213
v -4.663136 1.290487 0.734423
v -4.662007 1.291810 0.734412
v -4.662534 1.291989 0.735242
v -4.663388 1.290987 0.735251
v -4.663136 1.290487 0.734423
v -4.662534 1.291989 0.735242
v -4.662007 1.291810 0.734412
v -4.663136 1.290487 0.734423
v -4.662376 1.289652 0.733413
v -4.662007 1.291810 0.734412
v -4.661156 1.288854 0.732985
v -4.660095 1.290098 0.732974
v -4.661072 1.291181 0.733400
v -4.662376 1.289652 0.733413
v -4.661156 1.288854 0.732985
v -4.661072 1.291181 0.733400
v -4.661072 1.291181 0.733400
v -4.660759 1.292181 0.735565
v -4.662007 1.291810 0.734412
v -4.661072 1.291181 0.733400
v -4.660759 1.292181 0.735565
v -4.660095 1.290098 0.732974
v -4.658922 1.290447 0.734058
v -4.659631 1.291610 0.734732
v -4.661072 1.291181 0.733400
v -4.660095 1.290098 0.732974
v -4.659631 1.291610 0.734732
v -4.659631 1.291610 0.734732
v -4.660333 1.291321 0.737015
v -4.660759 1.292181 0.735565
v -4.659631 1.291610 0.734732
v -4.660333 1.291321 0.737015
v -4.658922 1.290447 0.734058
v -4.658521 1.289638 0.735422
v -4.659138 1.290616 0.736408
v -4.659631 1.291610 0.734732
v -4.658922 1.290447 0.734058
v -4.659138 1.290616 0.736408
v -4.659138 1.290616 0.736408
v -4.661048 1.289877 0.737670
v -4.660333 1.291321 0.737015
v -4.659138 1.290616 0.736408
v -4.661048 1.289877 0.737670
v -4.658521 1.289638 0.735422
v -4.659194 1.288281 0.736037
v -4.659964 1.288948 0.737164
v -4.659138 1.290616 0.736408
v -4.658521 1.289638 0.735422
v -4.659964 1.288948 0.737164
v -4.659964 1.288948 0.737164
v -4.662366 1.288937 0.737036
v -4.661048 1.289877 0.737670
v -4.659964 1.288948 0.737164
v -4.662366 1.288937 0.737036
v -4.659194 1.288281 0.736037
v -4.660433 1.287397 0.735441
v -4.661488 1.287862 0.736432
v -4.659964 1.288948 0.737164
v -4.659194 1.288281 0.736037
v -4.661488 1.287862 0.736432
v -4.661488 1.287862 0.736432
v -4.663296 1.289208 0.735591
v -4.662366 1.288937 0.737036
v -4.661488 1.287862 0.736432
v -4.663296 1.289208 0.735591
v -4.660433 1.287397 0.735441
v -4.661307 1.287652 0.734083
v -4.662561 1.288175 0.734763
v -4.661488 1.287862 0.736432
v -4.660433 1.287397 0.735441
v -4.662561 1.288175 0.734763
v -4.662561 1.288175 0.734763
v -4.662376 1.289652 0.733413
v -4.663136 1.290487 0.734423
v -4.663296 1.289208 0.735591
v -4.662561 1.288175 0.734763
v -4.663136 1.290487 0.734423
v -4.661307 1.287652 0.734083
v -4.661156 1.288854 0.732985
v -4.662376 1.289652 0.733413
v -4.662561 1.288175 0.734763
v -4.661307 1.287652 0.734083
v -4.662376 1.289652 0.733413
v -4.660099 1.288324 0.732973
v -4.659406 1.289136 0.732966
v -4.660095 1.290098 0.732974
v -4.661156 1.288854 0.732985
v -4.660099 1.288324 0.732973
v -4.660095 1.290098 0.732974
v -4.658640 1.289364 0.733674
v -4.659406 1.289136 0.732966
v -4.658379 1.288836 0.734564
v -4.660099 1.288324 0.732973
v -4.658379 1.288836 0.734564
v -4.659406 1.289136 0.732966
v -4.658817 1.287951 0.734965
v -4.658379 1.288836 0.734564
v -4.660099 1.288324 0.732973
v -4.660197 1.287540 0.733690
v -4.658817 1.287951 0.734965
v -4.660099 1.288324 0.732973
v -4.659626 1.287374 0.734576
v -4.658817 1.287951 0.734965
v -4.660197 1.287540 0.733690
v -4.665068 1.295398 0.738940
v -4.664722 1.294701 0.740114
v -4.666078 1.295097 0.738005
v -4.666992 1.294026 0.738015
v -4.666078 1.295097 0.738005
v -4.664722 1.294701 0.740114
v -4.665301 1.293532 0.740644
v -4.666992 1.294026 0.738015
v -4.664722 1.294701 0.740114
v -4.667121 1.292990 0.738961
v -4.666992 1.294026 0.738015
v -4.665301 1.293532 0.740644
v -4.666369 1.292771 0.740131
v -4.667121 1.292990 0.738961
v -4.665301 1.293532 0.740644
vn -0.6472 0.5568 0.5207
vn 0.1275 -0.8362 -0.5334
vn 0.7600 -0.6479 0.0514
vn 0.3889 -0.9125 -0.1269
vn 0.1726 -0.4764 -0.8621
vn 0.1275 -0.8362 -0.5335
vn 0.1725 -0.4765 -0.8621
vn 0.9612 -0.2417 -0.1329
vn 0.4901 -0.1042 -0.8654
vn 0.8411 0.0003 -0.5409
vn 0.1923 0.3485 -0.9174
vn 0.1726 -0.4765 -0.8621
vn -0.3218 -0.2542 -0.9121
vn -0.6170 -0.0505 -0.7853
vn -0.3947 -0.8366 -0.3800
vn -0.6967 -0.6880 -0.2030
vn -0.6169 -0.0506 -0.7854
vn -0.3218 -0.2542 -0.9120
vn -0.8226 0.1600 -0.5456
vn -0.6967 -0.6880 -0.2029
vn -0.8977 -0.4405 0.0030
vn -0.6967 -0.6881 -0.2030
vn 0.0285 -0.9601 0.2782
vn -0.2334 -0.8233 0.5174
vn -0.3947 -0.8366 -0.3799
vn -0.8977 -0.4405 0.0031
vn -0.2335 -0.8233 0.5174
vn -0.4613 -0.5679 0.6817
vn -0.2334 -0.8233 0.5175
vn 0.6292 -0.5318 0.5669
vn 0.4241 -0.3544 0.8334
vn 0.6292 -0.5318 0.5668
vn -0.4613 -0.5678 0.6817
vn 0.1581 -0.1262 0.9793
vn 0.4241 -0.3543 0.8334
vn 0.9550 0.1259 0.2686
vn 0.7807 0.3654 0.5070
vn 0.6292 -0.5317 0.5669
vn 0.9550 0.1258 0.2686
vn 0.1581 -0.1261 0.9793
vn 0.7806 0.3655 0.5070
vn 0.4940 0.5519 0.6718
vn 0.7606 0.5176 -0.3919
vn 0.5678 0.7943 -0.2161
vn 0.4940 0.5520 0.6718
vn 0.2935 0.9559 -0.0094
vn 0.7807 0.3655 0.5069
vn -0.0542 0.6091 -0.7912
vn 0.7605 0.5176 -0.3920
vn 0.1924 0.3485 -0.9174
vn -0.2924 0.7815 -0.5512
vn -0.0541 0.6091 -0.7913
vn -0.2925 0.7815 -0.5511
vn -0.6170 -0.0506 -0.7854
vn -0.8226 0.1600 -0.5457
vn -0.2924 0.7815 -0.5511
vn -0.0541 0.6091 -0.7912
vn -0.2450 0.7541 -0.6093
vn -0.7886 0.1169 -0.6036
vn 0.5615 0.5188 0.6447
vn 0.2935 0.9559 -0.0093
vn 0.3558 0.9330 -0.0537
vn 0.5614 0.5188 0.6447
vn -0.4181 -0.6295 0.6549
vn 0.2170 -0.1766 0.9601
vn -0.4182 -0.6295 0.6549
vn -0.7886 0.1169 -0.6037
vn -0.8657 -0.4988 -0.0410
vn -0.8226 0.1601 -0.5456
vn 0.3559 0.9330 -0.0537
vn -0.8657 -0.4989 -0.0410
vn 0.0286 -0.9601 0.2782
vn 0.7600 -0.6479 0.0513
vn -0.3219 -0.2542 -0.9120
vn 0.1276 -0.8362 -0.5334
vn 0.3890 -0.9125 -0.1269
vn -0.3948 -0.8366 -0.3799
vn 0.7606 0.5176 -0.3920
vn -0.6293 -0.0403 -0.7762
vn -0.8657 -0.4989 -0.0411
vn -0.7091 -0.6781 -0.1935
vn -0.6292 -0.0403 -0.7762
vn 0.5561 0.8050 -0.2066
vn -0.0661 0.6197 -0.7820
vn 0.5562 0.8050 -0.2066
vn 0.4124 -0.3442 0.8435
vn 0.7691 0.3759 0.5169
vn 0.4124 -0.3443 0.8435
vn 0.2169 -0.1766 0.9601
vn -0.7091 -0.6781 -0.1934
vn -0.2456 -0.8134 0.5273
vn -0.7090 -0.6781 -0.1934
vn -0.0662 0.6197 -0.7820
vn 0.3558 0.9330 -0.0538
vn 0.7691 0.3759 0.5168
vn -0.2456 -0.8134 0.5274
vn 0.4123 -0.3443 0.8435
vn -0.2455 -0.8134 0.5273
vt 0.543243 0.635056
vt 0.535370 0.641335
vt 0.537796 0.636299
vt 0.537796 0.646370
vt 0.547607 0.638535
vt 0.543243 0.647614
vt 0.547607 0.644127
vt 0.593674 0.671494
vt 0.598511 0.669548
vt 0.596146 0.672157
vt 0.592773 0.669609
vt 0.596436 0.666756
vt 0.592804 0.667854
vt 0.594147 0.666748
vt 0.591187 0.666855
vt 0.590591 0.669838
vt 0.587372 0.669685
vt 0.591782 0.673050
vt 0.588348 0.674789
vt 0.582382 0.669067
vt 0.582687 0.676537
vt 0.595596 0.675606
vt 0.592606 0.680244
vt 0.586334 0.684982
vt 0.603775 0.674767
vt 0.603561 0.686485
vt 0.594009 0.696274
vt 0.603775 0.658051
vt 0.597107 0.663902
vt 0.596405 0.659698
vt 0.602859 0.665543
vt 0.600342 0.651657
vt 0.594193 0.655174
vt 0.593353 0.664742
vt 0.591705 0.661980
vt 0.588959 0.658463
vt 0.588654 0.665283
vt 0.584778 0.662933
vt 0.580322 0.660286
vt 0.576584 0.668175
vt 0.591812 0.651588
vt 0.585907 0.654999
vt 0.579453 0.688484
vt 0.584915 0.699394
vt 0.576157 0.678001
vt 0.597061 0.648293
vt 0.627350 0.682632
vt 0.649124 0.687675
vt 0.627441 0.688225
vt 0.649033 0.682457
vt 0.627441 0.671455
vt 0.649033 0.677231
vt 0.627350 0.677048
vt 0.649124 0.672005
vt 0.627914 0.660294
vt 0.649292 0.666786
vt 0.627625 0.665871
vt 0.649551 0.661568
vt 0.649292 0.692902
vt 0.627625 0.693810
vt 0.649551 0.698120
vt 0.627914 0.699394
s 0
usemtl decorations
f 240/1/1 239/2/1 238/3/1
f 237/1/1 236/4/1 235/2/1
f 234/5/1 233/4/1 232/1/1
f 231/5/1 230/6/1 229/4/1
f 228/6/1 227/5/1 226/7/1
s 1
f 225/8/2 224/9/3 223/10/4
f 222/11/5 221/9/3 220/8/6
f 219/11/7 218/12/8 217/9/3
f 216/13/9 215/12/8 214/11/7
f 213/12/8 212/13/9 211/14/10
f 210/15/11 209/11/12 208/16/13
f 207/15/11 206/13/9 205/11/12
f 204/17/14 203/18/15 202/19/16
f 201/17/17 200/16/18 199/18/15
f 198/20/19 197/19/20 196/21/21
f 195/20/19 194/17/17 193/19/22
f 192/19/16 191/22/23 190/23/24
f 189/19/16 188/18/25 187/22/23
f 186/21/26 185/23/27 184/24/28
f 183/21/26 3/19/16 182/23/27
f 181/23/29 180/25/30 179/26/31
f 178/23/24 177/22/23 176/25/32
f 175/24/33 174/26/31 173/27/34
f 172/24/33 4/23/29 171/26/31
f 170/28/35 169/29/36 168/30/37
f 167/28/35 166/31/38 165/29/39
f 164/32/40 163/30/41 162/33/42
f 161/32/40 13/28/31 160/30/37
f 159/30/37 158/34/43 157/35/44
f 156/30/37 155/29/36 154/34/43
f 153/33/45 152/35/44 151/36/46
f 150/33/45 14/30/47 149/35/44
f 148/35/44 147/15/11 146/37/48
f 145/35/44 144/34/49 143/15/50
f 142/36/46 141/37/48 140/38/51
f 139/36/46 16/35/44 138/37/48
f 137/37/48 136/16/18 135/17/17
f 134/37/52 133/15/11 132/16/13
f 131/38/53 130/17/54 129/20/55
f 128/38/56 36/37/57 25/17/54
f 127/39/58 126/20/55 125/40/59
f 124/39/58 123/38/51 122/20/55
f 121/41/60 120/36/61 119/42/62
f 118/41/63 117/33/45 116/36/61
f 115/43/64 114/27/34 113/44/65
f 112/43/66 111/24/28 110/27/34
f 109/40/67 108/21/21 107/45/68
f 106/40/67 40/20/69 105/21/21
f 104/42/70 103/38/51 102/39/58
f 101/42/62 41/36/46 42/38/51
f 100/46/65 99/33/42 98/41/63
f 97/46/65 37/32/40 38/33/42
f 96/45/71 95/24/28 94/43/66
f 93/45/71 33/21/21 34/24/28
f 92/29/36 91/14/10 90/34/43
f 89/29/36 88/12/8 87/14/10
f 86/22/72 85/9/3 84/25/32
f 83/22/72 82/10/4 81/9/73
f 80/16/74 79/8/75 78/18/15
f 29/16/74 30/11/5 77/8/75
f 76/31/32 75/12/8 28/29/39
f 31/31/32 26/9/73 27/12/8
f 74/18/25 73/10/76 24/22/23
f 21/18/77 22/8/75 23/10/4
f 72/34/78 71/13/9 20/15/11
f 17/34/78 18/14/10 19/13/9
f 70/47/79 69/48/80 68/49/81
f 67/47/82 66/50/59 65/48/80
f 64/51/83 63/52/58 62/53/84
f 61/51/85 60/54/62 59/52/58
f 58/55/86 57/56/63 56/57/87
f 55/55/88 54/58/89 53/56/63
f 52/49/90 51/59/66 50/60/91
f 2/49/92 32/48/71 49/59/66
f 48/53/93 47/50/59 12/47/82
f 9/53/84 10/52/58 11/50/59
f 46/57/87 45/54/94 8/51/85
f 5/57/95 6/56/63 7/54/62
f 44/60/96 43/61/65 15/62/97
f 1/60/98 35/59/66 39/61/65
