# Blender 5.0.0
# www.blender.org
mtllib Circle_005_Circle_Dupli_39_decorations_0.mtl
o Circle.005|Circle|Dupli|39_decorations_0
v -4.613647 1.050683 0.438069
v -4.613144 1.049400 0.438361
v -4.613604 1.050653 0.446096
v -4.614321 1.052482 0.445679
v -4.611538 1.052057 0.437750
v -4.611559 1.053177 0.443098
v -4.610602 1.052295 0.443298
v -4.610514 1.051114 0.437963
v -4.610632 1.049746 0.438276
v -4.610712 1.051016 0.443591
v -4.611806 1.050303 0.443756
v -4.611802 1.048983 0.438453
v -4.613301 1.054169 0.445291
v -4.611312 1.054443 0.445224
v -4.612932 1.051865 0.437797
v -4.609851 1.053098 0.445529
v -4.610251 1.053273 0.446984
v -4.610860 1.053265 0.447998
v -4.610950 1.052228 0.448236
v -4.610388 1.051685 0.447348
v -4.613305 1.051283 0.447446
v -4.612854 1.051966 0.448299
v -4.613235 1.052938 0.448078
v -4.613889 1.052772 0.447107
v -4.611689 1.050058 0.446228
v -4.612693 1.053834 0.447872
v -4.611636 1.053980 0.447836
v -4.611440 1.054368 0.446736
v -4.611747 1.050799 0.447553
v -4.611836 1.051650 0.448370
v -4.613059 1.054145 0.446791
v -4.613060 1.050693 0.443670
v -4.613393 1.050543 0.444600
v -4.614014 1.052127 0.444239
v -4.613531 1.051892 0.443396
v -4.610019 1.051146 0.445975
v -4.613132 1.053587 0.443904
v -4.611410 1.053824 0.443846
v -4.612863 1.052997 0.443142
v -4.611736 1.050028 0.444715
v -4.610145 1.052659 0.444109
v -4.610290 1.050970 0.444496
v -4.612863 1.052997 0.443142
v -4.613647 1.050683 0.438069
v -4.610602 1.052295 0.443298
v -4.611538 1.052057 0.437750
v -4.611806 1.050303 0.443756
v -4.610632 1.049746 0.438276
v -4.613531 1.051892 0.443396
v -4.613647 1.050683 0.438069
v -4.613531 1.051892 0.443396
v -4.613144 1.049400 0.438361
v -4.611559 1.053177 0.443098
v -4.612863 1.052997 0.443142
v -4.612932 1.051865 0.437797
v -4.611538 1.052057 0.437750
v -4.611559 1.053177 0.443098
v -4.612932 1.051865 0.437797
v -4.610712 1.051016 0.443591
v -4.610602 1.052295 0.443298
v -4.610514 1.051114 0.437963
v -4.610632 1.049746 0.438276
v -4.610712 1.051016 0.443591
v -4.610514 1.051114 0.437963
v -4.613060 1.050693 0.443670
v -4.611806 1.050303 0.443756
v -4.611802 1.048983 0.438453
v -4.613144 1.049400 0.438361
v -4.613060 1.050693 0.443670
v -4.611802 1.048983 0.438453
v -4.610950 1.052228 0.448236
v -4.610251 1.053273 0.446984
v -4.613235 1.052938 0.448078
v -4.613305 1.051283 0.447446
v -4.611636 1.053980 0.447836
v -4.613059 1.054145 0.446791
v -4.612854 1.051966 0.448299
v -4.613305 1.051283 0.447446
v -4.612854 1.051966 0.448299
v -4.611747 1.050799 0.447553
v -4.612693 1.053834 0.447872
v -4.613235 1.052938 0.448078
v -4.613889 1.052772 0.447107
v -4.613059 1.054145 0.446791
v -4.612693 1.053834 0.447872
v -4.613889 1.052772 0.447107
v -4.610860 1.053265 0.447998
v -4.611636 1.053980 0.447836
v -4.611440 1.054368 0.446736
v -4.610251 1.053273 0.446984
v -4.610860 1.053265 0.447998
v -4.611440 1.054368 0.446736
v -4.613060 1.050693 0.443670
v -4.613531 1.051892 0.443396
v -4.614014 1.052127 0.444239
v -4.613060 1.050693 0.443670
v -4.612863 1.052997 0.443142
v -4.611559 1.053177 0.443098
v -4.611410 1.053824 0.443846
v -4.612863 1.052997 0.443142
v -4.610602 1.052295 0.443298
v -4.610712 1.051016 0.443591
v -4.610290 1.050970 0.444496
v -4.610602 1.052295 0.443298
v -4.613393 1.050543 0.444600
v -4.611806 1.050303 0.443756
v -4.613060 1.050693 0.443670
v -4.613393 1.050543 0.444600
v -4.611806 1.050303 0.443756
v -4.613132 1.053587 0.443904
v -4.614014 1.052127 0.444239
v -4.613531 1.051892 0.443396
v -4.612863 1.052997 0.443142
v -4.613132 1.053587 0.443904
v -4.613531 1.051892 0.443396
v -4.610145 1.052659 0.444109
v -4.611410 1.053824 0.443846
v -4.611559 1.053177 0.443098
v -4.610602 1.052295 0.443298
v -4.610145 1.052659 0.444109
v -4.611559 1.053177 0.443098
v -4.611736 1.050028 0.444715
v -4.610290 1.050970 0.444496
v -4.610712 1.051016 0.443591
v -4.611806 1.050303 0.443756
v -4.611736 1.050028 0.444715
v -4.610712 1.051016 0.443591
v -4.610290 1.050970 0.444496
v -4.611736 1.050028 0.444715
v -4.611689 1.050058 0.446228
v -4.610290 1.050970 0.444496
v -4.611747 1.050799 0.447553
v -4.610388 1.051685 0.447348
v -4.610019 1.051146 0.445975
v -4.611689 1.050058 0.446228
v -4.611747 1.050799 0.447553
v -4.610019 1.051146 0.445975
v -4.610019 1.051146 0.445975
v -4.610145 1.052659 0.444109
v -4.610290 1.050970 0.444496
v -4.610019 1.051146 0.445975
v -4.610145 1.052659 0.444109
v -4.610388 1.051685 0.447348
v -4.610251 1.053273 0.446984
v -4.609851 1.053098 0.445529
v -4.610019 1.051146 0.445975
v -4.610388 1.051685 0.447348
v -4.609851 1.053098 0.445529
v -4.609851 1.053098 0.445529
v -4.611410 1.053824 0.443846
v -4.610145 1.052659 0.444109
v -4.609851 1.053098 0.445529
v -4.611410 1.053824 0.443846
v -4.610251 1.053273 0.446984
v -4.611440 1.054368 0.446736
v -4.611312 1.054443 0.445224
v -4.609851 1.053098 0.445529
v -4.610251 1.053273 0.446984
v -4.611312 1.054443 0.445224
v -4.611312 1.054443 0.445224
v -4.613132 1.053587 0.443904
v -4.611410 1.053824 0.443846
v -4.611312 1.054443 0.445224
v -4.613132 1.053587 0.443904
v -4.611440 1.054368 0.446736
v -4.613059 1.054145 0.446791
v -4.613301 1.054169 0.445291
v -4.611312 1.054443 0.445224
v -4.611440 1.054368 0.446736
v -4.613301 1.054169 0.445291
v -4.613301 1.054169 0.445291
v -4.614014 1.052127 0.444239
v -4.613132 1.053587 0.443904
v -4.613301 1.054169 0.445291
v -4.614014 1.052127 0.444239
v -4.613059 1.054145 0.446791
v -4.613889 1.052772 0.447107
v -4.614321 1.052482 0.445679
v -4.613301 1.054169 0.445291
v -4.613059 1.054145 0.446791
v -4.614321 1.052482 0.445679
v -4.614321 1.052482 0.445679
v -4.613393 1.050543 0.444600
v -4.614014 1.052127 0.444239
v -4.614321 1.052482 0.445679
v -4.613393 1.050543 0.444600
v -4.613889 1.052772 0.447107
v -4.613305 1.051283 0.447446
v -4.613604 1.050653 0.446096
v -4.614321 1.052482 0.445679
v -4.613889 1.052772 0.447107
v -4.613604 1.050653 0.446096
v -4.613604 1.050653 0.446096
v -4.611689 1.050058 0.446228
v -4.611736 1.050028 0.444715
v -4.613393 1.050543 0.444600
v -4.613604 1.050653 0.446096
v -4.611736 1.050028 0.444715
v -4.613305 1.051283 0.447446
v -4.611747 1.050799 0.447553
v -4.611689 1.050058 0.446228
v -4.613604 1.050653 0.446096
v -4.613305 1.051283 0.447446
v -4.611689 1.050058 0.446228
v -4.611836 1.051650 0.448370
v -4.610950 1.052228 0.448236
v -4.610388 1.051685 0.447348
v -4.611747 1.050799 0.447553
v -4.611836 1.051650 0.448370
v -4.610388 1.051685 0.447348
v -4.610860 1.053265 0.447998
v -4.610950 1.052228 0.448236
v -4.611636 1.053980 0.447836
v -4.611836 1.051650 0.448370
v -4.611636 1.053980 0.447836
v -4.610950 1.052228 0.448236
v -4.612693 1.053834 0.447872
v -4.611636 1.053980 0.447836
v -4.611836 1.051650 0.448370
v -4.612854 1.051966 0.448299
v -4.612693 1.053834 0.447872
v -4.611836 1.051650 0.448370
v -4.613235 1.052938 0.448078
v -4.612693 1.053834 0.447872
v -4.612854 1.051966 0.448299
v -4.610514 1.051114 0.437963
v -4.611538 1.052057 0.437750
v -4.610632 1.049746 0.438276
v -4.611802 1.048983 0.438453
v -4.610632 1.049746 0.438276
v -4.611538 1.052057 0.437750
v -4.612932 1.051865 0.437797
v -4.611802 1.048983 0.438453
v -4.611538 1.052057 0.437750
v -4.613144 1.049400 0.438361
v -4.611802 1.048983 0.438453
v -4.612932 1.051865 0.437797
v -4.613647 1.050683 0.438069
v -4.613144 1.049400 0.438361
v -4.612932 1.051865 0.437797
vn -0.0020 -0.2229 -0.9748
vn -0.3855 -0.2153 0.8972
vn -0.3118 0.6412 0.7012
vn -0.5602 0.2302 0.7957
vn 0.0809 -0.3602 0.9294
vn -0.3118 0.6411 0.7012
vn -0.3855 -0.2154 0.8972
vn 0.0808 -0.3602 0.9294
vn 0.1727 0.7079 0.6849
vn 0.4875 -0.0951 0.8679
vn 0.1726 0.7079 0.6849
vn 0.1727 0.7078 0.6849
vn 0.4875 -0.0952 0.8679
vn 0.5284 0.3801 0.7591
vn 0.7874 -0.3612 0.4996
vn 0.1290 -0.7902 0.5991
vn 0.0808 -0.3601 0.9294
vn 0.1403 -0.9561 0.2571
vn -0.6260 -0.5558 0.5471
vn -0.6860 -0.6995 0.2002
vn 0.1403 -0.9561 0.2572
vn 0.1289 -0.7902 0.5991
vn -0.6259 -0.5557 0.5471
vn 0.1314 -0.9839 -0.1214
vn -0.6470 -0.7421 -0.1750
vn -0.6860 -0.6995 0.2003
vn -0.9089 0.1657 0.3827
vn -0.9957 0.0902 0.0203
vn -0.6260 -0.5557 0.5471
vn -0.6471 -0.7421 -0.1750
vn -0.9388 0.0018 -0.3445
vn -0.5068 0.8309 0.2297
vn -0.5555 0.8184 -0.1472
vn -0.5068 0.8309 0.2298
vn -0.9388 0.0018 -0.3446
vn -0.5241 0.6878 -0.5022
vn 0.2776 0.9389 0.2034
vn 0.3030 0.9366 -0.1760
vn -0.5241 0.6878 -0.5023
vn 0.3030 0.9366 -0.1761
vn 0.2847 0.7992 -0.5294
vn 0.8535 0.4085 0.3235
vn 0.9335 0.3559 -0.0446
vn 0.2847 0.7991 -0.5295
vn 0.8786 0.2521 -0.4056
vn 0.9335 0.3558 -0.0446
vn 0.7874 -0.3611 0.4996
vn 0.8610 -0.4864 0.1482
vn 0.8536 0.4084 0.3235
vn 0.8610 -0.4865 0.1482
vn 0.8104 -0.5414 -0.2239
vn 0.8610 -0.4864 0.1483
vn 0.1290 -0.7902 0.5992
vn 0.8104 -0.5414 -0.2240
vn 0.1314 -0.9839 -0.1213
vn 0.8611 -0.4864 0.1482
vn 0.8311 -0.5363 -0.1470
vn 0.1349 -0.9900 -0.0418
vn 0.2921 0.8384 -0.4602
vn 0.9011 0.2774 -0.3333
vn 0.2921 0.8384 -0.4603
vn -0.9625 0.0208 -0.2706
vn -0.5372 0.7241 -0.4324
vn -0.9388 0.0019 -0.3445
vn -0.6633 -0.7421 -0.0969
vn 0.9011 0.2774 -0.3332
vn -0.5373 0.7242 -0.4324
vn 0.2846 0.7992 -0.5294
vn 0.2921 0.8383 -0.4603
vn -0.5373 0.7241 -0.4324
vn -0.6633 -0.7421 -0.0968
vn -0.9624 0.0208 -0.2707
vn 0.5284 0.3802 0.7591
vn 0.2776 0.9389 0.2033
vn 0.1726 0.7078 0.6850
vn -0.9089 0.1658 0.3827
vn -0.5067 0.8309 0.2298
vn -0.5067 0.8309 0.2297
vn -0.5602 0.2303 0.7957
vn -0.6260 -0.5558 0.5470
vn -0.3855 -0.2153 0.8973
vn 0.8535 0.4084 0.3235
vn 0.1403 -0.9608 0.2393
vn -0.6864 -0.7040 0.1823
vn 0.9339 0.3519 -0.0626
vn 0.8615 -0.4908 0.1303
vn -0.5558 0.8147 -0.1653
vn 0.3031 0.9330 -0.1942
vn -0.9963 0.0861 0.0022
vn 0.1404 -0.9608 0.2393
vn 0.3031 0.9330 -0.1941
vn -0.5559 0.8147 -0.1653
vn -0.9963 0.0861 0.0023
vt 0.543243 0.611839
vt 0.535370 0.618118
vt 0.537796 0.613083
vt 0.537796 0.623154
vt 0.547607 0.615326
vt 0.543243 0.624397
vt 0.547607 0.620918
vt 0.565384 0.671494
vt 0.570206 0.669548
vt 0.567856 0.672157
vt 0.564468 0.669609
vt 0.568146 0.666756
vt 0.564514 0.667854
vt 0.565857 0.666748
vt 0.562897 0.666855
vt 0.562302 0.669838
vt 0.559082 0.669685
vt 0.563492 0.673050
vt 0.560059 0.674789
vt 0.554092 0.669067
vt 0.554398 0.676537
vt 0.567307 0.675606
vt 0.564316 0.680244
vt 0.558044 0.684982
vt 0.575485 0.674767
vt 0.575272 0.686485
vt 0.565720 0.696274
vt 0.575485 0.658051
vt 0.568817 0.663902
vt 0.568115 0.659698
vt 0.574570 0.665543
vt 0.572052 0.651657
vt 0.565903 0.655174
vt 0.565063 0.664742
vt 0.563416 0.661980
vt 0.560669 0.658463
vt 0.560364 0.665283
vt 0.556488 0.662933
vt 0.552032 0.660286
vt 0.548294 0.668175
vt 0.563522 0.651588
vt 0.557617 0.654999
vt 0.551163 0.688484
vt 0.556610 0.699394
vt 0.547867 0.678001
vt 0.568756 0.648293
vt 0.604446 0.682632
vt 0.626221 0.687675
vt 0.604553 0.688225
vt 0.626144 0.682457
vt 0.604553 0.671455
vt 0.626144 0.677231
vt 0.604446 0.677048
vt 0.626221 0.672005
vt 0.605011 0.660294
vt 0.626404 0.666786
vt 0.604736 0.665871
vt 0.626663 0.661568
vt 0.626404 0.692902
vt 0.604736 0.693810
vt 0.626663 0.698120
vt 0.605011 0.699394
s 0
usemtl decorations
f 240/1/1 239/2/1 238/3/1
f 237/1/1 236/4/1 235/2/1
f 234/5/1 233/4/1 232/1/1
f 231/5/1 230/6/1 229/4/1
f 228/6/1 227/5/1 226/7/1
s 1
f 225/8/2 224/9/3 223/10/4
f 222/11/5 221/9/6 220/8/7
f 219/11/8 218/12/9 217/9/3
f 216/13/10 215/12/11 214/11/8
f 213/12/12 212/13/13 211/14/14
f 210/15/15 209/11/8 208/16/16
f 207/15/15 206/13/10 205/11/17
f 204/17/18 203/18/19 202/19/20
f 201/17/21 200/16/22 199/18/23
f 198/20/24 197/19/20 196/21/25
f 195/20/24 194/17/21 193/19/26
f 192/19/20 191/22/27 190/23/28
f 189/19/20 188/18/29 187/22/27
f 186/21/30 185/23/28 184/24/31
f 183/21/30 3/19/20 182/23/28
f 181/23/28 180/25/32 179/26/33
f 178/23/28 177/22/27 176/25/34
f 175/24/35 174/26/33 173/27/36
f 172/24/35 4/23/28 171/26/33
f 170/28/33 169/29/37 168/30/38
f 167/28/33 166/31/32 165/29/37
f 164/32/39 163/30/40 162/33/41
f 161/32/39 13/28/33 160/30/38
f 159/30/38 158/34/42 157/35/43
f 156/30/38 155/29/37 154/34/42
f 153/33/44 152/35/43 151/36/45
f 150/33/44 14/30/38 149/35/43
f 148/35/46 147/15/47 146/37/48
f 145/35/46 144/34/49 143/15/47
f 142/36/45 141/37/50 140/38/51
f 139/36/45 16/35/43 138/37/50
f 137/37/50 136/16/16 135/17/21
f 134/37/52 133/15/47 132/16/53
f 131/38/54 130/17/18 129/20/55
f 128/38/54 36/37/56 25/17/18
f 127/39/57 126/20/55 125/40/58
f 124/39/57 123/38/54 122/20/55
f 121/41/59 120/36/45 119/42/60
f 118/41/61 117/33/44 116/36/45
f 115/43/62 114/27/36 113/44/63
f 112/43/62 111/24/64 110/27/36
f 109/40/58 108/21/25 107/45/65
f 106/40/58 40/20/24 105/21/25
f 104/42/66 103/38/51 102/39/57
f 101/42/60 41/36/45 42/38/51
f 100/46/67 99/33/68 98/41/69
f 97/46/70 37/32/39 38/33/68
f 96/45/71 95/24/31 94/43/72
f 93/45/71 33/21/25 34/24/31
f 92/29/37 91/14/73 90/34/42
f 89/29/74 88/12/75 87/14/14
f 86/22/27 85/9/3 84/25/34
f 83/22/76 82/10/4 81/9/6
f 80/16/22 79/8/2 78/18/23
f 29/16/22 30/11/5 77/8/2
f 76/31/77 75/12/12 28/29/37
f 31/31/78 26/9/6 27/12/75
f 74/18/19 73/10/79 24/22/27
f 21/18/80 22/8/81 23/10/4
f 72/34/82 71/13/10 20/15/47
f 17/34/82 18/14/73 19/13/10
f 70/47/83 69/48/71 68/49/84
f 67/47/83 66/50/58 65/48/71
f 64/51/85 63/52/57 62/53/86
f 61/51/85 60/54/66 59/52/57
f 58/55/87 57/56/59 56/57/88
f 55/55/87 54/58/70 53/56/69
f 52/49/84 51/59/62 50/60/89
f 2/49/84 32/48/71 49/59/62
f 48/53/86 47/50/58 12/47/90
f 9/53/86 10/52/57 11/50/58
f 46/57/88 45/54/66 8/51/85
f 5/57/91 6/56/69 7/54/60
f 44/60/89 43/61/67 15/62/92
f 1/60/93 35/59/72 39/61/70
