# Blender 5.0.0
# www.blender.org
mtllib Circle_005_Circle_004_Dupli_132_decorations_0.mtl
o Circle.005|Circle.004|Dupli|132_decorations_0
v -4.197803 0.617336 0.517942
v -4.196691 0.616583 0.518365
v -4.191696 0.622330 0.516460
v -4.193283 0.623405 0.515857
v -4.198148 0.616546 0.515556
v -4.194742 0.620467 0.513855
v -4.193782 0.619581 0.513698
v -4.197120 0.615598 0.515388
v -4.196143 0.615189 0.516316
v -4.192868 0.619198 0.514566
v -4.192690 0.619608 0.515804
v -4.195952 0.615627 0.517641
v -4.194208 0.623382 0.514074
v -4.193774 0.622278 0.512452
v -4.198452 0.617320 0.516692
v -4.192308 0.620925 0.512213
v -4.191434 0.622165 0.512124
v -4.190859 0.623164 0.512388
v -4.190118 0.622854 0.513092
v -4.190300 0.621690 0.513201
v -4.190936 0.623309 0.515579
v -4.190534 0.623910 0.514644
v -4.191376 0.624481 0.514324
v -4.192228 0.624183 0.515089
v -4.190642 0.620967 0.515427
v -4.191868 0.624469 0.513377
v -4.191637 0.623882 0.512515
v -4.192627 0.623266 0.512318
v -4.190078 0.622199 0.514739
v -4.189973 0.623186 0.514095
v -4.192981 0.624164 0.513638
v -4.193381 0.620502 0.516481
v -4.192698 0.621211 0.516652
v -4.194072 0.622142 0.516131
v -4.194421 0.621206 0.516086
v -4.190914 0.620341 0.513537
v -4.194872 0.622121 0.514587
v -4.194497 0.621166 0.513183
v -4.195027 0.621191 0.514917
v -4.191785 0.620031 0.515758
v -4.193228 0.619995 0.512976
v -4.192021 0.619489 0.514122
v -4.195027 0.621191 0.514917
v -4.197803 0.617336 0.517942
v -4.193782 0.619581 0.513698
v -4.198148 0.616546 0.515556
v -4.192690 0.619608 0.515804
v -4.196143 0.615189 0.516316
v -4.194421 0.621206 0.516086
v -4.197803 0.617336 0.517942
v -4.194421 0.621206 0.516086
v -4.196691 0.616583 0.518365
v -4.194742 0.620467 0.513855
v -4.195027 0.621191 0.514917
v -4.198452 0.617320 0.516692
v -4.198148 0.616546 0.515556
v -4.194742 0.620467 0.513855
v -4.198452 0.617320 0.516692
v -4.192868 0.619198 0.514566
v -4.193782 0.619581 0.513698
v -4.197120 0.615598 0.515388
v -4.196143 0.615189 0.516316
v -4.192868 0.619198 0.514566
v -4.197120 0.615598 0.515388
v -4.193381 0.620502 0.516481
v -4.192690 0.619608 0.515804
v -4.195952 0.615627 0.517641
v -4.196691 0.616583 0.518365
v -4.193381 0.620502 0.516481
v -4.195952 0.615627 0.517641
v -4.190118 0.622854 0.513092
v -4.191434 0.622165 0.512124
v -4.191376 0.624481 0.514324
v -4.190936 0.623309 0.515579
v -4.191637 0.623882 0.512515
v -4.192981 0.624164 0.513638
v -4.190534 0.623910 0.514644
v -4.190936 0.623309 0.515579
v -4.190534 0.623910 0.514644
v -4.190078 0.622199 0.514739
v -4.191868 0.624469 0.513377
v -4.191376 0.624481 0.514324
v -4.192228 0.624183 0.515089
v -4.192981 0.624164 0.513638
v -4.191868 0.624469 0.513377
v -4.192228 0.624183 0.515089
v -4.190859 0.623164 0.512388
v -4.191637 0.623882 0.512515
v -4.192627 0.623266 0.512318
v -4.191434 0.622165 0.512124
v -4.190859 0.623164 0.512388
v -4.192627 0.623266 0.512318
v -4.193381 0.620502 0.516481
v -4.194421 0.621206 0.516086
v -4.194072 0.622142 0.516131
v -4.193381 0.620502 0.516481
v -4.195027 0.621191 0.514917
v -4.194742 0.620467 0.513855
v -4.194497 0.621166 0.513183
v -4.195027 0.621191 0.514917
v -4.193782 0.619581 0.513698
v -4.192868 0.619198 0.514566
v -4.192021 0.619489 0.514122
v -4.193782 0.619581 0.513698
v -4.192698 0.621211 0.516652
v -4.192690 0.619608 0.515804
v -4.193381 0.620502 0.516481
v -4.192698 0.621211 0.516652
v -4.192690 0.619608 0.515804
v -4.194872 0.622121 0.514587
v -4.194072 0.622142 0.516131
v -4.194421 0.621206 0.516086
v -4.195027 0.621191 0.514917
v -4.194872 0.622121 0.514587
v -4.194421 0.621206 0.516086
v -4.193228 0.619995 0.512976
v -4.194497 0.621166 0.513183
v -4.194742 0.620467 0.513855
v -4.193782 0.619581 0.513698
v -4.193228 0.619995 0.512976
v -4.194742 0.620467 0.513855
v -4.191785 0.620031 0.515758
v -4.192021 0.619489 0.514122
v -4.192868 0.619198 0.514566
v -4.192690 0.619608 0.515804
v -4.191785 0.620031 0.515758
v -4.192868 0.619198 0.514566
v -4.192021 0.619489 0.514122
v -4.191785 0.620031 0.515758
v -4.190642 0.620967 0.515427
v -4.192021 0.619489 0.514122
v -4.190078 0.622199 0.514739
v -4.190300 0.621690 0.513201
v -4.190914 0.620341 0.513537
v -4.190642 0.620967 0.515427
v -4.190078 0.622199 0.514739
v -4.190914 0.620341 0.513537
v -4.190914 0.620341 0.513537
v -4.193228 0.619995 0.512976
v -4.192021 0.619489 0.514122
v -4.190914 0.620341 0.513537
v -4.193228 0.619995 0.512976
v -4.190300 0.621690 0.513201
v -4.191434 0.622165 0.512124
v -4.192308 0.620925 0.512213
v -4.190914 0.620341 0.513537
v -4.190300 0.621690 0.513201
v -4.192308 0.620925 0.512213
v -4.192308 0.620925 0.512213
v -4.194497 0.621166 0.513183
v -4.193228 0.619995 0.512976
v -4.192308 0.620925 0.512213
v -4.194497 0.621166 0.513183
v -4.191434 0.622165 0.512124
v -4.192627 0.623266 0.512318
v -4.193774 0.622278 0.512452
v -4.192308 0.620925 0.512213
v -4.191434 0.622165 0.512124
v -4.193774 0.622278 0.512452
v -4.193774 0.622278 0.512452
v -4.194872 0.622121 0.514587
v -4.194497 0.621166 0.513183
v -4.193774 0.622278 0.512452
v -4.194872 0.622121 0.514587
v -4.192627 0.623266 0.512318
v -4.192981 0.624164 0.513638
v -4.194208 0.623382 0.514074
v -4.193774 0.622278 0.512452
v -4.192627 0.623266 0.512318
v -4.194208 0.623382 0.514074
v -4.194208 0.623382 0.514074
v -4.194072 0.622142 0.516131
v -4.194872 0.622121 0.514587
v -4.194208 0.623382 0.514074
v -4.194072 0.622142 0.516131
v -4.192981 0.624164 0.513638
v -4.192228 0.624183 0.515089
v -4.193283 0.623405 0.515857
v -4.194208 0.623382 0.514074
v -4.192981 0.624164 0.513638
v -4.193283 0.623405 0.515857
v -4.193283 0.623405 0.515857
v -4.192698 0.621211 0.516652
v -4.194072 0.622142 0.516131
v -4.193283 0.623405 0.515857
v -4.192698 0.621211 0.516652
v -4.192228 0.624183 0.515089
v -4.190936 0.623309 0.515579
v -4.191696 0.622330 0.516460
v -4.193283 0.623405 0.515857
v -4.192228 0.624183 0.515089
v -4.191696 0.622330 0.516460
v -4.191696 0.622330 0.516460
v -4.190642 0.620967 0.515427
v -4.191785 0.620031 0.515758
v -4.192698 0.621211 0.516652
v -4.191696 0.622330 0.516460
v -4.191785 0.620031 0.515758
v -4.190936 0.623309 0.515579
v -4.190078 0.622199 0.514739
v -4.190642 0.620967 0.515427
v -4.191696 0.622330 0.516460
v -4.190936 0.623309 0.515579
v -4.190642 0.620967 0.515427
v -4.189973 0.623186 0.514095
v -4.190118 0.622854 0.513092
v -4.190300 0.621690 0.513201
v -4.190078 0.622199 0.514739
v -4.189973 0.623186 0.514095
v -4.190300 0.621690 0.513201
v -4.190859 0.623164 0.512388
v -4.190118 0.622854 0.513092
v -4.191637 0.623882 0.512515
v -4.189973 0.623186 0.514095
v -4.191637 0.623882 0.512515
v -4.190118 0.622854 0.513092
v -4.191868 0.624469 0.513377
v -4.191637 0.623882 0.512515
v -4.189973 0.623186 0.514095
v -4.190534 0.623910 0.514644
v -4.191868 0.624469 0.513377
v -4.189973 0.623186 0.514095
v -4.191376 0.624481 0.514324
v -4.191868 0.624469 0.513377
v -4.190534 0.623910 0.514644
v -4.197120 0.615598 0.515388
v -4.198148 0.616546 0.515556
v -4.196143 0.615189 0.516316
v -4.195952 0.615627 0.517641
v -4.196143 0.615189 0.516316
v -4.198148 0.616546 0.515556
v -4.198452 0.617320 0.516692
v -4.195952 0.615627 0.517641
v -4.198148 0.616546 0.515556
v -4.196691 0.616583 0.518365
v -4.195952 0.615627 0.517641
v -4.198452 0.617320 0.516692
v -4.197803 0.617336 0.517942
v -4.196691 0.616583 0.518365
v -4.198452 0.617320 0.516692
vn -0.6118 -0.7204 0.3267
vn 0.6776 0.6884 0.2589
vn 0.0658 0.9444 -0.3222
vn 0.2911 0.9501 0.1123
vn 0.9344 0.3562 0.0074
vn 0.0658 0.9444 -0.3221
vn 0.6776 0.6883 0.2589
vn 0.9343 0.3563 0.0075
vn 0.1715 0.6756 -0.7171
vn 0.8680 0.2039 -0.4528
vn 0.1715 0.6755 -0.7171
vn 0.8680 0.2039 -0.4527
vn 0.5285 0.3460 -0.7752
vn 0.8370 -0.3391 -0.4295
vn 0.9444 -0.0924 0.3155
vn 0.8680 0.2040 -0.4528
vn 0.9343 0.3563 0.0074
vn 0.7835 -0.3958 0.4790
vn 0.5287 0.4452 0.7227
vn 0.3286 0.1928 0.9246
vn 0.7836 -0.3957 0.4789
vn 0.5288 0.4452 0.7226
vn 0.5099 -0.6415 0.5731
vn 0.3285 0.1928 0.9246
vn 0.0813 -0.0871 0.9929
vn 0.7836 -0.3957 0.4790
vn -0.0970 0.8690 0.4852
vn -0.3564 0.6566 0.6647
vn -0.5639 0.3499 0.7480
vn -0.4618 0.8598 -0.2180
vn -0.7556 0.6465 -0.1051
vn -0.0971 0.8690 0.4852
vn -0.4617 0.8598 -0.2180
vn -0.5640 0.3498 0.7480
vn -0.9400 0.3404 0.0229
vn -0.2907 0.4246 -0.8575
vn -0.5684 0.1701 -0.8050
vn -0.9400 0.3403 0.0228
vn -0.7636 -0.1084 -0.6365
vn -0.5684 0.1702 -0.8050
vn 0.2873 -0.1089 -0.9516
vn 0.0643 -0.4139 -0.9080
vn -0.2907 0.4245 -0.8575
vn -0.7636 -0.1085 -0.6365
vn -0.1676 -0.6586 -0.7336
vn 0.8369 -0.3391 -0.4296
vn 0.6660 -0.6657 -0.3366
vn 0.2873 -0.1090 -0.9516
vn 0.8370 -0.3390 -0.4296
vn -0.1676 -0.6587 -0.7335
vn 0.3992 -0.8958 -0.1953
vn 0.3991 -0.8959 -0.1953
vn 0.5100 -0.6415 0.5731
vn 0.4612 -0.8575 -0.2279
vn 0.5748 -0.5967 0.5600
vn -0.7312 -0.0501 -0.6804
vn -0.1200 -0.6143 -0.7799
vn -0.7312 -0.0501 -0.6803
vn -0.7637 -0.1085 -0.6365
vn -0.5264 0.4198 0.7393
vn -0.9121 0.4101 -0.0042
vn -0.5640 0.3499 0.7480
vn 0.5748 -0.5967 0.5599
vn 0.0814 -0.0871 0.9929
vn 0.1352 -0.0283 0.9904
vn -0.9120 0.4101 -0.0042
vn -0.7637 -0.1084 -0.6365
vn -0.7312 -0.0502 -0.6803
vn 0.1353 -0.0282 0.9904
vn -0.5265 0.4198 0.7393
vn 0.1353 -0.0283 0.9904
vn -0.0971 0.8690 0.4851
vn 0.9444 -0.0924 0.3156
vn -0.4617 0.8598 -0.2181
vn 0.2910 0.9501 0.1123
vn 0.7727 -0.4093 0.4853
vn 0.3174 0.1795 0.9311
vn 0.7727 -0.4092 0.4853
vn 0.5748 -0.5968 0.5599
vn 0.0531 -0.4275 -0.9025
vn 0.6550 -0.6794 -0.3308
vn 0.0531 -0.4274 -0.9025
vn -0.7673 0.6335 -0.0991
vn -0.5800 0.1569 -0.7993
vn -0.7673 0.6336 -0.0991
vn -0.3679 0.6436 0.6711
vn 0.3174 0.1796 0.9311
vn 0.7727 -0.4093 0.4852
vn -0.5800 0.1569 -0.7994
vn 0.0530 -0.4274 -0.9025
vn -0.7312 -0.0502 -0.6804
vn -0.3679 0.6437 0.6711
vt 0.530319 0.635056
vt 0.522446 0.641335
vt 0.524872 0.636299
vt 0.524872 0.646370
vt 0.534683 0.638535
vt 0.530319 0.647614
vt 0.534683 0.644127
vt 0.508789 0.671494
vt 0.513626 0.669548
vt 0.511276 0.672157
vt 0.507889 0.669609
vt 0.511566 0.666756
vt 0.507935 0.667854
vt 0.509277 0.666748
vt 0.506302 0.666855
vt 0.505722 0.669838
vt 0.502487 0.669685
vt 0.506897 0.673050
vt 0.503479 0.674789
vt 0.497520 0.669067
vt 0.497810 0.676537
vt 0.510727 0.675606
vt 0.507721 0.680244
vt 0.501465 0.684982
vt 0.518890 0.674767
vt 0.518692 0.686485
vt 0.509125 0.696274
vt 0.518890 0.658051
vt 0.512238 0.663902
vt 0.511536 0.659698
vt 0.517990 0.665543
vt 0.515472 0.651657
vt 0.509323 0.655174
vt 0.508469 0.664742
vt 0.506836 0.661980
vt 0.504074 0.658463
vt 0.503784 0.665283
vt 0.499901 0.662933
vt 0.495453 0.660286
vt 0.491707 0.668175
vt 0.506927 0.651588
vt 0.501038 0.654999
vt 0.494583 0.688484
vt 0.500031 0.699394
vt 0.491287 0.678001
vt 0.512177 0.648293
vt 0.627350 0.642853
vt 0.649124 0.647896
vt 0.627441 0.648445
vt 0.649033 0.642670
vt 0.627441 0.631676
vt 0.649033 0.637444
vt 0.627350 0.637268
vt 0.649124 0.632225
vt 0.627914 0.620506
vt 0.649292 0.626999
vt 0.627625 0.626091
vt 0.649551 0.621780
vt 0.649292 0.653114
vt 0.627625 0.654030
vt 0.649551 0.658333
vt 0.627914 0.659607
s 0
usemtl decorations
f 240/1/1 239/2/1 238/3/1
f 237/1/1 236/4/1 235/2/1
f 234/5/1 233/4/1 232/1/1
f 231/5/1 230/6/1 229/4/1
f 228/6/1 227/5/1 226/7/1
s 1
f 225/8/2 224/9/3 223/10/4
f 222/11/5 221/9/6 220/8/7
f 219/11/8 218/12/9 217/9/3
f 216/13/10 215/12/9 214/11/8
f 213/12/11 212/13/12 211/14/13
f 210/15/14 209/11/8 208/16/15
f 207/15/14 206/13/16 205/11/17
f 204/17/18 203/18/19 202/19/20
f 201/17/21 200/16/15 199/18/22
f 198/20/23 197/19/24 196/21/25
f 195/20/23 194/17/26 193/19/20
f 192/19/20 191/22/27 190/23/28
f 189/19/20 188/18/19 187/22/27
f 186/21/25 185/23/28 184/24/29
f 183/21/25 3/19/20 182/23/28
f 181/23/28 180/25/30 179/26/31
f 178/23/28 177/22/32 176/25/33
f 175/24/34 174/26/31 173/27/35
f 172/24/34 4/23/28 171/26/31
f 170/28/31 169/29/36 168/30/37
f 167/28/31 166/31/30 165/29/36
f 164/32/38 163/30/37 162/33/39
f 161/32/38 13/28/31 160/30/40
f 159/30/37 158/34/41 157/35/42
f 156/30/37 155/29/43 154/34/41
f 153/33/44 152/35/42 151/36/45
f 150/33/44 14/30/37 149/35/42
f 148/35/42 147/15/46 146/37/47
f 145/35/42 144/34/48 143/15/49
f 142/36/50 141/37/47 140/38/51
f 139/36/45 16/35/42 138/37/47
f 137/37/47 136/16/15 135/17/26
f 134/37/47 133/15/49 132/16/15
f 131/38/52 130/17/26 129/20/53
f 128/38/52 36/37/47 25/17/26
f 127/39/54 126/20/53 125/40/55
f 124/39/54 123/38/51 122/20/53
f 121/41/56 120/36/45 119/42/57
f 118/41/58 117/33/59 116/36/45
f 115/43/60 114/27/35 113/44/61
f 112/43/60 111/24/62 110/27/35
f 109/40/63 108/21/64 107/45/65
f 106/40/63 40/20/23 105/21/64
f 104/42/57 103/38/51 102/39/54
f 101/42/57 41/36/45 42/38/51
f 100/46/66 99/33/67 98/41/68
f 97/46/66 37/32/38 38/33/67
f 96/45/69 95/24/62 94/43/70
f 93/45/71 33/21/25 34/24/62
f 92/29/43 91/14/13 90/34/41
f 89/29/43 88/12/9 87/14/13
f 86/22/72 85/9/6 84/25/33
f 83/22/32 82/10/4 81/9/6
f 80/16/73 79/8/2 78/18/22
f 29/16/73 30/11/5 77/8/2
f 76/31/74 75/12/9 28/29/36
f 31/31/74 26/9/6 27/12/9
f 74/18/19 73/10/75 24/22/27
f 21/18/19 22/8/2 23/10/4
f 72/34/41 71/13/10 20/15/49
f 17/34/48 18/14/13 19/13/16
f 70/47/76 69/48/69 68/49/77
f 67/47/78 66/50/79 65/48/71
f 64/51/80 63/52/54 62/53/81
f 61/51/82 60/54/57 59/52/54
f 58/55/83 57/56/56 56/57/84
f 55/55/85 54/58/66 53/56/68
f 52/49/77 51/59/60 50/60/86
f 2/49/87 32/48/65 49/59/60
f 48/53/81 47/50/55 12/47/88
f 9/53/81 10/52/54 11/50/55
f 46/57/89 45/54/57 8/51/90
f 5/57/89 6/56/91 7/54/57
f 44/60/86 43/61/66 15/62/83
f 1/60/92 35/59/70 39/61/66
