# Blender 5.0.0
# www.blender.org
mtllib Circle_002_Circle_003_Dupli_165_decorations_0.mtl
o Circle.002|Circle.003|Dupli|165_decorations_0
v -4.222379 0.844758 0.646693
v -4.221587 0.844363 0.645598
v -4.227004 0.846743 0.640440
v -4.228133 0.847307 0.642004
v -4.223593 0.842618 0.647314
v -4.227584 0.843973 0.643836
v -4.227125 0.843110 0.642955
v -4.223102 0.841694 0.646371
v -4.222167 0.841906 0.645339
v -4.226251 0.843307 0.641990
v -4.225621 0.844418 0.641668
v -4.221493 0.843093 0.644995
v -4.229407 0.846199 0.643093
v -4.229867 0.844254 0.642889
v -4.223271 0.843982 0.647457
v -4.229165 0.842936 0.641544
v -4.230092 0.843688 0.640603
v -4.230587 0.844533 0.639941
v -4.229879 0.844693 0.639159
v -4.229007 0.843933 0.639405
v -4.228333 0.846786 0.639705
v -4.229440 0.846555 0.639354
v -4.230039 0.846855 0.640185
v -4.229252 0.847245 0.640977
v -4.226870 0.844932 0.639580
v -4.230716 0.846266 0.640763
v -4.230960 0.845233 0.640655
v -4.230663 0.844760 0.641698
v -4.228224 0.845312 0.639006
v -4.229368 0.845593 0.638898
v -4.230289 0.846343 0.641864
v -4.225709 0.845604 0.642232
v -4.226080 0.846163 0.641490
v -4.227057 0.846651 0.642844
v -4.226449 0.845974 0.643256
v -4.227832 0.843237 0.640072
v -4.228160 0.845692 0.643787
v -4.228558 0.844009 0.643610
v -4.227283 0.845248 0.643970
v -4.225964 0.844595 0.640746
v -4.227951 0.842868 0.642446
v -4.226797 0.843129 0.641171
v -4.227283 0.845248 0.643970
v -4.222379 0.844758 0.646693
v -4.227125 0.843110 0.642955
v -4.223593 0.842618 0.647314
v -4.225621 0.844418 0.641668
v -4.222167 0.841906 0.645339
v -4.226449 0.845974 0.643256
v -4.222379 0.844758 0.646693
v -4.226449 0.845974 0.643256
v -4.221587 0.844363 0.645598
v -4.227584 0.843973 0.643836
v -4.227283 0.845248 0.643970
v -4.223271 0.843982 0.647457
v -4.223593 0.842618 0.647314
v -4.227584 0.843973 0.643836
v -4.223271 0.843982 0.647457
v -4.226251 0.843307 0.641990
v -4.227125 0.843110 0.642955
v -4.223102 0.841694 0.646371
v -4.222167 0.841906 0.645339
v -4.226251 0.843307 0.641990
v -4.223102 0.841694 0.646371
v -4.225709 0.845604 0.642232
v -4.225621 0.844418 0.641668
v -4.221493 0.843093 0.644995
v -4.221587 0.844363 0.645598
v -4.225709 0.845604 0.642232
v -4.221493 0.843093 0.644995
v -4.229879 0.844693 0.639159
v -4.230092 0.843688 0.640603
v -4.230039 0.846855 0.640185
v -4.228333 0.846786 0.639705
v -4.230960 0.845233 0.640655
v -4.230289 0.846343 0.641864
v -4.229440 0.846555 0.639354
v -4.228333 0.846786 0.639705
v -4.229440 0.846555 0.639354
v -4.228224 0.845312 0.639006
v -4.230716 0.846266 0.640763
v -4.230039 0.846855 0.640185
v -4.229252 0.847245 0.640977
v -4.230289 0.846343 0.641864
v -4.230716 0.846266 0.640763
v -4.229252 0.847245 0.640977
v -4.230587 0.844533 0.639941
v -4.230960 0.845233 0.640655
v -4.230663 0.844760 0.641698
v -4.230092 0.843688 0.640603
v -4.230587 0.844533 0.639941
v -4.230663 0.844760 0.641698
v -4.225709 0.845604 0.642232
v -4.226449 0.845974 0.643256
v -4.227057 0.846651 0.642844
v -4.225709 0.845604 0.642232
v -4.227283 0.845248 0.643970
v -4.227584 0.843973 0.643836
v -4.228558 0.844009 0.643610
v -4.227283 0.845248 0.643970
v -4.227125 0.843110 0.642955
v -4.226251 0.843307 0.641990
v -4.226797 0.843129 0.641171
v -4.227125 0.843110 0.642955
v -4.226080 0.846163 0.641490
v -4.225621 0.844418 0.641668
v -4.225709 0.845604 0.642232
v -4.226080 0.846163 0.641490
v -4.225621 0.844418 0.641668
v -4.228160 0.845692 0.643787
v -4.227057 0.846651 0.642844
v -4.226449 0.845974 0.643256
v -4.227283 0.845248 0.643970
v -4.228160 0.845692 0.643787
v -4.226449 0.845974 0.643256
v -4.227951 0.842868 0.642446
v -4.228558 0.844009 0.643610
v -4.227584 0.843973 0.643836
v -4.227125 0.843110 0.642955
v -4.227951 0.842868 0.642446
v -4.227584 0.843973 0.643836
v -4.225964 0.844595 0.640746
v -4.226797 0.843129 0.641171
v -4.226251 0.843307 0.641990
v -4.225621 0.844418 0.641668
v -4.225964 0.844595 0.640746
v -4.226251 0.843307 0.641990
v -4.226797 0.843129 0.641171
v -4.225964 0.844595 0.640746
v -4.226870 0.844932 0.639580
v -4.226797 0.843129 0.641171
v -4.228224 0.845312 0.639006
v -4.229007 0.843933 0.639405
v -4.227832 0.843237 0.640072
v -4.226870 0.844932 0.639580
v -4.228224 0.845312 0.639006
v -4.227832 0.843237 0.640072
v -4.227832 0.843237 0.640072
v -4.227951 0.842868 0.642446
v -4.226797 0.843129 0.641171
v -4.227832 0.843237 0.640072
v -4.227951 0.842868 0.642446
v -4.229007 0.843933 0.639405
v -4.230092 0.843688 0.640603
v -4.229165 0.842936 0.641544
v -4.227832 0.843237 0.640072
v -4.229007 0.843933 0.639405
v -4.229165 0.842936 0.641544
v -4.229165 0.842936 0.641544
v -4.228558 0.844009 0.643610
v -4.227951 0.842868 0.642446
v -4.229165 0.842936 0.641544
v -4.228558 0.844009 0.643610
v -4.230092 0.843688 0.640603
v -4.230663 0.844760 0.641698
v -4.229867 0.844254 0.642889
v -4.229165 0.842936 0.641544
v -4.230092 0.843688 0.640603
v -4.229867 0.844254 0.642889
v -4.229867 0.844254 0.642889
v -4.228160 0.845692 0.643787
v -4.228558 0.844009 0.643610
v -4.229867 0.844254 0.642889
v -4.228160 0.845692 0.643787
v -4.230663 0.844760 0.641698
v -4.230289 0.846343 0.641864
v -4.229407 0.846199 0.643093
v -4.229867 0.844254 0.642889
v -4.230663 0.844760 0.641698
v -4.229407 0.846199 0.643093
v -4.229407 0.846199 0.643093
v -4.227057 0.846651 0.642844
v -4.228160 0.845692 0.643787
v -4.229407 0.846199 0.643093
v -4.227057 0.846651 0.642844
v -4.230289 0.846343 0.641864
v -4.229252 0.847245 0.640977
v -4.228133 0.847307 0.642004
v -4.229407 0.846199 0.643093
v -4.230289 0.846343 0.641864
v -4.228133 0.847307 0.642004
v -4.228133 0.847307 0.642004
v -4.226080 0.846163 0.641490
v -4.227057 0.846651 0.642844
v -4.228133 0.847307 0.642004
v -4.226080 0.846163 0.641490
v -4.229252 0.847245 0.640977
v -4.228333 0.846786 0.639705
v -4.227004 0.846743 0.640440
v -4.228133 0.847307 0.642004
v -4.229252 0.847245 0.640977
v -4.227004 0.846743 0.640440
v -4.227004 0.846743 0.640440
v -4.226870 0.844932 0.639580
v -4.225964 0.844595 0.640746
v -4.226080 0.846163 0.641490
v -4.227004 0.846743 0.640440
v -4.225964 0.844595 0.640746
v -4.228333 0.846786 0.639705
v -4.228224 0.845312 0.639006
v -4.226870 0.844932 0.639580
v -4.227004 0.846743 0.640440
v -4.228333 0.846786 0.639705
v -4.226870 0.844932 0.639580
v -4.229368 0.845593 0.638898
v -4.229879 0.844693 0.639159
v -4.229007 0.843933 0.639405
v -4.228224 0.845312 0.639006
v -4.229368 0.845593 0.638898
v -4.229007 0.843933 0.639405
v -4.230587 0.844533 0.639941
v -4.229879 0.844693 0.639159
v -4.230960 0.845233 0.640655
v -4.229368 0.845593 0.638898
v -4.230960 0.845233 0.640655
v -4.229879 0.844693 0.639159
v -4.230716 0.846266 0.640763
v -4.230960 0.845233 0.640655
v -4.229368 0.845593 0.638898
v -4.229440 0.846555 0.639354
v -4.230716 0.846266 0.640763
v -4.229368 0.845593 0.638898
v -4.230039 0.846855 0.640185
v -4.230716 0.846266 0.640763
v -4.229440 0.846555 0.639354
v -4.223102 0.841694 0.646371
v -4.223593 0.842618 0.647314
v -4.222167 0.841906 0.645339
v -4.221493 0.843093 0.644995
v -4.222167 0.841906 0.645339
v -4.223593 0.842618 0.647314
v -4.223271 0.843982 0.647457
v -4.221493 0.843093 0.644995
v -4.223593 0.842618 0.647314
v -4.221587 0.844363 0.645598
v -4.221493 0.843093 0.644995
v -4.223271 0.843982 0.647457
v -4.222379 0.844758 0.646693
v -4.221587 0.844363 0.645598
v -4.223271 0.843982 0.647457
vn 0.7434 -0.2411 0.6239
vn -0.2922 0.6024 -0.7428
vn -0.8774 0.4699 -0.0967
vn -0.5671 0.7398 -0.3621
vn -0.2595 0.1613 -0.9522
vn -0.8774 0.4700 -0.0967
vn -0.2595 0.1614 -0.9522
vn -0.9892 -0.0038 -0.1465
vn -0.4937 -0.2513 -0.8325
vn -0.4937 -0.2513 -0.8326
vn -0.8184 -0.3248 -0.4740
vn -0.1087 -0.6307 -0.7683
vn 0.2704 0.0373 -0.9620
vn 0.6001 -0.0578 -0.7979
vn 0.2175 0.7513 -0.6230
vn 0.5421 0.7238 -0.4269
vn 0.6000 -0.0578 -0.7979
vn 0.2175 0.7513 -0.6231
vn 0.8426 -0.1443 -0.5189
vn 0.5421 0.7238 -0.4268
vn 0.7879 0.5920 -0.1694
vn 0.8425 -0.1443 -0.5189
vn 0.5420 0.7238 -0.4269
vn -0.2277 0.9737 -0.0067
vn 0.0548 0.9673 0.2478
vn 0.2175 0.7514 -0.6230
vn 0.7879 0.5920 -0.1693
vn 0.3289 0.8213 0.4662
vn -0.7299 0.5370 0.4230
vn -0.4950 0.4891 0.7182
vn -0.2277 0.9737 -0.0066
vn -0.4949 0.4891 0.7182
vn -0.1890 0.3709 0.9092
vn 0.0548 0.9672 0.2478
vn -0.9110 -0.2301 0.3424
vn -0.6932 -0.3504 0.6299
vn -0.7299 0.5369 0.4230
vn -0.9110 -0.2300 0.3424
vn -0.1890 0.3708 0.9093
vn -0.6931 -0.3504 0.6299
vn -0.3757 -0.4200 0.8261
vn -0.6932 -0.3503 0.6299
vn -0.6346 -0.7497 -0.1878
vn -0.3905 -0.9193 0.0495
vn -0.3756 -0.4200 0.8261
vn -0.0906 -0.9559 0.2794
vn -0.1088 -0.6308 -0.7683
vn 0.1850 -0.7890 -0.5859
vn -0.6345 -0.7497 -0.1878
vn 0.4515 -0.8332 -0.3192
vn 0.1849 -0.7890 -0.5859
vn -0.1087 -0.6308 -0.7683
vn 0.4516 -0.8332 -0.3192
vn 0.8425 -0.1443 -0.5190
vn 0.4000 -0.8339 -0.3802
vn 0.8009 -0.1276 -0.5850
vn -0.4483 -0.4103 0.7942
vn -0.0907 -0.9559 0.2794
vn -0.1559 -0.9597 0.2336
vn -0.4482 -0.4103 0.7942
vn 0.2742 0.8626 0.4252
vn -0.2568 0.4007 0.8795
vn 0.7450 0.6274 -0.2266
vn 0.8426 -0.1444 -0.5189
vn -0.1560 -0.9597 0.2336
vn -0.2568 0.4008 0.8795
vn 0.7449 0.6275 -0.2266
vn 0.7450 0.6275 -0.2266
vn -0.9109 -0.2301 0.3424
vn 0.2705 0.0373 -0.9620
vn -0.6345 -0.7497 -0.1879
vn -0.1088 -0.6307 -0.7683
vn 0.6141 -0.0622 -0.7868
vn 0.5561 0.7197 -0.4156
vn -0.3770 -0.9242 0.0611
vn 0.1988 -0.7939 -0.5746
vn -0.3770 -0.9242 0.0610
vn -0.1559 -0.9598 0.2336
vn -0.4815 0.4849 0.7301
vn -0.6798 -0.3550 0.6418
vn 0.5561 0.7198 -0.4155
vn 0.2742 0.8626 0.4251
vn 0.0686 0.9633 0.2595
vn 0.1988 -0.7939 -0.5747
vn 0.8009 -0.1275 -0.5850
vn 0.6141 -0.0623 -0.7868
vn -0.6797 -0.3550 0.6418
vn -0.2568 0.4008 0.8794
vn 0.0685 0.9633 0.2595
vn 0.2743 0.8626 0.4252
vt 0.530319 0.611839
vt 0.522446 0.618118
vt 0.524872 0.613083
vt 0.524872 0.623154
vt 0.534683 0.615326
vt 0.530319 0.624397
vt 0.534683 0.620918
vt 0.537079 0.671494
vt 0.541916 0.669548
vt 0.539566 0.672157
vt 0.536179 0.669609
vt 0.539856 0.666756
vt 0.536224 0.667854
vt 0.537567 0.666748
vt 0.534592 0.666855
vt 0.534012 0.669838
vt 0.530777 0.669685
vt 0.535187 0.673050
vt 0.531769 0.674789
vt 0.525803 0.669067
vt 0.526108 0.676537
vt 0.539017 0.675606
vt 0.536011 0.680244
vt 0.529755 0.684982
vt 0.547180 0.674767
vt 0.546982 0.686485
vt 0.537415 0.696274
vt 0.547180 0.658051
vt 0.540527 0.663902
vt 0.539825 0.659698
vt 0.546280 0.665543
vt 0.543762 0.651657
vt 0.537613 0.655174
vt 0.536758 0.664742
vt 0.535126 0.661980
vt 0.532364 0.658463
vt 0.532074 0.665283
vt 0.528198 0.662933
vt 0.523743 0.660286
vt 0.519989 0.668175
vt 0.535217 0.651588
vt 0.529327 0.654999
vt 0.522873 0.688484
vt 0.528320 0.699394
vt 0.519577 0.678001
vt 0.540466 0.648293
vt 0.604446 0.642853
vt 0.626221 0.647896
vt 0.604553 0.648445
vt 0.626144 0.642670
vt 0.604553 0.631676
vt 0.626144 0.637444
vt 0.604446 0.637268
vt 0.626221 0.632225
vt 0.605011 0.620506
vt 0.626404 0.626999
vt 0.604736 0.626091
vt 0.626663 0.621780
vt 0.626404 0.653114
vt 0.604736 0.654030
vt 0.626663 0.658333
vt 0.605011 0.659607
s 0
usemtl decorations
f 240/1/1 239/2/1 238/3/1
f 237/1/1 236/4/1 235/2/1
f 234/5/1 233/4/1 232/1/1
f 231/5/1 230/6/1 229/4/1
f 228/6/1 227/5/1 226/7/1
s 1
f 225/8/2 224/9/3 223/10/4
f 222/11/5 221/9/6 220/8/2
f 219/11/7 218/12/8 217/9/3
f 216/13/9 215/12/8 214/11/7
f 213/12/8 212/13/10 211/14/11
f 210/15/12 209/11/7 208/16/13
f 207/15/12 206/13/9 205/11/7
f 204/17/14 203/18/15 202/19/16
f 201/17/17 200/16/13 199/18/18
f 198/20/19 197/19/20 196/21/21
f 195/20/22 194/17/17 193/19/23
f 192/19/16 191/22/24 190/23/25
f 189/19/16 188/18/26 187/22/24
f 186/21/27 185/23/25 184/24/28
f 183/21/21 3/19/16 182/23/25
f 181/23/25 180/25/29 179/26/30
f 178/23/25 177/22/31 176/25/29
f 175/24/28 174/26/32 173/27/33
f 172/24/28 4/23/34 171/26/32
f 170/28/32 169/29/35 168/30/36
f 167/28/30 166/31/37 165/29/38
f 164/32/39 163/30/40 162/33/41
f 161/32/39 13/28/30 160/30/42
f 159/30/40 158/34/43 157/35/44
f 156/30/36 155/29/35 154/34/43
f 153/33/45 152/35/44 151/36/46
f 150/33/41 14/30/40 149/35/44
f 148/35/44 147/15/47 146/37/48
f 145/35/44 144/34/49 143/15/47
f 142/36/46 141/37/48 140/38/50
f 139/36/46 16/35/44 138/37/48
f 137/37/48 136/16/13 135/17/17
f 134/37/51 133/15/52 132/16/13
f 131/38/53 130/17/17 129/20/54
f 128/38/50 36/37/48 25/17/17
f 127/39/55 126/20/54 125/40/56
f 124/39/55 123/38/50 122/20/54
f 121/41/57 120/36/58 119/42/59
f 118/41/60 117/33/45 116/36/58
f 115/43/61 114/27/33 113/44/62
f 112/43/61 111/24/28 110/27/33
f 109/40/56 108/21/21 107/45/63
f 106/40/56 40/20/64 105/21/21
f 104/42/65 103/38/50 102/39/55
f 101/42/65 41/36/46 42/38/50
f 100/46/66 99/33/41 98/41/60
f 97/46/66 37/32/39 38/33/41
f 96/45/67 95/24/28 94/43/61
f 93/45/68 33/21/21 34/24/28
f 92/29/35 91/14/11 90/34/43
f 89/29/69 88/12/8 87/14/11
f 86/22/24 85/9/3 84/25/29
f 83/22/24 82/10/4 81/9/6
f 80/16/70 79/8/2 78/18/18
f 29/16/70 30/11/5 77/8/2
f 76/31/37 75/12/8 28/29/38
f 31/31/37 26/9/6 27/12/8
f 74/18/15 73/10/4 24/22/24
f 21/18/26 22/8/2 23/10/4
f 72/34/71 71/13/9 20/15/72
f 17/34/71 18/14/11 19/13/9
f 70/47/73 69/48/67 68/49/74
f 67/47/73 66/50/56 65/48/63
f 64/51/75 63/52/55 62/53/76
f 61/51/77 60/54/78 59/52/55
f 58/55/79 57/56/57 56/57/80
f 55/55/79 54/58/66 53/56/60
f 52/49/81 51/59/82 50/60/83
f 2/49/81 32/48/63 49/59/82
f 48/53/84 47/50/85 12/47/86
f 9/53/84 10/52/55 11/50/56
f 46/57/87 45/54/78 8/51/75
f 5/57/80 6/56/60 7/54/59
f 44/60/83 43/61/88 15/62/79
f 1/60/89 35/59/90 39/61/66
