# Blender 5.0.0
# www.blender.org
mtllib Circle_002_Circle_Dupli_223_decorations_0.mtl
o Circle.002|Circle|Dupli|223_decorations_0
v -4.578620 2.076514 0.575493
v -4.579718 2.076238 0.576330
v -4.576742 2.080560 0.582167
v -4.575175 2.080955 0.580972
v -4.577092 2.074528 0.575891
v -4.574750 2.077260 0.580004
v -4.575424 2.076542 0.580879
v -4.577813 2.073761 0.576827
v -4.579071 2.074029 0.577400
v -4.576600 2.076794 0.581415
v -4.577393 2.077824 0.581208
v -4.579918 2.075132 0.577179
v -4.573507 2.079869 0.580694
v -4.572995 2.078121 0.581541
v -4.577451 2.075753 0.575298
v -4.574023 2.077026 0.582876
v -4.573563 2.078110 0.583837
v -4.573411 2.079150 0.584379
v -4.574365 2.079354 0.584813
v -4.575024 2.078422 0.584502
v -4.575775 2.080986 0.583260
v -4.574855 2.081027 0.584003
v -4.574023 2.081237 0.583368
v -4.574501 2.081307 0.582288
v -4.577028 2.078983 0.583378
v -4.573138 2.080660 0.583220
v -4.572865 2.079731 0.583670
v -4.572726 2.079000 0.582750
v -4.576008 2.079702 0.584245
v -4.575007 2.080189 0.584646
v -4.573143 2.080423 0.582061
v -4.577205 2.078858 0.580415
v -4.577173 2.079619 0.581062
v -4.575818 2.079960 0.580028
v -4.576179 2.079117 0.579632
v -4.575818 2.077410 0.583693
v -4.574374 2.079021 0.579787
v -4.573930 2.077507 0.580520
v -4.575086 2.078405 0.579449
v -4.577421 2.078253 0.582111
v -4.574820 2.076560 0.581676
v -4.576374 2.076892 0.582384
v -4.575086 2.078405 0.579449
v -4.578620 2.076514 0.575493
v -4.575424 2.076542 0.580879
v -4.577092 2.074528 0.575891
v -4.577393 2.077824 0.581208
v -4.579071 2.074029 0.577400
v -4.576179 2.079117 0.579632
v -4.578620 2.076514 0.575493
v -4.576179 2.079117 0.579632
v -4.579718 2.076238 0.576330
v -4.574750 2.077260 0.580004
v -4.575086 2.078405 0.579449
v -4.577451 2.075753 0.575298
v -4.577092 2.074528 0.575891
v -4.574750 2.077260 0.580004
v -4.577451 2.075753 0.575298
v -4.576600 2.076794 0.581415
v -4.575424 2.076542 0.580879
v -4.577813 2.073761 0.576827
v -4.579071 2.074029 0.577400
v -4.576600 2.076794 0.581415
v -4.577813 2.073761 0.576827
v -4.577205 2.078858 0.580415
v -4.577393 2.077824 0.581208
v -4.579918 2.075132 0.577179
v -4.579718 2.076238 0.576330
v -4.577205 2.078858 0.580415
v -4.579918 2.075132 0.577179
v -4.574365 2.079354 0.584813
v -4.573563 2.078110 0.583837
v -4.574023 2.081237 0.583368
v -4.575775 2.080986 0.583260
v -4.572865 2.079731 0.583670
v -4.573143 2.080423 0.582061
v -4.574855 2.081027 0.584003
v -4.575775 2.080986 0.583260
v -4.574855 2.081027 0.584003
v -4.576008 2.079702 0.584245
v -4.573138 2.080660 0.583220
v -4.574023 2.081237 0.583368
v -4.574501 2.081307 0.582288
v -4.573143 2.080423 0.582061
v -4.573138 2.080660 0.583220
v -4.574501 2.081307 0.582288
v -4.573411 2.079150 0.584379
v -4.572865 2.079731 0.583670
v -4.572726 2.079000 0.582750
v -4.573563 2.078110 0.583837
v -4.573411 2.079150 0.584379
v -4.572726 2.079000 0.582750
v -4.577205 2.078858 0.580415
v -4.576179 2.079117 0.579632
v -4.575818 2.079960 0.580028
v -4.577205 2.078858 0.580415
v -4.575086 2.078405 0.579449
v -4.574750 2.077260 0.580004
v -4.573930 2.077507 0.580520
v -4.575086 2.078405 0.579449
v -4.575424 2.076542 0.580879
v -4.576600 2.076794 0.581415
v -4.576374 2.076892 0.582384
v -4.575424 2.076542 0.580879
v -4.577173 2.079619 0.581062
v -4.577393 2.077824 0.581208
v -4.577205 2.078858 0.580415
v -4.577173 2.079619 0.581062
v -4.577393 2.077824 0.581208
v -4.574374 2.079021 0.579787
v -4.575818 2.079960 0.580028
v -4.576179 2.079117 0.579632
v -4.575086 2.078405 0.579449
v -4.574374 2.079021 0.579787
v -4.576179 2.079117 0.579632
v -4.574820 2.076560 0.581676
v -4.573930 2.077507 0.580520
v -4.574750 2.077260 0.580004
v -4.575424 2.076542 0.580879
v -4.574820 2.076560 0.581676
v -4.574750 2.077260 0.580004
v -4.577421 2.078253 0.582111
v -4.576374 2.076892 0.582384
v -4.576600 2.076794 0.581415
v -4.577393 2.077824 0.581208
v -4.577421 2.078253 0.582111
v -4.576600 2.076794 0.581415
v -4.576374 2.076892 0.582384
v -4.577421 2.078253 0.582111
v -4.577028 2.078983 0.583378
v -4.576374 2.076892 0.582384
v -4.576008 2.079702 0.584245
v -4.575024 2.078422 0.584502
v -4.575818 2.077410 0.583693
v -4.577028 2.078983 0.583378
v -4.576008 2.079702 0.584245
v -4.575818 2.077410 0.583693
v -4.575818 2.077410 0.583693
v -4.574820 2.076560 0.581676
v -4.576374 2.076892 0.582384
v -4.575818 2.077410 0.583693
v -4.574820 2.076560 0.581676
v -4.575024 2.078422 0.584502
v -4.573563 2.078110 0.583837
v -4.574023 2.077026 0.582876
v -4.575818 2.077410 0.583693
v -4.575024 2.078422 0.584502
v -4.574023 2.077026 0.582876
v -4.574023 2.077026 0.582876
v -4.573930 2.077507 0.580520
v -4.574820 2.076560 0.581676
v -4.574023 2.077026 0.582876
v -4.573930 2.077507 0.580520
v -4.573563 2.078110 0.583837
v -4.572726 2.079000 0.582750
v -4.572995 2.078121 0.581541
v -4.574023 2.077026 0.582876
v -4.573563 2.078110 0.583837
v -4.572995 2.078121 0.581541
v -4.572995 2.078121 0.581541
v -4.574374 2.079021 0.579787
v -4.573930 2.077507 0.580520
v -4.572995 2.078121 0.581541
v -4.574374 2.079021 0.579787
v -4.572726 2.079000 0.582750
v -4.573143 2.080423 0.582061
v -4.573507 2.079869 0.580694
v -4.572995 2.078121 0.581541
v -4.572726 2.079000 0.582750
v -4.573507 2.079869 0.580694
v -4.573507 2.079869 0.580694
v -4.575818 2.079960 0.580028
v -4.574374 2.079021 0.579787
v -4.573507 2.079869 0.580694
v -4.575818 2.079960 0.580028
v -4.573143 2.080423 0.582061
v -4.574501 2.081307 0.582288
v -4.575175 2.080955 0.580972
v -4.573507 2.079869 0.580694
v -4.573143 2.080423 0.582061
v -4.575175 2.080955 0.580972
v -4.575175 2.080955 0.580972
v -4.577173 2.079619 0.581062
v -4.575818 2.079960 0.580028
v -4.575175 2.080955 0.580972
v -4.577173 2.079619 0.581062
v -4.574501 2.081307 0.582288
v -4.575775 2.080986 0.583260
v -4.576742 2.080560 0.582167
v -4.575175 2.080955 0.580972
v -4.574501 2.081307 0.582288
v -4.576742 2.080560 0.582167
v -4.576742 2.080560 0.582167
v -4.577028 2.078983 0.583378
v -4.577421 2.078253 0.582111
v -4.577173 2.079619 0.581062
v -4.576742 2.080560 0.582167
v -4.577421 2.078253 0.582111
v -4.575775 2.080986 0.583260
v -4.576008 2.079702 0.584245
v -4.577028 2.078983 0.583378
v -4.576742 2.080560 0.582167
v -4.575775 2.080986 0.583260
v -4.577028 2.078983 0.583378
v -4.575007 2.080189 0.584646
v -4.574365 2.079354 0.584813
v -4.575024 2.078422 0.584502
v -4.576008 2.079702 0.584245
v -4.575007 2.080189 0.584646
v -4.575024 2.078422 0.584502
v -4.573411 2.079150 0.584379
v -4.574365 2.079354 0.584813
v -4.572865 2.079731 0.583670
v -4.575007 2.080189 0.584646
v -4.572865 2.079731 0.583670
v -4.574365 2.079354 0.584813
v -4.573138 2.080660 0.583220
v -4.572865 2.079731 0.583670
v -4.575007 2.080189 0.584646
v -4.574855 2.081027 0.584003
v -4.573138 2.080660 0.583220
v -4.575007 2.080189 0.584646
v -4.574023 2.081237 0.583368
v -4.573138 2.080660 0.583220
v -4.574855 2.081027 0.584003
v -4.577813 2.073761 0.576827
v -4.577092 2.074528 0.575891
v -4.579071 2.074029 0.577400
v -4.579918 2.075132 0.577179
v -4.579071 2.074029 0.577400
v -4.577092 2.074528 0.575891
v -4.577451 2.075753 0.575298
v -4.579918 2.075132 0.577179
v -4.577092 2.074528 0.575891
v -4.579718 2.076238 0.576330
v -4.579918 2.075132 0.577179
v -4.577451 2.075753 0.575298
v -4.578620 2.076514 0.575493
v -4.579718 2.076238 0.576330
v -4.577451 2.075753 0.575298
vn -0.4457 -0.4928 -0.7473
vn -0.0460 0.7896 0.6119
vn 0.7416 0.6212 0.2531
vn 0.3355 0.8857 0.3210
vn -0.1157 0.4053 0.9068
vn -0.1157 0.4054 0.9068
vn 0.8665 0.1954 0.4594
vn 0.1789 0.0223 0.9836
vn 0.8665 0.1955 0.4594
vn 0.1789 0.0224 0.9836
vn 0.6160 -0.0711 0.7845
vn -0.1244 -0.4215 0.8982
vn -0.6013 0.1986 0.7739
vn 0.1790 0.0224 0.9836
vn -0.8406 0.0158 0.5414
vn -0.4886 0.8206 0.2965
vn -0.7171 0.6967 0.0189
vn -0.8405 0.0158 0.5415
vn -0.6014 0.1986 0.7739
vn -0.9581 -0.1689 0.2313
vn -0.8418 0.4726 -0.2609
vn -0.8405 0.0159 0.5415
vn -0.7171 0.6968 0.0190
vn 0.1291 0.9762 -0.1745
vn -0.0409 0.8670 -0.4966
vn -0.8418 0.4726 -0.2610
vn -0.0410 0.8670 -0.4966
vn -0.2048 0.6330 -0.7466
vn 0.7866 0.5481 -0.2844
vn 0.6787 0.3984 -0.6169
vn 0.1291 0.9761 -0.1745
vn -0.2048 0.6329 -0.7466
vn 0.4732 0.1915 -0.8599
vn 0.6787 0.3983 -0.6169
vn 0.9887 -0.1413 0.0495
vn 0.9000 -0.3561 -0.2514
vn 0.9887 -0.1412 0.0496
vn 0.4731 0.1915 -0.8599
vn 0.6816 -0.5193 -0.5155
vn 0.5834 -0.5727 0.5759
vn 0.4562 -0.8285 0.3248
vn 0.9887 -0.1413 0.0496
vn 0.5834 -0.5728 0.5759
vn 0.6815 -0.5193 -0.5156
vn 0.2635 -0.9643 0.0272
vn -0.1243 -0.4216 0.8982
vn -0.3184 -0.6629 0.6776
vn 0.5833 -0.5728 0.5759
vn -0.1243 -0.4215 0.8983
vn -0.4662 -0.8083 0.3596
vn -0.3185 -0.6629 0.6776
vn -0.8406 0.0159 0.5415
vn -0.9581 -0.1688 0.2314
vn -0.4403 -0.7870 0.4321
vn -0.9581 -0.1689 0.2314
vn -0.9447 -0.1314 0.3006
vn -0.4403 -0.7871 0.4321
vn 0.7367 -0.4907 -0.4653
vn 0.3080 -0.9470 0.0912
vn -0.1722 0.6908 -0.7022
vn 0.4731 0.1916 -0.8599
vn 0.5229 0.2381 -0.8184
vn -0.9447 -0.1313 0.3006
vn -0.8254 0.5263 -0.2042
vn 0.5230 0.2382 -0.8184
vn 0.6816 -0.5193 -0.5156
vn 0.5229 0.2382 -0.8184
vn -0.8254 0.5264 -0.2042
vn 0.8664 0.1955 0.4594
vn 0.1292 0.9762 -0.1745
vn 0.1292 0.9761 -0.1745
vn -0.4886 0.8206 0.2964
vn -0.8493 0.0068 0.5279
vn -0.7257 0.6880 0.0051
vn -0.8492 0.0068 0.5280
vn 0.4482 -0.8381 0.3111
vn -0.3268 -0.6724 0.6641
vn 0.4482 -0.8380 0.3112
vn 0.6709 0.3894 -0.6311
vn 0.8922 -0.3654 -0.2654
vn 0.6709 0.3895 -0.6310
vn -0.0493 0.8584 -0.5107
vn -0.1723 0.6908 -0.7022
vn -0.8492 0.0067 0.5280
vn -0.3268 -0.6724 0.6642
vn 0.4482 -0.8380 0.3111
vn 0.8922 -0.3654 -0.2653
vn 0.7367 -0.4908 -0.4653
vn -0.0492 0.8583 -0.5107
vn 0.6709 0.3895 -0.6311
vn -0.0492 0.8584 -0.5107
vt 0.543243 0.611839
vt 0.535370 0.618118
vt 0.537796 0.613083
vt 0.537796 0.623154
vt 0.547607 0.615326
vt 0.543243 0.624397
vt 0.547607 0.620918
vt 0.565384 0.671494
vt 0.570206 0.669548
vt 0.567856 0.672157
vt 0.564468 0.669609
vt 0.568146 0.666756
vt 0.564514 0.667854
vt 0.565857 0.666748
vt 0.562897 0.666855
vt 0.562302 0.669838
vt 0.559082 0.669685
vt 0.563492 0.673050
vt 0.560059 0.674789
vt 0.554092 0.669067
vt 0.554398 0.676537
vt 0.567307 0.675606
vt 0.564316 0.680244
vt 0.558044 0.684982
vt 0.575485 0.674767
vt 0.575272 0.686485
vt 0.565720 0.696274
vt 0.575485 0.658051
vt 0.568817 0.663902
vt 0.568115 0.659698
vt 0.574570 0.665543
vt 0.572052 0.651657
vt 0.565903 0.655174
vt 0.565063 0.664742
vt 0.563416 0.661980
vt 0.560669 0.658463
vt 0.560364 0.665283
vt 0.556488 0.662933
vt 0.552032 0.660286
vt 0.548294 0.668175
vt 0.563522 0.651588
vt 0.557617 0.654999
vt 0.551163 0.688484
vt 0.556610 0.699394
vt 0.547867 0.678001
vt 0.568756 0.648293
vt 0.604446 0.682632
vt 0.626221 0.687675
vt 0.604553 0.688225
vt 0.626144 0.682457
vt 0.604553 0.671455
vt 0.626144 0.677231
vt 0.604446 0.677048
vt 0.626221 0.672005
vt 0.605011 0.660294
vt 0.626404 0.666786
vt 0.604736 0.665871
vt 0.626663 0.661568
vt 0.626404 0.692902
vt 0.604736 0.693810
vt 0.626663 0.698120
vt 0.605011 0.699394
s 0
usemtl decorations
f 240/1/1 239/2/1 238/3/1
f 237/1/1 236/4/1 235/2/1
f 234/5/1 233/4/1 232/1/1
f 231/5/1 230/6/1 229/4/1
f 228/6/1 227/5/1 226/7/1
s 1
f 225/8/2 224/9/3 223/10/4
f 222/11/5 221/9/3 220/8/2
f 219/11/6 218/12/7 217/9/3
f 216/13/8 215/12/9 214/11/6
f 213/12/7 212/13/10 211/14/11
f 210/15/12 209/11/6 208/16/13
f 207/15/12 206/13/14 205/11/6
f 204/17/15 203/18/16 202/19/17
f 201/17/18 200/16/19 199/18/16
f 198/20/20 197/19/17 196/21/21
f 195/20/20 194/17/22 193/19/23
f 192/19/17 191/22/24 190/23/25
f 189/19/17 188/18/16 187/22/24
f 186/21/26 185/23/27 184/24/28
f 183/21/26 3/19/17 182/23/27
f 181/23/25 180/25/29 179/26/30
f 178/23/25 177/22/31 176/25/29
f 175/24/32 174/26/30 173/27/33
f 172/24/32 4/23/25 171/26/30
f 170/28/34 169/29/35 168/30/36
f 167/28/30 166/31/29 165/29/37
f 164/32/38 163/30/36 162/33/39
f 161/32/33 13/28/30 160/30/36
f 159/30/36 158/34/40 157/35/41
f 156/30/36 155/29/42 154/34/43
f 153/33/44 152/35/41 151/36/45
f 150/33/44 14/30/36 149/35/41
f 148/35/41 147/15/46 146/37/47
f 145/35/41 144/34/48 143/15/49
f 142/36/45 141/37/47 140/38/50
f 139/36/45 16/35/41 138/37/47
f 137/37/51 136/16/19 135/17/52
f 134/37/47 133/15/12 132/16/13
f 131/38/50 130/17/52 129/20/53
f 128/38/50 36/37/47 25/17/52
f 127/39/54 126/20/55 125/40/56
f 124/39/57 123/38/50 122/20/55
f 121/41/58 120/36/45 119/42/59
f 118/41/58 117/33/44 116/36/45
f 115/43/60 114/27/61 113/44/62
f 112/43/60 111/24/28 110/27/61
f 109/40/63 108/21/21 107/45/64
f 106/40/56 40/20/20 105/21/21
f 104/42/59 103/38/50 102/39/57
f 101/42/59 41/36/45 42/38/50
f 100/46/65 99/33/66 98/41/58
f 97/46/67 37/32/33 38/33/66
f 96/45/68 95/24/28 94/43/60
f 93/45/64 33/21/21 34/24/28
f 92/29/42 91/14/11 90/34/43
f 89/29/42 88/12/69 87/14/11
f 86/22/70 85/9/3 84/25/29
f 83/22/71 82/10/4 81/9/3
f 80/16/19 79/8/2 78/18/16
f 29/16/19 30/11/5 77/8/2
f 76/31/29 75/12/7 28/29/37
f 31/31/29 26/9/3 27/12/69
f 74/18/72 73/10/4 24/22/24
f 21/18/72 22/8/2 23/10/4
f 72/34/48 71/13/10 20/15/49
f 17/34/48 18/14/11 19/13/14
f 70/47/73 69/48/68 68/49/74
f 67/47/75 66/50/56 65/48/64
f 64/51/76 63/52/57 62/53/77
f 61/51/78 60/54/59 59/52/57
f 58/55/79 57/56/58 56/57/80
f 55/55/81 54/58/67 53/56/58
f 52/49/74 51/59/60 50/60/82
f 2/49/74 32/48/64 49/59/83
f 48/53/77 47/50/63 12/47/84
f 9/53/85 10/52/57 11/50/56
f 46/57/80 45/54/59 8/51/86
f 5/57/87 6/56/88 7/54/59
f 44/60/89 43/61/65 15/62/90
f 1/60/91 35/59/83 39/61/67
