# Blender 5.0.0
# www.blender.org
mtllib Circle_005_Circle_Dupli_123_decorations_0.mtl
o Circle.005|Circle|Dupli|123_decorations_0
v -4.662179 1.038354 0.691712
v -4.662219 1.037906 0.690377
v -4.654462 1.038774 0.689540
v -4.654406 1.039413 0.691444
v -4.662700 1.040828 0.691493
v -4.657357 1.041818 0.690915
v -4.657515 1.041970 0.689617
v -4.662868 1.040991 0.690104
v -4.662771 1.040021 0.689088
v -4.657423 1.041063 0.688667
v -4.657153 1.039780 0.688781
v -4.662482 1.038648 0.689210
v -4.654712 1.041268 0.692152
v -4.655150 1.042942 0.691131
v -4.662394 1.039654 0.692208
v -4.655390 1.043175 0.689150
v -4.653874 1.043062 0.689143
v -4.652771 1.042650 0.689249
v -4.652697 1.041915 0.688479
v -4.653762 1.041936 0.687963
v -4.653120 1.039481 0.689460
v -4.652278 1.040313 0.689456
v -4.652248 1.040652 0.690467
v -4.653074 1.040001 0.691009
v -4.654839 1.039832 0.687874
v -4.652411 1.041637 0.690843
v -4.652643 1.042526 0.690301
v -4.653679 1.042873 0.690755
v -4.653426 1.040342 0.688104
v -4.652478 1.040874 0.688571
v -4.653323 1.041511 0.691586
v -4.656907 1.039087 0.689872
v -4.655965 1.038785 0.689723
v -4.655917 1.039338 0.691371
v -4.656870 1.039505 0.691120
v -4.655252 1.041791 0.687700
v -4.656182 1.040944 0.691984
v -4.656560 1.042393 0.691101
v -4.657070 1.040721 0.691584
v -4.656291 1.039701 0.688281
v -4.656768 1.042594 0.689386
v -4.656648 1.041396 0.688131
v -4.657070 1.040721 0.691584
v -4.662179 1.038354 0.691712
v -4.657515 1.041970 0.689617
v -4.662700 1.040828 0.691493
v -4.657153 1.039780 0.688781
v -4.662771 1.040021 0.689088
v -4.656870 1.039505 0.691120
v -4.662179 1.038354 0.691712
v -4.656870 1.039505 0.691120
v -4.662219 1.037906 0.690377
v -4.657357 1.041818 0.690915
v -4.657070 1.040721 0.691584
v -4.662394 1.039654 0.692208
v -4.662700 1.040828 0.691493
v -4.657357 1.041818 0.690915
v -4.662394 1.039654 0.692208
v -4.657423 1.041063 0.688667
v -4.657515 1.041970 0.689617
v -4.662868 1.040991 0.690104
v -4.662771 1.040021 0.689088
v -4.657423 1.041063 0.688667
v -4.662868 1.040991 0.690104
v -4.656907 1.039087 0.689872
v -4.657153 1.039780 0.688781
v -4.662482 1.038648 0.689210
v -4.662219 1.037906 0.690377
v -4.656907 1.039087 0.689872
v -4.662482 1.038648 0.689210
v -4.652697 1.041915 0.688479
v -4.653874 1.043062 0.689143
v -4.652248 1.040652 0.690467
v -4.653120 1.039481 0.689460
v -4.652643 1.042526 0.690301
v -4.653323 1.041511 0.691586
v -4.652278 1.040313 0.689456
v -4.653120 1.039481 0.689460
v -4.652278 1.040313 0.689456
v -4.653426 1.040342 0.688104
v -4.652411 1.041637 0.690843
v -4.652248 1.040652 0.690467
v -4.653074 1.040001 0.691009
v -4.653323 1.041511 0.691586
v -4.652411 1.041637 0.690843
v -4.653074 1.040001 0.691009
v -4.652771 1.042650 0.689249
v -4.652643 1.042526 0.690301
v -4.653679 1.042873 0.690755
v -4.653874 1.043062 0.689143
v -4.652771 1.042650 0.689249
v -4.653679 1.042873 0.690755
v -4.656907 1.039087 0.689872
v -4.656870 1.039505 0.691120
v -4.655917 1.039338 0.691371
v -4.656907 1.039087 0.689872
v -4.657070 1.040721 0.691584
v -4.657357 1.041818 0.690915
v -4.656560 1.042393 0.691101
v -4.657070 1.040721 0.691584
v -4.657515 1.041970 0.689617
v -4.657423 1.041063 0.688667
v -4.656648 1.041396 0.688131
v -4.657515 1.041970 0.689617
v -4.655965 1.038785 0.689723
v -4.657153 1.039780 0.688781
v -4.656907 1.039087 0.689872
v -4.655965 1.038785 0.689723
v -4.657153 1.039780 0.688781
v -4.656182 1.040944 0.691984
v -4.655917 1.039338 0.691371
v -4.656870 1.039505 0.691120
v -4.657070 1.040721 0.691584
v -4.656182 1.040944 0.691984
v -4.656870 1.039505 0.691120
v -4.656768 1.042594 0.689386
v -4.656560 1.042393 0.691101
v -4.657357 1.041818 0.690915
v -4.657515 1.041970 0.689617
v -4.656768 1.042594 0.689386
v -4.657357 1.041818 0.690915
v -4.656291 1.039701 0.688281
v -4.656648 1.041396 0.688131
v -4.657423 1.041063 0.688667
v -4.657153 1.039780 0.688781
v -4.656291 1.039701 0.688281
v -4.657423 1.041063 0.688667
v -4.656648 1.041396 0.688131
v -4.656291 1.039701 0.688281
v -4.654839 1.039832 0.687874
v -4.656648 1.041396 0.688131
v -4.653426 1.040342 0.688104
v -4.653762 1.041936 0.687963
v -4.655252 1.041791 0.687700
v -4.654839 1.039832 0.687874
v -4.653426 1.040342 0.688104
v -4.655252 1.041791 0.687700
v -4.655252 1.041791 0.687700
v -4.656768 1.042594 0.689386
v -4.656648 1.041396 0.688131
v -4.655252 1.041791 0.687700
v -4.656768 1.042594 0.689386
v -4.653762 1.041936 0.687963
v -4.653874 1.043062 0.689143
v -4.655390 1.043175 0.689150
v -4.655252 1.041791 0.687700
v -4.653762 1.041936 0.687963
v -4.655390 1.043175 0.689150
v -4.655390 1.043175 0.689150
v -4.656560 1.042393 0.691101
v -4.656768 1.042594 0.689386
v -4.655390 1.043175 0.689150
v -4.656560 1.042393 0.691101
v -4.653874 1.043062 0.689143
v -4.653679 1.042873 0.690755
v -4.655150 1.042942 0.691131
v -4.655390 1.043175 0.689150
v -4.653874 1.043062 0.689143
v -4.655150 1.042942 0.691131
v -4.655150 1.042942 0.691131
v -4.656182 1.040944 0.691984
v -4.656560 1.042393 0.691101
v -4.655150 1.042942 0.691131
v -4.656182 1.040944 0.691984
v -4.653679 1.042873 0.690755
v -4.653323 1.041511 0.691586
v -4.654712 1.041268 0.692152
v -4.655150 1.042942 0.691131
v -4.653679 1.042873 0.690755
v -4.654712 1.041268 0.692152
v -4.654712 1.041268 0.692152
v -4.655917 1.039338 0.691371
v -4.656182 1.040944 0.691984
v -4.654712 1.041268 0.692152
v -4.655917 1.039338 0.691371
v -4.653323 1.041511 0.691586
v -4.653074 1.040001 0.691009
v -4.654406 1.039413 0.691444
v -4.654712 1.041268 0.692152
v -4.653323 1.041511 0.691586
v -4.654406 1.039413 0.691444
v -4.654406 1.039413 0.691444
v -4.655965 1.038785 0.689723
v -4.655917 1.039338 0.691371
v -4.654406 1.039413 0.691444
v -4.655965 1.038785 0.689723
v -4.653074 1.040001 0.691009
v -4.653120 1.039481 0.689460
v -4.654462 1.038774 0.689540
v -4.654406 1.039413 0.691444
v -4.653074 1.040001 0.691009
v -4.654462 1.038774 0.689540
v -4.654462 1.038774 0.689540
v -4.654839 1.039832 0.687874
v -4.656291 1.039701 0.688281
v -4.655965 1.038785 0.689723
v -4.654462 1.038774 0.689540
v -4.656291 1.039701 0.688281
v -4.653120 1.039481 0.689460
v -4.653426 1.040342 0.688104
v -4.654839 1.039832 0.687874
v -4.654462 1.038774 0.689540
v -4.653120 1.039481 0.689460
v -4.654839 1.039832 0.687874
v -4.652478 1.040874 0.688571
v -4.652697 1.041915 0.688479
v -4.653762 1.041936 0.687963
v -4.653426 1.040342 0.688104
v -4.652478 1.040874 0.688571
v -4.653762 1.041936 0.687963
v -4.652771 1.042650 0.689249
v -4.652697 1.041915 0.688479
v -4.652643 1.042526 0.690301
v -4.652478 1.040874 0.688571
v -4.652643 1.042526 0.690301
v -4.652697 1.041915 0.688479
v -4.652411 1.041637 0.690843
v -4.652643 1.042526 0.690301
v -4.652478 1.040874 0.688571
v -4.652278 1.040313 0.689456
v -4.652411 1.041637 0.690843
v -4.652478 1.040874 0.688571
v -4.652248 1.040652 0.690467
v -4.652411 1.041637 0.690843
v -4.652278 1.040313 0.689456
v -4.662868 1.040991 0.690104
v -4.662700 1.040828 0.691493
v -4.662771 1.040021 0.689088
v -4.662482 1.038648 0.689210
v -4.662771 1.040021 0.689088
v -4.662700 1.040828 0.691493
v -4.662394 1.039654 0.692208
v -4.662482 1.038648 0.689210
v -4.662700 1.040828 0.691493
v -4.662219 1.037906 0.690377
v -4.662482 1.038648 0.689210
v -4.662394 1.039654 0.692208
v -4.662179 1.038354 0.691712
v -4.662219 1.037906 0.690377
v -4.662394 1.039654 0.692208
vn -0.9757 -0.1972 0.0950
vn 0.9093 -0.3861 -0.1554
vn 0.8485 0.2214 0.4807
vn 0.9230 -0.2305 0.3082
vn 0.8176 -0.1283 -0.5612
vn 0.9093 -0.3861 -0.1555
vn 0.8177 -0.1284 -0.5612
vn 0.7418 0.6291 0.2321
vn 0.7171 0.3486 -0.6034
vn 0.7419 0.6291 0.2321
vn 0.7172 0.3486 -0.6035
vn 0.6834 0.6857 -0.2504
vn 0.2547 0.3813 -0.8887
vn 0.4174 -0.3910 -0.8203
vn 0.2547 0.3812 -0.8887
vn 0.7172 0.3486 -0.6034
vn 0.0578 -0.5086 -0.8590
vn 0.5657 -0.8083 -0.1634
vn 0.2202 -0.9653 -0.1401
vn 0.0579 -0.5086 -0.8591
vn 0.5657 -0.8082 -0.1635
vn -0.3095 -0.5527 -0.7738
vn 0.2202 -0.9654 -0.1400
vn -0.1565 -0.9830 -0.0965
vn 0.2203 -0.9653 -0.1401
vn 0.5880 -0.5563 0.5873
vn 0.2445 -0.6896 0.6817
vn 0.5879 -0.5563 0.5873
vn -0.1565 -0.9830 -0.0964
vn -0.1336 -0.7232 0.6776
vn 0.2202 -0.9653 -0.1400
vn 0.4673 0.1752 0.8666
vn 0.1125 0.1111 0.9874
vn -0.1337 -0.7231 0.6777
vn -0.2580 0.0311 0.9657
vn -0.1336 -0.7231 0.6777
vn 0.2445 -0.6895 0.6817
vn 0.1124 0.1112 0.9874
vn 0.2947 0.8353 0.4641
vn -0.0764 0.8337 0.5469
vn -0.2580 0.0312 0.9656
vn -0.0765 0.8337 0.5469
vn -0.4359 0.7119 0.5507
vn 0.1125 0.1112 0.9874
vn 0.2001 0.9271 -0.3170
vn -0.1800 0.9341 -0.3082
vn -0.4360 0.7118 0.5506
vn -0.1801 0.9341 -0.3082
vn -0.5335 0.8065 -0.2549
vn -0.1801 0.9341 -0.3083
vn -0.1203 0.3367 -0.9339
vn 0.2000 0.9271 -0.3171
vn -0.5336 0.8064 -0.2549
vn -0.4772 0.2437 -0.8443
vn 0.0579 -0.5086 -0.8590
vn -0.1202 0.3367 -0.9339
vn 0.4174 -0.3909 -0.8203
vn -0.4773 0.2436 -0.8443
vn -0.3094 -0.5527 -0.7738
vn -0.4773 0.2437 -0.8443
vn -0.4066 0.2665 -0.8738
vn -0.2346 -0.5500 -0.8015
vn -0.4067 0.2665 -0.8738
vn -0.3643 0.7467 0.5565
vn -0.4644 0.8436 -0.2694
vn -0.3643 0.7467 0.5566
vn -0.0543 -0.7248 0.6868
vn -0.1819 0.0486 0.9821
vn -0.0778 -0.9912 -0.1070
vn -0.4644 0.8437 -0.2694
vn -0.4067 0.2666 -0.8738
vn -0.5335 0.8064 -0.2549
vn -0.1818 0.0487 0.9821
vn -0.4360 0.7118 0.5507
vn -0.3644 0.7467 0.5565
vn -0.1818 0.0486 0.9821
vn -0.0777 -0.9912 -0.1070
vn 0.2947 0.8354 0.4641
vn 0.2946 0.8354 0.4641
vn 0.6834 0.6858 -0.2504
vn 0.5879 -0.5562 0.5873
vn 0.4673 0.1752 0.8665
vn 0.8485 0.2213 0.4807
vn 0.2001 0.9270 -0.3171
vn 0.0398 -0.5126 -0.8577
vn 0.2023 -0.9695 -0.1384
vn 0.0399 -0.5125 -0.8577
vn -0.1982 0.9310 -0.3067
vn -0.1384 0.3333 -0.9326
vn -0.1981 0.9310 -0.3067
vn -0.4644 0.8436 -0.2695
vn 0.0945 0.1076 0.9897
vn -0.0945 0.8305 0.5490
vn 0.2023 -0.9695 -0.1383
vn 0.2266 -0.6936 0.6838
vn -0.1384 0.3332 -0.9326
vn 0.0399 -0.5125 -0.8578
vn -0.1383 0.3332 -0.9326
vn -0.0946 0.8305 0.5489
vn -0.1982 0.9310 -0.3066
vn -0.0945 0.8305 0.5489
vt 0.543243 0.611839
vt 0.535370 0.618118
vt 0.537796 0.613083
vt 0.537796 0.623154
vt 0.547607 0.615326
vt 0.543243 0.624397
vt 0.547607 0.620918
vt 0.565384 0.671494
vt 0.570206 0.669548
vt 0.567856 0.672157
vt 0.564468 0.669609
vt 0.568146 0.666756
vt 0.564514 0.667854
vt 0.565857 0.666748
vt 0.562897 0.666855
vt 0.562302 0.669838
vt 0.559082 0.669685
vt 0.563492 0.673050
vt 0.560059 0.674789
vt 0.554092 0.669067
vt 0.554398 0.676537
vt 0.567307 0.675606
vt 0.564316 0.680244
vt 0.558044 0.684982
vt 0.575485 0.674767
vt 0.575272 0.686485
vt 0.565720 0.696274
vt 0.575485 0.658051
vt 0.568817 0.663902
vt 0.568115 0.659698
vt 0.574570 0.665543
vt 0.572052 0.651657
vt 0.565903 0.655174
vt 0.565063 0.664742
vt 0.563416 0.661980
vt 0.560669 0.658463
vt 0.560364 0.665283
vt 0.556488 0.662933
vt 0.552032 0.660286
vt 0.548294 0.668175
vt 0.563522 0.651588
vt 0.557617 0.654999
vt 0.551163 0.688484
vt 0.556610 0.699394
vt 0.547867 0.678001
vt 0.568756 0.648293
vt 0.604446 0.682632
vt 0.626221 0.687675
vt 0.604553 0.688225
vt 0.626144 0.682457
vt 0.604553 0.671455
vt 0.626144 0.677231
vt 0.604446 0.677048
vt 0.626221 0.672005
vt 0.605011 0.660294
vt 0.626404 0.666786
vt 0.604736 0.665871
vt 0.626663 0.661568
vt 0.626404 0.692902
vt 0.604736 0.693810
vt 0.626663 0.698120
vt 0.605011 0.699394
s 0
usemtl decorations
f 240/1/1 239/2/1 238/3/1
f 237/1/1 236/4/1 235/2/1
f 234/5/1 233/4/1 232/1/1
f 231/5/1 230/6/1 229/4/1
f 228/6/1 227/5/1 226/7/1
s 1
f 225/8/2 224/9/3 223/10/4
f 222/11/5 221/9/3 220/8/6
f 219/11/7 218/12/8 217/9/3
f 216/13/9 215/12/10 214/11/7
f 213/12/8 212/13/11 211/14/12
f 210/15/13 209/11/7 208/16/14
f 207/15/15 206/13/16 205/11/7
f 204/17/17 203/18/18 202/19/19
f 201/17/20 200/16/14 199/18/21
f 198/20/22 197/19/23 196/21/24
f 195/20/22 194/17/20 193/19/25
f 192/19/19 191/22/26 190/23/27
f 189/19/19 188/18/18 187/22/28
f 186/21/29 185/23/27 184/24/30
f 183/21/29 3/19/31 182/23/27
f 181/23/27 180/25/32 179/26/33
f 178/23/27 177/22/28 176/25/32
f 175/24/34 174/26/33 173/27/35
f 172/24/36 4/23/37 171/26/33
f 170/28/38 169/29/39 168/30/40
f 167/28/38 166/31/32 165/29/39
f 164/32/41 163/30/42 162/33/43
f 161/32/41 13/28/44 160/30/40
f 159/30/42 158/34/45 157/35/46
f 156/30/40 155/29/39 154/34/45
f 153/33/47 152/35/48 151/36/49
f 150/33/47 14/30/42 149/35/48
f 148/35/50 147/15/13 146/37/51
f 145/35/50 144/34/52 143/15/13
f 142/36/53 141/37/51 140/38/54
f 139/36/53 16/35/48 138/37/51
f 137/37/51 136/16/14 135/17/55
f 134/37/56 133/15/13 132/16/57
f 131/38/58 130/17/55 129/20/59
f 128/38/60 36/37/56 25/17/55
f 127/39/61 126/20/59 125/40/62
f 124/39/63 123/38/54 122/20/59
f 121/41/64 120/36/49 119/42/65
f 118/41/66 117/33/47 116/36/49
f 115/43/67 114/27/35 113/44/68
f 112/43/67 111/24/36 110/27/35
f 109/40/62 108/21/24 107/45/69
f 106/40/62 40/20/22 105/21/24
f 104/42/70 103/38/54 102/39/71
f 101/42/70 41/36/72 42/38/54
f 100/46/73 99/33/74 98/41/75
f 97/46/76 37/32/41 38/33/74
f 96/45/77 95/24/36 94/43/67
f 93/45/69 33/21/24 34/24/36
f 92/29/78 91/14/12 90/34/45
f 89/29/79 88/12/10 87/14/80
f 86/22/81 85/9/3 84/25/32
f 83/22/81 82/10/4 81/9/3
f 80/16/14 79/8/6 78/18/21
f 29/16/14 30/11/5 77/8/6
f 76/31/82 75/12/10 28/29/39
f 31/31/32 26/9/83 27/12/10
f 74/18/18 73/10/4 24/22/28
f 21/18/18 22/8/6 23/10/4
f 72/34/84 71/13/16 20/15/13
f 17/34/84 18/14/12 19/13/16
f 70/47/85 69/48/77 68/49/86
f 67/47/87 66/50/62 65/48/69
f 64/51/88 63/52/61 62/53/89
f 61/51/90 60/54/91 59/52/71
f 58/55/92 57/56/64 56/57/93
f 55/55/92 54/58/68 53/56/75
f 52/49/94 51/59/67 50/60/95
f 2/49/94 32/48/69 49/59/67
f 48/53/96 47/50/62 12/47/97
f 9/53/98 10/52/61 11/50/62
f 46/57/99 45/54/91 8/51/100
f 5/57/101 6/56/75 7/54/65
f 44/60/95 43/61/76 15/62/92
f 1/60/95 35/59/67 39/61/76
