# Blender 5.0.0
# www.blender.org
mtllib Circle_005_Circle_003_Dupli_133_decorations_0.mtl
o Circle.005|Circle.003|Dupli|133_decorations_0
v -4.373752 2.057024 0.640170
v -4.373563 2.056904 0.641560
v -4.376272 2.064155 0.642860
v -4.376542 2.064326 0.640876
v -4.371472 2.057786 0.639355
v -4.373031 2.062970 0.640099
v -4.372328 2.063034 0.641210
v -4.370720 2.057853 0.640544
v -4.371132 2.057569 0.641860
v -4.372713 2.062768 0.642441
v -4.373895 2.062372 0.642864
v -4.372397 2.057146 0.642313
v -4.375214 2.064886 0.639476
v -4.373290 2.065413 0.639713
v -4.372821 2.057416 0.639188
v -4.372217 2.065510 0.641409
v -4.373030 2.066775 0.641629
v -4.373924 2.067526 0.641816
v -4.374237 2.067311 0.642813
v -4.373507 2.066445 0.643158
v -4.376329 2.065672 0.642810
v -4.376078 2.066807 0.642586
v -4.376221 2.066898 0.641533
v -4.376549 2.065812 0.641195
v -4.374609 2.064501 0.643933
v -4.375516 2.067195 0.640789
v -4.374494 2.067475 0.640915
v -4.373902 2.066696 0.640249
v -4.374976 2.065954 0.643683
v -4.375195 2.066990 0.643156
v -4.375468 2.066268 0.640056
v -4.374985 2.062146 0.642161
v -4.375615 2.062834 0.642520
v -4.375848 2.062982 0.640803
v -4.375161 2.062258 0.640861
v -4.372805 2.065104 0.643288
v -4.374699 2.063467 0.639590
v -4.373033 2.063923 0.639796
v -4.374291 2.062625 0.639943
v -4.374176 2.063133 0.643449
v -4.372105 2.064007 0.641264
v -4.372613 2.063655 0.642890
v -4.374291 2.062625 0.639943
v -4.373752 2.057024 0.640170
v -4.372328 2.063034 0.641210
v -4.371472 2.057786 0.639355
v -4.373895 2.062372 0.642864
v -4.371132 2.057569 0.641860
v -4.375161 2.062258 0.640861
v -4.373752 2.057024 0.640170
v -4.375161 2.062258 0.640861
v -4.373563 2.056904 0.641560
v -4.373031 2.062970 0.640099
v -4.374291 2.062625 0.639943
v -4.372821 2.057416 0.639188
v -4.371472 2.057786 0.639355
v -4.373031 2.062970 0.640099
v -4.372821 2.057416 0.639188
v -4.372713 2.062768 0.642441
v -4.372328 2.063034 0.641210
v -4.370720 2.057853 0.640544
v -4.371132 2.057569 0.641860
v -4.372713 2.062768 0.642441
v -4.370720 2.057853 0.640544
v -4.374985 2.062146 0.642161
v -4.373895 2.062372 0.642864
v -4.372397 2.057146 0.642313
v -4.373563 2.056904 0.641560
v -4.374985 2.062146 0.642161
v -4.372397 2.057146 0.642313
v -4.374237 2.067311 0.642813
v -4.373030 2.066775 0.641629
v -4.376221 2.066898 0.641533
v -4.376329 2.065672 0.642810
v -4.374494 2.067475 0.640915
v -4.375468 2.066268 0.640056
v -4.376078 2.066807 0.642586
v -4.376329 2.065672 0.642810
v -4.376078 2.066807 0.642586
v -4.374976 2.065954 0.643683
v -4.375516 2.067195 0.640789
v -4.376221 2.066898 0.641533
v -4.376549 2.065812 0.641195
v -4.375468 2.066268 0.640056
v -4.375516 2.067195 0.640789
v -4.376549 2.065812 0.641195
v -4.373924 2.067526 0.641816
v -4.374494 2.067475 0.640915
v -4.373902 2.066696 0.640249
v -4.373030 2.066775 0.641629
v -4.373924 2.067526 0.641816
v -4.373902 2.066696 0.640249
v -4.374985 2.062146 0.642161
v -4.375161 2.062258 0.640861
v -4.375848 2.062982 0.640803
v -4.374985 2.062146 0.642161
v -4.374291 2.062625 0.639943
v -4.373031 2.062970 0.640099
v -4.373033 2.063923 0.639796
v -4.374291 2.062625 0.639943
v -4.372328 2.063034 0.641210
v -4.372713 2.062768 0.642441
v -4.372613 2.063655 0.642890
v -4.372328 2.063034 0.641210
v -4.375615 2.062834 0.642520
v -4.373895 2.062372 0.642864
v -4.374985 2.062146 0.642161
v -4.375615 2.062834 0.642520
v -4.373895 2.062372 0.642864
v -4.374699 2.063467 0.639590
v -4.375848 2.062982 0.640803
v -4.375161 2.062258 0.640861
v -4.374291 2.062625 0.639943
v -4.374699 2.063467 0.639590
v -4.375161 2.062258 0.640861
v -4.372105 2.064007 0.641264
v -4.373033 2.063923 0.639796
v -4.373031 2.062970 0.640099
v -4.372328 2.063034 0.641210
v -4.372105 2.064007 0.641264
v -4.373031 2.062970 0.640099
v -4.374176 2.063133 0.643449
v -4.372613 2.063655 0.642890
v -4.372713 2.062768 0.642441
v -4.373895 2.062372 0.642864
v -4.374176 2.063133 0.643449
v -4.372713 2.062768 0.642441
v -4.372613 2.063655 0.642890
v -4.374176 2.063133 0.643449
v -4.374609 2.064501 0.643933
v -4.372613 2.063655 0.642890
v -4.374976 2.065954 0.643683
v -4.373507 2.066445 0.643158
v -4.372805 2.065104 0.643288
v -4.374609 2.064501 0.643933
v -4.374976 2.065954 0.643683
v -4.372805 2.065104 0.643288
v -4.372805 2.065104 0.643288
v -4.372105 2.064007 0.641264
v -4.372613 2.063655 0.642890
v -4.372805 2.065104 0.643288
v -4.372105 2.064007 0.641264
v -4.373507 2.066445 0.643158
v -4.373030 2.066775 0.641629
v -4.372217 2.065510 0.641409
v -4.372805 2.065104 0.643288
v -4.373507 2.066445 0.643158
v -4.372217 2.065510 0.641409
v -4.372217 2.065510 0.641409
v -4.373033 2.063923 0.639796
v -4.372105 2.064007 0.641264
v -4.372217 2.065510 0.641409
v -4.373033 2.063923 0.639796
v -4.373030 2.066775 0.641629
v -4.373902 2.066696 0.640249
v -4.373290 2.065413 0.639713
v -4.372217 2.065510 0.641409
v -4.373030 2.066775 0.641629
v -4.373290 2.065413 0.639713
v -4.373290 2.065413 0.639713
v -4.374699 2.063467 0.639590
v -4.373033 2.063923 0.639796
v -4.373290 2.065413 0.639713
v -4.374699 2.063467 0.639590
v -4.373902 2.066696 0.640249
v -4.375468 2.066268 0.640056
v -4.375214 2.064886 0.639476
v -4.373290 2.065413 0.639713
v -4.373902 2.066696 0.640249
v -4.375214 2.064886 0.639476
v -4.375214 2.064886 0.639476
v -4.375848 2.062982 0.640803
v -4.374699 2.063467 0.639590
v -4.375214 2.064886 0.639476
v -4.375848 2.062982 0.640803
v -4.375468 2.066268 0.640056
v -4.376549 2.065812 0.641195
v -4.376542 2.064326 0.640876
v -4.375214 2.064886 0.639476
v -4.375468 2.066268 0.640056
v -4.376542 2.064326 0.640876
v -4.376542 2.064326 0.640876
v -4.375615 2.062834 0.642520
v -4.375848 2.062982 0.640803
v -4.376542 2.064326 0.640876
v -4.375615 2.062834 0.642520
v -4.376549 2.065812 0.641195
v -4.376329 2.065672 0.642810
v -4.376272 2.064155 0.642860
v -4.376542 2.064326 0.640876
v -4.376549 2.065812 0.641195
v -4.376272 2.064155 0.642860
v -4.376272 2.064155 0.642860
v -4.374609 2.064501 0.643933
v -4.374176 2.063133 0.643449
v -4.375615 2.062834 0.642520
v -4.376272 2.064155 0.642860
v -4.374176 2.063133 0.643449
v -4.376329 2.065672 0.642810
v -4.374976 2.065954 0.643683
v -4.374609 2.064501 0.643933
v -4.376272 2.064155 0.642860
v -4.376329 2.065672 0.642810
v -4.374609 2.064501 0.643933
v -4.375195 2.066990 0.643156
v -4.374237 2.067311 0.642813
v -4.373507 2.066445 0.643158
v -4.374976 2.065954 0.643683
v -4.375195 2.066990 0.643156
v -4.373507 2.066445 0.643158
v -4.373924 2.067526 0.641816
v -4.374237 2.067311 0.642813
v -4.374494 2.067475 0.640915
v -4.375195 2.066990 0.643156
v -4.374494 2.067475 0.640915
v -4.374237 2.067311 0.642813
v -4.375516 2.067195 0.640789
v -4.374494 2.067475 0.640915
v -4.375195 2.066990 0.643156
v -4.376078 2.066807 0.642586
v -4.375516 2.067195 0.640789
v -4.375195 2.066990 0.643156
v -4.376221 2.066898 0.641533
v -4.375516 2.067195 0.640789
v -4.376078 2.066807 0.642586
v -4.370720 2.057853 0.640544
v -4.371472 2.057786 0.639355
v -4.371132 2.057569 0.641860
v -4.372397 2.057146 0.642313
v -4.371132 2.057569 0.641860
v -4.371472 2.057786 0.639355
v -4.372821 2.057416 0.639188
v -4.372397 2.057146 0.642313
v -4.371472 2.057786 0.639355
v -4.373563 2.056904 0.641560
v -4.372397 2.057146 0.642313
v -4.372821 2.057416 0.639188
v -4.373752 2.057024 0.640170
v -4.373563 2.056904 0.641560
v -4.372821 2.057416 0.639188
vn 0.2758 -0.9537 -0.1200
vn -0.6786 0.6202 0.3935
vn -0.4208 0.7984 -0.4306
vn -0.7441 0.6620 -0.0895
vn -0.2735 0.7045 0.6549
vn -0.6785 0.6202 0.3936
vn -0.2736 0.7044 0.6549
vn 0.0479 0.9267 -0.3728
vn 0.1660 0.8513 0.4977
vn 0.0478 0.9267 -0.3728
vn 0.1659 0.8513 0.4977
vn 0.3090 0.9502 0.0404
vn 0.5249 0.4923 0.6944
vn -0.1866 0.2547 0.9489
vn -0.0915 -0.1114 0.9896
vn -0.8424 0.1182 0.5258
vn -0.8093 -0.2606 0.5265
vn -0.0915 -0.1113 0.9896
vn -0.1867 0.2546 0.9489
vn -0.8424 0.1183 0.5258
vn 0.0166 -0.4606 0.8874
vn -0.8093 -0.2606 0.5264
vn -0.6596 -0.6012 0.4512
vn -0.8093 -0.2605 0.5265
vn -0.9485 0.1860 -0.2563
vn -0.9255 -0.1865 -0.3297
vn -0.8424 0.1182 0.5257
vn -0.6596 -0.6012 0.4511
vn -0.9255 -0.1864 -0.3296
vn -0.7690 -0.5314 -0.3553
vn -0.4252 0.4067 -0.8086
vn -0.3526 0.0552 -0.9341
vn -0.9485 0.1859 -0.2564
vn -0.4252 0.4068 -0.8085
vn -0.2293 -0.3037 -0.9248
vn -0.3526 0.0552 -0.9342
vn 0.3336 0.6143 -0.7150
vn 0.4779 0.2825 -0.8318
vn 0.3336 0.6144 -0.7150
vn 0.4779 0.2824 -0.8318
vn 0.5531 -0.0896 -0.8283
vn 0.7564 0.6525 -0.0462
vn 0.9407 0.3242 -0.0996
vn 0.5531 -0.0897 -0.8283
vn 0.9891 -0.0503 -0.1386
vn 0.4779 0.2825 -0.8317
vn 0.9408 0.3241 -0.0996
vn 0.5249 0.4924 0.6943
vn 0.6873 0.1489 0.7110
vn 0.9891 -0.0504 -0.1385
vn 0.7503 -0.2154 0.6250
vn 0.9891 -0.0503 -0.1385
vn -0.1866 0.2546 0.9489
vn -0.0916 -0.1113 0.9896
vn 0.6873 0.1490 0.7110
vn 0.7503 -0.2155 0.6250
vn 0.0166 -0.4606 0.8875
vn 0.6873 0.1489 0.7109
vn 0.7460 -0.1401 0.6511
vn -0.0063 -0.3915 0.9202
vn 0.5438 -0.0110 -0.8392
vn 0.9908 0.0292 -0.1319
vn 0.5438 -0.0111 -0.8392
vn -0.8119 -0.4640 -0.3542
vn -0.2294 -0.3037 -0.9248
vn -0.2585 -0.2306 -0.9381
vn -0.0064 -0.3914 0.9202
vn -0.6595 -0.6012 0.4512
vn -0.6996 -0.5357 0.4728
vn -0.0063 -0.3914 0.9202
vn 0.9908 0.0293 -0.1319
vn 0.7460 -0.1401 0.6510
vn 0.5530 -0.0896 -0.8283
vn -0.6997 -0.5356 0.4728
vn -0.8119 -0.4641 -0.3542
vn 0.3090 0.9502 0.0403
vn 0.3337 0.6143 -0.7150
vn -0.9485 0.1860 -0.2564
vn -0.4252 0.4068 -0.8086
vn -0.6785 0.6203 0.3936
vn -0.4251 0.4068 -0.8086
vn 0.7564 0.6525 -0.0461
vn -0.0865 -0.1290 0.9879
vn -0.8046 -0.2784 0.5245
vn 0.9463 0.3067 -0.1018
vn 0.7460 -0.1400 0.6511
vn 0.6928 0.1314 0.7091
vn -0.3476 0.0376 -0.9369
vn 0.4832 0.2650 -0.8344
vn -0.3477 0.0377 -0.9369
vn -0.9209 -0.2042 -0.3320
vn -0.8046 -0.2783 0.5245
vn -0.6997 -0.5357 0.4728
vn 0.6927 0.1314 0.7091
vn 0.4833 0.2650 -0.8344
vn 0.9463 0.3067 -0.1019
vn -0.9209 -0.2042 -0.3321
vn -0.2586 -0.2306 -0.9381
vn -0.3477 0.0376 -0.9369
vt 0.530319 0.611839
vt 0.522446 0.618118
vt 0.524872 0.613083
vt 0.524872 0.623154
vt 0.534683 0.615326
vt 0.530319 0.624397
vt 0.534683 0.620918
vt 0.537079 0.671494
vt 0.541916 0.669548
vt 0.539566 0.672157
vt 0.536179 0.669609
vt 0.539856 0.666756
vt 0.536224 0.667854
vt 0.537567 0.666748
vt 0.534592 0.666855
vt 0.534012 0.669838
vt 0.530777 0.669685
vt 0.535187 0.673050
vt 0.531769 0.674789
vt 0.525803 0.669067
vt 0.526108 0.676537
vt 0.539017 0.675606
vt 0.536011 0.680244
vt 0.529755 0.684982
vt 0.547180 0.674767
vt 0.546982 0.686485
vt 0.537415 0.696274
vt 0.547180 0.658051
vt 0.540527 0.663902
vt 0.539825 0.659698
vt 0.546280 0.665543
vt 0.543762 0.651657
vt 0.537613 0.655174
vt 0.536758 0.664742
vt 0.535126 0.661980
vt 0.532364 0.658463
vt 0.532074 0.665283
vt 0.528198 0.662933
vt 0.523743 0.660286
vt 0.519989 0.668175
vt 0.535217 0.651588
vt 0.529327 0.654999
vt 0.522873 0.688484
vt 0.528320 0.699394
vt 0.519577 0.678001
vt 0.540466 0.648293
vt 0.604446 0.642853
vt 0.626221 0.647896
vt 0.604553 0.648445
vt 0.626144 0.642670
vt 0.604553 0.631676
vt 0.626144 0.637444
vt 0.604446 0.637268
vt 0.626221 0.632225
vt 0.605011 0.620506
vt 0.626404 0.626999
vt 0.604736 0.626091
vt 0.626663 0.621780
vt 0.626404 0.653114
vt 0.604736 0.654030
vt 0.626663 0.658333
vt 0.605011 0.659607
s 0
usemtl decorations
f 240/1/1 239/2/1 238/3/1
f 237/1/1 236/4/1 235/2/1
f 234/5/1 233/4/1 232/1/1
f 231/5/1 230/6/1 229/4/1
f 228/6/1 227/5/1 226/7/1
s 1
f 225/8/2 224/9/3 223/10/4
f 222/11/5 221/9/3 220/8/6
f 219/11/7 218/12/8 217/9/3
f 216/13/9 215/12/10 214/11/5
f 213/12/8 212/13/11 211/14/12
f 210/15/13 209/11/5 208/16/14
f 207/15/13 206/13/9 205/11/5
f 204/17/15 203/18/16 202/19/17
f 201/17/18 200/16/19 199/18/20
f 198/20/21 197/19/22 196/21/23
f 195/20/21 194/17/18 193/19/24
f 192/19/17 191/22/25 190/23/26
f 189/19/17 188/18/27 187/22/25
f 186/21/28 185/23/29 184/24/30
f 183/21/28 3/19/22 182/23/29
f 181/23/26 180/25/31 179/26/32
f 178/23/26 177/22/33 176/25/34
f 175/24/30 174/26/32 173/27/35
f 172/24/30 4/23/26 171/26/32
f 170/28/36 169/29/37 168/30/38
f 167/28/36 166/31/31 165/29/39
f 164/32/35 163/30/40 162/33/41
f 161/32/35 13/28/32 160/30/38
f 159/30/38 158/34/42 157/35/43
f 156/30/38 155/29/39 154/34/42
f 153/33/44 152/35/43 151/36/45
f 150/33/41 14/30/46 149/35/43
f 148/35/47 147/15/48 146/37/49
f 145/35/43 144/34/42 143/15/48
f 142/36/50 141/37/49 140/38/51
f 139/36/52 16/35/43 138/37/49
f 137/37/49 136/16/53 135/17/54
f 134/37/55 133/15/48 132/16/14
f 131/38/56 130/17/54 129/20/57
f 128/38/51 36/37/58 25/17/54
f 127/39/59 126/20/57 125/40/60
f 124/39/59 123/38/51 122/20/57
f 121/41/61 120/36/45 119/42/62
f 118/41/63 117/33/44 116/36/45
f 115/43/64 114/27/65 113/44/66
f 112/43/64 111/24/30 110/27/65
f 109/40/67 108/21/68 107/45/69
f 106/40/70 40/20/21 105/21/68
f 104/42/71 103/38/51 102/39/72
f 101/42/62 41/36/45 42/38/51
f 100/46/66 99/33/73 98/41/63
f 97/46/66 37/32/35 38/33/73
f 96/45/74 95/24/30 94/43/75
f 93/45/74 33/21/23 34/24/30
f 92/29/39 91/14/76 90/34/42
f 89/29/77 88/12/10 87/14/12
f 86/22/78 85/9/3 84/25/79
f 83/22/78 82/10/4 81/9/3
f 80/16/19 79/8/6 78/18/20
f 29/16/19 30/11/5 77/8/80
f 76/31/79 75/12/8 28/29/39
f 31/31/81 26/9/3 27/12/10
f 74/18/16 73/10/4 24/22/25
f 21/18/16 22/8/80 23/10/4
f 72/34/42 71/13/9 20/15/48
f 17/34/82 18/14/12 19/13/9
f 70/47/83 69/48/74 68/49/84
f 67/47/83 66/50/60 65/48/74
f 64/51/85 63/52/86 62/53/87
f 61/51/85 60/54/62 59/52/72
f 58/55/88 57/56/61 56/57/89
f 55/55/90 54/58/66 53/56/63
f 52/49/84 51/59/64 50/60/91
f 2/49/92 32/48/93 49/59/64
f 48/53/94 47/50/67 12/47/83
f 9/53/94 10/52/59 11/50/60
f 46/57/95 45/54/62 8/51/96
f 5/57/89 6/56/61 7/54/62
f 44/60/97 43/61/98 15/62/99
f 1/60/97 35/59/75 39/61/98
