# Blender 5.0.0
# www.blender.org
mtllib Circle_005_Circle_Dupli_63_decorations_0.mtl
o Circle.005|Circle|Dupli|63_decorations_0
v -4.632078 1.672445 0.533377
v -4.633111 1.671578 0.533780
v -4.632938 1.674304 0.541139
v -4.631463 1.675541 0.540563
v -4.630003 1.671007 0.533628
v -4.629539 1.672723 0.538796
v -4.630026 1.671579 0.539231
v -4.630524 1.669784 0.534093
v -4.631865 1.669443 0.534355
v -4.631280 1.671261 0.539475
v -4.632357 1.672008 0.539345
v -4.633017 1.670242 0.534215
v -4.629489 1.675179 0.540467
v -4.628502 1.673489 0.540922
v -4.630694 1.672191 0.533309
v -4.629246 1.671744 0.541586
v -4.629384 1.672514 0.542888
v -4.629721 1.673297 0.543709
v -4.630737 1.673039 0.543907
v -4.630941 1.672119 0.543192
v -4.632388 1.674597 0.542525
v -4.631681 1.674656 0.543472
v -4.630898 1.675313 0.543166
v -4.631188 1.675604 0.542057
v -4.632802 1.672397 0.541760
v -4.629850 1.675121 0.543115
v -4.629326 1.674223 0.543356
v -4.628779 1.673934 0.542348
v -4.632278 1.673046 0.543030
v -4.631609 1.673644 0.543801
v -4.629582 1.675309 0.541978
v -4.632446 1.673257 0.538938
v -4.632804 1.673718 0.539749
v -4.631528 1.674789 0.539251
v -4.631480 1.674068 0.538561
v -4.631159 1.671258 0.541958
v -4.629820 1.674475 0.539167
v -4.628965 1.673013 0.539561
v -4.630186 1.673830 0.538498
v -4.632688 1.672068 0.540286
v -4.629609 1.671502 0.540136
v -4.631265 1.671082 0.540458
v -4.630186 1.673830 0.538498
v -4.632078 1.672445 0.533377
v -4.630026 1.671579 0.539231
v -4.630003 1.671007 0.533628
v -4.632357 1.672008 0.539345
v -4.631865 1.669443 0.534355
v -4.631480 1.674068 0.538561
v -4.632078 1.672445 0.533377
v -4.631480 1.674068 0.538561
v -4.633111 1.671578 0.533780
v -4.629539 1.672723 0.538796
v -4.630186 1.673830 0.538498
v -4.630694 1.672191 0.533309
v -4.630003 1.671007 0.533628
v -4.629539 1.672723 0.538796
v -4.630694 1.672191 0.533309
v -4.631280 1.671261 0.539475
v -4.630026 1.671579 0.539231
v -4.630524 1.669784 0.534093
v -4.631865 1.669443 0.534355
v -4.631280 1.671261 0.539475
v -4.630524 1.669784 0.534093
v -4.632446 1.673257 0.538938
v -4.632357 1.672008 0.539345
v -4.633017 1.670242 0.534215
v -4.633111 1.671578 0.533780
v -4.632446 1.673257 0.538938
v -4.633017 1.670242 0.534215
v -4.630737 1.673039 0.543907
v -4.629384 1.672514 0.542888
v -4.630898 1.675313 0.543166
v -4.632388 1.674597 0.542525
v -4.629326 1.674223 0.543356
v -4.629582 1.675309 0.541978
v -4.631681 1.674656 0.543472
v -4.632388 1.674597 0.542525
v -4.631681 1.674656 0.543472
v -4.632278 1.673046 0.543030
v -4.629850 1.675121 0.543115
v -4.630898 1.675313 0.543166
v -4.631188 1.675604 0.542057
v -4.629582 1.675309 0.541978
v -4.629850 1.675121 0.543115
v -4.631188 1.675604 0.542057
v -4.629721 1.673297 0.543709
v -4.629326 1.674223 0.543356
v -4.628779 1.673934 0.542348
v -4.629384 1.672514 0.542888
v -4.629721 1.673297 0.543709
v -4.628779 1.673934 0.542348
v -4.632446 1.673257 0.538938
v -4.631480 1.674068 0.538561
v -4.631528 1.674789 0.539251
v -4.632446 1.673257 0.538938
v -4.630186 1.673830 0.538498
v -4.629539 1.672723 0.538796
v -4.628965 1.673013 0.539561
v -4.630186 1.673830 0.538498
v -4.630026 1.671579 0.539231
v -4.631280 1.671261 0.539475
v -4.631265 1.671082 0.540458
v -4.630026 1.671579 0.539231
v -4.632804 1.673718 0.539749
v -4.632357 1.672008 0.539345
v -4.632446 1.673257 0.538938
v -4.632804 1.673718 0.539749
v -4.632357 1.672008 0.539345
v -4.629820 1.674475 0.539167
v -4.631528 1.674789 0.539251
v -4.631480 1.674068 0.538561
v -4.630186 1.673830 0.538498
v -4.629820 1.674475 0.539167
v -4.631480 1.674068 0.538561
v -4.629609 1.671502 0.540136
v -4.628965 1.673013 0.539561
v -4.629539 1.672723 0.538796
v -4.630026 1.671579 0.539231
v -4.629609 1.671502 0.540136
v -4.629539 1.672723 0.538796
v -4.632688 1.672068 0.540286
v -4.631265 1.671082 0.540458
v -4.631280 1.671261 0.539475
v -4.632357 1.672008 0.539345
v -4.632688 1.672068 0.540286
v -4.631280 1.671261 0.539475
v -4.631265 1.671082 0.540458
v -4.632688 1.672068 0.540286
v -4.632802 1.672397 0.541760
v -4.631265 1.671082 0.540458
v -4.632278 1.673046 0.543030
v -4.630941 1.672119 0.543192
v -4.631159 1.671258 0.541958
v -4.632802 1.672397 0.541760
v -4.632278 1.673046 0.543030
v -4.631159 1.671258 0.541958
v -4.631159 1.671258 0.541958
v -4.629609 1.671502 0.540136
v -4.631265 1.671082 0.540458
v -4.631159 1.671258 0.541958
v -4.629609 1.671502 0.540136
v -4.630941 1.672119 0.543192
v -4.629384 1.672514 0.542888
v -4.629246 1.671744 0.541586
v -4.631159 1.671258 0.541958
v -4.630941 1.672119 0.543192
v -4.629246 1.671744 0.541586
v -4.629246 1.671744 0.541586
v -4.628965 1.673013 0.539561
v -4.629609 1.671502 0.540136
v -4.629246 1.671744 0.541586
v -4.628965 1.673013 0.539561
v -4.629384 1.672514 0.542888
v -4.628779 1.673934 0.542348
v -4.628502 1.673489 0.540922
v -4.629246 1.671744 0.541586
v -4.629384 1.672514 0.542888
v -4.628502 1.673489 0.540922
v -4.628502 1.673489 0.540922
v -4.629820 1.674475 0.539167
v -4.628965 1.673013 0.539561
v -4.628502 1.673489 0.540922
v -4.629820 1.674475 0.539167
v -4.628779 1.673934 0.542348
v -4.629582 1.675309 0.541978
v -4.629489 1.675179 0.540467
v -4.628502 1.673489 0.540922
v -4.628779 1.673934 0.542348
v -4.629489 1.675179 0.540467
v -4.629489 1.675179 0.540467
v -4.631528 1.674789 0.539251
v -4.629820 1.674475 0.539167
v -4.629489 1.675179 0.540467
v -4.631528 1.674789 0.539251
v -4.629582 1.675309 0.541978
v -4.631188 1.675604 0.542057
v -4.631463 1.675541 0.540563
v -4.629489 1.675179 0.540467
v -4.629582 1.675309 0.541978
v -4.631463 1.675541 0.540563
v -4.631463 1.675541 0.540563
v -4.632804 1.673718 0.539749
v -4.631528 1.674789 0.539251
v -4.631463 1.675541 0.540563
v -4.632804 1.673718 0.539749
v -4.631188 1.675604 0.542057
v -4.632388 1.674597 0.542525
v -4.632938 1.674304 0.541139
v -4.631463 1.675541 0.540563
v -4.631188 1.675604 0.542057
v -4.632938 1.674304 0.541139
v -4.632938 1.674304 0.541139
v -4.632802 1.672397 0.541760
v -4.632688 1.672068 0.540286
v -4.632804 1.673718 0.539749
v -4.632938 1.674304 0.541139
v -4.632688 1.672068 0.540286
v -4.632388 1.674597 0.542525
v -4.632278 1.673046 0.543030
v -4.632802 1.672397 0.541760
v -4.632938 1.674304 0.541139
v -4.632388 1.674597 0.542525
v -4.632802 1.672397 0.541760
v -4.631609 1.673644 0.543801
v -4.630737 1.673039 0.543907
v -4.630941 1.672119 0.543192
v -4.632278 1.673046 0.543030
v -4.631609 1.673644 0.543801
v -4.630941 1.672119 0.543192
v -4.629721 1.673297 0.543709
v -4.630737 1.673039 0.543907
v -4.629326 1.674223 0.543356
v -4.631609 1.673644 0.543801
v -4.629326 1.674223 0.543356
v -4.630737 1.673039 0.543907
v -4.629850 1.675121 0.543115
v -4.629326 1.674223 0.543356
v -4.631609 1.673644 0.543801
v -4.631681 1.674656 0.543472
v -4.629850 1.675121 0.543115
v -4.631609 1.673644 0.543801
v -4.630898 1.675313 0.543166
v -4.629850 1.675121 0.543115
v -4.631681 1.674656 0.543472
v -4.630524 1.669784 0.534093
v -4.630003 1.671007 0.533628
v -4.631865 1.669443 0.534355
v -4.633017 1.670242 0.534215
v -4.631865 1.669443 0.534355
v -4.630003 1.671007 0.533628
v -4.630694 1.672191 0.533309
v -4.633017 1.670242 0.534215
v -4.630003 1.671007 0.533628
v -4.633111 1.671578 0.533780
v -4.633017 1.670242 0.534215
v -4.630694 1.672191 0.533309
v -4.632078 1.672445 0.533377
v -4.633111 1.671578 0.533780
v -4.630694 1.672191 0.533309
vn -0.1040 -0.3147 -0.9435
vn -0.4347 0.4761 0.7645
vn 0.4051 0.6891 0.6008
vn -0.0756 0.7775 0.6243
vn -0.4017 0.0118 0.9157
vn -0.4347 0.4760 0.7645
vn -0.4018 0.0119 0.9157
vn 0.6454 0.2776 0.7116
vn -0.0016 -0.2656 0.9641
vn 0.6454 0.2775 0.7116
vn -0.0017 -0.2656 0.9641
vn 0.4644 -0.1473 0.8733
vn -0.0993 -0.7223 0.6844
vn -0.7470 -0.2732 0.6061
vn -0.4017 0.0119 0.9157
vn -0.8603 -0.4277 0.2775
vn -0.8004 0.4784 0.3613
vn -0.9187 0.3949 0.0096
vn -0.8602 -0.4277 0.2776
vn -0.7471 -0.2731 0.6060
vn -0.8492 -0.5203 -0.0905
vn -0.9186 0.3950 0.0096
vn -0.9042 0.2547 -0.3428
vn -0.8603 -0.4277 0.2776
vn -0.9186 0.3950 0.0097
vn -0.9187 0.3950 0.0096
vn -0.2191 0.9664 0.1345
vn -0.2823 0.9292 -0.2387
vn -0.9042 0.2547 -0.3429
vn -0.2824 0.9291 -0.2387
vn -0.3048 0.7579 -0.5767
vn -0.2823 0.9291 -0.2387
vn 0.5592 0.8234 0.0963
vn 0.5696 0.7726 -0.2804
vn -0.2190 0.9664 0.1344
vn -0.3047 0.7579 -0.5768
vn 0.4978 0.6105 -0.6160
vn 0.9483 0.1571 0.2756
vn 0.9955 0.0433 -0.0841
vn 0.9483 0.1571 0.2757
vn 0.4978 0.6104 -0.6161
vn 0.8990 -0.0766 -0.4311
vn 0.6553 -0.5308 0.5374
vn 0.6748 -0.7097 0.2024
vn 0.8990 -0.0766 -0.4312
vn 0.5969 -0.7860 -0.1612
vn 0.6747 -0.7098 0.2024
vn -0.0992 -0.7223 0.6844
vn -0.1511 -0.9193 0.3634
vn -0.0992 -0.7223 0.6845
vn 0.5968 -0.7860 -0.1612
vn -0.1811 -0.9834 -0.0096
vn 0.6747 -0.7097 0.2024
vn -0.1512 -0.9193 0.3633
vn -0.7471 -0.2732 0.6060
vn -0.1812 -0.9834 -0.0096
vn -0.8492 -0.5202 -0.0904
vn -0.1770 -0.9817 0.0701
vn -0.8492 -0.5203 -0.0904
vn -0.8620 -0.5068 -0.0128
vn 0.9307 -0.0519 -0.3621
vn 0.6208 -0.7793 -0.0854
vn -0.3037 0.8039 -0.5114
vn 0.4978 0.6105 -0.6161
vn 0.5192 0.6526 -0.5518
vn -0.3037 0.8039 -0.5115
vn -0.8620 -0.5068 -0.0127
vn -0.9184 0.2878 -0.2716
vn 0.6209 -0.7793 -0.0853
vn 0.5193 0.6527 -0.5517
vn 0.5192 0.6527 -0.5517
vn -0.9184 0.2879 -0.2716
vn -0.3048 0.7579 -0.5768
vn 0.9483 0.1570 0.2757
vn 0.9483 0.1570 0.2756
vn 0.4644 -0.1474 0.8733
vn -0.2190 0.9664 0.1345
vn -0.0757 0.7775 0.6243
vn 0.5592 0.8234 0.0964
vn -0.8004 0.4784 0.3612
vn -0.2191 0.9664 0.1344
vn -0.0757 0.7775 0.6244
vn -0.8627 -0.4337 0.2602
vn -0.9211 0.3893 -0.0078
vn -0.8626 -0.4337 0.2603
vn 0.6732 -0.7160 0.1851
vn -0.1531 -0.9256 0.3461
vn 0.6208 -0.7793 -0.0853
vn 0.5680 0.7672 -0.2980
vn 0.9941 0.0375 -0.1016
vn 0.5192 0.6527 -0.5518
vn -0.9210 0.3894 -0.0078
vn -0.2844 0.9238 -0.2563
vn -0.1532 -0.9256 0.3461
vn 0.6732 -0.7159 0.1851
vn -0.2844 0.9238 -0.2562
vn -0.3037 0.8038 -0.5115
vt 0.543243 0.611839
vt 0.535370 0.618118
vt 0.537796 0.613083
vt 0.537796 0.623154
vt 0.547607 0.615326
vt 0.543243 0.624397
vt 0.547607 0.620918
vt 0.565384 0.671494
vt 0.570206 0.669548
vt 0.567856 0.672157
vt 0.564468 0.669609
vt 0.568146 0.666756
vt 0.564514 0.667854
vt 0.565857 0.666748
vt 0.562897 0.666855
vt 0.562302 0.669838
vt 0.559082 0.669685
vt 0.563492 0.673050
vt 0.560059 0.674789
vt 0.554092 0.669067
vt 0.554398 0.676537
vt 0.567307 0.675606
vt 0.564316 0.680244
vt 0.558044 0.684982
vt 0.575485 0.674767
vt 0.575272 0.686485
vt 0.565720 0.696274
vt 0.575485 0.658051
vt 0.568817 0.663902
vt 0.568115 0.659698
vt 0.574570 0.665543
vt 0.572052 0.651657
vt 0.565903 0.655174
vt 0.565063 0.664742
vt 0.563416 0.661980
vt 0.560669 0.658463
vt 0.560364 0.665283
vt 0.556488 0.662933
vt 0.552032 0.660286
vt 0.548294 0.668175
vt 0.563522 0.651588
vt 0.557617 0.654999
vt 0.551163 0.688484
vt 0.556610 0.699394
vt 0.547867 0.678001
vt 0.568756 0.648293
vt 0.604446 0.682632
vt 0.626221 0.687675
vt 0.604553 0.688225
vt 0.626144 0.682457
vt 0.604553 0.671455
vt 0.626144 0.677231
vt 0.604446 0.677048
vt 0.626221 0.672005
vt 0.605011 0.660294
vt 0.626404 0.666786
vt 0.604736 0.665871
vt 0.626663 0.661568
vt 0.626404 0.692902
vt 0.604736 0.693810
vt 0.626663 0.698120
vt 0.605011 0.699394
s 0
usemtl decorations
f 240/1/1 239/2/1 238/3/1
f 237/1/1 236/4/1 235/2/1
f 234/5/1 233/4/1 232/1/1
f 231/5/1 230/6/1 229/4/1
f 228/6/1 227/5/1 226/7/1
s 1
f 225/8/2 224/9/3 223/10/4
f 222/11/5 221/9/3 220/8/6
f 219/11/7 218/12/8 217/9/3
f 216/13/9 215/12/8 214/11/7
f 213/12/10 212/13/11 211/14/12
f 210/15/13 209/11/7 208/16/14
f 207/15/13 206/13/9 205/11/15
f 204/17/16 203/18/17 202/19/18
f 201/17/19 200/16/20 199/18/17
f 198/20/21 197/19/22 196/21/23
f 195/20/21 194/17/24 193/19/25
f 192/19/26 191/22/27 190/23/28
f 189/19/26 188/18/17 187/22/27
f 186/21/29 185/23/30 184/24/31
f 183/21/29 3/19/22 182/23/30
f 181/23/32 180/25/33 179/26/34
f 178/23/28 177/22/35 176/25/33
f 175/24/36 174/26/34 173/27/37
f 172/24/36 4/23/28 171/26/34
f 170/28/34 169/29/38 168/30/39
f 167/28/34 166/31/33 165/29/40
f 164/32/41 163/30/39 162/33/42
f 161/32/41 13/28/34 160/30/39
f 159/30/39 158/34/43 157/35/44
f 156/30/39 155/29/38 154/34/43
f 153/33/45 152/35/44 151/36/46
f 150/33/45 14/30/39 149/35/44
f 148/35/47 147/15/48 146/37/49
f 145/35/47 144/34/43 143/15/50
f 142/36/51 141/37/49 140/38/52
f 139/36/51 16/35/53 138/37/49
f 137/37/54 136/16/55 135/17/24
f 134/37/49 133/15/48 132/16/14
f 131/38/56 130/17/16 129/20/57
f 128/38/56 36/37/49 25/17/16
f 127/39/58 126/20/59 125/40/60
f 124/39/58 123/38/56 122/20/59
f 121/41/61 120/36/46 119/42/62
f 118/41/61 117/33/45 116/36/46
f 115/43/63 114/27/64 113/44/65
f 112/43/66 111/24/36 110/27/64
f 109/40/67 108/21/23 107/45/68
f 106/40/60 40/20/21 105/21/23
f 104/42/69 103/38/52 102/39/58
f 101/42/69 41/36/46 42/38/52
f 100/46/70 99/33/42 98/41/61
f 97/46/71 37/32/41 38/33/42
f 96/45/72 95/24/73 94/43/66
f 93/45/72 33/21/23 34/24/73
f 92/29/74 91/14/12 90/34/43
f 89/29/75 88/12/8 87/14/76
f 86/22/77 85/9/3 84/25/33
f 83/22/35 82/10/78 81/9/3
f 80/16/20 79/8/2 78/18/17
f 29/16/20 30/11/5 77/8/6
f 76/31/79 75/12/8 28/29/40
f 31/31/33 26/9/3 27/12/8
f 74/18/80 73/10/4 24/22/81
f 21/18/80 22/8/6 23/10/82
f 72/34/43 71/13/9 20/15/48
f 17/34/43 18/14/12 19/13/9
f 70/47/83 69/48/72 68/49/84
f 67/47/85 66/50/60 65/48/68
f 64/51/86 63/52/58 62/53/87
f 61/51/86 60/54/88 59/52/58
f 58/55/89 57/56/61 56/57/90
f 55/55/89 54/58/91 53/56/61
f 52/49/92 51/59/63 50/60/93
f 2/49/92 32/48/68 49/59/63
f 48/53/94 47/50/60 12/47/85
f 9/53/87 10/52/58 11/50/60
f 46/57/90 45/54/88 8/51/95
f 5/57/90 6/56/61 7/54/62
f 44/60/93 43/61/71 15/62/89
f 1/60/96 35/59/97 39/61/71
