# Blender 5.0.0
# www.blender.org
mtllib Circle_002_Circle_003_Dupli_129_decorations_0.mtl
o Circle.002|Circle.003|Dupli|129_decorations_0
v -4.459291 1.653507 0.811405
v -4.459820 1.652559 0.812302
v -4.466372 1.656754 0.813343
v -4.465617 1.658107 0.812064
v -4.457857 1.654965 0.812907
v -4.462205 1.658144 0.813832
v -4.462368 1.657594 0.815017
v -4.458032 1.654377 0.814175
v -4.458811 1.653256 0.814523
v -4.463097 1.656546 0.815343
v -4.463840 1.655790 0.814563
v -4.459607 1.652447 0.813689
v -4.464370 1.659635 0.812448
v -4.463571 1.660187 0.814207
v -4.458417 1.654578 0.811675
v -4.463821 1.659348 0.816016
v -4.465177 1.660031 0.815937
v -4.466272 1.660334 0.815611
v -4.466862 1.659485 0.815874
v -4.466081 1.658730 0.816341
v -4.467253 1.657919 0.813762
v -4.467628 1.658956 0.814192
v -4.467227 1.659675 0.813512
v -4.466638 1.659020 0.812721
v -4.466067 1.656595 0.815323
v -4.466564 1.660486 0.813716
v -4.466140 1.660780 0.814650
v -4.464973 1.660713 0.814465
v -4.467004 1.657790 0.815373
v -4.467465 1.658872 0.815243
v -4.465623 1.660264 0.813034
v -4.464040 1.655894 0.813266
v -4.465021 1.656082 0.813218
v -4.464367 1.657253 0.812111
v -4.463545 1.656781 0.812428
v -4.464932 1.657749 0.816512
v -4.463288 1.658576 0.812444
v -4.462596 1.659054 0.813966
v -4.462729 1.657782 0.812680
v -4.464757 1.655944 0.814931
v -4.462812 1.658328 0.815531
v -4.463774 1.656944 0.815961
v -4.462729 1.657782 0.812680
v -4.459291 1.653507 0.811405
v -4.462368 1.657594 0.815017
v -4.457857 1.654965 0.812907
v -4.463840 1.655790 0.814563
v -4.458811 1.653256 0.814523
v -4.463545 1.656781 0.812428
v -4.459291 1.653507 0.811405
v -4.463545 1.656781 0.812428
v -4.459820 1.652559 0.812302
v -4.462205 1.658144 0.813832
v -4.462729 1.657782 0.812680
v -4.458417 1.654578 0.811675
v -4.457857 1.654965 0.812907
v -4.462205 1.658144 0.813832
v -4.458417 1.654578 0.811675
v -4.463097 1.656546 0.815343
v -4.462368 1.657594 0.815017
v -4.458032 1.654377 0.814175
v -4.458811 1.653256 0.814523
v -4.463097 1.656546 0.815343
v -4.458032 1.654377 0.814175
v -4.464040 1.655894 0.813266
v -4.463840 1.655790 0.814563
v -4.459607 1.652447 0.813689
v -4.459820 1.652559 0.812302
v -4.464040 1.655894 0.813266
v -4.459607 1.652447 0.813689
v -4.466862 1.659485 0.815874
v -4.465177 1.660031 0.815937
v -4.467227 1.659675 0.813512
v -4.467253 1.657919 0.813762
v -4.466140 1.660780 0.814650
v -4.465623 1.660264 0.813034
v -4.467628 1.658956 0.814192
v -4.467253 1.657919 0.813762
v -4.467628 1.658956 0.814192
v -4.467004 1.657790 0.815373
v -4.466564 1.660486 0.813716
v -4.467227 1.659675 0.813512
v -4.466638 1.659020 0.812721
v -4.465623 1.660264 0.813034
v -4.466564 1.660486 0.813716
v -4.466638 1.659020 0.812721
v -4.466272 1.660334 0.815611
v -4.466140 1.660780 0.814650
v -4.464973 1.660713 0.814465
v -4.465177 1.660031 0.815937
v -4.466272 1.660334 0.815611
v -4.464973 1.660713 0.814465
v -4.464040 1.655894 0.813266
v -4.463545 1.656781 0.812428
v -4.464367 1.657253 0.812111
v -4.464040 1.655894 0.813266
v -4.462729 1.657782 0.812680
v -4.462205 1.658144 0.813832
v -4.462596 1.659054 0.813966
v -4.462729 1.657782 0.812680
v -4.462368 1.657594 0.815017
v -4.463097 1.656546 0.815343
v -4.463774 1.656944 0.815961
v -4.462368 1.657594 0.815017
v -4.465021 1.656082 0.813218
v -4.463840 1.655790 0.814563
v -4.464040 1.655894 0.813266
v -4.465021 1.656082 0.813218
v -4.463840 1.655790 0.814563
v -4.463288 1.658576 0.812444
v -4.464367 1.657253 0.812111
v -4.463545 1.656781 0.812428
v -4.462729 1.657782 0.812680
v -4.463288 1.658576 0.812444
v -4.463545 1.656781 0.812428
v -4.462812 1.658328 0.815531
v -4.462596 1.659054 0.813966
v -4.462205 1.658144 0.813832
v -4.462368 1.657594 0.815017
v -4.462812 1.658328 0.815531
v -4.462205 1.658144 0.813832
v -4.464757 1.655944 0.814931
v -4.463774 1.656944 0.815961
v -4.463097 1.656546 0.815343
v -4.463840 1.655790 0.814563
v -4.464757 1.655944 0.814931
v -4.463097 1.656546 0.815343
v -4.463774 1.656944 0.815961
v -4.464757 1.655944 0.814931
v -4.466067 1.656595 0.815323
v -4.463774 1.656944 0.815961
v -4.467004 1.657790 0.815373
v -4.466081 1.658730 0.816341
v -4.464932 1.657749 0.816512
v -4.466067 1.656595 0.815323
v -4.467004 1.657790 0.815373
v -4.464932 1.657749 0.816512
v -4.464932 1.657749 0.816512
v -4.462812 1.658328 0.815531
v -4.463774 1.656944 0.815961
v -4.464932 1.657749 0.816512
v -4.462812 1.658328 0.815531
v -4.466081 1.658730 0.816341
v -4.465177 1.660031 0.815937
v -4.463821 1.659348 0.816016
v -4.464932 1.657749 0.816512
v -4.466081 1.658730 0.816341
v -4.463821 1.659348 0.816016
v -4.463821 1.659348 0.816016
v -4.462596 1.659054 0.813966
v -4.462812 1.658328 0.815531
v -4.463821 1.659348 0.816016
v -4.462596 1.659054 0.813966
v -4.465177 1.660031 0.815937
v -4.464973 1.660713 0.814465
v -4.463571 1.660187 0.814207
v -4.463821 1.659348 0.816016
v -4.465177 1.660031 0.815937
v -4.463571 1.660187 0.814207
v -4.463571 1.660187 0.814207
v -4.463288 1.658576 0.812444
v -4.462596 1.659054 0.813966
v -4.463571 1.660187 0.814207
v -4.463288 1.658576 0.812444
v -4.464973 1.660713 0.814465
v -4.465623 1.660264 0.813034
v -4.464370 1.659635 0.812448
v -4.463571 1.660187 0.814207
v -4.464973 1.660713 0.814465
v -4.464370 1.659635 0.812448
v -4.464370 1.659635 0.812448
v -4.464367 1.657253 0.812111
v -4.463288 1.658576 0.812444
v -4.464370 1.659635 0.812448
v -4.464367 1.657253 0.812111
v -4.465623 1.660264 0.813034
v -4.466638 1.659020 0.812721
v -4.465617 1.658107 0.812064
v -4.464370 1.659635 0.812448
v -4.465623 1.660264 0.813034
v -4.465617 1.658107 0.812064
v -4.465617 1.658107 0.812064
v -4.465021 1.656082 0.813218
v -4.464367 1.657253 0.812111
v -4.465617 1.658107 0.812064
v -4.465021 1.656082 0.813218
v -4.466638 1.659020 0.812721
v -4.467253 1.657919 0.813762
v -4.466372 1.656754 0.813343
v -4.465617 1.658107 0.812064
v -4.466638 1.659020 0.812721
v -4.466372 1.656754 0.813343
v -4.466372 1.656754 0.813343
v -4.466067 1.656595 0.815323
v -4.464757 1.655944 0.814931
v -4.465021 1.656082 0.813218
v -4.466372 1.656754 0.813343
v -4.464757 1.655944 0.814931
v -4.467253 1.657919 0.813762
v -4.467004 1.657790 0.815373
v -4.466067 1.656595 0.815323
v -4.466372 1.656754 0.813343
v -4.467253 1.657919 0.813762
v -4.466067 1.656595 0.815323
v -4.467465 1.658872 0.815243
v -4.466862 1.659485 0.815874
v -4.466081 1.658730 0.816341
v -4.467004 1.657790 0.815373
v -4.467465 1.658872 0.815243
v -4.466081 1.658730 0.816341
v -4.466272 1.660334 0.815611
v -4.466862 1.659485 0.815874
v -4.466140 1.660780 0.814650
v -4.467465 1.658872 0.815243
v -4.466140 1.660780 0.814650
v -4.466862 1.659485 0.815874
v -4.466564 1.660486 0.813716
v -4.466140 1.660780 0.814650
v -4.467465 1.658872 0.815243
v -4.467628 1.658956 0.814192
v -4.466564 1.660486 0.813716
v -4.467465 1.658872 0.815243
v -4.467227 1.659675 0.813512
v -4.466564 1.660486 0.813716
v -4.467628 1.658956 0.814192
v -4.458032 1.654377 0.814175
v -4.457857 1.654965 0.812907
v -4.458811 1.653256 0.814523
v -4.459607 1.652447 0.813689
v -4.458811 1.653256 0.814523
v -4.457857 1.654965 0.812907
v -4.458417 1.654578 0.811675
v -4.459607 1.652447 0.813689
v -4.457857 1.654965 0.812907
v -4.459820 1.652559 0.812302
v -4.459607 1.652447 0.813689
v -4.458417 1.654578 0.811675
v -4.459291 1.653507 0.811405
v -4.459820 1.652559 0.812302
v -4.458417 1.654578 0.811675
vn 0.7841 -0.5972 -0.1688
vn -0.9904 0.1071 -0.0872
vn -0.5029 0.8088 -0.3050
vn -0.8065 0.4366 -0.3987
vn -0.9161 0.0684 0.3950
vn -0.5029 0.8087 -0.3050
vn -0.9904 0.1071 -0.0871
vn -0.9162 0.0683 0.3949
vn -0.3082 0.9433 0.1233
vn -0.6396 0.3495 0.6846
vn -0.6397 0.3495 0.6846
vn -0.3691 0.7389 0.5637
vn -0.3072 0.0111 0.9516
vn -0.7549 -0.4441 0.4827
vn -0.6397 0.3496 0.6846
vn -0.9162 0.0684 0.3949
vn -0.5056 -0.7304 0.4593
vn -0.8751 -0.3814 -0.2979
vn -0.6373 -0.6617 -0.3950
vn -0.5056 -0.7303 0.4593
vn -0.7549 -0.4441 0.4826
vn -0.8751 -0.3814 -0.2978
vn -0.1838 -0.9108 0.3697
vn -0.6372 -0.6617 -0.3951
vn -0.3079 -0.8461 -0.4351
vn -0.5774 0.1521 -0.8022
vn -0.3114 -0.0778 -0.9471
vn -0.3078 -0.8461 -0.4352
vn -0.0009 -0.2960 -0.9552
vn -0.3113 -0.0778 -0.9471
vn -0.0858 0.7545 -0.6506
vn 0.2267 0.5817 -0.7812
vn -0.5773 0.1521 -0.8022
vn -0.0859 0.7546 -0.6506
vn -0.0008 -0.2960 -0.9552
vn 0.5060 0.3253 -0.7988
vn 0.2268 0.5817 -0.7811
vn 0.2293 0.9724 0.0428
vn 0.5717 0.8202 -0.0222
vn 0.2267 0.5817 -0.7811
vn -0.0858 0.7546 -0.6506
vn 0.5061 0.3253 -0.7988
vn 0.8310 0.5499 -0.0839
vn 0.5716 0.8202 -0.0222
vn 0.1308 0.6416 0.7558
vn 0.4639 0.4580 0.7583
vn 0.8310 0.5499 -0.0838
vn 0.7294 0.2087 0.6514
vn -0.3072 0.0112 0.9516
vn -0.0156 -0.2320 0.9726
vn 0.1308 0.6415 0.7558
vn 0.2778 -0.4413 0.8533
vn -0.0156 -0.2321 0.9726
vn -0.1839 -0.9108 0.3697
vn 0.2183 -0.4020 0.8892
vn -0.2550 -0.8833 0.3934
vn 0.2184 -0.4020 0.8892
vn 0.7857 0.6145 -0.0716
vn 0.7294 0.2088 0.6514
vn 0.6815 0.2646 0.6823
vn 0.7857 0.6145 -0.0717
vn 0.8310 0.5498 -0.0839
vn -0.0673 -0.2529 -0.9651
vn 0.5060 0.3253 -0.7989
vn 0.4524 0.3841 -0.8048
vn -0.3821 -0.8170 -0.4318
vn 0.6815 0.2647 0.6823
vn 0.2184 -0.4019 0.8892
vn 0.4524 0.3842 -0.8048
vn -0.3822 -0.8170 -0.4319
vn -0.3821 -0.8170 -0.4319
vn 0.2294 0.9724 0.0428
vn -0.3083 0.9433 0.1233
vn -0.8065 0.4365 -0.3987
vn -0.9161 0.0683 0.3950
vn -0.4914 -0.7418 0.4564
vn -0.6231 -0.6731 -0.3984
vn 0.4786 0.4472 0.7556
vn 0.2183 -0.4019 0.8893
vn -0.0011 -0.2432 0.9700
vn 0.4785 0.4472 0.7556
vn 0.2414 0.5710 -0.7847
vn 0.5865 0.8096 -0.0254
vn 0.2413 0.5710 -0.7846
vn -0.2970 -0.0889 -0.9507
vn 0.2184 -0.4019 0.8893
vn 0.5865 0.8096 -0.0253
vn 0.2413 0.5710 -0.7847
vn -0.0673 -0.2530 -0.9651
vn 0.4524 0.3841 -0.8049
vt 0.530319 0.611839
vt 0.522446 0.618118
vt 0.524872 0.613083
vt 0.524872 0.623154
vt 0.534683 0.615326
vt 0.530319 0.624397
vt 0.534683 0.620918
vt 0.537079 0.671494
vt 0.541916 0.669548
vt 0.539566 0.672157
vt 0.536179 0.669609
vt 0.539856 0.666756
vt 0.536224 0.667854
vt 0.537567 0.666748
vt 0.534592 0.666855
vt 0.534012 0.669838
vt 0.530777 0.669685
vt 0.535187 0.673050
vt 0.531769 0.674789
vt 0.525803 0.669067
vt 0.526108 0.676537
vt 0.539017 0.675606
vt 0.536011 0.680244
vt 0.529755 0.684982
vt 0.547180 0.674767
vt 0.546982 0.686485
vt 0.537415 0.696274
vt 0.547180 0.658051
vt 0.540527 0.663902
vt 0.539825 0.659698
vt 0.546280 0.665543
vt 0.543762 0.651657
vt 0.537613 0.655174
vt 0.536758 0.664742
vt 0.535126 0.661980
vt 0.532364 0.658463
vt 0.532074 0.665283
vt 0.528198 0.662933
vt 0.523743 0.660286
vt 0.519989 0.668175
vt 0.535217 0.651588
vt 0.529327 0.654999
vt 0.522873 0.688484
vt 0.528320 0.699394
vt 0.519577 0.678001
vt 0.540466 0.648293
vt 0.604446 0.642853
vt 0.626221 0.647896
vt 0.604553 0.648445
vt 0.626144 0.642670
vt 0.604553 0.631676
vt 0.626144 0.637444
vt 0.604446 0.637268
vt 0.626221 0.632225
vt 0.605011 0.620506
vt 0.626404 0.626999
vt 0.604736 0.626091
vt 0.626663 0.621780
vt 0.626404 0.653114
vt 0.604736 0.654030
vt 0.626663 0.658333
vt 0.605011 0.659607
s 0
usemtl decorations
f 240/1/1 239/2/1 238/3/1
f 237/1/1 236/4/1 235/2/1
f 234/5/1 233/4/1 232/1/1
f 231/5/1 230/6/1 229/4/1
f 228/6/1 227/5/1 226/7/1
s 1
f 225/8/2 224/9/3 223/10/4
f 222/11/5 221/9/6 220/8/7
f 219/11/8 218/12/9 217/9/3
f 216/13/10 215/12/9 214/11/8
f 213/12/9 212/13/11 211/14/12
f 210/15/13 209/11/8 208/16/14
f 207/15/13 206/13/15 205/11/16
f 204/17/17 203/18/18 202/19/19
f 201/17/20 200/16/21 199/18/22
f 198/20/23 197/19/24 196/21/25
f 195/20/23 194/17/20 193/19/19
f 192/19/19 191/22/26 190/23/27
f 189/19/19 188/18/18 187/22/26
f 186/21/28 185/23/27 184/24/29
f 183/21/28 3/19/24 182/23/27
f 181/23/30 180/25/31 179/26/32
f 178/23/27 177/22/33 176/25/34
f 175/24/35 174/26/32 173/27/36
f 172/24/35 4/23/30 171/26/32
f 170/28/37 169/29/38 168/30/39
f 167/28/40 166/31/41 165/29/38
f 164/32/42 163/30/39 162/33/43
f 161/32/42 13/28/40 160/30/44
f 159/30/39 158/34/45 157/35/46
f 156/30/39 155/29/38 154/34/45
f 153/33/47 152/35/46 151/36/48
f 150/33/47 14/30/39 149/35/46
f 148/35/46 147/15/49 146/37/50
f 145/35/46 144/34/51 143/15/49
f 142/36/48 141/37/50 140/38/52
f 139/36/48 16/35/46 138/37/50
f 137/37/53 136/16/14 135/17/20
f 134/37/50 133/15/13 132/16/14
f 131/38/52 130/17/17 129/20/54
f 128/38/52 36/37/50 25/17/17
f 127/39/55 126/20/54 125/40/56
f 124/39/57 123/38/52 122/20/54
f 121/41/58 120/36/59 119/42/60
f 118/41/61 117/33/62 116/36/59
f 115/43/63 114/27/64 113/44/65
f 112/43/63 111/24/35 110/27/64
f 109/40/56 108/21/25 107/45/66
f 106/40/56 40/20/23 105/21/25
f 104/42/67 103/38/52 102/39/68
f 101/42/67 41/36/48 42/38/52
f 100/46/69 99/33/43 98/41/61
f 97/46/65 37/32/42 38/33/43
f 96/45/70 95/24/35 94/43/63
f 93/45/71 33/21/25 34/24/35
f 92/29/38 91/14/12 90/34/45
f 89/29/72 88/12/73 87/14/12
f 86/22/26 85/9/6 84/25/34
f 83/22/26 82/10/74 81/9/6
f 80/16/21 79/8/2 78/18/22
f 29/16/21 30/11/75 77/8/7
f 76/31/34 75/12/9 28/29/38
f 31/31/34 26/9/6 27/12/73
f 74/18/18 73/10/4 24/22/26
f 21/18/18 22/8/7 23/10/4
f 72/34/45 71/13/11 20/15/49
f 17/34/45 18/14/12 19/13/15
f 70/47/76 69/48/70 68/49/77
f 67/47/76 66/50/56 65/48/66
f 64/51/78 63/52/79 62/53/80
f 61/51/81 60/54/60 59/52/68
f 58/55/82 57/56/58 56/57/83
f 55/55/84 54/58/65 53/56/61
f 52/49/77 51/59/63 50/60/85
f 2/49/77 32/48/71 49/59/63
f 48/53/80 47/50/56 12/47/76
f 9/53/80 10/52/86 11/50/56
f 46/57/87 45/54/60 8/51/78
f 5/57/87 6/56/58 7/54/60
f 44/60/85 43/61/69 15/62/88
f 1/60/85 35/59/89 39/61/90
