# Blender 5.0.0
# www.blender.org
mtllib Circle_002_Circle_003_Dupli_293_decorations_0.mtl
o Circle.002|Circle.003|Dupli|293_decorations_0
v -4.300958 1.907654 0.685944
v -4.301981 1.906836 0.686459
v -4.306182 1.907418 0.679854
v -4.304721 1.908585 0.679119
v -4.301587 1.909957 0.686806
v -4.304585 1.910732 0.682304
v -4.305687 1.910499 0.682984
v -4.302766 1.909707 0.687534
v -4.303432 1.908482 0.687734
v -4.306310 1.909354 0.683172
v -4.305984 1.908160 0.682724
v -4.303083 1.907205 0.687256
v -4.304470 1.910566 0.679339
v -4.305618 1.911870 0.680349
v -4.300782 1.909043 0.686098
v -4.307301 1.911514 0.681388
v -4.307911 1.911404 0.680000
v -4.308171 1.911039 0.678905
v -4.308675 1.910111 0.679057
v -4.308684 1.909982 0.680233
v -4.307001 1.908070 0.678752
v -4.307577 1.908864 0.678091
v -4.306801 1.909484 0.677700
v -4.305811 1.909020 0.678154
v -4.307753 1.907944 0.680991
v -4.306667 1.910536 0.677817
v -4.307277 1.911228 0.678354
v -4.306542 1.911693 0.679155
v -4.308279 1.908498 0.679677
v -4.308411 1.909143 0.678694
v -4.305607 1.910632 0.678333
v -4.304954 1.907815 0.681979
v -4.305398 1.907482 0.681147
v -4.304133 1.908493 0.680511
v -4.303997 1.908580 0.681498
v -4.308251 1.909767 0.681674
v -4.303916 1.910208 0.680702
v -4.304909 1.911336 0.681576
v -4.303833 1.909878 0.681642
v -4.306757 1.907938 0.682131
v -4.306366 1.911028 0.682475
v -4.307188 1.909516 0.682722
v -4.303833 1.909878 0.681642
v -4.300958 1.907654 0.685944
v -4.305687 1.910499 0.682984
v -4.301587 1.909957 0.686806
v -4.305984 1.908160 0.682724
v -4.303432 1.908482 0.687734
v -4.303997 1.908580 0.681498
v -4.300958 1.907654 0.685944
v -4.303997 1.908580 0.681498
v -4.301981 1.906836 0.686459
v -4.304585 1.910732 0.682304
v -4.303833 1.909878 0.681642
v -4.300782 1.909043 0.686098
v -4.301587 1.909957 0.686806
v -4.304585 1.910732 0.682304
v -4.300782 1.909043 0.686098
v -4.306310 1.909354 0.683172
v -4.305687 1.910499 0.682984
v -4.302766 1.909707 0.687534
v -4.303432 1.908482 0.687734
v -4.306310 1.909354 0.683172
v -4.302766 1.909707 0.687534
v -4.304954 1.907815 0.681979
v -4.305984 1.908160 0.682724
v -4.303083 1.907205 0.687256
v -4.301981 1.906836 0.686459
v -4.304954 1.907815 0.681979
v -4.303083 1.907205 0.687256
v -4.308675 1.910111 0.679057
v -4.307911 1.911404 0.680000
v -4.306801 1.909484 0.677700
v -4.307001 1.908070 0.678752
v -4.307277 1.911228 0.678354
v -4.305607 1.910632 0.678333
v -4.307577 1.908864 0.678091
v -4.307001 1.908070 0.678752
v -4.307577 1.908864 0.678091
v -4.308279 1.908498 0.679677
v -4.306667 1.910536 0.677817
v -4.306801 1.909484 0.677700
v -4.305811 1.909020 0.678154
v -4.305607 1.910632 0.678333
v -4.306667 1.910536 0.677817
v -4.305811 1.909020 0.678154
v -4.308171 1.911039 0.678905
v -4.307277 1.911228 0.678354
v -4.306542 1.911693 0.679155
v -4.307911 1.911404 0.680000
v -4.308171 1.911039 0.678905
v -4.306542 1.911693 0.679155
v -4.304954 1.907815 0.681979
v -4.303997 1.908580 0.681498
v -4.304133 1.908493 0.680511
v -4.304954 1.907815 0.681979
v -4.303833 1.909878 0.681642
v -4.304585 1.910732 0.682304
v -4.304909 1.911336 0.681576
v -4.303833 1.909878 0.681642
v -4.305687 1.910499 0.682984
v -4.306310 1.909354 0.683172
v -4.307188 1.909516 0.682722
v -4.305687 1.910499 0.682984
v -4.305398 1.907482 0.681147
v -4.305984 1.908160 0.682724
v -4.304954 1.907815 0.681979
v -4.305398 1.907482 0.681147
v -4.305984 1.908160 0.682724
v -4.303916 1.910208 0.680702
v -4.304133 1.908493 0.680511
v -4.303997 1.908580 0.681498
v -4.303833 1.909878 0.681642
v -4.303916 1.910208 0.680702
v -4.303997 1.908580 0.681498
v -4.306366 1.911028 0.682475
v -4.304909 1.911336 0.681576
v -4.304585 1.910732 0.682304
v -4.305687 1.910499 0.682984
v -4.306366 1.911028 0.682475
v -4.304585 1.910732 0.682304
v -4.306757 1.907938 0.682131
v -4.307188 1.909516 0.682722
v -4.306310 1.909354 0.683172
v -4.305984 1.908160 0.682724
v -4.306757 1.907938 0.682131
v -4.306310 1.909354 0.683172
v -4.307188 1.909516 0.682722
v -4.306757 1.907938 0.682131
v -4.307753 1.907944 0.680991
v -4.307188 1.909516 0.682722
v -4.308279 1.908498 0.679677
v -4.308684 1.909982 0.680233
v -4.308251 1.909767 0.681674
v -4.307753 1.907944 0.680991
v -4.308279 1.908498 0.679677
v -4.308251 1.909767 0.681674
v -4.308251 1.909767 0.681674
v -4.306366 1.911028 0.682475
v -4.307188 1.909516 0.682722
v -4.308251 1.909767 0.681674
v -4.306366 1.911028 0.682475
v -4.308684 1.909982 0.680233
v -4.307911 1.911404 0.680000
v -4.307301 1.911514 0.681388
v -4.308251 1.909767 0.681674
v -4.308684 1.909982 0.680233
v -4.307301 1.911514 0.681388
v -4.307301 1.911514 0.681388
v -4.304909 1.911336 0.681576
v -4.306366 1.911028 0.682475
v -4.307301 1.911514 0.681388
v -4.304909 1.911336 0.681576
v -4.307911 1.911404 0.680000
v -4.306542 1.911693 0.679155
v -4.305618 1.911870 0.680349
v -4.307301 1.911514 0.681388
v -4.307911 1.911404 0.680000
v -4.305618 1.911870 0.680349
v -4.305618 1.911870 0.680349
v -4.303916 1.910208 0.680702
v -4.304909 1.911336 0.681576
v -4.305618 1.911870 0.680349
v -4.303916 1.910208 0.680702
v -4.306542 1.911693 0.679155
v -4.305607 1.910632 0.678333
v -4.304470 1.910566 0.679339
v -4.305618 1.911870 0.680349
v -4.306542 1.911693 0.679155
v -4.304470 1.910566 0.679339
v -4.304470 1.910566 0.679339
v -4.304133 1.908493 0.680511
v -4.303916 1.910208 0.680702
v -4.304470 1.910566 0.679339
v -4.304133 1.908493 0.680511
v -4.305607 1.910632 0.678333
v -4.305811 1.909020 0.678154
v -4.304721 1.908585 0.679119
v -4.304470 1.910566 0.679339
v -4.305607 1.910632 0.678333
v -4.304721 1.908585 0.679119
v -4.304721 1.908585 0.679119
v -4.305398 1.907482 0.681147
v -4.304133 1.908493 0.680511
v -4.304721 1.908585 0.679119
v -4.305398 1.907482 0.681147
v -4.305811 1.909020 0.678154
v -4.307001 1.908070 0.678752
v -4.306182 1.907418 0.679854
v -4.304721 1.908585 0.679119
v -4.305811 1.909020 0.678154
v -4.306182 1.907418 0.679854
v -4.306182 1.907418 0.679854
v -4.307753 1.907944 0.680991
v -4.306757 1.907938 0.682131
v -4.305398 1.907482 0.681147
v -4.306182 1.907418 0.679854
v -4.306757 1.907938 0.682131
v -4.307001 1.908070 0.678752
v -4.308279 1.908498 0.679677
v -4.307753 1.907944 0.680991
v -4.306182 1.907418 0.679854
v -4.307001 1.908070 0.678752
v -4.307753 1.907944 0.680991
v -4.308411 1.909143 0.678694
v -4.308675 1.910111 0.679057
v -4.308684 1.909982 0.680233
v -4.308279 1.908498 0.679677
v -4.308411 1.909143 0.678694
v -4.308684 1.909982 0.680233
v -4.308171 1.911039 0.678905
v -4.308675 1.910111 0.679057
v -4.307277 1.911228 0.678354
v -4.308411 1.909143 0.678694
v -4.307277 1.911228 0.678354
v -4.308675 1.910111 0.679057
v -4.306667 1.910536 0.677817
v -4.307277 1.911228 0.678354
v -4.308411 1.909143 0.678694
v -4.307577 1.908864 0.678091
v -4.306667 1.910536 0.677817
v -4.308411 1.909143 0.678694
v -4.306801 1.909484 0.677700
v -4.306667 1.910536 0.677817
v -4.307577 1.908864 0.678091
v -4.302766 1.909707 0.687534
v -4.301587 1.909957 0.686806
v -4.303432 1.908482 0.687734
v -4.303083 1.907205 0.687256
v -4.303432 1.908482 0.687734
v -4.301587 1.909957 0.686806
v -4.300782 1.909043 0.686098
v -4.303083 1.907205 0.687256
v -4.301587 1.909957 0.686806
v -4.301981 1.906836 0.686459
v -4.303083 1.907205 0.687256
v -4.300782 1.909043 0.686098
v -4.300958 1.907654 0.685944
v -4.301981 1.906836 0.686459
v -4.300782 1.909043 0.686098
vn 0.5429 -0.1604 0.8244
vn -0.4127 -0.4151 -0.8108
vn 0.0041 0.3517 -0.9361
vn -0.0570 -0.1309 -0.9898
vn -0.7954 -0.2870 -0.5339
vn 0.0042 0.3517 -0.9361
vn -0.4128 -0.4151 -0.8108
vn -0.7953 -0.2870 -0.5339
vn -0.2755 0.6691 -0.6902
vn -0.9166 0.1570 -0.3677
vn -0.9166 0.1569 -0.3677
vn -0.6853 0.5825 -0.4372
vn -0.9797 0.1051 0.1705
vn -0.7834 -0.6136 -0.0986
vn -0.6355 -0.7373 0.2292
vn -0.1640 -0.8210 -0.5468
vn 0.0424 -0.9643 -0.2615
vn -0.6356 -0.7373 0.2292
vn -0.1641 -0.8210 -0.5469
vn -0.3962 -0.7544 0.5234
vn 0.0425 -0.9643 -0.2615
vn 0.2425 -0.9682 0.0611
vn 0.4120 -0.3609 -0.8367
vn 0.6730 -0.4606 -0.5787
vn -0.1640 -0.8210 -0.5469
vn 0.8365 -0.4938 -0.2377
vn 0.5110 0.4203 -0.7498
vn 0.7813 0.3945 -0.4836
vn 0.4121 -0.3608 -0.8367
vn 0.8365 -0.4937 -0.2376
vn 0.9385 0.3118 -0.1481
vn 0.8365 -0.4937 -0.2377
vn 0.7813 0.3946 -0.4836
vn 0.0583 0.9343 -0.3517
vn 0.2858 0.9571 -0.0479
vn 0.5110 0.4204 -0.7498
vn 0.9385 0.3119 -0.1481
vn 0.2858 0.9571 -0.0478
vn 0.4717 0.8418 0.2624
vn -0.6051 0.7940 0.0578
vn -0.4404 0.8035 0.4005
vn -0.6051 0.7940 0.0579
vn 0.4717 0.8418 0.2625
vn -0.2124 0.6971 0.6848
vn -0.8504 0.0495 0.5238
vn -0.9797 0.1052 0.1705
vn -0.8504 0.0494 0.5238
vn -0.5987 -0.0132 0.8009
vn -0.8504 0.0495 0.5237
vn -0.5986 -0.0132 0.8009
vn -0.3962 -0.7544 0.5233
vn -0.6599 -0.0000 0.7514
vn -0.4523 -0.7600 0.4668
vn 0.4377 0.8768 0.1992
vn -0.2124 0.6971 0.6847
vn -0.2638 0.7284 0.6323
vn 0.4718 0.8418 0.2624
vn 0.8117 -0.4927 -0.3136
vn 0.9164 0.3333 -0.2217
vn 0.2026 -0.9792 -0.0071
vn 0.9163 0.3333 -0.2218
vn 0.9164 0.3333 -0.2218
vn 0.2026 -0.9792 -0.0072
vn 0.8118 -0.4927 -0.3136
vn 0.0583 0.9343 -0.3516
vn 0.4120 -0.3608 -0.8367
vn -0.7834 -0.6137 -0.0986
vn -0.4128 -0.4150 -0.8108
vn 0.5109 0.4204 -0.7498
vn -0.0569 -0.1309 -0.9898
vn -0.6052 0.7940 0.0579
vn -0.6258 -0.7407 0.2445
vn 0.0525 -0.9678 -0.2464
vn -0.6258 -0.7406 0.2445
vn -0.4306 0.8009 0.4160
vn -0.8408 0.0465 0.5393
vn -0.4307 0.8010 0.4159
vn 0.7918 0.3918 -0.4686
vn 0.2961 0.9546 -0.0327
vn 0.7917 0.3918 -0.4686
vn 0.0526 -0.9677 -0.2464
vn 0.6834 -0.4639 -0.5638
vn 0.0525 -0.9677 -0.2464
vn -0.8409 0.0465 0.5393
vn 0.2960 0.9546 -0.0326
vn -0.4306 0.8010 0.4160
vn 0.2960 0.9546 -0.0327
vn 0.6834 -0.4638 -0.5637
vn 0.6834 -0.4638 -0.5638
vt 0.530319 0.611839
vt 0.522446 0.618118
vt 0.524872 0.613083
vt 0.524872 0.623154
vt 0.534683 0.615326
vt 0.530319 0.624397
vt 0.534683 0.620918
vt 0.537079 0.671494
vt 0.541916 0.669548
vt 0.539566 0.672157
vt 0.536179 0.669609
vt 0.539856 0.666756
vt 0.536224 0.667854
vt 0.537567 0.666748
vt 0.534592 0.666855
vt 0.534012 0.669838
vt 0.530777 0.669685
vt 0.535187 0.673050
vt 0.531769 0.674789
vt 0.525803 0.669067
vt 0.526108 0.676537
vt 0.539017 0.675606
vt 0.536011 0.680244
vt 0.529755 0.684982
vt 0.547180 0.674767
vt 0.546982 0.686485
vt 0.537415 0.696274
vt 0.547180 0.658051
vt 0.540527 0.663902
vt 0.539825 0.659698
vt 0.546280 0.665543
vt 0.543762 0.651657
vt 0.537613 0.655174
vt 0.536758 0.664742
vt 0.535126 0.661980
vt 0.532364 0.658463
vt 0.532074 0.665283
vt 0.528198 0.662933
vt 0.523743 0.660286
vt 0.519989 0.668175
vt 0.535217 0.651588
vt 0.529327 0.654999
vt 0.522873 0.688484
vt 0.528320 0.699394
vt 0.519577 0.678001
vt 0.540466 0.648293
vt 0.604446 0.642853
vt 0.626221 0.647896
vt 0.604553 0.648445
vt 0.626144 0.642670
vt 0.604553 0.631676
vt 0.626144 0.637444
vt 0.604446 0.637268
vt 0.626221 0.632225
vt 0.605011 0.620506
vt 0.626404 0.626999
vt 0.604736 0.626091
vt 0.626663 0.621780
vt 0.626404 0.653114
vt 0.604736 0.654030
vt 0.626663 0.658333
vt 0.605011 0.659607
s 0
usemtl decorations
f 240/1/1 239/2/1 238/3/1
f 237/1/1 236/4/1 235/2/1
f 234/5/1 233/4/1 232/1/1
f 231/5/1 230/6/1 229/4/1
f 228/6/1 227/5/1 226/7/1
s 1
f 225/8/2 224/9/3 223/10/4
f 222/11/5 221/9/6 220/8/7
f 219/11/8 218/12/9 217/9/6
f 216/13/10 215/12/9 214/11/8
f 213/12/9 212/13/11 211/14/12
f 210/15/13 209/11/8 208/16/14
f 207/15/13 206/13/10 205/11/8
f 204/17/15 203/18/16 202/19/17
f 201/17/18 200/16/14 199/18/19
f 198/20/20 197/19/21 196/21/22
f 195/20/20 194/17/15 193/19/17
f 192/19/17 191/22/23 190/23/24
f 189/19/17 188/18/25 187/22/23
f 186/21/22 185/23/24 184/24/26
f 183/21/22 3/19/21 182/23/24
f 181/23/24 180/25/27 179/26/28
f 178/23/24 177/22/29 176/25/27
f 175/24/30 174/26/28 173/27/31
f 172/24/32 4/23/24 171/26/28
f 170/28/33 169/29/34 168/30/35
f 167/28/33 166/31/36 165/29/34
f 164/32/37 163/30/38 162/33/39
f 161/32/37 13/28/28 160/30/35
f 159/30/35 158/34/40 157/35/41
f 156/30/35 155/29/34 154/34/42
f 153/33/43 152/35/41 151/36/44
f 150/33/39 14/30/38 149/35/41
f 148/35/41 147/15/13 146/37/45
f 145/35/41 144/34/42 143/15/46
f 142/36/44 141/37/47 140/38/48
f 139/36/44 16/35/41 138/37/47
f 137/37/47 136/16/14 135/17/15
f 134/37/49 133/15/13 132/16/14
f 131/38/50 130/17/15 129/20/51
f 128/38/50 36/37/45 25/17/15
f 127/39/52 126/20/20 125/40/53
f 124/39/52 123/38/48 122/20/20
f 121/41/54 120/36/55 119/42/56
f 118/41/54 117/33/57 116/36/55
f 115/43/58 114/27/31 113/44/59
f 112/43/58 111/24/32 110/27/31
f 109/40/53 108/21/22 107/45/60
f 106/40/53 40/20/20 105/21/22
f 104/42/56 103/38/48 102/39/52
f 101/42/56 41/36/44 42/38/48
f 100/46/61 99/33/57 98/41/54
f 97/46/62 37/32/37 38/33/57
f 96/45/63 95/24/32 94/43/64
f 93/45/63 33/21/22 34/24/32
f 92/29/65 91/14/12 90/34/42
f 89/29/65 88/12/9 87/14/12
f 86/22/66 85/9/3 84/25/27
f 83/22/66 82/10/4 81/9/3
f 80/16/67 79/8/2 78/18/25
f 29/16/67 30/11/5 77/8/68
f 76/31/69 75/12/9 28/29/34
f 31/31/36 26/9/3 27/12/9
f 74/18/16 73/10/70 24/22/23
f 21/18/16 22/8/68 23/10/4
f 72/34/71 71/13/11 20/15/13
f 17/34/71 18/14/12 19/13/10
f 70/47/72 69/48/63 68/49/73
f 67/47/74 66/50/53 65/48/63
f 64/51/75 63/52/52 62/53/76
f 61/51/77 60/54/56 59/52/52
f 58/55/78 57/56/54 56/57/79
f 55/55/80 54/58/59 53/56/54
f 52/49/81 51/59/58 50/60/82
f 2/49/83 32/48/60 49/59/58
f 48/53/76 47/50/53 12/47/74
f 9/53/84 10/52/52 11/50/53
f 46/57/85 45/54/56 8/51/86
f 5/57/87 6/56/54 7/54/56
f 44/60/88 43/61/62 15/62/78
f 1/60/89 35/59/64 39/61/62
