# Blender 5.0.0
# www.blender.org
mtllib Circle_005_Circle_001_Dupli_234_decorations_0.mtl
o Circle.005|Circle.001|Dupli|234_decorations_0
v -4.167202 0.607759 0.634042
v -4.166392 0.606855 0.634756
v -4.171159 0.607046 0.640989
v -4.172315 0.608335 0.639969
v -4.166115 0.609999 0.634530
v -4.169308 0.610495 0.638937
v -4.168300 0.610167 0.639718
v -4.165037 0.609649 0.635365
v -4.164656 0.608371 0.635818
v -4.167944 0.608973 0.640141
v -4.168508 0.607810 0.639888
v -4.165259 0.607127 0.635547
v -4.172138 0.610331 0.639826
v -4.170763 0.611531 0.640666
v -4.167078 0.609158 0.633941
v -4.169225 0.611031 0.641858
v -4.170325 0.610864 0.642892
v -4.171277 0.610475 0.643478
v -4.170988 0.609507 0.643821
v -4.169883 0.609380 0.643418
v -4.171899 0.607620 0.642186
v -4.172304 0.608358 0.643017
v -4.172917 0.609043 0.642476
v -4.172840 0.608670 0.641356
v -4.169543 0.607434 0.642117
v -4.172824 0.610103 0.642399
v -4.172093 0.610740 0.642846
v -4.171577 0.611271 0.641923
v -4.170584 0.607937 0.643103
v -4.171445 0.608565 0.643616
v -4.172696 0.610294 0.641239
v -4.169568 0.607556 0.639148
v -4.170208 0.607183 0.639819
v -4.171208 0.608299 0.638936
v -4.170324 0.608401 0.638480
v -4.168682 0.609208 0.642504
v -4.171056 0.610027 0.638812
v -4.169865 0.611066 0.639539
v -4.170209 0.609709 0.638386
v -4.168809 0.607519 0.640795
v -4.168534 0.610633 0.640571
v -4.168064 0.609054 0.641130
v -4.170209 0.609709 0.638386
v -4.167202 0.607759 0.634042
v -4.168300 0.610167 0.639718
v -4.166115 0.609999 0.634530
v -4.168508 0.607810 0.639888
v -4.164656 0.608371 0.635818
v -4.170324 0.608401 0.638480
v -4.167202 0.607759 0.634042
v -4.170324 0.608401 0.638480
v -4.166392 0.606855 0.634756
v -4.169308 0.610495 0.638937
v -4.170209 0.609709 0.638386
v -4.167078 0.609158 0.633941
v -4.166115 0.609999 0.634530
v -4.169308 0.610495 0.638937
v -4.167078 0.609158 0.633941
v -4.167944 0.608973 0.640141
v -4.168300 0.610167 0.639718
v -4.165037 0.609649 0.635365
v -4.164656 0.608371 0.635818
v -4.167944 0.608973 0.640141
v -4.165037 0.609649 0.635365
v -4.169568 0.607556 0.639148
v -4.168508 0.607810 0.639888
v -4.165259 0.607127 0.635547
v -4.166392 0.606855 0.634756
v -4.169568 0.607556 0.639148
v -4.165259 0.607127 0.635547
v -4.170988 0.609507 0.643821
v -4.170325 0.610864 0.642892
v -4.172917 0.609043 0.642476
v -4.171899 0.607620 0.642186
v -4.172093 0.610740 0.642846
v -4.172696 0.610294 0.641239
v -4.172304 0.608358 0.643017
v -4.171899 0.607620 0.642186
v -4.172304 0.608358 0.643017
v -4.170584 0.607937 0.643103
v -4.172824 0.610103 0.642399
v -4.172917 0.609043 0.642476
v -4.172840 0.608670 0.641356
v -4.172696 0.610294 0.641239
v -4.172824 0.610103 0.642399
v -4.172840 0.608670 0.641356
v -4.171277 0.610475 0.643478
v -4.172093 0.610740 0.642846
v -4.171577 0.611271 0.641923
v -4.170325 0.610864 0.642892
v -4.171277 0.610475 0.643478
v -4.171577 0.611271 0.641923
v -4.169568 0.607556 0.639148
v -4.170324 0.608401 0.638480
v -4.171208 0.608299 0.638936
v -4.169568 0.607556 0.639148
v -4.170209 0.609709 0.638386
v -4.169308 0.610495 0.638937
v -4.169865 0.611066 0.639539
v -4.170209 0.609709 0.638386
v -4.168300 0.610167 0.639718
v -4.167944 0.608973 0.640141
v -4.168064 0.609054 0.641130
v -4.168300 0.610167 0.639718
v -4.170208 0.607183 0.639819
v -4.168508 0.607810 0.639888
v -4.169568 0.607556 0.639148
v -4.170208 0.607183 0.639819
v -4.168508 0.607810 0.639888
v -4.171056 0.610027 0.638812
v -4.171208 0.608299 0.638936
v -4.170324 0.608401 0.638480
v -4.170209 0.609709 0.638386
v -4.171056 0.610027 0.638812
v -4.170324 0.608401 0.638480
v -4.168534 0.610633 0.640571
v -4.169865 0.611066 0.639539
v -4.169308 0.610495 0.638937
v -4.168300 0.610167 0.639718
v -4.168534 0.610633 0.640571
v -4.169308 0.610495 0.638937
v -4.168809 0.607519 0.640795
v -4.168064 0.609054 0.641130
v -4.167944 0.608973 0.640141
v -4.168508 0.607810 0.639888
v -4.168809 0.607519 0.640795
v -4.167944 0.608973 0.640141
v -4.168064 0.609054 0.641130
v -4.168809 0.607519 0.640795
v -4.169543 0.607434 0.642117
v -4.168064 0.609054 0.641130
v -4.170584 0.607937 0.643103
v -4.169883 0.609380 0.643418
v -4.168682 0.609208 0.642504
v -4.169543 0.607434 0.642117
v -4.170584 0.607937 0.643103
v -4.168682 0.609208 0.642504
v -4.168682 0.609208 0.642504
v -4.168534 0.610633 0.640571
v -4.168064 0.609054 0.641130
v -4.168682 0.609208 0.642504
v -4.168534 0.610633 0.640571
v -4.169883 0.609380 0.643418
v -4.170325 0.610864 0.642892
v -4.169225 0.611031 0.641858
v -4.168682 0.609208 0.642504
v -4.169883 0.609380 0.643418
v -4.169225 0.611031 0.641858
v -4.169225 0.611031 0.641858
v -4.169865 0.611066 0.639539
v -4.168534 0.610633 0.640571
v -4.169225 0.611031 0.641858
v -4.169865 0.611066 0.639539
v -4.170325 0.610864 0.642892
v -4.171577 0.611271 0.641923
v -4.170763 0.611531 0.640666
v -4.169225 0.611031 0.641858
v -4.170325 0.610864 0.642892
v -4.170763 0.611531 0.640666
v -4.170763 0.611531 0.640666
v -4.171056 0.610027 0.638812
v -4.169865 0.611066 0.639539
v -4.170763 0.611531 0.640666
v -4.171056 0.610027 0.638812
v -4.171577 0.611271 0.641923
v -4.172696 0.610294 0.641239
v -4.172138 0.610331 0.639826
v -4.170763 0.611531 0.640666
v -4.171577 0.611271 0.641923
v -4.172138 0.610331 0.639826
v -4.172138 0.610331 0.639826
v -4.171208 0.608299 0.638936
v -4.171056 0.610027 0.638812
v -4.172138 0.610331 0.639826
v -4.171208 0.608299 0.638936
v -4.172696 0.610294 0.641239
v -4.172840 0.608670 0.641356
v -4.172315 0.608335 0.639969
v -4.172138 0.610331 0.639826
v -4.172696 0.610294 0.641239
v -4.172315 0.608335 0.639969
v -4.172315 0.608335 0.639969
v -4.170208 0.607183 0.639819
v -4.171208 0.608299 0.638936
v -4.172315 0.608335 0.639969
v -4.170208 0.607183 0.639819
v -4.172840 0.608670 0.641356
v -4.171899 0.607620 0.642186
v -4.171159 0.607046 0.640989
v -4.172315 0.608335 0.639969
v -4.172840 0.608670 0.641356
v -4.171159 0.607046 0.640989
v -4.171159 0.607046 0.640989
v -4.169543 0.607434 0.642117
v -4.168809 0.607519 0.640795
v -4.170208 0.607183 0.639819
v -4.171159 0.607046 0.640989
v -4.168809 0.607519 0.640795
v -4.171899 0.607620 0.642186
v -4.170584 0.607937 0.643103
v -4.169543 0.607434 0.642117
v -4.171159 0.607046 0.640989
v -4.171899 0.607620 0.642186
v -4.169543 0.607434 0.642117
v -4.171445 0.608565 0.643616
v -4.170988 0.609507 0.643821
v -4.169883 0.609380 0.643418
v -4.170584 0.607937 0.643103
v -4.171445 0.608565 0.643616
v -4.169883 0.609380 0.643418
v -4.171277 0.610475 0.643478
v -4.170988 0.609507 0.643821
v -4.172093 0.610740 0.642846
v -4.171445 0.608565 0.643616
v -4.172093 0.610740 0.642846
v -4.170988 0.609507 0.643821
v -4.172824 0.610103 0.642399
v -4.172093 0.610740 0.642846
v -4.171445 0.608565 0.643616
v -4.172304 0.608358 0.643017
v -4.172824 0.610103 0.642399
v -4.171445 0.608565 0.643616
v -4.172917 0.609043 0.642476
v -4.172824 0.610103 0.642399
v -4.172304 0.608358 0.643017
v -4.165037 0.609649 0.635365
v -4.166115 0.609999 0.634530
v -4.164656 0.608371 0.635818
v -4.165259 0.607127 0.635547
v -4.164656 0.608371 0.635818
v -4.166115 0.609999 0.634530
v -4.167078 0.609158 0.633941
v -4.165259 0.607127 0.635547
v -4.166115 0.609999 0.634530
v -4.166392 0.606855 0.634756
v -4.165259 0.607127 0.635547
v -4.167078 0.609158 0.633941
v -4.167202 0.607759 0.634042
v -4.166392 0.606855 0.634756
v -4.167078 0.609158 0.633941
vn 0.5863 -0.1096 -0.8027
vn -0.6335 -0.4521 0.6279
vn -0.8718 0.3481 0.3446
vn -0.9148 -0.1381 0.3796
vn -0.2397 -0.3575 0.9026
vn -0.8719 0.3481 0.3446
vn -0.6334 -0.4521 0.6280
vn -0.2397 -0.3576 0.9026
vn -0.5370 0.6403 0.5493
vn -0.0300 0.0745 0.9968
vn -0.5370 0.6403 0.5492
vn -0.5369 0.6403 0.5493
vn -0.0300 0.0744 0.9968
vn -0.1623 0.5185 0.8395
vn 0.4960 0.0187 0.8681
vn 0.1565 -0.6806 0.7158
vn -0.0301 0.0745 0.9968
vn 0.4111 -0.7899 0.4551
vn -0.4810 -0.8338 0.2710
vn -0.2867 -0.9575 -0.0315
vn 0.4111 -0.7898 0.4552
vn 0.1565 -0.6806 0.7157
vn -0.4810 -0.8338 0.2711
vn 0.6059 -0.7849 0.1294
vn -0.2867 -0.9575 -0.0316
vn -0.0515 -0.9429 -0.3291
vn -0.2868 -0.9575 -0.0315
vn -0.9364 -0.3254 -0.1310
vn -0.7853 -0.4010 -0.4717
vn -0.0515 -0.9429 -0.3292
vn -0.7853 -0.4011 -0.4716
vn -0.5211 -0.4187 -0.7437
vn -0.8669 0.4617 -0.1878
vn -0.7092 0.4606 -0.5338
vn -0.9364 -0.3254 -0.1311
vn -0.8670 0.4617 -0.1877
vn -0.5211 -0.4186 -0.7438
vn -0.4494 0.3930 -0.8022
vn -0.5211 -0.4187 -0.7438
vn -0.3248 0.9348 0.1436
vn -0.1158 0.9784 -0.1711
vn 0.1096 0.8809 -0.4605
vn 0.2817 0.7377 0.6135
vn 0.5482 0.7627 0.3433
vn 0.1096 0.8808 -0.4606
vn 0.5482 0.7626 0.3433
vn 0.7351 0.6776 0.0241
vn 0.1096 0.8808 -0.4605
vn -0.1158 0.9784 -0.1710
vn 0.4960 0.0188 0.8681
vn 0.7826 -0.0243 0.6220
vn 0.2818 0.7377 0.6135
vn 0.4959 0.0188 0.8682
vn 0.7351 0.6775 0.0241
vn 0.9559 -0.0637 0.2866
vn 0.7826 -0.0244 0.6220
vn 0.4110 -0.7898 0.4552
vn 0.7826 -0.0243 0.6221
vn 0.9559 -0.0638 0.2866
vn 0.6059 -0.7850 0.1294
vn 0.9305 -0.0562 0.3619
vn 0.5716 -0.7956 0.2007
vn 0.9305 -0.0561 0.3619
vn 0.0627 0.9125 -0.4042
vn 0.7350 0.6776 0.0241
vn 0.7041 0.7041 0.0927
vn -0.5841 -0.4200 -0.6946
vn -0.4495 0.3930 -0.8022
vn -0.5105 0.4123 -0.7546
vn -0.5840 -0.4200 -0.6946
vn 0.5716 -0.7956 0.2008
vn -0.0514 -0.9429 -0.3291
vn -0.1024 -0.9575 -0.2695
vn 0.7040 0.7041 0.0927
vn -0.5106 0.4123 -0.7546
vn -0.1025 -0.9576 -0.2694
vn -0.1024 -0.9576 -0.2694
vn -0.3247 0.9348 0.1436
vn -0.9365 -0.3254 -0.1310
vn -0.9148 -0.1382 0.3796
vn 0.1565 -0.6807 0.7157
vn -0.6335 -0.4521 0.6280
vn -0.8669 0.4617 -0.1877
vn 0.2817 0.7377 0.6136
vn -0.0301 0.0744 0.9968
vn 0.4959 0.0187 0.8682
vn 0.4221 -0.7923 0.4406
vn -0.2760 -0.9600 -0.0464
vn 0.5593 0.7610 0.3287
vn 0.7939 -0.0263 0.6075
vn -0.6987 0.4588 -0.5489
vn -0.1050 0.9769 -0.1860
vn -0.5105 0.4122 -0.7546
vn -0.2761 -0.9600 -0.0465
vn -0.7748 -0.4033 -0.4868
vn -0.2761 -0.9600 -0.0464
vn 0.7939 -0.0264 0.6075
vn 0.7938 -0.0264 0.6076
vn -0.7749 -0.4033 -0.4868
vn -0.5106 0.4122 -0.7546
vt 0.543243 0.635056
vt 0.535370 0.641335
vt 0.537796 0.636299
vt 0.537796 0.646370
vt 0.547607 0.638535
vt 0.543243 0.647614
vt 0.547607 0.644127
vt 0.593674 0.671494
vt 0.598511 0.669548
vt 0.596146 0.672157
vt 0.592773 0.669609
vt 0.596436 0.666756
vt 0.592804 0.667854
vt 0.594147 0.666748
vt 0.591187 0.666855
vt 0.590591 0.669838
vt 0.587372 0.669685
vt 0.591782 0.673050
vt 0.588348 0.674789
vt 0.582382 0.669067
vt 0.582687 0.676537
vt 0.595596 0.675606
vt 0.592606 0.680244
vt 0.586334 0.684982
vt 0.603775 0.674767
vt 0.603561 0.686485
vt 0.594009 0.696274
vt 0.603775 0.658051
vt 0.597107 0.663902
vt 0.596405 0.659698
vt 0.602859 0.665543
vt 0.600342 0.651657
vt 0.594193 0.655174
vt 0.593353 0.664742
vt 0.591705 0.661980
vt 0.588959 0.658463
vt 0.588654 0.665283
vt 0.584778 0.662933
vt 0.580322 0.660286
vt 0.576584 0.668175
vt 0.591812 0.651588
vt 0.585907 0.654999
vt 0.579453 0.688484
vt 0.584915 0.699394
vt 0.576157 0.678001
vt 0.597061 0.648293
vt 0.627350 0.682632
vt 0.649124 0.687675
vt 0.627441 0.688225
vt 0.649033 0.682457
vt 0.627441 0.671455
vt 0.649033 0.677231
vt 0.627350 0.677048
vt 0.649124 0.672005
vt 0.627914 0.660294
vt 0.649292 0.666786
vt 0.627625 0.665871
vt 0.649551 0.661568
vt 0.649292 0.692902
vt 0.627625 0.693810
vt 0.649551 0.698120
vt 0.627914 0.699394
s 0
usemtl decorations
f 240/1/1 239/2/1 238/3/1
f 237/1/1 236/4/1 235/2/1
f 234/5/1 233/4/1 232/1/1
f 231/5/1 230/6/1 229/4/1
f 228/6/1 227/5/1 226/7/1
s 1
f 225/8/2 224/9/3 223/10/4
f 222/11/5 221/9/6 220/8/7
f 219/11/8 218/12/9 217/9/3
f 216/13/10 215/12/11 214/11/5
f 213/12/12 212/13/13 211/14/14
f 210/15/15 209/11/5 208/16/16
f 207/15/15 206/13/17 205/11/5
f 204/17/18 203/18/19 202/19/20
f 201/17/21 200/16/22 199/18/23
f 198/20/24 197/19/25 196/21/26
f 195/20/24 194/17/21 193/19/27
f 192/19/20 191/22/28 190/23/29
f 189/19/20 188/18/19 187/22/28
f 186/21/30 185/23/31 184/24/32
f 183/21/30 3/19/25 182/23/31
f 181/23/29 180/25/33 179/26/34
f 178/23/29 177/22/35 176/25/36
f 175/24/37 174/26/34 173/27/38
f 172/24/39 4/23/29 171/26/34
f 170/28/34 169/29/40 168/30/41
f 167/28/34 166/31/33 165/29/40
f 164/32/38 163/30/41 162/33/42
f 161/32/38 13/28/34 160/30/41
f 159/30/41 158/34/43 157/35/44
f 156/30/41 155/29/40 154/34/43
f 153/33/45 152/35/46 151/36/47
f 150/33/48 14/30/49 149/35/46
f 148/35/46 147/15/50 146/37/51
f 145/35/46 144/34/52 143/15/53
f 142/36/54 141/37/51 140/38/55
f 139/36/54 16/35/46 138/37/51
f 137/37/56 136/16/22 135/17/57
f 134/37/58 133/15/15 132/16/16
f 131/38/59 130/17/57 129/20/60
f 128/38/59 36/37/51 25/17/57
f 127/39/61 126/20/24 125/40/62
f 124/39/63 123/38/59 122/20/24
f 121/41/64 120/36/65 119/42/66
f 118/41/64 117/33/45 116/36/65
f 115/43/67 114/27/68 113/44/69
f 112/43/70 111/24/37 110/27/68
f 109/40/71 108/21/72 107/45/73
f 106/40/71 40/20/24 105/21/72
f 104/42/74 103/38/59 102/39/63
f 101/42/74 41/36/47 42/38/59
f 100/46/75 99/33/45 98/41/64
f 97/46/75 37/32/38 38/33/45
f 96/45/76 95/24/32 94/43/70
f 93/45/77 33/21/26 34/24/32
f 92/29/78 91/14/14 90/34/43
f 89/29/78 88/12/9 87/14/14
f 86/22/79 85/9/3 84/25/36
f 83/22/79 82/10/80 81/9/3
f 80/16/81 79/8/2 78/18/23
f 29/16/81 30/11/5 77/8/82
f 76/31/83 75/12/9 28/29/40
f 31/31/83 26/9/3 27/12/9
f 74/18/19 73/10/4 24/22/28
f 21/18/19 22/8/82 23/10/4
f 72/34/84 71/13/85 20/15/86
f 17/34/84 18/14/14 19/13/17
f 70/47/87 69/48/76 68/49/88
f 67/47/87 66/50/62 65/48/77
f 64/51/89 63/52/63 62/53/90
f 61/51/89 60/54/66 59/52/63
f 58/55/91 57/56/64 56/57/92
f 55/55/91 54/58/93 53/56/64
f 52/49/94 51/59/67 50/60/95
f 2/49/96 32/48/73 49/59/70
f 48/53/97 47/50/62 12/47/87
f 9/53/98 10/52/63 11/50/62
f 46/57/92 45/54/66 8/51/89
f 5/57/92 6/56/64 7/54/66
f 44/60/99 43/61/75 15/62/91
f 1/60/99 35/59/70 39/61/100
