# Blender 5.0.0
# www.blender.org
mtllib Circle_002_Circle_001_Dupli_162_decorations_0.mtl
o Circle.002|Circle.001|Dupli|162_decorations_0
v -4.524958 0.674904 0.833638
v -4.525774 0.674059 0.834414
v -4.528030 0.679987 0.839039
v -4.526865 0.681192 0.837931
v -4.522678 0.674638 0.834720
v -4.523889 0.678766 0.838090
v -4.524125 0.677915 0.839066
v -4.522932 0.673727 0.835764
v -4.524149 0.673115 0.836120
v -4.525264 0.677343 0.839398
v -4.526446 0.677481 0.838837
v -4.525414 0.673263 0.835519
v -4.524899 0.681560 0.838125
v -4.523612 0.680812 0.839475
v -4.523581 0.675162 0.833774
v -4.523974 0.679513 0.840965
v -4.524611 0.680728 0.841618
v -4.525327 0.681639 0.841856
v -4.526250 0.681175 0.842125
v -4.526024 0.680018 0.842031
v -4.527911 0.681114 0.840051
v -4.527481 0.681891 0.840833
v -4.526863 0.682531 0.840245
v -4.526963 0.682095 0.839150
v -4.527516 0.678851 0.840615
v -4.525819 0.682726 0.840348
v -4.525135 0.682329 0.841065
v -4.524316 0.681786 0.840406
v -4.527493 0.680189 0.841334
v -4.527208 0.681287 0.841670
v -4.525363 0.682394 0.839308
v -4.526783 0.678225 0.837804
v -4.527429 0.678870 0.838211
v -4.526421 0.679914 0.837252
v -4.526020 0.679015 0.837078
v -4.525711 0.678640 0.841472
v -4.524720 0.680232 0.837420
v -4.523606 0.679585 0.838589
v -4.524732 0.679256 0.837206
v -4.526984 0.677887 0.839575
v -4.523918 0.678460 0.839878
v -4.525422 0.677705 0.840317
v -4.524732 0.679256 0.837206
v -4.524958 0.674904 0.833638
v -4.524125 0.677915 0.839066
v -4.522678 0.674638 0.834720
v -4.526446 0.677481 0.838837
v -4.524149 0.673115 0.836120
v -4.526020 0.679015 0.837078
v -4.524958 0.674904 0.833638
v -4.526020 0.679015 0.837078
v -4.525774 0.674059 0.834414
v -4.523889 0.678766 0.838090
v -4.524732 0.679256 0.837206
v -4.523581 0.675162 0.833774
v -4.522678 0.674638 0.834720
v -4.523889 0.678766 0.838090
v -4.523581 0.675162 0.833774
v -4.525264 0.677343 0.839398
v -4.524125 0.677915 0.839066
v -4.522932 0.673727 0.835764
v -4.524149 0.673115 0.836120
v -4.525264 0.677343 0.839398
v -4.522932 0.673727 0.835764
v -4.526783 0.678225 0.837804
v -4.526446 0.677481 0.838837
v -4.525414 0.673263 0.835519
v -4.525774 0.674059 0.834414
v -4.526783 0.678225 0.837804
v -4.525414 0.673263 0.835519
v -4.526250 0.681175 0.842125
v -4.524611 0.680728 0.841618
v -4.526863 0.682531 0.840245
v -4.527911 0.681114 0.840051
v -4.525135 0.682329 0.841065
v -4.525363 0.682394 0.839308
v -4.527481 0.681891 0.840833
v -4.527911 0.681114 0.840051
v -4.527481 0.681891 0.840833
v -4.527493 0.680189 0.841334
v -4.525819 0.682726 0.840348
v -4.526863 0.682531 0.840245
v -4.526963 0.682095 0.839150
v -4.525363 0.682394 0.839308
v -4.525819 0.682726 0.840348
v -4.526963 0.682095 0.839150
v -4.525327 0.681639 0.841856
v -4.525135 0.682329 0.841065
v -4.524316 0.681786 0.840406
v -4.524611 0.680728 0.841618
v -4.525327 0.681639 0.841856
v -4.524316 0.681786 0.840406
v -4.526783 0.678225 0.837804
v -4.526020 0.679015 0.837078
v -4.526421 0.679914 0.837252
v -4.526783 0.678225 0.837804
v -4.524732 0.679256 0.837206
v -4.523889 0.678766 0.838090
v -4.523606 0.679585 0.838589
v -4.524732 0.679256 0.837206
v -4.524125 0.677915 0.839066
v -4.525264 0.677343 0.839398
v -4.525422 0.677705 0.840317
v -4.524125 0.677915 0.839066
v -4.527429 0.678870 0.838211
v -4.526446 0.677481 0.838837
v -4.526783 0.678225 0.837804
v -4.527429 0.678870 0.838211
v -4.526446 0.677481 0.838837
v -4.524720 0.680232 0.837420
v -4.526421 0.679914 0.837252
v -4.526020 0.679015 0.837078
v -4.524732 0.679256 0.837206
v -4.524720 0.680232 0.837420
v -4.526020 0.679015 0.837078
v -4.523918 0.678460 0.839878
v -4.523606 0.679585 0.838589
v -4.523889 0.678766 0.838090
v -4.524125 0.677915 0.839066
v -4.523918 0.678460 0.839878
v -4.523889 0.678766 0.838090
v -4.526984 0.677887 0.839575
v -4.525422 0.677705 0.840317
v -4.525264 0.677343 0.839398
v -4.526446 0.677481 0.838837
v -4.526984 0.677887 0.839575
v -4.525264 0.677343 0.839398
v -4.525422 0.677705 0.840317
v -4.526984 0.677887 0.839575
v -4.527516 0.678851 0.840615
v -4.525422 0.677705 0.840317
v -4.527493 0.680189 0.841334
v -4.526024 0.680018 0.842031
v -4.525711 0.678640 0.841472
v -4.527516 0.678851 0.840615
v -4.527493 0.680189 0.841334
v -4.525711 0.678640 0.841472
v -4.525711 0.678640 0.841472
v -4.523918 0.678460 0.839878
v -4.525422 0.677705 0.840317
v -4.525711 0.678640 0.841472
v -4.523918 0.678460 0.839878
v -4.526024 0.680018 0.842031
v -4.524611 0.680728 0.841618
v -4.523974 0.679513 0.840965
v -4.525711 0.678640 0.841472
v -4.526024 0.680018 0.842031
v -4.523974 0.679513 0.840965
v -4.523974 0.679513 0.840965
v -4.523606 0.679585 0.838589
v -4.523918 0.678460 0.839878
v -4.523974 0.679513 0.840965
v -4.523606 0.679585 0.838589
v -4.524611 0.680728 0.841618
v -4.524316 0.681786 0.840406
v -4.523612 0.680812 0.839475
v -4.523974 0.679513 0.840965
v -4.524611 0.680728 0.841618
v -4.523612 0.680812 0.839475
v -4.523612 0.680812 0.839475
v -4.524720 0.680232 0.837420
v -4.523606 0.679585 0.838589
v -4.523612 0.680812 0.839475
v -4.524720 0.680232 0.837420
v -4.524316 0.681786 0.840406
v -4.525363 0.682394 0.839308
v -4.524899 0.681560 0.838125
v -4.523612 0.680812 0.839475
v -4.524316 0.681786 0.840406
v -4.524899 0.681560 0.838125
v -4.524899 0.681560 0.838125
v -4.526421 0.679914 0.837252
v -4.524720 0.680232 0.837420
v -4.524899 0.681560 0.838125
v -4.526421 0.679914 0.837252
v -4.525363 0.682394 0.839308
v -4.526963 0.682095 0.839150
v -4.526865 0.681192 0.837931
v -4.524899 0.681560 0.838125
v -4.525363 0.682394 0.839308
v -4.526865 0.681192 0.837931
v -4.526865 0.681192 0.837931
v -4.527429 0.678870 0.838211
v -4.526421 0.679914 0.837252
v -4.526865 0.681192 0.837931
v -4.527429 0.678870 0.838211
v -4.526963 0.682095 0.839150
v -4.527911 0.681114 0.840051
v -4.528030 0.679987 0.839039
v -4.526865 0.681192 0.837931
v -4.526963 0.682095 0.839150
v -4.528030 0.679987 0.839039
v -4.528030 0.679987 0.839039
v -4.527516 0.678851 0.840615
v -4.526984 0.677887 0.839575
v -4.527429 0.678870 0.838211
v -4.528030 0.679987 0.839039
v -4.526984 0.677887 0.839575
v -4.527911 0.681114 0.840051
v -4.527493 0.680189 0.841334
v -4.527516 0.678851 0.840615
v -4.528030 0.679987 0.839039
v -4.527911 0.681114 0.840051
v -4.527516 0.678851 0.840615
v -4.527208 0.681287 0.841670
v -4.526250 0.681175 0.842125
v -4.526024 0.680018 0.842031
v -4.527493 0.680189 0.841334
v -4.527208 0.681287 0.841670
v -4.526024 0.680018 0.842031
v -4.525327 0.681639 0.841856
v -4.526250 0.681175 0.842125
v -4.525135 0.682329 0.841065
v -4.527208 0.681287 0.841670
v -4.525135 0.682329 0.841065
v -4.526250 0.681175 0.842125
v -4.525819 0.682726 0.840348
v -4.525135 0.682329 0.841065
v -4.527208 0.681287 0.841670
v -4.527481 0.681891 0.840833
v -4.525819 0.682726 0.840348
v -4.527208 0.681287 0.841670
v -4.526863 0.682531 0.840245
v -4.525819 0.682726 0.840348
v -4.527481 0.681891 0.840833
v -4.522932 0.673727 0.835764
v -4.522678 0.674638 0.834720
v -4.524149 0.673115 0.836120
v -4.525414 0.673263 0.835519
v -4.524149 0.673115 0.836120
v -4.522678 0.674638 0.834720
v -4.523581 0.675162 0.833774
v -4.525414 0.673263 0.835519
v -4.522678 0.674638 0.834720
v -4.525774 0.674059 0.834414
v -4.525414 0.673263 0.835519
v -4.523581 0.675162 0.833774
v -4.524958 0.674904 0.833638
v -4.525774 0.674059 0.834414
v -4.523581 0.675162 0.833774
vn 0.2032 -0.7617 -0.6153
vn -0.7105 0.6065 0.3568
vn 0.0518 0.9896 0.1343
vn -0.4270 0.9001 0.0870
vn -0.5854 0.3298 0.7406
vn -0.7106 0.6065 0.3568
vn -0.5855 0.3299 0.7405
vn 0.3652 0.8076 0.4631
vn -0.1459 0.2785 0.9493
vn 0.2772 0.4911 0.8258
vn -0.0475 -0.2566 0.9653
vn -0.7591 -0.1735 0.6275
vn -0.1459 0.2786 0.9493
vn -0.5855 0.3299 0.7406
vn -0.7478 -0.5014 0.4351
vn -0.9616 0.2743 0.0061
vn -0.9695 -0.0112 -0.2449
vn -0.7478 -0.5014 0.4352
vn -0.7591 -0.1735 0.6274
vn -0.9616 0.2744 0.0062
vn -0.6287 -0.7565 0.1804
vn -0.8375 -0.2946 -0.4602
vn -0.6287 -0.7564 0.1804
vn -0.9695 -0.0111 -0.2448
vn -0.5025 0.7497 -0.4306
vn -0.4669 0.5091 -0.7230
vn -0.4670 0.5091 -0.7230
vn -0.3641 0.1956 -0.9106
vn 0.2726 0.8946 -0.3541
vn 0.3815 0.6677 -0.6392
vn -0.5025 0.7497 -0.4307
vn -0.3640 0.1955 -0.9106
vn 0.4352 0.3450 -0.8316
vn 0.7799 0.5999 0.1782
vn 0.9368 0.3453 -0.0565
vn 0.7799 0.6000 0.1782
vn 0.4352 0.3449 -0.8316
vn 0.9368 0.3452 -0.0566
vn 0.9583 0.0412 -0.2827
vn 0.9368 0.3452 -0.0565
vn 0.6375 0.0877 0.7654
vn 0.7809 -0.2156 0.5863
vn 0.9583 0.0411 -0.2827
vn 0.8115 -0.4872 0.3228
vn -0.0474 -0.2566 0.9654
vn 0.0312 -0.5924 0.8051
vn 0.6375 0.0876 0.7654
vn 0.8114 -0.4872 0.3228
vn 0.1052 -0.8421 0.5290
vn 0.0311 -0.5924 0.8050
vn 0.0312 -0.5923 0.8051
vn -0.0474 -0.2566 0.9653
vn 0.1052 -0.8421 0.5289
vn -0.6287 -0.7564 0.1805
vn 0.0906 -0.7990 0.5945
vn -0.6619 -0.7111 0.2372
vn 0.9654 0.1067 -0.2377
vn 0.8148 -0.4350 0.3831
vn 0.9654 0.1067 -0.2378
vn 0.9583 0.0411 -0.2828
vn -0.3905 0.2651 -0.8816
vn 0.4290 0.4183 -0.8006
vn -0.8760 -0.2376 -0.4197
vn 0.8148 -0.4350 0.3832
vn 0.8149 -0.4350 0.3831
vn 0.9583 0.0412 -0.2828
vn -0.8760 -0.2375 -0.4197
vn -0.3641 0.1955 -0.9106
vn 0.7800 0.5999 0.1783
vn 0.3651 0.8076 0.4631
vn -0.5024 0.7497 -0.4306
vn -0.5024 0.7497 -0.4307
vn -0.9616 0.2743 0.0062
vn 0.2726 0.8946 -0.3540
vn 0.6375 0.0876 0.7655
vn -0.7445 -0.5157 0.4240
vn -0.9662 -0.0253 -0.2564
vn 0.7851 -0.2298 0.5752
vn 0.0350 -0.6067 0.7941
vn 0.7850 -0.2298 0.5752
vn 0.3855 0.6540 -0.6509
vn 0.9655 0.1067 -0.2377
vn 0.9411 0.3314 -0.0680
vn -0.4635 0.4953 -0.7348
vn -0.9662 -0.0252 -0.2564
vn -0.3906 0.2651 -0.8816
vn 0.0349 -0.6068 0.7941
vn -0.7444 -0.5157 0.4240
vn 0.0349 -0.6067 0.7941
vn 0.9411 0.3313 -0.0680
vn 0.9411 0.3314 -0.0679
vn -0.4634 0.4953 -0.7348
vn -0.3905 0.2650 -0.8816
vt 0.543243 0.635056
vt 0.535370 0.641335
vt 0.537796 0.636299
vt 0.537796 0.646370
vt 0.547607 0.638535
vt 0.543243 0.647614
vt 0.547607 0.644127
vt 0.593674 0.671494
vt 0.598511 0.669548
vt 0.596146 0.672157
vt 0.592773 0.669609
vt 0.596436 0.666756
vt 0.592804 0.667854
vt 0.594147 0.666748
vt 0.591187 0.666855
vt 0.590591 0.669838
vt 0.587372 0.669685
vt 0.591782 0.673050
vt 0.588348 0.674789
vt 0.582382 0.669067
vt 0.582687 0.676537
vt 0.595596 0.675606
vt 0.592606 0.680244
vt 0.586334 0.684982
vt 0.603775 0.674767
vt 0.603561 0.686485
vt 0.594009 0.696274
vt 0.603775 0.658051
vt 0.597107 0.663902
vt 0.596405 0.659698
vt 0.602859 0.665543
vt 0.600342 0.651657
vt 0.594193 0.655174
vt 0.593353 0.664742
vt 0.591705 0.661980
vt 0.588959 0.658463
vt 0.588654 0.665283
vt 0.584778 0.662933
vt 0.580322 0.660286
vt 0.576584 0.668175
vt 0.591812 0.651588
vt 0.585907 0.654999
vt 0.579453 0.688484
vt 0.584915 0.699394
vt 0.576157 0.678001
vt 0.597061 0.648293
vt 0.627350 0.682632
vt 0.649124 0.687675
vt 0.627441 0.688225
vt 0.649033 0.682457
vt 0.627441 0.671455
vt 0.649033 0.677231
vt 0.627350 0.677048
vt 0.649124 0.672005
vt 0.627914 0.660294
vt 0.649292 0.666786
vt 0.627625 0.665871
vt 0.649551 0.661568
vt 0.649292 0.692902
vt 0.627625 0.693810
vt 0.649551 0.698120
vt 0.627914 0.699394
s 0
usemtl decorations
f 240/1/1 239/2/1 238/3/1
f 237/1/1 236/4/1 235/2/1
f 234/5/1 233/4/1 232/1/1
f 231/5/1 230/6/1 229/4/1
f 228/6/1 227/5/1 226/7/1
s 1
f 225/8/2 224/9/3 223/10/4
f 222/11/5 221/9/3 220/8/6
f 219/11/7 218/12/8 217/9/3
f 216/13/9 215/12/8 214/11/7
f 213/12/8 212/13/9 211/14/10
f 210/15/11 209/11/7 208/16/12
f 207/15/11 206/13/13 205/11/14
f 204/17/15 203/18/16 202/19/17
f 201/17/18 200/16/19 199/18/20
f 198/20/21 197/19/17 196/21/22
f 195/20/23 194/17/18 193/19/24
f 192/19/17 191/22/25 190/23/26
f 189/19/17 188/18/16 187/22/25
f 186/21/22 185/23/27 184/24/28
f 183/21/22 3/19/17 182/23/27
f 181/23/26 180/25/29 179/26/30
f 178/23/26 177/22/31 176/25/29
f 175/24/32 174/26/30 173/27/33
f 172/24/32 4/23/26 171/26/30
f 170/28/30 169/29/34 168/30/35
f 167/28/30 166/31/29 165/29/36
f 164/32/37 163/30/38 162/33/39
f 161/32/37 13/28/30 160/30/35
f 159/30/40 158/34/41 157/35/42
f 156/30/35 155/29/34 154/34/41
f 153/33/43 152/35/42 151/36/44
f 150/33/43 14/30/40 149/35/42
f 148/35/42 147/15/45 146/37/46
f 145/35/42 144/34/47 143/15/45
f 142/36/48 141/37/46 140/38/49
f 139/36/48 16/35/42 138/37/46
f 137/37/50 136/16/19 135/17/18
f 134/37/51 133/15/52 132/16/12
f 131/38/53 130/17/18 129/20/54
f 128/38/53 36/37/51 25/17/18
f 127/39/55 126/20/54 125/40/56
f 124/39/55 123/38/53 122/20/54
f 121/41/57 120/36/44 119/42/58
f 118/41/59 117/33/60 116/36/44
f 115/43/61 114/27/33 113/44/62
f 112/43/61 111/24/32 110/27/33
f 109/40/56 108/21/22 107/45/63
f 106/40/56 40/20/21 105/21/22
f 104/42/64 103/38/53 102/39/55
f 101/42/65 41/36/44 42/38/53
f 100/46/62 99/33/66 98/41/59
f 97/46/62 37/32/37 38/33/66
f 96/45/67 95/24/68 94/43/61
f 93/45/63 33/21/22 34/24/68
f 92/29/69 91/14/10 90/34/41
f 89/29/69 88/12/70 87/14/10
f 86/22/71 85/9/3 84/25/29
f 83/22/72 82/10/4 81/9/3
f 80/16/19 79/8/2 78/18/73
f 29/16/19 30/11/5 77/8/2
f 76/31/74 75/12/70 28/29/36
f 31/31/29 26/9/3 27/12/70
f 74/18/16 73/10/4 24/22/25
f 21/18/16 22/8/2 23/10/4
f 72/34/75 71/13/9 20/15/45
f 17/34/75 18/14/10 19/13/13
f 70/47/76 69/48/67 68/49/77
f 67/47/76 66/50/56 65/48/63
f 64/51/78 63/52/55 62/53/79
f 61/51/80 60/54/64 59/52/55
f 58/55/81 57/56/82 56/57/83
f 55/55/81 54/58/62 53/56/59
f 52/49/77 51/59/61 50/60/84
f 2/49/85 32/48/63 49/59/86
f 48/53/87 47/50/56 12/47/88
f 9/53/89 10/52/55 11/50/56
f 46/57/90 45/54/64 8/51/78
f 5/57/91 6/56/82 7/54/58
f 44/60/92 43/61/62 15/62/81
f 1/60/92 35/59/93 39/61/62
