# Blender 5.0.0
# www.blender.org
mtllib Circle_002_Circle_004_Dupli_252_decorations_0.mtl
o Circle.002|Circle.004|Dupli|252_decorations_0
v -4.312256 1.050976 0.737627
v -4.313295 1.050383 0.736884
v -4.309350 1.051201 0.730148
v -4.307867 1.052047 0.731209
v -4.312971 1.053407 0.737758
v -4.310289 1.054360 0.733094
v -4.311425 1.054368 0.732429
v -4.314187 1.053415 0.737047
v -4.314844 1.052339 0.736419
v -4.312039 1.053362 0.731841
v -4.311668 1.052101 0.731773
v -4.314447 1.050990 0.736346
v -4.307661 1.053967 0.731764
v -4.308887 1.055515 0.731396
v -4.312112 1.052321 0.738017
v -4.310621 1.055527 0.730381
v -4.309700 1.055424 0.729177
v -4.308912 1.055032 0.728387
v -4.309409 1.054217 0.727910
v -4.310462 1.054175 0.728447
v -4.308665 1.051904 0.728987
v -4.308236 1.052735 0.728263
v -4.307449 1.053184 0.728826
v -4.307459 1.052591 0.729850
v -4.310992 1.052067 0.729381
v -4.307340 1.054203 0.729121
v -4.307991 1.055026 0.728926
v -4.308289 1.055414 0.730002
v -4.310002 1.052608 0.728363
v -4.309109 1.053195 0.727855
v -4.307292 1.054154 0.730302
v -4.310592 1.051534 0.732276
v -4.310114 1.051223 0.731455
v -4.308831 1.051955 0.732373
v -4.309621 1.052087 0.732971
v -4.311558 1.053992 0.729484
v -4.308652 1.053616 0.732854
v -4.309713 1.054957 0.732535
v -4.309486 1.053346 0.733335
v -4.311536 1.051972 0.730791
v -4.311214 1.054967 0.731657
v -4.312026 1.053639 0.730881
v -4.309486 1.053346 0.733335
v -4.312256 1.050976 0.737627
v -4.311425 1.054368 0.732429
v -4.312971 1.053407 0.737758
v -4.311668 1.052101 0.731773
v -4.314844 1.052339 0.736419
v -4.309621 1.052087 0.732971
v -4.312256 1.050976 0.737627
v -4.309621 1.052087 0.732971
v -4.313295 1.050383 0.736884
v -4.310289 1.054360 0.733094
v -4.309486 1.053346 0.733335
v -4.312112 1.052321 0.738017
v -4.312971 1.053407 0.737758
v -4.310289 1.054360 0.733094
v -4.312112 1.052321 0.738017
v -4.312039 1.053362 0.731841
v -4.311425 1.054368 0.732429
v -4.314187 1.053415 0.737047
v -4.314844 1.052339 0.736419
v -4.312039 1.053362 0.731841
v -4.314187 1.053415 0.737047
v -4.310592 1.051534 0.732276
v -4.311668 1.052101 0.731773
v -4.314447 1.050990 0.736346
v -4.313295 1.050383 0.736884
v -4.310592 1.051534 0.732276
v -4.314447 1.050990 0.736346
v -4.309409 1.054217 0.727910
v -4.309700 1.055424 0.729177
v -4.307449 1.053184 0.728826
v -4.308665 1.051904 0.728987
v -4.307991 1.055026 0.728926
v -4.307292 1.054154 0.730302
v -4.308236 1.052735 0.728263
v -4.308665 1.051904 0.728987
v -4.308236 1.052735 0.728263
v -4.310002 1.052608 0.728363
v -4.307340 1.054203 0.729121
v -4.307449 1.053184 0.728826
v -4.307459 1.052591 0.729850
v -4.307292 1.054154 0.730302
v -4.307340 1.054203 0.729121
v -4.307459 1.052591 0.729850
v -4.308912 1.055032 0.728387
v -4.307991 1.055026 0.728926
v -4.308289 1.055414 0.730002
v -4.309700 1.055424 0.729177
v -4.308912 1.055032 0.728387
v -4.308289 1.055414 0.730002
v -4.310592 1.051534 0.732276
v -4.309621 1.052087 0.732971
v -4.308831 1.051955 0.732373
v -4.310592 1.051534 0.732276
v -4.309486 1.053346 0.733335
v -4.310289 1.054360 0.733094
v -4.309713 1.054957 0.732535
v -4.309486 1.053346 0.733335
v -4.311425 1.054368 0.732429
v -4.312039 1.053362 0.731841
v -4.312026 1.053639 0.730881
v -4.311425 1.054368 0.732429
v -4.310114 1.051223 0.731455
v -4.311668 1.052101 0.731773
v -4.310592 1.051534 0.732276
v -4.310114 1.051223 0.731455
v -4.311668 1.052101 0.731773
v -4.308652 1.053616 0.732854
v -4.308831 1.051955 0.732373
v -4.309621 1.052087 0.732971
v -4.309486 1.053346 0.733335
v -4.308652 1.053616 0.732854
v -4.309621 1.052087 0.732971
v -4.311214 1.054967 0.731657
v -4.309713 1.054957 0.732535
v -4.310289 1.054360 0.733094
v -4.311425 1.054368 0.732429
v -4.311214 1.054967 0.731657
v -4.310289 1.054360 0.733094
v -4.311536 1.051972 0.730791
v -4.312026 1.053639 0.730881
v -4.312039 1.053362 0.731841
v -4.311668 1.052101 0.731773
v -4.311536 1.051972 0.730791
v -4.312039 1.053362 0.731841
v -4.312026 1.053639 0.730881
v -4.311536 1.051972 0.730791
v -4.310992 1.052067 0.729381
v -4.312026 1.053639 0.730881
v -4.310002 1.052608 0.728363
v -4.310462 1.054175 0.728447
v -4.311558 1.053992 0.729484
v -4.310992 1.052067 0.729381
v -4.310002 1.052608 0.728363
v -4.311558 1.053992 0.729484
v -4.311558 1.053992 0.729484
v -4.311214 1.054967 0.731657
v -4.312026 1.053639 0.730881
v -4.311558 1.053992 0.729484
v -4.311214 1.054967 0.731657
v -4.310462 1.054175 0.728447
v -4.309700 1.055424 0.729177
v -4.310621 1.055527 0.730381
v -4.311558 1.053992 0.729484
v -4.310462 1.054175 0.728447
v -4.310621 1.055527 0.730381
v -4.310621 1.055527 0.730381
v -4.309713 1.054957 0.732535
v -4.311214 1.054967 0.731657
v -4.310621 1.055527 0.730381
v -4.309713 1.054957 0.732535
v -4.309700 1.055424 0.729177
v -4.308289 1.055414 0.730002
v -4.308887 1.055515 0.731396
v -4.310621 1.055527 0.730381
v -4.309700 1.055424 0.729177
v -4.308887 1.055515 0.731396
v -4.308887 1.055515 0.731396
v -4.308652 1.053616 0.732854
v -4.309713 1.054957 0.732535
v -4.308887 1.055515 0.731396
v -4.308652 1.053616 0.732854
v -4.308289 1.055414 0.730002
v -4.307292 1.054154 0.730302
v -4.307661 1.053967 0.731764
v -4.308887 1.055515 0.731396
v -4.308289 1.055414 0.730002
v -4.307661 1.053967 0.731764
v -4.307661 1.053967 0.731764
v -4.308831 1.051955 0.732373
v -4.308652 1.053616 0.732854
v -4.307661 1.053967 0.731764
v -4.308831 1.051955 0.732373
v -4.307292 1.054154 0.730302
v -4.307459 1.052591 0.729850
v -4.307867 1.052047 0.731209
v -4.307661 1.053967 0.731764
v -4.307292 1.054154 0.730302
v -4.307867 1.052047 0.731209
v -4.307867 1.052047 0.731209
v -4.310114 1.051223 0.731455
v -4.308831 1.051955 0.732373
v -4.307867 1.052047 0.731209
v -4.310114 1.051223 0.731455
v -4.307459 1.052591 0.729850
v -4.308665 1.051904 0.728987
v -4.309350 1.051201 0.730148
v -4.307867 1.052047 0.731209
v -4.307459 1.052591 0.729850
v -4.309350 1.051201 0.730148
v -4.309350 1.051201 0.730148
v -4.310992 1.052067 0.729381
v -4.311536 1.051972 0.730791
v -4.310114 1.051223 0.731455
v -4.309350 1.051201 0.730148
v -4.311536 1.051972 0.730791
v -4.308665 1.051904 0.728987
v -4.310002 1.052608 0.728363
v -4.310992 1.052067 0.729381
v -4.309350 1.051201 0.730148
v -4.308665 1.051904 0.728987
v -4.310992 1.052067 0.729381
v -4.309109 1.053195 0.727855
v -4.309409 1.054217 0.727910
v -4.310462 1.054175 0.728447
v -4.310002 1.052608 0.728363
v -4.309109 1.053195 0.727855
v -4.310462 1.054175 0.728447
v -4.308912 1.055032 0.728387
v -4.309409 1.054217 0.727910
v -4.307991 1.055026 0.728926
v -4.309109 1.053195 0.727855
v -4.307991 1.055026 0.728926
v -4.309409 1.054217 0.727910
v -4.307340 1.054203 0.729121
v -4.307991 1.055026 0.728926
v -4.309109 1.053195 0.727855
v -4.308236 1.052735 0.728263
v -4.307340 1.054203 0.729121
v -4.309109 1.053195 0.727855
v -4.307449 1.053184 0.728826
v -4.307340 1.054203 0.729121
v -4.308236 1.052735 0.728263
v -4.314187 1.053415 0.737047
v -4.312971 1.053407 0.737758
v -4.314844 1.052339 0.736419
v -4.314447 1.050990 0.736346
v -4.314844 1.052339 0.736419
v -4.312971 1.053407 0.737758
v -4.312112 1.052321 0.738017
v -4.314447 1.050990 0.736346
v -4.312971 1.053407 0.737758
v -4.313295 1.050383 0.736884
v -4.314447 1.050990 0.736346
v -4.312112 1.052321 0.738017
v -4.312256 1.050976 0.737627
v -4.313295 1.050383 0.736884
v -4.312112 1.052321 0.738017
vn -0.4966 -0.1916 0.8466
vn 0.4620 -0.3952 -0.7940
vn 0.8730 0.2783 -0.4005
vn 0.8229 -0.1894 -0.5357
vn 0.0619 -0.1843 -0.9809
vn 0.8730 0.2782 -0.4005
vn 0.4619 -0.3952 -0.7940
vn 0.0619 -0.1844 -0.9809
vn 0.5745 0.6555 -0.4902
vn -0.0759 0.2845 -0.9557
vn 0.5746 0.6554 -0.4902
vn -0.0760 0.2844 -0.9557
vn 0.1522 0.6582 -0.7373
vn -0.5842 0.2826 -0.7608
vn -0.3610 -0.4764 -0.8017
vn -0.5983 -0.5998 -0.5312
vn 0.2866 -0.8178 -0.4990
vn 0.1106 -0.9735 -0.2001
vn -0.5983 -0.5998 -0.5313
vn 0.2866 -0.8178 -0.4991
vn -0.7488 -0.6365 -0.1847
vn 0.1107 -0.9735 -0.2000
vn -0.0810 -0.9886 0.1273
vn 0.1107 -0.9735 -0.2001
vn 0.8710 -0.4845 -0.0809
vn 0.7504 -0.6087 0.2577
vn -0.0809 -0.9885 0.1274
vn 0.5217 -0.6449 0.5585
vn 0.9522 0.2725 0.1381
vn 0.8392 0.2200 0.4973
vn 0.8711 -0.4845 -0.0808
vn 0.9522 0.2725 0.1380
vn 0.5217 -0.6449 0.5586
vn 0.6054 0.1358 0.7843
vn 0.8392 0.2200 0.4974
vn 0.4689 0.8832 -0.0072
vn 0.3103 0.8884 0.3383
vn 0.4690 0.8832 -0.0072
vn 0.6053 0.1358 0.7843
vn 0.3102 0.8884 0.3384
vn 0.1071 0.7655 0.6345
vn -0.2148 0.8877 -0.4073
vn -0.4382 0.8933 -0.0996
vn 0.1070 0.7655 0.6345
vn -0.5980 0.7701 0.2220
vn 0.3102 0.8884 0.3383
vn -0.4383 0.8933 -0.0996
vn -0.8425 0.2310 -0.4866
vn -0.2148 0.8877 -0.4072
vn -0.5981 0.7701 0.2220
vn -0.9789 0.1462 -0.1426
vn -0.8426 0.2309 -0.4866
vn -0.3611 -0.4764 -0.8017
vn -0.7488 -0.6365 -0.1848
vn -0.9617 0.1661 -0.2180
vn -0.7257 -0.6365 -0.2612
vn 0.1519 0.8012 0.5788
vn -0.5712 0.8059 0.1559
vn 0.5771 -0.6450 0.5010
vn 0.6628 0.1555 0.7325
vn 0.5770 -0.6450 0.5010
vn 0.5217 -0.6448 0.5586
vn -0.0410 -0.9974 0.0588
vn -0.7258 -0.6364 -0.2612
vn -0.5711 0.8059 0.1558
vn -0.5711 0.8059 0.1559
vn 0.6628 0.1555 0.7324
vn 0.1518 0.8012 0.5789
vn 0.6628 0.1554 0.7325
vn -0.0409 -0.9974 0.0588
vn 0.1521 0.6582 -0.7373
vn 0.8711 -0.4845 -0.0809
vn -0.3610 -0.4765 -0.8017
vn -0.3610 -0.4765 -0.8016
vn 0.5745 0.6554 -0.4902
vn 0.8229 -0.1894 -0.5356
vn -0.0759 0.2844 -0.9557
vn -0.6078 -0.6037 -0.5159
vn 0.1015 -0.9776 -0.1845
vn -0.6077 -0.6037 -0.5160
vn -0.4477 0.8902 -0.0840
vn -0.8522 0.2276 -0.4712
vn -0.5712 0.8059 0.1558
vn 0.8304 0.2166 0.5133
vn 0.1518 0.8012 0.5788
vn 0.3013 0.8853 0.3542
vn 0.8305 0.2166 0.5132
vn 0.7416 -0.6126 0.2735
vn 0.1016 -0.9776 -0.1845
vn 0.3012 0.8853 0.3542
vn -0.4476 0.8903 -0.0840
vn 0.3013 0.8853 0.3541
vn 0.6629 0.1554 0.7324
vn 0.8305 0.2166 0.5133
vn 0.6628 0.1554 0.7324
vt 0.530319 0.635056
vt 0.522446 0.641335
vt 0.524872 0.636299
vt 0.524872 0.646370
vt 0.534683 0.638535
vt 0.530319 0.647614
vt 0.534683 0.644127
vt 0.508789 0.671494
vt 0.513626 0.669548
vt 0.511276 0.672157
vt 0.507889 0.669609
vt 0.511566 0.666756
vt 0.507935 0.667854
vt 0.509277 0.666748
vt 0.506302 0.666855
vt 0.505722 0.669838
vt 0.502487 0.669685
vt 0.506897 0.673050
vt 0.503479 0.674789
vt 0.497520 0.669067
vt 0.497810 0.676537
vt 0.510727 0.675606
vt 0.507721 0.680244
vt 0.501465 0.684982
vt 0.518890 0.674767
vt 0.518692 0.686485
vt 0.509125 0.696274
vt 0.518890 0.658051
vt 0.512238 0.663902
vt 0.511536 0.659698
vt 0.517990 0.665543
vt 0.515472 0.651657
vt 0.509323 0.655174
vt 0.508469 0.664742
vt 0.506836 0.661980
vt 0.504074 0.658463
vt 0.503784 0.665283
vt 0.499901 0.662933
vt 0.495453 0.660286
vt 0.491707 0.668175
vt 0.506927 0.651588
vt 0.501038 0.654999
vt 0.494583 0.688484
vt 0.500031 0.699394
vt 0.491287 0.678001
vt 0.512177 0.648293
vt 0.627350 0.642853
vt 0.649124 0.647896
vt 0.627441 0.648445
vt 0.649033 0.642670
vt 0.627441 0.631676
vt 0.649033 0.637444
vt 0.627350 0.637268
vt 0.649124 0.632225
vt 0.627914 0.620506
vt 0.649292 0.626999
vt 0.627625 0.626091
vt 0.649551 0.621780
vt 0.649292 0.653114
vt 0.627625 0.654030
vt 0.649551 0.658333
vt 0.627914 0.659607
s 0
usemtl decorations
f 240/1/1 239/2/1 238/3/1
f 237/1/1 236/4/1 235/2/1
f 234/5/1 233/4/1 232/1/1
f 231/5/1 230/6/1 229/4/1
f 228/6/1 227/5/1 226/7/1
s 1
f 225/8/2 224/9/3 223/10/4
f 222/11/5 221/9/6 220/8/7
f 219/11/8 218/12/9 217/9/3
f 216/13/10 215/12/11 214/11/8
f 213/12/9 212/13/12 211/14/13
f 210/15/14 209/11/8 208/16/15
f 207/15/14 206/13/10 205/11/5
f 204/17/16 203/18/17 202/19/18
f 201/17/19 200/16/15 199/18/20
f 198/20/21 197/19/22 196/21/23
f 195/20/21 194/17/19 193/19/24
f 192/19/18 191/22/25 190/23/26
f 189/19/18 188/18/17 187/22/25
f 186/21/27 185/23/26 184/24/28
f 183/21/27 3/19/18 182/23/26
f 181/23/26 180/25/29 179/26/30
f 178/23/26 177/22/31 176/25/32
f 175/24/33 174/26/30 173/27/34
f 172/24/33 4/23/26 171/26/30
f 170/28/35 169/29/36 168/30/37
f 167/28/35 166/31/29 165/29/38
f 164/32/39 163/30/40 162/33/41
f 161/32/39 13/28/30 160/30/37
f 159/30/37 158/34/42 157/35/43
f 156/30/37 155/29/36 154/34/42
f 153/33/44 152/35/43 151/36/45
f 150/33/44 14/30/46 149/35/43
f 148/35/47 147/15/14 146/37/48
f 145/35/47 144/34/49 143/15/14
f 142/36/50 141/37/48 140/38/51
f 139/36/50 16/35/43 138/37/48
f 137/37/52 136/16/53 135/17/19
f 134/37/48 133/15/14 132/16/15
f 131/38/51 130/17/19 129/20/54
f 128/38/51 36/37/48 25/17/19
f 127/39/55 126/20/54 125/40/56
f 124/39/55 123/38/51 122/20/54
f 121/41/57 120/36/45 119/42/58
f 118/41/57 117/33/44 116/36/45
f 115/43/59 114/27/34 113/44/60
f 112/43/61 111/24/62 110/27/34
f 109/40/56 108/21/23 107/45/63
f 106/40/64 40/20/21 105/21/23
f 104/42/65 103/38/51 102/39/55
f 101/42/66 41/36/45 42/38/51
f 100/46/67 99/33/41 98/41/68
f 97/46/69 37/32/39 38/33/41
f 96/45/70 95/24/33 94/43/61
f 93/45/70 33/21/23 34/24/33
f 92/29/36 91/14/13 90/34/42
f 89/29/36 88/12/11 87/14/71
f 86/22/72 85/9/3 84/25/32
f 83/22/31 82/10/4 81/9/6
f 80/16/73 79/8/2 78/18/20
f 29/16/74 30/11/5 77/8/7
f 76/31/32 75/12/75 28/29/38
f 31/31/32 26/9/6 27/12/11
f 74/18/17 73/10/76 24/22/25
f 21/18/17 22/8/7 23/10/4
f 72/34/42 71/13/77 20/15/14
f 17/34/42 18/14/13 19/13/10
f 70/47/78 69/48/70 68/49/79
f 67/47/80 66/50/64 65/48/63
f 64/51/81 63/52/55 62/53/82
f 61/51/81 60/54/83 59/52/55
f 58/55/84 57/56/85 56/57/86
f 55/55/87 54/58/69 53/56/68
f 52/49/79 51/59/61 50/60/88
f 2/49/89 32/48/63 49/59/61
f 48/53/82 47/50/56 12/47/78
f 9/53/82 10/52/55 11/50/56
f 46/57/90 45/54/83 8/51/91
f 5/57/92 6/56/85 7/54/58
f 44/60/88 43/61/93 15/62/94
f 1/60/88 35/59/61 39/61/95
