# Blender 5.0.0
# www.blender.org
mtllib Circle_005_Circle_Dupli_23_decorations_0.mtl
o Circle.005|Circle|Dupli|23_decorations_0
v -4.135291 1.010250 0.558581
v -4.135773 1.008931 0.558472
v -4.135075 1.008997 0.550655
v -4.134387 1.010878 0.550809
v -4.137421 1.011629 0.558621
v -4.137237 1.011921 0.553167
v -4.138179 1.011007 0.553075
v -4.138429 1.010651 0.558523
v -4.138290 1.009253 0.558426
v -4.138049 1.009700 0.552985
v -4.136944 1.008984 0.552964
v -4.137108 1.008487 0.558403
v -4.135432 1.012591 0.550904
v -4.137425 1.012846 0.550867
v -4.136024 1.011450 0.558647
v -4.138864 1.011450 0.550726
v -4.138419 1.011407 0.549274
v -4.137777 1.011253 0.548292
v -4.137671 1.010193 0.548219
v -4.138258 1.009784 0.549162
v -4.135335 1.009410 0.549216
v -4.135765 1.009950 0.548254
v -4.135399 1.010949 0.548336
v -4.134775 1.010941 0.549341
v -4.136979 1.008364 0.550556
v -4.135954 1.011858 0.548386
v -4.137013 1.011994 0.548367
v -4.137248 1.012542 0.549388
v -4.136885 1.008895 0.549136
v -4.136776 1.009613 0.548202
v -4.135626 1.012335 0.549418
v -4.135696 1.009399 0.553028
v -4.135333 1.009113 0.552142
v -4.134737 1.010742 0.552276
v -4.135245 1.010632 0.553129
v -4.138666 1.009456 0.550588
v -4.135642 1.012224 0.552358
v -4.137367 1.012445 0.552326
v -4.135931 1.011754 0.553191
v -4.136981 1.008565 0.552057
v -4.138612 1.011237 0.552204
v -4.138441 1.009511 0.552085
v -4.135931 1.011754 0.553191
v -4.135291 1.010250 0.558581
v -4.138179 1.011007 0.553075
v -4.137421 1.011629 0.558621
v -4.136944 1.008984 0.552964
v -4.138290 1.009253 0.558426
v -4.135245 1.010632 0.553129
v -4.135291 1.010250 0.558581
v -4.135245 1.010632 0.553129
v -4.135773 1.008931 0.558472
v -4.137237 1.011921 0.553167
v -4.135931 1.011754 0.553191
v -4.136024 1.011450 0.558647
v -4.137421 1.011629 0.558621
v -4.137237 1.011921 0.553167
v -4.136024 1.011450 0.558647
v -4.138049 1.009700 0.552985
v -4.138179 1.011007 0.553075
v -4.138429 1.010651 0.558523
v -4.138290 1.009253 0.558426
v -4.138049 1.009700 0.552985
v -4.138429 1.010651 0.558523
v -4.135696 1.009399 0.553028
v -4.136944 1.008984 0.552964
v -4.137108 1.008487 0.558403
v -4.135773 1.008931 0.558472
v -4.135696 1.009399 0.553028
v -4.137108 1.008487 0.558403
v -4.137671 1.010193 0.548219
v -4.138419 1.011407 0.549274
v -4.135399 1.010949 0.548336
v -4.135335 1.009410 0.549216
v -4.137013 1.011994 0.548367
v -4.135626 1.012335 0.549418
v -4.135765 1.009950 0.548254
v -4.135335 1.009410 0.549216
v -4.135765 1.009950 0.548254
v -4.136885 1.008895 0.549136
v -4.135954 1.011858 0.548386
v -4.135399 1.010949 0.548336
v -4.134775 1.010941 0.549341
v -4.135626 1.012335 0.549418
v -4.135954 1.011858 0.548386
v -4.134775 1.010941 0.549341
v -4.137777 1.011253 0.548292
v -4.137013 1.011994 0.548367
v -4.137248 1.012542 0.549388
v -4.138419 1.011407 0.549274
v -4.137777 1.011253 0.548292
v -4.137248 1.012542 0.549388
v -4.135696 1.009399 0.553028
v -4.135245 1.010632 0.553129
v -4.134737 1.010742 0.552276
v -4.135696 1.009399 0.553028
v -4.135931 1.011754 0.553191
v -4.137237 1.011921 0.553167
v -4.137367 1.012445 0.552326
v -4.135931 1.011754 0.553191
v -4.138179 1.011007 0.553075
v -4.138049 1.009700 0.552985
v -4.138441 1.009511 0.552085
v -4.138179 1.011007 0.553075
v -4.135333 1.009113 0.552142
v -4.136944 1.008984 0.552964
v -4.135696 1.009399 0.553028
v -4.135333 1.009113 0.552142
v -4.136944 1.008984 0.552964
v -4.135642 1.012224 0.552358
v -4.134737 1.010742 0.552276
v -4.135245 1.010632 0.553129
v -4.135931 1.011754 0.553191
v -4.135642 1.012224 0.552358
v -4.135245 1.010632 0.553129
v -4.138612 1.011237 0.552204
v -4.137367 1.012445 0.552326
v -4.137237 1.011921 0.553167
v -4.138179 1.011007 0.553075
v -4.138612 1.011237 0.552204
v -4.137237 1.011921 0.553167
v -4.136981 1.008565 0.552057
v -4.138441 1.009511 0.552085
v -4.138049 1.009700 0.552985
v -4.136944 1.008984 0.552964
v -4.136981 1.008565 0.552057
v -4.138049 1.009700 0.552985
v -4.138441 1.009511 0.552085
v -4.136981 1.008565 0.552057
v -4.136979 1.008364 0.550556
v -4.138441 1.009511 0.552085
v -4.136885 1.008895 0.549136
v -4.138258 1.009784 0.549162
v -4.138666 1.009456 0.550588
v -4.136979 1.008364 0.550556
v -4.136885 1.008895 0.549136
v -4.138666 1.009456 0.550588
v -4.138666 1.009456 0.550588
v -4.138612 1.011237 0.552204
v -4.138441 1.009511 0.552085
v -4.138666 1.009456 0.550588
v -4.138612 1.011237 0.552204
v -4.138258 1.009784 0.549162
v -4.138419 1.011407 0.549274
v -4.138864 1.011450 0.550726
v -4.138666 1.009456 0.550588
v -4.138258 1.009784 0.549162
v -4.138864 1.011450 0.550726
v -4.138864 1.011450 0.550726
v -4.137367 1.012445 0.552326
v -4.138612 1.011237 0.552204
v -4.138864 1.011450 0.550726
v -4.137367 1.012445 0.552326
v -4.138419 1.011407 0.549274
v -4.137248 1.012542 0.549388
v -4.137425 1.012846 0.550867
v -4.138864 1.011450 0.550726
v -4.138419 1.011407 0.549274
v -4.137425 1.012846 0.550867
v -4.137425 1.012846 0.550867
v -4.135642 1.012224 0.552358
v -4.137367 1.012445 0.552326
v -4.137425 1.012846 0.550867
v -4.135642 1.012224 0.552358
v -4.137248 1.012542 0.549388
v -4.135626 1.012335 0.549418
v -4.135432 1.012591 0.550904
v -4.137425 1.012846 0.550867
v -4.137248 1.012542 0.549388
v -4.135432 1.012591 0.550904
v -4.135432 1.012591 0.550904
v -4.134737 1.010742 0.552276
v -4.135642 1.012224 0.552358
v -4.135432 1.012591 0.550904
v -4.134737 1.010742 0.552276
v -4.135626 1.012335 0.549418
v -4.134775 1.010941 0.549341
v -4.134387 1.010878 0.550809
v -4.135432 1.012591 0.550904
v -4.135626 1.012335 0.549418
v -4.134387 1.010878 0.550809
v -4.134387 1.010878 0.550809
v -4.135333 1.009113 0.552142
v -4.134737 1.010742 0.552276
v -4.134387 1.010878 0.550809
v -4.135333 1.009113 0.552142
v -4.134775 1.010941 0.549341
v -4.135335 1.009410 0.549216
v -4.135075 1.008997 0.550655
v -4.134387 1.010878 0.550809
v -4.134775 1.010941 0.549341
v -4.135075 1.008997 0.550655
v -4.135075 1.008997 0.550655
v -4.136979 1.008364 0.550556
v -4.136981 1.008565 0.552057
v -4.135333 1.009113 0.552142
v -4.135075 1.008997 0.550655
v -4.136981 1.008565 0.552057
v -4.135335 1.009410 0.549216
v -4.136885 1.008895 0.549136
v -4.136979 1.008364 0.550556
v -4.135075 1.008997 0.550655
v -4.135335 1.009410 0.549216
v -4.136979 1.008364 0.550556
v -4.136776 1.009613 0.548202
v -4.137671 1.010193 0.548219
v -4.138258 1.009784 0.549162
v -4.136885 1.008895 0.549136
v -4.136776 1.009613 0.548202
v -4.138258 1.009784 0.549162
v -4.137777 1.011253 0.548292
v -4.137671 1.010193 0.548219
v -4.137013 1.011994 0.548367
v -4.136776 1.009613 0.548202
v -4.137013 1.011994 0.548367
v -4.137671 1.010193 0.548219
v -4.135954 1.011858 0.548386
v -4.137013 1.011994 0.548367
v -4.136776 1.009613 0.548202
v -4.135765 1.009950 0.548254
v -4.135954 1.011858 0.548386
v -4.136776 1.009613 0.548202
v -4.135399 1.010949 0.548336
v -4.135954 1.011858 0.548386
v -4.135765 1.009950 0.548254
v -4.138429 1.010651 0.558523
v -4.137421 1.011629 0.558621
v -4.138290 1.009253 0.558426
v -4.137108 1.008487 0.558403
v -4.138290 1.009253 0.558426
v -4.137421 1.011629 0.558621
v -4.136024 1.011450 0.558647
v -4.137108 1.008487 0.558403
v -4.137421 1.011629 0.558621
v -4.135773 1.008931 0.558472
v -4.137108 1.008487 0.558403
v -4.136024 1.011450 0.558647
v -4.135291 1.010250 0.558581
v -4.135773 1.008931 0.558472
v -4.136024 1.011450 0.558647
vn -0.0276 -0.0718 0.9970
vn 0.4161 -0.3444 -0.8416
vn 0.3289 0.5309 -0.7810
vn 0.5837 0.1137 -0.8040
vn -0.0478 -0.4986 -0.8655
vn 0.3290 0.5309 -0.7810
vn 0.4160 -0.3444 -0.8416
vn -0.0477 -0.4986 -0.8655
vn -0.1564 0.5929 -0.7899
vn -0.4584 -0.2326 -0.8577
vn -0.1563 0.5929 -0.7899
vn -0.4584 -0.2327 -0.8577
vn -0.5068 0.2531 -0.8241
vn -0.7678 -0.4434 -0.4625
vn -0.1029 -0.8739 -0.4752
vn -0.4584 -0.2326 -0.8578
vn -0.0477 -0.4985 -0.8656
vn -0.1239 -0.9859 -0.1123
vn 0.6479 -0.6243 -0.4364
vn 0.6979 -0.7127 -0.0700
vn -0.1240 -0.9859 -0.1124
vn -0.1029 -0.8739 -0.4751
vn -0.1270 -0.9555 0.2661
vn 0.6980 -0.7127 -0.0699
vn 0.6472 -0.6982 0.3060
vn -0.1239 -0.9859 -0.1124
vn 0.9193 0.1174 -0.3755
vn 0.9951 0.0992 -0.0033
vn 0.6480 -0.6243 -0.4364
vn 0.9194 0.1174 -0.3755
vn 0.6473 -0.6982 0.3060
vn 0.9271 0.0666 0.3688
vn 0.6980 -0.7127 -0.0700
vn 0.5070 0.7928 -0.3382
vn 0.5436 0.8385 0.0375
vn 0.9194 0.1175 -0.3755
vn 0.5070 0.7928 -0.3383
vn 0.9271 0.0667 0.3689
vn 0.5019 0.7631 0.4072
vn 0.9271 0.0667 0.3688
vn -0.2787 0.8933 -0.3527
vn -0.3163 0.9484 0.0216
vn -0.2787 0.8933 -0.3528
vn 0.5018 0.7631 0.4072
vn -0.3163 0.9484 0.0217
vn -0.3083 0.8667 0.3922
vn -0.8460 0.3431 -0.4081
vn -0.9374 0.3462 -0.0389
vn -0.3083 0.8666 0.3923
vn -0.8933 0.2993 0.3352
vn -0.9374 0.3461 -0.0389
vn -0.7678 -0.4433 -0.4625
vn -0.8517 -0.5147 -0.0986
vn -0.8460 0.3431 -0.4080
vn -0.7678 -0.4433 -0.4626
vn -0.8517 -0.5147 -0.0985
vn -0.8127 -0.5116 0.2790
vn -0.1030 -0.8738 -0.4752
vn -0.8126 -0.5116 0.2791
vn -0.1270 -0.9556 0.2660
vn -0.8517 -0.5146 -0.0986
vn -0.8309 -0.5186 0.2016
vn -0.1271 -0.9556 0.2660
vn -0.1279 -0.9737 0.1883
vn -0.8126 -0.5116 0.2790
vn -0.3138 0.8948 0.3177
vn -0.8933 0.2994 0.3352
vn -0.9137 0.3130 0.2592
vn 0.9530 0.0745 0.2937
vn 0.5169 0.7886 0.3331
vn -0.1279 -0.9738 0.1883
vn 0.6660 -0.7099 0.2293
vn -0.1271 -0.9555 0.2661
vn -0.8309 -0.5185 0.2016
vn 0.5169 0.7886 0.3330
vn -0.3083 0.8667 0.3923
vn -0.3138 0.8947 0.3177
vn 0.6660 -0.7098 0.2292
vn 0.6660 -0.7099 0.2292
vn -0.2788 0.8932 -0.3527
vn -0.5067 0.2531 -0.8241
vn 0.9193 0.1175 -0.3755
vn 0.5069 0.7928 -0.3383
vn -0.4584 -0.2327 -0.8578
vn -0.1245 -0.9878 -0.0940
vn 0.6978 -0.7144 -0.0516
vn -0.9384 0.3450 -0.0205
vn -0.8527 -0.5162 -0.0802
vn 0.5434 0.8376 0.0560
vn -0.3170 0.9476 0.0401
vn 0.5434 0.8376 0.0559
vn 0.5170 0.7886 0.3331
vn 0.6978 -0.7144 -0.0515
vn 0.9530 0.0745 0.2936
vn 0.9951 0.0979 0.0152
vn 0.9530 0.0744 0.2937
vn -0.8527 -0.5163 -0.0802
vn -0.3170 0.9476 0.0400
vn 0.5170 0.7886 0.3330
vn 0.9951 0.0979 0.0151
vt 0.543243 0.611839
vt 0.535370 0.618118
vt 0.537796 0.613083
vt 0.537796 0.623154
vt 0.547607 0.615326
vt 0.543243 0.624397
vt 0.547607 0.620918
vt 0.565384 0.671494
vt 0.570206 0.669548
vt 0.567856 0.672157
vt 0.564468 0.669609
vt 0.568146 0.666756
vt 0.564514 0.667854
vt 0.565857 0.666748
vt 0.562897 0.666855
vt 0.562302 0.669838
vt 0.559082 0.669685
vt 0.563492 0.673050
vt 0.560059 0.674789
vt 0.554092 0.669067
vt 0.554398 0.676537
vt 0.567307 0.675606
vt 0.564316 0.680244
vt 0.558044 0.684982
vt 0.575485 0.674767
vt 0.575272 0.686485
vt 0.565720 0.696274
vt 0.575485 0.658051
vt 0.568817 0.663902
vt 0.568115 0.659698
vt 0.574570 0.665543
vt 0.572052 0.651657
vt 0.565903 0.655174
vt 0.565063 0.664742
vt 0.563416 0.661980
vt 0.560669 0.658463
vt 0.560364 0.665283
vt 0.556488 0.662933
vt 0.552032 0.660286
vt 0.548294 0.668175
vt 0.563522 0.651588
vt 0.557617 0.654999
vt 0.551163 0.688484
vt 0.556610 0.699394
vt 0.547867 0.678001
vt 0.568756 0.648293
vt 0.604446 0.682632
vt 0.626221 0.687675
vt 0.604553 0.688225
vt 0.626144 0.682457
vt 0.604553 0.671455
vt 0.626144 0.677231
vt 0.604446 0.677048
vt 0.626221 0.672005
vt 0.605011 0.660294
vt 0.626404 0.666786
vt 0.604736 0.665871
vt 0.626663 0.661568
vt 0.626404 0.692902
vt 0.604736 0.693810
vt 0.626663 0.698120
vt 0.605011 0.699394
s 0
usemtl decorations
f 240/1/1 239/2/1 238/3/1
f 237/1/1 236/4/1 235/2/1
f 234/5/1 233/4/1 232/1/1
f 231/5/1 230/6/1 229/4/1
f 228/6/1 227/5/1 226/7/1
s 1
f 225/8/2 224/9/3 223/10/4
f 222/11/5 221/9/6 220/8/7
f 219/11/8 218/12/9 217/9/3
f 216/13/10 215/12/11 214/11/8
f 213/12/9 212/13/12 211/14/13
f 210/15/14 209/11/8 208/16/15
f 207/15/14 206/13/16 205/11/17
f 204/17/18 203/18/19 202/19/20
f 201/17/21 200/16/22 199/18/19
f 198/20/23 197/19/24 196/21/25
f 195/20/23 194/17/26 193/19/20
f 192/19/20 191/22/27 190/23/28
f 189/19/20 188/18/29 187/22/30
f 186/21/31 185/23/28 184/24/32
f 183/21/31 3/19/33 182/23/28
f 181/23/28 180/25/34 179/26/35
f 178/23/28 177/22/36 176/25/37
f 175/24/38 174/26/35 173/27/39
f 172/24/40 4/23/28 171/26/35
f 170/28/35 169/29/41 168/30/42
f 167/28/35 166/31/34 165/29/43
f 164/32/44 163/30/45 162/33/46
f 161/32/44 13/28/35 160/30/42
f 159/30/42 158/34/47 157/35/48
f 156/30/42 155/29/41 154/34/47
f 153/33/49 152/35/48 151/36/50
f 150/33/49 14/30/42 149/35/48
f 148/35/51 147/15/52 146/37/53
f 145/35/51 144/34/54 143/15/55
f 142/36/50 141/37/56 140/38/57
f 139/36/50 16/35/48 138/37/56
f 137/37/56 136/16/22 135/17/26
f 134/37/53 133/15/14 132/16/58
f 131/38/59 130/17/26 129/20/60
f 128/38/59 36/37/61 25/17/26
f 127/39/62 126/20/63 125/40/64
f 124/39/62 123/38/65 122/20/63
f 121/41/66 120/36/67 119/42/68
f 118/41/66 117/33/49 116/36/67
f 115/43/69 114/27/39 113/44/70
f 112/43/69 111/24/40 110/27/39
f 109/40/71 108/21/25 107/45/72
f 106/40/64 40/20/73 105/21/25
f 104/42/68 103/38/57 102/39/74
f 101/42/68 41/36/50 42/38/57
f 100/46/75 99/33/76 98/41/77
f 97/46/75 37/32/44 38/33/76
f 96/45/78 95/24/40 94/43/69
f 93/45/79 33/21/25 34/24/40
f 92/29/80 91/14/81 90/34/47
f 89/29/80 88/12/11 87/14/13
f 86/22/82 85/9/3 84/25/37
f 83/22/82 82/10/4 81/9/3
f 80/16/22 79/8/2 78/18/19
f 29/16/22 30/11/5 77/8/7
f 76/31/83 75/12/11 28/29/43
f 31/31/83 26/9/3 27/12/11
f 74/18/19 73/10/4 24/22/30
f 21/18/29 22/8/7 23/10/4
f 72/34/47 71/13/84 20/15/52
f 17/34/47 18/14/13 19/13/16
f 70/47/85 69/48/79 68/49/86
f 67/47/85 66/50/64 65/48/79
f 64/51/87 63/52/74 62/53/88
f 61/51/87 60/54/68 59/52/74
f 58/55/89 57/56/77 56/57/90
f 55/55/91 54/58/92 53/56/77
f 52/49/93 51/59/94 50/60/95
f 2/49/86 32/48/72 49/59/96
f 48/53/97 47/50/71 12/47/85
f 9/53/97 10/52/74 11/50/64
f 46/57/90 45/54/68 8/51/87
f 5/57/98 6/56/77 7/54/68
f 44/60/95 43/61/99 15/62/89
f 1/60/100 35/59/96 39/61/99
