# Blender 5.0.0
# www.blender.org
mtllib Circle_002_Circle_003_Dupli_185_decorations_0.mtl
o Circle.002|Circle.003|Dupli|185_decorations_0
v -4.678298 1.264953 0.650720
v -4.678808 1.263687 0.651069
v -4.683632 1.266771 0.656436
v -4.682906 1.268577 0.655939
v -4.676219 1.265141 0.652162
v -4.679264 1.267363 0.656118
v -4.679260 1.266223 0.656777
v -4.676214 1.263922 0.652867
v -4.677136 1.262860 0.652790
v -4.680121 1.265231 0.656705
v -4.681201 1.265133 0.655957
v -4.678290 1.262756 0.651990
v -4.681262 1.269501 0.656634
v -4.679939 1.268846 0.657997
v -4.677146 1.265600 0.651207
v -4.679933 1.267106 0.659002
v -4.681050 1.267772 0.659787
v -4.682081 1.268269 0.660086
v -4.682780 1.267465 0.660028
v -4.682121 1.266540 0.659698
v -4.684061 1.267500 0.657699
v -4.684046 1.268091 0.658724
v -4.683661 1.269051 0.658460
v -4.683470 1.268969 0.657295
v -4.682895 1.265442 0.657751
v -4.682787 1.269541 0.658828
v -4.682085 1.269193 0.659552
v -4.681056 1.269188 0.658969
v -4.683461 1.266418 0.658769
v -4.683654 1.267386 0.659422
v -4.682132 1.269721 0.657860
v -4.681684 1.266004 0.655096
v -4.682567 1.266236 0.655503
v -4.681938 1.267799 0.655073
v -4.681208 1.267187 0.654770
v -4.681248 1.265592 0.658892
v -4.680515 1.268599 0.655674
v -4.679369 1.268032 0.656854
v -4.680131 1.267792 0.655225
v -4.681928 1.265086 0.656641
v -4.679364 1.266526 0.657724
v -4.680503 1.265215 0.657629
v -4.680131 1.267792 0.655225
v -4.678298 1.264953 0.650720
v -4.679260 1.266223 0.656777
v -4.676219 1.265141 0.652162
v -4.681201 1.265133 0.655957
v -4.677136 1.262860 0.652790
v -4.681208 1.267187 0.654770
v -4.678298 1.264953 0.650720
v -4.681208 1.267187 0.654770
v -4.678808 1.263687 0.651069
v -4.679264 1.267363 0.656118
v -4.680131 1.267792 0.655225
v -4.677146 1.265600 0.651207
v -4.676219 1.265141 0.652162
v -4.679264 1.267363 0.656118
v -4.677146 1.265600 0.651207
v -4.680121 1.265231 0.656705
v -4.679260 1.266223 0.656777
v -4.676214 1.263922 0.652867
v -4.677136 1.262860 0.652790
v -4.680121 1.265231 0.656705
v -4.676214 1.263922 0.652867
v -4.681684 1.266004 0.655096
v -4.681201 1.265133 0.655957
v -4.678290 1.262756 0.651990
v -4.678808 1.263687 0.651069
v -4.681684 1.266004 0.655096
v -4.678290 1.262756 0.651990
v -4.682780 1.267465 0.660028
v -4.681050 1.267772 0.659787
v -4.683661 1.269051 0.658460
v -4.684061 1.267500 0.657699
v -4.682085 1.269193 0.659552
v -4.682132 1.269721 0.657860
v -4.684046 1.268091 0.658724
v -4.684061 1.267500 0.657699
v -4.684046 1.268091 0.658724
v -4.683461 1.266418 0.658769
v -4.682787 1.269541 0.658828
v -4.683661 1.269051 0.658460
v -4.683470 1.268969 0.657295
v -4.682132 1.269721 0.657860
v -4.682787 1.269541 0.658828
v -4.683470 1.268969 0.657295
v -4.682081 1.268269 0.660086
v -4.682085 1.269193 0.659552
v -4.681056 1.269188 0.658969
v -4.681050 1.267772 0.659787
v -4.682081 1.268269 0.660086
v -4.681056 1.269188 0.658969
v -4.681684 1.266004 0.655096
v -4.681208 1.267187 0.654770
v -4.681938 1.267799 0.655073
v -4.681684 1.266004 0.655096
v -4.680131 1.267792 0.655225
v -4.679264 1.267363 0.656118
v -4.679369 1.268032 0.656854
v -4.680131 1.267792 0.655225
v -4.679260 1.266223 0.656777
v -4.680121 1.265231 0.656705
v -4.680503 1.265215 0.657629
v -4.679260 1.266223 0.656777
v -4.682567 1.266236 0.655503
v -4.681201 1.265133 0.655957
v -4.681684 1.266004 0.655096
v -4.682567 1.266236 0.655503
v -4.681201 1.265133 0.655957
v -4.680515 1.268599 0.655674
v -4.681938 1.267799 0.655073
v -4.681208 1.267187 0.654770
v -4.680131 1.267792 0.655225
v -4.680515 1.268599 0.655674
v -4.681208 1.267187 0.654770
v -4.679364 1.266526 0.657724
v -4.679369 1.268032 0.656854
v -4.679264 1.267363 0.656118
v -4.679260 1.266223 0.656777
v -4.679364 1.266526 0.657724
v -4.679264 1.267363 0.656118
v -4.681928 1.265086 0.656641
v -4.680503 1.265215 0.657629
v -4.680121 1.265231 0.656705
v -4.681201 1.265133 0.655957
v -4.681928 1.265086 0.656641
v -4.680121 1.265231 0.656705
v -4.680503 1.265215 0.657629
v -4.681928 1.265086 0.656641
v -4.682895 1.265442 0.657751
v -4.680503 1.265215 0.657629
v -4.683461 1.266418 0.658769
v -4.682121 1.266540 0.659698
v -4.681248 1.265592 0.658892
v -4.682895 1.265442 0.657751
v -4.683461 1.266418 0.658769
v -4.681248 1.265592 0.658892
v -4.681248 1.265592 0.658892
v -4.679364 1.266526 0.657724
v -4.680503 1.265215 0.657629
v -4.681248 1.265592 0.658892
v -4.679364 1.266526 0.657724
v -4.682121 1.266540 0.659698
v -4.681050 1.267772 0.659787
v -4.679933 1.267106 0.659002
v -4.681248 1.265592 0.658892
v -4.682121 1.266540 0.659698
v -4.679933 1.267106 0.659002
v -4.679933 1.267106 0.659002
v -4.679369 1.268032 0.656854
v -4.679364 1.266526 0.657724
v -4.679933 1.267106 0.659002
v -4.679369 1.268032 0.656854
v -4.681050 1.267772 0.659787
v -4.681056 1.269188 0.658969
v -4.679939 1.268846 0.657997
v -4.679933 1.267106 0.659002
v -4.681050 1.267772 0.659787
v -4.679939 1.268846 0.657997
v -4.679939 1.268846 0.657997
v -4.680515 1.268599 0.655674
v -4.679369 1.268032 0.656854
v -4.679939 1.268846 0.657997
v -4.680515 1.268599 0.655674
v -4.681056 1.269188 0.658969
v -4.682132 1.269721 0.657860
v -4.681262 1.269501 0.656634
v -4.679939 1.268846 0.657997
v -4.681056 1.269188 0.658969
v -4.681262 1.269501 0.656634
v -4.681262 1.269501 0.656634
v -4.681938 1.267799 0.655073
v -4.680515 1.268599 0.655674
v -4.681262 1.269501 0.656634
v -4.681938 1.267799 0.655073
v -4.682132 1.269721 0.657860
v -4.683470 1.268969 0.657295
v -4.682906 1.268577 0.655939
v -4.681262 1.269501 0.656634
v -4.682132 1.269721 0.657860
v -4.682906 1.268577 0.655939
v -4.682906 1.268577 0.655939
v -4.682567 1.266236 0.655503
v -4.681938 1.267799 0.655073
v -4.682906 1.268577 0.655939
v -4.682567 1.266236 0.655503
v -4.683470 1.268969 0.657295
v -4.684061 1.267500 0.657699
v -4.683632 1.266771 0.656436
v -4.682906 1.268577 0.655939
v -4.683470 1.268969 0.657295
v -4.683632 1.266771 0.656436
v -4.683632 1.266771 0.656436
v -4.682895 1.265442 0.657751
v -4.681928 1.265086 0.656641
v -4.682567 1.266236 0.655503
v -4.683632 1.266771 0.656436
v -4.681928 1.265086 0.656641
v -4.684061 1.267500 0.657699
v -4.683461 1.266418 0.658769
v -4.682895 1.265442 0.657751
v -4.683632 1.266771 0.656436
v -4.684061 1.267500 0.657699
v -4.682895 1.265442 0.657751
v -4.683654 1.267386 0.659422
v -4.682780 1.267465 0.660028
v -4.682121 1.266540 0.659698
v -4.683461 1.266418 0.658769
v -4.683654 1.267386 0.659422
v -4.682121 1.266540 0.659698
v -4.682081 1.268269 0.660086
v -4.682780 1.267465 0.660028
v -4.682085 1.269193 0.659552
v -4.683654 1.267386 0.659422
v -4.682085 1.269193 0.659552
v -4.682780 1.267465 0.660028
v -4.682787 1.269541 0.658828
v -4.682085 1.269193 0.659552
v -4.683654 1.267386 0.659422
v -4.684046 1.268091 0.658724
v -4.682787 1.269541 0.658828
v -4.683654 1.267386 0.659422
v -4.683661 1.269051 0.658460
v -4.682787 1.269541 0.658828
v -4.684046 1.268091 0.658724
v -4.676214 1.263922 0.652867
v -4.676219 1.265141 0.652162
v -4.677136 1.262860 0.652790
v -4.678290 1.262756 0.651990
v -4.677136 1.262860 0.652790
v -4.676219 1.265141 0.652162
v -4.677146 1.265600 0.651207
v -4.678290 1.262756 0.651990
v -4.676219 1.265141 0.652162
v -4.678808 1.263687 0.651069
v -4.678290 1.262756 0.651990
v -4.677146 1.265600 0.651207
v -4.678298 1.264953 0.650720
v -4.678808 1.263687 0.651069
v -4.677146 1.265600 0.651207
vn 0.5427 -0.4187 -0.7281
vn -0.9218 0.1915 0.3370
vn -0.3445 0.8562 0.3851
vn -0.7449 0.6313 0.2160
vn -0.7421 -0.1322 0.6571
vn -0.9218 0.1914 0.3370
vn -0.7422 -0.1321 0.6570
vn -0.0223 0.6967 0.7170
vn -0.3411 -0.0958 0.9351
vn -0.7422 -0.1321 0.6571
vn -0.0222 0.6967 0.7170
vn -0.3412 -0.0959 0.9351
vn -0.0208 0.2730 0.9618
vn -0.0482 -0.5441 0.8376
vn -0.6974 -0.6029 0.3875
vn -0.0482 -0.5442 0.8376
vn -0.3412 -0.0958 0.9351
vn -0.5414 -0.8312 0.1264
vn -0.9883 -0.0790 -0.1307
vn -0.8598 -0.2577 -0.4407
vn -0.9883 -0.0790 -0.1306
vn -0.3076 -0.9392 -0.1525
vn -0.8598 -0.2577 -0.4408
vn -0.6076 -0.3990 -0.6868
vn -0.8599 -0.2577 -0.4407
vn -0.7018 0.6331 -0.3266
vn -0.5462 0.5217 -0.6553
vn -0.6075 -0.3989 -0.6868
vn -0.5463 0.5217 -0.6553
vn -0.3122 0.3353 -0.8889
vn -0.0536 0.9972 -0.0529
vn 0.1633 0.9202 -0.3557
vn -0.7018 0.6331 -0.3267
vn -0.0537 0.9972 -0.0529
vn -0.3121 0.3353 -0.8889
vn 0.3562 0.7107 -0.6066
vn 0.4681 0.7391 0.4844
vn 0.7343 0.6377 0.2325
vn 0.1633 0.9202 -0.3556
vn 0.4681 0.7391 0.4845
vn 0.3563 0.7107 -0.6066
vn 0.8942 0.4446 -0.0525
vn 0.7343 0.6378 0.2325
vn 0.4705 0.0532 0.8808
vn 0.7370 -0.1131 0.6664
vn 0.4681 0.7390 0.4845
vn 0.8942 0.4445 -0.0525
vn 0.8967 -0.2627 0.3562
vn 0.7343 0.6377 0.2326
vn 0.7370 -0.1132 0.6664
vn -0.0481 -0.5441 0.8376
vn 0.1692 -0.7668 0.6191
vn 0.4705 0.0531 0.8808
vn -0.0482 -0.5441 0.8377
vn 0.8967 -0.2628 0.3562
vn 0.3619 -0.8786 0.3117
vn 0.1692 -0.7669 0.6191
vn 0.1692 -0.7668 0.6192
vn 0.3250 -0.8654 0.3813
vn -0.3614 -0.9276 -0.0947
vn 0.3618 -0.8786 0.3117
vn 0.8709 0.4914 0.0079
vn 0.8735 -0.2339 0.4269
vn -0.3661 0.3793 -0.8498
vn 0.3193 0.7643 -0.5603
vn -0.3615 -0.9276 -0.0946
vn -0.6690 -0.3737 -0.6425
vn -0.3614 -0.9276 -0.0946
vn 0.8735 -0.2339 0.4270
vn 0.8709 0.4913 0.0079
vn -0.6690 -0.3736 -0.6425
vn -0.3660 0.3793 -0.8498
vn -0.7449 0.6313 0.2159
vn -0.6974 -0.6029 0.3874
vn -0.5317 -0.8394 0.1130
vn -0.8502 -0.2656 -0.4545
vn 0.7474 -0.1210 0.6533
vn 0.1794 -0.7750 0.6060
vn 0.1734 0.9130 -0.3693
vn 0.7447 0.6304 0.2192
vn 0.1734 0.9130 -0.3692
vn -0.5365 0.5142 -0.6691
vn -0.8503 -0.2656 -0.4545
vn 0.1793 -0.7750 0.6060
vn -0.3615 -0.9276 -0.0947
vn 0.7447 0.6303 0.2192
vn 0.7474 -0.1209 0.6533
vn 0.3192 0.7643 -0.5603
vn -0.5365 0.5143 -0.6691
vt 0.530319 0.611839
vt 0.522446 0.618118
vt 0.524872 0.613083
vt 0.524872 0.623154
vt 0.534683 0.615326
vt 0.530319 0.624397
vt 0.534683 0.620918
vt 0.537079 0.671494
vt 0.541916 0.669548
vt 0.539566 0.672157
vt 0.536179 0.669609
vt 0.539856 0.666756
vt 0.536224 0.667854
vt 0.537567 0.666748
vt 0.534592 0.666855
vt 0.534012 0.669838
vt 0.530777 0.669685
vt 0.535187 0.673050
vt 0.531769 0.674789
vt 0.525803 0.669067
vt 0.526108 0.676537
vt 0.539017 0.675606
vt 0.536011 0.680244
vt 0.529755 0.684982
vt 0.547180 0.674767
vt 0.546982 0.686485
vt 0.537415 0.696274
vt 0.547180 0.658051
vt 0.540527 0.663902
vt 0.539825 0.659698
vt 0.546280 0.665543
vt 0.543762 0.651657
vt 0.537613 0.655174
vt 0.536758 0.664742
vt 0.535126 0.661980
vt 0.532364 0.658463
vt 0.532074 0.665283
vt 0.528198 0.662933
vt 0.523743 0.660286
vt 0.519989 0.668175
vt 0.535217 0.651588
vt 0.529327 0.654999
vt 0.522873 0.688484
vt 0.528320 0.699394
vt 0.519577 0.678001
vt 0.540466 0.648293
vt 0.604446 0.642853
vt 0.626221 0.647896
vt 0.604553 0.648445
vt 0.626144 0.642670
vt 0.604553 0.631676
vt 0.626144 0.637444
vt 0.604446 0.637268
vt 0.626221 0.632225
vt 0.605011 0.620506
vt 0.626404 0.626999
vt 0.604736 0.626091
vt 0.626663 0.621780
vt 0.626404 0.653114
vt 0.604736 0.654030
vt 0.626663 0.658333
vt 0.605011 0.659607
s 0
usemtl decorations
f 240/1/1 239/2/1 238/3/1
f 237/1/1 236/4/1 235/2/1
f 234/5/1 233/4/1 232/1/1
f 231/5/1 230/6/1 229/4/1
f 228/6/1 227/5/1 226/7/1
s 1
f 225/8/2 224/9/3 223/10/4
f 222/11/5 221/9/3 220/8/6
f 219/11/7 218/12/8 217/9/3
f 216/13/9 215/12/8 214/11/10
f 213/12/11 212/13/12 211/14/13
f 210/15/14 209/11/10 208/16/15
f 207/15/16 206/13/17 205/11/10
f 204/17/18 203/18/19 202/19/20
f 201/17/18 200/16/15 199/18/21
f 198/20/22 197/19/23 196/21/24
f 195/20/22 194/17/18 193/19/25
f 192/19/23 191/22/26 190/23/27
f 189/19/20 188/18/19 187/22/26
f 186/21/28 185/23/29 184/24/30
f 183/21/28 3/19/23 182/23/29
f 181/23/27 180/25/31 179/26/32
f 178/23/27 177/22/33 176/25/34
f 175/24/35 174/26/32 173/27/36
f 172/24/35 4/23/27 171/26/32
f 170/28/32 169/29/37 168/30/38
f 167/28/39 166/31/31 165/29/40
f 164/32/41 163/30/38 162/33/42
f 161/32/41 13/28/39 160/30/43
f 159/30/38 158/34/44 157/35/45
f 156/30/38 155/29/46 154/34/44
f 153/33/47 152/35/45 151/36/48
f 150/33/42 14/30/49 149/35/45
f 148/35/50 147/15/51 146/37/52
f 145/35/50 144/34/53 143/15/54
f 142/36/55 141/37/52 140/38/56
f 139/36/55 16/35/45 138/37/52
f 137/37/57 136/16/15 135/17/18
f 134/37/58 133/15/14 132/16/15
f 131/38/56 130/17/18 129/20/22
f 128/38/56 36/37/52 25/17/18
f 127/39/59 126/20/22 125/40/60
f 124/39/59 123/38/61 122/20/22
f 121/41/62 120/36/48 119/42/63
f 118/41/62 117/33/42 116/36/48
f 115/43/64 114/27/36 113/44/65
f 112/43/64 111/24/35 110/27/36
f 109/40/66 108/21/24 107/45/67
f 106/40/68 40/20/22 105/21/24
f 104/42/69 103/38/56 102/39/59
f 101/42/69 41/36/48 42/38/56
f 100/46/65 99/33/42 98/41/70
f 97/46/65 37/32/41 38/33/42
f 96/45/71 95/24/30 94/43/72
f 93/45/71 33/21/24 34/24/30
f 92/29/46 91/14/13 90/34/44
f 89/29/46 88/12/8 87/14/13
f 86/22/26 85/9/3 84/25/34
f 83/22/26 82/10/73 81/9/3
f 80/16/74 79/8/2 78/18/21
f 29/16/74 30/11/5 77/8/2
f 76/31/31 75/12/8 28/29/40
f 31/31/31 26/9/3 27/12/8
f 74/18/19 73/10/73 24/22/26
f 21/18/19 22/8/2 23/10/4
f 72/34/53 71/13/17 20/15/14
f 17/34/53 18/14/13 19/13/17
f 70/47/75 69/48/71 68/49/76
f 67/47/75 66/50/60 65/48/71
f 64/51/77 63/52/59 62/53/78
f 61/51/77 60/54/69 59/52/59
f 58/55/79 57/56/70 56/57/80
f 55/55/81 54/58/65 53/56/70
f 52/49/76 51/59/64 50/60/82
f 2/49/83 32/48/71 49/59/64
f 48/53/84 47/50/85 12/47/75
f 9/53/84 10/52/59 11/50/60
f 46/57/86 45/54/69 8/51/87
f 5/57/86 6/56/70 7/54/63
f 44/60/82 43/61/88 15/62/79
f 1/60/89 35/59/64 39/61/88
