# Blender 5.0.0
# www.blender.org
mtllib Circle_005_Circle_004_Dupli_20_decorations_0.mtl
o Circle.005|Circle.004|Dupli|20_decorations_0
v -4.566357 1.431128 0.712321
v -4.566302 1.429768 0.712682
v -4.564225 1.431498 0.720051
v -4.564304 1.433439 0.719536
v -4.564054 1.431547 0.711341
v -4.562260 1.432860 0.716333
v -4.561676 1.431685 0.716444
v -4.563430 1.430290 0.711460
v -4.563954 1.429096 0.711992
v -4.562166 1.430569 0.716941
v -4.563361 1.430352 0.717449
v -4.565232 1.428864 0.712536
v -4.562877 1.434568 0.718684
v -4.561018 1.434036 0.718137
v -4.565357 1.431920 0.711724
v -4.560127 1.432243 0.718307
v -4.560038 1.432636 0.719773
v -4.560319 1.432920 0.720886
v -4.560717 1.432015 0.721289
v -4.560647 1.431250 0.720390
v -4.563373 1.432030 0.721191
v -4.562495 1.432525 0.721812
v -4.562537 1.433555 0.721538
v -4.563437 1.433609 0.720772
v -4.562699 1.430208 0.719842
v -4.561779 1.434155 0.721086
v -4.560792 1.433872 0.720796
v -4.560763 1.434095 0.719634
v -4.562131 1.430980 0.721021
v -4.561685 1.431839 0.721701
v -4.562276 1.434528 0.720079
v -4.564361 1.431197 0.717586
v -4.564469 1.431238 0.718579
v -4.564538 1.432917 0.718133
v -4.564413 1.432469 0.717249
v -4.560875 1.430539 0.719066
v -4.563303 1.433895 0.717396
v -4.561693 1.433434 0.716923
v -4.563478 1.433209 0.716691
v -4.563148 1.430121 0.718398
v -4.560922 1.431882 0.717070
v -4.561570 1.430408 0.717727
v -4.563478 1.433209 0.716691
v -4.566357 1.431128 0.712321
v -4.561676 1.431685 0.716444
v -4.564054 1.431547 0.711341
v -4.563361 1.430352 0.717449
v -4.563954 1.429096 0.711992
v -4.564413 1.432469 0.717249
v -4.566357 1.431128 0.712321
v -4.564413 1.432469 0.717249
v -4.566302 1.429768 0.712682
v -4.562260 1.432860 0.716333
v -4.563478 1.433209 0.716691
v -4.565357 1.431920 0.711724
v -4.564054 1.431547 0.711341
v -4.562260 1.432860 0.716333
v -4.565357 1.431920 0.711724
v -4.562166 1.430569 0.716941
v -4.561676 1.431685 0.716444
v -4.563430 1.430290 0.711460
v -4.563954 1.429096 0.711992
v -4.562166 1.430569 0.716941
v -4.563430 1.430290 0.711460
v -4.564361 1.431197 0.717586
v -4.563361 1.430352 0.717449
v -4.565232 1.428864 0.712536
v -4.566302 1.429768 0.712682
v -4.564361 1.431197 0.717586
v -4.565232 1.428864 0.712536
v -4.560717 1.432015 0.721289
v -4.560038 1.432636 0.719773
v -4.562537 1.433555 0.721538
v -4.563373 1.432030 0.721191
v -4.560792 1.433872 0.720796
v -4.562276 1.434528 0.720079
v -4.562495 1.432525 0.721812
v -4.563373 1.432030 0.721191
v -4.562495 1.432525 0.721812
v -4.562131 1.430980 0.721021
v -4.561779 1.434155 0.721086
v -4.562537 1.433555 0.721538
v -4.563437 1.433609 0.720772
v -4.562276 1.434528 0.720079
v -4.561779 1.434155 0.721086
v -4.563437 1.433609 0.720772
v -4.560319 1.432920 0.720886
v -4.560792 1.433872 0.720796
v -4.560763 1.434095 0.719634
v -4.560038 1.432636 0.719773
v -4.560319 1.432920 0.720886
v -4.560763 1.434095 0.719634
v -4.564361 1.431197 0.717586
v -4.564413 1.432469 0.717249
v -4.564538 1.432917 0.718133
v -4.564361 1.431197 0.717586
v -4.563478 1.433209 0.716691
v -4.562260 1.432860 0.716333
v -4.561693 1.433434 0.716923
v -4.563478 1.433209 0.716691
v -4.561676 1.431685 0.716444
v -4.562166 1.430569 0.716941
v -4.561570 1.430408 0.717727
v -4.561676 1.431685 0.716444
v -4.564469 1.431238 0.718579
v -4.563361 1.430352 0.717449
v -4.564361 1.431197 0.717586
v -4.564469 1.431238 0.718579
v -4.563361 1.430352 0.717449
v -4.563303 1.433895 0.717396
v -4.564538 1.432917 0.718133
v -4.564413 1.432469 0.717249
v -4.563478 1.433209 0.716691
v -4.563303 1.433895 0.717396
v -4.564413 1.432469 0.717249
v -4.560922 1.431882 0.717070
v -4.561693 1.433434 0.716923
v -4.562260 1.432860 0.716333
v -4.561676 1.431685 0.716444
v -4.560922 1.431882 0.717070
v -4.562260 1.432860 0.716333
v -4.563148 1.430121 0.718398
v -4.561570 1.430408 0.717727
v -4.562166 1.430569 0.716941
v -4.563361 1.430352 0.717449
v -4.563148 1.430121 0.718398
v -4.562166 1.430569 0.716941
v -4.561570 1.430408 0.717727
v -4.563148 1.430121 0.718398
v -4.562699 1.430208 0.719842
v -4.561570 1.430408 0.717727
v -4.562131 1.430980 0.721021
v -4.560647 1.431250 0.720390
v -4.560875 1.430539 0.719066
v -4.562699 1.430208 0.719842
v -4.562131 1.430980 0.721021
v -4.560875 1.430539 0.719066
v -4.560875 1.430539 0.719066
v -4.560922 1.431882 0.717070
v -4.561570 1.430408 0.717727
v -4.560875 1.430539 0.719066
v -4.560922 1.431882 0.717070
v -4.560647 1.431250 0.720390
v -4.560038 1.432636 0.719773
v -4.560127 1.432243 0.718307
v -4.560875 1.430539 0.719066
v -4.560647 1.431250 0.720390
v -4.560127 1.432243 0.718307
v -4.560127 1.432243 0.718307
v -4.561693 1.433434 0.716923
v -4.560922 1.431882 0.717070
v -4.560127 1.432243 0.718307
v -4.561693 1.433434 0.716923
v -4.560038 1.432636 0.719773
v -4.560763 1.434095 0.719634
v -4.561018 1.434036 0.718137
v -4.560127 1.432243 0.718307
v -4.560038 1.432636 0.719773
v -4.561018 1.434036 0.718137
v -4.561018 1.434036 0.718137
v -4.563303 1.433895 0.717396
v -4.561693 1.433434 0.716923
v -4.561018 1.434036 0.718137
v -4.563303 1.433895 0.717396
v -4.560763 1.434095 0.719634
v -4.562276 1.434528 0.720079
v -4.562877 1.434568 0.718684
v -4.561018 1.434036 0.718137
v -4.560763 1.434095 0.719634
v -4.562877 1.434568 0.718684
v -4.562877 1.434568 0.718684
v -4.564538 1.432917 0.718133
v -4.563303 1.433895 0.717396
v -4.562877 1.434568 0.718684
v -4.564538 1.432917 0.718133
v -4.562276 1.434528 0.720079
v -4.563437 1.433609 0.720772
v -4.564304 1.433439 0.719536
v -4.562877 1.434568 0.718684
v -4.562276 1.434528 0.720079
v -4.564304 1.433439 0.719536
v -4.564304 1.433439 0.719536
v -4.564469 1.431238 0.718579
v -4.564538 1.432917 0.718133
v -4.564304 1.433439 0.719536
v -4.564469 1.431238 0.718579
v -4.563437 1.433609 0.720772
v -4.563373 1.432030 0.721191
v -4.564225 1.431498 0.720051
v -4.564304 1.433439 0.719536
v -4.563437 1.433609 0.720772
v -4.564225 1.431498 0.720051
v -4.564225 1.431498 0.720051
v -4.562699 1.430208 0.719842
v -4.563148 1.430121 0.718398
v -4.564469 1.431238 0.718579
v -4.564225 1.431498 0.720051
v -4.563148 1.430121 0.718398
v -4.563373 1.432030 0.721191
v -4.562131 1.430980 0.721021
v -4.562699 1.430208 0.719842
v -4.564225 1.431498 0.720051
v -4.563373 1.432030 0.721191
v -4.562699 1.430208 0.719842
v -4.561685 1.431839 0.721701
v -4.560717 1.432015 0.721289
v -4.560647 1.431250 0.720390
v -4.562131 1.430980 0.721021
v -4.561685 1.431839 0.721701
v -4.560647 1.431250 0.720390
v -4.560319 1.432920 0.720886
v -4.560717 1.432015 0.721289
v -4.560792 1.433872 0.720796
v -4.561685 1.431839 0.721701
v -4.560792 1.433872 0.720796
v -4.560717 1.432015 0.721289
v -4.561779 1.434155 0.721086
v -4.560792 1.433872 0.720796
v -4.561685 1.431839 0.721701
v -4.562495 1.432525 0.721812
v -4.561779 1.434155 0.721086
v -4.561685 1.431839 0.721701
v -4.562537 1.433555 0.721538
v -4.561779 1.434155 0.721086
v -4.562495 1.432525 0.721812
v -4.563430 1.430290 0.711460
v -4.564054 1.431547 0.711341
v -4.563954 1.429096 0.711992
v -4.565232 1.428864 0.712536
v -4.563954 1.429096 0.711992
v -4.564054 1.431547 0.711341
v -4.565357 1.431920 0.711724
v -4.565232 1.428864 0.712536
v -4.564054 1.431547 0.711341
v -4.566302 1.429768 0.712682
v -4.565232 1.428864 0.712536
v -4.565357 1.431920 0.711724
v -4.566357 1.431128 0.712321
v -4.566302 1.429768 0.712682
v -4.565357 1.431920 0.711724
vn -0.3392 -0.2544 -0.9057
vn -0.1878 -0.0001 0.9822
vn 0.1405 0.7474 0.6493
vn -0.2071 0.4724 0.8567
vn 0.1839 -0.3144 0.9313
vn -0.1877 -0.0002 0.9822
vn 0.1838 -0.3144 0.9313
vn 0.5932 0.6178 0.5162
vn 0.6279 -0.2337 0.7423
vn 0.6279 -0.2338 0.7424
vn 0.8101 0.1811 0.5576
vn 0.7015 -0.6147 0.3605
vn -0.0173 -0.7453 0.6665
vn 0.6279 -0.2337 0.7424
vn -0.1578 -0.9199 0.3591
vn -0.6190 -0.2366 0.7489
vn -0.8163 -0.3630 0.4494
vn -0.1577 -0.9199 0.3592
vn -0.0174 -0.7453 0.6665
vn -0.2751 -0.9614 0.0005
vn -0.8955 -0.4368 0.0855
vn -0.8162 -0.3630 0.4494
vn -0.6503 0.5285 0.5458
vn -0.8505 0.4745 0.2270
vn -0.8505 0.4744 0.2271
vn -0.9277 0.3521 -0.1239
vn -0.0877 0.9738 0.2100
vn -0.2346 0.9619 -0.1405
vn -0.6503 0.5285 0.5457
vn -0.0876 0.9738 0.2100
vn -0.9277 0.3521 -0.1240
vn -0.3475 0.8113 -0.4702
vn -0.2346 0.9619 -0.1406
vn 0.6452 0.7640 -0.0056
vn 0.5676 0.7322 -0.3764
vn 0.6452 0.7640 -0.0055
vn 0.5676 0.7322 -0.3765
vn 0.4082 0.5949 -0.6924
vn 0.5676 0.7323 -0.3764
vn 0.9965 0.0571 0.0615
vn 0.9520 -0.0416 -0.3031
vn 0.6453 0.7639 -0.0056
vn 0.4082 0.5949 -0.6925
vn 0.7704 -0.1340 -0.6233
vn 0.7016 -0.6147 0.3605
vn 0.6292 -0.7768 0.0243
vn 0.9965 0.0570 0.0614
vn 0.7016 -0.6146 0.3606
vn 0.7704 -0.1341 -0.6234
vn 0.4663 -0.8267 -0.3149
vn 0.7704 -0.1341 -0.6233
vn 0.6292 -0.7769 0.0243
vn 0.6293 -0.7768 0.0243
vn 0.4663 -0.8267 -0.3150
vn -0.2751 -0.9614 0.0006
vn 0.5068 -0.8261 -0.2462
vn -0.2533 -0.9643 0.0773
vn 0.4473 0.6316 -0.6332
vn 0.8187 -0.1159 -0.5624
vn 0.4473 0.6316 -0.6333
vn -0.9225 0.3826 -0.0503
vn -0.3276 0.8534 -0.4054
vn -0.8895 -0.4264 0.1644
vn 0.5069 -0.8261 -0.2462
vn 0.4081 0.5949 -0.6924
vn -0.8895 -0.4263 0.1645
vn -0.9225 0.3826 -0.0504
vn -0.8895 -0.4264 0.1645
vn 0.5931 0.6178 0.5162
vn -0.6502 0.5285 0.5458
vn -0.2071 0.4723 0.8567
vn 0.1405 0.7474 0.6494
vn -0.1878 -0.0002 0.9822
vn 0.1839 -0.3145 0.9313
vn -0.6191 -0.2366 0.7489
vn 0.9965 0.0570 0.0615
vn 0.7016 -0.6147 0.3606
vn -0.1641 -0.9250 0.3426
vn -0.8230 -0.3679 0.4329
vn 0.9463 -0.0464 -0.3200
vn 0.6233 -0.7819 0.0075
vn -0.2410 0.9577 -0.1574
vn 0.5616 0.7279 -0.3934
vn -0.2409 0.9577 -0.1573
vn -0.8572 0.4700 0.2104
vn -0.8230 -0.3678 0.4329
vn -0.2534 -0.9643 0.0773
vn 0.6233 -0.7819 0.0076
vn 0.9463 -0.0463 -0.3200
vn -0.3276 0.8534 -0.4053
vt 0.530319 0.635056
vt 0.522446 0.641335
vt 0.524872 0.636299
vt 0.524872 0.646370
vt 0.534683 0.638535
vt 0.530319 0.647614
vt 0.534683 0.644127
vt 0.508789 0.671494
vt 0.513626 0.669548
vt 0.511276 0.672157
vt 0.507889 0.669609
vt 0.511566 0.666756
vt 0.507935 0.667854
vt 0.509277 0.666748
vt 0.506302 0.666855
vt 0.505722 0.669838
vt 0.502487 0.669685
vt 0.506897 0.673050
vt 0.503479 0.674789
vt 0.497520 0.669067
vt 0.497810 0.676537
vt 0.510727 0.675606
vt 0.507721 0.680244
vt 0.501465 0.684982
vt 0.518890 0.674767
vt 0.518692 0.686485
vt 0.509125 0.696274
vt 0.518890 0.658051
vt 0.512238 0.663902
vt 0.511536 0.659698
vt 0.517990 0.665543
vt 0.515472 0.651657
vt 0.509323 0.655174
vt 0.508469 0.664742
vt 0.506836 0.661980
vt 0.504074 0.658463
vt 0.503784 0.665283
vt 0.499901 0.662933
vt 0.495453 0.660286
vt 0.491707 0.668175
vt 0.506927 0.651588
vt 0.501038 0.654999
vt 0.494583 0.688484
vt 0.500031 0.699394
vt 0.491287 0.678001
vt 0.512177 0.648293
vt 0.627350 0.642853
vt 0.649124 0.647896
vt 0.627441 0.648445
vt 0.649033 0.642670
vt 0.627441 0.631676
vt 0.649033 0.637444
vt 0.627350 0.637268
vt 0.649124 0.632225
vt 0.627914 0.620506
vt 0.649292 0.626999
vt 0.627625 0.626091
vt 0.649551 0.621780
vt 0.649292 0.653114
vt 0.627625 0.654030
vt 0.649551 0.658333
vt 0.627914 0.659607
s 0
usemtl decorations
f 240/1/1 239/2/1 238/3/1
f 237/1/1 236/4/1 235/2/1
f 234/5/1 233/4/1 232/1/1
f 231/5/1 230/6/1 229/4/1
f 228/6/1 227/5/1 226/7/1
s 1
f 225/8/2 224/9/3 223/10/4
f 222/11/5 221/9/3 220/8/6
f 219/11/7 218/12/8 217/9/3
f 216/13/9 215/12/8 214/11/7
f 213/12/8 212/13/10 211/14/11
f 210/15/12 209/11/7 208/16/13
f 207/15/12 206/13/14 205/11/5
f 204/17/15 203/18/16 202/19/17
f 201/17/18 200/16/19 199/18/16
f 198/20/20 197/19/17 196/21/21
f 195/20/20 194/17/18 193/19/22
f 192/19/17 191/22/23 190/23/24
f 189/19/17 188/18/16 187/22/23
f 186/21/21 185/23/25 184/24/26
f 183/21/21 3/19/17 182/23/25
f 181/23/24 180/25/27 179/26/28
f 178/23/24 177/22/29 176/25/30
f 175/24/31 174/26/28 173/27/32
f 172/24/31 4/23/24 171/26/28
f 170/28/33 169/29/34 168/30/35
f 167/28/33 166/31/30 165/29/36
f 164/32/32 163/30/37 162/33/38
f 161/32/32 13/28/28 160/30/39
f 159/30/35 158/34/40 157/35/41
f 156/30/35 155/29/42 154/34/40
f 153/33/43 152/35/41 151/36/44
f 150/33/43 14/30/35 149/35/41
f 148/35/41 147/15/45 146/37/46
f 145/35/41 144/34/47 143/15/48
f 142/36/49 141/37/46 140/38/50
f 139/36/51 16/35/41 138/37/46
f 137/37/52 136/16/19 135/17/18
f 134/37/53 133/15/45 132/16/13
f 131/38/54 130/17/18 129/20/55
f 128/38/54 36/37/53 25/17/18
f 127/39/56 126/20/20 125/40/57
f 124/39/56 123/38/50 122/20/20
f 121/41/58 120/36/44 119/42/59
f 118/41/60 117/33/43 116/36/44
f 115/43/61 114/27/32 113/44/62
f 112/43/61 111/24/31 110/27/32
f 109/40/57 108/21/21 107/45/63
f 106/40/57 40/20/20 105/21/21
f 104/42/59 103/38/50 102/39/64
f 101/42/59 41/36/51 42/38/50
f 100/46/62 99/33/65 98/41/60
f 97/46/62 37/32/32 38/33/65
f 96/45/66 95/24/26 94/43/67
f 93/45/68 33/21/21 34/24/26
f 92/29/42 91/14/11 90/34/40
f 89/29/42 88/12/69 87/14/11
f 86/22/70 85/9/3 84/25/30
f 83/22/70 82/10/71 81/9/72
f 80/16/19 79/8/73 78/18/16
f 29/16/19 30/11/74 77/8/6
f 76/31/30 75/12/8 28/29/36
f 31/31/30 26/9/72 27/12/69
f 74/18/16 73/10/4 24/22/23
f 21/18/75 22/8/6 23/10/71
f 72/34/76 71/13/9 20/15/77
f 17/34/76 18/14/11 19/13/14
f 70/47/78 69/48/68 68/49/79
f 67/47/78 66/50/57 65/48/68
f 64/51/80 63/52/64 62/53/81
f 61/51/80 60/54/59 59/52/64
f 58/55/82 57/56/60 56/57/83
f 55/55/84 54/58/62 53/56/60
f 52/49/79 51/59/61 50/60/85
f 2/49/86 32/48/63 49/59/61
f 48/53/81 47/50/87 12/47/78
f 9/53/88 10/52/64 11/50/57
f 46/57/83 45/54/59 8/51/89
f 5/57/83 6/56/60 7/54/59
f 44/60/85 43/61/90 15/62/82
f 1/60/85 35/59/67 39/61/62
