# Blender 5.0.0
# www.blender.org
mtllib Circle_005_Circle_004_Dupli_224_decorations_0.mtl
o Circle.005|Circle.004|Dupli|224_decorations_0
v -4.388426 2.105175 0.581749
v -4.387115 2.104773 0.582072
v -4.384006 2.109431 0.576573
v -4.385875 2.110005 0.576111
v -4.389180 2.103384 0.580117
v -4.387159 2.106384 0.576020
v -4.386108 2.105594 0.575945
v -4.388055 2.102540 0.580037
v -4.386818 2.102659 0.580699
v -4.384952 2.105706 0.576565
v -4.384561 2.106635 0.577411
v -4.386400 2.103653 0.581605
v -4.387186 2.109123 0.574870
v -4.386951 2.107450 0.573783
v -4.389344 2.104557 0.580879
v -4.385347 2.106245 0.573669
v -4.384791 2.107377 0.572823
v -4.384381 2.108430 0.572471
v -4.383444 2.108521 0.572973
v -4.383355 2.107516 0.573592
v -4.383699 2.109970 0.575185
v -4.383668 2.110122 0.574013
v -4.384661 2.110427 0.573768
v -4.385221 2.110437 0.574810
v -4.382986 2.107834 0.575906
v -4.385357 2.109958 0.573108
v -4.385232 2.109070 0.572531
v -4.386096 2.108358 0.572915
v -4.382869 2.108670 0.574643
v -4.383127 2.109273 0.573659
v -4.386287 2.109720 0.573800
v -4.385230 2.107682 0.577848
v -4.384683 2.108443 0.577499
v -4.386301 2.108939 0.577099
v -4.386455 2.108058 0.577546
v -4.383583 2.106416 0.574614
v -4.387435 2.108176 0.576025
v -4.387232 2.106727 0.575084
v -4.387313 2.107480 0.576732
v -4.383800 2.107060 0.576922
v -4.385844 2.105684 0.574986
v -4.384316 2.105832 0.575804
v -4.387313 2.107480 0.576732
v -4.388426 2.105175 0.581749
v -4.386108 2.105594 0.575945
v -4.389180 2.103384 0.580117
v -4.384561 2.106635 0.577411
v -4.386818 2.102659 0.580699
v -4.386455 2.108058 0.577546
v -4.388426 2.105175 0.581749
v -4.386455 2.108058 0.577546
v -4.387115 2.104773 0.582072
v -4.387159 2.106384 0.576020
v -4.387313 2.107480 0.576732
v -4.389344 2.104557 0.580879
v -4.389180 2.103384 0.580117
v -4.387159 2.106384 0.576020
v -4.389344 2.104557 0.580879
v -4.384952 2.105706 0.576565
v -4.386108 2.105594 0.575945
v -4.388055 2.102540 0.580037
v -4.386818 2.102659 0.580699
v -4.384952 2.105706 0.576565
v -4.388055 2.102540 0.580037
v -4.385230 2.107682 0.577848
v -4.384561 2.106635 0.577411
v -4.386400 2.103653 0.581605
v -4.387115 2.104773 0.582072
v -4.385230 2.107682 0.577848
v -4.386400 2.103653 0.581605
v -4.383444 2.108521 0.572973
v -4.384791 2.107377 0.572823
v -4.384661 2.110427 0.573768
v -4.383699 2.109970 0.575185
v -4.385232 2.109070 0.572531
v -4.386287 2.109720 0.573800
v -4.383668 2.110122 0.574013
v -4.383699 2.109970 0.575185
v -4.383668 2.110122 0.574013
v -4.382869 2.108670 0.574643
v -4.385357 2.109958 0.573108
v -4.384661 2.110427 0.573768
v -4.385221 2.110437 0.574810
v -4.386287 2.109720 0.573800
v -4.385357 2.109958 0.573108
v -4.385221 2.110437 0.574810
v -4.384381 2.108430 0.572471
v -4.385232 2.109070 0.572531
v -4.386096 2.108358 0.572915
v -4.384791 2.107377 0.572823
v -4.384381 2.108430 0.572471
v -4.386096 2.108358 0.572915
v -4.385230 2.107682 0.577848
v -4.386455 2.108058 0.577546
v -4.386301 2.108939 0.577099
v -4.385230 2.107682 0.577848
v -4.387313 2.107480 0.576732
v -4.387159 2.106384 0.576020
v -4.387232 2.106727 0.575084
v -4.387313 2.107480 0.576732
v -4.386108 2.105594 0.575945
v -4.384952 2.105706 0.576565
v -4.384316 2.105832 0.575804
v -4.386108 2.105594 0.575945
v -4.384683 2.108443 0.577499
v -4.384561 2.106635 0.577411
v -4.385230 2.107682 0.577848
v -4.384683 2.108443 0.577499
v -4.384561 2.106635 0.577411
v -4.387435 2.108176 0.576025
v -4.386301 2.108939 0.577099
v -4.386455 2.108058 0.577546
v -4.387313 2.107480 0.576732
v -4.387435 2.108176 0.576025
v -4.386455 2.108058 0.577546
v -4.385844 2.105684 0.574986
v -4.387232 2.106727 0.575084
v -4.387159 2.106384 0.576020
v -4.386108 2.105594 0.575945
v -4.385844 2.105684 0.574986
v -4.387159 2.106384 0.576020
v -4.383800 2.107060 0.576922
v -4.384316 2.105832 0.575804
v -4.384952 2.105706 0.576565
v -4.384561 2.106635 0.577411
v -4.383800 2.107060 0.576922
v -4.384952 2.105706 0.576565
v -4.384316 2.105832 0.575804
v -4.383800 2.107060 0.576922
v -4.382986 2.107834 0.575906
v -4.384316 2.105832 0.575804
v -4.382869 2.108670 0.574643
v -4.383355 2.107516 0.573592
v -4.383583 2.106416 0.574614
v -4.382986 2.107834 0.575906
v -4.382869 2.108670 0.574643
v -4.383583 2.106416 0.574614
v -4.383583 2.106416 0.574614
v -4.385844 2.105684 0.574986
v -4.384316 2.105832 0.575804
v -4.383583 2.106416 0.574614
v -4.385844 2.105684 0.574986
v -4.383355 2.107516 0.573592
v -4.384791 2.107377 0.572823
v -4.385347 2.106245 0.573669
v -4.383583 2.106416 0.574614
v -4.383355 2.107516 0.573592
v -4.385347 2.106245 0.573669
v -4.385347 2.106245 0.573669
v -4.387232 2.106727 0.575084
v -4.385844 2.105684 0.574986
v -4.385347 2.106245 0.573669
v -4.387232 2.106727 0.575084
v -4.384791 2.107377 0.572823
v -4.386096 2.108358 0.572915
v -4.386951 2.107450 0.573783
v -4.385347 2.106245 0.573669
v -4.384791 2.107377 0.572823
v -4.386951 2.107450 0.573783
v -4.386951 2.107450 0.573783
v -4.387435 2.108176 0.576025
v -4.387232 2.106727 0.575084
v -4.386951 2.107450 0.573783
v -4.387435 2.108176 0.576025
v -4.386096 2.108358 0.572915
v -4.386287 2.109720 0.573800
v -4.387186 2.109123 0.574870
v -4.386951 2.107450 0.573783
v -4.386096 2.108358 0.572915
v -4.387186 2.109123 0.574870
v -4.387186 2.109123 0.574870
v -4.386301 2.108939 0.577099
v -4.387435 2.108176 0.576025
v -4.387186 2.109123 0.574870
v -4.386301 2.108939 0.577099
v -4.386287 2.109720 0.573800
v -4.385221 2.110437 0.574810
v -4.385875 2.110005 0.576111
v -4.387186 2.109123 0.574870
v -4.386287 2.109720 0.573800
v -4.385875 2.110005 0.576111
v -4.385875 2.110005 0.576111
v -4.384683 2.108443 0.577499
v -4.386301 2.108939 0.577099
v -4.385875 2.110005 0.576111
v -4.384683 2.108443 0.577499
v -4.385221 2.110437 0.574810
v -4.383699 2.109970 0.575185
v -4.384006 2.109431 0.576573
v -4.385875 2.110005 0.576111
v -4.385221 2.110437 0.574810
v -4.384006 2.109431 0.576573
v -4.384006 2.109431 0.576573
v -4.382986 2.107834 0.575906
v -4.383800 2.107060 0.576922
v -4.384683 2.108443 0.577499
v -4.384006 2.109431 0.576573
v -4.383800 2.107060 0.576922
v -4.383699 2.109970 0.575185
v -4.382869 2.108670 0.574643
v -4.382986 2.107834 0.575906
v -4.384006 2.109431 0.576573
v -4.383699 2.109970 0.575185
v -4.382986 2.107834 0.575906
v -4.383127 2.109273 0.573659
v -4.383444 2.108521 0.572973
v -4.383355 2.107516 0.573592
v -4.382869 2.108670 0.574643
v -4.383127 2.109273 0.573659
v -4.383355 2.107516 0.573592
v -4.384381 2.108430 0.572471
v -4.383444 2.108521 0.572973
v -4.385232 2.109070 0.572531
v -4.383127 2.109273 0.573659
v -4.385232 2.109070 0.572531
v -4.383444 2.108521 0.572973
v -4.385357 2.109958 0.573108
v -4.385232 2.109070 0.572531
v -4.383127 2.109273 0.573659
v -4.383668 2.110122 0.574013
v -4.385357 2.109958 0.573108
v -4.383127 2.109273 0.573659
v -4.384661 2.110427 0.573768
v -4.385357 2.109958 0.573108
v -4.383668 2.110122 0.574013
v -4.388055 2.102540 0.580037
v -4.389180 2.103384 0.580117
v -4.386818 2.102659 0.580699
v -4.386400 2.103653 0.581605
v -4.386818 2.102659 0.580699
v -4.389180 2.103384 0.580117
v -4.389344 2.104557 0.580879
v -4.386400 2.103653 0.581605
v -4.389180 2.103384 0.580117
v -4.387115 2.104773 0.582072
v -4.386400 2.103653 0.581605
v -4.389344 2.104557 0.580879
v -4.388426 2.105175 0.581749
v -4.387115 2.104773 0.582072
v -4.389344 2.104557 0.580879
vn -0.3546 -0.5438 0.7607
vn 0.5674 0.7802 -0.2635
vn -0.2071 0.7050 -0.6782
vn 0.1121 0.9199 -0.3759
vn 0.8159 0.3911 -0.4258
vn -0.2071 0.7051 -0.6782
vn 0.5674 0.7801 -0.2635
vn -0.1498 0.2975 -0.9429
vn 0.6706 0.0457 -0.7405
vn -0.1499 0.2975 -0.9429
vn 0.6706 0.0457 -0.7404
vn 0.2408 0.0041 -0.9706
vn 0.7563 -0.4311 -0.4922
vn 0.9916 0.1281 0.0172
vn 0.6705 0.0458 -0.7405
vn 0.9404 -0.0822 0.3300
vn 0.5893 0.7579 0.2799
vn 0.5000 0.6072 0.6174
vn 0.9404 -0.0822 0.3299
vn 0.7536 -0.2802 0.5945
vn 0.5000 0.6072 0.6175
vn 0.3388 0.3693 0.8654
vn 0.7537 -0.2802 0.5945
vn 0.5000 0.6073 0.6174
vn -0.1478 0.9841 0.0980
vn -0.3068 0.8549 0.4184
vn 0.5892 0.7579 0.2799
vn 0.3387 0.3692 0.8654
vn -0.4213 0.6025 0.6778
vn -0.6647 0.6364 -0.3914
vn -0.8725 0.4742 -0.1174
vn -0.1479 0.9841 0.0980
vn -0.6646 0.6364 -0.3914
vn -0.4213 0.6025 0.6779
vn -0.9542 0.2440 0.1731
vn -0.8726 0.4742 -0.1174
vn -0.5720 -0.0234 -0.8199
vn -0.7711 -0.2480 -0.5864
vn -0.9542 0.2439 0.1731
vn -0.8587 -0.4364 -0.2688
vn -0.7711 -0.2479 -0.5864
vn 0.0604 -0.4985 -0.8648
vn -0.0789 -0.7680 -0.6355
vn -0.8587 -0.4365 -0.2687
vn -0.2066 -0.9263 -0.3150
vn -0.0789 -0.7681 -0.6355
vn 0.7562 -0.4311 -0.4922
vn 0.6828 -0.6942 -0.2277
vn 0.7562 -0.4311 -0.4923
vn -0.2066 -0.9264 -0.3149
vn 0.5110 -0.8568 0.0691
vn -0.2066 -0.9264 -0.3150
vn 0.5109 -0.8568 0.0692
vn 0.5540 -0.8325 0.0065
vn 0.8029 -0.2413 0.5452
vn 0.5110 -0.8568 0.0692
vn -0.8504 -0.4014 -0.3401
vn -0.1818 -0.9038 -0.3874
vn -0.8504 -0.4014 -0.3400
vn -0.4020 0.6639 0.6306
vn -0.9484 0.2962 0.1130
vn -0.4019 0.6639 0.6306
vn 0.8029 -0.2412 0.5451
vn 0.3388 0.3692 0.8654
vn 0.3774 0.4247 0.8229
vn 0.8029 -0.2413 0.5451
vn 0.7536 -0.2803 0.5945
vn -0.1818 -0.9038 -0.3875
vn -0.9484 0.2963 0.1130
vn -0.8587 -0.4364 -0.2687
vn -0.8504 -0.4015 -0.3400
vn -0.5720 -0.0235 -0.8199
vn 0.2408 0.0040 -0.9706
vn 0.1122 0.9199 -0.3758
vn 0.9916 0.1281 0.0173
vn 0.5674 0.7801 -0.2636
vn -0.6646 0.6364 -0.3915
vn 0.5892 0.7579 0.2800
vn 0.9344 -0.0923 0.3442
vn 0.3775 0.4247 0.8229
vn 0.4937 0.5975 0.6318
vn 0.9344 -0.0922 0.3441
vn -0.0855 -0.7785 -0.6218
vn 0.6766 -0.7047 -0.2138
vn -0.0854 -0.7785 -0.6218
vn -0.8796 0.4644 -0.1034
vn -0.8504 -0.4015 -0.3401
vn -0.7781 -0.2581 -0.5727
vn -0.8796 0.4644 -0.1035
vn -0.9484 0.2962 0.1131
vn 0.4937 0.5975 0.6319
vn -0.3135 0.8453 0.4327
vn 0.6766 -0.7046 -0.2137
vn 0.9344 -0.0923 0.3441
vn 0.6766 -0.7046 -0.2138
vn -0.7781 -0.2582 -0.5727
vn -0.8795 0.4644 -0.1034
vn -0.9484 0.2963 0.1131
vt 0.530319 0.635056
vt 0.522446 0.641335
vt 0.524872 0.636299
vt 0.524872 0.646370
vt 0.534683 0.638535
vt 0.530319 0.647614
vt 0.534683 0.644127
vt 0.508789 0.671494
vt 0.513626 0.669548
vt 0.511276 0.672157
vt 0.507889 0.669609
vt 0.511566 0.666756
vt 0.507935 0.667854
vt 0.509277 0.666748
vt 0.506302 0.666855
vt 0.505722 0.669838
vt 0.502487 0.669685
vt 0.506897 0.673050
vt 0.503479 0.674789
vt 0.497520 0.669067
vt 0.497810 0.676537
vt 0.510727 0.675606
vt 0.507721 0.680244
vt 0.501465 0.684982
vt 0.518890 0.674767
vt 0.518692 0.686485
vt 0.509125 0.696274
vt 0.518890 0.658051
vt 0.512238 0.663902
vt 0.511536 0.659698
vt 0.517990 0.665543
vt 0.515472 0.651657
vt 0.509323 0.655174
vt 0.508469 0.664742
vt 0.506836 0.661980
vt 0.504074 0.658463
vt 0.503784 0.665283
vt 0.499901 0.662933
vt 0.495453 0.660286
vt 0.491707 0.668175
vt 0.506927 0.651588
vt 0.501038 0.654999
vt 0.494583 0.688484
vt 0.500031 0.699394
vt 0.491287 0.678001
vt 0.512177 0.648293
vt 0.627350 0.642853
vt 0.649124 0.647896
vt 0.627441 0.648445
vt 0.649033 0.642670
vt 0.627441 0.631676
vt 0.649033 0.637444
vt 0.627350 0.637268
vt 0.649124 0.632225
vt 0.627914 0.620506
vt 0.649292 0.626999
vt 0.627625 0.626091
vt 0.649551 0.621780
vt 0.649292 0.653114
vt 0.627625 0.654030
vt 0.649551 0.658333
vt 0.627914 0.659607
s 0
usemtl decorations
f 240/1/1 239/2/1 238/3/1
f 237/1/1 236/4/1 235/2/1
f 234/5/1 233/4/1 232/1/1
f 231/5/1 230/6/1 229/4/1
f 228/6/1 227/5/1 226/7/1
s 1
f 225/8/2 224/9/3 223/10/4
f 222/11/5 221/9/6 220/8/7
f 219/11/5 218/12/8 217/9/3
f 216/13/9 215/12/10 214/11/5
f 213/12/8 212/13/11 211/14/12
f 210/15/13 209/11/5 208/16/14
f 207/15/13 206/13/15 205/11/5
f 204/17/16 203/18/17 202/19/18
f 201/17/19 200/16/14 199/18/17
f 198/20/20 197/19/21 196/21/22
f 195/20/23 194/17/19 193/19/24
f 192/19/18 191/22/25 190/23/26
f 189/19/18 188/18/27 187/22/25
f 186/21/28 185/23/26 184/24/29
f 183/21/28 3/19/18 182/23/26
f 181/23/26 180/25/30 179/26/31
f 178/23/26 177/22/32 176/25/33
f 175/24/34 174/26/31 173/27/35
f 172/24/34 4/23/26 171/26/31
f 170/28/36 169/29/37 168/30/38
f 167/28/36 166/31/30 165/29/37
f 164/32/39 163/30/38 162/33/40
f 161/32/39 13/28/31 160/30/41
f 159/30/38 158/34/42 157/35/43
f 156/30/38 155/29/37 154/34/42
f 153/33/44 152/35/43 151/36/45
f 150/33/44 14/30/38 149/35/43
f 148/35/46 147/15/47 146/37/48
f 145/35/46 144/34/42 143/15/49
f 142/36/50 141/37/48 140/38/51
f 139/36/52 16/35/43 138/37/48
f 137/37/48 136/16/14 135/17/19
f 134/37/48 133/15/47 132/16/14
f 131/38/53 130/17/19 129/20/23
f 128/38/53 36/37/48 25/17/19
f 127/39/54 126/20/23 125/40/55
f 124/39/54 123/38/56 122/20/23
f 121/41/57 120/36/45 119/42/58
f 118/41/59 117/33/44 116/36/45
f 115/43/60 114/27/35 113/44/61
f 112/43/62 111/24/29 110/27/35
f 109/40/63 108/21/64 107/45/65
f 106/40/66 40/20/67 105/21/64
f 104/42/68 103/38/56 102/39/54
f 101/42/68 41/36/45 42/38/56
f 100/46/69 99/33/70 98/41/71
f 97/46/61 37/32/39 38/33/70
f 96/45/65 95/24/29 94/43/60
f 93/45/65 33/21/64 34/24/29
f 92/29/72 91/14/12 90/34/42
f 89/29/72 88/12/8 87/14/73
f 86/22/25 85/9/6 84/25/33
f 83/22/32 82/10/74 81/9/6
f 80/16/75 79/8/7 78/18/17
f 29/16/75 30/11/5 77/8/76
f 76/31/77 75/12/8 28/29/37
f 31/31/77 26/9/6 27/12/8
f 74/18/17 73/10/4 24/22/25
f 21/18/78 22/8/76 23/10/4
f 72/34/42 71/13/11 20/15/47
f 17/34/42 18/14/12 19/13/15
f 70/47/79 69/48/80 68/49/81
f 67/47/82 66/50/66 65/48/80
f 64/51/83 63/52/54 62/53/84
f 61/51/85 60/54/68 59/52/54
f 58/55/86 57/56/87 56/57/88
f 55/55/89 54/58/90 53/56/71
f 52/49/91 51/59/62 50/60/92
f 2/49/81 32/48/65 49/59/62
f 48/53/93 47/50/63 12/47/94
f 9/53/95 10/52/54 11/50/55
f 46/57/96 45/54/68 8/51/83
f 5/57/96 6/56/87 7/54/58
f 44/60/92 43/61/69 15/62/97
f 1/60/92 35/59/62 39/61/98
