# Blender 5.0.0
# www.blender.org
mtllib Circle_005_Circle_001_Dupli_202_decorations_0.mtl
o Circle.005|Circle.001|Dupli|202_decorations_0
v -4.598021 1.628196 0.438974
v -4.597938 1.627964 0.437587
v -4.605333 1.630333 0.436442
v -4.605452 1.630663 0.438420
v -4.598661 1.625917 0.439889
v -4.603927 1.627239 0.439268
v -4.603997 1.626496 0.438183
v -4.598736 1.625123 0.438729
v -4.598511 1.625499 0.437391
v -4.603787 1.626848 0.436932
v -4.603455 1.628030 0.436457
v -4.598156 1.626764 0.436883
v -4.605911 1.629364 0.439882
v -4.606365 1.627412 0.439727
v -4.598343 1.627285 0.439998
v -4.606472 1.626279 0.438071
v -4.607776 1.627032 0.437867
v -4.608569 1.627888 0.437676
v -4.608398 1.628174 0.436662
v -4.607515 1.627469 0.436313
v -4.606849 1.630330 0.436541
v -4.607965 1.630041 0.436811
v -4.608027 1.630217 0.437861
v -4.606946 1.630599 0.438151
v -4.605644 1.628621 0.435437
v -4.608271 1.629526 0.438638
v -4.608512 1.628490 0.438555
v -4.607689 1.627954 0.439214
v -4.607102 1.628937 0.435723
v -4.608130 1.629132 0.436277
v -4.607320 1.629542 0.439341
v -4.603251 1.629152 0.437116
v -4.603976 1.629741 0.436759
v -4.604079 1.630027 0.438472
v -4.603329 1.629369 0.438412
v -4.606151 1.626817 0.436162
v -4.604476 1.628902 0.439737
v -4.604869 1.627213 0.439603
v -4.603630 1.628517 0.439370
v -4.604245 1.628259 0.435889
v -4.604961 1.626232 0.438169
v -4.604683 1.626698 0.436517
v -4.603630 1.628517 0.439370
v -4.598021 1.628196 0.438974
v -4.603997 1.626496 0.438183
v -4.598661 1.625917 0.439889
v -4.603455 1.628030 0.436457
v -4.598511 1.625499 0.437391
v -4.603329 1.629369 0.438412
v -4.598021 1.628196 0.438974
v -4.603329 1.629369 0.438412
v -4.597938 1.627964 0.437587
v -4.603927 1.627239 0.439268
v -4.603630 1.628517 0.439370
v -4.598343 1.627285 0.439998
v -4.598661 1.625917 0.439889
v -4.603927 1.627239 0.439268
v -4.598343 1.627285 0.439998
v -4.603787 1.626848 0.436932
v -4.603997 1.626496 0.438183
v -4.598736 1.625123 0.438729
v -4.598511 1.625499 0.437391
v -4.603787 1.626848 0.436932
v -4.598736 1.625123 0.438729
v -4.603251 1.629152 0.437116
v -4.603455 1.628030 0.436457
v -4.598156 1.626764 0.436883
v -4.597938 1.627964 0.437587
v -4.603251 1.629152 0.437116
v -4.598156 1.626764 0.436883
v -4.608398 1.628174 0.436662
v -4.607776 1.627032 0.437867
v -4.608027 1.630217 0.437861
v -4.606849 1.630330 0.436541
v -4.608512 1.628490 0.438555
v -4.607320 1.629542 0.439341
v -4.607965 1.630041 0.436811
v -4.606849 1.630330 0.436541
v -4.607965 1.630041 0.436811
v -4.607102 1.628937 0.435723
v -4.608271 1.629526 0.438638
v -4.608027 1.630217 0.437861
v -4.606946 1.630599 0.438151
v -4.607320 1.629542 0.439341
v -4.608271 1.629526 0.438638
v -4.606946 1.630599 0.438151
v -4.608569 1.627888 0.437676
v -4.608512 1.628490 0.438555
v -4.607689 1.627954 0.439214
v -4.607776 1.627032 0.437867
v -4.608569 1.627888 0.437676
v -4.607689 1.627954 0.439214
v -4.603251 1.629152 0.437116
v -4.603329 1.629369 0.438412
v -4.604079 1.630027 0.438472
v -4.603251 1.629152 0.437116
v -4.603630 1.628517 0.439370
v -4.603927 1.627239 0.439268
v -4.604869 1.627213 0.439603
v -4.603630 1.628517 0.439370
v -4.603997 1.626496 0.438183
v -4.603787 1.626848 0.436932
v -4.604683 1.626698 0.436517
v -4.603997 1.626496 0.438183
v -4.603976 1.629741 0.436759
v -4.603455 1.628030 0.436457
v -4.603251 1.629152 0.437116
v -4.603976 1.629741 0.436759
v -4.603455 1.628030 0.436457
v -4.604476 1.628902 0.439737
v -4.604079 1.630027 0.438472
v -4.603329 1.629369 0.438412
v -4.603630 1.628517 0.439370
v -4.604476 1.628902 0.439737
v -4.603329 1.629369 0.438412
v -4.604961 1.626232 0.438169
v -4.604869 1.627213 0.439603
v -4.603927 1.627239 0.439268
v -4.603997 1.626496 0.438183
v -4.604961 1.626232 0.438169
v -4.603927 1.627239 0.439268
v -4.604245 1.628259 0.435889
v -4.604683 1.626698 0.436517
v -4.603787 1.626848 0.436932
v -4.603455 1.628030 0.436457
v -4.604245 1.628259 0.435889
v -4.603787 1.626848 0.436932
v -4.604683 1.626698 0.436517
v -4.604245 1.628259 0.435889
v -4.605644 1.628621 0.435437
v -4.604683 1.626698 0.436517
v -4.607102 1.628937 0.435723
v -4.607515 1.627469 0.436313
v -4.606151 1.626817 0.436162
v -4.605644 1.628621 0.435437
v -4.607102 1.628937 0.435723
v -4.606151 1.626817 0.436162
v -4.606151 1.626817 0.436162
v -4.604961 1.626232 0.438169
v -4.604683 1.626698 0.436517
v -4.606151 1.626817 0.436162
v -4.604961 1.626232 0.438169
v -4.607515 1.627469 0.436313
v -4.607776 1.627032 0.437867
v -4.606472 1.626279 0.438071
v -4.606151 1.626817 0.436162
v -4.607515 1.627469 0.436313
v -4.606472 1.626279 0.438071
v -4.606472 1.626279 0.438071
v -4.604869 1.627213 0.439603
v -4.604961 1.626232 0.438169
v -4.606472 1.626279 0.438071
v -4.604869 1.627213 0.439603
v -4.607776 1.627032 0.437867
v -4.607689 1.627954 0.439214
v -4.606365 1.627412 0.439727
v -4.606472 1.626279 0.438071
v -4.607776 1.627032 0.437867
v -4.606365 1.627412 0.439727
v -4.606365 1.627412 0.439727
v -4.604476 1.628902 0.439737
v -4.604869 1.627213 0.439603
v -4.606365 1.627412 0.439727
v -4.604476 1.628902 0.439737
v -4.607689 1.627954 0.439214
v -4.607320 1.629542 0.439341
v -4.605911 1.629364 0.439882
v -4.606365 1.627412 0.439727
v -4.607689 1.627954 0.439214
v -4.605911 1.629364 0.439882
v -4.605911 1.629364 0.439882
v -4.604079 1.630027 0.438472
v -4.604476 1.628902 0.439737
v -4.605911 1.629364 0.439882
v -4.604079 1.630027 0.438472
v -4.607320 1.629542 0.439341
v -4.606946 1.630599 0.438151
v -4.605452 1.630663 0.438420
v -4.605911 1.629364 0.439882
v -4.607320 1.629542 0.439341
v -4.605452 1.630663 0.438420
v -4.605452 1.630663 0.438420
v -4.603976 1.629741 0.436759
v -4.604079 1.630027 0.438472
v -4.605452 1.630663 0.438420
v -4.603976 1.629741 0.436759
v -4.606946 1.630599 0.438151
v -4.606849 1.630330 0.436541
v -4.605333 1.630333 0.436442
v -4.605452 1.630663 0.438420
v -4.606946 1.630599 0.438151
v -4.605333 1.630333 0.436442
v -4.605333 1.630333 0.436442
v -4.605644 1.628621 0.435437
v -4.604245 1.628259 0.435889
v -4.603976 1.629741 0.436759
v -4.605333 1.630333 0.436442
v -4.604245 1.628259 0.435889
v -4.606849 1.630330 0.436541
v -4.607102 1.628937 0.435723
v -4.605644 1.628621 0.435437
v -4.605333 1.630333 0.436442
v -4.606849 1.630330 0.436541
v -4.605644 1.628621 0.435437
v -4.608130 1.629132 0.436277
v -4.608398 1.628174 0.436662
v -4.607515 1.627469 0.436313
v -4.607102 1.628937 0.435723
v -4.608130 1.629132 0.436277
v -4.607515 1.627469 0.436313
v -4.608569 1.627888 0.437676
v -4.608398 1.628174 0.436662
v -4.608512 1.628490 0.438555
v -4.608130 1.629132 0.436277
v -4.608512 1.628490 0.438555
v -4.608398 1.628174 0.436662
v -4.608271 1.629526 0.438638
v -4.608512 1.628490 0.438555
v -4.608130 1.629132 0.436277
v -4.607965 1.630041 0.436811
v -4.608271 1.629526 0.438638
v -4.608130 1.629132 0.436277
v -4.608027 1.630217 0.437861
v -4.608271 1.629526 0.438638
v -4.607965 1.630041 0.436811
v -4.598736 1.625123 0.438729
v -4.598661 1.625917 0.439889
v -4.598511 1.625499 0.437391
v -4.598156 1.626764 0.436883
v -4.598511 1.625499 0.437391
v -4.598661 1.625917 0.439889
v -4.598343 1.627285 0.439998
v -4.598156 1.626764 0.436883
v -4.598661 1.625917 0.439889
v -4.597938 1.627964 0.437587
v -4.598156 1.626764 0.436883
v -4.598343 1.627285 0.439998
v -4.598021 1.628196 0.438974
v -4.597938 1.627964 0.437587
v -4.598343 1.627285 0.439998
vn 0.9677 -0.2328 0.0970
vn -0.6601 0.6390 -0.3949
vn -0.8009 0.4029 0.4429
vn -0.6891 0.7195 0.0868
vn -0.7359 0.2221 -0.6397
vn -0.8009 0.4030 0.4429
vn -0.7359 0.2222 -0.6397
vn -0.9114 -0.0722 0.4050
vn -0.8593 -0.2172 -0.4631
vn -0.9114 -0.0722 0.4051
vn -0.9374 -0.3482 0.0018
vn -0.4923 -0.5680 -0.6596
vn -0.2925 0.1433 -0.9455
vn -0.4922 -0.5680 -0.6596
vn -0.7359 0.2221 -0.6396
vn 0.0756 0.0617 -0.9952
vn -0.1698 0.8182 -0.5492
vn 0.2098 0.8004 -0.5615
vn 0.0755 0.0616 -0.9952
vn -0.1699 0.8182 -0.5492
vn 0.4322 -0.0287 -0.9013
vn 0.2098 0.8005 -0.5615
vn 0.5586 0.6672 -0.4928
vn 0.4321 -0.0287 -0.9013
vn 0.0755 0.0617 -0.9952
vn 0.2097 0.8004 -0.5615
vn -0.2167 0.9486 0.2307
vn 0.1585 0.9431 0.2923
vn -0.1698 0.8183 -0.5492
vn 0.5586 0.6672 -0.4927
vn 0.1585 0.9431 0.2922
vn 0.5102 0.8016 0.3115
vn -0.3978 0.4362 0.8072
vn -0.0397 0.3822 0.9232
vn -0.2167 0.9486 0.2308
vn -0.3978 0.4362 0.8071
vn 0.5103 0.8016 0.3116
vn 0.3235 0.2732 0.9059
vn -0.0397 0.3821 0.9232
vn -0.5767 -0.3331 0.7459
vn -0.2356 -0.4598 0.8562
vn -0.3978 0.4361 0.8072
vn -0.5768 -0.3331 0.7459
vn -0.2355 -0.4598 0.8562
vn 0.1390 -0.5200 0.8428
vn -0.6188 -0.7800 0.0932
vn -0.2816 -0.9490 0.1416
vn -0.5767 -0.3332 0.7459
vn 0.1390 -0.5201 0.8427
vn 0.0956 -0.9809 0.1696
vn -0.2356 -0.4599 0.8562
vn -0.1431 -0.7169 -0.6823
vn -0.6188 -0.7800 0.0931
vn 0.0957 -0.9809 0.1696
vn 0.2260 -0.7622 -0.6066
vn -0.1432 -0.7169 -0.6823
vn 0.2261 -0.7622 -0.6066
vn 0.4321 -0.0287 -0.9014
vn 0.1498 -0.7618 -0.6302
vn 0.4321 -0.0288 -0.9014
vn 0.3611 -0.0097 -0.9325
vn 0.0605 -0.5135 0.8559
vn 0.0161 -0.9860 0.1657
vn 0.1391 -0.5200 0.8427
vn 0.4412 0.8417 0.3113
vn 0.2497 0.2999 0.9207
vn 0.4412 0.8417 0.3112
vn 0.5102 0.8016 0.3116
vn 0.3610 -0.0097 -0.9325
vn 0.4908 0.7039 -0.5135
vn 0.4322 -0.0288 -0.9013
vn 0.0160 -0.9860 0.1657
vn 0.4907 0.7039 -0.5135
vn -0.9374 -0.3483 0.0018
vn -0.2168 0.9486 0.2308
vn -0.6890 0.7195 0.0868
vn -0.2925 0.1434 -0.9455
vn -0.2924 0.1434 -0.9455
vn -0.6890 0.7195 0.0869
vn 0.0935 0.0574 -0.9940
vn 0.2278 0.7965 -0.5600
vn 0.3611 -0.0098 -0.9325
vn -0.2638 -0.9538 0.1434
vn -0.1253 -0.7216 -0.6809
vn -0.2639 -0.9538 0.1434
vn -0.0218 0.3780 0.9255
vn 0.0605 -0.5136 0.8559
vn -0.2178 -0.4643 0.8585
vn -0.0219 0.3781 0.9255
vn 0.2278 0.7966 -0.5600
vn 0.1765 0.9393 0.2942
vn -0.2178 -0.4644 0.8584
vn -0.2639 -0.9538 0.1435
vn -0.0218 0.3781 0.9255
vt 0.543243 0.635056
vt 0.535370 0.641335
vt 0.537796 0.636299
vt 0.537796 0.646370
vt 0.547607 0.638535
vt 0.543243 0.647614
vt 0.547607 0.644127
vt 0.593674 0.671494
vt 0.598511 0.669548
vt 0.596146 0.672157
vt 0.592773 0.669609
vt 0.596436 0.666756
vt 0.592804 0.667854
vt 0.594147 0.666748
vt 0.591187 0.666855
vt 0.590591 0.669838
vt 0.587372 0.669685
vt 0.591782 0.673050
vt 0.588348 0.674789
vt 0.582382 0.669067
vt 0.582687 0.676537
vt 0.595596 0.675606
vt 0.592606 0.680244
vt 0.586334 0.684982
vt 0.603775 0.674767
vt 0.603561 0.686485
vt 0.594009 0.696274
vt 0.603775 0.658051
vt 0.597107 0.663902
vt 0.596405 0.659698
vt 0.602859 0.665543
vt 0.600342 0.651657
vt 0.594193 0.655174
vt 0.593353 0.664742
vt 0.591705 0.661980
vt 0.588959 0.658463
vt 0.588654 0.665283
vt 0.584778 0.662933
vt 0.580322 0.660286
vt 0.576584 0.668175
vt 0.591812 0.651588
vt 0.585907 0.654999
vt 0.579453 0.688484
vt 0.584915 0.699394
vt 0.576157 0.678001
vt 0.597061 0.648293
vt 0.627350 0.682632
vt 0.649124 0.687675
vt 0.627441 0.688225
vt 0.649033 0.682457
vt 0.627441 0.671455
vt 0.649033 0.677231
vt 0.627350 0.677048
vt 0.649124 0.672005
vt 0.627914 0.660294
vt 0.649292 0.666786
vt 0.627625 0.665871
vt 0.649551 0.661568
vt 0.649292 0.692902
vt 0.627625 0.693810
vt 0.649551 0.698120
vt 0.627914 0.699394
s 0
usemtl decorations
f 240/1/1 239/2/1 238/3/1
f 237/1/1 236/4/1 235/2/1
f 234/5/1 233/4/1 232/1/1
f 231/5/1 230/6/1 229/4/1
f 228/6/1 227/5/1 226/7/1
s 1
f 225/8/2 224/9/3 223/10/4
f 222/11/5 221/9/6 220/8/2
f 219/11/7 218/12/8 217/9/3
f 216/13/9 215/12/10 214/11/5
f 213/12/8 212/13/9 211/14/11
f 210/15/12 209/11/5 208/16/13
f 207/15/14 206/13/9 205/11/15
f 204/17/16 203/18/17 202/19/18
f 201/17/19 200/16/13 199/18/20
f 198/20/21 197/19/22 196/21/23
f 195/20/24 194/17/25 193/19/26
f 192/19/18 191/22/27 190/23/28
f 189/19/18 188/18/29 187/22/27
f 186/21/30 185/23/31 184/24/32
f 183/21/30 3/19/18 182/23/31
f 181/23/28 180/25/33 179/26/34
f 178/23/28 177/22/35 176/25/36
f 175/24/37 174/26/34 173/27/38
f 172/24/37 4/23/28 171/26/34
f 170/28/39 169/29/40 168/30/41
f 167/28/34 166/31/42 165/29/43
f 164/32/38 163/30/44 162/33/45
f 161/32/38 13/28/34 160/30/41
f 159/30/41 158/34/46 157/35/47
f 156/30/41 155/29/48 154/34/46
f 153/33/49 152/35/47 151/36/50
f 150/33/49 14/30/51 149/35/47
f 148/35/47 147/15/12 146/37/52
f 145/35/47 144/34/53 143/15/12
f 142/36/54 141/37/52 140/38/55
f 139/36/54 16/35/47 138/37/52
f 137/37/52 136/16/13 135/17/16
f 134/37/56 133/15/12 132/16/13
f 131/38/57 130/17/16 129/20/58
f 128/38/57 36/37/56 25/17/16
f 127/39/59 126/20/60 125/40/61
f 124/39/59 123/38/57 122/20/60
f 121/41/62 120/36/50 119/42/63
f 118/41/62 117/33/64 116/36/50
f 115/43/65 114/27/38 113/44/66
f 112/43/67 111/24/68 110/27/38
f 109/40/69 108/21/23 107/45/70
f 106/40/61 40/20/71 105/21/23
f 104/42/72 103/38/57 102/39/59
f 101/42/72 41/36/50 42/38/57
f 100/46/66 99/33/45 98/41/62
f 97/46/66 37/32/38 38/33/45
f 96/45/73 95/24/32 94/43/65
f 93/45/73 33/21/23 34/24/32
f 92/29/48 91/14/11 90/34/46
f 89/29/48 88/12/8 87/14/74
f 86/22/75 85/9/6 84/25/33
f 83/22/35 82/10/76 81/9/6
f 80/16/77 79/8/2 78/18/20
f 29/16/78 30/11/5 77/8/2
f 76/31/42 75/12/8 28/29/43
f 31/31/42 26/9/6 27/12/8
f 74/18/17 73/10/79 24/22/35
f 21/18/29 22/8/2 23/10/4
f 72/34/53 71/13/9 20/15/12
f 17/34/53 18/14/11 19/13/9
f 70/47/80 69/48/73 68/49/81
f 67/47/80 66/50/82 65/48/73
f 64/51/83 63/52/59 62/53/84
f 61/51/85 60/54/63 59/52/59
f 58/55/86 57/56/87 56/57/88
f 55/55/89 54/58/66 53/56/62
f 52/49/90 51/59/67 50/60/91
f 2/49/90 32/48/70 49/59/67
f 48/53/84 47/50/61 12/47/80
f 9/53/84 10/52/59 11/50/61
f 46/57/92 45/54/72 8/51/93
f 5/57/92 6/56/87 7/54/63
f 44/60/91 43/61/66 15/62/94
f 1/60/91 35/59/67 39/61/66
