# Blender 5.0.0
# www.blender.org
mtllib gift_001_gifts_0.mtl
o gift.001_gifts_0
v -4.351216 0.237954 0.210242
v -4.337598 0.310062 0.208762
v -4.430434 0.310062 0.218851
v -4.430434 0.237954 0.218851
v -4.337598 0.323760 0.208762
v -4.430434 0.395868 0.218851
v -4.240526 0.310062 0.364463
v -4.333361 0.395868 0.374552
v -4.351216 0.310062 0.210242
v -4.337598 0.395868 0.208762
v -4.319743 0.395868 0.373072
v -4.319743 0.310062 0.373072
v -4.333361 0.237954 0.374552
v -4.333361 0.323760 0.374552
v -4.319743 0.323760 0.373072
v -4.412579 0.237954 0.383160
v -4.240526 0.237954 0.364463
v -4.240526 0.323760 0.364463
v -4.240526 0.395868 0.364463
v -4.319743 0.237954 0.373072
v -4.258381 0.395868 0.200154
v -4.258381 0.323760 0.200154
v -4.351216 0.395868 0.210242
v -4.351216 0.323760 0.210242
v -4.337598 0.237954 0.208762
v -4.412579 0.323760 0.383160
v -4.258381 0.310062 0.200154
v -4.258381 0.237954 0.200154
v -4.412579 0.395868 0.383160
v -4.412579 0.310062 0.383160
v -4.333361 0.310062 0.374552
v -4.430434 0.323760 0.218851
v -4.430434 0.310062 0.218851
v -4.412579 0.237954 0.383160
v -4.412579 0.395868 0.383160
v -4.351216 0.395868 0.210242
v -4.319743 0.395868 0.373072
v -4.240526 0.323760 0.364463
v -4.430434 0.237954 0.218851
v -4.412579 0.237954 0.383160
v -4.333361 0.237954 0.374552
v -4.430434 0.237954 0.218851
v -4.319743 0.310062 0.373072
v -4.240526 0.237954 0.364463
v -4.351216 0.395868 0.210242
v -4.430434 0.395868 0.218851
v -4.351216 0.395868 0.210242
v -4.430434 0.323760 0.218851
v -4.258381 0.310062 0.200154
v -4.337598 0.237954 0.208762
v -4.430434 0.395868 0.218851
v -4.412579 0.395868 0.383160
v -4.430434 0.323760 0.218851
v -4.430434 0.395868 0.218851
v -4.412579 0.323760 0.383160
v -4.258381 0.395868 0.200154
v -4.337598 0.323760 0.208762
v -4.240526 0.237954 0.364463
v -4.258381 0.237954 0.200154
v -4.337598 0.237954 0.208762
v -4.319743 0.237954 0.373072
v -4.240526 0.237954 0.364463
v -4.337598 0.237954 0.208762
v -4.412579 0.310062 0.383160
v -4.333361 0.237954 0.374552
v -4.412579 0.237954 0.383160
v -4.412579 0.310062 0.383160
v -4.333361 0.237954 0.374552
v -4.412579 0.395868 0.383160
v -4.333361 0.395868 0.374552
v -4.412579 0.323760 0.383160
v -4.412579 0.395868 0.383160
v -4.333361 0.323760 0.374552
v -4.240526 0.395868 0.364463
v -4.258381 0.395868 0.200154
v -4.258381 0.323760 0.200154
v -4.240526 0.323760 0.364463
v -4.240526 0.395868 0.364463
v -4.258381 0.323760 0.200154
v -4.319743 0.395868 0.373072
v -4.337598 0.395868 0.208762
v -4.258381 0.395868 0.200154
v -4.240526 0.395868 0.364463
v -4.319743 0.395868 0.373072
v -4.258381 0.395868 0.200154
v -4.240526 0.310062 0.364463
v -4.258381 0.310062 0.200154
v -4.258381 0.237954 0.200154
v -4.240526 0.237954 0.364463
v -4.240526 0.310062 0.364463
v -4.258381 0.237954 0.200154
v -4.319743 0.323760 0.373072
v -4.319743 0.310062 0.373072
v -4.333361 0.310062 0.374552
v -4.333361 0.323760 0.374552
v -4.319743 0.323760 0.373072
v -4.333361 0.310062 0.374552
v -4.351216 0.323760 0.210242
v -4.337598 0.310062 0.208762
v -4.337598 0.323760 0.208762
v -4.351216 0.323760 0.210242
v -4.337598 0.310062 0.208762
v -4.319743 0.395868 0.373072
v -4.333361 0.395868 0.374552
v -4.351216 0.395868 0.210242
v -4.337598 0.395868 0.208762
v -4.319743 0.395868 0.373072
v -4.351216 0.395868 0.210242
v -4.333361 0.237954 0.374552
v -4.319743 0.237954 0.373072
v -4.337598 0.237954 0.208762
v -4.351216 0.237954 0.210242
v -4.333361 0.237954 0.374552
v -4.337598 0.237954 0.208762
v -4.319743 0.237954 0.373072
v -4.333361 0.237954 0.374552
v -4.333361 0.310062 0.374552
v -4.319743 0.310062 0.373072
v -4.319743 0.237954 0.373072
v -4.333361 0.310062 0.374552
v -4.351216 0.237954 0.210242
v -4.337598 0.237954 0.208762
v -4.337598 0.310062 0.208762
v -4.351216 0.310062 0.210242
v -4.351216 0.237954 0.210242
v -4.337598 0.310062 0.208762
v -4.319743 0.323760 0.373072
v -4.333361 0.323760 0.374552
v -4.333361 0.395868 0.374552
v -4.319743 0.395868 0.373072
v -4.319743 0.323760 0.373072
v -4.333361 0.395868 0.374552
v -4.351216 0.323760 0.210242
v -4.337598 0.323760 0.208762
v -4.337598 0.395868 0.208762
v -4.351216 0.395868 0.210242
v -4.351216 0.323760 0.210242
v -4.337598 0.395868 0.208762
v -4.351216 0.310062 0.210242
v -4.351216 0.323760 0.210242
v -4.430434 0.323760 0.218851
v -4.430434 0.310062 0.218851
v -4.351216 0.310062 0.210242
v -4.430434 0.323760 0.218851
v -4.319743 0.310062 0.373072
v -4.319743 0.323760 0.373072
v -4.240526 0.323760 0.364463
v -4.240526 0.310062 0.364463
v -4.319743 0.310062 0.373072
v -4.240526 0.323760 0.364463
v -4.412579 0.310062 0.383160
v -4.412579 0.323760 0.383160
v -4.333361 0.323760 0.374552
v -4.333361 0.310062 0.374552
v -4.412579 0.310062 0.383160
v -4.333361 0.323760 0.374552
v -4.240526 0.310062 0.364463
v -4.240526 0.323760 0.364463
v -4.258381 0.323760 0.200154
v -4.258381 0.310062 0.200154
v -4.240526 0.310062 0.364463
v -4.258381 0.323760 0.200154
v -4.258381 0.310062 0.200154
v -4.258381 0.323760 0.200154
v -4.337598 0.323760 0.208762
v -4.337598 0.310062 0.208762
v -4.258381 0.310062 0.200154
v -4.337598 0.323760 0.208762
v -4.430434 0.310062 0.218851
v -4.430434 0.323760 0.218851
v -4.412579 0.323760 0.383160
v -4.412579 0.310062 0.383160
v -4.430434 0.310062 0.218851
v -4.412579 0.323760 0.383160
v -4.351216 0.310062 0.210242
v -4.430434 0.310062 0.218851
v -4.430434 0.237954 0.218851
v -4.351216 0.237954 0.210242
v -4.351216 0.310062 0.210242
v -4.430434 0.237954 0.218851
vn -0.1080 -0.0000 -0.9941
vn -0.9941 -0.0000 0.1080
vn 0.9941 -0.0000 -0.1080
vn 0.1080 -0.0000 0.9941
vn -0.0000 -1.0000 -0.0000
vn -0.0000 1.0000 -0.0000
vt 0.639465 0.854168
vt 0.712753 0.920494
vt 0.712753 0.854168
vt 0.639465 0.920494
vt 0.623505 0.145233
vt 0.471489 0.157837
vt 0.623505 0.157837
vt 0.471489 0.145233
vt 0.725357 0.933094
vt 0.798660 0.920494
vt 0.725357 0.920494
vt 0.798660 0.933094
vt 0.951843 0.920494
vt 0.799820 0.933094
vt 0.951843 0.933094
vt 0.799820 0.920494
vt 0.335533 0.189682
vt 0.322937 0.116394
vt 0.322937 0.189682
vt 0.335533 0.116394
vt 0.335533 0.275574
vt 0.322937 0.202286
vt 0.322937 0.275574
vt 0.335533 0.202286
vt 0.639465 0.933094
vt 0.712753 0.933094
vt 0.725357 0.999418
vt 0.712753 0.999418
vt 0.401863 0.189682
vt 0.401863 0.202286
vt 0.725357 0.854168
vt 0.256607 0.202286
vt 0.256607 0.189682
vt 0.325928 0.926125
vt 0.477951 0.913525
vt 0.325928 0.913525
vt 0.477951 0.926125
vt 0.565002 0.999418
vt 0.552414 0.847397
vt 0.552414 0.999418
vt 0.565002 0.847397
vt 0.951843 0.999418
vt 0.799820 0.999418
vt 0.479118 0.999418
vt 0.479118 0.847397
vt 0.799820 0.854168
vt 0.951843 0.854168
vt 0.401863 0.116394
vt 0.256607 0.116394
vt 0.477951 0.999418
vt 0.325928 0.999418
vt 0.798660 0.999418
vt 0.471489 0.078903
vt 0.623505 0.078903
vt 0.798660 0.854168
vt 0.639465 0.999418
vt 0.256607 0.275574
vt 0.325928 0.840233
vt 0.477951 0.840233
vt 0.401863 0.275574
vt 0.638306 0.847397
vt 0.638306 0.999418
vt 0.623505 0.224152
vt 0.471489 0.224152
s 0
usemtl gifts
f 180/1/1 179/2/1 178/3/1
f 177/1/1 176/4/1 175/2/1
f 174/5/2 173/6/2 172/7/2
f 171/5/2 170/8/2 169/6/2
f 168/9/1 167/10/1 166/11/1
f 165/9/1 164/12/1 163/10/1
f 162/13/3 161/14/3 160/15/3
f 159/13/3 158/16/3 157/14/3
f 156/17/4 155/18/4 154/19/4
f 153/17/4 152/20/4 151/18/4
f 150/21/4 149/22/4 148/23/4
f 147/21/4 146/24/4 145/22/4
f 144/25/1 143/2/1 142/4/1
f 141/25/1 140/26/1 139/2/1
f 138/27/1 137/26/1 136/28/1
f 135/27/1 134/9/1 133/26/1
f 132/29/4 131/24/4 130/30/4
f 129/29/4 128/17/4 127/24/4
f 126/11/1 125/3/1 124/2/1
f 123/11/1 122/31/1 121/3/1
f 120/19/4 119/32/4 118/22/4
f 117/19/4 116/33/4 115/32/4
f 114/34/5 113/35/5 112/36/5
f 111/34/5 110/37/5 109/35/5
f 108/38/6 107/39/6 106/40/6
f 105/38/6 104/41/6 103/39/6
f 102/11/1 101/26/1 100/9/1
f 99/11/1 9/2/1 98/26/1
f 97/19/4 96/24/4 95/17/4
f 94/19/4 93/22/4 92/24/4
f 91/42/3 90/14/3 89/43/3
f 88/42/3 87/15/3 86/14/3
f 85/44/6 84/39/6 83/45/6
f 82/44/6 81/40/6 80/39/6
f 79/13/3 78/46/3 77/16/3
f 76/13/3 75/47/3 74/46/3
f 73/17/4 72/48/4 71/20/4
f 14/17/4 70/29/4 69/48/4
f 68/33/4 67/18/4 66/49/4
f 65/33/4 31/19/4 64/18/4
f 63/34/5 62/50/5 61/37/5
f 60/34/5 59/51/5 58/50/5
f 57/9/1 56/52/1 22/12/1
f 5/9/1 10/27/1 21/52/1
f 55/5/2 54/53/2 53/8/2
f 26/5/2 52/54/2 51/53/2
f 50/31/1 49/10/1 28/55/1
f 25/31/1 2/11/1 27/10/1
f 48/25/1 47/28/1 24/26/1
f 32/25/1 46/56/1 45/28/1
f 44/57/4 43/22/4 20/32/4
f 17/57/4 7/23/4 12/22/4
f 42/58/5 41/35/5 40/59/5
f 39/58/5 1/36/5 13/35/5
f 38/21/4 37/30/4 15/24/4
f 18/21/4 19/60/4 11/30/4
f 36/38/6 35/61/6 8/41/6
f 23/38/6 6/62/6 29/61/6
f 34/63/2 33/6/2 4/64/2
f 16/63/2 30/7/2 3/6/2
