# Blender 5.0.0
# www.blender.org
mtllib gift_008_gifts_0.mtl
o gift.008_gifts_0
v -4.998894 0.237953 0.736716
v -4.998894 0.274898 0.736716
v -4.998894 0.274898 0.599426
v -4.998894 0.237953 0.599426
v -4.922261 0.237953 0.736716
v -4.808850 0.274898 0.736716
v -4.885483 0.274898 0.562649
v -4.808850 0.274898 0.599426
v -4.922261 0.237953 0.562649
v -4.922261 0.237953 0.599426
v -4.885483 0.274898 0.471386
v -4.885483 0.237953 0.562649
v -4.885483 0.237953 0.471386
v -4.922261 0.274898 0.736716
v -4.998894 0.237953 0.471386
v -4.998894 0.274898 0.471386
v -4.808850 0.237953 0.471386
v -4.808850 0.274898 0.471386
v -4.808850 0.274898 0.562649
v -4.808850 0.237953 0.562649
v -4.922261 0.274898 0.599426
v -4.998894 0.274898 0.562649
v -4.998894 0.237953 0.562649
v -4.922261 0.274898 0.562649
v -4.922261 0.274898 0.471386
v -4.885483 0.274898 0.599426
v -4.885483 0.274898 0.736716
v -4.922261 0.237953 0.471386
v -4.885483 0.237953 0.599426
v -4.808850 0.237953 0.599426
v -4.808850 0.237953 0.736716
v -4.885483 0.237953 0.736716
v -4.998894 0.274898 0.599426
v -4.998894 0.237953 0.736716
v -4.885483 0.274898 0.736716
v -4.808850 0.237953 0.736716
v -4.808850 0.237953 0.562649
v -4.885483 0.237953 0.471386
v -4.808850 0.274898 0.736716
v -4.808850 0.237953 0.736716
v -4.808850 0.274898 0.736716
v -4.808850 0.237953 0.599426
v -4.808850 0.237953 0.471386
v -4.808850 0.237953 0.562649
v -4.808850 0.274898 0.562649
v -4.808850 0.237953 0.471386
v -4.998894 0.274898 0.736716
v -4.998894 0.274898 0.599426
v -4.998894 0.274898 0.736716
v -4.922261 0.274898 0.599426
v -4.885483 0.274898 0.736716
v -4.808850 0.274898 0.599426
v -4.808850 0.274898 0.736716
v -4.885483 0.274898 0.736716
v -4.808850 0.274898 0.599426
v -4.808850 0.237953 0.736716
v -4.808850 0.237953 0.599426
v -4.885483 0.237953 0.736716
v -4.808850 0.237953 0.736716
v -4.885483 0.237953 0.599426
v -4.922261 0.237953 0.562649
v -4.998894 0.237953 0.471386
v -4.998894 0.274898 0.562649
v -4.922261 0.274898 0.471386
v -4.922261 0.274898 0.471386
v -4.998894 0.274898 0.471386
v -4.998894 0.237953 0.471386
v -4.922261 0.237953 0.471386
v -4.922261 0.274898 0.471386
v -4.998894 0.237953 0.471386
v -4.808850 0.274898 0.471386
v -4.808850 0.274898 0.562649
v -4.885483 0.274898 0.562649
v -4.808850 0.274898 0.471386
v -4.998894 0.274898 0.471386
v -4.998894 0.274898 0.562649
v -4.998894 0.237953 0.562649
v -4.998894 0.237953 0.471386
v -4.998894 0.274898 0.471386
v -4.998894 0.237953 0.562649
v -4.998894 0.274898 0.736716
v -4.922261 0.274898 0.736716
v -4.998894 0.237953 0.736716
v -4.998894 0.274898 0.736716
v -4.922261 0.237953 0.736716
v -4.808850 0.274898 0.471386
v -4.885483 0.274898 0.471386
v -4.885483 0.237953 0.471386
v -4.808850 0.237953 0.471386
v -4.808850 0.274898 0.471386
v -4.885483 0.237953 0.471386
v -4.922261 0.274898 0.562649
v -4.885483 0.274898 0.562649
v -4.885483 0.274898 0.599426
v -4.922261 0.274898 0.599426
v -4.922261 0.274898 0.562649
v -4.885483 0.274898 0.599426
v -4.885483 0.237953 0.562649
v -4.922261 0.237953 0.562649
v -4.885483 0.237953 0.599426
v -4.885483 0.237953 0.562649
v -4.922261 0.237953 0.599426
v -4.808850 0.274898 0.562649
v -4.808850 0.274898 0.599426
v -4.885483 0.274898 0.599426
v -4.885483 0.274898 0.562649
v -4.808850 0.274898 0.562649
v -4.885483 0.274898 0.599426
v -4.998894 0.237953 0.562649
v -4.998894 0.237953 0.599426
v -4.922261 0.237953 0.599426
v -4.922261 0.237953 0.562649
v -4.998894 0.237953 0.562649
v -4.922261 0.237953 0.599426
v -4.808850 0.237953 0.562649
v -4.808850 0.237953 0.599426
v -4.808850 0.274898 0.599426
v -4.808850 0.274898 0.562649
v -4.808850 0.237953 0.562649
v -4.808850 0.274898 0.599426
v -4.998894 0.237953 0.599426
v -4.998894 0.237953 0.562649
v -4.998894 0.274898 0.562649
v -4.998894 0.274898 0.599426
v -4.998894 0.237953 0.599426
v -4.998894 0.274898 0.562649
v -4.922261 0.274898 0.562649
v -4.922261 0.274898 0.599426
v -4.998894 0.274898 0.599426
v -4.998894 0.274898 0.562649
v -4.922261 0.274898 0.562649
v -4.998894 0.274898 0.599426
v -4.885483 0.237953 0.562649
v -4.885483 0.237953 0.599426
v -4.808850 0.237953 0.599426
v -4.808850 0.237953 0.562649
v -4.885483 0.237953 0.562649
v -4.808850 0.237953 0.599426
v -4.922261 0.237953 0.562649
v -4.885483 0.237953 0.562649
v -4.885483 0.237953 0.471386
v -4.922261 0.237953 0.471386
v -4.922261 0.237953 0.562649
v -4.885483 0.237953 0.471386
v -4.885483 0.274898 0.562649
v -4.922261 0.274898 0.562649
v -4.922261 0.274898 0.471386
v -4.885483 0.274898 0.471386
v -4.885483 0.274898 0.562649
v -4.922261 0.274898 0.471386
v -4.885483 0.274898 0.736716
v -4.922261 0.274898 0.736716
v -4.922261 0.274898 0.599426
v -4.885483 0.274898 0.599426
v -4.885483 0.274898 0.736716
v -4.922261 0.274898 0.599426
v -4.922261 0.237953 0.736716
v -4.885483 0.237953 0.736716
v -4.885483 0.237953 0.599426
v -4.922261 0.237953 0.599426
v -4.922261 0.237953 0.736716
v -4.885483 0.237953 0.599426
v -4.885483 0.237953 0.736716
v -4.922261 0.237953 0.736716
v -4.922261 0.274898 0.736716
v -4.885483 0.274898 0.736716
v -4.885483 0.237953 0.736716
v -4.922261 0.274898 0.736716
v -4.922261 0.237953 0.471386
v -4.885483 0.237953 0.471386
v -4.885483 0.274898 0.471386
v -4.922261 0.274898 0.471386
v -4.922261 0.237953 0.471386
v -4.885483 0.274898 0.471386
v -4.922261 0.237953 0.736716
v -4.922261 0.237953 0.599426
v -4.998894 0.237953 0.599426
v -4.998894 0.237953 0.736716
v -4.922261 0.237953 0.736716
v -4.998894 0.237953 0.599426
vn -0.0000 -1.0000 -0.0000
vn -0.0000 -0.0000 -1.0000
vn -0.0000 -0.0000 1.0000
vn -0.0000 1.0000 -0.0000
vn -1.0000 -0.0000 -0.0000
vn 1.0000 -0.0000 -0.0000
vt 0.000031 0.999969
s 0
usemtl gifts
f 180/1/1 179/1/1 178/1/1
f 177/1/1 176/1/1 175/1/1
f 174/1/2 173/1/2 172/1/2
f 171/1/2 170/1/2 169/1/2
f 168/1/3 167/1/3 166/1/3
f 165/1/3 164/1/3 163/1/3
f 162/1/1 161/1/1 160/1/1
f 159/1/1 158/1/1 157/1/1
f 156/1/4 155/1/4 154/1/4
f 153/1/4 152/1/4 151/1/4
f 150/1/4 149/1/4 148/1/4
f 147/1/4 146/1/4 145/1/4
f 144/1/1 143/1/1 142/1/1
f 141/1/1 140/1/1 139/1/1
f 138/1/1 137/1/1 136/1/1
f 135/1/1 134/1/1 133/1/1
f 132/1/4 131/1/4 130/1/4
f 129/1/4 128/1/4 127/1/4
f 126/1/5 125/1/5 124/1/5
f 123/1/5 122/1/5 121/1/5
f 120/1/6 119/1/6 118/1/6
f 117/1/6 116/1/6 115/1/6
f 114/1/1 113/1/1 112/1/1
f 111/1/1 110/1/1 109/1/1
f 108/1/4 107/1/4 106/1/4
f 105/1/4 104/1/4 103/1/4
f 102/1/1 101/1/1 100/1/1
f 10/1/1 99/1/1 98/1/1
f 97/1/4 96/1/4 95/1/4
f 94/1/4 93/1/4 92/1/4
f 91/1/2 90/1/2 89/1/2
f 88/1/2 87/1/2 86/1/2
f 85/1/3 84/1/3 83/1/3
f 5/1/3 82/1/3 81/1/3
f 80/1/5 79/1/5 78/1/5
f 77/1/5 76/1/5 75/1/5
f 74/1/4 73/1/4 72/1/4
f 71/1/4 11/1/4 7/1/4
f 70/1/2 69/1/2 68/1/2
f 67/1/2 66/1/2 65/1/2
f 64/1/4 63/1/4 24/1/4
f 25/1/4 16/1/4 22/1/4
f 62/1/1 61/1/1 23/1/1
f 15/1/1 28/1/1 9/1/1
f 60/1/1 59/1/1 58/1/1
f 29/1/1 57/1/1 56/1/1
f 55/1/4 54/1/4 53/1/4
f 52/1/4 26/1/4 51/1/4
f 50/1/4 49/1/4 14/1/4
f 21/1/4 48/1/4 47/1/4
f 46/1/6 45/1/6 44/1/6
f 43/1/6 18/1/6 19/1/6
f 42/1/6 41/1/6 40/1/6
f 30/1/6 8/1/6 39/1/6
f 38/1/1 37/1/1 12/1/1
f 13/1/1 17/1/1 20/1/1
f 36/1/3 35/1/3 32/1/3
f 31/1/3 6/1/3 27/1/3
f 34/1/5 33/1/5 4/1/5
f 1/1/5 2/1/5 3/1/5
