# Blender 5.0.0
# www.blender.org
mtllib Hobs_001_NightRiverBlack_001_0.mtl
o Hobs.001_NightRiverBlack.001_0
v -1.388302 0.834200 -0.717664
v -0.532877 0.834200 -0.680289
v -0.509984 0.834200 -1.204244
v -0.510090 0.834200 -1.205228
v -0.510482 0.834200 -1.206145
v -0.511120 0.834200 -1.206967
v -0.511975 0.834200 -1.207667
v -0.513011 0.834200 -1.208217
v -0.514199 0.834200 -1.208591
v -0.515501 0.834200 -1.208761
v -1.359519 0.834200 -1.245638
v -1.360831 0.834200 -1.245582
v -1.362048 0.834200 -1.245313
v -1.363128 0.834200 -1.244856
v -1.364039 0.834200 -1.244233
v -1.364748 0.834200 -1.243470
v -1.365218 0.834200 -1.242590
v -1.365409 0.834200 -1.241619
v -0.532877 0.834200 -0.680289
v -1.365409 0.834200 -1.241619
v -0.532877 0.834200 -0.680289
v -1.365218 0.834200 -1.242590
v -0.532877 0.834200 -0.680289
v -1.364748 0.834200 -1.243470
v -0.532877 0.834200 -0.680289
v -1.364039 0.834200 -1.244233
v -0.532877 0.834200 -0.680289
v -1.363128 0.834200 -1.244856
v -0.532877 0.834200 -0.680289
v -1.362048 0.834200 -1.245313
v -0.532877 0.834200 -0.680289
v -1.360831 0.834200 -1.245582
v -0.532877 0.834200 -0.680289
v -1.359519 0.834200 -1.245638
v -0.532877 0.834200 -0.680289
v -0.515501 0.834200 -1.208761
v -0.532877 0.834200 -0.680289
v -0.514199 0.834200 -1.208591
v -0.532877 0.834200 -0.680289
v -0.513011 0.834200 -1.208217
v -0.532877 0.834200 -0.680289
v -0.511975 0.834200 -1.207667
v -0.532877 0.834200 -0.680289
v -0.511120 0.834200 -1.206967
v -0.532877 0.834200 -0.680289
v -0.510482 0.834200 -1.206145
v -0.532877 0.834200 -0.680289
v -0.510090 0.834200 -1.205228
vn -0.0000 1.0000 -0.0000
vt 0.998703 0.007019
vt 0.998871 0.994008
vt 0.998871 0.008850
vt 0.998199 0.005325
vt 0.997421 0.003845
vt 0.996384 0.002594
vt 0.995148 0.001648
vt 0.993759 0.001038
vt 0.992233 0.000824
vt 0.009724 0.000824
vt 0.008203 0.001038
vt 0.006806 0.001648
vt 0.005573 0.002594
vt 0.004545 0.003845
vt 0.003761 0.005325
vt 0.003261 0.007019
vt 0.003085 0.008850
vt 0.003085 0.994008
s 0
usemtl NightRiverBlack.001
f 48/1/1 47/2/1 3/3/1
f 46/4/1 45/2/1 4/1/1
f 44/5/1 43/2/1 5/4/1
f 42/6/1 41/2/1 6/5/1
f 40/7/1 39/2/1 7/6/1
f 38/8/1 37/2/1 8/7/1
f 36/9/1 35/2/1 9/8/1
f 34/10/1 33/2/1 10/9/1
f 32/11/1 31/2/1 11/10/1
f 30/12/1 29/2/1 12/11/1
f 28/13/1 27/2/1 13/12/1
f 26/14/1 25/2/1 14/13/1
f 24/15/1 23/2/1 15/14/1
f 22/16/1 21/2/1 16/15/1
f 20/17/1 19/2/1 17/16/1
f 2/2/1 18/17/1 1/18/1
