# Blender 5.0.0
# www.blender.org
mtllib MacBook_touchbar_0.mtl
o MacBook_touchbar_0
v -4.374427 0.513486 2.311418
v -4.371139 0.513592 2.307342
v -4.371034 0.513596 2.307194
v -4.370950 0.513599 2.307032
v -4.370886 0.513603 2.306861
v -4.370847 0.513606 2.306683
v -4.370831 0.513609 2.306502
v -4.370838 0.513612 2.306320
v -4.370869 0.513614 2.306140
v -4.370924 0.513616 2.305967
v -4.371000 0.513618 2.305802
v -4.371098 0.513619 2.305648
v -4.371214 0.513620 2.305508
v -4.371348 0.513620 2.305384
v -4.384946 0.513620 2.294413
v -4.385095 0.513620 2.294308
v -4.385257 0.513619 2.294224
v -4.385427 0.513618 2.294161
v -4.385605 0.513616 2.294121
v -4.385786 0.513614 2.294105
v -4.385968 0.513612 2.294112
v -4.386148 0.513609 2.294144
v -4.386322 0.513606 2.294198
v -4.386487 0.513603 2.294274
v -4.386641 0.513599 2.294372
v -4.386781 0.513596 2.294489
v -4.386904 0.513592 2.294622
v -4.390192 0.513486 2.298697
v -4.390296 0.513482 2.298846
v -4.390381 0.513479 2.299007
v -4.390444 0.513475 2.299179
v -4.390484 0.513472 2.299356
v -4.390500 0.513469 2.299537
v -4.390492 0.513466 2.299720
v -4.390461 0.513463 2.299899
v -4.390407 0.513461 2.300073
v -4.390330 0.513460 2.300238
v -4.390233 0.513459 2.300392
v -4.390116 0.513458 2.300532
v -4.389982 0.513458 2.300655
v -4.376384 0.513458 2.311626
v -4.376235 0.513458 2.311731
v -4.376074 0.513459 2.311816
v -4.375903 0.513460 2.311878
v -4.375726 0.513461 2.311918
v -4.375545 0.513463 2.311935
v -4.375362 0.513466 2.311927
v -4.375183 0.513469 2.311896
v -4.375009 0.513472 2.311842
v -4.374844 0.513475 2.311766
v -4.374690 0.513479 2.311668
v -4.374550 0.513482 2.311551
v -4.192942 0.513603 2.450433
v -4.193096 0.513599 2.450531
v -4.193236 0.513596 2.450648
v -4.193360 0.513592 2.450781
v -4.196648 0.513486 2.454856
v -4.196752 0.513482 2.455005
v -4.196836 0.513479 2.455167
v -4.196899 0.513475 2.455338
v -4.196940 0.513472 2.455516
v -4.196956 0.513469 2.455696
v -4.196948 0.513466 2.455879
v -4.196917 0.513463 2.456059
v -4.196863 0.513461 2.456232
v -4.196786 0.513460 2.456397
v -4.196688 0.513459 2.456551
v -4.196572 0.513458 2.456691
v -4.196438 0.513458 2.456813
v -4.123237 0.513458 2.515874
v -4.123089 0.513458 2.515980
v -4.122928 0.513459 2.516064
v -4.122756 0.513460 2.516127
v -4.122579 0.513461 2.516167
v -4.122398 0.513463 2.516183
v -4.122216 0.513466 2.516176
v -4.122036 0.513469 2.516145
v -4.121862 0.513472 2.516091
v -4.121697 0.513475 2.516014
v -4.121544 0.513479 2.515916
v -4.121404 0.513482 2.515800
v -4.121280 0.513486 2.515666
v -4.117992 0.513592 2.511591
v -4.117888 0.513596 2.511442
v -4.117804 0.513599 2.511280
v -4.117740 0.513603 2.511109
v -4.117700 0.513606 2.510932
v -4.117684 0.513609 2.510751
v -4.117692 0.513612 2.510569
v -4.117723 0.513614 2.510389
v -4.117777 0.513616 2.510216
v -4.117854 0.513618 2.510050
v -4.117951 0.513619 2.509897
v -4.118068 0.513620 2.509756
v -4.118201 0.513620 2.509633
v -4.191402 0.513620 2.450572
v -4.191551 0.513620 2.450468
v -4.191712 0.513619 2.450383
v -4.191884 0.513618 2.450320
v -4.192061 0.513616 2.450280
v -4.192242 0.513614 2.450264
v -4.192424 0.513612 2.450272
v -4.192604 0.513609 2.450303
v -4.192777 0.513606 2.450356
v -4.390296 0.513482 2.298846
v -4.386904 0.513592 2.294622
v -4.390296 0.513482 2.298846
v -4.386781 0.513596 2.294489
v -4.390381 0.513479 2.299007
v -4.386781 0.513596 2.294489
v -4.390381 0.513479 2.299007
v -4.386641 0.513599 2.294372
v -4.390444 0.513475 2.299179
v -4.386641 0.513599 2.294372
v -4.390444 0.513475 2.299179
v -4.386487 0.513603 2.294274
v -4.390484 0.513472 2.299356
v -4.386487 0.513603 2.294274
v -4.390484 0.513472 2.299356
v -4.386322 0.513606 2.294198
v -4.390500 0.513469 2.299537
v -4.386322 0.513606 2.294198
v -4.390500 0.513469 2.299537
v -4.386148 0.513609 2.294144
v -4.390492 0.513466 2.299720
v -4.386148 0.513609 2.294144
v -4.390492 0.513466 2.299720
v -4.385968 0.513612 2.294112
v -4.390461 0.513463 2.299899
v -4.385968 0.513612 2.294112
v -4.390461 0.513463 2.299899
v -4.385786 0.513614 2.294105
v -4.390407 0.513461 2.300073
v -4.385786 0.513614 2.294105
v -4.390407 0.513461 2.300073
v -4.385605 0.513616 2.294121
v -4.390330 0.513460 2.300238
v -4.385605 0.513616 2.294121
v -4.390330 0.513460 2.300238
v -4.385427 0.513618 2.294161
v -4.390233 0.513459 2.300392
v -4.385427 0.513618 2.294161
v -4.390233 0.513459 2.300392
v -4.385257 0.513619 2.294224
v -4.390116 0.513458 2.300532
v -4.385257 0.513619 2.294224
v -4.390116 0.513458 2.300532
v -4.385095 0.513620 2.294308
v -4.389982 0.513458 2.300655
v -4.385095 0.513620 2.294308
v -4.389982 0.513458 2.300655
v -4.384946 0.513620 2.294413
v -4.376384 0.513458 2.311626
v -4.384946 0.513620 2.294413
v -4.376384 0.513458 2.311626
v -4.371348 0.513620 2.305384
v -4.376235 0.513458 2.311731
v -4.371348 0.513620 2.305384
v -4.376235 0.513458 2.311731
v -4.371214 0.513620 2.305508
v -4.376074 0.513459 2.311816
v -4.371214 0.513620 2.305508
v -4.376074 0.513459 2.311816
v -4.371098 0.513619 2.305648
v -4.375903 0.513460 2.311878
v -4.371098 0.513619 2.305648
v -4.375903 0.513460 2.311878
v -4.371000 0.513618 2.305802
v -4.375726 0.513461 2.311918
v -4.371000 0.513618 2.305802
v -4.375726 0.513461 2.311918
v -4.370924 0.513616 2.305967
v -4.375545 0.513463 2.311935
v -4.370924 0.513616 2.305967
v -4.375545 0.513463 2.311935
v -4.370869 0.513614 2.306140
v -4.375362 0.513466 2.311927
v -4.370869 0.513614 2.306140
v -4.375362 0.513466 2.311927
v -4.370838 0.513612 2.306320
v -4.375183 0.513469 2.311896
v -4.370838 0.513612 2.306320
v -4.375183 0.513469 2.311896
v -4.370831 0.513609 2.306502
v -4.375009 0.513472 2.311842
v -4.370831 0.513609 2.306502
v -4.375009 0.513472 2.311842
v -4.370847 0.513606 2.306683
v -4.374844 0.513475 2.311766
v -4.370847 0.513606 2.306683
v -4.374844 0.513475 2.311766
v -4.370886 0.513603 2.306861
v -4.374690 0.513479 2.311668
v -4.370886 0.513603 2.306861
v -4.374690 0.513479 2.311668
v -4.370950 0.513599 2.307032
v -4.374550 0.513482 2.311551
v -4.370950 0.513599 2.307032
v -4.374550 0.513482 2.311551
v -4.371034 0.513596 2.307194
v -4.374427 0.513486 2.311418
v -4.371034 0.513596 2.307194
v -4.196752 0.513482 2.455005
v -4.193360 0.513592 2.450781
v -4.196752 0.513482 2.455005
v -4.193236 0.513596 2.450648
v -4.196836 0.513479 2.455167
v -4.193236 0.513596 2.450648
v -4.196836 0.513479 2.455167
v -4.193096 0.513599 2.450531
v -4.196899 0.513475 2.455338
v -4.193096 0.513599 2.450531
v -4.196899 0.513475 2.455338
v -4.192942 0.513603 2.450433
v -4.196940 0.513472 2.455516
v -4.192942 0.513603 2.450433
v -4.196940 0.513472 2.455516
v -4.192777 0.513606 2.450356
v -4.196956 0.513469 2.455696
v -4.192777 0.513606 2.450356
v -4.196956 0.513469 2.455696
v -4.192604 0.513609 2.450303
v -4.196948 0.513466 2.455879
v -4.192604 0.513609 2.450303
v -4.196948 0.513466 2.455879
v -4.192424 0.513612 2.450272
v -4.196917 0.513463 2.456059
v -4.192424 0.513612 2.450272
v -4.196917 0.513463 2.456059
v -4.192242 0.513614 2.450264
v -4.196863 0.513461 2.456232
v -4.192242 0.513614 2.450264
v -4.196863 0.513461 2.456232
v -4.192061 0.513616 2.450280
v -4.196786 0.513460 2.456397
v -4.192061 0.513616 2.450280
v -4.196786 0.513460 2.456397
v -4.191884 0.513618 2.450320
v -4.196688 0.513459 2.456551
v -4.191884 0.513618 2.450320
v -4.196688 0.513459 2.456551
v -4.191712 0.513619 2.450383
v -4.196572 0.513458 2.456691
v -4.191712 0.513619 2.450383
v -4.196572 0.513458 2.456691
v -4.191551 0.513620 2.450468
v -4.196438 0.513458 2.456813
v -4.191551 0.513620 2.450468
v -4.196438 0.513458 2.456813
v -4.191402 0.513620 2.450572
v -4.123237 0.513458 2.515874
v -4.191402 0.513620 2.450572
v -4.123237 0.513458 2.515874
v -4.118201 0.513620 2.509633
v -4.123089 0.513458 2.515980
v -4.118201 0.513620 2.509633
v -4.123089 0.513458 2.515980
v -4.118068 0.513620 2.509756
v -4.122928 0.513459 2.516064
v -4.118068 0.513620 2.509756
v -4.122928 0.513459 2.516064
v -4.117951 0.513619 2.509897
v -4.122756 0.513460 2.516127
v -4.117951 0.513619 2.509897
v -4.122756 0.513460 2.516127
v -4.117854 0.513618 2.510050
v -4.122579 0.513461 2.516167
v -4.117854 0.513618 2.510050
v -4.122579 0.513461 2.516167
v -4.117777 0.513616 2.510216
v -4.122398 0.513463 2.516183
v -4.117777 0.513616 2.510216
v -4.122398 0.513463 2.516183
v -4.117723 0.513614 2.510389
v -4.122216 0.513466 2.516176
v -4.117723 0.513614 2.510389
v -4.122216 0.513466 2.516176
v -4.117692 0.513612 2.510569
v -4.122036 0.513469 2.516145
v -4.117692 0.513612 2.510569
v -4.122036 0.513469 2.516145
v -4.117684 0.513609 2.510751
v -4.121862 0.513472 2.516091
v -4.117684 0.513609 2.510751
v -4.121862 0.513472 2.516091
v -4.117700 0.513606 2.510932
v -4.121697 0.513475 2.516014
v -4.117700 0.513606 2.510932
v -4.121697 0.513475 2.516014
v -4.117740 0.513603 2.511109
v -4.121544 0.513479 2.515916
v -4.117740 0.513603 2.511109
v -4.121544 0.513479 2.515916
v -4.117804 0.513599 2.511280
v -4.121404 0.513482 2.515800
v -4.117804 0.513599 2.511280
v -4.121404 0.513482 2.515800
v -4.117888 0.513596 2.511442
v -4.121280 0.513486 2.515666
v -4.117888 0.513596 2.511442
vn -0.0128 0.9998 0.0158
vn -0.0127 0.9998 0.0158
vn -0.0128 0.9998 0.0157
vn -0.0126 0.9998 0.0155
vn -0.0128 0.9998 0.0156
vn -0.0129 0.9998 0.0158
vn -0.0127 0.9998 0.0157
vn -0.0126 0.9998 0.0156
vn -0.0126 0.9998 0.0158
vn -0.0126 0.9998 0.0157
vn -0.0130 0.9998 0.0155
vn -0.0127 0.9998 0.0159
vn -0.0126 0.9998 0.0160
vn -0.0125 0.9998 0.0159
vn -0.0125 0.9998 0.0155
vn -0.0127 0.9998 0.0155
vn -0.0124 0.9998 0.0160
vn -0.0130 0.9998 0.0160
vn -0.0129 0.9998 0.0159
vn -0.0129 0.9998 0.0160
vn -0.0129 0.9998 0.0156
vn -0.0125 0.9998 0.0158
vn -0.0128 0.9998 0.0159
vn -0.0127 0.9998 0.0160
vn -0.0126 0.9998 0.0159
vn -0.0127 0.9998 0.0156
vn -0.0130 0.9998 0.0161
vn -0.0124 0.9998 0.0154
vn -0.0128 0.9998 0.0160
vn -0.0130 0.9998 0.0157
vn -0.0129 0.9998 0.0157
vn -0.0130 0.9998 0.0159
vn -0.0131 0.9998 0.0158
vn -0.0125 0.9998 0.0157
vt 0.881714 0.454651
vt 0.881744 0.484070
vt 0.881744 0.455643
vt 0.881714 0.485046
vt 0.881638 0.453690
vt 0.881638 0.486023
vt 0.881500 0.452744
vt 0.881500 0.486954
vt 0.881317 0.451859
vt 0.881317 0.487839
vt 0.881104 0.451035
vt 0.881104 0.488663
vt 0.880829 0.450302
vt 0.880829 0.489410
vt 0.880524 0.449646
vt 0.880524 0.490067
vt 0.880188 0.449097
vt 0.880188 0.490616
vt 0.879822 0.448654
vt 0.879822 0.491043
vt 0.879440 0.448349
vt 0.879440 0.491364
vt 0.879044 0.448151
vt 0.879044 0.491562
vt 0.878647 0.448090
vt 0.878647 0.491623
vt 0.669662 0.448090
vt 0.669662 0.491623
vt 0.669266 0.448151
vt 0.669266 0.491562
vt 0.668869 0.448349
vt 0.668869 0.491364
vt 0.668488 0.448654
vt 0.668488 0.491043
vt 0.668121 0.449097
vt 0.668121 0.490616
vt 0.667786 0.449646
vt 0.667786 0.490067
vt 0.667480 0.450302
vt 0.667480 0.489410
vt 0.667206 0.451035
vt 0.667206 0.488663
vt 0.666992 0.451859
vt 0.666992 0.487839
vt 0.666809 0.452744
vt 0.666809 0.486954
vt 0.666672 0.453690
vt 0.666672 0.486023
vt 0.666595 0.454651
vt 0.666595 0.485046
vt 0.666565 0.455643
vt 0.666565 0.484070
vt 0.159008 0.454651
vt 0.159035 0.484070
vt 0.159035 0.455643
vt 0.159008 0.485046
vt 0.158928 0.453690
vt 0.158928 0.486023
vt 0.158798 0.452744
vt 0.158798 0.486954
vt 0.158619 0.451859
vt 0.158619 0.487839
vt 0.158394 0.451035
vt 0.158394 0.488663
vt 0.158127 0.450302
vt 0.158127 0.489410
vt 0.157822 0.449646
vt 0.157822 0.490067
vt 0.157486 0.449097
vt 0.157486 0.490616
vt 0.157124 0.448654
vt 0.157124 0.491043
vt 0.156738 0.448349
vt 0.156738 0.491364
vt 0.156345 0.448151
vt 0.156345 0.491562
vt 0.155941 0.448090
vt 0.155941 0.491623
vt 0.117121 0.448090
vt 0.117121 0.491623
vt 0.116716 0.448151
vt 0.116716 0.491562
vt 0.116320 0.448349
vt 0.116320 0.491364
vt 0.115936 0.448654
vt 0.115936 0.491043
vt 0.115574 0.449097
vt 0.115574 0.490616
vt 0.115236 0.449646
vt 0.115236 0.490067
vt 0.114933 0.450302
vt 0.114933 0.489410
vt 0.114666 0.451035
vt 0.114666 0.488663
vt 0.114441 0.451859
vt 0.114441 0.487839
vt 0.114262 0.452744
vt 0.114262 0.486954
vt 0.114132 0.453690
vt 0.114132 0.486023
vt 0.114054 0.454651
vt 0.114054 0.485046
vt 0.114027 0.455643
vt 0.114027 0.484070
s 1
usemtl touchbar
f 300/1/1 299/2/1 83/3/1
f 298/1/2 297/4/2 82/2/2
s 0
f 296/5/3 295/4/3 84/1/3
f 294/5/4 293/6/5 81/4/6
s 1
f 292/7/7 291/6/7 85/5/8
s 0
f 290/7/9 289/8/9 80/6/9
s 1
f 288/9/9 287/8/10 86/7/9
f 286/9/7 285/10/2 79/8/10
s 0
f 284/11/11 283/10/11 87/9/11
s 1
f 282/11/7 281/12/12 78/10/12
s 0
f 280/13/7 279/12/7 88/11/7
f 278/13/2 277/14/2 77/12/2
s 1
f 276/15/12 275/14/10 89/13/13
s 0
f 274/15/14 273/16/14 76/14/14
f 272/17/15 271/16/2 90/15/2
f 270/17/15 269/18/15 75/16/2
f 268/19/11 267/18/16 91/17/16
f 266/19/17 265/20/17 74/18/15
f 264/21/9 263/20/9 92/19/9
f 262/21/3 261/22/3 73/20/3
f 260/23/7 259/22/7 93/21/7
f 258/23/2 257/24/2 72/22/2
f 256/25/3 255/24/3 94/23/3
f 254/25/3 253/26/3 71/24/3
f 252/27/2 251/26/2 95/25/2
f 250/27/2 249/28/2 70/26/2
f 248/29/2 247/28/18 96/27/2
f 246/29/9 245/30/9 69/28/19
f 244/31/2 243/30/2 97/29/2
f 242/31/7 241/32/7 68/30/7
f 240/33/3 239/32/3 98/31/3
f 238/33/9 237/34/9 67/32/9
f 236/35/17 235/34/19 99/33/17
f 234/35/11 233/36/16 66/34/1
f 232/37/2 231/36/15 100/35/2
f 230/37/2 229/38/2 65/36/2
s 1
f 228/39/19 227/38/7 101/37/1
s 0
f 226/39/20 225/40/21 64/38/9
f 224/41/2 223/40/2 102/39/2
f 222/41/7 221/42/7 63/40/7
f 220/43/9 219/42/2 103/41/9
s 1
f 218/43/22 217/44/12 62/42/2
f 216/45/2 215/44/23 104/43/7
f 214/45/3 213/46/6 61/44/1
f 212/47/8 211/46/23 53/45/7
s 0
f 210/47/21 209/48/21 60/46/21
f 208/49/9 207/48/9 54/47/9
f 206/49/24 205/50/24 59/48/22
s 1
f 204/51/2 203/50/2 55/49/2
f 58/50/1 56/51/1 57/52/1
f 202/53/1 201/54/1 2/55/1
f 200/53/1 199/56/1 1/54/1
s 0
f 198/57/15 197/56/24 3/53/24
f 196/57/4 195/58/25 52/56/25
s 1
f 194/59/7 193/58/7 4/57/8
s 0
f 192/59/25 191/60/25 51/58/25
s 1
f 190/61/9 189/60/8 5/59/7
f 188/61/9 187/62/1 50/60/10
s 0
f 186/63/26 185/62/3 6/61/11
s 1
f 184/63/7 183/64/2 49/62/1
f 182/65/27 181/64/7 7/63/7
s 0
f 180/65/20 179/66/4 48/64/2
s 1
f 178/67/1 177/66/10 8/65/19
s 0
f 176/67/14 175/68/14 47/66/14
f 174/69/2 173/68/2 9/67/2
f 172/69/2 171/70/15 46/68/2
f 170/71/11 169/70/16 10/69/11
s 1
f 168/71/12 167/72/12 45/70/15
s 0
f 166/73/9 165/72/9 11/71/9
f 164/73/3 163/74/3 44/72/3
s 1
f 162/75/28 161/74/7 12/73/7
f 160/75/28 159/76/2 43/74/2
s 0
f 158/77/3 157/76/3 13/75/15
f 156/77/3 155/78/3 42/76/3
f 154/79/2 153/78/2 14/77/2
f 152/79/2 151/80/2 41/78/2
f 150/81/2 149/80/2 15/79/2
f 148/81/9 147/82/9 40/80/9
f 146/83/2 145/82/20 16/81/15
f 144/83/7 143/84/7 39/82/7
f 142/85/3 141/84/3 17/83/3
f 140/85/25 139/86/25 38/84/25
f 138/87/29 137/86/2 18/85/2
f 136/87/11 135/88/15 37/86/11
f 134/89/2 133/88/15 19/87/2
f 132/89/2 131/90/2 36/88/2
s 1
f 130/91/30 129/90/31 20/89/3
s 0
f 128/91/21 127/92/21 35/90/12
f 126/93/2 125/92/2 21/91/2
f 124/93/7 123/94/7 34/92/7
s 1
f 122/95/7 121/94/3 22/93/9
f 120/95/7 119/96/32 33/94/9
f 118/97/5 117/96/33 23/95/2
f 116/97/11 115/98/26 32/96/33
f 114/99/19 113/98/34 24/97/7
s 0
f 112/99/20 111/100/21 31/98/21
f 110/101/25 109/100/25 25/99/25
f 108/101/24 107/102/3 30/100/3
s 1
f 106/103/1 105/102/2 26/101/1
f 29/102/2 27/103/1 28/104/1
