# Blender 5.0.0
# www.blender.org
mtllib MacBook_Screen_Shot_2016_12_26_at_8_02_30_PM_0.mtl
o MacBook_Screen_Shot_2016_12_26_at_8_02_30_PM_0
v -4.370829 0.534827 2.267147
v -4.092391 0.534827 2.491801
v -4.092391 0.758432 2.491801
v -4.370829 0.758432 2.267146
v -4.092391 0.758432 2.491801
v -4.370829 0.534827 2.267147
vn -0.6279 -0.0000 0.7783
vt 0.000031 0.999969
vt 1.000000 0.000000
vt 0.000031 0.000000
vt 1.000000 0.999969
s 0
usemtl Screen_Shot_2016_12_26_at_8_02_30_PM
f 6/1/1 5/2/1 4/3/1
f 1/1/1 2/4/1 3/2/1
