# Blender 5.0.0
# www.blender.org
mtllib Office_Desk_Screen_0.mtl
o Office+Desk_Screen_0
v 5.238605 0.884155 -0.471442
v 5.237413 0.855490 -0.474657
v 5.240230 0.911759 -0.463275
v 5.137148 0.643035 -0.299763
v 5.145755 0.644978 -0.304179
v 5.136687 0.644469 -0.299876
v 5.016557 0.644978 -0.253915
v 5.025886 0.643035 -0.256477
v 5.221178 0.755169 -0.437288
v 4.863655 1.105205 -0.264450
v 4.870923 1.132256 -0.258022
v 4.859462 1.078230 -0.271143
v 5.220071 0.761134 -0.441065
v 5.220298 0.760377 -0.440843
v 5.083925 1.183356 -0.271928
v 5.128921 1.181085 -0.297694
v 5.165924 1.174603 -0.323892
v 5.127364 1.179707 -0.295728
v 5.186454 0.652111 -0.332710
v 5.136887 0.642880 -0.300738
v 5.162372 0.646306 -0.316778
v 4.864798 0.788628 -0.317242
v 5.220740 0.757773 -0.439062
v 4.865707 0.781964 -0.314356
v 4.876229 0.937331 -0.305707
v 4.865253 0.785281 -0.315795
v 4.875618 0.935950 -0.305972
v 4.877592 0.938872 -0.304384
v 4.877069 0.939013 -0.304728
v 4.877699 0.938732 -0.303805
v 5.219752 0.763083 -0.442429
v 5.219207 0.765788 -0.444015
v 5.220019 0.761422 -0.441246
v 4.864816 0.792964 -0.318208
v 4.866586 0.775535 -0.311567
v 4.866148 0.778741 -0.312957
v 4.914561 0.625757 -0.681636
v 4.950204 0.639646 -0.590021
v 4.958863 0.639646 -0.593390
v 4.938790 0.636445 -0.644985
v 4.930131 0.636445 -0.641616
v 5.211257 0.855816 -0.459196
v 5.082960 0.641454 -0.274409
v 5.082816 0.640320 -0.274782
v 5.210971 0.850470 -0.460207
v 5.026149 0.644469 -0.256871
v 5.210996 0.850241 -0.460144
v 5.211511 0.860357 -0.458309
v 5.219389 0.754344 -0.432831
v 5.220179 0.753727 -0.433896
v 4.923221 0.625757 -0.685005
v 4.919677 0.620458 -0.694114
v 4.911018 0.620458 -0.690745
v 5.065734 0.639646 -0.318687
v 5.220447 0.753518 -0.434255
v 5.219366 0.755183 -0.431626
v 5.057075 0.639646 -0.315318
v 4.920662 0.631497 -0.665955
v 4.929321 0.631497 -0.669323
v 5.127364 1.179707 -0.295728
v 5.128921 1.181085 -0.297694
v 4.877069 0.939013 -0.304728
v 4.923221 0.625757 -0.685005
v 4.920662 0.631497 -0.665955
v 4.938790 0.636445 -0.644985
v 4.950204 0.639646 -0.590021
v 5.136687 0.644469 -0.299876
v 5.137148 0.643035 -0.299763
v 5.082816 0.640320 -0.274782
v 5.136687 0.644469 -0.299876
v 5.082816 0.640320 -0.274782
v 5.025886 0.643035 -0.256477
v 5.026149 0.644469 -0.256871
v 5.082960 0.641454 -0.274409
v 5.082816 0.640320 -0.274782
v 5.026149 0.644469 -0.256871
v 4.923221 0.625757 -0.685005
v 4.914561 0.625757 -0.681636
v 4.919677 0.620458 -0.694114
v 4.914561 0.625757 -0.681636
v 4.950204 0.639646 -0.590021
v 4.958863 0.639646 -0.593390
v 4.950204 0.639646 -0.590021
v 5.065734 0.639646 -0.318687
v 4.929321 0.631497 -0.669323
v 4.938790 0.636445 -0.644985
v 4.930131 0.636445 -0.641616
v 4.920662 0.631497 -0.665955
v 4.929321 0.631497 -0.669323
v 4.930131 0.636445 -0.641616
v 5.220179 0.753727 -0.433896
v 5.219366 0.755183 -0.431626
v 5.210971 0.850470 -0.460207
v 5.211511 0.860357 -0.458309
v 4.864816 0.792964 -0.318208
v 4.864816 0.792964 -0.318208
v 4.866148 0.778741 -0.312957
v 4.865253 0.785281 -0.315795
v 4.864816 0.792964 -0.318208
v 4.865707 0.781964 -0.314356
v 5.220740 0.757773 -0.439062
v 5.220071 0.761134 -0.441065
v 5.219752 0.763083 -0.442429
v 5.220298 0.760377 -0.440843
v 5.220071 0.761134 -0.441065
v 5.220019 0.761422 -0.441246
v 5.219752 0.763083 -0.442429
v 5.220071 0.761134 -0.441065
vn 0.8634 0.3762 0.3361
vn 0.8776 0.3620 0.3142
vn 0.8635 0.3761 0.3359
vn 0.8633 0.3764 0.3362
vn 0.8776 0.3621 0.3142
vn 0.8629 0.3791 0.3342
vn 0.8629 0.3792 0.3342
vn 0.9041 0.3328 0.2682
vn -0.8343 0.1173 0.5387
vn -0.8344 0.1172 0.5385
vn 0.9433 0.0136 -0.3316
vn 0.9475 0.0115 -0.3196
vn 0.9473 0.0083 -0.3202
vn 0.9432 0.0104 -0.3322
vn -0.1186 0.8134 -0.5694
vn -0.1186 0.8135 -0.5694
vn -0.1187 0.8134 -0.5694
vn -0.0521 0.9896 -0.1338
vn -0.0842 0.9727 -0.2165
vn -0.1007 0.9606 -0.2590
vn -0.0365 0.9949 -0.0939
vn -0.0842 0.9727 -0.2164
vn -0.0000 1.0000 -0.0000
vn -0.0139 0.9993 -0.0358
vn -0.0070 0.9998 -0.0179
vn -0.1547 0.9044 -0.3977
vn -0.1728 0.8791 -0.4442
vn -0.1361 0.9269 -0.3498
vn 0.2942 0.0238 0.9554
vn 0.3617 -0.0692 0.9297
vn 0.3418 -0.3327 0.8789
vn 0.2943 0.0239 0.9554
vn 0.2994 0.1998 0.9330
vn 0.3617 -0.0691 0.9297
vn 0.4288 0.0239 0.9031
vn 0.4098 0.1998 0.8900
vn 0.4287 0.0238 0.9031
vn 0.3419 -0.3327 0.8789
vn -0.0520 0.9896 -0.1338
vn -0.1361 0.9269 -0.3497
vn -0.1547 0.9044 -0.3976
vn -0.0842 0.9726 -0.2165
vn 0.9036 0.3360 0.2657
vn 0.1208 0.9697 0.2125
vn 0.1246 0.9701 0.2081
vn 0.1260 0.9696 0.2099
vn 0.9226 -0.3566 -0.1472
vn -0.8345 0.1172 0.5383
vn 0.5013 0.2534 0.8274
vn 0.5013 0.2533 0.8274
vn 0.5013 0.2534 0.8273
vn -0.5263 -0.4565 -0.7173
vn -0.5954 -0.3758 -0.7101
vn -0.5263 -0.4566 -0.7173
vn -0.5262 -0.4566 -0.7174
vn -0.4509 -0.5322 -0.7165
vn -0.0677 0.2513 -0.9655
vn 0.2940 0.2018 0.9343
vn 0.4146 0.2018 0.8873
vn -0.9931 0.0286 0.1136
vt -1.479736 -10.515869
vt -1.532654 -10.607422
vt -1.486694 -10.529297
vt -1.473267 -10.480225
vt -1.404541 -10.357910
vt -1.335846 -10.235596
vt 2.280396 -14.343994
vt 2.116699 -14.832520
vt 2.216431 -14.491211
vt 2.342590 -14.200928
vt 2.404419 -14.058594
vt 3.376831 -18.879395
vt 3.289795 -18.443848
vt 3.335999 -18.679199
vt 3.293030 -18.433594
vt -8.475830 -10.812012
vt -8.529297 -10.701416
vt -8.487305 -10.748291
vt -8.543457 -10.685791
vt 0.393700 7.356934
vt -0.000042 8.528564
vt 0.393700 8.528564
vt -0.000060 7.356934
vt -0.000042 -6.047974
vt 0.393700 6.943970
vt 0.393700 -6.047974
vt -0.000042 6.943970
vt 0.393700 5.444702
vt -0.000037 5.934692
vt 0.393700 5.934692
vt -0.000036 5.444702
vt -2.037659 -7.438721
vt 0.847733 -11.708008
vt 0.849365 -11.760986
vt -2.053528 -7.374268
vt 1.670105 -11.901611
vt -0.480659 -7.251953
vt 2.053528 -7.374268
vt -0.849335 -11.760742
vt 0.393700 6.342773
vt 0.000046 8.787109
vt 0.393700 8.787109
vt -0.000042 6.342773
vt 0.393700 6.832397
vt 0.000042 7.615967
vt 0.393700 7.615967
vt 0.000037 6.832397
vt -1.592041 -10.734375
vt 8.296387 -1.486023
vt 8.307861 -1.511414
vt 8.305176 -1.460693
vt -6.125244 -18.322266
vt -6.173340 -18.401855
vt -6.109253 -18.256836
vt 2.151794 -14.639893
vt 2.216370 -14.491211
vt 2.116638 -14.832520
vt 3.515808 -7.128662
vt 1.014587 -6.708008
vt 2.291809 -6.864136
vt 0.697845 -27.136230
vt -1.224457 -26.828125
vt 0.802322 -27.070801
vt -0.508057 -22.981934
vt -0.407730 -22.910645
vt 1.690002 -23.100586
vt 6.716797 -30.866699
vt 6.427734 -32.098633
vt 6.874756 -29.637695
vt -2.364014 -7.428467
vt -1.954376 -7.341064
vt -1.938690 -7.405518
vt 1.954376 -7.341064
vt 2.364014 -7.428467
vt 1.938690 -7.405518
vt 0.992523 -20.302734
vt 0.846268 -19.038574
vt 1.357361 -21.519531
s 1
usemtl Screen
f 108/1/1 107/2/2 106/3/3
f 105/1/1 104/4/4 103/2/5
f 102/1/1 101/5/6 14/4/4
f 23/5/7 13/1/1 9/6/8
f 100/7/9 99/8/10 98/9/9
f 97/10/9 96/8/10 24/7/9
f 95/8/10 36/10/9 35/11/9
f 94/12/11 93/13/12 42/14/13
f 48/12/11 47/15/14 45/13/12
f 92/16/15 91/17/15 49/18/16
f 56/16/17 55/19/17 50/17/17
f 90/20/18 89/21/19 88/22/20
f 87/20/18 86/23/21 85/21/22
f 84/24/23 83/25/24 57/26/23
f 54/24/23 82/27/25 81/25/24
f 80/28/26 79/29/27 53/30/27
f 78/28/26 77/31/28 52/29/27
f 76/32/29 75/33/30 74/34/31
f 73/32/32 72/35/33 71/33/34
f 70/36/35 69/37/34 68/38/36
f 67/36/37 43/39/38 44/37/30
f 66/40/24 65/41/21 41/42/39
f 38/40/24 39/43/25 40/41/21
f 64/44/20 63/45/40 37/46/41
f 58/44/20 59/47/42 51/45/40
f 31/2/5 32/48/43 33/3/3
f 28/49/44 62/50/45 30/51/46
f 25/52/47 29/53/47 27/54/47
f 22/55/48 26/56/9 34/57/10
f 19/58/49 20/59/50 21/60/51
f 61/61/52 17/62/53 60/63/52
f 16/64/54 18/65/55 15/66/56
f 10/67/57 11/68/57 12/69/57
f 7/70/58 8/71/33 46/72/32
f 4/73/36 5/74/59 6/75/35
f 1/76/60 2/77/60 3/78/60
