# Blender 5.0.0
# www.blender.org
mtllib Oven_001_FrontDown_001_0.mtl
o Oven.001_FrontDown.001_0
v 0.960594 1.109647 -0.409448
v 0.960594 1.619866 -0.409448
v 0.300960 1.619866 -0.450514
v 0.300960 1.109647 -0.450514
v 0.300960 1.619866 -0.450514
v 0.960594 1.109647 -0.409448
vn -0.0548 -0.0090 0.9985
vn -0.0695 0.0095 0.9975
vn -0.0695 -0.0089 0.9975
vn -0.0547 0.0095 0.9985
vt 1.000000 -50.000000
vt 0.000031 -51.000000
vt 0.000031 -50.000000
vt 1.000000 -51.000000
s 1
usemtl FrontDown.001
f 6/1/1 5/2/2 4/3/3
f 1/1/1 2/4/4 3/2/2
