# Blender 5.0.0
# www.blender.org
mtllib Oven_001_Logo_001_0.mtl
o Oven.001_Logo.001_0
v 0.960679 1.723062 -0.414343
v 0.392054 1.203818 -0.449744
v 0.398220 1.724437 -0.449360
v 0.301264 1.619866 -0.455396
v 0.866123 1.202660 -0.420230
v 0.960898 1.619866 -0.414330
v 0.862215 1.723302 -0.420473
v 0.866919 1.529938 -0.420180
v 0.392851 1.531096 -0.449694
v 0.865896 1.109647 -0.420244
v 0.862762 1.947793 -0.420439
v 0.960621 1.109647 -0.409882
v 0.301210 1.947793 -0.450935
v 0.397997 1.632596 -0.449374
v 0.301487 1.632596 -0.455382
v 0.301487 1.947793 -0.455382
v 0.398610 1.884333 -0.449336
v 0.960679 1.947793 -0.414343
v 0.862605 1.883202 -0.420449
v 0.960402 1.947793 -0.409897
v 0.960679 1.632596 -0.414343
v 0.960594 1.109647 -0.409448
v 0.960402 1.632596 -0.409897
v 0.301264 1.109647 -0.455396
v 0.300960 1.109647 -0.450514
v 0.960898 1.109647 -0.414329
v 0.686577 1.189624 -0.425623
v 0.575400 1.189624 -0.432544
v 0.575400 1.141884 -0.432544
v 0.686577 1.141884 -0.425623
v 0.300871 2.085084 -0.454417
v 0.300871 1.953703 -0.454417
v 0.961091 1.953703 -0.413314
v 0.961091 2.085084 -0.413314
v 0.300629 2.085084 -0.450535
v 0.300629 1.953703 -0.450535
v 0.300960 1.619866 -0.450514
v 0.960594 1.619866 -0.409448
v 0.960849 1.953703 -0.409432
v 0.960849 2.085084 -0.409432
v 0.301210 1.632596 -0.450935
v 0.301264 1.109647 -0.455396
v 0.392054 1.203818 -0.449744
v 0.866123 1.202660 -0.420230
v 0.960898 1.619866 -0.414330
v 0.866919 1.529938 -0.420180
v 0.960898 1.619866 -0.414330
v 0.301264 1.619866 -0.455396
v 0.392851 1.531096 -0.449694
v 0.960898 1.619866 -0.414330
v 0.392851 1.531096 -0.449694
v 0.301264 1.619866 -0.455396
v 0.392054 1.203818 -0.449744
v 0.866123 1.202660 -0.420230
v 0.392054 1.203818 -0.449744
v 0.960898 1.109647 -0.414329
v 0.960898 1.109647 -0.414329
v 0.392054 1.203818 -0.449744
v 0.865896 1.109647 -0.420244
v 0.960898 1.109647 -0.414329
v 0.865896 1.109647 -0.420244
v 0.301487 1.947793 -0.455382
v 0.397997 1.632596 -0.449374
v 0.301487 1.947793 -0.455382
v 0.398220 1.724437 -0.449360
v 0.301487 1.947793 -0.455382
v 0.398610 1.884333 -0.449336
v 0.398610 1.884333 -0.449336
v 0.960679 1.947793 -0.414343
v 0.397997 1.632596 -0.449374
v 0.301487 1.632596 -0.455382
v 0.301210 1.632596 -0.450935
v 0.397997 1.632596 -0.449374
v 0.397997 1.632596 -0.449374
v 0.960402 1.632596 -0.409897
v 0.398220 1.724437 -0.449360
v 0.575400 1.141884 -0.432544
v 0.686577 1.189624 -0.425623
v 0.960679 1.632596 -0.414343
v 0.960679 1.723062 -0.414343
v 0.398220 1.724437 -0.449360
v 0.397997 1.632596 -0.449374
v 0.960679 1.632596 -0.414343
v 0.398220 1.724437 -0.449360
v 0.301264 1.109647 -0.455396
v 0.301264 1.619866 -0.455396
v 0.301264 1.109647 -0.455396
v 0.300960 1.619866 -0.450514
v 0.300960 1.619866 -0.450514
v 0.301264 1.619866 -0.455396
v 0.960898 1.619866 -0.414330
v 0.960594 1.619866 -0.409448
v 0.301264 1.619866 -0.455396
v 0.301487 1.632596 -0.455382
v 0.301487 1.947793 -0.455382
v 0.301210 1.632596 -0.450935
v 0.301487 1.632596 -0.455382
v 0.301210 1.947793 -0.450935
v 0.961091 2.085084 -0.413314
v 0.300629 2.085084 -0.450535
v 0.960849 2.085084 -0.409432
v 0.961091 2.085084 -0.413314
v 0.961091 1.953703 -0.413314
v 0.960849 2.085084 -0.409432
v 0.960849 1.953703 -0.409432
v 0.961091 1.953703 -0.413314
v 0.300871 1.953703 -0.454417
v 0.960849 1.953703 -0.409432
v 0.300871 2.085084 -0.454417
v 0.300629 2.085084 -0.450535
v 0.300629 1.953703 -0.450535
v 0.300871 1.953703 -0.454417
v 0.300871 2.085084 -0.454417
v 0.300629 1.953703 -0.450535
v 0.300871 1.953703 -0.454417
v 0.961091 1.953703 -0.413314
v 0.961091 2.085084 -0.413314
v 0.300871 2.085084 -0.454417
v 0.300871 1.953703 -0.454417
v 0.961091 2.085084 -0.413314
v 0.862215 1.723302 -0.420473
v 0.960679 1.723062 -0.414343
v 0.960679 1.947793 -0.414343
v 0.862605 1.883202 -0.420449
v 0.862215 1.723302 -0.420473
v 0.960679 1.947793 -0.414343
v 0.960594 1.619866 -0.409448
v 0.960621 1.109647 -0.409882
v 0.960898 1.619866 -0.414330
v 0.960621 1.109647 -0.409882
v 0.960594 1.619866 -0.409448
v 0.960898 1.109647 -0.414329
v 0.960621 1.109647 -0.409882
v 0.960898 1.619866 -0.414330
v 0.301264 1.109647 -0.455396
v 0.300960 1.109647 -0.450514
v 0.865896 1.109647 -0.420244
v 0.960594 1.109647 -0.409448
v 0.865896 1.109647 -0.420244
v 0.300960 1.109647 -0.450514
v 0.960621 1.109647 -0.409882
v 0.865896 1.109647 -0.420244
v 0.960594 1.109647 -0.409448
v 0.960402 1.632596 -0.409897
v 0.960679 1.632596 -0.414343
v 0.960679 1.723062 -0.414343
v 0.960679 1.632596 -0.414343
v 0.960402 1.947793 -0.409897
v 0.960679 1.947793 -0.414343
v 0.960679 1.723062 -0.414343
v 0.960402 1.947793 -0.409897
v 0.301210 1.947793 -0.450935
v 0.301487 1.947793 -0.455382
v 0.960402 1.947793 -0.409897
v 0.960402 1.947793 -0.409897
v 0.301487 1.947793 -0.455382
v 0.960679 1.947793 -0.414343
v 0.960402 1.947793 -0.409897
v 0.862762 1.947793 -0.420439
vn -0.0000 1.0000 -0.0000
vn 0.9981 -0.0000 0.0621
vn -0.0000 -1.0000 -0.0000
vn 0.0621 -0.0000 -0.9981
vn -0.9981 -0.0000 -0.0621
vn -0.0621 -0.0000 0.9981
vt 24.817383 -66.130859
vt 28.285156 -65.972656
vt 28.285156 -66.130859
vt 4.938965 -66.130859
vt 4.938965 -65.972656
vt 66.972656 -120.132812
vt 67.130859 -112.189453
vt 67.130859 -120.132812
vt 67.130859 -108.990234
vt 66.972656 -108.990234
vt -28.292969 -65.957031
vt -24.928223 -66.130859
vt -28.292969 -65.972656
vt -4.931152 -65.957031
vt -4.931152 -66.130859
vt 67.130859 -108.541016
vt 66.972656 -90.505859
vt 67.130859 -90.505859
vt 66.957031 -108.541016
vt 66.957031 -90.505859
vt -28.285156 -120.132812
vt -24.797852 -112.197266
vt -24.812012 -117.849609
vt -28.285156 -112.189453
vt -28.302246 -124.986328
vt -4.919312 -120.341797
vt -4.919312 -124.986328
vt -28.302246 -120.341797
vt -66.890625 -120.341797
vt -67.027344 -124.986328
vt -67.027344 -120.341797
vt -66.890625 -124.986328
vt -28.302246 -65.890625
vt -4.919312 -66.027344
vt -28.302246 -66.027344
vt -4.919312 -65.890625
vt 66.890625 -124.986328
vt 67.027344 -120.341797
vt 67.027344 -124.986328
vt 66.890625 -120.341797
vt 4.919312 -65.890625
vt 28.302246 -66.027344
vt 4.919312 -66.027344
vt 28.302246 -65.890625
vt -66.972656 -120.132812
vt -67.130859 -108.990234
vt -66.972656 -108.990234
vt -67.130859 -120.132812
vt 4.931152 -66.130859
vt 28.292969 -65.957031
vt 28.292969 -66.130859
vt 4.931152 -65.957031
vt -66.957031 -108.541016
vt -67.130859 -90.505859
vt -66.957031 -90.505859
vt -67.130859 -108.541016
vt -8.364990 -112.236328
vt -28.285156 -108.990234
vt -8.356934 -108.990234
vt 4.859497 -4.649658
vt 4.153931 -4.347290
vt 4.859497 -4.347290
vt 4.153931 -4.649658
vt -28.285156 -66.130859
vt -28.285156 -65.972656
vt -8.356934 -66.130859
vt -4.938965 -65.972656
vt -4.938965 -66.130859
vt -8.378662 -117.890625
vt -4.938965 -120.132812
vt -4.938965 -108.990234
vt -28.292969 -66.130859
vt -24.928223 -90.505859
vt -8.146484 -93.833984
vt -28.292969 -90.505859
vt -24.936523 -93.792969
vt -4.931152 -108.541016
vt -8.174805 -105.402344
vt -28.292969 -108.541016
vt -24.964844 -105.361328
vt -4.931152 -90.505859
s 0
usemtl Logo.001
f 159/1/1 158/2/1 157/3/1
f 156/4/1 155/2/1 11/1/1
f 154/2/1 153/4/1 152/5/1
f 151/6/2 150/7/2 149/8/2
f 148/6/2 147/9/2 146/7/2
f 145/9/2 20/6/2 144/10/2
f 143/11/3 142/12/3 141/13/3
f 140/14/3 139/12/3 138/11/3
f 137/12/3 136/14/3 135/15/3
f 134/16/2 133/17/2 132/18/2
f 131/19/2 130/17/2 129/16/2
f 128/17/2 127/19/2 22/20/2
f 126/21/4 125/22/4 124/23/4
f 123/21/4 122/24/4 121/22/4
f 120/25/4 119/26/4 118/27/4
f 117/25/4 116/28/4 115/26/4
f 114/29/5 113/30/5 112/31/5
f 111/29/5 110/32/5 109/30/5
f 108/33/3 107/34/3 106/35/3
f 105/33/3 36/36/3 32/34/3
f 104/37/2 103/38/2 102/39/2
f 101/37/2 39/40/2 33/38/2
f 100/41/1 99/42/1 31/43/1
f 35/41/1 40/44/1 34/42/1
f 98/45/5 97/46/5 96/47/5
f 13/45/5 95/48/5 94/46/5
f 93/49/1 92/50/1 91/51/1
f 90/49/1 89/52/1 38/50/1
f 88/53/5 87/54/5 25/55/5
f 37/53/5 86/56/5 85/54/5
f 84/57/4 83/58/4 82/59/4
f 81/57/4 80/24/4 79/58/4
f 78/60/6 77/61/6 30/62/6
f 27/60/6 28/63/6 29/61/6
f 1/24/6 76/57/6 7/22/6
f 21/64/3 75/65/3 74/66/3
f 73/66/3 23/65/3 72/67/3
f 41/67/3 71/68/3 70/66/3
f 69/21/4 19/23/4 68/69/4
f 18/21/4 67/69/4 66/70/4
f 65/57/4 64/70/4 17/69/4
f 63/59/4 62/70/4 3/57/4
f 16/70/4 14/59/4 15/71/4
f 61/12/3 60/72/3 12/13/3
f 59/73/4 58/74/4 57/75/4
f 56/75/4 55/74/4 54/76/4
f 53/74/4 52/77/4 51/78/4
f 50/79/4 49/78/4 48/77/4
f 47/79/4 46/80/4 9/78/4
f 45/79/4 44/76/4 8/80/4
f 5/76/4 6/79/4 26/75/4
f 43/74/4 42/81/4 4/77/4
f 24/81/4 2/74/4 10/73/4
