# Blender 5.0.0
# www.blender.org
mtllib Oven_001_FrontTop_001_0.mtl
o Oven.001_FrontTop.001_0
v 0.301210 1.947793 -0.450935
v 0.301210 1.632596 -0.450935
v 0.960402 1.632596 -0.409897
v 0.960402 1.947793 -0.409897
v 0.960402 1.632596 -0.409897
v 0.301210 1.947793 -0.450935
vn -0.0688 0.0141 0.9975
vn -0.0555 -0.0131 0.9984
vn -0.0554 0.0141 0.9984
vn -0.0689 -0.0080 0.9976
vt 0.000031 0.000000
vt 1.000000 0.999969
vt 1.000000 0.000000
vt 0.000031 0.999969
s 1
usemtl FrontTop.001
f 6/1/1 5/2/2 4/3/3
f 1/1/1 2/4/4 3/2/2
