# Blender 5.0.0
# www.blender.org
mtllib Plane_004_Chrome_0.mtl
o Plane.004_Chrome_0
v 14.121841 1.060660 -0.381263
v 14.121841 2.761082 -0.381264
v 14.121841 2.761082 -0.401735
v 14.121841 1.060660 -0.401735
v 14.121841 1.060660 1.431600
v 14.121841 2.761082 1.431600
v 14.121841 2.761082 1.411128
v 14.121841 1.060660 1.411128
v 14.121841 1.060660 -1.052248
v 14.121841 2.761082 -1.052248
v 14.121841 2.761082 -1.072720
v 14.121841 1.060660 -1.072720
v 14.121841 1.060660 2.102584
v 14.121841 2.761082 2.102584
v 14.121841 2.761082 2.082112
v 14.121841 1.060660 2.082112
v 14.121841 1.060660 0.525168
v 14.121841 2.761082 0.525168
v 14.121841 2.761082 0.504696
v 14.121841 1.060660 0.504696
v 14.121841 2.761082 -0.401735
v 14.121841 1.060660 -0.381263
v 14.121841 2.761082 1.411128
v 14.121841 1.060660 1.431600
v 14.121841 2.761082 -1.072720
v 14.121841 1.060660 -1.052248
v 14.121841 2.761082 2.082112
v 14.121841 1.060660 2.102584
v 14.121841 2.761082 0.504696
v 14.121841 1.060660 0.525168
vn -0.9673 0.1793 -0.1792
vn -0.9558 0.2510 0.1534
vn -0.9673 0.1795 0.1793
vn -0.9557 0.2513 -0.1534
vn -0.9558 0.2509 0.1534
vn -0.9673 0.1795 -0.1792
vn -0.9556 0.2514 0.1534
vn -0.9557 0.2513 -0.1533
vn -0.9673 0.1792 -0.1795
vn -0.9556 0.2514 0.1535
vn -0.9673 0.1796 0.1792
vn -0.9673 0.1793 -0.1795
vn -0.9557 0.2510 -0.1534
vn -0.9556 0.2513 0.1535
vn -0.9673 0.1795 -0.1793
vn -0.9558 0.2510 0.1533
vn -0.9673 0.1791 0.1795
vn -0.9557 0.2513 -0.1535
vn -0.9673 0.1794 -0.1793
vn -0.9557 0.2512 0.1533
vn -0.9673 0.1793 0.1792
vn -0.9557 0.2512 -0.1534
vt -0.390465 0.413010
vt 2.616699 0.449203
vt -0.390465 0.449203
vt 2.616699 0.413010
vt -0.390465 -2.376648
vt 2.616699 -2.340454
vt -0.390465 -2.340454
vt 2.616699 -2.376648
vt -0.390465 3.202637
vt 2.616699 3.238831
vt -0.390465 3.238831
vt 2.616699 3.202637
vt -0.390465 -1.190002
vt 2.616699 -1.153809
vt -0.390465 -1.153809
vt 2.616699 -1.190002
vt -0.390465 2.016022
vt 2.616699 2.052216
vt -0.390465 2.052216
vt 2.616699 2.016022
s 1
usemtl Chrome
f 30/1/1 29/2/2 20/3/3
f 17/1/1 18/4/4 19/2/5
f 28/5/6 27/6/7 16/7/3
f 13/5/6 14/8/8 15/6/7
f 26/9/9 25/10/10 12/11/11
f 9/9/12 10/12/13 11/10/14
f 24/13/15 23/14/16 8/15/17
f 5/13/15 6/16/18 7/14/16
f 22/17/19 21/18/20 4/19/21
f 1/17/19 2/20/22 3/18/20
