# Blender 5.0.0
# www.blender.org
mtllib Plane_002_Marble_015_0.mtl
o Plane.002_Marble_015_0
v 1.508533 0.228225 2.405803
v -6.432343 0.228225 2.405803
v -6.432343 0.228225 2.724866
v 1.508533 0.228225 2.724866
v -6.432343 0.228226 4.336334
v 1.508533 0.228226 4.336334
v 2.081055 0.228225 2.405803
v 2.081036 0.228529 -0.349345
v 1.977194 0.228529 -0.346393
v 1.977189 0.228225 2.405803
v 1.508533 0.228529 -0.374863
v 3.594727 0.228529 -0.527573
v 6.339231 0.228225 -0.850721
v 6.339231 0.228225 -1.375939
v 3.594727 0.228529 -1.375939
v 5.601650 0.228225 2.405803
v 3.775525 0.228225 2.405803
v 2.029161 0.228529 -1.375939
v 0.164894 0.228529 -1.375939
v 3.776031 0.145524 2.724866
v 5.629397 0.145524 2.724866
v 5.629397 0.228225 2.724866
v 3.776031 0.228225 2.724866
v 1.508533 0.191932 4.336334
v 1.508533 0.191932 2.724866
v -3.705591 0.228529 -1.375939
v -4.796291 0.228529 -1.375939
v -6.432343 0.228225 -1.375939
v -6.290842 0.228225 -1.375939
v -5.886994 0.228529 -1.375939
v 6.339231 0.228225 2.405803
v -6.290842 0.228225 -0.848651
v -6.432343 0.228225 -0.857246
v -5.886992 0.228529 -0.824118
v -5.341642 0.228529 -0.790990
v -4.796292 0.228529 -0.757862
v -4.250941 0.228529 -0.724733
v -3.705589 0.228529 -0.691605
v -2.931493 0.228529 -0.644580
v -2.157396 0.228529 -0.597557
v -1.383300 0.228529 -0.550533
v -0.609203 0.228529 -0.503509
v 0.164894 0.228529 -0.456485
v 1.071044 0.228529 -0.401439
v 6.339231 0.228225 0.743034
v 2.837882 0.228529 -0.438459
v 6.339231 0.228225 1.796817
v -6.432343 0.228225 2.724866
v 1.508533 0.228225 2.405803
v 1.508533 0.228225 2.724866
v -6.432343 0.228225 2.724866
v 1.508533 0.228225 2.724866
v -6.432343 0.228226 4.336334
v 1.977194 0.228529 -0.346393
v 2.081055 0.228225 2.405803
v 1.977194 0.228529 -0.346393
v 1.977189 0.228225 2.405803
v 1.508533 0.228225 2.405803
v 1.977194 0.228529 -0.346393
v 1.508533 0.228225 2.405803
v 6.339231 0.228225 -1.375939
v 3.594727 0.228529 -0.527573
v 3.776031 0.228225 2.724866
v 5.601650 0.228225 2.405803
v 5.629397 0.228225 2.724866
v 3.776031 0.228225 2.724866
v 5.629397 0.228225 2.724866
v 3.776031 0.145524 2.724866
v 1.508533 0.228225 2.724866
v 1.508533 0.228226 4.336334
v 1.508533 0.228225 2.724866
v 1.508533 0.191932 4.336334
v -6.290842 0.228225 -0.848651
v -6.432343 0.228225 -1.375939
v -6.432343 0.228225 -0.857246
v -6.290842 0.228225 -0.848651
v -6.432343 0.228225 2.405803
v -6.432343 0.228225 2.405803
v -6.290842 0.228225 -0.848651
v -6.432343 0.228225 2.405803
v -5.886992 0.228529 -0.824118
v -6.432343 0.228225 2.405803
v -5.341642 0.228529 -0.790990
v -6.432343 0.228225 2.405803
v -4.796292 0.228529 -0.757862
v -6.432343 0.228225 2.405803
v -4.250941 0.228529 -0.724733
v -6.432343 0.228225 2.405803
v -3.705589 0.228529 -0.691605
v -6.432343 0.228225 2.405803
v -2.931493 0.228529 -0.644580
v -6.432343 0.228225 2.405803
v -2.157396 0.228529 -0.597557
v -6.432343 0.228225 2.405803
v -1.383300 0.228529 -0.550533
v -6.432343 0.228225 2.405803
v -0.609203 0.228529 -0.503509
v -6.432343 0.228225 2.405803
v 0.164894 0.228529 -0.456485
v 1.508533 0.228529 -0.374863
v -6.432343 0.228225 2.405803
v 1.071044 0.228529 -0.401439
v 1.508533 0.228225 2.405803
v -6.432343 0.228225 2.405803
v 1.508533 0.228529 -0.374863
v 6.339231 0.228225 -0.850721
v 3.594727 0.228529 -0.527573
v 3.594727 0.228529 -0.527573
v 6.339231 0.228225 0.743034
v 2.081036 0.228529 -0.349345
v 2.837882 0.228529 -0.438459
v 6.339231 0.228225 0.743034
v 2.081055 0.228225 2.405803
v 2.081036 0.228529 -0.349345
v 6.339231 0.228225 0.743034
v 2.081055 0.228225 2.405803
v 6.339231 0.228225 0.743034
v 2.081055 0.228225 2.405803
v 6.339231 0.228225 1.796817
v -6.290842 0.228225 -1.375939
v -6.290842 0.228225 -0.848651
v -6.290842 0.228225 -0.848651
v -5.886994 0.228529 -1.375939
v -6.290842 0.228225 -0.848651
v -4.796291 0.228529 -1.375939
v -6.290842 0.228225 -0.848651
v -3.705591 0.228529 -1.375939
v -6.290842 0.228225 -0.848651
v 0.164894 0.228529 -1.375939
v 3.594727 0.228529 -1.375939
v -6.290842 0.228225 -0.848651
v 2.029161 0.228529 -1.375939
v 3.594727 0.228529 -0.527573
v -6.290842 0.228225 -0.848651
v 3.594727 0.228529 -1.375939
v -5.886992 0.228529 -0.824118
v -6.290842 0.228225 -0.848651
v 3.594727 0.228529 -0.527573
v -5.341642 0.228529 -0.790990
v -5.886992 0.228529 -0.824118
v 3.594727 0.228529 -0.527573
v -4.796292 0.228529 -0.757862
v -5.341642 0.228529 -0.790990
v 3.594727 0.228529 -0.527573
v -4.250941 0.228529 -0.724733
v -4.796292 0.228529 -0.757862
v 3.594727 0.228529 -0.527573
v -3.705589 0.228529 -0.691605
v -4.250941 0.228529 -0.724733
v 3.594727 0.228529 -0.527573
v -2.931493 0.228529 -0.644580
v -3.705589 0.228529 -0.691605
v 3.594727 0.228529 -0.527573
v -2.157396 0.228529 -0.597557
v -2.931493 0.228529 -0.644580
v 3.594727 0.228529 -0.527573
v -1.383300 0.228529 -0.550533
v -2.157396 0.228529 -0.597557
v 3.594727 0.228529 -0.527573
v -0.609203 0.228529 -0.503509
v -1.383300 0.228529 -0.550533
v 3.594727 0.228529 -0.527573
v 2.837882 0.228529 -0.438459
v -0.609203 0.228529 -0.503509
v 3.594727 0.228529 -0.527573
v 0.164894 0.228529 -0.456485
v -0.609203 0.228529 -0.503509
v 2.837882 0.228529 -0.438459
v 1.071044 0.228529 -0.401439
v 0.164894 0.228529 -0.456485
v 2.837882 0.228529 -0.438459
v 2.081036 0.228529 -0.349345
v 1.071044 0.228529 -0.401439
v 2.837882 0.228529 -0.438459
v 1.508533 0.228529 -0.374863
v 1.071044 0.228529 -0.401439
v 2.081036 0.228529 -0.349345
v 1.977194 0.228529 -0.346393
v 1.508533 0.228529 -0.374863
v 2.081036 0.228529 -0.349345
vn -0.0000 1.0000 -0.0000
vn 0.3645 0.6849 0.6309
vn -0.0309 0.9990 0.0309
vn -0.0000 1.0000 -0.0001
vn 0.3644 0.6849 0.6309
vn 0.0001 0.7755 0.6313
vn -0.0000 0.9719 0.2352
vn -0.0000 0.7755 0.6313
vn -0.0000 0.9965 0.0835
vn -0.0000 0.9823 0.1872
vn -0.0007 0.9855 0.1695
vn 0.0107 0.9999 0.0001
vn -0.0000 0.9999 0.0114
vn 0.0040 1.0000 0.0048
vn 0.0171 0.9999 0.0001
vn -0.0000 1.0000 0.0001
vn -0.0000 1.0000 0.0002
vn 0.0001 1.0000 -0.0000
vn 0.0119 0.9999 -0.0000
vn 0.0487 0.9988 0.0001
vn 0.0009 1.0000 0.0014
vn 0.0561 0.9984 0.0001
vn 0.9633 0.0541 0.2628
vn -0.0000 0.9855 0.1695
vn 0.9633 0.0541 0.2629
vn -0.0194 0.9994 0.0288
vn 0.8116 -0.4131 0.4131
vn 0.8333 0.0003 -0.5528
vn 0.0119 0.9995 -0.0286
vn 0.0680 0.1079 -0.9918
vn -0.3470 -0.3881 0.8538
vn 0.4900 -0.1604 0.8568
vn -0.8536 0.3535 -0.3826
vn -0.0814 0.9349 -0.3454
vn 0.1597 0.8568 -0.4902
vn -0.4018 0.8538 -0.3311
vn 0.0624 0.9279 -0.3675
vn 0.0230 0.9925 -0.1197
vn 0.3645 0.6849 0.6310
vn -0.0000 0.9996 0.0300
vn -0.0104 0.9999 -0.0000
vn -0.4131 0.8116 -0.4131
vn 0.0770 0.9970 -0.0000
vn -0.5528 0.8333 0.0003
vn 0.0009 1.0000 0.0015
vt 1.470367 -0.374084
vt 1.483124 -0.660614
vt 1.468872 -0.426056
vt 1.496429 -0.879578
vt 1.514954 0.004730
vt 1.523987 -1.333069
vt 1.547516 -1.720520
vt 1.559570 0.383530
vt 1.571045 -2.107971
vt 1.594604 -2.495422
vt 1.618134 -2.882874
vt 1.641663 -3.270264
vt 1.658234 -3.543213
vt 1.674835 -3.816162
vt 1.691406 -4.089111
vt 1.707977 -4.362061
vt 1.720276 -4.564209
vt 1.984161 0.383530
vt 1.984161 -0.400024
vt 1.984161 -1.333069
vt 1.984161 -3.270264
vt 1.984161 -3.816162
vt 1.984161 -4.362061
vt 1.984161 -4.564209
vt 0.396202 1.757156
vt 0.091404 -0.374054
vt 0.091404 1.757156
vt 0.923630 1.757156
vt 1.721313 1.757156
vt 0.091404 -4.635010
vt 0.091404 -0.660614
vt 1.724579 -4.635010
vt 0.267883 0.384064
vt 0.004200 0.454834
vt 0.267883 0.454834
vt 0.008498 0.384064
vt -0.874832 -0.660614
vt -0.068287 -0.660614
vt -0.068287 0.474274
vt -0.068287 1.401886
vt 0.091404 1.388000
vt 0.091404 0.474030
vt 1.984161 1.757156
vt 0.091404 -0.426056
vt -0.874832 -4.635010
vt -0.068287 -4.635010
s 0
usemtl Marble_015
f 180/1/1 179/2/1 178/3/1
f 177/1/1 176/4/1 175/2/1
f 174/5/1 173/4/1 172/1/1
f 171/5/1 170/6/1 169/4/1
f 168/5/1 167/7/1 166/6/1
f 165/8/1 164/7/1 163/5/1
f 162/8/1 161/9/1 160/7/1
f 159/8/1 158/10/1 157/9/1
f 156/8/1 155/11/1 154/10/1
f 153/8/1 152/12/1 151/11/1
f 150/8/1 149/13/1 148/12/1
f 147/8/1 146/14/1 145/13/1
f 144/8/1 143/15/1 142/14/1
f 141/8/1 140/16/1 139/15/1
s 1
f 138/8/1 137/17/1 136/16/1
f 135/18/2 134/17/1 133/8/1
f 132/19/3 131/17/4 130/18/5
f 129/20/6 128/17/1 18/19/3
f 127/21/7 126/17/1 19/20/8
f 125/22/9 124/17/1 26/21/7
f 123/23/10 122/17/1 27/22/9
f 121/17/1 30/23/10 120/24/11
f 119/25/12 118/26/13 31/27/14
f 117/28/15 116/26/13 47/25/12
f 115/28/15 114/1/16 113/26/13
f 112/28/15 111/5/17 110/1/17
f 109/28/15 108/8/17 46/5/17
f 107/8/18 45/28/15 106/29/19
f 105/2/16 104/30/20 103/31/21
f 102/4/16 101/30/20 100/2/16
f 99/6/16 98/30/20 44/4/16
f 97/7/16 96/30/20 43/6/16
f 95/9/16 94/30/20 42/7/16
f 93/10/16 92/30/20 41/9/16
f 91/11/16 90/30/20 40/10/16
f 89/12/16 88/30/20 39/11/16
f 87/13/16 86/30/20 38/12/16
f 85/14/16 84/30/20 37/13/16
f 83/15/16 82/30/20 36/14/16
f 81/16/16 80/30/20 35/15/16
f 79/17/1 78/30/20 34/16/1
f 77/30/20 76/17/1 75/32/22
f 74/33/23 73/34/1 29/35/24
f 28/33/25 33/36/22 32/34/1
f 72/37/26 71/38/27 70/37/28
f 24/37/26 25/38/29 69/38/27
f 68/39/30 67/40/31 66/39/32
f 20/39/30 21/40/33 65/40/31
f 64/41/34 63/39/35 22/40/36
f 16/41/34 17/42/37 23/39/35
f 62/8/18 61/43/38 15/18/39
f 12/8/18 13/29/19 14/43/38
f 60/31/21 59/3/16 11/2/16
f 58/31/21 57/44/40 56/3/16
f 55/26/13 54/3/16 10/44/40
f 7/26/13 8/1/16 9/3/16
f 53/45/41 52/38/42 51/46/43
f 5/45/41 6/37/44 50/38/42
f 49/31/21 48/46/43 4/38/42
f 1/31/45 2/30/20 3/46/43
