# Blender 5.0.0
# www.blender.org
mtllib star_decorations_0.mtl
o star_decorations_0
v -4.443014 2.348296 0.652212
v -4.442723 2.394455 0.632481
v -4.473807 2.240495 0.591597
v -4.476617 2.240463 0.597982
v -4.477203 2.240489 0.604934
v -4.466196 2.240855 0.621834
v -4.455700 2.394631 0.503174
v -4.459603 2.241028 0.624107
v -4.452629 2.241197 0.624116
v -4.477305 2.358301 0.602046
v -4.440521 2.241453 0.617581
v -4.436698 2.241513 0.611746
v -4.434978 2.241515 0.604985
v -4.435544 2.241461 0.598033
v -4.449182 2.241044 0.583175
v -4.456059 2.240870 0.582019
v -4.443302 2.306204 0.602456
v -4.462939 2.240710 0.583158
v -4.447725 2.315529 0.592144
v -4.443053 2.241212 0.586503
v -4.464218 2.315128 0.592124
v -4.469077 2.240580 0.586471
v -4.458214 2.315412 0.615976
v -4.444736 2.315620 0.595400
v -4.438336 2.241357 0.591641
v -4.460328 2.315210 0.590024
v -4.462392 2.315302 0.614535
v -4.455220 2.464159 0.601180
v -4.442966 2.315686 0.599451
v -4.465876 2.315201 0.611816
v -4.456454 2.276636 0.527510
v -4.471694 2.240696 0.617543
v -4.468924 2.347651 0.552032
v -4.442607 2.315721 0.603857
v -4.468289 2.315121 0.608112
v -4.475500 2.240570 0.611698
v -4.443698 2.315719 0.608142
v -4.468886 2.348463 0.652220
v -4.469368 2.315070 0.603824
v -4.446120 2.315681 0.611840
v -4.469174 2.306371 0.602464
v -4.455967 2.315312 0.589302
v -4.451609 2.315422 0.590035
v -4.468997 2.315054 0.599419
v -4.467216 2.315074 0.595372
v -4.456398 2.278108 0.670289
v -4.468595 2.394622 0.632489
v -4.449612 2.315612 0.614551
v -4.446030 2.241344 0.621859
v -4.453794 2.315519 0.615981
v -4.435944 2.358034 0.602033
v -4.468618 2.394124 0.571012
v -4.443052 2.347484 0.552024
v -4.442746 2.393957 0.571004
v -4.455636 2.394815 0.696078
v -4.443014 2.348296 0.652212
v -4.442723 2.394455 0.632481
v -4.468924 2.347651 0.552032
v -4.468618 2.394124 0.571012
v -4.443052 2.347484 0.552024
v -4.468924 2.347651 0.552032
v -4.443014 2.348296 0.652212
v -4.455220 2.464159 0.601180
v -4.442723 2.394455 0.632481
v -4.468595 2.394622 0.632489
v -4.455220 2.464159 0.601180
v -4.442723 2.394455 0.632481
v -4.455220 2.464159 0.601180
v -4.468618 2.394124 0.571012
v -4.442746 2.393957 0.571004
v -4.456454 2.276636 0.527510
v -4.443302 2.306204 0.602456
v -4.456454 2.276636 0.527510
v -4.468924 2.347651 0.552032
v -4.469174 2.306371 0.602464
v -4.456454 2.276636 0.527510
v -4.443302 2.306204 0.602456
v -4.443052 2.347484 0.552024
v -4.456398 2.278108 0.670289
v -4.469174 2.306371 0.602464
v -4.456398 2.278108 0.670289
v -4.443302 2.306204 0.602456
v -4.469174 2.306371 0.602464
v -4.456398 2.278108 0.670289
v -4.468886 2.348463 0.652220
v -4.443014 2.348296 0.652212
v -4.455636 2.394815 0.696078
v -4.468886 2.348463 0.652220
v -4.468595 2.394622 0.632489
v -4.455636 2.394815 0.696078
v -4.468595 2.394622 0.632489
v -4.442723 2.394455 0.632481
v -4.455636 2.394815 0.696078
v -4.443014 2.348296 0.652212
v -4.468886 2.348463 0.652220
v -4.455700 2.394631 0.503174
v -4.443052 2.347484 0.552024
v -4.442746 2.393957 0.571004
v -4.455700 2.394631 0.503174
v -4.442746 2.393957 0.571004
v -4.468618 2.394124 0.571012
v -4.455700 2.394631 0.503174
v -4.468618 2.394124 0.571012
v -4.468924 2.347651 0.552032
v -4.435944 2.358034 0.602033
v -4.442746 2.393957 0.571004
v -4.443052 2.347484 0.552024
v -4.435944 2.358034 0.602033
v -4.442723 2.394455 0.632481
v -4.442746 2.393957 0.571004
v -4.435944 2.358034 0.602033
v -4.443052 2.347484 0.552024
v -4.443302 2.306204 0.602456
v -4.435944 2.358034 0.602033
v -4.443302 2.306204 0.602456
v -4.443014 2.348296 0.652212
v -4.477305 2.358301 0.602046
v -4.469174 2.306371 0.602464
v -4.468924 2.347651 0.552032
v -4.477305 2.358301 0.602046
v -4.468886 2.348463 0.652220
v -4.469174 2.306371 0.602464
v -4.477305 2.358301 0.602046
v -4.468618 2.394124 0.571012
v -4.468595 2.394622 0.632489
v -4.477305 2.358301 0.602046
v -4.468595 2.394622 0.632489
v -4.468886 2.348463 0.652220
v -4.446030 2.241344 0.621859
v -4.453794 2.315519 0.615981
v -4.476617 2.240463 0.597982
v -4.467216 2.315074 0.595372
v -4.456059 2.240870 0.582019
v -4.451609 2.315422 0.590035
v -4.446030 2.241344 0.621859
v -4.449612 2.315612 0.614551
v -4.440521 2.241453 0.617581
v -4.449612 2.315612 0.614551
v -4.476617 2.240463 0.597982
v -4.468997 2.315054 0.599419
v -4.477203 2.240489 0.604934
v -4.468997 2.315054 0.599419
v -4.440521 2.241453 0.617581
v -4.446120 2.315681 0.611840
v -4.436698 2.241513 0.611746
v -4.446120 2.315681 0.611840
v -4.477203 2.240489 0.604934
v -4.469368 2.315070 0.603824
v -4.475500 2.240570 0.611698
v -4.469368 2.315070 0.603824
v -4.436698 2.241513 0.611746
v -4.443698 2.315719 0.608142
v -4.434978 2.241515 0.604985
v -4.443698 2.315719 0.608142
v -4.475500 2.240570 0.611698
v -4.468289 2.315121 0.608112
v -4.471694 2.240696 0.617543
v -4.468289 2.315121 0.608112
v -4.434978 2.241515 0.604985
v -4.442607 2.315721 0.603857
v -4.435544 2.241461 0.598033
v -4.442607 2.315721 0.603857
v -4.471694 2.240696 0.617543
v -4.465876 2.315201 0.611816
v -4.466196 2.240855 0.621834
v -4.465876 2.315201 0.611816
v -4.456059 2.240870 0.582019
v -4.455967 2.315312 0.589302
v -4.462939 2.240710 0.583158
v -4.455967 2.315312 0.589302
v -4.435544 2.241461 0.598033
v -4.442966 2.315686 0.599451
v -4.438336 2.241357 0.591641
v -4.442966 2.315686 0.599451
v -4.466196 2.240855 0.621834
v -4.462392 2.315302 0.614535
v -4.459603 2.241028 0.624107
v -4.462392 2.315302 0.614535
v -4.462939 2.240710 0.583158
v -4.460328 2.315210 0.590024
v -4.469077 2.240580 0.586471
v -4.460328 2.315210 0.590024
v -4.438336 2.241357 0.591641
v -4.444736 2.315620 0.595400
v -4.443053 2.241212 0.586503
v -4.444736 2.315620 0.595400
v -4.452629 2.241197 0.624116
v -4.459603 2.241028 0.624107
v -4.458214 2.315412 0.615976
v -4.453794 2.315519 0.615981
v -4.452629 2.241197 0.624116
v -4.458214 2.315412 0.615976
v -4.473807 2.240495 0.591597
v -4.469077 2.240580 0.586471
v -4.464218 2.315128 0.592124
v -4.467216 2.315074 0.595372
v -4.473807 2.240495 0.591597
v -4.464218 2.315128 0.592124
v -4.449182 2.241044 0.583175
v -4.443053 2.241212 0.586503
v -4.447725 2.315529 0.592144
v -4.451609 2.315422 0.590035
v -4.449182 2.241044 0.583175
v -4.447725 2.315529 0.592144
v -4.477203 2.240489 0.604934
v -4.475500 2.240570 0.611698
v -4.476617 2.240463 0.597982
v -4.473807 2.240495 0.591597
v -4.476617 2.240463 0.597982
v -4.475500 2.240570 0.611698
v -4.471694 2.240696 0.617543
v -4.473807 2.240495 0.591597
v -4.475500 2.240570 0.611698
v -4.469077 2.240580 0.586471
v -4.473807 2.240495 0.591597
v -4.471694 2.240696 0.617543
v -4.466196 2.240855 0.621834
v -4.469077 2.240580 0.586471
v -4.471694 2.240696 0.617543
v -4.462939 2.240710 0.583158
v -4.469077 2.240580 0.586471
v -4.466196 2.240855 0.621834
v -4.459603 2.241028 0.624107
v -4.462939 2.240710 0.583158
v -4.466196 2.240855 0.621834
v -4.456059 2.240870 0.582019
v -4.462939 2.240710 0.583158
v -4.459603 2.241028 0.624107
v -4.452629 2.241197 0.624116
v -4.456059 2.240870 0.582019
v -4.459603 2.241028 0.624107
v -4.449182 2.241044 0.583175
v -4.456059 2.240870 0.582019
v -4.452629 2.241197 0.624116
v -4.446030 2.241344 0.621859
v -4.449182 2.241044 0.583175
v -4.452629 2.241197 0.624116
v -4.443053 2.241212 0.586503
v -4.449182 2.241044 0.583175
v -4.446030 2.241344 0.621859
v -4.440521 2.241453 0.617581
v -4.443053 2.241212 0.586503
v -4.446030 2.241344 0.621859
v -4.438336 2.241357 0.591641
v -4.443053 2.241212 0.586503
v -4.440521 2.241453 0.617581
v -4.436698 2.241513 0.611746
v -4.438336 2.241357 0.591641
v -4.440521 2.241453 0.617581
v -4.435544 2.241461 0.598033
v -4.438336 2.241357 0.591641
v -4.436698 2.241513 0.611746
v -4.434978 2.241515 0.604985
v -4.435544 2.241461 0.598033
v -4.436698 2.241513 0.611746
vn 0.0243 -0.9997 0.0058
vn 0.6122 0.0980 -0.7846
vn 0.3198 0.0973 -0.9425
vn 0.3245 0.0974 -0.9409
vn 0.6090 0.0980 -0.7871
vn -0.6098 0.0993 -0.7863
vn -0.8335 0.1011 -0.5432
vn -0.8318 0.1012 -0.5457
vn -0.6131 0.0994 -0.7837
vn -0.1649 0.1102 0.9801
vn 0.1573 0.1098 0.9814
vn 0.1626 0.1098 0.9806
vn -0.1700 0.1102 0.9793
vn 0.8336 0.0993 -0.5434
vn 0.6123 0.0980 -0.7846
vn 0.8321 0.0993 -0.5457
vn -0.3216 0.0980 -0.9418
vn -0.3264 0.0980 -0.9401
vn -0.4745 0.1098 0.8734
vn -0.1701 0.1102 0.9793
vn -0.4785 0.1098 0.8712
vn 0.9646 0.1011 -0.2434
vn 0.8321 0.0993 -0.5456
vn 0.8336 0.0993 -0.5433
vn 0.9644 0.1011 -0.2446
vn 0.0015 0.0974 -0.9952
vn -0.3263 0.0980 -0.9402
vn -0.3215 0.0981 -0.9418
vn -0.0038 0.0973 -0.9952
vn -0.7326 0.1088 0.6719
vn -0.4786 0.1098 0.8711
vn -0.4746 0.1098 0.8733
vn -0.7326 0.1089 0.6719
vn -0.7350 0.1088 0.6693
vn -0.4786 0.1099 0.8711
vn 0.9912 0.1031 0.0827
vn 0.9644 0.1011 -0.2445
vn 0.9647 0.1011 -0.2433
vn 0.9912 0.1031 0.0833
vn -0.9113 0.1073 0.3975
vn -0.7350 0.1088 0.6692
vn -0.7327 0.1088 0.6718
vn -0.9121 0.1072 0.3957
vn 0.9105 0.1053 0.3999
vn 0.9912 0.1031 0.0834
vn 0.9912 0.1031 0.0828
vn 0.9096 0.1053 0.4020
vn -0.9912 0.1053 0.0801
vn -0.9121 0.1073 0.3957
vn -0.9912 0.1053 0.0798
vn 0.7311 0.1072 0.6738
vn 0.9095 0.1053 0.4021
vn 0.9104 0.1053 0.4000
vn 0.7286 0.1073 0.6765
vn -0.9638 0.1032 -0.2460
vn -0.9912 0.1053 0.0797
vn -0.9912 0.1053 0.0800
vn -0.9637 0.1032 -0.2460
vn -0.9641 0.1032 -0.2447
vn 0.4725 0.1088 0.8746
vn 0.4683 0.1088 0.8768
vn -0.0037 0.0974 -0.9952
vn 0.0016 0.0974 -0.9952
vn 0.3197 0.0973 -0.9425
vn -0.0037 0.0973 -0.9952
vn -0.8319 0.1011 -0.5457
vn -0.9637 0.1032 -0.2461
vn -0.8319 0.1012 -0.5457
vn -0.8335 0.1011 -0.5431
vn 0.4682 0.1088 0.8769
vn 0.4724 0.1088 0.8746
vn 0.1574 0.1098 0.9814
vn -0.9778 0.0876 0.1904
vn -0.9779 0.0873 0.1900
vn -0.9800 0.0835 0.1808
vn -0.9781 0.2082 -0.0013
vn -0.9721 0.2344 -0.0015
vn -0.9807 -0.1466 0.1297
vn -0.9792 -0.1522 0.1344
vn -0.9823 -0.1424 -0.1214
vn -0.9822 -0.1429 -0.1219
vn -0.9793 -0.1544 -0.1312
vn 0.9819 -0.1476 0.1191
vn 0.9840 -0.1388 0.1117
vn 0.9832 -0.1436 -0.1127
vn 0.9832 -0.1438 -0.1128
vn 0.9839 -0.1406 -0.1102
vn 0.9838 0.1795 -0.0018
vn 0.9828 0.1845 -0.0019
vn 0.9833 0.0633 -0.1709
vn 0.9835 0.0629 -0.1699
vn 0.9868 0.0556 -0.1520
vn -0.9796 0.0815 -0.1838
vn -0.9796 0.0814 -0.1837
vn -0.9791 0.0823 -0.1858
vn 0.0065 0.9999 0.0087
vn 0.9832 0.0633 -0.1709
vn 0.9800 0.0697 -0.1865
vn -0.0042 -0.6867 0.7270
vn 0.0065 1.0000 -0.0043
vn -0.9779 0.0873 0.1899
vn -0.9758 0.0910 0.1986
vn 0.0019 0.2491 0.9685
vn -0.0061 -0.9235 -0.3837
vn -0.9807 -0.1465 0.1296
vn -0.9818 -0.1420 0.1258
vn 0.9826 -0.1462 -0.1148
vn -0.9845 -0.1335 -0.1141
vn -0.0059 -0.9299 0.3679
vn 0.0023 0.3952 -0.9186
vn 0.9844 0.1757 -0.0018
vn 0.0029 0.4101 0.9120
vn 0.9818 -0.1476 0.1191
vn 0.9800 -0.1546 0.1251
vn 0.0018 0.3267 -0.9451
vn -0.9821 0.1884 -0.0012
vn -0.9801 0.0805 -0.1814
vn -0.0049 -0.7202 -0.6938
vn 0.9822 0.0686 0.1749
vn 0.9819 0.0691 0.1763
vn 0.9869 0.0580 0.1503
vn 0.9822 0.0686 0.1750
vn 0.9771 0.0784 0.1980
vt 0.460838 0.663353
vt 0.456215 0.635612
vt 0.460838 0.649101
vt 0.447456 0.624359
vt 0.456215 0.676842
vt 0.435516 0.616562
vt 0.447456 0.688095
vt 0.421700 0.613068
vt 0.435516 0.695892
vt 0.407486 0.614243
vt 0.421700 0.699394
vt 0.394432 0.619972
vt 0.407486 0.698212
vt 0.383942 0.629623
vt 0.394432 0.692490
vt 0.377159 0.642166
vt 0.383942 0.682831
vt 0.374809 0.656227
vt 0.377159 0.670288
vt 0.914688 0.472015
vt 0.762268 0.455093
vt 0.914810 0.462982
vt 0.762100 0.469345
vt 0.916931 0.435974
vt 0.767807 0.398376
vt 0.918320 0.427032
vt 0.765625 0.412476
vt 0.922714 0.543709
vt 0.771729 0.568535
vt 0.920807 0.534874
vt 0.774750 0.582474
vt 0.914841 0.481049
vt 0.762329 0.483612
vt 0.915909 0.444946
vt 0.763992 0.426636
vt 0.924942 0.552460
vt 0.778275 0.596291
vt 0.915237 0.490082
vt 0.762955 0.497849
vt 0.915207 0.453949
vt 0.762894 0.440857
vt 0.927505 0.561127
vt 0.782318 0.609962
vt 0.915863 0.499084
vt 0.763947 0.512070
vt 0.924667 0.400696
vt 0.782318 0.343292
vt 0.927505 0.392120
vt 0.777817 0.356827
vt 0.916733 0.508080
vt 0.765305 0.526260
vt 0.922180 0.409393
vt 0.773895 0.370529
vt 0.917831 0.517052
vt 0.767029 0.540413
vt 0.920059 0.418167
vt 0.770554 0.384384
vt 0.919174 0.525986
vt 0.769165 0.554512
vt 0.124861 0.883413
vt 0.217281 0.935499
vt 0.208851 0.828377
vt 0.316750 0.826717
vt 0.126816 0.753906
vt 0.255608 0.739449
vt 0.231953 0.535027
vt 0.310234 0.423203
vt 0.208691 0.425690
vt 0.225410 0.312531
vt 0.133366 0.369873
vt 0.137657 0.486816
vt 0.374130 0.693230
vt 0.372231 0.827553
vt 0.095646 0.241425
vt 0.245586 0.587837
vt 0.117676 0.609962
vt 0.222443 0.990528
vt 0.097162 0.999659
vt 0.385834 0.543282
vt 0.089048 0.718948
vt 0.000341 0.830349
vt 0.385834 0.285324
vt 0.201488 0.610641
vt 0.374130 0.979871
vt 0.000341 0.433304
vt 0.234245 0.257324
s 0
usemtl decorations
f 255/1/1 254/2/1 253/3/1
f 252/1/1 251/4/1 250/2/1
f 249/5/1 248/4/1 247/1/1
f 246/5/1 245/6/1 244/4/1
f 243/7/1 242/6/1 241/5/1
f 240/7/1 239/8/1 238/6/1
f 237/9/1 236/8/1 235/7/1
f 234/9/1 233/10/1 232/8/1
f 231/11/1 230/10/1 229/9/1
f 228/11/1 227/12/1 226/10/1
f 225/13/1 224/12/1 223/11/1
f 222/13/1 221/14/1 220/12/1
f 219/15/1 218/14/1 217/13/1
f 216/15/1 215/16/1 214/14/1
f 213/17/1 212/16/1 211/15/1
f 210/17/1 209/18/1 208/16/1
f 207/18/1 206/17/1 205/19/1
s 1
f 204/20/2 203/21/3 202/22/4
f 201/20/2 200/23/5 199/21/3
f 198/24/6 197/25/7 196/26/8
f 195/24/6 194/27/9 193/25/7
f 192/28/10 191/29/11 190/30/12
f 189/28/10 188/31/13 187/29/11
f 186/32/14 185/23/5 19/20/15
f 184/32/14 183/33/16 20/23/5
f 182/34/17 181/27/9 21/24/6
f 180/34/17 179/35/18 22/27/9
f 178/36/19 177/31/20 23/28/10
f 176/36/19 175/37/21 8/31/20
f 174/38/22 173/33/23 24/32/24
f 172/38/22 171/39/25 25/33/23
f 170/40/26 169/35/27 26/34/28
f 168/40/26 167/41/29 18/35/27
f 166/42/30 165/37/31 27/36/32
f 164/42/33 163/43/34 6/37/35
f 162/44/36 161/39/37 29/38/38
f 160/44/36 159/45/39 14/39/37
f 158/46/40 157/47/41 30/48/42
f 156/46/40 155/49/43 32/47/41
f 154/50/44 153/45/45 34/44/46
f 152/50/44 151/51/47 13/45/45
f 150/52/48 149/49/49 35/46/40
f 148/52/48 147/53/50 36/49/49
f 146/54/51 145/51/52 37/50/53
f 144/54/51 143/55/54 12/51/52
f 142/56/55 141/53/56 39/52/57
f 140/56/58 139/57/59 5/53/56
f 138/58/60 137/55/54 40/54/51
f 136/58/60 135/59/61 11/55/54
f 134/22/4 133/41/62 42/40/63
f 43/22/4 15/21/64 16/41/65
f 132/26/66 131/57/59 44/56/67
f 45/26/68 3/25/69 4/57/59
f 130/30/12 129/59/70 48/58/71
f 50/30/12 9/29/72 49/59/70
f 128/60/73 127/61/74 126/62/75
f 125/61/76 124/63/76 123/62/77
f 122/64/78 121/60/78 120/62/79
f 119/65/80 118/64/81 117/62/82
f 116/66/83 115/67/83 114/68/84
f 113/67/85 112/69/86 111/68/87
f 110/70/88 109/71/88 108/68/89
f 107/69/90 106/70/91 105/68/92
f 104/65/93 103/63/94 102/72/95
s 0
f 101/63/96 100/73/96 99/72/96
s 1
f 98/70/91 97/69/97 96/74/98
s 0
f 95/75/99 94/66/99 93/76/99
f 92/77/100 91/61/100 90/78/100
s 1
f 89/61/101 88/60/73 87/78/102
s 0
f 86/66/103 85/75/103 84/79/103
f 83/64/104 82/80/104 81/81/104
s 1
f 38/60/105 80/64/105 79/81/106
f 78/69/86 77/67/85 76/82/107
f 75/64/81 74/65/80 73/83/108
s 0
f 72/80/109 41/64/109 71/83/109
f 70/73/110 69/63/110 68/84/110
s 1
f 67/71/88 54/70/88 66/85/111
s 0
f 65/61/112 64/77/112 63/84/112
s 1
f 17/67/113 62/66/113 46/79/114
s 0
f 61/86/115 60/69/115 31/82/115
s 1
f 59/63/76 47/61/76 28/84/116
f 52/63/94 58/65/93 10/62/117
s 0
f 53/69/118 33/86/118 7/74/118
s 1
f 57/71/119 56/66/120 51/68/121
f 1/66/120 2/71/122 55/76/123
